<?xml version="1.0" encoding="utf-8"?>
<!-- Generator: Adobe Illustrator 23.1.1, SVG Export Plug-In . SVG Version: 6.00 Build 0)  -->
<svg version="1.1" id="Layer_1" xmlns="http://www.w3.org/2000/svg" xmlns:xlink="http://www.w3.org/1999/xlink" x="0px" y="0px"
	 viewBox="0 0 600 600" style="enable-background:new 0 0 600 600;" xml:space="preserve">
<style type="text/css">
	.st0{fill:none;}
	.st1{fill:#231F20;}
</style>
<g>
	<path class="st0" d="M144.8,367.1V222.8c0-10.9,5.8-21,15.3-26.5l125-72.1c9.5-5.5,21.1-5.5,30.6,0l125,72.1
		c9.4,5.5,15.2,15.6,15.3,26.5v144.3c0,3.8-0.7,7.5-2,10.9h122v-1.2V219.3c-0.1-44.7-24.2-86.3-62.9-108.8L363.2,24
		C344,13,322.3,7.2,300.4,7.2S256.8,13,237.6,24L87.7,110.5C49,132.9,25,174.6,25,219.3V378h121.8
		C145.5,374.6,144.8,370.9,144.8,367.1z"/>
	<path class="st1" d="M516.7,104.3L366.8,17.8C346.6,6.2,323.7,0,300.4,0c-23.3,0-46.2,6.2-66.4,17.8L84.1,104.3
		C43.2,128,17.8,172,17.8,219.3V378h0v181.2c0,22,17.8,39.8,39.8,39.8h160.3h26h299.3c22,0,39.9-17.8,39.9-39.8V397.3
		c0.1-1.6,0.1-3.3,0.1-4.9v-15.6V219.3C583.1,172,557.6,128,516.7,104.3z M25,219.3c0-44.7,24-86.4,62.7-108.8L237.6,24
		c19.2-11,40.9-16.8,62.8-16.8S344,13,363.2,24l149.9,86.5c38.7,22.4,62.8,64.1,62.9,108.8v157.5v1.2H454c1.3-3.4,2-7.1,2-10.9
		V222.8c-0.1-10.9-5.9-21-15.3-26.5l-125-72.1c-9.5-5.5-21.1-5.5-30.6,0l-125,72.1c-9.5,5.5-15.3,15.6-15.3,26.5v144.3
		c0,3.8,0.7,7.5,2,10.9H25V219.3z M461.1,438.9h-5.8v14.5h-1.2v-14.5h-5.9v-1h12.9V438.9z M428,445.1v1h-7.1v6.3h7.5v1h-8.7v-15.5
		h8.5v1h-7.3v6.2H428z M414.4,437.8v15.6c0,1.8-0.4,2.9-1,3.6c-0.7,0.7-1.4,1-2.3,1c-0.2,0-0.4-0.1-0.7-0.2l-0.1-1.1
		c0.2,0.1,0.5,0.1,0.7,0.1c1.5,0,2.2-1,2.2-3.1v-15.9H414.4z M211.9,449.8h-0.4l-4.2-5.1v8.9h-4.5v-15.4h4.2l4.7,5.8l4.8-5.8h4.2
		v15.4h-4.6v-8.9L211.9,449.8z M195.9,437.9v15.5h-1l-11.8-13.6v13.6h-1.2v-15.5h1l11.8,13.5v-13.5H195.9z M188.9,358.6V229.9
		l53.6-31l57.8,70.6l58-70.6l53.6,31v128.7L356,390.9V278.5l-54,66.6h-4.7l-54.2-66.6v111.4L188.9,358.6z M341,453.6h-4.6v-8.9
		l-4.2,5.1h-0.4l-4.2-5.1v8.9h-4.5v-15.4h4.2l4.7,5.8l4.8-5.8h4.2V453.6z M370.1,486.3c3.1,0.8,5.6,1.9,7.5,3.3
		c1.9,1.4,3.4,3.1,4.3,5c0.9,1.9,1.4,4,1.4,6.3c0,2.4-0.5,4.8-1.5,6.8s-2.2,3.8-3.6,5.1c-1.4,1.3-2.8,2.3-4.3,2.8
		c4.6,1.8,8.1,4.1,10.5,6.9c2.4,2.8,3.6,6.4,3.6,10.8c0,5.8-1.9,10.4-5.9,13.9c-0.8,0.7-1.7,1.3-2.7,1.9c-3.6,2.2-8.3,3.3-13.9,3.3
		h-38.9v-56.2v-11.1h32.5C363.3,485.1,367,485.5,370.1,486.3z M364.4,453.5v-15.6h4.3c1.7,0,2.9,0.3,3.8,1.1c0.9,0.7,1.3,1.7,1.3,3
		s-0.4,2.3-1.3,3.1c-0.9,0.7-2.2,1.1-3.9,1.1h-3v7.3H364.4z M386.2,448.1l3.5,5.4h-1.4l-2.7-4.3c-0.9-1.5-1.6-2.3-2.1-2.7
		c-0.5-0.3-1.2-0.5-2.2-0.5h-2.1v7.5H378v-15.6h4c1.6,0,2.9,0.4,3.8,1.1c0.9,0.7,1.3,1.7,1.3,2.9c0,1.8-1,3.1-3,3.8
		C384.6,445.9,385.3,446.7,386.2,448.1z M273.1,536h-1.6l-18.4-22.5v38.9h-19.7v-67.2h18.4l20.7,25.2l20.7-25.2h18.4v67.2h-20.2
		v-38.9L273.1,536z M283.9,444.3v3.1h-6.3h-0.1v6.2h-4.7v-11.1v-4.3h11.1v3.1h-6.4v3H283.9z M299.1,447.8c0.3,0.4,0.7,1.2,1.2,2.3
		l1.6,3.4h-5l-1.2-2.7c-0.4-1-0.8-1.7-1.2-2.2c-0.3-0.5-0.7-0.8-1-0.9c-0.3-0.1-0.8-0.2-1.3-0.2h-0.5v6H287v-15.4h8.1
		c1.2,0,2.3,0.3,3.1,0.8c0.9,0.5,1.4,1.2,1.8,1.9c0.3,0.7,0.5,1.4,0.5,2.1c0,0.8-0.2,1.5-0.5,2c-0.3,0.6-0.7,1-1,1.2
		s-0.7,0.5-1.1,0.7C298.4,447.1,298.8,447.4,299.1,447.8z M268.9,438.6v15h-4.1l-8-8.6v8.6h-4.6v-15.4h4.1l8,8.5v-8.5h4.2h0.4V438.6
		z M302.3,453.6l6.8-15.4h5.3l6.8,15.4h-4.8l-1.3-3.1h-6.7l-1.3,3.1H302.3z M159.1,437.9h4.3c1.6,0,2.9,0.3,3.8,1.1
		c0.9,0.7,1.3,1.7,1.3,3s-0.4,2.4-1.3,3.1c-0.9,0.7-2.2,1.1-3.9,1.1h-3v7.3h-1.2V437.9z M153.8,440c1.6,1.6,2.4,3.5,2.4,5.7
		c0,2.3-0.8,4.2-2.4,5.7c-1.6,1.5-3.6,2.3-5.9,2.3c-2.3,0-4.2-0.8-5.8-2.3c-1.6-1.6-2.4-3.5-2.4-5.7c0-2.3,0.8-4.2,2.4-5.7
		c1.6-1.5,3.5-2.3,5.8-2.3C150.2,437.7,152.2,438.4,153.8,440z M179.1,445.1v1H172v6.3h7.4v1h-8.6v-15.5h8.4v1H172v6.2H179.1z
		 M243.6,438.2h4.7v15.4h-4.7V438.2z M229.7,438.2h5.1l6.8,15.4h-4.8l-1.1-3.1H229l-1.3,3.1h-4.8L229.7,438.2z M391.8,445.6
		c0-2.3,0.8-4.2,2.4-5.7s3.5-2.3,5.8-2.3s4.3,0.8,5.9,2.3c1.6,1.6,2.4,3.5,2.4,5.7c0,2.3-0.8,4.2-2.4,5.7c-1.6,1.5-3.5,2.3-5.9,2.3
		c-2.3,0-4.2-0.8-5.8-2.3C392.6,449.7,391.8,447.8,391.8,445.6z M356,444.1v3.1h-6.4v3.3h7v3.1h-11.7v-15.4h11.5v3.1h-6.8v2.8H356z
		 M434.4,440c1.7-1.5,3.6-2.3,5.8-2.3c1.8,0,3.6,0.4,5.5,1.3v1.3c-1.9-1-3.8-1.5-5.6-1.5c-1.9,0-3.5,0.7-4.8,2c-1.4,1.3-2,2.9-2,4.9
		s0.7,3.6,2,4.9s3,1.9,5,1.9c1.7,0,3.5-0.5,5.5-1.6v1.2c-1.8,1-3.7,1.5-5.5,1.5c-2.4,0-4.4-0.7-5.9-2.2c-1.6-1.5-2.4-3.4-2.4-5.7
		C432,443.4,432.8,441.5,434.4,440z M135.8,552.4v-38.9L117.5,536h-1.6l-18.4-22.5v38.9H77.8v-67.2h18.4l20.7,25.2l20.8-25.2h18.4
		v67.2H135.8z M171.1,485.2H221v13.4h-29.6V511h28.2v13.5h-28.2v14.4h30.4v13.5h-50.7V485.2z M399.1,552.4v-67.2H449v13.4h-29.6V511
		h28.2v13.5h-28.2v14.4h30.4v13.5H399.1z M504.7,552.3l-5.3-11.9c-1.9-4.4-3.6-7.6-5.2-9.6c-1.5-2-3-3.3-4.5-3.9
		c-1.5-0.5-3.4-0.8-5.7-0.8h-2.3v26.3h-20.3v-67.3h34.5c5.6,0,10.1,1.1,13.7,3.4c3.6,2.3,6.1,5.1,7.7,8.3c1.6,3.2,2.4,6.3,2.4,9.2
		c0,3.4-0.7,6.3-2,8.6c-1.4,2.3-2.7,4-4.2,5.1s-3.1,2.1-4.9,3.1c2.2,1.3,4,2.8,5.4,4.5s3.3,5.2,5.7,10.4l6.8,14.6H504.7z"/>
	<path class="st1" d="M143.1,450.5c1.3,1.3,3,2,4.9,2c1.9,0,3.6-0.7,4.9-2c1.3-1.3,2-2.9,2-4.9c0-1.9-0.7-3.6-2-4.9s-3-2-4.9-2
		c-1.9,0-3.6,0.7-4.9,2c-1.3,1.3-2,3-2,4.9C141.1,447.6,141.8,449.2,143.1,450.5z"/>
	<path class="st1" d="M384.6,439.7c-0.7-0.5-1.7-0.8-3-0.8h-2.5v6.1h2.6c1.3,0,2.3-0.3,3-0.8c0.7-0.6,1-1.3,1-2.3
		C385.7,441,385.3,440.2,384.6,439.7z"/>
	<path class="st1" d="M354.2,523.9h-7.3v17.2h8.3c6.1,0,10-1.6,11.6-4.7c0.6-1.1,0.9-2.4,0.9-3.9c0-5.7-4.2-8.6-12.5-8.6H354.2z"/>
	<path class="st1" d="M166.1,444.3c0.7-0.5,1.1-1.3,0.9-2.4c0-1-0.3-1.7-1-2.3c-0.6-0.5-1.6-0.8-2.8-0.8h-3v6.3h2.9
		C164.4,445.1,165.4,444.8,166.1,444.3z"/>
	<polygon class="st1" points="232.2,442.2 229.9,447.8 234.5,447.8 	"/>
	<path class="st1" d="M371.5,444.3c0.7-0.5,1-1.3,0.9-2.4c0-1-0.3-1.7-1-2.3c-0.6-0.5-1.6-0.8-2.8-0.8h-3v6.3h2.9
		C369.8,445.1,370.8,444.8,371.5,444.3z"/>
	<path class="st1" d="M346.9,496.5v16.2h4.4c4.6,0,7.9-0.5,10-1.6c2.1-1.1,3.1-3.2,3.1-6.5s-1.1-5.4-3.2-6.5
		c-2.1-1.1-5.5-1.6-10-1.6H346.9z"/>
	<path class="st1" d="M404.9,450.5c1.3-1.4,2-3,2-4.9c0-1.9-0.7-3.6-2-4.9s-3-2-4.9-2c-1.9,0-3.6,0.7-4.9,2s-2,3-2,4.9
		c0,2,0.7,3.6,2,4.9c1.3,1.3,3,2,4.9,2C401.9,452.5,403.6,451.8,404.9,450.5z"/>
	<path class="st1" d="M499.1,506.4c0-3.1-1.1-5.3-3.1-6.5c-2.1-1.2-5.4-1.8-10-1.8h-4.3v16.2h4.4c5,0,8.4-0.5,10.2-1.6
		C498.1,511.6,499,509.5,499.1,506.4z"/>
	<path class="st1" d="M295,441.6c-0.5-0.3-1.2-0.4-2.3-0.4h-1v3.7h1c1.1,0,1.9-0.2,2.3-0.4c0.4-0.3,0.6-0.7,0.7-1.4
		C295.7,442.4,295.5,441.9,295,441.6z"/>
	<polygon class="st1" points="311.7,442.2 309.4,447.8 314,447.8 	"/>
</g>
</svg>
