<svg id="svg2" xmlns="http://www.w3.org/2000/svg" viewBox="0 0 1056 326.0789"><defs><style>.cls-1{fill:#231f20;}.cls-2{fill:#fff;}</style></defs><g id="g10"><g id="g12"><g id="g14"><g id="g20"><path id="path22" class="cls-1" d="M208.542,61.48352,133.65,18.24486a18.3202,18.3202,0,0,0-18.31867,0l-74.892,43.23866a18.31912,18.31912,0,0,0-9.16,15.86533v86.47734a18.32074,18.32074,0,0,0,9.16,15.86533l74.892,43.23867a18.3202,18.3202,0,0,0,18.31867,0l74.892-43.23868a18.32072,18.32072,0,0,0,9.16-15.86533V77.34885a18.31912,18.31912,0,0,0-9.16-15.86533"/></g><g id="g24"><path id="path26" class="cls-2" d="M122.60226,150.6643h2.83333l32.368-39.924V178.119l33.516-19.35067v-77.168l-32.12-18.544L124.40492,105.331,89.77559,63.059,57.66093,81.60031v77.168l32.48666,18.756v-66.784Z"/></g><g id="g28"><path id="path30" class="cls-1" d="M744.18355,254.27029V272.461h8.38533q5.644,0,8.58-2.38667a9.12889,9.12889,0,0,0,.06533-13.35333q-2.874-2.45-8.22533-2.45067Zm-3.484-2.90266h12.41867q7.126,0,10.91733,3.19333a10.78333,10.78333,0,0,1,3.78933,8.708,11.01188,11.01188,0,0,1-3.82133,8.83733q-3.822,3.258-11.20934,3.25867h-8.61066v21.06h-3.484Z"/></g><g id="g32"><path id="path34" class="cls-1" d="M783.20405,254.27029V271.913h7.48267q5.708,0,8.72533-2.30667a8.48347,8.48347,0,0,0-.04933-13.01466q-3.064-2.322-8.804-2.32134Zm-3.484-2.90266h11.548q7.256,0,11.09467,3.144a10.41018,10.41018,0,0,1,3.83733,8.49866q0,7.806-8.57866,10.96667,2.226,1.064,5.99866,6.87067l10.192,15.57733h-4.12266l-7.84933-12.348q-3.932-6.196-6.12534-7.728a11.179,11.179,0,0,0-6.416-1.53333h-6.09467V296.425h-3.484Z"/></g><g id="g36"><path id="path38" class="cls-1" d="M843.93314,293.78136a19.36771,19.36771,0,0,0,14.208-5.75867,20.1284,20.1284,0,0,0,0-28.252,19.36767,19.36767,0,0,0-14.208-5.75867,19.6201,19.6201,0,0,0-14.304,5.75867,19.97194,19.97194,0,0,0,0,28.252,19.62014,19.62014,0,0,0,14.304,5.75867m-.12934-42.99466a23.46011,23.46011,0,0,1,16.94934,6.72533,22.7839,22.7839,0,0,1,0,32.76933,24.63839,24.63839,0,0,1-33.83334,0,22.86027,22.86027,0,0,1,0-32.76933,23.31121,23.31121,0,0,1,16.884-6.72533"/></g><g id="g40"><path id="path42" class="cls-1" d="M885.213,251.36763v45.05866q0,7.45-2.80667,10.28933A9.03651,9.03651,0,0,1,875.761,309.553a19.955,19.955,0,0,1-2.09467-.12933l-.324-3.28934a9.12332,9.12332,0,0,0,2.06534.25867q6.32,0,6.32133-9.032V251.36763Z"/></g><g id="g44"><path id="path46" class="cls-1" d="M925.20071,251.36763v2.90266H904.10738v18.02933h20.54533v2.936H904.10738v18.28666H925.718v2.904H900.62471V251.36763Z"/></g><g id="g48"><path id="path50" class="cls-1" d="M975.73757,254.5607V258.366a34.086,34.086,0,0,0-16.06266-4.35466,18.93508,18.93508,0,0,0-14.03067,5.71066,19.45812,19.45812,0,0,0-5.644,14.25467,19.09635,19.09635,0,0,0,5.676,14.224,19.80016,19.80016,0,0,0,14.48133,5.58q7.356,0,16.032-4.612v3.612a33.92483,33.92483,0,0,1-15.96533,4.22533,23.72988,23.72988,0,0,1-17.14267-6.596,23.091,23.091,0,0,1,.144-32.97867,23.38484,23.38484,0,0,1,16.676-6.644,37.9109,37.9109,0,0,1,15.836,3.77333"/></g><g id="g52"><path id="path54" class="cls-1" d="M1020.56488,251.36763v2.90266h-16.90133v42.156h-3.51467v-42.156H983.24755v-2.90266Z"/></g><g id="g56"><path id="path58" class="cls-1" d="M310.81,101.68205a31.93633,31.93633,0,0,0,23.42133-9.49067,31.54888,31.54888,0,0,0,9.544-23.26267,31.60826,31.60826,0,0,0-9.544-23.31466A31.93113,31.93113,0,0,0,310.81,36.12339a32.35057,32.35057,0,0,0-23.58133,9.49066A31.42821,31.42821,0,0,0,277.578,68.92872a31.36957,31.36957,0,0,0,9.65067,23.26266A32.35587,32.35587,0,0,0,310.81,101.68205m-.21333-70.876A38.68467,38.68467,0,0,1,338.538,41.89138a36.19253,36.19253,0,0,1,11.45733,27.03733,36.12858,36.12858,0,0,1-11.45733,26.984,40.61872,40.61872,0,0,1-55.776,0,36.21313,36.21313,0,0,1-11.40533-26.984A36.27739,36.27739,0,0,1,282.762,41.89138a38.43793,38.43793,0,0,1,27.83467-11.08533"/></g><g id="g60"><path id="path62" class="cls-1" d="M369.72223,36.5483v29.988h13.824q9.304,0,14.144-3.93467,4.838-3.934,4.83733-11.112a13.59489,13.59489,0,0,0-4.732-10.9q-4.732-4.04-13.55733-4.04133ZM363.97956,31.763h20.47067q11.75,0,17.99733,5.264,6.248,5.264,6.248,14.356,0,9.198-6.3,14.568-6.3,5.372-18.476,5.37066H369.72223v34.72h-5.74267Z"/></g><g id="g64"><path id="path66" class="cls-1" d="M460.21758,31.7627V36.548H425.44425V66.2707h33.86933v4.83866H425.44425V101.256h35.624v4.78533H419.70159V31.7627Z"/></g><g id="g68"><path id="path70" class="cls-1" d="M539.81344,31.7627v74.27866h-4.72533l-56.47333-64.92v64.92h-5.74266V31.7627h4.86533L534.07211,96.684V31.7627Z"/></g><g id="g72"><path id="path74" class="cls-1" d="M360.78969,220.69246H338.56436v-42.696l-20.04533,24.724h-1.75466l-20.09734-24.724v42.696H275.079V146.99913h20.152l22.65066,27.648,22.756-27.648h20.152Z"/></g><g id="g76"><path id="path78" class="cls-1" d="M426.45424,192.93819l-10.79333-26.904-10.9,26.904Zm33.86933,27.75466h-22.756l-6.00933-14.94h-32.008l-6.11467,14.94H370.67824l32.59333-73.69466h24.56534Z"/></g><path id="path80" class="cls-1" d="M492.43865,220.69205h-22.224V146.99874h22.224Z"/><g id="g82"><path id="path84" class="cls-1" d="M591.06942,220.69246h-19.78l-38.228-41.048v41.048h-22.012V146.99913h19.72533l38.124,40.83333V146.99913h22.17066Z"/></g><g id="g86"><path id="path88" class="cls-1" d="M662.37,190.86364H631.798V220.693H609.57263V146.99831H662.37v14.78133H631.798v14.25067H662.37Z"/></g><g id="g90"><path id="path92" class="cls-1" d="M718.46505,170.287q0-5.104-3.34934-7.12533-3.35-2.018-10.9-2.02h-4.67866v17.75867h4.78533q8.136,0,11.13866-1.78134,3.004-1.78,3.004-6.832m30.20133,50.40533H724.793l-5.796-13.07866a54.30853,54.30853,0,0,0-5.74266-10.50267,12.40286,12.40286,0,0,0-4.97067-4.25333,17.67572,17.67572,0,0,0-6.248-.92934h-2.49866v28.764H677.31171V146.999h37.804q9.144,0,14.99333,3.72134a22.34775,22.34775,0,0,1,8.428,9.03866,23.19812,23.19812,0,0,1,2.57867,10.10267,19.12062,19.12062,0,0,1-2.152,9.43867,17.33768,17.33768,0,0,1-4.54667,5.60933,45.49665,45.49665,0,0,1-5.37066,3.34933,21.18347,21.18347,0,0,1,5.87466,4.91867q2.314,2.844,6.30134,11.51067Z"/></g><g id="g94"><path id="path96" class="cls-1" d="M805.82409,192.93819l-10.79333-26.904-10.9,26.904Zm33.86933,27.75466H816.93609l-6.008-14.94h-32.008l-6.11467,14.94h-22.756l32.592-73.69466h24.56534Z"/></g><g id="g98"><path id="path100" class="cls-1" d="M935.18582,220.69246h-22.224v-42.696l-20.04533,24.724h-1.75467l-20.09866-24.724v42.696H849.47649V146.99913h20.152l22.65066,27.648,22.756-27.648h20.15067Z"/></g><g id="g102"><path id="path104" class="cls-1" d="M1009.3585,220.69246H953.79584V146.99913h54.66v14.78133H976.02117v13.504h30.944v14.836h-30.944v15.73733h33.33733Z"/></g></g></g></g></svg>