<?xml version="1.0" encoding="utf-8"?>
<!-- Generator: Adobe Illustrator 23.1.1, SVG Export Plug-In . SVG Version: 6.00 Build 0)  -->
<svg version="1.1" id="Layer_1" xmlns="http://www.w3.org/2000/svg" xmlns:xlink="http://www.w3.org/1999/xlink" x="0px" y="0px"
	 viewBox="0 0 600 443.9" style="enable-background:new 0 0 600 443.9;" xml:space="preserve">
<style type="text/css">
	.st0{fill:#FFFFFF;}
	.st1{fill:#488EFF;}
	.st2{opacity:0.9;fill:#FFFFFF;}
	.st3{clip-path:url(#SVGID_2_);fill:#3274F9;}
	.st4{clip-path:url(#SVGID_4_);fill:#3274F9;}
	.st5{clip-path:url(#SVGID_6_);fill:#3274F9;}
	.st6{clip-path:url(#SVGID_8_);fill:#3274F9;}
	.st7{fill:#231F20;}
	.st8{opacity:0.9;fill:#231F20;}
</style>
<g>
	<path class="st7" d="M523.8,126.7c-0.4-10.3-6-16.9-14.8-16.9c-8.7,0-14.7,5.4-15.7,16.9H523.8z"/>
	<path class="st7" d="M474.5,100.3l-2.8,7.9l3.1,4.5l2.5,3.6l3.2,4.5c3.6-13.8,14.1-22.2,28.2-22.2c19.1,0,28.3,14.4,28.3,29.4v0
		c0,2.7-0.2,5.8-0.7,8.4h-42.7c0.2,1.6,0.6,3.1,1,4.5l6.3,9c2.9,1.9,6.4,2.7,10.4,2.7c7.4,0,13.4-2.7,17.7-6.3l5.9,9.3
		c-6.1,5.2-13.8,8.3-24,8.7l85.5,122.1l2.3,3.3c0.5,0.7,0.9,1.4,1.3,2.1V112.6V63.3c0-28.4-18.7-52.5-44.5-60.5c-1-0.3-2-0.6-3-0.9
		c-5.1-1.3-10.4-2-15.8-2l0,0H395.9l70.2,100.3H474.5z"/>
	<path class="st7" d="M0,233.3c1-1.4,2.2-2.7,3.6-3.8c0.5-0.4,0.9-0.7,1.4-1.1l88.8-62.2l-30-42.8c-1.5-2.1-1-5.1,1.2-6.6l64.6-45.2
		c1.5-1,3.5-1.1,5.1-0.2c1.6,0.9,2.5,2.6,2.4,4.5l-4.9,63.5l33-23.1l4.2-3l-29.7-42.5c-1.5-2.1-1-5.1,1.2-6.6c2.1-1.5,5.1-1,6.6,1.2
		l29.7,42.5L305.5,18c7-4.9,16.1-5.3,23.5-1.1c7.4,4.2,11.7,12.3,11,20.8l-4.9,63.1c4-1.6,8.4-2.3,12.8-2.3c16,0,31.4,10,31.4,32.9
		c0,22.9-15.4,32.9-31.4,32.9c-6.2,0-12.2-1.5-17.3-4.6l-12.1,156.6h206.8l25.7-18L453.5,159l-1.3,3.6h-9.4l-12.7-36.9l-2.1-3
		l-14.5,39.9h-9.4l-20.2-62.2H398l12.1,43.3l10.5-31.6l-68.4-97.6c-3.1-4.4-4.3-9.5-3.9-14.4h-285c-6.6,0-12.9,1-18.8,2.8
		c-3,0.9-5.9,2.1-8.6,3.4C14.7,16.5,0,38.2,0,63.3L0,233.3C0,233.3,0,233.3,0,233.3z M372.5,255.1h-4.8v-20.7c0-2.5-0.5-4.4-1.6-5.7
		c-1.1-1.3-2.8-1.9-5-1.9c-3,0-5.2,0.9-6.6,2.6c-1.4,1.7-2.1,4.4-2.1,7.9v17.7h-4.8v-20.7c0-2.5-0.5-4.4-1.6-5.7
		c-1.1-1.3-2.8-1.9-5.1-1.9c-3,0-5.2,0.9-6.6,2.7c-1.4,1.8-2.1,4.8-2.1,8.9v16.7h-4.8v-31.8h3.9l0.8,4.3h0.2
		c0.9-1.5,2.2-2.8,3.8-3.6c1.7-0.9,3.5-1.3,5.5-1.3c5,0,8.2,1.8,9.7,5.4h0.2c0.9-1.7,2.3-3,4.1-3.9c1.8-1,3.8-1.4,6.1-1.4
		c3.6,0,6.3,0.9,8.1,2.8c1.8,1.8,2.7,4.8,2.7,8.9V255.1z M447.7,224.8l4.5-2l2-6.8h2.8v7.4h9.2v3.7H457v18.7c0,1.9,0.5,3.4,1.4,4.4
		s2.2,1.5,3.7,1.5c0.9,0,1.7-0.1,2.5-0.2c0.8-0.1,1.4-0.3,1.9-0.4v3.7c-0.5,0.3-1.3,0.5-2.3,0.6s-1.9,0.2-2.7,0.2
		c-6.1,0-9.2-3.2-9.2-9.7v-18.9h-4.5V224.8z M415.4,223.3h3.9l0.8,4.3h0.2c1-1.6,2.4-2.8,4.1-3.6c1.8-0.9,3.8-1.3,5.9-1.3
		c3.8,0,6.7,0.9,8.6,2.8c1.9,1.8,2.9,4.8,2.9,8.9v20.7h-4.8v-20.5c0-2.6-0.6-4.5-1.8-5.8c-1.2-1.3-3-1.9-5.5-1.9
		c-3.3,0-5.8,0.9-7.3,2.7s-2.3,4.8-2.3,8.9v16.7h-4.8V223.3z M402.8,225.3c1.8,1.7,2.7,4.4,2.7,8.1v21.7H402l-1-4.5h-0.2
		c-1.6,2-3.2,3.3-4.7,4s-3.5,1.1-5.9,1.1c-3.1,0-5.6-0.8-7.4-2.4c-1.8-1.6-2.7-3.9-2.7-6.9c0-6.4,5.1-9.8,15.4-10.1l5.4-0.2v-2
		c0-2.5-0.5-4.3-1.6-5.5c-1.1-1.2-2.8-1.8-5.1-1.8c-2.6,0-5.6,0.8-9,2.4l-1.5-3.7c1.6-0.8,3.3-1.5,5.1-2s3.7-0.7,5.6-0.7
		C398.2,222.8,401,223.7,402.8,225.3z"/>
	<path class="st7" d="M387.6,241.5c-1.7,1.1-2.5,2.7-2.5,4.9c0,1.7,0.5,3.1,1.6,4c1.1,0.9,2.5,1.4,4.4,1.4c3,0,5.3-0.8,7.1-2.5
		c1.7-1.6,2.6-3.9,2.6-6.9v-2.9l-4.8,0.2C392.1,239.8,389.3,240.4,387.6,241.5z"/>
	<path class="st7" d="M333.8,119.2l-1.6,20.4c2.2,7.7,7.8,12,15.8,12c10.5,0,16.8-7.5,16.8-20.3c0-12.8-6.4-20.3-16.8-20.3
		C341.5,111.1,336.6,114,333.8,119.2z"/>
	<polygon class="st7" points="126.9,85.1 74.4,121.9 101.6,160.8 122.1,146.4 	"/>
	<path class="st7" d="M600,316.3v-1.9c-0.3,0.6-0.6,1.3-1,1.9H600z"/>
	<polygon class="st7" points="39.7,316.3 3.6,264.8 0,259.6 0,259.6 0,316.3 0,316.3 0,316.3 3.6,316.3 	"/>
	<path class="st7" d="M272.8,230c-1.6,2.1-2.4,5.1-2.4,9.2c0,4.1,0.8,7.1,2.4,9.3c1.5,2,3.7,3,6.6,3.2l1.9-24.7
		c-0.4,0-0.9-0.1-1.4-0.1C276.8,226.9,274.4,227.9,272.8,230z"/>
	<path class="st7" d="M187.6,226.9c-3.1,0-5.5,1-7.1,3.1c-1.6,2.1-2.4,5.1-2.4,9.2c0,4.1,0.8,7.1,2.4,9.3c1.6,2.1,4,3.2,7.2,3.2
		s5.5-1.1,7.2-3.2c1.6-2.1,2.4-5.2,2.4-9.3c0-4-0.8-7.1-2.4-9.2C193.2,227.9,190.8,226.9,187.6,226.9z"/>
	<path class="st7" d="M272.3,253.7c-2.2-1.3-3.9-3.2-5.1-5.7c-1.2-2.5-1.8-5.4-1.8-8.8c0-5.2,1.3-9.2,3.9-12.1
		c2.6-2.9,6.2-4.3,10.8-4.3c0.5,0,1.1,0,1.6,0.1l4.7-60.3h-46.2v-10.1l43.6-60.2h-5.9l-26.4,20.4l-4.7,3.6L48.3,269.8L83,316.3
		h191.4l4.7-60.7C276.6,255.5,274.3,254.9,272.3,253.7z M145.1,246.8c2.6,3,6.3,4.5,11.1,4.5c3,0,6.3-0.5,10.1-1.6v4.3
		c-2.9,1.1-6.6,1.7-10.9,1.7c-6.2,0-11.1-1.9-14.4-5.7c-3.4-3.8-5.1-9.2-5.1-16.1c0-4.4,0.8-8.2,2.4-11.5c1.6-3.3,4-5.8,7.1-7.6
		c3.1-1.8,6.7-2.7,10.9-2.7c4.4,0,8.3,0.8,11.6,2.4l-2.1,4.2c-3.2-1.5-6.4-2.3-9.6-2.3c-4.7,0-8.3,1.5-11,4.7c-2.7,3.1-4,7.3-4,12.7
		C141.2,239.5,142.5,243.8,145.1,246.8z M198.3,251.3c-2.6,2.9-6.2,4.4-10.8,4.4c-2.8,0-5.4-0.7-7.6-2c-2.2-1.3-3.9-3.2-5.1-5.7
		c-1.2-2.5-1.8-5.4-1.8-8.8c0-5.2,1.3-9.2,3.9-12.1c2.6-2.9,6.2-4.3,10.8-4.3c4.4,0,8,1.5,10.6,4.4s3.9,7,3.9,12
		C202.2,244.4,200.9,248.4,198.3,251.3z M237.2,255.1h-4.8v-20.5c0-2.6-0.6-4.5-1.8-5.8c-1.2-1.3-3-1.9-5.5-1.9
		c-3.3,0-5.8,0.9-7.3,2.7s-2.3,4.8-2.3,8.9v16.7h-4.8v-31.8h3.9l0.8,4.3h0.2c1-1.6,2.4-2.8,4.1-3.6c1.8-0.9,3.8-1.3,5.9-1.3
		c3.8,0,6.7,0.9,8.6,2.8c1.9,1.8,2.9,4.8,2.9,8.9V255.1z M263.4,214.6c-1.9-0.6-3.4-0.9-4.8-0.9c-1.8,0-3.2,0.6-4,1.8
		c-0.9,1.2-1.3,3.1-1.3,5.8v2.1h8.1v3.7h-8.1v28h-4.8v-28h-5.7v-2.2l5.7-1.7v-1.8c0-7.8,3.4-11.7,10.2-11.7c1.7,0,3.7,0.3,5.9,1
		L263.4,214.6z"/>
	<polygon class="st7" points="258.1,149.7 287.3,149.7 289.9,116.2 290.1,112.6 290.7,105.2 	"/>
	<path class="st7" d="M599,316.3h-2.6v3.4C597.4,318.7,598.2,317.5,599,316.3z"/>
	<path class="st8" d="M280,251.7c3.1,0,5.5-1.1,7.2-3.2c1.6-2.1,2.4-5.2,2.4-9.3c0-4-0.8-7.1-2.4-9.2c-1.4-1.8-3.3-2.8-5.8-3.1
		l-1.9,24.7C279.6,251.6,279.8,251.7,280,251.7z"/>
	<path class="st8" d="M331.1,131.4c0,3.1,0.4,5.8,1.1,8.2l1.6-20.4C332.1,122.4,331.1,126.5,331.1,131.4z"/>
	<path class="st7" d="M0,233.3v26.3l3.6,5.1v-35.3C2.2,230.6,1,231.9,0,233.3z"/>
	<path class="st8" d="M0,233.3v26.3l3.6,5.1v-35.3C2.2,230.6,1,231.9,0,233.3z"/>
	<path class="st8" d="M500.8,149.9l-6.3-9C495.8,145.1,498,148,500.8,149.9z"/>
	<polygon class="st8" points="428,122.6 430.1,125.6 428.5,121.1 	"/>
	<path class="st7" d="M598.7,289.6l-2.3-3.3v30h2.6c0.4-0.6,0.7-1.2,1-1.9v-22.7C599.6,291,599.2,290.3,598.7,289.6z"/>
	<path class="st8" d="M598.7,289.6l-2.3-3.3v30h2.6c0.4-0.6,0.7-1.2,1-1.9v-22.7C599.6,291,599.2,290.3,598.7,289.6z"/>
	<g>
		<polygon class="st8" points="171.5,116.2 169.4,113.3 165.2,116.2 132.2,139.4 129.9,168.6 182.4,131.9 		"/>
		<path class="st8" d="M510.9,164.2c-0.6,0-1.2,0-1.8,0c-16.3,0-30-10.5-30-32.6c0-3.9,0.5-7.6,1.3-10.9l-3.2-4.5l-2.5-3.6l-3.1-4.5
			l-1.6,4.5l-1.3,3.6L453.5,159l97.6,139.4l-25.7,18h71v-30L510.9,164.2z"/>
		<path class="st8" d="M329,16.9c-7.4-4.2-16.6-3.8-23.5,1.1l-128.3,89.9l3.3,4.8l2.5,3.6l9.6,13.7c0.8,1.2,1,2.5,0.7,3.8
			c-0.2,1.3-0.8,2.5-2,3.3l-64.3,45c-1.5,1-3.5,1.1-5.1,0.2c-1.6-0.9-2.5-2.6-2.4-4.5l2.4-31.5l-20.5,14.4l15.7,22.4
			c1.5,2.1,1,5.1-1.2,6.6s-5.1,1-6.6-1.2l-15.7-22.4L5,228.4c-0.5,0.3-1,0.7-1.4,1.1v35.3l36.1,51.6H83l-34.7-46.5l198.5-153.6
			l4.7-3.6l26.4-20.4h-35.5V79.4h60.3v9.5l-11.9,16.2l-0.6,7.5l-0.3,3.6l-2.6,33.4H305v12.8h-18.7l-4.7,60.3c3.7,0.3,6.7,1.8,9,4.4
			c2.6,3,3.9,7,3.9,12c0,5.2-1.3,9.2-3.9,12.1c-2.6,2.9-6.2,4.4-10.8,4.4c-0.3,0-0.5,0-0.8,0l-4.7,60.7h44.1l12.1-156.6
			c-8.2-5-14.1-14.2-14.1-28.3c0-5.9,1-10.9,2.8-15.1c0.5-1.3,1.1-2.5,1.8-3.6c3.4-5.7,8.3-9.5,14-11.8l4.9-63.1
			C340.7,29.2,336.4,21.1,329,16.9z M317.5,222.8c1.4,0,2.7,0.1,3.8,0.3l-0.7,4.5c-1.3-0.3-2.5-0.4-3.5-0.4c-2.6,0-4.8,1-6.6,3.1
			c-1.8,2.1-2.7,4.7-2.7,7.8v17H303v-31.8h4l0.6,5.9h0.2c1.2-2.1,2.6-3.7,4.3-4.8C313.7,223.3,315.5,222.8,317.5,222.8z"/>
		<path class="st8" d="M457,112.6l3.6-12.4h5.5L395.9,0h-47.6c-0.4,4.9,0.9,10,3.9,14.4l68.4,97.6l3.9-11.7h9.3l3.9,12.4l1.1,3.6
			l8.9,27.8l8.2-27.8L457,112.6z"/>
	</g>
	<g>
		<path class="st7" d="M596.4,336.6v103.8H3.6V336.6H596.4 M600,333H0v111h600V333L600,333z"/>
	</g>
	<g>
		<path class="st7" d="M99.7,399l-1.6-5.1h-7.8l-1.6,5.1h-4.9l7.6-21.5H97l7.6,21.5H99.7z M97.1,390c-1.4-4.6-2.2-7.2-2.4-7.8
			s-0.3-1.1-0.4-1.4c-0.3,1.2-1.2,4.3-2.8,9.3H97.1z"/>
		<path class="st7" d="M125.7,384.2c0,2.3-0.7,4.1-2.2,5.3c-1.4,1.2-3.5,1.8-6.1,1.8h-1.9v7.6h-4.5v-21.4h6.8c2.6,0,4.6,0.6,5.9,1.7
			S125.7,382,125.7,384.2z M115.5,387.6h1.5c1.4,0,2.4-0.3,3.1-0.8c0.7-0.6,1-1.4,1-2.4c0-1.1-0.3-1.9-0.9-2.4s-1.5-0.8-2.7-0.8
			h-2.1V387.6z"/>
		<path class="st7" d="M148.1,384.2c0,2.3-0.7,4.1-2.2,5.3c-1.4,1.2-3.5,1.8-6.1,1.8h-1.9v7.6h-4.5v-21.4h6.8c2.6,0,4.6,0.6,5.9,1.7
			S148.1,382,148.1,384.2z M137.9,387.6h1.5c1.4,0,2.4-0.3,3.1-0.8c0.7-0.6,1-1.4,1-2.4c0-1.1-0.3-1.9-0.9-2.4s-1.5-0.8-2.7-0.8
			h-2.1V387.6z"/>
		<path class="st7" d="M171.6,399h-4.5v-21.4h12.3v3.7h-7.8v5.5h7.3v3.7h-7.3V399z"/>
		<path class="st7" d="M191.8,390.7v8.2h-4.5v-21.4h6.2c2.9,0,5.1,0.5,6.5,1.6s2.1,2.7,2.1,4.8c0,1.3-0.3,2.4-1,3.4
			c-0.7,1-1.7,1.8-2.9,2.3c3.2,4.8,5.3,7.9,6.3,9.3h-5l-5.1-8.2H191.8z M191.8,387h1.5c1.4,0,2.5-0.2,3.2-0.7s1-1.2,1-2.3
			c0-1-0.3-1.7-1-2.2s-1.8-0.6-3.2-0.6h-1.4V387z"/>
		<path class="st7" d="M223.8,399l-1.6-5.1h-7.8l-1.6,5.1H208l7.6-21.5h5.6l7.6,21.5H223.8z M221.1,390c-1.4-4.6-2.2-7.2-2.4-7.8
			s-0.3-1.1-0.4-1.4c-0.3,1.2-1.2,4.3-2.8,9.3H221.1z"/>
		<path class="st7" d="M244,399l-5.2-16.8h-0.1c0.2,3.4,0.3,5.7,0.3,6.8v10h-4.1v-21.4h6.2l5.1,16.4h0.1l5.4-16.4h6.2V399h-4.2
			v-10.1c0-0.5,0-1,0-1.7c0-0.6,0.1-2.3,0.2-5h-0.1l-5.5,16.8H244z"/>
		<path class="st7" d="M279.2,399h-12.3v-21.4h12.3v3.7h-7.8v4.7h7.3v3.7h-7.3v5.5h7.8V399z"/>
		<path class="st7" d="M308.1,399h-5.2l-2.9-11.2c-0.1-0.4-0.3-1.2-0.5-2.5s-0.4-2.1-0.4-2.5c-0.1,0.5-0.2,1.4-0.4,2.5
			c-0.2,1.2-0.4,2-0.5,2.5l-2.9,11.2H290l-5.5-21.4h4.5l2.7,11.7c0.5,2.2,0.8,4,1,5.6c0.1-0.6,0.2-1.4,0.4-2.6
			c0.2-1.2,0.4-2.1,0.6-2.7l3.1-12h4.3l3.1,12c0.1,0.5,0.3,1.4,0.5,2.5s0.4,2.1,0.5,2.8c0.1-0.8,0.3-1.7,0.5-2.8s0.4-2.1,0.6-2.8
			l2.7-11.7h4.5L308.1,399z"/>
		<path class="st7" d="M339.3,388.2c0,3.5-0.9,6.3-2.6,8.2s-4.3,2.9-7.6,2.9s-5.8-1-7.6-2.9s-2.6-4.6-2.6-8.2s0.9-6.3,2.6-8.2
			c1.8-1.9,4.3-2.8,7.6-2.8s5.8,0.9,7.6,2.8C338.4,381.9,339.3,384.7,339.3,388.2z M323.6,388.2c0,2.4,0.5,4.2,1.4,5.4
			s2.3,1.8,4.1,1.8c3.6,0,5.4-2.4,5.4-7.2c0-4.8-1.8-7.2-5.4-7.2c-1.8,0-3.2,0.6-4.1,1.8C324.1,384,323.6,385.8,323.6,388.2z"/>
		<path class="st7" d="M351.9,390.7v8.2h-4.5v-21.4h6.2c2.9,0,5.1,0.5,6.5,1.6s2.1,2.7,2.1,4.8c0,1.3-0.3,2.4-1,3.4
			c-0.7,1-1.7,1.8-2.9,2.3c3.2,4.8,5.3,7.9,6.3,9.3h-5l-5.1-8.2H351.9z M351.9,387h1.5c1.4,0,2.5-0.2,3.2-0.7s1-1.2,1-2.3
			c0-1-0.3-1.7-1-2.2s-1.8-0.6-3.2-0.6h-1.4V387z"/>
		<path class="st7" d="M387.9,399h-5.2l-5.6-9l-1.9,1.4v7.6h-4.5v-21.4h4.5v9.8l1.8-2.5l5.8-7.3h5l-7.5,9.5L387.9,399z"/>
		<path class="st7" d="M403.8,392.7v-3.7h7.9v3.7H403.8z"/>
		<path class="st7" d="M443.8,399h-15v-3.1l5.4-5.4c1.6-1.6,2.6-2.8,3.1-3.4c0.5-0.6,0.8-1.2,1.1-1.8s0.3-1.1,0.3-1.7
			c0-0.9-0.2-1.5-0.7-1.9s-1.1-0.6-1.9-0.6c-0.8,0-1.6,0.2-2.4,0.6s-1.6,0.9-2.4,1.6l-2.5-2.9c1.1-0.9,1.9-1.5,2.6-1.9
			s1.5-0.7,2.3-0.9c0.8-0.2,1.7-0.3,2.8-0.3c1.3,0,2.5,0.2,3.5,0.7s1.8,1.2,2.4,2.1s0.8,1.9,0.8,3c0,1-0.2,1.9-0.5,2.8
			c-0.3,0.9-0.9,1.8-1.6,2.7s-2,2.2-3.8,3.9l-2.8,2.6v0.2h9.3V399z"/>
		<path class="st7" d="M464.4,388.2c0,3.7-0.6,6.5-1.8,8.3c-1.2,1.8-3.1,2.7-5.7,2.7c-2.5,0-4.3-0.9-5.6-2.8
			c-1.3-1.9-1.9-4.6-1.9-8.2c0-3.8,0.6-6.6,1.8-8.4s3.1-2.7,5.6-2.7c2.5,0,4.3,0.9,5.6,2.8C463.7,381.9,464.4,384.6,464.4,388.2z
			 M453.9,388.2c0,2.6,0.2,4.5,0.7,5.6c0.5,1.1,1.2,1.7,2.3,1.7c1.1,0,1.8-0.6,2.3-1.7s0.7-3,0.7-5.6c0-2.6-0.2-4.5-0.7-5.7
			s-1.2-1.7-2.3-1.7c-1.1,0-1.8,0.6-2.3,1.7S453.9,385.6,453.9,388.2z"/>
		<path class="st7" d="M481.4,399h-4.5v-12.4l0-2l0.1-2.2c-0.8,0.8-1.3,1.2-1.6,1.5l-2.5,2l-2.2-2.7l6.9-5.5h3.7V399z"/>
		<path class="st7" d="M505.8,386.7c0,4.2-0.9,7.4-2.7,9.4s-4.5,3.1-8.1,3.1c-1.3,0-2.2-0.1-2.9-0.2v-3.6c0.8,0.2,1.7,0.3,2.6,0.3
			c1.5,0,2.8-0.2,3.7-0.7c1-0.4,1.7-1.1,2.2-2.1c0.5-1,0.8-2.3,0.9-3.9h-0.2c-0.6,0.9-1.2,1.6-2,1.9s-1.7,0.6-2.8,0.6
			c-1.9,0-3.3-0.6-4.4-1.8c-1.1-1.2-1.6-2.9-1.6-5c0-2.3,0.7-4.1,2-5.4c1.3-1.3,3.1-2,5.3-2c1.6,0,3,0.4,4.2,1.1
			c1.2,0.7,2.1,1.8,2.7,3.2C505.5,383,505.8,384.7,505.8,386.7z M498.1,380.9c-0.9,0-1.7,0.3-2.2,1s-0.8,1.6-0.8,2.8
			c0,1,0.2,1.9,0.7,2.5s1.2,0.9,2.2,0.9c0.9,0,1.7-0.3,2.4-0.9c0.7-0.6,1-1.3,1-2.1c0-1.2-0.3-2.1-0.9-2.9
			C499.8,381.3,499,380.9,498.1,380.9z"/>
	</g>
</g>
</svg>
