<?xml version="1.0" encoding="UTF-8" standalone="no"?>
<svg
   id="a"
   viewBox="0 0 624.24 469.28"
   version="1.1"
   xmlns="http://www.w3.org/2000/svg"
   xmlns:svg="http://www.w3.org/2000/svg">
  <defs
     id="defs4">
    <style
       id="style2">.b,.c{fill:#fff;}.c{font-family:OpenSans-Bold, Open Sans;font-size:32px;letter-spacing:.12em;}.d{opacity:.9;}</style>
  </defs>
  <g
     id="g252">
    <path
       id="polygon6"
       class="b"
       style="fill:#ffffff"
       d="m 368.46,243.74 1.1,3.16 h 0.14 l 1.92,-5.34 z" />
    <path
       class="b"
       d="m 244.58,69.73 c -0.06,0.68 -0.23,1.36 -0.49,2.01 0.26,-0.65 0.42,-1.32 0.49,-2.01 z"
       id="path8" />
    <path
       class="b"
       d="m 253.5,61.97 v 0 c 0.26,-0.02 0.52,0 0.78,0.02 -0.26,-0.03 -0.51,-0.04 -0.77,-0.02 z"
       id="path10" />
    <path
       class="b"
       d="m 333.32,239.55 0.11,-1.08 c -0.21,0.1 -0.4,0.2 -0.62,0.29 l 0.5,0.79 z"
       id="path12" />
    <path
       class="b"
       d="m 232.32,63.98 c -0.08,0.08 -0.15,0.17 -0.23,0.26 0.08,-0.09 0.15,-0.18 0.24,-0.26 v 0 z"
       id="path14" />
    <path
       class="b"
       d="m 345.17,128.4 c -3.46,0.48 -6.4,1.85 -8.73,3.86 2.33,-2.01 5.27,-3.38 8.73,-3.86 z"
       id="path16" />
    <path
       class="b"
       d="m 322.43,224.45 v 11.17 h 3.88 c 2.6,0 4.49,-0.48 5.65,-1.45 1.16,-0.97 1.75,-2.4 1.75,-4.3 0,-1.9 -0.63,-3.32 -1.89,-4.16 -1.26,-0.84 -3.16,-1.26 -5.7,-1.26 z"
       id="path18" />
    <path
       class="b"
       d="M 549.69,7.17 H 465.8 l 37.48,54.35 c 0.59,0.32 1.15,0.71 1.66,1.19 v 0 c 1.28,1.22 2.01,2.79 2.2,4.41 l 4.54,6.58 V 60.74 h 1.11 v 14.5 c 0,0 0,0.05 0,0.08 l 25.33,36.73 c 18.47,2.88 27,18.97 27,36.42 0,0.81 -0.04,1.68 -0.09,2.59 l 48,69.6 V 70.51 c 0,-34.98 -28.36,-63.35 -63.35,-63.35 z m -23.9,68.04 h -8.04 V 60.75 h 7.89 v 0.93 h -6.77 v 5.78 h 6.59 v 0.94 h -6.59 v 5.87 h 6.92 z M 542,74.07 c -1.57,0.87 -3.32,1.33 -5.12,1.35 -2.05,0.07 -4.03,-0.7 -5.51,-2.12 -2.89,-2.89 -2.89,-7.58 0,-10.47 v 0 c 0,0 0.07,-0.07 0.1,-0.11 1.43,-1.39 3.36,-2.16 5.35,-2.13 1.74,0.03 3.46,0.44 5.03,1.19 v 0 l 0.06,0.03 c 0,0 -0.04,-0.02 -0.06,-0.03 v 1.21 c -1.58,-0.9 -3.35,-1.4 -5.16,-1.45 -1.69,-0.04 -3.31,0.63 -4.49,1.84 -1.21,1.21 -1.87,2.87 -1.81,4.58 -0.07,1.72 0.59,3.39 1.81,4.61 1.24,1.2 2.92,1.85 4.65,1.79 1.81,-0.05 3.58,-0.55 5.14,-1.45 v 1.16 z m 14.25,-12.39 h -5.42 V 75.21 H 549.7 V 61.68 h -5.44 v -0.93 h 11.99 z"
       id="path20" />
    <path
       class="b"
       d="m 255.68,68.04 c 0.24,-0.11 0.48,-0.25 0.71,-0.41 0.5,-0.46 0.82,-1.04 0.96,-1.65 -0.14,0.61 -0.46,1.19 -0.96,1.65 -0.22,0.16 -0.46,0.29 -0.71,0.41 z"
       id="path22" />
    <path
       class="b"
       d="m 257.23,64.12 c -0.14,-0.4 -0.37,-0.78 -0.68,-1.11 -0.04,-0.06 -0.1,-0.12 -0.16,-0.16 0.06,0.04 0.12,0.1 0.16,0.16 0.31,0.33 0.53,0.71 0.68,1.11 z"
       id="path24" />
    <path
       id="polygon26"
       class="b"
       style="fill:#ffffff"
       d="m 330.36,70.17 -2.35,-5.79 z" />
    <path
       class="b"
       d="m 414.24,230.29 c -0.23,-0.62 -0.56,-1.6 -0.97,-2.94 -0.41,-1.34 -0.7,-2.32 -0.85,-2.94 -0.42,1.92 -1.04,4.01 -1.85,6.28 l -3.08,8.9 h 9.95 z"
       id="path28" />
    <path
       class="b"
       d="m 205.22,142.07 -37.21,25.66 -0.35,0.95 86.27,-59.5 H 228.91 V 92.07 h 49.83 l 14.45,-9.96 -1.06,9.96 h 9.15 v 14.83 l -12.25,14.25 -4.53,42.52 h 16.78 v 17.11 h -18.6 l -4.44,41.7 c 2.67,-2.18 6.18,-3.29 10.57,-3.29 5.08,0 9,1.53 11.77,4.6 2.77,3.07 4.16,7.39 4.16,12.96 0,5.57 -1.39,9.88 -4.17,12.96 -2.78,3.08 -6.72,4.62 -11.81,4.62 -5.09,0 -9.11,-1.53 -11.88,-4.59 -0.5,-0.56 -0.94,-1.17 -1.35,-1.81 l -3.14,29.48 h 144.45 l 39.89,-27.51 -14.35,-23.25 h -0.19 l 0.12,1.52 c 0.22,2.9 0.33,5.54 0.33,7.94 v 17.75 h -5.07 v -34.15 h 6.77 l 16.75,27.07 h 0.14 c -0.03,-0.36 -0.09,-1.66 -0.19,-3.91 -0.1,-2.25 -0.14,-4.01 -0.14,-5.27 v -17.89 h 5.12 v 23.78 l 20.01,-13.8 v -5.19 h -10.04 v -4.79 h 10.45 l -26.51,-38.44 h -0.9 l -71.65,49.41 v 23.18 h -5.37 v -16.89 c 0,-0.76 0.01,-1.64 0.03,-2.6 l -4.12,2.84 -6,16.65 h -4.93 l -2.55,-7.35 -7.14,4.92 v 2.43 h -3.52 l -23.69,16.34 2.39,-22.46 -4.51,-7.53 h -5.51 v 13.64 h -5.58 V 219.7 h 9.65 c 3.75,0 6.66,0.6 8.75,1.8 l 4.27,-40.1 c -16.66,-3.53 -28.23,-17.41 -28.23,-34.23 v -0.25 c 0,-19.14 15.12,-34.74 35.67,-35.33 l 3.77,-35.4 h -1.97 V 60.16 h 3.68 L 355.68,30.07 339.87,7.14 H 304.69 L 174.22,97.12 Z m 204.19,77.52 h 6.07 l 12.78,34.29 h -5.93 l -3.41,-9.48 h -13.06 l -3.34,9.48 h -5.89 z M 339.87,60.19 h 4.82 v 16.03 h -4.82 z m -14.55,0 h 5.41 l 7,16.03 h -4.94 l -1.32,-3.25 h -6.96 l -1.33,3.25 h -4.94 l 7.09,-16.03 z m -27.88,0 h 4.38 l 4.93,6.01 4.94,-6.01 h 4.39 v 16.03 h -4.84 v -9.29 l -4.35,5.38 h -0.39 l -4.37,-5.38 v 9.29 h -4.69 z m -24.71,0.74 h 1.06 l 12.24,14.12 V 60.93 h 1.25 v 16.16 h -1.03 L 273.98,62.95 v 14.14 h -1.25 z m -11.57,0 h 8.81 v 1.04 h -7.57 v 6.46 h 7.37 v 1.04 h -7.37 v 6.56 h 7.76 v 1.05 h -9 V 60.92 Z m -12.12,0 h 4.45 c 1.4,-0.09 2.78,0.32 3.91,1.15 0.11,0.1 0.22,0.21 0.32,0.33 1.53,1.76 1.35,4.43 -0.41,5.96 -1.16,0.86 -2.58,1.27 -4.02,1.17 h -3.09 v 7.52 h -1.24 l 0.07,-16.13 z m -17.81,2.41 0.16,-0.16 c 1.61,-1.59 3.79,-2.45 6.05,-2.41 v -0.04 c 2.27,-0.06 4.46,0.81 6.07,2.41 3.26,3.13 3.37,8.3 0.24,11.56 -0.01,0 -0.03,0.02 -0.04,0.04 l -0.2,0.2 c -3.4,3.21 -8.71,3.21 -12.12,0 -3.24,-3.16 -3.31,-8.35 -0.16,-11.59 z"
       id="path30" />
    <path
       class="b"
       d="m 288.75,249.58 c 3.32,0 5.82,-1.08 7.51,-3.22 1.69,-2.15 2.53,-5.35 2.53,-9.6 0,-4.25 -0.84,-7.37 -2.51,-9.53 -1.67,-2.16 -4.17,-3.25 -7.49,-3.25 -3.32,0 -5.88,1.08 -7.58,3.25 -1.71,2.17 -2.56,5.34 -2.56,9.53 0,4.19 0.85,7.39 2.55,9.57 1.7,2.17 4.21,3.26 7.54,3.26 z"
       id="path32" />
    <path
       id="polygon34"
       class="b"
       style="fill:#ffffff"
       d="M 232.32,74.12 232.3,74.1 Z" />
    <path
       id="polygon36"
       class="b"
       style="fill:#ffffff"
       d="m 281.18,341.93 h 42.11 l 30.4,-20.97 h -85.96 l -0.13,1.27 z" />
    <path
       id="polygon38"
       class="b"
       style="fill:#ffffff"
       d="M 110.72,277.42 13.03,135.77 v 187.72 18.44 H 155.21 L 140.75,320.96 H 36.74 v -43.54 z" />
    <path
       class="b"
       d="M 76.38,7.17 C 41.4,7.17 13.03,35.53 13.03,70.52 v 40.84 L 164.11,7.17 Z"
       id="path40" />
    <path
       id="polygon42"
       class="b"
       style="fill:#ffffff"
       d="m 494.23,320.96 -30.4,20.97 h 149.2 v -102.9 l -55.67,38.39 h 32.91 v 43.54 z" />
    <path
       class="b"
       d="m 330.77,142.14 c 0.16,-0.73 0.35,-1.45 0.58,-2.14 -0.23,0.7 -0.43,1.41 -0.58,2.14 z"
       id="path44" />
    <path
       class="b"
       d="m 331.35,153.4 c -0.34,-1.02 -0.61,-2.07 -0.78,-3.15 0.18,1.08 0.44,2.13 0.78,3.15 z"
       id="path46" />
    <path
       class="b"
       d="m 330.3,146.69 v 0 c 0,-1.56 0.16,-3.09 0.47,-4.55 -0.31,1.46 -0.47,2.99 -0.47,4.55 z"
       id="path48" />
    <path
       class="b"
       d="m 334.32,158.96 c -1.28,-1.65 -2.29,-3.54 -2.97,-5.57 0.69,2.03 1.69,3.91 2.97,5.57 z"
       id="path50" />
    <path
       class="b"
       d="m 470.22,67.46 c 0.36,0.03 0.71,0 1.06,-0.07 -0.35,0.06 -0.7,0.1 -1.06,0.07 z"
       id="path52" />
    <path
       class="b"
       d="m 473.15,62.56 c 0,0 0.02,0.03 0.03,0.04 v 0 c 0,0 -0.02,-0.02 -0.03,-0.04 l -0.14,-0.16 c -0.76,-0.56 -1.7,-0.84 -2.64,-0.78 v 0 c 0.95,-0.06 1.88,0.22 2.64,0.78 z"
       id="path54" />
    <path
       class="b"
       d="m 472.97,66.69 c -0.4,0.28 -0.84,0.5 -1.31,0.63 0.47,-0.13 0.91,-0.34 1.31,-0.63 z"
       id="path56" />
    <path
       class="b"
       d="m 472.97,66.69 v 0 c 0.1,-0.09 0.18,-0.19 0.26,-0.29 -0.08,0.1 -0.17,0.2 -0.27,0.29 v 0 z"
       id="path58" />
    <path
       class="b"
       d="m 393.21,66.74 c 0.23,-0.17 0.4,-0.39 0.52,-0.64 -0.11,0.25 -0.29,0.47 -0.52,0.64 z"
       id="path60" />
    <g
       class="d"
       id="g64">
      <path
         class="b"
         d="M 564.87,153.53 H 517.6 c 1.9,8.74 7.98,13.31 16.6,13.31 6.46,0 11.15,-2.03 16.47,-6.97 l 11.03,9.76 c -6.34,7.86 -15.46,12.67 -27.75,12.67 -20.4,0 -35.48,-14.32 -35.48,-35.1 v -0.25 c 0,-19.39 13.81,-35.36 33.58,-35.36 2.14,0 4.16,0.16 6.08,0.46 L 512.8,75.32 c 0.1,1.14 -0.22,2.27 -0.9,3.19 -0.55,0.59 -1.33,0.92 -2.13,0.92 -0.22,0 -0.44,0 -0.67,0 L 509,78.38 c 0.21,0.05 0.43,0.07 0.65,0.07 1.36,0 2.03,-0.96 2.03,-2.9 v -1.86 l -4.54,-6.58 c 0.24,2.06 -0.4,4.22 -1.95,5.84 -0.03,0.03 -0.06,0.06 -0.08,0.09 l -0.18,0.18 c -3.05,2.88 -7.81,2.88 -10.86,0 -2.9,-2.82 -2.97,-7.46 -0.15,-10.37 v 0 l 0.14,-0.15 c 2.54,-2.39 6.26,-2.79 9.2,-1.19 L 465.8,7.17 H 339.83 l 15.81,22.93 -3.21,30.09 h 0.61 l 8.29,8.88 v -8.88 h 4.81 v 16.03 h -4.29 l -8.32,-8.93 v 8.93 h -2.81 l -3.77,35.4 c 0.4,-0.01 0.8,-0.03 1.21,-0.03 21.04,0 36.62,15.59 36.62,35.1 v 0.25 c 0,19.52 -15.71,35.36 -36.88,35.36 -2.91,0 -5.72,-0.31 -8.39,-0.88 l -4.27,40.1 c 0.37,0.21 0.72,0.43 1.03,0.68 2.12,1.65 3.18,4.14 3.18,7.47 0,4.04 -2.02,6.96 -6.02,8.8 l -0.11,1.08 9.15,14.33 h -6.35 l -3.67,-6.12 -2.39,22.46 23.69,-16.34 h -1.54 v -34.15 h 7.87 l 8.38,24.01 3.16,-2.18 7.85,-21.83 h 7.9 v 10.97 l 71.65,-49.41 h -4.39 l -13.05,-41.69 -13.31,41.69 h -17.23 l -20.91,-68.43 h 19.52 l 10.9,41.19 12.8,-41.44 h 16.6 l 12.93,41.57 11.15,-41.31 h 19.14 l -21.16,68.43 h -12.07 l 26.51,38.44 h 15.22 v 4.79 h -10.04 v 29.36 h -5.58 v -24.18 l -20.01,13.8 v 10.37 h -6.84 l -2.45,-3.97 -39.89,27.51 H 557.4 l 55.67,-38.4 v -18.37 l -48,-69.6 c -0.05,0.81 -0.11,1.64 -0.16,2.48 z M 381.66,63.41 h -6.65 v 3.1 h 6.65 v 3.22 h -6.65 v 6.49 h -4.83 V 60.19 h 11.48 z m 13.58,12.81 -1.26,-2.9 c -0.34,-0.8 -0.75,-1.57 -1.25,-2.28 -0.27,-0.4 -0.65,-0.72 -1.08,-0.93 -0.44,-0.15 -0.9,-0.22 -1.36,-0.2 h -0.54 v 6.26 h -4.84 V 60.18 h 8.22 c 1.14,-0.05 2.27,0.23 3.26,0.81 0.79,0.47 1.42,1.14 1.84,1.96 0.35,0.68 0.54,1.44 0.55,2.2 0.03,0.71 -0.13,1.42 -0.46,2.06 -0.24,0.47 -0.58,0.88 -0.99,1.22 -0.38,0.27 -0.77,0.51 -1.17,0.73 0.49,0.27 0.92,0.64 1.28,1.07 0.56,0.77 1.04,1.6 1.42,2.48 l 1.58,3.51 h -5.19 z m 20.03,0 -1.3,-3.25 h -6.96 l -1.33,3.25 h -4.96 l 7.09,-16.03 h 5.35 l 7.06,16.03 h -4.94 z m 25.71,0 h -4.82 v -9.29 l -4.37,5.38 h -0.37 l -4.38,-5.38 v 9.29 h -4.69 V 60.19 h 4.4 l 4.91,6.01 4.96,-6.01 H 441 v 16.03 z m 16.13,0 H 445.02 V 60.19 h 11.88 v 3.21 h -7.04 v 2.93 h 6.73 v 3.23 h -6.73 v 3.42 h 7.25 v 3.23 z m 16.78,-8.83 c -1.04,0.77 -2.32,1.14 -3.61,1.04 h -2.75 v 6.77 h -1.11 V 60.73 h 3.99 c 1.25,-0.09 2.49,0.28 3.49,1.03 0.83,0.69 1.28,1.73 1.22,2.8 0.05,1.08 -0.4,2.12 -1.22,2.83 z m 14.66,7.81 -2.52,-3.94 c -0.51,-0.93 -1.17,-1.77 -1.96,-2.48 -0.62,-0.36 -1.34,-0.54 -2.06,-0.49 h -2 v 6.94 h -1.11 l 0.04,-14.5 h 3.7 c 1.27,-0.09 2.53,0.27 3.57,1.02 0.82,0.66 1.27,1.67 1.23,2.72 0,1.67 -1.13,3.12 -2.75,3.51 0.8,0.59 1.46,1.35 1.93,2.22 l 3.27,5 z"
         id="path62" />
    </g>
    <path
       class="b"
       d="m 389.75,67.13 h 1.03 c 0.21,0.01 0.42,0.02 0.62,0 -0.21,0 -0.41,0 -0.62,0 z"
       id="path66" />
    <path
       class="b"
       d="m 482.42,61.67 c 0.45,-0.03 0.9,0.02 1.34,0.12 -0.44,-0.1 -0.89,-0.15 -1.34,-0.12 h -2.36 v 0 z"
       id="path68" />
    <path
       id="polygon70"
       class="b"
       style="fill:#ffffff"
       d="m 292.13,92.07 1.06,-9.96 -14.45,9.96 z" />
    <path
       id="polygon72"
       class="b"
       style="fill:#ffffff"
       d="m 139.33,91.78 -6.73,-9.76 -47.61,32.83 7.77,11.26 31.09,-21.45 -6.34,59.49 6.73,9.76 48.61,-33.53 -7.76,-11.25 -32.1,22.14 z" />
    <path
       id="polygon74"
       class="b"
       style="fill:#ffffff"
       d="m 252.48,163.67 h 32.02 l 4.53,-42.52 z" />
    <g
       class="d"
       id="g78">
      <path
         id="polygon76"
         class="b"
         style="fill:#ffffff"
         d="m 281.18,341.93 -13.58,-19.7 0.13,-1.27 H 140.75 l 14.46,20.97 z" />
    </g>
    <g
       class="d"
       id="g82">
      <path
         id="polygon80"
         class="b"
         style="fill:#ffffff"
         d="M 494.23,320.96 H 353.69 l -30.4,20.97 h 140.54 z" />
    </g>
    <g
       class="d"
       id="g86">
      <path
         class="b"
         d="m 272.37,277.42 3.14,-29.48 c -1.85,-2.89 -2.79,-6.62 -2.79,-11.23 0,-5.64 1.39,-9.97 4.17,-12.99 0.42,-0.45 0.87,-0.86 1.34,-1.24 l 4.44,-41.7 h -55.28 v -14.83 l 48.79,-56.77 h -22.25 l -86.27,59.5 0.35,-0.95 -53.7,37.03 -62.69,-90.9 90.91,-62.69 31.69,45.95 L 304.65,7.17 H 164.11 L 13.03,111.35 v 24.42 l 97.69,141.65 z m -28.21,-57.69 h 19.27 v 4.72 H 249.7 v 10.67 h 12.87 v 4.74 H 249.7 v 14.02 h -5.54 z m -42.25,0 h 6.77 l 16.75,27.07 h 0.14 c -0.03,-0.36 -0.09,-1.66 -0.19,-3.91 -0.1,-2.25 -0.14,-4.01 -0.14,-5.27 v -17.89 h 5.12 v 34.15 h -6.84 l -16.79,-27.21 h -0.19 l 0.12,1.52 c 0.22,2.9 0.33,5.54 0.33,7.94 v 17.75 h -5.07 v -34.15 z m -39.95,3.99 c 2.78,-3.02 6.75,-4.53 11.9,-4.53 5.15,0 9,1.53 11.77,4.6 2.77,3.07 4.16,7.39 4.16,12.96 0,5.57 -1.39,9.88 -4.17,12.96 -2.78,3.08 -6.72,4.62 -11.81,4.62 -5.09,0 -9.11,-1.53 -11.88,-4.59 -2.76,-3.06 -4.15,-7.41 -4.15,-13.05 0,-5.64 1.39,-9.97 4.17,-12.99 z m -37.32,3.76 c 1.3,-2.66 3.18,-4.7 5.64,-6.12 2.46,-1.42 5.35,-2.13 8.67,-2.13 3.49,0 6.71,0.73 9.67,2.2 l -2.01,4.65 c -1.15,-0.54 -2.37,-1.02 -3.66,-1.44 -1.29,-0.41 -2.64,-0.62 -4.05,-0.62 -3.21,0 -5.73,1.14 -7.57,3.41 -1.84,2.27 -2.76,5.41 -2.76,9.41 0,4 0.88,7.36 2.65,9.51 1.77,2.15 4.33,3.22 7.67,3.22 1.45,0 2.85,-0.14 4.2,-0.43 1.36,-0.29 2.76,-0.66 4.23,-1.11 v 4.79 c -2.68,1.01 -5.72,1.52 -9.11,1.52 -5,0 -8.84,-1.51 -11.52,-4.54 -2.68,-3.03 -4.02,-7.36 -4.02,-13 0,-3.55 0.65,-6.66 1.95,-9.32 z"
         id="path84" />
    </g>
    <g
       class="d"
       id="g90">
      <path
         class="b"
         d="m 173.81,249.58 c 3.32,0 5.82,-1.08 7.51,-3.22 1.69,-2.15 2.53,-5.35 2.53,-9.6 0,-4.25 -0.84,-7.37 -2.51,-9.53 -1.67,-2.16 -4.17,-3.25 -7.49,-3.25 -3.32,0 -5.88,1.08 -7.58,3.25 -1.71,2.17 -2.56,5.34 -2.56,9.53 0,4.19 0.85,7.39 2.55,9.57 1.7,2.17 4.21,3.26 7.54,3.26 z"
         id="path88" />
    </g>
    <path
       class="b"
       d="m 347.91,128.19 c 3.33,0 6.32,0.85 8.86,2.33 -2.54,-1.48 -5.53,-2.33 -8.86,-2.33 -0.95,0 -1.86,0.08 -2.74,0.21 v 0 c 0.88,-0.12 1.79,-0.21 2.74,-0.21 z"
       id="path92" />
    <path
       class="b"
       d="m 494.93,63.43 c -0.06,0.06 -0.12,0.13 -0.18,0.2 0.06,-0.07 0.11,-0.13 0.18,-0.2 z"
       id="path94" />
    <path
       class="b"
       d="m 498.87,74.32 c 0.21,0.02 0.42,0.02 0.64,0.02 v 0 c -0.21,0 -0.43,0 -0.64,-0.02 z"
       id="path96" />
    <path
       class="b"
       d="m 382.34,225.41 h -0.19 l -4.26,11.82 4.12,-2.84 c 0.02,-1.19 0.05,-2.52 0.1,-4.03 0.08,-2.73 0.16,-4.38 0.22,-4.95 z"
       id="path98" />
    <path
       class="b"
       d="m 356.88,225.36 c 0.26,4.24 0.4,8.21 0.4,11.91 v 14.18 l 7.14,-4.92 -7.35,-21.17 z"
       id="path100" />
    <path
       class="b"
       d="m 13.03,463.07 h 600 V 352.1 h -600 z m 3.6,-107.37 h 592.8 V 459.47 H 16.63 Z"
       id="path102" />
    <path
       class="b"
       d="m 393.46,64 c -0.1,-0.11 -0.21,-0.21 -0.34,-0.29 -0.55,-0.26 -1.15,-0.42 -1.75,-0.45 -0.2,-0.01 -0.41,-0.01 -0.61,0 h -1.01 v 3.87 h 1.03 c 0.21,0.01 0.42,0.02 0.62,0 0.62,-0.03 1.23,-0.16 1.81,-0.4 0.23,-0.17 0.4,-0.39 0.52,-0.64 0.11,-0.25 0.16,-0.53 0.14,-0.81 v -0.05 c 0.02,-0.15 0.01,-0.3 -0.02,-0.45 -0.05,-0.29 -0.18,-0.57 -0.38,-0.79 z"
       id="path104" />
    <path
       class="b"
       d="m 485.58,62.75 -0.33,-0.33 c -0.46,-0.3 -0.96,-0.51 -1.49,-0.63 -0.44,-0.1 -0.89,-0.15 -1.34,-0.12 h -2.36 v 5.67 h 2.39 c 0.99,0.06 1.98,-0.2 2.81,-0.74 1.15,-0.97 1.29,-2.69 0.32,-3.84 z"
       id="path106" />
    <path
       class="b"
       d="m 473.77,63.59 c -0.04,-0.13 -0.11,-0.25 -0.17,-0.37 -0.02,-0.05 -0.04,-0.1 -0.07,-0.14 -0.07,-0.12 -0.16,-0.22 -0.24,-0.33 -0.04,-0.05 -0.06,-0.1 -0.1,-0.14 v 0 c 0,0 -0.02,-0.02 -0.03,-0.04 l -0.14,-0.16 c -0.76,-0.56 -1.7,-0.84 -2.64,-0.78 l -2.83,0.04 v 5.8 h 2.68 c 0.36,0.03 0.71,0 1.06,-0.07 0.13,-0.02 0.26,-0.04 0.38,-0.07 0.47,-0.13 0.91,-0.34 1.31,-0.63 0.1,-0.09 0.18,-0.19 0.27,-0.29 0.04,-0.05 0.09,-0.09 0.13,-0.14 0.08,-0.11 0.15,-0.24 0.21,-0.36 0.02,-0.04 0.06,-0.08 0.08,-0.13 0.06,-0.14 0.11,-0.28 0.15,-0.43 0,-0.03 0.03,-0.07 0.04,-0.1 0.03,-0.13 0.05,-0.27 0.06,-0.41 0,-0.05 0.02,-0.09 0.02,-0.14 0,-0.14 0,-0.28 -0.02,-0.42 0,-0.05 0,-0.09 0,-0.14 -0.02,-0.14 -0.06,-0.28 -0.1,-0.42 -0.01,-0.04 -0.02,-0.08 -0.03,-0.13 z"
       id="path108" />
    <path
       class="b"
       d="m 341.34,164.35 3.83,-35.96 c -3.46,0.48 -6.4,1.85 -8.73,3.86 -1.81,1.56 -3.25,3.51 -4.28,5.71 -0.31,0.65 -0.57,1.33 -0.81,2.03 -0.23,0.7 -0.43,1.41 -0.58,2.14 -0.31,1.46 -0.47,2.99 -0.47,4.56 v 0.25 c 0,1.12 0.09,2.23 0.27,3.31 0.18,1.08 0.44,2.13 0.78,3.15 0.69,2.03 1.69,3.91 2.97,5.57 1.82,2.35 4.2,4.22 7.02,5.39 z"
       id="path110" />
    <g
       class="d"
       id="g114">
      <path
         class="b"
         d="m 345.17,128.4 -3.83,35.96 c 2.06,0.86 4.35,1.35 6.83,1.35 11.03,0 17.61,-8.49 17.61,-18.5 v -0.25 c 0,-0.92 -0.07,-1.83 -0.19,-2.72 -0.33,-2.41 -1.08,-4.71 -2.2,-6.77 -0.67,-1.23 -1.45,-2.38 -2.37,-3.41 -0.07,-0.08 -0.12,-0.16 -0.19,-0.23 -1.18,-1.29 -2.54,-2.4 -4.06,-3.29 -2.54,-1.48 -5.53,-2.33 -8.86,-2.33 -0.95,0 -1.86,0.08 -2.74,0.21 z"
         id="path112" />
    </g>
    <path
       id="polygon116"
       class="b"
       style="fill:#ffffff"
       d="m 410.5,64.38 -2.36,5.79 h 4.71 z" />
    <path
       class="b"
       d="m 255.68,68.04 c 0.24,-0.11 0.48,-0.25 0.71,-0.41 0.5,-0.46 0.82,-1.04 0.96,-1.65 0.05,-0.2 0.08,-0.41 0.08,-0.62 0.02,-0.42 -0.05,-0.84 -0.19,-1.24 -0.14,-0.4 -0.37,-0.78 -0.68,-1.11 -0.04,-0.06 -0.1,-0.12 -0.16,-0.16 -0.62,-0.48 -1.35,-0.77 -2.12,-0.86 -0.26,-0.03 -0.51,-0.04 -0.78,-0.02 h -3.21 v 6.52 h 3.02 c 0.82,0.05 1.63,-0.1 2.37,-0.45 z"
       id="path118" />
    <g
       class="d"
       id="g122">
      <path
         class="b"
         d="m 527.86,127.63 c -0.86,0.26 -1.68,0.59 -2.45,1.01 -0.77,0.42 -1.49,0.9 -2.16,1.46 -1.34,1.12 -2.49,2.52 -3.42,4.17 -1.17,2.06 -2,4.49 -2.48,7.23 h 29.02 c -0.1,-0.75 -0.24,-1.47 -0.4,-2.17 -0.86,-3.83 -2.57,-6.98 -5.05,-9.13 -0.09,-0.08 -0.19,-0.15 -0.29,-0.23 -2.28,-1.86 -5.16,-2.91 -8.59,-2.91 -1.5,0 -2.9,0.2 -4.19,0.58 z"
         id="path120" />
    </g>
    <path
       id="polygon124"
       class="b"
       style="fill:#ffffff"
       d="m 325.64,70.17 h 4.72 l -2.35,-5.79 z" />
    <path
       class="b"
       d="m 231.81,73.55 c 0.08,0.1 0.18,0.2 0.27,0.3 0.07,0.08 0.14,0.17 0.22,0.24 v 0 l 0.02,0.02 c 1.43,1.37 3.27,2.06 5.11,2.06 0.46,0 0.92,-0.04 1.37,-0.13 0.45,-0.09 0.9,-0.21 1.34,-0.39 0.43,-0.17 0.86,-0.39 1.26,-0.64 0.4,-0.26 0.78,-0.56 1.14,-0.9 0.35,-0.35 0.65,-0.73 0.91,-1.13 0.26,-0.4 0.47,-0.82 0.65,-1.25 0.26,-0.65 0.42,-1.32 0.49,-2.01 0.02,-0.23 0.03,-0.46 0.03,-0.69 0,-0.46 -0.04,-0.92 -0.13,-1.37 -0.04,-0.23 -0.1,-0.45 -0.16,-0.67 -0.13,-0.44 -0.3,-0.88 -0.52,-1.29 -0.16,-0.31 -0.35,-0.62 -0.56,-0.91 -0.21,-0.29 -0.44,-0.57 -0.7,-0.83 -0.89,-0.86 -1.95,-1.45 -3.06,-1.77 -1.34,-0.39 -2.76,-0.39 -4.1,0 -1.11,0.32 -2.17,0.91 -3.06,1.77 v 0 c -0.08,0.08 -0.16,0.17 -0.24,0.26 -0.09,0.09 -0.18,0.19 -0.26,0.28 -0.07,0.09 -0.13,0.18 -0.2,0.27 -0.08,0.1 -0.16,0.21 -0.23,0.31 -0.06,0.09 -0.11,0.18 -0.16,0.27 -0.07,0.11 -0.14,0.22 -0.2,0.34 -0.05,0.09 -0.08,0.18 -0.13,0.27 -0.06,0.12 -0.12,0.24 -0.17,0.36 -0.04,0.1 -0.07,0.21 -0.11,0.32 -0.04,0.11 -0.08,0.22 -0.12,0.34 -0.03,0.11 -0.05,0.22 -0.08,0.33 -0.03,0.11 -0.06,0.23 -0.08,0.34 -0.02,0.1 -0.03,0.21 -0.05,0.31 -0.02,0.12 -0.04,0.24 -0.05,0.37 -0.01,0.11 -0.01,0.22 -0.02,0.33 0,0.12 -0.02,0.24 -0.02,0.35 0,0.11 0.01,0.22 0.01,0.33 0,0.12 0,0.24 0.02,0.36 0.01,0.11 0.03,0.21 0.05,0.32 0.02,0.12 0.03,0.24 0.05,0.36 0.02,0.1 0.05,0.2 0.07,0.3 0.03,0.12 0.05,0.25 0.09,0.37 0.03,0.11 0.08,0.22 0.11,0.33 0.04,0.11 0.07,0.22 0.11,0.33 0.04,0.11 0.1,0.22 0.15,0.33 0.05,0.1 0.09,0.21 0.14,0.31 0.05,0.1 0.11,0.19 0.17,0.28 0.06,0.11 0.12,0.22 0.19,0.33 0.07,0.1 0.15,0.2 0.22,0.31 0.07,0.09 0.13,0.19 0.2,0.27 z"
       id="path126" />
    <path
       class="b"
       d="m 494.93,63.43 c -0.06,0.06 -0.12,0.13 -0.18,0.2 -0.09,0.1 -0.18,0.19 -0.26,0.29 -0.03,0.04 -0.05,0.08 -0.08,0.11 -0.1,0.13 -0.21,0.27 -0.3,0.4 -0.23,0.34 -0.41,0.7 -0.57,1.07 0,0.01 -0.01,0.03 -0.02,0.04 -0.05,0.11 -0.08,0.23 -0.12,0.34 -0.03,0.08 -0.06,0.16 -0.09,0.25 -0.01,0.05 -0.02,0.1 -0.04,0.15 -0.04,0.15 -0.08,0.3 -0.11,0.45 -0.01,0.05 -0.01,0.11 -0.02,0.16 -0.02,0.15 -0.05,0.3 -0.06,0.45 0,0.09 0,0.17 -0.01,0.26 0,0.12 -0.02,0.23 -0.02,0.35 0,0.12 0.01,0.22 0.02,0.34 0,0.09 0,0.19 0.01,0.28 0.01,0.12 0.03,0.24 0.05,0.36 0.01,0.08 0.02,0.17 0.04,0.25 0.03,0.14 0.06,0.27 0.1,0.41 0.02,0.06 0.03,0.13 0.05,0.19 0.02,0.08 0.06,0.17 0.09,0.25 0.04,0.11 0.07,0.23 0.12,0.34 0,0.01 0.01,0.03 0.02,0.04 0.15,0.37 0.34,0.73 0.57,1.07 0.04,0.06 0.09,0.12 0.14,0.18 0.08,0.11 0.16,0.23 0.25,0.33 0.02,0.02 0.04,0.04 0.05,0.06 0.12,0.15 0.25,0.29 0.39,0.43 0.15,0.15 0.31,0.3 0.47,0.43 0.49,0.4 1.04,0.73 1.63,0.96 0.59,0.23 1.2,0.38 1.84,0.43 0.21,0.02 0.43,0.02 0.64,0.02 v 0 c 0.43,0.02 0.85,0 1.27,-0.09 1.24,-0.23 2.4,-0.83 3.3,-1.74 2.48,-2.52 2.48,-6.56 0,-9.08 -2.55,-2.47 -6.6,-2.47 -9.14,0 z"
       id="path128" />
    <path
       class="b"
       d="m 473.53,63.07 c 0,0 0.04,0.1 0.07,0.14"
       id="path130" />
    <path
       class="b"
       d="m 473.77,63.59 c 0,0 0.02,0.08 0.03,0.13"
       id="path132" />
    <path
       class="b"
       d="m 473.9,64.83 c 0,0 0.02,-0.09 0.02,-0.14"
       id="path134" />
    <path
       class="b"
       d="m 473.81,65.34 c 0,0 0.03,-0.07 0.04,-0.1"
       id="path136" />
    <path
       class="b"
       d="m 473.58,65.9 c 0,0 0.06,-0.08 0.08,-0.13"
       id="path138" />
    <path
       class="b"
       d="m 473.24,66.4 c 0,0 0.09,-0.09 0.13,-0.14"
       id="path140" />
    <path
       class="b"
       d="m 471.28,67.39 c 0.13,-0.02 0.26,-0.04 0.38,-0.07"
       id="path142" />
    <path
       class="b"
       d="m 473.9,64.13 c 0,0 0,0.09 0,0.14"
       id="path144" />
    <path
       class="b"
       d="m 494.49,63.92 c 0.08,-0.1 0.17,-0.19 0.26,-0.29"
       id="path146" />
    <path
       class="b"
       d="m 497.03,73.89 c -0.58,-0.23 -1.13,-0.56 -1.63,-0.96"
       id="path148" />
    <path
       class="b"
       d="m 493.05,67.96 c 0,-0.12 0.01,-0.23 0.02,-0.35"
       id="path150" />
    <path
       class="b"
       d="m 493.17,66.74 c 0.03,-0.15 0.07,-0.3 0.11,-0.45"
       id="path152" />
    <path
       class="b"
       d="m 494.11,64.44 c 0.09,-0.14 0.19,-0.27 0.3,-0.4"
       id="path154" />
    <path
       class="b"
       d="m 493.4,70.04 c 0.04,0.11 0.07,0.23 0.12,0.34"
       id="path156" />
    <path
       class="b"
       d="m 493.52,65.55 c 0,0 0.01,-0.03 0.02,-0.04"
       id="path158" />
    <path
       class="b"
       d="m 493.32,66.14 c 0.02,-0.08 0.06,-0.17 0.09,-0.25"
       id="path160" />
    <path
       class="b"
       d="m 494.49,72.01 c -0.09,-0.11 -0.17,-0.22 -0.25,-0.33"
       id="path162" />
    <path
       class="b"
       d="m 493.13,68.94 c 0.01,0.08 0.02,0.17 0.04,0.25"
       id="path164" />
    <path
       class="b"
       d="m 493.27,69.6 c 0.02,0.06 0.03,0.13 0.05,0.19"
       id="path166" />
    <path
       class="b"
       d="m 493.07,68.3 c 0,0.09 0,0.19 0.01,0.28"
       id="path168" />
    <path
       class="b"
       d="m 493.08,67.35 c 0.01,-0.15 0.04,-0.3 0.06,-0.45"
       id="path170" />
    <path
       class="b"
       d="m 393.12,63.71 c -0.55,-0.26 -1.15,-0.42 -1.75,-0.45"
       id="path172" />
    <path
       class="b"
       d="m 393.46,64 c 0.2,0.22 0.33,0.5 0.38,0.79"
       id="path174" />
    <path
       class="b"
       d="m 230.25,69.72 c -0.01,-0.12 -0.01,-0.24 -0.02,-0.36"
       id="path176" />
    <path
       class="b"
       d="m 230.34,70.4 c -0.02,-0.12 -0.03,-0.24 -0.05,-0.36"
       id="path178" />
    <path
       class="b"
       d="m 231.39,72.97 c -0.07,-0.11 -0.13,-0.22 -0.19,-0.33"
       id="path180" />
    <path
       class="b"
       d="m 244.32,67.01 c -0.13,-0.44 -0.3,-0.88 -0.52,-1.29"
       id="path182" />
    <path
       class="b"
       d="m 243.8,65.71 c -0.16,-0.31 -0.35,-0.62 -0.56,-0.91"
       id="path184" />
    <path
       class="b"
       d="m 232.09,64.23 c -0.09,0.09 -0.18,0.19 -0.26,0.28"
       id="path186" />
    <path
       class="b"
       d="m 231.03,72.36 c -0.05,-0.1 -0.1,-0.21 -0.14,-0.31"
       id="path188" />
    <path
       class="b"
       d="m 231.81,73.55 c -0.07,-0.09 -0.13,-0.18 -0.2,-0.27"
       id="path190" />
    <path
       class="b"
       d="m 244.48,67.68 c 0.09,0.45 0.13,0.91 0.13,1.37"
       id="path192" />
    <path
       class="b"
       d="m 230.73,71.72 c -0.04,-0.11 -0.08,-0.22 -0.11,-0.33"
       id="path194" />
    <path
       class="b"
       d="m 230.51,71.07 c -0.04,-0.12 -0.06,-0.25 -0.09,-0.37"
       id="path196" />
    <path
       class="b"
       d="m 231.63,64.78 c -0.08,0.1 -0.16,0.21 -0.23,0.31"
       id="path198" />
    <path
       class="b"
       d="m 230.23,68.68 c 0,0.12 -0.02,0.24 -0.02,0.35"
       id="path200" />
    <path
       class="b"
       d="m 230.43,67.32 c -0.03,0.11 -0.06,0.23 -0.08,0.34"
       id="path202" />
    <path
       class="b"
       d="m 230.3,67.98 c -0.02,0.12 -0.04,0.24 -0.05,0.37"
       id="path204" />
    <path
       class="b"
       d="m 231.24,65.37 c -0.07,0.11 -0.14,0.22 -0.2,0.34"
       id="path206" />
    <path
       class="b"
       d="m 230.91,65.98 c -0.06,0.12 -0.12,0.24 -0.17,0.36"
       id="path208" />
    <path
       class="b"
       d="m 230.63,66.66 c -0.04,0.11 -0.08,0.22 -0.12,0.34"
       id="path210" />
    <path
       class="b"
       d="m 360.84,133.81 c 0.07,0.07 0.13,0.16 0.19,0.23"
       id="path212" />
    <path
       class="b"
       d="m 114.92,288.12 c -2.13,0 -3.8,0.51 -5,1.53 -1.21,1.02 -1.81,2.42 -1.81,4.2 0,0.95 0.18,1.77 0.55,2.48 0.37,0.71 0.86,1.33 1.47,1.86 0.61,0.53 1.54,1.09 2.77,1.67 1.31,0.62 2.18,1.08 2.61,1.36 0.43,0.28 0.75,0.58 0.97,0.89 0.22,0.31 0.33,0.66 0.33,1.05 0,0.71 -0.25,1.24 -0.75,1.6 -0.5,0.36 -1.22,0.54 -2.15,0.54 -0.78,0 -1.64,-0.12 -2.58,-0.37 -0.94,-0.25 -2.09,-0.67 -3.45,-1.28 v 3.96 c 1.65,0.81 3.55,1.21 5.7,1.21 2.33,0 4.15,-0.52 5.46,-1.57 1.31,-1.05 1.96,-2.48 1.96,-4.29 0,-1.31 -0.35,-2.42 -1.05,-3.32 -0.7,-0.9 -1.99,-1.8 -3.87,-2.7 -1.42,-0.68 -2.32,-1.15 -2.7,-1.41 -0.38,-0.26 -0.66,-0.53 -0.83,-0.81 -0.17,-0.28 -0.26,-0.61 -0.26,-0.98 0,-0.61 0.22,-1.1 0.65,-1.47 0.43,-0.38 1.05,-0.56 1.86,-0.56 0.68,0 1.37,0.09 2.07,0.26 0.7,0.17 1.59,0.48 2.66,0.92 l 0.69,-1.67 -1.74,-2.53 c -0.18,-0.05 -0.37,-0.12 -0.55,-0.17 -0.95,-0.25 -1.95,-0.37 -2.99,-0.37 z"
       id="path214" />
    <path
       class="b"
       d="m 120.9,289.53 c -0.84,-0.36 -1.64,-0.64 -2.43,-0.88 l 1.74,2.53 0.68,-1.65 z"
       id="path216" />
    <path
       class="b"
       d="m 145.22,300.7 c 0,1.56 -0.31,2.7 -0.94,3.43 -0.63,0.73 -1.64,1.09 -3.03,1.09 -1.39,0 -2.47,-0.36 -3.1,-1.09 -0.62,-0.72 -0.94,-1.86 -0.94,-3.41 V 288.4 h -4.25 v 12.96 c 0,2.3 0.72,4.12 2.15,5.44 1.43,1.33 3.44,1.99 6.03,1.99 1.72,0 3.2,-0.3 4.46,-0.89 1.26,-0.59 2.22,-1.45 2.88,-2.57 0.67,-1.12 1,-2.42 1,-3.91 V 288.4 h -4.25 v 12.29 z"
       id="path218" />
    <path
       class="b"
       d="m 174.85,289.98 c -1.27,-1.05 -3.13,-1.58 -5.57,-1.58 h -6.43 v 20.12 h 4.27 v -7.16 h 1.83 c 2.5,0 4.42,-0.57 5.77,-1.72 1.35,-1.15 2.03,-2.8 2.03,-4.97 0,-2.17 -0.64,-3.65 -1.91,-4.7 z m -3.38,7.12 c -0.65,0.52 -1.63,0.78 -2.95,0.78 h -1.4 v -5.97 h 1.94 c 1.17,0 2.02,0.24 2.57,0.72 0.55,0.48 0.82,1.22 0.82,2.22 0,1 -0.33,1.75 -0.98,2.26 z"
       id="path220" />
    <path
       class="b"
       d="m 201,289.98 c -1.27,-1.05 -3.13,-1.58 -5.57,-1.58 H 189 v 20.12 h 4.27 v -7.16 h 1.83 c 2.5,0 4.42,-0.57 5.77,-1.72 1.35,-1.15 2.03,-2.8 2.03,-4.97 0,-2.17 -0.64,-3.65 -1.91,-4.7 z m -3.38,7.12 c -0.65,0.52 -1.63,0.78 -2.95,0.78 h -1.4 v -5.97 h 1.94 c 1.17,0 2.02,0.24 2.57,0.72 0.55,0.48 0.82,1.22 0.82,2.22 0,1 -0.33,1.75 -0.98,2.26 z"
       id="path222" />
    <path
       class="b"
       d="m 223.88,288.09 c -3.09,0 -5.47,0.88 -7.12,2.65 -1.66,1.77 -2.48,4.32 -2.48,7.67 0,3.35 0.83,5.92 2.48,7.71 1.65,1.79 4.02,2.68 7.1,2.68 3.08,0 5.45,-0.89 7.1,-2.68 1.65,-1.79 2.48,-4.35 2.48,-7.68 0,-3.33 -0.82,-5.9 -2.46,-7.68 -1.64,-1.78 -4,-2.67 -7.09,-2.67 z m -0.03,17.13 c -1.7,0 -2.97,-0.57 -3.83,-1.71 -0.86,-1.14 -1.28,-2.83 -1.28,-5.08 0,-2.25 0.43,-3.94 1.29,-5.08 0.86,-1.14 2.14,-1.71 3.84,-1.71 3.39,0 5.08,2.27 5.08,6.8 0,4.53 -1.7,6.79 -5.11,6.79 z"
       id="path224" />
    <path
       class="b"
       d="m 258.97,297.59 c 0.65,-0.92 0.98,-1.97 0.98,-3.16 0,-2.03 -0.66,-3.54 -1.97,-4.53 -1.31,-1 -3.33,-1.49 -6.07,-1.49 h -5.86 v 20.12 h 4.27 v -7.72 h 2.27 l 4.8,7.72 h 4.73 c -0.92,-1.32 -2.89,-4.24 -5.92,-8.77 1.19,-0.52 2.12,-1.25 2.77,-2.17 z m -4.29,-0.93 c -0.64,0.45 -1.64,0.67 -2.99,0.67 h -1.38 v -5.44 h 1.29 c 1.38,0 2.39,0.2 3.05,0.61 0.66,0.4 0.98,1.08 0.98,2.04 0,0.96 -0.32,1.67 -0.96,2.12 z"
       id="path226" />
    <path
       id="polygon228"
       class="b"
       style="fill:#ffffff"
       d="m 276.61,308.53 h 4.27 v -16.57 h 5.46 V 288.4 H 271.2 l -0.05,0.53 v 3.03 h 5.46 z" />
    <path
       id="polygon230"
       class="b"
       style="fill:#ffffff"
       d="m 271.15,288.4 v 0.53 l 0.05,-0.53 z" />
    <path
       class="b"
       d="m 317.94,301.37 h 1.83 c 2.5,0 4.42,-0.57 5.77,-1.72 1.35,-1.15 2.03,-2.8 2.03,-4.97 0,-2.17 -0.64,-3.65 -1.91,-4.7 -1.27,-1.05 -3.13,-1.58 -5.57,-1.58 h -6.43 v 20.12 h 4.27 v -7.16 z m 0,-9.47 h 1.94 c 1.17,0 2.02,0.24 2.57,0.72 0.55,0.48 0.82,1.22 0.82,2.22 0,1 -0.33,1.75 -0.98,2.26 -0.65,0.51 -1.63,0.78 -2.95,0.78 h -1.4 v -5.97 z"
       id="path232" />
    <path
       class="b"
       d="m 344.09,300.81 h 2.27 l 4.8,7.72 h 4.73 c -0.92,-1.32 -2.89,-4.24 -5.92,-8.77 1.19,-0.52 2.12,-1.25 2.77,-2.17 0.65,-0.92 0.98,-1.97 0.98,-3.16 0,-2.03 -0.66,-3.54 -1.97,-4.53 -1.31,-1 -3.33,-1.49 -6.07,-1.49 h -5.86 v 20.12 h 4.27 z m 0,-8.9 h 1.29 c 1.38,0 2.39,0.2 3.05,0.61 0.66,0.4 0.98,1.08 0.98,2.04 0,0.96 -0.32,1.67 -0.96,2.12 -0.64,0.45 -1.64,0.67 -2.99,0.67 h -1.38 v -5.44 z"
       id="path234" />
    <path
       class="b"
       d="m 375.57,305.22 c -1.7,0 -2.97,-0.57 -3.83,-1.71 -0.86,-1.14 -1.28,-2.83 -1.28,-5.08 0,-2.25 0.43,-3.94 1.29,-5.08 0.86,-1.14 2.14,-1.71 3.84,-1.71 3.39,0 5.08,2.27 5.08,6.8 0,1.97 -0.34,3.48 -0.99,4.59 l 5.43,-3.75 c 0.01,-0.28 0.03,-0.56 0.03,-0.85 0,-3.34 -0.82,-5.9 -2.46,-7.68 -1.64,-1.78 -4,-2.67 -7.09,-2.67 -3.09,0 -5.47,0.88 -7.12,2.65 -1.66,1.77 -2.48,4.32 -2.48,7.67 0,3.35 0.83,5.92 2.48,7.71 0.95,1.03 2.15,1.75 3.57,2.19 l 4.61,-3.18 c -0.34,0.06 -0.7,0.1 -1.08,0.1 z"
       id="path236" />
    <path
       class="b"
       d="m 382.67,306.12 c 1.51,-1.63 2.32,-3.92 2.45,-6.83 l -5.43,3.75 c -0.67,1.16 -1.67,1.87 -3.04,2.1 l -4.61,3.18 c 1.05,0.32 2.22,0.49 3.53,0.49 3.08,0 5.45,-0.89 7.1,-2.68 z"
       id="path238" />
    <path
       id="polygon240"
       class="b"
       style="fill:#ffffff"
       d="m 396.31,291.57 3.48,-2.4 -0.24,-0.77 h -4.31 z" />
    <path
       class="b"
       d="m 406.72,308.53 6.84,-20.12 h -4.31 l -3.81,11.97 c -0.59,2.11 -0.93,3.59 -1.03,4.43 -0.06,-0.37 -0.2,-1.02 -0.42,-1.96 -0.22,-0.94 -0.44,-1.76 -0.65,-2.47 l -3.54,-11.21 -3.48,2.4 5.75,16.96 z"
       id="path242" />
    <path
       id="rect244"
       class="b"
       style="fill:#ffffff"
       d="m 424.54999,288.39999 h 4.27 v 20.12 h -4.27 z" />
    <path
       class="b"
       d="m 456.2,305.88 c 1.89,-1.76 2.83,-4.3 2.83,-7.61 0,-3.11 -0.91,-5.53 -2.72,-7.27 -1.81,-1.74 -4.37,-2.6 -7.65,-2.6 h -6.32 v 20.12 h 5.7 c 3.56,0 6.28,-0.88 8.17,-2.64 z m -9.6,-13.98 h 2.27 c 3.82,0 5.73,2.16 5.73,6.48 0,4.32 -2.06,6.62 -6.17,6.62 h -1.83 z"
       id="path246" />
    <path
       id="polygon248"
       class="b"
       style="fill:#ffffff"
       d="m 475.92,299.81 h 6.81 v -3.49 h -6.81 v -4.42 h 7.32 v -3.5 h -11.59 v 20.13 h 11.59 V 305 h -7.32 z" />
    <path
       class="b"
       d="m 500.16,300.81 h 2.27 l 4.8,7.72 h 4.73 c -0.92,-1.32 -2.89,-4.24 -5.92,-8.77 1.19,-0.52 2.12,-1.25 2.77,-2.17 0.65,-0.92 0.98,-1.97 0.98,-3.16 0,-2.03 -0.66,-3.54 -1.97,-4.53 -1.31,-1 -3.33,-1.49 -6.07,-1.49 h -5.86 v 20.12 h 4.27 z m 0,-8.9 h 1.29 c 1.38,0 2.39,0.2 3.05,0.61 0.66,0.4 0.98,1.08 0.98,2.04 0,0.96 -0.32,1.67 -0.96,2.12 -0.64,0.45 -1.64,0.67 -2.99,0.67 h -1.38 v -5.44 z"
       id="path250" />
  </g>
  <g
     aria-label="COMPREHENSIVE - ZOWE V2"
     transform="translate(48.75,418.17)"
     id="text256"
     class="c"
     style="font-size:32px;font-family:OpenSans-Bold, 'Open Sans';letter-spacing:0.12em;fill:#ffffff">
    <path
       d="m 21.09375,-1.6875 q -0.859375,0.375 -1.5625,0.703125 -0.6875,0.328125 -1.8125,0.6875 -0.953125,0.296875 -2.078125,0.5 -1.109375,0.21875 -2.453125,0.21875 -2.53125,0 -4.609375,-0.703125 Q 6.515625,-1 4.984375,-2.515625 3.484375,-4 2.640625,-6.28125 q -0.84375,-2.296875 -0.84375,-5.328125 0,-2.875 0.8125,-5.140625 0.8125,-2.265625 2.34375,-3.828125 1.484375,-1.515625 3.578125,-2.3125 2.109375,-0.796875 4.671875,-0.796875 1.875,0 3.734375,0.453125 1.875,0.453125 4.15625,1.59375 v 3.671875 H 20.859375 Q 18.9375,-19.578125 17.046875,-20.3125 15.15625,-21.046875 13,-21.046875 q -1.765625,0 -3.1875,0.578125 -1.40625,0.5625 -2.515625,1.765625 -1.078125,1.171875 -1.6875,2.96875 -0.59375,1.78125 -0.59375,4.125 0,2.453125 0.65625,4.21875 0.671875,1.765625 1.71875,2.875 1.09375,1.15625 2.546875,1.71875 1.46875,0.546875 3.09375,0.546875 2.234375,0 4.1875,-0.765625 Q 19.171875,-3.78125 20.875,-5.3125 h 0.21875 z"
       id="path279" />
    <path
       d="m 46.68375,-20.59375 q 1.421875,1.5625 2.171875,3.828125 0.765625,2.265625 0.765625,5.140625 0,2.875 -0.78125,5.15625 -0.765625,2.265625 -2.15625,3.78125 -1.4375,1.578125 -3.40625,2.375 -1.953125,0.796875 -4.46875,0.796875 -2.453125,0 -4.46875,-0.8125 -2,-0.8125 -3.40625,-2.359375 -1.40625,-1.546875 -2.171875,-3.796875 -0.75,-2.25 -0.75,-5.140625 0,-2.84375 0.75,-5.09375 0.75,-2.265625 2.1875,-3.875 1.375,-1.53125 3.40625,-2.34375 2.046875,-0.8125 4.453125,-0.8125 2.5,0 4.484375,0.828125 2,0.8125 3.390625,2.328125 z M 46.4025,-11.625 q 0,-4.53125 -2.03125,-6.984375 -2.03125,-2.46875 -5.546875,-2.46875 -3.546875,0 -5.578125,2.46875 -2.015625,2.453125 -2.015625,6.984375 0,4.578125 2.0625,7.015625 2.0625,2.421875 5.53125,2.421875 3.46875,0 5.515625,-2.421875 2.0625,-2.4375 2.0625,-7.015625 z"
       id="path281" />
    <path
       d="M 79.08625,0 H 75.9925 V -20.046875 L 69.52375,-6.40625 H 67.68 L 61.258125,-20.046875 V 0 H 58.3675 v -23.265625 h 4.21875 l 6.203125,12.953125 6,-12.953125 h 4.296875 z"
       id="path283" />
    <path
       d="m 104.42625,-16.234375 q 0,1.546875 -0.54688,2.875 -0.53125,1.3125 -1.5,2.28125 -1.20312,1.203125 -2.843748,1.8125 -1.640625,0.59375 -4.140625,0.59375 h -3.09375 V 0 h -3.09375 v -23.265625 h 6.3125 q 2.09375,0 3.546875,0.359375 1.453128,0.34375 2.578128,1.09375 1.32812,0.890625 2.04687,2.21875 0.73438,1.328125 0.73438,3.359375 z m -3.21875,0.07813 q 0,-1.203125 -0.42188,-2.09375 -0.42187,-0.890625 -1.281248,-1.453125 -0.75,-0.484375 -1.71875,-0.6875 -0.953125,-0.21875 -2.421875,-0.21875 h -3.0625 v 9.296875 h 2.609375 q 1.875,0 3.046875,-0.328125 1.171875,-0.34375 1.90625,-1.078125 0.734373,-0.75 1.031253,-1.578125 0.3125,-0.828125 0.3125,-1.859375 z"
       id="path285" />
    <path
       d="m 131.61,0 h -4.01562 l -7.78125,-9.25 h -4.35938 V 0 H 112.36 v -23.265625 h 6.51563 q 2.10937,0 3.51562,0.28125 1.40625,0.265625 2.53125,0.96875 1.26563,0.796875 1.96875,2.015625 0.71875,1.203125 0.71875,3.0625 0,2.515625 -1.26562,4.21875 -1.26563,1.6875 -3.48438,2.546875 z m -7.23437,-16.71875 q 0,-1 -0.35938,-1.765625 -0.34375,-0.78125 -1.15625,-1.3125 -0.67187,-0.453125 -1.59375,-0.625 -0.92187,-0.1875 -2.17187,-0.1875 h -3.64063 v 8.78125 h 3.125 q 1.46875,0 2.5625,-0.25 1.09375,-0.265625 1.85938,-0.96875 0.70312,-0.65625 1.03125,-1.5 0.34375,-0.859375 0.34375,-2.171875 z"
       id="path287" />
    <path
       d="M 153.77812,0 H 138.45 v -23.265625 h 15.32812 v 2.75 h -12.23437 v 6.375 h 12.23437 v 2.75 H 141.54375 V -2.75 h 12.23437 z"
       id="path289" />
    <path
       d="m 180.33687,0 h -3.09375 V -11.390625 H 165.63374 V 0 h -3.09375 v -23.265625 h 3.09375 v 9.125 h 11.60938 v -9.125 h 3.09375 z"
       id="path291" />
    <path
       d="M 205.77063,0 H 190.4425 v -23.265625 h 15.32813 v 2.75 h -12.23438 v 6.375 h 12.23438 v 2.75 H 193.53625 V -2.75 h 12.23438 z"
       id="path293" />
    <path
       d="m 232.2825,0 h -3.82812 L 217.42313,-20.8125 V 0 h -2.89063 v -23.265625 h 4.79688 l 10.0625,19 v -19 h 2.89062 z"
       id="path295" />
    <path
       d="m 259.21625,-6.640625 q 0,1.359375 -0.64063,2.6875 -0.625,1.328125 -1.76562,2.25 -1.25,1 -2.92188,1.5625 -1.65625,0.5625 -4,0.5625 -2.51562,0 -4.53125,-0.46875 -2,-0.46875 -4.07812,-1.390625 v -3.875 h 0.21875 q 1.76562,1.46875 4.07812,2.265625 2.3125,0.796875 4.34375,0.796875 2.875,0 4.46875,-1.078125 1.60938,-1.078125 1.60938,-2.875 0,-1.546875 -0.76563,-2.28125 -0.75,-0.734375 -2.29687,-1.140625 -1.17188,-0.3125 -2.54688,-0.515625 -1.35937,-0.203125 -2.89062,-0.515625 -3.09375,-0.65625 -4.59375,-2.234375 -1.48438,-1.59375 -1.48438,-4.140625 0,-2.921875 2.46875,-4.78125 2.46875,-1.875 6.26563,-1.875 2.45312,0 4.5,0.46875 2.04687,0.46875 3.625,1.15625 v 3.65625 H 258.06 q -1.32813,-1.125 -3.5,-1.859375 -2.15625,-0.75 -4.42188,-0.75 -2.48437,0 -4,1.03125 -1.5,1.03125 -1.5,2.65625 0,1.453125 0.75,2.28125 0.75,0.828125 2.64063,1.265625 1,0.21875 2.84375,0.53125 1.84375,0.3125 3.125,0.640625 2.59375,0.6875 3.90625,2.078125 1.3125,1.390625 1.3125,3.890625 z"
       id="path297" />
    <path
       d="m 276.22812,0 h -9.1875 v -2.375 h 3.04687 v -18.515625 h -3.04687 v -2.375 h 9.1875 v 2.375 h -3.04688 V -2.375 h 3.04688 z"
       id="path299" />
    <path
       d="M 303.70874,-23.265625 295.23999,0 h -4.125 l -8.46875,-23.265625 h 3.3125 l 7.29688,20.46875 7.29687,-20.46875 z"
       id="path301" />
    <path
       d="m 326.40811,0 h -15.32812 v -23.265625 h 15.32812 v 2.75 h -12.23437 v 6.375 h 12.23437 v 2.75 H 314.17374 V -2.75 h 12.23437 z"
       id="path303" />
    <path
       d="m 359.27563,-8.765625 h -9.75 v -2.828125 h 9.75 z"
       id="path305" />
    <path
       d="m 400.7525,0 h -18.15625 v -2.875 l 14.26563,-17.640625 H 383.1275 v -2.75 h 17.28125 v 2.796875 L 386.0025,-2.75 h 14.75 z"
       id="path307" />
    <path
       d="m 426.87375,-20.59375 q 1.42187,1.5625 2.17187,3.828125 0.76563,2.265625 0.76563,5.140625 0,2.875 -0.78125,5.15625 -0.76563,2.265625 -2.15625,3.78125 -1.4375,1.578125 -3.40625,2.375 -1.95313,0.796875 -4.46875,0.796875 -2.45313,0 -4.46875,-0.8125 -2,-0.8125 -3.40625,-2.359375 -1.40625,-1.546875 -2.17188,-3.796875 -0.75,-2.25 -0.75,-5.140625 0,-2.84375 0.75,-5.09375 0.75,-2.265625 2.1875,-3.875 1.375,-1.53125 3.40625,-2.34375 2.04688,-0.8125 4.45313,-0.8125 2.5,0 4.48437,0.828125 2,0.8125 3.39063,2.328125 z m -0.28125,8.96875 q 0,-4.53125 -2.03125,-6.984375 -2.03125,-2.46875 -5.54688,-2.46875 -3.54687,0 -5.57812,2.46875 -2.01563,2.453125 -2.01563,6.984375 0,4.578125 2.0625,7.015625 2.0625,2.421875 5.53125,2.421875 3.46875,0 5.51563,-2.421875 2.0625,-2.4375 2.0625,-7.015625 z"
       id="path309" />
    <path
       d="M 465.63562,-23.265625 459.58875,0 h -3.48438 L 451.21375,-19.3125 446.4325,0 h -3.40625 L 436.87,-23.265625 h 3.17187 l 4.89063,19.34375 4.8125,-19.34375 h 3.14062 l 4.85938,19.53125 4.85937,-19.53125 z"
       id="path311" />
    <path
       d="m 489.35062,0 h -15.32813 v -23.265625 h 15.32813 v 2.75 h -12.23438 v 6.375 h 12.23438 v 2.75 H 477.11624 V -2.75 h 12.23438 z"
       id="path313" />
    <path
       d="M 531.54623,-23.265625 523.07748,0 h -4.125 l -8.46875,-23.265625 h 3.3125 l 7.29688,20.46875 7.29687,-20.46875 z"
       id="path315" />
    <path
       d="m 554.05811,0 h -15.75 v -3.265625 q 1.64062,-1.40625 3.28125,-2.8125 1.65625,-1.40625 3.07812,-2.796875 3,-2.90625 4.10938,-4.609375 1.10937,-1.71875 1.10937,-3.703125 0,-1.8125 -1.20312,-2.828125 -1.1875,-1.03125 -3.32813,-1.03125 -1.42187,0 -3.07812,0.5 -1.65625,0.5 -3.23438,1.53125 h -0.15625 v -3.28125 q 1.10938,-0.546875 2.95313,-1 1.85937,-0.453125 3.59375,-0.453125 3.57812,0 5.60937,1.734375 2.03125,1.71875 2.03125,4.671875 0,1.328125 -0.34375,2.484375 -0.32812,1.140625 -0.98437,2.171875 -0.60938,0.96875 -1.4375,1.90625 -0.8125,0.9375 -1.98438,2.078125 -1.67187,1.640625 -3.45312,3.1875 -1.78125,1.53125 -3.32813,2.84375 h 12.51563 z"
       id="path317" />
  </g>
</svg>
