<?xml version="1.0" encoding="UTF-8"?><svg id="a" xmlns="http://www.w3.org/2000/svg" viewBox="0 0 624.24 469.28"><defs><style>.b{fill:#fff;}.c{opacity:.9;}</style></defs><g><polygon class="b" points="369.7 246.9 371.62 241.56 368.46 243.74 369.56 246.9 369.7 246.9"/><path class="b" d="M244.58,69.73c-.06,.68-.23,1.36-.49,2.01,.26-.65,.42-1.32,.49-2.01Z"/><path class="b" d="M253.5,61.97h0c.26-.02,.52,0,.78,.02-.26-.03-.51-.04-.77-.02Z"/><path class="b" d="M333.32,239.55l.11-1.08c-.21,.1-.4,.2-.62,.29l.5,.79Z"/><path class="b" d="M232.32,63.98c-.08,.08-.15,.17-.23,.26,.08-.09,.15-.18,.24-.26h0Z"/><path class="b" d="M345.17,128.4c-3.46,.48-6.4,1.85-8.73,3.86,2.33-2.01,5.27-3.38,8.73-3.86h0Z"/><path class="b" d="M322.43,224.45v11.17h3.88c2.6,0,4.49-.48,5.65-1.45s1.75-2.4,1.75-4.3-.63-3.32-1.89-4.16-3.16-1.26-5.7-1.26h-3.69Z"/><path class="b" d="M549.69,7.17h-83.89l37.48,54.35c.59,.32,1.15,.71,1.66,1.19h0c1.28,1.22,2.01,2.79,2.2,4.41l4.54,6.58v-12.96h1.11v14.5s0,.05,0,.08l25.33,36.73c18.47,2.88,27,18.97,27,36.42,0,.81-.04,1.68-.09,2.59l48,69.6V70.51c0-34.98-28.36-63.35-63.35-63.35Zm-23.9,68.04h-8.04v-14.46h7.89v.93h-6.77v5.78h6.59v.94h-6.59v5.87h6.92v.94Zm16.21-1.14c-1.57,.87-3.32,1.33-5.12,1.35-2.05,.07-4.03-.7-5.51-2.12-2.89-2.89-2.89-7.58,0-10.47h0s.07-.07,.1-.11c1.43-1.39,3.36-2.16,5.35-2.13,1.74,.03,3.46,.44,5.03,1.19h0l.06,.03s-.04-.02-.06-.03v1.21c-1.58-.9-3.35-1.4-5.16-1.45-1.69-.04-3.31,.63-4.49,1.84-1.21,1.21-1.87,2.87-1.81,4.58-.07,1.72,.59,3.39,1.81,4.61,1.24,1.2,2.92,1.85,4.65,1.79,1.81-.05,3.58-.55,5.14-1.45v1.16Zm14.25-12.39h-5.42v13.53h-1.13v-13.53h-5.44v-.93h11.99v.93Z"/><path class="b" d="M255.68,68.04c.24-.11,.48-.25,.71-.41,.5-.46,.82-1.04,.96-1.65-.14,.61-.46,1.19-.96,1.65-.22,.16-.46,.29-.71,.41Z"/><path class="b" d="M257.23,64.12c-.14-.4-.37-.78-.68-1.11-.04-.06-.1-.12-.16-.16,.06,.04,.12,.1,.16,.16,.31,.33,.53,.71,.68,1.11Z"/><polygon class="b" points="328.01 64.38 328.01 64.38 330.36 70.17 328.01 64.38"/><path class="b" d="M414.24,230.29c-.23-.62-.56-1.6-.97-2.94-.41-1.34-.7-2.32-.85-2.94-.42,1.92-1.04,4.01-1.85,6.28l-3.08,8.9h9.95l-3.2-9.3Z"/><path class="b" d="M205.22,142.07l-37.21,25.66-.35,.95,86.27-59.5h-25.02v-17.11h49.83l14.45-9.96-1.06,9.96h9.15v14.83l-12.25,14.25-4.53,42.52h16.78v17.11h-18.6l-4.44,41.7c2.67-2.18,6.18-3.29,10.57-3.29,5.08,0,9,1.53,11.77,4.6,2.77,3.07,4.16,7.39,4.16,12.96s-1.39,9.88-4.17,12.96c-2.78,3.08-6.72,4.62-11.81,4.62s-9.11-1.53-11.88-4.59c-.5-.56-.94-1.17-1.35-1.81l-3.14,29.48h144.45l39.89-27.51-14.35-23.25h-.19l.12,1.52c.22,2.9,.33,5.54,.33,7.94v17.75h-5.07v-34.15h6.77l16.75,27.07h.14c-.03-.36-.09-1.66-.19-3.91s-.14-4.01-.14-5.27v-17.89h5.12v23.78l20.01-13.8v-5.19h-10.04v-4.79h10.45l-26.51-38.44h-.9l-71.65,49.41v23.18h-5.37v-16.89c0-.76,.01-1.64,.03-2.6l-4.12,2.84-6,16.65h-4.93l-2.55-7.35-7.14,4.92v2.43h-3.52l-23.69,16.34,2.39-22.46-4.51-7.53h-5.51v13.64h-5.58v-34.15h9.65c3.75,0,6.66,.6,8.75,1.8l4.27-40.1c-16.66-3.53-28.23-17.41-28.23-34.23v-.25c0-19.14,15.12-34.74,35.67-35.33l3.77-35.4h-1.97v-16.03h3.68l3.21-30.09-15.81-22.93h-35.18L174.22,97.12l31,44.95Zm204.19,77.52h6.07l12.78,34.29h-5.93l-3.41-9.48h-13.06l-3.34,9.48h-5.89l12.78-34.29ZM339.87,60.19h4.82v16.03h-4.82v-16.03Zm-14.55,0h5.41l7,16.03h-4.94l-1.32-3.25h-6.96l-1.33,3.25h-4.94l7.09-16.03Zm-27.88,0h4.38l4.93,6.01,4.94-6.01h4.39v16.03h-4.84v-9.29l-4.35,5.38h-.39l-4.37-5.38v9.29h-4.69v-16.03Zm-24.71,.74h1.06l12.24,14.12v-14.12h1.25v16.16h-1.03l-12.27-14.14v14.14h-1.25v-16.16Zm-11.57,0h8.81v1.04h-7.57v6.46h7.37v1.04h-7.37v6.56h7.76v1.05h-9v-16.16Zm-12.12,0h4.45c1.4-.09,2.78,.32,3.91,1.15,.11,.1,.22,.21,.32,.33,1.53,1.76,1.35,4.43-.41,5.96-1.16,.86-2.58,1.27-4.02,1.17h-3.09v7.52h-1.24l.07-16.13Zm-17.81,2.41l.16-.16c1.61-1.59,3.79-2.45,6.05-2.41v-.04c2.27-.06,4.46,.81,6.07,2.41,3.26,3.13,3.37,8.3,.24,11.56-.01,0-.03,.02-.04,.04l-.2,.2c-3.4,3.21-8.71,3.21-12.12,0-3.24-3.16-3.31-8.35-.16-11.59Z"/><path class="b" d="M288.75,249.58c3.32,0,5.82-1.08,7.51-3.22,1.69-2.15,2.53-5.35,2.53-9.6s-.84-7.37-2.51-9.53c-1.67-2.16-4.17-3.25-7.49-3.25s-5.88,1.08-7.58,3.25c-1.71,2.17-2.56,5.34-2.56,9.53s.85,7.39,2.55,9.57c1.7,2.17,4.21,3.26,7.54,3.26Z"/><polygon class="b" points="232.3 74.1 232.3 74.1 232.32 74.12 232.3 74.1 232.3 74.1"/><polygon class="b" points="267.73 320.96 267.6 322.23 281.18 341.93 323.29 341.93 353.69 320.96 267.73 320.96"/><polygon class="b" points="36.74 320.96 36.74 277.42 110.72 277.42 13.03 135.77 13.03 323.49 13.03 341.93 155.21 341.93 140.75 320.96 36.74 320.96"/><path class="b" d="M76.38,7.17c-34.98,0-63.35,28.36-63.35,63.35v40.84L164.11,7.17H76.38Z"/><polygon class="b" points="590.27 277.42 590.27 320.96 494.23 320.96 463.83 341.93 613.03 341.93 613.03 239.03 557.36 277.42 590.27 277.42"/><path class="b" d="M330.77,142.14c.16-.73,.35-1.45,.58-2.14-.23,.7-.43,1.41-.58,2.14Z"/><path class="b" d="M331.35,153.4c-.34-1.02-.61-2.07-.78-3.15,.18,1.08,.44,2.13,.78,3.15Z"/><path class="b" d="M330.3,146.69h0c0-1.56,.16-3.09,.47-4.55-.31,1.46-.47,2.99-.47,4.55Z"/><path class="b" d="M334.32,158.96c-1.28-1.65-2.29-3.54-2.97-5.57,.69,2.03,1.69,3.91,2.97,5.57Z"/><path class="b" d="M470.22,67.46c.36,.03,.71,0,1.06-.07-.35,.06-.7,.1-1.06,.07h0Z"/><path class="b" d="M473.15,62.56s.02,.03,.03,.04h0s-.02-.02-.03-.04l-.14-.16c-.76-.56-1.7-.84-2.64-.78h0c.95-.06,1.88,.22,2.64,.78l.14,.16Z"/><path class="b" d="M472.97,66.69c-.4,.28-.84,.5-1.31,.63,.47-.13,.91-.34,1.31-.63Z"/><path class="b" d="M472.97,66.69h0c.1-.09,.18-.19,.26-.29-.08,.1-.17,.2-.27,.29h0Z"/><path class="b" d="M393.21,66.74c.23-.17,.4-.39,.52-.64-.11,.25-.29,.47-.52,.64Z"/><g class="c"><path class="b" d="M564.87,153.53h-47.27c1.9,8.74,7.98,13.31,16.6,13.31,6.46,0,11.15-2.03,16.47-6.97l11.03,9.76c-6.34,7.86-15.46,12.67-27.75,12.67-20.4,0-35.48-14.32-35.48-35.1v-.25c0-19.39,13.81-35.36,33.58-35.36,2.14,0,4.16,.16,6.08,.46l-25.33-36.73c.1,1.14-.22,2.27-.9,3.19-.55,.59-1.33,.92-2.13,.92-.22,0-.44,0-.67,0l-.1-1.05c.21,.05,.43,.07,.65,.07,1.36,0,2.03-.96,2.03-2.9v-1.86l-4.54-6.58c.24,2.06-.4,4.22-1.95,5.84-.03,.03-.06,.06-.08,.09l-.18,.18c-3.05,2.88-7.81,2.88-10.86,0-2.9-2.82-2.97-7.46-.15-10.37h0l.14-.15c2.54-2.39,6.26-2.79,9.2-1.19L465.8,7.17h-125.97l15.81,22.93-3.21,30.09h.61l8.29,8.88v-8.88h4.81v16.03h-4.29l-8.32-8.93v8.93h-2.81l-3.77,35.4c.4-.01,.8-.03,1.21-.03,21.04,0,36.62,15.59,36.62,35.1v.25c0,19.52-15.71,35.36-36.88,35.36-2.91,0-5.72-.31-8.39-.88l-4.27,40.1c.37,.21,.72,.43,1.03,.68,2.12,1.65,3.18,4.14,3.18,7.47,0,4.04-2.02,6.96-6.02,8.8l-.11,1.08,9.15,14.33h-6.35l-3.67-6.12-2.39,22.46,23.69-16.34h-1.54v-34.15h7.87l8.38,24.01,3.16-2.18,7.85-21.83h7.9v10.97l71.65-49.41h-4.39l-13.05-41.69-13.31,41.69h-17.23l-20.91-68.43h19.52l10.9,41.19,12.8-41.44h16.6l12.93,41.57,11.15-41.31h19.14l-21.16,68.43h-12.07l26.51,38.44h15.22v4.79h-10.04v29.36h-5.58v-24.18l-20.01,13.8v10.37h-6.84l-2.45-3.97-39.89,27.51h140.54l55.67-38.4v-18.37l-48-69.6c-.05,.81-.11,1.64-.16,2.48ZM381.66,63.41h-6.65v3.1h6.65v3.22h-6.65v6.49h-4.83v-16.03h11.48v3.22Zm13.58,12.81l-1.26-2.9c-.34-.8-.75-1.57-1.25-2.28-.27-.4-.65-.72-1.08-.93-.44-.15-.9-.22-1.36-.2h-.54v6.26h-4.84v-15.99h8.22c1.14-.05,2.27,.23,3.26,.81,.79,.47,1.42,1.14,1.84,1.96,.35,.68,.54,1.44,.55,2.2,.03,.71-.13,1.42-.46,2.06-.24,.47-.58,.88-.99,1.22-.38,.27-.77,.51-1.17,.73,.49,.27,.92,.64,1.28,1.07,.56,.77,1.04,1.6,1.42,2.48l1.58,3.51h-5.19Zm20.03,0l-1.3-3.25h-6.96l-1.33,3.25h-4.96l7.09-16.03h5.35l7.06,16.03h-4.94Zm25.71,0h-4.82v-9.29l-4.37,5.38h-.37l-4.38-5.38v9.29h-4.69v-16.03h4.4l4.91,6.01,4.96-6.01h4.38v16.03Zm16.13,0h-12.09v-16.03h11.88v3.21h-7.04v2.93h6.73v3.23h-6.73v3.42h7.25v3.23Zm16.78-8.83c-1.04,.77-2.32,1.14-3.61,1.04h-2.75v6.77h-1.11v-14.47h3.99c1.25-.09,2.49,.28,3.49,1.03,.83,.69,1.28,1.73,1.22,2.8,.05,1.08-.4,2.12-1.22,2.83Zm14.66,7.81l-2.52-3.94c-.51-.93-1.17-1.77-1.96-2.48-.62-.36-1.34-.54-2.06-.49h-2v6.94h-1.11l.04-14.5h3.7c1.27-.09,2.53,.27,3.57,1.02,.82,.66,1.27,1.67,1.23,2.72,0,1.67-1.13,3.12-2.75,3.51,.8,.59,1.46,1.35,1.93,2.22l3.27,5h-1.34Z"/></g><path class="b" d="M389.75,67.13h1.03c.21,.01,.42,.02,.62,0-.21,0-.41,0-.62,0h-1.03Z"/><path class="b" d="M482.42,61.67c.45-.03,.9,.02,1.34,.12-.44-.1-.89-.15-1.34-.12h-2.36v0h2.36Z"/><polygon class="b" points="293.19 82.11 278.74 92.07 292.13 92.07 293.19 82.11"/><polygon class="b" points="165.09 129.13 132.99 151.27 139.33 91.78 132.6 82.02 84.99 114.85 92.76 126.11 123.85 104.66 117.51 164.15 124.24 173.91 172.85 140.38 165.09 129.13"/><polygon class="b" points="284.5 163.67 289.03 121.15 252.48 163.67 284.5 163.67"/><g class="c"><polygon class="b" points="267.73 320.96 140.75 320.96 155.21 341.93 281.18 341.93 267.6 322.23 267.73 320.96"/></g><g class="c"><polygon class="b" points="353.69 320.96 323.29 341.93 463.83 341.93 494.23 320.96 353.69 320.96"/></g><g class="c"><path class="b" d="M272.37,277.42l3.14-29.48c-1.85-2.89-2.79-6.62-2.79-11.23,0-5.64,1.39-9.97,4.17-12.99,.42-.45,.87-.86,1.34-1.24l4.44-41.7h-55.28v-14.83l48.79-56.77h-22.25l-86.27,59.5,.35-.95-53.7,37.03L51.62,113.86l90.91-62.69,31.69,45.95L304.65,7.17H164.11L13.03,111.35v24.42l97.69,141.65h161.65Zm-28.21-57.69h19.27v4.72h-13.73v10.67h12.87v4.74h-12.87v14.02h-5.54v-34.15Zm-42.25,0h6.77l16.75,27.07h.14c-.03-.36-.09-1.66-.19-3.91s-.14-4.01-.14-5.27v-17.89h5.12v34.15h-6.84l-16.79-27.21h-.19l.12,1.52c.22,2.9,.33,5.54,.33,7.94v17.75h-5.07v-34.15Zm-39.95,3.99c2.78-3.02,6.75-4.53,11.9-4.53s9,1.53,11.77,4.6c2.77,3.07,4.16,7.39,4.16,12.96s-1.39,9.88-4.17,12.96c-2.78,3.08-6.72,4.62-11.81,4.62s-9.11-1.53-11.88-4.59c-2.76-3.06-4.15-7.41-4.15-13.05s1.39-9.97,4.17-12.99Zm-37.32,3.76c1.3-2.66,3.18-4.7,5.64-6.12s5.35-2.13,8.67-2.13c3.49,0,6.71,.73,9.67,2.2l-2.01,4.65c-1.15-.54-2.37-1.02-3.66-1.44-1.29-.41-2.64-.62-4.05-.62-3.21,0-5.73,1.14-7.57,3.41-1.84,2.27-2.76,5.41-2.76,9.41s.88,7.36,2.65,9.51c1.77,2.15,4.33,3.22,7.67,3.22,1.45,0,2.85-.14,4.2-.43,1.36-.29,2.76-.66,4.23-1.11v4.79c-2.68,1.01-5.72,1.52-9.11,1.52-5,0-8.84-1.51-11.52-4.54-2.68-3.03-4.02-7.36-4.02-13,0-3.55,.65-6.66,1.95-9.32Z"/></g><g class="c"><path class="b" d="M173.81,249.58c3.32,0,5.82-1.08,7.51-3.22,1.69-2.15,2.53-5.35,2.53-9.6s-.84-7.37-2.51-9.53c-1.67-2.16-4.17-3.25-7.49-3.25s-5.88,1.08-7.58,3.25c-1.71,2.17-2.56,5.34-2.56,9.53s.85,7.39,2.55,9.57c1.7,2.17,4.21,3.26,7.54,3.26Z"/></g><path class="b" d="M347.91,128.19c3.33,0,6.32,.85,8.86,2.33-2.54-1.48-5.53-2.33-8.86-2.33-.95,0-1.86,.08-2.74,.21h0c.88-.12,1.79-.21,2.74-.21Z"/><path class="b" d="M494.93,63.43c-.06,.06-.12,.13-.18,.2,.06-.07,.11-.13,.18-.2h0Z"/><path class="b" d="M498.87,74.32c.21,.02,.42,.02,.64,.02h0c-.21,0-.43,0-.64-.02Z"/><path class="b" d="M382.34,225.41h-.19l-4.26,11.82,4.12-2.84c.02-1.19,.05-2.52,.1-4.03,.08-2.73,.16-4.38,.22-4.95Z"/><path class="b" d="M356.88,225.36c.26,4.24,.4,8.21,.4,11.91v14.18l7.14-4.92-7.35-21.17h-.19Z"/><path class="b" d="M13.03,463.07H613.03v-110.97H13.03v110.97Zm3.6-107.37H609.43v103.77H16.63v-103.77Z"/><path class="b" d="M393.46,64c-.1-.11-.21-.21-.34-.29-.55-.26-1.15-.42-1.75-.45-.2-.01-.41-.01-.61,0h-1.01v3.87h1.03c.21,.01,.42,.02,.62,0,.62-.03,1.23-.16,1.81-.4,.23-.17,.4-.39,.52-.64,.11-.25,.16-.53,.14-.81v-.05c.02-.15,.01-.3-.02-.45-.05-.29-.18-.57-.38-.79Z"/><path class="b" d="M485.58,62.75l-.33-.33c-.46-.3-.96-.51-1.49-.63-.44-.1-.89-.15-1.34-.12h-2.36v5.67h2.39c.99,.06,1.98-.2,2.81-.74,1.15-.97,1.29-2.69,.32-3.84Z"/><path class="b" d="M473.77,63.59c-.04-.13-.11-.25-.17-.37-.02-.05-.04-.1-.07-.14-.07-.12-.16-.22-.24-.33-.04-.05-.06-.1-.1-.14h0s-.02-.02-.03-.04l-.14-.16c-.76-.56-1.7-.84-2.64-.78l-2.83,.04v5.8h2.68c.36,.03,.71,0,1.06-.07,.13-.02,.26-.04,.38-.07,.47-.13,.91-.34,1.31-.63,.1-.09,.18-.19,.27-.29,.04-.05,.09-.09,.13-.14,.08-.11,.15-.24,.21-.36,.02-.04,.06-.08,.08-.13,.06-.14,.11-.28,.15-.43,0-.03,.03-.07,.04-.1,.03-.13,.05-.27,.06-.41,0-.05,.02-.09,.02-.14,0-.14,0-.28-.02-.42,0-.05,0-.09,0-.14-.02-.14-.06-.28-.1-.42-.01-.04-.02-.08-.03-.13Z"/><path class="b" d="M341.34,164.35l3.83-35.96c-3.46,.48-6.4,1.85-8.73,3.86-1.81,1.56-3.25,3.51-4.28,5.71-.31,.65-.57,1.33-.81,2.03-.23,.7-.43,1.41-.58,2.14-.31,1.46-.47,2.99-.47,4.56v.25c0,1.12,.09,2.23,.27,3.31s.44,2.13,.78,3.15c.69,2.03,1.69,3.91,2.97,5.57,1.82,2.35,4.2,4.22,7.02,5.39Z"/><g class="c"><path class="b" d="M345.17,128.4l-3.83,35.96c2.06,.86,4.35,1.35,6.83,1.35,11.03,0,17.61-8.49,17.61-18.5v-.25c0-.92-.07-1.83-.19-2.72-.33-2.41-1.08-4.71-2.2-6.77-.67-1.23-1.45-2.38-2.37-3.41-.07-.08-.12-.16-.19-.23-1.18-1.29-2.54-2.4-4.06-3.29-2.54-1.48-5.53-2.33-8.86-2.33-.95,0-1.86,.08-2.74,.21Z"/></g><polygon class="b" points="408.14 70.17 412.85 70.17 410.5 64.38 408.14 70.17"/><path class="b" d="M255.68,68.04c.24-.11,.48-.25,.71-.41,.5-.46,.82-1.04,.96-1.65,.05-.2,.08-.41,.08-.62,.02-.42-.05-.84-.19-1.24s-.37-.78-.68-1.11c-.04-.06-.1-.12-.16-.16-.62-.48-1.35-.77-2.12-.86-.26-.03-.51-.04-.78-.02h-3.21v6.52h3.02c.82,.05,1.63-.1,2.37-.45Z"/><g class="c"><path class="b" d="M527.86,127.63c-.86,.26-1.68,.59-2.45,1.01s-1.49,.9-2.16,1.46c-1.34,1.12-2.49,2.52-3.42,4.17-1.17,2.06-2,4.49-2.48,7.23h29.02c-.1-.75-.24-1.47-.4-2.17-.86-3.83-2.57-6.98-5.05-9.13-.09-.08-.19-.15-.29-.23-2.28-1.86-5.16-2.91-8.59-2.91-1.5,0-2.9,.2-4.19,.58Z"/></g><polygon class="b" points="330.36 70.17 328.01 64.38 325.64 70.17 330.36 70.17"/><path class="b" d="M231.81,73.55c.08,.1,.18,.2,.27,.3,.07,.08,.14,.17,.22,.24h0l.02,.02c1.43,1.37,3.27,2.06,5.11,2.06,.46,0,.92-.04,1.37-.13s.9-.21,1.34-.39c.43-.17,.86-.39,1.26-.64,.4-.26,.78-.56,1.14-.9,.35-.35,.65-.73,.91-1.13,.26-.4,.47-.82,.65-1.25,.26-.65,.42-1.32,.49-2.01,.02-.23,.03-.46,.03-.69,0-.46-.04-.92-.13-1.37-.04-.23-.1-.45-.16-.67-.13-.44-.3-.88-.52-1.29-.16-.31-.35-.62-.56-.91s-.44-.57-.7-.83c-.89-.86-1.95-1.45-3.06-1.77-1.34-.39-2.76-.39-4.1,0-1.11,.32-2.17,.91-3.06,1.77h0c-.08,.08-.16,.17-.24,.26-.09,.09-.18,.19-.26,.28-.07,.09-.13,.18-.2,.27-.08,.1-.16,.21-.23,.31-.06,.09-.11,.18-.16,.27-.07,.11-.14,.22-.2,.34-.05,.09-.08,.18-.13,.27-.06,.12-.12,.24-.17,.36-.04,.1-.07,.21-.11,.32-.04,.11-.08,.22-.12,.34-.03,.11-.05,.22-.08,.33-.03,.11-.06,.23-.08,.34-.02,.1-.03,.21-.05,.31-.02,.12-.04,.24-.05,.37-.01,.11-.01,.22-.02,.33,0,.12-.02,.24-.02,.35,0,.11,.01,.22,.01,.33,0,.12,0,.24,.02,.36,.01,.11,.03,.21,.05,.32,.02,.12,.03,.24,.05,.36,.02,.1,.05,.2,.07,.3,.03,.12,.05,.25,.09,.37,.03,.11,.08,.22,.11,.33,.04,.11,.07,.22,.11,.33,.04,.11,.1,.22,.15,.33,.05,.1,.09,.21,.14,.31,.05,.1,.11,.19,.17,.28,.06,.11,.12,.22,.19,.33,.07,.1,.15,.2,.22,.31,.07,.09,.13,.19,.2,.27Z"/><path class="b" d="M494.93,63.43c-.06,.06-.12,.13-.18,.2-.09,.1-.18,.19-.26,.29-.03,.04-.05,.08-.08,.11-.1,.13-.21,.27-.3,.4-.23,.34-.41,.7-.57,1.07,0,.01-.01,.03-.02,.04-.05,.11-.08,.23-.12,.34-.03,.08-.06,.16-.09,.25-.01,.05-.02,.1-.04,.15-.04,.15-.08,.3-.11,.45-.01,.05-.01,.11-.02,.16-.02,.15-.05,.3-.06,.45,0,.09,0,.17-.01,.26,0,.12-.02,.23-.02,.35s.01,.22,.02,.34c0,.09,0,.19,.01,.28,.01,.12,.03,.24,.05,.36,.01,.08,.02,.17,.04,.25,.03,.14,.06,.27,.1,.41,.02,.06,.03,.13,.05,.19,.02,.08,.06,.17,.09,.25,.04,.11,.07,.23,.12,.34,0,.01,.01,.03,.02,.04,.15,.37,.34,.73,.57,1.07,.04,.06,.09,.12,.14,.18,.08,.11,.16,.23,.25,.33,.02,.02,.04,.04,.05,.06,.12,.15,.25,.29,.39,.43,.15,.15,.31,.3,.47,.43,.49,.4,1.04,.73,1.63,.96s1.2,.38,1.84,.43c.21,.02,.43,.02,.64,.02h0c.43,.02,.85,0,1.27-.09,1.24-.23,2.4-.83,3.3-1.74,2.48-2.52,2.48-6.56,0-9.08-2.55-2.47-6.6-2.47-9.14,0Z"/><path class="b" d="M473.53,63.07s.04,.1,.07,.14"/><path class="b" d="M473.77,63.59s.02,.08,.03,.13"/><path class="b" d="M473.9,64.83s.02-.09,.02-.14"/><path class="b" d="M473.81,65.34s.03-.07,.04-.1"/><path class="b" d="M473.58,65.9s.06-.08,.08-.13"/><path class="b" d="M473.24,66.4s.09-.09,.13-.14"/><path class="b" d="M471.28,67.39c.13-.02,.26-.04,.38-.07"/><path class="b" d="M473.9,64.13s0,.09,0,.14"/><path class="b" d="M494.49,63.92c.08-.1,.17-.19,.26-.29"/><path class="b" d="M497.03,73.89c-.58-.23-1.13-.56-1.63-.96"/><path class="b" d="M493.05,67.96c0-.12,.01-.23,.02-.35"/><path class="b" d="M493.17,66.74c.03-.15,.07-.3,.11-.45"/><path class="b" d="M494.11,64.44c.09-.14,.19-.27,.3-.4"/><path class="b" d="M493.4,70.04c.04,.11,.07,.23,.12,.34"/><path class="b" d="M493.52,65.55s.01-.03,.02-.04"/><path class="b" d="M493.32,66.14c.02-.08,.06-.17,.09-.25"/><path class="b" d="M494.49,72.01c-.09-.11-.17-.22-.25-.33"/><path class="b" d="M493.13,68.94c.01,.08,.02,.17,.04,.25"/><path class="b" d="M493.27,69.6c.02,.06,.03,.13,.05,.19"/><path class="b" d="M493.07,68.3c0,.09,0,.19,.01,.28"/><path class="b" d="M493.08,67.35c.01-.15,.04-.3,.06-.45"/><path class="b" d="M393.12,63.71c-.55-.26-1.15-.42-1.75-.45"/><path class="b" d="M393.46,64c.2,.22,.33,.5,.38,.79"/><path class="b" d="M230.25,69.72c-.01-.12-.01-.24-.02-.36"/><path class="b" d="M230.34,70.4c-.02-.12-.03-.24-.05-.36"/><path class="b" d="M231.39,72.97c-.07-.11-.13-.22-.19-.33"/><path class="b" d="M244.32,67.01c-.13-.44-.3-.88-.52-1.29"/><path class="b" d="M243.8,65.71c-.16-.31-.35-.62-.56-.91"/><path class="b" d="M232.09,64.23c-.09,.09-.18,.19-.26,.28"/><path class="b" d="M231.03,72.36c-.05-.1-.1-.21-.14-.31"/><path class="b" d="M231.81,73.55c-.07-.09-.13-.18-.2-.27"/><path class="b" d="M244.48,67.68c.09,.45,.13,.91,.13,1.37"/><path class="b" d="M230.73,71.72c-.04-.11-.08-.22-.11-.33"/><path class="b" d="M230.51,71.07c-.04-.12-.06-.25-.09-.37"/><path class="b" d="M231.63,64.78c-.08,.1-.16,.21-.23,.31"/><path class="b" d="M230.23,68.68c0,.12-.02,.24-.02,.35"/><path class="b" d="M230.43,67.32c-.03,.11-.06,.23-.08,.34"/><path class="b" d="M230.3,67.98c-.02,.12-.04,.24-.05,.37"/><path class="b" d="M231.24,65.37c-.07,.11-.14,.22-.2,.34"/><path class="b" d="M230.91,65.98c-.06,.12-.12,.24-.17,.36"/><path class="b" d="M230.63,66.66c-.04,.11-.08,.22-.12,.34"/><path class="b" d="M360.84,133.81c.07,.07,.13,.16,.19,.23"/><path class="b" d="M114.92,288.12c-2.13,0-3.8,.51-5,1.53-1.21,1.02-1.81,2.42-1.81,4.2,0,.95,.18,1.77,.55,2.48,.37,.71,.86,1.33,1.47,1.86,.61,.53,1.54,1.09,2.77,1.67,1.31,.62,2.18,1.08,2.61,1.36s.75,.58,.97,.89c.22,.31,.33,.66,.33,1.05,0,.71-.25,1.24-.75,1.6-.5,.36-1.22,.54-2.15,.54-.78,0-1.64-.12-2.58-.37-.94-.25-2.09-.67-3.45-1.28v3.96c1.65,.81,3.55,1.21,5.7,1.21,2.33,0,4.15-.52,5.46-1.57s1.96-2.48,1.96-4.29c0-1.31-.35-2.42-1.05-3.32s-1.99-1.8-3.87-2.7c-1.42-.68-2.32-1.15-2.7-1.41-.38-.26-.66-.53-.83-.81s-.26-.61-.26-.98c0-.61,.22-1.1,.65-1.47,.43-.38,1.05-.56,1.86-.56,.68,0,1.37,.09,2.07,.26,.7,.17,1.59,.48,2.66,.92l.69-1.67-1.74-2.53c-.18-.05-.37-.12-.55-.17-.95-.25-1.95-.37-2.99-.37Z"/><path class="b" d="M120.9,289.53c-.84-.36-1.64-.64-2.43-.88l1.74,2.53,.68-1.65Z"/><path class="b" d="M145.22,300.7c0,1.56-.31,2.7-.94,3.43-.63,.73-1.64,1.09-3.03,1.09s-2.47-.36-3.1-1.09c-.62-.72-.94-1.86-.94-3.41v-12.32h-4.25v12.96c0,2.3,.72,4.12,2.15,5.44,1.43,1.33,3.44,1.99,6.03,1.99,1.72,0,3.2-.3,4.46-.89s2.22-1.45,2.88-2.57c.67-1.12,1-2.42,1-3.91v-13.02h-4.25v12.29Z"/><path class="b" d="M174.85,289.98c-1.27-1.05-3.13-1.58-5.57-1.58h-6.43v20.12h4.27v-7.16h1.83c2.5,0,4.42-.57,5.77-1.72,1.35-1.15,2.03-2.8,2.03-4.97s-.64-3.65-1.91-4.7Zm-3.38,7.12c-.65,.52-1.63,.78-2.95,.78h-1.4v-5.97h1.94c1.17,0,2.02,.24,2.57,.72,.55,.48,.82,1.22,.82,2.22s-.33,1.75-.98,2.26Z"/><path class="b" d="M201,289.98c-1.27-1.05-3.13-1.58-5.57-1.58h-6.43v20.12h4.27v-7.16h1.83c2.5,0,4.42-.57,5.77-1.72,1.35-1.15,2.03-2.8,2.03-4.97s-.64-3.65-1.91-4.7Zm-3.38,7.12c-.65,.52-1.63,.78-2.95,.78h-1.4v-5.97h1.94c1.17,0,2.02,.24,2.57,.72,.55,.48,.82,1.22,.82,2.22s-.33,1.75-.98,2.26Z"/><path class="b" d="M223.88,288.09c-3.09,0-5.47,.88-7.12,2.65-1.66,1.77-2.48,4.32-2.48,7.67s.83,5.92,2.48,7.71,4.02,2.68,7.1,2.68,5.45-.89,7.1-2.68,2.48-4.35,2.48-7.68-.82-5.9-2.46-7.68c-1.64-1.78-4-2.67-7.09-2.67Zm-.03,17.13c-1.7,0-2.97-.57-3.83-1.71s-1.28-2.83-1.28-5.08,.43-3.94,1.29-5.08,2.14-1.71,3.84-1.71c3.39,0,5.08,2.27,5.08,6.8s-1.7,6.79-5.11,6.79Z"/><path class="b" d="M258.97,297.59c.65-.92,.98-1.97,.98-3.16,0-2.03-.66-3.54-1.97-4.53-1.31-1-3.33-1.49-6.07-1.49h-5.86v20.12h4.27v-7.72h2.27l4.8,7.72h4.73c-.92-1.32-2.89-4.24-5.92-8.77,1.19-.52,2.12-1.25,2.77-2.17Zm-4.29-.93c-.64,.45-1.64,.67-2.99,.67h-1.38v-5.44h1.29c1.38,0,2.39,.2,3.05,.61,.66,.4,.98,1.08,.98,2.04s-.32,1.67-.96,2.12Z"/><polygon class="b" points="271.15 291.96 276.61 291.96 276.61 308.53 280.88 308.53 280.88 291.96 286.34 291.96 286.34 288.4 271.2 288.4 271.15 288.93 271.15 291.96"/><polygon class="b" points="271.15 288.93 271.2 288.4 271.15 288.4 271.15 288.93"/><path class="b" d="M317.94,301.37h1.83c2.5,0,4.42-.57,5.77-1.72,1.35-1.15,2.03-2.8,2.03-4.97s-.64-3.65-1.91-4.7c-1.27-1.05-3.13-1.58-5.57-1.58h-6.43v20.12h4.27v-7.16Zm0-9.47h1.94c1.17,0,2.02,.24,2.57,.72,.55,.48,.82,1.22,.82,2.22s-.33,1.75-.98,2.26-1.63,.78-2.95,.78h-1.4v-5.97Z"/><path class="b" d="M344.09,300.81h2.27l4.8,7.72h4.73c-.92-1.32-2.89-4.24-5.92-8.77,1.19-.52,2.12-1.25,2.77-2.17,.65-.92,.98-1.97,.98-3.16,0-2.03-.66-3.54-1.97-4.53-1.31-1-3.33-1.49-6.07-1.49h-5.86v20.12h4.27v-7.72Zm0-8.9h1.29c1.38,0,2.39,.2,3.05,.61,.66,.4,.98,1.08,.98,2.04s-.32,1.67-.96,2.12c-.64,.45-1.64,.67-2.99,.67h-1.38v-5.44Z"/><path class="b" d="M375.57,305.22c-1.7,0-2.97-.57-3.83-1.71s-1.28-2.83-1.28-5.08,.43-3.94,1.29-5.08,2.14-1.71,3.84-1.71c3.39,0,5.08,2.27,5.08,6.8,0,1.97-.34,3.48-.99,4.59l5.43-3.75c.01-.28,.03-.56,.03-.85,0-3.34-.82-5.9-2.46-7.68-1.64-1.78-4-2.67-7.09-2.67s-5.47,.88-7.12,2.65c-1.66,1.77-2.48,4.32-2.48,7.67s.83,5.92,2.48,7.71c.95,1.03,2.15,1.75,3.57,2.19l4.61-3.18c-.34,.06-.7,.1-1.08,.1Z"/><path class="b" d="M382.67,306.12c1.51-1.63,2.32-3.92,2.45-6.83l-5.43,3.75c-.67,1.16-1.67,1.87-3.04,2.1l-4.61,3.18c1.05,.32,2.22,.49,3.53,.49,3.08,0,5.45-.89,7.1-2.68Z"/><polygon class="b" points="399.55 288.4 395.24 288.4 396.31 291.57 399.79 289.17 399.55 288.4"/><path class="b" d="M406.72,308.53l6.84-20.12h-4.31l-3.81,11.97c-.59,2.11-.93,3.59-1.03,4.43-.06-.37-.2-1.02-.42-1.96s-.44-1.76-.65-2.47l-3.54-11.21-3.48,2.4,5.75,16.96h4.65Z"/><rect class="b" x="424.55" y="288.4" width="4.27" height="20.12"/><path class="b" d="M456.2,305.88c1.89-1.76,2.83-4.3,2.83-7.61,0-3.11-.91-5.53-2.72-7.27s-4.37-2.6-7.65-2.6h-6.32v20.12h5.7c3.56,0,6.28-.88,8.17-2.64Zm-9.6-13.98h2.27c3.82,0,5.73,2.16,5.73,6.48s-2.06,6.62-6.17,6.62h-1.83v-13.1Z"/><polygon class="b" points="483.24 305 475.92 305 475.92 299.81 482.73 299.81 482.73 296.32 475.92 296.32 475.92 291.9 483.24 291.9 483.24 288.4 471.65 288.4 471.65 308.53 483.24 308.53 483.24 305"/><path class="b" d="M500.16,300.81h2.27l4.8,7.72h4.73c-.92-1.32-2.89-4.24-5.92-8.77,1.19-.52,2.12-1.25,2.77-2.17,.65-.92,.98-1.97,.98-3.16,0-2.03-.66-3.54-1.97-4.53-1.31-1-3.33-1.49-6.07-1.49h-5.86v20.12h4.27v-7.72Zm0-8.9h1.29c1.38,0,2.39,.2,3.05,.61,.66,.4,.98,1.08,.98,2.04s-.32,1.67-.96,2.12c-.64,.45-1.64,.67-2.99,.67h-1.38v-5.44Z"/></g><g><path class="b" d="M61.32,399.03c-1.82,0-3.23,.69-4.23,2.05-1,1.37-1.5,3.28-1.5,5.73,0,5.09,1.91,7.64,5.73,7.64,1.6,0,3.55-.4,5.83-1.2v4.06c-1.88,.78-3.97,1.17-6.28,1.17-3.32,0-5.87-1.01-7.62-3.02-1.76-2.02-2.64-4.91-2.64-8.68,0-2.38,.43-4.46,1.3-6.24,.86-1.79,2.11-3.16,3.73-4.11,1.62-.95,3.52-1.43,5.7-1.43s4.45,.54,6.69,1.61l-1.56,3.94c-.85-.41-1.71-.76-2.58-1.06-.87-.3-1.71-.45-2.55-.45Z"/><path class="b" d="M96.62,406.71c0,3.78-.94,6.69-2.81,8.72s-4.56,3.05-8.06,3.05-6.19-1.02-8.06-3.05-2.81-4.95-2.81-8.75,.94-6.71,2.82-8.71c1.88-2,4.58-3.01,8.09-3.01s6.2,1.01,8.05,3.03c1.86,2.02,2.79,4.93,2.79,8.72Zm-16.67,0c0,2.55,.48,4.47,1.45,5.77,.97,1.29,2.42,1.94,4.34,1.94,3.86,0,5.8-2.57,5.8-7.7s-1.92-7.72-5.77-7.72c-1.93,0-3.38,.65-4.36,1.95-.98,1.3-1.47,3.22-1.47,5.77Z"/><path class="b" d="M114.9,418.17l-5.5-17.92h-.14c.2,3.65,.3,6.08,.3,7.3v10.62h-4.33v-22.84h6.59l5.41,17.47h.09l5.73-17.47h6.59v22.84h-4.52v-10.81c0-.51,0-1.1,.02-1.77,.02-.67,.09-2.44,.21-5.31h-.14l-5.89,17.89h-4.44Z"/><path class="b" d="M155.05,402.45c0,2.46-.77,4.34-2.3,5.64-1.54,1.3-3.72,1.95-6.55,1.95h-2.08v8.12h-4.84v-22.84h7.3c2.77,0,4.88,.6,6.32,1.79,1.44,1.19,2.16,2.97,2.16,5.34Zm-10.94,3.62h1.59c1.49,0,2.6-.29,3.34-.88,.74-.59,1.11-1.45,1.11-2.57s-.31-1.97-.93-2.52c-.62-.54-1.59-.81-2.91-.81h-2.2v6.78Z"/><path class="b" d="M168.08,409.4v8.77h-4.84v-22.84h6.66c3.1,0,5.4,.57,6.89,1.7,1.49,1.13,2.23,2.85,2.23,5.15,0,1.34-.37,2.54-1.11,3.59-.74,1.05-1.79,1.87-3.14,2.46,3.44,5.14,5.68,8.45,6.72,9.95h-5.38l-5.45-8.77h-2.58Zm0-3.94h1.56c1.53,0,2.66-.25,3.39-.77,.73-.51,1.09-1.31,1.09-2.41s-.37-1.85-1.12-2.31c-.75-.46-1.9-.69-3.46-.69h-1.47v6.17Z"/><path class="b" d="M201.39,418.17h-13.16v-22.84h13.16v3.97h-8.31v5.02h7.73v3.97h-7.73v5.89h8.31v4Z"/><path class="b" d="M228.74,418.17h-4.83v-9.86h-9.05v9.86h-4.84v-22.84h4.84v8.95h9.05v-8.95h4.83v22.84Z"/><path class="b" d="M251.54,418.17h-13.16v-22.84h13.16v3.97h-8.31v5.02h7.73v3.97h-7.73v5.89h8.31v4Z"/><path class="b" d="M280.44,418.17h-6.16l-9.94-17.28h-.14c.2,3.05,.3,5.23,.3,6.53v10.75h-4.33v-22.84h6.11l9.92,17.11h.11c-.16-2.97-.23-5.07-.23-6.3v-10.81h4.36v22.84Z"/><path class="b" d="M303.55,411.82c0,2.06-.74,3.69-2.23,4.88s-3.55,1.78-6.2,1.78c-2.44,0-4.59-.46-6.47-1.38v-4.5c1.54,.69,2.85,1.17,3.91,1.45,1.07,.28,2.04,.42,2.93,.42,1.06,0,1.88-.2,2.45-.61,.57-.41,.85-1.01,.85-1.81,0-.45-.12-.85-.38-1.2-.25-.35-.62-.68-1.1-1.01-.48-.32-1.47-.84-2.96-1.55-1.4-.66-2.44-1.29-3.14-1.89-.7-.6-1.26-1.31-1.67-2.11-.42-.8-.62-1.74-.62-2.81,0-2.02,.68-3.61,2.05-4.77,1.37-1.16,3.26-1.73,5.68-1.73,1.19,0,2.32,.14,3.4,.42s2.21,.68,3.38,1.19l-1.56,3.77c-1.22-.5-2.23-.85-3.02-1.05-.8-.2-1.58-.3-2.35-.3-.92,0-1.62,.21-2.11,.64-.49,.43-.73,.98-.73,1.67,0,.43,.1,.8,.3,1.12,.2,.32,.51,.62,.95,.92,.43,.3,1.46,.83,3.07,1.6,2.13,1.02,3.6,2.04,4.39,3.07,.79,1.03,1.19,2.28,1.19,3.77Z"/><path class="b" d="M311.56,418.17v-22.84h4.84v22.84h-4.84Z"/><path class="b" d="M339.06,395.32h4.89l-7.77,22.84h-5.28l-7.75-22.84h4.89l4.3,13.59c.24,.8,.49,1.74,.74,2.8,.25,1.07,.41,1.81,.48,2.23,.11-.96,.5-2.63,1.17-5.03l4.33-13.59Z"/><path class="b" d="M363.85,418.17h-13.16v-22.84h13.16v3.97h-8.31v5.02h7.73v3.97h-7.73v5.89h8.31v4Z"/><path class="b" d="M382.75,411.54v-3.91h8.39v3.91h-8.39Z"/><path class="b" d="M425.92,418.17h-17v-3.14l10.95-15.7h-10.66v-4h16.41v3.12l-10.94,15.72h11.23v4Z"/><path class="b" d="M454.16,406.71c0,3.78-.94,6.69-2.81,8.72s-4.56,3.05-8.06,3.05-6.19-1.02-8.06-3.05-2.81-4.95-2.81-8.75,.94-6.71,2.82-8.71c1.88-2,4.58-3.01,8.09-3.01s6.2,1.01,8.05,3.03c1.86,2.02,2.79,4.93,2.79,8.72Zm-16.67,0c0,2.55,.48,4.47,1.45,5.77,.97,1.29,2.42,1.94,4.34,1.94,3.86,0,5.8-2.57,5.8-7.7s-1.92-7.72-5.77-7.72c-1.93,0-3.38,.65-4.36,1.95-.98,1.3-1.47,3.22-1.47,5.77Z"/><path class="b" d="M485.02,418.17h-5.52l-3.09-12c-.12-.43-.31-1.31-.59-2.65-.28-1.34-.44-2.24-.48-2.7-.06,.56-.22,1.47-.47,2.71-.25,1.25-.44,2.13-.58,2.66l-3.08,11.97h-5.5l-5.83-22.84h4.77l2.92,12.47c.51,2.3,.88,4.3,1.11,5.98,.06-.59,.21-1.51,.43-2.76,.22-1.24,.43-2.21,.63-2.9l3.33-12.8h4.58l3.33,12.8c.15,.57,.33,1.45,.55,2.62,.22,1.18,.38,2.19,.5,3.03,.1-.81,.27-1.83,.5-3.04,.23-1.21,.44-2.2,.62-2.95l2.91-12.47h4.77l-5.81,22.84Z"/><path class="b" d="M510.74,418.17h-13.16v-22.84h13.16v3.97h-8.31v5.02h7.73v3.97h-7.73v5.89h8.31v4Z"/><path class="b" d="M544.59,395.32h4.89l-7.77,22.84h-5.28l-7.75-22.84h4.89l4.3,13.59c.24,.8,.49,1.74,.74,2.8,.25,1.07,.41,1.81,.48,2.23,.11-.96,.5-2.63,1.17-5.03l4.33-13.59Z"/><path class="b" d="M570.6,418.17h-15.97v-3.36l5.73-5.8c1.7-1.74,2.81-2.95,3.33-3.62,.52-.67,.9-1.29,1.12-1.87,.23-.57,.34-1.17,.34-1.78,0-.92-.25-1.6-.76-2.05-.51-.45-1.18-.67-2.02-.67-.89,0-1.75,.2-2.58,.61-.83,.41-1.7,.98-2.61,1.73l-2.62-3.11c1.12-.96,2.06-1.63,2.8-2.03,.74-.4,1.55-.7,2.42-.91,.88-.21,1.85-.32,2.94-.32,1.43,0,2.69,.26,3.78,.78,1.09,.52,1.94,1.25,2.55,2.19,.6,.94,.91,2.01,.91,3.22,0,1.05-.19,2.04-.55,2.96-.37,.92-.94,1.87-1.72,2.84-.78,.97-2.14,2.35-4.1,4.14l-2.94,2.77v.22h9.95v4.06Z"/></g></svg>