<svg id="Layer_1" data-name="Layer 1" xmlns="http://www.w3.org/2000/svg" xmlns:xlink="http://www.w3.org/1999/xlink" viewBox="0 0 624.23506 359.26909"><defs><style>.cls-1{fill:none;}.cls-2{fill:#488eff;}.cls-3{clip-path:url(#clip-path);}.cls-4{opacity:0.9;}.cls-5{fill:#3274f9;}.cls-6{fill:#fff;}.cls-7{opacity:0.58;}</style><clipPath id="clip-path"><path class="cls-1" d="M75.08134,13.3774H548.39027a63.34554,63.34554,0,0,1,63.34552,63.34553V348.14164h-600V76.72293A63.34553,63.34553,0,0,1,75.08132,13.3774Z"/></clipPath></defs><path class="cls-2" d="M611.73579,348.14164h-600V76.72293A63.34553,63.34553,0,0,1,75.08132,13.3774h473.309a63.34554,63.34554,0,0,1,63.34552,63.34553"/><g class="cls-3"><g class="cls-4"><path class="cls-5" d="M367.26463-127.6226.32319,125.436,253.38176,492.3774,620.32319,239.31883ZM266.2986,328.44475,291.88966,88.31882,166.36079,174.889l13.9624-37.51161-45.2933-7.91884L327.19273-3.06533,354.3462,36.308l-25.589,240.12455,129.5664-89.35461,31.33231,45.43249L293.45347,367.82Z"/></g></g><polygon class="cls-6" points="154.104 116.59 154.106 116.591 154.105 116.59 154.104 116.59"/><path class="cls-1" d="M391.91136,72.95147a1.61834,1.61834,0,0,0,.65225-1.44775V71.4574a1.6215,1.6215,0,0,0-.74008-1.5356,4.731,4.731,0,0,0-2.36365-.44867h-1.013v3.87149h1.0315A5.41649,5.41649,0,0,0,391.91136,72.95147Z"/><path class="cls-1" d="M483.96382,72.80349a2.72575,2.72575,0,0,0,.31912-3.83913l-.333-.333a4.63383,4.63383,0,0,0-2.82617-.754h-2.36355v5.66622h2.39135A4.66026,4.66026,0,0,0,483.96382,72.80349Z"/><path class="cls-1" d="M471.67119,72.90524a2.89729,2.89729,0,0,0,.20944-4.09206v0l-.00134-.00148a.26155.26155,0,0,1-.03241-.037l-.14341-.15728a4.01272,4.01272,0,0,0-2.64114-.78166l-2.82611.04159v5.79575h2.68271A4.20062,4.20062,0,0,0,471.67119,72.90524Z"/><path class="cls-1" d="M346.61287,134.401c-11.02579,0-17.61566,8.49087-17.61566,18.50256v.253c0,10.01167,7.22378,18.75625,17.86938,18.75625,11.02506,0,17.61493-8.49087,17.61493-18.50255v-.2537C364.48149,143.1452,357.25773,134.401,346.61287,134.401Z"/><polygon class="cls-1" points="409.201 70.589 406.837 76.385 411.551 76.385 409.201 70.589"/><path class="cls-1" d="M255.08325,73.84834a3.273,3.273,0,0,0,.17577-4.62082.67407.67407,0,0,0-.1619-.1619,4.32064,4.32064,0,0,0-2.89552-.88344h-3.2054v6.52191H252.012A4.83819,4.83819,0,0,0,255.08325,73.84834Z"/><path class="cls-1" d="M530.75148,133.2604c-7.98419,0-13.17975,5.70263-14.70056,14.44721h29.02093C543.93123,139.08988,538.8622,133.2604,530.75148,133.2604Z"/><polygon class="cls-1" points="326.713 70.589 324.34 76.385 329.063 76.385 326.713 70.589"/><path class="cls-1" d="M231.02487,80.32768a7.36938,7.36938,0,0,0,10.21764,0,7.24578,7.24578,0,0,0,0-10.14359,7.37219,7.37219,0,0,0-10.21764,0,7.15509,7.15509,0,0,0-.02475,10.11878l.00627.00627Z"/><path class="cls-1" d="M502.77546,78.72034a6.46629,6.46629,0,0,0,0-9.07511,6.56,6.56,0,0,0-9.14456,0,6.407,6.407,0,0,0-.00052,9.06073l.00052.00049a6.25563,6.25563,0,0,0,4.57929,1.84095v.01387A6.20625,6.20625,0,0,0,502.77546,78.72034Z"/><path class="cls-6" d="M466.23634,74.6444h2.75214a5.38206,5.38206,0,0,0,3.60785-1.04071,3.52066,3.52066,0,0,0,1.22113-2.82613,3.40663,3.40663,0,0,0-1.22113-2.79841,5.18585,5.18585,0,0,0-3.48761-1.03147h-3.98716V81.41606h1.11478Zm0-6.76706,2.82614-.0416a4.01289,4.01289,0,0,1,2.64112.78166l.1434.15728a.26107.26107,0,0,0,.03241.037,2.89727,2.89727,0,0,1-.20661,4.09216l-.00006.00005-.00146.00134a4.20048,4.20048,0,0,1-2.75217.76785H466.2364Z"/><path class="cls-6" d="M478.71852,74.501h1.9982a3.6483,3.6483,0,0,1,2.05832.49488,9.42029,9.42029,0,0,1,1.95651,2.47924l2.5209,3.94089h1.33674l-3.27482-5.00014a6.69458,6.69458,0,0,0-1.9288-2.2202,3.59372,3.59372,0,0,0,2.75211-3.5061,3.33955,3.33955,0,0,0-1.23035-2.72436,5.48666,5.48666,0,0,0-3.56622-1.01761h-3.69577l-.0416,14.49616h1.11472Zm.04163-6.6237h2.36355a4.6339,4.6339,0,0,1,2.82617.754l.333.333a2.72575,2.72575,0,0,1-.31912,3.83913,4.66026,4.66026,0,0,1-2.81229.74008h-2.39126Z"/><path class="cls-6" d="M503.645,79.44189l.17581-.185c.02777-.03238.05548-.06011.08326-.08784a7.2496,7.2496,0,0,0-.25812-10.24918L503.645,68.919a7.91223,7.91223,0,0,0-10.85589,0l-.14338.148-.00924.00464a7.33877,7.33877,0,0,0,.15259,10.37022A7.90594,7.90594,0,0,0,503.645,79.44189Zm-10.01407-.73544a6.407,6.407,0,0,1-.00052-9.06073l.00052-.00049a6.56,6.56,0,0,1,9.14456,0,6.46627,6.46627,0,0,1,0,9.07509,6.20618,6.20618,0,0,1-4.56533,1.84093V80.5474a6.25562,6.25562,0,0,1-4.5792-1.84095Z"/><path class="cls-6" d="M508.47218,85.63585a2.89936,2.89936,0,0,0,2.13239-.91584,4.69033,4.69033,0,0,0,.89737-3.2748V66.949h-1.11475V81.7644c0,1.94268-.666,2.90012-2.03052,2.90012a3.4752,3.4752,0,0,1-.65225-.074l.10181,1.04538Q508.13929,85.64966,508.47218,85.63585Z"/><polygon class="cls-6" points="524.487 80.474 517.563 80.474 517.563 74.604 524.154 74.604 524.154 73.66 517.563 73.66 517.563 67.878 524.33 67.878 524.33 66.949 516.444 66.949 516.444 81.413 524.487 81.413 524.487 80.474"/><path class="cls-6" d="M540.54878,67.9791v.00253c.01965.00941.04047.01572.06006.02523Z"/><path class="cls-6" d="M535.57637,81.61958a10.74687,10.74687,0,0,0,5.11578-1.35064V79.11257a10.927,10.927,0,0,1-5.14349,1.44776,6.38129,6.38129,0,0,1-4.6532-1.7854,6.13288,6.13288,0,0,1-1.81317-4.607,6.2085,6.2085,0,0,1,1.81317-4.57917,6.07642,6.07642,0,0,1,4.49127-1.84093,11.06828,11.06828,0,0,1,5.16205,1.44771V67.98163a12.15073,12.15073,0,0,0-5.02789-1.19125,7.54574,7.54574,0,0,0-5.35163,2.13233.53152.53152,0,0,1-.1018.10176l-.0044.00463h-.00024a7.40644,7.40644,0,0,0,.00464,10.472A7.58223,7.58223,0,0,0,535.57637,81.61958Z"/><polygon class="cls-6" points="548.388 81.413 549.521 81.413 549.521 67.878 554.942 67.878 554.942 66.949 542.953 66.949 542.953 67.878 548.388 67.878 548.388 81.413"/><polygon class="cls-6" points="314.787 82.429 314.787 66.401 310.393 66.401 305.453 72.415 300.527 66.401 296.146 66.401 296.146 82.429 300.841 82.429 300.841 73.14 305.208 78.516 305.596 78.516 309.944 73.14 309.944 82.429 314.787 82.429"/><path class="cls-6" d="M323.2072,79.18382h6.95669l1.31824,3.24709h4.94461L329.42851,66.3991h-5.40716l-7.09083,16.03181h4.94468Zm3.50619-8.59407,2.34979,5.79565h-4.72265Z"/><rect class="cls-6" x="338.57301" y="66.40227" width="4.82437" height="16.02716"/><polygon class="cls-6" points="352.24 73.501 360.557 82.429 364.849 82.429 364.849 66.401 360.034 66.401 360.034 75.282 351.745 66.401 347.457 66.401 347.457 82.429 352.24 82.429 352.24 73.501"/><polygon class="cls-6" points="373.707 75.936 380.358 75.936 380.358 72.721 373.707 72.721 373.707 69.617 380.358 69.617 380.358 66.398 368.878 66.398 368.878 82.429 373.707 82.429 373.707 75.936"/><path class="cls-6" d="M390.348,76.328a2.68934,2.68934,0,0,1,1.08237.92509,12.41763,12.41763,0,0,1,1.24884,2.28027l1.25812,2.89553h5.18976l-1.57727-3.506a12.79066,12.79066,0,0,0-1.42-2.47925,4.44886,4.44886,0,0,0-1.27661-1.07309,10.99621,10.99621,0,0,0,1.17484-.72621,3.75946,3.75946,0,0,0,.98523-1.21643,4.07664,4.07664,0,0,0,.46255-2.05832,5.06551,5.06551,0,0,0-.55047-2.20169,4.8675,4.8675,0,0,0-1.84092-1.95662,5.92521,5.92521,0,0,0-3.26092-.80944H383.604V82.3874h4.84286V76.12456h.53656A3.92672,3.92672,0,0,1,390.348,76.328Zm-1.90109-6.85489h1.013a4.73094,4.73094,0,0,1,2.36365.44868,1.62148,1.62148,0,0,1,.74008,1.53559v.04631a1.61835,1.61835,0,0,1-.65225,1.44776,5.41663,5.41663,0,0,1-2.433.39317h-1.0315Z"/><path class="cls-6" d="M405.70909,79.18382h6.95663l1.30436,3.24709h4.94461L411.85164,66.3991h-5.347l-7.08612,16.03181h4.9585Zm3.49222-8.59407L411.551,76.3854h-4.71329Z"/><polygon class="cls-6" points="425.737 73.14 430.118 78.516 430.492 78.516 434.859 73.14 434.859 82.429 439.683 82.429 439.683 66.401 435.307 66.401 430.349 72.415 425.437 66.401 421.042 66.401 421.042 82.429 425.737 82.429 425.737 73.14"/><polygon class="cls-6" points="455.815 79.196 448.567 79.196 448.567 75.777 455.293 75.777 455.293 72.544 448.567 72.544 448.567 69.616 455.612 69.616 455.612 66.401 443.729 66.401 443.729 82.429 455.815 82.429 455.815 79.196"/><path class="cls-6" d="M242.21382,81.13712l.20352-.19889a.14182.14182,0,0,1,.037-.037,8.17583,8.17583,0,0,0-.24052-11.559,8.30717,8.30717,0,0,0-6.07318-2.40522v.04163a8.34414,8.34414,0,0,0-6.0455,2.40523l-.15723.1619a8.2013,8.2013,0,0,0,.15723,11.59135A8.83812,8.83812,0,0,0,242.21382,81.13712Zm-11.189-10.953a7.37217,7.37217,0,0,1,10.21764,0,7.24577,7.24577,0,0,1,0,10.14358,7.36936,7.36936,0,0,1-10.21764,0l-.01848-.01852a7.15507,7.15507,0,0,1,.01221-10.11879h0l.00629-.00626Z"/><path class="cls-6" d="M248.92219,75.7494h3.08974a6.06391,6.06391,0,0,0,4.01494-1.17484,4.22661,4.22661,0,0,0,.08783-6.29063,5.99456,5.99456,0,0,0-3.91313-1.14712h-4.45426l-.06941,16.13358h1.24429Zm.074-7.56722h3.20541a4.32065,4.32065,0,0,1,2.89553.88344.67375.67375,0,0,1,.16191.1619,3.273,3.273,0,0,1-.17577,4.62081,4.83817,4.83817,0,0,1-3.07133.85573h-3.01577Z"/><polygon class="cls-6" points="268.869 82.255 261.112 82.255 261.112 75.691 268.48 75.691 268.48 74.646 261.112 74.646 261.112 68.184 268.679 68.184 268.679 67.139 259.868 67.139 259.868 83.3 268.869 83.3 268.869 82.255"/><polygon class="cls-6" points="272.683 69.164 284.955 83.3 285.986 83.3 285.986 67.139 284.737 67.139 284.737 81.255 272.493 67.139 271.435 67.139 271.435 83.3 272.683 83.3 272.683 69.164"/><polygon class="cls-6" points="227.613 115.391 274.883 115.391 226.092 172.166 226.092 186.993 299.976 186.993 299.976 169.885 251.185 169.885 299.976 113.11 299.976 98.283 227.613 98.283 227.613 115.391"/><path class="cls-6" d="M346.86656,117.79939c-21.16394,0-36.87863,15.84118-36.87863,35.35709v.25371c0,19.51668,15.58746,35.10411,36.62491,35.10411,21.16394,0,36.87787-15.84116,36.87787-35.35782v-.253C383.49077,133.38688,367.90327,117.79939,346.86656,117.79939Zm17.61493,35.61081c0,10.01168-6.58991,18.50255-17.61493,18.50255-10.6456,0-17.86938-8.74458-17.86938-18.75625v-.253c0-10.01167,6.5899-18.50255,17.61566-18.50255,10.64483,0,17.86865,8.74422,17.86865,18.75553Z"/><polygon class="cls-6" points="461.556 160.38 448.63 118.813 432.028 118.813 419.229 160.253 408.33 119.066 388.813 119.066 409.724 187.5 426.959 187.5 440.265 145.806 453.318 187.5 470.68 187.5 491.845 119.066 472.708 119.066 461.556 160.38"/><path class="cls-6" d="M563.82808,154.67732c0-19.26258-10.39185-36.87789-33.0766-36.87789-19.76966,0-33.58331,15.96766-33.58331,35.3571v.2537c0,20.78376,15.08074,35.10411,35.48431,35.10411,12.29285,0,21.41693-4.81611,27.75384-12.67308l-11.02581-9.758c-5.32282,4.9426-10.01166,6.97008-16.47437,6.97008-8.6181,0-14.70129-4.5624-16.60156-13.307h47.26977C563.70088,157.97261,563.82808,156.19812,563.82808,154.67732Zm-47.77719-6.96972c1.52081-8.74459,6.7164-14.44721,14.70053-14.44721,8.11065,0,13.17975,5.82949,14.32037,14.44721Z"/><path class="cls-6" d="M141.2285,57.3774,50.32319,120.0696l62.6922,90.9053,90.90531-62.69221ZM116.21538,170.36257l6.33989-59.48829L91.457,132.321,83.6952,121.06615l47.606-32.83119,6.727,9.75425-6.33936,59.488,32.09849-22.13653,7.76221,11.25537-48.60679,33.5213Z"/><path class="cls-6" d="M137.59516,230.23923a9.20124,9.20124,0,0,0-7.56836,3.41113q-2.75684,3.41016-2.75683,9.41308,0,6.28419,2.65136,9.50782,2.65137,3.22265,7.67383,3.22363a20.15564,20.15564,0,0,0,4.2041-.43262q2.03321-.43212,4.22852-1.10937V259.042a25.64876,25.64876,0,0,1-9.11035,1.51758q-7.49855,0-11.51563-4.543-4.01806-4.54248-4.01855-12.999a20.99657,20.99657,0,0,1,1.95117-9.32032,13.91307,13.91307,0,0,1,5.64062-6.12011,17.06679,17.06679,0,0,1,8.667-2.126,21.519,21.519,0,0,1,9.66992,2.19531l-2.00879,4.64844a30.10623,30.10623,0,0,0-3.65527-1.43652A13.19016,13.19016,0,0,0,137.59516,230.23923Z"/><path class="cls-6" d="M188.48969,242.97067q0,8.33935-4.16894,12.96387-4.17042,4.626-11.8086,4.625-7.73144,0-11.87793-4.58985-4.147-4.58936-4.14648-13.04589,0-8.45655,4.16992-12.98829,4.169-4.53075,11.90137-4.53125,7.61572,0,11.77344,4.60157Q188.48969,234.60837,188.48969,242.97067Zm-26.06836,0q0,6.30615,2.5459,9.56543,2.54591,3.25782,7.54492,3.25879,4.97609,0,7.51075-3.22363,2.53418-3.22413,2.53418-9.60059,0-6.28418-2.51172-9.53125-2.51074-3.24609-7.48633-3.24609-5.02295,0-7.58008,3.24609Q162.42133,236.687,162.42133,242.97067Z"/><path class="cls-6" d="M229.06,260.09274h-6.84472l-16.79492-27.21387h-.18653l.11621,1.51856q.32667,4.34472.32715,7.94238v17.75293h-5.06836V225.94137h6.77344l16.749,27.07325h.13965q-.04687-.53615-.18652-3.91211-.14062-3.375-.14063-5.26758V225.94137H229.06Z"/><path class="cls-6" d="M248.39692,260.09274h-5.53613V225.94137h19.2705v4.71875H248.39692v10.67481H261.267v4.74219H248.39692Z"/><path class="cls-6" d="M303.42622,242.97067q0,8.33935-4.16895,12.96387-4.17041,4.626-11.80859,4.625-7.73145,0-11.87793-4.58985-4.147-4.58936-4.14649-13.04589,0-8.45655,4.16992-12.98829,4.16895-4.53075,11.90137-4.53125,7.61572,0,11.77344,4.60157Q303.42621,234.60837,303.42622,242.97067Zm-26.06836,0q0,6.30615,2.54589,9.56543,2.54591,3.25782,7.54493,3.25879,4.97607,0,7.51074-3.22363,2.53417-3.22413,2.53418-9.60059,0-6.28418-2.51172-9.53125-2.51074-3.24609-7.48633-3.24609-5.02294,0-7.58008,3.24609Q277.35786,236.687,277.35786,242.97067Z"/><path class="cls-6" d="M321.12739,246.45114v13.6416h-5.582V225.94137h9.64648q6.61084,0,9.78809,2.47657,3.17577,2.47559,3.17675,7.47461,0,6.37645-6.63378,9.08691l9.64746,15.11328h-6.3545l-8.17578-13.6416Zm0-4.625h3.87793q3.90087,0,5.65332-1.44824a5.25583,5.25583,0,0,0,1.752-4.29883,4.62461,4.62461,0,0,0-1.89258-4.15723,10.37464,10.37464,0,0,0-5.69922-1.26172h-3.6914Z"/><path class="cls-6" d="M365.66938,260.09274l-9.9043-28.52148h-.1875q.397,6.35448.39746,11.91308v16.6084h-5.06836V225.94137h7.87207l9.4834,27.167h.13965l9.76465-27.167H386.062v34.15137h-5.373V243.20407q0-2.54591.12891-6.63379.12744-4.08838.22168-4.95215H380.853l-10.25488,28.47461Z"/><path class="cls-6" d="M421.02583,260.09274l-3.41016-9.4834H404.55708l-3.33985,9.4834h-5.88672l12.77735-34.291h6.07324l12.77734,34.291Zm-4.88184-14.2959L412.94379,236.5q-.35155-.93457-.96972-2.94336-.61964-2.00831-.85254-2.94336a52.44342,52.44342,0,0,1-1.8457,6.28418l-3.083,8.89941Z"/><path class="cls-6" d="M464.70356,260.09274h-6.84473l-16.79492-27.21387h-.18652l.11621,1.51856q.32665,4.34472.32715,7.94238v17.75293h-5.06836V225.94137h6.77344l16.749,27.07325h.13965q-.04687-.53615-.18653-3.91211-.14062-3.375-.14062-5.26758V225.94137h5.11621Z"/><path class="cls-6" d="M490.30024,260.09274h-5.583v-29.3623H474.67329v-4.78907h25.67187v4.78907H490.30024Z"/><g class="cls-7"><rect class="cls-6" x="35.43898" y="283.63619" width="553.53213" height="43.5348"/></g><path class="cls-5" d="M119.69477,309.15036a5.19956,5.19956,0,0,1-1.96094,4.29394,8.5212,8.5212,0,0,1-5.457,1.56934,12.81159,12.81159,0,0,1-5.69726-1.21094v-3.96387a23.513,23.513,0,0,0,3.44726,1.28028,10.22949,10.22949,0,0,0,2.58008.37109,3.67227,3.67227,0,0,0,2.1543-.53613,1.83749,1.83749,0,0,0,.75-1.59668,1.76557,1.76557,0,0,0-.33008-1.05273,3.69627,3.69627,0,0,0-.9707-.8877,25.07763,25.07763,0,0,0-2.60743-1.3623,12.32941,12.32941,0,0,1-2.7666-1.666,6.23845,6.23845,0,0,1-1.47265-1.85742,5.30167,5.30167,0,0,1-.55079-2.47754,5.20181,5.20181,0,0,1,1.80957-4.19727,7.52051,7.52051,0,0,1,5.00293-1.52734,11.79593,11.79593,0,0,1,2.99317.37109,20.60466,20.60466,0,0,1,2.97949,1.0459l-1.376,3.31641a20.17251,20.17251,0,0,0-2.66308-.92188,8.60029,8.60029,0,0,0-2.07129-.26172,2.74091,2.74091,0,0,0-1.85742.56446,1.86182,1.86182,0,0,0-.64746,1.47265,1.82735,1.82735,0,0,0,.26172.98438,2.85363,2.85363,0,0,0,.833.81152,25.53844,25.53844,0,0,0,2.7041,1.41113,10.76829,10.76829,0,0,1,3.86719,2.70411A5.27709,5.27709,0,0,1,119.69477,309.15036Z"/><path class="cls-5" d="M148.17426,294.61716v13.01953a7.505,7.505,0,0,1-.99707,3.9082,6.49875,6.49875,0,0,1-2.88379,2.57422,10.30572,10.30572,0,0,1-4.459.89453,8.53449,8.53449,0,0,1-6.02734-1.98926,7.0517,7.0517,0,0,1-2.14747-5.44238V294.61716h4.25293v12.31738a5.1578,5.1578,0,0,0,.93555,3.41308,3.88858,3.88858,0,0,0,3.09668,1.08789,3.802,3.802,0,0,0,3.03418-1.09472,5.18215,5.18215,0,0,0,.94336-3.4336v-12.29Z"/><path class="cls-5" d="M175.45747,300.89352a6.14813,6.14813,0,0,1-2.03028,4.96778,8.67843,8.67843,0,0,1-5.77344,1.7207h-1.83007v7.15625h-4.2666V294.61716h6.42675a8.55029,8.55029,0,0,1,5.56739,1.57617A5.74711,5.74711,0,0,1,175.45747,300.89352Zm-9.63379,3.19239H167.227a4.67337,4.67337,0,0,0,2.94531-.77735,2.72235,2.72235,0,0,0,.97754-2.26367,2.79014,2.79014,0,0,0-.81934-2.21582,3.83389,3.83389,0,0,0-2.5664-.71582h-1.94043Z"/><path class="cls-5" d="M201.61176,300.89352a6.14815,6.14815,0,0,1-2.03027,4.96778,8.67845,8.67845,0,0,1-5.77344,1.7207H191.978v7.15625h-4.2666V294.61716h6.42676a8.55024,8.55024,0,0,1,5.56738,1.57617A5.74708,5.74708,0,0,1,201.61176,300.89352Zm-9.63379,3.19239h1.40332a4.6734,4.6734,0,0,0,2.94532-.77735,2.72238,2.72238,0,0,0,.97754-2.26367,2.79014,2.79014,0,0,0-.81934-2.21582,3.83392,3.83392,0,0,0-2.56641-.71582H191.978Z"/><path class="cls-5" d="M232.12836,304.65036q0,4.99512-2.47753,7.67969-2.47706,2.68359-7.10059,2.68359-4.62452,0-7.10156-2.68359t-2.47754-7.707q0-5.02295,2.48437-7.67285,2.48438-2.64843,7.12207-2.64941,4.6377,0,7.09473,2.66992Q232.12885,299.64108,232.12836,304.65036Zm-14.68457,0a8.40193,8.40193,0,0,0,1.28028,5.07812,4.47828,4.47828,0,0,0,3.82617,1.707q5.105,0,5.10547-6.78515,0-6.79834-5.07813-6.79883a4.50724,4.50724,0,0,0-3.83984,1.71387A8.36959,8.36959,0,0,0,217.44379,304.65036Z"/><path class="cls-5" d="M249.02,307.01755v7.7207h-4.26661V294.61716h5.86329q4.10009,0,6.06835,1.49414a5.95069,5.95069,0,0,1,.99122,7.69238,6.461,6.461,0,0,1-2.76661,2.168q4.54248,6.78514,5.918,8.7666h-4.73437l-4.80274-7.7207Zm0-3.46778h1.376a5.26019,5.26019,0,0,0,2.98633-.6748,2.40626,2.40626,0,0,0,.96387-2.11914,2.20264,2.20264,0,0,0-.98438-2.03711,5.97594,5.97594,0,0,0-3.04883-.60547H249.02Z"/><path class="cls-5" d="M279.57758,314.73825H275.312V298.16794h-5.46387v-3.55078h15.19336v3.55078h-5.46387Z"/><path class="cls-5" d="M326.27094,300.89352a6.14815,6.14815,0,0,1-2.03027,4.96778,8.67845,8.67845,0,0,1-5.77344,1.7207h-1.83008v7.15625h-4.2666V294.61716h6.42676a8.55024,8.55024,0,0,1,5.56738,1.57617A5.74708,5.74708,0,0,1,326.27094,300.89352Zm-9.63379,3.19239h1.40332a4.6734,4.6734,0,0,0,2.94532-.77735,2.72238,2.72238,0,0,0,.97754-2.26367,2.79014,2.79014,0,0,0-.81934-2.21582,3.83392,3.83392,0,0,0-2.56641-.71582h-1.94043Z"/><path class="cls-5" d="M342.79145,307.01755v7.7207h-4.2666V294.61716h5.86328q4.1001,0,6.06836,1.49414a5.95066,5.95066,0,0,1,.99121,7.69238,6.46092,6.46092,0,0,1-2.7666,2.168q4.54248,6.78514,5.918,8.7666h-4.73438l-4.80273-7.7207Zm0-3.46778h1.376a5.26015,5.26015,0,0,0,2.98632-.6748,2.40626,2.40626,0,0,0,.96387-2.11914,2.20264,2.20264,0,0,0-.98437-2.03711,5.976,5.976,0,0,0-3.04883-.60547h-1.293Z"/><path class="cls-5" d="M383.85,304.65036q0,4.99512-2.47754,7.67969-2.477,2.68359-7.10058,2.68359-4.62451,0-7.10156-2.68359t-2.47754-7.707q0-5.02295,2.48437-7.67285,2.48438-2.64843,7.12207-2.64941,4.6377,0,7.09473,2.66992Q383.85053,299.64108,383.85,304.65036Zm-14.68457,0a8.40193,8.40193,0,0,0,1.28028,5.07812,4.47828,4.47828,0,0,0,3.82617,1.707q5.105,0,5.10547-6.78515,0-6.79834-5.07813-6.79883a4.50724,4.50724,0,0,0-3.83984,1.71387A8.36959,8.36959,0,0,0,369.16547,304.65036Z"/><path class="cls-5" d="M407.95356,294.61716h4.30762l-6.83985,20.12109H400.77l-6.82618-20.12109h4.30762l3.78418,11.97363q.31786,1.06054.6543,2.4707.33691,1.41064.41992,1.96094a35.08435,35.08435,0,0,1,1.03223-4.43164Z"/><path class="cls-5" d="M423.24848,314.73825V294.61716h4.2666v20.12109Z"/><path class="cls-5" d="M457.729,304.48532q0,4.96875-2.82812,7.61035-2.82716,2.64258-8.168,2.64258h-5.69727V294.61716H447.353q4.92627,0,7.65137,2.60156A9.56894,9.56894,0,0,1,457.729,304.48532Zm-4.43066.11035q0-6.48193-5.72559-6.48242h-2.27051v13.10156h1.83008Q453.29779,311.21481,453.29829,304.59567Z"/><path class="cls-5" d="M481.94282,314.73825H470.35493V294.61716h11.58789v3.49609h-7.32129v4.418h6.8125v3.49511h-6.8125v5.18848h7.32129Z"/><path class="cls-5" d="M498.86274,307.01755v7.7207h-4.2666V294.61716h5.86328q4.1001,0,6.06836,1.49414a5.95066,5.95066,0,0,1,.99121,7.69238,6.46092,6.46092,0,0,1-2.7666,2.168q4.54248,6.78514,5.918,8.7666H505.936l-4.80273-7.7207Zm0-3.46778h1.376a5.26015,5.26015,0,0,0,2.98632-.6748,2.40626,2.40626,0,0,0,.96387-2.11914,2.20264,2.20264,0,0,0-.98437-2.03711,5.976,5.976,0,0,0-3.04883-.60547h-1.293Z"/></svg>