<svg id="Layer_1" data-name="Layer 1" xmlns="http://www.w3.org/2000/svg" viewBox="0 0 413.70076 135.51739"><defs><style>.cls-1{fill:none;}.cls-2{fill:#fff;}</style></defs><polygon class="cls-1" points="274.634 32.248 278.132 32.248 276.391 27.909 274.634 32.248"/><path class="cls-1" d="M209.78546,73.60973c-5.20123,0-8.58545,3.715-9.57629,9.41162h18.9046C218.37085,77.40752,215.069,73.60973,209.78546,73.60973Z"/><path class="cls-1" d="M162.09558,30.36229a2.4271,2.4271,0,0,0,.01715-3.54974,3.27526,3.27526,0,0,0-2.1864-.65155h-2.34076v4.83575h2.22931A3.54356,3.54356,0,0,0,162.09558,30.36229Z"/><polygon class="cls-1" points="215.215 27.909 213.458 32.248 216.956 32.248 215.215 27.909"/><path class="cls-1" d="M322.7345,26.52092a2.93178,2.93178,0,0,0-1.95752-.58337l-2.09571-.00006V30.267h1.99585a3.17324,3.17324,0,0,0,2.04187-.56781,2.17272,2.17272,0,0,0,.01551-3.17823Z"/><path class="cls-1" d="M68.97845,12.48357l-.06451.00043a54.59871,54.59871,0,0,0,.0622,109.19739h.04541a54.66218,54.66218,0,0,0,54.5548-54.6341V67.01A54.66423,54.66423,0,0,0,68.97845,12.48357Zm.46784,89.07282h-.014c-2.67676-.01166-5.758-1.454-8.67767-4.062l.53-.59375c2.77466,2.47828,5.66906,3.84906,8.15,3.86h.01318c5.13367,0,11.2472-5.47327,15.57966-13.95081l.70874.36213C81.26935,95.91216,74.87677,101.55639,69.44629,101.55639Zm2.32513-11.46717a2.49109,2.49109,0,0,0-1.10583.3194,2.5651,2.5651,0,0,1-2.73706,0,2.49,2.49,0,0,0-1.10657-.3194A6.45539,6.45539,0,0,0,64.686,91.09246a.38622.38622,0,0,1-.42975.00543,6.67022,6.67022,0,0,0-.83307-.44293c-.4076-.19037-.72931-.3404-.715-.70484.0152-.36761.38739-.54864,1.00482-.781.48182-.56732,2.209-2.52057,3.3-2.70246a1.98056,1.98056,0,0,1,1.62805.52808c.54322.41187.76856.41187,1.31177,0a1.98532,1.98532,0,0,1,1.62726-.52808c1.08643.18073,2.80151,2.11652,3.29266,2.69391.56733.18494.9209.38233.94965.74994.03345.43207-.39868.64423-.94653.91229-.1756.08551-.36835.1803-.558.28675a.38792.38792,0,0,1-.41028-.01709A6.44344,6.44344,0,0,0,71.77142,90.08922ZM73.6629,92.161c-.19275.80041-1.64825,1.46954-4.32544,1.98865l-.06488.01324-.06488-.01324c-2.67755-.51911-4.13275-1.18824-4.32507-1.98865a.81844.81844,0,0,1,.33887-.84857,4.45076,4.45076,0,0,1,4.05108.05206,4.4467,4.4467,0,0,1,4.05152-.05206A.819.819,0,0,1,73.6629,92.161Zm39.89643-45.13959-9.54688.64655-4.85626,8.12628-.01007-.02484c-.95307,6.998-3.90949,15.38605-10.36756,24.70727.20783-9.26965-1.32226-10.2821-5.73217-13.97979,1.22644-2.20667,10.06677-9.00769,13.724-16.57837L96.526,49.3167a38.33491,38.33491,0,0,1-7.8894,9.43835l.08453.32215-.3017-.12616c-5.1455,4.73663-12.14605,10.07672-20.91748,17.20746,2.52808-3.50366,8.796-11.70807,9.956-19.19995l-5.27771,3.34008c-7.864,12.67987-27.84687,23.74506-10.02515,55.7508C33.43945,86.23424,31.98187,63.22741,35.3252,50.08654l-1.38154-2.31171-9.5465-.647,6.32611-7.11371-2.3255-9.1778,8.76587,3.75312,8.08593-5.0221-.01733.18268c6.35931-8.33112,17.84247-11.95056,23.8067-11.61829,5.92139-.32183,17.28,3.248,23.676,11.41364l-.008-.08411,8.08514,5.02173,8.76587-3.75311-2.32513,9.17737Z"/><path class="cls-1" d="M148.08557,36.6643a5.15011,5.15011,0,0,0,3.77686-1.53052,5.35161,5.35161,0,0,0,0-7.511,5.15,5.15,0,0,0-3.77686-1.53039,5.21788,5.21788,0,0,0-3.80267,1.53039,5.30968,5.30968,0,0,0,0,7.511A5.21783,5.21783,0,0,0,148.08557,36.6643Z"/><path class="cls-1" d="M345.80414,27.24651a4.6101,4.6101,0,0,0-3.38159-1.37054,4.67024,4.67024,0,0,0-3.40448,1.37054,4.75343,4.75343,0,0,0,0,6.72449,4.67,4.67,0,0,0,3.40448,1.37048,4.61032,4.61032,0,0,0,3.38159-1.37048,4.79072,4.79072,0,0,0,0-6.72449Z"/><path class="cls-1" d="M357.13635,95.23943v.1651c0,3.3847,2.807,5.36639,6.85169,5.36639,5.86181,0,9.82422-3.22,9.82422-7.76068v-2.2287a19.45405,19.45405,0,0,0-8.00812-1.65136C360.43823,89.13018,357.13635,91.277,357.13635,95.23943Z"/><path class="cls-1" d="M263.56018,29.69689a1.1729,1.1729,0,0,0,.48456-1.10175h-.00006a1.231,1.231,0,0,0-.54-1.14892,3.55746,3.55746,0,0,0-1.75781-.32575h-.75446v2.86359h.77167A3.86839,3.86839,0,0,0,263.56018,29.69689Z"/><path class="cls-1" d="M331.826,29.58764a2.01892,2.01892,0,0,0-.01154-3.09754,3.41882,3.41882,0,0,0-2.09546-.55261h-1.75055v4.19916h1.781A3.36823,3.36823,0,0,0,331.826,29.58764Z"/><path class="cls-2" d="M68.97845,9.11516H68.91a57.96712,57.96712,0,0,0,.06568,115.93421h.04858A58.03371,58.03371,0,0,0,126.9444,67.045v-.03961A58.03249,58.03249,0,0,0,68.97845,9.11516Zm54.5979,57.91193v.0202a54.66218,54.66218,0,0,1-54.5548,54.6341h-.04541A54.59871,54.59871,0,0,1,68.91394,12.484l.06451-.00043A54.66423,54.66423,0,0,1,123.57635,67.01Z"/><path class="cls-2" d="M69.44781,100.76061h-.01318c-2.481-.01093-5.37536-1.38171-8.15-3.86l-.53.59375c2.91968,2.608,6.00091,4.05036,8.67767,4.062h.014c5.43048,0,11.82306-5.64423,16.28992-14.38446l-.70874-.36213C80.695,95.28734,74.58148,100.76061,69.44781,100.76061Z"/><path class="cls-2" d="M74.12683,91.16008a.38828.38828,0,0,0,.19116-.05053c.18964-.10645.38239-.20124.558-.28675.54785-.26806.98-.48022.94653-.91229-.02875-.36761-.38232-.565-.94965-.74994-.49115-.57739-2.20623-2.51318-3.29266-2.69391a1.98532,1.98532,0,0,0-1.62726.52808c-.54321.41187-.76855.41187-1.31177,0a1.98056,1.98056,0,0,0-1.62805-.52808c-1.09106.18189-2.81823,2.13514-3.3,2.70246-.61743.23236-.98962.41339-1.00482.781-.01434.36444.30737.51447.715.70484a6.67022,6.67022,0,0,1,.83307.44293.38622.38622,0,0,0,.42975-.00543A6.45539,6.45539,0,0,1,66.822,90.08922a2.49,2.49,0,0,1,1.10657.3194,2.5651,2.5651,0,0,0,2.73706,0,2.49109,2.49109,0,0,1,1.10583-.3194,6.44344,6.44344,0,0,1,2.13629,1.00324A.38726.38726,0,0,0,74.12683,91.16008Z"/><path class="cls-2" d="M69.27258,91.36449a4.45076,4.45076,0,0,0-4.05108-.05206.81844.81844,0,0,0-.33887.84857c.19232.80041,1.64752,1.46954,4.32507,1.98865l.06488.01324.06488-.01324c2.67719-.51911,4.13269-1.18824,4.32544-1.98865a.819.819,0,0,0-.3388-.84857A4.4467,4.4467,0,0,0,69.27258,91.36449Z"/><polygon class="cls-2" points="60.57 45.619 58.825 41.215 56.357 45.266 54.973 45.348 51.623 45.546 53.403 47.582 54.726 49.095 53.529 53.656 57.914 51.822 61.666 54.197 61.931 54.364 61.777 52.576 61.525 49.662 61.573 49.623 65.183 46.683 60.606 45.627 60.57 45.619"/><polygon class="cls-2" points="36.607 46.026 38.254 48.783 40.037 44.394 44.66 43.368 41.027 40.358 41.246 38.051 41.474 35.66 37.435 38.168 33.065 36.297 34.223 40.868 31.09 44.391 35.821 44.711 36.607 46.026"/><polygon class="cls-2" points="79.622 51.822 84.007 53.656 82.81 49.095 85.913 45.546 81.179 45.266 78.711 41.214 76.966 45.619 72.352 46.683 74.82 48.693 76.011 49.662 75.605 54.364 77.552 53.132 79.622 51.822"/><polygon class="cls-2" points="104.891 36.191 100.522 38.062 96.482 35.553 96.657 37.392 96.928 40.252 93.296 43.261 97.919 44.287 98.236 45.068 98.261 45.129 99.418 47.978 99.702 48.677 102.135 44.605 106.865 44.284 103.733 40.761 104.891 36.191"/><path class="cls-2" d="M100.79205,34.483l-8.08514-5.02173.008.08411c-6.396-8.16565-17.75457-11.73547-23.676-11.41364-5.96423-.33227-17.44739,3.28717-23.8067,11.61829l.01733-.18268-8.08593,5.0221-8.76587-3.75312,2.3255,9.1778-6.32611,7.11371,9.5465.647,1.38154,2.31171c-3.34333,13.14087-1.88575,36.1477,26.82989,65.96289C44.33337,84.04369,64.31622,72.9785,72.18024,60.29863L77.458,56.95855c-1.16,7.49188-7.42792,15.69629-9.956,19.2,8.77143-7.13074,15.772-12.47083,20.91748-17.20746l.3017.12616-.08453-.32215A38.33491,38.33491,0,0,0,96.526,49.3167l.24439.60181c-3.65723,7.57068-12.49756,14.3717-13.724,16.57837,4.40991,3.69769,5.94,4.71014,5.73217,13.97979,6.45807-9.32122,9.41449-17.70922,10.36756-24.70727l.01007.02484,4.85626-8.12628,9.54688-.64655-6.32654-7.11413,2.32513-9.17737ZM61.57288,49.62346l-.04779.03894.25158,2.91358.15448,1.78839-.26495-.16766-3.752-2.3747-4.38569,1.834,1.19715-4.56085L53.403,47.582l-1.77948-2.03558,3.34986-.19855,1.38318-.082,2.4685-4.05115,1.74463,4.4043.03656.00842,4.57721,1.05585Zm-30.48243-5.2326,3.133-3.52265-1.15833-4.571,4.36976,1.87091L41.47357,35.66l-.22717,2.39069-.2193,2.30774,3.63263,3.00976L40.03705,44.3936l-1.78272,4.38953L36.607,46.02642l-.78582-1.315Zm44.51447,9.97351.40564-4.702-1.19025-.96917-2.46838-2.00989,4.61371-1.06427,1.74542-4.40466,2.46814,4.05151,4.7334.28052-3.103,3.5487L84.00708,53.656l-4.38525-1.834-2.07,1.31012Zm26.53-9.75983-2.43311,4.07215-.28369-.69855-1.157-2.84894-.025-.06158-.31695-.78052L93.296,43.26134l3.63226-3.00983-.27148-2.85974-.17456-1.83868,4.03943,2.50854,4.36895-1.87091-1.15789,4.57062,3.13256,3.52307Z"/><path class="cls-2" d="M324.30811,28.07921a2.56724,2.56724,0,0,0-.90192-2.07257,3.93006,3.93006,0,0,0-2.59839-.76h-2.95569V35.97081h.82916V30.95812h2.04944a4.01289,4.01289,0,0,0,2.66791-.77551A2.621,2.621,0,0,0,324.30811,28.07921Zm-3.631,2.18775h-1.99585V25.93749l2.09571.00006a2.93178,2.93178,0,0,1,1.95752.58337,2.17272,2.17272,0,0,1-.01551,3.17823A3.17324,3.17324,0,0,1,320.67712,30.267Z"/><path class="cls-2" d="M327.96844,30.82756H329.419a2.66151,2.66151,0,0,1,1.52728.36475,7.17668,7.17668,0,0,1,1.45776,1.83948l1.86823,2.93909h.98126l-2.42584-3.70771A4.81341,4.81341,0,0,0,331.4,30.6278a2.678,2.678,0,0,0,2.04187-2.61005,2.47773,2.47773,0,0,0-.91345-2.0227,4.07447,4.07447,0,0,0-2.64081-.74842h-2.74829V35.97088h.8291Zm0-4.89007H329.719a3.41882,3.41882,0,0,1,2.09546.55261,2.01892,2.01892,0,0,1,.01154,3.09754,3.36823,3.36823,0,0,1-2.0766.549h-1.781Z"/><path class="cls-2" d="M348.08044,30.61254a5.22486,5.22486,0,0,0-1.65454-3.90344,5.86415,5.86415,0,0,0-8.05267,0,5.44093,5.44093,0,0,0,0,7.79931,5.86428,5.86428,0,0,0,8.05267,0A5.21627,5.21627,0,0,0,348.08044,30.61254Zm-5.65789,4.72894a4.67,4.67,0,0,1-3.40448-1.37048,4.75343,4.75343,0,0,1,0-6.72449,4.67024,4.67024,0,0,1,3.40448-1.37054,4.6101,4.6101,0,0,1,3.38159,1.37054,4.79072,4.79072,0,0,1,0,6.72449A4.61032,4.61032,0,0,1,342.42255,35.34148Z"/><path class="cls-2" d="M349.998,39.09514a2.15028,2.15028,0,0,0,1.58148-.67535,3.4723,3.4723,0,0,0,.66809-2.449V25.24663h-.8291V36.19341q-.00019,2.14965-1.50476,2.14966a2.1647,2.1647,0,0,1-.49146-.06153l.077.78284A4.69445,4.69445,0,0,0,349.998,39.09514Z"/><polygon class="cls-2" points="361.888 35.28 356.745 35.28 356.745 30.927 361.635 30.927 361.635 30.229 356.745 30.229 356.745 25.937 361.765 25.937 361.765 25.247 355.916 25.247 355.916 35.971 361.888 35.971 361.888 35.28"/><path class="cls-2" d="M370.10071,36.10906a8.07583,8.07583,0,0,0,3.79992-1.00568v-.85986a8.2168,8.2168,0,0,1-3.81549,1.098,4.71244,4.71244,0,0,1-3.44671-1.32819,4.54456,4.54456,0,0,1-1.351-3.38555,4.63194,4.63194,0,0,1,1.34339-3.39283,4.5071,4.5071,0,0,1,3.33929-1.35894,8.11272,8.11272,0,0,1,3.82306,1.03649v-.90582a9.0221,9.0221,0,0,0-3.76922-.89825,5.56545,5.56545,0,0,0-3.96888,1.58148,5.49593,5.49593,0,0,0-.03442,7.8493A5.64924,5.64924,0,0,0,370.10071,36.10906Z"/><polygon class="cls-2" points="379.603 35.971 380.44 35.971 380.44 25.937 384.463 25.937 384.463 25.247 375.581 25.247 375.581 25.937 379.603 25.937 379.603 35.971"/><polygon class="cls-2" points="196.027 29.838 199.268 33.825 199.551 33.825 202.783 29.838 202.783 36.723 206.367 36.723 206.367 24.84 203.117 24.84 199.448 29.298 195.795 24.84 192.546 24.84 192.546 36.723 196.027 36.723 196.027 29.838"/><path class="cls-2" d="M212.61743,34.3142H217.779l.96893,2.40924h3.66968l-5.23871-11.88367h-3.96124l-5.25592,11.88367h3.66968Zm2.598-6.40491,1.74048,4.33856H213.4577Z"/><rect class="cls-2" x="224.0127" y="24.83977" width="3.58377" height="11.88367"/><polygon class="cls-2" points="243.501 36.723 243.501 24.84 239.926 24.84 239.926 31.425 233.778 24.84 230.597 24.84 230.597 36.723 234.147 36.723 234.147 30.104 240.312 36.723 243.501 36.723"/><polygon class="cls-2" points="250.069 31.913 254.999 31.913 254.999 29.521 250.069 29.521 250.069 27.223 254.999 27.223 254.999 24.84 246.485 24.84 246.485 36.723 250.069 36.723 250.069 31.913"/><path class="cls-2" d="M260.99243,32.085h.40283a2.85135,2.85135,0,0,1,1.00763.1499,1.99863,1.99863,0,0,1,.80152.68585,8.77378,8.77378,0,0,1,.92608,1.69355l.93463,2.10919h3.84974l-1.20038-2.58087a9.96214,9.96214,0,0,0-1.01618-1.8562,3.421,3.421,0,0,0-.94738-.79322,7.28572,7.28572,0,0,0,.866-.54,2.79287,2.79287,0,0,0,.73322-.90461,3.08182,3.08182,0,0,0,.347-1.522,3.73939,3.73939,0,0,0-.41589-1.62909,3.60331,3.60331,0,0,0-1.35895-1.45758,4.43338,4.43338,0,0,0-2.41772-.60016h-6.09625V36.72344h3.584Zm-.00006-4.96448h.75446a3.55746,3.55746,0,0,1,1.75781.32575,1.231,1.231,0,0,1,.54,1.14892h.00006a1.1729,1.1729,0,0,1-.48456,1.10175,3.86839,3.86839,0,0,1-1.79614.28717h-.77167Z"/><path class="cls-2" d="M279.92389,36.72344h3.66986L278.355,24.83977h-3.96136l-5.25574,11.88367h3.66962l.98608-2.40924H278.955Zm-5.2901-4.47559,1.75763-4.33856,1.74054,4.33856Z"/><polygon class="cls-2" points="288.652 29.838 291.893 33.825 292.176 33.825 295.409 29.838 295.409 36.723 298.993 36.723 298.993 24.84 295.743 24.84 292.073 29.298 288.421 24.84 285.171 24.84 285.171 36.723 288.652 36.723 288.652 29.838"/><polygon class="cls-2" points="310.953 34.331 305.577 34.331 305.577 31.793 310.568 31.793 310.568 29.401 305.577 29.401 305.577 27.223 310.808 27.223 310.808 24.84 301.993 24.84 301.993 36.723 310.953 36.723 310.953 34.331"/><path class="cls-2" d="M152.55688,35.73394a6.05768,6.05768,0,0,0,0-8.71131,6.55046,6.55046,0,0,0-8.99414,0,6.07727,6.07727,0,0,0,0,8.71131A6.55006,6.55006,0,0,0,152.55688,35.73394Zm-8.274-8.11115a5.21788,5.21788,0,0,1,3.80267-1.53039,5.15,5.15,0,0,1,3.77686,1.53039,5.35161,5.35161,0,0,1,0,7.511,5.15011,5.15011,0,0,1-3.77686,1.53052,5.21783,5.21783,0,0,1-3.80267-1.53052,5.30968,5.30968,0,0,1,0-7.511Z"/><path class="cls-2" d="M157.58557,31.76842h2.28937a4.48072,4.48072,0,0,0,2.97943-.866,2.92594,2.92594,0,0,0,1.01605-2.3493,2.86752,2.86752,0,0,0-1.0075-2.31494,4.38916,4.38916,0,0,0-2.90229-.84888h-3.301v11.978h.926Zm0-5.60742h2.34076a3.27526,3.27526,0,0,1,2.1864.65155,2.4271,2.4271,0,0,1-.01715,3.54974,3.54356,3.54356,0,0,1-2.2807.63446h-2.22931Z"/><polygon class="cls-2" points="172.316 36.596 166.571 36.596 166.571 31.734 172.033 31.734 172.033 30.954 166.571 30.954 166.571 26.161 172.179 26.161 172.179 25.389 165.645 25.389 165.645 37.367 172.316 37.367 172.316 36.596"/><polygon class="cls-2" points="175.145 26.898 184.252 37.367 185.014 37.367 185.014 25.389 184.088 25.389 184.088 35.858 175.004 25.389 174.219 25.389 174.219 37.367 175.145 37.367 175.145 26.898"/><polygon class="cls-2" points="190.305 50.825 142.423 50.825 142.423 62.547 160.007 62.547 160.007 108.613 172.72 108.613 172.72 62.547 190.305 62.547 190.305 50.825"/><path class="cls-2" d="M209.78546,63.53808c-12.87909,0-21.87713,10.402-21.87713,23.03308v.16516c0,13.53918,9.82421,22.868,23.115,22.868,8.00811,0,13.95227-3.13721,18.08032-8.25611l-7.18292-6.35626c-3.46656,3.21955-6.52143,4.54022-10.73182,4.54022-5.61383,0-9.57629-2.97161-10.81506-8.66827h30.79382c.08234-1.15552.16462-2.31146.16462-3.30231C231.33228,75.01323,224.56293,63.53808,209.78546,63.53808Zm-9.57629,19.48327c.99084-5.69665,4.37506-9.41162,9.57629-9.41162,5.28357,0,8.58539,3.79779,9.32831,9.41162Z"/><path class="cls-2" d="M259.728,81.86541c-4.78864-1.65094-8.99805-2.807-8.99805-5.28357v-.16516c0-1.73377,1.56811-3.05439,4.623-3.05439,3.21954,0,7.5946,1.56861,11.97058,4.12757l4.78766-8.66822a30.6248,30.6248,0,0,0-16.51124-5.11846c-8.91571,0-16.181,5.03613-16.181,14.0346v.16516c0,8.58545,7.01733,11.47516,13.20941,13.29126,4.87091,1.48627,9.16363,2.39429,9.16363,5.11841v.1651c0,1.98126-1.65143,3.30237-5.28357,3.30237-4.12805,0-9.16363-1.8161-13.95227-5.28357l-5.3659,8.25513a30.99766,30.99766,0,0,0,18.98791,6.68707c9.57623,0,16.92383-4.4574,16.92383-14.28162v-.16516C273.102,86.90148,265.92,83.92943,259.728,81.86541Z"/><path class="cls-2" d="M300.34314,81.86541c-4.78864-1.65094-8.998-2.807-8.998-5.28357v-.16516c0-1.73377,1.56812-3.05439,4.623-3.05439,3.21954,0,7.5946,1.56861,11.97058,4.12757l4.78766-8.66822a30.62479,30.62479,0,0,0-16.51123-5.11846c-8.91571,0-16.181,5.03613-16.181,14.0346v.16516c0,8.58545,7.01727,11.47516,13.20935,13.29126,4.871,1.48627,9.1637,2.39429,9.1637,5.11841v.1651c0,1.98126-1.65143,3.30237-5.28357,3.30237-4.12806,0-9.1637-1.8161-13.95227-5.28357l-5.36591,8.25513a30.99767,30.99767,0,0,0,18.98785,6.68707c9.5763,0,16.92389-4.4574,16.92389-14.28162v-.16516C313.71716,86.90148,306.53522,83.92943,300.34314,81.86541Z"/><rect class="cls-2" x="322.96124" y="48.34795" width="13.20844" height="11.14484"/><rect class="cls-2" x="323.2915" y="64.36376" width="12.54785" height="44.24969"/><path class="cls-2" d="M380.91193,68.82164c-3.13721-3.1372-8.09052-4.9533-14.9422-4.9533a39.04547,39.04547,0,0,0-17.17182,3.5498l3.13721,9.57629a32.55629,32.55629,0,0,1,12.21857-2.39385c6.27441,0,9.49389,2.88928,9.49389,8.09051V83.434a31.44616,31.44616,0,0,0-10.81506-1.816c-10.48474,0-17.83234,4.45782-17.83234,14.11694V95.9c0,8.7511,6.8526,13.53876,15.191,13.53876,6.10883,0,10.31922-2.2287,13.37409-5.61389v4.78863H385.7005V82.93853C385.7005,76.99443,384.21472,72.12395,380.91193,68.82164Zm-7.09967,24.1886c0,4.54065-3.96241,7.76068-9.82422,7.76068-4.04474,0-6.85169-1.98169-6.85169-5.36639v-.1651c0-3.96246,3.30188-6.10925,8.66779-6.10925a19.45405,19.45405,0,0,1,8.00812,1.65136Z"/></svg>