<?xml version="1.0" encoding="utf-8"?>
<!-- Generator: Adobe Illustrator 25.1.0, SVG Export Plug-In . SVG Version: 6.00 Build 0)  -->
<svg version="1.1" id="Layer_1" xmlns="http://www.w3.org/2000/svg" xmlns:xlink="http://www.w3.org/1999/xlink" x="0px" y="0px"
	 viewBox="0 0 270 240" style="enable-background:new 0 0 270 240;" xml:space="preserve">
<style type="text/css">
	.st0{fill:#020202;}
	.st1{fill:none;}
	.st2{fill:#2A7DE1;}
	.st3{fill:#00D400;}
	.st4{fill:#FFFFFF;}
	.st5{fill:#0033A1;}
</style>
<g>
	<g>
		<g>
			<g>
				
					<ellipse transform="matrix(0.7071 -0.7071 0.7071 0.7071 -1.7774 38.7499)" class="st1" cx="45.9" cy="21.5" rx="7.7" ry="7.7"/>
				<ellipse transform="matrix(0.7071 -0.7071 0.7071 0.7071 -9.277 20.6443)" class="st1" cx="20.3" cy="21.5" rx="7.7" ry="7.7"/>
				<ellipse transform="matrix(0.7071 -0.7071 0.7071 0.7071 5.6909 56.7801)" class="st1" cx="71.4" cy="21.5" rx="7.7" ry="7.7"/>
				<path class="st2" d="M0.6,3.1v36.5h268.9V3.1H0.6z M20.3,29.2c-4.2,0-7.7-3.4-7.7-7.7c0-4.2,3.4-7.7,7.7-7.7
					c4.2,0,7.7,3.4,7.7,7.7C28,25.8,24.5,29.2,20.3,29.2z M45.9,29.2c-4.2,0-7.7-3.4-7.7-7.7c0-4.2,3.4-7.7,7.7-7.7
					c4.2,0,7.7,3.4,7.7,7.7C53.6,25.8,50.1,29.2,45.9,29.2z M71.4,29.2c-4.2,0-7.7-3.4-7.7-7.7c0-4.2,3.4-7.7,7.7-7.7
					c4.2,0,7.7,3.4,7.7,7.7C79.1,25.8,75.6,29.2,71.4,29.2z"/>
			</g>
			<rect x="0.6" y="48.7" class="st0" width="268.9" height="188.6"/>
			<rect x="27" y="157.9" class="st3" width="7.4" height="7.4"/>
			<rect x="34.4" y="165.4" class="st3" width="7.4" height="7.4"/>
			<rect x="41.9" y="165.4" class="st3" width="7.4" height="7.4"/>
			<rect x="49.3" y="172.8" class="st3" width="7.4" height="7.4"/>
			<rect x="56.8" y="172.8" class="st3" width="7.4" height="7.4"/>
			<rect x="64.2" y="180.3" class="st3" width="7.4" height="7.4"/>
			<rect x="71.7" y="180.3" class="st3" width="7.4" height="7.4"/>
			<rect x="79.1" y="187.7" class="st3" width="7.4" height="7.4"/>
			<rect x="86.6" y="187.7" class="st3" width="7.4" height="7.4"/>
			<rect x="94" y="195.2" class="st3" width="7.4" height="7.4"/>
			<rect x="101.5" y="195.2" class="st3" width="7.4" height="7.4"/>
			<rect x="108.9" y="202.6" class="st3" width="7.4" height="7.4"/>
			<rect x="116.4" y="150.5" class="st3" width="7.4" height="7.4"/>
			<rect x="116.4" y="157.9" class="st3" width="7.4" height="7.4"/>
			<rect x="116.4" y="165.4" class="st3" width="7.4" height="7.4"/>
			<rect x="116.4" y="172.8" class="st3" width="7.4" height="7.4"/>
			<rect x="116.4" y="180.3" class="st3" width="7.4" height="7.4"/>
			<rect x="116.4" y="187.7" class="st3" width="7.4" height="7.4"/>
			<rect x="116.4" y="195.2" class="st3" width="7.4" height="7.4"/>
			<rect x="116.4" y="202.6" class="st3" width="7.4" height="7.4"/>
			<rect x="116.4" y="210.1" class="st3" width="7.4" height="7.4"/>
			<rect x="146.2" y="150.5" class="st3" width="7.4" height="7.4"/>
			<rect x="146.2" y="210.1" class="st3" width="7.4" height="7.4"/>
			<rect x="153.6" y="150.5" class="st3" width="7.4" height="7.4"/>
			<rect x="153.6" y="202.6" class="st3" width="7.4" height="7.4"/>
			<rect x="153.6" y="210.1" class="st3" width="7.4" height="7.4"/>
			<rect x="161.1" y="150.5" class="st3" width="7.4" height="7.4"/>
			<rect x="161.1" y="210.1" class="st3" width="7.4" height="7.4"/>
			<rect x="168.5" y="150.5" class="st3" width="7.4" height="7.4"/>
			<rect x="168.5" y="195.2" class="st3" width="7.4" height="7.4"/>
			<rect x="168.5" y="210.1" class="st3" width="7.4" height="7.4"/>
			<rect x="176" y="150.5" class="st3" width="7.4" height="7.4"/>
			<rect x="161.1" y="195.2" class="st3" width="7.4" height="7.4"/>
			<rect x="176" y="210.1" class="st3" width="7.4" height="7.4"/>
			<rect x="183.4" y="150.5" class="st3" width="7.4" height="7.4"/>
			<rect x="183.4" y="187.7" class="st3" width="7.4" height="7.4"/>
			<rect x="176" y="187.7" class="st3" width="7.4" height="7.4"/>
			<rect x="183.4" y="210.1" class="st3" width="7.4" height="7.4"/>
			<rect x="190.9" y="150.5" class="st3" width="7.4" height="7.4"/>
			<rect x="190.9" y="180.3" class="st3" width="7.4" height="7.4"/>
			<rect x="190.9" y="210.1" class="st3" width="7.4" height="7.4"/>
			<rect x="198.3" y="150.5" class="st3" width="7.4" height="7.4"/>
			<rect x="198.3" y="180.3" class="st3" width="7.4" height="7.4"/>
			<rect x="198.3" y="210.1" class="st3" width="7.4" height="7.4"/>
			<rect x="205.8" y="150.5" class="st3" width="7.4" height="7.4"/>
			<rect x="205.8" y="172.8" class="st3" width="7.4" height="7.4"/>
			<rect x="205.8" y="210.1" class="st3" width="7.4" height="7.4"/>
			<rect x="213.2" y="150.5" class="st3" width="7.4" height="7.4"/>
			<rect x="213.2" y="172.8" class="st3" width="7.4" height="7.4"/>
			<rect x="213.2" y="210.1" class="st3" width="7.4" height="7.4"/>
			<rect x="220.7" y="150.5" class="st3" width="7.4" height="7.4"/>
			<rect x="220.7" y="210.1" class="st3" width="7.4" height="7.4"/>
			<rect x="228.1" y="150.5" class="st3" width="7.4" height="7.4"/>
			<rect x="228.1" y="165.4" class="st3" width="7.4" height="7.4"/>
			<rect x="220.7" y="165.4" class="st3" width="7.4" height="7.4"/>
			<rect x="228.1" y="210.1" class="st3" width="7.4" height="7.4"/>
			<rect x="235.6" y="150.5" class="st3" width="7.4" height="7.4"/>
			<rect x="235.6" y="157.9" class="st3" width="7.4" height="7.4"/>
			<rect x="235.6" y="210.1" class="st3" width="7.4" height="7.4"/>
			<g>
				<rect x="146.2" y="83.5" class="st3" width="7.4" height="7.4"/>
				<rect x="146.2" y="90.9" class="st3" width="7.4" height="7.4"/>
				<rect x="146.2" y="98.3" class="st3" width="7.4" height="7.4"/>
				<rect x="146.2" y="105.8" class="st3" width="7.4" height="7.4"/>
				<rect x="146.2" y="113.2" class="st3" width="7.4" height="7.4"/>
				<rect x="153.6" y="76" class="st3" width="7.4" height="7.4"/>
				<rect x="153.6" y="120.7" class="st3" width="7.4" height="7.4"/>
				<rect x="161.1" y="68.6" class="st3" width="7.4" height="7.4"/>
				<rect x="161.1" y="128.1" class="st3" width="7.4" height="7.4"/>
				<rect x="168.5" y="68.6" class="st3" width="7.4" height="7.4"/>
				<rect x="168.5" y="128.1" class="st3" width="7.4" height="7.4"/>
				<rect x="176" y="68.6" class="st3" width="7.4" height="7.4"/>
				<rect x="176" y="128.1" class="st3" width="7.4" height="7.4"/>
				<rect x="183.4" y="68.6" class="st3" width="7.4" height="7.4"/>
				<rect x="183.4" y="128.1" class="st3" width="7.4" height="7.4"/>
				<rect x="190.9" y="68.6" class="st3" width="7.4" height="7.4"/>
				<rect x="190.9" y="128.1" class="st3" width="7.4" height="7.4"/>
				<rect x="198.3" y="68.6" class="st3" width="7.4" height="7.4"/>
				<rect x="198.3" y="128.1" class="st3" width="7.4" height="7.4"/>
				<rect x="205.8" y="68.6" class="st3" width="7.4" height="7.4"/>
				<rect x="205.8" y="128.1" class="st3" width="7.4" height="7.4"/>
				<rect x="213.2" y="68.6" class="st3" width="7.4" height="7.4"/>
				<rect x="213.2" y="128.1" class="st3" width="7.4" height="7.4"/>
				<rect x="220.7" y="68.6" class="st3" width="7.4" height="7.4"/>
				<rect x="220.7" y="128.1" class="st3" width="7.4" height="7.4"/>
				<rect x="228.1" y="68.6" class="st3" width="7.4" height="7.4"/>
				<rect x="228.1" y="128.1" class="st3" width="7.4" height="7.4"/>
				<rect x="235.6" y="76" class="st3" width="7.4" height="7.4"/>
				<rect x="235.6" y="120.7" class="st3" width="7.4" height="7.4"/>
				<rect x="243" y="83.5" class="st3" width="7.4" height="7.4"/>
				<rect x="243" y="90.9" class="st3" width="7.4" height="7.4"/>
				<rect x="243" y="98.3" class="st3" width="7.4" height="7.4"/>
				<rect x="243" y="105.8" class="st3" width="7.4" height="7.4"/>
				<rect x="243" y="113.2" class="st3" width="7.4" height="7.4"/>
			</g>
			<rect x="19.6" y="83.5" class="st3" width="7.4" height="7.4"/>
			<rect x="19.6" y="90.9" class="st3" width="7.4" height="7.4"/>
			<rect x="19.6" y="98.3" class="st3" width="7.4" height="7.4"/>
			<rect x="19.6" y="105.8" class="st3" width="7.4" height="7.4"/>
			<rect x="19.6" y="113.2" class="st3" width="7.4" height="7.4"/>
			<rect x="27" y="76" class="st3" width="7.4" height="7.4"/>
			<rect x="27" y="120.7" class="st3" width="7.4" height="7.4"/>
			<rect x="34.4" y="68.6" class="st3" width="7.4" height="7.4"/>
			<rect x="34.4" y="128.1" class="st3" width="7.4" height="7.4"/>
			<rect x="41.9" y="68.6" class="st3" width="7.4" height="7.4"/>
			<rect x="41.9" y="128.1" class="st3" width="7.4" height="7.4"/>
			<rect x="49.3" y="68.6" class="st3" width="7.4" height="7.4"/>
			<rect x="49.3" y="128.1" class="st3" width="7.4" height="7.4"/>
			<rect x="56.8" y="68.6" class="st3" width="7.4" height="7.4"/>
			<rect x="56.8" y="128.1" class="st3" width="7.4" height="7.4"/>
			<rect x="64.2" y="68.6" class="st3" width="7.4" height="7.4"/>
			<rect x="64.2" y="128.1" class="st3" width="7.4" height="7.4"/>
			<rect x="71.7" y="68.6" class="st3" width="7.4" height="7.4"/>
			<rect x="71.7" y="128.1" class="st3" width="7.4" height="7.4"/>
			<rect x="79.1" y="68.6" class="st3" width="7.4" height="7.4"/>
			<rect x="79.1" y="128.1" class="st3" width="7.4" height="7.4"/>
			<rect x="86.6" y="68.6" class="st3" width="7.4" height="7.4"/>
			<rect x="86.6" y="128.1" class="st3" width="7.4" height="7.4"/>
			<rect x="94" y="68.6" class="st3" width="7.4" height="7.4"/>
			<rect x="94" y="128.1" class="st3" width="7.4" height="7.4"/>
			<rect x="101.5" y="68.6" class="st3" width="7.4" height="7.4"/>
			<rect x="101.5" y="128.1" class="st3" width="7.4" height="7.4"/>
			<rect x="108.9" y="76" class="st3" width="7.4" height="7.4"/>
			<rect x="108.9" y="120.7" class="st3" width="7.4" height="7.4"/>
			<rect x="116.4" y="83.5" class="st3" width="7.4" height="7.4"/>
			<rect x="116.4" y="113.2" class="st3" width="7.4" height="7.4"/>
			<rect x="243" y="150.5" class="st3" width="7.4" height="7.4"/>
			<rect x="243" y="210.1" class="st3" width="7.4" height="7.4"/>
			<rect x="19.6" y="150.5" class="st3" width="7.4" height="7.4"/>
			<rect x="19.6" y="157.9" class="st3" width="7.4" height="7.4"/>
			<rect x="19.6" y="165.4" class="st3" width="7.4" height="7.4"/>
			<rect x="19.6" y="172.8" class="st3" width="7.4" height="7.4"/>
			<rect x="19.6" y="180.3" class="st3" width="7.4" height="7.4"/>
			<rect x="19.6" y="187.7" class="st3" width="7.4" height="7.4"/>
			<rect x="19.6" y="195.2" class="st3" width="7.4" height="7.4"/>
			<rect x="19.6" y="202.6" class="st3" width="7.4" height="7.4"/>
			<rect x="19.6" y="210.1" class="st3" width="7.4" height="7.4"/>
		</g>
	</g>
</g>
</svg>
