<?xml version="1.0" encoding="utf-8"?>
<!-- Generator: Adobe Illustrator 25.4.1, SVG Export Plug-In . SVG Version: 6.00 Build 0)  -->
<svg version="1.1" id="Layer_1" xmlns="http://www.w3.org/2000/svg" xmlns:xlink="http://www.w3.org/1999/xlink" x="0px" y="0px"
	 viewBox="0 0 601.4 443.9" style="enable-background:new 0 0 601.4 443.9;" xml:space="preserve">
<style type="text/css">
	.st0{fill:#FFFFFF;}
	.st1{opacity:0.8;fill:#FFFFFF;enable-background:new    ;}
	.st2{fill:none;}
</style>
<path class="st0" d="M0.9,443.9h600V333H0.9V443.9z M4.5,336.6h592.8v103.8H4.5V336.6z"/>
<path class="st0" d="M244.4,55.9c0-0.1-0.1-0.1-0.2-0.2c-0.8-0.6-1.9-0.9-2.9-0.9h-3.2v6.5h3c1,0.1,2-0.2,2.8-0.7
	c0.1-0.1,0.2-0.1,0.3-0.1c0.2-0.2,0.3-0.3,0.4-0.5C245.6,58.7,245.4,57,244.4,55.9L244.4,55.9z"/>
<path class="st0" d="M280.8,226.9c-3.1,0-5.5,1-7.1,3.1s-2.4,5.1-2.4,9.2c0,4.1,0.8,7.1,2.4,9.3c3.6,4,9.7,4.3,13.6,0.7
	c0.2-0.2,0.5-0.4,0.7-0.7c1.6-2.1,2.4-5.2,2.4-9.3c0-4-0.8-7.1-2.4-9.2C286.4,227.9,284,226.9,280.8,226.9z"/>
<path class="st0" d="M401.6,239.5l-4.8,0.2c-3.8,0.1-6.6,0.7-8.3,1.8c-1.7,1-2.7,2.9-2.5,4.9c-0.1,1.5,0.5,3,1.6,4
	c1.3,1,2.8,1.5,4.4,1.4c2.6,0.1,5.1-0.7,7.1-2.5c1.8-1.8,2.7-4.3,2.6-6.9v-2.9H401.6z"/>
<path class="st0" d="M537.5,0h-83.9l37.5,54.3c0.6,0.3,1.2,0.7,1.7,1.2l0,0c1.2,1.2,2,2.7,2.2,4.4l4.5,6.6v-13h1.1V68v0.1l25.3,36.7
	c18.5,2.9,27,19,27,36.4c0,0.8,0,1.7-0.1,2.6l48,69.6v-150C600.9,28.4,572.5,0,537.5,0z M513.6,68.1h-8V53.6h7.9v0.9h-6.8v5.8h6.6
	v0.9h-6.6v5.9h6.9V68.1z M529.8,66.9c-1.6,0.9-3.3,1.3-5.1,1.4c-2,0.1-4-0.7-5.5-2.1c-2.9-2.9-2.9-7.6,0-10.5l0,0l0,0l0.1-0.1
	c1.4-1.4,3.4-2.2,5.4-2.1c1.7,0,3.5,0.4,5,1.2l0,0h0.1c0,0,0,0-0.1,0v1.2c-1.6-0.9-3.3-1.4-5.2-1.4c-1.7,0-3.3,0.6-4.5,1.8
	s-1.9,2.9-1.8,4.6c-0.1,1.7,0.6,3.4,1.8,4.6c1.2,1.2,2.9,1.8,4.7,1.8s3.6-0.5,5.1-1.4V66.9z M544.1,54.5h-5.4V68h-1.1V54.5h-5.4
	v-0.9h12L544.1,54.5z"/>
<polygon class="st0" points="0.9,316.3 130.3,316.3 0.9,128.6 "/>
<path class="st0" d="M64.2,0L64.2,0C29.2,0,0.9,28.4,0.9,63.4v40.8L151.9,0H64.2z"/>
<path class="st0" d="M438,234.6c0-2.6-0.6-4.5-1.8-5.8c-1.2-1.3-3-1.9-5.5-1.9c-3.3,0-5.8,0.9-7.3,2.7s-2.3,4.8-2.3,8.9v16.7h-4.8
	v-31.8h3.9l0.8,4.3h0.2c1-1.6,2.4-2.8,4.1-3.6c1.9-0.9,3.9-1.3,5.9-1.3c3.8,0,6.7,0.9,8.6,2.8s2.9,4.8,2.9,8.9v9.5l10.2-7.1v-9.8
	h-4.5v-2.3l4.5-2l2-6.8h2.8v7.4h9.2v3.7h-9.2v6.5l20.9-14.4l-31-45h-0.9l-75.5,52.1c1.4,1.9,2.1,4.6,2.1,8.2v20.7h-4.8v-20.7
	c0.1-1.9-0.4-3.8-1.4-5.4l-14,9.7v16.4h-4.8v-13l-15.4,10.6v2.4h-3.5l-11.5,8l4.2-39.1l-0.5,3.7c-1.1-0.3-2.3-0.4-3.5-0.4
	c-2.6,0-5,1.1-6.6,3.1c-1.9,2.2-2.8,4.9-2.7,7.8v17H304v-31.8h4l0.6,5.9h0.2c1-1.9,2.5-3.5,4.3-4.8c1.6-1.1,3.5-1.7,5.5-1.7
	c1.3,0,2.5,0.1,3.8,0.3l5.2-48.9c-16.7-3.5-28.2-17.4-28.2-34.2v-0.3c0-19.1,15.1-34.7,35.7-35.3l3.8-35.4h-2V53h3.7l3.2-30.1
	L327.7,0h-35.2L162,90l31,45l-37.2,25.7l-0.4,0.9l86.3-59.5h-25V84.9h49.8L281,75l-1.1,10h9.1v14.8L276.9,114l-4.5,42.5h16.8v17.1
	h-18.6l-15.1,141.5l0.9,1.3H338l100-69.1V234.6z M327.7,53h4.8v16h-4.8V53z M231.6,67.5C231.6,67.6,231.6,67.6,231.6,67.5l-0.2,0.2
	c-3.4,3.2-8.7,3.2-12.1,0c-3.2-3.2-3.3-8.3-0.2-11.6l0.2-0.2c1.6-1.6,3.8-2.5,6-2.4l0,0c2.3-0.1,4.5,0.8,6.1,2.4
	C234.6,59.1,234.7,64.3,231.6,67.5L231.6,67.5z M245.2,61.2c-1.2,0.9-2.6,1.3-4,1.2h-3.1v7.5h-1.2l0.1-16.1h4.5
	c1.4-0.1,2.8,0.3,3.9,1.1c1.7,1.6,1.8,4.3,0.2,6C245.4,61,245.3,61.1,245.2,61.2z M258,69.9h-9V53.8h8.8v1h-7.6v6.5h7.4v1h-7.4v6.6
	h7.8L258,69.9L258,69.9z M275.1,69.9h-1l-12.3-14.1v14.1h-1.2V53.8h1.1l12.2,14.1V53.8h1.2L275.1,69.9L275.1,69.9z M313.2,53h5.4
	l7,16h-4.9l-1.3-3.2h-7l-1.3,3.2h-4.9L313.2,53z M291.6,251.3c-2.6,2.9-6.2,4.4-10.8,4.4c-2.7,0-5.3-0.6-7.6-2
	c-2.2-1.4-4-3.4-5.1-5.7c-1.3-2.7-1.9-5.7-1.8-8.8c0-5.2,1.3-9.2,3.9-12.1c2.6-2.9,6.2-4.3,10.8-4.3c4-0.2,7.9,1.4,10.6,4.4
	c2.6,3,3.9,7,3.9,12C295.5,244.4,294.2,248.4,291.6,251.3z M294.7,65.2h-0.4l-4.4-5.4v9.3h-4.7V53h4.4l4.9,6l4.9-6h4.4v16H299v-9.3
	L294.7,65.2z M406.4,255.1h-3.6l-1-4.5h-0.2c-1.2,1.7-2.9,3.1-4.7,4c-1.9,0.8-3.9,1.1-5.9,1.1c-2.7,0.2-5.3-0.7-7.4-2.4
	c-1.9-1.8-2.8-4.3-2.7-6.9c0-6.4,5.1-9.8,15.4-10.1l5.4-0.2v-2c0-2.5-0.5-4.3-1.6-5.5s-2.8-1.8-5.1-1.8c-3.1,0.1-6.2,1-9,2.4
	l-1.5-3.7c1.6-0.9,3.4-1.5,5.1-2c1.8-0.5,3.7-0.7,5.6-0.7c3.8,0,6.6,0.8,8.4,2.5s2.7,4.4,2.7,8.1v21.7H406.4z"/>
<polygon class="st0" points="600.9,316.3 600.9,231.9 478.4,316.3 "/>
<path class="st0" d="M361.9,226.9c-3,0-5.2,0.9-6.6,2.6c-1.4,1.7-2.1,4.4-2.1,7.9v1.4l14-9.7c-0.1-0.1-0.1-0.2-0.2-0.3
	C365.7,227.4,363.8,226.7,361.9,226.9z"/>
<polygon class="st0" points="272.3,156.5 276.9,114 240.3,156.5 "/>
<polygon class="st0" points="281,75 266.6,84.9 280,84.9 "/>
<polygon class="st0" points="152.9,122 120.8,144.1 127.2,84.6 120.4,74.9 72.8,107.7 80.6,119 111.7,97.5 105.3,157 112.1,166.8 
	160.7,133.2 "/>
<path class="st1" d="M270.5,173.6h-55.3v-14.8L264,102h-22.2l-86.3,59.5l0.4-0.9l-53.7,37l-62.7-90.9L130.4,44L162,90L292.5,0H151.9
	L0.9,104.2v24.4l129.5,187.7h126l-0.9-1.3L270.5,173.6z M145.9,246.8c2.6,3,6.3,4.5,11.1,4.5c3.4-0.1,6.8-0.6,10.1-1.6v4.3
	c-3.5,1.2-7.2,1.7-10.9,1.7c-6.2,0-11.1-1.9-14.4-5.7c-3.4-3.8-5.1-9.2-5.1-16.1c-0.1-4,0.8-7.9,2.4-11.5c1.5-3.2,4-5.8,7.1-7.6
	c3.3-1.8,7.1-2.8,10.9-2.7c4-0.1,8,0.7,11.6,2.4l-2.1,4.2c-3-1.5-6.3-2.2-9.6-2.3c-4.7,0-8.3,1.6-11,4.7c-2.7,3.1-4,7.3-4,12.7
	C142,239.5,143.3,243.8,145.9,246.8z M199.2,251.3c-2.6,2.9-6.2,4.4-10.8,4.4c-2.7,0-5.3-0.6-7.6-2c-2.2-1.4-4-3.4-5.1-5.7
	c-1.3-2.7-1.9-5.7-1.8-8.8c0-5.2,1.3-9.2,3.9-12.1c2.6-2.9,6.2-4.3,10.8-4.3c4-0.2,7.9,1.4,10.6,4.4c2.6,3,3.9,7,3.9,12
	C203.1,244.4,201.8,248.4,199.2,251.3z M238.1,255.1h-4.8v-20.5c0-2.6-0.6-4.5-1.8-5.8s-3-1.9-5.5-1.9c-3.3,0-5.8,0.9-7.3,2.7
	s-2.3,4.8-2.3,8.9v16.7h-4.8v-31.8h3.9l0.8,4.3h0.2c1-1.6,2.4-2.8,4.1-3.6c1.9-0.9,3.9-1.3,5.9-1.3c3.8,0,6.7,0.9,8.6,2.8
	c1.9,1.8,2.9,4.8,2.9,8.9L238.1,255.1z M254.2,255.1h-4.8v-28h-5.7v-2.2l5.7-1.7v-1.8c0-7.8,3.4-11.7,10.2-11.7c2,0.1,4,0.4,5.9,1
	l-1.2,3.9c-1.5-0.5-3.1-0.8-4.8-0.9c-1.6-0.1-3.1,0.6-4,1.8s-1.3,3.1-1.3,5.8v2.1h8.1v3.7h-8.1L254.2,255.1z"/>
<path class="st1" d="M188.4,226.9c-3.1,0-5.5,1-7.1,3.1s-2.4,5.1-2.4,9.2c0,4.1,0.8,7.1,2.4,9.3c3.6,4,9.7,4.3,13.6,0.7
	c0.2-0.2,0.5-0.4,0.7-0.7c1.6-2.1,2.4-5.2,2.4-9.3c0-4-0.8-7.1-2.4-9.2C194,227.9,191.6,226.9,188.4,226.9z"/>
<path class="st0" d="M346.7,228.8c-1.1-1.3-2.8-1.9-5.1-1.9c-3,0-5.2,0.9-6.6,2.7s-2.1,4.8-2.1,8.9v14.2l15.4-10.6v-7.6
	C348.3,231.9,347.8,230,346.7,228.8z"/>
<polygon class="st0" points="398.3,57.2 398.3,57.2 396,63 400.7,63 399.8,60.8 "/>
<path class="st1" d="M552.7,146.4h-47.3c1.9,8.7,8,13.3,16.6,13.3c6.5,0,11.2-2,16.5-7l11,9.8c-6.3,7.9-15.5,12.7-27.8,12.7
	c-20.4,0-35.5-14.3-35.5-35.1v-0.3c0-19.4,13.8-35.4,33.6-35.4c2,0,4.1,0.1,6.1,0.5l-25.3-36.7c0.1,1.1-0.2,2.3-0.9,3.2
	c-0.6,0.6-1.3,0.9-2.1,0.9c-0.2,0-0.4,0-0.7,0l-0.1-1c0.2,0,0.4,0.1,0.7,0.1c1.4,0,2-1,2-2.9v-1.9L495,60c0.3,2.1-0.5,4.3-1.9,5.8
	l-0.1,0.1l-0.2,0.2c-3,2.9-7.8,2.9-10.9,0c-2.9-2.8-3-7.5-0.2-10.4l0,0l0.1-0.1c2.5-2.3,6.2-2.8,9.2-1.2L453.6,0h-126l15.8,22.9
	L340.3,53h0.6l8.3,8.9V53h4.8v16h-4.3l-8.3-8.9V69h-2.8l-3.8,35.4c0.4,0,0.8,0,1.2,0c21,0,36.6,15.6,36.6,35.1v0.3
	c0,19.5-15.7,35.4-36.9,35.4c-2.8,0-5.6-0.3-8.4-0.9l-5.2,48.9l0,0L322,224l-4.2,39.1l11.5-8H328v-31.8h3.9l0.8,4.3h0.2
	c0.9-1.5,2.2-2.8,3.8-3.6c1.7-0.9,3.6-1.3,5.5-1.3c5,0,8.2,1.8,9.7,5.4h0.2c1-1.7,2.4-3,4.1-3.9c1.9-1,4-1.5,6.1-1.4
	c3.6,0,6.3,0.9,8.1,2.8c0.2,0.2,0.4,0.4,0.6,0.7l75.5-52.1h-4.4L429,132.5l-13.3,41.7h-17.2l-20.9-68.4h19.5L408,147l12.8-41.4h16.6
	l12.9,41.6l11.2-41.3H481l-21.2,68.4h-12.1l31,45l-20.9,14.4v12.2c-0.1,1.6,0.4,3.2,1.4,4.4c1,1,2.3,1.6,3.7,1.5
	c0.8,0,1.6-0.1,2.5-0.2c0.6-0.1,1.3-0.2,1.9-0.4v3.7c-0.7,0.3-1.5,0.5-2.3,0.6c-0.9,0.2-1.8,0.2-2.7,0.2c-6.1,0-9.2-3.2-9.2-9.7
	v-9.1l-10.2,7.1v11.2H438v-7.9l-100.2,69.1h140.5l122.5-84.5v-18.4l-48-69.6C552.8,144.7,552.8,145.6,552.7,146.4z M369.5,56.3h-6.7
	v3.1h6.7v3.2h-6.7v6.5H358V53h11.5V56.3z M383.1,69.1l-1.3-2.9c-0.3-0.8-0.8-1.6-1.2-2.3c-0.3-0.4-0.6-0.7-1.1-0.9
	c-0.4-0.1-0.9-0.2-1.4-0.2h-0.5V69h-4.8V53h8.2c1.1-0.1,2.3,0.2,3.3,0.8c0.8,0.5,1.4,1.1,1.8,2c0.3,0.7,0.5,1.4,0.6,2.2
	c0,0.7-0.1,1.4-0.5,2.1c-0.2,0.5-0.6,0.9-1,1.2s-0.8,0.5-1.2,0.7c0.5,0.3,0.9,0.6,1.3,1.1c0.6,0.8,1,1.6,1.4,2.5l1.6,3.5H383.1z
	 M403.1,69.1l-1.3-3.2h-7l-1.3,3.2h-5l7.1-16h5.3l7.1,16H403.1z M428.8,69.1H424v-9.3l-4.4,5.4h-0.4l-4.4-5.4v9.3h-4.7V53h4.4l4.9,6
	l5-6h4.4V69.1z M444.9,69.1h-12.1V53h11.9v3.2h-7v2.9h6.7v3.2h-6.7v3.4h7.2V69.1z M461.7,60.2c-1,0.8-2.3,1.1-3.6,1h-2.8V68h-1.1
	V53.6h4c1.2-0.1,2.5,0.3,3.5,1c0.8,0.7,1.3,1.7,1.2,2.8C463,58.5,462.5,59.5,461.7,60.2L461.7,60.2z M476.4,68.1l-2.5-3.9
	c-0.5-0.9-1.2-1.8-2-2.5c-0.6-0.4-1.3-0.5-2.1-0.5h-2v6.9h-1.1V53.6h3.7c1.3-0.1,2.5,0.3,3.6,1c0.8,0.7,1.3,1.7,1.2,2.7
	c0,1.7-1.1,3.1-2.8,3.5c0.8,0.6,1.5,1.3,1.9,2.2l3.3,5L476.4,68.1z"/>
<path class="st0" d="M381,56.6c-0.7-0.4-1.6-0.5-2.4-0.4h-1V60h1c0.8,0.1,1.7-0.1,2.4-0.4c0.5-0.3,0.7-0.9,0.7-1.4l0,0
	C381.8,57.5,381.5,56.9,381,56.6L381,56.6z"/>
<path class="st1" d="M470.3,60.2c1,0.1,2-0.2,2.8-0.7c1.1-1,1.3-2.7,0.3-3.8l-0.3-0.3c-0.8-0.5-1.8-0.8-2.8-0.8h-2.4v5.7L470.3,60.2
	z"/>
<path class="st1" d="M461.6,56.4c-0.1-0.2-0.1-0.3-0.2-0.4v-0.1c-0.1-0.1-0.2-0.3-0.3-0.4c0,0,0,0,0-0.1l0,0l0,0l-0.1-0.2
	c-0.8-0.6-1.7-0.8-2.6-0.8l0,0h-2.8v5.8h2.7c0.2,0,0.4,0,0.6,0s0.4,0,0.6-0.1c0.6-0.1,1.2-0.3,1.6-0.7l0,0l0,0
	c0.1-0.1,0.2-0.2,0.3-0.3c0-0.1,0.1-0.1,0.1-0.2c0.1-0.1,0.1-0.2,0.2-0.3c0-0.1,0.1-0.1,0.1-0.2c0.1-0.1,0.1-0.3,0.1-0.4v-0.1
	c0-0.1,0-0.3,0.1-0.4c0-0.1,0-0.1,0-0.2c0-0.1,0-0.3,0-0.4v-0.1c0-0.1-0.1-0.3-0.1-0.4C461.6,56.5,461.6,56.5,461.6,56.4z"/>
<path class="st0" d="M319,145.7c0.3,0.9,0.6,1.8,1,2.6c0.2,0.4,0.4,0.9,0.7,1.3c0.4,0.7,0.9,1.4,1.3,2.1c0.5,0.6,1,1.2,1.5,1.7
	c1.6,1.6,3.5,2.9,5.6,3.8l3.8-36l0,0c-9.4,1.3-14.9,9.1-14.9,18.3v0.3C318.1,141.8,318.4,143.8,319,145.7z"/>
<path class="st1" d="M329.2,157.2c2.2,0.9,4.5,1.4,6.8,1.3c11,0,17.6-8.5,17.6-18.5v-0.3c0-1.1-0.1-2.2-0.3-3.3
	c-0.1-0.7-0.2-1.3-0.4-1.9c-0.2-0.6-0.3-1.1-0.5-1.6s-0.4-1-0.6-1.5c-0.2-0.4-0.3-0.7-0.5-1.1c-0.7-1.2-1.5-2.4-2.4-3.4
	c-0.1-0.1-0.1-0.2-0.2-0.2c-0.8-0.9-1.7-1.6-2.6-2.3c-1-0.7-2-1.3-3-1.8c-2.3-1-4.8-1.5-7.3-1.5c-0.9,0-1.8,0.1-2.7,0.2l0,0
	L329.2,157.2z"/>
<path class="st1" d="M517,120.2c-0.9,0.2-1.8,0.4-2.6,0.8c-1.8,0.8-3.5,1.9-4.8,3.4c-0.7,0.8-1.3,1.6-1.8,2.5
	c-0.9,1.6-1.7,3.3-2.1,5.2c-0.2,0.8-0.4,1.6-0.5,2.4h29c-0.4-3.4-1.6-6.7-3.7-9.5c-0.5-0.7-1.2-1.3-1.8-1.9c-1-0.9-2.1-1.5-3.3-2
	c-0.8-0.3-1.7-0.6-2.6-0.8C520.9,119.8,518.9,119.8,517,120.2L517,120.2z"/>
<polygon class="st0" points="318.2,63 318.2,63 315.8,57.2 315.8,57.2 313.5,63 "/>
<path class="st0" d="M230.4,56.8c-2.9-2.7-7.4-2.7-10.2,0l0,0l0,0l0,0c-0.1,0.1-0.2,0.2-0.2,0.3c-0.1,0.1-0.2,0.2-0.3,0.3
	s-0.1,0.2-0.2,0.3c-0.1,0.1-0.2,0.2-0.2,0.3c-0.1,0.1-0.1,0.2-0.2,0.3c-0.1,0.1-0.1,0.2-0.2,0.3c0,0.1-0.1,0.2-0.1,0.3
	c-0.1,0.1-0.1,0.2-0.2,0.4c0,0.1-0.1,0.2-0.1,0.3s-0.1,0.2-0.1,0.3s-0.1,0.2-0.1,0.3s-0.1,0.2-0.1,0.4c0,0.1,0,0.2,0,0.3
	s0,0.2-0.1,0.4c0,0.1,0,0.2,0,0.3s0,0.2,0,0.4c0,0.1,0,0.2,0,0.3s0,0.2,0,0.4c0,0.1,0,0.2,0,0.3s0,0.2,0.1,0.4c0,0.1,0,0.2,0.1,0.3
	c0,0.1,0.1,0.2,0.1,0.4c0,0.1,0.1,0.2,0.1,0.3c0,0.1,0.1,0.2,0.1,0.3c0,0.1,0.1,0.2,0.2,0.3c0,0.1,0.1,0.2,0.1,0.3
	c0.1,0.1,0.1,0.2,0.2,0.3c0.1,0.1,0.1,0.2,0.2,0.3c0.1,0.1,0.1,0.2,0.2,0.3c0.1,0.1,0.1,0.2,0.2,0.3c0.1,0.1,0.2,0.2,0.3,0.3
	c0.1,0.1,0.2,0.2,0.2,0.3l0,0c2.8,2.8,7.3,2.9,10.1,0.1c0.3-0.3,0.6-0.6,0.8-0.9c0.5-0.7,0.8-1.4,1.1-2.2c0.1-0.2,0.1-0.4,0.2-0.7
	c0.1-0.5,0.1-0.9,0.1-1.4c0-0.2,0-0.5,0-0.7C232.3,59.6,231.5,58,230.4,56.8L230.4,56.8z"/>
<path class="st1" d="M482.8,56.3L482.8,56.3c-0.1,0.1-0.1,0.1-0.2,0.2c-0.1,0.1-0.2,0.2-0.3,0.3l-0.1,0.1c-0.1,0.1-0.2,0.3-0.3,0.4
	c0,0,0,0.1-0.1,0.1c-0.1,0.1-0.2,0.3-0.3,0.4c-0.1,0.1-0.1,0.2-0.1,0.3s-0.1,0.2-0.1,0.2c0,0.1-0.1,0.2-0.1,0.3s-0.1,0.2-0.1,0.3
	s0,0.2-0.1,0.3c0,0.1-0.1,0.2-0.1,0.3c-0.1,0.4-0.1,0.7-0.1,1.1c0,0.1,0,0.1,0,0.2s0,0.1,0,0.2c0,0.4,0,0.7,0.1,1.1
	c0,0.1,0.1,0.2,0.1,0.3s0,0.2,0.1,0.3c0,0.1,0.1,0.2,0.1,0.3s0.1,0.2,0.1,0.3s0.1,0.2,0.1,0.2c0,0.1,0.1,0.2,0.1,0.3
	c0.1,0.1,0.2,0.3,0.3,0.4c0,0,0,0.1,0.1,0.1c0.1,0.1,0.2,0.3,0.3,0.4l0.1,0.1c0.1,0.1,0.2,0.2,0.3,0.3c0.1,0.1,0.1,0.1,0.2,0.2l0,0
	c1.2,1.2,2.9,1.9,4.6,1.8l0,0l0,0c1.7,0,3.4-0.6,4.6-1.8c0.2-0.2,0.3-0.3,0.4-0.5s0.3-0.3,0.4-0.5s0.2-0.4,0.3-0.5
	c1.3-2.5,0.8-5.5-1.1-7.5C489.4,53.8,485.3,53.8,482.8,56.3z"/>
<path class="st2" d="M458.6,60.3c0.2,0,0.4,0,0.6-0.1"/>
<path class="st2" d="M326.1,155.6c-0.9-0.6-1.8-1.4-2.6-2.2"/>
<path class="st2" d="M352.9,134.6c-0.2-0.6-0.3-1.1-0.5-1.6"/>
<path class="st2" d="M352.4,132.9c-0.2-0.5-0.4-1-0.6-1.5"/>
<path class="st2" d="M505.7,132c0.5-1.8,1.2-3.5,2.1-5.2"/>
<path class="st2" d="M507.8,126.8c0.5-0.9,1.1-1.7,1.8-2.5"/>
<g>
	<path class="st0" d="M34.6,381.7H23.5v-19.3h11.1v3.3h-7v4.2h6.5v3.3h-6.5v5h7V381.7z"/>
	<path class="st0" d="M55.6,381.7h-4.7l-4.5-7.3l-4.5,7.3h-4.4l6.4-9.9l-6-9.3h4.5l4.2,6.9l4.1-6.9h4.4l-6.1,9.6L55.6,381.7z"/>
	<path class="st0" d="M72.7,368.4c0,2.1-0.6,3.7-1.9,4.8c-1.3,1.1-3.1,1.6-5.5,1.6h-1.8v6.9h-4.1v-19.3h6.2c2.3,0,4.1,0.5,5.3,1.5
		C72.1,364.9,72.7,366.4,72.7,368.4z M63.5,371.5h1.3c1.3,0,2.2-0.2,2.8-0.7c0.6-0.5,0.9-1.2,0.9-2.2s-0.3-1.7-0.8-2.1
		s-1.3-0.7-2.5-0.7h-1.9v5.7H63.5z"/>
	<path class="st0" d="M77.7,381.7v-19.3h4.1v15.9h7.8v3.4H77.7z"/>
	<path class="st0" d="M111.8,372c0,3.2-0.8,5.6-2.4,7.4c-1.6,1.7-3.8,2.6-6.8,2.6s-5.2-0.9-6.8-2.6c-1.6-1.7-2.4-4.2-2.4-7.4
		s0.8-5.7,2.4-7.4c1.6-1.7,3.9-2.5,6.8-2.5s5.2,0.9,6.8,2.6C111,366.4,111.8,368.8,111.8,372z M97.7,372c0,2.2,0.4,3.8,1.2,4.9
		s2,1.6,3.7,1.6c3.3,0,4.9-2.2,4.9-6.5s-1.6-6.5-4.9-6.5c-1.6,0-2.9,0.5-3.7,1.6S97.7,369.9,97.7,372z"/>
	<path class="st0" d="M121.2,374.3v7.4h-4.1v-19.3h5.6c2.6,0,4.6,0.5,5.8,1.4c1.3,1,1.9,2.4,1.9,4.3c0,1.1-0.3,2.1-0.9,3
		c-0.6,0.9-1.5,1.6-2.6,2.1c2.9,4.3,4.8,7.1,5.7,8.4H128l-4.6-7.4h-2.2V374.3z M121.2,371h1.3c1.3,0,2.2-0.2,2.9-0.6s0.9-1.1,0.9-2
		s-0.3-1.6-0.9-2s-1.6-0.6-2.9-0.6h-1.2v5.2H121.2z"/>
	<path class="st0" d="M147.4,381.7h-11.1v-19.3h11.1v3.3h-7v4.2h6.5v3.3h-6.5v5h7V381.7z"/>
	<path class="st0" d="M156.9,374.3v7.4h-4.1v-19.3h5.6c2.6,0,4.6,0.5,5.8,1.4c1.3,1,1.9,2.4,1.9,4.3c0,1.1-0.3,2.1-0.9,3
		c-0.6,0.9-1.5,1.6-2.6,2.1c2.9,4.3,4.8,7.1,5.7,8.4h-4.5l-4.6-7.4h-2.3V374.3z M156.9,371h1.3c1.3,0,2.2-0.2,2.9-0.6s0.9-1.1,0.9-2
		s-0.3-1.6-0.9-2s-1.6-0.6-2.9-0.6H157v5.2H156.9z"/>
	<path class="st0" d="M184.3,381.7h-4v-19.3h11v3.3h-7v5h6.5v3.3h-6.5V381.7z"/>
	<path class="st0" d="M214,372c0,3.2-0.8,5.6-2.4,7.4c-1.6,1.7-3.8,2.6-6.8,2.6s-5.2-0.9-6.8-2.6s-2.4-4.2-2.4-7.4s0.8-5.7,2.4-7.4
		c1.6-1.7,3.9-2.5,6.8-2.5s5.2,0.9,6.8,2.6C213.2,366.4,214,368.8,214,372z M199.9,372c0,2.2,0.4,3.8,1.2,4.9s2,1.6,3.7,1.6
		c3.3,0,4.9-2.2,4.9-6.5s-1.6-6.5-4.9-6.5c-1.6,0-2.9,0.5-3.7,1.6C200.3,368.2,199.9,369.9,199.9,372z"/>
	<path class="st0" d="M223.4,374.3v7.4h-4.1v-19.3h5.6c2.6,0,4.6,0.5,5.8,1.4c1.3,1,1.9,2.4,1.9,4.3c0,1.1-0.3,2.1-0.9,3
		c-0.6,0.9-1.5,1.6-2.6,2.1c2.9,4.3,4.8,7.1,5.7,8.4h-4.5l-4.6-7.4h-2.3V374.3z M223.4,371h1.3c1.3,0,2.2-0.2,2.9-0.6s0.9-1.1,0.9-2
		s-0.3-1.6-0.9-2s-1.6-0.6-2.9-0.6h-1.2v5.2H223.4z"/>
	<path class="st0" d="M257.8,362.4h4.1l-6.6,19.3H251l-6.5-19.3h4.1l3.6,11.5c0.2,0.7,0.4,1.5,0.6,2.4c0.2,0.9,0.3,1.5,0.4,1.9
		c0.1-0.8,0.4-2.2,1-4.2L257.8,362.4z"/>
	<path class="st0" d="M265.7,381.7v-19.3h4.1v19.3H265.7z"/>
	<path class="st0" d="M287.4,376.3c0,1.7-0.6,3.1-1.9,4.1s-3,1.5-5.2,1.5c-2.1,0-3.9-0.4-5.5-1.2V377c1.3,0.6,2.4,1,3.3,1.2
		s1.7,0.4,2.5,0.4c0.9,0,1.6-0.2,2.1-0.5s0.7-0.9,0.7-1.5c0-0.4-0.1-0.7-0.3-1c-0.2-0.3-0.5-0.6-0.9-0.9s-1.2-0.7-2.5-1.3
		c-1.2-0.6-2.1-1.1-2.6-1.6s-1.1-1.1-1.4-1.8s-0.5-1.5-0.5-2.4c0-1.7,0.6-3,1.7-4c1.2-1,2.8-1.5,4.8-1.5c1,0,2,0.1,2.9,0.4
		c0.9,0.2,1.9,0.6,2.9,1l-1.3,3.2c-1-0.4-1.9-0.7-2.6-0.9c-0.7-0.2-1.3-0.3-2-0.3c-0.8,0-1.4,0.2-1.8,0.5s-0.6,0.8-0.6,1.4
		c0,0.4,0.1,0.7,0.3,0.9c0.2,0.3,0.4,0.5,0.8,0.8s1.2,0.7,2.6,1.4c1.8,0.9,3,1.7,3.7,2.6C287.1,374,287.4,375.1,287.4,376.3z"/>
	<path class="st0" d="M307.9,362.4v12.5c0,1.4-0.3,2.7-1,3.7s-1.6,1.9-2.8,2.5c-1.2,0.6-2.6,0.9-4.3,0.9c-2.5,0-4.4-0.6-5.8-1.9
		s-2.1-3-2.1-5.2v-12.4h4.1v11.8c0,1.5,0.3,2.6,0.9,3.3s1.6,1,3,1c1.3,0,2.3-0.3,2.9-1s0.9-1.8,0.9-3.3v-11.8h4.2V362.4z"/>
	<path class="st0" d="M325.8,381.7l-1.4-4.6h-7l-1.4,4.6h-4.4l6.8-19.4h5l6.8,19.4H325.8z M323.4,373.7c-1.3-4.2-2-6.5-2.2-7.1
		c-0.2-0.5-0.3-1-0.3-1.3c-0.3,1.1-1.1,3.9-2.5,8.3h5V373.7z"/>
	<path class="st0" d="M334,381.7v-19.3h4.1v15.9h7.8v3.4H334z"/>
	<path class="st0" d="M370.3,376.3c0,1.7-0.6,3.1-1.9,4.1s-3,1.5-5.2,1.5c-2.1,0-3.9-0.4-5.5-1.2V377c1.3,0.6,2.4,1,3.3,1.2
		s1.7,0.4,2.5,0.4c0.9,0,1.6-0.2,2.1-0.5s0.7-0.9,0.7-1.5c0-0.4-0.1-0.7-0.3-1c-0.2-0.3-0.5-0.6-0.9-0.9s-1.2-0.7-2.5-1.3
		c-1.2-0.6-2.1-1.1-2.7-1.6s-1.1-1.1-1.4-1.8s-0.5-1.5-0.5-2.4c0-1.7,0.6-3,1.7-4c1.2-1,2.8-1.5,4.8-1.5c1,0,2,0.1,2.9,0.4
		c0.9,0.2,1.9,0.6,2.9,1l-1.3,3.2c-1-0.4-1.9-0.7-2.6-0.9c-0.7-0.2-1.3-0.3-2-0.3c-0.8,0-1.4,0.2-1.8,0.5s-0.6,0.8-0.6,1.4
		c0,0.4,0.1,0.7,0.3,0.9c0.2,0.3,0.4,0.5,0.8,0.8s1.2,0.7,2.6,1.4c1.8,0.9,3,1.7,3.7,2.6C370,374,370.3,375.1,370.3,376.3z"/>
	<path class="st0" d="M382.6,381.7h-4.1v-15.9h-5.2v-3.4h14.6v3.4h-5.2L382.6,381.7L382.6,381.7z"/>
	<path class="st0" d="M407.9,362.4v12.5c0,1.4-0.3,2.7-1,3.7c-0.6,1.1-1.6,1.9-2.8,2.5c-1.2,0.6-2.6,0.9-4.3,0.9
		c-2.5,0-4.4-0.6-5.8-1.9s-2.1-3-2.1-5.2v-12.4h4.1v11.8c0,1.5,0.3,2.6,0.9,3.3s1.6,1,3,1c1.3,0,2.3-0.3,2.9-1s0.9-1.8,0.9-3.3
		v-11.8h4.2V362.4z"/>
	<path class="st0" d="M429.9,371.9c0,3.2-0.9,5.6-2.7,7.3c-1.8,1.7-4.4,2.5-7.8,2.5h-5.5v-19.3h6.1c3.1,0,5.6,0.8,7.3,2.5
		C429,366.6,429.9,368.9,429.9,371.9z M425.7,372c0-4.1-1.8-6.2-5.5-6.2H418v12.6h1.8C423.7,378.3,425.7,376.2,425.7,372z"/>
	<path class="st0" d="M435.3,381.7v-19.3h4.1v19.3H435.3z"/>
	<path class="st0" d="M463,372c0,3.2-0.8,5.6-2.4,7.4c-1.6,1.7-3.8,2.6-6.8,2.6s-5.2-0.9-6.8-2.6c-1.6-1.7-2.4-4.2-2.4-7.4
		s0.8-5.7,2.4-7.4c1.6-1.7,3.9-2.5,6.8-2.5s5.2,0.9,6.8,2.6S463,368.8,463,372z M449,372c0,2.2,0.4,3.8,1.2,4.9s2,1.6,3.7,1.6
		c3.3,0,4.9-2.2,4.9-6.5s-1.6-6.5-4.9-6.5c-1.6,0-2.9,0.5-3.7,1.6S449,369.9,449,372z"/>
	<path class="st0" d="M484.9,365.5c-1.5,0-2.7,0.6-3.6,1.7c-0.8,1.2-1.3,2.8-1.3,4.8c0,4.3,1.6,6.4,4.8,6.4c1.4,0,3-0.3,4.9-1v3.4
		c-1.6,0.7-3.3,1-5.3,1c-2.8,0-4.9-0.9-6.4-2.6s-2.2-4.1-2.2-7.3c0-2,0.4-3.8,1.1-5.3s1.8-2.7,3.1-3.5c1.4-0.8,3-1.2,4.8-1.2
		c1.9,0,3.8,0.5,5.6,1.4l-1.3,3.3c-0.7-0.3-1.4-0.6-2.2-0.9S485.6,365.5,484.9,365.5z"/>
	<path class="st0" d="M512.8,372c0,3.2-0.8,5.6-2.4,7.4c-1.6,1.7-3.8,2.6-6.8,2.6s-5.2-0.9-6.8-2.6c-1.6-1.7-2.4-4.2-2.4-7.4
		s0.8-5.7,2.4-7.4c1.6-1.7,3.9-2.5,6.8-2.5c3,0,5.2,0.9,6.8,2.6C512,366.4,512.8,368.8,512.8,372z M498.7,372c0,2.2,0.4,3.8,1.2,4.9
		c0.8,1.1,2,1.6,3.7,1.6c3.3,0,4.9-2.2,4.9-6.5s-1.6-6.5-4.9-6.5c-1.6,0-2.9,0.5-3.7,1.6S498.7,369.9,498.7,372z"/>
	<path class="st0" d="M534.1,371.9c0,3.2-0.9,5.6-2.7,7.3c-1.8,1.7-4.4,2.5-7.8,2.5h-5.5v-19.3h6.1c3.1,0,5.6,0.8,7.3,2.5
		C533.3,366.6,534.1,368.9,534.1,371.9z M529.9,372c0-4.1-1.8-6.2-5.5-6.2h-2.2v12.6h1.8C527.9,378.3,529.9,376.2,529.9,372z"/>
	<path class="st0" d="M550.6,381.7h-11.1v-19.3h11.1v3.3h-7v4.2h6.5v3.3h-6.5v5h7V381.7z"/>
	<path class="st0" d="M562.7,376.1v-3.3h7.1v3.3H562.7z"/>
	<path class="st0" d="M251.8,417.7h-14.3V415l9.2-13.2h-9v-3.4h13.8v2.6l-9.2,13.3h9.5V417.7z"/>
	<path class="st0" d="M273.7,408c0,3.2-0.8,5.6-2.4,7.4c-1.6,1.7-3.8,2.6-6.8,2.6s-5.2-0.9-6.8-2.6c-1.6-1.7-2.4-4.2-2.4-7.4
		s0.8-5.7,2.4-7.4c1.6-1.7,3.9-2.5,6.8-2.5s5.2,0.9,6.8,2.6C272.9,402.4,273.7,404.8,273.7,408z M259.7,408c0,2.2,0.4,3.8,1.2,4.9
		s2,1.6,3.7,1.6c3.3,0,4.9-2.2,4.9-6.5s-1.6-6.5-4.9-6.5c-1.6,0-2.9,0.5-3.7,1.6S259.7,405.9,259.7,408z"/>
	<path class="st0" d="M297.8,417.7h-4.7l-2.6-10.1c-0.1-0.4-0.3-1.1-0.5-2.2s-0.4-1.9-0.4-2.3c-0.1,0.5-0.2,1.2-0.4,2.3
		c-0.2,1.1-0.4,1.8-0.5,2.2l-2.6,10.1h-4.6l-4.9-19.3h4l2.5,10.5c0.4,1.9,0.7,3.6,0.9,5c0.1-0.5,0.2-1.3,0.4-2.3
		c0.2-1.1,0.4-1.9,0.5-2.4l2.8-10.8h3.9l2.8,10.8c0.1,0.5,0.3,1.2,0.5,2.2s0.3,1.8,0.4,2.6c0.1-0.7,0.2-1.5,0.4-2.6
		c0.2-1,0.4-1.9,0.5-2.5l2.5-10.5h4L297.8,417.7z"/>
	<path class="st0" d="M317.6,417.7h-11.1v-19.3h11.1v3.3h-7v4.2h6.5v3.3h-6.5v5h7V417.7z"/>
	<path class="st0" d="M342.4,398.4h4.1l-6.6,19.3h-4.5l-6.5-19.3h4.1l3.6,11.5c0.2,0.7,0.4,1.5,0.6,2.4s0.3,1.5,0.4,1.9
		c0.1-0.8,0.4-2.2,1-4.2L342.4,398.4z"/>
	<path class="st0" d="M359,417.7h-4.1v-11.2v-1.8l0.1-2c-0.7,0.7-1.1,1.1-1.4,1.3l-2.2,1.8l-2-2.5l6.2-4.9h3.3v19.3H359z"/>
</g>
</svg>
