<svg id="Layer_1" data-name="Layer 1" xmlns="http://www.w3.org/2000/svg" viewBox="0 0 601.4126 443.90552"><defs><style>.cls-1,.cls-2{fill:#fff;}.cls-2{opacity:0.8;}.cls-3{fill:none;stroke:#fff;stroke-linecap:round;stroke-linejoin:round;stroke-width:0;}</style></defs><path class="cls-1" d="M.86466,443.92482h600V332.95448h-600ZM4.46481,336.55446H597.26456V440.32484H4.46481Z"/><path class="cls-1" d="M244.388,55.8694a.67389.67389,0,0,0-.16193-.16187,4.31938,4.31938,0,0,0-2.8955-.88342h-3.20545V61.346h3.01575a4.65431,4.65431,0,0,0,2.81335-.70685c.08509-.05163.17591-.09179.258-.14886a3.28759,3.28759,0,0,0,.43762-.49683,3.27077,3.27077,0,0,0-.26184-4.124Z"/><path class="cls-1" d="M280.8027,226.87379q-4.72264,0-7.12792,3.1001-2.40528,3.10035-2.4043,9.24268,0,6.08423,2.43359,9.27148a9.65909,9.65909,0,0,0,14.32715.01416q2.44776-3.17212,2.44824-9.28564,0-6.05566-2.44824-9.19922Q285.58346,226.87379,280.8027,226.87379Z"/><path class="cls-1" d="M401.59274,239.50612l-4.80957.20263q-5.73778.20362-8.27246,1.78223a5.3722,5.3722,0,0,0-2.53515,4.91065,4.955,4.955,0,0,0,1.5791,3.96972,6.553,6.553,0,0,0,4.41894,1.36182,9.76088,9.76088,0,0,0,7.05469-2.46289,9.11213,9.11213,0,0,0,2.56445-6.89551Z"/><path class="cls-1" d="M537.51914.0193h-83.886l37.4809,54.34827a7.90072,7.90072,0,0,1,1.65985,1.19336l.00091.00085a7.21853,7.21853,0,0,1,2.20337,4.40881l4.5379,6.58014V53.591h1.11475V68.08711c.00281.02716-.00153.054.00079.08118l25.32965,36.72864c18.46778,2.87616,26.99573,18.97308,26.99573,36.4223,0,.80517-.03668,1.68347-.089,2.59314l47.99665,69.59637V63.36482A63.34555,63.34555,0,0,0,537.51914.0193ZM513.616,68.05531h-8.043v-14.464h7.886v.929h-6.767v5.782h6.591v.944h-6.591v5.87h6.924Zm16.205-1.14447a10.747,10.747,0,0,1-5.11579,1.35065,7.58247,7.58247,0,0,1-5.50891-2.11847,7.4065,7.4065,0,0,1-.00464-10.47205h.00025l.00439-.00457a.533.533,0,0,0,.10181-.10181,7.54591,7.54591,0,0,1,5.35162-2.13233,12.1507,12.1507,0,0,1,5.02789,1.19129V54.621l.06.02777c-.01953-.00953-.04034-.01581-.06-.02521v1.21387a11.06885,11.06885,0,0,0-5.162-1.4477,6.07629,6.07629,0,0,0-4.49128,1.841,6.20853,6.20853,0,0,0-1.81317,4.57916,6.13289,6.13289,0,0,0,1.81317,4.607,6.38122,6.38122,0,0,0,4.6532,1.7854,10.927,10.927,0,0,0,5.1435-1.44775ZM544.071,54.52028H538.65v13.535h-1.133v-13.535h-5.435v-.929h11.989Z"/><polygon class="cls-1" points="0.865 316.341 130.321 316.341 0.865 128.626 0.865 316.341"/><path class="cls-1" d="M64.21024.0193h-.00006A63.34555,63.34555,0,0,0,.86466,63.36482v40.84247L151.93991.0193Z"/><path class="cls-1" d="M438.041,234.58082q0-3.88255-1.76758-5.79492-1.76661-1.91235-5.53321-1.91211-4.98339,0-7.30175,2.69434-2.31738,2.69459-2.31739,8.895v16.65967h-4.80957V223.36793h3.91114l.78222,4.3462h.23145a9.8244,9.8244,0,0,1,4.14355-3.63624,13.46511,13.46511,0,0,1,5.93946-1.28955q5.73633,0,8.63379,2.76709t2.89746,8.85157v9.5271l10.22754-7.05335v-9.775h-4.54883v-2.31787l4.54883-1.99958,2.02832-6.77978h2.78125v7.35937h9.21289v3.7378h-9.21289v6.45819l20.89715-14.41156-31.04089-45.01h-.904l-75.5412,52.09649q2.099,2.78651,2.1026,8.16822v20.71582h-4.80957V234.46461a8.964,8.964,0,0,0-1.39813-5.39483L353.14847,238.756v16.36676H348.3389V242.07289l-15.41309,10.62952v2.42035h-3.50958l-11.53009,7.95166,4.17035-39.134-.54675,3.65747a16.39663,16.39663,0,0,0-3.47657-.43457,8.46546,8.46546,0,0,0-6.59179,3.1294,11.40976,11.40976,0,0,0-2.73731,7.79394v17.03614H303.8945V223.36793h3.96875l.55078,5.88184h.23145a13.95672,13.95672,0,0,1,4.25976-4.78076,9.58878,9.58878,0,0,1,5.47559-1.68073,18.85827,18.85827,0,0,1,3.7619.34278l5.20575-48.85041c-16.65692-3.5263-28.23163-17.41418-28.23163-34.22857v-.25373c0-19.14166,15.12165-34.73724,35.67108-35.32879l3.77222-35.39826H336.586v-16.028h3.68225l3.20691-30.09345L327.66123.0193h-35.182L162.04752,89.97078l31.00207,44.95379-37.20764,25.66-.35223.94635,86.273-59.49762H216.742v-17.108h49.8277l14.44892-9.9646-1.062,9.9646H289.105v14.827L276.85764,114.0038l-4.53192,42.5235H289.105v17.108H270.50247l-15.075,141.45135.86493,1.25421h81.56647L438.041,247.251ZM327.70194,53.04414h4.82434V69.0713h-4.82434Zm-96.11872,14.499a.14239.14239,0,0,0-.037.03705l-.2035.19886a8.83818,8.83818,0,0,1-12.11871,0,8.20128,8.20128,0,0,1-.15723-11.59131l.15723-.16193a8.34421,8.34421,0,0,1,6.04547-2.40521v-.04163a8.30714,8.30714,0,0,1,6.07324,2.40521A8.17578,8.17578,0,0,1,231.58322,67.5431Zm13.57251-6.32666a6.06357,6.06357,0,0,1-4.01489,1.17487h-3.08972v7.521h-1.24433l.0694-16.13361h4.45429a5.99422,5.99422,0,0,1,3.91308,1.14716,4.22627,4.22627,0,0,1-.08783,6.29058ZM257.998,69.94227h-9.001V53.78132h8.811v1.045h-7.567v6.462h7.368v1.045h-7.368v6.564h7.757Zm17.117,0h-1.031l-12.272-14.136v14.136h-1.248V53.78132h1.058l12.244,14.116v-14.116h1.249ZM313.15024,53.041h5.40716l6.99823,16.0318H320.611l-1.31817-3.24713h-6.95673l-1.332,3.24713h-4.9447ZM291.55173,251.34157q-3.91113,4.36157-10.80664,4.36084a14.31294,14.31294,0,0,1-7.5625-1.99952,13.196,13.196,0,0,1-5.09961-5.73632,19.99679,19.99679,0,0,1-1.7959-8.75q0-7.7644,3.88281-12.09668,3.88184-4.33082,10.77735-4.33155a13.43438,13.43438,0,0,1,10.58984,4.43311q3.92578,4.43262,3.92578,11.99512Q295.46286,246.9817,291.55173,251.34157ZM294.725,65.15828h-.388l-4.367-5.376v9.289h-4.695v-16.028h4.381l4.926,6.014,4.94-6.014h4.394v16.028h-4.843v-9.289Zm111.6773,189.96466-3.56445-.00012-.95605-4.52h-.23145a13.36339,13.36339,0,0,1-4.7373,4.042,14.43723,14.43723,0,0,1-5.89551,1.05762,10.6049,10.6049,0,0,1-7.40332-2.43409,8.87343,8.87343,0,0,1-2.67969-6.92431q0-9.6189,15.38477-10.083l5.38867-.17383V234.117q0-3.73746-1.60742-5.519-1.6084-1.782-5.14258-1.78223a20.95377,20.95377,0,0,0-8.98242,2.43408l-1.47754-3.67969a22.60577,22.60577,0,0,1,5.14258-1.999,22.27212,22.27212,0,0,1,5.60644-.72461q5.67919,0,8.417,2.52051,2.7378,2.521,2.73828,8.084Z"/><polygon class="cls-1" points="600.865 316.341 600.865 231.883 478.399 316.341 600.865 316.341"/><path class="cls-1" d="M361.92777,226.87373q-4.49121,0-6.63477,2.57862-2.14454,2.57885-2.14453,7.93847V238.756l14.04517-9.68622c-.074-.10041-.1449-.20453-.22486-.298A6.27434,6.27434,0,0,0,361.92777,226.87373Z"/><polygon class="cls-1" points="272.326 156.527 276.858 114.004 240.314 156.527 272.326 156.527"/><polygon class="cls-1" points="281.019 74.961 266.57 84.925 279.957 84.925 281.019 74.961"/><polygon class="cls-1" points="152.916 121.983 120.818 144.119 127.157 84.631 120.43 74.877 72.824 107.708 80.586 118.963 111.684 97.516 105.344 157.004 112.072 166.759 160.678 133.238 152.916 121.983"/><path class="cls-2" d="M270.50247,173.63527H215.221v-14.827l48.791-56.775H241.76273l-86.273,59.49762.35223-.94635-53.69769,37.03222L39.45206,106.7115l90.90533-62.6922,31.69013,45.95148L292.47922.0193H151.93991L.86466,104.20729v24.41907L130.32059,316.34083h125.9718l-.86493-1.25421ZM145.94626,246.79268q3.89649,4.53515,11.11133,4.53467a37.93348,37.93348,0,0,0,10.11133-1.59375V254.051a31.1501,31.1501,0,0,1-10.86524,1.65137q-9.35889,0-14.44336-5.67872-5.08447-5.67846-5.084-16.13818a25.465,25.465,0,0,1,2.4483-11.47363,17.57369,17.57369,0,0,1,7.06934-7.59082,21.3954,21.3954,0,0,1,10.8789-2.66553,26.25155,26.25155,0,0,1,11.64746,2.43359l-2.08593,4.23a22.45368,22.45368,0,0,0-9.61915-2.25976q-6.983,0-11.02441,4.65039-4.04151,4.65015-4.042,12.7334Q142.0488,242.259,145.94626,246.79268Zm53.23822,4.54889q-3.91113,4.36157-10.80664,4.36084a14.31294,14.31294,0,0,1-7.5625-1.99952,13.19677,13.19677,0,0,1-5.09961-5.73632,19.99778,19.99778,0,0,1-1.7959-8.75q0-7.7644,3.88281-12.09668,3.88184-4.33082,10.77735-4.33155a13.43436,13.43436,0,0,1,10.58984,4.43311q3.92579,4.43262,3.92578,11.99512Q203.09561,246.9817,199.18448,251.34157Zm38.88184,3.78125h-4.80951v-20.542q-.00009-3.88255-1.76758-5.79492-1.7667-1.91235-5.5332-1.91211-4.9835,0-7.30176,2.69434-2.31748,2.69459-2.31739,8.895v16.65967h-4.80957V223.36793h3.91114l.78222,4.3462h.23145a9.82369,9.82369,0,0,1,4.14355-3.63624,13.46574,13.46574,0,0,1,5.9394-1.28961q5.73632,0,8.63378,2.76709t2.89747,8.85157Zm16.10937,0h-4.80957V227.10573h-5.67871v-2.17334l5.67871-1.73828V221.427q0-11.70558,10.22858-11.70557a21.057,21.057,0,0,1,5.91015,1.01416l-1.24609,3.85352a15.917,15.917,0,0,0-4.751-.89844,4.62837,4.62837,0,0,0-4.02734,1.811q-1.30518,1.81128-1.30469,5.80908v2.05713h8.084l.00006,3.73786h-8.08405Z"/><path class="cls-2" d="M188.43546,226.87379q-4.72266,0-7.12793,3.1001-2.40528,3.10035-2.4043,9.24268,0,6.08423,2.43359,9.27148a9.65865,9.65865,0,0,0,14.32715.01416q2.44776-3.17212,2.44824-9.28564,0-6.05566-2.44824-9.19922Q193.21623,226.87379,188.43546,226.87379Z"/><path class="cls-1" d="M346.71683,228.77174q-1.623-1.89769-5.07031-1.898-4.52052,0-6.62012,2.709-2.10206,2.70923-2.10059,8.88037v14.23932l15.41309-10.62952v-7.60828Q348.3389,230.66994,346.71683,228.77174Z"/><polygon class="cls-1" points="398.33 57.232 398.33 57.232 395.967 63.027 400.68 63.027 399.765 60.77 398.33 57.232"/><path class="cls-2" d="M552.70328,146.38826H505.4335c1.90027,8.74457,7.98346,13.307,16.60157,13.307,6.4627,0,11.15155-2.02753,16.47436-6.9701l11.02582,9.758c-6.33692,7.85693-15.461,12.67309-27.75385,12.67309-20.40356,0-35.48431-14.32037-35.48431-35.10412v-.25373c0-19.3894,13.81366-35.357,33.58331-35.357a39.48367,39.48367,0,0,1,6.08087.45557L500.63162,68.16829a4.68582,4.68582,0,0,1-.89813,3.1936,2.89912,2.89912,0,0,1-2.13238.91583q-.33289.01383-.666.00006l-.10181-1.04534a3.47773,3.47773,0,0,0,.65223.074c1.36456,0,2.03051-.95746,2.03051-2.90009V66.55073l-4.5379-6.58014a7.23318,7.23318,0,0,1-1.94525,5.8404c-.02777.02771-.05548.05542-.08325.08783l-.17578.185a7.906,7.906,0,0,1-10.8559,0,7.33879,7.33879,0,0,1-.15259-10.37024l.00922-.00464.14337-.148a7.90893,7.90893,0,0,1,9.19605-1.19336L453.63315.0193H327.66123l15.8139,22.93054-3.20691,30.09345h.60577l8.289,8.881v-8.881h4.815v16.028h-4.292l-8.317-8.928v8.928h-2.80884l-3.77222,35.39826c.40174-.01154.8017-.02826,1.20752-.02826,21.03675,0,36.62421,15.58746,36.62415,35.10406v.253c0,19.51667-15.71393,35.35785-36.87787,35.35785a40.46251,40.46251,0,0,1-8.39325-.87555l-5.20575,48.85041.034.00488-.12024.80444-4.17035,39.134,11.53009-7.95166h-1.3V223.36793h3.91114l.78222,4.3462h.23139a9.454,9.454,0,0,1,3.83886-3.62159,11.727,11.727,0,0,1,5.54883-1.3042q7.44581,0,9.73535,5.38916h.23145a10.1311,10.1311,0,0,1,4.11426-3.94043,12.76979,12.76979,0,0,1,6.14257-1.44873q5.38917,0,8.06934,2.76709a7.24,7.24,0,0,1,.57709.68335l75.5412-52.09649H442.447l-13.053-41.694-13.306,41.694H398.853l-20.911-68.434h19.517l10.899,41.187,12.799-41.44h16.602l12.926,41.567,11.152-41.314h19.137l-21.165,68.434H447.74393l31.04089,45.01-20.89715,14.41156v12.22931a6.42771,6.42771,0,0,0,1.36132,4.40429,4.73811,4.73811,0,0,0,3.73731,1.53571,15.65977,15.65977,0,0,0,2.46289-.18848,15.95308,15.95308,0,0,0,1.88379-.39111v3.67969a8.80192,8.80192,0,0,1-2.30371.62255,17.30953,17.30953,0,0,1-2.73828.24659q-9.21242.00009-9.21289-9.70606v-9.1156l-10.22754,7.05335v11.18872H438.041V247.251L337.85886,316.34083H478.39859L600.86466,231.883V213.50874L552.868,143.91237C552.8215,144.72084,552.76279,145.55366,552.70328,146.38826ZM369.487,56.25929h-6.651v3.104h6.651v3.215h-6.651v6.493h-4.829V53.0403h11.48Zm13.57922,12.81152-1.25811-2.8955a12.41619,12.41619,0,0,0-1.24884-2.28028,2.68973,2.68973,0,0,0-1.08234-.92511,3.928,3.928,0,0,0-1.3645-.20349h-.53656v6.26288H372.733V53.04371h8.21942a5.92555,5.92555,0,0,1,3.26093.80945,4.86763,4.86763,0,0,1,1.84088,1.95661,5.0652,5.0652,0,0,1,.55048,2.20172,4.07661,4.07661,0,0,1-.46253,2.05829,3.75958,3.75958,0,0,1-.98523,1.21643,10.99658,10.99658,0,0,1-1.17486.72625,4.44849,4.44849,0,0,1,1.27661,1.07306,12.79239,12.79239,0,0,1,1.42,2.47925l1.57727,3.506Zm20.03278.002-1.30432-3.24713H394.838l-1.332,3.24713h-4.95849l7.08612-16.0318h5.347l7.063,16.0318Zm25.713-.00153h-4.824v-9.289l-4.367,5.376h-.374l-4.381-5.376v9.289h-4.695v-16.028h4.395l4.912,6.014,4.958-6.014h4.376Zm16.132,0H432.858v-16.028h11.883v3.215h-7.045v2.928h6.726v3.233h-6.726v3.41894h7.248Zm16.78125-8.82574a5.38169,5.38169,0,0,1-3.60785,1.04071h-2.75213v6.77167h-1.11481V53.58955h3.98718a5.18634,5.18634,0,0,1,3.48761,1.0315,3.40676,3.40676,0,0,1,1.22113,2.7984A3.52078,3.52078,0,0,1,461.72525,60.24556Zm14.65613,7.81238-2.52094-3.94086a9.41872,9.41872,0,0,0-1.95648-2.47925,3.6479,3.6479,0,0,0-2.05835-.49487h-1.99817l-.00006,6.94275h-1.11474l.04162-14.49616H470.47a5.48654,5.48654,0,0,1,3.56623,1.01758,3.33955,3.33955,0,0,1,1.23034,2.72437,3.59368,3.59368,0,0,1-2.75207,3.5061,6.6942,6.6942,0,0,1,1.92877,2.22021l3.27484,5.00013Z"/><path class="cls-1" d="M380.95242,56.56373a4.73089,4.73089,0,0,0-2.36364-.44866h-1.013v3.87152h1.03149a5.41749,5.41749,0,0,0,2.433-.39319,1.61842,1.61842,0,0,0,.65229-1.44776v-.04632a1.62093,1.62093,0,0,0-.74012-1.53559Z"/><path class="cls-2" d="M470.28037,60.18544a4.66015,4.66015,0,0,0,2.81231-.74,2.72581,2.72581,0,0,0,.31909-3.83918l-.333-.33294a4.634,4.634,0,0,0-2.82617-.754h-2.36353l.00006,5.6662Z"/><path class="cls-2" d="M461.596,56.44447a2.88258,2.88258,0,0,0-.20105-.43457c-.01459-.02667-.02252-.05572-.038-.08209a2.91873,2.91873,0,0,0-.30944-.42108c-.01441-.0166-.02362-.03583-.0384-.05219l-.00073-.001a.2606.2606,0,0,1-.03241-.037l-.14343-.15729a4.01268,4.01268,0,0,0-2.64111-.78162h-.00006l-2.82605.04157.00006,5.79572H458.048a3.61465,3.61465,0,0,0,.55377-.00287,4.98228,4.98228,0,0,0,.55145-.0763,4.18609,4.18609,0,0,0,1.647-.68866l.00147-.00134.00006-.00006a2.85319,2.85319,0,0,0,.25207-.27869c.04523-.05291.1-.1001.14075-.15551a2.83639,2.83639,0,0,0,.19684-.33173c.02923-.05359.06787-.10291.0935-.1579a2.87062,2.87062,0,0,0,.14118-.4c.01288-.04328.03424-.08423.045-.128a2.8993,2.8993,0,0,0,.05847-.39557c.00544-.05182.02015-.10248.02277-.15448a2.91332,2.91332,0,0,0-.01855-.41608c-.00428-.04639.00018-.093-.00629-.13916a2.90318,2.90318,0,0,0-.105-.43494C461.61154,56.51765,461.60837,56.48012,461.596,56.44447Z"/><path class="cls-1" d="M319.02481,145.74373a19.45434,19.45434,0,0,0,1.00891,2.59857q.31732.67145.683,1.31213a18.58135,18.58135,0,0,0,1.34448,2.05811,17.68717,17.68717,0,0,0,1.48041,1.7041,17.11054,17.11054,0,0,0,5.62622,3.79132l3.83191-35.95807v-.00006c-9.35962,1.29187-14.87366,9.14813-14.87366,18.29553v.253A20.22968,20.22968,0,0,0,319.02481,145.74373Z"/><path class="cls-2" d="M329.16782,157.208a17.7005,17.7005,0,0,0,6.82763,1.34668c11.025,0,17.61493-8.49084,17.61493-18.50256v-.25373a19.95531,19.95531,0,0,0-.28375-3.30255c-.10986-.65552-.24286-1.30353-.41467-1.93707q-.22715-.83761-.52313-1.64587c-.18915-.51722-.3913-1.02808-.62122-1.52381q-.25443-.54849-.541-1.07782a18.36393,18.36393,0,0,0-2.366-3.41186c-.06665-.07556-.12482-.15869-.19269-.233a17.40352,17.40352,0,0,0-2.59448-2.32885,16.92936,16.92936,0,0,0-3.04889-1.772,17.6716,17.6716,0,0,0-7.28278-1.5227,19.89537,19.89537,0,0,0-2.742.207v.00006Z"/><path class="cls-2" d="M517.01871,120.16438a13.37607,13.37607,0,0,0-2.58978.76557,13.0755,13.0755,0,0,0-4.77942,3.40173,15.70325,15.70325,0,0,0-1.817,2.48645,20.59726,20.59726,0,0,0-2.12878,5.15436q-.30963,1.14624-.52387,2.377h29.02088a19.22732,19.22732,0,0,0-3.67859-9.455,13.44352,13.44352,0,0,0-1.81733-1.89947,12.47921,12.47921,0,0,0-3.32562-2.04718,13.2365,13.2365,0,0,0-2.60162-.7782,15.79372,15.79372,0,0,0-5.75885-.00525Z"/><polygon class="cls-1" points="318.192 63.027 318.192 63.027 315.842 57.232 315.842 57.232 313.469 63.027 318.192 63.027"/><path class="cls-1" d="M230.37143,56.826a7.37222,7.37222,0,0,0-10.21765,0v.00006l-.00055.00055-.00574.00568c-.08227.08209-.15393.17047-.23138.25543-.08618.09467-.17743.18628-.25763.2843-.07062.08618-.13092.17768-.19684.26636-.07715.10376-.15912.20514-.23.312-.05621.08478-.10266.17395-.15485.26056-.06982.11591-.14386.23-.2066.34876-.04541.086-.08118.17553-.1228.26287-.05878.12342-.12158.24537-.17292.37128-.04138.1015-.07232.20593-.10882.30884-.04083.115-.08649.22876-.12128.34534-.03113.10449-.05188.21106-.07812.31659-.02942.11816-.06366.23523-.087.35449-.01971.10077-.02936.20282-.04468.3042-.019.12518-.04242.24994-.05468.37579-.01075.11005-.011.2207-.0166.33106-.00605.11828-.01716.23632-.0174.35473-.00018.10919.01007.21814.01483.32721.00525.11963.00556.23938.01673.3587.01007.10718.03045.21332.04534.32007.01679.12036.02869.24134.05164.36084.0199.10358.04993.20526.0744.308.02887.12121.053.24328.0882.36309.03247.11029.0755.21784.1134.32679.038.10937.07074.22021.11426.328.04571.1134.10248.22308.15423.33453.0467.10041.0879.20282.13947.30139.05225.09992.115.19544.17236.29328.062.10589.119.21393.18695.3172.06562.09985.14209.1944.21326.2915.07025.096.13519.19458.21088.28766.07818.09625.16729.18628.25122.2793.08081.08954.15606.18231.24219.26861l.01849.01856a7.16529,7.16529,0,0,0,10.92145-.83423,7.19833,7.19833,0,0,0,1.076-2.1994q.097-.33234.1618-.67114a7.27956,7.27956,0,0,0,.12946-1.36707q0-.34341-.03241-.686a7.22063,7.22063,0,0,0-2.03864-4.38581Z"/><path class="cls-2" d="M482.7598,56.28712l-.00049.00049c-.06311.06311-.11762.13141-.17755.19647-.0885.09607-.18054.19007-.26209.29-.03015.037-.05481.07678-.084.11426-.10333.13263-.20581.26575-.2973.4043-.02619.03973-.04682.08191-.07209.12207-.08758.1394-.17431.27911-.25012.4234-.05493.10455-.09967.21277-.14844.31964-.038.08319-.08129.16461-.11554.24908-.03924.09687-.06878.19648-.10314.2948-.03406.09736-.07288.19336-.10206.29194-.02624.08886-.04339.1795-.06579.26916-.02753.11035-.05927.21991-.08087.33136a6.4289,6.4289,0,0,0-.10956,1.06244c-.00134.05377-.00769.10736-.00769.16113s.00635.10736.00769.16113a6.42962,6.42962,0,0,0,.10956,1.0625c.0216.11145.05334.221.08087.33136.0224.08967.03955.1803.06579.26917.02918.09857.068.19458.10206.29193.03436.09833.0639.19794.10314.2948.03425.08447.07758.16589.11554.24908.04877.10688.09351.21509.14844.31965.07581.14428.16254.284.25012.4234.02527.04016.0459.08233.07209.12207.09149.13855.194.27166.2973.40429.02917.03748.05383.07727.084.11426.08155.1.17359.194.26209.29.06012.06525.11474.13367.178.197l.00006-.00006a6.255,6.255,0,0,0,4.57916,1.841v.01386h.00006a6.205,6.205,0,0,0,4.56531-1.84094q.23246-.236.43579-.489.20334-.25268.37769-.52032.17431-.26724.31958-.54712a6.4678,6.4678,0,0,0-1.13306-7.51862A6.56008,6.56008,0,0,0,482.7598,56.28712Z"/><path class="cls-3" d="M458.60178,60.31209a4.98228,4.98228,0,0,0,.55145-.0763"/><path class="cls-3" d="M326.14456,155.58021a17.22487,17.22487,0,0,1-2.603-2.16357"/><path class="cls-3" d="M352.912,134.55873q-.22715-.83761-.52313-1.64587"/><path class="cls-3" d="M352.38883,132.91286c-.18915-.51722-.3913-1.02808-.62122-1.52381"/><path class="cls-3" d="M505.70371,131.97249a20.59726,20.59726,0,0,1,2.12878-5.15436"/><path class="cls-3" d="M507.83249,126.81813a15.70325,15.70325,0,0,1,1.817-2.48645"/><polygon class="cls-1" points="34.448 396.98 45.573 396.98 45.573 393.597 38.544 393.597 38.544 388.616 45.084 388.616 45.084 385.261 38.544 385.261 38.544 381.019 45.573 381.019 45.573 377.663 34.448 377.663 34.448 396.98"/><polygon class="cls-1" points="67.464 377.663 63.051 377.663 58.969 384.613 54.807 377.663 50.288 377.663 56.286 387.017 49.878 396.98 54.265 396.98 58.757 389.674 63.249 396.98 67.927 396.98 61.4 387.242 67.464 377.663"/><path class="cls-1" d="M84.5795,379.17555a8.20638,8.20638,0,0,0-5.34473-1.51269H73.06436V396.9803h4.09626v-6.87109h1.75726a8.33371,8.33371,0,0,0,5.543-1.65137,5.90206,5.90206,0,0,0,1.94873-4.76953A5.51618,5.51618,0,0,0,84.5795,379.17555Zm-3.24359,6.83112a4.48632,4.48632,0,0,1-2.82764.74707H77.16062V381.0193h1.86273a3.684,3.684,0,0,1,2.46441.68652,2.67913,2.67913,0,0,1,.78614,2.127A2.61122,2.61122,0,0,1,81.33591,386.00667Z"/><polygon class="cls-1" points="96.858 377.663 92.762 377.663 92.762 396.98 104.694 396.98 104.694 393.597 96.858 393.597 96.858 377.663"/><path class="cls-1" d="M119.11954,377.359q-4.45258,0-6.8374,2.543-2.38522,2.5439-2.38526,7.36621.00029,4.82272,2.37842,7.39942a10.30705,10.30705,0,0,0,13.63574,0q2.37844-2.57565,2.37842-7.373,0-4.80871-2.3584-7.37219Q123.57276,377.359,119.11954,377.359Zm-.02637,16.45032a4.29842,4.29842,0,0,1-3.67334-1.63867,10.25391,10.25391,0,0,1,.01319-9.75781,4.32974,4.32974,0,0,1,3.68652-1.64551q4.876,0,4.876,6.52734Q123.99533,393.8094,119.09317,393.80934Z"/><path class="cls-1" d="M147.40665,386.48219a5.71531,5.71531,0,0,0-.95166-7.38574q-1.8891-1.43363-5.82666-1.43359h-5.62891v19.31738h4.09619v-7.41211h2.18018l4.61133,7.41211h4.54541q-1.32147-1.90284-5.68164-8.417A6.20331,6.20331,0,0,0,147.40665,386.48219Zm-4.12256-.8916a5.055,5.055,0,0,1-2.86719.64746h-1.32129V381.0193h1.24219a5.72987,5.72987,0,0,1,2.92627.58106,2.11308,2.11308,0,0,1,.94482,1.95507A2.31143,2.31143,0,0,1,143.28409,385.59059Z"/><polygon class="cls-1" points="155.569 396.98 166.695 396.98 166.695 393.597 159.665 393.597 159.665 388.616 166.206 388.616 166.206 385.261 159.665 385.261 159.665 381.019 166.695 381.019 166.695 377.663 155.569 377.663 155.569 396.98"/><path class="cls-1" d="M185.83786,386.48219a5.71544,5.71544,0,0,0-.95166-7.38574q-1.88919-1.43363-5.82666-1.43359h-5.62891v19.31738h4.0962v-7.41211H179.707l4.61133,7.41211h4.54541q-1.32156-1.90284-5.68164-8.417A6.2039,6.2039,0,0,0,185.83786,386.48219Zm-4.12256-.8916a5.0552,5.0552,0,0,1-2.86718.64746h-1.32129V381.0193H178.769a5.7301,5.7301,0,0,1,2.92627.58106,2.11333,2.11333,0,0,1,.94483,1.95507A2.31172,2.31172,0,0,1,181.7153,385.59059Z"/><polygon class="cls-1" points="203.736 396.98 207.767 396.98 207.767 389.344 214.32 389.344 214.32 386 207.767 386 207.767 381.019 214.809 381.019 214.809 377.663 203.736 377.663 203.736 396.98"/><path class="cls-1" d="M229.65769,377.359q-4.45267,0-6.83741,2.543-2.38531,2.5439-2.38525,7.36621.00018,4.82272,2.37842,7.39942a10.30705,10.30705,0,0,0,13.63574,0q2.37836-2.57565,2.37842-7.373-.00009-4.80871-2.3584-7.37219Q234.11072,377.359,229.65769,377.359Zm-.02637,16.45026a4.29845,4.29845,0,0,1-3.67334-1.63861,8.07191,8.07191,0,0,1-1.22852-4.876h-.00006a8.039,8.039,0,0,1,1.2417-4.8819,4.32977,4.32977,0,0,1,3.68652-1.6455q4.876,0,4.876,6.52734Q234.53339,393.80925,229.63132,393.80928Z"/><path class="cls-1" d="M257.94431,386.48219a5.71538,5.71538,0,0,0-.95166-7.38574q-1.88919-1.43363-5.82666-1.43359h-5.629v19.31738h4.09619v-7.41211h2.18024l4.61133,7.41211h4.54541q-1.32148-1.90284-5.68165-8.417A6.20328,6.20328,0,0,0,257.94431,386.48219Zm-4.12262-.8916a5.055,5.055,0,0,1-2.86719.64746h-1.32129l.00006-5.21875h1.24219a5.7298,5.7298,0,0,1,2.92621.58106,2.1131,2.1131,0,0,1,.94482,1.95507A2.31145,2.31145,0,0,1,253.82169,385.59059Z"/><path class="cls-1" d="M283.20261,389.158a33.8714,33.8714,0,0,0-.99121,4.25489q-.07911-.52936-.40284-1.88282-.32427-1.35406-.62744-2.37207l-3.63379-11.49511h-4.13574l6.55371,19.31738h4.46582l6.5669-19.31738h-4.13574Z"/><path class="cls-1" d="M302.82071,385.82881a24.77165,24.77165,0,0,1-2.5957-1.35449,2.75163,2.75163,0,0,1-.79981-.78028,1.7466,1.7466,0,0,1-.251-.94433,1.78793,1.78793,0,0,1,.62109-1.41406,2.63014,2.63014,0,0,1,1.7832-.541,8.193,8.193,0,0,1,1.98828.251,19.20068,19.20068,0,0,1,2.55664.88476l1.32227-3.18457a19.81727,19.81727,0,0,0-2.86133-1.0039,11.307,11.307,0,0,0-2.873-.35645,7.21557,7.21557,0,0,0-4.80323,1.4668,4.99084,4.99084,0,0,0-1.7373,4.0293,5.09142,5.09142,0,0,0,.52832,2.3789,5.997,5.997,0,0,0,1.41406,1.7832,11.82515,11.82515,0,0,0,2.65479,1.59864,23.81478,23.81478,0,0,1,2.5039,1.30859,3.54311,3.54311,0,0,1,.93164.85254,1.68218,1.68218,0,0,1,.31836,1.01074,1.7621,1.7621,0,0,1-.7207,1.53223,3.52386,3.52386,0,0,1-2.06836.51562,9.81839,9.81839,0,0,1-2.47705-.35644,22.51092,22.51092,0,0,1-3.30957-1.22949v3.80566a12.30034,12.30034,0,0,0,5.47021,1.16309,8.17868,8.17868,0,0,0,5.23829-1.50684,4.99071,4.99071,0,0,0,1.88281-4.12207,5.0663,5.0663,0,0,0-1.004-3.19147A10.33323,10.33323,0,0,0,302.82071,385.82881Z"/><path class="cls-1" d="M331.687,380.79469a6.49437,6.49437,0,0,1,2.15332.38281,21.92212,21.92212,0,0,1,2.18067.89844l1.32129-3.33014a13.00229,13.00229,0,0,0-5.65528-1.36035,9.31648,9.31648,0,0,0-4.8164,1.209,7.92281,7.92281,0,0,0-3.15137,3.47461,11.98119,11.98119,0,0,0-1.09668,5.27832q-.00046,4.78317,2.2334,7.34082a8.10082,8.10082,0,0,0,6.44726,2.55664,13.70028,13.70028,0,0,0,5.3125-.99121v-3.43555a15.32313,15.32313,0,0,1-4.92871,1.01758q-4.84954-.001-4.84961-6.46094a8.08308,8.08308,0,0,1,1.26856-4.84277A4.17387,4.17387,0,0,1,331.687,380.79469Z"/><path class="cls-1" d="M351.7944,377.359q-4.45312,0-6.83789,2.543-2.38476,2.5439-2.38476,7.36621,0,4.82272,2.3789,7.39942a10.30706,10.30706,0,0,0,13.63575,0q2.37789-2.57565,2.37793-7.373,0-4.80863-2.3584-7.37219Q356.24753,377.359,351.7944,377.359Zm-.02642,16.45026a4.29744,4.29744,0,0,1-3.67279-1.63861,10.24887,10.24887,0,0,1,.01263-9.75788,4.329,4.329,0,0,1,3.68652-1.6455q4.876,0,4.876,6.52734Q356.67088,393.80925,351.768,393.80928Z"/><path class="cls-1" d="M373.73874,377.66286h-6.06445v19.31738H373.144q5.12742,0,7.8418-2.53711,2.71582-2.53712,2.71582-7.30664a9.18624,9.18624,0,0,0-2.61621-6.97656Q378.46875,377.66282,373.73874,377.66286Zm-.21191,15.93457H371.77V381.0193h2.17969q5.497,0,5.49707,6.22266Q379.4462,393.59737,373.52683,393.59743Z"/><polygon class="cls-1" points="390.412 396.98 401.537 396.98 401.537 393.597 394.507 393.597 394.507 388.616 401.047 388.616 401.047 385.261 394.507 385.261 394.507 381.019 401.537 381.019 401.537 377.663 390.412 377.663 390.412 396.98"/><rect class="cls-1" x="416.38229" y="388.07496" width="7.0957" height="3.30273"/><polygon class="cls-1" points="442.248 393.597 451.497 380.305 451.497 377.663 437.623 377.663 437.623 381.046 446.635 381.046 437.372 394.324 437.372 396.98 451.749 396.98 451.748 393.597 442.248 393.597"/><path class="cls-1" d="M465.89694,377.359q-4.45312,0-6.83789,2.543-2.38476,2.5439-2.38476,7.36621,0,4.82272,2.3789,7.39942a10.30706,10.30706,0,0,0,13.63575,0q2.37789-2.57565,2.37793-7.373,0-4.80863-2.3584-7.37219Q470.35007,377.359,465.89694,377.359Zm-.02636,16.45032a4.29755,4.29755,0,0,1-3.67286-1.63867,10.24876,10.24876,0,0,1,.01264-9.75781,4.329,4.329,0,0,1,3.68652-1.64551q4.876,0,4.876,6.52734Q470.77337,393.8094,465.87058,393.80934Z"/><path class="cls-1" d="M499.019,388.20686q-.23683.95216-.52832,2.49024-.291,1.53909-.42285,2.57031-.14455-1.06933-.42285-2.56348-.27741-1.49313-.46191-2.21972l-2.81446-10.82129h-3.87207l-2.81347,10.82129q-.25251.872-.53516,2.45117-.28418,1.579-.36328,2.332-.291-2.13959-.93848-5.06055l-2.4707-10.54394h-4.03027l4.92871,19.31738h4.65039l2.60351-10.1211q.17194-.67382.48828-2.25293.31732-1.57818.39649-2.293.05319.58154.40332,2.27929.3501,1.69821.49512,2.24024l2.61621,10.14746h4.665l4.915-19.31732H501.477Z"/><polygon class="cls-1" points="510.645 396.98 521.77 396.98 521.77 393.597 514.741 393.597 514.741 388.616 521.281 388.616 521.281 385.261 514.741 385.261 514.741 381.019 521.77 381.019 521.77 377.663 510.645 377.663 510.645 396.98"/><path class="cls-1" d="M545.601,389.158a33.88366,33.88366,0,0,0-.99121,4.25489q-.07956-.52936-.40332-1.88282-.32373-1.35406-.62695-2.37207l-3.63379-11.49511H535.81l6.55371,19.31738h4.46582l6.56738-19.31738h-4.13574Z"/><path class="cls-1" d="M557.70157,382.618l1.96875,2.457,2.21973-1.7832q.396-.31695,1.41406-1.335l-.06641,2.00879-.03906,1.83594v11.17871h4.083V377.66292H563.9252Z"/></svg>