<?xml version="1.0" encoding="utf-8"?>
<!-- Generator: Adobe Illustrator 24.2.1, SVG Export Plug-In . SVG Version: 6.00 Build 0)  -->
<svg version="1.1" id="Layer_1" xmlns="http://www.w3.org/2000/svg" xmlns:xlink="http://www.w3.org/1999/xlink" x="0px" y="0px"
	 viewBox="0 0 1052.4 274.3" style="enable-background:new 0 0 1052.4 274.3;" xml:space="preserve">
<style type="text/css">
	.st0{fill:none;}
	.st1{fill:#0033A1;}
	.st2{fill:#007BE9;}
	.st3{fill:#FFFFFF;}
</style>
<path d="M287.3,129.8c-0.7-0.4-1.4-0.8-2.2-1.1C285.9,129,286.6,129.4,287.3,129.8L287.3,129.8z"/>
<path d="M279.5,127.3c0.8,0.1,1.6,0.2,2.3,0.4C281.1,127.5,280.3,127.3,279.5,127.3z"/>
<path d="M296.6,150.9c0-0.1,0.1-0.2,0.1-0.3C296.7,150.7,296.6,150.8,296.6,150.9L296.6,150.9z"/>
<path d="M288.6,162.8C288.6,162.8,288.6,162.8,288.6,162.8L288.6,162.8C288.6,162.8,288.6,162.8,288.6,162.8L288.6,162.8z"/>
<path d="M277.5,239.1c-2.8,0-10.3-0.1-18.4-1.4c-5.7-0.9-10.5-2.1-14.6-3.7H48.7v-10h182.6c-1.2-2.1-1.8-4.5-1.8-7l0,0v0v-3H48.7
	v-10h181.1c1.4-12,7.3-22.6,15.8-30.2h-197v-10h204.7c-2.1-3-3.7-6.4-4.6-10.1H48.7v-10h199.4c1.6-14.8,14.1-26.4,29.4-26.4
	c3.2,0,6.3,0.5,9.2,1.5c1.3-11,7.9-20.5,17.2-25.6V55.9h-293v205.6h293v-25.3c-8.5,2-17.2,3-26,3L277.5,239.1z M256.6,113.4H48.7
	v-10h207.9V113.4z M39.8,83.2h139.3v10H39.8V83.2z M39.8,123.5h139.3v10H39.8V123.5z M39.8,183.8h139.3v10H39.8V183.8z"/>
<path d="M266.6,130.5c1-0.7,2.1-1.3,3.3-1.8C268.8,129.2,267.7,129.8,266.6,130.5z"/>
<path d="M258.5,142.4c0.3-1.1,0.6-2.2,1-3.3C259.1,140.1,258.8,141.2,258.5,142.4z"/>
<path d="M261.3,135.8c0.7-1,1.5-2,2.4-2.9C262.8,133.8,262,134.7,261.3,135.8z"/>
<path d="M273.2,127.7c0.8-0.2,1.5-0.3,2.3-0.4C274.7,127.3,274,127.5,273.2,127.7z"/>
<path d="M266.6,162.9L266.6,162.9c-1-0.7-2-1.5-2.8-2.3C264.6,161.4,265.5,162.2,266.6,162.9z"/>
<path d="M292.3,228.1c-0.6,0.1-1.2,0.2-1.8,0.2C291.1,228.3,291.7,228.2,292.3,228.1z"/>
<path d="M289.1,228.5c-0.6,0.1-1.2,0.1-1.8,0.2C287.9,228.6,288.5,228.6,289.1,228.5z"/>
<path d="M295.5,227.6c-0.6,0.1-1.2,0.2-1.9,0.3C294.2,227.8,294.9,227.7,295.5,227.6z"/>
<path d="M285.9,228.8c-0.6,0-1.2,0.1-1.7,0.1C284.7,228.9,285.3,228.9,285.9,228.8z"/>
<path d="M282.7,229c-0.6,0-1.1,0.1-1.7,0.1C281.5,229.1,282.1,229,282.7,229z"/>
<path d="M273.1,229c-1.3-0.1-2.8-0.1-4.5-0.3C270.3,228.9,271.8,229,273.1,229z"/>
<path d="M278,229.1c0.5,0,1,0,1.5,0c-0.6,0-1.3,0-1.9,0C277.7,229.1,277.8,229.1,278,229.1z"/>
<path d="M268.7,228.8c-2.1-0.2-4.3-0.4-6.6-0.7C264.3,228.4,266.6,228.6,268.7,228.8z"/>
<path d="M256.6,227.2c1.8,0.4,3.6,0.7,5.4,0.9C260.2,227.8,258.4,227.5,256.6,227.2L256.6,227.2z"/>
<path d="M299.3,166.6c0.1,0.1,0.1,0.2,0.2,0.3l0,0C299.4,166.8,299.4,166.7,299.3,166.6L299.3,166.6z"/>
<path d="M259.5,154.3c-0.5-1.2-0.9-2.4-1.1-3.7C258.7,151.9,259,153.1,259.5,154.3z"/>
<path d="M240.9,220.3c-0.7-0.7-1.1-1.5-1.3-2.4C239.8,218.8,240.2,219.6,240.9,220.3c1.5,1.5,3.4,2.7,5.7,3.7h0
	C244.3,223,242.4,221.8,240.9,220.3z"/>
<path d="M263.7,160.5c-0.9-0.9-1.7-1.9-2.4-2.9C262,158.7,262.8,159.6,263.7,160.5z"/>
<path d="M298.8,227c-0.7,0.1-1.4,0.3-2.1,0.4C297.4,227.3,298.1,227.1,298.8,227z"/>
<path d="M303,226.1c-1,0.3-2.1,0.5-3.1,0.7C300.9,226.6,301.9,226.3,303,226.1z"/>
<path d="M304,6.1h-293v39.7h293V6.1z M32.4,34.6c-4.6,0-8.4-3.8-8.4-8.4c0-4.6,3.8-8.4,8.4-8.4c4.6,0,8.4,3.8,8.4,8.4
	C40.8,30.8,37.1,34.6,32.4,34.6z M60.3,34.6c-4.6,0-8.4-3.8-8.4-8.4c0-4.6,3.8-8.4,8.4-8.4s8.4,3.8,8.4,8.4
	C68.7,30.8,65,34.6,60.3,34.6z M88.1,34.6c-4.6,0-8.4-3.8-8.4-8.4c0-4.6,3.8-8.4,8.4-8.4s8.4,3.8,8.4,8.4
	C96.5,30.8,92.8,34.6,88.1,34.6z"/>
<path d="M473.3,197.1c23.3,0,37-8.3,49.4-21.5l-16.9-17c-9.5,8.6-17.9,14.1-31.7,14.1c-20.7,0-35-17.2-35-37.9v-0.3
	c0-20.7,14.6-37.5,35-37.5c12.1,0,21.5,5.2,30.8,13.6L521.8,91c-11.2-11-24.8-18.6-47.5-18.6c-37,0-62.9,28.1-62.9,62.3v0.3
	C411.4,169.7,437.8,197.1,473.3,197.1z"/>
<path d="M595,72.4c-37.2,0-64.2,28.1-64.2,62.3v0.3c0,34.3,26.7,62,63.9,62c37.2,0,64.2-28.1,64.2-62.3v-0.3
	C658.9,100.2,632.2,72.4,595,72.4z M631.2,135.1c0,20.7-14.8,37.5-36.2,37.5c-21.4,0-36.5-17.2-36.5-37.9v-0.3
	c0-20.7,14.8-37.5,36.2-37.5c21.4,0,36.5,17.2,36.5,37.9V135.1z"/>
<path d="M875.3,28.8h5.2c2.4,0.2,4.9-0.5,6.8-2c1.6-1.3,2.4-3.3,2.3-5.4c0.1-2-0.8-4-2.3-5.3c-1.9-1.4-4.3-2.1-6.6-1.9h-7.6v27.4
	h2.1V28.8z M875.3,16l5.4,0c1.8-0.1,3.6,0.4,5,1.5c1.2,1,1.8,2.5,1.7,4c0.1,1.6-0.6,3.1-1.8,4.1c-1.5,1.1-3.4,1.6-5.2,1.5h-5.1V16z"
	/>
<path d="M899,28.5h3.7c1.4-0.1,2.7,0.2,3.9,0.9c1.5,1.4,2.7,2.9,3.7,4.7l4.8,7.5h2.5l-6.2-9.5c-0.9-1.7-2.1-3.1-3.6-4.2
	c3.1-0.8,5.2-3.5,5.2-6.7c0.1-2-0.8-3.9-2.3-5.2c-2-1.4-4.3-2.1-6.7-1.9h-7v27.4h2.1V28.5z M899,16h4.5c1.9-0.1,3.8,0.4,5.4,1.4
	c1.2,0.9,1.9,2.4,1.9,3.9c0.1,1.5-0.6,3-1.8,4c-1.6,1-3.4,1.5-5.3,1.4H899V16z"/>
<path d="M950.4,28c0.1-3.8-1.5-7.4-4.2-10c-2.7-2.7-6.5-4.2-10.3-4.1c-3.8-0.1-7.5,1.4-10.3,4.1c-2.7,2.6-4.3,6.2-4.2,10
	c-0.1,3.8,1.5,7.4,4.2,10c5.8,5.5,14.8,5.5,20.6,0C949,35.3,950.5,31.7,950.4,28z M936,40c-3.3,0.1-6.4-1.2-8.7-3.5
	c-2.3-2.2-3.6-5.3-3.6-8.6c-0.1-3.2,1.2-6.4,3.6-8.6c2.3-2.3,5.4-3.6,8.7-3.5c3.2-0.1,6.4,1.2,8.6,3.5c2.3,2.3,3.6,5.4,3.5,8.6
	c0.1,3.2-1.2,6.3-3.5,8.6C942.3,38.9,939.2,40.1,936,40z"/>
<path d="M955.3,49.6c1.5,0,3-0.6,4-1.7c1.3-1.8,1.9-4,1.7-6.3V14.3H959v28c0,3.7-1.3,5.5-3.8,5.5c-0.4,0-0.8-0.1-1.3-0.2l0.2,2
	C954.5,49.6,954.9,49.6,955.3,49.6z"/>
<polygon points="985.7,39.9 972.6,39.9 972.6,28.8 985.1,28.8 985.1,27 972.6,27 972.6,16 985.4,16 985.4,14.3 970.5,14.3 
	970.5,41.7 985.7,41.7 "/>
<path d="M1006.7,42c3.4,0,6.7-0.9,9.7-2.6v-2.2c-3,1.7-6.3,2.7-9.7,2.8c-3.3,0.1-6.5-1.1-8.8-3.4c-2.3-2.3-3.6-5.4-3.5-8.7
	c-0.1-3.2,1.2-6.4,3.4-8.7c2.2-2.3,5.3-3.6,8.5-3.5c3.4,0.1,6.8,1,9.8,2.6v-2.3c-3-1.5-6.3-2.2-9.6-2.3c-3.8-0.1-7.4,1.4-10.1,4
	c-2.8,2.6-4.3,6.3-4.3,10.1c-0.1,3.8,1.4,7.4,4.2,10C999.1,40.7,1002.8,42.1,1006.7,42z"/>
<polygon points="1020.7,14.3 1020.7,16 1031,16 1031,41.7 1033.1,41.7 1033.1,16 1043.4,16 1043.4,14.3 "/>
<polygon points="561.9,26 570.2,36.2 570.9,36.2 579.2,26 579.2,43.6 588.3,43.6 588.3,13.2 580,13.2 570.6,24.6 561.3,13.2 
	553,13.2 553,43.6 561.9,43.6 "/>
<path d="M604.3,37.4h13.2l2.5,6.2h9.4l-13.4-30.4h-10.1l-13.4,30.4h9.4L604.3,37.4z M610.9,21.1l4.4,11.1h-8.9L610.9,21.1z"/>
<rect x="633.4" y="13.2" width="9.2" height="30.4"/>
<polygon points="683.2,43.6 683.2,13.2 674.1,13.2 674.1,30 658.4,13.2 650.2,13.2 650.2,43.6 659.3,43.6 659.3,26.7 675.1,43.6 "/>
<polygon points="700,31.3 712.6,31.3 712.6,25.2 700,25.2 700,19.3 712.6,19.3 712.6,13.2 690.8,13.2 690.8,43.6 700,43.6 "/>
<path d="M727.9,31.7h1c0.9,0,1.7,0.1,2.6,0.4c0.8,0.4,1.5,1,2,1.8c0.9,1.4,1.7,2.8,2.4,4.3l2.4,5.4h9.8l-3.1-6.6
	c-0.7-1.7-1.6-3.3-2.6-4.7c-0.7-0.8-1.5-1.5-2.4-2c0.8-0.4,1.5-0.9,2.2-1.4c0.8-0.6,1.4-1.4,1.9-2.3c0.6-1.2,0.9-2.5,0.9-3.9
	c0-1.5-0.4-2.9-1.1-4.2c-0.8-1.5-2-2.8-3.5-3.7c-1.9-1.1-4-1.6-6.2-1.5h-15.6v30.4h9.2V31.7z M727.9,19h1.9c1.5-0.1,3.1,0.2,4.5,0.8
	c1,0.6,1.5,1.8,1.4,2.9h0c0.1,1.1-0.3,2.2-1.2,2.8c-1.4,0.6-3,0.9-4.6,0.7h-2V19z"/>
<path d="M760.6,37.4h13.2l2.5,6.2h9.4l-13.4-30.4h-10.1l-13.4,30.4h9.4L760.6,37.4z M767.2,21.1l4.4,11.1h-8.9L767.2,21.1z"/>
<polygon points="798.6,26 806.9,36.2 807.6,36.2 815.8,26 815.8,43.6 825,43.6 825,13.2 816.7,13.2 807.3,24.6 798,13.2 789.7,13.2 
	789.7,43.6 798.6,43.6 "/>
<polygon points="855.6,37.5 841.8,37.5 841.8,31 854.6,31 854.6,24.9 841.8,24.9 841.8,19.3 855.2,19.3 855.2,13.2 832.7,13.2 
	832.7,43.6 855.6,43.6 "/>
<path d="M450.8,41.1c3.1-2.9,4.8-6.9,4.7-11.1c0.1-4.2-1.6-8.3-4.7-11.1c-3.1-3-7.2-4.7-11.5-4.6c-4.3-0.1-8.4,1.6-11.5,4.6
	c-3.1,2.9-4.8,6.9-4.7,11.1c-0.1,4.2,1.6,8.2,4.7,11.1C434.3,47.1,444.4,47.1,450.8,41.1z M429.7,20.3c2.6-2.6,6.1-4,9.7-3.9
	c3.6-0.1,7.1,1.3,9.7,3.9c2.6,2.5,4,6,3.9,9.6c0.1,3.6-1.4,7.1-3.9,9.6c-2.5,2.6-6,4-9.7,3.9c-3.6,0.1-7.1-1.3-9.7-3.9
	c-2.6-2.5-4-6-4-9.6C425.6,26.3,427.1,22.8,429.7,20.3z"/>
<path d="M463.7,30.9h5.8c2.7,0.2,5.4-0.6,7.6-2.2c1.7-1.5,2.7-3.7,2.6-6c0.1-2.3-0.8-4.4-2.6-5.9c-2.1-1.6-4.8-2.3-7.4-2.2h-8.4
	v30.6h2.4V30.9z M463.7,16.6h6c2-0.1,4,0.5,5.6,1.7c1.3,1.1,2,2.8,1.9,4.5c0.1,1.8-0.6,3.5-2,4.6c-1.7,1.2-3.8,1.8-5.8,1.6h-5.7
	V16.6z"/>
<polygon points="501.3,43.3 486.6,43.3 486.6,30.8 500.6,30.8 500.6,28.8 486.6,28.8 486.6,16.6 501,16.6 501,14.6 484.3,14.6 
	484.3,45.2 501.3,45.2 "/>
<polygon points="508.5,18.5 531.8,45.2 533.7,45.2 533.7,14.6 531.4,14.6 531.4,41.4 508.2,14.6 506.2,14.6 506.2,45.2 508.5,45.2 
	"/>
<path d="M774,106v-0.3c0-8.3-2.8-15-8.3-20.5c-6.9-6.9-17.7-10.7-31.5-10.7h-56v120.6h57.4c27.2,0,45.1-11,45.1-33.1v-0.3
	c0-16.2-8.6-24.3-22.6-29.6C766.7,127.2,774,119.6,774,106z M704.1,97.7h26.2c11.2,0,17.4,4.5,17.4,12.4v0.3c0,9-7.4,12.7-19.1,12.7
	h-24.5V97.7z M754.3,158.7c0,9-7.1,13.1-18.8,13.1h-31.5v-26.5h30.7c13.6,0,19.6,5,19.6,13.1V158.7z"/>
<path d="M857.2,72.4c-37.2,0-64.2,28.1-64.2,62.3v0.3c0,34.3,26.7,62,63.9,62c37.2,0,64.2-28.1,64.2-62.3v-0.3
	C921.1,100.2,894.4,72.4,857.2,72.4z M893.3,135.1c0,20.7-14.8,37.5-36.2,37.5c-21.4,0-36.5-17.2-36.5-37.9v-0.3
	c0-20.7,14.8-37.5,36.2-37.5c21.4,0,36.5,17.2,36.5,37.9V135.1z"/>
<polygon points="966.9,74.5 940.3,74.5 940.3,195.1 1027,195.1 1027,170.9 966.9,170.9 "/>
<path d="M297.6,129.6c2.1,6.7,7,12.1,13.4,14.8c0.7,0.3,1.4,0.6,2.2,0.8c0.7,0.2,1.5,0.4,2.3,0.6c1.5,0.3,3.1,0.5,4.8,0.5
	c1.2,0,2.4-0.1,3.6-0.3c0.8-0.1,1.6-0.3,2.3-0.5c1.9-0.5,3.7-1.2,5.4-2.1c0.7-0.4,1.3-0.8,2-1.2c0.6-0.4,1.2-0.9,1.8-1.4
	c0.6-0.5,1.2-1,1.7-1.5c1.6-1.6,3-3.5,4.1-5.5c0.4-0.7,0.7-1.4,1-2.1c0.2-0.4,0.3-0.7,0.4-1.1c0.4-1.1,0.7-2.2,1-3.4
	c0.3-1.5,0.5-3.1,0.5-4.8s-0.2-3.2-0.5-4.8c-0.2-1.2-0.6-2.3-1-3.4c-0.1-0.4-0.3-0.7-0.4-1.1c-0.3-0.7-0.6-1.4-1-2.1
	c-1.1-2-2.5-3.9-4.1-5.5c-0.5-0.5-1.1-1-1.7-1.5c-0.6-0.5-1.2-0.9-1.8-1.4c-0.6-0.4-1.3-0.8-2-1.2c-1.7-0.9-3.5-1.6-5.4-2.1
	c-0.8-0.2-1.5-0.4-2.3-0.5c-1.2-0.2-2.4-0.3-3.6-0.3c-1.6,0-3.2,0.2-4.8,0.5c-0.8,0.2-1.5,0.4-2.3,0.6c-0.7,0.2-1.5,0.5-2.2,0.8
	c-6.4,2.7-11.4,8.1-13.4,14.8c-0.1,0.4-0.2,0.7-0.3,1.1c-0.5,1.9-0.7,3.9-0.7,5.9s0.3,4,0.7,5.9
	C297.4,128.9,297.5,129.2,297.6,129.6z"/>
<path d="M259.5,154.3c0.5,1.2,1.1,2.3,1.8,3.3c0.7,1,1.5,2,2.4,2.9c0.9,0.9,1.8,1.6,2.8,2.3c1.1,0.7,2.2,1.3,3.4,1.8
	c0.6,0.2,1.2,0.5,1.8,0.7c1.2,0.4,2.5,0.6,3.8,0.8c0.7,0.1,1.3,0.1,2,0.1s1.3,0,2-0.1c1.3-0.1,2.6-0.4,3.8-0.8
	c0.6-0.2,1.2-0.4,1.8-0.7c1.2-0.5,2.3-1.1,3.4-1.9c0,0,0.1,0,0.1-0.1c2-1.4,3.7-3.1,5.1-5.1c0.7-1,1.3-2.1,1.8-3.3
	c0.5-1.1,0.8-2.2,1.1-3.4c0-0.1,0.1-0.2,0.1-0.3c0.3-1.3,0.4-2.6,0.4-3.9c0-0.7,0-1.3-0.1-2c-0.6-6.4-4.4-11.8-9.6-14.9
	c-0.7-0.4-1.4-0.8-2.2-1.1c-1-0.4-2.2-0.8-3.3-1c-0.8-0.2-1.5-0.3-2.3-0.4c-0.7-0.1-1.3-0.1-2-0.1s-1.3,0-2,0.1
	c-0.8,0.1-1.6,0.2-2.3,0.4c-1.1,0.3-2.2,0.6-3.3,1c-1.2,0.5-2.3,1.1-3.3,1.8c-1,0.7-2,1.5-2.9,2.4c-0.9,0.9-1.7,1.9-2.4,2.9
	s-1.3,2.1-1.8,3.3c-0.4,1-0.8,2.2-1,3.3c-0.2,0.8-0.3,1.5-0.4,2.3c-0.1,0.7-0.1,1.3-0.1,2c0,1.3,0.1,2.7,0.4,3.9
	C258.7,151.9,259,153.1,259.5,154.3z"/>
<path d="M355.5,171.4c-0.5-0.6-1-1.1-1.6-1.7c-3.2-3.2-6.9-6-10.9-8.2c-2-1.1-4.1-2.1-6.3-2.9c-5.1-1.9-10.6-2.9-16.3-2.9
	c-1.6,0-3.2,0.1-4.7,0.2c-0.4,0-0.8,0.1-1.2,0.1c-0.4,0-0.7,0.1-1.1,0.1c-0.4,0.1-0.8,0.1-1.2,0.2c-0.4,0.1-0.7,0.1-1.1,0.2
	c-0.4,0.1-0.8,0.2-1.3,0.3c-0.3,0.1-0.7,0.1-1,0.2c-0.4,0.1-0.9,0.2-1.3,0.4c-0.3,0.1-0.6,0.2-0.9,0.3c-0.5,0.2-1,0.3-1.5,0.5
	c-1,0.3-2,0.7-2.9,1.1c-0.4,0.1-0.8,0.3-1.2,0.5c-0.7,0.4-1.3,1.1-1.7,1.8c0,0,0,0,0,0.1c-0.5,0.8-0.7,1.8-0.6,2.7
	c0.1,0.7,0.3,1.5,0.7,2.1c0.1,0.1,0.1,0.2,0.2,0.3c0.4,0.5,0.9,1,1.5,1.3c0.7,0.4,1.4,0.8,2.1,1.3c4.3,2.7,8,6.1,11.2,9.9
	c6.9,8.4,10.8,19,10.8,30.2V222c0,1,0.3,1.9,0.8,2.7c0.7,1,1.7,1.8,3,2c0.3,0.1,0.6,0.1,1,0.1h0c0.3,0,0.6,0,1-0.1
	c0.7-0.1,1.4-0.1,2.2-0.2c1.1-0.1,2.3-0.2,3.5-0.3c1.6-0.2,3.2-0.4,4.9-0.6c1.3-0.2,2.5-0.4,3.8-0.6c0.8-0.2,1.7-0.3,2.5-0.5
	c0.8-0.2,1.7-0.4,2.5-0.6c0.4-0.1,0.8-0.2,1.2-0.3c0.8-0.2,1.6-0.4,2.4-0.7c0.4-0.1,0.8-0.2,1.2-0.4c1.2-0.4,2.3-0.8,3.4-1.2
	s2.1-0.9,3.1-1.4c0.6-0.3,1.3-0.7,1.9-1.1c0.3-0.2,0.6-0.4,0.9-0.6c0.8-0.6,1.6-1.2,2.3-1.9c0.4-0.5,0.8-1,1-1.6s0.4-1.2,0.4-1.8
	v-9.5l0,0C367.8,191.1,363.1,179.9,355.5,171.4z"/>
<path d="M315.5,217.5c0-0.2,0.1-0.4,0-0.6v-7.4v0c0-11.7-5.4-22.6-14.4-29.7c-0.7-0.5-1.4-1.1-2.1-1.6c-1.5-1-3-1.9-4.6-2.7
	c-1.6-0.8-3.2-1.5-4.9-2c-1.7-0.6-3.4-1-5.1-1.3c-1.1-0.2-2.3-0.4-3.5-0.5s-2.3-0.2-3.5-0.2c-13.8,0-25.8,7.3-32.5,18.3
	c-0.6,1-1.2,2.1-1.8,3.2c-0.8,1.7-1.5,3.4-2,5.2c-1.1,3.6-1.7,7.4-1.7,11.3v7.4c0,0.3,0,0.6,0.1,0.9c0.2,0.9,0.6,1.8,1.3,2.4
	c1.5,1.5,3.4,2.7,5.7,3.7c3,1.4,6.5,2.4,10.1,3.1c1.8,0.4,3.6,0.7,5.4,0.9c2.3,0.3,4.6,0.5,6.6,0.7c1.6,0.1,3.2,0.2,4.5,0.3
	c2,0.1,3.5,0.1,4.4,0.1c0.6,0,1.3,0,1.9,0c0.5,0,1,0,1.5,0c0.6,0,1.1,0,1.7-0.1c0.5,0,1,0,1.5-0.1c0.6,0,1.2-0.1,1.7-0.1
	c0.5,0,1-0.1,1.4-0.1c0.6-0.1,1.2-0.1,1.8-0.2c0.5-0.1,0.9-0.1,1.4-0.1c0.6-0.1,1.2-0.2,1.8-0.2c0.4-0.1,0.9-0.1,1.3-0.2
	c0.6-0.1,1.2-0.2,1.9-0.3c0.4-0.1,0.8-0.1,1.3-0.2c0.7-0.1,1.4-0.3,2.1-0.4c0.3-0.1,0.7-0.1,1-0.2c1-0.2,2.1-0.5,3.1-0.7
	c1-0.2,2.1-0.6,3-0.9c1-0.4,2-0.8,2.9-1.3c1.9-1,3.7-2.2,5.3-3.5C314.9,219.6,315.4,218.6,315.5,217.5z"/>
<polygon points="473.1,223.5 453.7,255.2 451.7,223.4 448.1,223.4 429.2,255.2 426.8,223.5 422.3,223.5 425.7,261.9 429.4,261.9 
	448.1,231.1 450.3,261.9 454,261.9 477.9,223.5 "/>
<path d="M490.6,232.8c-4.4,0-8.5,2-11.5,5c-3.2,3.1-5.1,7.4-5.1,11.8c0,7.3,5.1,12.6,12.8,12.6c4.4,0,8.6-2,11.6-5
	c3.1-3.2,5.1-7.4,5.1-11.9C503.4,238.1,498.3,232.8,490.6,232.8z M495.1,255c-2.1,2.1-5,3.5-8,3.5c-5.2,0-8.8-3.3-8.8-9
	c0-3.5,1.6-7,4-9.4c2.1-2.1,5-3.5,8-3.5c5.2,0,8.8,3.3,8.8,9C499.1,249,497.6,252.5,495.1,255z"/>
<path d="M530.2,233c-5.6-0.3-10,2.9-13.4,7.8l1.9-7.4h-4.2l-7.5,28.2h4.2l3-11.1c2.3-8.5,8.4-13,14.6-13h0.3L530.2,233z"/>
<polygon points="561.2,233.4 555.4,233.4 536.5,248.9 543.8,221.8 539.6,221.8 528.9,261.6 533.1,261.6 535.1,254.3 542.6,248.3 
	549.1,261.6 553.9,261.6 546.1,245.6 "/>
<polygon points="560.2,261.6 564.4,261.6 572,233.4 567.8,233.4 "/>
<polygon points="570.4,222.7 569.2,227.3 574,227.3 575.2,222.7 "/>
<path d="M594.6,232.8c-4.3,0-7.3,2.3-9.8,5.2l1.2-4.6h-4.2l-7.5,28.2h4.2l4.3-15.9c1.5-5.3,5.8-9.1,10.2-9.1c3.9,0,6.3,2.2,6.3,5.9
	c0,0.9-0.2,2.2-0.4,3.2l-4.3,16h4.2l4.2-15.7c0.3-1.5,0.7-3.1,0.7-4.4C603.5,236.2,600,232.8,594.6,232.8z"/>
<path d="M635.9,239.6c-1.6-3.4-4.3-6.8-10.4-6.8c-4,0-8.1,1.7-11.1,4.7c-2.8,2.8-4.7,6.7-4.7,11.3c0,6.8,5.6,10.6,11.4,10.6
	c4.6,0,8-2.2,10.8-5.1l-0.8,2.8c-0.8,2.9-1.8,5.1-3.5,6.8c-1.7,1.7-4.4,2.9-7.9,2.9c-4.3,0-8.1-1.7-11.1-4.3l-2.6,2.9
	c3.5,3.1,8.6,4.9,13.8,4.9c4.8,0,8.3-1.4,10.9-4c2-2,3.4-4.5,4.6-8.9l6.4-24.1h-4.2L635.9,239.6z M631,252.1
	c-2.2,2.2-5.3,3.7-8.6,3.7c-4.3,0-8.2-2.6-8.2-7.6c0-3.3,1.4-6.2,3.5-8.3c2.2-2.2,5.1-3.4,8.1-3.4c5.4,0,8.7,3.8,8.7,8
	C634.5,247.3,633.2,250,631,252.1z"/>
<path d="M686.8,226.7c6.2,0,9.3,2.5,11.5,5.6l3.3-2.6c-2.4-3.6-6.5-7-14.4-7c-6.5,0-12.3,2.7-16.4,6.9c-4.4,4.4-7.1,10.4-7.1,16.4
	c0,10.2,7.6,16.2,16.9,16.2c5.3,0,9.5-1.5,13.6-4l4.9-17.1h-15.8l-1,3.9h11.5l-3,10.6c-2.5,1.5-5.7,2.7-9.9,2.7
	c-7.4,0-12.6-4.6-12.6-12.4c0-5.1,2.2-10.1,5.8-13.8C677.4,228.9,681.8,226.7,686.8,226.7z"/>
<path d="M712.5,240.8l1.9-7.4h-4.2l-7.5,28.2h4.2l3-11.1c2.3-8.5,8.4-13,14.6-13h0.3l1.2-4.5C720.3,232.6,715.9,235.9,712.5,240.8z"
	/>
<path d="M742.6,232.8c-4.4,0-8.5,2-11.5,5c-3.2,3.1-5.1,7.4-5.1,11.8c0,7.3,5.1,12.6,12.8,12.6c4.4,0,8.6-2,11.6-5
	c3.1-3.2,5.1-7.4,5.1-11.9C755.5,238.1,750.4,232.8,742.6,232.8z M747.2,255c-2.1,2.1-5,3.5-8,3.5c-5.2,0-8.8-3.3-8.8-9
	c0-3.5,1.6-7,4-9.4c2.1-2.1,5-3.5,8-3.5c5.2,0,8.8,3.3,8.8,9C751.2,249,749.7,252.5,747.2,255z"/>
<path d="M786.5,233.4l-4.3,15.9c-1.5,5.4-5.8,9.2-10.2,9.2c-3.9,0-6.3-2.2-6.3-5.9c0-0.9,0.2-2.2,0.4-3.2l4.3-16h-4.2l-4.1,15.7
	c-0.4,1.5-0.7,3.1-0.7,4.4c0,5.3,3.5,8.7,9,8.7c4.3,0,7.2-2.3,9.8-5.2l-1.2,4.6h4.1l7.6-28.2H786.5z"/>
<path d="M813.6,232.8c-4.5,0-8,2.3-10.7,5.5l1.3-4.9H800l-9.9,36.9h4.2l4-15c1.6,3.7,4.8,7,10.6,7c3.9,0,7.7-1.7,10.6-4.6
	c3.2-3.2,5.2-7.7,5.2-12.9C824.8,237.6,820,232.8,813.6,232.8z M816.3,255.3c-2,2-4.7,3.3-7.7,3.3c-5.2,0-8.7-3.9-8.7-8.8
	c0-3.6,1.7-7,4.2-9.5c2.3-2.3,5.3-3.8,8.3-3.8c4.7,0,8,3.4,8,8.6C820.4,249.1,818.8,252.7,816.3,255.3z"/>
</svg>
