<?xml version="1.0" encoding="UTF-8"?>
<svg id="Layer_1" data-name="Layer 1" xmlns="http://www.w3.org/2000/svg" xmlns:xlink="http://www.w3.org/1999/xlink" viewBox="0 0 448.52 144.37">
  <defs>
    <style>
      .cls-1 {
        fill: url(#linear-gradient);
      }

      .cls-1, .cls-2, .cls-3, .cls-4, .cls-5, .cls-6, .cls-7, .cls-8, .cls-9, .cls-10, .cls-11, .cls-12, .cls-13 {
        stroke-width: 0px;
      }

      .cls-2 {
        fill: url(#linear-gradient-11);
      }

      .cls-3 {
        fill: url(#linear-gradient-12);
      }

      .cls-4 {
        fill: url(#linear-gradient-10);
      }

      .cls-5 {
        fill: url(#linear-gradient-4);
      }

      .cls-6 {
        fill: url(#linear-gradient-2);
      }

      .cls-7 {
        fill: url(#linear-gradient-3);
      }

      .cls-8 {
        fill: url(#linear-gradient-8);
      }

      .cls-9 {
        fill: url(#linear-gradient-9);
      }

      .cls-10 {
        fill: url(#linear-gradient-7);
      }

      .cls-11 {
        fill: url(#linear-gradient-5);
      }

      .cls-12 {
        fill: url(#linear-gradient-6);
      }

      .cls-13 {
        fill: #101010;
      }
    </style>
    <linearGradient id="linear-gradient" x1="0" y1="71.64" x2="32.42" y2="71.64" gradientUnits="userSpaceOnUse">
      <stop offset="0" stop-color="#939596"/>
      <stop offset="1" stop-color="#010101"/>
    </linearGradient>
    <linearGradient id="linear-gradient-2" x1="111.74" x2="144.16" xlink:href="#linear-gradient"/>
    <linearGradient id="linear-gradient-3" x1="55.58" y1="16.21" x2="88.58" y2="16.21" xlink:href="#linear-gradient"/>
    <linearGradient id="linear-gradient-4" x1="55.58" y1="127.06" x2="88.58" y2="127.06" xlink:href="#linear-gradient"/>
    <linearGradient id="linear-gradient-5" x1="14.89" y1="14.92" x2="61.18" y2="60.33" xlink:href="#linear-gradient"/>
    <linearGradient id="linear-gradient-6" x1="6.84" y1="6.33" x2="24.61" y2="23.83" xlink:href="#linear-gradient"/>
    <linearGradient id="linear-gradient-7" x1="4802.6" y1="14.92" x2="4848.89" y2="60.33" gradientTransform="translate(4931.87) rotate(-180) scale(1 -1)" xlink:href="#linear-gradient"/>
    <linearGradient id="linear-gradient-8" x1="4794.55" y1="6.33" x2="4812.32" y2="23.83" gradientTransform="translate(4931.87) rotate(-180) scale(1 -1)" xlink:href="#linear-gradient"/>
    <linearGradient id="linear-gradient-9" x1="14.89" y1="9345.57" x2="61.18" y2="9390.99" gradientTransform="translate(0 9473.93) scale(1 -1)" xlink:href="#linear-gradient"/>
    <linearGradient id="linear-gradient-10" x1="6.84" y1="9336.98" x2="24.61" y2="9354.48" gradientTransform="translate(0 9473.93) scale(1 -1)" xlink:href="#linear-gradient"/>
    <linearGradient id="linear-gradient-11" x1="4802.6" y1="9345.57" x2="4848.89" y2="9390.99" gradientTransform="translate(4931.87 9473.93) rotate(-180)" xlink:href="#linear-gradient"/>
    <linearGradient id="linear-gradient-12" x1="4794.55" y1="9336.98" x2="4812.32" y2="9354.48" gradientTransform="translate(4931.87 9473.93) rotate(-180)" xlink:href="#linear-gradient"/>
  </defs>
  <g>
    <path class="cls-13" d="M176.66,55.62l28.21-33.54h-27.27v-8.3h38.8v8.52l-28.42,33.65h29.89v8.31h-41.21v-8.62Z"/>
    <path class="cls-13" d="M222.19,39.01c0-3.69.68-7.13,2.04-10.33,1.36-3.19,3.23-6,5.61-8.41,2.38-2.41,5.17-4.31,8.39-5.7,3.21-1.38,6.68-2.08,10.38-2.08s7.17.69,10.38,2.08c3.21,1.38,6.01,3.28,8.39,5.7,2.38,2.41,4.25,5.22,5.61,8.41,1.36,3.19,2.05,6.64,2.05,10.33s-.68,7.15-2.05,10.38c-1.36,3.23-3.23,6.03-5.61,8.41-2.38,2.38-5.18,4.26-8.39,5.64-3.22,1.38-6.68,2.08-10.38,2.08s-7.17-.69-10.38-2.08c-3.22-1.38-6.01-3.26-8.39-5.64-2.38-2.38-4.25-5.18-5.61-8.41-1.36-3.23-2.04-6.69-2.04-10.38ZM232.26,39.01c0,2.56.38,4.92,1.15,7.08.77,2.17,1.85,4.01,3.25,5.54,1.4,1.53,3.11,2.73,5.14,3.62,2.03.89,4.3,1.33,6.82,1.33s4.79-.44,6.82-1.33c2.03-.89,3.74-2.09,5.14-3.62,1.4-1.53,2.48-3.37,3.25-5.54.77-2.16,1.15-4.53,1.15-7.08s-.39-4.91-1.15-7.08c-.77-2.16-1.85-4.01-3.25-5.54-1.4-1.53-3.11-2.73-5.14-3.62-2.03-.89-4.3-1.33-6.82-1.33s-4.79.44-6.82,1.33c-2.03.89-3.74,2.09-5.14,3.62-1.4,1.53-2.48,3.37-3.25,5.54-.77,2.17-1.15,4.53-1.15,7.08Z"/>
    <path class="cls-13" d="M285.15,13.77h9.44v7.24h.21c1.82-2.7,4.32-4.79,7.5-6.28,3.18-1.49,6.45-2.24,9.81-2.24,3.84,0,7.32.68,10.43,2.02,3.11,1.35,5.77,3.23,7.97,5.64,2.2,2.41,3.9,5.24,5.09,8.47,1.19,3.23,1.78,6.69,1.78,10.38s-.59,7.26-1.78,10.49c-1.19,3.23-2.88,6.03-5.09,8.41-2.2,2.38-4.86,4.24-7.97,5.59-3.11,1.35-6.59,2.02-10.43,2.02-3.57,0-6.92-.76-10.07-2.29-3.15-1.53-5.56-3.6-7.24-6.23h-.21v37.27h-9.44V13.77ZM310.94,21.44c-2.52,0-4.79.44-6.82,1.33-2.03.89-3.74,2.09-5.14,3.62-1.4,1.53-2.48,3.37-3.25,5.54-.77,2.17-1.15,4.53-1.15,7.08s.38,4.92,1.15,7.08c.77,2.17,1.85,4.01,3.25,5.54,1.4,1.53,3.11,2.73,5.14,3.62,2.03.89,4.3,1.33,6.82,1.33s4.79-.44,6.82-1.33c2.03-.89,3.74-2.09,5.14-3.62,1.4-1.53,2.48-3.37,3.25-5.54.77-2.16,1.15-4.53,1.15-7.08s-.38-4.91-1.15-7.08c-.77-2.16-1.85-4.01-3.25-5.54-1.4-1.53-3.11-2.73-5.14-3.62-2.03-.89-4.3-1.33-6.82-1.33Z"/>
    <path class="cls-13" d="M354.7,42.52c0,2.2.47,4.21,1.42,6.02.94,1.81,2.18,3.35,3.72,4.63,1.54,1.28,3.32,2.27,5.35,2.98,2.03.71,4.12,1.07,6.29,1.07,2.94,0,5.49-.69,7.66-2.08,2.17-1.38,4.16-3.21,5.98-5.48l7.13,5.54c-5.24,6.89-12.58,10.33-22.02,10.33-3.92,0-7.46-.68-10.65-2.02-3.18-1.35-5.87-3.21-8.07-5.59-2.2-2.38-3.9-5.18-5.09-8.41-1.19-3.23-1.78-6.72-1.78-10.49s.64-7.26,1.94-10.49c1.29-3.23,3.08-6.03,5.35-8.41,2.27-2.38,4.98-4.24,8.13-5.59,3.15-1.35,6.57-2.02,10.28-2.02,4.4,0,8.13.78,11.17,2.34,3.04,1.56,5.54,3.6,7.5,6.12,1.96,2.52,3.37,5.36,4.25,8.52.87,3.16,1.31,6.37,1.31,9.64v3.41h-39.85ZM384.48,34.85c-.07-2.13-.4-4.08-1-5.86-.6-1.77-1.49-3.32-2.67-4.63-1.19-1.31-2.67-2.34-4.46-3.09-1.78-.75-3.86-1.12-6.24-1.12s-4.42.44-6.34,1.33c-1.92.89-3.55,2.04-4.88,3.46-1.33,1.42-2.36,3-3.09,4.74-.73,1.74-1.1,3.46-1.1,5.16h29.78Z"/>
    <path class="cls-13" d="M404.47,13.77h9.44v7.77h.21c1.19-2.7,3.25-4.88,6.19-6.55,2.94-1.67,6.33-2.5,10.17-2.5,2.38,0,4.67.37,6.87,1.12,2.2.75,4.12,1.9,5.77,3.46,1.64,1.56,2.95,3.57,3.93,6.02.98,2.45,1.47,5.34,1.47,8.68v32.48h-9.44v-29.81c0-2.34-.31-4.35-.94-6.02-.63-1.67-1.47-3.02-2.52-4.05-1.05-1.03-2.25-1.77-3.62-2.24-1.36-.46-2.78-.69-4.25-.69-1.96,0-3.78.32-5.45.96s-3.15,1.65-4.4,3.03c-1.26,1.38-2.24,3.14-2.94,5.27-.7,2.13-1.05,4.65-1.05,7.56v25.98h-9.44V13.77Z"/>
    <path class="cls-13" d="M195.66,111.1c-.93-.98-1.9-1.72-2.92-2.23s-2.24-.76-3.65-.76-2.57.25-3.59.76c-1.02.51-1.88,1.21-2.56,2.09-.69.89-1.21,1.91-1.56,3.05-.35,1.15-.53,2.35-.53,3.59s.2,2.42.61,3.54c.41,1.11.98,2.08,1.73,2.91.74.83,1.63,1.48,2.67,1.95s2.21.71,3.51.71c1.41,0,2.62-.25,3.62-.76s1.93-1.25,2.79-2.23l3.57,3.62c-1.3,1.47-2.81,2.53-4.54,3.17s-3.56.96-5.49.96c-2.04,0-3.91-.34-5.6-1.02-1.69-.68-3.15-1.63-4.37-2.86-1.23-1.22-2.17-2.7-2.84-4.41-.67-1.72-1-3.61-1-5.69s.33-3.98,1-5.71c.67-1.73,1.61-3.22,2.81-4.47,1.21-1.24,2.66-2.21,4.35-2.91s3.57-1.05,5.66-1.05c1.93,0,3.78.35,5.54,1.05,1.76.7,3.3,1.76,4.6,3.2l-3.79,3.51Z"/>
    <path class="cls-13" d="M201.49,117.38c0-1.96.36-3.79,1.09-5.49.72-1.7,1.72-3.19,2.98-4.47,1.26-1.28,2.75-2.29,4.46-3.03s3.55-1.1,5.52-1.1,3.81.37,5.51,1.1c1.71.74,3.19,1.74,4.46,3.03,1.26,1.28,2.26,2.77,2.98,4.47.72,1.7,1.09,3.53,1.09,5.49s-.36,3.8-1.09,5.51c-.72,1.72-1.72,3.21-2.98,4.47-1.26,1.26-2.75,2.26-4.46,3-1.71.73-3.55,1.1-5.51,1.1s-3.81-.37-5.52-1.1c-1.71-.74-3.19-1.74-4.46-3-1.26-1.26-2.26-2.75-2.98-4.47-.72-1.72-1.09-3.55-1.09-5.51ZM206.84,117.38c0,1.36.2,2.61.61,3.76.41,1.15.98,2.13,1.73,2.94s1.65,1.45,2.73,1.92c1.08.47,2.28.71,3.62.71s2.54-.24,3.62-.71,1.99-1.11,2.73-1.92,1.32-1.79,1.73-2.94c.41-1.15.61-2.4.61-3.76s-.21-2.61-.61-3.76c-.41-1.15-.98-2.13-1.73-2.94s-1.65-1.45-2.73-1.92c-1.08-.47-2.28-.71-3.62-.71s-2.54.24-3.62.71c-1.08.47-1.99,1.11-2.73,1.92s-1.32,1.79-1.73,2.94c-.41,1.15-.61,2.4-.61,3.76Z"/>
    <path class="cls-13" d="M235.44,103.98h4.68v4.19h.11c.11-.38.4-.85.86-1.41.46-.57,1.06-1.1,1.78-1.61.73-.51,1.58-.94,2.56-1.3s2.07-.54,3.26-.54c1.97,0,3.62.42,4.96,1.25,1.34.83,2.43,2.07,3.29,3.73.85-1.66,2.06-2.9,3.62-3.73s3.14-1.25,4.74-1.25c2.04,0,3.71.34,5.01,1.02,1.3.68,2.32,1.57,3.06,2.69.74,1.11,1.25,2.38,1.53,3.79.28,1.41.42,2.88.42,4.38v15.61h-5.01v-14.93c0-1.02-.06-2-.19-2.94-.13-.94-.4-1.77-.81-2.49-.41-.72-.98-1.29-1.73-1.73-.74-.43-1.73-.65-2.95-.65-2.41,0-4.14.76-5.18,2.26-1.04,1.51-1.56,3.45-1.56,5.83v14.65h-5.01v-14.03c0-1.28-.06-2.45-.19-3.51s-.39-1.97-.78-2.74c-.39-.77-.95-1.38-1.67-1.81-.72-.43-1.7-.65-2.92-.65-.89,0-1.75.18-2.59.54-.84.36-1.57.9-2.2,1.61-.63.72-1.13,1.63-1.51,2.74-.37,1.11-.56,2.42-.56,3.93v13.92h-5.01v-26.81Z"/>
    <path class="cls-13" d="M282.54,103.98h4.68v4.19h.11c.11-.38.4-.85.86-1.41.46-.57,1.06-1.1,1.78-1.61.73-.51,1.58-.94,2.56-1.3s2.07-.54,3.26-.54c1.97,0,3.62.42,4.96,1.25,1.34.83,2.43,2.07,3.29,3.73.85-1.66,2.06-2.9,3.62-3.73s3.14-1.25,4.74-1.25c2.04,0,3.71.34,5.01,1.02,1.3.68,2.32,1.57,3.06,2.69.74,1.11,1.25,2.38,1.53,3.79.28,1.41.42,2.88.42,4.38v15.61h-5.01v-14.93c0-1.02-.06-2-.19-2.94-.13-.94-.4-1.77-.81-2.49-.41-.72-.98-1.29-1.73-1.73-.74-.43-1.73-.65-2.95-.65-2.41,0-4.14.76-5.18,2.26-1.04,1.51-1.56,3.45-1.56,5.83v14.65h-5.01v-14.03c0-1.28-.06-2.45-.19-3.51s-.39-1.97-.78-2.74c-.39-.77-.95-1.38-1.67-1.81-.72-.43-1.7-.65-2.92-.65-.89,0-1.75.18-2.59.54-.84.36-1.57.9-2.2,1.61-.63.72-1.13,1.63-1.51,2.74-.37,1.11-.56,2.42-.56,3.93v13.92h-5.01v-26.81Z"/>
    <path class="cls-13" d="M352.85,130.79h-5.01v-4.13h-.11c-.63,1.43-1.73,2.59-3.29,3.48-1.56.89-3.36,1.33-5.4,1.33-1.3,0-2.53-.2-3.68-.59-1.15-.4-2.16-1.01-3.04-1.84-.87-.83-1.57-1.9-2.09-3.2-.52-1.3-.78-2.84-.78-4.61v-17.25h5.01v15.84c0,1.25.17,2.31.5,3.2.33.89.78,1.6,1.34,2.15.56.55,1.2.94,1.92,1.19.72.25,1.48.37,2.26.37,1.04,0,2.01-.17,2.9-.51.89-.34,1.67-.88,2.34-1.61.67-.74,1.19-1.67,1.56-2.8.37-1.13.56-2.47.56-4.02v-13.8h5.01v26.81Z"/>
    <path class="cls-13" d="M360.11,103.98h5.01v4.13h.11c.63-1.43,1.73-2.59,3.29-3.48,1.56-.89,3.36-1.33,5.4-1.33,1.26,0,2.48.2,3.65.59,1.17.4,2.19,1.01,3.06,1.84.87.83,1.57,1.9,2.09,3.2.52,1.3.78,2.84.78,4.61v17.25h-5.01v-15.84c0-1.24-.17-2.31-.5-3.19-.33-.89-.78-1.6-1.34-2.15-.56-.55-1.2-.94-1.92-1.19s-1.48-.37-2.26-.37c-1.04,0-2.01.17-2.9.51s-1.67.88-2.34,1.61c-.67.74-1.19,1.67-1.56,2.8-.37,1.13-.56,2.47-.56,4.02v13.8h-5.01v-26.81Z"/>
    <path class="cls-13" d="M389.65,94.36c0-1.02.36-1.9,1.09-2.63.72-.73,1.59-1.1,2.59-1.1s1.87.37,2.59,1.1c.72.74,1.09,1.61,1.09,2.63s-.36,1.9-1.09,2.63c-.73.74-1.59,1.1-2.59,1.1s-1.87-.37-2.59-1.1-1.09-1.61-1.09-2.63ZM390.82,103.98h5.01v26.81h-5.01v-26.81Z"/>
    <path class="cls-13" d="M417.87,108.39h-7.19v12.16c0,.76.02,1.5.05,2.23.04.74.18,1.4.42,1.98.24.58.61,1.06,1.11,1.41.5.36,1.23.54,2.2.54.59,0,1.21-.06,1.84-.17.63-.11,1.21-.32,1.73-.62v4.64c-.6.34-1.37.57-2.31.71-.95.13-1.68.2-2.2.2-1.93,0-3.43-.27-4.49-.82s-1.84-1.25-2.34-2.12c-.5-.87-.8-1.84-.89-2.91-.09-1.07-.14-2.16-.14-3.25v-13.97h-5.79v-4.41h5.79v-7.52h5.01v7.52h7.19v4.41Z"/>
    <path class="cls-13" d="M421.57,103.98h5.79l7.82,20.93h.11l7.5-20.93h5.35l-12.54,32.58c-.44,1.17-.91,2.23-1.39,3.2-.48.96-1.05,1.78-1.72,2.46-.67.68-1.47,1.21-2.41,1.58-.94.38-2.1.57-3.47.57-.74,0-1.49-.05-2.25-.14-.76-.09-1.49-.29-2.19-.59l.61-4.64c1,.41,1.99.62,2.99.62.77,0,1.43-.1,1.97-.31.53-.21,1-.51,1.38-.91.39-.4.71-.86.97-1.39s.52-1.13.77-1.81l1.62-4.24-10.93-26.98Z"/>
  </g>
  <g>
    <g>
      <path class="cls-1" d="M0,88.14l17.14-11.02v-11.12L0,55.14l31.72,5.64s-3.15,14.52.7,21.6L0,88.14Z"/>
      <path class="cls-6" d="M144.16,88.14l-17.14-11.02v-11.12l17.14-10.85-31.72,5.64s3.15,14.52-.7,21.6l32.42,5.76Z"/>
      <path class="cls-7" d="M55.58,0l11.02,17.14h11.12L88.58,0l-5.64,31.72s-14.52-3.15-21.6.7L55.58,0Z"/>
      <path class="cls-5" d="M55.58,143.27l11.02-17.14h11.12l10.85,17.14-5.64-31.72s-14.52,3.15-21.6-.7l-5.76,32.42Z"/>
    </g>
    <g>
      <path class="cls-11" d="M51.23,64.84L0,55.14l8.93-21.34,20.85,3.7c.95-4.28,3.26-6.7,7.15-6.92l-3.57-21.44L55.58,0l9.09,51.15c-6.08,2.33-10.78,6.67-13.45,13.7Z"/>
      <circle class="cls-12" cx="13.08" cy="12.47" r="12.47"/>
    </g>
    <g>
      <path class="cls-10" d="M92.94,64.84l51.23-9.7-8.93-21.34-20.85,3.7c-.95-4.28-3.26-6.7-7.15-6.92l3.57-21.44L88.58,0l-9.09,51.15c6.08,2.33,10.78,6.67,13.45,13.7Z"/>
      <circle class="cls-8" cx="131.09" cy="12.47" r="12.47"/>
    </g>
    <g>
      <path class="cls-9" d="M51.23,78.43L0,88.13l8.93,21.34,20.85-3.7c.95,4.28,3.26,6.7,7.15,6.92l-3.57,21.44,22.24,9.13,9.09-51.15c-6.08-2.33-10.78-6.67-13.45-13.7Z"/>
      <circle class="cls-4" cx="13.08" cy="130.81" r="12.47"/>
    </g>
    <g>
      <path class="cls-2" d="M92.94,78.43l51.23,9.7-8.93,21.34-20.85-3.7c-.95,4.28-3.26,6.7-7.15,6.92l3.57,21.44-22.24,9.13-9.09-51.15c6.08-2.33,10.78-6.67,13.45-13.7Z"/>
      <circle class="cls-3" cx="131.09" cy="130.81" r="12.47"/>
    </g>
  </g>
</svg>