<?xml version="1.0" encoding="utf-8"?>
<!-- Generator: Adobe Illustrator 23.1.1, SVG Export Plug-In . SVG Version: 6.00 Build 0)  -->
<svg version="1.1" id="Layer_1" xmlns="http://www.w3.org/2000/svg" xmlns:xlink="http://www.w3.org/1999/xlink" x="0px" y="0px"
	 viewBox="0 0 400 160" style="enable-background:new 0 0 400 160;" xml:space="preserve">
<style type="text/css">
	.st0{fill:#231F20;}
	.st1{opacity:0.6;fill:#231F20;}
</style>
<title>zorow-logo</title>
<g>
	<g>
		<g>
			<path class="st0" d="M321.9,23.8h2.7c0.9-0.1,1.7,0.2,2.4,0.7c0.6,0.5,0.9,1.2,0.8,1.9c0,0.7-0.3,1.5-0.8,2
				c-0.7,0.5-1.6,0.8-2.5,0.7h-1.9v4.7h-0.8L321.9,23.8z M322.6,24.4v4h1.9c0.7,0,1.3-0.1,1.9-0.5c0.8-0.8,0.9-2,0.1-2.9
				c0,0-0.1-0.1-0.1-0.1c-0.5-0.4-1.2-0.6-1.8-0.5H322.6z"/>
			<path class="st0" d="M330.5,23.8h2.6c0.9-0.1,1.7,0.2,2.5,0.7c0.6,0.5,0.9,1.2,0.8,1.9c0,1.2-0.8,2.2-1.9,2.4
				c0.6,0.4,1,0.9,1.3,1.5l2.3,3.4h-0.9l-1.7-2.7c-0.4-0.6-0.8-1.2-1.4-1.7c-0.4-0.3-0.9-0.4-1.4-0.3h-1.3v4.8h-0.8L330.5,23.8z
				 M331.3,24.4v3.9h1.7c0.7,0,1.4-0.1,1.9-0.5c0.8-0.7,0.9-1.9,0.2-2.6c-0.1-0.1-0.2-0.2-0.2-0.2c-0.6-0.4-1.3-0.6-1.9-0.5
				L331.3,24.4z"/>
			<path class="st0" d="M344.7,23.6c1.4,0,2.8,0.5,3.8,1.5c2,1.9,2.1,5.1,0.1,7.1c0,0-0.1,0.1-0.1,0.1c-2.1,2-5.4,2-7.5,0
				c-2-1.9-2-5.2-0.1-7.2c0,0,0.1-0.1,0.1-0.1C342,24.1,343.3,23.6,344.7,23.6 M344.7,33.1c1.2,0,2.3-0.4,3.1-1.3
				c1.7-1.7,1.7-4.5,0-6.3c-0.8-0.8-2-1.3-3.1-1.3c-1.2,0-2.3,0.4-3.2,1.3c-1.7,1.7-1.7,4.5,0,6.3c0,0,0,0,0,0
				C342.4,32.7,343.5,33.2,344.7,33.1"/>
			<path class="st0" d="M353.9,23.8v10c0.1,0.8-0.1,1.6-0.6,2.3c-0.4,0.4-0.9,0.6-1.5,0.6c-0.2,0-0.3,0-0.5,0l-0.1-0.7
				c0.1,0,0.3,0.1,0.5,0.1c0.9,0,1.4-0.7,1.4-2V23.8H353.9z"/>
			<polygon class="st0" points="362.7,23.8 362.7,24.4 358.1,24.4 358.1,28.4 362.6,28.4 362.6,29 358.1,29 358.1,33.1 362.8,33.1 
				362.8,33.7 357.3,33.7 357.3,23.8 			"/>
			<path class="st0" d="M373.9,24.5v0.8c-1.1-0.6-2.3-0.9-3.6-1c-1.2,0-2.3,0.4-3.1,1.3c-0.8,0.8-1.3,2-1.3,3.2
				c0,1.2,0.4,2.3,1.3,3.2c0.9,0.8,2,1.3,3.2,1.2c1.2,0,2.5-0.4,3.5-1v0.8c-1.1,0.6-2.3,0.9-3.5,0.9c-1.4,0-2.8-0.5-3.8-1.5
				c-2-2-2-5.2,0-7.2c0,0,0,0,0.1-0.1c1-1,2.3-1.5,3.7-1.5C371.6,23.7,372.8,23.9,373.9,24.5"/>
			<polygon class="st0" points="383.8,23.8 383.8,24.4 380.1,24.4 380.1,33.7 379.3,33.7 379.3,24.4 375.6,24.4 375.6,23.8 			"/>
			<polygon class="st0" points="218.2,34.4 214.8,34.4 214.8,28 211.8,31.7 211.6,31.7 208.5,28 208.5,34.4 205.3,34.4 205.3,23.4 
				208.3,23.4 211.7,27.5 215.1,23.4 218.2,23.4 			"/>
			<path class="st0" d="M233.1,34.4h-3.4l-0.9-2.2H224l-0.9,2.2h-3.4l4.9-11.1h3.7L233.1,34.4z M228,30.3l-1.6-4l-1.6,4H228z"/>
			<rect x="234.6" y="23.4" class="st0" width="3.3" height="11.1"/>
			<polygon class="st0" points="252.7,34.4 249.7,34.4 244,28.3 244,34.4 240.7,34.4 240.7,23.4 243.7,23.4 249.4,29.5 249.4,23.4 
				252.7,23.4 			"/>
			<polygon class="st0" points="263.4,30 258.8,30 258.8,34.4 255.5,34.4 255.5,23.4 263.4,23.4 263.4,25.6 258.8,25.6 258.8,27.7 
				263.4,27.7 			"/>
			<path class="st0" d="M276.3,34.4h-3.6l-0.9-2c-0.2-0.6-0.5-1.1-0.9-1.6c-0.2-0.3-0.4-0.5-0.7-0.6c-0.3-0.1-0.6-0.2-0.9-0.1H269
				v4.3h-3.3V23.4h5.7c0.8,0,1.6,0.2,2.2,0.6c0.5,0.3,1,0.8,1.3,1.4c0.2,0.5,0.4,1,0.4,1.5c0,0.5-0.1,1-0.3,1.4
				c-0.2,0.3-0.4,0.6-0.7,0.8c-0.3,0.2-0.5,0.4-0.8,0.5c0.3,0.2,0.6,0.4,0.9,0.7c0.4,0.5,0.7,1.1,0.9,1.7L276.3,34.4z M271.8,26.9
				c0-0.4-0.1-0.8-0.5-1.1c-0.5-0.2-1.1-0.3-1.6-0.3H269v2.7h0.7c0.6,0,1.1,0,1.7-0.3C271.7,27.7,271.9,27.3,271.8,26.9"/>
			<path class="st0" d="M290,34.4h-3.4l-0.9-2.2h-4.8l-0.9,2.2h-3.4l4.9-11.1h3.7L290,34.4z M284.9,30.3l-1.6-4l-1.6,4H284.9z"/>
			<polygon class="st0" points="304.3,34.4 301,34.4 301,28 298,31.7 297.7,31.7 294.7,28 294.7,34.4 291.5,34.4 291.5,23.4 
				294.5,23.4 297.9,27.5 301.3,23.4 304.3,23.4 			"/>
			<polygon class="st0" points="315.5,34.4 307.1,34.4 307.1,23.4 315.3,23.4 315.3,25.6 310.5,25.6 310.5,27.6 315.1,27.6 
				315.1,29.8 310.5,29.8 310.5,32.2 315.5,32.2 			"/>
			<path class="st0" d="M163.9,23.7c1.6,0,3.1,0.6,4.2,1.7c2.2,2.2,2.3,5.7,0.1,8c0,0-0.1,0.1-0.1,0.1c-2.3,2.2-6,2.2-8.4,0
				c-2.2-2.2-2.3-5.8-0.1-8c0,0,0.1-0.1,0.1-0.1C160.8,24.3,162.3,23.7,163.9,23.7 M163.9,34.4c1.3,0,2.6-0.5,3.5-1.4
				c1.9-1.9,1.9-5.1,0-7c-0.9-0.9-2.2-1.5-3.5-1.4c-1.3,0-2.6,0.5-3.5,1.4c-1.9,1.9-1.9,5.1,0,7c0,0,0,0,0,0
				C161.3,33.9,162.6,34.4,163.9,34.4"/>
			<path class="st0" d="M171.9,23.9h3.1c1-0.1,1.9,0.2,2.7,0.8c0.6,0.5,1,1.3,0.9,2.2c0,0.8-0.3,1.6-0.9,2.2
				c-0.8,0.6-1.8,0.9-2.8,0.8h-2.1V35h-0.9V23.9z M172.8,24.6v4.5h2.1c0.8,0.1,1.5-0.2,2.1-0.6c0.9-0.8,1-2.3,0.1-3.2
				c0,0-0.1-0.1-0.1-0.1c-0.6-0.4-1.3-0.7-2-0.6L172.8,24.6z"/>
			<polygon class="st0" points="186.3,23.9 186.3,24.6 181.1,24.6 181.1,29.1 186.2,29.1 186.2,29.8 181.1,29.8 181.1,34.3 
				186.5,34.3 186.5,35 180.3,35 180.3,23.9 			"/>
			<polygon class="st0" points="198.3,23.9 198.3,35 197.6,35 189.1,25.3 189.1,35 188.2,35 188.2,23.9 189,23.9 197.4,33.6 
				197.4,23.9 			"/>
			<g>
				<path class="st0" d="M173,44.6h11.9l19,45h-13.3l-3.2-8h-17.3l-3.2,8h-13L173,44.6z M183.8,72l-5-12.6l-5,12.6H183.8z"/>
				<path class="st0" d="M216,55.8h-13.3V45h39.2v10.9h-13.4v33.9H216V55.8z"/>
				<path class="st0" d="M246.4,67.4v-0.1c0-12.8,10.3-23.2,24.1-23.2c13.8,0,24,10.3,24,23.1v0.1c0,12.8-10.3,23.3-24.1,23.3
					C256.6,90.6,246.4,80.3,246.4,67.4z M281.9,67.4v-0.1c0-6.5-4.6-12.1-11.4-12.1c-6.8,0-11.4,5.5-11.4,11.9v0.1
					c0,6.5,4.7,12.1,11.5,12.1C277.3,79.4,281.9,73.9,281.9,67.4z"/>
				<path class="st0" d="M303.5,45h13.1l10.7,17.3L338,45H351v44.7h-12.3V64l-11.4,17.5H327l-11.4-17.4v25.6h-12.1V45z"/>
			</g>
		</g>
		<g>
			<g>
				<path class="st0" d="M160.1,102.2h1.6l-3.3,12.4h7.8l-0.4,1.4h-9.3L160.1,102.2z"/>
				<path class="st0" d="M168.8,113.4c0-1,0.4-1.8,1-2.4c0.8-0.8,2.1-1.3,3.6-1.3c1.4,0,2.6,0.3,3.6,0.6l0.1-0.2
					c0.1-0.3,0.1-0.7,0.1-0.9c0-1.3-0.9-2.1-2.8-2.1c-1.1,0-2,0.2-2.9,0.5l-0.3-1.3c1-0.4,2.1-0.6,3.4-0.6c2.6,0,4,1.2,4,3.2
					c0,0.4-0.1,0.9-0.2,1.4l-1.5,5.8h-1.5l0.4-1.6c-0.9,1.1-2.2,1.8-3.8,1.8C170.4,116.2,168.8,115.2,168.8,113.4z M176.6,112
					l0.2-0.7c-0.9-0.3-2.1-0.5-3.3-0.5c-1,0-1.9,0.3-2.4,0.8c-0.4,0.4-0.7,0.9-0.7,1.5c0,1.1,0.8,1.8,2.2,1.8
					C174.3,115,176.1,113.8,176.6,112z"/>
				<path class="st0" d="M183.7,105.8h1.5l-0.4,1.7c0.9-1,2-1.9,3.6-1.9c2,0,3.2,1.2,3.2,3.2c0,0.5-0.1,1-0.2,1.6l-1.5,5.7h-1.5
					l1.6-5.8c0.1-0.3,0.1-0.8,0.1-1.1c0-1.3-0.8-2.1-2.3-2.1c-1.6,0-3.2,1.4-3.7,3.3l-1.5,5.8H181L183.7,105.8z"/>
				<path class="st0" d="M193.3,117.4l0.9-1.1c1.1,0.9,2.5,1.5,4,1.5c1.3,0,2.3-0.4,2.9-1c0.6-0.6,1-1.4,1.3-2.5l0.3-1
					c-1,1-2.2,1.8-3.9,1.8c-2.1,0-4.1-1.4-4.1-3.9c0-1.7,0.7-3.1,1.7-4.1c1.1-1.1,2.5-1.7,4-1.7c2.2,0,3.2,1.2,3.8,2.5l0.6-2.2h1.5
					l-2.3,8.8c-0.4,1.6-0.9,2.5-1.7,3.2c-0.9,0.9-2.2,1.4-4,1.4C196.4,119.2,194.6,118.5,193.3,117.4z M202.4,112.6
					c0.8-0.8,1.2-1.8,1.2-2.8c0-1.5-1.2-2.9-3.1-2.9c-1.1,0-2.2,0.5-2.9,1.2c-0.8,0.8-1.3,1.8-1.3,3c0,1.8,1.4,2.7,3,2.7
					C200.4,113.9,201.5,113.4,202.4,112.6z"/>
				<path class="st0" d="M208.5,113.1c0-0.5,0.1-1,0.3-1.6l1.5-5.7h1.5l-1.5,5.8c-0.1,0.3-0.2,0.8-0.2,1.1c0,1.3,0.9,2.1,2.3,2.1
					c1.6,0,3.2-1.4,3.7-3.3l1.5-5.8h1.5l-2.7,10.2h-1.5l0.4-1.7c-0.9,1-2,1.9-3.6,1.9C209.8,116.2,208.5,115,208.5,113.1z"/>
				<path class="st0" d="M220.7,113.4c0-1,0.4-1.8,1-2.4c0.8-0.8,2.1-1.3,3.6-1.3c1.4,0,2.6,0.3,3.6,0.6l0.1-0.2
					c0.1-0.3,0.1-0.7,0.1-0.9c0-1.3-0.9-2.1-2.8-2.1c-1.1,0-2,0.2-2.9,0.5l-0.3-1.3c1-0.4,2.1-0.6,3.4-0.6c2.6,0,4,1.2,4,3.2
					c0,0.4-0.1,0.9-0.2,1.4l-1.5,5.8h-1.5l0.4-1.6c-0.9,1.1-2.2,1.8-3.8,1.8C222.2,116.2,220.7,115.2,220.7,113.4z M228.4,112
					l0.2-0.7c-0.9-0.3-2.1-0.5-3.3-0.5c-1,0-1.9,0.3-2.4,0.8c-0.4,0.4-0.7,0.9-0.7,1.5c0,1.1,0.8,1.8,2.2,1.8
					C226.1,115,227.9,113.8,228.4,112z"/>
				<path class="st0" d="M232.2,117.4l0.9-1.1c1.1,0.9,2.5,1.5,4,1.5c1.3,0,2.3-0.4,2.9-1c0.6-0.6,1-1.4,1.3-2.5l0.3-1
					c-1,1-2.2,1.8-3.9,1.8c-2.1,0-4.1-1.4-4.1-3.9c0-1.7,0.7-3.1,1.7-4.1c1.1-1.1,2.5-1.7,4-1.7c2.2,0,3.2,1.2,3.8,2.5l0.6-2.2h1.5
					l-2.3,8.8c-0.4,1.6-0.9,2.5-1.7,3.2c-0.9,0.9-2.2,1.4-4,1.4C235.3,119.2,233.5,118.5,232.2,117.4z M241.3,112.6
					c0.8-0.8,1.2-1.8,1.2-2.8c0-1.5-1.2-2.9-3.1-2.9c-1.1,0-2.2,0.5-2.9,1.2c-0.8,0.8-1.3,1.8-1.3,3c0,1.8,1.4,2.7,3,2.7
					C239.3,113.9,240.5,113.4,241.3,112.6z"/>
				<path class="st0" d="M248.8,111.4c0,0.1,0,0.3,0,0.4c0,1.8,1.1,3.1,3,3.1c1.3,0,2.3-0.5,3.2-1.2l0.8,1c-1,0.9-2.3,1.5-4.1,1.5
					c-2.6,0-4.4-1.8-4.4-4.3c0-1.7,0.7-3.4,1.9-4.6c1-1,2.4-1.7,4-1.7c2.6,0,4,1.8,4,3.9c0,0.7-0.1,1.3-0.4,1.9H248.8z M249,110.3
					h6.6c0.1-0.2,0.1-0.4,0.1-0.8c0-1.4-0.8-2.6-2.5-2.6c-1.1,0-2.1,0.5-2.8,1.2C249.7,108.7,249.2,109.5,249,110.3z"/>
				<path class="st0" d="M265.7,113.6l1.2-0.9c1.2,1.4,2.5,2.2,4.6,2.2c2,0,3.5-1.1,3.5-2.6c0-1.1-0.7-1.7-2.8-2.5
					c-2.5-1-3.8-1.9-3.8-3.7c0-0.9,0.4-1.8,1.1-2.5c0.9-0.9,2.3-1.5,4-1.5c2.2,0,3.9,0.9,4.9,2.1l-1.1,1c-1-1.1-2.3-1.7-3.9-1.7
					c-2.1,0-3.3,1.2-3.3,2.4c0,1.1,0.9,1.7,3.1,2.5c2.4,0.9,3.6,1.9,3.6,3.7c0,1-0.4,2-1.1,2.7c-1,1-2.4,1.5-4.1,1.5
					C268.8,116.2,266.9,115.2,265.7,113.6z"/>
				<path class="st0" d="M280.2,105.8h1.6l1.4,8.5l5.5-8.5h1.7l-7,10.6c-1.4,2.1-2.6,2.9-4.2,2.9c-0.9,0-1.6-0.3-2.2-0.7l0.8-1.1
					c0.4,0.3,1,0.5,1.6,0.5c0.9,0,1.6-0.5,2.7-1.9L280.2,105.8z"/>
				<path class="st0" d="M293.7,105.8h1.5l-0.4,1.7c0.9-1,2-1.9,3.6-1.9c2,0,3.2,1.2,3.2,3.2c0,0.5-0.1,1-0.2,1.6l-1.5,5.7h-1.5
					l1.6-5.8c0.1-0.3,0.1-0.8,0.1-1.1c0-1.3-0.8-2.1-2.3-2.1c-1.6,0-3.2,1.4-3.7,3.3l-1.5,5.8H291L293.7,105.8z"/>
				<path class="st0" d="M305.1,114.2c0-0.4,0.1-0.8,0.1-1.1l1.6-6h-1.4l0.4-1.3h1.4l0.8-3.1h1.5l-0.8,3.1h3.2l-0.4,1.3h-3.2
					l-1.6,5.9c0,0.2-0.1,0.5-0.1,0.8c0,0.7,0.5,1,1.4,1c0.5,0,0.9-0.1,1.5-0.3l-0.4,1.4c-0.5,0.2-1,0.3-1.6,0.3
					C306.1,116.2,305.1,115.5,305.1,114.2z"/>
				<path class="st0" d="M312.7,113.4c0-1,0.4-1.8,1-2.4c0.8-0.8,2.1-1.3,3.6-1.3c1.4,0,2.6,0.3,3.6,0.6l0.1-0.2
					c0.1-0.3,0.1-0.7,0.1-0.9c0-1.3-0.9-2.1-2.8-2.1c-1.1,0-2,0.2-2.9,0.5l-0.3-1.3c1-0.4,2.1-0.6,3.4-0.6c2.6,0,4,1.2,4,3.2
					c0,0.4-0.1,0.9-0.2,1.4l-1.5,5.8h-1.5l0.4-1.6c-0.9,1.1-2.2,1.8-3.8,1.8C314.2,116.2,312.7,115.2,312.7,113.4z M320.4,112
					l0.2-0.7c-0.9-0.3-2.1-0.5-3.3-0.5c-1,0-1.9,0.3-2.4,0.8c-0.4,0.4-0.7,0.9-0.7,1.5c0,1.1,0.8,1.8,2.2,1.8
					C318.1,115,319.9,113.8,320.4,112z"/>
				<path class="st0" d="M330.3,109.7l3.9-3.9h1.9l-5.2,5.1l2.7,5.2h-1.7l-2-4.1l-4.2,4.1h-1.9l5.5-5.3l-2.6-4.9h1.7L330.3,109.7z"
					/>
				<path class="st0" d="M160.1,125.9h1.6L160,132h7.9l1.6-6.1h1.6l-3.7,13.8h-1.6l1.7-6.2h-7.9l-1.7,6.2h-1.6L160.1,125.9z"/>
				<path class="st0" d="M174.8,129.5h1.5l-2.7,10.2H172L174.8,129.5z M175.7,125.6h1.7l-0.5,1.7h-1.7L175.7,125.6z"/>
				<path class="st0" d="M177.3,141.2l0.9-1.1c1.1,0.9,2.5,1.5,4,1.5c1.3,0,2.3-0.4,2.9-1c0.6-0.6,1-1.4,1.3-2.5l0.3-1
					c-1,1-2.2,1.8-3.9,1.8c-2.1,0-4.1-1.4-4.1-3.9c0-1.7,0.7-3.1,1.7-4.1c1.1-1.1,2.5-1.7,4-1.7c2.2,0,3.2,1.2,3.8,2.5l0.6-2.2h1.5
					l-2.3,8.8c-0.4,1.6-0.9,2.5-1.7,3.2c-0.9,0.9-2.2,1.4-4,1.4C180.4,142.9,178.6,142.3,177.3,141.2z M186.3,136.3
					c0.8-0.8,1.2-1.8,1.2-2.8c0-1.5-1.2-2.9-3.1-2.9c-1.1,0-2.2,0.5-2.9,1.2c-0.8,0.8-1.3,1.8-1.3,3c0,1.8,1.4,2.7,3,2.7
					C184.4,137.6,185.5,137.1,186.3,136.3z"/>
				<path class="st0" d="M195.6,125.3h1.5l-1.6,5.9c0.9-1,2-1.9,3.6-1.9c2,0,3.2,1.2,3.2,3.2c0,0.5-0.1,1-0.2,1.6l-1.5,5.7H199
					l1.6-5.8c0.1-0.3,0.1-0.8,0.1-1.1c0-1.3-0.8-2.1-2.3-2.1c-1.6,0-3.2,1.4-3.7,3.3l-1.5,5.8h-1.5L195.6,125.3z"/>
				<path class="st0" d="M208.6,125.3h1.5l-3.9,14.4h-1.5L208.6,125.3z"/>
				<path class="st0" d="M213.5,129.5h1.5l-2.7,10.2h-1.5L213.5,129.5z M214.5,125.6h1.7l-0.5,1.7H214L214.5,125.6z"/>
				<path class="st0" d="M216.1,141.2l0.9-1.1c1.1,0.9,2.5,1.5,4,1.5c1.3,0,2.3-0.4,2.9-1c0.6-0.6,1-1.4,1.3-2.5l0.3-1
					c-1,1-2.2,1.8-3.9,1.8c-2.1,0-4.1-1.4-4.1-3.9c0-1.7,0.7-3.1,1.7-4.1c1.1-1.1,2.5-1.7,4-1.7c2.2,0,3.2,1.2,3.8,2.5l0.6-2.2h1.5
					l-2.3,8.8c-0.4,1.6-0.9,2.5-1.7,3.2c-0.9,0.9-2.2,1.4-4,1.4C219.2,142.9,217.3,142.3,216.1,141.2z M225.1,136.3
					c0.8-0.8,1.2-1.8,1.2-2.8c0-1.5-1.2-2.9-3.1-2.9c-1.1,0-2.2,0.5-2.9,1.2c-0.8,0.8-1.3,1.8-1.3,3c0,1.8,1.4,2.7,3,2.7
					C223.2,137.6,224.3,137.1,225.1,136.3z"/>
				<path class="st0" d="M234.3,125.3h1.5l-1.6,5.9c0.9-1,2-1.9,3.6-1.9c2,0,3.2,1.2,3.2,3.2c0,0.5-0.1,1-0.2,1.6l-1.5,5.7h-1.5
					l1.6-5.8c0.1-0.3,0.1-0.8,0.1-1.1c0-1.3-0.8-2.1-2.3-2.1c-1.6,0-3.2,1.4-3.7,3.3l-1.5,5.8h-1.5L234.3,125.3z"/>
				<path class="st0" d="M244.6,137.9c0-0.4,0.1-0.8,0.1-1.1l1.6-6h-1.4l0.4-1.3h1.4l0.8-3.1h1.5l-0.8,3.1h3.2l-0.4,1.3h-3.2
					l-1.6,5.9c0,0.2-0.1,0.5-0.1,0.8c0,0.7,0.5,1,1.4,1c0.5,0,0.9-0.1,1.5-0.3l-0.4,1.4c-0.5,0.2-1,0.3-1.6,0.3
					C245.6,139.9,244.6,139.2,244.6,137.9z"/>
				<path class="st0" d="M255,129.5h1.5l-2.7,10.2h-1.5L255,129.5z M255.9,125.6h1.7l-0.5,1.7h-1.7L255.9,125.6z"/>
				<path class="st0" d="M260.8,129.5h1.5l-0.4,1.7c0.9-1,2-1.9,3.6-1.9c2,0,3.2,1.2,3.2,3.2c0,0.5-0.1,1-0.2,1.6l-1.5,5.7h-1.5
					l1.6-5.8c0.1-0.3,0.1-0.8,0.1-1.1c0-1.3-0.8-2.1-2.3-2.1c-1.6,0-3.2,1.4-3.7,3.3l-1.5,5.8h-1.5L260.8,129.5z"/>
				<path class="st0" d="M270.4,141.2l0.9-1.1c1.1,0.9,2.5,1.5,4,1.5c1.3,0,2.3-0.4,2.9-1c0.6-0.6,1-1.4,1.3-2.5l0.3-1
					c-1,1-2.2,1.8-3.9,1.8c-2.1,0-4.1-1.4-4.1-3.9c0-1.7,0.7-3.1,1.7-4.1c1.1-1.1,2.5-1.7,4-1.7c2.2,0,3.2,1.2,3.8,2.5l0.6-2.2h1.5
					l-2.3,8.8c-0.4,1.6-0.9,2.5-1.7,3.2c-0.9,0.9-2.2,1.4-4,1.4C273.6,142.9,271.7,142.3,270.4,141.2z M279.5,136.3
					c0.8-0.8,1.2-1.8,1.2-2.8c0-1.5-1.2-2.9-3.1-2.9c-1.1,0-2.2,0.5-2.9,1.2c-0.8,0.8-1.3,1.8-1.3,3c0,1.8,1.4,2.7,3,2.7
					C277.6,137.6,278.7,137.1,279.5,136.3z"/>
				<path class="st0" d="M294.5,130.9h-1.4l0.4-1.3h1.4l0.3-1.2c0.3-1,0.6-1.6,1.1-2.2c0.6-0.6,1.4-0.9,2.4-0.9c0.8,0,1.5,0.2,2,0.4
					l-0.4,1.3c-0.6-0.3-1.1-0.4-1.7-0.4c-1,0-1.7,0.6-2.1,1.9l-0.3,1h3.3l-0.4,1.3h-3.3l-2.4,8.9h-1.5L294.5,130.9z"/>
				<path class="st0" d="M300.2,135.4c0-1.6,0.7-3.2,1.8-4.3c1.1-1.1,2.6-1.8,4.2-1.8c2.8,0,4.7,1.9,4.7,4.6c0,1.6-0.7,3.2-1.8,4.3
					c-1.1,1.1-2.6,1.8-4.2,1.8C302,140,300.2,138,300.2,135.4z M307.9,137.3c0.9-0.9,1.5-2.2,1.5-3.4c0-2.1-1.3-3.3-3.2-3.3
					c-1.1,0-2.1,0.5-2.9,1.3c-0.9,0.9-1.5,2.2-1.5,3.4c0,2.1,1.3,3.3,3.2,3.3C306.1,138.6,307.1,138.1,307.9,137.3z"/>
				<path class="st0" d="M315.7,129.5h1.5l-0.7,2.7c1.2-1.8,2.8-3,4.9-2.8l-0.4,1.6h-0.1c-2.2,0-4.4,1.6-5.3,4.7l-1.1,4H313
					L315.7,129.5z"/>
				<path class="st0" d="M328,138.8l8.7-8h-6.3l0.4-1.3h8.5l-0.3,1l-8.7,8h6.7l-0.4,1.3h-8.9L328,138.8z"/>
				<path class="st0" d="M351.2,124h1.5l-14,18.3h-1.5L351.2,124z"/>
				<path class="st0" d="M353.3,125.9h1.7l1.7,11.9l8.1-11.9h1.8l-9.6,13.9h-1.4L353.3,125.9z"/>
				<path class="st0" d="M369.8,125.9h1.4l3,7.5l7-7.5h1.7l-3.7,13.8h-1.6l3-11.2l-7,7.4h-0.1l-3-7.4l-3,11.2h-1.5L369.8,125.9z"/>
			</g>
		</g>
	</g>
	<g>
		<g>
			<path class="st0" d="M116.7,78.5c14-13.6,22.4-27.6,17.5-36.8c-1.6-3.1-5.5-6.8-14.9-6.8c-6.5,0-14.7,1.8-23.6,5.1
				c-4-15.6-10.6-26.9-19.7-26.9c-9.1,0-15.8,11.4-19.8,27.2c-8.9-3.3-17.1-5.1-23.6-5.1c-9.3,0-13.2,3.7-14.8,6.8
				c-4.8,9.1,3.4,22.9,17,36.4C21,91.9,12.7,105.9,17.5,115.1c1.6,3.1,5.5,6.8,14.9,6.8c6.5,0,14.8-1.9,23.9-5.2
				c4,15.7,10.6,27.1,19.7,27.1c9,0,15.6-11.2,19.6-26.7c9,3.3,17.2,5.1,23.7,5.1c9.3,0,13.2-3.7,14.8-6.8
				c3.5-6.6,0.3-16.3-9.2-27.9C122.6,84.5,119.8,81.5,116.7,78.5z M119.3,40.8c5.3,0,8.9,1.4,10.2,3.8c2.8,5.4-3.5,17-16.9,30
				c-4-3.6-8.3-7.1-13-10.6C99,57.7,98.2,51.5,97,45.7C105.5,42.6,113.3,40.8,119.3,40.8z M85.1,95.9c-3.2,2-6.3,3.8-9.5,5.6
				c-2.9-1.6-5.9-3.3-8.8-5.2c-3.2-2-6.2-4.1-9.1-6.1c-0.2-3.7-0.4-7.6-0.4-11.6c0-4,0.1-7.9,0.4-11.6c2.8-2,5.7-4,8.9-6
				c3-1.9,6-3.6,9-5.3c3.2,1.8,6.4,3.6,9.6,5.6c3.1,2,6.2,4,9.1,6.1c0.2,3.6,0.3,7.2,0.3,11.1c0,3.9-0.1,7.6-0.4,11.2
				C91.4,91.7,88.4,93.8,85.1,95.9z M93.7,97.1c-0.5,4.4-1.1,8.4-1.9,12.2c-3.3-1.4-6.7-2.9-10.2-4.7c2.1-1.2,4.1-2.4,6.2-3.7
				C89.8,99.7,91.8,98.4,93.7,97.1z M69.6,104.6c-3.2,1.6-6.4,3-9.5,4.3c-0.7-3.5-1.3-7.3-1.7-11.4c1.9,1.3,3.8,2.6,5.7,3.8
				C65.9,102.5,67.8,103.5,69.6,104.6z M52.1,85.9c-3.2-2.5-6.2-5-8.9-7.4c2.7-2.4,5.7-4.9,8.9-7.4c-0.1,2.5-0.2,4.9-0.2,7.4
				C51.9,80.9,52,83.4,52.1,85.9z M58.4,59.4c0.4-4,1-7.8,1.7-11.3c3.1,1.3,6.3,2.7,9.5,4.3c-1.9,1.1-3.8,2.2-5.7,3.4
				C62.1,57,60.2,58.2,58.4,59.4z M81.7,52.4c3.5-1.8,6.9-3.3,10.2-4.7c0.7,3.8,1.4,7.9,1.8,12.2c-1.9-1.3-3.8-2.6-5.8-3.8
				C85.9,54.8,83.8,53.6,81.7,52.4z M100,71.6c2.9,2.3,5.7,4.6,8.3,6.9c-2.6,2.3-5.4,4.6-8.4,6.9c0.1-2.3,0.1-4.7,0.1-7
				C100.2,76.2,100.1,73.9,100,71.6z M76,18.4c5.3,0,10.9,8.9,14.6,23.6c-4.9,2-9.9,4.4-15,7.1c-4.9-2.6-9.6-4.8-14.3-6.7
				C65,27.4,70.7,18.4,76,18.4z M22.6,45c1.3-2.5,4.9-3.8,10.1-3.8c6,0,13.8,1.8,22.3,4.9c-1.1,5.5-1.9,11.4-2.4,17.5
				c-4.8,3.5-9.4,7.2-13.6,11C25.9,61.8,19.8,50.3,22.6,45z M32.4,116c-5.3,0-8.9-1.4-10.2-3.8c-2.8-5.4,3.4-16.9,16.8-29.8
				c4.2,3.8,8.8,7.5,13.6,11.1c0.5,6.1,1.3,12,2.5,17.6C46.4,114.2,38.5,116,32.4,116z M76,138.5c-5.3,0-11-9-14.7-23.8
				c4.6-1.9,9.4-4.2,14.2-6.7c5.1,2.7,10.1,5.1,15,7.1C86.9,129.7,81.3,138.5,76,138.5z M129.5,112.5c-1.3,2.5-4.9,3.8-10.1,3.8
				c-6.1,0-13.8-1.8-22.4-4.9c1.2-5.8,2-12,2.6-18.4c4.6-3.4,9-6.9,13-10.5c3.1,3,6,6.1,8.4,9C128.5,100.6,131.6,108.4,129.5,112.5z
				"/>
			<ellipse class="st1" cx="75.9" cy="78.5" rx="10.8" ry="10.8"/>
		</g>
	</g>
</g>
</svg>
