<?xml version="1.0" encoding="utf-8"?>
<!-- Generator: Adobe Illustrator 23.1.1, SVG Export Plug-In . SVG Version: 6.00 Build 0)  -->
<svg version="1.1" id="Layer_1" xmlns="http://www.w3.org/2000/svg" xmlns:xlink="http://www.w3.org/1999/xlink" x="0px" y="0px"
	 viewBox="0 0 350 110" style="enable-background:new 0 0 350 110;" xml:space="preserve">
<style type="text/css">
	.st0{fill:#231F20;}
	.st1{opacity:0.6;fill:#231F20;}
	.st2{fill:#FFFFFF;}
	.st3{opacity:0.6;fill:#FFFFFF;}
</style>
<g>
	<path class="st0" d="M276.6,17.6h2.7c0.9-0.1,1.7,0.2,2.4,0.7c0.6,0.5,0.9,1.2,0.8,1.9c0,0.7-0.3,1.5-0.8,2
		c-0.7,0.5-1.6,0.8-2.5,0.7h-1.9v4.7h-0.8L276.6,17.6z M277.3,18.2v4h1.9c0.7,0,1.3-0.1,1.9-0.5c0.8-0.8,0.9-2,0.1-2.9
		c0,0-0.1-0.1-0.1-0.1c-0.5-0.4-1.2-0.6-1.8-0.5H277.3z"/>
	<path class="st0" d="M285.2,17.6h2.6c0.9-0.1,1.7,0.2,2.5,0.7c0.6,0.5,0.9,1.2,0.8,1.9c0,1.2-0.8,2.2-1.9,2.4
		c0.6,0.4,1,0.9,1.3,1.5l2.3,3.4h-0.9l-1.7-2.7c-0.4-0.6-0.8-1.2-1.4-1.7c-0.4-0.3-0.9-0.4-1.4-0.3H286v4.8h-0.8L285.2,17.6z
		 M286,18.2v3.9h1.7c0.7,0,1.4-0.1,1.9-0.5c0.8-0.7,0.9-1.9,0.2-2.6c-0.1-0.1-0.2-0.2-0.2-0.2c-0.6-0.4-1.3-0.6-1.9-0.5L286,18.2z"
		/>
	<path class="st0" d="M299.4,17.5c1.4,0,2.8,0.5,3.8,1.5c2,1.9,2.1,5.1,0.1,7.1c0,0-0.1,0.1-0.1,0.1c-2.1,2-5.4,2-7.5,0
		c-2-1.9-2-5.2-0.1-7.2c0,0,0.1-0.1,0.1-0.1C296.7,18,298,17.4,299.4,17.5 M299.4,27c1.2,0,2.3-0.4,3.1-1.3c1.7-1.7,1.7-4.5,0-6.3
		c-0.8-0.8-2-1.3-3.1-1.3c-1.2,0-2.3,0.4-3.2,1.3c-1.7,1.7-1.7,4.5,0,6.3c0,0,0,0,0,0C297.1,26.5,298.2,27,299.4,27"/>
	<path class="st0" d="M308.6,17.6v10c0.1,0.8-0.1,1.6-0.6,2.3c-0.4,0.4-0.9,0.6-1.5,0.6c-0.2,0-0.3,0-0.5,0l-0.1-0.7
		c0.1,0,0.3,0.1,0.5,0.1c0.9,0,1.4-0.7,1.4-2V17.6H308.6z"/>
	<polygon class="st0" points="317.4,17.6 317.4,18.2 312.8,18.2 312.8,22.2 317.3,22.2 317.3,22.9 312.8,22.9 312.8,26.9 
		317.5,26.9 317.5,27.6 312,27.6 312,17.6 	"/>
	<path class="st0" d="M328.6,18.3v0.8c-1.1-0.6-2.3-0.9-3.6-1c-1.2,0-2.3,0.4-3.1,1.3c-0.8,0.8-1.3,2-1.3,3.2c0,1.2,0.4,2.3,1.3,3.2
		c0.9,0.8,2,1.3,3.2,1.2c1.2,0,2.5-0.4,3.5-1v0.8c-1.1,0.6-2.3,0.9-3.5,0.9c-1.4,0-2.8-0.5-3.8-1.5c-2-2-2-5.2,0-7.2
		c0,0,0,0,0.1-0.1c1-1,2.3-1.5,3.7-1.5C326.3,17.5,327.5,17.8,328.6,18.3"/>
	<polygon class="st0" points="338.5,17.6 338.5,18.2 334.8,18.2 334.8,27.6 334,27.6 334,18.2 330.3,18.2 330.3,17.6 	"/>
	<polygon class="st0" points="172.9,28.3 169.5,28.3 169.5,21.9 166.5,25.6 166.2,25.6 163.2,21.9 163.2,28.3 160,28.3 160,17.2 
		163,17.2 166.4,21.3 169.8,17.2 172.9,17.2 	"/>
	<path class="st0" d="M187.8,28.3h-3.4l-0.9-2.2h-4.8l-0.9,2.2h-3.4l4.9-11.1h3.7L187.8,28.3z M182.7,24.1l-1.6-4l-1.6,4H182.7z"/>
	<rect x="189.3" y="17.2" class="st0" width="3.3" height="11.1"/>
	<polygon class="st0" points="207.4,28.3 204.4,28.3 198.7,22.1 198.7,28.3 195.4,28.3 195.4,17.2 198.4,17.2 204.1,23.3 
		204.1,17.2 207.4,17.2 	"/>
	<polygon class="st0" points="218.1,23.8 213.5,23.8 213.5,28.3 210.2,28.3 210.2,17.2 218.1,17.2 218.1,19.4 213.5,19.4 
		213.5,21.6 218.1,21.6 	"/>
	<path class="st0" d="M231,28.3h-3.6l-0.9-2c-0.2-0.6-0.5-1.1-0.9-1.6c-0.2-0.3-0.4-0.5-0.7-0.6c-0.3-0.1-0.6-0.2-0.9-0.1h-0.4v4.3
		h-3.3V17.2h5.7c0.8,0,1.6,0.2,2.2,0.6c0.5,0.3,1,0.8,1.3,1.4c0.2,0.5,0.4,1,0.4,1.5c0,0.5-0.1,1-0.3,1.4c-0.2,0.3-0.4,0.6-0.7,0.8
		c-0.3,0.2-0.5,0.4-0.8,0.5c0.3,0.2,0.6,0.4,0.9,0.7c0.4,0.5,0.7,1.1,0.9,1.7L231,28.3z M226.5,20.7c0-0.4-0.1-0.8-0.5-1.1
		c-0.5-0.2-1.1-0.3-1.6-0.3h-0.7V22h0.7c0.6,0,1.1,0,1.7-0.3C226.4,21.5,226.6,21.1,226.5,20.7"/>
	<path class="st0" d="M244.7,28.3h-3.4l-0.9-2.2h-4.8l-0.9,2.2h-3.4l4.9-11.1h3.7L244.7,28.3z M239.6,24.1l-1.6-4l-1.6,4H239.6z"/>
	<polygon class="st0" points="259,28.3 255.7,28.3 255.7,21.9 252.7,25.6 252.4,25.6 249.4,21.9 249.4,28.3 246.2,28.3 246.2,17.2 
		249.2,17.2 252.6,21.3 256,17.2 259,17.2 	"/>
	<polygon class="st0" points="270.2,28.3 261.8,28.3 261.8,17.2 270,17.2 270,19.4 265.1,19.4 265.1,21.4 269.8,21.4 269.8,23.7 
		265.1,23.7 265.1,26 270.2,26 	"/>
	<path class="st0" d="M118.6,17.6c1.6,0,3.1,0.6,4.2,1.7c2.2,2.2,2.3,5.7,0.1,8c0,0-0.1,0.1-0.1,0.1c-2.3,2.2-6,2.2-8.4,0
		c-2.2-2.2-2.3-5.8-0.1-8c0,0,0.1-0.1,0.1-0.1C115.5,18.1,117,17.5,118.6,17.6 M118.6,28.2c1.3,0,2.6-0.5,3.5-1.4
		c1.9-1.9,1.9-5.1,0-7c-0.9-0.9-2.2-1.5-3.5-1.4c-1.3,0-2.6,0.5-3.5,1.4c-1.9,1.9-1.9,5.1,0,7c0,0,0,0,0,0
		C116,27.7,117.3,28.2,118.6,28.2"/>
	<path class="st0" d="M126.6,17.7h3.1c1-0.1,1.9,0.2,2.7,0.8c0.6,0.5,1,1.3,0.9,2.2c0,0.8-0.3,1.6-0.9,2.2c-0.8,0.6-1.8,0.9-2.8,0.8
		h-2.1v5.2h-0.9V17.7z M127.5,18.4v4.5h2.1c0.8,0.1,1.5-0.2,2.1-0.6c0.9-0.8,1-2.3,0.1-3.2c0,0-0.1-0.1-0.1-0.1
		c-0.6-0.4-1.3-0.7-2-0.6L127.5,18.4z"/>
	<polygon class="st0" points="141,17.7 141,18.4 135.8,18.4 135.8,22.9 140.9,22.9 140.9,23.6 135.8,23.6 135.8,28.1 141.2,28.1 
		141.2,28.9 135,28.9 135,17.7 	"/>
	<polygon class="st0" points="153,17.7 153,28.9 152.3,28.9 143.8,19.1 143.8,28.9 142.9,28.9 142.9,17.7 143.7,17.7 152.1,27.5 
		152.1,17.7 	"/>
	<g>
		<path class="st0" d="M127.7,38.5h11.9l19,45h-13.3l-3.2-8h-17.3l-3.2,8h-13L127.7,38.5z M138.5,65.8l-5-12.6l-5,12.6H138.5z"/>
		<path class="st0" d="M165.5,38.8h17.3c15.9,0,25.2,9.2,25.2,22.1V61c0,12.9-9.4,22.5-25.4,22.5h-17.1V38.8z M177.9,49.7v22.8h5
			c7.5,0,12.4-4.1,12.4-11.3v-0.1c0-7.2-4.9-11.4-12.4-11.4H177.9z"/>
		<path class="st0" d="M217,38.8h36v10.5h-23.7v6.8h21.5v9.8h-21.5v7.1h24v10.5H217V38.8z"/>
	</g>
</g>
<g>
	<path class="st0" d="M66.4,8.1C45,8.1,27.6,25.5,27.6,46.9c0,8.4,2.7,16.2,7.2,22.5l1-1C31.6,62.3,29,54.9,29,46.9
		C29,26.3,45.8,9.6,66.4,9.6s37.4,16.8,37.4,37.4S87,84.3,66.4,84.3c-8,0-15.4-2.5-21.5-6.8l-1,1c6.4,4.5,14.1,7.2,22.5,7.2
		c21.4,0,38.8-17.4,38.8-38.8S87.8,8.1,66.4,8.1z"/>
	<path class="st0" d="M37.7,70.8l-1,1L12.5,96c-1.3,1.3-1.3,3.5,0,4.9c1.3,1.3,3.5,1.3,4.9,0l24.2-24.2l1-1
		C40.8,74.2,39.2,72.6,37.7,70.8z"/>
	<path class="st0" d="M66.4,81.3c19,0,34.4-15.4,34.4-34.4c0-19-15.4-34.4-34.4-34.4S32,28,32,46.9C32,65.9,47.4,81.3,66.4,81.3z
		 M66.4,16.8c16.6,0,30.1,13.5,30.1,30.1S83,77,66.4,77c-16.6,0-30.1-13.5-30.1-30.1S49.8,16.8,66.4,16.8z"/>
	<path class="st1" d="M66.4,77C83,77,96.5,63.6,96.5,46.9S83,16.8,66.4,16.8c-16.6,0-30.1,13.5-30.1,30.1S49.8,77,66.4,77z
		 M64.3,21.5c7.5-0.3,14.6,2.5,19.9,7.8c5.3,5.3,8.1,12.4,7.8,19.9c0,0.5-0.5,1-1,1c0,0,0,0,0,0c-0.6,0-1-0.5-1-1
		c0.2-7-2.3-13.5-7.3-18.4c-4.9-4.9-11.5-7.5-18.4-7.3c-0.6,0-1-0.4-1-1C63.3,22,63.8,21.6,64.3,21.5z"/>
</g>
</svg>
