<svg id="Layer_1" data-name="Layer 1" xmlns="http://www.w3.org/2000/svg" xmlns:xlink="http://www.w3.org/1999/xlink" viewBox="0 0 624.23506 359.26909"><defs><style>.cls-1{fill:none;}.cls-2{clip-path:url(#clip-path);}.cls-3{opacity:0.9;}.cls-4{fill:#3274f9;}.cls-5{fill:#fff;}.cls-6{opacity:0.9;}</style><clipPath id="clip-path"><path class="cls-1" d="M75.08134-370.62183H548.39027a63.34554,63.34554,0,0,1,63.34552,63.34553V-35.85759h-600V-307.2763a63.34553,63.34553,0,0,1,63.34553-63.34553Z"/></clipPath></defs><g class="cls-2"><g class="cls-3"><path class="cls-4" d="M367.26463-511.62183.32319-258.56326,253.38176,108.37817,620.32319-144.68039ZM266.2986-55.55448l25.59106-240.12593L166.36079-209.11022l13.9624-37.51161-45.2933-7.91884L327.19273-387.06456l27.15347,39.37329-25.589,240.12456,129.5664-89.35462,31.33231,45.4325L293.45347-16.17926Z"/></g></g><polygon class="cls-5" points="368.216 251.799 370.135 246.458 366.973 248.639 368.076 251.799 368.216 251.799"/><path class="cls-5" d="M243.09521,74.63219a7.23817,7.23817,0,0,1-.48535,2.00848A7.23766,7.23766,0,0,0,243.09521,74.63219Z"/><path class="cls-5" d="M252.01575,66.87249h-.00013a4.31809,4.31809,0,0,1,.775.02172A4.317,4.317,0,0,0,252.01575,66.87249Z"/><path class="cls-5" d="M331.83935,244.45665l.11487-1.07867c-.20862.0957-.39782.20209-.61731.29175Z"/><path class="cls-5" d="M230.83276,68.88066c-.08227.0821-.15405.17048-.23144.25544.07922-.087.15283-.17719.23706-.26111Z"/><path class="cls-5" d="M343.68494,133.29827a16.68011,16.68011,0,0,0-8.731,3.85858,16.68005,16.68005,0,0,1,8.731-3.85852Z"/><path class="cls-5" d="M320.94141,229.35039v11.166h3.87792q3.90089,0,5.65333-1.44825a5.25584,5.25584,0,0,0,1.75195-4.29882,4.6246,4.6246,0,0,0-1.89258-4.15723,10.37464,10.37464,0,0,0-5.69922-1.26172Z"/><path class="cls-5" d="M548.20434,12.06768h-83.886l37.481,54.34826a7.90228,7.90228,0,0,1,1.65979,1.19336l.00085.00086a7.21817,7.21817,0,0,1,2.20337,4.40881l4.538,6.58008V65.63933H511.316V80.13549c.00281.02716-.00159.054.00085.08117l25.32959,36.72864c18.46778,2.87622,26.99573,18.97308,26.99573,36.4223,0,.80518-.03662,1.68347-.089,2.59314l47.99671,69.59644V75.41326A63.34553,63.34553,0,0,0,548.20434,12.06768Zm-23.90307,68.036h-8.043V65.6397h7.886v.929h-6.767v5.782h6.59094v.944h-6.59094v5.87h6.92395Zm16.20508-1.14447a10.74783,10.74783,0,0,1-5.11585,1.35064,7.58233,7.58233,0,0,1-5.50891-2.11847,7.40642,7.40642,0,0,1-.00464-10.472h.00025l.00439-.00464a.53209.53209,0,0,0,.10181-.10175A7.5455,7.5455,0,0,1,535.335,65.4807a12.15051,12.15051,0,0,1,5.028,1.19122v-.0025l.06006.02771c-.01965-.00946-.0404-.01581-.06006-.02521v1.21393a11.069,11.069,0,0,0-5.162-1.44775,6.07685,6.07685,0,0,0-4.49134,1.84094,6.20834,6.20834,0,0,0-1.81311,4.57916,6.13234,6.13234,0,0,0,1.81311,4.607,6.38156,6.38156,0,0,0,4.6532,1.78546,10.92771,10.92771,0,0,0,5.14356-1.44782Zm14.25-12.39051h-5.421v13.535h-1.13294v-13.535h-5.43506v-.929h11.989Z"/><path class="cls-5" d="M254.19214,72.94548a4.83739,4.83739,0,0,0,.70532-.40686,3.25641,3.25641,0,0,0,.96-1.6524,3.25578,3.25578,0,0,1-.96008,1.6524A4.83618,4.83618,0,0,1,254.19214,72.94548Z"/><path class="cls-5" d="M255.74878,69.02617a3.26235,3.26235,0,0,0-.67554-1.10834.67561.67561,0,0,0-.162-.16192.673.673,0,0,1,.16187.16192A3.26081,3.26081,0,0,1,255.74878,69.02617Z"/><polygon class="cls-5" points="326.528 69.28 326.528 69.28 328.877 75.076 326.528 69.28"/><path class="cls-5" d="M412.75781,235.19023q-.35156-.93456-.96973-2.94336-.61962-2.00829-.85253-2.94335a52.44359,52.44359,0,0,1-1.84571,6.28418l-3.083,8.89941H415.958Z"/><path class="cls-5" d="M203.73486,146.973l-37.20776,25.66-.35217.94623,86.27294-59.49756H227.42724v-17.108h49.82764l14.449-9.96454-1.062,9.96454h9.14844v14.827l-12.24743,14.25165L283.011,168.57567h16.77929v17.108H281.18774l-4.44409,41.69953q3.999-3.27723,10.56592-3.2887,7.61572,0,11.77344,4.60156,4.15722,4.60254,4.15722,12.96485,0,8.33935-4.16894,12.96386-4.17042,4.626-11.8086,4.625-7.73144,0-11.87793-4.58984a13.76572,13.76572,0,0,1-1.355-1.81207l-3.1416,29.47857H415.3363l39.88916-27.50927-14.34753-23.24805h-.18652l.11621,1.51856q.32666,4.34472.32714,7.94238V258.783h-5.06835V224.63164h6.77343l16.749,27.07324h.13964q-.04687-.53613-.18652-3.91211-.14062-3.375-.14062-5.26757V224.63164h5.11621v23.77728l20.01367-13.8023V229.4207H474.4873v-4.78906h10.4524l-26.5105-38.441h-.904L385.876,235.603v23.18h-5.37305V241.89434c0-.75989.01-1.63874.02722-2.60462l-4.12122,2.84223L370.41211,258.783H365.4834l-2.554-7.355-7.14038,4.92419V258.783H352.2644l-23.69311,16.33978,2.39306-22.45593-4.51025-7.52545h-5.51269V258.783h-5.582V224.63164h9.64649q5.62391,0,8.75439,1.79852l4.27344-40.10113c-16.657-3.52625-28.23169-17.41413-28.23169-34.22852v-.25372c0-19.14172,15.1217-34.73731,35.67114-35.32886l3.77222-35.39825h-1.97412v-16.028h3.68213l3.207-30.09344-15.814-22.9306H303.16455L172.73266,102.01915Zm204.187,77.519h6.07325l12.77734,34.291h-5.93262l-3.41015-9.4834h-13.0586l-3.33984,9.4834h-5.88672ZM338.38721,65.09258h4.82421V81.11974h-4.82421Zm-14.55176-.00318h5.40722l6.99817,16.0318h-4.94458L329.978,77.87413h-6.95679l-1.33191,3.24707h-4.9447Zm-27.87512.00232h4.381l4.926,6.014,4.93994-6.014h4.394v16.028h-4.843v-9.289l-4.3479,5.376h-.38806l-4.36707-5.376v9.289h-4.69494Zm-24.71106.738h1.0581l12.2439,14.116V65.8297h1.249v16.161h-1.031l-12.272-14.136v14.136h-1.248Zm-11.5669,0h8.81092v1.045h-7.567v6.462h7.368v1.045h-7.368v6.564h7.75708v1.045h-9.001Zm-12.121-.00256h4.45422a5.99436,5.99436,0,0,1,3.91321,1.14709,4.22686,4.22686,0,0,1-.08777,6.29065,6.06419,6.06419,0,0,1-4.015,1.17481h-3.08972v7.521h-1.24439ZM229.752,68.23607l.15723-.16192a8.34444,8.34444,0,0,1,6.04565-2.40522v-.04162a8.307,8.307,0,0,1,6.07312,2.40521,8.176,8.176,0,0,1,.24048,11.559.1422.1422,0,0,0-.037.037l-.20349.19891a8.83824,8.83824,0,0,1-12.11877,0A8.20141,8.20141,0,0,1,229.752,68.23607Z"/><path class="cls-5" d="M287.26269,254.48516q4.97609,0,7.51075-3.22364,2.53418-3.22411,2.53418-9.60058,0-6.28419-2.51172-9.53125-2.51074-3.24611-7.48633-3.2461-5.02295,0-7.58008,3.2461-2.55762,3.24756-2.55762,9.53125,0,6.30615,2.5459,9.56543Q282.26367,254.48418,287.26269,254.48516Z"/><polygon class="cls-5" points="230.82 78.999 230.821 78.999 230.839 79.018 230.821 78.999 230.82 78.999"/><polygon class="cls-5" points="266.249 325.861 266.113 327.135 279.697 346.832 321.802 346.832 352.21 325.861 266.249 325.861"/><polygon class="cls-5" points="35.253 325.861 35.253 282.326 109.239 282.326 11.55 140.675 11.55 328.389 11.55 346.832 153.725 346.832 139.262 325.861 35.253 325.861"/><path class="cls-5" d="M74.89551,12.06768A63.34553,63.34553,0,0,0,11.54993,75.41326v40.8424l151.07519-104.188Z"/><polygon class="cls-5" points="588.785 282.326 588.785 325.861 492.75 325.861 462.342 346.832 611.55 346.832 611.55 243.931 555.876 282.326 588.785 282.326"/><path class="cls-5" d="M329.28577,147.03881a20.08006,20.08006,0,0,1,.58386-2.14411A20.08006,20.08006,0,0,0,329.28577,147.03881Z"/><path class="cls-5" d="M329.86206,158.30028a19.91868,19.91868,0,0,1-.78247-3.14667A19.91868,19.91868,0,0,0,329.86206,158.30028Z"/><path class="cls-5" d="M328.81128,151.5938v.00006a21.74543,21.74543,0,0,1,.47449-4.555A21.74485,21.74485,0,0,0,328.81128,151.5938Z"/><path class="cls-5" d="M332.83362,163.86638a19.002,19.002,0,0,1-2.97156-5.5661A19.002,19.002,0,0,0,332.83362,163.86638Z"/><path class="cls-5" d="M468.73315,72.36339a4.18033,4.18033,0,0,0,1.06031-.0708,4.17853,4.17853,0,0,1-1.06043.0708Z"/><path class="cls-5" d="M471.661,67.465a.26224.26224,0,0,0,.03235.037l.00073.00067-.00049-.00067a.253.253,0,0,1-.03247-.037l-.14343-.15722a4.01287,4.01287,0,0,0-2.64111-.78168h-.00013a4.01249,4.01249,0,0,1,2.64112.78168Z"/><path class="cls-5" d="M471.48535,71.59551a4.19965,4.19965,0,0,1-1.30884.62512A4.19838,4.19838,0,0,0,471.48535,71.59551Z"/><path class="cls-5" d="M471.48682,71.59416h.00012a2.871,2.871,0,0,0,.26428-.29217,2.882,2.882,0,0,1-.26587.29352Z"/><path class="cls-5" d="M391.72546,71.64177a1.61778,1.61778,0,0,0,.516-.63836A1.61819,1.61819,0,0,1,391.72546,71.64177Z"/><g class="cls-6"><path class="cls-5" d="M563.38843,158.43663H516.11865c1.90039,8.74463,7.98352,13.307,16.60156,13.307,6.46277,0,11.15162-2.02747,16.47437-6.97009l11.02588,9.758c-6.33692,7.857-15.46094,12.6731-27.75391,12.6731-20.40356,0-35.48425-14.32037-35.48425-35.10413v-.25366c0-19.38946,13.8136-35.35712,33.58337-35.35712a39.48288,39.48288,0,0,1,6.08081.45557L511.31689,80.21666a4.68657,4.68657,0,0,1-.89819,3.19367,2.89951,2.89951,0,0,1-2.13232.91583q-.33308.01383-.666.00006l-.10181-1.04541a3.477,3.477,0,0,0,.65223.074c1.36462,0,2.03051-.95746,2.03051-2.90015V78.59905l-4.538-6.58008a7.23291,7.23291,0,0,1-1.94519,5.84039c-.02771.02771-.05554.05542-.08325.08783l-.17578.185a7.906,7.906,0,0,1-10.85584,0,7.33867,7.33867,0,0,1-.15259-10.37024l.00916-.00464.14343-.148a7.909,7.909,0,0,1,9.19605-1.19336l-37.481-54.34826H338.34643l15.814,22.9306-3.207,30.09344h.606l8.28906,8.881v-8.881h4.81494v16.028h-4.292l-8.317-8.928v8.928h-2.809l-3.77222,35.39825c.40174-.01153.80176-.02826,1.20752-.02826,21.03675,0,36.62427,15.58753,36.62415,35.10413v.253c0,19.51666-15.714,35.35779-36.87781,35.35779a40.46309,40.46309,0,0,1-8.39331-.87555l-4.27344,40.10113a8.6766,8.6766,0,0,1,1.03369.678q3.17579,2.47558,3.17676,7.47461c0,4.04-2.02258,6.96283-6.01648,8.79517l-.11487,1.07867,9.145,14.32636h-6.35449l-3.66553-6.11615-2.39306,22.45593L352.2644,258.783h-1.5437V224.63164h7.87207l8.38062,24.00751,3.16186-2.18067,7.84522-21.82684H385.876V235.603l71.64917-49.41236h-4.39283l-13.053-41.694-13.306,41.694h-17.235l-20.911-68.434h19.517l10.899,41.187,12.79895-41.44h16.602l12.926,41.567,11.152-41.314h19.137l-21.16492,68.434H458.4292l26.5105,38.441h15.21948v4.78906H490.11426V258.783h-5.583V234.60662l-20.01367,13.8023V258.783h-6.84473l-2.44739-3.96582L415.3363,282.32646H555.876l55.67395-38.39508v-18.3742l-47.99671-69.59644C563.50671,156.76915,563.448,157.602,563.38843,158.43663ZM380.17236,68.30773h-6.65112v3.10394h6.65112v3.215h-6.65112v6.493h-4.82886v-16.031h11.48Zm13.5791,12.81152-1.25817-2.89557a12.41194,12.41194,0,0,0-1.24891-2.28027,2.68884,2.68884,0,0,0-1.08227-.925,3.926,3.926,0,0,0-1.3645-.20349H388.261v6.26282h-4.84278V65.09215h8.21936a5.92469,5.92469,0,0,1,3.26087.80945,4.8657,4.8657,0,0,1,1.84094,1.9566,5.06389,5.06389,0,0,1,.55041,2.20166,4.07658,4.07658,0,0,1-.4624,2.05835,3.76036,3.76036,0,0,1-.98535,1.21643,10.99406,10.99406,0,0,1-1.1748.7262,4.44849,4.44849,0,0,1,1.27661,1.07306,12.79209,12.79209,0,0,1,1.42,2.47925l1.57727,3.5061Zm20.03272.002-1.30432-3.24707h-6.95667l-1.332,3.24707h-4.9585l7.08619-16.0318h5.34692l7.063,16.0318Zm25.71313-.00152h-4.824v-9.289l-4.36694,5.376h-.374l-4.3811-5.376v9.289h-4.695v-16.028h4.395l4.912,6.014,4.958-6.014h4.376Zm16.13208,0H443.54333v-16.028h11.88294v3.215h-7.04492v2.928h6.726v3.233h-6.726v3.419h7.248Zm16.781-8.82569a5.38172,5.38172,0,0,1-3.60779,1.04071h-2.75207v6.77167h-1.11487V65.638h3.98718a5.18544,5.18544,0,0,1,3.48755,1.03149,3.40667,3.40667,0,0,1,1.22119,2.7984A3.52065,3.52065,0,0,1,472.4104,72.294Zm14.65625,7.81238-2.521-3.94092a9.42084,9.42084,0,0,0-1.95654-2.47924,3.64836,3.64836,0,0,0-2.05835-.49488h-1.998l-.00012,6.94275h-1.11474l.04162-14.49615h3.6958a5.48659,5.48659,0,0,1,3.56616,1.01764,3.33942,3.33942,0,0,1,1.23035,2.72436,3.59364,3.59364,0,0,1-2.75207,3.50611,6.69373,6.69373,0,0,1,1.92871,2.22015l3.2749,5.00018Z"/></g><path class="cls-5" d="M388.261,72.0349V72.035h1.03149a5.41349,5.41349,0,0,0,.62219.00733,5.41579,5.41579,0,0,1-.62219-.00739Z"/><path class="cls-5" d="M480.93787,66.56768a4.62329,4.62329,0,0,1,1.34094.12378,4.62622,4.62622,0,0,0-1.34107-.12385h-2.36352l.00012,5.66626V66.56768Z"/><polygon class="cls-5" points="291.704 87.009 277.255 96.974 290.642 96.974 291.704 87.009"/><polygon class="cls-5" points="163.601 134.031 131.503 156.168 137.842 96.679 131.115 86.925 83.509 119.756 91.271 131.011 122.369 109.565 116.03 169.053 122.757 178.808 171.364 145.286 163.601 134.031"/><polygon class="cls-5" points="283.011 168.576 287.543 126.052 250.999 168.576 283.011 168.576"/><g class="cls-6"><polygon class="cls-5" points="266.249 325.861 139.262 325.861 153.725 346.832 279.697 346.832 266.113 327.135 266.249 325.861"/></g><g class="cls-6"><polygon class="cls-5" points="352.21 325.861 321.802 346.832 462.342 346.832 492.75 325.861 352.21 325.861"/></g><g class="cls-6"><path class="cls-5" d="M270.88818,282.32646l3.1416-29.47857c-1.85046-2.88678-2.7915-6.6214-2.7915-11.23383q0-8.45653,4.16992-12.98828a12.97358,12.97358,0,0,1,1.33545-1.24255l4.44409-41.69953H225.90625v-14.827l48.791-56.775H252.44787l-86.27294,59.49756.35217-.94623-53.69751,37.03217L50.13733,118.75988l90.90527-62.6922,31.69006,45.95147L303.16455,12.06768H162.62512L11.54993,116.25566v24.41919L109.239,282.32646ZM242.6748,224.63164h19.27051v4.71875H248.21094V240.0252h12.87011v4.74218H248.21094V258.783H242.6748Zm-42.25195,0h6.77344l16.749,27.07324h.13965q-.04687-.53613-.18652-3.91211-.14062-3.375-.14063-5.26757V224.63164H228.874V258.783H222.0293l-16.79493-27.21387h-.18652l.11621,1.51856q.32666,4.34472.32715,7.94238V258.783h-5.06836Zm-39.95117,3.99414q4.16895-4.53077,11.90137-4.53125,7.61571,0,11.77343,4.60156,4.15724,4.60254,4.15723,12.96485,0,8.33935-4.16895,12.96386-4.1704,4.626-11.80859,4.625-7.73145,0-11.87793-4.58984-4.147-4.58936-4.14648-13.0459Q156.30176,233.15753,160.47168,228.62578Zm-37.32324,3.76172a13.913,13.913,0,0,1,5.64062-6.12012,17.06688,17.06688,0,0,1,8.667-2.126,21.519,21.519,0,0,1,9.66993,2.19531l-2.00879,4.64844a30.10705,30.10705,0,0,0-3.65528-1.43653,13.19005,13.19005,0,0,0-4.05273-.61914,9.20124,9.20124,0,0,0-7.56836,3.41113q-2.75684,3.41016-2.75684,9.41309,0,6.28418,2.65137,9.50781,2.65137,3.22266,7.67383,3.22364a20.15631,20.15631,0,0,0,4.2041-.43262q2.0332-.43213,4.22852-1.10938v4.78907a25.64882,25.64882,0,0,1-9.11036,1.51757q-7.49853,0-11.51562-4.543-4.01806-4.54248-4.01856-12.999A20.99656,20.99656,0,0,1,123.14844,232.3875Z"/></g><g class="cls-6"><path class="cls-5" d="M172.32617,254.48516q4.97607,0,7.51074-3.22364,2.53419-3.22411,2.53418-9.60058,0-6.28419-2.51172-9.53125-2.51073-3.24611-7.48632-3.2461-5.023,0-7.58008,3.2461-2.55762,3.24756-2.55762,9.53125,0,6.30615,2.5459,9.56543Q167.32714,254.48418,172.32617,254.48516Z"/></g><path class="cls-5" d="M346.427,133.0913a17.4554,17.4554,0,0,1,8.86121,2.33355,17.45543,17.45543,0,0,0-8.86121-2.33361,19.89481,19.89481,0,0,0-2.74206.207v.00006A19.89625,19.89625,0,0,1,346.427,133.0913Z"/><path class="cls-5" d="M493.44458,68.336c-.06323.06317-.11768.1314-.17761.19647.06018-.06525.11474-.13367.1781-.197Z"/><path class="cls-5" d="M497.385,79.2199a6.24321,6.24321,0,0,0,.63916.01782v.01385h.00012v-.01385A6.24556,6.24556,0,0,1,497.385,79.2199Z"/><path class="cls-5" d="M380.85351,230.3084H380.667L376.40893,242.132l4.12122-2.84223c.02124-1.19153.05432-2.52386.10168-4.02917Q380.75929,231.17217,380.85351,230.3084Z"/><path class="cls-5" d="M355.3916,230.26152q.397,6.3545.39746,11.91309v14.17761l7.14038-4.92419-7.35034-21.16651Z"/><path class="cls-5" d="M391.98071,68.90557a1.61839,1.61839,0,0,0-.343-.29346,4.73112,4.73112,0,0,0-2.36377-.44867H388.261V72.0349h1.03149a5.41546,5.41546,0,0,0,2.433-.39313,1.61757,1.61757,0,0,0,.65222-1.44775v-.04633a1.62139,1.62139,0,0,0-.397-1.24212Z"/><path class="cls-5" d="M484.09692,67.65465l-.333-.333a4.80508,4.80508,0,0,0-2.826-.754h-2.36353v5.66619h2.39124a4.66014,4.66014,0,0,0,2.81225-.74011A2.72551,2.72551,0,0,0,484.09692,67.65465Z"/><path class="cls-5" d="M472.28125,68.49279a2.91682,2.91682,0,0,0-.17346-.37488c-.02417-.04663-.03894-.09644-.0658-.142a2.95227,2.95227,0,0,0-.24487-.33331c-.03662-.0456-.06336-.096-.103-.14l-.00073-.00067a.26224.26224,0,0,1-.03235-.037l-.14343-.15728a4.01249,4.01249,0,0,0-2.64112-.78168l-2.82592.04156v5.79578H468.733a4.17853,4.17853,0,0,0,1.06043-.0708c.12793-.02313.25793-.03705.38305-.072a4.19965,4.19965,0,0,0,1.30884-.62512,2.882,2.882,0,0,0,.26587-.29352c.04089-.04858.09131-.09143.12854-.14209a2.83734,2.83734,0,0,0,.214-.3606c.02331-.04394.05542-.084.07641-.12884a2.86706,2.86706,0,0,0,.15088-.42786c.00977-.034.02686-.06592.03528-.10016a2.87968,2.87968,0,0,0,.06018-.407c.00489-.048.01856-.09491.021-.14313a2.898,2.898,0,0,0-.01843-.415c-.00428-.04669.00012-.09375-.00635-.14019a2.8885,2.8885,0,0,0-.1012-.41877C472.29932,68.57683,472.29541,68.5338,472.28125,68.49279Z"/><path class="cls-5" d="M339.853,169.25634l3.83191-35.958a16.68005,16.68005,0,0,0-8.731,3.85852,16.95687,16.95687,0,0,0-4.27771,5.70929,19.01145,19.01145,0,0,0-.80664,2.02856,20.08006,20.08006,0,0,0-.58386,2.14411,21.74543,21.74543,0,0,0-.47449,4.555v.25293a20.42651,20.42651,0,0,0,.26831,3.30682,19.91868,19.91868,0,0,0,.78247,3.14667,19.002,19.002,0,0,0,2.97156,5.5661A17.20594,17.20594,0,0,0,339.853,169.25634Z"/><g class="cls-6"><path class="cls-5" d="M343.68494,133.29833l-3.83191,35.958a17.70091,17.70091,0,0,0,6.82763,1.34668c11.025,0,17.615-8.49085,17.615-18.50251v-.25366a20.21031,20.21031,0,0,0-.18811-2.71881,19.80836,19.80836,0,0,0-2.19568-6.76843,18.36639,18.36639,0,0,0-2.36608-3.41181c-.06666-.07556-.12488-.15869-.19275-.233a17.2467,17.2467,0,0,0-4.06482-3.28992,17.4554,17.4554,0,0,0-8.86121-2.33355A19.89625,19.89625,0,0,0,343.68494,133.29833Z"/></g><polygon class="cls-5" points="406.652 75.076 411.365 75.076 409.015 69.28 406.652 75.076"/><path class="cls-5" d="M254.19214,72.94548a4.83618,4.83618,0,0,0,.7052-.40686,3.25578,3.25578,0,0,0,.96008-1.6524,3.26729,3.26729,0,0,0-.7843-2.96839.673.673,0,0,0-.16187-.16192,4.32048,4.32048,0,0,0-2.89563-.88342H248.8103v6.52185h3.01575A4.83779,4.83779,0,0,0,254.19214,72.94548Z"/><g class="cls-6"><path class="cls-5" d="M526.37451,132.53459a12.84339,12.84339,0,0,0-4.61267,2.46784,15.01058,15.01058,0,0,0-3.42151,4.1698,22.4204,22.4204,0,0,0-2.47534,7.22565h29.021c-.09913-.74939-.23853-1.46924-.39673-2.17438a16.62679,16.62679,0,0,0-5.04615-9.12982c-.09362-.08112-.19336-.154-.28918-.23224a13.24605,13.24605,0,0,0-8.58838-2.91077A14.70934,14.70934,0,0,0,526.37451,132.53459Z"/></g><polygon class="cls-5" points="328.877 75.076 326.528 69.28 324.155 75.076 328.877 75.076"/><path class="cls-5" d="M230.3269,78.45128c.08472.10437.18079.20233.27246.30292.074.08136.14209.166.22059.24469l.00061.00055.01843.01855a7.36174,7.36174,0,0,0,10.21765,0,7.26779,7.26779,0,0,0,.906-1.12921,7.215,7.215,0,0,0,1.13256-3.25659q.03241-.34213.03247-.686a7.28942,7.28942,0,0,0-.12939-1.36707q-.06481-.33848-.16187-.67114a7.20332,7.20332,0,0,0-1.07592-2.1994,6.74653,6.74653,0,0,0-3.76343-2.60212,7.36825,7.36825,0,0,0-7.15808,1.768l-.00061.00055c-.08423.08392-.15784.17413-.23706.26111-.08618.09466-.17749.18628-.25757.2843-.07068.08618-.131.17767-.1969.26636-.07715.10376-.15906.20513-.23.312-.05823.08777-.10632.18-.16028.26971-.06787.11279-.14014.22376-.201.33936-.04724.08966-.08484.1828-.12805.27392-.05689.11988-.11792.23822-.16773.36048-.04248.10418-.07446.21136-.11181.31707-.03967.11231-.08435.22315-.11829.33692-.0321.10791-.05383.21808-.08069.32715-.02844.11468-.06189.22839-.08447.344-.02014.10327-.03027.20783-.04578.31177-.01843.12274-.04162.24493-.05358.36829-.01075.11053-.011.22155-.01661.33233-.0061.11786-.01709.23548-.01733.35346-.00024.10955.01.21881.01489.32824.00513.11927.00537.23877.0166.35767.01.10736.03052.21362.04541.3205.01685.12023.02857.24114.05152.36059.01953.10144.04907.20111.073.30182.02929.12323.05383.24731.0896.36914.03247.11041.07568.218.11352.327.038.10931.0708.22.11426.32775.04443.11036.09985.21705.15.3255.048.10358.09058.20905.14368.31073.05029.096.11084.18781.16577.282.064.10962.12317.22137.19348.32824.06873.1045.14844.20362.22327.30518C230.19336,78.26873,230.25488,78.36272,230.3269,78.45128Z"/><path class="cls-5" d="M493.44507,68.3355c-.06336.06329-.11792.13171-.1781.197-.0885.09607-.18055.19006-.26209.29-.03015.037-.05481.07678-.084.11426-.10327.13262-.20581.26574-.29737.40429a6.35432,6.35432,0,0,0-.56713,1.07324c-.00574.01374-.01331.02686-.0188.04065-.04517.11121-.07984.22528-.11841.33832-.02844.08313-.06226.16486-.08716.2489-.01477.05011-.02344.10138-.037.15174-.04016.14886-.08032.29785-.10949.44873-.0105.054-.01453.10888-.02356.16314-.02478.14844-.05017.29682-.06433.44635-.00831.08716-.00782.17475-.0127.26209-.00635.11731-.01672.2345-.01672.35193,0,.11206.01013.22394.016.33587.00488.09278.00451.18567.01343.2782.01147.12006.03344.23889.05163.35828.01282.08368.02014.168.03626.25122.02685.13837.06445.27478.10034.4115.0166.06274.02783.12659.04614.1889.0249.084.05872.16577.08716.2489.03857.113.07324.22718.11841.33832.00549.0138.01306.02692.0188.04065a6.3568,6.3568,0,0,0,.56738,1.07349c.04175.06317.09131.12237.1355.18438.08007.11237.15759.22608.24585.33423.01648.02021.03613.03864.053.05872.12256.14642.24939.2904.387.42792a6.25518,6.25518,0,0,0,4.57922,1.841v.01385a6.20576,6.20576,0,0,0,4.56531-1.84094,6.4662,6.4662,0,0,0,0-9.07513A6.56,6.56,0,0,0,493.44507,68.3355Z"/><path class="cls-5" d="M472.042,67.97594c.02686.04553.04163.09534.0658.142"/><path class="cls-5" d="M472.28125,68.49279c.01416.041.01807.084.03027.12548"/><path class="cls-5" d="M472.4165,69.7354c.00489-.048.01856-.09491.021-.14313"/><path class="cls-5" d="M472.321,70.2426c.00977-.034.02686-.06592.03528-.10016"/><path class="cls-5" d="M472.09375,70.7993c.02331-.04394.05542-.084.07641-.12884"/><path class="cls-5" d="M471.75122,71.302c.04089-.04858.09131-.09143.12854-.14209"/><path class="cls-5" d="M469.79346,72.29259c.12793-.02313.25793-.03705.38305-.072"/><path class="cls-5" d="M472.41272,69.037c.00647.04644.00207.0935.00635.14019"/><path class="cls-5" d="M493.00488,68.8225c.08154-.1.17359-.194.26209-.29"/><path class="cls-5" d="M495.54541,78.78789a6.255,6.255,0,0,1-1.62671-.96149"/><path class="cls-5" d="M491.56824,72.86614c0-.11743.01037-.23462.01672-.35193"/><path class="cls-5" d="M491.68555,71.64263c.02917-.15088.06933-.29987.10949-.44873"/><path class="cls-5" d="M492.62353,69.34105c.09156-.13855.1941-.27167.29737-.40429"/><path class="cls-5" d="M491.91919,74.939c.03857.113.07324.22718.11841.33832"/><path class="cls-5" d="M492.0376,70.45494c.00549-.01379.01306-.02691.0188-.04065"/><path class="cls-5" d="M491.832,71.04216c.0249-.084.05872-.16577.08716-.2489"/><path class="cls-5" d="M493.00513,76.91008c-.08826-.10815-.16578-.22186-.24585-.33423"/><path class="cls-5" d="M491.64929,73.83849c.01282.08368.02014.168.03626.25122"/><path class="cls-5" d="M491.78589,74.50121c.0166.06274.02783.12659.04614.1889"/><path class="cls-5" d="M491.58423,73.202c.00488.09278.00451.18567.01343.2782"/><path class="cls-5" d="M491.59766,72.25212c.01416-.14953.03955-.29791.06433-.44635"/><path class="cls-5" d="M391.63769,68.61211a4.73228,4.73228,0,0,0-1.75476-.45178"/><path class="cls-5" d="M391.98071,68.90557a1.62147,1.62147,0,0,1,.38111.791"/><path class="cls-5" d="M228.76269,74.61919c-.01123-.1189-.01147-.2384-.0166-.35767"/><path class="cls-5" d="M228.85962,75.30028c-.023-.11945-.03467-.24036-.05152-.36059"/><path class="cls-5" d="M229.903,77.87242c-.07031-.10687-.12951-.21862-.19348-.32824"/><path class="cls-5" d="M242.83642,71.908a7.19627,7.19627,0,0,0-.51782-1.29273"/><path class="cls-5" d="M242.3186,70.61528a7.19671,7.19671,0,0,0-.5581-.90667"/><path class="cls-5" d="M230.60132,69.1361c-.08618.09466-.17749.18628-.25757.2843"/><path class="cls-5" d="M229.5437,77.26219c-.0531-.10168-.0957-.20715-.14368-.31073"/><path class="cls-5" d="M230.3269,78.45128c-.072-.08856-.13354-.18255-.20068-.27368"/><path class="cls-5" d="M242.99829,72.57915a7.28942,7.28942,0,0,1,.12939,1.36707"/><path class="cls-5" d="M229.25,76.626c-.04346-.10772-.0763-.21844-.11426-.32775"/><path class="cls-5" d="M229.02222,75.97124c-.03577-.12183-.06031-.24591-.0896-.36914"/><path class="cls-5" d="M230.14685,69.68676c-.07715.10376-.15906.20513-.23.312"/><path class="cls-5" d="M228.74853,73.57982c-.0061.11786-.01709.23548-.01733.35346"/><path class="cls-5" d="M228.949,72.22338c-.02844.11468-.06189.22839-.08447.344"/><path class="cls-5" d="M228.81872,72.8792c-.01843.12274-.04162.24493-.05358.36829"/><path class="cls-5" d="M229.75659,70.26848c-.06787.11279-.14014.22376-.201.33936"/><path class="cls-5" d="M229.42749,70.88176c-.05689.11988-.11792.23822-.16773.36048"/><path class="cls-5" d="M229.148,71.55931c-.03967.11231-.08435.22315-.11829.33692"/><path class="cls-5" d="M359.353,138.71477c.06787.07434.12609.15747.19275.233"/><path class="cls-5" d="M113.43945,293.01934a7.52044,7.52044,0,0,0-5.00293,1.52734A5.20179,5.20179,0,0,0,106.627,298.744a5.30174,5.30174,0,0,0,.55078,2.47753,6.23856,6.23856,0,0,0,1.47266,1.85743,12.32943,12.32943,0,0,0,2.7666,1.666,25.07859,25.07859,0,0,1,2.60742,1.36231,3.6963,3.6963,0,0,1,.97071.88769,1.76566,1.76566,0,0,1,.33007,1.05274,1.83749,1.83749,0,0,1-.75,1.59668,3.67224,3.67224,0,0,1-2.15429.53613,10.22908,10.22908,0,0,1-2.58008-.3711,23.51215,23.51215,0,0,1-3.44727-1.28027V312.493a12.81163,12.81163,0,0,0,5.69727,1.21094,8.52122,8.52122,0,0,0,5.457-1.56934,5.19957,5.19957,0,0,0,1.96094-4.29395,5.27711,5.27711,0,0,0-1.0459-3.32324,10.76838,10.76838,0,0,0-3.86719-2.7041,25.53736,25.53736,0,0,1-2.7041-1.41113,2.8537,2.8537,0,0,1-.833-.81153,1.82732,1.82732,0,0,1-.26172-.98437,1.86185,1.86185,0,0,1,.64746-1.47266,2.741,2.741,0,0,1,1.85743-.56445,8.60029,8.60029,0,0,1,2.07129.26172,20.17126,20.17126,0,0,1,2.66308.92187l.69177-1.66711-1.74157-2.52521c-.1836-.05438-.37317-.12286-.55371-.17A11.79548,11.79548,0,0,0,113.43945,293.01934Z"/><path class="cls-5" d="M119.41211,294.43633a21.10908,21.10908,0,0,0-2.42578-.87592l1.74157,2.52521Z"/><path class="cls-5" d="M143.73633,305.59746a5.18217,5.18217,0,0,1-.94336,3.43359,3.80192,3.80192,0,0,1-3.03418,1.09473,3.88858,3.88858,0,0,1-3.09668-1.08789,5.15776,5.15776,0,0,1-.93555-3.41309V293.30742h-4.25293v12.96485a7.05175,7.05175,0,0,0,2.14746,5.44238,8.53453,8.53453,0,0,0,6.02735,1.98926,10.30575,10.30575,0,0,0,4.459-.89454,6.49878,6.49878,0,0,0,2.88379-2.57421,7.505,7.505,0,0,0,.99707-3.90821V293.30742h-4.25195Z"/><path class="cls-5" d="M173.36523,294.88359a8.55024,8.55024,0,0,0-5.56738-1.57617h-6.42676v20.1211h4.2666v-7.15625h1.83008a8.67845,8.67845,0,0,0,5.77344-1.72071,6.14809,6.14809,0,0,0,2.03027-4.96777A5.7471,5.7471,0,0,0,173.36523,294.88359Zm-3.3789,7.11524a4.67347,4.67347,0,0,1-2.94532.77734h-1.40332v-5.97265h1.94043a3.83392,3.83392,0,0,1,2.56641.71582,2.79014,2.79014,0,0,1,.81934,2.21582A2.72239,2.72239,0,0,1,169.98633,301.99883Z"/><path class="cls-5" d="M199.51953,294.88359a8.55024,8.55024,0,0,0-5.56738-1.57617h-6.42676v20.1211h4.2666v-7.15625h1.83008a8.67847,8.67847,0,0,0,5.77344-1.72071,6.14812,6.14812,0,0,0,2.03027-4.96777A5.7471,5.7471,0,0,0,199.51953,294.88359Zm-3.37891,7.11524a4.67342,4.67342,0,0,1-2.94531.77734H191.792v-5.97265h1.94043a3.83392,3.83392,0,0,1,2.56641.71582,2.79013,2.79013,0,0,1,.81933,2.21582A2.72237,2.72237,0,0,1,196.14062,301.99883Z"/><path class="cls-5" d="M222.3916,292.991q-4.63915,0-7.12207,2.64941-2.48437,2.6499-2.48437,7.67285t2.47753,7.707q2.47706,2.68359,7.10157,2.6836,4.623,0,7.10058-2.6836,2.47705-2.68359,2.47754-7.67969,0-5.00976-2.45605-7.67968Q227.02833,292.992,222.3916,292.991Zm-.02734,17.13476a4.4783,4.4783,0,0,1-3.82618-1.707,10.67464,10.67464,0,0,1,.01368-10.16309,4.50726,4.50726,0,0,1,3.83984-1.71386q5.07861,0,5.07813,6.79882Q227.46973,310.12578,222.36426,310.12578Z"/><path class="cls-5" d="M257.49023,302.494a5.95068,5.95068,0,0,0-.99121-7.69239q-1.96728-1.49413-6.06836-1.49414h-5.86328v20.1211h4.2666v-7.72071h2.27051l4.80274,7.72071h4.73437q-1.37548-1.98193-5.918-8.76661A6.46076,6.46076,0,0,0,257.49023,302.494Zm-4.29394-.92872A5.26012,5.26012,0,0,1,250.21,302.24h-1.376v-5.43652h1.293a5.976,5.976,0,0,1,3.04883.60546,2.20265,2.20265,0,0,1,.98438,2.03711A2.40625,2.40625,0,0,1,253.19629,301.56523Z"/><polygon class="cls-5" points="269.662 296.858 275.126 296.858 275.126 313.429 279.392 313.429 279.392 296.858 284.855 296.858 284.855 293.307 269.718 293.307 269.662 293.83 269.662 296.858"/><polygon class="cls-5" points="269.662 293.83 269.718 293.307 269.662 293.307 269.662 293.83"/><path class="cls-5" d="M316.45117,306.27227h1.83008a8.67847,8.67847,0,0,0,5.77344-1.72071,6.14812,6.14812,0,0,0,2.03027-4.96777,5.7471,5.7471,0,0,0-1.90625-4.7002,8.55024,8.55024,0,0,0-5.56738-1.57617h-6.42676v20.1211h4.2666Zm0-9.46875h1.94043a3.83392,3.83392,0,0,1,2.56641.71582,2.79013,2.79013,0,0,1,.81933,2.21582,2.72237,2.72237,0,0,1-.97754,2.26367,4.67342,4.67342,0,0,1-2.94531.77734h-1.40332Z"/><path class="cls-5" d="M342.60547,305.70781H344.876l4.80273,7.72071h4.73437q-1.37548-1.98193-5.918-8.76661a6.46082,6.46082,0,0,0,2.7666-2.168,5.95068,5.95068,0,0,0-.99121-7.69239q-1.96729-1.49413-6.06836-1.49414h-5.86328v20.1211h4.2666Zm0-8.90429h1.293a5.97593,5.97593,0,0,1,3.04882.60546,2.20265,2.20265,0,0,1,.98438,2.03711,2.40625,2.40625,0,0,1-.96387,2.11914,5.2601,5.2601,0,0,1-2.98633.67481h-1.376Z"/><path class="cls-5" d="M374.08594,310.12578a4.4783,4.4783,0,0,1-3.82618-1.707,10.67464,10.67464,0,0,1,.01368-10.16309,4.50726,4.50726,0,0,1,3.83984-1.71386q5.07861,0,5.07813,6.79882a9.12847,9.12847,0,0,1-.98621,4.593l5.43188-3.74609c.01258-.279.027-.55621.027-.84693q0-5.00976-2.45605-7.67968-2.458-2.66895-7.09473-2.66992-4.63915,0-7.12207,2.64941-2.48437,2.6499-2.48438,7.67285t2.47754,7.707a7.90483,7.90483,0,0,0,3.56983,2.18976l4.61108-3.17993A6.41456,6.41456,0,0,1,374.08594,310.12578Z"/><path class="cls-5" d="M381.18652,311.02031a10.43046,10.43046,0,0,0,2.45056-6.83276l-5.43188,3.74609a4.14691,4.14691,0,0,1-3.03992,2.0965l-4.61108,3.17993a11.98017,11.98017,0,0,0,3.53174.49384Q378.709,313.70391,381.18652,311.02031Z"/><polygon class="cls-5" points="398.065 293.307 393.758 293.307 394.83 296.468 398.307 294.071 398.065 293.307"/><path class="cls-5" d="M405.23535,313.42852l6.83984-20.1211h-4.30761l-3.81153,11.97363a35.08238,35.08238,0,0,0-1.03222,4.43165q-.08351-.55078-.41992-1.96094-.33692-1.41064-.6543-2.47071l-3.54285-11.21026-3.47656,2.39752,5.75378,16.96021Z"/><rect class="cls-5" x="423.0625" y="293.30742" width="4.2666" height="20.12109"/><path class="cls-5" d="M454.71484,310.78594q2.82861-2.64258,2.82813-7.61035a9.569,9.569,0,0,0-2.72461-7.26661q-2.72461-2.60156-7.65137-2.60156h-6.31738v20.1211h5.69726Q451.8877,313.42852,454.71484,310.78594Zm-9.59863-13.98242h2.27051q5.7246,0,5.72558,6.48242,0,6.61962-6.166,6.61914h-1.83008Z"/><polygon class="cls-5" points="481.757 309.905 474.436 309.905 474.436 304.717 481.248 304.717 481.248 301.221 474.436 301.221 474.436 296.804 481.757 296.804 481.757 293.307 470.169 293.307 470.169 313.429 481.757 313.429 481.757 309.905"/><path class="cls-5" d="M498.67676,305.70781h2.2705l4.80274,7.72071h4.73437q-1.37549-1.98193-5.918-8.76661a6.46088,6.46088,0,0,0,2.7666-2.168,5.95068,5.95068,0,0,0-.99121-7.69239q-1.96729-1.49413-6.06836-1.49414h-5.86328v20.1211h4.2666Zm0-8.90429h1.293a5.97593,5.97593,0,0,1,3.04882.60546,2.20265,2.20265,0,0,1,.98438,2.03711,2.40625,2.40625,0,0,1-.96387,2.11914,5.2601,5.2601,0,0,1-2.98633.67481h-1.376Z"/></svg>