<svg id="Layer_1" data-name="Layer 1" xmlns="http://www.w3.org/2000/svg" viewBox="0 0 72 72"><defs><style>.cls-1{fill:#fff;}</style></defs><title>zowe-logo-icon</title><path class="cls-1" d="M45.05537,2.2174,1.27208,31.12423c.05353.083.0825.13183.1152.178Q15.07994,50.63541,28.77,69.97041a3.92062,3.92062,0,0,1,.26466.53989L70.72792,41.10118Zm-12.963,52.04941c-.22237-.31954-.42-.65978-.67014-.95571a1.5716,1.5716,0,0,1-.34323-1.31955c.44888-3.60157.87166-7.20646,1.29328-10.81139.38169-3.26363.75-6.52882,1.127-9.793.14709-1.27378.30206-2.54665.45161-3.82014.00878-.07483.00114-.15157.00114-.2766l-14.0764,9.56623-3.52905-5.95769q10.22729-7.16735,20.45978-14.3383c.34831.70653.68185,1.3788,1.01167,2.05291,1.01561,2.07584,2.03413,4.15029,3.03688,6.23232a1.09174,1.09174,0,0,1,.08444.61553c-.26763,1.6029-.557,3.20219-.83789,4.8029-.0171.0975-.01883.19847-.02928.32279l-.01435-.00493-1.54014,12.6632L51.13455,34.452a1.03125,1.03125,0,0,1,.23292.23481C52.48575,36.308,53.58772,37.94049,54.694,39.57c.06392.09416.12534.19.20779.31525q-10.97549,7.797-21.95868,15.59936C32.65275,55.06909,32.37187,54.66844,32.09238,54.26681Z"/></svg>