<?xml version="1.0" encoding="utf-8"?>
<!-- Generator: Adobe Illustrator 23.1.1, SVG Export Plug-In . SVG Version: 6.00 Build 0)  -->
<svg version="1.1" id="Layer_1" xmlns="http://www.w3.org/2000/svg" xmlns:xlink="http://www.w3.org/1999/xlink" x="0px" y="0px"
	 viewBox="0 0 1043.1 313.6" style="enable-background:new 0 0 1043.1 313.6;" xml:space="preserve">
<style type="text/css">
	.st0{fill:#FFFFFF;}
	.st1{fill:#231F20;}
</style>
<path class="st1" d="M431.3,206.2h98.5v26.9H393.3V212L485,85.5h-86.9V58.6h126.6v20L431.3,206.2z"/>
<path class="st1" d="M584.7,167.8c0,27.1,13.5,42.6,35.4,42.6c22,0,35.4-15.7,35.4-42.6s-13.3-42.6-35.4-42.6
	C598.2,125.2,584.7,140.7,584.7,167.8 M686,167.8c0,48.1-32.3,69-65.9,69c-33.7,0-65.9-20.9-65.9-69s32.3-69,65.9-69
	C653.8,98.8,686,119.7,686,167.8"/>
<path class="st1" d="M839,233.2h-19.8l-29.9-87.1l-31.6,87.1H738l-42.4-130.7h29.7l25.3,90.9l30.3-90.9h19.6l29.4,92l27.1-92h29
	L839,233.2z"/>
<path class="st1" d="M989.6,158c-0.9-21.7-12.6-35.6-31.2-35.6c-18.4,0-30.8,11.3-33,35.6L989.6,158z M1017.1,160.6
	c0,5.9-0.5,11.8-1.6,17.6h-89.7c3.6,24.9,18,34.2,37.3,34.2c13.6,0.1,26.7-4.6,37.2-13.3l12.5,19.5c-13.5,11.4-30.7,18.3-54.1,18.3
	c-34.2,0-63-22-63-68.4c0-42.6,25.1-69.7,62-69.7C997.8,98.8,1017.1,129.1,1017.1,160.6L1017.1,160.6z"/>
<path class="st1" d="M291.1,179.8l-135,94.5c-4.5,3.1-10.7,2-13.8-2.5c-1.3-1.9-1.9-4.2-1.8-6.4l15-194.9L45.2,147.8l90.2,128.9
	c3,4.6,1.7,10.8-2.9,13.8c-4.4,2.9-10.3,1.8-13.4-2.4L23.3,151c-3.1-4.5-2.1-10.7,2.4-13.8l0,0l135.7-95c4.5-3.1,10.7-2.1,13.8,2.4
	c1.3,1.9,1.9,4.2,1.8,6.5l-15,194.9l110.3-77.2L182.5,40.6c-3.3-4.4-2.3-10.6,2.1-13.9c4.4-3.3,10.6-2.3,13.9,2.1c0,0,0,0,0,0
	c0.1,0.1,0.2,0.3,0.3,0.4l95,135.7C296.8,169.8,295.7,176.2,291.1,179.8"/>
</svg>
