<svg id="Layer_1" data-name="Layer 1" xmlns="http://www.w3.org/2000/svg" xmlns:xlink="http://www.w3.org/1999/xlink" viewBox="0 0 600 443.90551"><defs><style>.cls-1{fill:none;}.cls-2{clip-path:url(#clip-path);}.cls-3{opacity:0.9;}.cls-4{fill:#3274f9;}.cls-5{fill:#fff;}.cls-6{fill:#488eff;}.cls-7{clip-path:url(#clip-path-2);}.cls-8{clip-path:url(#clip-path-3);}</style><clipPath id="clip-path"><path class="cls-1" d="M63.34553-475.53393H536.65447A63.34553,63.34553,0,0,1,600-412.1884v252.976a0,0,0,0,1,0,0H0a0,0,0,0,1,0,0v-252.976A63.34553,63.34553,0,0,1,63.34553-475.53393Z"/></clipPath><clipPath id="clip-path-2"><path class="cls-1" d="M63.34553-.53393H536.65447A63.34553,63.34553,0,0,1,600,62.8116v252.976a0,0,0,0,1,0,0H0a0,0,0,0,1,0,0V62.8116A63.34553,63.34553,0,0,1,63.34553-.53393Z"/></clipPath><clipPath id="clip-path-3"><path class="cls-1" d="M63.34553,481.69766H536.65447A63.34553,63.34553,0,0,1,600,545.04319v252.976a0,0,0,0,1,0,0H0a0,0,0,0,1,0,0v-252.976A63.34553,63.34553,0,0,1,63.34553,481.69766Z"/></clipPath></defs><title>Zowe_ConformanceBadge_ZoweV1</title><g class="cls-2"><g class="cls-3"><path class="cls-4" d="M355.52881-616.53393-11.41262-363.47535,241.646,3.46607,608.58738-249.5925Zm-100.966,456.06736L280.15384-400.5925,154.625-314.02231l13.9624-37.51162-45.2933-7.91884L315.45693-491.97666l27.15349,39.3733-25.589,240.12454,129.56639-89.35462,31.33229,45.43254L281.71766-121.09137Z"/></g></g><rect class="cls-5" x="1.80027" y="334.82936" width="596.40039" height="107.37109"/><path class="cls-6" d="M596.39988,336.62965V440.4H3.60008V336.62965h592.7998m3.6001-3.6H0V444H600V333.02967Z"/><path class="cls-6" d="M63.34553-.53393H536.65447A63.34553,63.34553,0,0,1,600,62.8116v252.976a0,0,0,0,1,0,0H0a0,0,0,0,1,0,0V62.8116A63.34553,63.34553,0,0,1,63.34553-.53393Z"/><g class="cls-7"><g class="cls-3"><path class="cls-4" d="M355.52881-141.53393-11.41262,111.52465,241.646,478.46607,608.58738,225.4075Zm-100.966,456.06736L280.15384,74.4075,154.625,160.97769l13.9624-37.51162-45.2933-7.91884L315.45693-16.97666l27.15349,39.3733-25.589,240.12454,129.56639-89.35462,31.33229,45.43254L281.71766,353.90863Z"/></g></g><path class="cls-5" d="M156.25047,216.00611q-6.98292,0-11.02442,4.65039-4.04149,4.64942-4.042,12.7334,0,8.31592,3.89746,12.84961,3.89649,4.53516,11.11133,4.53418a37.93339,37.93339,0,0,0,10.11133-1.59375v4.31738a31.15079,31.15079,0,0,1-10.86524,1.65137q-9.35888,0-14.44336-5.67871-5.08446-5.67774-5.084-16.13769a25.46478,25.46478,0,0,1,2.44824-11.47364,17.5715,17.5715,0,0,1,7.06934-7.59082,21.39111,21.39111,0,0,1,10.8789-2.666,26.258,26.258,0,0,1,11.64746,2.43359l-2.08593,4.23047A22.44631,22.44631,0,0,0,156.25047,216.00611Z"/><path class="cls-5" d="M202.23094,238.66334q0,7.76514-3.91114,12.125-3.91113,4.36084-10.80664,4.36035a14.31224,14.31224,0,0,1-7.5625-1.999,13.20111,13.20111,0,0,1-5.09961-5.73633,19.99841,19.99841,0,0,1-1.7959-8.75q0-7.76514,3.88282-12.09668,3.88183-4.33154,10.77734-4.332a13.43482,13.43482,0,0,1,10.58984,4.43359Q202.23094,231.10084,202.23094,238.66334Zm-24.19239,0q0,6.08349,2.4336,9.27148a9.65929,9.65929,0,0,0,14.32714.01368q2.44776-3.17139,2.44825-9.28516,0-6.05567-2.44825-9.19922-2.44775-3.14355-7.22851-3.14355-4.72266,0-7.12793,3.09961Q178.03757,232.52125,178.03855,238.66334Z"/><path class="cls-5" d="M232.39207,254.56959v-20.542q0-3.88331-1.76758-5.79492-1.76659-1.91308-5.5332-1.91211-4.9834,0-7.30176,2.69433-2.31738,2.69385-2.31738,8.89453v16.66016h-4.80957V222.81471h3.91113l.78223,4.3457h.23144a9.81982,9.81982,0,0,1,4.14356-3.63574,13.465,13.465,0,0,1,5.93945-1.29q5.73633,0,8.63379,2.76758,2.89746,2.76708,2.89746,8.85156v20.71582Z"/><path class="cls-5" d="M261.395,226.552h-8.084v28.01758h-4.80957V226.552h-5.67871v-2.17285l5.67871-1.73828V220.8733q0-11.70557,10.22852-11.70508a21.05475,21.05475,0,0,1,5.91016,1.01367l-1.2461,3.85352a15.9196,15.9196,0,0,0-4.751-.89844,4.62869,4.62869,0,0,0-4.02734,1.81153q-1.30518,1.81055-1.30469,5.80859v2.05762h8.084Z"/><path class="cls-5" d="M294.59812,238.66334q0,7.76514-3.91113,12.125-3.91113,4.36084-10.80664,4.36035a14.31224,14.31224,0,0,1-7.5625-1.999,13.20111,13.20111,0,0,1-5.09961-5.73633,19.99827,19.99827,0,0,1-1.7959-8.75q0-7.76514,3.88281-12.09668,3.88183-4.33154,10.77735-4.332a13.43483,13.43483,0,0,1,10.58984,4.43359Q294.59813,231.10084,294.59812,238.66334Zm-24.19238,0q0,6.08349,2.43359,9.27148a9.65931,9.65931,0,0,0,14.32715.01368q2.44776-3.17139,2.44824-9.28516,0-6.05567-2.44824-9.19922-2.44774-3.14355-7.22851-3.14355-4.72266,0-7.12793,3.09961Q270.40476,232.52125,270.40574,238.66334Z"/><path class="cls-5" d="M317.51609,222.23463a18.85275,18.85275,0,0,1,3.7959.34766l-.667,4.46191a16.42885,16.42885,0,0,0-3.47656-.43457,8.46585,8.46585,0,0,0-6.5918,3.12988,11.40905,11.40905,0,0,0-2.73731,7.79395v17.03613h-4.80957V222.81471h3.96875l.55078,5.88183h.23145a13.95939,13.95939,0,0,1,4.25977-4.78125A9.58873,9.58873,0,0,1,317.51609,222.23463Z"/><path class="cls-5" d="M367.727,254.56959v-20.6582q0-3.79542-1.62305-5.69336a6.27561,6.27561,0,0,0-5.041-1.89746q-4.49121,0-6.63477,2.57812-2.14453,2.57959-2.14453,7.93848v17.73242H347.4741v-20.6582q0-3.79542-1.62207-5.69336-1.623-1.897-5.07031-1.89746-4.52052,0-6.62012,2.709-2.10206,2.7085-2.10059,8.87988v16.66016h-4.80957V222.81471h3.91114l.78222,4.3457h.23145a9.4556,9.4556,0,0,1,3.83887-3.62109,11.72107,11.72107,0,0,1,5.54882-1.30469q7.4458,0,9.73535,5.38965h.23145a10.12786,10.12786,0,0,1,4.11426-3.94043,12.76463,12.76463,0,0,1,6.14258-1.44922q5.38916,0,8.06933,2.76758,2.67919,2.76708,2.67969,8.85156v20.71582Z"/><path class="cls-5" d="M401.97312,254.56959l-.95605-4.52051h-.23145a13.35726,13.35726,0,0,1-4.7373,4.042,14.43849,14.43849,0,0,1-5.89551,1.05762,10.607,10.607,0,0,1-7.40332-2.43359,8.87465,8.87465,0,0,1-2.67969-6.92481q0-9.61817,15.38477-10.083l5.38867-.17383v-1.96973q0-3.73828-1.60742-5.51953-1.60841-1.78125-5.14258-1.78223a20.94821,20.94821,0,0,0-8.98242,2.43457l-1.47754-3.67968a22.58217,22.58217,0,0,1,5.14258-1.999,22.251,22.251,0,0,1,5.60644-.72461q5.67921,0,8.417,2.52051,2.7378,2.521,2.73829,8.084v21.67187Zm-10.86425-3.38965a9.76279,9.76279,0,0,0,7.05468-2.46289,9.112,9.112,0,0,0,2.56446-6.89551V238.9524l-4.80957.20313q-5.7378.20361-8.27247,1.78222a5.37155,5.37155,0,0,0-2.53515,4.91016,4.95375,4.95375,0,0,0,1.5791,3.96973A6.553,6.553,0,0,0,391.10887,251.17994Z"/><path class="cls-5" d="M437.17625,254.56959v-20.542q0-3.88331-1.76758-5.79492-1.76659-1.91308-5.5332-1.91211-4.98341,0-7.30176,2.69433-2.31738,2.69385-2.31738,8.89453v16.66016h-4.80957V222.81471h3.91113l.78223,4.3457h.23144a9.81982,9.81982,0,0,1,4.14356-3.63574,13.465,13.465,0,0,1,5.93945-1.29q5.73633,0,8.63379,2.76758,2.89746,2.76708,2.89746,8.85156v20.71582Z"/><path class="cls-5" d="M462.12156,251.17994a15.65655,15.65655,0,0,0,2.46289-.18847,15.92724,15.92724,0,0,0,1.88379-.39161v3.67969a8.79856,8.79856,0,0,1-2.30371.62305,17.3069,17.3069,0,0,1-2.73828.24609q-9.2124,0-9.21289-9.706V226.552h-4.54883v-2.31738l4.54883-2,2.02832-6.7793h2.78125v7.35938h9.21289v3.7373h-9.21289v18.6875a6.42591,6.42591,0,0,0,1.36133,4.4043A4.73673,4.73673,0,0,0,462.12156,251.17994Z"/><polygon class="cls-5" points="142.368 102.68 142.37 102.68 142.369 102.679 142.368 102.68"/><path class="cls-1" d="M380.17556,59.04015a1.61835,1.61835,0,0,0,.65225-1.44776V57.5461a1.62148,1.62148,0,0,0-.74008-1.53559,4.731,4.731,0,0,0-2.36365-.44868h-1.013v3.87149h1.03148A5.41649,5.41649,0,0,0,380.17556,59.04015Z"/><path class="cls-1" d="M472.228,58.89216a2.72575,2.72575,0,0,0,.31912-3.83912l-.333-.33305a4.63391,4.63391,0,0,0-2.82617-.754h-2.36356v5.66623h2.39136A4.66025,4.66025,0,0,0,472.228,58.89216Z"/><path class="cls-1" d="M459.93542,58.99391a2.8973,2.8973,0,0,0,.20945-4.09207l-.00134-.00148a.26093.26093,0,0,1-.0324-.037l-.1434-.15728a4.01286,4.01286,0,0,0-2.64113-.78166l-2.82612.04159v5.79575h2.68272A4.20056,4.20056,0,0,0,459.93542,58.99391Z"/><path class="cls-1" d="M334.87706,120.48966c-11.02579,0-17.61567,8.49088-17.61567,18.50257v.253c0,10.01168,7.22379,18.75627,17.86938,18.75627,11.02505,0,17.61493-8.49088,17.61493-18.50255v-.25372C352.74568,129.23388,345.52193,120.48966,334.87706,120.48966Z"/><polygon class="cls-1" points="397.465 56.678 395.102 62.474 399.815 62.474 397.465 56.678"/><path class="cls-1" d="M243.34743,59.937a3.273,3.273,0,0,0,.17576-4.62081.67353.67353,0,0,0-.1619-.1619,4.32067,4.32067,0,0,0-2.89553-.88344h-3.20541v6.5219h3.01577A4.83815,4.83815,0,0,0,243.34743,59.937Z"/><path class="cls-1" d="M519.01567,119.34907c-7.98419,0-13.17976,5.70262-14.70056,14.44721H533.336C532.19543,125.17856,527.12635,119.34907,519.01567,119.34907Z"/><polygon class="cls-1" points="314.978 56.678 312.605 62.474 317.327 62.474 314.978 56.678"/><path class="cls-1" d="M219.28906,66.41636a7.36937,7.36937,0,0,0,10.21763,0,7.24576,7.24576,0,0,0,0-10.14359,7.37218,7.37218,0,0,0-10.21763,0,7.15507,7.15507,0,0,0-.02475,10.11877l.00627.00629Z"/><path class="cls-1" d="M491.03966,64.809a6.46626,6.46626,0,0,0,0-9.0751,6.56,6.56,0,0,0-9.14455,0,6.40692,6.40692,0,0,0-.00051,9.06073l.00051.0005a6.25562,6.25562,0,0,0,4.57922,1.84092v.01388A6.20623,6.20623,0,0,0,491.03966,64.809Z"/><path class="cls-5" d="M454.50052,60.73308h2.75213a5.382,5.382,0,0,0,3.60785-1.04072,3.52056,3.52056,0,0,0,1.22112-2.82612,3.40661,3.40661,0,0,0-1.22112-2.7984,5.18576,5.18576,0,0,0-3.48761-1.03149h-3.98714V67.50474h1.11477Zm0-6.76707,2.82613-.04159a4.01288,4.01288,0,0,1,2.64113.78166l.1434.15729a.26077.26077,0,0,0,.0324.037,2.89728,2.89728,0,0,1-.20665,4.09221l-.00147.00134a4.20045,4.20045,0,0,1-2.75217.76785h-2.68272Z"/><path class="cls-5" d="M466.98271,60.58972h1.99821a3.64831,3.64831,0,0,1,2.05833.49488,9.42062,9.42062,0,0,1,1.95652,2.47925l2.52089,3.94089h1.33676l-3.27481-5.00014a6.69491,6.69491,0,0,0-1.9288-2.22021,3.5937,3.5937,0,0,0,2.75213-3.50609,3.3396,3.3396,0,0,0-1.23037-2.72437,5.48663,5.48663,0,0,0-3.56621-1.0176h-3.69577L465.868,67.5325h1.11472Zm.04165-6.62371h2.36356a4.634,4.634,0,0,1,2.82617.754l.333.333a2.72576,2.72576,0,0,1-.31912,3.83913,4.66024,4.66024,0,0,1-2.81229.74008h-2.39136Z"/><path class="cls-5" d="M491.90918,65.53057l.1758-.18505c.02776-.03238.05548-.06011.08324-.08783a7.2496,7.2496,0,0,0-.25813-10.24919l-.00091-.00085a7.91226,7.91226,0,0,0-10.85591,0l-.14336.14805-.00924.00464a7.33878,7.33878,0,0,0,.1526,10.37023A7.906,7.906,0,0,0,491.90918,65.53057Zm-10.01407-.73545a6.40692,6.40692,0,0,1-.00051-9.06073l.00051-.00049a6.56,6.56,0,0,1,9.14455,0,6.46627,6.46627,0,0,1,0,9.07511,6.20622,6.20622,0,0,1-4.56533,1.84092v-.01388A6.25555,6.25555,0,0,1,481.89511,64.79512Z"/><path class="cls-5" d="M496.7364,71.72453a2.89942,2.89942,0,0,0,2.13238-.91585,4.6903,4.6903,0,0,0,.89736-3.2748V53.03772h-1.11481V67.853c0,1.94269-.666,2.90012-2.03052,2.90012a3.47583,3.47583,0,0,1-.65225-.074l.10181,1.04536Q496.40343,71.73836,496.7364,71.72453Z"/><polygon class="cls-5" points="512.751 66.563 505.827 66.563 505.827 60.693 512.419 60.693 512.419 59.749 505.827 59.749 505.827 53.967 512.594 53.967 512.594 53.038 504.708 53.038 504.708 67.502 512.751 67.502 512.751 66.563"/><path class="cls-5" d="M528.813,54.06778v.00252c.01967.00943.04045.01572.06007.02523Z"/><path class="cls-5" d="M523.84056,67.70826a10.74714,10.74714,0,0,0,5.11578-1.35064V65.20125a10.92685,10.92685,0,0,1-5.1435,1.44776,6.38116,6.38116,0,0,1-4.65321-1.7854,6.13285,6.13285,0,0,1-1.81317-4.607,6.20854,6.20854,0,0,1,1.81317-4.57917,6.0764,6.0764,0,0,1,4.49129-1.84092,11.06819,11.06819,0,0,1,5.16206,1.44771V54.0703a12.15119,12.15119,0,0,0-5.0279-1.19125,7.54571,7.54571,0,0,0-5.35161,2.13233.53072.53072,0,0,1-.10181.10176l-.00441.00464H518.327a7.4064,7.4064,0,0,0,.00464,10.472A7.58229,7.58229,0,0,0,523.84056,67.70826Z"/><polygon class="cls-5" points="536.652 67.502 537.786 67.502 537.786 53.967 543.207 53.967 543.207 53.038 531.218 53.038 531.218 53.967 536.652 53.967 536.652 67.502"/><polygon class="cls-5" points="303.052 68.518 303.052 52.491 298.657 52.491 293.717 58.504 288.791 52.491 284.411 52.491 284.411 68.518 289.105 68.518 289.105 59.23 293.472 64.605 293.861 64.605 298.208 59.23 298.208 68.518 303.052 68.518"/><path class="cls-5" d="M311.47142,65.27249h6.9567l1.31824,3.2471H324.691L317.6927,52.48777h-5.40718L305.1947,68.51958h4.94466Zm3.50618-8.59406,2.34973,5.79565h-4.72267Z"/><rect class="cls-5" x="326.83721" y="52.49095" width="4.82438" height="16.02716"/><polygon class="cls-5" points="340.504 59.59 348.821 68.518 353.113 68.518 353.113 52.491 348.298 52.491 348.298 61.371 340.01 52.491 335.722 52.491 335.722 68.518 340.504 68.518 340.504 59.59"/><polygon class="cls-5" points="361.971 62.025 368.622 62.025 368.622 58.81 361.971 58.81 361.971 55.706 368.622 55.706 368.622 52.487 357.142 52.487 357.142 68.518 361.971 68.518 361.971 62.025"/><path class="cls-5" d="M378.61216,62.41672a2.68936,2.68936,0,0,1,1.08236.92509,12.41737,12.41737,0,0,1,1.24884,2.28031l1.25813,2.89554h5.18978L385.814,65.01161a12.79066,12.79066,0,0,0-1.42005-2.47925,4.44893,4.44893,0,0,0-1.2766-1.07309,10.9972,10.9972,0,0,0,1.17484-.72621,3.75973,3.75973,0,0,0,.98525-1.21648,4.07662,4.07662,0,0,0,.46256-2.05832,5.0654,5.0654,0,0,0-.55049-2.20169A4.86741,4.86741,0,0,0,383.34857,53.3a5.9251,5.9251,0,0,0-3.26093-.80944h-8.21938V68.47609h4.84286V62.21323h.53656A3.927,3.927,0,0,1,378.61216,62.41672Zm-1.90109-6.85489h1.013a4.731,4.731,0,0,1,2.36365.44867,1.62151,1.62151,0,0,1,.74009,1.5356v.0463a1.61837,1.61837,0,0,1-.65225,1.44776,5.41669,5.41669,0,0,1-2.433.39317h-1.03148Z"/><path class="cls-5" d="M393.97329,65.27249h6.95661l1.30436,3.2471h4.94462l-7.06306-16.03182h-5.347l-7.08613,16.03181h4.95849Zm3.49221-8.59406,2.34972,5.79565h-4.71329Z"/><polygon class="cls-5" points="414.002 59.23 418.382 64.605 418.756 64.605 423.123 59.23 423.123 68.518 427.947 68.518 427.947 52.491 423.571 52.491 418.613 58.504 413.701 52.491 409.306 52.491 409.306 68.518 414.002 68.518 414.002 59.23"/><polygon class="cls-5" points="444.08 65.285 436.832 65.285 436.832 61.866 443.557 61.866 443.557 58.633 436.832 58.633 436.832 55.705 443.876 55.705 443.876 52.491 431.993 52.491 431.993 68.518 444.08 68.518 444.08 65.285"/><path class="cls-5" d="M230.478,67.22579l.20352-.19888a.142.142,0,0,1,.037-.037,8.17581,8.17581,0,0,0-.24052-11.559,8.30713,8.30713,0,0,0-6.07317-2.40523v.04164a8.34406,8.34406,0,0,0-6.04551,2.40523l-.15723.1619a8.2013,8.2013,0,0,0,.15723,11.59135A8.83813,8.83813,0,0,0,230.478,67.22579Zm-11.189-10.953a7.37218,7.37218,0,0,1,10.21763,0,7.24576,7.24576,0,0,1,0,10.14359,7.36937,7.36937,0,0,1-10.21763,0l-.01848-.01852a7.15509,7.15509,0,0,1,.0122-10.1188l.00628-.00625Z"/><path class="cls-5" d="M237.18633,61.83807h3.08974a6.06378,6.06378,0,0,0,4.01494-1.17484,4.22676,4.22676,0,0,0,.08784-6.29063,5.99462,5.99462,0,0,0-3.91314-1.14711h-4.45426l-.06936,16.13356h1.24424Zm.074-7.56722h3.20541a4.32068,4.32068,0,0,1,2.89552.88344.67375.67375,0,0,1,.16191.1619,3.273,3.273,0,0,1-.17576,4.62081,4.83815,4.83815,0,0,1-3.07134.85573h-3.01576Z"/><polygon class="cls-5" points="257.133 68.344 249.376 68.344 249.376 61.78 256.745 61.78 256.745 60.735 249.376 60.735 249.376 54.273 256.943 54.273 256.943 53.228 248.132 53.228 248.132 69.389 257.133 69.389 257.133 68.344"/><polygon class="cls-5" points="260.947 55.253 273.219 69.389 274.251 69.389 274.251 53.228 273.001 53.228 273.001 67.344 260.758 53.228 259.699 53.228 259.699 69.389 260.947 69.389 260.947 55.253"/><polygon class="cls-5" points="215.878 101.48 263.148 101.48 214.357 158.255 214.357 173.082 288.24 173.082 288.24 155.974 239.45 155.974 288.24 99.199 288.24 84.372 215.878 84.372 215.878 101.48"/><path class="cls-5" d="M335.13075,103.88811c-21.16395,0-36.87862,15.84117-36.87862,35.35708v.25371c0,19.51668,15.58745,35.10411,36.62491,35.10411,21.164,0,36.87788-15.84116,36.87788-35.35782v-.253C371.75494,119.47555,356.16747,103.88811,335.13075,103.88811Zm17.61493,35.61081c0,10.01167-6.5899,18.50255-17.61493,18.50255-10.64559,0-17.86938-8.74459-17.86938-18.75627v-.253c0-10.01169,6.5899-18.50255,17.61567-18.50255,10.64485,0,17.86864,8.74422,17.86864,18.75552Z"/><polygon class="cls-5" points="449.82 146.469 436.894 104.902 420.293 104.902 407.493 146.343 396.594 105.155 377.078 105.155 397.988 173.589 415.224 173.589 428.529 131.895 441.583 173.589 458.945 173.589 480.109 105.155 460.972 105.155 449.82 146.469"/><path class="cls-5" d="M552.09229,140.766c0-19.26258-10.39187-36.87788-33.07662-36.87788-19.76964,0-33.58331,15.96765-33.58331,35.35708v.25371c0,20.78375,15.08076,35.10411,35.48431,35.10411,12.29287,0,21.41692-4.8161,27.75383-12.67307L537.64471,152.172c-5.32279,4.94259-10.01167,6.97008-16.47438,6.97008-8.6181,0-14.70129-4.5624-16.60155-13.307h47.26976C551.96507,144.0613,552.09229,142.2868,552.09229,140.766Zm-47.77718-6.96971c1.5208-8.74459,6.71637-14.44721,14.70056-14.44721,8.11068,0,13.17976,5.82949,14.32036,14.44721Z"/><path class="cls-5" d="M129.49268,43.46607l-90.9053,62.69221,62.6922,90.9053,90.90531-62.6922ZM104.47957,156.45125l6.33988-59.4883L79.72119,118.40967l-7.76185-11.25485,47.606-32.83119,6.727,9.75426-6.33936,59.488,32.09851-22.13652,7.76219,11.25536L111.20686,166.206Z"/><g class="cls-8"><g class="cls-3"><path class="cls-4" d="M355.52881,340.69766-11.41262,593.75623,241.646,960.69766,608.58738,707.63909ZM254.56278,796.765l25.59106-240.12593L154.625,643.20927l13.9624-37.51161-45.2933-7.91884L315.45693,465.25493l27.15349,39.37329-25.589,240.12454,129.56639-89.35461,31.33229,45.43254L281.71766,836.14022Z"/></g></g><path class="cls-6" d="M199.74949,379.884a4.16524,4.16524,0,0,0-3.57422,1.73438,8.06527,8.06527,0,0,0-1.26562,4.832q0,6.44531,4.83984,6.44629a15.28954,15.28954,0,0,0,4.916-1.01465v3.42773a13.66915,13.66915,0,0,1-5.29883.98829,8.0817,8.0817,0,0,1-6.4336-2.55079q-2.22948-2.55176-2.22851-7.32421a11.97282,11.97282,0,0,1,1.09375-5.26661,7.91077,7.91077,0,0,1,3.14453-3.46679,9.30009,9.30009,0,0,1,4.80664-1.20606,12.9754,12.9754,0,0,1,5.64258,1.35742l-1.31836,3.32227a22.12282,22.12282,0,0,0-2.17578-.89648A6.50037,6.50037,0,0,0,199.74949,379.884Z"/><path class="cls-6" d="M212.00535,396.03443V376.76h4.08789v15.89941h7.81641v3.375Z"/><path class="cls-6" d="M230.49949,396.03443V376.76h4.08789v19.27441Z"/><path class="cls-6" d="M251.31,390.44459v-3.2959h7.08008v3.2959Z"/><path class="cls-6" d="M287.67722,396.03443H273.33347V393.384l9.24219-13.249h-8.99219V376.76h13.84375v2.63672l-9.22851,13.26269h9.47851Z"/><path class="cls-6" d="M311.48387,386.37037q0,4.78712-2.37305,7.35742a10.28739,10.28739,0,0,1-13.60547,0q-2.373-2.57226-2.37305-7.38281,0-4.812,2.37891-7.35059a8.90535,8.90535,0,0,1,6.82422-2.53808q4.44141,0,6.79492,2.55859Q311.48289,381.57252,311.48387,386.37037Zm-14.06641,0a8.0441,8.0441,0,0,0,1.22656,4.86524,4.28572,4.28572,0,0,0,3.66406,1.63476q4.88966,0,4.89063-6.5,0-6.51123-4.86328-6.51172a4.32151,4.32151,0,0,0-3.67969,1.64063A8.01982,8.01982,0,0,0,297.41746,386.37037Z"/><path class="cls-6" d="M337.49168,396.03443h-4.6543l-2.60937-10.125q-.14649-.54052-.49414-2.23437-.34865-1.69482-.40235-2.27442-.07909.71191-.39648,2.28711-.31641,1.57619-.48633,2.248l-2.59766,10.09863h-4.64062l-4.918-19.27441h4.02148l2.46485,10.52051q.64746,2.91357.93554,5.04883.07911-.75.36329-2.32618t.5332-2.44531L327.41941,376.76h3.86328l2.8086,10.79785q.18456.7251.46093,2.21485.2754,1.48974.42188,2.55664.13183-1.02833.42187-2.56348.29-1.53661.52735-2.48535L338.37449,376.76H342.396Z"/><path class="cls-6" d="M359.1616,396.03443H348.062V376.76H359.1616v3.34863h-7.01367v4.23242h6.52734v3.34766h-6.52734v4.9707h7.01367Z"/><path class="cls-6" d="M387.67137,376.76h4.12695l-6.55274,19.27441h-4.45507L374.25144,376.76h4.127l3.625,11.46973q.30176,1.01512.625,2.36621c.21679.90136.34961,1.52734.40234,1.8789a33.67475,33.67475,0,0,1,.99023-4.24511Z"/><path class="cls-6" d="M406.19285,396.03443h-4.07422V384.88111l.03906-1.833.06641-2.00391q-1.01659,1.01659-1.41016,1.332l-2.21484,1.7793-1.96484-2.45117,6.209-4.94434h3.34961Z"/></svg>