<?xml version="1.0" encoding="UTF-8" standalone="no"?>
<svg
   xmlns:dc="http://purl.org/dc/elements/1.1/"
   xmlns:cc="http://creativecommons.org/ns#"
   xmlns:rdf="http://www.w3.org/1999/02/22-rdf-syntax-ns#"
   xmlns:svg="http://www.w3.org/2000/svg"
   xmlns="http://www.w3.org/2000/svg"
   xmlns:sodipodi="http://sodipodi.sourceforge.net/DTD/sodipodi-0.dtd"
   xmlns:inkscape="http://www.inkscape.org/namespaces/inkscape"
   inkscape:version="1.0beta1 (fe3e306, 2019-09-17)"
   sodipodi:docname="lf_mem_gold.svg"
   viewBox="0 0 474.66666 231.11067"
   height="231.11067"
   width="474.66666"
   xml:space="preserve"
   id="svg1283"
   version="1.1">
  <metadata
     id="metadata1289">
    <rdf:RDF>
      <cc:Work
         rdf:about="">
        <dc:format>image/svg+xml</dc:format>
        <dc:type
           rdf:resource="http://purl.org/dc/dcmitype/StillImage" />
        <dc:title></dc:title>
      </cc:Work>
    </rdf:RDF>
  </metadata>
  <defs
     id="defs1287">
    <clipPath
       id="clipPath1319"
       clipPathUnits="userSpaceOnUse">
      <path
         inkscape:connector-curvature="0"
         id="path1317"
         d="M 0,173.333 H 356 V 0 H 0 Z" />
    </clipPath>
  </defs>
  <sodipodi:namedview
     inkscape:current-layer="g1291"
     inkscape:window-maximized="0"
     inkscape:window-y="23"
     inkscape:window-x="57"
     inkscape:cy="115.55534"
     inkscape:cx="108.5478"
     inkscape:zoom="1.0870787"
     showgrid="false"
     id="namedview1285"
     inkscape:window-height="480"
     inkscape:window-width="870"
     inkscape:pageshadow="2"
     inkscape:pageopacity="0"
     guidetolerance="10"
     gridtolerance="10"
     objecttolerance="10"
     borderopacity="1"
     inkscape:document-rotation="0"
     bordercolor="#666666"
     pagecolor="#ffffff" />
  <g
     transform="matrix(1.3333333,0,0,-1.3333333,0,231.11067)"
     inkscape:label="lf_mem_gold"
     inkscape:groupmode="layer"
     id="g1291">
    <g
       transform="translate(7.2728,42.189)"
       id="g1293">
      <path
         inkscape:connector-curvature="0"
         id="path1295"
         style="fill:none;stroke:#0d3a63;stroke-width:1;stroke-linecap:butt;stroke-linejoin:miter;stroke-miterlimit:10;stroke-dasharray:none;stroke-opacity:1"
         d="M 0,0 H 341.33" />
    </g>
    <g
       transform="translate(138.9857,165.3643)"
       id="g1297">
      <path
         inkscape:connector-curvature="0"
         id="path1299"
         style="fill:#00325d;fill-opacity:1;fill-rule:nonzero;stroke:none"
         d="M 0,0 H 19.778 V -2.027 H 11.076 V -24.951 H 8.7 V -2.027 H 0 Z" />
    </g>
    <g
       transform="translate(161.1087,165.3643)"
       id="g1301">
      <path
         inkscape:connector-curvature="0"
         id="path1303"
         style="fill:#00325d;fill-opacity:1;fill-rule:nonzero;stroke:none"
         d="M 0,0 H 2.375 V -10.833 H 17.192 V 0 h 2.376 v -24.951 h -2.376 v 12.092 H 2.375 V -24.951 H 0 Z" />
    </g>
    <g
       transform="translate(185.7132,165.3643)"
       id="g1305">
      <path
         inkscape:connector-curvature="0"
         id="path1307"
         style="fill:#00325d;fill-opacity:1;fill-rule:nonzero;stroke:none"
         d="M 0,0 H 17.228 V -2.027 H 2.376 v -9.015 h 13.909 v -2.027 H 2.376 v -9.855 h 15.027 v -2.027 l -17.403,0 z" />
    </g>
    <g
       transform="translate(138.9857,78.4937)"
       id="g1309">
      <path
         inkscape:connector-curvature="0"
         id="path1311"
         style="fill:#00325d;fill-opacity:1;fill-rule:nonzero;stroke:none"
         d="M 0,0 H 15.829 V -2.027 H 2.375 v -9.015 h 11.951 v -2.027 H 2.375 V -24.951 H 0 Z" />
    </g>
    <g
       id="g1313">
      <g
         clip-path="url(#clipPath1319)"
         id="g1315">
        <g
           transform="translate(168.2015,55.0454)"
           id="g1321">
          <path
             inkscape:connector-curvature="0"
             id="path1323"
             style="fill:#00325d;fill-opacity:1;fill-rule:nonzero;stroke:none"
             d="m 0,0 c 6.569,0 9.364,5.521 9.364,10.973 0,5.451 -2.795,10.973 -9.364,10.973 -6.605,0 -9.4,-5.522 -9.4,-10.973 C -9.4,5.521 -6.605,0 0,0 m 0,23.972 c 7.827,0 11.741,-6.15 11.741,-12.999 0,-6.849 -3.914,-13 -11.741,-13 -7.863,0 -11.777,6.151 -11.777,13 0,6.849 3.914,12.999 11.777,12.999" />
        </g>
        <g
           transform="translate(183.4075,78.4937)"
           id="g1325">
          <path
             inkscape:connector-curvature="0"
             id="path1327"
             style="fill:#00325d;fill-opacity:1;fill-rule:nonzero;stroke:none"
             d="m 0,0 h 2.375 v -15.446 c 0,-5.765 2.691,-8.002 7.304,-8.002 4.648,0 7.339,2.237 7.339,8.002 V 0 h 2.376 v -15.97 c 0,-5.137 -2.761,-9.505 -9.715,-9.505 -6.884,0 -9.679,4.368 -9.679,9.505 z" />
        </g>
        <g
           transform="translate(207.557,78.4937)"
           id="g1329">
          <path
             inkscape:connector-curvature="0"
             id="path1331"
             style="fill:#00325d;fill-opacity:1;fill-rule:nonzero;stroke:none"
             d="m 0,0 h 2.656 l 14.537,-21.107 h 0.07 V 0 H 19.64 V -24.951 H 16.983 L 2.446,-3.844 H 2.377 V -24.951 H 0 Z" />
        </g>
        <g
           transform="translate(234.5736,55.5698)"
           id="g1333">
          <path
             inkscape:connector-curvature="0"
             id="path1335"
             style="fill:#00325d;fill-opacity:1;fill-rule:nonzero;stroke:none"
             d="m 0,0 h 5.067 c 7.164,0 10.274,2.971 10.274,10.449 0,7.478 -3.11,10.448 -10.274,10.448 H 0 Z m -2.375,22.924 h 8.63 c 7.549,-0.175 11.463,-4.229 11.463,-12.475 0,-8.248 -3.914,-12.301 -11.463,-12.476 h -8.63 z" />
        </g>
        <g
           transform="translate(259.6683,63.3276)"
           id="g1337">
          <path
             inkscape:connector-curvature="0"
             id="path1339"
             style="fill:#00325d;fill-opacity:1;fill-rule:nonzero;stroke:none"
             d="M 0,0 H 9.819 L 4.997,12.79 Z M 3.774,15.166 H 6.43 l 9.785,-24.951 h -2.551 l -3.04,7.758 H -0.733 L -3.739,-9.785 H -6.29 Z" />
        </g>
        <g
           transform="translate(273.0912,78.4937)"
           id="g1341">
          <path
             inkscape:connector-curvature="0"
             id="path1343"
             style="fill:#00325d;fill-opacity:1;fill-rule:nonzero;stroke:none"
             d="M 0,0 H 19.778 V -2.027 H 11.077 V -24.951 H 8.701 v 22.924 l -8.701,0 z" />
        </g>
        <path
           inkscape:connector-curvature="0"
           id="path1345"
           style="fill:#00325d;fill-opacity:1;fill-rule:nonzero;stroke:none"
           d="m 295.389,78.494 h 2.376 V 53.543 h -2.376 z" />
        <g
           transform="translate(313.4203,55.0454)"
           id="g1347">
          <path
             inkscape:connector-curvature="0"
             id="path1349"
             style="fill:#00325d;fill-opacity:1;fill-rule:nonzero;stroke:none"
             d="m 0,0 c 6.569,0 9.365,5.521 9.365,10.973 0,5.451 -2.796,10.973 -9.365,10.973 -6.604,0 -9.4,-5.522 -9.4,-10.973 C -9.4,5.521 -6.604,0 0,0 m 0,23.972 c 7.828,0 11.742,-6.15 11.742,-12.999 0,-6.849 -3.914,-13 -11.742,-13 -7.862,0 -11.776,6.151 -11.776,13 0,6.849 3.914,12.999 11.776,12.999" />
        </g>
        <g
           transform="translate(328.8363,78.4937)"
           id="g1351">
          <path
             inkscape:connector-curvature="0"
             id="path1353"
             style="fill:#00325d;fill-opacity:1;fill-rule:nonzero;stroke:none"
             d="m 0,0 h 2.655 l 14.537,-21.107 h 0.07 V 0 h 2.377 V -24.951 H 16.983 L 2.446,-3.844 H 2.376 V -24.951 H 0 Z" />
        </g>
        <g
           transform="translate(138.9857,132.9829)"
           id="g1355">
          <path
             inkscape:connector-curvature="0"
             id="path1357"
             style="fill:#00325d;fill-opacity:1;fill-rule:nonzero;stroke:none"
             d="M 0,0 H 13.755 V -33.2 H 33.513 V -44.642 H 0 Z" />
        </g>
        <path
           inkscape:connector-curvature="0"
           id="path1359"
           style="fill:#00325d;fill-opacity:1;fill-rule:nonzero;stroke:none"
           d="m 181.497,132.983 h 13.756 V 88.341 h -13.756 z" />
        <g
           transform="translate(205.5062,132.9829)"
           id="g1361">
          <path
             inkscape:connector-curvature="0"
             id="path1363"
             style="fill:#00325d;fill-opacity:1;fill-rule:nonzero;stroke:none"
             d="m 0,0 h 14.066 l 13.006,-23.884 h 0.125 V 0 H 40.202 V -44.642 H 26.822 L 13.13,-20.258 H 13.004 V -44.642 H 0 Z" />
        </g>
        <g
           transform="translate(296.5345,105.5972)"
           id="g1365">
          <path
             inkscape:connector-curvature="0"
             id="path1367"
             style="fill:#00325d;fill-opacity:1;fill-rule:nonzero;stroke:none"
             d="m 0,0 c 0,-12.442 -6.564,-18.319 -20.319,-18.319 -13.755,0 -20.383,5.877 -20.383,18.319 v 27.386 h 13.755 V 3.063 c 0,-4.501 -0.063,-10.253 6.69,-10.253 6.503,0 6.503,5.752 6.503,10.253 V 27.386 H 0 Z" />
        </g>
        <g
           transform="translate(318.4144,112.0996)"
           id="g1369">
          <path
             inkscape:connector-curvature="0"
             id="path1371"
             style="fill:#00325d;fill-opacity:1;fill-rule:nonzero;stroke:none"
             d="M 0,0 -14.692,20.883 H 1.438 L 8.19,8.753 14.818,20.883 H 30.073 L 15.757,-0.125 31.699,-23.759 H 15.131 l -7.628,13.318 -7.878,-13.318 h -15.756 z" />
        </g>
        <g
           transform="translate(29.7659,75.9893)"
           id="g1373">
          <path
             inkscape:connector-curvature="0"
             id="path1375"
             style="fill:#2b93dd;fill-opacity:1;fill-rule:nonzero;stroke:none"
             d="M 0,0 V 44.882 H -22.485 V -22.446 H 44.87 L 44.87,0 Z" />
        </g>
        <g
           transform="translate(119.5052,165.7896)"
           id="g1377">
          <path
             inkscape:connector-curvature="0"
             id="path1379"
             style="fill:#00325d;fill-opacity:1;fill-rule:nonzero;stroke:none"
             d="m 0,0 h -112.209 v -33.671 h 22.438 v 11.128 h 67.334 V -89.8 h -11.207 v -22.447 H 0 Z" />
        </g>
        <g
           transform="translate(18.9036,19.4492)"
           id="g1381">
          <path
             inkscape:connector-curvature="0"
             id="path1383"
             style="fill:#2b93dd;fill-opacity:1;fill-rule:nonzero;stroke:none"
             d="m 0,0 h 10.085 v -12.48 c -2.645,-1.123 -5.62,-1.684 -8.925,-1.684 -4.316,0 -7.625,1.219 -9.926,3.658 -2.301,2.439 -3.452,5.891 -3.452,10.357 0,2.781 0.571,5.248 1.712,7.399 1.141,2.152 2.776,3.814 4.902,4.987 2.126,1.172 4.568,1.759 7.325,1.759 2.981,0 5.657,-0.55 8.027,-1.647 L 8.98,10.627 c -2.37,1.098 -4.827,1.647 -7.372,1.647 -3.604,0 -6.463,-1.113 -8.578,-3.34 -2.114,-2.226 -3.172,-5.229 -3.172,-9.009 0,-4.116 1.004,-7.213 3.013,-9.29 2.008,-2.076 4.958,-3.115 8.85,-3.115 2.519,0 4.659,0.355 6.418,1.067 v 9.617 l -8.139,0 z" />
        </g>
        <g
           transform="translate(44.1361,19.3745)"
           id="g1385">
          <path
             inkscape:connector-curvature="0"
             id="path1387"
             style="fill:#2b93dd;fill-opacity:1;fill-rule:nonzero;stroke:none"
             d="m 0,0 c 0,-3.917 0.873,-6.945 2.62,-9.084 1.746,-2.14 4.253,-3.209 7.522,-3.209 3.293,0 5.809,1.06 7.549,3.181 1.74,2.12 2.61,5.157 2.61,9.112 0,3.941 -0.87,6.963 -2.61,9.065 -1.74,2.102 -4.245,3.153 -7.512,3.153 -3.256,0 -5.766,-1.06 -7.532,-3.181 C 0.883,6.917 0,3.904 0,0 m 22.378,0 c 0,-4.341 -1.085,-7.774 -3.256,-10.3 -2.17,-2.526 -5.164,-3.789 -8.98,-3.789 -3.805,0 -6.792,1.263 -8.963,3.789 -2.17,2.526 -3.255,5.971 -3.255,10.337 0,4.354 1.094,7.781 3.283,10.282 2.189,2.5 5.18,3.751 8.972,3.751 3.817,0 6.804,-1.257 8.962,-3.77 C 21.299,7.787 22.378,4.353 22.378,0" />
        </g>
        <g
           transform="translate(80.4642,5.6597)"
           id="g1389">
          <path
             inkscape:connector-curvature="0"
             id="path1391"
             style="fill:#2b93dd;fill-opacity:1;fill-rule:nonzero;stroke:none"
             d="M 0,0 V 27.354 H 1.908 V 1.796 H 14.949 V 0 Z" />
        </g>
        <g
           transform="translate(126.4847,19.5239)"
           id="g1393">
          <path
             inkscape:connector-curvature="0"
             id="path1395"
             style="fill:#2b93dd;fill-opacity:1;fill-rule:nonzero;stroke:none"
             d="m 0,0 c 0,3.917 -0.994,6.864 -2.984,8.841 -1.99,1.977 -4.912,2.966 -8.766,2.966 h -5.033 V -12.18 h 4.528 C -4.085,-12.18 0,-8.12 0,0 m 2.077,0.075 c 0,-4.591 -1.204,-8.061 -3.611,-10.412 -2.407,-2.351 -5.944,-3.527 -10.609,-3.527 h -6.548 V 13.49 h 7.39 c 4.365,0 7.687,-1.141 9.963,-3.424 C 0.938,7.784 2.077,4.453 2.077,0.075" />
        </g>
        <g
           transform="translate(172.1615,5.6597)"
           id="g1397">
          <path
             inkscape:connector-curvature="0"
             id="path1399"
             style="fill:#2b93dd;fill-opacity:1;fill-rule:nonzero;stroke:none"
             d="m 0,0 -10.197,25.259 h -0.151 c 0.1,-1.547 0.151,-3.131 0.151,-4.752 V 0 h -1.834 v 27.354 h 2.956 L 0.617,3.293 h 0.112 l 9.692,24.061 h 2.882 V 0 h -1.927 v 20.731 c 0,1.447 0.074,2.944 0.224,4.491 H 11.45 L 1.216,0 Z" />
        </g>
        <g
           transform="translate(215.804,5.6597)"
           id="g1401">
          <path
             inkscape:connector-curvature="0"
             id="path1403"
             style="fill:#2b93dd;fill-opacity:1;fill-rule:nonzero;stroke:none"
             d="M 0,0 H -14.949 V 27.354 H 0 V 25.596 H -13.041 V 15.249 H -0.729 V 13.49 H -13.041 V 1.759 L 0,1.759 Z" />
        </g>
        <g
           transform="translate(241.6927,5.6597)"
           id="g1405">
          <path
             inkscape:connector-curvature="0"
             id="path1407"
             style="fill:#2b93dd;fill-opacity:1;fill-rule:nonzero;stroke:none"
             d="m 0,0 -10.197,25.259 h -0.151 c 0.1,-1.547 0.151,-3.131 0.151,-4.752 V 0 h -1.834 v 27.354 h 2.956 L 0.617,3.293 h 0.112 l 9.692,24.061 h 2.882 V 0 h -1.927 v 20.731 c 0,1.447 0.074,2.944 0.224,4.491 H 11.45 L 1.216,0 Z" />
        </g>
        <g
           transform="translate(272.2953,19.1499)"
           id="g1409">
          <path
             inkscape:connector-curvature="0"
             id="path1411"
             style="fill:#2b93dd;fill-opacity:1;fill-rule:nonzero;stroke:none"
             d="m 0,0 v -11.806 h 6.437 c 5.064,0 7.596,2.058 7.596,6.174 0,3.755 -2.67,5.632 -8.008,5.632 z m 0,1.684 h 6.025 c 2.57,0 4.437,0.427 5.604,1.282 1.166,0.854 1.749,2.192 1.749,4.013 0,1.821 -0.658,3.144 -1.974,3.967 -1.316,0.823 -3.277,1.235 -5.884,1.235 H 0 Z m -1.908,12.18 h 7.503 c 3.38,0 5.862,-0.573 7.446,-1.721 1.584,-1.148 2.377,-2.881 2.377,-5.202 0,-1.584 -0.483,-2.903 -1.45,-3.957 C 13.001,1.93 11.588,1.253 9.729,0.954 V 0.842 c 2.183,-0.324 3.79,-1.013 4.819,-2.068 1.029,-1.054 1.543,-2.523 1.543,-4.406 0,-2.52 -0.835,-4.459 -2.507,-5.819 -1.672,-1.36 -4.041,-2.039 -7.11,-2.039 h -8.382 z" />
        </g>
        <g
           transform="translate(317.0238,5.6597)"
           id="g1413">
          <path
             inkscape:connector-curvature="0"
             id="path1415"
             style="fill:#2b93dd;fill-opacity:1;fill-rule:nonzero;stroke:none"
             d="M 0,0 H -14.949 V 27.354 H 0 V 25.596 H -13.041 V 15.249 H -0.729 V 13.49 H -13.041 V 1.759 L 0,1.759 Z" />
        </g>
        <g
           transform="translate(332.7894,19.2246)"
           id="g1417">
          <path
             inkscape:connector-curvature="0"
             id="path1419"
             style="fill:#2b93dd;fill-opacity:1;fill-rule:nonzero;stroke:none"
             d="m 0,0 h 5.221 c 2.307,0 4.097,0.515 5.37,1.544 1.271,1.029 1.908,2.547 1.908,4.556 0,2.083 -0.624,3.598 -1.871,4.546 -1.248,0.948 -3.281,1.422 -6.1,1.422 L 0,12.068 Z M 0,-1.646 V -13.565 H -1.908 V 13.79 h 6.512 c 3.392,0 5.899,-0.627 7.521,-1.881 1.621,-1.253 2.432,-3.14 2.432,-5.659 0,-1.834 -0.484,-3.381 -1.45,-4.641 C 12.141,0.349 10.671,-0.555 8.7,-1.104 l 7.429,-12.461 H 13.846 L 6.792,-1.646 Z" />
        </g>
      </g>
    </g>
  </g>
</svg>
