<?xml version="1.0" encoding="UTF-8"?><svg id="a" xmlns="http://www.w3.org/2000/svg" viewBox="0 0 624.24 469.28"><defs><style>.b,.c{fill:#fff;}.d,.c{opacity:.9;}</style></defs><path class="b" d="M12.24,464.2H612.24v-110.97H12.24v110.97Zm3.6-107.37H608.64v103.77H15.84v-103.77Z"/><g><path class="b" d="M53.34,401.8h-12.75v-22.13h12.75v3.84h-8.05v4.86h7.49v3.84h-7.49v5.71h8.05v3.88Z"/><path class="b" d="M78.94,401.8h-5.36l-5.15-8.37-5.15,8.37h-5.03l7.34-11.41-6.87-10.72h5.18l4.77,7.96,4.68-7.96h5.05l-6.95,10.97,7.48,11.16Z"/><path class="b" d="M100.12,386.57c0,2.38-.74,4.2-2.23,5.46-1.49,1.26-3.61,1.89-6.35,1.89h-2.01v7.87h-4.69v-22.13h7.07c2.68,0,4.73,.58,6.12,1.73s2.1,2.88,2.1,5.17Zm-10.6,3.51h1.54c1.44,0,2.52-.29,3.24-.86,.72-.57,1.08-1.4,1.08-2.49s-.3-1.91-.9-2.44-1.54-.79-2.82-.79h-2.13v6.57Z"/><path class="b" d="M107.4,401.8v-22.13h4.69v18.25h8.98v3.88h-13.67Z"/><path class="b" d="M148.1,390.7c0,3.66-.91,6.48-2.72,8.45-1.82,1.97-4.42,2.95-7.81,2.95s-5.99-.98-7.81-2.95c-1.82-1.97-2.72-4.79-2.72-8.48s.91-6.5,2.73-8.44c1.82-1.94,4.43-2.91,7.83-2.91s6,.98,7.8,2.94c1.8,1.96,2.7,4.77,2.7,8.45Zm-16.15,0c0,2.47,.47,4.33,1.41,5.59,.94,1.25,2.34,1.88,4.21,1.88,3.74,0,5.62-2.49,5.62-7.46s-1.86-7.48-5.58-7.48c-1.87,0-3.28,.63-4.22,1.88-.95,1.26-1.42,3.12-1.42,5.59Z"/><path class="b" d="M160.47,393.31v8.49h-4.69v-22.13h6.45c3.01,0,5.23,.55,6.67,1.64,1.44,1.09,2.17,2.76,2.17,4.99,0,1.3-.36,2.46-1.08,3.47-.72,1.01-1.73,1.81-3.04,2.38,3.33,4.98,5.5,8.19,6.51,9.64h-5.21l-5.28-8.49h-2.5Zm0-3.81h1.51c1.48,0,2.58-.25,3.28-.74,.71-.49,1.06-1.27,1.06-2.33s-.36-1.8-1.08-2.24-1.84-.67-3.35-.67h-1.42v5.98Z"/><path class="b" d="M192.09,401.8h-12.75v-22.13h12.75v3.84h-8.05v4.86h7.49v3.84h-7.49v5.71h8.05v3.88Z"/><path class="b" d="M204.5,393.31v8.49h-4.69v-22.13h6.45c3.01,0,5.23,.55,6.67,1.64,1.44,1.09,2.17,2.76,2.17,4.99,0,1.3-.36,2.46-1.08,3.47-.72,1.01-1.73,1.81-3.04,2.38,3.33,4.98,5.5,8.19,6.51,9.64h-5.21l-5.28-8.49h-2.5Zm0-3.81h1.51c1.48,0,2.58-.25,3.28-.74,.71-.49,1.06-1.27,1.06-2.33s-.36-1.8-1.08-2.24-1.84-.67-3.35-.67h-1.42v5.98Z"/><path class="b" d="M239.14,401.8h-4.62v-22.13h12.68v3.84h-8.07v5.71h7.51v3.83h-7.51v8.75Z"/><path class="b" d="M274.73,390.7c0,3.66-.91,6.48-2.72,8.45-1.82,1.97-4.42,2.95-7.81,2.95s-5.99-.98-7.81-2.95c-1.82-1.97-2.72-4.79-2.72-8.48s.91-6.5,2.73-8.44c1.82-1.94,4.43-2.91,7.83-2.91s6,.98,7.8,2.94c1.8,1.96,2.7,4.77,2.7,8.45Zm-16.15,0c0,2.47,.47,4.33,1.41,5.59,.94,1.25,2.34,1.88,4.21,1.88,3.74,0,5.62-2.49,5.62-7.46s-1.86-7.48-5.58-7.48c-1.87,0-3.28,.63-4.22,1.88-.95,1.26-1.42,3.12-1.42,5.59Z"/><path class="b" d="M287.11,393.31v8.49h-4.69v-22.13h6.45c3.01,0,5.23,.55,6.67,1.64,1.44,1.09,2.17,2.76,2.17,4.99,0,1.3-.36,2.46-1.08,3.47-.72,1.01-1.73,1.81-3.04,2.38,3.33,4.98,5.5,8.19,6.51,9.64h-5.21l-5.28-8.49h-2.5Zm0-3.81h1.51c1.48,0,2.58-.25,3.28-.74,.71-.49,1.06-1.27,1.06-2.33s-.36-1.8-1.08-2.24-1.84-.67-3.35-.67h-1.42v5.98Z"/><path class="b" d="M329.75,379.67h4.74l-7.52,22.13h-5.12l-7.51-22.13h4.74l4.16,13.17c.23,.78,.47,1.68,.72,2.72,.25,1.04,.4,1.75,.46,2.16,.11-.93,.49-2.55,1.14-4.87l4.19-13.17Z"/><path class="b" d="M340.38,401.8v-22.13h4.69v22.13h-4.69Z"/><path class="b" d="M366.8,395.65c0,2-.72,3.57-2.16,4.72-1.44,1.15-3.44,1.73-6,1.73-2.36,0-4.45-.44-6.27-1.33v-4.36c1.49,.67,2.76,1.13,3.79,1.41,1.03,.27,1.98,.41,2.84,.41,1.03,0,1.82-.2,2.37-.59,.55-.39,.82-.98,.82-1.76,0-.43-.12-.82-.36-1.16s-.6-.66-1.07-.98c-.47-.31-1.43-.81-2.87-1.5-1.35-.64-2.37-1.25-3.04-1.83s-1.22-1.27-1.62-2.04c-.4-.78-.61-1.69-.61-2.72,0-1.96,.66-3.5,1.99-4.62,1.33-1.12,3.16-1.68,5.5-1.68,1.15,0,2.25,.14,3.29,.41,1.04,.27,2.14,.66,3.28,1.15l-1.51,3.65c-1.18-.48-2.16-.82-2.93-1.01-.77-.19-1.53-.29-2.28-.29-.89,0-1.57,.21-2.04,.62-.47,.41-.71,.95-.71,1.62,0,.41,.1,.78,.29,1.08,.19,.31,.5,.61,.92,.89,.42,.29,1.41,.8,2.97,1.55,2.07,.99,3.49,1.98,4.25,2.97,.77,.99,1.15,2.21,1.15,3.66Z"/><path class="b" d="M391.93,379.67v14.32c0,1.63-.37,3.07-1.1,4.3s-1.79,2.17-3.17,2.83c-1.38,.66-3.02,.98-4.9,.98-2.85,0-5.06-.73-6.63-2.19-1.57-1.46-2.36-3.45-2.36-5.99v-14.26h4.68v13.55c0,1.71,.34,2.96,1.03,3.75,.69,.8,1.82,1.2,3.41,1.2s2.65-.4,3.34-1.2c.69-.8,1.04-2.06,1.04-3.78v-13.52h4.68Z"/><path class="b" d="M413.99,401.8l-1.6-5.27h-8.07l-1.6,5.27h-5.06l7.81-22.22h5.74l7.84,22.22h-5.06Zm-2.72-9.2c-1.48-4.77-2.32-7.47-2.5-8.1-.19-.63-.32-1.12-.4-1.48-.33,1.29-1.29,4.49-2.86,9.58h5.77Z"/><path class="b" d="M424.93,401.8v-22.13h4.69v18.25h8.98v3.88h-13.67Z"/><path class="b" d="M466.1,383.26c-1.77,0-3.13,.66-4.1,1.99s-1.45,3.18-1.45,5.55c0,4.93,1.85,7.4,5.56,7.4,1.55,0,3.44-.39,5.65-1.17v3.94c-1.82,.76-3.84,1.13-6.08,1.13-3.22,0-5.68-.98-7.39-2.93-1.71-1.95-2.56-4.76-2.56-8.41,0-2.3,.42-4.32,1.26-6.05,.84-1.73,2.04-3.06,3.61-3.98,1.57-.92,3.41-1.38,5.52-1.38s4.31,.52,6.48,1.56l-1.51,3.81c-.83-.39-1.66-.74-2.5-1.03s-1.66-.44-2.47-.44Z"/><path class="b" d="M499.64,390.7c0,3.66-.91,6.48-2.72,8.45-1.82,1.97-4.42,2.95-7.81,2.95s-5.99-.98-7.81-2.95c-1.82-1.97-2.72-4.79-2.72-8.48s.91-6.5,2.73-8.44c1.82-1.94,4.43-2.91,7.83-2.91s6,.98,7.8,2.94c1.8,1.96,2.7,4.77,2.7,8.45Zm-16.15,0c0,2.47,.47,4.33,1.41,5.59,.94,1.25,2.34,1.88,4.21,1.88,3.74,0,5.62-2.49,5.62-7.46s-1.86-7.48-5.58-7.48c-1.87,0-3.28,.63-4.22,1.88-.95,1.26-1.42,3.12-1.42,5.59Z"/><path class="b" d="M525.69,390.52c0,3.64-1.04,6.43-3.11,8.37-2.07,1.94-5.07,2.91-8.98,2.91h-6.27v-22.13h6.95c3.61,0,6.42,.95,8.42,2.86,2,1.91,3,4.57,3,7.99Zm-4.88,.12c0-4.75-2.1-7.13-6.3-7.13h-2.5v14.41h2.01c4.52,0,6.78-2.43,6.78-7.28Z"/><path class="b" d="M546.12,401.8h-12.75v-22.13h12.75v3.84h-8.05v4.86h7.49v3.84h-7.49v5.71h8.05v3.88Z"/><path class="b" d="M563.13,395.38v-3.78h8.13v3.78h-8.13Z"/><path class="b" d="M250.55,439h-16.47v-3.04l10.61-15.21h-10.32v-3.88h15.89v3.03l-10.6,15.23h10.88v3.88Z"/><path class="b" d="M277.26,427.9c0,3.66-.91,6.48-2.72,8.45-1.82,1.97-4.42,2.95-7.81,2.95s-5.99-.98-7.81-2.95c-1.82-1.97-2.72-4.79-2.72-8.48s.91-6.5,2.73-8.44c1.82-1.94,4.43-2.91,7.83-2.91s6,.98,7.8,2.94c1.8,1.96,2.7,4.77,2.7,8.45Zm-16.15,0c0,2.47,.47,4.33,1.41,5.59,.94,1.25,2.34,1.88,4.21,1.88,3.74,0,5.62-2.49,5.62-7.46s-1.86-7.48-5.58-7.48c-1.87,0-3.28,.63-4.22,1.88-.95,1.26-1.42,3.12-1.42,5.59Z"/><path class="b" d="M306.51,439h-5.34l-3-11.62c-.11-.41-.3-1.27-.57-2.57s-.42-2.17-.46-2.61c-.06,.54-.21,1.42-.46,2.63-.24,1.21-.43,2.07-.56,2.58l-2.98,11.59h-5.33l-5.65-22.13h4.62l2.83,12.08c.49,2.23,.85,4.16,1.07,5.8,.06-.57,.2-1.46,.42-2.67,.22-1.21,.42-2.14,.61-2.81l3.22-12.4h4.44l3.22,12.4c.14,.55,.32,1.4,.53,2.54,.21,1.14,.37,2.12,.48,2.94,.1-.79,.26-1.77,.48-2.94,.22-1.18,.42-2.13,.61-2.85l2.81-12.08h4.62l-5.63,22.13Z"/><path class="b" d="M330.77,439h-12.75v-22.13h12.75v3.84h-8.05v4.86h7.49v3.84h-7.49v5.71h8.05v3.88Z"/><path class="b" d="M362.26,416.87h4.74l-7.52,22.13h-5.12l-7.51-22.13h4.74l4.16,13.17c.23,.78,.47,1.68,.72,2.72,.25,1.04,.4,1.75,.46,2.16,.11-.93,.49-2.55,1.14-4.87l4.19-13.17Z"/><path class="b" d="M386.81,439h-15.47v-3.25l5.56-5.62c1.64-1.69,2.72-2.85,3.22-3.5,.5-.65,.87-1.25,1.09-1.81,.22-.55,.33-1.13,.33-1.72,0-.89-.25-1.55-.73-1.98s-1.14-.65-1.96-.65c-.86,0-1.69,.2-2.5,.59-.81,.39-1.65,.95-2.53,1.68l-2.54-3.01c1.09-.93,1.99-1.58,2.71-1.97,.72-.38,1.5-.68,2.35-.89,.85-.21,1.8-.31,2.85-.31,1.38,0,2.6,.25,3.66,.76,1.06,.5,1.88,1.21,2.47,2.12,.58,.91,.88,1.95,.88,3.12,0,1.02-.18,1.97-.54,2.87-.36,.89-.91,1.81-1.67,2.75s-2.08,2.28-3.97,4.01l-2.85,2.68v.21h9.64v3.94Z"/></g><g><path class="b" d="M229.14,67.53c.03-.11,.05-.22,.08-.32-.03,.11-.05,.21-.08,.32Z"/><path class="b" d="M229.61,66.19c.04-.09,.08-.18,.13-.27-.05,.09-.08,.18-.13,.27Z"/><path class="b" d="M229.34,66.86c.04-.1,.07-.21,.11-.31-.04,.1-.07,.21-.11,.31Z"/><path class="b" d="M229.32,71.6c-.04-.11-.08-.21-.11-.32,.03,.11,.07,.21,.11,.32Z"/><path class="b" d="M417.62,274.61h-13.06l-3.34,9.48h-5.89l12.78-34.29h6.07l8.53,22.88,13.55-9.34v-13.4h6.77l3.78,6.12,42.85-29.55-31.04-45.01h-.9l-99.24,68.44h.31l9.48,27.17h.14l9.76-27.17h7.9v34.15h-5.37v-16.89c0-1.7,.04-3.91,.13-6.63,.08-2.73,.16-4.38,.22-4.95h-.19l-10.25,28.47h-4.93l-9.9-28.52h-.19c.26,4.24,.4,8.21,.4,11.91v16.61h-5.07v-28.94l-14.14,9.75c-1.1,1.72-2.83,3.08-5.25,4.07l9.65,15.11h-6.35l-8.18-13.64h-5.51v13.64h-5.58v-34.15h9.65c2.17,0,4.07,.2,5.68,.6l7.34-68.91c-16.66-3.53-28.23-17.41-28.23-34.23v-.25c0-19.14,15.12-34.74,35.67-35.33l3.77-35.4h-1.97v-16.03h3.68l3.21-30.09-15.81-22.93h-35.18L172.92,97.33l31,44.95-37.21,25.66-.35,.95,86.27-59.5h-25.02v-17.11h49.83l14.45-9.96-1.06,9.96h9.15v14.83l-12.25,14.25-4.53,42.52h16.78v17.11h-18.6l-8.16,76.57c.63-1.36,1.42-2.58,2.38-3.63,2.78-3.02,6.75-4.53,11.9-4.53s9,1.53,11.77,4.6c2.77,3.07,4.16,7.39,4.16,12.96s-1.39,9.88-4.17,12.96c-2.78,3.08-6.72,4.62-11.81,4.62s-9.11-1.53-11.88-4.59c-2-2.22-3.27-5.12-3.82-8.68l-5.45,51.16,13.58,19.7h42.11l96.08-66.26-.46-1.27ZM242.45,74.9s-.03,.02-.04,.04l-.2,.2c-3.4,3.21-8.71,3.21-12.12,0-3.24-3.16-3.31-8.35-.16-11.59l.16-.16c1.61-1.59,3.79-2.45,6.05-2.41v-.04c2.27-.06,4.46,.81,6.07,2.41,3.26,3.13,3.37,8.3,.24,11.56Zm13.57-6.33c-1.16,.86-2.58,1.27-4.02,1.17h-3.09v7.52h-1.24l.07-16.13h4.45c1.4-.09,2.78,.32,3.91,1.15,.11,.1,.22,.21,.32,.33,1.53,1.76,1.35,4.43-.41,5.96Zm12.84,8.73h-9v-16.16h8.81v1.04h-7.57v6.46h7.37v1.05h-7.37v6.56h7.76v1.04Zm17.12,0h-1.03l-12.27-14.14v14.14h-1.25v-16.16h1.06l12.24,14.12v-14.12h1.25v16.16Zm52.59-16.9h4.82v16.03h-4.82v-16.03Zm-14.55,0h5.41l7,16.03h-4.94l-1.32-3.25h-6.96l-1.33,3.25h-4.94l7.09-16.03Zm-18.43,12.12h-.39l-4.37-5.38v9.29h-4.69v-16.03h4.38l4.93,6.01,4.94-6.01h4.39v16.03h-4.84v-9.29l-4.35,5.38Z"/><path class="b" d="M229.12,70.91c-.02-.1-.05-.2-.07-.3,.02,.1,.05,.2,.07,.3Z"/><path class="b" d="M228.93,69.57c0-.11-.01-.22-.01-.33,0,.11,.01,.22,.01,.33Z"/><path class="b" d="M229,68.19c.02-.1,.03-.21,.05-.31-.02,.1-.03,.21-.05,.31Z"/><path class="b" d="M254.83,68c.09-.05,.18-.09,.26-.15,.66-.61,1.01-1.44,1.04-2.27-.03,.84-.38,1.66-1.04,2.27-.08,.06-.17,.1-.26,.15Z"/><path class="b" d="M255.1,63.07c.06,.04,.12,.1,.16,.16,.61,.66,.9,1.51,.87,2.35,.03-.84-.25-1.68-.87-2.35-.04-.06-.1-.12-.16-.16Z"/><polygon class="b" points="326.71 64.59 326.71 64.59 329.06 70.39 326.71 64.59"/><path class="b" d="M231.02,64.19c-.08,.08-.15,.17-.23,.26,.08-.09,.15-.18,.24-.26h0Z"/><path class="b" d="M230.33,65c.07-.09,.13-.18,.2-.27-.07,.09-.13,.18-.2,.27Z"/><path class="b" d="M229.94,65.58c.05-.09,.1-.18,.16-.27-.06,.09-.11,.18-.16,.27Z"/><path class="b" d="M231.02,74.33l-.02-.02,.02,.02c2.85,2.74,7.36,2.74,10.22,0,.52-.53,.94-1.12,1.26-1.74-.32,.62-.74,1.21-1.26,1.74-2.85,2.74-7.36,2.74-10.22,0Z"/><path class="b" d="M228.93,68.89c0-.11,0-.22,.02-.33-.01,.11-.01,.22-.02,.33Z"/><path class="b" d="M440.88,256.88l.12,1.52c.04,.54,.07,1.07,.11,1.6l1.32-.91-1.36-2.2h-.19Z"/><path class="b" d="M411.97,257.56c-.41-1.34-.7-2.32-.85-2.94-.42,1.92-1.04,4.01-1.85,6.28l-3.08,8.9h9.95l-3.2-9.3c-.23-.62-.56-1.6-.97-2.94Z"/><path class="b" d="M324.82,254.66h-3.69v11.17h3.88c1.77,0,3.21-.23,4.32-.68l1-9.34c-1.26-.76-3.09-1.14-5.5-1.14Z"/><path class="b" d="M75.08,7.38c-34.98,0-63.35,28.36-63.35,63.35v40.84L162.81,7.38H75.08Z"/><polygon class="b" points="11.74 323.7 11.74 342.14 153.91 342.14 11.74 135.98 11.74 323.7"/><path class="b" d="M229.58,72.25c-.05-.11-.1-.21-.15-.32,.04,.11,.1,.21,.15,.32Z"/><path class="b" d="M343.87,128.61c-1.68,.23-3.24,.65-4.66,1.28,1.42-.62,2.99-1.04,4.66-1.28h0Z"/><path class="b" d="M503.64,62.92h0c1.28,1.22,2.01,2.79,2.2,4.41l4.54,6.58v-12.96h1.11v14.5s0,.05,0,.08l25.33,36.73c18.47,2.88,27,18.97,27,36.42,0,.81-.04,1.68-.09,2.59l48,69.6V70.72c0-34.98-28.36-63.35-63.35-63.35h-83.89l37.48,54.35c.59,.32,1.15,.71,1.66,1.19Zm39.31-1.97h11.99v.93h-5.42v13.54h-1.13v-13.54h-5.44v-.93Zm-12.89,2.08h0s.07-.07,.1-.11c1.43-1.39,3.36-2.16,5.35-2.13,1.74,.03,3.46,.44,5.03,1.19h0l.06,.03s-.04-.02-.06-.03v1.21c-1.58-.9-3.35-1.4-5.16-1.45-1.69-.04-3.31,.63-4.49,1.84-1.21,1.21-1.87,2.87-1.81,4.58-.07,1.72,.59,3.39,1.81,4.61,1.24,1.2,2.92,1.85,4.65,1.79,1.81-.05,3.58-.55,5.14-1.45v1.16c-1.57,.87-3.32,1.33-5.12,1.35-2.05,.07-4.03-.7-5.51-2.12-2.89-2.89-2.89-7.58,0-10.47Zm-13.62-2.08h7.89v.93h-6.77v5.78h6.59v.94h-6.59v5.87h6.92v.94h-8.04v-14.46Z"/><path class="b" d="M230.76,74.04c-.08-.09-.17-.18-.25-.28,.08,.1,.17,.19,.25,.28Z"/><path class="b" d="M230.3,73.47c-.07-.1-.15-.19-.21-.29,.07,.1,.14,.19,.21,.29Z"/><path class="b" d="M229.9,72.85c-.05-.09-.12-.19-.17-.28,.05,.1,.11,.19,.17,.28Z"/><path class="b" d="M243.02,71.29c-.13,.44-.3,.88-.52,1.29,.22-.42,.39-.85,.52-1.29Z"/><path class="b" d="M287.45,279.79c3.32,0,5.82-1.08,7.51-3.22,1.69-2.15,2.53-5.35,2.53-9.6s-.84-7.37-2.51-9.53c-1.67-2.16-4.17-3.25-7.49-3.25s-5.88,1.08-7.58,3.25c-1.71,2.17-2.56,5.34-2.56,9.53s.85,7.39,2.55,9.57c1.7,2.17,4.21,3.26,7.54,3.26Z"/><path class="b" d="M243.31,69.26c0,.46-.04,.92-.13,1.37,.09-.45,.13-.91,.13-1.37Z"/><path class="b" d="M228.99,70.25c-.01-.11-.03-.21-.04-.32,.01,.11,.03,.21,.04,.32Z"/><polygon class="b" points="462.53 342.14 611.74 342.14 611.74 239.24 462.53 342.14"/><polygon class="c" points="291.89 82.32 277.44 92.28 290.83 92.28 291.89 82.32"/><polygon class="b" points="83.7 115.07 91.46 126.32 122.56 104.87 116.22 164.36 122.94 174.12 171.55 140.6 163.79 129.34 131.69 151.48 138.03 91.99 131.3 82.23 83.7 115.07"/><path class="b" d="M329,146.9v.25c0,4.49,1.46,8.71,4.02,12.02,1.82,2.35,4.2,4.22,7.02,5.39l3.83-35.96c-1.68,.23-3.24,.65-4.66,1.28"/><path class="b" d="M255.1,63.07c-.41-.32-.88-.55-1.37-.7s-1.01-.21-1.53-.18h-3.21v6.52h3.02c.27,.02,.55,.01,.81-.02s.53-.08,.79-.15c.42-.12,.83-.31,1.21-.54,.09-.05,.18-.09,.26-.15,.66-.61,1.01-1.44,1.04-2.27,.03-.84-.25-1.68-.87-2.35-.04-.06-.1-.12-.16-.16Z"/><polygon class="b" points="329.06 70.39 326.71 64.59 324.34 70.39 329.06 70.39"/><path class="b" d="M241.24,64.18c-2.85-2.74-7.36-2.74-10.22,0h0c-.08,.08-.16,.17-.24,.26-.09,.09-.18,.19-.26,.28-.07,.09-.13,.18-.2,.27-.08,.1-.16,.21-.23,.31-.06,.09-.11,.18-.16,.27-.07,.11-.14,.22-.2,.34-.05,.09-.08,.18-.13,.27-.06,.12-.12,.24-.17,.36-.04,.1-.07,.21-.11,.31-.04,.12-.09,.23-.12,.35-.03,.11-.05,.21-.08,.32-.03,.12-.06,.23-.09,.35-.02,.1-.03,.21-.05,.31-.02,.12-.04,.24-.05,.37-.01,.11-.01,.22-.02,.33,0,.12-.02,.23-.02,.35,0,.11,.01,.22,.01,.33,0,.12,0,.24,.02,.36,.01,.11,.03,.21,.04,.32,.02,.12,.03,.24,.05,.36,.02,.1,.05,.2,.07,.3,.03,.12,.05,.25,.09,.37,.03,.11,.07,.21,.11,.32,.04,.11,.07,.23,.12,.34,.04,.11,.1,.21,.15,.32,.05,.11,.09,.21,.15,.32,.05,.1,.11,.19,.17,.28,.06,.11,.12,.22,.19,.33,.07,.1,.14,.19,.21,.29,.07,.1,.14,.19,.21,.29,.08,.1,.17,.19,.25,.28,.08,.09,.16,.18,.24,.27l.02,.02c2.85,2.74,7.36,2.74,10.22,0,.52-.53,.94-1.12,1.26-1.74,.22-.42,.39-.85,.52-1.29,.06-.22,.12-.45,.16-.67,.09-.45,.13-.91,.13-1.37,0-.23-.01-.46-.03-.69-.06-.68-.23-1.36-.49-2.01-.17-.43-.39-.85-.65-1.25-.26-.4-.56-.78-.91-1.13Z"/><g class="d"><path class="b" d="M332.41,260.08c0-1.93-.63-3.32-1.89-4.16-.06-.04-.14-.08-.2-.12l-1,9.34c.52-.21,.97-.46,1.34-.77,1.17-.97,1.75-2.4,1.75-4.3Z"/><path class="b" d="M611.74,220.87l-48-69.6c-.05,.81-.11,1.64-.16,2.48h-47.27c1.9,8.74,7.98,13.31,16.6,13.31,6.46,0,11.15-2.03,16.47-6.97l11.03,9.76c-6.34,7.86-15.46,12.67-27.75,12.67-20.4,0-35.48-14.32-35.48-35.1v-.25c0-19.39,13.81-35.36,33.58-35.36,2.14,0,4.16,.16,6.08,.46l-25.33-36.73c.1,1.14-.22,2.27-.9,3.19-.55,.59-1.33,.92-2.13,.92-.22,0-.44,0-.67,0l-.1-1.05c.21,.05,.43,.07,.65,.07,1.36,0,2.03-.96,2.03-2.9v-1.86l-4.54-6.58c.24,2.06-.4,4.22-1.95,5.84-.03,.03-.06,.06-.08,.09l-.18,.18c-3.05,2.88-7.81,2.88-10.86,0-2.9-2.82-2.97-7.46-.15-10.37h0l.14-.15c2.54-2.39,6.26-2.79,9.2-1.19L464.5,7.38h-125.97l15.81,22.93-3.21,30.09h.61l8.29,8.88v-8.88h4.81v16.03h-4.29l-8.32-8.93v8.93h-2.81l-3.77,35.4c.4-.01,.8-.03,1.21-.03,21.04,0,36.62,15.59,36.62,35.1v.25c0,19.52-15.71,35.36-36.88,35.36-2.91,0-5.72-.31-8.39-.88l-7.34,68.91c1.66,.41,3.03,1.04,4.1,1.87,2.12,1.65,3.18,4.14,3.18,7.47,0,1.93-.48,3.59-1.39,5.01l14.14-9.75v-5.22h7.56l99.24-68.44h-4.39l-13.05-41.69-13.31,41.69h-17.23l-20.91-68.43h19.52l10.9,41.19,12.8-41.44h16.6l12.93,41.57,11.15-41.31h19.14l-21.16,68.43h-12.07l31.04,45.01-42.85,29.55,12.96,20.96h.14c-.03-.36-.09-1.66-.19-3.91s-.14-4.01-.14-5.27v-17.89h5.12v34.15h-6.84l-15.43-25.01-1.32,.91c.14,2.28,.22,4.4,.22,6.34v17.75h-5.07v-20.75l-13.55,9.34,4.25,11.41h-5.93l-2.95-8.21-96.08,66.26h140.54l149.21-102.9v-18.37ZM380.36,63.62h-6.65v3.1h6.65v3.22h-6.65v6.49h-4.83v-16.03h11.48v3.22Zm13.58,12.81l-1.26-2.9c-.34-.8-.75-1.57-1.25-2.28-.27-.4-.65-.72-1.08-.93-.44-.15-.9-.22-1.36-.2h-.54v6.26h-4.84v-15.99h8.22c1.14-.05,2.27,.23,3.26,.81,.79,.47,1.42,1.14,1.84,1.96,.35,.68,.54,1.44,.55,2.2,.03,.71-.13,1.42-.46,2.06-.24,.47-.58,.88-.99,1.22-.38,.27-.77,.51-1.17,.73,.49,.27,.92,.64,1.28,1.07,.56,.77,1.04,1.6,1.42,2.48l1.58,3.51h-5.19Zm20.03,0l-1.3-3.25h-6.96l-1.33,3.25h-4.96l7.09-16.03h5.35l7.06,16.03h-4.94Zm25.71,0h-4.82v-9.29l-4.37,5.38h-.37l-4.38-5.38v9.29h-4.69v-16.03h4.4l4.91,6.01,4.96-6.01h4.38v16.03Zm16.13,0h-12.09v-16.03h11.88v3.22h-7.04v2.93h6.73v3.23h-6.73v3.42h7.25v3.23Zm16.78-8.83c-1.04,.77-2.32,1.14-3.61,1.04h-2.75v6.77h-1.11v-14.47h3.99c1.25-.09,2.49,.28,3.49,1.03,.83,.69,1.28,1.73,1.22,2.8,.05,1.08-.4,2.12-1.22,2.83Zm14.66,7.81l-2.52-3.94c-.51-.93-1.17-1.77-1.96-2.48-.62-.36-1.34-.54-2.06-.49h-2v6.94h-1.11l.04-14.5h3.7c1.27-.09,2.53,.27,3.57,1.02,.82,.66,1.27,1.67,1.23,2.72,0,1.67-1.13,3.12-2.75,3.51,.8,.59,1.46,1.35,1.93,2.22l3.27,5h-1.34Zm13.09,179.31h-10.04v29.36h-5.58v-29.36h-10.04v-4.79h25.67v4.79Z"/><path class="b" d="M271.75,271.29c-.21-1.36-.33-2.81-.33-4.36,0-3.68,.6-6.79,1.79-9.36l8.16-76.57h-55.28v-14.83l48.79-56.78h-22.25l-86.27,59.5,.35-.95-53.7,37.03L50.32,114.07l90.91-62.69,31.69,45.95L303.35,7.38H162.81L11.74,111.57v24.42l142.17,206.16h125.97l-13.58-19.7,5.45-51.16Zm-141.83,5.28c1.77,2.15,4.33,3.22,7.67,3.22,1.45,0,2.85-.14,4.2-.43,1.36-.29,2.76-.66,4.23-1.11v4.79c-2.68,1.01-5.72,1.52-9.11,1.52-5,0-8.84-1.51-11.52-4.54-2.68-3.03-4.02-7.36-4.02-13,0-3.55,.65-6.66,1.95-9.32,1.3-2.66,3.18-4.7,5.64-6.12s5.35-2.13,8.67-2.13c3.49,0,6.71,.73,9.67,2.2l-2.01,4.65c-1.15-.54-2.37-1.02-3.66-1.44-1.29-.41-2.64-.62-4.05-.62-3.21,0-5.73,1.14-7.57,3.41-1.84,2.27-2.76,5.41-2.76,9.41s.88,7.36,2.65,9.51Zm54.4,3.36c-2.78,3.08-6.72,4.62-11.81,4.62s-9.11-1.53-11.88-4.59c-2.76-3.06-4.15-7.41-4.15-13.05s1.39-9.97,4.17-12.99c2.78-3.02,6.75-4.53,11.9-4.53s9,1.53,11.77,4.6c2.77,3.07,4.16,7.39,4.16,12.96s-1.39,9.88-4.17,12.96Zm44.74,4.16h-6.84l-16.79-27.21h-.19l.12,1.52c.22,2.9,.33,5.54,.33,7.94v17.75h-5.07v-34.15h6.77l16.75,27.07h.14c-.03-.36-.09-1.66-.19-3.91s-.14-4.01-.14-5.27v-17.89h5.12v34.15Zm33.07-29.43h-13.73v10.67h12.87v4.74h-12.87v14.02h-5.54v-34.15h19.27v4.72Z"/><polygon class="b" points="283.2 163.89 287.73 121.36 251.19 163.89 283.2 163.89"/><path class="b" d="M172.56,254.19c-3.35,0-5.88,1.08-7.58,3.25-1.71,2.17-2.56,5.34-2.56,9.53s.85,7.39,2.55,9.57c1.7,2.17,4.21,3.26,7.54,3.26s5.82-1.08,7.51-3.22c1.69-2.15,2.53-5.35,2.53-9.6s-.84-7.37-2.51-9.53c-1.67-2.16-4.17-3.25-7.49-3.25Z"/><polygon class="b" points="406.84 70.39 411.55 70.39 409.2 64.59 406.84 70.39"/></g><polygon class="b" points="231.02 64.18 231.02 64.18 231.02 64.18 231.02 64.18"/><polygon class="b" points="458.32 181.08 457.71 181.5 458.62 181.5 458.32 181.08"/><polygon class="b" points="154.11 110.59 154.11 110.59 154.1 110.59 154.11 110.59"/></g><path class="b" d="M339.21,129.88c-6.5,2.86-10.21,9.51-10.21,17.02"/><path class="c" d="M340.04,164.57c2.06,.86,4.35,1.35,6.83,1.35,11.03,0,17.61-8.49,17.61-18.5v-.25c0-3.41-.86-6.67-2.38-9.49-.43-.8-.91-1.58-1.45-2.3-1.88-2.52-4.41-4.5-7.41-5.7-.75-.3-1.52-.55-2.33-.75-1.36-.33-2.79-.52-4.3-.52-.95,0-1.86,.08-2.74,.21l-3.83,35.96Z"/><path class="c" d="M530.75,127.26c-1.5,0-2.9,.2-4.19,.58-.86,.26-1.68,.59-2.45,1.01s-1.49,.9-2.16,1.46c-1.34,1.12-2.49,2.52-3.42,4.17-1.17,2.06-2,4.49-2.48,7.23h29.02c-1.14-8.62-6.21-14.45-14.32-14.45Z"/><path class="c" d="M391.82,63.92c-.18-.09-.37-.16-.57-.23-.19-.06-.39-.11-.59-.15-.4-.08-.8-.1-1.21-.07h-1.01v3.87h1.03c.62,.04,1.25-.02,1.84-.19,.2-.06,.4-.12,.59-.2,.46-.34,.7-.88,.65-1.45v-.05c.05-.46-.1-.91-.4-1.24-.1-.11-.21-.21-.34-.29Z"/><path class="c" d="M472.6,64.35c-.02-.15-.06-.29-.11-.43-.01-.04-.01-.07-.03-.11-.05-.14-.12-.27-.19-.41-.02-.04-.03-.07-.05-.11-.08-.13-.18-.26-.28-.38-.03-.03-.04-.07-.07-.1h0s-.02-.02-.03-.04l-.14-.16c-.76-.56-1.7-.84-2.64-.78l-2.83,.04v5.8h2.68c.37,.03,.74,0,1.11-.08,.59-.11,1.15-.34,1.65-.69,.1-.09,.17-.18,.25-.28,.05-.05,.1-.1,.14-.16,.08-.11,.15-.24,.21-.36,.02-.04,.06-.08,.08-.13,.06-.13,.1-.27,.14-.41,.01-.04,.03-.08,.04-.12,.03-.13,.04-.26,.06-.4,0-.05,.02-.1,.02-.15,0-.14,0-.28-.02-.42,0-.05,0-.09,0-.14Z"/><path class="c" d="M483.96,66.8c1.15-.97,1.29-2.69,.32-3.84l-.33-.33c-.84-.55-1.83-.81-2.83-.75h-2.36v5.67h2.39c.99,.06,1.98-.2,2.81-.74Z"/><path class="c" d="M493.63,63.65c-.06,.06-.12,.13-.18,.2-.09,.1-.18,.19-.26,.29-.03,.04-.05,.08-.08,.11-.1,.13-.21,.27-.3,.4-.32,.49-.57,1.01-.74,1.55-.02,.05-.04,.1-.05,.15-.03,.09-.04,.18-.07,.27-.03,.11-.06,.22-.08,.33-.01,.07-.02,.15-.03,.22-.02,.13-.04,.26-.06,.39,0,.09,0,.18-.01,.28,0,.11-.02,.23-.02,.34s.01,.22,.02,.32c0,.1,0,.19,.01,.29,.01,.12,.03,.24,.05,.36,.01,.08,.02,.17,.04,.25,.03,.14,.06,.27,.1,.41,.02,.06,.03,.13,.05,.19,.02,.08,.06,.17,.09,.25,.04,.11,.07,.23,.12,.34,0,.01,.01,.03,.02,.04,.15,.37,.34,.73,.57,1.07,.09,.14,.19,.27,.3,.4,.03,.04,.05,.08,.08,.11,.08,.1,.17,.19,.26,.29,.06,.07,.11,.13,.18,.2h0c.3,.3,.63,.57,.98,.81,.18,.12,.36,.22,.54,.32,.56,.29,1.16,.5,1.78,.61,.21,.04,.42,.07,.63,.08,.21,.02,.43,.02,.64,.02h0c.64,.03,1.27-.05,1.88-.23,.4-.12,.79-.27,1.16-.47,.37-.2,.72-.43,1.05-.7,.16-.13,.32-.28,.47-.43,.31-.31,.58-.65,.81-1.01,.12-.18,.22-.36,.32-.55,.29-.56,.49-1.15,.61-1.76,.08-.4,.12-.81,.12-1.22s-.04-.82-.12-1.22c-.23-1.21-.81-2.37-1.74-3.31-2.55-2.47-6.6-2.47-9.14,0Z"/></svg>