<?xml version="1.0" encoding="UTF-8"?>
<svg xmlns="http://www.w3.org/2000/svg" version="1.1" viewBox="0 0 275 300.0024">
  <defs>
    <style>
      .cls-1 {
        fill: #0033a1;
      }

      .cls-2 {
        fill: #2a7de1;
      }
    </style>
  </defs>
  <!-- Generator: Adobe Illustrator 28.7.0, SVG Export Plug-In . SVG Version: 1.2.0 Build 136)  -->
  <g>
    <g id="Layer_1">
      <title>OMP-feilong</title>
      <g>
        <path class="cls-2" d="M242.3241579,161.2233517c4.600021,1.6429987,10.1329098,11.5002401,10.1329098,11.5002401,4.8758145-30.2289238-18.0188031-47.6181818-18.0188031-47.6181818,9.5287668.6822261,17.414535,12.2112469,17.414535,12.2112469,0,0,3.8923928-26.8883683-16.8657008-33.9158479-20.7580936-7.0274796-41.4016904,19.5435509-41.4016904,19.5435509,5.209795,2.3167158,9.7735273,9.2746213,9.7735273,9.2746213,25.6869646-5.1567385,5.5232536,37.2373832,18.8125229,58.0287622,20.5473693,29.3942855,48.7387495,8.9052282,48.7387495,8.9052282-29.9003241.8006021-28.5860502-37.9296199-28.5860502-37.9296199Z"/>
        <path class="cls-1" d="M73.1873892,113.5486096c-2.8081138-2.6528235-4.487276-5.511366-5.4706977-7.8183213-7.5602967-.0062567-24.7897597-.9475085-39.9279969-8.3734121-1.1021731-.5413262-2.1873281-1.1231955-3.2628478-1.7348465-1.0852801-.6179077-2.1480362-1.2778601-3.1960267-1.9723492-.9154744-.6071462-1.8096761-1.2485789-2.6902383-1.9177912-1.1687439,5.4798324-3.7930371,18.752459-4.1962162,29.1152385l.0486768.1093664c.0126385,1.3769656.0590629,2.7334093.1293877,4.0760883.63893.1876998,1.2771093.3696434,1.9146628.5320663,1.1084297.2833015,2.2112285.5238075,3.3091471.7345318,24.4580316,4.6954976,46.1598797-7.919429,53.3421491-12.7505709Z"/>
        <path class="cls-1" d="M82.4093294,202.9027126l-10.3705378-.2662834h.0007508c.4512303-.8111133,1.0065713-1.8379562,1.6208501-3.0132071,3.08641-5.9042842,7.8099374-15.9649922,10.00152-25.9356043.2557722-1.1637386,1.2644708-1.9976261,2.4558639-1.9861139,1.247703.0130139,2.2984463.9332433,2.4496072,2.1718115.6080221,4.9637831,1.6623943,17.6700569-1.4521706,29.1510266l11.0650269.2855539c13.4561969-38.1018032,9.3934979-71.3932365,7.5975864-81.6969532l-9.0132181-.0905964c-1.6876713-.0167678-3.2769878-.1088659-4.7839668-.2600268-1.8851314,11.3916245-10.6298137,47.7448166-46.9168104,69.7707597.5221808.4870184.8132406.7372847.8132406.7372847l-.1876998,18.7181725,18.596543-1.1492232,3.1313328-.1934559-.5833709,8.9320067-.0217732.3493718c5.1592412,16.8504346,16.1061424,43.9893195,37.1029901,64.4658635,1.2152935,1.1865129,3.1223232,1.3356716,4.5358277.3956711l4.4823958-2.9816735c1.7382251-1.1569814,2.145909-3.5447728.8694254-5.1980325-7.0810366-9.1732635-27.5127829-38.2336936-31.3934132-72.206352Z"/>
        <path class="cls-1" d="M217.6077262,239.0662028c-11.4262864-1.1642391-21.3026732,4.8301409-26.0303301,8.3931832,6.3556395,2.7476745,11.2801309,3.5940753,11.2801309,3.5940753l-2.2689149,40.5076138c-.0956018,1.716577,1.2602163,3.1658696,2.9787954,3.1828877l8.6935028.0870927c1.5378868.0147657,2.8410238-1.1297024,3.0230926-2.6578288l5.0018236-42.0337381c.4561105-3.8285749-.4562356-7.6966919-2.5761169-10.9181206l-.1019835-.1551651Z"/>
        <path class="cls-1" d="M45.3941828,239.9546484c5.779151-.9377481,14.078234-2.3174666,20.2300316-3.3445597l1.1696199-17.9080602-21.1684053-1.7919072-.2312461,23.0445272Z"/>
        <path class="cls-1" d="M211.0581303,229.1066024l-4.6383117-7.0490025c-.7521756-1.1437173-1.4051205-2.3407413-1.9583343-3.5785588-14.5991634-1.379218-26.2833494,8.3721608-31.2057134,13.3354434-.4196967.4214486-.8054823.8208737-1.1246971,1.1637386-.3212169-.4109374-.6297953-.8403945-.9383737-1.2698516-.1292626-.1801918-.2635305-.3516242-.3900401-.534569-.2234879-.3223431-.4350881-.6612037-.6509428-.9935575-.2256151-.3481205-.4526067-.6937384-.6690871-1.0531209-.0668211-.1096167-.1286369-.2247392-.1939564-.3366083.3653889-.6066457.7512996-1.1624873,1.1294521-1.7383502,10.4303514-15.8571273,25.9290973-19.9657503,31.9129662-20.9540522l1.953329-33.377525c-24.5725285,6.8793219-38.4828337,28.6730178-40.3722197,31.864915-.1519117.2552717-.2368771.4069331-.2368771.4069331l-5.0960489-.1313898c.4323352-1.532381.9488849-2.988681,1.4669363-4.442228,9.2255691-25.9143316,31.13201-39.5393332,41.7021352-44.780912,1.3010097-.6451867,2.4685023-1.1912679,3.3788462-1.5911936-1.8688641-14.1075152-13.1083267-23.286785-13.1083267-23.286785-1.4043697-1.162237-2.8840696-2.2346284-4.4528644-3.1821369-23.9891576,20.1827313-34.5965725,57.2269088-37.739918,73.5144943-.2530193,1.3128974-.4638687,2.5064177-.6241643,3.5292563l-5.9029077-.1519117c-.0196459-.990304-.0118877-1.9703471-.0035037-2.9493891.318464-38.0442419,21.0833148-67.1672387,30.7643687-78.8098804-1.7172027-.2617786-3.4589315-.4494784-5.2485863-.466997l-20.4760434-.2052184c-4.908224,8.6036572-7.2320724,20.9813312-8.1050015,26.8976282-.2889325,1.9535793-1.9084062,3.3745917-3.7970413,3.3550709-1.5049768-.0147657-2.8910771-.9304904-3.4666897-2.385539-3.7746425-9.5356492-5.8706233-21.3427159-6.8434087-28.0906479l-13.7802919-.1383973c10.7247898,37.6180383,4.8549173,68.5554662,1.0901603,82.0243016l18.0201796.463243c-.2706631,7.0169684,1.0198354,32.1454636,31.7266429,45.1372913l-.3528756,35.2009657c-.0176438,1.7158262,1.3600726,3.1213221,3.0765245,3.1390911l3.4400364.0342865c1.5913187.0155165,2.9373764-1.1717471,3.1194451-2.75293l5.2935091-46.034246c2.9022139,2.5254379,5.9724817,4.5646083,8.940766,6.1883365,8.4741444-11.7945534,18.3786861-15.1291025,24.3609283-15.9699975Z"/>
        <path class="cls-1" d="M85.2483511,120.0475267c-2.7160158-.7365339-5.0377369-1.712823-7.0346122-2.8297618-18.1395566,22.0842551-49.9499136,24.7138038-61.1181754,24.9247784,3.650135,15.2161952,10.5195714,27.3411002,16.6340793,35.7948478,11.8240848-5.9415738,44.1803979-24.9633194,51.5187083-57.8898644Z"/>
        <path class="cls-1" d="M44.8908971,290.1390616c-.0161422,1.6647719,1.3192792,3.0267215,2.98305,3.0437396l11.1957911.1116188c1.5997026.0162673,2.9331218-1.2202988,3.0371075-2.8169982l2.6436888-40.4895946-19.4371877-1.9315558-.4224496,42.0827903Z"/>
        <path class="cls-1" d="M40.2271834,65.9542031c-.8174951-1.0726417-1.6097133-2.1818222-2.3652674-3.3388036-.7661905-1.1717471-1.5013479-2.3827861-2.1915826-3.6428773-.3887888-.7092549-.7366591-1.4608048-1.0979186-2.1988403-4.7966052,7.6656589-8.6049085,15.0863069-11.5436614,22.2346652.7864621.6354263,1.7051899,1.3494363,2.7475493,2.1222588.9249845.6844785,1.9604616,1.414005,3.075148,2.1698094.9735362.6592016,2.0096389,1.3339197,3.1194451,2.0226528,8.3188541,5.1657481,20.3805668,10.8210172,34.7013089,12.2360233.5538395-3.3901082,1.8619818-6.5191886,3.7738917-9.2050473-7.6679113-3.1786331-20.7853727-10.0289242-30.2189131-22.399841Z"/>
        <path class="cls-1" d="M125.3063614,56.5579523c-1.7762655-4.0663279-9.3548317-6.8793219-9.3563333-6.8798225-3.6507606-1.5233714-6.8988427-2.3044527-6.8988427-2.3044527-8.3575202-1.7583715-12.6423307-8.1724482-14.5682556-12.2430307-1.0058205-2.1240107-3.1138142-3.490465-5.4635651-3.5142403l-13.8378532-.1391481-7.0304828-.0705751c-2.2467663-18.233907-15.8108281-22.1530784-15.8108281-22.1530784-8.2007283,10.9018533-2.1710607,25.7704285-2.1710607,25.7706787l-7.2482146,9.7398665c.183195.4612409.3871621.9552667.6062703,1.4718165.482889,1.1342072,1.0705144,2.408063,1.7488614,3.7750179.569356,1.1467205,1.197024,2.346998,1.9175409,3.6173501,5.1275825,9.0526351,14.26243,20.7746112,29.5061545,28.7751265,3.6324912-2.3287286,7.966479-3.6593948,12.574008-3.6128453l16.9517924.1699309c1.0254664.0107615,2.025656-.0823376,3.0097033-.2242387.0015016,0,.0028781-.0007508.0042545-.0007508,4.5997707-.6647075,24.7925126-2.2055975,16.0668506-22.1776045Z"/>
        <path class="cls-2" d="M43.8153774,33.4698788s-4.3068339-10.4198402-.894452-19.1028319c0,0-57.2235302,33.9603953-34.9867377,108.6351245,0,0-.8426469-54.8000758,35.8811897-89.5322926Z"/>
        <path class="cls-2" d="M74.3374883,24.6900341l15.4454392-.1356444s3.4643122-13.8332232,9.3495761-18.6163141c0,0-24.1000256-2.8592933-34.9155369,2.4471045,0,0,9.5415304,7.2359515,10.1205217,16.3048539Z"/>
      </g>
    </g>
  </g>
</svg>