<?xml version="1.0" encoding="UTF-8" standalone="no"?>
<svg
   xmlns:dc="http://purl.org/dc/elements/1.1/"
   xmlns:cc="http://creativecommons.org/ns#"
   xmlns:rdf="http://www.w3.org/1999/02/22-rdf-syntax-ns#"
   xmlns:svg="http://www.w3.org/2000/svg"
   xmlns="http://www.w3.org/2000/svg"
   xmlns:sodipodi="http://sodipodi.sourceforge.net/DTD/sodipodi-0.dtd"
   xmlns:inkscape="http://www.inkscape.org/namespaces/inkscape"
   inkscape:version="1.0 (4035a4f, 2020-05-01)"
   height="160.575"
   width="394.10001"
   sodipodi:docname="openmainframesummit-white.svg"
   id="svg54"
   version="1.1"
   viewBox="0 0 394.10001 160.57499">
  <metadata
     id="metadata60">
    <rdf:RDF>
      <cc:Work
         rdf:about="">
        <dc:format>image/svg+xml</dc:format>
        <dc:type
           rdf:resource="http://purl.org/dc/dcmitype/StillImage" />
      </cc:Work>
    </rdf:RDF>
  </metadata>
  <defs
     id="defs58" />
  <sodipodi:namedview
     inkscape:current-layer="svg54"
     inkscape:window-maximized="0"
     inkscape:window-y="23"
     inkscape:window-x="0"
     inkscape:cy="80.275"
     inkscape:cx="197.1"
     inkscape:zoom="1.7"
     showgrid="false"
     id="namedview56"
     inkscape:window-height="939"
     inkscape:window-width="1471"
     inkscape:pageshadow="2"
     inkscape:pageopacity="0"
     guidetolerance="10"
     gridtolerance="10"
     objecttolerance="10"
     borderopacity="1"
     bordercolor="#666666"
     pagecolor="#ffffff" />
  <g
     inkscape:export-ydpi="93.5"
     inkscape:export-xdpi="93.5"
     transform="translate(-22.9,-23.025)"
     id="g52"
     fill="#ffffff">
    <path
       id="path10"
       d="m 25.5,86.1 c -0.3,-0.5 -0.6,-1.1 -0.7,-1.8 0.2,0.6 0.4,1.2 0.7,1.8 z" />
    <path
       id="path12"
       d="M 95.7,41.3 65.6,24 c -2.3,-1.3 -5.1,-1.3 -7.3,0 l -30,17.3 C 26,42.6 24.6,45 24.6,47.7 v 34.7 c 0,0.7 0.1,1.3 0.3,1.9 0.2,0.6 0.4,1.2 0.7,1.8 0.6,1.1 1.6,2 2.7,2.7 l 30,17.3 c 1.1,0.6 2.3,1 3.6,1 1.3,0 2.6,-0.3 3.8,-1 l 30,-17.3 c 1.1,-0.7 2.1,-1.6 2.7,-2.7 0.3,-0.5 0.6,-1.1 0.7,-1.8 0.2,-0.6 0.3,-1.3 0.3,-1.9 V 60 47.7 c -0.1,-2.6 -1.5,-5 -3.7,-6.4 z m -6.9,39.1 -13.4,7.8 v -27 l -13,16 h -1.1 l -13,-16 V 88 l -13,-7.5 v -31 L 48,42 l 13.9,17 14,-17 12.9,7.4 z" />
    <path
       id="path14"
       d="m 136.6,29 c 4.4,0 8.1,1.5 11.2,4.4 3.1,3 4.6,6.6 4.6,10.8 0,4.3 -1.5,7.9 -4.6,10.8 -3.1,3 -6.8,4.4 -11.2,4.4 -4.4,0 -8.1,-1.5 -11.2,-4.4 -3,-3 -4.6,-6.6 -4.6,-10.8 0,-4.3 1.5,-7.9 4.6,-10.8 3.1,-2.9 6.8,-4.4 11.2,-4.4 z m 0.1,28.5 c 3.7,0 6.8,-1.3 9.4,-3.8 2.6,-2.5 3.8,-5.6 3.8,-9.3 0,-3.7 -1.3,-6.8 -3.8,-9.4 -2.6,-2.5 -5.7,-3.8 -9.4,-3.8 -3.7,0 -6.9,1.3 -9.5,3.8 -2.6,2.5 -3.9,5.7 -3.9,9.4 0,3.7 1.3,6.8 3.9,9.3 2.6,2.5 5.8,3.8 9.5,3.8 z" />
    <path
       id="path16"
       d="m 158,29.4 h 8.2 c 3.1,0 5.5,0.7 7.2,2.1 1.7,1.4 2.5,3.3 2.5,5.8 0,2.5 -0.8,4.4 -2.5,5.8 -1.7,1.4 -4.2,2.2 -7.4,2.2 h -5.7 V 59.2 H 158 Z m 2.3,1.9 v 12 h 5.5 c 2.5,0 4.4,-0.5 5.7,-1.6 1.3,-1.1 1.9,-2.5 1.9,-4.5 0,-1.8 -0.6,-3.3 -1.9,-4.4 -1.3,-1.1 -3.1,-1.6 -5.4,-1.6 h -5.8 z" />
    <path
       id="path18"
       d="m 196.6,29.4 v 1.9 h -13.9 v 11.9 h 13.6 v 1.9 H 182.7 V 57.2 H 197 v 1.9 H 180.4 V 29.4 Z" />
    <path
       id="path20"
       d="m 228.5,29.4 v 29.8 h -1.9 l -22.7,-26 v 26 h -2.3 V 29.4 h 2 l 22.6,26 v -26 z" />
    <path
       id="path22"
       d="m 156.7,105.2 h -8.9 V 88.1 l -8,9.9 h -0.7 L 131,88.1 v 17.1 h -8.7 V 75.6 h 8.1 l 9.1,11.1 9.1,-11.1 h 8.1 z" />
    <path
       id="path24"
       d="m 196.6,105.2 h -9.1 l -2.4,-6 h -12.8 l -2.5,6 h -9.1 l 13.1,-29.6 h 9.9 z m -13.5,-11.1 -4.3,-10.8 -4.4,10.8 z" />
    <path
       id="path26"
       d="m 209.5,105.2 h -8.9 V 75.6 h 8.9 z" />
    <path
       id="path28"
       d="m 249.1,105.2 h -7.9 L 225.9,88.7 v 16.5 H 217 V 75.6 h 7.9 L 240.2,92 V 75.6 h 8.9 z" />
    <path
       id="path30"
       d="m 277.7,93.2 h -12.3 v 12 h -8.9 V 75.6 h 21.2 v 5.9 h -12.3 v 5.7 h 12.3 z" />
    <path
       id="path32"
       d="m 312.3,105.2 h -9.6 l -2.3,-5.2 c -0.9,-1.9 -1.6,-3.3 -2.3,-4.2 -0.7,-0.9 -1.3,-1.5 -2,-1.7 -0.6,-0.2 -1.5,-0.4 -2.5,-0.4 h -1 v 11.5 h -8.9 V 75.6 h 15.2 c 2.4,0 4.4,0.5 6,1.5 1.6,1 2.7,2.2 3.4,3.6 0.7,1.4 1,2.8 1,4.1 0,1.5 -0.3,2.8 -0.9,3.8 -0.6,1 -1.2,1.8 -1.8,2.2 -0.6,0.5 -1.4,0.9 -2.2,1.3 1,0.6 1.7,1.2 2.4,2 0.6,0.8 1.5,2.3 2.5,4.6 z M 300.2,85 c 0,-1.4 -0.4,-2.3 -1.3,-2.9 -0.9,-0.5 -2.4,-0.8 -4.4,-0.8 h -1.9 v 7.1 h 1.9 c 2.2,0 3.7,-0.2 4.5,-0.7 0.8,-0.5 1.2,-1.4 1.2,-2.7 z" />
    <path
       id="path34"
       d="m 348.8,105.2 h -9.1 l -2.4,-6 h -12.8 l -2.5,6 h -9.1 L 326,75.6 h 9.9 z m -13.6,-11.1 -4.3,-10.8 -4.4,10.8 z" />
    <path
       id="path36"
       d="m 387.1,105.2 h -8.9 V 88.1 l -8,9.9 h -0.7 l -8.1,-9.9 v 17.1 h -8.7 V 75.6 h 8.1 l 9.1,11.1 9.1,-11.1 h 8.1 z" />
    <path
       id="path38"
       d="M 416.9,105.2 H 394.6 V 75.6 h 21.9 v 5.9 h -13 V 87 h 12.4 v 6 h -12.4 v 6.3 h 13.4 z" />
    <path
       id="path40"
       d="m 67.3,165.4 c 0,3.8 -1,7 -2.9,9.7 -1.9,2.7 -4.6,4.8 -8,6.3 -3.4,1.5 -7.4,2.2 -11.8,2.2 -1.2,0 -2.8,-0.1 -4.6,-0.2 -1.8,-0.2 -4.2,-0.6 -7.2,-1.3 -3,-0.7 -6.1,-1.8 -9.3,-3.2 v -14.7 c 3,1.9 6,3.4 8.9,4.7 2.9,1.2 6.1,1.9 9.4,1.9 3.1,0 5.1,-0.5 6,-1.5 0.9,-1 1.4,-2 1.4,-2.9 0,-1.6 -0.8,-3 -2.3,-4.1 -1.6,-1.1 -3.8,-2.3 -6.8,-3.4 -3.3,-1.4 -6.2,-2.9 -8.7,-4.5 -2.5,-1.6 -4.5,-3.7 -6.1,-6.1 -1.6,-2.5 -2.4,-5.4 -2.4,-8.7 0,-3.2 0.8,-6.2 2.4,-8.8 1.6,-2.6 4,-4.7 7.3,-6.3 3.3,-1.6 7.2,-2.3 11.9,-2.3 3.3,0 6.4,0.3 9.3,1 2.8,0.7 5.2,1.4 7,2.2 1.8,0.8 3.1,1.4 3.8,1.9 v 14.1 c -2.5,-1.8 -5.2,-3.3 -8.2,-4.7 -3,-1.4 -6.2,-2.1 -9.7,-2.1 -2.3,0 -3.9,0.4 -4.9,1.3 -1,0.9 -1.5,1.9 -1.5,3.2 0,1.2 0.5,2.2 1.5,3.1 1,0.9 2.8,1.9 5.4,3.2 4.6,2.2 8.3,4.1 11.1,5.8 2.8,1.7 4.9,3.7 6.5,6 1.7,2 2.5,4.8 2.5,8.2 z" />
    <path
       id="path42"
       d="m 142.1,155.9 c 0,5.1 -1,9.5 -2.9,13.1 -1.9,3.6 -4.5,6.5 -7.6,8.6 -3.2,2.1 -6.6,3.6 -10.2,4.5 -3.7,0.9 -7.3,1.4 -10.9,1.4 -5.1,0 -10,-0.9 -14.8,-2.6 -4.8,-1.7 -8.8,-4.7 -12.1,-8.8 -3.2,-4.2 -4.8,-9.6 -4.8,-16.2 v -33.1 h 18 v 28.4 c 0,4 0.6,7.2 1.7,9.8 1.1,2.6 2.7,4.5 4.8,5.7 2,1.2 4.4,1.8 7.2,1.8 2.7,0 5,-0.6 7.1,-1.8 2,-1.2 3.6,-3.1 4.8,-5.6 1.1,-2.6 1.7,-5.8 1.7,-9.8 v -28.5 h 18.1 v 33.1 z" />
    <path
       id="path44"
       d="M 226.1,182.8 H 208 V 148 l -16.3,20.1 h -1.4 L 173.9,148 v 34.8 h -17.6 v -60 h 16.4 l 18.4,22.5 18.5,-22.5 H 226 v 60 z" />
    <path
       id="path46"
       d="M 311,182.8 H 292.9 V 148 l -16.3,20.1 h -1.4 L 258.8,148 v 34.8 h -17.6 v -60 h 16.4 l 18.4,22.5 18.5,-22.5 H 311 Z" />
    <path
       id="path48"
       d="m 344.3,182.8 h -18.1 v -60 h 18.1 z" />
    <path
       id="path50"
       d="m 417,137.4 h -22 v 45.4 h -18 v -45.4 h -22 v -14.6 h 62 z" />
  </g>
</svg>
