<?xml version="1.0" encoding="utf-8"?>
<!-- Generator: Adobe Illustrator 25.4.1, SVG Export Plug-In . SVG Version: 6.00 Build 0)  -->
<svg version="1.1" id="Layer_1" xmlns="http://www.w3.org/2000/svg" xmlns:xlink="http://www.w3.org/1999/xlink" x="0px" y="0px"
	 viewBox="0 0 624.2 469.3" style="enable-background:new 0 0 624.2 469.3;" xml:space="preserve">
<style type="text/css">
	.st0{fill:#FFFFFF;}
	.st1{opacity:0.9;}
</style>
<polygon class="st0" points="368.4,247.1 370.3,241.8 367.2,243.9 368.3,247.1 "/>
<path class="st0" d="M243.3,69.9c-0.1,0.7-0.2,1.4-0.5,2C243.1,71.3,243.2,70.6,243.3,69.9z"/>
<path class="st0" d="M252.2,62.2L252.2,62.2c0.3,0,0.5,0,0.8,0C252.7,62.2,252.5,62.2,252.2,62.2z"/>
<path class="st0" d="M332,239.8l0.1-1.1c-0.2,0.1-0.4,0.2-0.6,0.3L332,239.8z"/>
<path class="st0" d="M231,64.2c-0.1,0.1-0.2,0.2-0.2,0.3C230.9,64.4,230.9,64.3,231,64.2L231,64.2z"/>
<path class="st0" d="M343.9,128.6c-3.2,0.4-6.3,1.7-8.7,3.9C337.6,130.4,340.6,129,343.9,128.6L343.9,128.6z"/>
<path class="st0" d="M321.1,224.7v11.2h3.9c2.6,0,4.5-0.5,5.7-1.4c1.2-1.1,1.9-2.7,1.8-4.3c0.1-1.6-0.6-3.2-1.9-4.2
	c-1.7-1-3.7-1.4-5.7-1.3H321.1z"/>
<path class="st0" d="M548.4,7.4h-83.9L502,61.7c0.6,0.3,1.2,0.7,1.7,1.2l0,0c1.2,1.2,2,2.7,2.2,4.4l4.5,6.6v-13h1.1v14.5v0.1
	l25.3,36.7c18.5,2.9,27,19,27,36.4c0,0.8,0,1.7-0.1,2.6l48,69.6V70.7C611.7,35.7,583.4,7.4,548.4,7.4L548.4,7.4z M524.5,75.4h-8
	V60.9h7.9v0.9h-6.8v5.8h6.6v0.9h-6.6v5.9h6.9L524.5,75.4z M540.7,74.3c-1.6,0.9-3.3,1.3-5.1,1.4c-2,0.1-4-0.7-5.5-2.1
	c-2.9-2.9-2.9-7.6,0-10.5l0,0l0,0l0.1-0.1c1.4-1.4,3.4-2.2,5.4-2.1c1.7,0,3.5,0.4,5,1.2l0,0h0.1c0,0,0,0-0.1,0v1.2
	c-1.6-0.9-3.3-1.4-5.2-1.4c-1.7,0-3.3,0.6-4.5,1.8s-1.9,2.9-1.8,4.6c-0.1,1.7,0.6,3.4,1.8,4.6s2.9,1.8,4.7,1.8s3.6-0.5,5.1-1.4V74.3
	z M554.9,61.9h-5.4v13.5h-1.1V61.9H543V61h12L554.9,61.9L554.9,61.9z"/>
<path class="st0" d="M254.4,68.3c0.2-0.1,0.5-0.3,0.7-0.4c0.5-0.4,0.8-1,1-1.7c-0.1,0.6-0.5,1.2-1,1.7
	C254.9,68,254.6,68.1,254.4,68.3z"/>
<path class="st0" d="M255.9,64.3c-0.1-0.4-0.4-0.8-0.7-1.1c0-0.1-0.1-0.1-0.2-0.2c0.1,0,0.1,0.1,0.2,0.2
	C255.6,63.5,255.8,63.9,255.9,64.3z"/>
<polygon class="st0" points="326.7,64.6 326.7,64.6 329.1,70.4 "/>
<path class="st0" d="M412.9,230.5c-0.2-0.6-0.6-1.6-1-2.9c-0.4-1.3-0.7-2.3-0.9-2.9c-0.5,2.1-1.1,4.2-1.8,6.3l-3.1,8.9h10
	L412.9,230.5z"/>
<path class="st0" d="M203.9,142.3L166.7,168l-0.4,0.9l86.3-59.5h-25V92.3h49.8l14.4-10l-1.1,10h9.1v14.8l-12.2,14.3l-4.5,42.5H300
	V181h-18.6l-4.4,41.7c2.7-2.2,6.2-3.3,10.6-3.3c5.1,0,9,1.5,11.8,4.6s4.2,7.4,4.2,13s-1.4,9.9-4.2,13c-2.8,3.1-6.7,4.6-11.8,4.6
	c-5.2,0-9.1-1.5-11.9-4.6c-0.5-0.6-1-1.2-1.4-1.8l-3.1,29.5h144.4l39.9-27.5L441.2,227H441l0.1,1.5c0.2,2.9,0.3,5.5,0.3,7.9v17.8
	h-5.1V220h6.8l16.7,27.1h0.1c0-0.4-0.1-1.7-0.2-3.9s-0.1-4-0.1-5.3V220h5.1v23.8l20-13.8v-5.2h-10V220h10.5l-26.5-38.4h-0.9
	L386.2,231v23.2h-5.4v-16.9c0-0.8,0-1.6,0-2.6l-4.1,2.8l-6,16.7h-4.9l-2.6-7.4l-7.1,4.9v2.4h-3.5l-23.7,16.3l2.4-22.5l-4.5-7.5h-5.5
	V254h-5.6v-34.2h9.6c3.7,0,6.7,0.6,8.8,1.8l4.3-40.1c-16.7-3.5-28.2-17.4-28.2-34.2V147c0-19.1,15.1-34.7,35.7-35.3l3.8-35.4h-2v-16
	h3.7l3.2-30.1L338.5,7.4h-35.2l-130.4,90L203.9,142.3z M408.1,219.8h6.1l12.8,34.3h-6l-3.4-9.5h-13.1l-3.3,9.5h-5.9L408.1,219.8z
	 M338.6,60.4h4.8v16h-4.8V60.4z M324,60.4h5.4l7,16h-4.9l-1.3-3.2h-7l-1.3,3.2H317L324,60.4z M296.1,60.4h4.4l4.9,6l4.9-6h4.4v16
	h-4.8v-9.3l-4.3,5.4h-0.4l-4.4-5.4v9.3h-4.7V60.4z M271.4,61.1h1.1l12.2,14.1V61.1h1.2v16.2h-1l-12.3-14.1v14.1h-1.2L271.4,61.1
	L271.4,61.1z M259.9,61.1h8.8v1h-7.6v6.5h7.4v1h-7.4v6.6h7.8v1h-9L259.9,61.1L259.9,61.1z M247.7,61.1h4.5c1.4-0.1,2.8,0.3,3.9,1.1
	c1.7,1.6,1.8,4.3,0.2,6c-0.1,0.1-0.2,0.2-0.3,0.3c-1.2,0.9-2.6,1.3-4,1.2h-3.1v7.5h-1.2L247.7,61.1z M229.9,63.5l0.2-0.2
	c1.6-1.6,3.8-2.5,6-2.4l0,0c2.3-0.1,4.5,0.8,6.1,2.4c3.3,3.1,3.4,8.3,0.2,11.6l0,0l-0.2,0.2c-3.4,3.2-8.7,3.2-12.1,0
	C226.9,72,226.8,66.8,229.9,63.5L229.9,63.5z"/>
<path class="st0" d="M287.4,249.8c3.3,0,5.8-1.1,7.5-3.2c1.7-2.1,2.5-5.3,2.5-9.6c0-4.2-0.8-7.4-2.5-9.5c-1.7-2.2-4.2-3.2-7.5-3.2
	s-5.9,1.1-7.6,3.2c-1.7,2.2-2.6,5.3-2.6,9.5s0.8,7.4,2.5,9.6C281.6,248.7,284.1,249.8,287.4,249.8z"/>
<path class="st0" d="M231,74.3L231,74.3L231,74.3z"/>
<polygon class="st0" points="266.4,321.2 266.3,322.4 279.9,342.1 322,342.1 352.4,321.2 "/>
<polygon class="st0" points="35.4,321.2 35.4,277.6 109.4,277.6 11.7,136 11.7,323.7 11.7,342.1 153.9,342.1 139.4,321.2 "/>
<path class="st0" d="M75.1,7.4c-35,0-63.3,28.4-63.3,63.3l0,0v40.8l151-104.1C162.8,7.4,75.1,7.4,75.1,7.4z"/>
<polygon class="st0" points="589,277.6 589,321.2 492.9,321.2 462.5,342.1 611.7,342.1 611.7,239.2 556.1,277.6 "/>
<path class="st0" d="M329.5,142.3c0.2-0.7,0.3-1.4,0.6-2.1C329.8,140.9,329.6,141.6,329.5,142.3z"/>
<path class="st0" d="M330,153.6c-0.3-1-0.6-2.1-0.8-3.1C329.4,151.5,329.7,152.6,330,153.6z"/>
<path class="st0" d="M329,146.9L329,146.9c0-1.5,0.2-3.1,0.5-4.6C329.2,143.8,329,145.4,329,146.9z"/>
<path class="st0" d="M333,159.2c-1.3-1.7-2.3-3.6-3-5.6C330.7,155.6,331.7,157.5,333,159.2z"/>
<path class="st0" d="M468.9,67.7c0.4,0,0.7,0,1.1-0.1C469.6,67.7,469.3,67.7,468.9,67.7L468.9,67.7z"/>
<path class="st0" d="M471.8,62.8C471.9,62.8,471.9,62.8,471.8,62.8L471.8,62.8L471.8,62.8C471.9,62.8,471.9,62.8,471.8,62.8
	l-0.1-0.2c-0.8-0.6-1.7-0.8-2.6-0.8l0,0c0.9-0.1,1.9,0.2,2.6,0.8L471.8,62.8z"/>
<path class="st0" d="M471.7,66.9c-0.4,0.3-0.8,0.5-1.3,0.6C470.8,67.4,471.3,67.2,471.7,66.9z"/>
<path class="st0" d="M471.7,66.9L471.7,66.9c0.1-0.1,0.2-0.2,0.3-0.3C471.9,66.7,471.8,66.8,471.7,66.9L471.7,66.9z"/>
<path class="st0" d="M391.9,67c0.2-0.2,0.4-0.4,0.5-0.6C392.3,66.6,392.1,66.8,391.9,67z"/>
<g class="st1">
	<path class="st0" d="M563.6,153.7h-47.3c1.9,8.7,8,13.3,16.6,13.3c6.5,0,11.2-2,16.5-7l11,9.8c-6.3,7.9-15.5,12.7-27.8,12.7
		c-20.4,0-35.5-14.3-35.5-35.1v-0.3c0-19.4,13.8-35.4,33.6-35.4c2,0,4.1,0.1,6.1,0.5l-25.3-36.7c0.1,1.1-0.2,2.3-0.9,3.2
		c-0.6,0.6-1.3,0.9-2.1,0.9c-0.2,0-0.4,0-0.7,0l-0.1-1c0.2,0,0.4,0.1,0.7,0.1c1.4,0,2-1,2-2.9v-1.9l-4.5-6.6
		c0.3,2.1-0.5,4.3-1.9,5.8l-0.1,0.1l-0.2,0.2c-3,2.9-7.8,2.9-10.9,0c-2.9-2.8-3-7.5-0.2-10.4l0,0l0.1-0.1c2.5-2.3,6.2-2.8,9.2-1.2
		L464.5,7.4h-126l15.8,22.9l-3.2,30.1h0.6l8.3,8.9v-8.9h4.8v16h-4.3l-8.3-8.9v8.9h-2.8l-3.8,35.4c0.4,0,0.8,0,1.2,0
		c21,0,36.6,15.6,36.6,35.1v0.3c0,19.5-15.7,35.4-36.9,35.4c-2.8,0-5.6-0.3-8.4-0.9l-4.3,40.1c0.4,0.2,0.7,0.4,1,0.7
		c2.1,1.7,3.2,4.1,3.2,7.5c0,4-2,7-6,8.8l-0.1,1.1l9.1,14.3h-6.4l-3.7-6.1l-2.4,22.5l23.7-16.3h-1.5v-34.2h7.9l8.4,24l3.2-2.2
		l7.8-21.8h7.9v11l71.6-49.4h-4.4L440,140l-13,41.5h-17.2l-20.9-68.4h19.5l10.9,41.2l12.8-41.4h16.6l12.9,41.6l11.2-41.3h19.1
		l-21.2,68.4h-12.1l26.5,38.4h15.2v4.8h-10v29.4h-5.6V230l-20,13.8v10.4h-6.8l-2.4-4l-39.9,27.5h140.5l55.7-38.4v-18.4l-48-69.6
		C563.7,152.1,563.6,152.9,563.6,153.7z M380.4,63.6h-6.7v3.1h6.7v3.2h-6.7v6.5h-4.8v-16h11.5V63.6z M393.9,76.4l-1.3-2.9
		c-0.3-0.8-0.8-1.6-1.2-2.3c-0.3-0.4-0.6-0.7-1.1-0.9c-0.4-0.1-0.9-0.2-1.4-0.2h-0.5v6.3h-4.8v-16h8.2c1.1-0.1,2.3,0.2,3.3,0.8
		c0.8,0.5,1.4,1.1,1.8,2c0.3,0.7,0.5,1.4,0.6,2.2c0,0.7-0.1,1.4-0.5,2.1c-0.2,0.5-0.6,0.9-1,1.2c-0.4,0.3-0.8,0.5-1.2,0.7
		c0.5,0.3,0.9,0.6,1.3,1.1c0.6,0.8,1,1.6,1.4,2.5l1.6,3.5L393.9,76.4z M414,76.4l-1.3-3.2h-7l-1.3,3.2h-5l7.1-16h5.3l7.1,16H414z
		 M439.7,76.4h-4.8v-9.3l-4.4,5.4h-0.4l-4.4-5.4v9.3H421v-16h4.4l4.9,6l5-6h4.4L439.7,76.4L439.7,76.4z M455.8,76.4h-12.1v-16h11.9
		v3.2h-7v2.9h6.7v3.2h-6.7v3.4h7.2V76.4z M472.6,67.6c-1,0.8-2.3,1.1-3.6,1h-2.8v6.8h-1.1V60.9h4c1.2-0.1,2.5,0.3,3.5,1
		c0.8,0.7,1.3,1.7,1.2,2.8C473.9,65.9,473.4,66.9,472.6,67.6L472.6,67.6z M487.3,75.4l-2.5-3.9c-0.5-0.9-1.2-1.8-2-2.5
		c-0.6-0.4-1.3-0.5-2.1-0.5h-2v6.9h-1.1V60.9h3.7c1.3-0.1,2.5,0.3,3.6,1c0.8,0.7,1.3,1.7,1.2,2.7c0,1.7-1.1,3.1-2.8,3.5
		c0.8,0.6,1.5,1.3,1.9,2.2l3.3,5h-1.2V75.4z"/>
</g>
<path class="st0" d="M388.4,67.3L388.4,67.3h1c0.2,0,0.4,0,0.6,0c-0.2,0-0.4,0-0.6,0H388.4z"/>
<path class="st0" d="M481.1,61.9c0.5,0,0.9,0,1.3,0.1C482,61.9,481.6,61.9,481.1,61.9h-2.4v5.7v-5.7
	C478.7,61.9,481.1,61.9,481.1,61.9z"/>
<polygon class="st0" points="291.9,82.3 277.4,92.3 290.8,92.3 "/>
<polygon class="st0" points="163.8,129.3 131.7,151.5 138,92 131.3,82.2 83.7,115.1 91.5,126.3 122.6,104.9 116.2,164.4 
	122.9,174.1 171.6,140.6 "/>
<polygon class="st0" points="283.2,163.9 287.7,121.4 251.2,163.9 "/>
<g class="st1">
	<polygon class="st0" points="266.4,321.2 139.4,321.2 153.9,342.1 279.9,342.1 266.3,322.4 	"/>
</g>
<g class="st1">
	<polygon class="st0" points="352.4,321.2 322,342.1 462.5,342.1 492.9,321.2 	"/>
</g>
<g class="st1">
	<path class="st0" d="M271.1,277.6l3.1-29.5c-1.9-2.9-2.8-6.6-2.8-11.2c0-5.6,1.4-10,4.2-13c0.4-0.4,0.9-0.9,1.3-1.2l4.4-41.7H226
		v-14.8l48.8-56.8h-22.2l-86.3,59.5l0.4-0.9L113,205l-62.7-90.9l90.9-62.7l31.7,46l130.4-90H162.8L11.7,111.6V136l97.7,141.7h161.7
		L271.1,277.6L271.1,277.6z M242.9,219.9h19.3v4.7h-13.7v10.7h12.9v4.7h-12.9v14H243v-34.1H242.9z M200.6,219.9h6.8l16.7,27.1h0.1
		c0-0.4-0.1-1.7-0.2-3.9c-0.1-2.2-0.1-4-0.1-5.3v-17.9h5.1v34.2h-6.8l-16.8-27.2h-0.2l0.1,1.5c0.2,2.9,0.3,5.5,0.3,7.9v17.8h-5.1
		L200.6,219.9z M160.7,223.9c2.8-3,6.7-4.5,11.9-4.5c5.1,0,9,1.5,11.8,4.6s4.2,7.4,4.2,13s-1.4,9.9-4.2,13s-6.7,4.6-11.8,4.6
		c-5.2,0-9.1-1.5-11.9-4.6c-2.8-3.1-4.1-7.4-4.1-13C156.5,231.3,157.9,227,160.7,223.9L160.7,223.9z M123.3,227.7
		c1.2-2.6,3.2-4.7,5.6-6.1c2.6-1.5,5.6-2.2,8.7-2.1c3.4,0,6.7,0.7,9.7,2.2l-2,4.6c-1.2-0.6-2.4-1-3.7-1.4s-2.7-0.6-4.1-0.6
		c-2.9-0.1-5.7,1.1-7.6,3.4c-1.8,2.3-2.8,5.4-2.8,9.4c0,4.2,0.9,7.4,2.7,9.5c1.8,2.1,4.3,3.2,7.7,3.2c1.4,0,2.8-0.1,4.2-0.4
		c1.4-0.3,2.8-0.7,4.2-1.1v4.8c-2.9,1.1-6,1.6-9.1,1.5c-5,0-8.8-1.5-11.5-4.5s-4-7.4-4-13C121.3,233.8,122,230.6,123.3,227.7
		L123.3,227.7z"/>
</g>
<g class="st1">
	<path class="st0" d="M172.5,249.8c3.3,0,5.8-1.1,7.5-3.2c1.7-2.1,2.5-5.3,2.5-9.6c0-4.2-0.8-7.4-2.5-9.5c-1.7-2.2-4.2-3.2-7.5-3.2
		s-5.9,1.1-7.6,3.2c-1.7,2.2-2.6,5.3-2.6,9.5s0.8,7.4,2.5,9.6C166.7,248.7,169.2,249.8,172.5,249.8z"/>
</g>
<path class="st0" d="M346.6,128.4c3.1,0,6.2,0.8,8.9,2.3C352.8,129.2,349.7,128.4,346.6,128.4c-0.9,0-1.8,0.1-2.7,0.2l0,0
	C344.8,128.5,345.7,128.4,346.6,128.4z"/>
<path class="st0" d="M493.6,63.6c-0.1,0.1-0.1,0.1-0.2,0.2C493.5,63.8,493.6,63.7,493.6,63.6L493.6,63.6z"/>
<path class="st0" d="M497.6,74.5c0.2,0,0.4,0,0.6,0l0,0l0,0l0,0C498,74.6,497.8,74.5,497.6,74.5z"/>
<path class="st0" d="M381,225.6h-0.2l-4.3,11.8l4.1-2.8c0-1.2,0.1-2.5,0.1-4C380.9,227.8,381,226.2,381,225.6z"/>
<path class="st0" d="M355.6,225.6c0.3,4.2,0.4,8.2,0.4,11.9v14.2l7.1-4.9l-7.4-21.2H355.6z"/>
<path class="st0" d="M11.7,463.3h600v-111h-600L11.7,463.3z M15.3,355.9h592.8v103.8H15.3V355.9z"/>
<path class="st0" d="M392.2,64.2c-0.1-0.1-0.2-0.2-0.3-0.3c-0.7-0.4-1.6-0.5-2.4-0.4h-1v3.9h1c0.8,0.1,1.7-0.1,2.4-0.4
	c0.5-0.3,0.7-0.9,0.7-1.4l0,0C392.6,65,392.5,64.6,392.2,64.2L392.2,64.2z"/>
<path class="st0" d="M484.3,63l-0.3-0.3c-0.8-0.5-1.8-0.8-2.8-0.8h-2.4v5.7h2.4c1,0.1,2-0.2,2.8-0.7C485.1,65.8,485.3,64.1,484.3,63
	z"/>
<path class="st0" d="M472.5,63.8c0-0.1-0.1-0.3-0.2-0.4c0,0,0-0.1-0.1-0.1c-0.1-0.1-0.2-0.2-0.2-0.3l-0.1-0.1l0,0l0,0l-0.1-0.2
	c-0.8-0.6-1.7-0.8-2.6-0.8h-2.8v5.8h2.7c0.4,0,0.7,0,1.1-0.1c0.1,0,0.3,0,0.4-0.1c0.5-0.1,0.9-0.3,1.3-0.6c0.1-0.1,0.2-0.2,0.3-0.3
	l0.1-0.1c0.1-0.1,0.2-0.2,0.2-0.4l0.1-0.1c0.1-0.1,0.1-0.3,0.2-0.4v-0.1c0-0.1,0-0.3,0.1-0.4V65c0-0.1,0-0.3,0-0.4v-0.1
	c0-0.1-0.1-0.3-0.1-0.4C472.5,63.9,472.5,63.8,472.5,63.8z"/>
<path class="st0" d="M340,164.6l3.8-36c-3.2,0.4-6.3,1.7-8.7,3.9c-1.8,1.6-3.3,3.5-4.3,5.7c-0.3,0.7-0.6,1.3-0.8,2
	c-0.2,0.7-0.4,1.4-0.6,2.1c-0.3,1.5-0.5,3-0.5,4.6v0.3c0,1.1,0.1,2.2,0.3,3.3c0.2,1.1,0.4,2.1,0.8,3.1c0.7,2,1.7,3.9,3,5.6
	C334.8,161.6,337.3,163.4,340,164.6z"/>
<g class="st1">
	<path class="st0" d="M343.9,128.6l-3.8,36c2.2,0.9,4.5,1.4,6.8,1.3c11,0,17.6-8.5,17.6-18.5v-0.3c0-0.9-0.1-1.8-0.2-2.7
		c-0.3-2.4-1.1-4.7-2.2-6.8c-0.7-1.2-1.5-2.4-2.4-3.4c-0.1-0.1-0.1-0.2-0.2-0.2c-1.2-1.3-2.6-2.4-4.1-3.3c-2.7-1.6-5.8-2.4-8.9-2.3
		C345.7,128.4,344.8,128.5,343.9,128.6z"/>
</g>
<polygon class="st0" points="406.8,70.4 411.6,70.4 409.2,64.6 "/>
<path class="st0" d="M254.4,68.3c0.2-0.1,0.5-0.3,0.7-0.4c0.5-0.4,0.8-1,1-1.7c0.2-1.1,0-2.2-0.8-3c0-0.1-0.1-0.1-0.2-0.2
	c-0.8-0.6-1.9-0.9-2.9-0.9H249v6.5h3C252.8,68.8,253.6,68.6,254.4,68.3z"/>
<g class="st1">
	<path class="st0" d="M526.6,127.8c-1.7,0.5-3.3,1.3-4.6,2.5c-1.4,1.2-2.5,2.6-3.4,4.2c-1.2,2.2-2.1,4.7-2.5,7.2h29
		c-0.1-0.7-0.2-1.5-0.4-2.2c-0.7-3.5-2.4-6.7-5-9.1c-0.1-0.1-0.2-0.2-0.3-0.2c-2.4-2-5.5-3-8.6-2.9
		C529.3,127.3,527.9,127.4,526.6,127.8z"/>
</g>
<polygon class="st0" points="329.1,70.4 326.7,64.6 324.3,70.4 "/>
<path class="st0" d="M230.5,73.8c0.1,0.1,0.2,0.2,0.3,0.3c0.1,0.1,0.1,0.2,0.2,0.2l0,0l0,0c2.9,2.7,7.4,2.7,10.2,0
	c0.3-0.3,0.6-0.7,0.9-1.1c0.6-1,1-2.1,1.1-3.3c0-0.2,0-0.5,0-0.7c0-0.5,0-0.9-0.1-1.4c0-0.2-0.1-0.4-0.2-0.7
	c-0.2-0.8-0.6-1.5-1.1-2.2c-0.9-1.3-2.2-2.2-3.8-2.6c-2.5-0.7-5.3-0.1-7.2,1.8l0,0c-0.1,0.1-0.2,0.2-0.2,0.3
	c-0.1,0.1-0.2,0.2-0.3,0.3c-0.1,0.1-0.1,0.2-0.2,0.3c-0.1,0.1-0.2,0.2-0.2,0.3c-0.1,0.1-0.1,0.2-0.2,0.3c-0.1,0.1-0.1,0.2-0.2,0.3
	c0,0.1-0.1,0.2-0.1,0.3c-0.1,0.1-0.1,0.2-0.2,0.4c0,0.1-0.1,0.2-0.1,0.3c0,0.1-0.1,0.2-0.1,0.3c0,0.1-0.1,0.2-0.1,0.3
	c0,0.1-0.1,0.2-0.1,0.3c0,0.1,0,0.2,0,0.3c0,0.1,0,0.2-0.1,0.4c0,0.1,0,0.2,0,0.3c0,0.1,0,0.2,0,0.4c0,0.1,0,0.2,0,0.3
	c0,0.1,0,0.2,0,0.4c0,0.1,0,0.2,0,0.3c0,0.1,0,0.2,0.1,0.4c0,0.1,0,0.2,0.1,0.3c0,0.1,0.1,0.2,0.1,0.4c0,0.1,0.1,0.2,0.1,0.3
	c0,0.1,0.1,0.2,0.1,0.3c0,0.1,0.1,0.2,0.1,0.3c0,0.1,0.1,0.2,0.1,0.3c0.1,0.1,0.1,0.2,0.2,0.3c0.1,0.1,0.1,0.2,0.2,0.3
	c0.1,0.1,0.1,0.2,0.2,0.3C230.4,73.6,230.4,73.7,230.5,73.8z"/>
<path class="st0" d="M493.6,63.6c-0.1,0.1-0.1,0.1-0.2,0.2c-0.1,0.1-0.2,0.2-0.3,0.3l-0.1,0.1c-0.1,0.1-0.2,0.3-0.3,0.4
	c-0.2,0.3-0.4,0.7-0.6,1.1l0,0c0,0.1-0.1,0.2-0.1,0.3c0,0.1-0.1,0.2-0.1,0.2c0,0.1,0,0.1,0,0.2s-0.1,0.3-0.1,0.4s0,0.1,0,0.2
	s-0.1,0.3-0.1,0.4s0,0.2,0,0.3c0,0.1,0,0.2,0,0.4c0,0.1,0,0.2,0,0.3c0,0.1,0,0.2,0,0.3c0,0.1,0,0.2,0.1,0.4c0,0.1,0,0.2,0,0.3
	c0,0.1,0.1,0.3,0.1,0.4s0,0.1,0,0.2s0.1,0.2,0.1,0.2c0,0.1,0.1,0.2,0.1,0.3l0,0c0.2,0.4,0.3,0.7,0.6,1.1c0,0.1,0.1,0.1,0.1,0.2
	c0.1,0.1,0.2,0.2,0.2,0.3c0,0,0,0,0.1,0.1s0.2,0.3,0.4,0.4c1.2,1.2,2.9,1.9,4.6,1.8l0,0c1.7,0,3.4-0.6,4.6-1.8
	c2.5-2.5,2.5-6.6,0-9.1C500.2,61.2,496.2,61.2,493.6,63.6z"/>
<path class="st0" d="M472.2,63.3c0,0,0,0.1,0.1,0.1"/>
<path class="st0" d="M472.5,63.8L472.5,63.8"/>
<path class="st0" d="M472.6,65L472.6,65"/>
<path class="st0" d="M472.5,65.6L472.5,65.6"/>
<path class="st0" d="M472.3,66.1l0.1-0.1"/>
<path class="st0" d="M471.9,66.6l0.1-0.1"/>
<path class="st0" d="M470,67.6c0.1,0,0.3,0,0.4-0.1"/>
<path class="st0" d="M472.6,64.3L472.6,64.3"/>
<path class="st0" d="M493.2,64.1c0.1-0.1,0.2-0.2,0.3-0.3"/>
<path class="st0" d="M495.7,74.1c-0.6-0.2-1.1-0.6-1.6-1"/>
<path class="st0" d="M491.8,68.2c0-0.1,0-0.2,0-0.4"/>
<path class="st0" d="M491.9,67c0-0.2,0.1-0.3,0.1-0.4"/>
<path class="st0" d="M492.8,64.7c0.1-0.1,0.2-0.3,0.3-0.4"/>
<path class="st0" d="M492.1,70.2c0,0.1,0.1,0.2,0.1,0.3"/>
<path class="st0" d="M492.2,65.8C492.2,65.8,492.2,65.7,492.2,65.8"/>
<path class="st0" d="M492,66.4c0-0.1,0.1-0.2,0.1-0.2"/>
<path class="st0" d="M493.2,72.2c-0.1-0.1-0.2-0.2-0.2-0.3"/>
<path class="st0" d="M491.8,69.1c0,0.1,0,0.2,0,0.3"/>
<path class="st0" d="M492,69.8c0,0.1,0,0.1,0,0.2"/>
<path class="st0" d="M491.8,68.5c0,0.1,0,0.2,0,0.3"/>
<path class="st0" d="M491.8,67.6c0-0.1,0-0.3,0.1-0.4"/>
<path class="st0" d="M391.8,63.9c-0.6-0.3-1.1-0.4-1.8-0.5"/>
<path class="st0" d="M392.2,64.2c0.2,0.2,0.3,0.5,0.4,0.8"/>
<path class="st0" d="M228.9,69.9c0-0.1,0-0.2,0-0.4"/>
<path class="st0" d="M229,70.6c0-0.1,0-0.2-0.1-0.4"/>
<path class="st0" d="M230.1,73.2c-0.1-0.1-0.1-0.2-0.2-0.3"/>
<path class="st0" d="M243,67.2c-0.1-0.4-0.3-0.9-0.5-1.3"/>
<path class="st0" d="M242.5,65.9c-0.2-0.3-0.3-0.6-0.6-0.9"/>
<path class="st0" d="M230.8,64.4c-0.1,0.1-0.2,0.2-0.3,0.3"/>
<path class="st0" d="M229.7,72.6c-0.1-0.1-0.1-0.2-0.1-0.3"/>
<path class="st0" d="M230.5,73.8c-0.1-0.1-0.1-0.2-0.2-0.3"/>
<path class="st0" d="M243.2,67.9c0.1,0.5,0.1,0.9,0.1,1.4"/>
<path class="st0" d="M229.4,71.9c0-0.1-0.1-0.2-0.1-0.3"/>
<path class="st0" d="M229.2,71.3c0-0.1-0.1-0.2-0.1-0.4"/>
<path class="st0" d="M230.3,65c-0.1,0.1-0.2,0.2-0.2,0.3"/>
<path class="st0" d="M228.9,68.9c0,0.1,0,0.2,0,0.4"/>
<path class="st0" d="M229.1,67.5c0,0.1-0.1,0.2-0.1,0.3"/>
<path class="st0" d="M229,68.2c0,0.1,0,0.2-0.1,0.4"/>
<path class="st0" d="M229.9,65.6c-0.1,0.1-0.1,0.2-0.2,0.3"/>
<path class="st0" d="M229.6,66.2c-0.1,0.1-0.1,0.2-0.2,0.4"/>
<path class="st0" d="M229.3,66.9c0,0.1-0.1,0.2-0.1,0.3"/>
<path class="st0" d="M359.5,134c0.1,0.1,0.1,0.2,0.2,0.2"/>
<path class="st0" d="M113.6,288.3c-1.8-0.1-3.6,0.4-5,1.5c-1.2,1-1.9,2.6-1.8,4.2c0,0.9,0.2,1.7,0.6,2.5c0.4,0.7,0.9,1.3,1.5,1.9
	c0.8,0.7,1.8,1.2,2.8,1.7c0.9,0.4,1.8,0.9,2.6,1.4c0.4,0.2,0.7,0.5,1,0.9c0.2,0.3,0.3,0.7,0.3,1.1c0,0.6-0.2,1.2-0.8,1.6
	c-0.6,0.4-1.4,0.6-2.2,0.5c-0.9,0-1.7-0.1-2.6-0.4c-1.2-0.3-2.3-0.8-3.4-1.3v4c1.8,0.8,3.7,1.3,5.7,1.2c1.9,0.1,3.9-0.4,5.5-1.6
	c1.3-1,2-2.6,2-4.3c0-1.2-0.3-2.4-1-3.3c-1.1-1.2-2.4-2.1-3.9-2.7c-0.9-0.4-1.8-0.9-2.7-1.4c-0.3-0.2-0.6-0.5-0.8-0.8
	c-0.2-0.3-0.3-0.6-0.3-1c0-0.6,0.2-1.1,0.6-1.5c0.5-0.4,1.2-0.6,1.9-0.6c0.7,0,1.4,0.1,2.1,0.3c0.9,0.2,1.8,0.6,2.7,0.9l0.7-1.7
	l-1.7-2.5c-0.2-0.1-0.4-0.1-0.6-0.2C115.6,288.4,114.6,288.3,113.6,288.3z"/>
<path class="st0" d="M119.6,289.7c-0.8-0.3-1.6-0.6-2.4-0.9l1.7,2.5L119.6,289.7z"/>
<path class="st0" d="M143.9,300.9c0.1,1.2-0.2,2.4-0.9,3.4c-0.8,0.8-1.9,1.2-3,1.1c-1.1,0.1-2.3-0.3-3.1-1.1c-0.7-1-1-2.2-0.9-3.4
	v-12.3h-4.3v13c-0.1,2,0.7,4,2.1,5.4c1.7,1.4,3.8,2.1,6,2c1.5,0,3.1-0.3,4.5-0.9c1.2-0.5,2.2-1.4,2.9-2.6s1-2.5,1-3.9v-13h-4.3
	V300.9z"/>
<path class="st0" d="M173.6,290.2c-1.6-1.2-3.6-1.7-5.6-1.6h-6.4v20.1h4.3v-7.2h1.8c2.1,0.1,4.1-0.5,5.8-1.7c1.4-1.3,2.2-3.1,2-5
	C175.6,293.1,174.9,291.4,173.6,290.2z M170.2,297.3c-0.9,0.6-1.9,0.9-2.9,0.8h-1.4v-6h1.9c0.9-0.1,1.8,0.2,2.6,0.7
	c0.6,0.6,0.9,1.4,0.8,2.2C171.2,295.9,170.8,296.8,170.2,297.3z"/>
<path class="st0" d="M199.7,290.2c-1.6-1.2-3.6-1.7-5.6-1.6h-6.4v20.1h4.3v-7.2h1.8c2.1,0.1,4.1-0.5,5.8-1.7c1.4-1.3,2.2-3.1,2-5
	C201.7,293.1,201,291.4,199.7,290.2z M196.3,297.3c-0.9,0.6-1.9,0.9-2.9,0.8H192v-6h1.9c0.9-0.1,1.8,0.2,2.6,0.7
	c0.6,0.6,0.9,1.4,0.8,2.2C197.4,295.9,197,296.8,196.3,297.3L196.3,297.3z"/>
<path class="st0" d="M222.6,288.3c-3.1,0-5.5,0.9-7.1,2.6c-1.7,1.8-2.5,4.3-2.5,7.7c0,3.3,0.8,5.9,2.5,7.7c1.7,1.8,4,2.7,7.1,2.7
	s5.4-0.9,7.1-2.7c1.7-1.8,2.5-4.3,2.5-7.7c0-3.3-0.8-5.9-2.5-7.7C228,289.2,225.7,288.3,222.6,288.3z M222.6,305.4
	c-1.5,0.1-2.9-0.5-3.8-1.7c-1.7-3.2-1.7-7,0-10.2c0.9-1.2,2.4-1.8,3.8-1.7c3.4,0,5.1,2.3,5.1,6.8C227.7,303.2,226,305.4,222.6,305.4
	L222.6,305.4z"/>
<path class="st0" d="M257.7,297.8c1.6-2.5,1.2-5.7-1-7.7c-1.3-1-3.3-1.5-6.1-1.5h-5.9v20.1h4.3V301h2.3l4.8,7.7h4.7
	c-0.9-1.3-2.9-4.2-5.9-8.8C256,299.5,257,298.8,257.7,297.8z M253.4,296.9c-0.9,0.5-1.9,0.8-3,0.7H249v-5.4h1.3
	c1.1-0.1,2.1,0.1,3,0.6c0.7,0.4,1.1,1.2,1,2C254.4,295.6,254,296.4,253.4,296.9L253.4,296.9z"/>
<polygon class="st0" points="269.8,292.2 275.3,292.2 275.3,308.7 279.6,308.7 279.6,292.2 285,292.2 285,288.6 269.9,288.6 
	269.8,289.1 "/>
<polygon class="st0" points="269.8,289.1 269.9,288.6 269.8,288.6 "/>
<path class="st0" d="M316.6,301.6h1.8c2.1,0.1,4.1-0.5,5.8-1.7c1.4-1.3,2.2-3.1,2-5c0.1-1.8-0.6-3.5-1.9-4.7
	c-1.6-1.2-3.6-1.7-5.6-1.6h-6.4v20.1h4.3L316.6,301.6L316.6,301.6z M316.6,292.1h1.9c0.9-0.1,1.8,0.2,2.6,0.7
	c0.6,0.6,0.9,1.4,0.8,2.2c0.1,0.9-0.3,1.7-1,2.3c-0.9,0.6-1.9,0.9-2.9,0.8h-1.4V292.1z"/>
<path class="st0" d="M342.8,301h2.3l4.8,7.7h4.7c-0.9-1.3-2.9-4.2-5.9-8.8c1.1-0.5,2.1-1.2,2.8-2.2c1.6-2.5,1.2-5.7-1-7.7
	c-1.3-1-3.3-1.5-6.1-1.5h-5.9v20.1h4.3L342.8,301L342.8,301z M342.8,292.1h1.3c1.1-0.1,2.1,0.1,3,0.6c0.7,0.4,1.1,1.2,1,2
	c0.1,0.8-0.3,1.6-1,2.1c-0.9,0.5-1.9,0.8-3,0.7h-1.4v-5.4L342.8,292.1L342.8,292.1z"/>
<path class="st0" d="M374.3,305.4c-1.5,0.1-2.9-0.5-3.8-1.7c-1.7-3.2-1.7-7,0-10.2c0.9-1.2,2.4-1.8,3.8-1.7c3.4,0,5.1,2.3,5.1,6.8
	c0.1,1.6-0.3,3.2-1,4.6l5.4-3.7c0-0.3,0-0.6,0-0.8c0-3.3-0.8-5.9-2.5-7.7c-1.6-1.8-4-2.7-7.1-2.7s-5.5,0.9-7.1,2.6
	c-1.7,1.8-2.5,4.3-2.5,7.7s0.8,5.9,2.5,7.7c1,1,2.2,1.8,3.6,2.2l4.6-3.2C375,305.4,374.6,305.4,374.3,305.4z"/>
<path class="st0" d="M381.4,306.3c1.6-1.9,2.5-4.3,2.5-6.8l-5.4,3.7c-0.6,1.1-1.8,1.9-3,2.1l-4.6,3.2c1.1,0.3,2.3,0.5,3.5,0.5
	C377.4,309,379.7,308.1,381.4,306.3z"/>
<polygon class="st0" points="398.3,288.6 393.9,288.6 395,291.8 398.5,289.4 "/>
<path class="st0" d="M405.4,308.7l6.8-20.1H408l-3.8,12c-0.4,1.5-0.8,2.9-1,4.4c-0.1-0.4-0.2-1-0.4-2c-0.2-0.9-0.4-1.8-0.7-2.5
	l-3.5-11.2l-3.5,2.4l5.8,17L405.4,308.7L405.4,308.7z"/>
<rect x="423.2" y="288.6" class="st0" width="4.3" height="20.1"/>
<path class="st0" d="M454.9,306.1c1.9-1.8,2.8-4.3,2.8-7.6c0.2-2.7-0.8-5.3-2.7-7.3c-1.8-1.7-4.4-2.6-7.7-2.6H441v20.1h5.7
	C450.3,308.7,453,307.9,454.9,306.1z M445.3,292.1h2.3c3.8,0,5.7,2.2,5.7,6.5c0,4.4-2.1,6.6-6.2,6.6h-1.8V292.1z"/>
<polygon class="st0" points="481.9,305.2 474.6,305.2 474.6,300 481.4,300 481.4,296.5 474.6,296.5 474.6,292.1 481.9,292.1 
	481.9,288.6 470.4,288.6 470.4,308.7 481.9,308.7 "/>
<path class="st0" d="M498.9,301h2.3l4.8,7.7h4.7c-0.9-1.3-2.9-4.2-5.9-8.8c1.1-0.5,2.1-1.2,2.8-2.2c1.6-2.5,1.2-5.7-1-7.7
	c-1.3-1-3.3-1.5-6.1-1.5h-5.9v20.1h4.3L498.9,301z M498.9,292.1h1.3c1.1-0.1,2.1,0.1,3,0.6c0.7,0.4,1.1,1.2,1,2
	c0.1,0.8-0.3,1.6-1,2.1c-0.9,0.5-1.9,0.8-3,0.7h-1.4v-5.4L498.9,292.1L498.9,292.1z"/>
<g>
	<path class="st0" d="M50.1,399.5H39v-19.3h11.1v3.3h-7v4.2h6.5v3.3h-6.5v5h7V399.5z"/>
	<path class="st0" d="M71.1,399.5h-4.7l-4.5-7.3l-4.4,7.3h-4.4l6.4-9.9l-6-9.3H58l4.2,6.9l4.1-6.9h4.4l-6.1,9.6L71.1,399.5z"/>
	<path class="st0" d="M88.2,386.2c0,2.1-0.6,3.7-1.9,4.8c-1.3,1.1-3.1,1.6-5.5,1.6H79v6.9h-4.1v-19.3h6.2c2.3,0,4.1,0.5,5.3,1.5
		C87.6,382.8,88.2,384.2,88.2,386.2z M79,389.3h1.3c1.3,0,2.2-0.2,2.8-0.7c0.6-0.5,0.9-1.2,0.9-2.2s-0.3-1.7-0.8-2.1
		s-1.3-0.7-2.5-0.7h-1.9v5.7L79,389.3L79,389.3z"/>
	<path class="st0" d="M93.2,399.5v-19.3h4.1v15.9h7.8v3.4H93.2z"/>
	<path class="st0" d="M127.3,389.8c0,3.2-0.8,5.6-2.4,7.4c-1.6,1.7-3.8,2.6-6.8,2.6s-5.2-0.9-6.8-2.6c-1.6-1.7-2.4-4.2-2.4-7.4
		c0-3.2,0.8-5.7,2.4-7.4c1.6-1.7,3.9-2.5,6.8-2.5s5.2,0.9,6.8,2.6C126.5,384.2,127.3,386.7,127.3,389.8z M113.2,389.8
		c0,2.2,0.4,3.8,1.2,4.9c0.8,1.1,2,1.6,3.7,1.6c3.3,0,4.9-2.2,4.9-6.5s-1.6-6.5-4.9-6.5c-1.6,0-2.9,0.5-3.7,1.6
		C113.6,386.2,113.2,387.8,113.2,389.8z"/>
	<path class="st0" d="M136.7,392.2v7.4h-4.1v-19.3h5.6c2.6,0,4.6,0.5,5.8,1.4c1.3,1,1.9,2.4,1.9,4.3c0,1.1-0.3,2.1-0.9,3
		c-0.6,0.9-1.5,1.6-2.6,2.1c2.9,4.3,4.8,7.1,5.7,8.4h-4.6l-4.6-7.4h-2.2L136.7,392.2L136.7,392.2z M136.7,388.8h1.3
		c1.3,0,2.2-0.2,2.9-0.6s0.9-1.1,0.9-2s-0.3-1.6-0.9-2c-0.6-0.4-1.6-0.6-2.9-0.6h-1.2v5.2H136.7z"/>
	<path class="st0" d="M162.9,399.5h-11.1v-19.3h11.1v3.3h-7v4.2h6.5v3.3h-6.5v5h7V399.5z"/>
	<path class="st0" d="M172.4,392.2v7.4h-4.1v-19.3h5.6c2.6,0,4.6,0.5,5.8,1.4c1.3,1,1.9,2.4,1.9,4.3c0,1.1-0.3,2.1-0.9,3
		c-0.6,0.9-1.5,1.6-2.6,2.1c2.9,4.3,4.8,7.1,5.7,8.4h-4.5l-4.6-7.4h-2.3L172.4,392.2L172.4,392.2z M172.4,388.8h1.3
		c1.3,0,2.2-0.2,2.9-0.6s0.9-1.1,0.9-2s-0.3-1.6-0.9-2c-0.6-0.4-1.6-0.6-2.9-0.6h-1.2v5.2H172.4z"/>
	<path class="st0" d="M199.8,399.5h-4v-19.3h11v3.3h-7v5h6.5v3.3h-6.5V399.5z"/>
	<path class="st0" d="M229.5,389.8c0,3.2-0.8,5.6-2.4,7.4c-1.6,1.7-3.8,2.6-6.8,2.6s-5.2-0.9-6.8-2.6s-2.4-4.2-2.4-7.4
		c0-3.2,0.8-5.7,2.4-7.4c1.6-1.7,3.9-2.5,6.8-2.5s5.2,0.9,6.8,2.6C228.7,384.2,229.5,386.7,229.5,389.8z M215.4,389.8
		c0,2.2,0.4,3.8,1.2,4.9s2,1.6,3.7,1.6c3.3,0,4.9-2.2,4.9-6.5s-1.6-6.5-4.9-6.5c-1.6,0-2.9,0.5-3.7,1.6
		C215.8,386.2,215.4,387.8,215.4,389.8z"/>
	<path class="st0" d="M238.9,392.2v7.4h-4.1v-19.3h5.6c2.6,0,4.6,0.5,5.8,1.4c1.3,1,1.9,2.4,1.9,4.3c0,1.1-0.3,2.1-0.9,3
		c-0.6,0.9-1.5,1.6-2.6,2.1c2.9,4.3,4.8,7.1,5.7,8.4h-4.5l-4.6-7.4h-2.3L238.9,392.2L238.9,392.2z M238.9,388.8h1.3
		c1.3,0,2.2-0.2,2.9-0.6s0.9-1.1,0.9-2s-0.3-1.6-0.9-2c-0.6-0.4-1.6-0.6-2.9-0.6H239v5.2H238.9z"/>
	<path class="st0" d="M273.2,380.2h4.1l-6.6,19.3h-4.3l-6.5-19.3h4.1l3.6,11.5c0.2,0.7,0.4,1.5,0.6,2.4s0.3,1.5,0.4,1.9
		c0.1-0.8,0.4-2.2,1-4.2L273.2,380.2z"/>
	<path class="st0" d="M281.2,399.5v-19.3h4.1v19.3H281.2z"/>
	<path class="st0" d="M302.9,394.2c0,1.7-0.6,3.1-1.9,4.1s-3,1.5-5.2,1.5c-2.1,0-3.9-0.4-5.5-1.2v-3.8c1.3,0.6,2.4,1,3.3,1.2
		s1.7,0.4,2.5,0.4c0.9,0,1.6-0.2,2.1-0.5s0.7-0.9,0.7-1.5c0-0.4-0.1-0.7-0.3-1c-0.2-0.3-0.5-0.6-0.9-0.9s-1.2-0.7-2.5-1.3
		c-1.2-0.6-2.1-1.1-2.6-1.6s-1.1-1.1-1.4-1.8c-0.3-0.7-0.5-1.5-0.5-2.4c0-1.7,0.6-3,1.7-4c1.2-1,2.8-1.5,4.8-1.5c1,0,2,0.1,2.9,0.4
		c0.9,0.2,1.9,0.6,2.9,1l-1.5,3.3c-1-0.4-1.9-0.7-2.6-0.9c-0.7-0.2-1.3-0.3-2-0.3c-0.8,0-1.4,0.2-1.8,0.5s-0.6,0.8-0.6,1.4
		c0,0.4,0.1,0.7,0.3,0.9c0.2,0.3,0.4,0.5,0.8,0.8s1.2,0.7,2.6,1.4c1.8,0.9,3,1.7,3.7,2.6C302.6,391.8,302.9,393,302.9,394.2z"/>
	<path class="st0" d="M323.4,380.2v12.5c0,1.4-0.3,2.7-1,3.7s-1.6,1.9-2.8,2.5c-1.2,0.6-2.6,0.9-4.3,0.9c-2.5,0-4.4-0.6-5.8-1.9
		s-2.1-3-2.1-5.2v-12.4h4.1v11.8c0,1.5,0.3,2.6,0.9,3.3c0.6,0.7,1.6,1,3,1c1.3,0,2.3-0.3,2.9-1s0.9-1.8,0.9-3.3v-11.8h4.2
		L323.4,380.2L323.4,380.2z"/>
	<path class="st0" d="M341.2,399.5l-1.4-4.6h-7l-1.4,4.6H327l6.8-19.4h5l6.8,19.4H341.2z M338.9,391.5c-1.3-4.2-2-6.5-2.2-7.1
		c-0.2-0.5-0.3-1-0.3-1.3c-0.3,1.1-1.1,3.9-2.5,8.3L338.9,391.5L338.9,391.5z"/>
	<path class="st0" d="M349.5,399.5v-19.3h4.1v15.9h7.8v3.4H349.5z"/>
	<path class="st0" d="M385.8,394.2c0,1.7-0.6,3.1-1.9,4.1s-3,1.5-5.2,1.5c-2.1,0-3.9-0.4-5.5-1.2v-3.8c1.3,0.6,2.4,1,3.3,1.2
		s1.7,0.4,2.5,0.4c0.9,0,1.6-0.2,2.1-0.5s0.7-0.9,0.7-1.5c0-0.4-0.1-0.7-0.3-1c-0.2-0.3-0.5-0.6-0.9-0.9s-1.2-0.7-2.5-1.3
		c-1.2-0.6-2.1-1.1-2.7-1.6s-1.1-1.1-1.4-1.8c-0.3-0.7-0.5-1.5-0.5-2.4c0-1.7,0.6-3,1.7-4c1.2-1,2.8-1.5,4.8-1.5c1,0,2,0.1,2.9,0.4
		c0.9,0.2,1.9,0.6,2.9,1l-1.3,3.2c-1-0.4-1.9-0.7-2.6-0.9s-1.3-0.3-2-0.3c-0.8,0-1.4,0.2-1.8,0.5s-0.6,0.8-0.6,1.4
		c0,0.4,0.1,0.7,0.3,0.9c0.2,0.3,0.4,0.5,0.8,0.8s1.2,0.7,2.6,1.4c1.8,0.9,3,1.7,3.7,2.6C385.5,391.8,385.8,393,385.8,394.2z"/>
	<path class="st0" d="M398.1,399.5H394v-15.9h-5.2v-3.4h14.6v3.4h-5.2L398.1,399.5L398.1,399.5z"/>
	<path class="st0" d="M423.4,380.2v12.5c0,1.4-0.3,2.7-1,3.7c-0.6,1.1-1.6,1.9-2.8,2.5c-1.2,0.6-2.6,0.9-4.3,0.9
		c-2.5,0-4.4-0.6-5.8-1.9s-2.1-3-2.1-5.2v-12.4h4.1v11.8c0,1.5,0.3,2.6,0.9,3.3c0.6,0.7,1.6,1,3,1c1.3,0,2.3-0.3,2.9-1
		s0.9-1.8,0.9-3.3v-11.8h4.2L423.4,380.2L423.4,380.2z"/>
	<path class="st0" d="M445.4,389.8c0,3.2-0.9,5.6-2.7,7.3c-1.8,1.7-4.4,2.5-7.8,2.5h-5.5v-19.3h6.1c3.1,0,5.6,0.8,7.3,2.5
		C444.5,384.5,445.4,386.8,445.4,389.8z M441.2,389.8c0-4.1-1.8-6.2-5.5-6.2h-2.2v12.6h1.8C439.2,396.2,441.2,394,441.2,389.8z"/>
	<path class="st0" d="M450.8,399.5v-19.3h4.1v19.3H450.8z"/>
	<path class="st0" d="M478.5,389.8c0,3.2-0.8,5.6-2.4,7.4c-1.6,1.7-3.8,2.6-6.8,2.6s-5.2-0.9-6.8-2.6c-1.6-1.7-2.4-4.2-2.4-7.4
		c0-3.2,0.8-5.7,2.4-7.4c1.6-1.7,3.9-2.5,6.8-2.5s5.2,0.9,6.8,2.6S478.5,386.7,478.5,389.8z M464.5,389.8c0,2.2,0.4,3.8,1.2,4.9
		c0.8,1.1,2,1.6,3.7,1.6c3.3,0,4.9-2.2,4.9-6.5s-1.6-6.5-4.9-6.5c-1.6,0-2.9,0.5-3.7,1.6C464.9,386.2,464.5,387.8,464.5,389.8z"/>
	<path class="st0" d="M500.4,383.3c-1.5,0-2.7,0.6-3.6,1.7c-0.8,1.2-1.3,2.8-1.3,4.8c0,4.3,1.6,6.4,4.8,6.4c1.4,0,3-0.3,4.9-1v3.4
		c-1.6,0.7-3.3,1-5.3,1c-2.8,0-4.9-0.9-6.4-2.6s-2.2-4.1-2.2-7.3c0-2,0.4-3.8,1.1-5.3s1.8-2.7,3.1-3.5c1.4-0.8,3-1.2,4.8-1.2
		c1.9,0,3.8,0.5,5.6,1.4l-1.3,3.3c-0.7-0.3-1.4-0.6-2.2-0.9S501.1,383.3,500.4,383.3z"/>
	<path class="st0" d="M528.2,389.8c0,3.2-0.8,5.6-2.4,7.4c-1.6,1.7-3.8,2.6-6.8,2.6s-5.2-0.9-6.8-2.6s-2.4-4.2-2.4-7.4
		c0-3.2,0.8-5.7,2.4-7.4c1.6-1.7,3.9-2.5,6.8-2.5c3,0,5.2,0.9,6.8,2.6C527.5,384.2,528.2,386.7,528.2,389.8z M514.2,389.8
		c0,2.2,0.4,3.8,1.2,4.9s2,1.6,3.7,1.6c3.3,0,4.9-2.2,4.9-6.5s-1.6-6.5-4.9-6.5c-1.6,0-2.9,0.5-3.7,1.6
		C514.6,386.2,514.2,387.8,514.2,389.8z"/>
	<path class="st0" d="M549.5,389.8c0,3.2-0.9,5.6-2.7,7.3c-1.8,1.7-4.4,2.5-7.8,2.5h-5.5v-19.3h6.1c3.1,0,5.6,0.8,7.3,2.5
		C548.8,384.5,549.5,386.8,549.5,389.8z M545.4,389.8c0-4.1-1.8-6.2-5.5-6.2h-2.2v12.6h1.8C543.4,396.2,545.4,394,545.4,389.8z"/>
	<path class="st0" d="M566,399.5h-11v-19.3h11v3.3h-7v4.2h6.5v3.3H559v5h7V399.5z"/>
	<path class="st0" d="M578.2,394v-3.3h7.1v3.3H578.2z"/>
	<path class="st0" d="M267.2,435.5H253v-2.7l9.2-13.2h-9v-3.4H267v2.6l-9.2,13.3h9.5L267.2,435.5L267.2,435.5z"/>
	<path class="st0" d="M289.2,425.8c0,3.2-0.8,5.6-2.4,7.4c-1.6,1.7-3.8,2.6-6.8,2.6s-5.2-0.9-6.8-2.6c-1.6-1.7-2.4-4.2-2.4-7.4
		c0-3.2,0.8-5.7,2.4-7.4c1.6-1.7,3.9-2.5,6.8-2.5s5.2,0.9,6.8,2.6S289.2,422.7,289.2,425.8z M275.2,425.8c0,2.2,0.4,3.8,1.2,4.9
		c0.8,1.1,2,1.6,3.7,1.6c3.3,0,4.9-2.2,4.9-6.5s-1.6-6.5-4.9-6.5c-1.6,0-2.9,0.5-3.7,1.6C275.6,422.2,275.2,423.8,275.2,425.8z"/>
	<path class="st0" d="M313.2,435.5h-4.7l-2.6-10.1c-0.1-0.4-0.3-1.1-0.5-2.2s-0.4-1.9-0.4-2.3c-0.1,0.5-0.2,1.2-0.4,2.3
		c-0.2,1.1-0.4,1.8-0.5,2.2l-2.6,10.1h-4.6l-4.9-19.3h4l2.5,10.5c0.4,1.9,0.7,3.6,0.9,5c0.1-0.5,0.2-1.3,0.4-2.3
		c0.2-1.1,0.4-1.9,0.5-2.4l2.8-10.8h3.9l2.8,10.8c0.1,0.5,0.3,1.2,0.5,2.2s0.3,1.8,0.4,2.6c0.1-0.7,0.2-1.5,0.4-2.6
		c0.2-1,0.4-1.9,0.5-2.5l2.5-10.5h4L313.2,435.5z"/>
	<path class="st0" d="M333.1,435.5H322v-19.3h11.1v3.3h-7v4.2h6.5v3.3h-6.5v5h7V435.5z"/>
	<path class="st0" d="M357.9,416.2h4.1l-6.6,19.3h-4.5l-6.5-19.3h4.1l3.6,11.5c0.2,0.7,0.4,1.5,0.6,2.4s0.3,1.5,0.4,1.9
		c0.1-0.8,0.4-2.2,1-4.2L357.9,416.2z"/>
	<path class="st0" d="M374.5,435.5h-4.1v-11.2v-1.8l0.1-2c-0.7,0.7-1.1,1.1-1.4,1.3l-2.2,1.8l-2-2.5l6.2-4.9h3.3v19.3L374.5,435.5
		L374.5,435.5z"/>
</g>
</svg>
