<svg id="Layer_1" data-name="Layer 1" xmlns="http://www.w3.org/2000/svg" viewBox="0 0 792 353.85974">
  <defs>
    <style>
      .cls-1 {
        fill: #fff;
      }

      .cls-2 {
        fill: #0033a1;
      }

      .cls-3 {
        fill: #2a7de1;
      }
    </style>
  </defs>
  <g>
    <polygon class="cls-1" points="177.436 81.429 252.085 184.753 127.906 274.872 51 154.716 177.436 81.429"/>
    <polygon class="cls-2" points="168.197 136.32 181.956 55.782 29.202 156.633 81.719 155.81 153.203 105.713 168.197 136.32"/>
    <polygon class="cls-3" points="271.51 191.418 164.529 154.712 181.954 55.777 271.51 191.418"/>
    <polyline class="cls-2" points="131.223 229.511 139.675 241.691 216.405 187.184 203.42 168.057 159.152 198.91 164.527 154.716 271.508 191.416 125.787 294.202"/>
    <polygon class="cls-3" points="29.2 156.634 81.723 155.811 94.075 176.677 143.275 143.238 125.788 293.012 29.2 156.634"/>
    <path class="cls-3" d="M616.43188,91.2198h5.29468a6.88649,6.88649,0,0,1,4.63135,1.36975,4.52376,4.52376,0,0,1,1.62158,3.71611,4.67524,4.67524,0,0,1-1.62158,3.753,7.14738,7.14738,0,0,1-4.79108,1.382h-3.65466V110.433h-1.48035Zm1.48035,1.23459v7.69637h3.5625a5.57776,5.57776,0,0,0,3.65473-1.01963,3.84745,3.84745,0,0,0,.27819-5.434l-.00183-.002a.34623.34623,0,0,1-.043-.04916l-.19043-.20882a5.32875,5.32875,0,0,0-3.50732-1.038Z"/>
    <path class="cls-3" d="M633.06287,91.2198h4.90771a7.286,7.286,0,0,1,4.73572,1.35132,4.43481,4.43481,0,0,1,1.63385,3.61781,4.77214,4.77214,0,0,1-3.65466,4.6559,8.89073,8.89073,0,0,1,2.56134,2.94829l4.34875,6.63987h-1.77515l-3.34759-5.23325a12.51044,12.51044,0,0,0-2.59821-3.29232,4.84478,4.84478,0,0,0-2.73333-.65718h-2.65351v9.21962h-1.48016Zm1.48034,1.23459v7.52439h3.1756a6.18853,6.18853,0,0,0,3.73456-.98279,3.61965,3.61965,0,0,0,.42377-5.09814l-.44226-.44224a6.15326,6.15326,0,0,0-3.753-1.00121Z"/>
    <path class="cls-3" d="M660.37164,90.97532a10.00772,10.00772,0,0,1,7.21717,2.8623,9.627,9.627,0,0,1,.34509,13.61026l-.0011.00115c-.0368.03684-.07367.07372-.11047.11669l-.23346.2457a10.49872,10.49872,0,0,1-14.416,0,9.74546,9.74546,0,0,1-.20264-13.77108l.01227-.00615.19037-.19657a9.9506,9.9506,0,0,1,7.19885-2.8623m0,18.32252a8.2414,8.2414,0,0,0,6.0625-2.44461,8.58685,8.58685,0,0,0,0-12.05124,8.71124,8.71124,0,0,0-12.14337,0,8.50807,8.50807,0,0,0-.00061,12.03222l.00061.0006a8.30683,8.30683,0,0,0,6.08094,2.44461"/>
    <path class="cls-3" d="M678.02228,91.22163v19.25006a6.22853,6.22853,0,0,1-1.19159,4.34877,3.85011,3.85011,0,0,1-2.83173,1.21617q-.4422.01842-.88446,0l-.13513-1.38815a4.62185,4.62185,0,0,0,.86609.09826c1.812,0,2.69647-1.27147,2.69647-3.85122V91.22163Z"/>
    <polygon class="cls-3" points="695.057 91.222 695.057 92.456 686.071 92.456 686.071 100.134 694.824 100.134 694.824 101.387 686.071 101.387 686.071 109.182 695.266 109.182 695.266 110.429 684.585 110.429 684.585 91.222 695.057 91.222"/>
    <path class="cls-3" d="M716.59485,92.58949v1.61544A14.69813,14.69813,0,0,0,709.74,92.2824a8.06928,8.06928,0,0,0-5.96417,2.44466A8.24449,8.24449,0,0,0,701.368,100.808a8.144,8.144,0,0,0,2.40778,6.11777,8.47364,8.47364,0,0,0,6.17914,2.3709,14.51,14.51,0,0,0,6.83026-1.92252v1.53558a14.27086,14.27086,0,0,1-6.79346,1.79356,10.06853,10.06853,0,0,1-7.31549-2.81318A9.83524,9.83524,0,0,1,702.67,93.98389l.00617-.00583v-.00031a.70433.70433,0,0,0,.13513-.13515A10.0203,10.0203,0,0,1,709.918,91.011a16.13688,16.13688,0,0,1,6.75647,1.61544"/>
    <polygon class="cls-3" points="735.709 91.222 735.709 92.456 728.51 92.456 728.51 110.429 727.005 110.429 727.005 92.456 719.788 92.456 719.788 91.222 735.709 91.222"/>
    <polygon class="cls-3" points="416.797 111.778 410.365 111.778 410.365 99.444 404.592 106.582 404.076 106.582 398.277 99.444 398.277 111.778 392.043 111.778 392.043 90.495 397.86 90.495 404.401 98.48 410.961 90.495 416.797 90.495 416.797 111.778"/>
    <path class="cls-3" d="M445.53271,111.78065h-6.56613l-1.75055-4.31193h-9.238l-1.769,4.31193h-6.56616L429.059,90.49133h7.18036Zm-9.77856-8.02806-3.12033-7.69633-3.151,7.69633Z"/>
    <rect class="cls-3" x="448.38278" y="90.49559" width="6.40643" height="21.28314"/>
    <polygon class="cls-3" points="483.276 111.778 477.576 111.778 466.532 99.923 466.532 111.778 460.181 111.778 460.181 90.495 465.875 90.495 476.882 102.288 476.882 90.495 483.276 90.495 483.276 111.778"/>
    <polygon class="cls-3" points="503.871 103.156 495.039 103.156 495.039 111.779 488.626 111.779 488.626 90.49 503.871 90.49 503.871 94.765 495.039 94.765 495.039 98.887 503.871 98.887 503.871 103.156"/>
    <path class="cls-3" d="M528.795,111.77812h-6.89172l-1.67072-3.84509a16.48523,16.48523,0,0,0-1.65838-3.02815,3.571,3.571,0,0,0-1.43732-1.2285,5.21472,5.21472,0,0,0-1.812-.27026h-.71253v8.31674h-6.431V90.495h10.915a7.86806,7.86806,0,0,1,4.33033,1.07489,6.46352,6.46352,0,0,1,2.44458,2.59822,6.72661,6.72661,0,0,1,.731,2.92373,5.41336,5.41336,0,0,1-.61419,2.73334,4.99288,4.99288,0,0,1-1.30835,1.61543,14.60271,14.60271,0,0,1-1.56012.96434,5.90852,5.90852,0,0,1,1.69531,1.425,16.981,16.981,0,0,1,1.88568,3.2923Zm-8.716-14.56961a2.15344,2.15344,0,0,0-.98279-2.03921,6.283,6.283,0,0,0-3.13873-.5958H514.6123v5.14111h1.36976a7.19344,7.19344,0,0,0,3.23089-.52208A2.1491,2.1491,0,0,0,520.079,97.27"/>
    <path class="cls-3" d="M555.0719,111.78065h-6.56616l-1.73212-4.31193h-9.238l-1.769,4.31193H529.182l9.41-21.28932h7.10052Zm-9.77857-8.02806L542.173,96.05626l-3.13873,7.69633Z"/>
    <polygon class="cls-3" points="582.651 111.778 576.245 111.778 576.245 99.444 570.446 106.582 569.949 106.582 564.132 99.444 564.132 111.778 557.897 111.778 557.897 90.495 563.733 90.495 570.256 98.48 576.84 90.495 582.651 90.495 582.651 111.778"/>
    <polygon class="cls-3" points="604.074 111.778 588.024 111.778 588.024 90.495 603.804 90.495 603.804 94.764 594.449 94.764 594.449 98.652 603.38 98.652 603.38 102.945 594.449 102.945 594.449 107.485 604.074 107.485 604.074 111.778"/>
    <path class="cls-3" d="M312.35852,91.20565a11.03125,11.03125,0,0,1,8.06485,3.194,10.85709,10.85709,0,0,1,.3194,15.34967.18751.18751,0,0,0-.04917.04916l-.27026.26412a11.73657,11.73657,0,0,1-16.0929,0A10.89089,10.89089,0,0,1,304.12161,94.67l.20883-.215a11.08032,11.08032,0,0,1,8.02805-3.194m0,20.46a9.21921,9.21921,0,0,0,6.775-2.73332,9.62184,9.62184,0,0,0,0-13.47008,9.78987,9.78987,0,0,0-13.56839,0,9.50153,9.50153,0,0,0-.03286,13.43718l.0083.00834.02456.02456a9.2606,9.2606,0,0,0,6.79343,2.73332"/>
    <path class="cls-3" d="M327.77145,91.471h5.915a7.96059,7.96059,0,0,1,5.19641,1.52331,5.6126,5.6126,0,0,1-.1167,8.35356,8.0522,8.0522,0,0,1-5.33157,1.56014h-4.103v9.98742h-1.65228Zm1.65845,1.38815v8.66072h4.00476a6.42462,6.42462,0,0,0,4.07852-1.13633,4.34637,4.34637,0,0,0,.23343-6.13619.89439.89439,0,0,0-.215-.215,5.73784,5.73784,0,0,0-3.8451-1.17321Z"/>
    <polygon class="cls-3" points="355.568 91.474 355.568 92.862 345.519 92.862 345.519 101.443 355.304 101.443 355.304 102.831 345.519 102.831 345.519 111.547 355.82 111.547 355.82 112.935 343.867 112.935 343.867 91.474 355.568 91.474"/>
    <polygon class="cls-3" points="378.551 91.474 378.551 112.935 377.181 112.935 360.885 94.164 360.885 112.935 359.227 112.935 359.227 91.474 360.634 91.474 376.892 110.22 376.892 91.474 378.551 91.474"/>
    <path class="cls-2" d="M299.01526,230.94429l64.7915-75.394h-62.772V132.8315H397.128V152.521l-64.7915,75.394H397.128v22.71875H299.01523Z"/>
    <path class="cls-2" d="M410.42349,206.03706v-.33691c0-25.916,20.86817-46.95215,48.97266-46.95215,27.93555,0,48.63476,20.69922,48.63476,46.61623v.33593c0,25.917-20.86718,46.95313-48.97168,46.95313C431.12271,252.65327,410.42349,231.95406,410.42349,206.03706Zm72.36426,0v-.33691c0-13.29443-9.59277-24.90625-23.72852-24.90625-14.6416,0-23.39257,11.27539-23.39257,24.57033v.33593c0,13.29493,9.59277,24.90723,23.72949,24.90723,14.64062,0,23.39157-11.27539,23.39157-24.57033Z"/>
    <path class="cls-2" d="M515.09924,160.43062h25.917L555.48889,215.125,572.486,160.09419h22.0459l17.165,55.19873,14.80957-54.8623h25.41211l-28.10449,90.876H600.75842l-17.334-55.3667-17.66992,55.3667h-22.8877Z"/>
    <path class="cls-2" d="M658.98792,206.03706v-.33691c0-25.748,18.34375-46.95215,44.59667-46.95215,30.124,0,43.92383,23.39209,43.92383,48.97168,0,2.01955-.16894,4.376-.33691,6.73145H684.4c2.52344,11.6123,10.60157,17.67089,22.0459,17.67089,8.582,0,14.8086-2.69238,21.877-9.25585l14.6416,12.958c-8.415,10.43359-20.53125,16.8291-36.85547,16.8291C679.01428,252.65327,658.98792,233.63667,658.98792,206.03706Zm63.61328-7.57275c-1.51465-11.44383-8.2461-19.18506-19.01661-19.18506-10.60253,0-17.502,7.57276-19.52148,19.18506Z"/>
    <polygon class="cls-2" points="94.075 176.677 137.471 193.298 143.275 143.239 94.075 176.677"/>
  </g>
</svg>
