<svg id="Layer_1" data-name="Layer 1" xmlns="http://www.w3.org/2000/svg" viewBox="0 0 624.23506 359.26909"><defs><style>.cls-1{opacity:0.9;}</style></defs><polygon points="368.783 253.019 370.703 247.679 367.541 249.86 368.644 253.019 368.783 253.019"/><path d="M243.66282,75.85284a7.23854,7.23854,0,0,1-.48536,2.00848A7.238,7.238,0,0,0,243.66282,75.85284Z"/><path d="M252.58335,68.09314h-.00012a4.318,4.318,0,0,1,.775.02172A4.317,4.317,0,0,0,252.58335,68.09314Z"/><path d="M332.407,245.6773l.11486-1.07867c-.20861.0957-.39782.20209-.6173.29175Z"/><path d="M231.40036,70.10131c-.08227.0821-.15405.17048-.23144.25544.07922-.087.15283-.17719.23706-.26111Z"/><path d="M344.25254,134.51892a16.68011,16.68011,0,0,0-8.731,3.85858,16.68005,16.68005,0,0,1,8.731-3.85852Z"/><path d="M321.509,230.571v11.166h3.87793q3.90087,0,5.65332-1.44825a5.25581,5.25581,0,0,0,1.752-4.29882,4.6246,4.6246,0,0,0-1.89258-4.15723,10.37464,10.37464,0,0,0-5.69922-1.26172Z"/><path d="M548.77195,13.28833H464.886l37.481,54.34826A7.902,7.902,0,0,1,504.02671,68.83l.00085.00086a7.21817,7.21817,0,0,1,2.20337,4.40881l4.538,6.58008V66.86h1.11474V81.35614c.00281.02716-.00159.054.00086.08117L537.21409,118.166c18.46777,2.87622,26.99572,18.97308,26.99572,36.4223,0,.80518-.03662,1.68347-.089,2.59314l47.99671,69.59644V76.63391A63.34553,63.34553,0,0,0,548.77195,13.28833Zm-23.90308,68.036h-8.043v-14.464h7.886v.929h-6.767v5.782h6.59094v.944h-6.59094v5.87h6.92395ZM541.074,80.17987a10.7478,10.7478,0,0,1-5.11585,1.35064,7.58236,7.58236,0,0,1-5.50891-2.11847,7.40643,7.40643,0,0,1-.00464-10.472h.00025l.00439-.00464a.53209.53209,0,0,0,.10181-.10175,7.54552,7.54552,0,0,1,5.35156-2.13232,12.1506,12.1506,0,0,1,5.028,1.19122v-.0025l.06005.02771c-.01965-.00946-.0404-.01581-.06005-.02521V69.1065a11.069,11.069,0,0,0-5.162-1.44775,6.07681,6.07681,0,0,0-4.49133,1.84094,6.2083,6.2083,0,0,0-1.81311,4.57916,6.13226,6.13226,0,0,0,1.81311,4.607,6.38152,6.38152,0,0,0,4.65319,1.78546,10.92767,10.92767,0,0,0,5.14356-1.44782Zm14.25-12.39051h-5.421v13.535H548.77v-13.535h-5.43505v-.929h11.989Z"/><path d="M254.75974,74.16613a4.83739,4.83739,0,0,0,.70532-.40686,3.25634,3.25634,0,0,0,.96-1.6524,3.25571,3.25571,0,0,1-.96008,1.6524A4.83618,4.83618,0,0,1,254.75974,74.16613Z"/><path d="M256.31638,70.24682a3.26235,3.26235,0,0,0-.67554-1.10834.67574.67574,0,0,0-.162-.16192.67309.67309,0,0,1,.16186.16192A3.26081,3.26081,0,0,1,256.31638,70.24682Z"/><polygon points="327.095 70.501 327.095 70.501 329.445 76.296 327.095 70.501"/><path d="M413.32541,236.41088q-.35155-.93456-.96972-2.94336-.61963-2.00829-.85254-2.94335a52.44175,52.44175,0,0,1-1.84571,6.28418l-3.083,8.89941h9.95117Z"/><path d="M204.30246,148.19366l-37.20776,25.66-.35217.94623,86.273-59.49756H227.99485v-17.108h49.82763l14.449-9.96454-1.062,9.96454h9.14843v14.827L288.11045,127.273l-4.53186,42.52331h16.77929v17.108H281.75535l-4.4441,41.69953q3.999-3.27723,10.56592-3.2887,7.61572,0,11.77344,4.60156,4.15722,4.60254,4.15723,12.96485,0,8.33936-4.16895,12.96386-4.17041,4.626-11.80859,4.625-7.73145,0-11.87793-4.58984a13.764,13.764,0,0,1-1.355-1.81207l-3.14161,29.47857H415.9039l39.88917-27.50927-14.34754-23.24805H441.259l.11621,1.51856q.32665,4.34472.32715,7.94238v17.75293H436.634V225.85229h6.77343l16.749,27.07324h.13965q-.04687-.53613-.18653-3.91211-.14062-3.375-.14062-5.26757V225.85229h5.11621v23.77728l20.01367-13.8023v-5.18592H475.05491v-4.78906H485.5073l-26.5105-38.441h-.904l-71.64917,49.41236v23.18h-5.373V243.115c0-.75989.01-1.63874.02722-2.60462l-4.12121,2.84223-5.99683,16.65106H366.051l-2.554-7.355-7.14038,4.92419v2.43079H352.832l-23.69312,16.33978,2.39307-22.45593-4.51026-7.52545H321.509v13.6416h-5.582V225.85229h9.64648q5.6239,0,8.7544,1.79852l4.27343-40.10113c-16.657-3.52625-28.23169-17.41413-28.23169-34.22852v-.25372c0-19.14172,15.12171-34.73731,35.67115-35.32886L349.813,82.34033h-1.97412v-16.028H351.521l3.207-30.09344-15.814-22.9306H303.73215L173.30027,103.2398Zm204.187,77.519h6.07324l12.77734,34.291h-5.93262l-3.41015-9.4834h-13.0586l-3.33984,9.4834h-5.88672ZM338.95481,66.31323H343.779V82.34039h-4.82422Zm-14.55176-.00318h5.40723l6.99817,16.0318h-4.94458l-1.31824-3.24707h-6.95679l-1.33191,3.24707h-4.9447Zm-27.87512.00232h4.381l4.926,6.014,4.93994-6.014h4.394v16.028h-4.843v-9.289l-4.3479,5.376h-.38806l-4.36707-5.376v9.289h-4.69494Zm-24.71106.738h1.0581l12.2439,14.116v-14.116h1.249v16.161h-1.031l-12.272-14.136v14.136h-1.248Zm-11.5669,0h8.81092v1.045h-7.567v6.462h7.368v1.045h-7.368v6.564H269.251v1.045H260.25Zm-12.121-.00256h4.45423a5.99433,5.99433,0,0,1,3.9132,1.14709,4.22687,4.22687,0,0,1-.08776,6.29065,6.06423,6.06423,0,0,1-4.015,1.17481h-3.08972v7.521h-1.24439Zm-17.80945,2.40893.15723-.16192a8.34445,8.34445,0,0,1,6.04566-2.40522V66.848a8.307,8.307,0,0,1,6.07312,2.40521,8.176,8.176,0,0,1,.24047,11.559.14216.14216,0,0,0-.037.037l-.20349.19891a8.83825,8.83825,0,0,1-12.11878,0A8.20142,8.20142,0,0,1,230.31955,69.45672Z"/><path d="M287.8303,255.70581q4.97607,0,7.51074-3.22364,2.53417-3.22411,2.53418-9.60058,0-6.28419-2.51172-9.53125-2.51074-3.2461-7.48633-3.2461-5.02294,0-7.58008,3.2461-2.55761,3.24756-2.55761,9.53125,0,6.30615,2.54589,9.56543Q282.83128,255.70482,287.8303,255.70581Z"/><polygon points="231.388 80.22 231.388 80.22 231.407 80.239 231.388 80.22 231.388 80.22"/><polygon points="266.816 327.082 266.68 328.356 280.264 348.053 322.369 348.053 352.777 327.082 266.816 327.082"/><polygon points="35.821 327.082 35.821 283.547 109.807 283.547 12.118 141.896 12.118 329.61 12.118 348.053 154.292 348.053 139.83 327.082 35.821 327.082"/><path d="M75.46311,13.28833A63.34553,63.34553,0,0,0,12.11753,76.63391v40.8424l151.07519-104.188Z"/><polygon points="589.353 283.547 589.353 327.082 493.317 327.082 462.909 348.053 612.118 348.053 612.118 245.152 556.444 283.547 589.353 283.547"/><path d="M329.85337,148.25946a20.08242,20.08242,0,0,1,.58386-2.14411A20.08242,20.08242,0,0,0,329.85337,148.25946Z"/><path d="M330.42966,159.52093a19.91868,19.91868,0,0,1-.78247-3.14667A19.91868,19.91868,0,0,0,330.42966,159.52093Z"/><path d="M329.37888,152.81445v.00006a21.74543,21.74543,0,0,1,.47449-4.55505A21.74485,21.74485,0,0,0,329.37888,152.81445Z"/><path d="M333.40122,165.087a19.002,19.002,0,0,1-2.97156-5.5661A19.002,19.002,0,0,0,333.40122,165.087Z"/><path d="M469.30076,73.584a4.18025,4.18025,0,0,0,1.0603-.0708,4.1785,4.1785,0,0,1-1.06043.0708Z"/><path d="M472.22861,68.68566a.26288.26288,0,0,0,.03235.037l.00073.00067-.00049-.00067a.25354.25354,0,0,1-.03247-.03705l-.14343-.15722a4.01287,4.01287,0,0,0-2.64111-.78168h-.00012a4.01248,4.01248,0,0,1,2.64111.78168Z"/><path d="M472.053,72.81616a4.19954,4.19954,0,0,1-1.30884.62512A4.19827,4.19827,0,0,0,472.053,72.81616Z"/><path d="M472.05442,72.81481h.00012a2.871,2.871,0,0,0,.26428-.29217,2.88086,2.88086,0,0,1-.26587.29352Z"/><path d="M392.29307,72.86242a1.618,1.618,0,0,0,.516-.63836A1.61837,1.61837,0,0,1,392.29307,72.86242Z"/><g class="cls-1"><path d="M563.956,159.65728H516.68625c1.90039,8.74463,7.98352,13.307,16.60157,13.307,6.46276,0,11.15161-2.02747,16.47436-6.97009l11.02588,9.758c-6.33691,7.857-15.46094,12.6731-27.75391,12.6731-20.40356,0-35.48425-14.32037-35.48425-35.10413v-.25366c0-19.38946,13.8136-35.35712,33.58338-35.35712a39.483,39.483,0,0,1,6.08081.45557L511.8845,81.43731a4.68663,4.68663,0,0,1-.8982,3.19367,2.8995,2.8995,0,0,1-2.13232.91583q-.33307.01383-.666.00006l-.1018-1.04541a3.47688,3.47688,0,0,0,.65222.074c1.36462,0,2.03052-.95746,2.03052-2.90015V79.8197l-4.538-6.58008A7.23291,7.23291,0,0,1,504.28574,79.08c-.02771.02771-.05554.05542-.08325.08783l-.17578.185a7.906,7.906,0,0,1-10.85584,0,7.33868,7.33868,0,0,1-.15259-10.37024l.00916-.00464.14343-.148a7.909,7.909,0,0,1,9.19605-1.19336L464.886,13.28833H338.914l15.814,22.9306-3.207,30.09344h.606l8.28906,8.881v-8.881h4.81494v16.028h-4.292l-8.317-8.928v8.928h-2.809l-3.77221,35.39825c.40173-.01153.80175-.02826,1.20752-.02826,21.03674,0,36.62426,15.58753,36.62414,35.10413v.253c0,19.51666-15.714,35.35779-36.87781,35.35779a40.46309,40.46309,0,0,1-8.39331-.87555l-4.27343,40.10113a8.67822,8.67822,0,0,1,1.03369.678q3.17577,2.47559,3.17675,7.47461c0,4.04-2.02258,6.96283-6.01648,8.79517l-.11486,1.07867,9.145,14.32636h-6.3545l-3.66552-6.11615-2.39307,22.45593L352.832,260.00366H351.2883V225.85229h7.87207L367.541,249.8598l3.16187-2.18067,7.84521-21.82684h7.89551v10.97138l71.64917-49.41236h-4.39282l-13.053-41.694-13.306,41.694h-17.235l-20.911-68.434h19.517l10.89905,41.187,12.79895-41.44h16.602l12.926,41.567,11.152-41.314h19.137l-21.16491,68.434H458.9968l26.5105,38.441h15.21948v4.78906H490.68186v29.36231h-5.583V235.82727l-20.01367,13.8023v10.37409h-6.84473l-2.44738-3.96582L415.9039,283.54711H556.44358L612.11753,245.152v-18.3742l-47.99671-69.59644C564.07432,157.9898,564.0156,158.82263,563.956,159.65728ZM380.74,69.52838h-6.65112v3.10394H380.74v3.215h-6.65112v6.493H369.26v-16.031h11.48ZM394.31907,82.3399l-1.25818-2.89557a12.41249,12.41249,0,0,0-1.2489-2.28027,2.68887,2.68887,0,0,0-1.08228-.92505,3.92592,3.92592,0,0,0-1.3645-.20349h-.53662v6.26282h-4.84278V66.3128h8.21936a5.92467,5.92467,0,0,1,3.26087.80945,4.8657,4.8657,0,0,1,1.84094,1.9566,5.064,5.064,0,0,1,.55042,2.20166,4.07658,4.07658,0,0,1-.46241,2.05835,3.76036,3.76036,0,0,1-.98535,1.21643,10.99306,10.99306,0,0,1-1.1748.7262,4.44849,4.44849,0,0,1,1.27661,1.07306,12.79209,12.79209,0,0,1,1.42,2.47925l1.57727,3.5061Zm20.03271.00195-1.30432-3.24707h-6.95667l-1.332,3.24707h-4.95849l7.08618-16.0318h5.34692l7.063,16.0318Zm25.71314-.00152h-4.824v-9.289l-4.36694,5.376H430.5l-4.3811-5.376v9.289h-4.695v-16.028h4.395l4.912,6.014,4.958-6.014h4.376Zm16.13208,0H444.11094v-16.028h11.88293v3.215H448.949v2.928h6.72595v3.233H448.949v3.419h7.248Zm16.781-8.82569a5.38171,5.38171,0,0,1-3.60779,1.04071h-2.75207V81.327h-1.11487V66.85864h3.98718a5.18544,5.18544,0,0,1,3.48755,1.03149,3.40664,3.40664,0,0,1,1.22119,2.7984A3.52062,3.52062,0,0,1,472.978,73.51464ZM487.63425,81.327l-2.521-3.94092a9.42108,9.42108,0,0,0-1.95655-2.47924,3.64836,3.64836,0,0,0-2.05835-.49488h-1.998l-.00013,6.94275h-1.11474l.04162-14.49615h3.6958a5.48662,5.48662,0,0,1,3.56617,1.01764,3.33944,3.33944,0,0,1,1.23034,2.72436,3.59364,3.59364,0,0,1-2.75207,3.50611,6.69373,6.69373,0,0,1,1.92871,2.22015l3.2749,5.00018Z"/></g><path d="M388.82859,73.25555v.00006h1.03149a5.41349,5.41349,0,0,0,.62219.00733,5.41579,5.41579,0,0,1-.62219-.00739Z"/><path d="M481.50547,67.78833a4.62329,4.62329,0,0,1,1.34094.12378,4.62618,4.62618,0,0,0-1.34106-.12385h-2.36353l.00012,5.66626V67.78833Z"/><polygon points="292.271 88.23 277.822 98.194 291.209 98.194 292.271 88.23"/><polygon points="164.169 135.252 132.071 157.388 138.41 97.9 131.683 88.146 84.077 120.977 91.839 132.232 122.937 110.785 116.597 170.273 123.324 180.028 171.931 146.507 164.169 135.252"/><polygon points="283.579 169.796 288.11 127.273 251.567 169.796 283.579 169.796"/><g class="cls-1"><polygon points="266.816 327.082 139.83 327.082 154.292 348.053 280.264 348.053 266.68 328.356 266.816 327.082"/></g><g class="cls-1"><polygon points="352.777 327.082 322.369 348.053 462.909 348.053 493.317 327.082 352.777 327.082"/></g><g class="cls-1"><path d="M271.45578,283.54711l3.14161-29.47857c-1.85047-2.88678-2.79151-6.6214-2.79151-11.23383q0-8.45654,4.16992-12.98828a12.97358,12.97358,0,0,1,1.33545-1.24255l4.4441-41.69953h-55.2815v-14.827l48.791-56.775H253.01548l-86.273,59.49756.35217-.94623-53.69751,37.03217L50.70493,119.98053l90.90527-62.6922,31.69007,45.95147L303.73215,13.28833H163.19272L12.11753,117.47631V141.8955l97.68908,141.65161Zm-28.21337-57.69482h19.2705V230.571H248.77854v10.67481h12.87012V245.988H248.77854v14.01563h-5.53613Zm-42.252,0h6.77344l16.749,27.07324h.13965q-.04687-.53613-.18652-3.91211-.14062-3.375-.14063-5.26757V225.85229h5.11621v34.15137H222.5969L205.802,232.78979h-.18653l.11621,1.51856q.32667,4.34472.32715,7.94238v17.75293h-5.06836Zm-39.95117,3.99414q4.169-4.53077,11.90137-4.53125,7.61572,0,11.77344,4.60156,4.15722,4.60254,4.15722,12.96485,0,8.33936-4.16894,12.96386-4.17042,4.626-11.8086,4.625-7.73144,0-11.87793-4.58984-4.147-4.58935-4.14648-13.0459Q156.86936,234.37818,161.03928,229.84643ZM123.716,233.60815a13.913,13.913,0,0,1,5.64062-6.12012,17.06689,17.06689,0,0,1,8.667-2.126,21.519,21.519,0,0,1,9.66992,2.19531l-2.00879,4.64844a30.10754,30.10754,0,0,0-3.65527-1.43653,13.19016,13.19016,0,0,0-4.05274-.61914,9.20127,9.20127,0,0,0-7.56836,3.41113q-2.75684,3.41016-2.75683,9.41309,0,6.28418,2.65136,9.50781,2.65137,3.22266,7.67383,3.22364a20.15631,20.15631,0,0,0,4.2041-.43262q2.03321-.43214,4.22852-1.10938v4.78907a25.64876,25.64876,0,0,1-9.11035,1.51757q-7.49855,0-11.51563-4.543-4.01807-4.54248-4.01855-12.999A20.99656,20.99656,0,0,1,123.716,233.60815Z"/></g><g class="cls-1"><path d="M172.89377,255.70581q4.97609,0,7.51075-3.22364,2.53418-3.22411,2.53417-9.60058,0-6.28419-2.51171-9.53125-2.51074-3.2461-7.48633-3.2461-5.02295,0-7.58008,3.2461-2.55762,3.24756-2.55762,9.53125,0,6.30615,2.5459,9.56543Q167.89476,255.70482,172.89377,255.70581Z"/></g><path d="M346.9946,134.312a17.4554,17.4554,0,0,1,8.86121,2.33355,17.45543,17.45543,0,0,0-8.86121-2.33361,19.89493,19.89493,0,0,0-2.74206.207v.00006A19.89637,19.89637,0,0,1,346.9946,134.312Z"/><path d="M494.01218,69.55664c-.06323.06317-.11767.1314-.17761.19647.06018-.06525.11475-.13367.1781-.197Z"/><path d="M497.95261,80.44055a6.24321,6.24321,0,0,0,.63916.01782v.01385h.00012v-.01385A6.24556,6.24556,0,0,1,497.95261,80.44055Z"/><path d="M381.42112,231.52905h-.18653l-4.25805,11.82355,4.12121-2.84223c.02124-1.19153.05432-2.52386.10169-4.02917Q381.32688,232.39282,381.42112,231.52905Z"/><path d="M355.9592,231.48217q.397,6.3545.39746,11.91309v14.17761l7.14038-4.92419-7.35034-21.16651Z"/><path d="M392.54831,70.12622a1.61858,1.61858,0,0,0-.343-.29346,4.73112,4.73112,0,0,0-2.36377-.44867h-1.01294v3.87146h1.03149a5.41551,5.41551,0,0,0,2.433-.39313,1.61757,1.61757,0,0,0,.65222-1.44775v-.04633a1.62147,1.62147,0,0,0-.397-1.24212Z"/><path d="M484.66453,68.8753l-.333-.333a4.80513,4.80513,0,0,0-2.82605-.754h-2.36353v5.66619h2.39124a4.66014,4.66014,0,0,0,2.81225-.74011A2.72551,2.72551,0,0,0,484.66453,68.8753Z"/><path d="M472.84885,69.71344a2.91682,2.91682,0,0,0-.17346-.37488c-.02417-.04663-.03894-.09644-.0658-.142a2.951,2.951,0,0,0-.24487-.33331c-.03662-.0456-.06335-.096-.103-.14l-.00073-.00067a.26288.26288,0,0,1-.03235-.037l-.14343-.15728a4.01248,4.01248,0,0,0-2.64111-.78168l-2.82593.04156V73.584h2.68249a4.1785,4.1785,0,0,0,1.06043-.0708c.12793-.02313.25793-.037.383-.072a4.19954,4.19954,0,0,0,1.30884-.62512,2.88086,2.88086,0,0,0,.26587-.29352c.0409-.04858.09131-.09143.12854-.14209a2.83734,2.83734,0,0,0,.214-.3606c.02332-.04394.05542-.084.07642-.12884a2.86932,2.86932,0,0,0,.15088-.42786c.00976-.034.02685-.06592.03527-.10016a2.8797,2.8797,0,0,0,.06019-.407c.00488-.048.01855-.09491.021-.14313a2.89656,2.89656,0,0,0-.01843-.415c-.00427-.04669.00012-.09375-.00635-.14019a2.8885,2.8885,0,0,0-.1012-.41877C472.86692,69.79748,472.863,69.75445,472.84885,69.71344Z"/><path d="M340.42063,170.477l3.83191-35.958a16.68005,16.68005,0,0,0-8.731,3.85852,16.95687,16.95687,0,0,0-4.27771,5.70929,19.01356,19.01356,0,0,0-.80664,2.02856,20.08242,20.08242,0,0,0-.58386,2.14411,21.74543,21.74543,0,0,0-.47449,4.55505v.25293a20.42651,20.42651,0,0,0,.26831,3.30682,19.91868,19.91868,0,0,0,.78247,3.14667,19.002,19.002,0,0,0,2.97156,5.5661A17.20594,17.20594,0,0,0,340.42063,170.477Z"/><g class="cls-1"><path d="M344.25254,134.519l-3.83191,35.958a17.701,17.701,0,0,0,6.82764,1.34668c11.025,0,17.615-8.49085,17.615-18.50251v-.25366a20.21031,20.21031,0,0,0-.18811-2.71881,19.80858,19.80858,0,0,0-2.19568-6.76843,18.36691,18.36691,0,0,0-2.36609-3.41181c-.06665-.07556-.12488-.15869-.19275-.233a17.2467,17.2467,0,0,0-4.06482-3.28992,17.4554,17.4554,0,0,0-8.86121-2.33355A19.89637,19.89637,0,0,0,344.25254,134.519Z"/></g><polygon points="407.219 76.296 411.933 76.296 409.583 70.501 407.219 76.296"/><path d="M254.75974,74.16613a4.83618,4.83618,0,0,0,.7052-.40686,3.25571,3.25571,0,0,0,.96008-1.6524,3.26729,3.26729,0,0,0-.7843-2.96839.67309.67309,0,0,0-.16186-.16192,4.3205,4.3205,0,0,0-2.89563-.88342H249.3779V74.615h3.01575A4.83779,4.83779,0,0,0,254.75974,74.16613Z"/><g class="cls-1"><path d="M526.94211,133.75524a12.84339,12.84339,0,0,0-4.61267,2.46784,15.01058,15.01058,0,0,0-3.42151,4.1698,22.4204,22.4204,0,0,0-2.47534,7.22565h29.021c-.09912-.74939-.23853-1.46924-.39673-2.17438a16.62684,16.62684,0,0,0-5.04614-9.12982c-.09363-.08112-.19336-.154-.28919-.23224a13.246,13.246,0,0,0-8.58838-2.91077A14.70939,14.70939,0,0,0,526.94211,133.75524Z"/></g><polygon points="329.445 76.296 327.095 70.501 324.722 76.296 329.445 76.296"/><path d="M230.89451,79.67193c.08471.10437.18078.20233.27246.30292.074.08136.14209.166.22058.24469l.00061.00055.01843.01855a7.36174,7.36174,0,0,0,10.21765,0,7.2672,7.2672,0,0,0,.906-1.12921,7.21516,7.21516,0,0,0,1.13257-3.25659q.0324-.34213.03247-.686a7.28943,7.28943,0,0,0-.1294-1.36707q-.06481-.33848-.16186-.67114a7.20361,7.20361,0,0,0-1.07593-2.1994,6.74653,6.74653,0,0,0-3.76343-2.60212,7.36825,7.36825,0,0,0-7.15808,1.76795l-.00061.00055c-.08423.08392-.15784.17413-.23706.26111-.08618.09466-.17749.18628-.25757.2843-.07068.08618-.131.17767-.1969.26636-.07715.10376-.15906.20513-.23.312-.05823.08777-.10632.18-.16028.26971-.06787.11279-.14013.22376-.201.33936-.04724.08966-.08484.1828-.12805.27392-.05688.11988-.11792.23822-.16772.36048-.04248.10418-.07447.21136-.11182.31707-.03967.11231-.08435.22315-.11829.33692-.0321.10791-.05383.21808-.08068.32715-.02845.11468-.06189.22839-.08448.344-.02014.10327-.03027.20783-.04577.31177-.01844.12274-.04163.24493-.05359.36829-.01074.11053-.011.22155-.0166.33233-.00611.11786-.01709.23548-.01734.35346-.00024.10955.01.21881.01489.32824.00513.11927.00538.23877.01661.35767.01.10736.03051.21362.04541.3205.01684.12023.02856.24114.05151.36059.01953.10144.04907.20111.073.30182.0293.12323.05383.24731.0896.36914.03247.11041.07568.218.11352.327.038.10931.0708.22.11426.32775.04443.11036.09985.21705.15.3255.048.10358.09057.209.14367.31073.0503.096.11084.18781.16577.282.064.10962.12317.22137.19349.32824.06872.1045.14843.20362.22326.30518C230.761,79.48938,230.82248,79.58337,230.89451,79.67193Z"/><path d="M494.01267,69.55615c-.06335.06329-.11792.13171-.1781.197-.0885.09607-.18054.19006-.26209.29-.03015.037-.05481.07678-.084.11426-.10327.13262-.20581.26574-.29736.40429a6.35365,6.35365,0,0,0-.56714,1.07324c-.00574.01374-.01331.02686-.0188.04065-.04517.11121-.07984.22528-.11841.33832-.02844.08313-.06226.16486-.08716.2489-.01477.05011-.02344.10138-.037.15174-.04017.14886-.08033.29785-.1095.44873-.0105.054-.01453.10888-.02356.16314-.02478.14844-.05017.29682-.06433.44635-.0083.08716-.00782.17475-.0127.26209-.00635.11731-.01672.2345-.01672.35193,0,.11206.01013.22394.016.33587.00488.09278.00452.18567.01343.2782.01147.12006.03344.23889.05163.35828.01282.08368.02014.168.03626.25122.02685.13837.06445.27478.10034.4115.0166.06274.02783.12659.04614.1889.0249.08405.05872.16577.08716.2489.03857.113.07324.22718.11841.33832.00549.0138.01306.02692.0188.04065a6.35753,6.35753,0,0,0,.56738,1.07349c.04175.06317.09131.12237.1355.18438.08008.11237.15759.22608.24585.33423.01648.02021.03613.03864.053.05872.12256.14642.24939.2904.387.42792a6.25518,6.25518,0,0,0,4.57922,1.841v.01385a6.20576,6.20576,0,0,0,4.56531-1.84094,6.4662,6.4662,0,0,0,0-9.07513A6.56,6.56,0,0,0,494.01267,69.55615Z"/><path d="M472.60959,69.19659c.02686.04553.04163.09534.0658.142"/><path d="M472.84885,69.71344c.01416.041.01807.084.03027.12548"/><path d="M472.98411,70.95605c.00488-.048.01855-.09491.021-.14313"/><path d="M472.88865,71.46325c.00976-.034.02685-.06592.03527-.10016"/><path d="M472.66135,72.02c.02332-.04394.05542-.084.07642-.12884"/><path d="M472.31882,72.52264c.0409-.04858.09131-.09143.12854-.14209"/><path d="M470.36106,73.51324c.12793-.02313.25793-.037.383-.072"/><path d="M472.98032,70.25769c.00647.04644.00208.0935.00635.14019"/><path d="M493.57248,70.04315c.08155-.1.17359-.194.26209-.29"/><path d="M496.113,80.00854a6.25514,6.25514,0,0,1-1.62671-.96149"/><path d="M492.13584,74.08679c0-.11743.01037-.23462.01672-.35193"/><path d="M492.25315,72.86328c.02917-.15088.06933-.29987.1095-.44873"/><path d="M493.19114,70.5617c.09155-.13855.19409-.27167.29736-.40429"/><path d="M492.48679,76.15966c.03857.113.07324.22718.11841.33832"/><path d="M492.6052,71.67559c.00549-.01379.01306-.02691.0188-.04065"/><path d="M492.39963,72.26281c.0249-.084.05872-.16577.08716-.2489"/><path d="M493.57273,78.13073c-.08826-.10815-.16577-.22186-.24585-.33423"/><path d="M492.21689,75.05914c.01282.08368.02014.168.03626.25122"/><path d="M492.35349,75.72186c.0166.06274.02783.12659.04614.1889"/><path d="M492.15183,74.42266c.00488.09278.00452.18567.01343.2782"/><path d="M492.16526,73.47277c.01416-.14953.03955-.29791.06433-.44635"/><path d="M392.2053,69.83276a4.73238,4.73238,0,0,0-1.75476-.45178"/><path d="M392.54831,70.12622a1.62147,1.62147,0,0,1,.38111.791"/><path d="M229.3303,75.83984c-.01123-.1189-.01148-.2384-.01661-.35767"/><path d="M229.42722,76.52093c-.023-.11945-.03467-.24036-.05151-.36059"/><path d="M230.47056,79.09307c-.07032-.10687-.12952-.21862-.19349-.32824"/><path d="M243.404,73.12866a7.19631,7.19631,0,0,0-.51783-1.29273"/><path d="M242.8862,71.83593a7.19555,7.19555,0,0,0-.5581-.90667"/><path d="M231.16892,70.35675c-.08618.09466-.17749.18628-.25757.2843"/><path d="M230.1113,78.48284c-.0531-.10168-.0957-.20715-.14367-.31073"/><path d="M230.89451,79.67193c-.072-.08856-.13355-.18255-.20069-.27368"/><path d="M243.56589,73.7998a7.28943,7.28943,0,0,1,.1294,1.36707"/><path d="M229.8176,77.84661c-.04346-.10772-.07629-.21844-.11426-.32775"/><path d="M229.58982,77.19189c-.03577-.12183-.0603-.24591-.0896-.36914"/><path d="M230.71445,70.90741c-.07715.10376-.15906.20513-.23.312"/><path d="M229.31614,74.80047c-.00611.11786-.01709.23548-.01734.35346"/><path d="M229.51658,73.444c-.02845.11468-.06189.22839-.08448.344"/><path d="M229.38633,74.09985c-.01844.12274-.04163.24493-.05359.36829"/><path d="M230.32419,71.48913c-.06787.11279-.14013.22376-.201.33936"/><path d="M229.99509,72.10241c-.05688.11988-.11792.23822-.16772.36048"/><path d="M229.71555,72.78c-.03967.11231-.08435.22315-.11829.33692"/><path d="M359.92063,139.93542c.06787.07434.1261.15747.19275.233"/><path d="M114.00705,294.24a7.52045,7.52045,0,0,0-5.00293,1.52734,5.20179,5.20179,0,0,0-1.80957,4.19727,5.30162,5.30162,0,0,0,.55079,2.47753,6.23837,6.23837,0,0,0,1.47265,1.85743,12.32943,12.32943,0,0,0,2.7666,1.666,25.07909,25.07909,0,0,1,2.60743,1.36231,3.69625,3.69625,0,0,1,.9707.88769,1.76567,1.76567,0,0,1,.33008,1.05274,1.83749,1.83749,0,0,1-.75,1.59668,3.67227,3.67227,0,0,1-2.1543.53613,10.22908,10.22908,0,0,1-2.58008-.3711,23.51167,23.51167,0,0,1-3.44726-1.28027v3.96387a12.81159,12.81159,0,0,0,5.69726,1.21094,8.5212,8.5212,0,0,0,5.457-1.56934,5.19957,5.19957,0,0,0,1.96094-4.29395,5.27711,5.27711,0,0,0-1.0459-3.32324,10.76829,10.76829,0,0,0-3.86719-2.7041,25.53844,25.53844,0,0,1-2.7041-1.41113,2.8537,2.8537,0,0,1-.833-.81153,1.8274,1.8274,0,0,1-.26171-.98437,1.86185,1.86185,0,0,1,.64746-1.47266,2.741,2.741,0,0,1,1.85742-.56445,8.60029,8.60029,0,0,1,2.07129.26172,20.17076,20.17076,0,0,1,2.66308.92187l.69178-1.66711-1.74158-2.52521c-.18359-.05438-.37317-.12286-.55371-.17A11.79548,11.79548,0,0,0,114.00705,294.24Z"/><path d="M119.97971,295.657a21.10841,21.10841,0,0,0-2.42578-.87592l1.74158,2.52521Z"/><path d="M144.30393,306.81811a5.18212,5.18212,0,0,1-.94336,3.43359,3.80192,3.80192,0,0,1-3.03418,1.09473,3.88858,3.88858,0,0,1-3.09668-1.08789,5.15781,5.15781,0,0,1-.93555-3.41309V294.52807h-4.25293v12.96485a7.05175,7.05175,0,0,0,2.14746,5.44238,8.53453,8.53453,0,0,0,6.02735,1.98926,10.30572,10.30572,0,0,0,4.459-.89454,6.49873,6.49873,0,0,0,2.88379-2.57421,7.505,7.505,0,0,0,.99707-3.90821V294.52807h-4.25195Z"/><path d="M173.93284,296.10424a8.55029,8.55029,0,0,0-5.56739-1.57617h-6.42676v20.1211h4.26661v-7.15625h1.83007a8.67843,8.67843,0,0,0,5.77344-1.72071,6.14809,6.14809,0,0,0,2.03028-4.96777A5.74713,5.74713,0,0,0,173.93284,296.10424Zm-3.37891,7.11524a4.67344,4.67344,0,0,1-2.94531.77734H166.2053v-5.97265h1.94043a3.83389,3.83389,0,0,1,2.5664.71582,2.79014,2.79014,0,0,1,.81934,2.21582A2.72237,2.72237,0,0,1,170.55393,303.21948Z"/><path d="M200.08713,296.10424a8.55024,8.55024,0,0,0-5.56738-1.57617H188.093v20.1211h4.2666v-7.15625h1.83008a8.67845,8.67845,0,0,0,5.77344-1.72071,6.14812,6.14812,0,0,0,2.03027-4.96777A5.7471,5.7471,0,0,0,200.08713,296.10424Zm-3.3789,7.11524a4.67347,4.67347,0,0,1-2.94532.77734h-1.40332v-5.97265H194.3a3.83392,3.83392,0,0,1,2.56641.71582,2.79014,2.79014,0,0,1,.81934,2.21582A2.72239,2.72239,0,0,1,196.70823,303.21948Z"/><path d="M222.9592,294.21167q-4.63916,0-7.12207,2.64941-2.48437,2.6499-2.48437,7.67285t2.47754,7.707q2.477,2.68359,7.10156,2.6836,4.623,0,7.10058-2.6836,2.47705-2.68359,2.47754-7.67969,0-5.00976-2.45605-7.67968Q227.59592,294.21264,222.9592,294.21167Zm-.02734,17.13476a4.47828,4.47828,0,0,1-3.82617-1.707,10.67461,10.67461,0,0,1,.01367-10.16309,4.50726,4.50726,0,0,1,3.83984-1.71386q5.07861,0,5.07813,6.79882Q228.03733,311.34643,222.93186,311.34643Z"/><path d="M258.05784,303.7146a5.9507,5.9507,0,0,0-.99122-7.69239q-1.96728-1.49413-6.06835-1.49414H245.135v20.1211h4.26661v-7.72071h2.2705l4.80274,7.72071h4.73437q-1.37549-1.98194-5.918-8.76661A6.46086,6.46086,0,0,0,258.05784,303.7146Zm-4.29395-.92872a5.26012,5.26012,0,0,1-2.98633.67481h-1.376v-5.43652h1.293a5.976,5.976,0,0,1,3.04883.60546,2.20265,2.20265,0,0,1,.98438,2.03711A2.40625,2.40625,0,0,1,253.76389,302.78588Z"/><polygon points="270.23 298.079 275.694 298.079 275.694 314.649 279.959 314.649 279.959 298.079 285.423 298.079 285.423 294.528 270.285 294.528 270.23 295.051 270.23 298.079"/><polygon points="270.23 295.051 270.285 294.528 270.23 294.528 270.23 295.051"/><path d="M317.01877,307.49292h1.83008a8.67847,8.67847,0,0,0,5.77344-1.72071,6.14812,6.14812,0,0,0,2.03027-4.96777,5.7471,5.7471,0,0,0-1.90625-4.7002,8.55024,8.55024,0,0,0-5.56738-1.57617h-6.42676v20.1211h4.2666Zm0-9.46875h1.94043a3.83392,3.83392,0,0,1,2.56641.71582,2.79013,2.79013,0,0,1,.81933,2.21582,2.72239,2.72239,0,0,1-.97753,2.26367,4.67347,4.67347,0,0,1-2.94532.77734h-1.40332Z"/><path d="M343.17307,306.92846h2.27051l4.80273,7.72071h4.73438q-1.3755-1.98194-5.918-8.76661a6.46082,6.46082,0,0,0,2.7666-2.168,5.95068,5.95068,0,0,0-.99121-7.69239q-1.96728-1.49413-6.06836-1.49414h-5.86328v20.1211h4.2666Zm0-8.90429h1.293a5.976,5.976,0,0,1,3.04883.60546,2.20265,2.20265,0,0,1,.98437,2.03711,2.40625,2.40625,0,0,1-.96387,2.11914,5.26006,5.26006,0,0,1-2.98632.67481h-1.376Z"/><path d="M374.65354,311.34643a4.47828,4.47828,0,0,1-3.82617-1.707,10.67461,10.67461,0,0,1,.01367-10.16309,4.50726,4.50726,0,0,1,3.83984-1.71386q5.07861,0,5.07813,6.79882a9.12836,9.12836,0,0,1-.98621,4.593l5.43189-3.74609c.01257-.279.027-.55621.027-.84693q0-5.00976-2.45605-7.67968-2.458-2.669-7.09473-2.66992-4.63916,0-7.12207,2.64941-2.48437,2.6499-2.48437,7.67285t2.47754,7.707a7.90474,7.90474,0,0,0,3.56982,2.18976l4.61108-3.17993A6.41456,6.41456,0,0,1,374.65354,311.34643Z"/><path d="M381.75412,312.241a10.43052,10.43052,0,0,0,2.45057-6.83276l-5.43189,3.74609a4.14691,4.14691,0,0,1-3.03992,2.0965l-4.61108,3.17993a11.98017,11.98017,0,0,0,3.53174.49384Q379.27658,314.92456,381.75412,312.241Z"/><polygon points="398.633 294.528 394.325 294.528 395.398 297.689 398.874 295.291 398.633 294.528"/><path d="M405.803,314.64917l6.83985-20.1211h-4.30762l-3.81152,11.97363a35.08478,35.08478,0,0,0-1.03223,4.43165q-.08349-.55079-.41992-1.96094-.33691-1.41065-.6543-2.47071l-3.54285-11.21026L395.3978,297.689l5.75379,16.96021Z"/><rect x="423.6301" y="294.52807" width="4.2666" height="20.12109"/><path d="M455.28244,312.00659q2.82862-2.64258,2.82813-7.61035a9.569,9.569,0,0,0-2.72461-7.26661q-2.72462-2.60156-7.65137-2.60156h-6.31738v20.1211h5.69727Q452.45529,314.64917,455.28244,312.00659Zm-9.59863-13.98242h2.27051q5.72462,0,5.72559,6.48242,0,6.61962-6.166,6.61914h-1.83008Z"/><polygon points="482.324 311.126 475.003 311.126 475.003 305.937 481.816 305.937 481.816 302.442 475.003 302.442 475.003 298.024 482.324 298.024 482.324 294.528 470.737 294.528 470.737 314.649 482.324 314.649 482.324 311.126"/><path d="M499.24436,306.92846h2.27051l4.80273,7.72071H511.052q-1.3755-1.98194-5.918-8.76661a6.46082,6.46082,0,0,0,2.7666-2.168,5.95068,5.95068,0,0,0-.99121-7.69239q-1.9673-1.49413-6.06836-1.49414h-5.86328v20.1211h4.2666Zm0-8.90429h1.293a5.976,5.976,0,0,1,3.04883.60546,2.20265,2.20265,0,0,1,.98437,2.03711,2.40625,2.40625,0,0,1-.96387,2.11914,5.26006,5.26006,0,0,1-2.98632.67481h-1.376Z"/></svg>