<?xml version="1.0" encoding="utf-8"?>
<!-- Generator: Adobe Illustrator 24.2.1, SVG Export Plug-In . SVG Version: 6.00 Build 0)  -->
<svg version="1.1" id="Layer_1" xmlns="http://www.w3.org/2000/svg" xmlns:xlink="http://www.w3.org/1999/xlink" x="0px" y="0px"
	 viewBox="0 0 974.8 274.3" style="enable-background:new 0 0 974.8 274.3;" xml:space="preserve">
<style type="text/css">
	.st0{fill:none;}
	.st1{fill:#231F20;}
	.st2{fill:#2A7DE1;}
	.st3{fill:#0033A1;}
	.st4{fill:#FFFFFF;}
	.st5{fill:#007BE9;}
</style>
<path class="st1" d="M797.2,20.7h5.2c2.4,0.2,4.9-0.5,6.8-2c1.6-1.3,2.4-3.3,2.3-5.4c0.1-2-0.8-4-2.3-5.3c-1.9-1.4-4.3-2.1-6.6-1.9
	H795v27.4h2.1V20.7z M797.2,7.9l5.4,0c1.8-0.1,3.6,0.4,5,1.5c1.2,1,1.8,2.5,1.7,4c0.1,1.6-0.6,3.1-1.8,4.1c-1.5,1.1-3.4,1.6-5.2,1.5
	h-5.1V7.9z"/>
<path class="st1" d="M820.9,20.3h3.7c1.4-0.1,2.7,0.2,3.9,0.9c1.5,1.4,2.7,2.9,3.7,4.7l4.8,7.5h2.5l-6.2-9.5
	c-0.9-1.7-2.1-3.1-3.6-4.2c3.1-0.8,5.2-3.5,5.2-6.7c0.1-2-0.8-3.9-2.3-5.2c-2-1.4-4.3-2.1-6.7-1.9h-7v27.4h2.1V20.3z M820.9,7.9h4.5
	c1.9-0.1,3.8,0.4,5.4,1.4c1.2,0.9,1.9,2.4,1.9,3.9c0.1,1.5-0.6,3-1.8,4c-1.6,1-3.4,1.5-5.3,1.4h-4.6V7.9z"/>
<path class="st1" d="M868,29.8c2.8-2.6,4.3-6.2,4.2-10c0.1-3.8-1.5-7.4-4.2-10c-2.7-2.7-6.5-4.2-10.3-4.1c-3.8-0.1-7.5,1.4-10.3,4.1
	c-2.7,2.6-4.3,6.2-4.2,10c-0.1,3.8,1.5,7.4,4.2,10C853.2,35.2,862.3,35.2,868,29.8z M849.1,11.2c2.3-2.3,5.4-3.6,8.7-3.5
	c3.2-0.1,6.4,1.2,8.6,3.5c2.3,2.3,3.6,5.4,3.5,8.6c0.1,3.2-1.2,6.3-3.5,8.6c-2.3,2.3-5.4,3.6-8.6,3.5c-3.3,0.1-6.4-1.2-8.7-3.5
	c-2.3-2.2-3.6-5.3-3.6-8.6C845.5,16.6,846.8,13.4,849.1,11.2z"/>
<path class="st1" d="M877.2,41.5c1.5,0,3-0.6,4-1.7c1.3-1.8,1.9-4,1.7-6.3V6.1h-2.1v28c0,3.7-1.3,5.5-3.8,5.5
	c-0.4,0-0.8-0.1-1.3-0.2l0.2,2C876.3,41.4,876.7,41.5,877.2,41.5z"/>
<polygon class="st1" points="907.6,31.7 894.4,31.7 894.4,20.6 906.9,20.6 906.9,18.8 894.4,18.8 894.4,7.9 907.2,7.9 907.2,6.1 
	892.3,6.1 892.3,33.5 907.6,33.5 "/>
<path class="st1" d="M928.5,33.8c3.4,0,6.7-0.9,9.7-2.6v-2.2c-3,1.7-6.3,2.7-9.7,2.8c-3.3,0.1-6.5-1.1-8.8-3.4
	c-2.3-2.3-3.6-5.4-3.5-8.7c-0.1-3.2,1.2-6.4,3.4-8.7c2.2-2.3,5.3-3.6,8.5-3.5c3.4,0.1,6.8,1,9.8,2.6V8c-3-1.5-6.3-2.2-9.6-2.3
	c-3.8-0.1-7.4,1.4-10.1,4c-2.8,2.6-4.3,6.3-4.3,10.1c-0.1,3.8,1.4,7.4,4.2,10C920.9,32.5,924.7,34,928.5,33.8z"/>
<polygon class="st1" points="942.5,7.9 952.8,7.9 952.8,33.5 955,33.5 955,7.9 965.2,7.9 965.2,6.1 942.5,6.1 "/>
<polygon class="st1" points="483.7,17.8 492,28 492.7,28 501,17.8 501,35.4 510.2,35.4 510.2,5 501.8,5 492.5,16.4 483.1,5 474.8,5 
	474.8,35.4 483.7,35.4 "/>
<path class="st1" d="M526.1,29.3h13.2l2.5,6.2h9.4L537.8,5h-10.1l-13.4,30.4h9.4L526.1,29.3z M532.8,12.9l4.4,11.1h-8.9L532.8,12.9z
	"/>
<rect x="555.2" y="5" class="st1" width="9.2" height="30.4"/>
<polygon class="st1" points="581.1,18.5 596.9,35.4 605,35.4 605,5 595.9,5 595.9,21.9 580.2,5 572.1,5 572.1,35.4 581.1,35.4 "/>
<polygon class="st1" points="621.8,23.1 634.4,23.1 634.4,17 621.8,17 621.8,11.1 634.4,11.1 634.4,5 612.7,5 612.7,35.4 
	621.8,35.4 "/>
<path class="st1" d="M649.7,23.6h1c0.9,0,1.7,0.1,2.6,0.4c0.8,0.4,1.5,1,2,1.8c0.9,1.4,1.7,2.8,2.4,4.3l2.4,5.4h9.8l-3.1-6.6
	c-0.7-1.7-1.6-3.3-2.6-4.7c-0.7-0.8-1.5-1.5-2.4-2c0.8-0.4,1.5-0.9,2.2-1.4c0.8-0.6,1.4-1.4,1.9-2.3c0.6-1.2,0.9-2.5,0.9-3.9
	c0-1.5-0.4-2.9-1.1-4.2c-0.8-1.5-2-2.8-3.5-3.7c-1.9-1.1-4-1.6-6.2-1.5h-15.6v30.4h9.2V23.6z M649.7,10.9h1.9
	c1.5-0.1,3.1,0.2,4.5,0.8c1,0.6,1.5,1.8,1.4,2.9h0c0.1,1.1-0.3,2.2-1.2,2.8c-1.4,0.6-3,0.9-4.6,0.7h-2V10.9z"/>
<path class="st1" d="M682.4,29.3h13.2l2.5,6.2h9.4L694.1,5H684l-13.4,30.4h9.4L682.4,29.3z M689.1,12.9l4.4,11.1h-8.9L689.1,12.9z"
	/>
<polygon class="st1" points="720.4,17.8 728.7,28 729.4,28 737.7,17.8 737.7,35.4 746.8,35.4 746.8,5 738.5,5 729.2,16.4 719.8,5 
	711.5,5 711.5,35.4 720.4,35.4 "/>
<polygon class="st1" points="777.4,29.3 763.7,29.3 763.7,22.8 776.4,22.8 776.4,16.7 763.7,16.7 763.7,11.1 777,11.1 777,5 
	754.5,5 754.5,35.4 777.4,35.4 "/>
<path class="st1" d="M372.7,32.9c3.1-2.9,4.8-6.9,4.7-11.1c0.1-4.2-1.6-8.3-4.7-11.1c-3.1-3-7.2-4.7-11.5-4.6
	c-4.3-0.1-8.4,1.6-11.5,4.6c-3.1,2.9-4.8,6.9-4.7,11.1c-0.1,4.2,1.6,8.2,4.7,11.1C356.1,39,366.2,39,372.7,32.9z M351.5,12.2
	c2.6-2.6,6.1-4,9.7-3.9c3.6-0.1,7.1,1.3,9.7,3.9c2.6,2.5,4,6,3.9,9.6c0.1,3.6-1.3,7.1-3.9,9.6c-2.5,2.6-6,4-9.7,3.9
	c-3.6,0.1-7.1-1.3-9.7-3.9c-2.6-2.5-4-6-4-9.6C347.5,18.1,348.9,14.7,351.5,12.2z"/>
<path class="st1" d="M385.5,22.8h5.8c2.7,0.2,5.4-0.6,7.6-2.2c1.7-1.5,2.7-3.7,2.6-6c0.1-2.3-0.8-4.4-2.6-5.9
	c-2.1-1.6-4.8-2.3-7.4-2.2h-8.4v30.6h2.4V22.8z M385.5,8.4h6c2-0.1,4,0.5,5.6,1.7c1.3,1.1,2,2.8,1.9,4.5c0.1,1.8-0.6,3.5-2,4.6
	c-1.7,1.2-3.8,1.8-5.8,1.6h-5.7V8.4z"/>
<polygon class="st1" points="423.1,35.1 408.5,35.1 408.5,22.7 422.4,22.7 422.4,20.7 408.5,20.7 408.5,8.4 422.8,8.4 422.8,6.4 
	406.1,6.4 406.1,37.1 423.1,37.1 "/>
<polygon class="st1" points="430.4,10.3 453.6,37.1 455.6,37.1 455.6,6.4 453.2,6.4 453.2,33.2 430,6.4 428,6.4 428,37.1 
	430.4,37.1 "/>
<path class="st1" d="M395.1,188.9c23.2,0,37-8.3,49.4-21.5l-16.9-17c-9.5,8.6-17.9,14.1-31.7,14.1c-20.7,0-35-17.2-35-37.9v-0.3
	c0-20.7,14.6-37.5,35-37.5c12.1,0,21.5,5.2,30.8,13.6l16.9-19.5c-11.2-11-24.8-18.6-47.5-18.6c-37,0-62.9,28.1-62.9,62.3v0.3
	C333.3,161.6,359.6,188.9,395.1,188.9z"/>
<path class="st1" d="M695.8,97.8v-0.3c0-8.3-2.8-15-8.3-20.5c-6.9-6.9-17.7-10.7-31.5-10.7h-56v120.6h57.4c27.2,0,45.1-11,45.1-33.1
	v-0.3c0-16.2-8.6-24.3-22.6-29.6C688.6,119,695.8,111.4,695.8,97.8z M625.9,89.6h26.2c11.2,0,17.4,4.5,17.4,12.4v0.3
	c0,9-7.4,12.7-19.1,12.7h-24.5V89.6z M676.2,150.5c0,9-7.1,13.1-18.8,13.1h-31.5v-26.5h30.7c13.6,0,19.6,5,19.6,13.1V150.5z"/>
<path class="st1" d="M842.9,126.6v-0.3c0-34.3-26.7-62-63.9-62s-64.2,28.1-64.2,62.3v0.3c0,34.3,26.7,62,63.9,62
	C815.9,188.9,842.9,160.9,842.9,126.6z M742.5,126.6v-0.3c0-20.7,14.8-37.5,36.2-37.5c21.4,0,36.5,17.2,36.5,37.9v0.3
	c0,20.7-14.8,37.5-36.2,37.5C757.6,164.5,742.5,147.3,742.5,126.6z"/>
<polygon class="st1" points="888.7,66.3 862.2,66.3 862.2,186.9 948.8,186.9 948.8,162.8 888.7,162.8 "/>
<path class="st1" d="M374.1,226c-2.5-2.4-6.2-3.6-11-3.6H351L340.6,261h4.4l3.7-13.7h9.2c6.7,0,12.1-1.8,15.4-5.1
	c2.3-2.3,3.6-5.3,3.6-9C376.9,230.2,375.9,227.8,374.1,226z M369.9,239.7c-2.4,2.4-6.5,3.7-11.9,3.7h-8.3l4.5-17h8.7
	c3.5,0,6.1,0.8,7.7,2.4c1.2,1.3,1.8,2.8,1.8,4.6C372.3,236.1,371.5,238.2,369.9,239.7z"/>
<path class="st1" d="M386.6,240l1.9-7.4h-4.2l-7.6,28.5h4.2l3-11.2c2.3-8.6,8.5-13.2,14.7-13.2h0.3l1.2-4.6
	C394.5,231.7,390.1,235,386.6,240z"/>
<path class="st1" d="M417.1,231.9c-4.5,0-8.6,2-11.6,5c-3.2,3.1-5.1,7.4-5.1,12c0,7.4,5.1,12.8,13,12.8c4.5,0,8.7-2,11.7-5
	c3.1-3.2,5.1-7.5,5.1-12C430.1,237.3,424.9,231.9,417.1,231.9z M421.7,254.4c-2.2,2.2-5,3.5-8.1,3.5c-5.3,0-8.9-3.3-8.9-9.1
	c0-3.5,1.6-7.1,4.1-9.5c2.2-2.2,5-3.6,8.1-3.6c5.3,0,8.9,3.4,8.9,9.2C425.8,248.3,424.2,251.8,421.7,254.4z"/>
<path class="st1" d="M462.3,238.8c-1.6-3.4-4.4-6.8-10.5-6.8c-4.1,0-8.2,1.8-11.2,4.7c-2.9,2.9-4.8,6.8-4.8,11.4
	c0,6.8,5.6,10.8,11.6,10.8c4.7,0,8-2.2,10.9-5.1l-0.8,2.9c-0.8,2.9-1.8,5.1-3.6,6.8c-1.7,1.8-4.4,2.9-8,2.9c-4.4,0-8.2-1.7-11.2-4.3
	l-2.6,3c3.5,3.1,8.7,5,13.9,5c4.9,0,8.4-1.4,11-4c2-2,3.4-4.6,4.6-9l6.5-24.4h-4.2L462.3,238.8z M457.3,251.4
	c-2.3,2.3-5.4,3.7-8.7,3.7c-4.4,0-8.3-2.6-8.3-7.7c0-3.4,1.4-6.3,3.5-8.4c2.2-2.2,5.1-3.5,8.2-3.5c5.5,0,8.8,3.9,8.8,8
	C460.8,246.5,459.5,249.3,457.3,251.4z"/>
<path class="st1" d="M492.3,236.6l1.2-4.6c-5.7-0.3-10.1,3-13.6,7.9l1.9-7.4h-4.2L470,261h4.2l3-11.2c2.3-8.6,8.5-13.2,14.7-13.2
	H492.3z"/>
<path class="st1" d="M507.8,232.1c-3.7,0-6.6,0.7-9.4,1.7l0.7,3.5c2.5-0.9,5-1.5,8-1.5c5.2,0,7.7,2.1,7.7,5.8c0,0.8-0.2,1.8-0.4,2.6
	l-0.2,0.7c-2.8-0.8-6.3-1.5-10.1-1.5c-4.2,0-7.7,1.3-10,3.5c-1.7,1.7-2.7,4-2.7,6.8c0,5.1,4.2,7.9,9,7.9c4.5,0,8-2,10.6-5.1L510,261
	h4.1l4.3-16.2c0.4-1.3,0.6-2.7,0.6-3.9C519,235.4,515,232.1,507.8,232.1z M513,249.8c-1.4,5-6.4,8.5-11.2,8.5c-3.7,0-6.1-2-6.1-5.1
	c0-1.7,0.6-3.1,1.8-4.3c1.5-1.5,3.8-2.4,6.7-2.4c3.5,0,6.8,0.6,9.3,1.3L513,249.8z"/>
<path class="st1" d="M562.8,231.9c-5.1,0-8.9,2.5-11.5,6.5c-0.8-3.4-3.4-6.5-8.1-6.5c-4.2,0-6.9,2.3-9.5,5.2l1.2-4.6h-4.2l-7.6,28.5
	h4.2l4.3-16.1c1.4-5.3,5.7-9.2,9.9-9.2c3.7,0,6,2.3,6,6c0,0.9-0.2,2.3-0.4,3.2l-4.3,16.2h4.2l4.3-16.1c1.4-5.3,5.7-9.2,9.9-9.2
	c3.6,0,5.9,2.3,5.9,6c0,0.9-0.2,2.3-0.4,3.2l-4.3,16.2h4.2l4.2-15.9c0.4-1.5,0.8-3.1,0.8-4.4C571.5,235.4,568,231.9,562.8,231.9z"/>
<path class="st1" d="M615.3,231.9c-5.1,0-8.9,2.5-11.5,6.5c-0.8-3.4-3.4-6.5-8.1-6.5c-4.2,0-6.9,2.3-9.5,5.2l1.2-4.6h-4.2l-7.6,28.5
	h4.2l4.3-16.1c1.4-5.3,5.7-9.2,9.9-9.2c3.7,0,6,2.3,6,6c0,0.9-0.2,2.3-0.4,3.2l-4.3,16.2h4.2l4.3-16.1c1.4-5.3,5.7-9.2,9.9-9.2
	c3.6,0,5.9,2.3,5.9,6c0,0.9-0.2,2.3-0.4,3.2l-4.3,16.2h4.2l4.2-15.9c0.4-1.5,0.8-3.1,0.8-4.4C624,235.4,620.4,231.9,615.3,231.9z"/>
<polygon class="st1" points="628.5,261 632.7,261 640.4,232.5 636.2,232.5 "/>
<polygon class="st1" points="638.8,221.6 637.5,226.3 642.4,226.3 643.7,221.6 "/>
<path class="st1" d="M663.2,231.9c-4.4,0-7.4,2.3-9.9,5.2l1.2-4.6h-4.2l-7.6,28.5h4.2l4.3-16.1c1.5-5.4,5.9-9.2,10.3-9.2
	c4,0,6.3,2.2,6.3,6c0,0.9-0.2,2.3-0.4,3.2l-4.4,16.2h4.2l4.2-15.9c0.3-1.5,0.7-3.1,0.7-4.4C672.3,235.3,668.7,231.9,663.2,231.9z"/>
<path class="st1" d="M705.1,238.8c-1.6-3.4-4.4-6.8-10.5-6.8c-4.1,0-8.2,1.8-11.2,4.7c-2.9,2.9-4.8,6.8-4.8,11.4
	c0,6.8,5.6,10.8,11.6,10.8c4.7,0,8-2.2,10.9-5.1l-0.8,2.9c-0.8,2.9-1.8,5.1-3.6,6.8c-1.7,1.8-4.4,2.9-8,2.9c-4.4,0-8.2-1.7-11.2-4.3
	l-2.6,3c3.5,3.1,8.7,5,13.9,5c4.9,0,8.4-1.4,11-4c2-2,3.4-4.6,4.6-9l6.5-24.4h-4.2L705.1,238.8z M700.1,251.4
	c-2.3,2.3-5.4,3.7-8.7,3.7c-4.4,0-8.3-2.6-8.3-7.7c0-3.4,1.4-6.3,3.5-8.4c2.2-2.2,5.1-3.5,8.2-3.5c5.5,0,8.8,3.9,8.8,8
	C703.6,246.5,702.3,249.3,700.1,251.4z"/>
<path class="st1" d="M756.3,221.8c-6.1,0-11.7,2.6-15.9,6.8c-4.5,4.5-7.3,10.7-7.3,17.2c0,9.9,7.3,16,16.4,16
	c6.9,0,11.5-2.9,15.1-6.5l-2.9-2.9c-3.3,3.2-6.8,5.2-12,5.2c-7,0-12.1-4.6-12.1-12.1c0-5.5,2.4-10.8,6.1-14.6
	c3.2-3.1,7.4-5.2,12.1-5.2c5.7,0,8.8,2.5,11.2,6.6l3.7-2.3C768.3,225.3,763.5,221.8,756.3,221.8z"/>
<path class="st1" d="M787.9,231.9c-4.5,0-8.6,2-11.6,5c-3.2,3.1-5.1,7.4-5.1,12c0,7.4,5.1,12.8,13,12.8c4.5,0,8.7-2,11.7-5
	c3.1-3.2,5.1-7.5,5.1-12C800.9,237.3,795.7,231.9,787.9,231.9z M792.5,254.4c-2.2,2.2-5,3.5-8.1,3.5c-5.3,0-8.9-3.3-8.9-9.1
	c0-3.5,1.6-7.1,4.1-9.5c2.2-2.2,5-3.6,8.1-3.6c5.3,0,8.9,3.4,8.9,9.2C796.6,248.3,795,251.8,792.5,254.4z"/>
<path class="st1" d="M827.9,248.6c-1.5,5.5-5.9,9.3-10.3,9.3c-4,0-6.4-2.2-6.4-6c0-0.9,0.2-2.3,0.4-3.2l4.3-16.2h-4.2l-4.2,15.9
	c-0.4,1.5-0.7,3.1-0.7,4.4c0,5.4,3.6,8.8,9.1,8.8c4.4,0,7.3-2.3,9.9-5.2l-1.2,4.6h4.2l7.7-28.5h-4.2L827.9,248.6z"/>
<path class="st1" d="M860.6,236.6l1.2-4.6c-5.7-0.3-10.1,3-13.6,7.9l1.9-7.4H846l-7.6,28.5h4.2l3-11.2c2.3-8.6,8.5-13.2,14.7-13.2
	H860.6z"/>
<path class="st1" d="M864.8,240.7c0,4,2.9,5.8,8,7.8c4.1,1.6,5.4,3,5.4,4.9c0,2.9-3,4.7-6.3,4.7c-3.4,0-6.8-1.2-9.9-4.2l-2.8,2.8
	c3.3,3.3,7.9,5,12.3,5c6.1,0,10.9-3.7,10.9-9c0-3.7-2.6-5.7-7.8-7.8c-4.5-1.8-5.7-3-5.7-4.9c0-2.4,2.2-4.5,6.2-4.5
	c3.1,0,6.1,1.4,8.4,3.3l2.5-2.9c-2.4-2-6.3-3.9-10.5-3.9C869,231.9,864.8,235.8,864.8,240.7z"/>
<path class="st1" d="M906.2,231.9c-4.4,0-8.3,1.9-11.2,4.8c-3.4,3.4-5.4,8.1-5.4,12.8c0,7.1,5,12.1,12.3,12.1
	c5.1,0,8.5-1.8,11.5-4.2l-2.1-2.8c-2.6,2.1-5.3,3.4-9,3.4c-5.2,0-8.4-3.6-8.4-8.7c0-0.4,0-0.8,0.1-1.2h22.3c0.6-1.7,1-3.5,1-5.4
	C917.2,236.9,913.4,231.9,906.2,231.9z M912.8,245h-18.4c0.7-2.3,1.9-4.5,3.6-6.1c2.1-2,4.8-3.4,7.9-3.4c4.9,0,7.1,3.4,7.1,7.3
	C913.1,243.8,912.9,244.5,912.8,245z"/>
<path class="st1" d="M452.6,126.9c0,34.3,26.7,62,63.9,62c37.2,0,64.2-28.1,64.2-62.3v-0.3c0-34.3-26.7-62-63.9-62
	s-64.2,28.1-64.2,62.3V126.9z M480.4,126.3c0-20.7,14.8-37.5,36.2-37.5c21.4,0,36.5,17.2,36.5,37.9v0.3c0,20.7-14.8,37.5-36.2,37.5
	c-21.4,0-36.5-17.2-36.5-37.9V126.3z"/>
<g>
	<path class="st1" d="M9.6,261h293V55.5H9.6V261z M255.3,233.6H47.4v-10h207.9V233.6z M255.3,213.5H47.4v-10h207.9V213.5z
		 M255.3,173.3H47.4v-10h207.9V173.3z M255.3,153.2H47.4v-10h207.9V153.2z M255.3,113H47.4v-10h207.9V113z M38.4,82.9h139.3v10H38.4
		V82.9z M38.4,123.1h139.3v10H38.4V123.1z M38.4,183.4h139.3v10H38.4V183.4z"/>
	<path class="st1" d="M9.6,5.7v39.7h293V5.7H9.6z M31,34.2c-4.6,0-8.4-3.8-8.4-8.4c0-4.6,3.8-8.4,8.4-8.4c4.6,0,8.4,3.8,8.4,8.4
		C39.4,30.4,35.7,34.2,31,34.2z M59,34.2c-4.6,0-8.4-3.8-8.4-8.4c0-4.6,3.8-8.4,8.4-8.4c4.6,0,8.4,3.8,8.4,8.4
		C67.3,30.4,63.6,34.2,59,34.2z M86.7,34.2c-4.6,0-8.4-3.8-8.4-8.4c0-4.6,3.8-8.4,8.4-8.4c4.6,0,8.4,3.8,8.4,8.4
		C95.1,30.4,91.4,34.2,86.7,34.2z"/>
</g>
</svg>
