<?xml version="1.0" encoding="UTF-8"?><svg xmlns="http://www.w3.org/2000/svg" viewBox="0 0 624.23506 469.28291"><defs><style>.cls-1{fill:none;}.cls-1,.cls-2,.cls-3,.cls-4,.cls-5{stroke-width:0px;}.cls-2{opacity:.7;}.cls-2,.cls-3,.cls-4,.cls-5{fill:#fff;}.cls-3,.cls-6{opacity:.8;}.cls-4{opacity:.9;}</style></defs><g id="Layer_1"><path class="cls-5" d="M608.3584,355.91258v103.77036H15.55862v-103.77036h592.79978M611.95849,352.31258H11.95849v110.97034h600v-110.97034Z"/><path class="cls-5" d="M110.16139,396.29099h-13.75195v-23.16211h13.75195v5.02246h-7.49414v3.64355h6.93945v5.02246h-6.93945v4.37207h7.49414v5.10156Z"/><path class="cls-5" d="M137.5149,396.29099h-7.24023l-4.51562-7.24023-4.4668,7.24023h-7.08203l7.68359-11.85059-7.22461-11.31152h6.93945l4.18262,7.16113,4.02344-7.16113h7.14551l-7.33496,11.80273,7.88965,11.35938Z"/><path class="cls-5" d="M159.35572,380.49607c0,2.58789-.76367,4.58594-2.29004,5.99609-1.52539,1.41016-3.69336,2.11523-6.50293,2.11523h-1.75879v7.68359h-6.25781v-23.16211h8.0166c2.92578,0,5.12207.63965,6.59082,1.91699,1.46777,1.27832,2.20215,3.09473,2.20215,5.4502ZM148.80397,383.50584h1.14062c.94043,0,1.6875-.26367,2.24219-.79199s.83203-1.25684.83203-2.18652c0-1.5625-.86621-2.34473-2.59863-2.34473h-1.61621v5.32324Z"/><path class="cls-5" d="M165.47975,396.29099v-23.16211h6.25781v18.1084h8.91992v5.05371h-15.17773Z"/><path class="cls-5" d="M208.47096,384.67869c0,3.89648-.95605,6.85938-2.86719,8.8877-1.91211,2.02734-4.71094,3.04102-8.39648,3.04102-3.63379,0-6.41895-1.01855-8.35742-3.05762-1.93848-2.03809-2.90723-5.00586-2.90723-8.90332,0-3.85449.96387-6.79883,2.8916-8.83203,1.92676-2.0332,4.72852-3.0498,8.4043-3.0498,3.68555,0,6.47949,1.00879,8.38086,3.02637,1.90137,2.0166,2.85156,4.97949,2.85156,8.8877ZM192.53346,384.67869c0,4.47754,1.55762,6.7168,4.67383,6.7168,1.58398,0,2.75879-.54395,3.52441-1.63184s1.14844-2.78223,1.14844-5.08496c0-2.31348-.3877-4.02148-1.16406-5.125s-1.93555-1.65625-3.47754-1.65625c-3.13672,0-4.70508,2.26074-4.70508,6.78125Z"/><path class="cls-5" d="M221.34498,387.86228v8.42871h-6.25781v-23.16211h7.58887c6.29492,0,9.44238,2.28125,9.44238,6.84375,0,2.68359-1.30957,4.75879-3.92871,6.22656l6.74805,10.0918h-7.09668l-4.91113-8.42871h-1.58496ZM221.34498,383.1572h1.17285c2.18652,0,3.2793-.96582,3.2793-2.89941,0-1.59375-1.07227-2.3916-3.21582-2.3916h-1.23633v5.29102Z"/><path class="cls-5" d="M253.22975,396.29099h-13.75195v-23.16211h13.75195v5.02246h-7.49414v3.64355h6.93945v5.02246h-6.93945v4.37207h7.49414v5.10156Z"/><path class="cls-5" d="M265.97682,387.86228v8.42871h-6.25781v-23.16211h7.58887c6.29492,0,9.44238,2.28125,9.44238,6.84375,0,2.68359-1.30957,4.75879-3.92871,6.22656l6.74805,10.0918h-7.09668l-4.91113-8.42871h-1.58496ZM265.97682,383.1572h1.17285c2.18652,0,3.2793-.96582,3.2793-2.89941,0-1.59375-1.07227-2.3916-3.21582-2.3916h-1.23633v5.29102Z"/><path class="cls-5" d="M301.13502,396.29099h-6.16309v-23.16211h13.68848v5.02246h-7.52539v4.41992h6.93945v5.02246h-6.93945v8.69727Z"/><path class="cls-5" d="M336.56862,384.67869c0,3.89648-.95605,6.85938-2.86719,8.8877-1.91211,2.02734-4.71094,3.04102-8.39648,3.04102-3.63379,0-6.41895-1.01855-8.35742-3.05762-1.93848-2.03809-2.90723-5.00586-2.90723-8.90332,0-3.85449.96387-6.79883,2.8916-8.83203,1.92676-2.0332,4.72852-3.0498,8.4043-3.0498,3.68555,0,6.47949,1.00879,8.38086,3.02637,1.90137,2.0166,2.85156,4.97949,2.85156,8.8877ZM320.63112,384.67869c0,4.47754,1.55762,6.7168,4.67383,6.7168,1.58398,0,2.75879-.54395,3.52441-1.63184s1.14844-2.78223,1.14844-5.08496c0-2.31348-.3877-4.02148-1.16406-5.125s-1.93555-1.65625-3.47754-1.65625c-3.13672,0-4.70508,2.26074-4.70508,6.78125Z"/><path class="cls-5" d="M349.44166,387.86228v8.42871h-6.25781v-23.16211h7.58887c6.29492,0,9.44238,2.28125,9.44238,6.84375,0,2.68359-1.30957,4.75879-3.92871,6.22656l6.74805,10.0918h-7.09668l-4.91113-8.42871h-1.58496ZM349.44166,383.1572h1.17285c2.18652,0,3.2793-.96582,3.2793-2.89941,0-1.59375-1.07227-2.3916-3.21582-2.3916h-1.23633v5.29102Z"/><path class="cls-5" d="M378.43678,396.29099v-23.16211h6.29004v23.16211h-6.29004Z"/><path class="cls-5" d="M414.21901,396.29099h-8.20605l-8.45996-16.31836h-.14258c.2002,2.56738.30078,4.52637.30078,5.87793v10.44043h-5.54492v-23.16211h8.1748l8.42871,16.09668h.09473c-.14746-2.33398-.22168-4.20898-.22168-5.625v-10.47168h5.57617v23.16211Z"/><path class="cls-5" d="M431.87819,396.29099h-6.25781v-18.04492h-5.65625v-5.11719h17.55371v5.11719h-5.63965v18.04492Z"/><path class="cls-5" d="M457.01393,396.29099h-13.75195v-23.16211h13.75195v5.02246h-7.49414v3.64355h6.93945v5.02246h-6.93945v4.37207h7.49414v5.10156Z"/><path class="cls-5" d="M463.50221,396.29099v-23.16211h6.25781v18.1084h8.91992v5.05371h-15.17773Z"/><path class="cls-5" d="M484.82057,396.29099v-23.16211h6.25781v18.1084h8.91992v5.05371h-15.17773Z"/><path class="cls-5" d="M506.13795,396.29099v-23.16211h6.29004v23.16211h-6.29004Z"/><path class="cls-5" d="M518.04615,403.56248c-1.14062,0-2.22363-.11035-3.24805-.33203v-4.86426c.33789.06348.69727.13477,1.07715.21387s.79199.11914,1.23535.11914c1.03516,0,1.77441-.31152,2.21875-.93457.44336-.62402.66504-1.69043.66504-3.2002v-21.43555h6.28906v20.89648c0,3.13672-.68652,5.51074-2.05859,7.12109-1.37402,1.61035-3.43359,2.41602-6.17871,2.41602Z"/><g class="cls-6"><path class="cls-5" d="M265.79005,438.89735h-15.46542v-2.85683l9.96503-14.28592h-9.6952v-3.63864h14.92575v2.84269l-9.94971,14.30006h10.21955v3.63864Z"/><path class="cls-5" d="M284.65963,430.92308c0,1.32679-.17793,2.50157-.53378,3.52494-.35467,1.02337-.87195,1.88825-1.54949,2.59407-.67753.7064-1.49175,1.23959-2.44501,1.59957-.95208.35998-2.02553.54026-3.21916.54026-1.11822,0-2.14454-.18028-3.07777-.54026s-1.74391-.89316-2.43087-1.59957c-.68696-.70581-1.2172-1.5707-1.59191-2.59407-.37353-1.02337-.56088-2.19815-.56088-3.52494,0-1.76276.31225-3.2551.93794-4.47761s1.51649-2.15102,2.67242-2.78613c1.15593-.63452,2.53456-.95208,4.13589-.95208,1.48821,0,2.80793.31756,3.95915.95208,1.15122.63511,2.05616,1.56363,2.71484,2.78613s.98861,2.71484.98861,4.47761ZM273.67182,430.92308c0,1.04222.11312,1.91889.34053,2.62942.22742.71111.58327,1.24666,1.06638,1.60664s1.11351.53967,1.89002.53967c.76826,0,1.39041-.17969,1.86999-.53967.4784-.35998.82836-.89552,1.05106-1.60664.2227-.71053.33464-1.58719.33464-2.62942,0-1.05224-.11194-1.92596-.33464-2.62293-.2227-.69639-.57502-1.21956-1.05813-1.5707-.48429-.34996-1.11469-.52553-1.8912-.52553-1.1465,0-1.97839.39297-2.4945,1.1795-.5161.78712-.77415,1.96661-.77415,3.53967Z"/><path class="cls-5" d="M302.75859,438.89735l-1.22192-5.55812c-.06599-.33111-.17557-.82188-.32639-1.47113-.152-.64866-.31579-1.34505-.49136-2.08916s-.33582-1.43342-.48311-2.06854c-.14729-.63452-.25334-1.09937-.31932-1.39277h-.12844c-.06599.2934-.17086.75825-.31225,1.39277-.14258.63511-.30165,1.32679-.47604,2.07561-.17557.74823-.33936,1.45228-.49136,2.11096-.15082.65868-.26512,1.15829-.34053,1.49941l-1.27965,5.50098h-4.6626l-4.52003-15.89197h4.32207l1.83346,7.03632c.12255.49254.24156,1.07816.35467,1.75569.1143.67753.21563,1.3315.30636,1.96131.08955.6304.15789,1.13001.20621,1.5h.11312c.01885-.27514.05892-.63983.12137-1.09466.06127-.45483.13197-.92616.21328-1.41457.08013-.48782.15554-.92851.22742-1.32207.0707-.39297.1249-.66104.16261-.80302l1.9619-7.619h4.77572l1.86292,7.619c.06599.27514.15318.71111.26276,1.30793.10841.59682.20621,1.21072.29104,1.84053.08602.6304.13315,1.12529.14258,1.48586h.11312c.03771-.32227.10487-.80067.19914-1.43578.09544-.63511.20621-1.30086.33464-1.99725.12726-.69639.25805-1.29144.39002-1.78397l1.90534-7.03632h4.25019l-4.57776,15.89197h-4.71916Z"/><path class="cls-5" d="M322.62266,422.70727c1.46936,0,2.73487.28162,3.79536.84544,1.06166.56382,1.88177,1.38158,2.45915,2.45208.57855,1.07109.86724,2.37843.86724,3.92321v2.10389h-10.24901c.04831,1.2225.41477,2.18165,1.10173,2.87804.68696.69697,1.64257,1.04517,2.86449,1.04517,1.01453,0,1.94305-.10428,2.78672-.31284.8425-.20856,1.70974-.52082,2.60055-.93794v3.35467c-.78594.38826-1.6084.67282-2.46622.85251s-1.89709.27042-3.12018.27042c-1.59191,0-3.00117-.29399-4.22898-.88138-1.22663-.58739-2.18814-1.48291-2.8857-2.68656-.69639-1.20365-1.04399-2.71956-1.04399-4.54889,0-1.85703.31461-3.40416.94501-4.6408s1.50942-2.16575,2.63707-2.78613,2.4403-.93087,3.93676-.93087ZM322.65212,425.79151c-.84368,0-1.54242.26983-2.09741.81009-.55381.54026-.87431,1.38865-.95915,2.54458h6.08365c-.00943-.64454-.12608-1.21779-.34878-1.71975-.2227-.50255-.55381-.90023-.9945-1.19422-.44069-.2934-1.00157-.44069-1.68382-.44069Z"/><path class="cls-5" d="M347.52404,438.89735l-6.05537-15.89197h4.53417l3.0707,9.05478c.17086.53083.30518,1.08994.40534,1.67733.09898.58739.16732,1.11351.20621,1.57777h.11312c.02828-.50196.0978-1.03751.20621-1.60605s.25334-1.11822.43362-1.64906l3.05656-9.05478h4.53417l-6.05537,15.89197h-4.44933Z"/><path class="cls-5" d="M374.36611,422.76382c0,.95738-.19796,1.78633-.59623,2.48743-.39827.70169-.93676,1.27494-1.61312,1.72034-.67871.4454-1.43873.77239-2.2824.98036v.08543c1.6685.20856,2.93519.72054,3.80243,1.53535s1.30086,1.90475,1.30086,3.26924c0,1.21308-.29576,2.29831-.88845,3.2551-.59269.95738-1.50471,1.71092-2.73605,2.26001-1.23252.54969-2.81971.82482-4.76158.82482-1.1465,0-2.21524-.0925-3.2062-.27749-.98979-.185-1.92066-.46661-2.79261-.84544v-3.7388c.89081.45483,1.82404.79831,2.79968,1.03044.97683.23272,1.88649.34819,2.73016.34819,1.57305,0,2.6736-.27219,3.304-.81716s.94619-1.3097.94619-2.29536c0-.57796-.14729-1.06638-.44069-1.46406-.29458-.39827-.80361-.70169-1.52828-.91025-.72467-.20797-1.73684-.31225-3.03535-.31225h-1.57777v-3.36881h1.60605c1.27965,0,2.25294-.12078,2.92105-.36292.66811-.24156,1.12294-.57325,1.36567-.9945.24156-.42184.36174-.90318.36174-1.44285,0-.73939-.22742-1.31736-.68225-1.73448-.45483-.41654-1.21249-.6251-2.27415-.6251-.66339,0-1.26787.08307-1.81225.24862-.54556.16555-1.03574.36469-1.47172.59682s-.81893.45719-1.15122.67518l-2.0326-3.02769c.8154-.58739,1.76983-1.07521,2.86449-1.46406,1.09466-.38826,2.40023-.58268,3.91555-.58268,2.14218,0,3.83778.43126,5.08915,1.2932,1.25137.86253,1.87588,2.08032,1.87588,3.65337Z"/></g><path class="cls-5" d="M264.48693,437.59422h-15.46542v-2.85683l9.96503-14.28592h-9.6952v-3.63864h14.92575v2.84269l-9.94971,14.30006h10.21955v3.63864Z"/><path class="cls-5" d="M283.3565,429.61996c0,1.32679-.17793,2.50157-.53378,3.52494-.35467,1.02337-.87195,1.88825-1.54949,2.59407-.67753.7064-1.49175,1.23959-2.44501,1.59957-.95208.35998-2.02553.54026-3.21916.54026-1.11822,0-2.14454-.18028-3.07777-.54026s-1.74391-.89316-2.43087-1.59957c-.68696-.70581-1.2172-1.5707-1.59191-2.59407-.37353-1.02337-.56088-2.19815-.56088-3.52494,0-1.76276.31225-3.2551.93794-4.47761s1.51649-2.15102,2.67242-2.78613c1.15593-.63452,2.53456-.95208,4.13589-.95208,1.48821,0,2.80793.31756,3.95915.95208,1.15122.63511,2.05616,1.56363,2.71484,2.78613s.98861,2.71484.98861,4.47761ZM272.36869,429.61996c0,1.04222.11312,1.91889.34053,2.62942.22742.71111.58327,1.24666,1.06638,1.60664s1.11351.53967,1.89002.53967c.76826,0,1.39041-.17969,1.86999-.53967.4784-.35998.82836-.89552,1.05106-1.60664.2227-.71053.33464-1.58719.33464-2.62942,0-1.05224-.11194-1.92596-.33464-2.62293-.2227-.69639-.57502-1.21956-1.05813-1.5707-.48429-.34996-1.11469-.52553-1.8912-.52553-1.1465,0-1.97839.39297-2.4945,1.1795-.5161.78712-.77415,1.96661-.77415,3.53967Z"/><path class="cls-5" d="M301.45546,437.59422l-1.22192-5.55812c-.06599-.33111-.17557-.82188-.32639-1.47113-.152-.64866-.31579-1.34505-.49136-2.08916s-.33582-1.43342-.48311-2.06854c-.14729-.63452-.25334-1.09937-.31932-1.39277h-.12844c-.06599.2934-.17086.75825-.31225,1.39277-.14258.63511-.30165,1.32679-.47604,2.07561-.17557.74823-.33936,1.45228-.49136,2.11096-.15082.65868-.26512,1.15829-.34053,1.49941l-1.27965,5.50098h-4.6626l-4.52003-15.89197h4.32207l1.83346,7.03632c.12255.49254.24156,1.07816.35467,1.75569.1143.67753.21563,1.3315.30636,1.96131.08955.6304.15789,1.13001.20621,1.5h.11312c.01885-.27514.05892-.63983.12137-1.09466.06127-.45483.13197-.92616.21328-1.41457.08013-.48782.15554-.92851.22742-1.32207.0707-.39297.1249-.66104.16261-.80302l1.9619-7.619h4.77572l1.86292,7.619c.06599.27514.15318.71111.26276,1.30793.10841.59682.20621,1.21072.29104,1.84053.08602.6304.13315,1.12529.14258,1.48586h.11312c.03771-.32227.10487-.80067.19914-1.43578.09544-.63511.20621-1.30086.33464-1.99725.12726-.69639.25805-1.29144.39002-1.78397l1.90534-7.03632h4.25019l-4.57776,15.89197h-4.71916Z"/><path class="cls-5" d="M321.31954,421.40414c1.46936,0,2.73487.28162,3.79536.84544,1.06166.56382,1.88177,1.38158,2.45915,2.45208.57855,1.07109.86724,2.37843.86724,3.92321v2.10389h-10.24901c.04831,1.2225.41477,2.18165,1.10173,2.87804.68696.69697,1.64257,1.04517,2.86449,1.04517,1.01453,0,1.94305-.10428,2.78672-.31284.8425-.20856,1.70974-.52082,2.60055-.93794v3.35467c-.78594.38826-1.6084.67282-2.46622.85251s-1.89709.27042-3.12018.27042c-1.59191,0-3.00117-.29399-4.22898-.88138-1.22663-.58739-2.18814-1.48291-2.8857-2.68656-.69639-1.20365-1.04399-2.71956-1.04399-4.54889,0-1.85703.31461-3.40416.94501-4.6408s1.50942-2.16575,2.63707-2.78613,2.4403-.93087,3.93676-.93087ZM321.34899,424.48839c-.84368,0-1.54242.26983-2.09741.81009-.55381.54026-.87431,1.38865-.95915,2.54458h6.08365c-.00943-.64454-.12608-1.21779-.34878-1.71975-.2227-.50255-.55381-.90023-.9945-1.19422-.44069-.2934-1.00157-.44069-1.68382-.44069Z"/><path class="cls-5" d="M346.22092,437.59422l-6.05537-15.89197h4.53417l3.0707,9.05478c.17086.53083.30518,1.08994.40534,1.67733.09898.58739.16732,1.11351.20621,1.57777h.11312c.02828-.50196.0978-1.03751.20621-1.60605s.25334-1.11822.43362-1.64906l3.05656-9.05478h4.53417l-6.05537,15.89197h-4.44933Z"/><path class="cls-5" d="M373.06299,421.4607c0,.95738-.19796,1.78633-.59623,2.48743-.39827.70169-.93676,1.27494-1.61312,1.72034-.67871.4454-1.43873.77239-2.2824.98036v.08543c1.6685.20856,2.93519.72054,3.80243,1.53535s1.30086,1.90475,1.30086,3.26924c0,1.21308-.29576,2.29831-.88845,3.2551-.59269.95738-1.50471,1.71092-2.73605,2.26001-1.23252.54969-2.81971.82482-4.76158.82482-1.1465,0-2.21524-.0925-3.2062-.27749-.98979-.185-1.92066-.46661-2.79261-.84544v-3.7388c.89081.45483,1.82404.79831,2.79968,1.03044.97683.23272,1.88649.34819,2.73016.34819,1.57305,0,2.6736-.27219,3.304-.81716s.94619-1.3097.94619-2.29536c0-.57796-.14729-1.06638-.44069-1.46406-.29458-.39827-.80361-.70169-1.52828-.91025-.72467-.20797-1.73684-.31225-3.03535-.31225h-1.57777v-3.36881h1.60605c1.27965,0,2.25294-.12078,2.92105-.36292.66811-.24156,1.12294-.57325,1.36567-.9945.24156-.42184.36174-.90318.36174-1.44285,0-.73939-.22742-1.31736-.68225-1.73448-.45483-.41654-1.21249-.6251-2.27415-.6251-.66339,0-1.26787.08307-1.81225.24862-.54556.16555-1.03574.36469-1.47172.59682s-.81893.45719-1.15122.67518l-2.0326-3.02769c.8154-.58739,1.76983-1.07521,2.86449-1.46406,1.09466-.38826,2.40023-.58268,3.91555-.58268,2.14218,0,3.83778.43126,5.08915,1.2932,1.25137.86253,1.87588,2.08032,1.87588,3.65337Z"/></g><g id="Layer_2"><path class="cls-5" d="M554.30432,6.72269c-1.29541-.07324-2.59473-.12024-3.90088-.11035-26.39185.19946-52.78613.04205-79.17944.04211-23.59399.00006-47.18799-.00171-70.78174.00305-.66675.00012-1.17065.0014-1.56079.04102,68.40674.24933,129.7832.58124,162.99854.93054-2.49292-.45532-5.02197-.76202-7.57568-.90637Z"/><path class="cls-2" d="M448.31628,341.53208c-1.14258-.00018-2.30176.09344-3.52588-.20264-.04443-.01074-.08765-.01312-.13232-.02496.24829-1.0777,1.15186-1.36719,1.81055-1.83606,16.22266-11.54791,32.45703-23.07971,48.69067-34.6123,26.59985-18.89667,53.20386-37.78693,79.79517-56.6955,2.56079-1.82086,2.71338-1.27264.77661-4.12512-15.18384-22.36139-30.3645-44.72491-45.52417-67.10254-.79956-1.18048-1.83911-2.20789-2.36304-3.57153-.302-.05804-.60376-.11603-.90576-.17407-22.17383,15.46417-44.34473,30.9325-66.52173,46.39172-33.59424,23.41772-67.19214,46.82977-100.79224,70.23914-.76147.53058-1.47046,1.17609-2.55347,1.53418-.21948-2.76349.37939-5.25702.67065-7.75952,1.17285-10.08447,2.43066-20.15906,3.66284-30.23657,1.36768-11.18848,2.74707-22.37555,4.11084-33.56451,1.34473-11.03033,2.67773-22.06207,4.01318-33.09351,1.34497-11.1106,2.67944-22.22247,4.03149-33.33221,1.23608-10.15771,2.48975-20.31329,3.73584-30.46985.48901-2.99023.94702-5.98596,1.47192-8.96991,3.95996-22.51868,7.93213-45.03522,11.90234-67.55206,2.17944-12.36023,4.35571-24.72107,6.5498-37.07874.35229-1.9834.45898-2.47473,1.66187-2.59698-130.96777-.47729-287.70776-.65179-321.94678-.06573,49.1936.01855,98.38721.00708,147.58081.01471.91943.00018,1.86548-.13727,2.83594.18542-.33862.85571-1.04272,1.11841-1.604,1.51196-55.40527,38.83765-110.81543,77.66858-166.22559,116.49927-.19678.1377-.40015.26556-.60034.39807-.14453,1.22949.63452,2.112,1.19336,3.05676,13.45361,22.74011,26.91968,45.47284,40.38208,68.20776,1.42334,2.40387,2.82666,4.81982,4.2627,7.21606.44189.73737.77612,1.61444,1.79053,1.79437,27.77271-18.88525,55.54272-37.77472,83.31909-56.65466,34.39014-23.37518,68.78467-46.7439,103.18579-70.10297.70068-.47589,1.31372-1.17499,2.26733-1.23364.4856.81708.13208,1.5946.04517,2.35284-1.19043,10.40344-2.38916,20.80597-3.59766,31.2074-1.36523,11.75134-2.74756,23.50067-4.11328,35.25201-1.19019,10.2428-2.36426,20.48743-3.55127,30.73059-1.21436,10.4812-2.44043,20.96118-3.65356,31.44257-1.20386,10.40216-2.39282,20.80597-3.59717,31.20801-1.12158,9.68762-2.25464,19.37402-3.38281,29.06091-2.00684,13.91742-3.31616,27.91937-5.07056,41.86774-1.10742,8.80194-2.03564,17.62634-3.05078,26.43994-.10059.87341-.22705,1.74481-.37451,2.61151-.16577.97296-.28223,1.40894-.67969,1.63-.29224.16241-.73193.21228-1.47656.25598-.55811.03278-1.11938.01685-1.6792.01685-67.66162.00043-135.32349.00079-202.98486.00299"/><path class="cls-5" d="M561.88,7.62907c5.60156,1.02313,11.01221,2.82007,16.09741,5.28503-4.64087-3.36414-9.97583-5.22064-16.09741-5.28503Z"/><path class="cls-3" d="M110.35852,207.71061c25.96826,9.98737,51.95728,19.92108,77.93872,29.87433,23.2937,8.92352,46.58252,17.8598,69.87598,26.78394,4.25537,1.63031,8.52881,3.21405,12.78076,4.85388.96973.37402,1.83936.63019,2.51782-.4425,1.12817-9.68689,2.26123-19.37329,3.38281-29.06091,1.20435-10.40204,2.39331-20.80585,3.59717-31.20801,1.21313-10.48138,2.43921-20.96136,3.65356-31.44257,1.18701-10.24316,2.36108-20.48779,3.55127-30.73059,1.36572-11.75134,2.74805-23.50067,4.11328-35.25201,1.2085-10.40143,2.40723-20.80396,3.59766-31.2074.08691-.75824.44043-1.53577-.04517-2.35284-.95361.05865-1.56665.75775-2.26733,1.23364-34.40112,23.35907-68.79565,46.72778-103.18579,70.10297-27.77637,18.87994-55.54639,37.76941-83.31909,56.65466.74634,1.62787,2.45825,1.67419,3.80835,2.19342Z"/><path class="cls-4" d="M270.9539,269.22276c-4.25195-1.63983-8.52539-3.22357-12.78076-4.85388-23.29346-8.92413-46.58228-17.86041-69.87598-26.78394-25.98145-9.95325-51.97046-19.88696-77.93872-29.87433-1.3501-.51923-3.06201-.56555-3.80835-2.19342-1.0144-.17993-1.34863-1.05701-1.79053-1.79437-1.43604-2.39624-2.83936-4.81219-4.2627-7.21606-13.4624-22.73492-26.92847-45.46765-40.38208-68.20776-.55884-.94476-1.33789-1.82727-1.19336-3.05676.2002-.13251.40356-.26038.60034-.39807C114.93193,86.01347,170.34208,47.18253,225.74736,8.34489c.56128-.39355,1.26538-.65625,1.604-1.51196-.97046-.32269-1.9165-.18524-2.83594-.18542-49.1936-.00763-98.38721.00385-147.58081-.01471-5.05615-.00189-9.97729.52539-14.73267,1.62988-.00098.00024-.0022.00049-.00317.00073-6.1145,1.42041-11.95532,3.79504-17.45825,7.22614-19.95703,12.44312-30.57715,30.46747-30.90259,54.10883-.24536,17.83429-.05029,35.67462-.04419,53.51227.00049,1.0379.06494,2.07581.09937,3.11365-.0293.87842-.08423,1.75684-.08423,2.63519-.00415,69.73956-.00537,139.47919.00098,209.21875.00024,2.02057-.15112,2.88196.57471,3.25122.4895.24902,1.37402.27649,2.9873.27643l243.76855-.0036c.55981,0,1.12109.01593,1.6792-.01685.74463-.0437,1.18433-.09357,1.47656-.25598.39746-.22107.51392-.65704.67969-1.63.14746-.8667.27393-1.7381.37451-2.61151,1.01514-8.8136,1.94336-17.638,3.05078-26.43994,1.75439-13.94836,3.06372-27.95032,5.07056-41.86774-.67847,1.07269-1.5481.81653-2.51782.4425Z"/><path class="cls-3" d="M524.58337,171.74479c-12.01587-4.16162-24.03174-8.323-36.05786-12.45514-22.16138-7.61493-44.32959-15.21088-66.49512-22.81415-10.8938-3.73682-21.78638-7.4765-32.68237-11.20605-3.25391-1.11377-6.52856-2.16779-9.77173-3.31158-1.12109-.39526-1.8479-.17212-2.28076.93835-1.24609,10.15656-2.49976,20.31213-3.73584,30.46985-1.35205,11.10974-2.68652,22.22162-4.03149,33.33221-1.33545,11.03143-2.66846,22.06317-4.01318,33.09351-1.36377,11.18896-2.74316,22.37604-4.11084,33.56451-1.23218,10.07751-2.48999,20.1521-3.66284,30.23657-.29126,2.5025-.89014,4.99603-.67065,7.75952,1.08301-.35809,1.79199-1.0036,2.55347-1.53418,33.6001-23.40936,67.198-46.82141,100.79224-70.23914,22.177-15.45923,44.3479-30.92755,66.52173-46.39172-.42188-1.0708-1.47607-1.13824-2.35474-1.44257Z"/><path class="cls-4" d="M613.85754,337.90379c.01465-44.15015.00952-88.30023.00708-132.45038,0-.95923-.03345-1.91852-.05127-2.87775v-.00006c.01782-.31897.05103-.63788.05103-.95685.00171-43.8288-.00024-87.65759.00366-131.48639.00049-4.0918-.38794-8.14813-1.16602-12.15814-3.9812-20.51447-17.44873-36.68597-34.72461-45.06012-5.08521-2.46497-10.49585-4.2619-16.09741-5.28503-33.21533-.3493-94.5918-.68121-162.99854-.93054-1.20288.12225-1.30957.61359-1.66187,2.59698-2.19409,12.35767-4.37036,24.71851-6.5498,37.07874-3.97021,22.51685-7.94238,45.03339-11.90234,67.55206-.5249,2.98395-.98291,5.97968-1.47192,8.96991.43286-1.11047,1.15967-1.33362,2.28076-.93835,3.24316,1.1438,6.51782,2.19781,9.77173,3.31158,10.896,3.72955,21.78857,7.46924,32.68237,11.20605,22.16553,7.60327,44.33374,15.19922,66.49512,22.81415,12.02612,4.13214,24.04199,8.29352,36.05786,12.45514.87866.30432,1.93286.37177,2.35474,1.44257.302.05804.60376.11603.90576.17407.52393,1.36365,1.56348,2.39105,2.36304,3.57153,15.15967,22.37762,30.34033,44.74115,45.52417,67.10254,1.93677,2.85248,1.78418,2.30426-.77661,4.12512-26.59131,18.90857-53.19531,37.79883-79.79517,56.6955-16.23364,11.53259-32.46802,23.06439-48.69067,34.6123-.65869.46887-1.56226.75836-1.81055,1.83606.04468.01184.08789.01422.13232.02496,1.22412.29608,2.3833.20245,3.52588.20264,45.03149.005,90.06348.00427,135.09497.0025,8.9563-.00037,17.91235.0011,26.86865.00049,1.71655-.00012,2.61963.02222,3.09644-.20563.0083-.00397.01733-.00757.02539-.01172.65918-.33795.45508-1.2005.45581-3.41394Z"/><polygon class="cls-5" points="155.88904 118.00743 155.89107 118.00844 155.89005 118.00743 155.88904 118.00743"/><path class="cls-1" d="M397.26243,73.71408c.46234-.34045.71333-.8976.66203-1.46946v-.04701c.06492-.61986-.22587-1.22322-.75118-1.55863-.74709-.35599-1.57351-.51287-2.39909-.4554h-1.02819v3.92955h1.04696c.8429.05851,1.6879-.07804,2.46947-.39905Z"/><path class="cls-1" d="M490.69534,73.56388c1.16458-.98708,1.30951-2.7309.32391-3.8967l-.338-.33799c-.84847-.55811-1.85483-.82659-2.86855-.76531h-2.399v5.7512h2.42722c1.00725.06047,2.00744-.20275,2.85443-.7512Z"/><path class="cls-1" d="M478.21836,73.66715c1.20565-1.08823,1.30084-2.94778.21258-4.15342v-.00002l-.00136-.0015c-.01211-.01146-.02314-.02403-.0329-.03755l-.14555-.15964c-.772-.57246-1.72154-.85349-2.68075-.79338l-2.86849.04222v5.88266h2.72294c.99365.07463,1.98204-.20113,2.79353-.77937Z"/><path class="cls-1" d="M351.28463,136.08511c-11.19113,0-17.87983,8.61821-17.87983,18.78003v.2568c0,10.16181,7.33212,19.03753,18.13736,19.03753,11.19039,0,17.87909-8.61821,17.87909-18.78002v-.25751c-.00003-10.16149-7.33212-19.03683-18.13662-19.03683Z"/><polygon class="cls-1" points="414.81154 71.31658 412.41211 77.1995 417.19679 77.1995 414.81154 71.31658"/><path class="cls-1" d="M258.3824,74.62439c1.34262-1.24669,1.42244-3.34503.1784-4.69011-.04501-.06375-.10058-.11932-.16432-.16433-.83946-.64354-1.88322-.962-2.93895-.89669h-3.25347v6.61972h3.061c1.1074.071,2.20621-.23516,3.11733-.86858Z"/><path class="cls-1" d="M538.18464,134.92742c-8.10393,0-13.3774,5.78815-14.92102,14.66387h29.45614c-1.15773-8.74697-6.30278-14.66387-14.53513-14.66387Z"/><polygon class="cls-1" points="331.08655 71.31658 328.67795 77.1995 333.47177 77.1995 331.08655 71.31658"/><path class="cls-1" d="M233.96324,81.2009c2.89583,2.78554,7.47504,2.78554,10.37086,0,2.80276-2.85966,2.80276-7.43605,0-10.29571-2.89642-2.78407-7.47445-2.78407-10.37086,0-2.84306,2.82919-2.85431,7.42745-.02512,10.27052l.00637.00637.01876.01881Z"/><path class="cls-1" d="M509.78909,79.56946c2.51637-2.55482,2.51637-6.65638,0-9.2112-2.58411-2.51174-6.69759-2.51174-9.2817,0-2.53969,2.53944-2.53994,6.65689-.00053,9.19662l.00053.0005c1.22777,1.23354,2.90802,1.90903,4.64796,1.86855v.01409c1.7361.04251,3.41276-.6336,4.63374-1.86854Z"/><path class="cls-5" d="M472.70201,75.43239h2.79341c1.30787.09894,2.60771-.276,3.66195-1.05632.83147-.71528,1.28841-1.77279,1.23944-2.86851.05802-1.08929-.40138-2.14209-1.23944-2.84037-1.0149-.76488-2.27225-1.13675-3.53991-1.04695h-4.04694v14.68535h1.13149v-6.87321ZM472.70201,68.56385l2.86852-.04222c.95918-.0601,1.90872.22093,2.68072.79338l.14555.15964c.00976.01352.02078.0261.0329.03755,1.08906,1.20487.99517,3.06447-.2097,4.15353-.00003.00002-.00003.00003-.00006.00005l-.00149.00136c-.81146.57823-1.79982.85398-2.79344.77936h-2.72294l-.00006-5.88266Z"/><path class="cls-5" d="M485.37138,75.28688h2.02817c.73074-.04273,1.45776.13207,2.08919.50231.79885.72108,1.47024,1.57184,1.98585,2.51642l2.55871,3.99999h1.35678l-3.32392-5.07512c-.47748-.88699-1.14618-1.65672-1.95773-2.25349,1.64314-.39579,2.79917-1.86854,2.79338-3.55868.04253-1.06699-.42021-2.09164-1.2488-2.76522-1.05012-.75399-2.32983-1.11915-3.6197-1.03286h-3.75119l-.04222,14.71355h1.13143l.00006-7.04688ZM485.41363,68.56385h2.399c1.01373-.06128,2.02008.2072,2.86855.76531l.338.33799c.9856,1.16581.84067,2.90962-.32391,3.8967-.84702.54845-1.84721.81166-2.85446.75118h-2.42713l-.00006-5.75119Z"/><path class="cls-5" d="M510.67164,80.30183l.17845-.18777c.02819-.03286.05631-.06101.0845-.08915,2.80032-2.94503,2.68301-7.60254-.26199-10.40288l-.00093-.00086c-3.09374-2.917-7.92495-2.917-11.01869,0l-.14552.15022-.00939.00471c-2.86093,2.95051-2.79164,7.66067.15488,10.52574,3.09247,2.9202,7.92622,2.9202,11.01869,0ZM500.50739,79.55536c-2.53969-2.53943-2.53991-6.65687-.00053-9.19661l.00053-.0005c2.58411-2.51174,6.69759-2.51174,9.2817,0,2.51637,2.55481,2.51637,6.65637,0,9.21119-1.22098,1.23496-2.89767,1.91106-4.6338,1.86853v-.01406c-1.73991.04046-3.42013-.63504-4.64786-1.86856h-.00003Z"/><path class="cls-5" d="M515.57124,86.58868c.81942.00499,1.6038-.3319,2.16436-.92957.70809-.95533,1.03299-2.14107.91083-3.32391v-14.71356h-1.13146v15.03754c0,1.97181-.67597,2.94361-2.06097,2.94361-.22256-.0041-.44422-.02924-.66203-.07511l.10333,1.06105c.22538.00932.45066.0093.67594-.00005Z"/><polygon class="cls-5" points="531.82642 81.34982 524.79857 81.34982 524.79857 75.39179 531.48841 75.39179 531.48841 74.43364 524.79857 74.43364 524.79857 68.56493 531.66708 68.56493 531.66708 67.62199 523.6628 67.62199 523.6628 82.30291 531.82642 82.30291 531.82642 81.34982"/><path class="cls-5" d="M548.12887,68.66714v.00257c.01995.00956.04107.01596.06096.02561l-.06096-.02818Z"/><path class="cls-5" d="M543.08189,82.51218c1.81806-.0171,3.60298-.48835,5.1925-1.3709v-1.17371c-1.59176.91433-3.38565,1.41925-5.22063,1.46948-1.75487.06113-3.45938-.59287-4.72298-1.81218-1.24328-1.23082-1.9113-2.92803-1.84036-4.67609-.05359-1.73675.61238-3.41854,1.84036-4.64784,1.19397-1.22906,2.84551-1.90599,4.55862-1.86854,1.84049.05304,3.63978.55764,5.23946,1.46942v-1.23211c-1.59473-.76425-3.33516-1.17661-5.10329-1.20911-2.02559-.02532-3.97871.7529-5.43188,2.16431-.02961.03896-.06437.07371-.10333.10329l-.00446.0047h-.00025c-2.93292,2.9368-2.93081,7.69485.00471,10.62904,1.49691,1.44253,3.51377,2.21812,5.59152,2.15025Z"/><polygon class="cls-5" points="556.08584 82.30291 557.23583 82.30291 557.23583 68.56493 562.73815 68.56493 562.73815 67.62199 550.56934 67.62199 550.56934 68.56493 556.08584 68.56493 556.08584 82.30291"/><polygon class="cls-5" points="318.98168 83.33414 318.98168 67.06578 314.5218 67.06578 309.50772 73.16996 304.50785 67.06578 300.06114 67.06578 300.06114 83.33414 304.82655 83.33414 304.82655 73.90584 309.25905 79.36246 309.65287 79.36246 314.06606 73.90584 314.06606 83.33414 318.98168 83.33414"/><path class="cls-5" d="M327.52796,80.03989h7.06102l1.33801,3.29579h5.01876l-7.10318-16.27223h-5.48825l-7.19716,16.27223h5.01882l1.35198-3.29579ZM331.08673,71.31694l2.38503,5.88256h-4.79348l2.40845-5.88256Z"/><rect class="cls-5" x="343.1242" y="67.06666" width="4.89672" height="16.26751"/><polygon class="cls-5" points="356.99634 74.27225 365.43808 83.33414 369.79443 83.33414 369.79443 67.06578 364.90722 67.06578 364.90722 76.07996 356.49392 67.06578 352.14162 67.06578 352.14162 83.33414 356.99634 83.33414 356.99634 74.27225"/><polygon class="cls-5" points="378.78527 76.74377 385.53602 76.74377 385.53602 73.48056 378.78527 73.48056 378.78527 70.33001 385.53602 70.33001 385.53602 67.06273 373.88385 67.06273 373.88385 83.33414 378.78527 83.33414 378.78527 76.74377"/><path class="cls-5" d="M395.6756,77.14128c.44391.20861.82341.53296,1.0986.93896.50236.72501.92718,1.50075,1.26757,2.31446l1.27698,2.93895h5.26759l-1.60092-3.55863c-.38496-.89-.86842-1.73408-1.44134-2.51643-.35941-.44149-.79904-.81104-1.29576-1.08918.41253-.22047.81081-.46665,1.19245-.7371.41628-.33683.757-.75751,1-1.23467.3371-.64313.49901-1.36366.46949-2.08919-.01484-.77758-.20586-1.54165-.55873-2.23471-.42421-.82417-1.07171-1.51237-1.86852-1.98595-1.0009-.58748-2.15039-.87282-3.30983-.82158h-8.34265v16.22529h4.91549v-6.35676h.54461c.47023-.01343.93911.05649,1.38496.20653ZM393.746,70.1836h1.02819c.82558-.05747,1.652.09941,2.39909.45541.52531.3354.8161.93875.75118,1.55862v.047c.05129.57186-.1997,1.12901-.66203,1.46947-.78157.32101-1.6266.45756-2.4695.39906h-1.04696l.00003-3.92956Z"/><path class="cls-5" d="M411.26708,80.03989h7.06096l1.32391,3.29579h5.01876l-7.16897-16.27223h-5.42717l-7.19239,16.27223h5.03286l1.35204-3.29579ZM414.81166,71.31694l2.38497,5.88256h-4.78397l2.399-5.88256Z"/><polygon class="cls-5" points="431.59553 73.90584 436.04224 79.36246 436.42184 79.36246 440.85434 73.90584 440.85434 83.33414 445.75065 83.33414 445.75065 67.06578 441.30905 67.06578 436.27669 73.16996 431.29104 67.06578 426.83012 67.06578 426.83012 83.33414 431.59553 83.33414 431.59553 73.90584"/><polygon class="cls-5" points="462.12459 80.05266 454.76788 80.05266 454.76788 76.58239 461.59476 76.58239 461.59476 73.3009 454.76788 73.3009 454.76788 70.32899 461.91855 70.32899 461.91855 67.06578 449.85735 67.06578 449.85735 83.33414 462.12459 83.33414 462.12459 80.05266"/><path class="cls-5" d="M245.31998,82.02248l.20657-.20187c.01008-.01474.02281-.02748.03756-.03756,3.17203-3.30734,3.06274-8.55981-.24413-11.73234-1.63518-1.62137-3.86235-2.50341-6.16426-2.44129v.04225c-2.29147-.05006-4.50538.83076-6.13616,2.4413l-.15958.16433c-3.20242,3.29388-3.13099,8.55937.15958,11.76518,3.45471,3.25351,8.8457,3.25351,12.30042,0ZM233.96324,70.90523c2.89642-2.78408,7.47445-2.78408,10.37086,0,2.80276,2.85966,2.80276,7.43604,0,10.2957-2.89581,2.78555-7.47505,2.78555-10.37086,0l-.01876-.01879c-2.83272-2.83955-2.82716-7.43783.01239-10.27053h0l.00638-.00635-.00002-.00002Z"/><path class="cls-5" d="M252.12895,76.55397h3.13607c1.45683.09849,2.90122-.32417,4.07515-1.19246,1.78526-1.55774,1.96968-4.26777.41196-6.05302-.10155-.11638-.20932-.22718-.32281-.33194-1.1472-.84033-2.5525-1.25229-3.97181-1.16432h-4.52105l-.07045,16.37553h1.26295v-7.63378ZM252.20407,68.87327h3.25348c1.05573-.06532,2.0995.25314,2.93895.89669.06376.045.11933.10057.16434.16433,1.24404,1.34508,1.16422,3.44342-.1784,4.69011-.91115.63342-2.00997.93958-3.11739.86856h-3.06099l.00002-6.61969Z"/><polygon class="cls-5" points="272.37508 83.15753 264.50176 83.15753 264.50176 76.49509 271.98027 76.49509 271.98027 75.43442 264.50176 75.43442 264.50176 68.87552 272.18223 68.87552 272.18223 67.81485 263.2391 67.81485 263.2391 84.2182 272.37508 84.2182 272.37508 83.15753"/><polygon class="cls-5" points="276.24627 69.87021 288.70231 84.2182 289.74877 84.2182 289.74877 67.81485 288.48105 67.81485 288.48105 82.14253 276.05345 67.81485 274.97957 67.81485 274.97957 84.2182 276.24627 84.2182 276.24627 69.87021"/><polygon class="cls-5" points="230.50039 116.79045 278.47927 116.79045 228.95659 174.41686 228.95659 189.46621 303.94859 189.46621 303.94859 172.10165 254.42589 172.10165 303.94859 114.47524 303.94859 99.42589 230.50039 99.42589 230.50039 116.79045"/><path class="cls-5" d="M351.54213,119.23456c-21.48132,0-37.43168,16.07873-37.43168,35.88731v.25751c0,19.80936,15.82122,35.63054,37.17415,35.63054,21.48132,0,37.4309-16.07871,37.4309-35.88806v-.2568c.00006-19.80927-15.82119-35.63051-37.17337-35.63051ZM369.42121,155.3794c0,10.16181-6.68873,18.78002-17.87909,18.78002-10.80524,0-18.13736-8.87572-18.13736-19.03753v-.2568c0-10.16181,6.68873-18.78002,17.87983-18.78002,10.80447,0,18.13662,8.87535,18.13662,19.03679v.25754Z"/><polygon class="cls-5" points="467.95168 162.45412 454.83185 120.26376 437.98086 120.26376 424.98994 162.32522 413.92748 120.52056 394.1178 120.52056 415.34239 189.98082 432.83584 189.98082 446.34138 147.66156 459.59014 189.98082 477.2125 189.98082 498.69491 120.52056 479.27093 120.52056 467.95168 162.45412"/><path class="cls-5" d="M571.75727,156.66552c0-19.55146-10.54769-37.43092-33.57263-37.43092-20.06613,0-34.08694,16.20712-34.08694,35.88732v.25751c0,21.09543,15.30691,35.63054,36.01645,35.63054,12.47719,0,21.73811-4.88834,28.17005-12.86313l-11.19116-9.90433c-5.40264,5.01672-10.1618,7.0746-16.72142,7.0746-8.74734,0-14.92176-4.63081-16.85052-13.50656h47.97865c.12842-1.80033.25753-3.60143.25753-5.14503ZM523.26359,149.59127c1.54362-8.87572,6.81712-14.66387,14.92098-14.66387,8.23229,0,13.3774,5.91691,14.53513,14.66387h-29.45611Z"/><path class="cls-5" d="M142.82025,57.90645l-92.26855,63.63235,63.63235,92.26855,92.26855-63.63237-63.63235-92.26853ZM117.43203,172.58598l6.43496-60.38039-31.56462,21.76835-7.87821-11.42363,48.31991-33.32354,6.82788,9.90054-6.43443,60.38011,32.57985-22.46849,7.87861,11.42415-49.33571,34.024-6.82824-9.90108Z"/><path class="cls-5" d="M139.13243,263.81046c-3.25711,0-5.8174,1.15476-7.68186,3.46229-1.86545,2.30753-2.79818,5.49228-2.79818,9.55425,0,4.25228.89704,7.46875,2.69113,9.65039,1.79409,2.18066,4.39006,3.27198,7.78891,3.27198,1.46996,0,2.89234-.1467,4.26715-.4391,1.3758-.29241,2.80611-.66708,4.29193-1.12601v4.86088c-2.71888,1.02689-5.80154,1.54034-9.24697,1.54034-5.07399,0-8.97043-1.53637-11.68832-4.6111-2.71888-3.07373-4.07882-7.47172-4.07882-13.19396,0-3.60403.66014-6.75805,1.98043-9.46008,1.3193-2.70302,3.22737-4.77365,5.72521-6.2119s5.42983-2.15786,8.79697-2.15786c3.5396,0,6.81158.74341,9.81494,2.22823l-2.03891,4.71815c-1.16962-.55309-2.40665-1.03879-3.71009-1.45807-1.30443-.41829-2.67527-.62843-4.11351-.62843Z"/><path class="cls-5" d="M190.79019,276.73283c0,5.64294-1.41049,10.02904-4.23146,13.15828-2.82197,3.13023-6.81653,4.69436-11.98568,4.69436-5.23159,0-9.25094-1.55223-12.05605-4.65867-2.80611-3.10545-4.20867-7.5193-4.20867-13.24154s1.41148-10.11626,4.23246-13.18306c2.82098-3.0658,6.84825-4.5992,12.07984-4.5992,5.15329,0,9.13596,1.55719,11.95,4.67057,2.81305,3.11437,4.21957,7.50047,4.21957,13.15927ZM164.3309,276.73283c0,4.26715.86136,7.50344,2.58408,9.70888,1.72272,2.20445,4.27607,3.30766,7.65807,3.30766,3.36713,0,5.9076-1.09132,7.62338-3.27198,1.71479-2.18165,2.57218-5.42983,2.57218-9.74456,0-4.25228-.85046-7.47668-2.54939-9.67418-1.69893-2.19652-4.23146-3.29477-7.5986-3.29477-3.39885,0-5.9631,1.09826-7.69375,3.29477-1.73065,2.19751-2.59597,5.4219-2.59597,9.67418Z"/><path class="cls-5" d="M231.96891,294.11167h-6.94737l-17.04678-27.62197h-.18932l.11795,1.54133c.22104,2.93992.33205,5.62708.33205,8.06149v18.01916h-5.14437v-34.66351h6.87501l17.0002,27.47924h.14174c-.03172-.36278-.09416-1.68703-.18932-3.97078-.09516-2.28374-.14273-4.06692-.14273-5.34657v-18.16189h5.19294v34.66351Z"/><path class="cls-5" d="M251.5958,294.11167h-5.61915v-34.66351h19.55949v4.78951h-13.94034v10.83489h13.06312v4.8133h-13.06312v14.22581Z"/><path class="cls-5" d="M307.45034,276.73283c0,5.64294-1.41049,10.02904-4.23146,13.15828-2.82197,3.13023-6.81653,4.69436-11.98568,4.69436-5.23159,0-9.25094-1.55223-12.05605-4.65867-2.80611-3.10545-4.20867-7.5193-4.20867-13.24154s1.41148-10.11626,4.23246-13.18306c2.82098-3.0658,6.84825-4.5992,12.07984-4.5992,5.15329,0,9.13596,1.55719,11.95,4.67057,2.81305,3.11437,4.21957,7.50047,4.21957,13.15927ZM280.99105,276.73283c0,4.26715.86136,7.50344,2.58408,9.70888,1.72272,2.20445,4.27607,3.30766,7.65807,3.30766,3.36713,0,5.9076-1.09132,7.62338-3.27198,1.71479-2.18165,2.57218-5.42983,2.57218-9.74456,0-4.25228-.85046-7.47668-2.54939-9.67418-1.69893-2.19652-4.23146-3.29477-7.5986-3.29477-3.39885,0-5.9631,1.09826-7.69375,3.29477-1.73065,2.19751-2.59597,5.4219-2.59597,9.67418Z"/><path class="cls-5" d="M325.41696,280.26549v13.84618h-5.66574v-34.66351h9.79115c4.47332,0,7.78494.83856,9.93487,2.5137,2.14894,1.67514,3.2244,4.2047,3.2244,7.5867,0,4.31473-2.24508,7.38945-6.73327,9.22318l9.79214,15.33992h-6.44979l-8.29839-13.84618h-5.59537ZM325.41696,275.57113h3.93608c2.63959,0,4.55262-.48966,5.7381-1.46996s1.77823-2.43441,1.77823-4.36329c0-1.95962-.64032-3.36614-1.92096-4.21957s-3.20854-1.28064-5.78469-1.28064h-3.74676v11.33346Z"/><path class="cls-5" d="M370.62692,294.11167l-10.05282-28.9492h-.19031c.26862,4.29986.40342,8.33011.40342,12.09174v16.85746h-5.14437v-34.66351h7.99012l9.62561,27.5744h.14174l9.91108-27.5744h8.01391v34.66351h-5.45362v-17.14194c0-1.72272.04361-3.96681.13084-6.73327.08624-2.76646.16157-4.4416.225-5.02641h-.18932l-10.40867,28.90162h-5.00262Z"/><path class="cls-5" d="M426.81351,294.11167l-3.4613-9.62561h-13.25442l-3.38993,9.62561h-5.975l12.96896-34.80525h6.16432l12.96896,34.80525h-6.02158ZM421.85846,279.60138l-3.24819-9.43629c-.23789-.63239-.56598-1.62756-.98427-2.9875-.41928-1.35895-.70772-2.35511-.86532-2.9875-.42721,1.94475-1.05167,4.07089-1.87338,6.37842l-3.12924,9.03287h10.1004Z"/><path class="cls-5" d="M471.14625,294.11167h-6.94737l-17.04678-27.62197h-.18932l.11795,1.54133c.22104,2.93992.33205,5.62708.33205,8.06149v18.01916h-5.14437v-34.66351h6.87501l17.0002,27.47924h.14174c-.03172-.36278-.09416-1.68703-.18932-3.97078-.09516-2.28374-.14273-4.06692-.14273-5.34657v-18.16189h5.19294v34.66351Z"/><path class="cls-5" d="M497.12678,294.11167h-5.66673v-29.80263h-10.19457v-4.86088h26.05686v4.86088h-10.19556v29.80263Z"/></g></svg>