<svg id="Layer_1" data-name="Layer 1" xmlns="http://www.w3.org/2000/svg" viewBox="0 0 937.72 262.1"><defs><style>.cls-1{fill:none;}.cls-2{fill:#fff;}.cls-3{fill:#616162;}</style></defs><rect y="91.58" width="271.13" height="72.45"/><path class="cls-1" d="M455,90.15a5.38,5.38,0,0,0,2-4.6,5.51,5.51,0,0,0-1.9-4.5,8.65,8.65,0,0,0-5.6-1.7h-6v12.4h5.7A8.71,8.71,0,0,0,455,90.15Z" transform="translate(-86.58 -76.05)"/><polygon class="cls-1" points="504.07 7.9 499.57 18.9 508.57 18.9 504.07 7.9"/><path class="cls-1" d="M714.25,88.45a2.79,2.79,0,0,0,1.2-2.8h0a3,3,0,0,0-1.4-2.9,8.62,8.62,0,0,0-4.5-.8h-1.9v7.3h2A10.66,10.66,0,0,0,714.25,88.45Z" transform="translate(-86.58 -76.05)"/><polygon class="cls-1" points="660.37 7.9 655.97 18.9 664.87 18.9 660.37 7.9"/><path class="cls-1" d="M888.65,88.15a4.63,4.63,0,0,0,1.8-4,4.41,4.41,0,0,0-1.9-3.9,9.31,9.31,0,0,0-5.4-1.4h-4.4v10.7h4.6A7.76,7.76,0,0,0,888.65,88.15Z" transform="translate(-86.58 -76.05)"/><path class="cls-1" d="M419.15,106.25a13.2,13.2,0,0,0,9.7-3.9,13.77,13.77,0,0,0,0-19.2,12.89,12.89,0,0,0-9.7-3.9,13.2,13.2,0,0,0-9.7,3.9,13.5,13.5,0,0,0,9.7,23.1Z" transform="translate(-86.58 -76.05)"/><path class="cls-1" d="M865.35,88.45a4.94,4.94,0,0,0,1.8-4.1,5.09,5.09,0,0,0-1.7-4,7.42,7.42,0,0,0-5-1.5h-5.4V90h5.1A8,8,0,0,0,865.35,88.45Z" transform="translate(-86.58 -76.05)"/><path class="cls-1" d="M924.35,82.25a12.44,12.44,0,0,0-17.3,0,12,12,0,0,0-3.6,8.6,11.41,11.41,0,0,0,3.6,8.6,11.76,11.76,0,0,0,8.7,3.5,12,12,0,0,0,12.1-12.1A11.39,11.39,0,0,0,924.35,82.25Z" transform="translate(-86.58 -76.05)"/><path d="M855.05,91.65h5.2a9.78,9.78,0,0,0,6.8-2,6.47,6.47,0,0,0,2.3-5.4,6.7,6.7,0,0,0-2.3-5.3,9.85,9.85,0,0,0-6.6-1.9h-7.6v27.4H855V91.65Zm0-12.8h5.4a7.42,7.42,0,0,1,5,1.5,4.78,4.78,0,0,1,1.7,4,4.94,4.94,0,0,1-1.8,4.1,8.13,8.13,0,0,1-5.2,1.5h-5.1V78.85Z" transform="translate(-86.58 -76.05)"/><path d="M878.75,91.35h3.7a6.63,6.63,0,0,1,3.9.9,18.75,18.75,0,0,1,3.7,4.7l4.8,7.5h2.5l-6.2-9.5a12.21,12.21,0,0,0-3.6-4.2,6.85,6.85,0,0,0,5.2-6.7,6.5,6.5,0,0,0-2.3-5.2,10.12,10.12,0,0,0-6.7-1.9h-7v27.4h2.1v-13Zm0-12.5h4.5a9.31,9.31,0,0,1,5.4,1.4,4.93,4.93,0,0,1,1.9,3.9,4.87,4.87,0,0,1-1.8,4,9,9,0,0,1-5.3,1.4h-4.7Z" transform="translate(-86.58 -76.05)"/><path d="M930.15,90.85a13.44,13.44,0,0,0-4.2-10,14.18,14.18,0,0,0-10.3-4.1,14.34,14.34,0,0,0-10.3,4.1,14,14,0,0,0,0,20,14.92,14.92,0,0,0,20.6,0A13.38,13.38,0,0,0,930.15,90.85Zm-14.4,12a12.12,12.12,0,0,1-12.3-12.1,11.27,11.27,0,0,1,3.6-8.6,11.76,11.76,0,0,1,8.7-3.5,11.54,11.54,0,0,1,8.6,3.5,12.32,12.32,0,0,1,0,17.2A11.32,11.32,0,0,1,915.75,102.85Z" transform="translate(-86.58 -76.05)"/><path d="M935.05,112.45a5.44,5.44,0,0,0,4-1.7,9.29,9.29,0,0,0,1.7-6.3V77.15h-2v28c0,3.7-1.3,5.5-3.8,5.5a6.88,6.88,0,0,1-1.3-.2l.2,2Z" transform="translate(-86.58 -76.05)"/><polygon points="878.87 26.7 865.77 26.7 865.77 15.6 878.27 15.6 878.27 13.8 865.77 13.8 865.77 2.8 878.57 2.8 878.57 1.1 863.67 1.1 863.67 28.5 878.87 28.5 878.87 26.7"/><path d="M986.45,104.85a19.58,19.58,0,0,0,9.7-2.6v-2.2a20.92,20.92,0,0,1-9.7,2.8,11.9,11.9,0,0,1-8.8-3.4,11.76,11.76,0,0,1-3.5-8.7,12.24,12.24,0,0,1,3.4-8.7,11.32,11.32,0,0,1,8.5-3.5,22.36,22.36,0,0,1,9.8,2.6v-2.3a23,23,0,0,0-9.6-2.3,14,14,0,0,0-10.1,4,13.76,13.76,0,0,0-4.3,10.1,13.08,13.08,0,0,0,4.2,10A13.73,13.73,0,0,0,986.45,104.85Z" transform="translate(-86.58 -76.05)"/><polygon points="913.87 1.1 913.87 2.8 924.17 2.8 924.17 28.5 926.27 28.5 926.27 2.8 936.57 2.8 936.57 1.1 913.87 1.1"/><polygon points="455.07 12.8 463.37 23 464.07 23 472.37 12.8 472.37 30.4 481.47 30.4 481.47 0 473.17 0 463.77 11.4 454.47 0 446.17 0 446.17 30.4 455.07 30.4 455.07 12.8"/><path d="M584.05,100.25h13.2l2.5,6.2h9.4l-13.4-30.4h-10.1l-13.4,30.4h9.4Zm6.6-16.3,4.4,11.1h-8.9Z" transform="translate(-86.58 -76.05)"/><rect x="526.57" width="9.2" height="30.4"/><polygon points="576.37 30.4 576.37 0 567.27 0 567.27 16.8 551.57 0 543.37 0 543.37 30.4 552.47 30.4 552.47 13.5 568.27 30.4 576.37 30.4"/><polygon points="593.17 18.1 605.77 18.1 605.77 12 593.17 12 593.17 6.1 605.77 6.1 605.77 0 583.97 0 583.97 30.4 593.17 30.4 593.17 18.1"/><path d="M707.65,94.55h1a7.83,7.83,0,0,1,2.6.4,4.94,4.94,0,0,1,2,1.8,36.23,36.23,0,0,1,2.4,4.3l2.4,5.4h9.8l-3.1-6.6a23.66,23.66,0,0,0-2.6-4.7,9.14,9.14,0,0,0-2.4-2,16.44,16.44,0,0,0,2.2-1.4,7.1,7.1,0,0,0,1.9-2.3,8.6,8.6,0,0,0,.9-3.9,8.77,8.77,0,0,0-1.1-4.2,9.56,9.56,0,0,0-3.5-3.7,11.2,11.2,0,0,0-6.2-1.5h-15.6v30.4h9.2v-12Zm0-12.7h1.9a10,10,0,0,1,4.5.8,3.09,3.09,0,0,1,1.4,2.9h0a3,3,0,0,1-1.2,2.8,8.94,8.94,0,0,1-4.6.7h-2v-7.2Z" transform="translate(-86.58 -76.05)"/><path d="M740.35,100.25h13.2l2.5,6.2h9.4l-13.4-30.4H742l-13.4,30.4H738ZM747,84l4.4,11.1h-8.9Z" transform="translate(-86.58 -76.05)"/><polygon points="691.77 12.8 700.07 23 700.77 23 708.97 12.8 708.97 30.4 718.17 30.4 718.17 0 709.87 0 700.47 11.4 691.17 0 682.87 0 682.87 30.4 691.77 30.4 691.77 12.8"/><polygon points="748.77 24.3 734.97 24.3 734.97 17.8 747.77 17.8 747.77 11.7 734.97 11.7 734.97 6.1 748.37 6.1 748.37 0 725.87 0 725.87 30.4 748.77 30.4 748.77 24.3"/><path d="M430.55,104a14.67,14.67,0,0,0,4.7-11.1,14.52,14.52,0,0,0-4.7-11.1,16.67,16.67,0,0,0-23,0,15.46,15.46,0,0,0,0,22.2A16.94,16.94,0,0,0,430.55,104Zm-21.1-20.8a14,14,0,0,1,19.4,0,12.82,12.82,0,0,1,3.9,9.6,13.21,13.21,0,0,1-3.9,9.6,12.89,12.89,0,0,1-9.7,3.9,13.49,13.49,0,0,1-13.7-13.5A12.91,12.91,0,0,1,409.45,83.15Z" transform="translate(-86.58 -76.05)"/><path d="M443.45,93.75h5.8a11.52,11.52,0,0,0,7.6-2.2,7.61,7.61,0,0,0,2.6-6,7.11,7.11,0,0,0-2.6-5.9,11.54,11.54,0,0,0-7.4-2.2h-8.4v30.6h2.4Zm0-14.3h6a8.65,8.65,0,0,1,5.6,1.7,5.51,5.51,0,0,1,1.9,4.5,5.38,5.38,0,0,1-2,4.6,8.71,8.71,0,0,1-5.8,1.6h-5.7Z" transform="translate(-86.58 -76.05)"/><polygon points="394.47 30.1 379.77 30.1 379.77 17.6 393.77 17.6 393.77 15.6 379.77 15.6 379.77 3.4 394.17 3.4 394.17 1.4 377.47 1.4 377.47 32 394.47 32 394.47 30.1"/><polygon points="401.67 5.3 424.97 32 426.87 32 426.87 1.4 424.57 1.4 424.57 28.2 401.37 1.4 399.37 1.4 399.37 32 401.67 32 401.67 5.3"/><polygon points="366.27 215.3 346.87 247 344.87 215.2 341.27 215.2 322.37 247 319.97 215.3 315.47 215.3 318.87 253.7 322.57 253.7 341.27 222.9 343.47 253.7 347.17 253.7 371.07 215.3 366.27 215.3"/><path d="M470.35,300.65a17.27,17.27,0,0,0-16.6,16.8c0,7.3,5.1,12.6,12.8,12.6a16.69,16.69,0,0,0,11.6-5,17.25,17.25,0,0,0,5.1-11.9C483.15,306,478.05,300.65,470.35,300.65Zm4.5,22.2a11.55,11.55,0,0,1-8,3.5c-5.2,0-8.8-3.3-8.8-9a13.68,13.68,0,0,1,4-9.4,11.55,11.55,0,0,1,8-3.5c5.2,0,8.8,3.3,8.8,9A13.61,13.61,0,0,1,474.85,322.85Z" transform="translate(-86.58 -76.05)"/><path d="M510,300.85c-5.6-.3-10,2.9-13.4,7.8l1.9-7.4h-4.2l-7.5,28.2H491l3-11.1c2.3-8.5,8.4-13,14.6-13h.3Z" transform="translate(-86.58 -76.05)"/><polygon points="454.37 225.2 448.57 225.2 429.67 240.7 436.97 213.6 432.77 213.6 422.07 253.4 426.27 253.4 428.27 246.1 435.77 240.1 442.27 253.4 447.07 253.4 439.27 237.4 454.37 225.2"/><polygon points="453.37 253.4 457.57 253.4 465.17 225.2 460.97 225.2 453.37 253.4"/><polygon points="463.57 214.5 462.37 219.1 467.17 219.1 468.37 214.5 463.57 214.5"/><path d="M574.35,300.65c-4.3,0-7.3,2.3-9.8,5.2l1.2-4.6h-4.2l-7.5,28.2h4.2l4.3-15.9c1.5-5.3,5.8-9.1,10.2-9.1,3.9,0,6.3,2.2,6.3,5.9a18.65,18.65,0,0,1-.4,3.2l-4.3,16h4.2l4.2-15.7a25,25,0,0,0,.7-4.4C583.25,304.05,579.75,300.65,574.35,300.65Z" transform="translate(-86.58 -76.05)"/><path d="M615.65,307.45c-1.6-3.4-4.3-6.8-10.4-6.8a16.05,16.05,0,0,0-15.8,16c0,6.8,5.6,10.6,11.4,10.6,4.6,0,8-2.2,10.8-5.1l-.8,2.8a14.64,14.64,0,0,1-3.5,6.8,11,11,0,0,1-7.9,2.9,16.86,16.86,0,0,1-11.1-4.3l-2.6,2.9a21.12,21.12,0,0,0,13.8,4.9c4.8,0,8.3-1.4,10.9-4,2-2,3.4-4.5,4.6-8.9l6.4-24.1h-4.2Zm-4.9,12.5a12.36,12.36,0,0,1-8.6,3.7c-4.3,0-8.2-2.6-8.2-7.6a11.71,11.71,0,0,1,3.5-8.3,11.44,11.44,0,0,1,8.1-3.4c5.4,0,8.7,3.8,8.7,8A10.61,10.61,0,0,1,610.75,320Z" transform="translate(-86.58 -76.05)"/><path d="M666.55,294.55c6.2,0,9.3,2.5,11.5,5.6l3.3-2.6c-2.4-3.6-6.5-7-14.4-7a22.86,22.86,0,0,0-16.4,6.9,23.65,23.65,0,0,0-7.1,16.4c0,10.2,7.6,16.2,16.9,16.2a25,25,0,0,0,13.6-4l4.9-17.1h-15.8l-1,3.9h11.5l-3,10.6a18.74,18.74,0,0,1-9.9,2.7c-7.4,0-12.6-4.6-12.6-12.4a20.07,20.07,0,0,1,5.8-13.8A18.26,18.26,0,0,1,666.55,294.55Z" transform="translate(-86.58 -76.05)"/><path d="M692.25,308.65l1.9-7.4H690l-7.5,28.2h4.2l3-11.1c2.3-8.5,8.4-13,14.6-13h.3l1.2-4.5C700.05,300.45,695.65,303.75,692.25,308.65Z" transform="translate(-86.58 -76.05)"/><path d="M722.35,300.65a17.27,17.27,0,0,0-16.6,16.8c0,7.3,5.1,12.6,12.8,12.6a16.69,16.69,0,0,0,11.6-5,17.25,17.25,0,0,0,5.1-11.9C735.25,306,730.15,300.65,722.35,300.65Zm4.6,22.2a11.55,11.55,0,0,1-8,3.5c-5.2,0-8.8-3.3-8.8-9a13.68,13.68,0,0,1,4-9.4,11.55,11.55,0,0,1,8-3.5c5.2,0,8.8,3.3,8.8,9A13.61,13.61,0,0,1,727,322.85Z" transform="translate(-86.58 -76.05)"/><path d="M766.25,301.25l-4.3,15.9c-1.5,5.4-5.8,9.2-10.2,9.2-3.9,0-6.3-2.2-6.3-5.9a18.65,18.65,0,0,1,.4-3.2l4.3-16H746l-4.1,15.7a18.23,18.23,0,0,0-.7,4.4c0,5.3,3.5,8.7,9,8.7,4.3,0,7.2-2.3,9.8-5.2l-1.2,4.6h4.1l7.6-28.2Z" transform="translate(-86.58 -76.05)"/><path d="M793.35,300.65c-4.5,0-8,2.3-10.7,5.5l1.3-4.9h-4.2l-9.9,36.9h4.2l4-15a10.91,10.91,0,0,0,10.6,7,15.12,15.12,0,0,0,10.6-4.6,18,18,0,0,0,5.2-12.9C804.55,305.45,799.75,300.65,793.35,300.65Zm2.7,22.5a10.9,10.9,0,0,1-7.7,3.3,8.48,8.48,0,0,1-8.7-8.8,13.68,13.68,0,0,1,4.2-9.5,12.1,12.1,0,0,1,8.3-3.8c4.7,0,8,3.4,8,8.6A14.7,14.7,0,0,1,796.05,323.15Z" transform="translate(-86.58 -76.05)"/><path d="M399.76,159.76v-.17c0-16.68,13.44-30.2,31.37-30.2s31.2,13.36,31.2,30v.16c0,16.68-13.45,30.21-31.37,30.21S399.76,176.44,399.76,159.76Zm46.05,0v-.17c0-8.46-6-15.68-14.85-15.68s-14.77,7.13-14.77,15.52v.16c0,8.38,6.06,15.68,14.94,15.68S445.81,168.14,445.81,159.76Z" transform="translate(-86.58 -76.05)"/><path d="M473.94,130.55h25c14.61,0,24.07,7.55,24.07,20.33V151c0,13.78-10.54,21-24.9,21h-8v16.59h-16.1Zm23.81,28.88c5.65,0,9.21-3.07,9.21-7.64v-.16c0-5-3.56-7.56-9.29-7.56H490v15.36Z" transform="translate(-86.58 -76.05)"/><path d="M533.1,130.55h46.71v13.61H549V153h27.88v12.69H549v9.21h31.2v13.69H533.1Z" transform="translate(-86.58 -76.05)"/><path d="M591.84,130.55h15l23.9,30.7v-30.7h15.93v58.08h-14l-24.9-31.86v31.86H591.84Z" transform="translate(-86.58 -76.05)"/><path d="M684.19,178.26l20.66-22.07H684.94V143.74h40.82V154L704.93,176.1h20.83v12.53H684.19Z" transform="translate(-86.58 -76.05)"/><path d="M765.09,122.42h12.78l-36.76,76.83H728.33Z" transform="translate(-86.58 -76.05)"/><path d="M774.13,159.76v-.17c0-16.68,13.44-30.2,31.37-30.2s31.2,13.36,31.2,30v.16c0,16.68-13.45,30.21-31.37,30.21S774.13,176.44,774.13,159.76Zm46,0v-.17c0-8.46-6-15.68-14.85-15.68s-14.77,7.13-14.77,15.52v.16c0,8.38,6.06,15.68,14.94,15.68S820.18,168.14,820.18,159.76Z" transform="translate(-86.58 -76.05)"/><path d="M843.5,180l9-10.7c5.81,4.56,12.11,7,18.83,7,4.4,0,6.72-1.49,6.72-4v-.17c0-2.49-1.9-3.73-9.87-5.64-12.36-2.82-21.91-6.31-21.91-18.17v-.17c0-10.79,8.55-18.59,22.49-18.59,9.88,0,17.59,2.66,23.9,7.72l-8,11.37a28.5,28.5,0,0,0-16.26-5.73c-3.9,0-5.81,1.58-5.81,3.74v.16c0,2.66,2,3.82,10.12,5.65,13.28,2.9,21.58,7.21,21.58,18.08v.17c0,11.87-9.38,18.92-23.49,18.92C860.42,189.63,850.71,186.39,843.5,180Z" transform="translate(-86.58 -76.05)"/><path d="M401.67,209.51h46.72v13.61H417.6V232h27.88v12.69H417.6v9.21h31.2v13.7H401.67Z" transform="translate(-86.58 -76.05)"/><path d="M460.41,209.51h15l23.9,30.7v-30.7h15.93V267.6h-14l-24.89-31.87V267.6H460.41Z" transform="translate(-86.58 -76.05)"/><path d="M549,209.1h15.51l24.73,58.5H571.93l-4.15-10.46H545.3l-4.15,10.46H524.3Zm14.1,35.51-6.47-16.43L550,244.61Z" transform="translate(-86.58 -76.05)"/><path d="M598.15,209.51h29.79c7.3,0,12.44,1.83,15.85,5.15a13.06,13.06,0,0,1,3.73,9.46v.16c0,6.72-3.82,10.71-9,12.95,7.05,2.32,11.53,6.3,11.53,14.19v.16c0,10-8.13,16-22,16h-30Zm33.52,17.93c0-3.24-2.57-5-7.3-5H613.83v10.2H624c4.89,0,7.71-1.66,7.71-5.06ZM626.11,244H613.83v10.7h12.45c5,0,7.72-1.91,7.72-5.31v-.16C634,246,631.51,244,626.11,244Z" transform="translate(-86.58 -76.05)"/><path d="M660.79,209.51h16.1v44H705V267.6H660.79Z" transform="translate(-86.58 -76.05)"/><path d="M715.31,209.51H762v13.61H731.24V232h27.88v12.69H731.24v9.21h31.2v13.7H715.31Z" transform="translate(-86.58 -76.05)"/><path d="M774.05,209.51h17L804.92,232l13.86-22.49h17V267.6h-16V234.24L804.92,257h-.33l-14.77-22.66V267.6H774.05Z" transform="translate(-86.58 -76.05)"/><path d="M849.39,209.51h46.72v13.61H865.32V232H893.2v12.69H865.32v9.21h31.2v13.7H849.39Z" transform="translate(-86.58 -76.05)"/><path d="M908.13,209.51h15l23.9,30.7v-30.7H963V267.6H949l-24.89-31.87V267.6H908.13Z" transform="translate(-86.58 -76.05)"/><path d="M990.78,223.62H973.43V209.51h50.87v14.11h-17.43v44H990.78Z" transform="translate(-86.58 -76.05)"/><path d="M86.58,328.75H357.71V256.3H86.58Zm247-54.06h8.77v35.68h-8.77Zm-24.13,0h8.77v35.68h-8.77Zm-29.4.54h14.48v5.4h0V286H280.05v-5.41h0Zm0,29.19V299h14.48v5.41h0v5.4H280.05v-5.4Zm-29-29.19h14.48v5.4h0V286H251.1v-5.41h0Zm0,29.19V299h14.48v5.41h0v5.4H251.1v-5.4Zm-29-23.79v-5.4h14.48v5.4h0V286H222.14Zm0,23.79V299h14.48v5.41h0v5.4H222.14ZM101.5,275.23H207.67V286H101.5Zm0,23.78H207.67v10.81H101.5Z" transform="translate(-86.58 -76.05)"/><path class="cls-2" d="M207.67,275.23H101.5V286H207.67Zm-106.17,5.4h0Z" transform="translate(-86.58 -76.05)"/><path class="cls-3" d="M207.67,299H101.5v10.81H207.67ZM101.5,304.42h0Z" transform="translate(-86.58 -76.05)"/><rect class="cls-3" x="135.56" y="199.18" width="14.48" height="5.4"/><rect class="cls-3" x="135.56" y="204.58" width="14.48" height="5.4"/><rect class="cls-2" x="164.52" y="199.18" width="14.48" height="5.4"/><rect class="cls-2" x="164.52" y="204.58" width="14.48" height="5.4"/><rect class="cls-3" x="193.47" y="199.18" width="14.48" height="5.4"/><rect class="cls-3" x="193.47" y="204.58" width="14.48" height="5.4"/><rect class="cls-2" x="135.56" y="228.37" width="14.48" height="5.4"/><rect class="cls-2" x="135.56" y="222.96" width="14.48" height="5.4"/><rect class="cls-3" x="164.52" y="222.96" width="14.48" height="5.4"/><rect class="cls-3" x="164.52" y="228.37" width="14.48" height="5.4"/><rect class="cls-2" x="193.47" y="228.37" width="14.48" height="5.4"/><rect class="cls-2" x="193.47" y="222.96" width="14.48" height="5.4"/><polygon class="cls-3" points="231.64 198.64 227.25 198.64 227.25 234.32 227.25 198.64 222.87 198.64 222.87 234.32 231.64 234.32 231.64 198.64"/><polygon class="cls-2" points="255.77 198.64 251.38 198.64 251.38 234.32 251.38 198.64 247 198.64 247 234.32 255.77 234.32 255.77 198.64"/><path class="cls-2" d="M201,214.44l20.66-22.07H201.69V179.93h40.83v10.28l-20.83,22.08h20.83v12.53H201Z" transform="translate(-86.58 -76.05)"/><path class="cls-2" d="M133.86,179.93H101.5v45.48h44.89V179.93Zm0,32.95H114V192.45h19.83Z" transform="translate(-86.58 -76.05)"/><rect class="cls-2" x="85.32" y="196.11" width="44.89" height="12.53" transform="translate(223.55 18.56) rotate(90)"/><polygon class="cls-2" points="256.07 114.15 256.07 103.88 223.03 103.88 211.18 103.88 210.5 103.88 210.5 148.77 211.18 148.77 223.03 148.77 256.07 148.77 256.07 138.49 223.03 138.49 223.03 131.46 256.07 131.46 256.07 121.18 223.03 121.18 223.03 114.15 256.07 114.15"/><path d="M86.58,151.4H357.71V79H86.58ZM275.23,97.88h67.56v10.81H275.23v-5.41h0Zm0,29.19v-5.41h67.56v10.81H275.23v-5.4Zm-29-29.19h14.48v5.4h0v5.41H246.27v-5.41h0Zm0,29.19v-5.41h14.48v5.41h0v5.4H246.27v-5.4Zm-29-29.19h14.47v5.4h0v5.41H217.32v-5.41h0Zm0,29.19v-5.41h14.47v5.41h0v5.4H217.32v-5.4Zm-29-23.79v-5.4h14.48v5.4h0v5.41H188.36Zm0,23.79v-5.41h14.48v5.41h0v5.4H188.36ZM101.5,97.88h72.39v10.81H101.5Zm0,23.78h72.39v10.81H101.5Z" transform="translate(-86.58 -76.05)"/><polygon class="cls-3" points="256.21 32.63 256.21 21.83 188.65 21.83 188.65 27.23 256.21 27.23 188.65 27.23 188.65 32.63 256.21 32.63"/><path class="cls-3" d="M173.89,97.88H101.5v10.81h72.39Zm-72.39,5.4h0Z" transform="translate(-86.58 -76.05)"/><polygon class="cls-3" points="256.21 56.42 256.21 45.62 188.65 45.62 188.65 51.02 256.21 51.02 188.65 51.02 188.65 56.42 256.21 56.42"/><path class="cls-2" d="M173.89,121.66H101.5v10.81h72.39Zm-72.39,5.41h0Z" transform="translate(-86.58 -76.05)"/><rect class="cls-3" x="130.74" y="27.23" width="14.48" height="5.4"/><rect class="cls-3" x="130.74" y="21.83" width="14.48" height="5.4"/><rect class="cls-3" x="159.69" y="21.83" width="14.48" height="5.4"/><rect class="cls-3" x="159.69" y="27.23" width="14.48" height="5.4"/><rect class="cls-2" x="101.78" y="27.23" width="14.48" height="5.4"/><rect class="cls-2" x="101.78" y="21.83" width="14.48" height="5.4"/><rect class="cls-3" x="101.78" y="51.02" width="14.48" height="5.4"/><rect class="cls-3" x="101.78" y="45.61" width="14.48" height="5.4"/><rect class="cls-3" x="130.74" y="51.02" width="14.48" height="5.4"/><rect class="cls-3" x="130.74" y="45.61" width="14.48" height="5.4"/><rect class="cls-2" x="159.69" y="45.61" width="14.48" height="5.4"/><rect class="cls-2" x="159.69" y="51.02" width="14.48" height="5.4"/></svg>