<?xml version="1.0" encoding="UTF-8" standalone="no"?>
<svg
   xmlns:dc="http://purl.org/dc/elements/1.1/"
   xmlns:cc="http://creativecommons.org/ns#"
   xmlns:rdf="http://www.w3.org/1999/02/22-rdf-syntax-ns#"
   xmlns:svg="http://www.w3.org/2000/svg"
   xmlns="http://www.w3.org/2000/svg"
   xmlns:xlink="http://www.w3.org/1999/xlink"
   xmlns:sodipodi="http://sodipodi.sourceforge.net/DTD/sodipodi-0.dtd"
   xmlns:inkscape="http://www.inkscape.org/namespaces/inkscape"
   inkscape:version="1.0 (4035a4f, 2020-05-01)"
   height="161.75999"
   width="397"
   sodipodi:docname="openmainframesummit-black.svg"
   version="1.1"
   xml:space="preserve"
   viewBox="0 0 397 161.75999"
   y="0px"
   x="0px"
   id="Layer_1"><metadata
   id="metadata64"><rdf:RDF><cc:Work
       rdf:about=""><dc:format>image/svg+xml</dc:format><dc:type
         rdf:resource="http://purl.org/dc/dcmitype/StillImage" /></cc:Work></rdf:RDF></metadata><defs
   id="defs62" /><sodipodi:namedview
   inkscape:current-layer="Layer_1"
   inkscape:window-maximized="0"
   inkscape:window-y="23"
   inkscape:window-x="0"
   inkscape:cy="119.60465"
   inkscape:cx="197.96925"
   inkscape:zoom="1.884131"
   showgrid="false"
   id="namedview60"
   inkscape:window-height="862"
   inkscape:window-width="1374"
   inkscape:pageshadow="2"
   inkscape:pageopacity="0"
   guidetolerance="10"
   gridtolerance="10"
   objecttolerance="10"
   borderopacity="1"
   bordercolor="#666666"
   pagecolor="#ffffff" /> <style
   id="style10"
   type="text/css"> .st0{clip-path:url(#SVGID_2_);fill:url(#SVGID_3_);} .st1{clip-path:url(#SVGID_2_);} .st2{fill:none;stroke:#0BBBF8;stroke-width:1.0354;stroke-miterlimit:10;} .st3{fill:#0BBBF8;} .st4{clip-path:url(#SVGID_2_);fill:url(#SVGID_4_);} .st5{clip-path:url(#SVGID_6_);fill:url(#SVGID_7_);} .st6{clip-path:url(#SVGID_6_);} .st7{fill:none;stroke:#0BBBF8;stroke-width:0.5194;stroke-miterlimit:10;} .st8{clip-path:url(#SVGID_6_);fill:url(#SVGID_8_);} .st9{clip-path:url(#SVGID_10_);fill:url(#SVGID_11_);} .st10{clip-path:url(#SVGID_10_);} .st11{fill:none;stroke:#0BBBF8;stroke-width:1.0598;stroke-miterlimit:10;} .st12{clip-path:url(#SVGID_10_);fill:url(#SVGID_12_);} .st13{clip-path:url(#SVGID_14_);} .st14{clip-path:url(#SVGID_16_);fill:url(#SVGID_17_);} .st15{clip-path:url(#SVGID_16_);} .st16{fill:none;stroke:#0BBBF8;stroke-width:0.4342;stroke-miterlimit:10;} .st17{clip-path:url(#SVGID_16_);fill:url(#SVGID_18_);} .st18{clip-path:url(#SVGID_20_);} .st19{clip-path:url(#SVGID_22_);fill:url(#SVGID_23_);} .st20{clip-path:url(#SVGID_22_);} .st21{fill:none;stroke:#0BBBF8;stroke-width:1.0714;stroke-miterlimit:10;} .st22{clip-path:url(#SVGID_22_);fill:url(#SVGID_24_);} .st23{fill:#2A7DE1;} .st24{opacity:0.4;clip-path:url(#XMLID_101_);fill:#231F20;} .st25{fill:#00000;} .st26{opacity:0.4;clip-path:url(#XMLID_102_);fill:#231F20;} .st27{opacity:0.4;clip-path:url(#XMLID_103_);fill:#231F20;} .st28{opacity:0.4;clip-path:url(#XMLID_104_);fill:#231F20;} </style> <g
   transform="translate(0,-0.04)"
   id="g21"> <defs
   id="defs13"> <rect
   height="2411.5"
   width="1208.5"
   transform="rotate(90,1640,558.3945)"
   y="-647.40002"
   x="1035.8"
   id="SVGID_1_" /> </defs> <clipPath
   id="SVGID_2_"> <use
   height="100%"
   width="100%"
   y="0"
   x="0"
   id="use15"
   style="overflow:visible"
   xlink:href="#SVGID_1_" /> </clipPath> <g
   id="g19"
   clip-path="url(#SVGID_2_)"
   class="st1"> <path
   d="m 219,1091.3 473.8,273.6 c 35.9,20.7 80,20.7 115.9,0 l 473.8,-273.6 c 35.9,-20.7 58,-59 58,-100.4 V 443.8 c 0,-41.4 -22.1,-79.7 -58,-100.4 L 808.7,69.9 c -35.9,-20.7 -80,-20.7 -115.9,0 L 219,343.5 c -35.9,20.7 -58,59 -58,100.4 V 991 c 0,41.4 22.1,79.6 58,100.3 z"
   class="st2"
   id="XMLID_44_" /> </g> </g> <g
   inkscape:export-ydpi="93.5"
   inkscape:export-xdpi="93.5"
   transform="translate(0,-0.04)"
   id="g57"> <path
   id="path23"
   d="m 38.3,84.6 c -0.6,-0.1 -1.3,-0.2 -1.9,-0.5 0.6,0.3 1.3,0.5 1.9,0.5 z"
   class="st25" /> <polygon
   id="polygon25"
   points="12.2,57.8 12.3,57.8 "
   class="st25" /> <path
   id="path27"
   d="M 73.2,18.5 42.9,1 C 41.5,0.2 39.8,-0.1 38.2,0.1 37.6,0.2 36.9,0.3 36.3,0.6 36,0.7 35.7,0.9 35.4,1 L 5.3,18.5 C 3,19.8 1.6,22.3 1.6,24.9 v 34.9 c 0,2.6 1.4,5.1 3.7,6.4 l 30.3,17.5 c 0.3,0.2 0.6,0.3 0.9,0.4 0.6,0.2 1.2,0.4 1.9,0.5 0.3,0 0.6,0.1 0.9,0.1 1.3,0 2.6,-0.3 3.8,-1 L 73.4,66.2 c 2.3,-1.3 3.7,-3.8 3.7,-6.4 V 37.3 24.9 C 76.9,22.2 75.5,19.8 73.2,18.5 Z M 66.3,57.8 52.8,65.6 V 38.4 L 39.6,54.5 H 38.5 L 25.4,38.4 v 27 L 12.3,57.8 v 0 0 -31.2 l 13,-7.5 v 0 0 0 l 13.9,17 1.4,-1.7 12.7,-15.4 13,7.5 v 0 z"
   class="st25" /> <g
   id="XMLID_1_"> <path
   d="m 114.5,6.1 c 4.4,0 8.2,1.5 11.3,4.5 3.1,3 4.6,6.6 4.6,10.9 0,4.3 -1.5,7.9 -4.6,10.9 -3.1,3 -6.9,4.5 -11.3,4.5 -4.4,0 -8.2,-1.5 -11.2,-4.5 -3,-3 -4.6,-6.6 -4.6,-10.9 0,-4.3 1.5,-7.9 4.6,-10.9 3,-3 6.7,-4.5 11.2,-4.5 z m 0,28.6 c 3.7,0 6.9,-1.3 9.5,-3.8 2.6,-2.6 3.9,-5.7 3.9,-9.4 0,-3.7 -1.3,-6.9 -3.9,-9.4 -2.6,-2.6 -5.7,-3.8 -9.5,-3.8 -3.8,0 -6.9,1.3 -9.5,3.8 -2.6,2.6 -3.9,5.7 -3.9,9.4 0,3.7 1.3,6.8 3.9,9.4 2.6,2.5 5.8,3.8 9.5,3.8 z"
   class="st25"
   id="XMLID_97_" /> <path
   d="m 136,6.5 h 8.3 c 3.2,0 5.6,0.7 7.3,2.1 1.7,1.4 2.5,3.4 2.5,5.8 0,2.5 -0.8,4.4 -2.5,5.9 -1.7,1.4 -4.2,2.2 -7.5,2.2 h -5.7 v 14 H 136 Z m 2.4,1.9 v 12.1 h 5.6 c 2.5,0 4.4,-0.5 5.7,-1.6 1.3,-1.1 2,-2.6 2,-4.5 0,-1.8 -0.6,-3.3 -1.9,-4.4 -1.3,-1.1 -3.1,-1.6 -5.5,-1.6 z"
   class="st25"
   id="XMLID_94_" /> <path
   d="m 174.9,6.5 v 1.9 h -14.1 v 12 h 13.7 v 2 h -13.7 v 12.2 h 14.4 v 1.9 h -16.7 v -30 z"
   class="st25"
   id="XMLID_92_" /> <path
   d="m 207.1,6.5 v 30 h -1.9 L 182.4,10.3 V 36.5 H 180 v -30 h 2 l 22.8,26.2 V 6.5 Z"
   class="st25"
   id="XMLID_90_" /> <path
   d="m 134.7,82.8 h -9 V 65.6 l -8.1,10 h -0.7 l -8.1,-10 v 17.3 h -8.7 V 53 h 8.1 l 9.2,11.2 9.2,-11.2 h 8.1 z"
   class="st25"
   id="XMLID_88_" /> <path
   d="m 175,82.8 h -9.2 l -2.4,-6 h -12.9 l -2.5,6 h -9.2 L 151.9,53 h 9.9 z m -13.7,-11.2 -4.4,-10.9 -4.4,10.9 z"
   class="st25"
   id="XMLID_85_" /> <path
   d="m 187.9,82.8 h -9 V 53 h 9 z"
   class="st25"
   id="XMLID_83_" /> <path
   d="m 227.8,82.8 h -8 L 204.4,66.2 v 16.6 h -8.9 V 53 h 8 l 15.4,16.5 V 53 h 9 v 29.8 z"
   class="st25"
   id="XMLID_81_" /> <path
   d="m 256.6,70.8 h -12.4 v 12.1 h -9 V 53 h 21.3 v 6 h -12.4 v 5.8 h 12.4 v 6 z"
   class="st25"
   id="XMLID_79_" /> <path
   d="m 291.5,82.8 h -9.6 l -2.3,-5.3 c -0.9,-1.9 -1.6,-3.3 -2.3,-4.2 -0.7,-0.9 -1.4,-1.5 -2,-1.7 -0.7,-0.3 -1.5,-0.4 -2.5,-0.4 h -1 v 11.6 h -9 V 53 h 15.3 c 2.5,0 4.5,0.5 6.1,1.5 1.6,1 2.7,2.2 3.4,3.7 0.7,1.4 1,2.8 1,4.1 0,1.5 -0.3,2.8 -0.9,3.8 -0.6,1 -1.2,1.8 -1.8,2.3 -0.6,0.5 -1.4,0.9 -2.2,1.4 1,0.6 1.8,1.2 2.4,2 0.6,0.8 1.5,2.3 2.5,4.7 z M 279.3,62.4 c 0,-1.4 -0.5,-2.3 -1.4,-2.9 -0.9,-0.5 -2.4,-0.8 -4.4,-0.8 h -1.9 v 7.2 h 1.9 c 2.2,0 3.7,-0.2 4.5,-0.7 0.9,-0.5 1.3,-1.4 1.3,-2.8 z"
   class="st25"
   id="XMLID_76_" /> <path
   d="m 328.3,82.8 h -9.2 l -2.4,-6 h -12.9 l -2.5,6 h -9.2 L 305.2,53 h 9.9 z m -13.7,-11.2 -4.4,-10.9 -4.4,10.9 z"
   class="st25"
   id="XMLID_7_" /> <path
   d="m 366.9,82.8 h -9 V 65.6 l -8.1,10 h -0.7 l -8.1,-10 v 17.3 h -8.7 V 53 h 8.1 l 9.2,11.2 9.2,-11.2 h 8.1 z"
   class="st25"
   id="XMLID_5_" /> <path
   d="M 396.9,82.8 H 374.4 V 53 h 22.1 v 6 h -13.1 v 5.5 h 12.5 v 6 h -12.5 v 6.4 h 13.5 z"
   class="st25"
   id="XMLID_3_" /> </g> <g
   id="g55"> <path
   id="path43"
   d="m 44.7,143.4 c 0,3.8 -1,7.1 -2.9,9.8 -1.9,2.8 -4.6,4.9 -8.1,6.3 -3.5,1.5 -7.4,2.2 -11.9,2.2 -1.3,0 -2.8,-0.1 -4.6,-0.2 C 15.4,161.3 13,160.9 10,160.2 7,159.5 3.9,158.4 0.6,157 v -14.8 c 3.1,1.9 6.1,3.5 9,4.7 3,1.3 6.1,1.9 9.5,1.9 3.1,0 5.1,-0.5 6,-1.5 0.9,-1 1.4,-2 1.4,-2.9 0,-1.6 -0.8,-3 -2.4,-4.1 -1.6,-1.1 -3.9,-2.3 -6.8,-3.5 C 14,135.4 11.1,133.9 8.6,132.2 6,130.5 4,128.5 2.4,126 0.8,123.5 0,120.6 0,117.2 c 0,-3.3 0.8,-6.2 2.4,-8.8 1.6,-2.6 4,-4.7 7.3,-6.3 3.3,-1.6 7.3,-2.4 12,-2.4 3.4,0 6.5,0.3 9.4,1 2.9,0.7 5.2,1.4 7.1,2.2 1.9,0.8 3.1,1.5 3.8,1.9 V 119 c -2.5,-1.8 -5.2,-3.4 -8.3,-4.8 -3,-1.4 -6.3,-2.1 -9.7,-2.1 -2.3,0 -3.9,0.4 -4.9,1.3 -1,0.9 -1.5,1.9 -1.5,3.2 0,1.2 0.5,2.2 1.5,3.1 1,0.9 2.8,1.9 5.5,3.2 4.7,2.2 8.4,4.1 11.2,5.9 2.8,1.7 5,3.8 6.6,6 1.5,2.4 2.3,5.2 2.3,8.6 z"
   class="st25" /> <path
   id="path45"
   d="m 120,133.9 c 0,5.2 -1,9.6 -2.9,13.2 -1.9,3.7 -4.5,6.5 -7.7,8.7 -3.2,2.1 -6.6,3.6 -10.3,4.6 -3.7,0.9 -7.3,1.4 -11,1.4 -5.1,0 -10.1,-0.9 -14.9,-2.6 -4.8,-1.7 -8.9,-4.7 -12.1,-8.9 -3.3,-4.2 -4.9,-9.6 -4.9,-16.4 v -33.4 h 18.2 v 28.7 c 0,4 0.6,7.3 1.7,9.9 1.1,2.6 2.7,4.5 4.8,5.7 2,1.2 4.5,1.8 7.3,1.8 2.7,0 5,-0.6 7.1,-1.8 2.1,-1.2 3.7,-3.1 4.8,-5.7 1.1,-2.6 1.7,-5.9 1.7,-9.9 V 100.5 H 120 Z"
   class="st25" /> <path
   id="path47"
   d="M 204.6,161 H 186.4 V 126 L 170,146.3 h -1.4 L 152,126 v 35 h -17.7 v -60.4 h 16.5 l 18.6,22.7 18.7,-22.7 h 16.5 z"
   class="st25" /> <path
   id="path49"
   d="M 290.2,161 H 272 v -35 l -16.4,20.3 h -1.4 L 237.6,126 v 35 h -17.7 v -60.4 h 16.5 l 18.6,22.7 18.7,-22.7 h 16.5 z"
   class="st25" /> <path
   id="path51"
   d="m 323.8,161 h -18.2 v -60.4 h 18.2 z"
   class="st25" /> <path
   id="path53"
   d="M 397,115.3 H 374.8 V 161 H 356.6 V 115.3 H 334.4 V 100.6 H 397 Z"
   class="st25" /> </g> </g> </svg>
