<svg id="Layer_1" data-name="Layer 1" xmlns="http://www.w3.org/2000/svg" xmlns:xlink="http://www.w3.org/1999/xlink" viewBox="0 0 601.41262 443.90551"><defs><style>.cls-1{fill:none;}.cls-2{fill:#488eff;}.cls-3{fill:#fff;}.cls-4{clip-path:url(#clip-path);}.cls-5{opacity:0.9;}.cls-6{fill:#3274f9;}.cls-7{clip-path:url(#clip-path-2);}</style><clipPath id="clip-path"><path class="cls-1" d="M64.75815,0H538.06709a63.34553,63.34553,0,0,1,63.34553,63.34553v252.976a0,0,0,0,1,0,0h-600a0,0,0,0,1,0,0V63.34553A63.34553,63.34553,0,0,1,64.75815,0Z"/></clipPath><clipPath id="clip-path-2"><path class="cls-1" d="M64.75815,475H538.06709a63.34553,63.34553,0,0,1,63.34553,63.34553v252.976a0,0,0,0,1,0,0h-600a0,0,0,0,1,0,0v-252.976A63.34553,63.34553,0,0,1,64.75815,475Z"/></clipPath></defs><title>Zowe_ConformanceBadge_ZoweV1</title><path class="cls-2" d="M64.75815,0H538.06709a63.34553,63.34553,0,0,1,63.34553,63.34553v252.976a0,0,0,0,1,0,0h-600a0,0,0,0,1,0,0V63.34553A63.34553,63.34553,0,0,1,64.75815,0Z"/><rect class="cls-3" x="3.21291" y="334.73461" width="596.40039" height="107.37109"/><path class="cls-2" d="M597.81252,336.53518V440.30554H5.01272V336.53518h592.7998m3.6001-3.6h-600V443.90551h600V332.93517Z"/><g class="cls-4"><g class="cls-5"><path class="cls-6" d="M356.94143-141-10,112.05857,243.05857,479,610,225.94143ZM255.9754,315.06735,281.56646,74.94142,156.0376,161.51161,170,124l-45.2933-7.91884L316.86955-16.44273,344.023,22.93056l-25.589,240.12454,129.56639-89.35461L479.33274,219.133,283.13027,354.44256Z"/></g></g><path class="cls-3" d="M157.66309,216.54q-6.98292,0-11.02442,4.65039-4.04149,4.65015-4.042,12.7334,0,8.31591,3.89746,12.84961,3.89649,4.53516,11.11133,4.53467a37.93339,37.93339,0,0,0,10.11133-1.59375v4.31738a31.151,31.151,0,0,1-10.86524,1.65137q-9.35889,0-14.44336-5.67872-5.08447-5.67846-5.084-16.13818a25.46476,25.46476,0,0,1,2.44824-11.47363,17.57414,17.57414,0,0,1,7.06934-7.59082,21.39576,21.39576,0,0,1,10.8789-2.66553,26.25136,26.25136,0,0,1,11.64746,2.43359l-2.08593,4.23A22.45357,22.45357,0,0,0,157.66309,216.54Z"/><path class="cls-3" d="M203.64355,239.19727q0,7.76513-3.91113,12.125-3.91113,4.36157-10.80664,4.36084a14.31255,14.31255,0,0,1-7.5625-1.99952,13.1957,13.1957,0,0,1-5.09961-5.73632,19.99693,19.99693,0,0,1-1.7959-8.75q0-7.76441,3.88282-12.09668,3.88183-4.33082,10.77734-4.33155a13.43447,13.43447,0,0,1,10.58984,4.43311Q203.64356,231.63477,203.64355,239.19727Zm-24.19238,0q0,6.08423,2.4336,9.27148a9.65881,9.65881,0,0,0,14.32714.01416q2.44776-3.17213,2.44825-9.28564,0-6.05567-2.44825-9.19922-2.44774-3.14356-7.22851-3.14356-4.72266,0-7.12793,3.1001Q179.45019,233.05493,179.45117,239.19727Z"/><path class="cls-3" d="M233.80469,255.10352v-20.542q0-3.88257-1.76758-5.79492-1.76661-1.91235-5.5332-1.91211-4.98341,0-7.30176,2.69434-2.31738,2.69457-2.31738,8.895v16.65967H212.0752V223.34863h3.91113l.78222,4.34619H217a9.82425,9.82425,0,0,1,4.14355-3.63623A13.465,13.465,0,0,1,227.083,222.769q5.73633,0,8.63379,2.76709t2.89746,8.85157v20.71582Z"/><path class="cls-3" d="M262.80762,227.08643h-8.084v28.01709h-4.80957V227.08643h-5.67871v-2.17334l5.67871-1.73829v-1.76709q0-11.70556,10.22852-11.70556a21.05722,21.05722,0,0,1,5.91015,1.01416l-1.24609,3.85351a15.91954,15.91954,0,0,0-4.751-.89843,4.62837,4.62837,0,0,0-4.02734,1.811q-1.30518,1.81128-1.30469,5.80908v2.05713h8.084Z"/><path class="cls-3" d="M296.01074,239.19727q0,7.76513-3.91113,12.125-3.91113,4.36157-10.80664,4.36084a14.31252,14.31252,0,0,1-7.5625-1.99952,13.1957,13.1957,0,0,1-5.09961-5.73632,19.99679,19.99679,0,0,1-1.7959-8.75q0-7.76441,3.88281-12.09668,3.88184-4.33082,10.77735-4.33155a13.43448,13.43448,0,0,1,10.58984,4.43311Q296.01075,231.63477,296.01074,239.19727Zm-24.19238,0q0,6.08423,2.43359,9.27148a9.65882,9.65882,0,0,0,14.32715.01416q2.44776-3.17213,2.44824-9.28564,0-6.05567-2.44824-9.19922-2.44774-3.14356-7.22851-3.14356-4.72266,0-7.12793,3.1001Q271.81738,233.05493,271.81836,239.19727Z"/><path class="cls-3" d="M318.92871,222.769a18.85275,18.85275,0,0,1,3.7959.34766l-.667,4.46191a16.39692,16.39692,0,0,0-3.47657-.43457,8.46535,8.46535,0,0,0-6.59179,3.1294,11.40989,11.40989,0,0,0-2.73731,7.79394v17.03614h-4.80957V223.34863h3.96875l.55078,5.88184h.23145a13.95744,13.95744,0,0,1,4.25976-4.78076A9.58872,9.58872,0,0,1,318.92871,222.769Z"/><path class="cls-3" d="M369.13965,255.10352V234.44531q0-3.79467-1.62305-5.69287a6.27422,6.27422,0,0,0-5.041-1.898q-4.49121,0-6.63477,2.57862-2.14454,2.57885-2.14453,7.93847v17.73194h-4.80957V234.44531q0-3.79467-1.62207-5.69287-1.623-1.89771-5.07031-1.898-4.52052,0-6.62012,2.709-2.10206,2.70923-2.10059,8.88037v16.65967h-4.80957V223.34863h3.91114l.78222,4.34619h.23145a9.45355,9.45355,0,0,1,3.83886-3.62158,11.72665,11.72665,0,0,1,5.54883-1.3042q7.44581,0,9.73535,5.38916h.23145a10.13107,10.13107,0,0,1,4.11426-3.94043,12.77,12.77,0,0,1,6.14258-1.44873q5.38916,0,8.06933,2.76709,2.67919,2.76709,2.67969,8.85157v20.71582Z"/><path class="cls-3" d="M403.38574,255.10352l-.95605-4.52h-.23145a13.36256,13.36256,0,0,1-4.7373,4.042,14.43849,14.43849,0,0,1-5.89551,1.05762,10.60491,10.60491,0,0,1-7.40332-2.43409,8.87353,8.87353,0,0,1-2.67969-6.92431q0-9.6189,15.38477-10.083l5.38867-.17383v-1.97021q0-3.73755-1.60742-5.519-1.60841-1.782-5.14258-1.78222a20.95367,20.95367,0,0,0-8.98242,2.43408l-1.47754-3.67969a22.60486,22.60486,0,0,1,5.14258-1.999,22.27324,22.27324,0,0,1,5.60644-.72461q5.67919,0,8.417,2.52051,2.7378,2.521,2.73829,8.084v21.67188Zm-10.86426-3.38965a9.76071,9.76071,0,0,0,7.05469-2.46289,9.112,9.112,0,0,0,2.56445-6.89551v-2.86865l-4.80957.20263q-5.73779.20363-8.27246,1.78223a5.37233,5.37233,0,0,0-2.53515,4.91064,4.95505,4.95505,0,0,0,1.5791,3.96973A6.5529,6.5529,0,0,0,392.52148,251.71387Z"/><path class="cls-3" d="M438.58887,255.10352v-20.542q0-3.88257-1.76758-5.79492-1.76661-1.91235-5.5332-1.91211-4.98341,0-7.30176,2.69434-2.31738,2.69457-2.31738,8.895v16.65967h-4.80958V223.34863h3.91114l.78222,4.34619h.23145a9.82425,9.82425,0,0,1,4.14355-3.63623,13.465,13.465,0,0,1,5.93946-1.28955q5.73633,0,8.63379,2.76709t2.89746,8.85157v20.71582Z"/><path class="cls-3" d="M463.53418,251.71387a15.65534,15.65534,0,0,0,2.46289-.18848,15.94447,15.94447,0,0,0,1.88379-.39111V254.814a8.80137,8.80137,0,0,1-2.30371.62256,17.31092,17.31092,0,0,1-2.73828.24659q-9.2124,0-9.21289-9.70606V227.08643h-4.54883v-2.31788L453.626,222.769l2.02832-6.77978h2.78125v7.35937h9.21289v3.7378h-9.21289v18.6875a6.42764,6.42764,0,0,0,1.36132,4.40429A4.738,4.738,0,0,0,463.53418,251.71387Z"/><polygon class="cls-3" points="143.781 103.213 143.783 103.214 143.782 103.213 143.781 103.213"/><path class="cls-1" d="M381.58818,59.57407a1.61833,1.61833,0,0,0,.65225-1.44775V58.08a1.62152,1.62152,0,0,0-.74008-1.5356,4.731,4.731,0,0,0-2.36365-.44867h-1.013v3.87149h1.03148A5.41652,5.41652,0,0,0,381.58818,59.57407Z"/><path class="cls-1" d="M473.64063,59.42609a2.72576,2.72576,0,0,0,.31912-3.83913l-.333-.333a4.63393,4.63393,0,0,0-2.82617-.754H468.437v5.66623h2.39137A4.66032,4.66032,0,0,0,473.64063,59.42609Z"/><path class="cls-1" d="M461.348,59.52784a2.89731,2.89731,0,0,0,.20945-4.09207l-.00134-.00148a.26148.26148,0,0,1-.0324-.037l-.1434-.15728a4.01275,4.01275,0,0,0-2.64113-.78166l-2.82612.04159v5.79575h2.68272A4.20062,4.20062,0,0,0,461.348,59.52784Z"/><path class="cls-1" d="M336.28968,121.02359c-11.02579,0-17.61567,8.49088-17.61567,18.50256v.253c0,10.01167,7.22379,18.75626,17.86938,18.75626,11.02505,0,17.61493-8.49087,17.61493-18.50255v-.25371C354.1583,129.76781,346.93455,121.02359,336.28968,121.02359Z"/><polygon class="cls-1" points="398.878 57.212 396.514 63.008 401.228 63.008 398.878 57.212"/><path class="cls-1" d="M244.76005,60.47094a3.273,3.273,0,0,0,.17576-4.62082.67407.67407,0,0,0-.1619-.1619,4.32072,4.32072,0,0,0-2.89553-.88344H238.673v6.52191h3.01577A4.83817,4.83817,0,0,0,244.76005,60.47094Z"/><path class="cls-1" d="M520.42829,119.883c-7.98419,0-13.17976,5.70263-14.70056,14.44721h29.02092C533.60805,125.71248,528.539,119.883,520.42829,119.883Z"/><polygon class="cls-1" points="316.39 57.212 314.017 63.008 318.74 63.008 316.39 57.212"/><path class="cls-1" d="M220.70168,66.95028a7.36937,7.36937,0,0,0,10.21763,0,7.24576,7.24576,0,0,0,0-10.14359,7.37218,7.37218,0,0,0-10.21763,0,7.15509,7.15509,0,0,0-.02475,10.11878l.00627.00628Z"/><path class="cls-1" d="M492.45228,65.34294a6.46627,6.46627,0,0,0,0-9.07511,6.56,6.56,0,0,0-9.14455,0,6.40694,6.40694,0,0,0-.00051,9.06074l.00051.00049A6.25559,6.25559,0,0,0,487.887,67.17v.01388A6.20627,6.20627,0,0,0,492.45228,65.34294Z"/><path class="cls-3" d="M455.91314,61.267h2.75213a5.382,5.382,0,0,0,3.60785-1.04071,3.52058,3.52058,0,0,0,1.22112-2.82613,3.40664,3.40664,0,0,0-1.22112-2.7984,5.1858,5.1858,0,0,0-3.48761-1.03148h-3.98714V68.03866h1.11477Zm0-6.76706,2.82613-.04159a4.01278,4.01278,0,0,1,2.64112.78166l.14341.15728a.26085.26085,0,0,0,.0324.037,2.89728,2.89728,0,0,1-.20665,4.09221l-.00147.00134a4.20051,4.20051,0,0,1-2.75217.76785h-2.68272Z"/><path class="cls-3" d="M468.39533,61.12364h1.99821a3.6484,3.6484,0,0,1,2.05833.49489,9.42057,9.42057,0,0,1,1.95652,2.47924l2.52089,3.94089H478.266l-3.27481-5.00014a6.69488,6.69488,0,0,0-1.9288-2.2202,3.59369,3.59369,0,0,0,2.75212-3.5061,3.33955,3.33955,0,0,0-1.23036-2.72436,5.48663,5.48663,0,0,0-3.56621-1.0176h-3.69577l-.0416,14.49616h1.11472Zm.04164-6.6237h2.36357a4.63393,4.63393,0,0,1,2.82617.754l.333.333a2.72576,2.72576,0,0,1-.31912,3.83913,4.66024,4.66024,0,0,1-2.81229.74008H468.437Z"/><path class="cls-3" d="M493.32179,66.06449l.17581-.185c.02776-.03238.05548-.06011.08324-.08784a7.24959,7.24959,0,0,0-.25813-10.24918l-.00092-.00085a7.91224,7.91224,0,0,0-10.8559,0l-.14336.148-.00924.00464a7.33877,7.33877,0,0,0,.1526,10.37022A7.90594,7.90594,0,0,0,493.32179,66.06449Zm-10.01406-.73544a6.40692,6.40692,0,0,1-.00051-9.06073l.00051-.00049a6.56,6.56,0,0,1,9.14455,0,6.46626,6.46626,0,0,1,0,9.0751,6.20623,6.20623,0,0,1-4.56533,1.84093V67.17A6.25559,6.25559,0,0,1,483.30773,65.32905Z"/><path class="cls-3" d="M498.149,72.25845a2.89937,2.89937,0,0,0,2.13237-.91584,4.69027,4.69027,0,0,0,.89737-3.2748V53.57164H500.064V68.387c0,1.94268-.666,2.90012-2.03052,2.90012a3.47584,3.47584,0,0,1-.65225-.074l.1018,1.04537Q497.81606,72.27227,498.149,72.25845Z"/><polygon class="cls-3" points="514.164 67.097 507.24 67.097 507.24 61.227 513.831 61.227 513.831 60.283 507.24 60.283 507.24 54.501 514.007 54.501 514.007 53.572 506.121 53.572 506.121 68.036 514.164 68.036 514.164 67.097"/><path class="cls-3" d="M530.2256,54.6017v.00253c.01967.00942.04045.01572.06007.02523Z"/><path class="cls-3" d="M525.25318,68.24219a10.747,10.747,0,0,0,5.11577-1.35065V65.73517a10.92691,10.92691,0,0,1-5.14349,1.44777,6.38124,6.38124,0,0,1-4.65322-1.78541,6.13284,6.13284,0,0,1-1.81316-4.607,6.20857,6.20857,0,0,1,1.81316-4.57917,6.07648,6.07648,0,0,1,4.4913-1.84093,11.06831,11.06831,0,0,1,5.16206,1.44771V54.60423a12.151,12.151,0,0,0-5.0279-1.19125,7.54565,7.54565,0,0,0-5.35161,2.13233.531.531,0,0,1-.10181.10176l-.00441.00463h-.00023a7.4064,7.4064,0,0,0,.00464,10.472A7.58229,7.58229,0,0,0,525.25318,68.24219Z"/><polygon class="cls-3" points="538.065 68.036 539.198 68.036 539.198 54.501 544.619 54.501 544.619 53.572 532.63 53.572 532.63 54.501 538.065 54.501 538.065 68.036"/><polygon class="cls-3" points="304.464 69.052 304.464 53.024 300.07 53.024 295.13 59.038 290.204 53.024 285.823 53.024 285.823 69.052 290.518 69.052 290.518 59.763 294.885 65.139 295.273 65.139 299.621 59.763 299.621 69.052 304.464 69.052"/><path class="cls-3" d="M312.884,65.80642h6.9567l1.31824,3.24709h4.94462L319.10532,53.0217h-5.40718l-7.09082,16.03181H311.552Zm3.50618-8.59407L318.74,63.008h-4.72267Z"/><rect class="cls-3" x="328.24983" y="53.02487" width="4.82438" height="16.02716"/><polygon class="cls-3" points="341.917 60.124 350.234 69.052 354.526 69.052 354.526 53.024 349.711 53.024 349.711 61.905 341.422 53.024 337.134 53.024 337.134 69.052 341.917 69.052 341.917 60.124"/><polygon class="cls-3" points="363.384 62.559 370.035 62.559 370.035 59.344 363.384 59.344 363.384 56.24 370.035 56.24 370.035 53.021 358.555 53.021 358.555 69.052 363.384 69.052 363.384 62.559"/><path class="cls-3" d="M380.02478,62.95064a2.68943,2.68943,0,0,1,1.08236.92509A12.418,12.418,0,0,1,382.356,66.156l1.25813,2.89553h5.18977l-1.57728-3.50605a12.791,12.791,0,0,0-1.42005-2.47925,4.44909,4.44909,0,0,0-1.2766-1.07309,10.994,10.994,0,0,0,1.17484-.72621A3.75952,3.75952,0,0,0,386.69,60.0505a4.07662,4.07662,0,0,0,.46256-2.05832,5.06543,5.06543,0,0,0-.55049-2.20169,4.86741,4.86741,0,0,0-1.84092-1.95661,5.92518,5.92518,0,0,0-3.26093-.80944h-8.21938V69.01h4.84286V62.74716h.53656A3.92671,3.92671,0,0,1,380.02478,62.95064Zm-1.90109-6.85489h1.013a4.731,4.731,0,0,1,2.36365.44868,1.62148,1.62148,0,0,1,.74009,1.53559v.04631a1.61838,1.61838,0,0,1-.65225,1.44776,5.41669,5.41669,0,0,1-2.433.39316h-1.03148Z"/><path class="cls-3" d="M395.3859,65.80642h6.95662l1.30436,3.24709h4.94461L401.52843,53.0217h-5.347l-7.08613,16.03181h4.95849Zm3.49221-8.59407,2.34973,5.79565h-4.71329Z"/><polygon class="cls-3" points="415.414 59.763 419.795 65.139 420.169 65.139 424.536 59.763 424.536 69.052 429.36 69.052 429.36 53.024 424.984 53.024 420.026 59.038 415.114 53.024 410.719 53.024 410.719 69.052 415.414 69.052 415.414 59.763"/><polygon class="cls-3" points="445.492 65.819 438.244 65.819 438.244 62.4 444.97 62.4 444.97 59.167 438.244 59.167 438.244 56.239 445.289 56.239 445.289 53.024 433.406 53.024 433.406 69.052 445.492 69.052 445.492 65.819"/><path class="cls-3" d="M231.89063,67.75972l.20352-.19888a.14167.14167,0,0,1,.037-.037,8.17582,8.17582,0,0,0-.24052-11.559,8.30713,8.30713,0,0,0-6.07318-2.40522v.04163a8.34414,8.34414,0,0,0-6.0455,2.40523l-.15723.1619a8.2013,8.2013,0,0,0,.15723,11.59135A8.83813,8.83813,0,0,0,231.89063,67.75972Zm-11.18895-10.953a7.37216,7.37216,0,0,1,10.21763,0,7.24575,7.24575,0,0,1,0,10.14358,7.36935,7.36935,0,0,1-10.21763,0l-.01848-.01852a7.15507,7.15507,0,0,1,.0122-10.11879l.00628-.00626Z"/><path class="cls-3" d="M238.599,62.372h3.08974a6.06389,6.06389,0,0,0,4.01494-1.17484,4.22665,4.22665,0,0,0,.08783-6.29063,5.99452,5.99452,0,0,0-3.91313-1.14712h-4.45426L237.35471,69.893H238.599Zm.074-7.56722h3.20541a4.32062,4.32062,0,0,1,2.89552.88344.67357.67357,0,0,1,.16191.1619,3.273,3.273,0,0,1-.17576,4.62081,4.83821,4.83821,0,0,1-3.07134.85573h-3.01576Z"/><polygon class="cls-3" points="258.546 68.878 250.789 68.878 250.789 62.314 258.157 62.314 258.157 61.269 250.789 61.269 250.789 54.807 258.356 54.807 258.356 53.762 249.545 53.762 249.545 69.923 258.546 69.923 258.546 68.878"/><polygon class="cls-3" points="262.36 55.787 274.632 69.923 275.663 69.923 275.663 53.762 274.414 53.762 274.414 67.878 262.17 53.762 261.112 53.762 261.112 69.923 262.36 69.923 262.36 55.787"/><polygon class="cls-3" points="217.29 102.014 264.56 102.014 215.769 158.789 215.769 173.616 289.653 173.616 289.653 156.508 240.862 156.508 289.653 99.733 289.653 84.906 217.29 84.906 217.29 102.014"/><path class="cls-3" d="M336.54337,104.422c-21.16395,0-36.87862,15.84117-36.87862,35.35709v.25371c0,19.51667,15.58745,35.10411,36.62491,35.10411,21.16394,0,36.87788-15.84116,36.87788-35.35782v-.253C373.16756,120.00948,357.58009,104.422,336.54337,104.422Zm17.61493,35.61081c0,10.01168-6.58991,18.50255-17.61493,18.50255-10.64559,0-17.86938-8.74459-17.86938-18.75626v-.253c0-10.01168,6.5899-18.50255,17.61567-18.50255,10.64485,0,17.86864,8.74422,17.86864,18.75553Z"/><polygon class="cls-3" points="451.233 147.003 438.307 105.436 421.705 105.436 408.906 146.876 398.007 105.689 378.49 105.689 399.401 174.123 416.636 174.123 429.942 132.429 442.995 174.123 460.357 174.123 481.522 105.689 462.385 105.689 451.233 147.003"/><path class="cls-3" d="M553.50491,141.29992c0-19.26259-10.39187-36.87789-33.07662-36.87789-19.76964,0-33.58331,15.96766-33.58331,35.35709v.25371c0,20.78375,15.08076,35.10411,35.48431,35.10411,12.29287,0,21.41692-4.81611,27.75383-12.67308l-11.02579-9.758c-5.32279,4.9426-10.01167,6.97008-16.47438,6.97008-8.6181,0-14.70129-4.56239-16.60155-13.307h47.26976C553.37769,144.59522,553.50491,142.82073,553.50491,141.29992Zm-47.77718-6.96972c1.5208-8.74458,6.71637-14.44721,14.70056-14.44721,8.11068,0,13.17976,5.82949,14.32036,14.44721Z"/><path class="cls-3" d="M130.9053,44,40,106.6922l62.6922,90.90531,90.90531-62.69221ZM105.89219,156.98517l6.33988-59.48829L81.13381,118.9436,73.372,107.68875l47.606-32.83119,6.727,9.75426-6.33936,59.488,32.0985-22.13653,7.7622,11.25536-48.60679,33.52131Z"/><g class="cls-7"><g class="cls-5"><path class="cls-6" d="M356.94143,334-10,587.05857,243.05857,954,610,700.94143ZM255.9754,790.06735l25.59106-240.12593L156.0376,636.51161,170,599l-45.2933-7.91884L316.86955,458.55727,344.023,497.93056l-25.589,240.12454,129.56639-89.35461L479.33274,694.133,283.13027,829.44256Z"/></g></g><path class="cls-2" d="M48.95312,396.03418l-1.39648-4.58789H40.5293l-1.39746,4.58789H34.72852l6.80273-19.35352h4.99609l6.83008,19.35352Zm-2.373-8.01563q-1.93653-6.23583-2.18164-7.05273-.24316-.81738-.34961-1.293-.43359,1.689-2.49121,8.3457Z"/><path class="cls-2" d="M72.33789,382.77148a5.89008,5.89008,0,0,1-1.94434,4.75879,8.31445,8.31445,0,0,1-5.53125,1.64844H63.10937v6.85547H59.02246V376.75977h6.15625a8.18616,8.18616,0,0,1,5.333,1.50976A5.50157,5.50157,0,0,1,72.33789,382.77148Zm-9.22852,3.0586H64.4541a4.47521,4.47521,0,0,0,2.82129-.74512,2.60514,2.60514,0,0,0,.93652-2.168,2.67278,2.67278,0,0,0-.78515-2.123,3.67535,3.67535,0,0,0-2.459-.68555h-1.8584Z"/><path class="cls-2" d="M79.2168,396.03418V376.75977h4.08691v19.27441Z"/><path class="cls-2" d="M109.80957,396.03418,105.169,380.91309h-.11817q.25048,4.61425.251,6.15625v8.96484h-3.65235V376.75977h5.56348l4.56152,14.73925h.07911l4.83886-14.73925h5.5625v19.27441h-3.80957v-9.123q0-.646.01953-1.49023.02052-.84228.17871-4.48242h-.11914l-4.9707,15.0957Z"/><path class="cls-2" d="M141.44727,396.03418H130.34668V376.75977h11.10059v3.34863h-7.01368v4.23242H140.96v3.34766h-6.52637v4.9707h7.01368Z"/><path class="cls-2" d="M164.7002,386.21191q0,4.76075-2.71,7.291-2.70849,2.53125-7.82421,2.53125h-5.458V376.75977h6.05078q4.71972,0,7.33008,2.49121A9.16886,9.16886,0,0,1,164.7002,386.21191Zm-4.2461.10547q0-6.208-5.48437-6.209h-2.17481v12.55078h1.75293Q160.4541,392.65918,160.4541,386.31738Z"/><path class="cls-2" d="M171.93457,396.03418V376.75977h4.08691v19.27441Z"/><path class="cls-2" d="M195.91211,396.03418l-1.39649-4.58789h-7.02734l-1.39746,4.58789H181.6875l6.80273-19.35352h4.9961l6.83008,19.35352Zm-2.37305-8.01563q-1.93651-6.23583-2.18164-7.05273-.24316-.81738-.34961-1.293-.43359,1.689-2.49121,8.3457Z"/><path class="cls-2" d="M213.417,396.03418h-4.08691v-15.873h-5.2334v-3.40136h14.55469v3.40136H213.417Z"/><path class="cls-2" d="M224.85742,396.03418V376.75977h4.08692v19.27441Z"/><path class="cls-2" d="M254.5293,386.37012q0,4.7871-2.37305,7.35742a10.28742,10.28742,0,0,1-13.60547,0q-2.373-2.57226-2.37305-7.38281,0-4.812,2.37989-7.35059a8.90159,8.90159,0,0,1,6.82324-2.53809q4.44141,0,6.7959,2.5586Q254.5293,381.57227,254.5293,386.37012Zm-14.06641,0a8.04407,8.04407,0,0,0,1.22656,4.86523,4.28691,4.28691,0,0,0,3.66407,1.63477q4.89111,0,4.8916-6.5,0-6.51123-4.86426-6.51172a4.31963,4.31963,0,0,0-3.67871,1.64062A8.01956,8.01956,0,0,0,240.46289,386.37012Z"/><path class="cls-2" d="M278.86426,396.03418H273.669l-8.38477-14.58106H265.166q.25049,3.8628.251,5.51075v9.07031h-3.65234V376.75977h5.1543l8.37207,14.43652h.09277q-.19921-3.75879-.19824-5.31348v-9.123h3.67871Z"/><path class="cls-2" d="M297.209,396.03418V376.75977h4.08692v15.89941h7.81738v3.375Z"/><path class="cls-2" d="M327.501,396.03418l-1.39649-4.58789h-7.02734l-1.39746,4.58789h-4.40332l6.80273-19.35352h4.9961l6.83007,19.35352Zm-2.37305-8.01563q-1.93653-6.23583-2.18164-7.05273-.24316-.81738-.34961-1.293-.43359,1.689-2.49121,8.3457Z"/><path class="cls-2" d="M343.56934,384.69629l4.02148-7.93652h4.40332l-6.39355,11.77246v7.50195H341.54V388.665l-6.39453-11.90527h4.42969Z"/><path class="cls-2" d="M368.75977,396.03418H357.65918V376.75977h11.10059v3.34863h-7.01368v4.23242h6.52637v3.34766h-6.52637v4.9707h7.01368Z"/><path class="cls-2" d="M380.1084,388.6377v7.39648h-4.08692V376.75977h5.61622q3.92871,0,5.81347,1.43066a5.70082,5.70082,0,0,1,.94922,7.36914,6.18048,6.18048,0,0,1-2.64941,2.07617q4.35058,6.501,5.66894,8.39844h-4.53515l-4.60157-7.39648Zm0-3.32227h1.31836a5.04219,5.04219,0,0,0,2.86035-.64551,2.30647,2.30647,0,0,0,.92383-2.03027,2.10859,2.10859,0,0,0-.94336-1.95117,5.71776,5.71776,0,0,0-2.91992-.58008H380.1084Z"/><path class="cls-2" d="M405.71777,390.44434v-3.2959h7.0791v3.2959Z"/><path class="cls-2" d="M442.085,396.03418H427.74121v-2.65039l9.24121-13.249h-8.99121v-3.375H441.834v2.63671l-9.22851,13.2627H442.085Z"/><path class="cls-2" d="M465.89062,386.37012q0,4.7871-2.373,7.35742a10.28742,10.28742,0,0,1-13.60547,0q-2.373-2.57226-2.373-7.38281,0-4.812,2.37989-7.35059a8.90159,8.90159,0,0,1,6.82324-2.53809q4.4414,0,6.7959,2.5586Q465.89063,381.57227,465.89062,386.37012Zm-14.0664,0a8.04407,8.04407,0,0,0,1.22656,4.86523,4.28691,4.28691,0,0,0,3.66406,1.63477q4.89113,0,4.89161-6.5,0-6.51123-4.86426-6.51172a4.31962,4.31962,0,0,0-3.67871,1.64062A8.01949,8.01949,0,0,0,451.82422,386.37012Z"/><path class="cls-2" d="M491.89941,396.03418h-4.65429l-2.60938-10.125q-.14647-.54053-.49512-2.23438-.34863-1.69482-.40136-2.27441-.07911.71191-.39649,2.28711-.31639,1.57617-.4873,2.248l-2.59668,10.09863h-4.64063l-4.918-19.27441h4.02148l2.46484,10.5205q.646,2.91359.93555,5.04883.07909-.75.36328-2.32617.28272-1.57617.5332-2.44531l2.8086-10.79785h3.86328l2.80762,10.79785q.18456.7251.46191,2.21484.27538,1.48974.42188,2.55664.13036-1.02832.42187-2.56348.28857-1.53661.52734-2.48535l2.45118-10.5205h4.02148Z"/><path class="cls-2" d="M513.56934,396.03418H502.46875V376.75977h11.10059v3.34863h-7.01368v4.23242H513.082v3.34766h-6.52637v4.9707h7.01368Z"/><path class="cls-2" d="M542.08008,376.75977h4.126l-6.55175,19.27441h-4.45606l-6.53906-19.27441h4.12695l3.625,11.46972q.30323,1.01514.626,2.36621.32373,1.35206.40234,1.87891a33.61762,33.61762,0,0,1,.98926-4.24512Z"/><path class="cls-2" d="M560.59961,396.03418h-4.07324V384.88086l.03906-1.833.06641-2.0039q-1.01661,1.01659-1.41114,1.332l-2.21484,1.77929L551.042,381.7041l6.209-4.94433h3.34863Z"/></svg>