<?xml version="1.0" encoding="UTF-8" standalone="no"?>
<svg
   id="a"
   viewBox="0 0 624.24 469.28"
   version="1.1"
   xmlns="http://www.w3.org/2000/svg"
   xmlns:svg="http://www.w3.org/2000/svg">
  <defs
     id="defs7">
    <style
       id="style2">.c{fill:none;}.d{fill:#fff;}.e{fill:#3274f9;}.f,.g{fill:#488eff;}.g{font-family:OpenSans-Bold, Open Sans;font-size:27px;letter-spacing:.12em;}.h{opacity:.58;}.i{opacity:.9;}.j{clip-path:url(#b);}</style>
    <clipPath
       id="b">
      <path
         class="c"
         d="M75.08,7.38h473.31c34.98,0,63.35,28.36,63.35,63.35V342.14H11.74V70.72C11.74,35.74,40.1,7.38,75.08,7.38h0Z"
         id="path4" />
    </clipPath>
  </defs>
  <path
     class="f"
     d="M611.74,342.14H11.74V70.72C11.74,35.74,40.1,7.38,75.08,7.38h473.31c34.98,0,63.35,28.36,63.35,63.35"
     id="path9" />
  <path
     class="f"
     d="M608.14,355.91v103.77H15.34v-103.77H608.14m3.6-3.6H11.74v110.97H611.74v-110.97Z"
     id="path11" />
  <g
     class="j"
     clip-path="url(#b)"
     id="g17">
    <g
       class="i"
       id="g15">
      <path
         class="e"
         d="M 367.26,-133.62 0.32,119.44 253.38,486.38 620.32,233.32 Z M 266.29,322.45 291.88,82.32 166.35,168.89 180.31,131.38 135.02,123.46 327.19,-9.07 354.34,30.3 328.75,270.42 458.32,181.07 489.65,226.5 293.45,361.81 266.3,322.43 Z"
         id="path13" />
    </g>
  </g>
  <polygon
     class="d"
     points="154.1 110.59 154.11 110.59 154.11 110.59 154.1 110.59"
     id="polygon19" />
  <path
     class="c"
     d="M391.91,66.95c.46-.34,.7-.88,.65-1.45v-.05c.06-.61-.22-1.21-.74-1.54-.74-.35-1.55-.51-2.36-.45h-1.01v3.87h1.03c.83,.06,1.66-.08,2.43-.39Z"
     id="path21" />
  <path
     class="c"
     d="M483.96,66.8c1.15-.97,1.29-2.69,.32-3.84l-.33-.33c-.84-.55-1.83-.81-2.83-.75h-2.36v5.67h2.39c.99,.06,1.98-.2,2.81-.74Z"
     id="path23" />
  <path
     class="c"
     d="M471.67,66.91c1.19-1.07,1.28-2.9,.21-4.09h0s-.02-.03-.03-.04l-.14-.16c-.76-.56-1.7-.84-2.64-.78l-2.83,.04v5.8h2.68c.98,.07,1.95-.2,2.75-.77Z"
     id="path25" />
  <path
     class="c"
     d="M346.61,128.4c-11.03,0-17.62,8.49-17.62,18.5v.25c0,10.01,7.22,18.76,17.87,18.76s17.61-8.49,17.61-18.5v-.25c0-10.01-7.22-18.76-17.87-18.76Z"
     id="path27" />
  <polygon
     class="c"
     points="409.2 64.59 406.84 70.39 411.55 70.39 409.2 64.59"
     id="polygon29" />
  <path
     class="c"
     d="M255.08,67.85c1.32-1.23,1.4-3.3,.18-4.62-.04-.06-.1-.12-.16-.16-.83-.63-1.86-.95-2.9-.88h-3.21v6.52h3.02c1.09,.07,2.17-.23,3.07-.86Z"
     id="path31" />
  <path
     class="c"
     d="M530.75,127.26c-7.98,0-13.18,5.7-14.7,14.45h29.02c-1.14-8.62-6.21-14.45-14.32-14.45Z"
     id="path33" />
  <polygon
     class="c"
     points="326.71 64.59 324.34 70.39 329.06 70.39 326.71 64.59"
     id="polygon35" />
  <path
     class="c"
     d="M231.02,74.33c2.85,2.74,7.36,2.74,10.22,0,2.76-2.82,2.76-7.33,0-10.14-2.85-2.74-7.36-2.74-10.22,0-2.8,2.79-2.81,7.32-.02,10.12h0l.02,.02Z"
     id="path37" />
  <path
     class="c"
     d="M502.78,72.72c2.48-2.52,2.48-6.56,0-9.08-2.55-2.47-6.6-2.47-9.14,0-2.5,2.5-2.5,6.56,0,9.06h0c1.21,1.22,2.87,1.88,4.58,1.84h0c1.71,.06,3.36-.61,4.57-1.83Z"
     id="path39" />
  <path
     class="d"
     d="M466.24,68.64h2.75c1.29,.1,2.57-.27,3.61-1.04,.82-.7,1.27-1.75,1.22-2.83,.06-1.07-.4-2.11-1.22-2.8-1-.75-2.24-1.12-3.49-1.03h-3.99v14.47h1.11v-6.77Zm0-6.77l2.83-.04c.95-.06,1.88,.22,2.64,.78l.14,.16s.02,.03,.03,.04c1.07,1.19,.98,3.02-.21,4.09h0c-.8,.57-1.77,.84-2.75,.77h-2.68v-5.8Z"
     id="path41" />
  <path
     class="d"
     d="M478.72,68.5h2c.72-.04,1.44,.13,2.06,.49,.79,.71,1.45,1.55,1.96,2.48l2.52,3.94h1.34l-3.27-5c-.47-.87-1.13-1.63-1.93-2.22,1.62-.39,2.76-1.84,2.75-3.51,.04-1.05-.41-2.06-1.23-2.72-1.03-.74-2.3-1.1-3.57-1.02h-3.7l-.04,14.5h1.11v-6.94Zm.04-6.62h2.36c1-.06,1.99,.2,2.83,.75l.33,.33c.97,1.15,.83,2.87-.32,3.84-.83,.54-1.82,.8-2.81,.74h-2.39v-5.67Z"
     id="path43" />
  <path
     class="d"
     d="M503.64,73.44l.18-.18s.06-.06,.08-.09c2.76-2.9,2.64-7.49-.26-10.25h0c-3.05-2.87-7.81-2.87-10.86,0l-.14,.15h0c-2.82,2.91-2.75,7.55,.15,10.37,3.05,2.88,7.81,2.88,10.86,0Zm-10.01-.74c-2.5-2.5-2.5-6.56,0-9.06h0c2.55-2.48,6.6-2.48,9.14,0,2.48,2.52,2.48,6.56,0,9.08-1.2,1.22-2.85,1.88-4.57,1.84h0c-1.71,.03-3.37-.64-4.58-1.85h0Z"
     id="path45" />
  <path
     class="d"
     d="M508.47,79.64c.81,0,1.58-.33,2.13-.92,.7-.94,1.02-2.11,.9-3.27v-14.5h-1.11v14.82c0,1.94-.67,2.9-2.03,2.9-.22,0-.44-.03-.65-.07l.1,1.05c.22,0,.44,0,.67,0Z"
     id="path47" />
  <polygon
     class="d"
     points="524.49 74.47 517.56 74.47 517.56 68.6 524.15 68.6 524.15 67.66 517.56 67.66 517.56 61.88 524.33 61.88 524.33 60.95 516.44 60.95 516.44 75.41 524.49 75.41 524.49 74.47"
     id="polygon49" />
  <path
     class="d"
     d="M540.55,61.98h0s.04,.02,.06,.03l-.06-.03Z"
     id="path51" />
  <path
     class="d"
     d="M535.58,75.62c1.79-.02,3.55-.48,5.12-1.35v-1.16c-1.57,.9-3.34,1.4-5.14,1.45-1.73,.06-3.41-.58-4.65-1.79-1.22-1.21-1.88-2.88-1.81-4.61-.05-1.71,.6-3.37,1.81-4.58,1.18-1.21,2.8-1.88,4.49-1.84,1.81,.05,3.59,.55,5.16,1.45v-1.21c-1.57-.75-3.29-1.16-5.03-1.19-2-.02-3.92,.74-5.35,2.13-.03,.04-.06,.07-.1,.1h0c-2.89,2.9-2.89,7.59,0,10.48,1.47,1.42,3.46,2.19,5.51,2.12Z"
     id="path53" />
  <polygon
     class="d"
     points="548.39 75.41 549.52 75.41 549.52 61.88 554.94 61.88 554.94 60.95 542.95 60.95 542.95 61.88 548.39 61.88 548.39 75.41"
     id="polygon55" />
  <polygon
     class="d"
     points="314.79 76.43 314.79 60.4 310.39 60.4 305.45 66.42 300.53 60.4 296.15 60.4 296.15 76.43 300.84 76.43 300.84 67.14 305.21 72.52 305.6 72.52 309.94 67.14 309.94 76.43 314.79 76.43"
     id="polygon57" />
  <path
     class="d"
     d="M323.21,73.18h6.96l1.32,3.25h4.94l-7-16.03h-5.41l-7.09,16.03h4.94l1.33-3.25Zm3.51-8.59l2.35,5.8h-4.72l2.37-5.8Z"
     id="path59" />
  <rect
     class="d"
     x="338.57"
     y="60.4"
     width="4.82"
     height="16.03"
     id="rect61" />
  <polygon
     class="d"
     points="352.24 67.5 360.56 76.43 364.85 76.43 364.85 60.4 360.03 60.4 360.03 69.28 351.75 60.4 347.46 60.4 347.46 76.43 352.24 76.43 352.24 67.5"
     id="polygon63" />
  <polygon
     class="d"
     points="373.71 69.94 380.36 69.94 380.36 66.72 373.71 66.72 373.71 63.62 380.36 63.62 380.36 60.4 368.88 60.4 368.88 76.43 373.71 76.43 373.71 69.94"
     id="polygon65" />
  <path
     class="d"
     d="M390.35,70.33c.44,.21,.81,.53,1.08,.93,.49,.71,.91,1.48,1.25,2.28l1.26,2.9h5.19l-1.58-3.51c-.38-.88-.86-1.71-1.42-2.48-.35-.43-.79-.8-1.28-1.07,.41-.22,.8-.46,1.17-.73,.41-.33,.75-.75,.99-1.22,.33-.63,.49-1.34,.46-2.06-.01-.77-.2-1.52-.55-2.2-.42-.81-1.06-1.49-1.84-1.96-.99-.58-2.12-.86-3.26-.81h-8.22v15.99h4.84v-6.26h.54c.46-.01,.93,.06,1.36,.2Zm-1.9-6.85h1.01c.81-.06,1.63,.1,2.36,.45,.52,.33,.8,.92,.74,1.54v.05c.05,.56-.2,1.11-.65,1.45-.77,.32-1.6,.45-2.43,.39h-1.03v-3.87Z"
     id="path67" />
  <path
     class="d"
     d="M405.71,73.18h6.96l1.3,3.25h4.94l-7.06-16.03h-5.35l-7.09,16.03h4.96l1.33-3.25Zm3.49-8.59l2.35,5.8h-4.71l2.36-5.8Z"
     id="path69" />
  <polygon
     class="d"
     points="425.74 67.14 430.12 72.52 430.49 72.52 434.86 67.14 434.86 76.43 439.68 76.43 439.68 60.4 435.31 60.4 430.35 66.42 425.44 60.4 421.04 60.4 421.04 76.43 425.74 76.43 425.74 67.14"
     id="polygon71" />
  <polygon
     class="d"
     points="455.82 73.2 448.57 73.2 448.57 69.78 455.29 69.78 455.29 66.54 448.57 66.54 448.57 63.62 455.61 63.62 455.61 60.4 443.73 60.4 443.73 76.43 455.82 76.43 455.82 73.2"
     id="polygon73" />
  <path
     class="d"
     d="M242.21,75.14l.2-.2s.02-.03,.04-.04c3.13-3.26,3.02-8.43-.24-11.56-1.61-1.6-3.81-2.47-6.07-2.41v.04c-2.26-.05-4.44,.82-6.05,2.41l-.16,.16c-3.16,3.25-3.08,8.43,.16,11.59,3.4,3.21,8.72,3.21,12.12,0Zm-11.19-10.95c2.85-2.74,7.36-2.74,10.22,0,2.76,2.82,2.76,7.33,0,10.14-2.85,2.74-7.36,2.74-10.22,0l-.02-.02c-2.79-2.8-2.79-7.33,.01-10.12h0Z"
     id="path75" />
  <path
     class="d"
     d="M248.92,69.75h3.09c1.44,.1,2.86-.32,4.01-1.17,1.76-1.53,1.94-4.2,.41-5.96-.1-.11-.21-.22-.32-.33-1.13-.83-2.51-1.23-3.91-1.15h-4.45l-.07,16.13h1.24v-7.52Zm.07-7.57h3.21c1.04-.06,2.07,.25,2.9,.88,.06,.04,.12,.1,.16,.16,1.23,1.33,1.15,3.39-.18,4.62-.9,.62-1.98,.93-3.07,.86h-3.02v-6.52Z"
     id="path77" />
  <polygon
     class="d"
     points="268.87 76.26 261.11 76.26 261.11 69.69 268.48 69.69 268.48 68.65 261.11 68.65 261.11 62.18 268.68 62.18 268.68 61.14 259.87 61.14 259.87 77.3 268.87 77.3 268.87 76.26"
     id="polygon79" />
  <polygon
     class="d"
     points="272.68 63.16 284.96 77.3 285.99 77.3 285.99 61.14 284.74 61.14 284.74 75.26 272.49 61.14 271.44 61.14 271.44 77.3 272.68 77.3 272.68 63.16"
     id="polygon81" />
  <polygon
     class="d"
     points="227.61 109.39 274.88 109.39 226.09 166.17 226.09 180.99 299.98 180.99 299.98 163.89 251.19 163.89 299.98 107.11 299.98 92.28 227.61 92.28 227.61 109.39"
     id="polygon83" />
  <path
     class="d"
     d="M346.87,111.8c-21.16,0-36.88,15.84-36.88,35.36v.25c0,19.52,15.59,35.1,36.62,35.1s36.88-15.84,36.88-35.36v-.25c0-19.52-15.59-35.1-36.62-35.1Zm17.61,35.61c0,10.01-6.59,18.5-17.61,18.5s-17.87-8.74-17.87-18.76v-.25c0-10.01,6.59-18.5,17.62-18.5s17.87,8.74,17.87,18.76v.25Z"
     id="path85" />
  <polygon
     class="d"
     points="461.56 154.38 448.63 112.81 432.03 112.81 419.23 154.25 408.33 113.07 388.81 113.07 409.72 181.5 426.96 181.5 440.27 139.81 453.32 181.5 470.68 181.5 491.85 113.07 472.71 113.07 461.56 154.38"
     id="polygon87" />
  <path
     class="d"
     d="M563.83,148.68c0-19.26-10.39-36.88-33.08-36.88-19.77,0-33.58,15.97-33.58,35.36v.25c0,20.78,15.08,35.1,35.48,35.1,12.29,0,21.42-4.82,27.75-12.67l-11.03-9.76c-5.32,4.94-10.01,6.97-16.47,6.97-8.62,0-14.7-4.56-16.6-13.31h47.27c.13-1.77,.25-3.55,.25-5.07Zm-47.78-6.97c1.52-8.74,6.72-14.45,14.7-14.45s13.18,5.83,14.32,14.45h-29.02Z"
     id="path89" />
  <path
     class="d"
     d="M141.23,51.38L50.32,114.07l62.69,90.91,90.91-62.69-62.69-90.91Zm-25.01,112.99l6.34-59.49-31.1,21.45-7.76-11.25,47.61-32.83,6.73,9.75-6.34,59.49,32.1-22.14,7.76,11.26-48.61,33.52-6.73-9.75Z"
     id="path91" />
  <g
     id="g151">
    <g
       id="g113">
      <path
         class="d"
         d="m 137.6,224.24 c -3.21,0 -5.73,1.14 -7.57,3.41 -1.84,2.27 -2.76,5.41 -2.76,9.41 0,4 0.88,7.36 2.65,9.51 1.77,2.15 4.33,3.22 7.67,3.22 1.45,0 2.85,-0.14 4.2,-0.43 1.36,-0.29 2.76,-0.66 4.23,-1.11 v 4.79 c -2.68,1.01 -5.72,1.52 -9.11,1.52 -5,0 -8.84,-1.51 -11.52,-4.54 -2.68,-3.03 -4.02,-7.36 -4.02,-13 0,-3.55 0.65,-6.66 1.95,-9.32 1.3,-2.66 3.18,-4.7 5.64,-6.12 2.46,-1.42 5.35,-2.13 8.67,-2.13 3.49,0 6.71,0.73 9.67,2.2 l -2.01,4.65 c -1.15,-0.54 -2.37,-1.02 -3.66,-1.44 -1.29,-0.41 -2.64,-0.62 -4.05,-0.62 z"
         id="path93" />
      <path
         class="d"
         d="m 188.49,236.97 c 0,5.56 -1.39,9.88 -4.17,12.96 -2.78,3.08 -6.72,4.62 -11.81,4.62 -5.09,0 -9.11,-1.53 -11.88,-4.59 -2.76,-3.06 -4.15,-7.41 -4.15,-13.05 0,-5.64 1.39,-9.97 4.17,-12.99 2.78,-3.02 6.75,-4.53 11.9,-4.53 5.15,0 9,1.53 11.77,4.6 2.77,3.07 4.16,7.39 4.16,12.96 z m -26.07,0 c 0,4.2 0.85,7.39 2.55,9.57 1.7,2.17 4.21,3.26 7.54,3.26 3.33,0 5.82,-1.08 7.51,-3.22 1.69,-2.15 2.53,-5.35 2.53,-9.6 0,-4.25 -0.84,-7.37 -2.51,-9.53 -1.67,-2.16 -4.17,-3.25 -7.49,-3.25 -3.32,0 -5.88,1.08 -7.58,3.25 -1.71,2.17 -2.56,5.34 -2.56,9.53 z"
         id="path95" />
      <path
         class="d"
         d="m 229.06,254.09 h -6.84 l -16.79,-27.21 h -0.19 l 0.12,1.52 c 0.22,2.9 0.33,5.54 0.33,7.94 v 17.75 h -5.07 v -34.15 h 6.77 l 16.75,27.07 h 0.14 c -0.03,-0.36 -0.09,-1.66 -0.19,-3.91 -0.1,-2.25 -0.14,-4.01 -0.14,-5.27 v -17.89 h 5.12 v 34.15 z"
         id="path97" />
      <path
         class="d"
         d="m 248.4,254.09 h -5.54 v -34.15 h 19.27 v 4.72 H 248.4 v 10.67 h 12.87 v 4.74 H 248.4 Z"
         id="path99" />
      <path
         class="d"
         d="m 303.43,236.97 c 0,5.56 -1.39,9.88 -4.17,12.96 -2.78,3.08 -6.72,4.62 -11.81,4.62 -5.09,0 -9.11,-1.53 -11.88,-4.59 -2.76,-3.06 -4.15,-7.41 -4.15,-13.05 0,-5.64 1.39,-9.97 4.17,-12.99 2.78,-3.02 6.75,-4.53 11.9,-4.53 5.15,0 9,1.53 11.77,4.6 2.77,3.07 4.16,7.39 4.16,12.96 z m -26.07,0 c 0,4.2 0.85,7.39 2.55,9.57 1.7,2.17 4.21,3.26 7.54,3.26 3.33,0 5.82,-1.08 7.51,-3.22 1.69,-2.15 2.53,-5.35 2.53,-9.6 0,-4.25 -0.84,-7.37 -2.51,-9.53 -1.67,-2.16 -4.17,-3.25 -7.49,-3.25 -3.32,0 -5.88,1.08 -7.58,3.25 -1.71,2.17 -2.56,5.34 -2.56,9.53 z"
         id="path101" />
      <path
         class="d"
         d="m 321.13,240.45 v 13.64 h -5.58 v -34.15 h 9.65 c 4.41,0 7.67,0.83 9.79,2.48 2.12,1.65 3.18,4.14 3.18,7.47 0,4.25 -2.21,7.28 -6.63,9.09 l 9.65,15.11 h -6.35 l -8.18,-13.64 h -5.51 z m 0,-4.62 h 3.88 c 2.6,0 4.49,-0.48 5.65,-1.45 1.16,-0.97 1.75,-2.4 1.75,-4.3 0,-1.9 -0.63,-3.32 -1.89,-4.16 -1.26,-0.84 -3.16,-1.26 -5.7,-1.26 h -3.69 z"
         id="path103" />
      <path
         class="d"
         d="m 365.67,254.09 -9.9,-28.52 h -0.19 c 0.26,4.24 0.4,8.21 0.4,11.91 v 16.61 h -5.07 v -34.15 h 7.87 l 9.48,27.17 h 0.14 l 9.76,-27.17 h 7.9 v 34.15 h -5.37 V 237.2 c 0,-1.7 0.04,-3.91 0.13,-6.63 0.08,-2.73 0.16,-4.38 0.22,-4.95 h -0.19 l -10.25,28.47 z"
         id="path105" />
      <path
         class="d"
         d="m 421.03,254.09 -3.41,-9.48 h -13.06 l -3.34,9.48 h -5.89 l 12.78,-34.29 h 6.07 l 12.78,34.29 z m -4.88,-14.3 -3.2,-9.3 c -0.23,-0.62 -0.56,-1.6 -0.97,-2.94 -0.41,-1.34 -0.7,-2.32 -0.85,-2.94 -0.42,1.92 -1.04,4.01 -1.85,6.28 l -3.08,8.9 z"
         id="path107" />
      <path
         class="d"
         d="m 464.7,254.09 h -6.84 l -16.79,-27.21 h -0.19 l 0.12,1.52 c 0.22,2.9 0.33,5.54 0.33,7.94 v 17.75 h -5.07 v -34.15 h 6.77 l 16.75,27.07 h 0.14 c -0.03,-0.36 -0.09,-1.66 -0.19,-3.91 -0.1,-2.25 -0.14,-4.01 -0.14,-5.27 v -17.89 h 5.12 v 34.15 z"
         id="path109" />
      <path
         class="d"
         d="m 490.3,254.09 h -5.58 v -29.36 h -10.04 v -4.79 h 25.67 v 4.79 h -10.04 v 29.36 z"
         id="path111" />
    </g>
    <g
       class="h"
       id="g117">
      <path
         id="rect115"
         class="d"
         style="fill:#ffffff"
         d="M 35.439999,277.64001 H 588.97003 v 43.53 H 35.439999 Z" />
    </g>
    <g
       id="g149">
      <path
         class="e"
         d="m 119.69,303.15 c 0,1.82 -0.65,3.25 -1.96,4.29 -1.31,1.04 -3.13,1.57 -5.46,1.57 -2.15,0 -4.05,-0.4 -5.7,-1.21 v -3.96 c 1.36,0.61 2.51,1.03 3.45,1.28 0.94,0.25 1.8,0.37 2.58,0.37 0.94,0 1.65,-0.18 2.15,-0.54 0.5,-0.36 0.75,-0.89 0.75,-1.6 0,-0.39 -0.11,-0.75 -0.33,-1.05 -0.22,-0.31 -0.54,-0.6 -0.97,-0.89 -0.43,-0.29 -1.3,-0.74 -2.61,-1.36 -1.23,-0.58 -2.15,-1.13 -2.77,-1.67 -0.62,-0.53 -1.11,-1.15 -1.47,-1.86 -0.37,-0.71 -0.55,-1.53 -0.55,-2.48 0,-1.78 0.6,-3.18 1.81,-4.2 1.21,-1.02 2.87,-1.53 5,-1.53 1.05,0 2.04,0.12 2.99,0.37 0.95,0.25 1.94,0.6 2.98,1.05 l -1.38,3.32 c -1.07,-0.44 -1.96,-0.75 -2.66,-0.92 -0.7,-0.17 -1.39,-0.26 -2.07,-0.26 -0.81,0 -1.43,0.19 -1.86,0.56 -0.43,0.38 -0.65,0.87 -0.65,1.47 0,0.38 0.09,0.7 0.26,0.98 0.17,0.28 0.45,0.55 0.83,0.81 0.38,0.26 1.28,0.73 2.7,1.41 1.88,0.9 3.17,1.8 3.87,2.7 0.7,0.9 1.05,2.01 1.05,3.32 z"
         id="path119" />
      <path
         class="e"
         d="m 148.17,288.62 v 13.02 c 0,1.49 -0.33,2.79 -1,3.91 -0.67,1.12 -1.63,1.98 -2.88,2.57 -1.25,0.59 -2.74,0.89 -4.46,0.89 -2.59,0 -4.6,-0.66 -6.03,-1.99 -1.43,-1.33 -2.15,-3.14 -2.15,-5.44 v -12.96 h 4.25 v 12.32 c 0,1.55 0.31,2.69 0.94,3.41 0.62,0.73 1.66,1.09 3.1,1.09 1.44,0 2.41,-0.37 3.03,-1.09 0.63,-0.73 0.94,-1.87 0.94,-3.43 v -12.29 h 4.25 z"
         id="path121" />
      <path
         class="e"
         d="m 175.46,294.89 c 0,2.17 -0.68,3.82 -2.03,4.97 -1.35,1.15 -3.28,1.72 -5.77,1.72 h -1.83 v 7.16 h -4.27 v -20.12 h 6.43 c 2.44,0 4.3,0.53 5.57,1.58 1.27,1.05 1.91,2.62 1.91,4.7 z m -9.63,3.19 h 1.4 c 1.31,0 2.29,-0.26 2.95,-0.78 0.66,-0.52 0.98,-1.27 0.98,-2.26 0,-0.99 -0.27,-1.74 -0.82,-2.22 -0.55,-0.48 -1.4,-0.72 -2.57,-0.72 h -1.94 v 5.97 z"
         id="path123" />
      <path
         class="e"
         d="m 201.61,294.89 c 0,2.17 -0.68,3.82 -2.03,4.97 -1.35,1.15 -3.28,1.72 -5.77,1.72 h -1.83 v 7.16 h -4.27 v -20.12 h 6.43 c 2.44,0 4.3,0.53 5.57,1.58 1.27,1.05 1.91,2.62 1.91,4.7 z m -9.63,3.19 h 1.4 c 1.31,0 2.29,-0.26 2.95,-0.78 0.66,-0.52 0.98,-1.27 0.98,-2.26 0,-0.99 -0.27,-1.74 -0.82,-2.22 -0.55,-0.48 -1.4,-0.72 -2.57,-0.72 h -1.94 v 5.97 z"
         id="path125" />
      <path
         class="e"
         d="m 232.13,298.65 c 0,3.33 -0.83,5.89 -2.48,7.68 -1.65,1.79 -4.02,2.68 -7.1,2.68 -3.08,0 -5.45,-0.89 -7.1,-2.68 -1.65,-1.79 -2.48,-4.36 -2.48,-7.71 0,-3.35 0.83,-5.91 2.48,-7.67 1.66,-1.77 4.03,-2.65 7.12,-2.65 3.09,0 5.46,0.89 7.09,2.67 1.64,1.78 2.46,4.34 2.46,7.68 z m -14.68,0 c 0,2.25 0.43,3.94 1.28,5.08 0.85,1.14 2.13,1.71 3.83,1.71 3.4,0 5.11,-2.26 5.11,-6.79 0,-4.53 -1.69,-6.8 -5.08,-6.8 -1.7,0 -2.98,0.57 -3.84,1.71 -0.86,1.14 -1.29,2.84 -1.29,5.08 z"
         id="path127" />
      <path
         class="e"
         d="m 249.02,301.02 v 7.72 h -4.27 v -20.12 h 5.86 c 2.73,0 4.76,0.5 6.07,1.49 1.31,1 1.97,2.51 1.97,4.53 0,1.18 -0.33,2.24 -0.98,3.16 -0.65,0.92 -1.57,1.64 -2.77,2.17 3.03,4.52 5,7.45 5.92,8.77 h -4.73 l -4.8,-7.72 z m 0,-3.47 h 1.38 c 1.35,0 2.34,-0.22 2.99,-0.67 0.64,-0.45 0.96,-1.16 0.96,-2.12 0,-0.96 -0.33,-1.63 -0.98,-2.04 -0.66,-0.4 -1.67,-0.61 -3.05,-0.61 h -1.29 v 5.44 z"
         id="path129" />
      <path
         class="e"
         d="m 279.58,308.74 h -4.27 v -16.57 h -5.46 v -3.55 h 15.19 v 3.55 h -5.46 z"
         id="path131" />
      <path
         class="e"
         d="m 326.27,294.89 c 0,2.17 -0.68,3.82 -2.03,4.97 -1.35,1.15 -3.28,1.72 -5.77,1.72 h -1.83 v 7.16 h -4.27 v -20.12 h 6.43 c 2.44,0 4.3,0.53 5.57,1.58 1.27,1.05 1.91,2.62 1.91,4.7 z m -9.63,3.19 h 1.4 c 1.31,0 2.29,-0.26 2.95,-0.78 0.66,-0.52 0.98,-1.27 0.98,-2.26 0,-0.99 -0.27,-1.74 -0.82,-2.22 -0.55,-0.48 -1.4,-0.72 -2.57,-0.72 h -1.94 v 5.97 z"
         id="path133" />
      <path
         class="e"
         d="m 342.79,301.02 v 7.72 h -4.27 v -20.12 h 5.86 c 2.73,0 4.76,0.5 6.07,1.49 1.31,1 1.97,2.51 1.97,4.53 0,1.18 -0.33,2.24 -0.98,3.16 -0.65,0.92 -1.57,1.64 -2.77,2.17 3.03,4.52 5,7.45 5.92,8.77 h -4.73 l -4.8,-7.72 z m 0,-3.47 h 1.38 c 1.35,0 2.34,-0.22 2.99,-0.67 0.64,-0.45 0.96,-1.16 0.96,-2.12 0,-0.96 -0.33,-1.63 -0.98,-2.04 -0.66,-0.4 -1.67,-0.61 -3.05,-0.61 h -1.29 v 5.44 z"
         id="path135" />
      <path
         class="e"
         d="m 383.85,298.65 c 0,3.33 -0.83,5.89 -2.48,7.68 -1.65,1.79 -4.02,2.68 -7.1,2.68 -3.08,0 -5.45,-0.89 -7.1,-2.68 -1.65,-1.79 -2.48,-4.36 -2.48,-7.71 0,-3.35 0.83,-5.91 2.48,-7.67 1.66,-1.77 4.03,-2.65 7.12,-2.65 3.09,0 5.46,0.89 7.09,2.67 1.64,1.78 2.46,4.34 2.46,7.68 z m -14.68,0 c 0,2.25 0.43,3.94 1.28,5.08 0.85,1.14 2.13,1.71 3.83,1.71 3.4,0 5.11,-2.26 5.11,-6.79 0,-4.53 -1.69,-6.8 -5.08,-6.8 -1.7,0 -2.98,0.57 -3.84,1.71 -0.86,1.14 -1.29,2.84 -1.29,5.08 z"
         id="path137" />
      <path
         class="e"
         d="m 407.95,288.62 h 4.31 l -6.84,20.12 h -4.65 l -6.83,-20.12 h 4.31 l 3.78,11.97 c 0.21,0.71 0.43,1.53 0.65,2.47 0.22,0.94 0.36,1.59 0.42,1.96 0.1,-0.84 0.44,-2.32 1.03,-4.43 l 3.81,-11.97 z"
         id="path139" />
      <path
         class="e"
         d="m 423.25,308.74 v -20.12 h 4.27 v 20.12 z"
         id="path141" />
      <path
         class="e"
         d="m 457.73,298.49 c 0,3.31 -0.94,5.85 -2.83,7.61 -1.88,1.76 -4.61,2.64 -8.17,2.64 h -5.7 v -20.12 h 6.32 c 3.28,0 5.83,0.87 7.65,2.6 1.82,1.73 2.72,4.16 2.72,7.27 z m -4.43,0.11 c 0,-4.32 -1.91,-6.48 -5.73,-6.48 h -2.27 v 13.1 h 1.83 c 4.11,0 6.17,-2.21 6.17,-6.62 z"
         id="path143" />
      <path
         class="e"
         d="m 481.94,308.74 h -11.59 v -20.12 h 11.59 v 3.5 h -7.32 v 4.42 h 6.81 v 3.5 h -6.81 v 5.19 h 7.32 v 3.52 z"
         id="path145" />
      <path
         class="e"
         d="m 498.86,301.02 v 7.72 h -4.27 v -20.12 h 5.86 c 2.73,0 4.76,0.5 6.07,1.49 1.31,1 1.97,2.51 1.97,4.53 0,1.18 -0.33,2.24 -0.98,3.16 -0.65,0.92 -1.57,1.64 -2.77,2.17 3.03,4.52 5,7.45 5.92,8.77 h -4.73 l -4.8,-7.72 z m 0,-3.47 h 1.38 c 1.35,0 2.34,-0.22 2.99,-0.67 0.64,-0.45 0.96,-1.16 0.96,-2.12 0,-0.96 -0.33,-1.63 -0.98,-2.04 -0.66,-0.4 -1.67,-0.61 -3.05,-0.61 h -1.29 v 5.44 z"
         id="path147" />
    </g>
  </g>
  <g
     aria-label="API MEDIATION LAYER - ZOWE V2"
     transform="translate(40.02,416.5)"
     id="text155"
     class="g"
     style="font-size:27px;font-family:OpenSans-Bold, 'Open Sans';letter-spacing:0.12em;fill:#488eff">
    <path
       d="M 18.114258,0 H 15.33252 L 13.407715,-5.4711914 H 4.9174805 L 2.9926758,0 H 0.34277344 L 7.4882812,-19.630371 H 10.96875 Z M 12.603516,-7.7124023 9.1625977,-17.349609 5.7084961,-7.7124023 Z"
       id="path161" />
    <path
       d="m 37.17457,-13.697754 q 0,1.305176 -0.461426,2.425781 -0.448242,1.107422 -1.265625,1.924805 -1.015136,1.0151367 -2.399414,1.5292969 -1.384277,0.5009766 -3.493652,0.5009766 H 26.944101 V 0 H 24.33375 v -19.630371 h 5.326172 q 1.766601,0 2.992675,0.303223 1.226075,0.290039 2.175293,0.922851 1.120606,0.751465 1.727051,1.87207 0.619629,1.120606 0.619629,2.834473 z m -2.71582,0.06592 q 0,-1.015137 -0.355957,-1.766602 -0.355957,-0.751464 -1.081055,-1.226074 -0.632812,-0.408691 -1.450195,-0.580078 -0.804199,-0.18457 -2.043457,-0.18457 h -2.583985 v 7.8442381 h 2.20166 q 1.582032,0 2.570801,-0.2768554 0.98877,-0.2900387 1.608399,-0.9096677 0.619629,-0.632813 0.870117,-1.331543 0.263672,-0.698731 0.263672,-1.568848 z"
       id="path163" />
    <path
       d="m 50.790058,0 h -7.751953 v -2.0039063 h 2.570801 V -17.626465 h -2.570801 v -2.003906 h 7.751953 v 2.003906 h -2.570801 v 15.6225587 h 2.570801 z"
       id="path165" />
    <path
       d="M 88.712929,0 H 86.102577 V -16.914551 L 80.644569,-5.4052734 H 79.088905 L 73.670448,-16.914551 V 0 h -2.438965 v -19.630371 h 3.559571 l 5.233886,10.9291991 5.0625,-10.9291991 h 3.625489 z"
       id="path167" />
    <path
       d="M 110.18584,0 H 97.252731 v -19.630371 h 12.933109 v 2.320312 H 99.863083 v 5.378907 h 10.322757 v 2.3203122 H 99.863083 v 7.2905273 h 10.322757 z"
       id="path169" />
    <path
       d="m 134.16364,-9.7954102 q 0,2.6762696 -1.17334,4.8515625 -1.16016,2.175293 -3.09815,3.375 -1.34473,0.83056645 -3.00586,1.19970707 Q 125.23834,0 122.53571,0 h -4.95704 v -19.630371 h 4.9043 q 2.87402,0 4.56152,0.421875 1.70069,0.408691 2.87403,1.133789 2.0039,1.252441 3.12451,3.335449 1.12061,2.083008 1.12061,4.9438478 z m -2.72901,-0.039551 q 0,-2.3071291 -0.8042,-3.8891601 -0.8042,-1.582031 -2.39941,-2.491699 -1.16016,-0.65918 -2.46533,-0.909668 -1.30518,-0.263672 -3.12452,-0.263672 h -2.45214 v 15.1479491 h 2.45214 q 1.88526,0 3.28272,-0.2768555 1.41064,-0.2768555 2.58398,-1.0283203 1.46338,-0.9360352 2.18848,-2.465332 0.73828,-1.5292969 0.73828,-3.8232422 z"
       id="path171" />
    <path
       d="m 148.57013,0 h -7.75195 v -2.0039063 h 2.5708 V -17.626465 h -2.5708 v -2.003906 h 7.75195 v 2.003906 h -2.5708 v 15.6225587 h 2.5708 z"
       id="path173" />
    <path
       d="m 171.75691,0 h -2.78174 l -1.9248,-5.4711914 h -8.49024 L 156.63533,0 h -2.6499 l 7.14551,-19.630371 h 3.48046 z m -5.51074,-7.7124023 -3.44092,-9.6372067 -3.4541,9.6372067 z"
       id="path175" />
    <path
       d="m 191.97739,-17.310059 h -7.01368 V 0 h -2.61035 v -17.310059 h -7.01367 v -2.320312 h 16.6377 z"
       id="path177" />
    <path
       d="m 204.80185,0 h -7.75195 v -2.0039063 h 2.5708 V -17.626465 h -2.5708 v -2.003906 h 7.75195 v 2.003906 h -2.5708 v 15.6225587 h 2.5708 z"
       id="path179" />
    <path
       d="m 227.14488,-17.375977 q 1.19971,1.31836 1.83252,3.229981 0.646,1.911621 0.646,4.3374022 0,2.4257813 -0.65918,4.350586 -0.646,1.9116211 -1.81934,3.1904297 -1.21289,1.33154294 -2.87402,2.00390622 -1.64795,0.67236329 -3.77051,0.67236329 -2.06982,0 -3.77051,-0.68554688 -1.6875,-0.68554687 -2.87402,-1.99072263 -1.18652,-1.3051758 -1.83252,-3.2036133 -0.63281,-1.8984375 -0.63281,-4.3374024 0,-2.3994142 0.63281,-4.2978512 0.63281,-1.911621 1.8457,-3.269532 1.16016,-1.291992 2.87403,-1.977539 1.72705,-0.685546 3.75732,-0.685546 2.10938,0 3.78369,0.69873 1.6875,0.685547 2.86084,1.964355 z m -0.2373,7.5673832 q 0,-3.8232422 -1.71387,-5.8930662 -1.71387,-2.083008 -4.68018,-2.083008 -2.99267,0 -4.70654,2.083008 -1.70068,2.069824 -1.70068,5.8930662 0,3.862793 1.74023,5.9194336 1.74024,2.0434571 4.66699,2.0434571 2.92676,0 4.65381,-2.0434571 1.74024,-2.0566406 1.74024,-5.9194336 z"
       id="path181" />
    <path
       d="m 251.97961,0 h -3.22998 l -9.30761,-17.560547 V 0 h -2.43897 v -19.630371 h 4.04737 l 8.49023,16.0312499 V -19.630371 h 2.43896 z"
       id="path183" />
    <path
       d="m 285.59143,0 h -12.41894 v -19.630371 h 2.61035 v 17.3100585 h 9.80859 z"
       id="path185" />
    <path
       d="m 306.91934,0 h -2.78174 l -1.9248,-5.4711914 h -8.49024 L 291.79776,0 h -2.6499 l 7.14551,-19.630371 h 3.48046 z m -5.51074,-7.7124023 -3.44092,-9.6372067 -3.4541,9.6372067 z"
       id="path187" />
    <path
       d="m 327.03433,-19.630371 -6.9082,11.0214843 V 0 h -2.61035 v -8.3320313 l -6.93457,-11.2983397 h 2.8872 l 5.36573,8.780273 5.41845,-8.780273 z"
       id="path189" />
    <path
       d="m 345.92325,0 h -12.93311 v -19.630371 h 12.93311 v 2.320312 h -10.32276 v 5.378907 h 10.32276 v 2.3203122 h -10.32276 v 7.2905273 h 10.32276 z"
       id="path191" />
    <path
       d="m 369.55829,0 h -3.38819 l -6.56542,-7.8046875 h -3.67823 V 0 h -2.61035 v -19.630371 h 5.49756 q 1.77978,0 2.96631,0.237305 1.18652,0.224121 2.13574,0.817382 1.06787,0.672364 1.66113,1.700684 0.60645,1.015137 0.60645,2.583984 0,2.122559 -1.06787,3.559571 -1.06787,1.4238278 -2.93994,2.1489255 z m -6.10401,-14.106445 q 0,-0.84375 -0.30322,-1.489746 -0.29004,-0.65918 -0.97558,-1.107422 -0.5669,-0.382324 -1.34473,-0.527344 -0.77783,-0.158203 -1.83252,-0.158203 h -3.07178 v 7.4091795 h 2.63672 q 1.23926,0 2.16211,-0.2109375 0.92285,-0.224121 1.56885,-0.817383 0.59326,-0.553711 0.87012,-1.265625 0.29003,-0.725097 0.29003,-1.832519 z"
       id="path193" />
    <path
       d="m 395.66864,-7.3959961 h -8.22656 v -2.3862305 h 8.22656 z"
       id="path195" />
    <path
       d="m 430.66476,0 h -15.31933 v -2.4257813 l 12.03662,-14.8842777 h -11.58838 v -2.320312 h 14.58106 v 2.359863 l -12.15528,14.9501955 h 12.44531 z"
       id="path197" />
    <path
       d="m 452.70456,-17.375977 q 1.19971,1.31836 1.83252,3.229981 0.64599,1.911621 0.64599,4.3374022 0,2.4257813 -0.65917,4.350586 -0.646,1.9116211 -1.81934,3.1904297 -1.21289,1.33154294 -2.87402,2.00390622 -1.64795,0.67236329 -3.77051,0.67236329 -2.06983,0 -3.77051,-0.68554688 -1.6875,-0.68554687 -2.87402,-1.99072263 -1.18653,-1.3051758 -1.83252,-3.2036133 -0.63282,-1.8984375 -0.63282,-4.3374024 0,-2.3994142 0.63282,-4.2978512 0.63281,-1.911621 1.8457,-3.269532 1.16016,-1.291992 2.87402,-1.977539 1.72705,-0.685546 3.75733,-0.685546 2.10937,0 3.78369,0.69873 1.6875,0.685547 2.86084,1.964355 z m -0.23731,7.5673832 q 0,-3.8232422 -1.71386,-5.8930662 -1.71387,-2.083008 -4.68018,-2.083008 -2.99267,0 -4.70654,2.083008 -1.70068,2.069824 -1.70068,5.8930662 0,3.862793 1.74023,5.9194336 1.74023,2.0434571 4.66699,2.0434571 2.92676,0 4.65381,-2.0434571 1.74023,-2.0566406 1.74023,-5.9194336 z"
       id="path199" />
    <path
       d="M 485.40991,-19.630371 480.30786,0 h -2.93994 L 473.24146,-16.294922 469.20728,0 h -2.87403 l -5.19433,-19.630371 h 2.67627 l 4.12646,16.321289 4.06055,-16.321289 h 2.6499 l 4.1001,16.4794921 4.10009,-16.4794921 z"
       id="path201" />
    <path
       d="m 505.41943,0 h -12.9331 v -19.630371 h 12.9331 v 2.320312 h -10.32275 v 5.378907 h 10.32275 v 2.3203122 h -10.32275 v 7.2905273 h 10.32275 z"
       id="path203" />
    <path
       d="M 541.02197,-19.630371 533.87646,0 H 530.396 l -7.14551,-19.630371 h 2.79492 l 6.15674,17.2705077 6.15674,-17.2705077 z"
       id="path205" />
    <path
       d="m 560.01636,0 h -13.28907 v -2.7553711 q 1.38428,-1.1865234 2.76856,-2.3730469 1.39746,-1.1865234 2.59717,-2.3598632 2.53125,-2.4521485 3.46728,-3.8891598 0.93604,-1.450196 0.93604,-3.124512 0,-1.529297 -1.01514,-2.386231 -1.00195,-0.870117 -2.8081,-0.870117 -1.19971,0 -2.59717,0.421875 -1.39746,0.421875 -2.72901,1.291992 h -0.13183 v -2.768554 q 0.93603,-0.461426 2.4917,-0.84375 1.56884,-0.382324 3.03222,-0.382324 3.01905,0 4.73291,1.463378 1.71387,1.450196 1.71387,3.941895 0,1.120605 -0.29004,2.096191 -0.27685,0.962403 -0.83056,1.83252 -0.51416,0.8173827 -1.2129,1.6083983 -0.68554,0.7910156 -1.67431,1.753418 -1.41065,1.3842773 -2.91358,2.6894531 -1.50293,1.2919922 -2.8081,2.3994141 h 10.56006 z"
       id="path207" />
  </g>
</svg>
