<?xml version="1.0" encoding="UTF-8"?>
<svg id="Layer_1" data-name="Layer 1" xmlns="http://www.w3.org/2000/svg" viewBox="0 0 473.0478677 140.8055364">
  <defs>
    <style>
      .cls-1 {
        isolation: isolate;
      }
    </style>
  </defs>
  <path d="M4.9667785,113.5509004v23.8131618h147.501233v-23.8131618H4.9667785Z"/>
  <path d="M4.9667744,76.7866827v23.8131104h147.5012207v-23.8131104H4.9667744ZM42.5929341,91.2733771H14.243813v-5.1602783h28.3491211v5.1602783ZM71.9366841,91.2733771h-20.039978v-5.1602783h20.039978v5.1602783ZM143.5986714,91.2733771h-62.3581543v-5.1602783h62.3581543v5.1602783Z"/>
  <g>
    <path d="M4.9667744,40.0224005v23.8131714h147.5012207v-23.8131714H4.9667744ZM87.8290181,54.5091559h-51.824646v-5.1602783h51.824646v5.1602783ZM133.6710591,54.5091559h-34.4176636v-5.1602783h34.4176636v5.1602783Z"/>
    <g>
      <path d="M390.7490437,10.3657306h2.3778666c1.1060167.0782332,2.2036087-.2408517,3.0953503-.8997783.7076179-.6084339,1.0966221-1.5081013,1.0552192-2.4404143.0418186-.9202303-.3445252-1.8080366-1.0463788-2.4046926-.8687954-.6416615-1.9371504-.954123-3.0147892-.881765h-3.429206v12.4425354h.961938v-5.8158853ZM390.7490437,4.5406446l2.4315463.0000554c.8137024-.0539013,1.6197006.1862852,2.2711724.6768567.5303393.4548774.8225428,1.1279929.7927515,1.8260499.0387979.713687-.2618025,1.403735-.8107648,1.8613837-.6908517.4846409-1.5271954.7172342-2.3690262.6588157h-2.3156792v-5.0231615Z"/>
      <path d="M401.5243511,10.2142249h1.6829412c.6197684-.0403221,1.2373475.1071653,1.7719823.4232294.6771061.6137547,1.2485158,1.3347856,1.6913659,2.1341882l2.1675544,3.4100288h1.1384961l-2.814509-4.3017703c-.4004773-.750351-.9670372-1.3993564-1.6564478-1.897438,1.3943681-.3409502,2.373682-1.5927638,2.3689985-3.0282299.0364423-.9055979-.3563308-1.7753633-1.0598195-2.3468006-.8901342-.6350936-1.9728999-.9419571-3.0638963-.868352h-3.1886315v12.4425909h.9619657v-5.9674464ZM401.5243511,4.5406446h2.0309859c.8584862-.0555918,1.7117902.1694636,2.4312137.6411904.5608511.4200979.8776912,1.0903313.8464312,1.7903836.0355555.7015211-.2758529,1.3757174-.8330459,1.8034363-.7120519.4695652-1.5581783.6932627-2.4092929.6369503h-2.0662919v-4.8719606Z"/>
      <path d="M424.858837,9.9647822c.028849-1.7130927-.6685429-3.3583722-1.9196914-4.5289042-1.2459108-1.2248491-2.9337294-1.8945559-4.6804931-1.8571991-1.7414151-.037246-3.4235803.6328211-4.6624243,1.8571991-1.246271,1.1731647-1.9399217,2.8175574-1.9104907,4.5289042-.0282393,1.7085201.6654668,3.3497258,1.9104907,4.5200915,2.6220993,2.4761915,6.7208181,2.4761915,9.3429174,0,1.2499014-1.1677053,1.9472933-2.8098256,1.9196914-4.5200915ZM418.2943466,15.4514121c-1.4784763.0312046-2.9054624-.5432535-3.949929-1.5901034-1.0595978-1.0159502-1.6457783-2.4288858-1.6165414-3.8965542-.0304009-1.4704674.5557796-2.88659,1.6165414-3.9053669,1.0444666-1.0468499,2.4714526-1.621308,3.949929-1.5901034,1.4708276-.0320914,2.8899432.5430595,3.9234356,1.5901034,1.0512285,1.023876,1.6302869,2.438225,1.5988883,3.9053669.0302346,1.4643428-.5488237,2.8755049-1.5988883,3.8965542-1.0334924,1.0470716-2.452608,1.6221948-3.9234356,1.5901034Z"/>
      <path d="M427.0836182,19.8065018c.6939832.0054317,1.358868-.2784856,1.8348903-.7835232.6077411-.8153374.8846194-1.8303731.7750708-2.8413627V3.7390804h-.9619103v12.700763c-.0001386,1.6627386-.582079,2.4941217-1.7458769,2.4941217-.1921881-.0019399-.3834893-.0258837-.570218-.0713881l.0894291.9082306c.1921049.0221702.3852629.0340867.5786149.035694Z"/>
      <polygon points="440.8786755 15.3800517 434.911229 15.3800517 434.911229 10.3300365 440.5847815 10.3300365 440.5847815 9.5192717 434.911229 9.5192717 434.911229 4.5406446 440.7359547 4.5406446 440.7359547 3.7390804 433.949291 3.7390804 433.949291 16.1816159 440.8786755 16.1816159 440.8786755 15.3800517"/>
      <path d="M450.4073238,16.3419897c1.5432688-.0199255,3.0577163-.420763,4.4088248-1.1668462v-.997632c-1.3493348.7800868-2.8692972,1.2175052-4.4268658,1.2739007-1.4871504.0519337-2.9312352-.504511-3.9990083-1.5409686-1.0476813-1.0332707-1.6159594-2.4573191-1.5674343-3.9280359-.0410426-1.4701348.5223026-2.8928808,1.5586217-3.9364606,1.0158393-1.0416676,2.4197683-1.6129941,3.8743008-1.5766627,1.555213.0281839,3.0791937.4413259,4.4356507,1.2025403v-1.0509791c-1.365048-.6599796-2.857159-1.0155622-4.3731307-1.0421665-1.7179147-.0253018-3.3751384.6350382-4.6048649,1.834918-1.2685521,1.1760469-1.9722071,2.8394228-1.9327441,4.5688106-.0412089,1.7127047.6468438,3.3623351,1.8928377,4.5381326,1.2695498,1.21781,2.9753817,1.8741593,4.7338124,1.8214496Z"/>
      <polygon points="456.7653818 3.7390804 456.7653818 4.5406446 461.4324342 4.5406446 461.4324342 16.1816159 462.4032125 16.1816159 462.4032125 4.5406446 467.0702649 4.5406446 467.0702649 3.7390804 456.7653818 3.7390804"/>
      <polygon points="248.4418852 9.0666667 252.202148 13.6923439 252.5303504 13.6923439 256.2807197 9.0666667 256.2807197 17.0547899 260.4389933 17.0547899 260.4389656 3.2670211 256.6687262 3.2670211 252.4110192 8.4399424 248.1732099 3.2670211 244.4029705 3.2670211 244.4029705 17.0547899 248.4418852 17.0547899 248.4418852 9.0666667"/>
      <path d="M267.6909267,14.2595689h5.9885913l1.1241131,2.795221h4.257707l-6.0781313-13.7877688h-4.5959414l-6.098029,13.7877688h4.2576793l1.1440109-2.795221ZM270.7051617,6.8283616l2.0193465,5.0337478h-4.0586739l2.0393274-5.0337478Z"/>
      <rect x="280.9120247" y="3.2670211" width="4.1579549" height="13.7877688"/>
      <polygon points="303.5231795 17.0547899 303.5232072 3.2670211 299.3751042 3.2670211 299.3751042 10.906961 292.2423912 3.2670211 288.551826 3.2670211 288.551826 17.0547899 292.6702487 17.0547899 292.6702487 9.3749436 299.8224715 17.0547899 303.5231795 17.0547899"/>
      <polygon points="311.1432494 11.4739643 316.8631653 11.4739643 316.8631653 8.6986134 311.1432494 8.6986134 311.1432494 6.0325894 316.8631653 6.0325894 316.8631653 3.2670211 306.9849758 3.2670211 306.9849758 17.0547899 311.1432494 17.0547899 311.1432494 11.4739643"/>
      <path d="M323.8168816,11.6730806h.4674036c.3969854-.0126647.7930009.0462526,1.169091.1739254.3756189.1772232.6968099.4520507.9299297.7957722.4293263.6134499.7896477,1.2724042,1.0744796,1.9648909l1.0843453,2.4471208h4.4665782l-1.3927053-2.9943649c-.315399-.7576949-.7106109-1.4796403-1.1789844-2.1536149-.3074732-.3709354-.6799328-.682815-1.0991716-.9203134.3491809-.1850936.6849211-.3944636,1.0048097-.6265303.3541415-.2861621.6439617-.6437954.8506158-1.0495104.2835848-.5442788.4222595-1.1524356.4026943-1.7658578-.0153252-.6584832-.180327-1.3048558-.4825071-1.8901218-.3561645-.7007174-.9026327-1.2868425-1.5767181-1.6911164-.8492856-.4954212-1.8227244-.7370766-2.8050867-.6963388h-7.0730474v13.7877688h4.1582736v-5.3817093ZM323.8168262,5.9131473h.8753079c.7009391-.0496613,1.402959.0804502,2.0395214.3780022.4395523.2940325.6806534.8069405.6265303,1.333012h.0000554c.0621875.497084-.1537505.9881266-.5621536,1.2782516-.6582892.2751047-1.372669.389309-2.083945.3331906h-.8953165v-3.3224564Z"/>
      <path d="M338.6691533,14.2595689h5.9884527l1.1241131,2.795221h4.2578179l-6.078159-13.7877688h-4.5960522l-6.0978627,13.7877688h4.2575685l1.1441218-2.795221ZM341.683222,6.8283616l2.0194573,5.0337478h-4.0586739l2.0392166-5.0337478Z"/>
      <polygon points="355.908714 9.0666667 359.6689491 13.6923439 359.99729 13.6923439 363.7476593 9.0666667 363.7476593 17.0547899 367.9056558 17.0547899 367.9056558 3.2670211 364.1355273 3.2670211 359.8779588 8.4399424 355.6401496 3.2670211 351.8697716 3.2670211 351.8697716 17.0547899 355.908714 17.0547899 355.908714 9.0666667"/>
      <polygon points="381.7829923 14.2793836 375.5457066 14.2793836 375.5457066 11.3349293 381.3353201 11.3349293 381.3353201 8.5592736 375.5457066 8.5592736 375.5457066 6.0325894 381.6139998 6.0325894 381.6139998 3.2670211 371.387433 3.2670211 371.387433 17.0547899 381.7829645 17.0547899 381.7829923 14.2793836"/>
      <path d="M198.007025,15.9067606c1.3958091-1.304357,2.1745934-3.1383882,2.1437214-5.0485464.0322577-1.9133451-.7464989-3.7510067-2.1437214-5.0585507-1.3916799-1.367847-3.2767581-2.1157592-5.2276817-2.0740515-1.9449654-.0415692-3.8237805.7067311-5.2076177,2.0740515-1.3920125,1.3103707-2.1668062,3.14709-2.1338557,5.0585507-.0315926,1.9083014.7432011,3.7413627,2.1338557,5.0485464,2.9287134,2.765596,7.506586,2.765596,10.4352994,0ZM188.4072656,6.4960024c1.1668739-1.1689524,2.7606908-1.8103922,4.411984-1.7756127,1.6426745-.0358326,3.2275956.6064109,4.3819711,1.7756127,1.1739961,1.1438169,1.8206182,2.723528,1.7856447,4.3622119.033671,1.6355246-.6129788,3.2116331-1.7856447,4.3522076-1.1543478,1.1692572-2.7392689,1.8115007-4.3819711,1.7757235-1.6513209.0347518-3.2451378-.6067157-4.411984-1.7757235-1.1833908-1.1348103-1.8380773-2.7129417-1.8055148-4.3522076-.033865-1.6424251.6207938-3.2241592,1.8055148-4.3622119Z"/>
      <path d="M203.8414501,11.3058586h2.6561306c1.2351859.0874338,2.4610049-.2688693,3.4568634-1.0048097.7905622-.6794063,1.2251816-1.6843268,1.1788181-2.7256896.0466683-1.0278944-.3849304-2.0195405-1.1689524-2.6858941-.970335-.7167631-2.1636469-1.0657778-3.3672957-.9848565h-3.829905v13.8972065h1.074341v-6.4959567ZM203.8414501,4.799953h2.7157961c.9088403-.0601644,1.809062.2081229,2.5366608.7560044.5922496.5080305.9185952,1.2597672.8853676,2.0393274.0434259.7971024-.2921757,1.5678777-.9052377,2.0791507-.7716067.5414244-1.7058042.8012871-2.6461262.7361066h-2.5864606v-5.6105891Z"/>
      <polygon points="220.9317775 16.9064434 214.2667175 16.9064434 214.2667175 11.2660631 220.6035475 11.2660631 220.6035475 10.3607146 214.2667175 10.3607146 214.2667175 4.799953 220.7726785 4.799953 220.7726785 3.9046088 213.1924042 3.9046088 213.1924042 17.8018153 220.9317775 17.8018153 220.9317775 16.9064434"/>
      <polygon points="224.2147156 5.6555017 234.7805144 17.8018153 235.6646904 17.8018153 235.6646904 3.9046088 234.5904048 3.9046088 234.5904048 16.0510333 224.0506282 3.9046088 223.1402083 3.9046088 223.1402083 17.8018153 224.2147156 17.8018153 224.2147156 5.6555017"/>
    </g>
    <g class="cls-1">
      <path d="M178.9785542,93.7875915l9.1005859-10.9003906c6.4003906,5.2001953,12.9013672,8.5004883,20.9013672,8.5004883,6.4003906,0,10.1005859-2.5004883,10.1005859-6.6005859v-.2001953c0-3.8999023-2.3994141-6-14.1005859-8.9003906-14.2011719-3.5-23.2011719-7.6005859-23.2011719-21.4013672v-.199707c0-12.7011719,10.1005859-21.1015625,24.5009766-21.1015625,10.3007812,0,18.8017578,3.2001953,26.0019531,8.9003906l-8.0009766,11.6010742c-6.2998047-4.300293-12.2001953-6.9003906-18.2011719-6.9003906-6,0-9,2.6000977-9,6.1000977v.2001953c0,4.7001953,3,6.0004883,15.1005859,9.2006836,14.2011719,3.7998047,22.2011719,8.800293,22.2011719,21.0009766v.2001953c0,13.9008789-10.6005859,21.7011719-25.7011719,21.7011719-10.7001953,0-21.3007812-3.6000977-29.7021484-11.2006836Z"/>
      <path d="M245.4785542,33.9838806h32.5019531c8.1005859,0,14.2011719,2.1000977,18.3017578,6.2006836,3.2001953,3.2001953,4.7998047,7.2001953,4.7998047,11.9003906v.2001953c0,7.800293-4.2001953,12.5009766-9.2001953,15.1010742,8.1005859,3.1000977,13.1005859,7.9003906,13.1005859,17.2006836v.2001953c0,12.8007812-10.4003906,19.2011719-26.2011719,19.2011719h-33.3027344V33.9838806ZM285.7812886,54.6850525c0-4.7001953-3.6005859-7.2001953-10.1005859-7.2001953h-15.2011719v14.8007812h14.2011719c6.8007812,0,11.1005859-2.2001953,11.1005859-7.4003906v-.2001953ZM289.6816792,82.6870056c0-4.7001953-3.4003906-7.6005859-11.4003906-7.6005859h-17.8017578v15.4008789h18.3017578c6.7998047,0,10.9003906-2.3999023,10.9003906-7.6000977v-.2001953Z"/>
      <path d="M312.2773823,69.186029v-.199707c0-19.9013672,15.7011719-36.2021484,37.3027344-36.2021484s37.1025391,16.1005859,37.1025391,36.0019531v.2001953c0,19.9008789-15.7011719,36.2021484-37.3027344,36.2021484s-37.1025391-16.1010742-37.1025391-36.0024414ZM370.5810933,69.186029v-.199707c0-12.0009766-8.8007812-22.0014648-21.2011719-22.0014648s-21.0009766,9.800293-21.0009766,21.8012695v.2001953c0,12.0004883,8.7998047,22.0009766,21.2011719,22.0009766,12.4003906,0,21.0009766-9.800293,21.0009766-21.8012695Z"/>
      <path d="M398.0762104,33.9838806h16.6015625l18.4013672,29.6020508,18.4003906-29.6020508h16.6015625v70.0043945h-15.3007812v-45.7026367l-19.7011719,29.9018555h-.4003906l-19.5009766-29.6020508v45.402832h-15.1015625V33.9838806Z"/>
    </g>
    <g class="cls-1">
      <path d="M185.5654683,119.0346618h2.2363281l5.2001953,15.1586914,4.9921875-15.2109375h1.6904297l4.9921875,15.2109375,5.2001953-15.1586914h2.1582031l-6.5009766,18.3305664h-1.7421875l-4.9921875-14.7685547-5.0175781,14.7685547h-1.7158203l-6.5009766-18.3305664Z"/>
      <path d="M217.4941792,128.1870056v-.0522461c0-5.0180664,3.7695312-9.4121094,9.3076172-9.4121094,5.5390625,0,9.2568359,4.3422852,9.2568359,9.3603516v.0517578c0,5.0185547-3.7705078,9.4125977-9.3085938,9.4125977s-9.2558594-4.3422852-9.2558594-9.3603516ZM233.9267964,128.1870056v-.0522461c0-4.1337891-3.0166016-7.5141602-7.1767578-7.5141602s-7.1240234,3.328125-7.1240234,7.4624023v.0517578c0,4.1342773,3.015625,7.5146484,7.1757812,7.5146484s7.125-3.328125,7.125-7.4624023Z"/>
      <path d="M243.8838276,119.0346618h7.8261719c2.2617188,0,4.0302734.6762695,5.1738281,1.8198242.9101562.9101562,1.4042969,2.1323242,1.4042969,3.5883789v.0522461c0,3.015625-2.0800781,4.8100586-4.9404297,5.3037109l5.5898438,7.4365234h-2.5214844l-5.2783203-7.0722656h-5.2001953v7.0722656h-2.0537109v-18.2006836ZM251.5273823,128.3168884c2.7041016,0,4.6806641-1.4038086,4.6806641-3.7441406v-.0517578c0-2.262207-1.7158203-3.5883789-4.6542969-3.5883789h-5.6162109v7.3842773h5.5898438Z"/>
      <path d="M266.1650776,119.0346618h2.0537109v10.8686523l10.453125-10.8686523h2.6777344l-7.8261719,7.956543,8.1386719,10.2441406h-2.5742188l-6.9941406-8.8144531-3.875,3.9262695v4.8881836h-2.0537109v-18.2006836Z"/>
      <path d="M288.5254292,119.0346618h2.0537109v18.2006836h-2.0537109v-18.2006836Z"/>
      <path d="M299.3926167,119.0346618h1.9238281l11.4667969,14.5864258v-14.5864258h2.0019531v18.2006836h-1.6376953l-11.7529297-14.9248047v14.9248047h-2.0019531v-18.2006836Z"/>
      <path d="M322.6103901,128.1870056v-.0522461c0-4.9921875,3.6660156-9.4121094,9.1269531-9.4121094,3.0673828,0,4.9658203.8837891,6.7861328,2.4179688l-1.3261719,1.5600586c-1.3779297-1.222168-2.9902344-2.0800781-5.5380859-2.0800781-4.0302734,0-6.9169922,3.40625-6.9169922,7.4624023v.0517578c0,4.3422852,2.7822266,7.5664062,7.203125,7.5664062,2.0800781,0,4.0039062-.8056641,5.2519531-1.8198242v-4.5244141h-5.5380859v-1.8461914h7.5136719v7.2543945c-1.6894531,1.5341797-4.2119141,2.7822266-7.3056641,2.7822266-5.7207031,0-9.2568359-4.1601562-9.2568359-9.3603516Z"/>
      <path d="M357.7627339,128.1870056v-.0522461c0-4.9921875,3.6660156-9.4121094,9.1259766-9.4121094,3.0683594,0,4.9658203.8837891,6.7861328,2.4179688l-1.3261719,1.5600586c-1.3779297-1.222168-2.9902344-2.0800781-5.5380859-2.0800781-4.0302734,0-6.9160156,3.40625-6.9160156,7.4624023v.0517578c0,4.3422852,2.7822266,7.5664062,7.2021484,7.5664062,2.0800781,0,4.0039062-.8056641,5.2519531-1.8198242v-4.5244141h-5.5380859v-1.8461914h7.5146484v7.2543945c-1.6904297,1.5341797-4.2119141,2.7822266-7.3066406,2.7822266-5.7197266,0-9.2558594-4.1601562-9.2558594-9.3603516Z"/>
      <path d="M382.436562,119.0346618h7.8261719c2.2617188,0,4.0302734.6762695,5.1738281,1.8198242.9101562.9101562,1.4042969,2.1323242,1.4042969,3.5883789v.0522461c0,3.015625-2.0800781,4.8100586-4.9404297,5.3037109l5.5898438,7.4365234h-2.5214844l-5.2783203-7.0722656h-5.2001953v7.0722656h-2.0537109v-18.2006836ZM390.0801167,128.3168884c2.7041016,0,4.6806641-1.4038086,4.6806641-3.7441406v-.0517578c0-2.262207-1.7158203-3.5883789-4.6542969-3.5883789h-5.6162109v7.3842773h5.5898438Z"/>
      <path d="M403.9121479,128.1870056v-.0522461c0-5.0180664,3.7695312-9.4121094,9.3076172-9.4121094,5.5390625,0,9.2568359,4.3422852,9.2568359,9.3603516v.0517578c0,5.0185547-3.7705078,9.4125977-9.3085938,9.4125977s-9.2558594-4.3422852-9.2558594-9.3603516ZM420.3447651,128.1870056v-.0522461c0-4.1337891-3.0166016-7.5141602-7.1767578-7.5141602s-7.1240234,3.328125-7.1240234,7.4624023v.0517578c0,4.1342773,3.015625,7.5146484,7.1757812,7.5146484s7.125-3.328125,7.125-7.4624023Z"/>
      <path d="M430.0156636,129.6171814v-10.5825195h2.0546875v10.4526367c0,3.9521484,2.0537109,6.1357422,5.5634766,6.1357422,3.3544922,0,5.4863281-2.027832,5.4863281-6.0058594v-10.5825195h2.0546875v10.4262695c0,5.3300781-3.0429688,8.0605469-7.5927734,8.0605469-4.4980469,0-7.5664062-2.7563477-7.5664062-7.9042969Z"/>
      <path d="M453.5195698,119.0346618h6.8125c4.1083984,0,6.8125,2.184082,6.8125,5.7719727v.0522461c0,3.9262695-3.2763672,5.9541016-7.1503906,5.9541016h-4.4208984v6.4223633h-2.0537109v-18.2006836ZM460.0723042,128.9409118c3.015625,0,4.9921875-1.6118164,4.9921875-4.0039062v-.0522461c0-2.6000977-1.9501953-3.9521484-4.8886719-3.9521484h-4.6025391v8.0083008h4.4990234Z"/>
    </g>
  </g>
  <path d="M4.9667744,3.2581793v23.8131714h147.5012207V3.2581793H4.9667744ZM76.6019673,17.6954962H14.243813v-5.1602783h62.3581543v5.1602783ZM103.9371113,17.6954962h-18.0581055v-5.1602783h18.0581055v5.1602783Z"/>
</svg>