<?xml version="1.0" encoding="UTF-8" standalone="no"?>
<svg
   id="a"
   viewBox="0 0 624.24 469.28"
   version="1.1"
   xmlns="http://www.w3.org/2000/svg"
   xmlns:svg="http://www.w3.org/2000/svg">
  <defs
     id="defs7">
    <style
       id="style2">.c{fill:none;}.d{fill:#fff;}.e{fill:#3274f9;}.f,.g{fill:#488eff;}.h{opacity:.58;}.i{opacity:.9;}.j{clip-path:url(#b);}.g{font-family:OpenSans-Bold, Open Sans;font-size:31px;letter-spacing:.1em;}</style>
    <clipPath
       id="b">
      <path
         class="c"
         d="M75.3,7.38h473.31c34.98,0,63.35,28.36,63.35,63.35V342.14H11.96V70.72C11.96,35.74,40.32,7.38,75.3,7.38h0Z"
         id="path4" />
    </clipPath>
  </defs>
  <g
     id="g153">
    <path
       class="f"
       d="m 611.96,342.14 h -600 V 70.72 C 11.96,35.74 40.32,7.38 75.3,7.38 h 473.31 c 34.98,0 63.35,28.36 63.35,63.35"
       id="path9" />
    <path
       class="f"
       d="M 608.36,355.91 V 459.68 H 15.56 V 355.91 h 592.8 m 3.6,-3.6 h -600 v 110.97 h 600 z"
       id="path11" />
    <g
       class="j"
       clip-path="url(#b)"
       id="g17">
      <g
         class="i"
         id="g15">
        <path
           class="e"
           d="M 367.49,-133.62 0.55,119.44 253.6,486.38 620.54,233.32 Z M 266.52,322.45 292.11,82.32 166.58,168.89 180.54,131.38 135.25,123.46 327.42,-9.07 354.57,30.3 328.98,270.42 458.55,181.07 489.88,226.5 293.68,361.81 266.53,322.43 Z"
           id="path13" />
      </g>
    </g>
    <polygon
       class="d"
       points=""
       id="polygon19" />
    <path
       class="c"
       d="m 392.13,66.95 c 0.46,-0.34 0.7,-0.88 0.65,-1.45 v -0.05 c 0.06,-0.61 -0.22,-1.21 -0.74,-1.54 -0.74,-0.35 -1.55,-0.51 -2.36,-0.45 h -1.01 v 3.87 h 1.03 c 0.83,0.06 1.66,-0.08 2.43,-0.39 z"
       id="path21" />
    <path
       class="c"
       d="m 484.19,66.8 c 1.15,-0.97 1.29,-2.69 0.32,-3.84 l -0.33,-0.33 c -0.84,-0.55 -1.83,-0.81 -2.83,-0.75 h -2.36 v 5.67 h 2.39 c 0.99,0.06 1.98,-0.2 2.81,-0.74 z"
       id="path23" />
    <path
       class="c"
       d="m 471.89,66.91 c 1.19,-1.07 1.28,-2.9 0.21,-4.09 v 0 c 0,0 -0.02,-0.03 -0.03,-0.04 l -0.14,-0.16 c -0.76,-0.56 -1.7,-0.84 -2.64,-0.78 l -2.83,0.04 v 5.8 h 2.68 c 0.98,0.07 1.95,-0.2 2.75,-0.77 z"
       id="path25" />
    <path
       class="c"
       d="m 346.84,128.4 c -11.03,0 -17.62,8.49 -17.62,18.5 v 0.25 c 0,10.01 7.22,18.76 17.87,18.76 10.65,0 17.61,-8.49 17.61,-18.5 v -0.25 c 0,-10.01 -7.22,-18.76 -17.87,-18.76 z"
       id="path27" />
    <path
       id="polygon29"
       class="c"
       style="fill:none"
       d="m 411.77,70.39 -2.35,-5.8 -2.36,5.8 z" />
    <path
       class="c"
       d="m 255.31,67.85 c 1.32,-1.23 1.4,-3.3 0.18,-4.62 -0.04,-0.06 -0.1,-0.12 -0.16,-0.16 -0.83,-0.63 -1.86,-0.95 -2.9,-0.88 h -3.21 v 6.52 h 3.02 c 1.09,0.07 2.17,-0.23 3.07,-0.86 z"
       id="path31" />
    <path
       class="c"
       d="m 530.97,127.26 c -7.98,0 -13.18,5.7 -14.7,14.45 h 29.02 c -1.14,-8.62 -6.21,-14.45 -14.32,-14.45 z"
       id="path33" />
    <path
       id="polygon35"
       class="c"
       style="fill:none"
       d="m 329.29,70.39 -2.35,-5.8 -2.38,5.8 z" />
    <path
       class="c"
       d="m 231.25,74.33 c 2.85,2.74 7.36,2.74 10.22,0 2.76,-2.82 2.76,-7.33 0,-10.14 -2.85,-2.74 -7.36,-2.74 -10.22,0 -2.8,2.79 -2.81,7.32 -0.02,10.12 v 0 z"
       id="path37" />
    <path
       class="c"
       d="m 503,72.72 c 2.48,-2.52 2.48,-6.56 0,-9.08 -2.55,-2.47 -6.6,-2.47 -9.14,0 -2.5,2.5 -2.5,6.56 0,9.06 v 0 c 1.21,1.22 2.87,1.88 4.58,1.84 v 0 c 1.71,0.06 3.36,-0.61 4.57,-1.83 z"
       id="path39" />
    <path
       class="d"
       d="m 466.46,68.64 h 2.75 c 1.29,0.1 2.57,-0.27 3.61,-1.04 0.82,-0.7 1.27,-1.75 1.22,-2.83 0.06,-1.07 -0.4,-2.11 -1.22,-2.8 -1,-0.75 -2.24,-1.12 -3.49,-1.03 h -3.99 v 14.47 h 1.11 v -6.77 z m 0,-6.77 2.83,-0.04 c 0.95,-0.06 1.88,0.22 2.64,0.78 l 0.14,0.16 c 0,0 0.02,0.03 0.03,0.04 1.07,1.19 0.98,3.02 -0.21,4.09 v 0 c -0.8,0.57 -1.77,0.84 -2.75,0.77 h -2.68 z"
       id="path41" />
    <path
       class="d"
       d="m 478.94,68.5 h 2 c 0.72,-0.04 1.44,0.13 2.06,0.49 0.79,0.71 1.45,1.55 1.96,2.48 l 2.52,3.94 h 1.34 l -3.27,-5 c -0.47,-0.87 -1.13,-1.63 -1.93,-2.22 1.62,-0.39 2.76,-1.84 2.75,-3.51 0.04,-1.05 -0.41,-2.06 -1.23,-2.72 -1.03,-0.74 -2.3,-1.1 -3.57,-1.02 h -3.7 l -0.04,14.5 h 1.11 z m 0.04,-6.62 h 2.36 c 1,-0.06 1.99,0.2 2.83,0.75 l 0.33,0.33 c 0.97,1.15 0.83,2.87 -0.32,3.84 -0.83,0.54 -1.82,0.8 -2.81,0.74 h -2.39 v -5.67 z"
       id="path43" />
    <path
       class="d"
       d="m 503.87,73.44 0.18,-0.18 c 0,0 0.06,-0.06 0.08,-0.09 2.76,-2.9 2.64,-7.49 -0.26,-10.25 v 0 c -3.05,-2.87 -7.81,-2.87 -10.86,0 l -0.14,0.15 v 0 c -2.82,2.91 -2.75,7.55 0.15,10.37 3.05,2.88 7.81,2.88 10.86,0 z M 493.86,72.7 c -2.5,-2.5 -2.5,-6.56 0,-9.06 v 0 c 2.55,-2.48 6.6,-2.48 9.14,0 2.48,2.52 2.48,6.56 0,9.08 -1.2,1.22 -2.85,1.88 -4.57,1.84 v 0 c -1.71,0.03 -3.37,-0.64 -4.58,-1.85 v 0 z"
       id="path45" />
    <path
       class="d"
       d="m 508.69,79.64 c 0.81,0 1.58,-0.33 2.13,-0.92 0.7,-0.94 1.02,-2.11 0.9,-3.27 v -14.5 h -1.11 v 14.82 c 0,1.94 -0.67,2.9 -2.03,2.9 -0.22,0 -0.44,-0.03 -0.65,-0.07 l 0.1,1.05 c 0.22,0 0.44,0 0.67,0 z"
       id="path47" />
    <path
       id="polygon49"
       class="d"
       style="fill:#ffffff"
       d="m 517.79,68.6 h 6.59 v -0.94 h -6.59 v -5.78 h 6.76 v -0.93 h -7.88 v 14.46 h 8.04 v -0.94 h -6.92 z" />
    <path
       class="d"
       d="m 540.77,61.98 v 0 c 0,0 0.04,0.02 0.06,0.03 z"
       id="path51" />
    <path
       class="d"
       d="m 535.8,75.62 c 1.79,-0.02 3.55,-0.48 5.12,-1.35 v -1.16 c -1.57,0.9 -3.34,1.4 -5.14,1.45 -1.73,0.06 -3.41,-0.58 -4.65,-1.79 -1.22,-1.21 -1.88,-2.88 -1.81,-4.61 -0.05,-1.71 0.6,-3.37 1.81,-4.58 1.18,-1.21 2.8,-1.88 4.49,-1.84 1.81,0.05 3.59,0.55 5.16,1.45 v -1.21 c -1.57,-0.75 -3.29,-1.16 -5.03,-1.19 -2,-0.02 -3.92,0.74 -5.35,2.13 -0.03,0.04 -0.06,0.07 -0.1,0.1 v 0 c -2.89,2.9 -2.89,7.59 0,10.48 1.47,1.42 3.46,2.19 5.51,2.12 z"
       id="path53" />
    <path
       id="polygon55"
       class="d"
       style="fill:#ffffff"
       d="m 549.74,61.88 h 5.42 v -0.93 h -11.98 v 0.93 h 5.43 v 13.53 h 1.13 z" />
    <path
       id="polygon57"
       class="d"
       style="fill:#ffffff"
       d="m 310.62,60.4 -4.94,6.02 -4.93,-6.02 h -4.38 v 16.03 h 4.69 v -9.29 l 4.37,5.38 h 0.39 l 4.35,-5.38 v 9.29 h 4.84 V 60.4 Z" />
    <path
       class="d"
       d="m 323.43,73.18 h 6.96 l 1.32,3.25 h 4.94 l -7,-16.03 h -5.41 l -7.09,16.03 h 4.94 l 1.33,-3.25 z m 3.51,-8.59 2.35,5.8 h -4.72 z"
       id="path59" />
    <path
       id="rect61"
       class="d"
       style="fill:#ffffff"
       d="m 338.79999,60.400002 h 4.82 v 16.03 h -4.82 z" />
    <path
       id="polygon63"
       class="d"
       style="fill:#ffffff"
       d="M 365.07,76.43 V 60.4 h -4.81 v 8.88 l -8.29,-8.88 h -4.29 v 16.03 h 4.78 V 67.5 l 8.32,8.93 z" />
    <path
       id="polygon65"
       class="d"
       style="fill:#ffffff"
       d="m 380.58,66.72 h -6.65 v -3.1 h 6.65 V 60.4 H 369.1 v 16.03 h 4.83 v -6.49 h 6.65 z" />
    <path
       class="d"
       d="m 390.57,70.33 c 0.44,0.21 0.81,0.53 1.08,0.93 0.49,0.71 0.91,1.48 1.25,2.28 l 1.26,2.9 h 5.19 l -1.58,-3.51 c -0.38,-0.88 -0.86,-1.71 -1.42,-2.48 -0.35,-0.43 -0.79,-0.8 -1.28,-1.07 0.41,-0.22 0.8,-0.46 1.17,-0.73 0.41,-0.33 0.75,-0.75 0.99,-1.22 0.33,-0.63 0.49,-1.34 0.46,-2.06 -0.01,-0.77 -0.2,-1.52 -0.55,-2.2 -0.42,-0.81 -1.06,-1.49 -1.84,-1.96 -0.99,-0.58 -2.12,-0.86 -3.26,-0.81 h -8.22 v 15.99 h 4.84 v -6.26 h 0.54 c 0.46,-0.01 0.93,0.06 1.36,0.2 z m -1.9,-6.85 h 1.01 c 0.81,-0.06 1.63,0.1 2.36,0.45 0.52,0.33 0.8,0.92 0.74,1.54 v 0.05 c 0.05,0.56 -0.2,1.11 -0.65,1.45 -0.77,0.32 -1.6,0.45 -2.43,0.39 h -1.03 v -3.87 z"
       id="path67" />
    <path
       class="d"
       d="m 405.93,73.18 h 6.96 l 1.3,3.25 h 4.94 L 412.07,60.4 h -5.35 l -7.09,16.03 h 4.96 l 1.33,-3.25 z m 3.49,-8.59 2.35,5.8 h -4.71 z"
       id="path69" />
    <path
       id="polygon71"
       class="d"
       style="fill:#ffffff"
       d="m 430.71,72.52 4.37,-5.38 v 9.29 h 4.83 V 60.4 h -4.38 l -4.96,6.02 -4.91,-6.02 h -4.4 v 16.03 h 4.7 v -9.29 l 4.38,5.38 z" />
    <path
       id="polygon73"
       class="d"
       style="fill:#ffffff"
       d="m 448.79,69.78 h 6.73 v -3.24 h -6.73 v -2.92 h 7.04 V 60.4 h -11.88 v 16.03 h 12.09 V 73.2 h -7.25 z" />
    <path
       class="d"
       d="m 242.44,75.14 0.2,-0.2 c 0,0 0.02,-0.03 0.04,-0.04 3.13,-3.26 3.02,-8.43 -0.24,-11.56 -1.61,-1.6 -3.81,-2.47 -6.07,-2.41 v 0.04 c -2.26,-0.05 -4.44,0.82 -6.05,2.41 l -0.16,0.16 c -3.16,3.25 -3.08,8.43 0.16,11.59 3.4,3.21 8.72,3.21 12.12,0 z M 231.25,64.19 c 2.85,-2.74 7.36,-2.74 10.22,0 2.76,2.82 2.76,7.33 0,10.14 -2.85,2.74 -7.36,2.74 -10.22,0 l -0.02,-0.02 c -2.79,-2.8 -2.79,-7.33 0.01,-10.12 v 0 z"
       id="path75" />
    <path
       class="d"
       d="m 249.14,69.75 h 3.09 c 1.44,0.1 2.86,-0.32 4.01,-1.17 1.76,-1.53 1.94,-4.2 0.41,-5.96 -0.1,-0.11 -0.21,-0.22 -0.32,-0.33 -1.13,-0.83 -2.51,-1.23 -3.91,-1.15 h -4.45 l -0.07,16.13 h 1.24 z m 0.07,-7.57 h 3.21 c 1.04,-0.06 2.07,0.25 2.9,0.88 0.06,0.04 0.12,0.1 0.16,0.16 1.23,1.33 1.15,3.39 -0.18,4.62 -0.9,0.62 -1.98,0.93 -3.07,0.86 h -3.02 z"
       id="path77" />
    <path
       id="polygon79"
       class="d"
       style="fill:#ffffff"
       d="m 261.33,69.69 h 7.37 v -1.04 h -7.37 v -6.47 h 7.57 v -1.04 h -8.81 V 77.3 h 9 v -1.04 h -7.76 z" />
    <path
       id="polygon81"
       class="d"
       style="fill:#ffffff"
       d="M 286.21,77.3 V 61.14 h -1.25 V 75.26 L 272.72,61.14 h -1.06 V 77.3 h 1.25 V 63.16 l 12.27,14.14 z" />
    <path
       id="polygon83"
       class="d"
       style="fill:#ffffff"
       d="m 226.31,166.17 v 14.82 h 73.89 v -17.1 H 251.41 L 300.2,107.11 V 92.28 h -72.36 v 17.11 h 47.27 z" />
    <path
       class="d"
       d="m 347.09,111.8 c -21.16,0 -36.88,15.84 -36.88,35.36 v 0.25 c 0,19.52 15.59,35.1 36.62,35.1 21.03,0 36.88,-15.84 36.88,-35.36 v -0.25 c 0,-19.52 -15.59,-35.1 -36.62,-35.1 z m 17.61,35.61 c 0,10.01 -6.59,18.5 -17.61,18.5 -11.02,0 -17.87,-8.74 -17.87,-18.76 v -0.25 c 0,-10.01 6.59,-18.5 17.62,-18.5 11.03,0 17.87,8.74 17.87,18.76 v 0.25 z"
       id="path85" />
    <path
       id="polygon87"
       class="d"
       style="fill:#ffffff"
       d="m 432.25,112.81 -12.8,41.44 -10.9,-41.18 h -19.51 l 20.91,68.43 h 17.23 l 13.31,-41.69 13.05,41.69 h 17.36 l 21.17,-68.43 h -19.14 l -11.15,41.31 -12.93,-41.57 z" />
    <path
       class="d"
       d="m 564.05,148.68 c 0,-19.26 -10.39,-36.88 -33.08,-36.88 -19.77,0 -33.58,15.97 -33.58,35.36 v 0.25 c 0,20.78 15.08,35.1 35.48,35.1 12.29,0 21.42,-4.82 27.75,-12.67 l -11.03,-9.76 c -5.32,4.94 -10.01,6.97 -16.47,6.97 -8.62,0 -14.7,-4.56 -16.6,-13.31 h 47.27 c 0.13,-1.77 0.25,-3.55 0.25,-5.07 z m -47.78,-6.97 c 1.52,-8.74 6.72,-14.45 14.7,-14.45 7.98,0 13.18,5.83 14.32,14.45 z"
       id="path89" />
    <path
       class="d"
       d="m 141.45,51.38 -90.9,62.69 62.69,90.91 90.91,-62.69 -62.69,-90.91 z m -25.01,112.99 6.34,-59.49 -31.1,21.45 -7.76,-11.25 47.61,-32.83 6.73,9.75 -6.34,59.49 32.1,-22.14 7.76,11.26 -48.61,33.52 -6.73,-9.75 z"
       id="path91" />
    <g
       id="g151">
      <g
         id="g113">
        <path
           class="d"
           d="m 137.82,224.24 c -3.21,0 -5.73,1.14 -7.57,3.41 -1.84,2.27 -2.76,5.41 -2.76,9.41 0,4 0.88,7.36 2.65,9.51 1.77,2.15 4.33,3.22 7.67,3.22 1.45,0 2.85,-0.14 4.2,-0.43 1.36,-0.29 2.76,-0.66 4.23,-1.11 v 4.79 c -2.68,1.01 -5.72,1.52 -9.11,1.52 -5,0 -8.84,-1.51 -11.52,-4.54 -2.68,-3.03 -4.02,-7.36 -4.02,-13 0,-3.55 0.65,-6.66 1.95,-9.32 1.3,-2.66 3.18,-4.7 5.64,-6.12 2.46,-1.42 5.35,-2.13 8.67,-2.13 3.49,0 6.71,0.73 9.67,2.2 l -2.01,4.65 c -1.15,-0.54 -2.37,-1.02 -3.66,-1.44 -1.29,-0.41 -2.64,-0.62 -4.05,-0.62 z"
           id="path93" />
        <path
           class="d"
           d="m 188.71,236.97 c 0,5.56 -1.39,9.88 -4.17,12.96 -2.78,3.08 -6.72,4.62 -11.81,4.62 -5.09,0 -9.11,-1.53 -11.88,-4.59 -2.76,-3.06 -4.15,-7.41 -4.15,-13.05 0,-5.64 1.39,-9.97 4.17,-12.99 2.78,-3.02 6.75,-4.53 11.9,-4.53 5.15,0 9,1.53 11.77,4.6 2.77,3.07 4.16,7.39 4.16,12.96 z m -26.07,0 c 0,4.2 0.85,7.39 2.55,9.57 1.7,2.17 4.21,3.26 7.54,3.26 3.33,0 5.82,-1.08 7.51,-3.22 1.69,-2.15 2.53,-5.35 2.53,-9.6 0,-4.25 -0.84,-7.37 -2.51,-9.53 -1.67,-2.16 -4.17,-3.25 -7.49,-3.25 -3.32,0 -5.88,1.08 -7.58,3.25 -1.71,2.17 -2.56,5.34 -2.56,9.53 z"
           id="path95" />
        <path
           class="d"
           d="m 229.28,254.09 h -6.84 l -16.79,-27.21 h -0.19 l 0.12,1.52 c 0.22,2.9 0.33,5.54 0.33,7.94 v 17.75 h -5.07 v -34.15 h 6.77 l 16.75,27.07 h 0.14 c -0.03,-0.36 -0.09,-1.66 -0.19,-3.91 -0.1,-2.25 -0.14,-4.01 -0.14,-5.27 v -17.89 h 5.12 v 34.15 z"
           id="path97" />
        <path
           class="d"
           d="m 248.62,254.09 h -5.54 v -34.15 h 19.27 v 4.72 h -13.73 v 10.67 h 12.87 v 4.74 h -12.87 z"
           id="path99" />
        <path
           class="d"
           d="m 303.65,236.97 c 0,5.56 -1.39,9.88 -4.17,12.96 -2.78,3.08 -6.72,4.62 -11.81,4.62 -5.09,0 -9.11,-1.53 -11.88,-4.59 -2.76,-3.06 -4.15,-7.41 -4.15,-13.05 0,-5.64 1.39,-9.97 4.17,-12.99 2.78,-3.02 6.75,-4.53 11.9,-4.53 5.15,0 9,1.53 11.77,4.6 2.77,3.07 4.16,7.39 4.16,12.96 z m -26.07,0 c 0,4.2 0.85,7.39 2.55,9.57 1.7,2.17 4.21,3.26 7.54,3.26 3.33,0 5.82,-1.08 7.51,-3.22 1.69,-2.15 2.53,-5.35 2.53,-9.6 0,-4.25 -0.84,-7.37 -2.51,-9.53 -1.67,-2.16 -4.17,-3.25 -7.49,-3.25 -3.32,0 -5.88,1.08 -7.58,3.25 -1.71,2.17 -2.56,5.34 -2.56,9.53 z"
           id="path101" />
        <path
           class="d"
           d="m 321.35,240.45 v 13.64 h -5.58 v -34.15 h 9.65 c 4.41,0 7.67,0.83 9.79,2.48 2.12,1.65 3.18,4.14 3.18,7.47 0,4.25 -2.21,7.28 -6.63,9.09 l 9.65,15.11 h -6.35 l -8.18,-13.64 h -5.51 z m 0,-4.62 h 3.88 c 2.6,0 4.49,-0.48 5.65,-1.45 1.16,-0.97 1.75,-2.4 1.75,-4.3 0,-1.9 -0.63,-3.32 -1.89,-4.16 -1.26,-0.84 -3.16,-1.26 -5.7,-1.26 h -3.69 z"
           id="path103" />
        <path
           class="d"
           d="m 365.89,254.09 -9.9,-28.52 h -0.19 c 0.26,4.24 0.4,8.21 0.4,11.91 v 16.61 h -5.07 V 219.94 H 359 l 9.48,27.17 h 0.14 l 9.76,-27.17 h 7.9 v 34.15 h -5.37 V 237.2 c 0,-1.7 0.04,-3.91 0.13,-6.63 0.08,-2.73 0.16,-4.38 0.22,-4.95 h -0.19 l -10.25,28.47 z"
           id="path105" />
        <path
           class="d"
           d="m 421.25,254.09 -3.41,-9.48 h -13.06 l -3.34,9.48 h -5.89 l 12.78,-34.29 h 6.07 l 12.78,34.29 z m -4.88,-14.3 -3.2,-9.3 c -0.23,-0.62 -0.56,-1.6 -0.97,-2.94 -0.41,-1.34 -0.7,-2.32 -0.85,-2.94 -0.42,1.92 -1.04,4.01 -1.85,6.28 l -3.08,8.9 z"
           id="path107" />
        <path
           class="d"
           d="m 464.93,254.09 h -6.84 L 441.3,226.88 h -0.19 l 0.12,1.52 c 0.22,2.9 0.33,5.54 0.33,7.94 v 17.75 h -5.07 v -34.15 h 6.77 l 16.75,27.07 h 0.14 c -0.03,-0.36 -0.09,-1.66 -0.19,-3.91 -0.1,-2.25 -0.14,-4.01 -0.14,-5.27 v -17.89 h 5.12 v 34.15 z"
           id="path109" />
        <path
           class="d"
           d="m 490.52,254.09 h -5.58 V 224.73 H 474.9 v -4.79 h 25.67 v 4.79 h -10.04 v 29.36 z"
           id="path111" />
      </g>
      <g
         class="h"
         id="g117">
        <path
           id="rect115"
           class="d"
           style="fill:#ffffff"
           d="m 35.66,277.64001 h 553.53003 v 43.53 H 35.66 Z" />
      </g>
      <g
         id="g149">
        <path
           class="e"
           d="m 119.92,303.15 c 0,1.82 -0.65,3.25 -1.96,4.29 -1.31,1.04 -3.13,1.57 -5.46,1.57 -2.15,0 -4.05,-0.4 -5.7,-1.21 v -3.96 c 1.36,0.61 2.51,1.03 3.45,1.28 0.94,0.25 1.8,0.37 2.58,0.37 0.94,0 1.65,-0.18 2.15,-0.54 0.5,-0.36 0.75,-0.89 0.75,-1.6 0,-0.39 -0.11,-0.75 -0.33,-1.05 -0.22,-0.31 -0.54,-0.6 -0.97,-0.89 -0.43,-0.29 -1.3,-0.74 -2.61,-1.36 -1.23,-0.58 -2.15,-1.13 -2.77,-1.67 -0.62,-0.53 -1.11,-1.15 -1.47,-1.86 -0.37,-0.71 -0.55,-1.53 -0.55,-2.48 0,-1.78 0.6,-3.18 1.81,-4.2 1.21,-1.02 2.87,-1.53 5,-1.53 1.05,0 2.04,0.12 2.99,0.37 0.95,0.25 1.94,0.6 2.98,1.05 l -1.38,3.32 c -1.07,-0.44 -1.96,-0.75 -2.66,-0.92 -0.7,-0.17 -1.39,-0.26 -2.07,-0.26 -0.81,0 -1.43,0.19 -1.86,0.56 -0.43,0.38 -0.65,0.87 -0.65,1.47 0,0.38 0.09,0.7 0.26,0.98 0.17,0.28 0.45,0.55 0.83,0.81 0.38,0.26 1.28,0.73 2.7,1.41 1.88,0.9 3.17,1.8 3.87,2.7 0.7,0.9 1.05,2.01 1.05,3.32 z"
           id="path119" />
        <path
           class="e"
           d="m 148.4,288.62 v 13.02 c 0,1.49 -0.33,2.79 -1,3.91 -0.67,1.12 -1.63,1.98 -2.88,2.57 -1.25,0.59 -2.74,0.89 -4.46,0.89 -2.59,0 -4.6,-0.66 -6.03,-1.99 -1.43,-1.33 -2.15,-3.14 -2.15,-5.44 v -12.96 h 4.25 v 12.32 c 0,1.55 0.31,2.69 0.94,3.41 0.62,0.73 1.66,1.09 3.1,1.09 1.44,0 2.41,-0.37 3.03,-1.09 0.63,-0.73 0.94,-1.87 0.94,-3.43 v -12.29 h 4.25 z"
           id="path121" />
        <path
           class="e"
           d="m 175.68,294.89 c 0,2.17 -0.68,3.82 -2.03,4.97 -1.35,1.15 -3.28,1.72 -5.77,1.72 h -1.83 v 7.16 h -4.27 v -20.12 h 6.43 c 2.44,0 4.3,0.53 5.57,1.58 1.27,1.05 1.91,2.62 1.91,4.7 z m -9.63,3.19 h 1.4 c 1.31,0 2.29,-0.26 2.95,-0.78 0.66,-0.52 0.98,-1.27 0.98,-2.26 0,-0.99 -0.27,-1.74 -0.82,-2.22 -0.55,-0.48 -1.4,-0.72 -2.57,-0.72 h -1.94 v 5.97 z"
           id="path123" />
        <path
           class="e"
           d="m 201.83,294.89 c 0,2.17 -0.68,3.82 -2.03,4.97 -1.35,1.15 -3.28,1.72 -5.77,1.72 h -1.83 v 7.16 h -4.27 v -20.12 h 6.43 c 2.44,0 4.3,0.53 5.57,1.58 1.27,1.05 1.91,2.62 1.91,4.7 z m -9.63,3.19 h 1.4 c 1.31,0 2.29,-0.26 2.95,-0.78 0.66,-0.52 0.98,-1.27 0.98,-2.26 0,-0.99 -0.27,-1.74 -0.82,-2.22 -0.55,-0.48 -1.4,-0.72 -2.57,-0.72 h -1.94 v 5.97 z"
           id="path125" />
        <path
           class="e"
           d="m 232.35,298.65 c 0,3.33 -0.83,5.89 -2.48,7.68 -1.65,1.79 -4.02,2.68 -7.1,2.68 -3.08,0 -5.45,-0.89 -7.1,-2.68 -1.65,-1.79 -2.48,-4.36 -2.48,-7.71 0,-3.35 0.83,-5.91 2.48,-7.67 1.66,-1.77 4.03,-2.65 7.12,-2.65 3.09,0 5.46,0.89 7.09,2.67 1.64,1.78 2.46,4.34 2.46,7.68 z m -14.68,0 c 0,2.25 0.43,3.94 1.28,5.08 0.85,1.14 2.13,1.71 3.83,1.71 3.4,0 5.11,-2.26 5.11,-6.79 0,-4.53 -1.69,-6.8 -5.08,-6.8 -1.7,0 -2.98,0.57 -3.84,1.71 -0.86,1.14 -1.29,2.84 -1.29,5.08 z"
           id="path127" />
        <path
           class="e"
           d="m 249.24,301.02 v 7.72 h -4.27 v -20.12 h 5.86 c 2.73,0 4.76,0.5 6.07,1.49 1.31,1 1.97,2.51 1.97,4.53 0,1.18 -0.33,2.24 -0.98,3.16 -0.65,0.92 -1.57,1.64 -2.77,2.17 3.03,4.52 5,7.45 5.92,8.77 h -4.73 l -4.8,-7.72 z m 0,-3.47 h 1.38 c 1.35,0 2.34,-0.22 2.99,-0.67 0.64,-0.45 0.96,-1.16 0.96,-2.12 0,-0.96 -0.33,-1.63 -0.98,-2.04 -0.66,-0.4 -1.67,-0.61 -3.05,-0.61 h -1.29 v 5.44 z"
           id="path129" />
        <path
           class="e"
           d="m 279.8,308.74 h -4.27 v -16.57 h -5.46 v -3.55 h 15.19 v 3.55 h -5.46 z"
           id="path131" />
        <path
           class="e"
           d="m 326.49,294.89 c 0,2.17 -0.68,3.82 -2.03,4.97 -1.35,1.15 -3.28,1.72 -5.77,1.72 h -1.83 v 7.16 h -4.27 v -20.12 h 6.43 c 2.44,0 4.3,0.53 5.57,1.58 1.27,1.05 1.91,2.62 1.91,4.7 z m -9.63,3.19 h 1.4 c 1.31,0 2.29,-0.26 2.95,-0.78 0.66,-0.52 0.98,-1.27 0.98,-2.26 0,-0.99 -0.27,-1.74 -0.82,-2.22 -0.55,-0.48 -1.4,-0.72 -2.57,-0.72 h -1.94 v 5.97 z"
           id="path133" />
        <path
           class="e"
           d="m 343.01,301.02 v 7.72 h -4.27 v -20.12 h 5.86 c 2.73,0 4.76,0.5 6.07,1.49 1.31,1 1.97,2.51 1.97,4.53 0,1.18 -0.33,2.24 -0.98,3.16 -0.65,0.92 -1.57,1.64 -2.77,2.17 3.03,4.52 5,7.45 5.92,8.77 h -4.73 l -4.8,-7.72 z m 0,-3.47 h 1.38 c 1.35,0 2.34,-0.22 2.99,-0.67 0.64,-0.45 0.96,-1.16 0.96,-2.12 0,-0.96 -0.33,-1.63 -0.98,-2.04 -0.66,-0.4 -1.67,-0.61 -3.05,-0.61 h -1.29 v 5.44 z"
           id="path135" />
        <path
           class="e"
           d="m 384.07,298.65 c 0,3.33 -0.83,5.89 -2.48,7.68 -1.65,1.79 -4.02,2.68 -7.1,2.68 -3.08,0 -5.45,-0.89 -7.1,-2.68 -1.65,-1.79 -2.48,-4.36 -2.48,-7.71 0,-3.35 0.83,-5.91 2.48,-7.67 1.66,-1.77 4.03,-2.65 7.12,-2.65 3.09,0 5.46,0.89 7.09,2.67 1.64,1.78 2.46,4.34 2.46,7.68 z m -14.68,0 c 0,2.25 0.43,3.94 1.28,5.08 0.85,1.14 2.13,1.71 3.83,1.71 3.4,0 5.11,-2.26 5.11,-6.79 0,-4.53 -1.69,-6.8 -5.08,-6.8 -1.7,0 -2.98,0.57 -3.84,1.71 -0.86,1.14 -1.29,2.84 -1.29,5.08 z"
           id="path137" />
        <path
           class="e"
           d="m 408.18,288.62 h 4.31 l -6.84,20.12 H 401 l -6.83,-20.12 h 4.31 l 3.78,11.97 c 0.21,0.71 0.43,1.53 0.65,2.47 0.22,0.94 0.36,1.59 0.42,1.96 0.1,-0.84 0.44,-2.32 1.03,-4.43 l 3.81,-11.97 z"
           id="path139" />
        <path
           class="e"
           d="m 423.47,308.74 v -20.12 h 4.27 v 20.12 z"
           id="path141" />
        <path
           class="e"
           d="m 457.95,298.49 c 0,3.31 -0.94,5.85 -2.83,7.61 -1.88,1.76 -4.61,2.64 -8.17,2.64 h -5.7 v -20.12 h 6.32 c 3.28,0 5.83,0.87 7.65,2.6 1.82,1.73 2.72,4.16 2.72,7.27 z m -4.43,0.11 c 0,-4.32 -1.91,-6.48 -5.73,-6.48 h -2.27 v 13.1 h 1.83 c 4.11,0 6.17,-2.21 6.17,-6.62 z"
           id="path143" />
        <path
           class="e"
           d="m 482.17,308.74 h -11.59 v -20.12 h 11.59 v 3.5 h -7.32 v 4.42 h 6.81 v 3.5 h -6.81 v 5.19 h 7.32 v 3.52 z"
           id="path145" />
        <path
           class="e"
           d="m 499.09,301.02 v 7.72 h -4.27 v -20.12 h 5.86 c 2.73,0 4.76,0.5 6.07,1.49 1.31,1 1.97,2.51 1.97,4.53 0,1.18 -0.33,2.24 -0.98,3.16 -0.65,0.92 -1.57,1.64 -2.77,2.17 3.03,4.52 5,7.45 5.92,8.77 h -4.73 l -4.8,-7.72 z m 0,-3.47 h 1.38 c 1.35,0 2.34,-0.22 2.99,-0.67 0.64,-0.45 0.96,-1.16 0.96,-2.12 0,-0.96 -0.33,-1.63 -0.98,-2.04 -0.66,-0.4 -1.67,-0.61 -3.05,-0.61 h -1.29 v 5.44 z"
           id="path147" />
      </g>
    </g>
  </g>
  <g
     aria-label="EXPLORER FOR VISUAL CODE -ZOWE V2"
     transform="translate(37.81,401.8)"
     id="text159"
     class="g"
     style="font-size:31px;font-family:OpenSans-Bold, 'Open Sans';letter-spacing:0.1em;fill:#488eff">
    <path
       d="M 17.876465,0 H 3.0273438 V -22.538574 H 17.876465 v 2.664062 H 6.0244141 v 6.175782 H 17.876465 v 2.664062 H 6.0244141 v 8.3706055 H 17.876465 Z"
       id="path179" />
    <path
       d="M 42.939844,-22.538574 35.159571,-11.397949 42.924707,0 H 39.458399 L 33.312891,-9.2788086 27.016016,0 h -3.269531 l 7.855957,-11.261719 -7.674317,-11.276855 h 3.451172 l 6.069824,9.157715 6.206055,-9.157715 z"
       id="path181" />
    <path
       d="m 64.839649,-15.727051 q 0,1.498535 -0.529785,2.785156 -0.514648,1.271485 -1.453125,2.209961 -1.165527,1.1655277 -2.754883,1.7558598 -1.589355,0.5751953 -4.01123,0.5751953 H 53.093555 V 0 h -2.99707 v -22.538574 h 6.115235 q 2.02832,0 3.436035,0.348144 1.407715,0.333008 2.497558,1.059571 1.286621,0.862793 1.98291,2.149414 0.711426,1.286621 0.711426,3.254394 z m -3.118164,0.07568 q 0,-1.165528 -0.408691,-2.02832 -0.408692,-0.862793 -1.241211,-1.407715 -0.726563,-0.469239 -1.665039,-0.666016 -0.92334,-0.211914 -2.346192,-0.211914 h -2.966797 v 9.006348 h 2.527832 q 1.816407,0 2.951661,-0.317871 1.135254,-0.333008 1.846679,-1.044434 0.711426,-0.726563 0.999024,-1.528809 0.302734,-0.802246 0.302734,-1.801269 z"
       id="path183" />
    <path
       d="M 86.164261,0 H 71.905472 v -22.538574 h 2.99707 v 19.8745115 h 11.261719 z"
       id="path185" />
    <path
       d="m 109.06309,-19.950195 q 1.37744,1.513672 2.104,3.708496 0.7417,2.194824 0.7417,4.97998 0,2.7851565 -0.75684,4.9951174 -0.74169,2.1948243 -2.08886,3.663086 -1.39258,1.5288086 -3.29981,2.30078122 -1.89209,0.77197266 -4.3291,0.77197266 -2.376464,0 -4.3291,-0.78710937 -1.9375,-0.78710941 -3.299805,-2.28564451 -1.362305,-1.4985352 -2.104004,-3.6782227 -0.726562,-2.1796875 -0.726562,-4.9799807 0,-2.754883 0.726562,-4.93457 0.726563,-2.194824 2.119141,-3.753906 1.332031,-1.483399 3.299804,-2.270508 1.982911,-0.787109 4.313964,-0.787109 2.42188,0 4.34424,0.802246 1.9375,0.787109 3.28467,2.255371 z m -0.27246,8.688476 q 0,-4.389648 -1.96778,-6.766113 -1.96777,-2.391602 -5.37353,-2.391602 -3.436037,0 -5.403811,2.391602 -1.952636,2.376465 -1.952636,6.766113 0,4.4350588 1.998046,6.796387 1.998047,2.3461914 5.358401,2.3461914 3.36035,0 5.34326,-2.3461914 1.99805,-2.3613282 1.99805,-6.796387 z"
       id="path187" />
    <path
       d="m 138.41016,0 h -3.89014 l -7.53809,-8.9609375 h -4.22314 V 0 h -2.99707 v -22.538574 h 6.31201 q 2.04346,0 3.40576,0.272461 1.36231,0.257324 2.45215,0.938476 1.22607,0.771973 1.90723,1.952637 0.69629,1.165527 0.69629,2.966797 0,2.437012 -1.22608,4.086914 -1.22607,1.634766 -3.37549,2.4672851 z m -7.0083,-16.196289 q 0,-0.96875 -0.34815,-1.710449 -0.33301,-0.756836 -1.12012,-1.271485 -0.65088,-0.438964 -1.54394,-0.605468 -0.89307,-0.181641 -2.10401,-0.181641 h -3.52685 v 8.506836 h 3.02734 q 1.42285,0 2.48242,-0.242188 1.05957,-0.257324 1.80127,-0.938476 0.68116,-0.635742 0.99903,-1.453125 0.33301,-0.83252 0.33301,-2.104004 z"
       id="path189" />
    <path
       d="m 159.26553,0 h -14.84912 v -22.538574 h 14.84912 v 2.664062 h -11.85205 v 6.175782 h 11.85205 v 2.664062 h -11.85205 v 8.3706055 h 11.85205 z"
       id="path191" />
    <path
       d="m 185.78203,0 h -3.89014 l -7.53808,-8.9609375 h -4.22315 V 0 h -2.99707 v -22.538574 h 6.31201 q 2.04346,0 3.40576,0.272461 1.36231,0.257324 2.45215,0.938476 1.22608,0.771973 1.90723,1.952637 0.69629,1.165527 0.69629,2.966797 0,2.437012 -1.22608,4.086914 -1.22607,1.634766 -3.37548,2.4672851 z m -7.0083,-16.196289 q 0,-0.96875 -0.34815,-1.710449 -0.333,-0.756836 -1.12011,-1.271485 -0.65088,-0.438964 -1.54395,-0.605468 -0.89307,-0.181641 -2.104,-0.181641 h -3.52686 v 8.506836 h 3.02734 q 1.42286,0 2.48243,-0.242188 1.05957,-0.257324 1.80127,-0.938476 0.68115,-0.635742 0.99902,-1.453125 0.33301,-0.83252 0.33301,-2.104004 z"
       id="path193" />
    <path
       d="m 220.18173,-19.874512 h -11.39795 v 6.357422 h 9.79346 v 2.664063 h -9.79346 V 0 h -2.99707 v -22.538574 h 14.39502 z"
       id="path195" />
    <path
       d="m 243.48926,-19.950195 q 1.37744,1.513672 2.104,3.708496 0.7417,2.194824 0.7417,4.97998 0,2.7851565 -0.75684,4.9951174 -0.74169,2.1948243 -2.08886,3.663086 -1.39258,1.5288086 -3.29981,2.30078122 -1.89209,0.77197266 -4.3291,0.77197266 -2.37646,0 -4.3291,-0.78710937 -1.9375,-0.78710941 -3.2998,-2.28564451 -1.36231,-1.4985352 -2.10401,-3.6782227 -0.72656,-2.1796875 -0.72656,-4.9799807 0,-2.754883 0.72656,-4.93457 0.72656,-2.194824 2.11914,-3.753906 1.33203,-1.483399 3.29981,-2.270508 1.98291,-0.787109 4.31396,-0.787109 2.42188,0 4.34424,0.802246 1.9375,0.787109 3.28467,2.255371 z m -0.27246,8.688476 q 0,-4.389648 -1.96778,-6.766113 -1.96777,-2.391602 -5.37353,-2.391602 -3.43604,0 -5.40381,2.391602 -1.95264,2.376465 -1.95264,6.766113 0,4.4350588 1.99805,6.796387 1.99805,2.3461914 5.3584,2.3461914 3.36035,0 5.34326,-2.3461914 1.99805,-2.3613282 1.99805,-6.796387 z"
       id="path197" />
    <path
       d="m 272.83633,0 h -3.89013 l -7.53809,-8.9609375 h -4.22314 V 0 h -2.99707 v -22.538574 h 6.31201 q 2.04346,0 3.40576,0.272461 1.3623,0.257324 2.45215,0.938476 1.22607,0.771973 1.90723,1.952637 0.69628,1.165527 0.69628,2.966797 0,2.437012 -1.22607,4.086914 -1.22607,1.634766 -3.37549,2.4672851 z m -7.0083,-16.196289 q 0,-0.96875 -0.34814,-1.710449 -0.33301,-0.756836 -1.12012,-1.271485 -0.65088,-0.438964 -1.54394,-0.605468 -0.89307,-0.181641 -2.10401,-0.181641 h -3.52685 v 8.506836 h 3.02734 q 1.42285,0 2.48242,-0.242188 1.05957,-0.257324 1.80127,-0.938476 0.68115,-0.635742 0.99903,-1.453125 0.333,-0.83252 0.333,-2.104004 z"
       id="path199" />
    <path
       d="M 310.61151,-22.538574 302.40741,0 h -3.99609 l -8.20411,-22.538574 h 3.20899 l 7.06885,19.8291013 7.06884,-19.8291013 z"
       id="path201" />
    <path
       d="m 325.07919,0 h -8.90039 v -2.3007813 h 2.95166 V -20.237793 h -2.95166 v -2.300781 h 8.90039 v 2.300781 h -2.95166 v 17.9370117 h 2.95166 z"
       id="path203" />
    <path
       d="m 349.68848,-6.4331055 q 0,1.3168946 -0.62061,2.6035157 -0.60547,1.286621 -1.71045,2.1796875 -1.21094,0.96874996 -2.83056,1.51367183 -1.6045,0.54492188 -3.875,0.54492188 -2.43702,0 -4.38965,-0.45410157 -1.9375,-0.45410156 -3.95069,-1.34716794 v -3.7539063 h 0.21192 q 1.71045,1.4228516 3.95068,2.1948242 2.24024,0.7719727 4.20801,0.7719727 2.78516,0 4.3291,-1.0444336 1.55908,-1.0444336 1.55908,-2.7851562 0,-1.4985352 -0.7417,-2.209961 -0.72656,-0.7114258 -2.22509,-1.1049805 -1.13526,-0.3027343 -2.46729,-0.4995117 -1.31689,-0.1967775 -2.80029,-0.4995115 -2.99707,-0.635742 -4.4502,-2.164551 -1.43799,-1.543945 -1.43799,-4.01123 0,-2.830567 2.39161,-4.631836 2.3916,-1.816407 6.06982,-1.816407 2.37646,0 4.35937,0.454102 1.98291,0.454102 3.51172,1.120117 v 3.541992 h -0.21191 q -1.28662,-1.089843 -3.39063,-1.801269 -2.08886,-0.726563 -4.28369,-0.726563 -2.40674,0 -3.875,0.999024 -1.45312,0.999023 -1.45312,2.573242 0,1.407715 0.72656,2.209961 0.72656,0.802246 2.55811,1.226074 0.96875,0.211914 2.75488,0.514648 1.78613,0.302735 3.02734,0.620606 2.5127,0.666016 3.78418,2.013184 1.27149,1.3471675 1.27149,3.7690425 z"
       id="path205" />
    <path
       d="m 374.57022,-9.0517578 q 0,2.4521484 -0.54492,4.2836914 -0.52979,1.8164062 -1.75586,3.0273437 -1.16553,1.15039067 -2.72461,1.68017583 -1.55908,0.52978515 -3.63281,0.52978515 -2.11914,0 -3.69336,-0.56005859 -1.57422,-0.5600586 -2.64893,-1.64990239 -1.22607,-1.2412109 -1.77099,-2.9970703 -0.52979,-1.7558593 -0.52979,-4.3139648 V -22.538574 h 2.99707 v 13.6381834 q 0,1.8315429 0.24219,2.8911133 0.25732,1.0595703 0.84766,1.9223632 0.66601,0.9838868 1.80127,1.4833985 1.15039,0.4995117 2.75488,0.4995117 1.61963,0 2.75488,-0.484375 1.13525,-0.4995117 1.81641,-1.4985352 0.59033,-0.8627929 0.83252,-1.9677734 0.25732,-1.1201172 0.25732,-2.7700195 v -13.713867 h 2.99707 z"
       id="path207" />
    <path
       d="m 401.17755,0 h -3.19385 l -2.20996,-6.2817383 H 386.0257 L 383.81573,0 h -3.04248 l 8.20411,-22.538574 h 3.99609 z m -6.32715,-8.8549805 -3.95068,-11.0649415 -3.96582,11.0649415 z"
       id="path209" />
    <path
       d="m 421.95721,0 h -14.25878 v -22.538574 h 2.99707 v 19.8745115 h 11.26171 z"
       id="path211" />
    <path
       d="m 459.45996,-1.6347656 q -0.83252,0.3632812 -1.51367,0.68115232 -0.66602,0.31787109 -1.75586,0.66601562 Q 455.26709,0 454.17725,0.19677734 q -1.07471,0.21191407 -2.37647,0.21191407 -2.45215,0 -4.46533,-0.68115235 Q 445.3374,-0.96875 443.854,-2.4370117 442.40088,-3.875 441.5835,-6.0849609 q -0.81739,-2.2250977 -0.81739,-5.1616211 0,-2.785156 0.78711,-4.97998 0.78711,-2.194825 2.27051,-3.708497 1.43799,-1.468261 3.46631,-2.240234 2.04346,-0.771973 4.52588,-0.771973 1.8164,0 3.61767,0.438965 1.81641,0.438965 4.02637,1.543946 v 3.557128 h -0.22705 q -1.86182,-1.559082 -3.69336,-2.270507 -1.83154,-0.711426 -3.92041,-0.711426 -1.71045,0 -3.08789,0.560058 -1.3623,0.544922 -2.43701,1.71045 -1.04444,1.135254 -1.63477,2.875976 -0.57519,1.725586 -0.57519,3.996094 0,2.3764648 0.63574,4.086914 0.65088,1.7104493 1.66504,2.7851563 1.05957,1.1201172 2.46728,1.665039 1.42286,0.5297852 2.99707,0.5297852 2.16455,0 4.05664,-0.7416992 1.89209,-0.7416992 3.542,-2.2250977 h 0.21191 z"
       id="path213" />
    <path
       d="m 483.63028,-19.950195 q 1.37744,1.513672 2.104,3.708496 0.7417,2.194824 0.7417,4.97998 0,2.7851565 -0.75683,4.9951174 -0.7417,2.1948243 -2.08887,3.663086 -1.39258,1.5288086 -3.29981,2.30078122 -1.89208,0.77197266 -4.3291,0.77197266 -2.37646,0 -4.3291,-0.78710937 -1.9375,-0.78710941 -3.2998,-2.28564451 -1.36231,-1.4985352 -2.10401,-3.6782227 -0.72656,-2.1796875 -0.72656,-4.9799807 0,-2.754883 0.72656,-4.93457 0.72657,-2.194824 2.11914,-3.753906 1.33204,-1.483399 3.29981,-2.270508 1.98291,-0.787109 4.31396,-0.787109 2.42188,0 4.34424,0.802246 1.9375,0.787109 3.28467,2.255371 z m -0.27246,8.688476 q 0,-4.389648 -1.96777,-6.766113 -1.96778,-2.391602 -5.37354,-2.391602 -3.43604,0 -5.40381,2.391602 -1.95264,2.376465 -1.95264,6.766113 0,4.4350588 1.99805,6.796387 1.99805,2.3461914 5.3584,2.3461914 3.36035,0 5.34326,-2.3461914 1.99805,-2.3613282 1.99805,-6.796387 z"
       id="path215" />
    <path
       d="m 513.37091,-11.246582 q 0,3.0727539 -1.34717,5.5703125 -1.33203,2.4975586 -3.55713,3.875 -1.54394,0.95361325 -3.45117,1.37744137 Q 503.12335,0 500.02032,0 h -5.6914 v -22.538574 h 5.63086 q 3.2998,0 5.2373,0.484375 1.95264,0.469238 3.29981,1.301758 2.30078,1.437988 3.5874,3.829589 1.28662,2.391602 1.28662,5.67627 z m -3.1333,-0.04541 q 0,-2.648926 -0.92334,-4.465332 -0.92334,-1.816406 -2.75488,-2.86084 -1.33203,-0.756836 -2.83057,-1.044434 -1.49853,-0.302734 -3.5874,-0.302734 h -2.81543 v 17.3920898 h 2.81543 q 2.16455,0 3.76904,-0.3178711 1.61963,-0.3178711 2.9668,-1.180664 1.68017,-1.0747071 2.51269,-2.8305664 0.84766,-1.7558594 0.84766,-4.3896483 z"
       id="path217" />
    <path
       d="m 536.19403,0 h -14.84912 v -22.538574 h 14.84912 v 2.664062 h -11.85205 v 6.175782 h 11.85205 v 2.664062 h -11.85205 v 8.3706055 h 11.85205 z"
       id="path219" />
    <path
       d="m 566.79443,-8.4916992 h -9.44531 v -2.7397458 h 9.44531 z"
       id="path221" />
    <path
       d="m 215.03609,37.200001 h -17.58887 v -2.785156 l 13.81982,-17.089356 h -13.30517 v -2.664062 h 16.74121 v 2.709472 l -13.95606,17.165039 h 14.28907 z"
       id="path223" />
    <path
       d="m 239.72105,17.249805 q 1.37744,1.513672 2.104,3.708497 0.7417,2.194824 0.7417,4.97998 0,2.785156 -0.75683,4.995117 -0.7417,2.194824 -2.08887,3.663086 -1.39258,1.528809 -3.29981,2.300781 -1.89209,0.771973 -4.3291,0.771973 -2.37646,0 -4.3291,-0.787109 -1.9375,-0.78711 -3.2998,-2.285645 -1.36231,-1.498535 -2.10401,-3.678223 -0.72656,-2.179687 -0.72656,-4.97998 0,-2.754883 0.72656,-4.93457 0.72656,-2.194825 2.11914,-3.753907 1.33203,-1.483398 3.29981,-2.270507 1.98291,-0.78711 4.31396,-0.78711 2.42188,0 4.34424,0.802246 1.9375,0.78711 3.28467,2.255371 z m -0.27246,8.688477 q 0,-4.389648 -1.96778,-6.766113 -1.96777,-2.391602 -5.37353,-2.391602 -3.43604,0 -5.40381,2.391602 -1.95264,2.376465 -1.95264,6.766113 0,4.435059 1.99805,6.796387 1.99805,2.346191 5.3584,2.346191 3.36035,0 5.34326,-2.346191 1.99805,-2.361328 1.99805,-6.796387 z"
       id="path225" />
    <path
       d="m 276.65162,14.661427 -5.85792,22.538574 h -3.37548 l -4.7378,-18.708985 -4.63183,18.708985 h -3.29981 l -5.96386,-22.538574 h 3.07275 l 4.73779,18.739257 4.66211,-18.739257 h 3.04248 l 4.70752,18.920898 4.70752,-18.920898 z"
       id="path227" />
    <path
       d="M 299.00552,37.200001 H 284.1564 V 14.661427 h 14.84912 v 2.664062 h -11.85205 v 6.175781 h 11.85205 v 2.664063 h -11.85205 v 8.370605 h 11.85205 z"
       id="path229" />
    <path
       d="m 338.64253,14.661427 -8.2041,22.538574 h -3.99609 l -8.2041,-22.538574 h 3.20898 l 7.06885,19.829101 7.06885,-19.829101 z"
       id="path231" />
    <path
       d="M 359.83092,37.200001 H 344.5731 v -3.163574 q 1.58936,-1.362305 3.17872,-2.72461 1.60449,-1.362305 2.98193,-2.709472 2.90625,-2.81543 3.98096,-4.465333 1.0747,-1.665039 1.0747,-3.587402 0,-1.755859 -1.16552,-2.739746 -1.15039,-0.999023 -3.22412,-0.999023 -1.37745,0 -2.98194,0.484375 -1.60449,0.484375 -3.1333,1.483398 h -0.15137 v -3.178711 q 1.07471,-0.529785 2.86084,-0.96875 1.80127,-0.438965 3.48145,-0.438965 3.46631,0 5.43408,1.680176 1.96777,1.665039 1.96777,4.525879 0,1.286621 -0.333,2.406738 -0.31787,1.104981 -0.95362,2.104004 -0.59033,0.938477 -1.39258,1.84668 -0.7871,0.908203 -1.92236,2.013183 -1.61963,1.589356 -3.34521,3.087891 -1.72559,1.483398 -3.22412,2.754883 h 12.12451 z"
       id="path233" />
  </g>
</svg>
