<?xml version="1.0" encoding="UTF-8"?>
<svg id="Layer_1" xmlns="http://www.w3.org/2000/svg" version="1.1" viewBox="0 0 669.6 147">
  <!-- Generator: Adobe Illustrator 29.5.0, SVG Export Plug-In . SVG Version: 2.1.0 Build 137)  -->
  <g>
    <path d="M185.24,40.21l17.92-20.67h12.07v55.74h-13.89v-34.8l-15.06,17.48h-2.09l-15.06-17.48v34.8h-13.89V19.54h12.06l17.93,20.67Z"/>
    <path d="M260.18,19.54l24.76,55.74h-14.93l-4.59-11.01h-24.96l-4.16,11.01h-14.71l22.52-55.74h16.09ZM261.35,54.53l-9.04-21.67-8.19,21.67h17.22Z"/>
    <path d="M305.73,19.54v55.74h-13.89V19.54h13.89Z"/>
    <path d="M375.04,19.54v55.74h-11.73l-30.77-35.71v35.71h-13.89V19.54h12.73l29.76,34.08V19.54h13.89Z"/>
    <path d="M425.95,19.54v10.22h-24.5v12.45h24.5v10.22h-24.5v22.86h-13.89V19.54h38.39Z"/>
    <path d="M436.93,19.54h24.9c5.4,0,9.79,1.56,13.17,4.69,3.38,3.12,5.07,6.91,5.07,11.34,0,6.14-3.19,10.69-9.58,13.64,2.8,1.27,5.46,4.7,7.98,10.28,2.52,5.58,4.96,10.85,7.3,15.79h-15.24c-.91-1.84-2.49-5.33-4.75-10.49-2.26-5.16-4.2-8.47-5.8-9.94-1.61-1.46-3.33-2.19-5.17-2.19h-3.99v22.62h-13.89V19.54ZM450.81,29.75v12.69h7.34c2.34,0,4.2-.55,5.57-1.66,1.37-1.1,2.05-2.68,2.05-4.73,0-4.2-2.65-6.3-7.94-6.3h-7.02Z"/>
    <path d="M524.85,19.54l24.76,55.74h-14.93l-4.59-11.01h-24.96l-4.16,11.01h-14.71l22.52-55.74h16.09ZM526.03,54.53l-9.04-21.67-8.19,21.67h17.22Z"/>
    <path d="M586.02,40.21l17.92-20.67h12.07v55.74h-13.89v-34.8l-15.06,17.48h-2.09l-15.06-17.48v34.8h-13.89V19.54h12.06l17.93,20.67Z"/>
    <path d="M669.6,65.07v10.22h-41.1V19.54h40.54v10.22h-26.66v11.69h25.42v10.22h-25.42v13.41h27.21Z"/>
    <path d="M518.98,89.88h5.3l-15.71,37.32h-1.21l-16.02-37.32h5.36l11.18,26.1,11.1-26.1Z"/>
    <path d="M544.41,89.34c5.74,0,10.52,1.82,14.34,5.45,3.82,3.64,5.73,8.19,5.73,13.67s-1.93,10.02-5.78,13.61c-3.85,3.59-8.71,5.39-14.58,5.39s-10.27-1.8-14-5.39c-3.73-3.59-5.6-8.09-5.6-13.5s1.88-10.14,5.64-13.78c3.76-3.63,8.51-5.45,14.25-5.45ZM544.62,94.4c-4.25,0-7.75,1.33-10.48,3.99-2.74,2.66-4.11,6.06-4.11,10.19s1.37,7.34,4.12,10c2.75,2.66,6.18,3.99,10.31,3.99s7.61-1.36,10.38-4.07c2.77-2.71,4.16-6.09,4.16-10.14s-1.39-7.25-4.16-9.94c-2.77-2.69-6.18-4.03-10.22-4.03Z"/>
    <path d="M571.07,89.88h5.32v37.16h-5.32v-37.16Z"/>
    <path d="M616.67,118.42v5.85c-3.9,2.13-8.41,3.19-13.51,3.19-4.15,0-7.67-.83-10.56-2.5-2.89-1.67-5.18-3.96-6.86-6.89-1.69-2.93-2.53-6.09-2.53-9.5,0-5.41,1.93-9.96,5.79-13.65,3.86-3.69,8.61-5.53,14.27-5.53,3.9,0,8.24,1.02,13.01,3.06v5.72c-4.35-2.48-8.59-3.72-12.74-3.72s-7.79,1.34-10.6,4.03c-2.81,2.69-4.22,6.05-4.22,10.1s1.38,7.43,4.15,10.06c2.77,2.62,6.3,3.94,10.61,3.94s8.9-1.38,13.19-4.15Z"/>
    <path d="M623.21,89.88h21.07v4.74h-15.75v11.33h15.22v4.76h-15.22v11.55h16.25v4.74h-21.57v-37.11Z"/>
    <path d="M659.66,111.47l-4.04-2.46c-2.54-1.55-4.34-3.07-5.41-4.57-1.07-1.5-1.61-3.22-1.61-5.17,0-2.93,1.01-5.3,3.05-7.13,2.03-1.83,4.67-2.74,7.91-2.74s5.95.87,8.54,2.61v6.04c-2.68-2.58-5.56-3.86-8.65-3.86-1.74,0-3.17.4-4.28,1.21-1.12.8-1.68,1.83-1.68,3.09,0,1.11.41,2.16,1.23,3.13.82.97,2.15,1.99,3.97,3.06l4.06,2.4c4.53,2.71,6.8,6.15,6.8,10.34,0,2.98-1,5.4-2.99,7.26s-4.59,2.79-7.78,2.79c-3.67,0-7.01-1.13-10.03-3.38v-6.76c2.87,3.64,6.2,5.46,9.98,5.46,1.67,0,3.05-.46,4.16-1.39,1.11-.93,1.66-2.09,1.66-3.49,0-2.26-1.63-4.41-4.89-6.44Z"/>
  </g>
  <path d="M124.32,32.05L71.79,1.72c-3.97-2.3-8.87-2.3-12.85,0L6.43,32.05c-3.97,2.3-6.43,6.54-6.43,11.13v60.65c0,4.59,2.45,8.83,6.43,11.13l52.53,30.33c3.97,2.3,8.87,2.3,12.85,0l52.53-30.33c3.97-2.3,6.43-6.54,6.43-11.13v-60.65c0-4.59-2.45-8.83-6.43-11.12ZM24.03,91.67c0,2.47-2,4.47-4.47,4.47s-4.47-2-4.47-4.47v-31.29c0-2.47,2-4.47,4.47-4.47s4.47,2,4.47,4.47v31.29ZM38.93,85.71c0,2.47-2,4.47-4.47,4.47s-4.47-2-4.47-4.47v-19.37c0-2.47,2-4.47,4.47-4.47s4.47,2,4.47,4.47v19.37ZM54.57,102.1c0,2.47-2,4.47-4.47,4.47s-4.47-2-4.47-4.47v-52.15c0-2.47,2-4.47,4.47-4.47s4.47,2,4.47,4.47v52.15ZM70.22,91.67c0,2.47-2,4.47-4.47,4.47s-4.47-2-4.47-4.47v-32.78c0-2.47,2-4.47,4.47-4.47s4.47,2,4.47,4.47v32.78ZM85.12,103.59c0,2.47-2,4.47-4.47,4.47s-4.47-2-4.47-4.47v-56.62c0-2.47,2-4.47,4.47-4.47s4.47,2,4.47,4.47v56.62ZM100.02,88.69c0,2.47-2,4.47-4.47,4.47s-4.47-2-4.47-4.47v-25.33c0-2.47,2-4.47,4.47-4.47s4.47,2,4.47,4.47v25.33ZM115.67,97.63c0,2.47-2,4.47-4.47,4.47s-4.47-2-4.47-4.47v-44.7c0-2.47,2-4.47,4.47-4.47s4.47,2,4.47,4.47v44.7Z"/>
</svg>