<svg id="Layer_1" data-name="Layer 1" xmlns="http://www.w3.org/2000/svg" xmlns:xlink="http://www.w3.org/1999/xlink" viewBox="0 0 624.23506 469.28291"><defs><style>.cls-1{fill:none;}.cls-2{fill:#488eff;}.cls-3{clip-path:url(#clip-path);}.cls-4{opacity:0.9;}.cls-5{fill:#3274f9;}.cls-6{fill:#fff;}.cls-7{opacity:0.58;}</style><clipPath id="clip-path"><path class="cls-1" d="M75.8124,7.3774H549.12133a63.34553,63.34553,0,0,1,63.34552,63.34553V342.14164h-600V70.72293A63.34553,63.34553,0,0,1,75.81238,7.3774Z"/></clipPath></defs><path class="cls-2" d="M66.07858,400.97513a4.42259,4.42259,0,0,0-3.793,1.84011,8.56486,8.56486,0,0,0-1.34357,5.12957q0,6.84378,5.13661,6.84378a16.23869,16.23869,0,0,0,5.22021-1.07768v3.63894a14.4896,14.4896,0,0,1-5.6261,1.04948A8.57848,8.57848,0,0,1,58.843,415.691q-2.36587-2.7088-2.36486-7.77441a12.698,12.698,0,0,1,1.16128-5.59186,8.40366,8.40366,0,0,1,3.33779-3.68024,9.87284,9.87284,0,0,1,5.10136-1.28113,13.77617,13.77617,0,0,1,5.9907,1.44228l-1.4,3.52614a23.09963,23.09963,0,0,0-2.30946-.95078A6.88094,6.88094,0,0,0,66.07858,400.97513Z"/><path class="cls-2" d="M99.95707,407.8602q0,5.08072-2.52,7.80967-2.51846,2.73-7.22148,2.72946-4.703,0-7.22147-2.72946-2.52-2.72844-2.519-7.83686,0-5.10942,2.526-7.80262,2.526-2.69521,7.24262-2.6942,4.71663,0,7.21443,2.71435Q99.95707,402.76689,99.95707,407.8602Zm-14.93345,0A8.55257,8.55257,0,0,0,86.3249,413.025a4.5537,4.5537,0,0,0,3.89073,1.73537q5.19252,0,5.193-6.90019,0-6.91328-5.16482-6.91327a4.58355,4.58355,0,0,0-3.90483,1.74242A8.50876,8.50876,0,0,0,85.02362,407.8602Z"/><path class="cls-2" d="M118.59291,418.11933l-4.92612-16.05343h-.12589q.26589,4.89942.26589,6.5366v9.51683h-3.87663V397.65748h5.9061l4.84252,15.64754h.08359l5.13662-15.64754h5.90609v20.46185h-4.04483v-9.685q0-.68589.02115-1.58128.02115-.89588.18935-4.75892h-.12589l-5.27662,16.02523Z"/><path class="cls-2" d="M156.82442,404.04a6.255,6.255,0,0,1-2.06471,5.052,8.83044,8.83044,0,0,1-5.87085,1.74947h-1.86127v7.27788h-4.33893V397.65748h6.53559a8.69829,8.69829,0,0,1,5.66135,1.60242A5.84489,5.84489,0,0,1,156.82442,404.04Zm-9.79683,3.24715h1.42717a4.75121,4.75121,0,0,0,2.99536-.79164,2.76757,2.76757,0,0,0,.99307-2.30141,2.8369,2.8369,0,0,0-.83293-2.25407,3.90485,3.90485,0,0,0-2.6096-.72718h-1.97307Z"/><path class="cls-2" d="M170.75875,410.26736v7.852h-4.33893V397.65748h5.96149q4.17124,0,6.173,1.51882a6.05395,6.05395,0,0,1,1.00718,7.82377,6.57683,6.57683,0,0,1-2.81306,2.20371q4.61843,6.9012,6.0179,8.91555H177.952l-4.88482-7.852Zm0-3.52613h1.399a5.35659,5.35659,0,0,0,3.03765-.68589,2.44954,2.44954,0,0,0,.979-2.15536,2.23993,2.23993,0,0,0-1.00013-2.07177,6.08271,6.08271,0,0,0-3.10009-.61539h-1.31538Z"/><path class="cls-2" d="M202.85856,418.11933h-11.784V397.65748h11.784v3.55534h-7.44507v4.492h6.92738v3.55534h-6.92738v5.27662h7.44507Z"/><path class="cls-2" d="M229.62636,418.11933h-4.32483v-8.83095h-8.10275v8.83095h-4.33893V397.65748h4.33893v8.02017h8.10275v-8.02017h4.32483Z"/><path class="cls-2" d="M252.307,418.11933H240.523V397.65748h11.784v3.55534H244.862v4.492h6.92738v3.55534H244.862v5.27662H252.307Z"/><path class="cls-2" d="M280.46172,418.11933h-5.51431L266.046,402.64h-.12589q.26589,4.10175.26589,5.85071v9.62863h-3.87663V397.65748h5.472l8.88735,15.32524h.0977q-.21-3.98844-.20949-5.64021v-9.685h3.90483Z"/><path class="cls-2" d="M303.42238,412.43683a5.28933,5.28933,0,0,1-1.99421,4.36713,8.66479,8.66479,0,0,1-5.54956,1.59537,13.03694,13.03694,0,0,1-5.7943-1.23178v-4.03073a23.88419,23.88419,0,0,0,3.506,1.30127,10.34143,10.34143,0,0,0,2.62471.3787,3.731,3.731,0,0,0,2.18961-.54589,1.86851,1.86851,0,0,0,.76344-1.62357,1.79475,1.79475,0,0,0-.3364-1.07063,3.7555,3.7555,0,0,0-.987-.90344,25.33825,25.33825,0,0,0-2.65191-1.38488,12.57264,12.57264,0,0,1-2.81305-1.69407,6.3475,6.3475,0,0,1-1.49767-1.88947,5.39714,5.39714,0,0,1-.56-2.519,5.28564,5.28564,0,0,1,1.84113-4.26843,7.64882,7.64882,0,0,1,5.08726-1.55408,11.97289,11.97289,0,0,1,3.0437.3787,20.906,20.906,0,0,1,3.0306,1.06358l-1.4,3.37305a20.417,20.417,0,0,0-2.70831-.93769,8.71413,8.71413,0,0,0-2.106-.26589,2.79321,2.79321,0,0,0-1.88947.57308,1.892,1.892,0,0,0-.65768,1.49768,1.85568,1.85568,0,0,0,.26589,1.00113,2.925,2.925,0,0,0,.847.82589,26.21113,26.21113,0,0,0,2.7496,1.43422,10.95248,10.95248,0,0,1,3.933,2.7496A5.37056,5.37056,0,0,1,303.42238,412.43683Z"/><path class="cls-2" d="M312.86469,418.11933V397.65748h4.33893v20.46185Z"/><path class="cls-2" d="M339.75839,397.65748h4.38022L337.183,418.11933h-4.73072l-6.94148-20.46185h4.38023l3.84943,12.1768q.32179,1.07717.66474,2.5119.34295,1.43523.42705,1.99422a35.63072,35.63072,0,0,1,1.04948-4.50612Z"/><path class="cls-2" d="M364.23083,418.11933h-11.784V397.65748h11.784v3.55534h-7.44507v4.492h6.92738v3.55534h-6.92738v5.27662h7.44507Z"/><path class="cls-2" d="M385.68979,412.185v-3.49894h7.51557V412.185Z"/><path class="cls-2" d="M428.88267,418.11933H413.65513v-2.813l9.81093-14.06526h-9.545v-3.58354h14.69575v2.79895l-9.79784,14.08037h10.06373Z"/><path class="cls-2" d="M456.44816,407.8602q0,5.08072-2.52,7.80967-2.51845,2.73-7.22147,2.72946-4.703,0-7.22148-2.72946-2.52-2.72844-2.519-7.83686,0-5.10942,2.526-7.80262,2.526-2.69521,7.24263-2.6942,4.71661,0,7.21442,2.71435Q456.44817,402.76689,456.44816,407.8602Zm-14.93344,0A8.55258,8.55258,0,0,0,442.816,413.025a4.55371,4.55371,0,0,0,3.89074,1.73537q5.19251,0,5.193-6.90019,0-6.91328-5.16481-6.91327a4.58357,4.58357,0,0,0-3.90484,1.74242A8.50876,8.50876,0,0,0,441.51472,407.8602Z"/><path class="cls-2" d="M486.35131,418.11933h-4.94122l-2.77075-10.74862q-.1541-.57408-.52474-2.3719-.37164-1.79933-.427-2.41421-.0846.75538-.42,2.42831-.3354,1.67243-.51769,2.386l-2.75665,10.72041H469.0661l-5.22021-20.46185h4.26843l2.61766,11.16861q.68589,3.094.99308,5.36021.0846-.79769.38575-2.46961.30064-1.67241.566-2.5965l2.98125-11.46271h4.10124l2.98024,11.46271q.19639.77049.4905,2.35075.29308,1.58178.44718,2.71536.1405-1.09079.4482-2.7214.30819-1.63164.56-2.63881l2.60356-11.16861h4.26842Z"/><path class="cls-2" d="M511.64964,418.11933h-11.784V397.65748h11.784v3.55534h-7.44507v4.492H511.132v3.55534h-6.92738v5.27662h7.44507Z"/><path class="cls-2" d="M546.50207,397.65748h4.38023l-6.95558,20.46185H539.196l-6.94148-20.46185h4.38022l3.84944,12.1768q.32179,1.07717.66474,2.5119.34295,1.43523.427,1.99422a35.63254,35.63254,0,0,1,1.04948-4.50612Z"/><path class="cls-2" d="M568.45556,418.11933h-4.32483v-11.8404l.0423-1.94486.0695-2.12817q-1.07718,1.07869-1.49768,1.41408l-2.35075,1.88947-2.08587-2.60356,6.592-5.24841h3.55534Z"/><path class="cls-2" d="M612.46685,342.14164h-600V70.72293A63.34553,63.34553,0,0,1,75.81238,7.3774H549.12133a63.34553,63.34553,0,0,1,63.34552,63.34553"/><path class="cls-2" d="M608.86676,355.91258V459.68294H16.067V355.91258H608.86676m3.60009-3.6h-600V463.28291h600Z"/><g class="cls-3"><g class="cls-4"><path class="cls-5" d="M367.99569-133.6226,1.05426,119.436,254.11282,486.3774,621.05426,233.31883Zm-100.966,456.06735L292.62072,82.31882,167.09185,168.889l13.96241-37.51161L135.761,123.45856,327.92379-9.06533,355.07727,30.308l-25.589,240.12455,129.5664-89.35461L490.387,226.51039,294.18454,361.82Z"/></g></g><polygon class="cls-6" points="154.835 110.59 154.837 110.591 154.836 110.59 154.835 110.59"/><path class="cls-1" d="M392.64242,66.95147a1.61834,1.61834,0,0,0,.65225-1.44775V65.4574a1.6215,1.6215,0,0,0-.74008-1.5356,4.731,4.731,0,0,0-2.36365-.44867h-1.013v3.87149h1.0315A5.41649,5.41649,0,0,0,392.64242,66.95147Z"/><path class="cls-1" d="M484.69488,66.80349a2.72575,2.72575,0,0,0,.31912-3.83913l-.333-.333a4.63388,4.63388,0,0,0-2.82618-.754h-2.36355v5.66622h2.39136A4.66023,4.66023,0,0,0,484.69488,66.80349Z"/><path class="cls-1" d="M472.40225,66.90524a2.89729,2.89729,0,0,0,.20944-4.09206v0l-.00134-.00148a.26219.26219,0,0,1-.03241-.037l-.1434-.15728a4.01275,4.01275,0,0,0-2.64115-.78166l-2.82611.04159v5.79575H469.65A4.20062,4.20062,0,0,0,472.40225,66.90524Z"/><path class="cls-1" d="M347.34393,128.401c-11.02579,0-17.61566,8.49087-17.61566,18.50256v.253c0,10.01167,7.22378,18.75625,17.86938,18.75625,11.02506,0,17.61493-8.49087,17.61493-18.50255v-.2537C365.21255,137.1452,357.9888,128.401,347.34393,128.401Z"/><polygon class="cls-1" points="409.932 64.589 407.568 70.385 412.282 70.385 409.932 64.589"/><path class="cls-1" d="M255.81431,67.84834a3.273,3.273,0,0,0,.17577-4.62082.67389.67389,0,0,0-.1619-.1619,4.32062,4.32062,0,0,0-2.89552-.88344h-3.2054v6.52191H252.743A4.83819,4.83819,0,0,0,255.81431,67.84834Z"/><path class="cls-1" d="M531.48254,127.2604c-7.98419,0-13.17975,5.70263-14.70056,14.44721h29.02093C544.66229,133.08988,539.59326,127.2604,531.48254,127.2604Z"/><polygon class="cls-1" points="327.444 64.589 325.071 70.385 329.794 70.385 327.444 64.589"/><path class="cls-1" d="M231.75593,74.32768a7.36938,7.36938,0,0,0,10.21764,0,7.24578,7.24578,0,0,0,0-10.14359,7.37219,7.37219,0,0,0-10.21764,0,7.1551,7.1551,0,0,0-.02475,10.11878l.00627.00627Z"/><path class="cls-1" d="M503.50653,72.72034a6.46631,6.46631,0,0,0,0-9.07511,6.56,6.56,0,0,0-9.14456,0,6.40693,6.40693,0,0,0-.00052,9.06073l.00052.00049a6.2556,6.2556,0,0,0,4.57928,1.84095v.01387A6.20627,6.20627,0,0,0,503.50653,72.72034Z"/><path class="cls-6" d="M466.9674,68.6444h2.75214a5.38206,5.38206,0,0,0,3.60785-1.04071,3.52066,3.52066,0,0,0,1.22113-2.82613,3.40663,3.40663,0,0,0-1.22113-2.79841,5.18585,5.18585,0,0,0-3.48761-1.03147h-3.98715V75.41606h1.11477Zm0-6.76706,2.82615-.0416a4.01288,4.01288,0,0,1,2.64111.78166l.1434.15728a.26107.26107,0,0,0,.03241.037,2.89728,2.89728,0,0,1-.2066,4.09216l-.00006.00005-.00147.00134a4.20047,4.20047,0,0,1-2.75217.76785h-2.68271Z"/><path class="cls-6" d="M479.44958,68.501h1.9982a3.6483,3.6483,0,0,1,2.05832.49488,9.42008,9.42008,0,0,1,1.95651,2.47924l2.52091,3.94089h1.33673l-3.27481-5.00014a6.69461,6.69461,0,0,0-1.92881-2.2202,3.59371,3.59371,0,0,0,2.75211-3.5061,3.33955,3.33955,0,0,0-1.23035-2.72436,5.48665,5.48665,0,0,0-3.56622-1.01761H478.3764l-.0416,14.49616h1.11472Zm.04163-6.6237h2.36355a4.63394,4.63394,0,0,1,2.82618.754l.333.333a2.72575,2.72575,0,0,1-.31912,3.83913,4.66026,4.66026,0,0,1-2.81229.74008h-2.39126Z"/><path class="cls-6" d="M504.376,73.44189l.17582-.185c.02777-.03238.05548-.06011.08325-.08784a7.2496,7.2496,0,0,0-.25812-10.24918l-.00092-.00085a7.91223,7.91223,0,0,0-10.85589,0l-.14337.148-.00925.00464a7.33878,7.33878,0,0,0,.15259,10.37022A7.90594,7.90594,0,0,0,504.376,73.44189ZM494.362,72.70645a6.407,6.407,0,0,1-.00052-9.06073l.00052-.00049a6.56,6.56,0,0,1,9.14456,0,6.46629,6.46629,0,0,1,0,9.07509,6.2062,6.2062,0,0,1-4.56534,1.84093V74.5474a6.2556,6.2556,0,0,1-4.57919-1.84095Z"/><path class="cls-6" d="M509.20324,79.63585a2.89935,2.89935,0,0,0,2.13239-.91584,4.69033,4.69033,0,0,0,.89737-3.2748V60.949h-1.11475V75.7644c0,1.94268-.666,2.90012-2.03052,2.90012a3.4753,3.4753,0,0,1-.65225-.074l.10181,1.04538Q508.87035,79.64966,509.20324,79.63585Z"/><polygon class="cls-6" points="525.218 74.474 518.294 74.474 518.294 68.604 524.885 68.604 524.885 67.66 518.294 67.66 518.294 61.878 525.061 61.878 525.061 60.949 517.175 60.949 517.175 75.413 525.218 75.413 525.218 74.474"/><path class="cls-6" d="M541.27984,61.9791v.00253c.01966.00941.04047.01572.06006.02523Z"/><path class="cls-6" d="M536.30743,75.61958a10.74687,10.74687,0,0,0,5.11578-1.35064V73.11257a10.927,10.927,0,0,1-5.14349,1.44776,6.3813,6.3813,0,0,1-4.6532-1.7854,6.13291,6.13291,0,0,1-1.81317-4.607,6.20854,6.20854,0,0,1,1.81317-4.57917,6.07642,6.07642,0,0,1,4.49127-1.84093,11.06828,11.06828,0,0,1,5.16205,1.44771V61.98163a12.15069,12.15069,0,0,0-5.02789-1.19125,7.5457,7.5457,0,0,0-5.35162,2.13233.53186.53186,0,0,1-.10181.10176l-.0044.00463h-.00024a7.40644,7.40644,0,0,0,.00464,10.472A7.58223,7.58223,0,0,0,536.30743,75.61958Z"/><polygon class="cls-6" points="549.119 75.413 550.252 75.413 550.252 61.878 555.673 61.878 555.673 60.949 543.684 60.949 543.684 61.878 549.119 61.878 549.119 75.413"/><polygon class="cls-6" points="315.518 76.429 315.518 60.401 311.124 60.401 306.184 66.415 301.258 60.401 296.877 60.401 296.877 76.429 301.572 76.429 301.572 67.14 305.939 72.516 306.327 72.516 310.675 67.14 310.675 76.429 315.518 76.429"/><path class="cls-6" d="M323.93826,73.18382H330.895l1.31824,3.24709h4.94461L330.15957,60.3991h-5.40716l-7.09082,16.03181h4.94467Zm3.50619-8.59407,2.3498,5.79565h-4.72266Z"/><rect class="cls-6" x="339.30407" y="60.40227" width="4.82437" height="16.02716"/><polygon class="cls-6" points="352.971 67.501 361.288 76.429 365.58 76.429 365.58 60.401 360.765 60.401 360.765 69.282 352.476 60.401 348.188 60.401 348.188 76.429 352.971 76.429 352.971 67.501"/><polygon class="cls-6" points="374.438 69.936 381.089 69.936 381.089 66.721 374.438 66.721 374.438 63.617 381.089 63.617 381.089 60.398 369.609 60.398 369.609 76.429 374.438 76.429 374.438 69.936"/><path class="cls-6" d="M391.079,70.328a2.68931,2.68931,0,0,1,1.08236.92509,12.417,12.417,0,0,1,1.24884,2.28027l1.25812,2.89553h5.18976l-1.57727-3.506a12.79061,12.79061,0,0,0-1.42-2.47925,4.449,4.449,0,0,0-1.27662-1.07309,10.99621,10.99621,0,0,0,1.17484-.72621,3.75933,3.75933,0,0,0,.98523-1.21643,4.07664,4.07664,0,0,0,.46255-2.05832,5.06537,5.06537,0,0,0-.55047-2.20169,4.86755,4.86755,0,0,0-1.84091-1.95662,5.92527,5.92527,0,0,0-3.26093-.80944h-8.21939V76.3874H389.178V70.12456h.53657A3.92675,3.92675,0,0,1,391.079,70.328Zm-1.9011-6.85489h1.013a4.73094,4.73094,0,0,1,2.36365.44868,1.62148,1.62148,0,0,1,.74008,1.53559v.04631a1.61835,1.61835,0,0,1-.65225,1.44776,5.41663,5.41663,0,0,1-2.433.39317h-1.0315Z"/><path class="cls-6" d="M406.44015,73.18382h6.95664l1.30435,3.24709h4.94461L412.5827,60.3991h-5.347l-7.08612,16.03181h4.9585Zm3.49222-8.59407,2.34973,5.79565h-4.71329Z"/><polygon class="cls-6" points="426.468 67.14 430.849 72.516 431.223 72.516 435.59 67.14 435.59 76.429 440.414 76.429 440.414 60.401 436.038 60.401 431.08 66.415 426.168 60.401 421.773 60.401 421.773 76.429 426.468 76.429 426.468 67.14"/><polygon class="cls-6" points="456.546 73.196 449.298 73.196 449.298 69.777 456.024 69.777 456.024 66.544 449.298 66.544 449.298 63.616 456.343 63.616 456.343 60.401 444.46 60.401 444.46 76.429 456.546 76.429 456.546 73.196"/><path class="cls-6" d="M242.94488,75.13712l.20352-.19889a.14185.14185,0,0,1,.037-.037,8.17584,8.17584,0,0,0-.24053-11.559A8.30717,8.30717,0,0,0,236.8717,60.937v.04163a8.34415,8.34415,0,0,0-6.0455,2.40523l-.15723.1619a8.2013,8.2013,0,0,0,.15723,11.59135A8.83812,8.83812,0,0,0,242.94488,75.13712Zm-11.189-10.953a7.37217,7.37217,0,0,1,10.21764,0,7.24577,7.24577,0,0,1,0,10.14358,7.36936,7.36936,0,0,1-10.21764,0l-.01848-.01852a7.15507,7.15507,0,0,1,.01221-10.11879h0l.00629-.00626Z"/><path class="cls-6" d="M249.65326,69.7494H252.743a6.06388,6.06388,0,0,0,4.01494-1.17484,4.22661,4.22661,0,0,0,.08783-6.29063,5.99456,5.99456,0,0,0-3.91313-1.14712h-4.45426L248.409,77.27039h1.2443Zm.074-7.56722h3.20541a4.32062,4.32062,0,0,1,2.89553.88344.67357.67357,0,0,1,.16191.1619,3.273,3.273,0,0,1-.17577,4.62081,4.83817,4.83817,0,0,1-3.07133.85573h-3.01576Z"/><polygon class="cls-6" points="269.6 76.255 261.843 76.255 261.843 69.691 269.211 69.691 269.211 68.646 261.843 68.646 261.843 62.184 269.41 62.184 269.41 61.139 260.599 61.139 260.599 77.3 269.6 77.3 269.6 76.255"/><polygon class="cls-6" points="273.414 63.164 285.686 77.3 286.717 77.3 286.717 61.139 285.468 61.139 285.468 75.255 273.224 61.139 272.166 61.139 272.166 77.3 273.414 77.3 273.414 63.164"/><polygon class="cls-6" points="228.344 109.391 275.614 109.391 226.823 166.166 226.823 180.993 300.707 180.993 300.707 163.885 251.916 163.885 300.707 107.11 300.707 92.283 228.344 92.283 228.344 109.391"/><path class="cls-6" d="M347.59762,111.79939c-21.16394,0-36.87863,15.84118-36.87863,35.35709v.25371c0,19.51668,15.58746,35.10411,36.62491,35.10411,21.16394,0,36.87787-15.84116,36.87787-35.35782v-.253C384.22183,127.38688,368.63433,111.79939,347.59762,111.79939Zm17.61493,35.61081c0,10.01168-6.5899,18.50255-17.61493,18.50255-10.6456,0-17.86938-8.74458-17.86938-18.75625v-.253c0-10.01167,6.5899-18.50255,17.61566-18.50255,10.64484,0,17.86865,8.74422,17.86865,18.75553Z"/><polygon class="cls-6" points="462.287 154.38 449.361 112.813 432.759 112.813 419.96 154.253 409.061 113.066 389.544 113.066 410.455 181.5 427.69 181.5 440.996 139.806 454.049 181.5 471.411 181.5 492.576 113.066 473.439 113.066 462.287 154.38"/><path class="cls-6" d="M564.55914,148.67732c0-19.26258-10.39185-36.87789-33.0766-36.87789-19.76965,0-33.58331,15.96766-33.58331,35.3571v.2537c0,20.78376,15.08075,35.10411,35.48431,35.10411,12.29285,0,21.41693-4.81611,27.75385-12.67308l-11.02582-9.758c-5.32282,4.9426-10.01166,6.97008-16.47437,6.97008-8.6181,0-14.70129-4.5624-16.60156-13.307h47.26978C564.43194,151.97261,564.55914,150.19812,564.55914,148.67732ZM516.782,141.7076c1.52081-8.74459,6.7164-14.44721,14.70053-14.44721,8.11066,0,13.17975,5.82949,14.32037,14.44721Z"/><path class="cls-6" d="M141.95956,51.3774l-90.9053,62.6922,62.6922,90.9053,90.9053-62.69221ZM116.94645,164.36257l6.33988-59.48829L92.18807,126.321l-7.76181-11.25485,47.606-32.83119,6.727,9.75425-6.33936,59.488,32.09849-22.13653,7.76221,11.25537-48.60679,33.5213Z"/><path class="cls-6" d="M138.32622,224.23923a9.20124,9.20124,0,0,0-7.56836,3.41113q-2.75683,3.41016-2.75683,9.41308,0,6.28419,2.65137,9.50782,2.65136,3.22265,7.67382,3.22363a20.15557,20.15557,0,0,0,4.2041-.43262q2.0332-.43212,4.22852-1.10937V253.042a25.64876,25.64876,0,0,1-9.11035,1.51758q-7.49853,0-11.51563-4.543-4.01806-4.54248-4.01855-12.999a20.99657,20.99657,0,0,1,1.95117-9.32032,13.91309,13.91309,0,0,1,5.64063-6.12011,17.06675,17.06675,0,0,1,8.667-2.126,21.51893,21.51893,0,0,1,9.66992,2.19531l-2.00879,4.64844a30.10623,30.10623,0,0,0-3.65527-1.43652A13.19011,13.19011,0,0,0,138.32622,224.23923Z"/><path class="cls-6" d="M189.22075,236.97067q0,8.33935-4.16894,12.96387-4.17041,4.626-11.80859,4.625-7.73145,0-11.87793-4.58985-4.147-4.58936-4.14649-13.04589,0-8.45655,4.16992-12.98829,4.169-4.53075,11.90137-4.53125,7.61573,0,11.77344,4.60157Q189.22075,228.60837,189.22075,236.97067Zm-26.06835,0q0,6.30615,2.54589,9.56543,2.54591,3.25782,7.54493,3.25879,4.97607,0,7.51074-3.22363,2.53418-3.22413,2.53418-9.60059,0-6.28418-2.51172-9.53125-2.51075-3.24609-7.48633-3.24609-5.02294,0-7.58008,3.24609Q163.15239,230.687,163.1524,236.97067Z"/><path class="cls-6" d="M229.79107,254.09274h-6.84473l-16.79492-27.21387h-.18652l.11621,1.51856q.32665,4.34472.32714,7.94238v17.75293H201.3399V219.94137h6.77343l16.749,27.07325h.13964q-.04687-.53615-.18652-3.91211-.14062-3.375-.14062-5.26758V219.94137h5.11621Z"/><path class="cls-6" d="M249.128,254.09274h-5.53613V219.94137h19.27051v4.71875H249.128v10.67481H261.9981v4.74219H249.128Z"/><path class="cls-6" d="M304.15728,236.97067q0,8.33935-4.16895,12.96387-4.17041,4.626-11.80859,4.625-7.73145,0-11.87793-4.58985-4.147-4.58936-4.14649-13.04589,0-8.45655,4.16993-12.98829,4.16894-4.53075,11.90136-4.53125,7.61573,0,11.77344,4.60157Q304.15729,228.60837,304.15728,236.97067Zm-26.06836,0q0,6.30615,2.5459,9.56543,2.54589,3.25782,7.54492,3.25879,4.97607,0,7.51074-3.22363,2.53418-3.22413,2.53418-9.60059,0-6.28418-2.51172-9.53125-2.51075-3.24609-7.48633-3.24609-5.02294,0-7.58007,3.24609Q278.08892,230.687,278.08892,236.97067Z"/><path class="cls-6" d="M321.85845,240.45114v13.6416h-5.582V219.94137h9.64648q6.61084,0,9.78809,2.47657,3.17578,2.47559,3.17676,7.47461,0,6.37645-6.63379,9.08691l9.64746,15.11328h-6.35449l-8.17578-13.6416Zm0-4.625h3.87793q3.90089,0,5.65332-1.44824a5.25583,5.25583,0,0,0,1.752-4.29883,4.62461,4.62461,0,0,0-1.89258-4.15723,10.3746,10.3746,0,0,0-5.69921-1.26172h-3.69141Z"/><path class="cls-6" d="M366.40044,254.09274l-9.90429-28.52148h-.1875q.397,6.35448.39746,11.91308v16.6084h-5.06836V219.94137h7.87207l9.4834,27.167h.13964l9.76465-27.167H386.793v34.15137H381.42V237.20407q0-2.54591.12891-6.63379.12744-4.08838.22168-4.95215H381.584l-10.25489,28.47461Z"/><path class="cls-6" d="M421.75689,254.09274l-3.41016-9.4834H405.28814l-3.33985,9.4834h-5.88672l12.77735-34.291h6.07324l12.77734,34.291Zm-4.88184-14.2959L413.67486,230.5q-.35157-.93457-.96973-2.94336-.61964-2.00831-.85254-2.94336a52.44342,52.44342,0,0,1-1.8457,6.28418l-3.083,8.89941Z"/><path class="cls-6" d="M465.43462,254.09274H458.5899L441.795,226.87887h-.18652l.11621,1.51856q.32666,4.34472.32715,7.94238v17.75293h-5.06836V219.94137h6.77344l16.749,27.07325h.13965q-.04687-.53615-.18652-3.91211-.14062-3.375-.14063-5.26758V219.94137h5.11621Z"/><path class="cls-6" d="M491.0313,254.09274h-5.583v-29.3623H475.40435v-4.78907h25.67187v4.78907H491.0313Z"/><g class="cls-7"><rect class="cls-6" x="36.17005" y="277.63619" width="553.53213" height="43.5348"/></g><path class="cls-5" d="M120.42583,303.15036a5.19958,5.19958,0,0,1-1.96093,4.29394,8.52125,8.52125,0,0,1-5.457,1.56934,12.81162,12.81162,0,0,1-5.69726-1.21094v-3.96387a23.513,23.513,0,0,0,3.44726,1.28028,10.22955,10.22955,0,0,0,2.58008.37109,3.67225,3.67225,0,0,0,2.1543-.53613,1.83749,1.83749,0,0,0,.75-1.59668,1.76557,1.76557,0,0,0-.33008-1.05273,3.69611,3.69611,0,0,0-.9707-.8877,25.07822,25.07822,0,0,0-2.60742-1.3623,12.32951,12.32951,0,0,1-2.76661-1.666,6.23861,6.23861,0,0,1-1.47265-1.85742,5.30166,5.30166,0,0,1-.55078-2.47754,5.20178,5.20178,0,0,1,1.80957-4.19727,7.52047,7.52047,0,0,1,5.00293-1.52734,11.79585,11.79585,0,0,1,2.99316.37109,20.60424,20.60424,0,0,1,2.97949,1.0459l-1.376,3.31641a20.17306,20.17306,0,0,0-2.66309-.92188,8.60029,8.60029,0,0,0-2.07129-.26172,2.74091,2.74091,0,0,0-1.85742.56446,1.86182,1.86182,0,0,0-.64746,1.47265,1.82735,1.82735,0,0,0,.26172.98438,2.8538,2.8538,0,0,0,.833.81152,25.53627,25.53627,0,0,0,2.7041,1.41113,10.76823,10.76823,0,0,1,3.86718,2.70411A5.27709,5.27709,0,0,1,120.42583,303.15036Z"/><path class="cls-5" d="M148.90532,288.61716v13.01953a7.505,7.505,0,0,1-.99707,3.9082,6.49877,6.49877,0,0,1-2.88378,2.57422,10.30579,10.30579,0,0,1-4.459.89453,8.5345,8.5345,0,0,1-6.02734-1.98926,7.05173,7.05173,0,0,1-2.14746-5.44238V288.61716h4.25293v12.31738a5.1578,5.1578,0,0,0,.93554,3.41308,3.8886,3.8886,0,0,0,3.09668,1.08789,3.802,3.802,0,0,0,3.03418-1.09472,5.18215,5.18215,0,0,0,.94336-3.4336v-12.29Z"/><path class="cls-5" d="M176.18853,294.89352a6.14813,6.14813,0,0,1-2.03028,4.96778,8.67842,8.67842,0,0,1-5.77343,1.7207h-1.83008v7.15625h-4.2666V288.61716h6.42676a8.55028,8.55028,0,0,1,5.56738,1.57617A5.74708,5.74708,0,0,1,176.18853,294.89352Zm-9.63379,3.19239h1.40332a4.67337,4.67337,0,0,0,2.94531-.77735,2.72235,2.72235,0,0,0,.97754-2.26367,2.79014,2.79014,0,0,0-.81934-2.21582,3.83388,3.83388,0,0,0-2.5664-.71582h-1.94043Z"/><path class="cls-5" d="M202.34282,294.89352a6.14812,6.14812,0,0,1-2.03027,4.96778,8.67843,8.67843,0,0,1-5.77344,1.7207H192.709v7.15625h-4.26661V288.61716h6.42676a8.55024,8.55024,0,0,1,5.56738,1.57617A5.74708,5.74708,0,0,1,202.34282,294.89352Zm-9.63378,3.19239h1.40332a4.67337,4.67337,0,0,0,2.94531-.77735,2.72235,2.72235,0,0,0,.97754-2.26367,2.79014,2.79014,0,0,0-.81934-2.21582,3.83391,3.83391,0,0,0-2.5664-.71582H192.709Z"/><path class="cls-5" d="M232.85943,298.65036q0,4.99512-2.47754,7.67969-2.47705,2.68359-7.10059,2.68359-4.62452,0-7.10156-2.68359t-2.47754-7.707q0-5.02295,2.48437-7.67285,2.48438-2.64843,7.12208-2.64941,4.63769,0,7.09472,2.66992Q232.85992,293.64108,232.85943,298.65036Zm-14.68457,0a8.40193,8.40193,0,0,0,1.28027,5.07812,4.47829,4.47829,0,0,0,3.82617,1.707q5.105,0,5.10547-6.78515,0-6.79834-5.07812-6.79883a4.50726,4.50726,0,0,0-3.83985,1.71387A8.36966,8.36966,0,0,0,218.17486,298.65036Z"/><path class="cls-5" d="M249.751,301.01755v7.7207h-4.2666V288.61716h5.86328q4.1001,0,6.06836,1.49414a5.95066,5.95066,0,0,1,.99121,7.69238,6.46092,6.46092,0,0,1-2.7666,2.168q4.54248,6.78514,5.918,8.7666h-4.73438l-4.80273-7.7207Zm0-3.46778h1.376a5.26019,5.26019,0,0,0,2.98633-.6748,2.40626,2.40626,0,0,0,.96387-2.11914,2.20264,2.20264,0,0,0-.98438-2.03711,5.97592,5.97592,0,0,0-3.04882-.60547h-1.293Z"/><path class="cls-5" d="M280.30865,308.73825H276.043V292.16794h-5.46387v-3.55078h15.19336v3.55078h-5.46386Z"/><path class="cls-5" d="M327.002,294.89352a6.14812,6.14812,0,0,1-2.03027,4.96778,8.67843,8.67843,0,0,1-5.77344,1.7207h-1.83007v7.15625h-4.26661V288.61716h6.42676a8.55024,8.55024,0,0,1,5.56738,1.57617A5.74708,5.74708,0,0,1,327.002,294.89352Zm-9.63378,3.19239h1.40332a4.67337,4.67337,0,0,0,2.94531-.77735,2.72235,2.72235,0,0,0,.97754-2.26367,2.79014,2.79014,0,0,0-.81934-2.21582,3.83391,3.83391,0,0,0-2.5664-.71582h-1.94043Z"/><path class="cls-5" d="M343.52251,301.01755v7.7207h-4.2666V288.61716h5.86328q4.1001,0,6.06836,1.49414a5.95066,5.95066,0,0,1,.99121,7.69238,6.46086,6.46086,0,0,1-2.7666,2.168q4.54248,6.78514,5.918,8.7666h-4.73438l-4.80273-7.7207Zm0-3.46778h1.376a5.26021,5.26021,0,0,0,2.98633-.6748,2.40625,2.40625,0,0,0,.96386-2.11914,2.20264,2.20264,0,0,0-.98437-2.03711,5.976,5.976,0,0,0-3.04883-.60547h-1.293Z"/><path class="cls-5" d="M384.58111,298.65036q0,4.99512-2.47754,7.67969-2.47705,2.68359-7.10059,2.68359-4.62451,0-7.10156-2.68359t-2.47754-7.707q0-5.02295,2.48437-7.67285,2.48438-2.64843,7.12207-2.64941,4.6377,0,7.09473,2.66992Q384.5816,293.64108,384.58111,298.65036Zm-14.68457,0a8.40193,8.40193,0,0,0,1.28027,5.07812,4.47828,4.47828,0,0,0,3.82617,1.707q5.105,0,5.10547-6.78515,0-6.79834-5.07813-6.79883a4.50726,4.50726,0,0,0-3.83984,1.71387A8.36966,8.36966,0,0,0,369.89654,298.65036Z"/><path class="cls-5" d="M408.68462,288.61716h4.30762l-6.83984,20.12109H401.501l-6.82617-20.12109h4.30761l3.78418,11.97363q.31788,1.06054.6543,2.4707.33691,1.41064.41992,1.96094a35.08435,35.08435,0,0,1,1.03223-4.43164Z"/><path class="cls-5" d="M423.97954,308.73825V288.61716h4.26661v20.12109Z"/><path class="cls-5" d="M458.46,298.48532q0,4.96875-2.82812,7.61035-2.82716,2.64258-8.168,2.64258h-5.69727V288.61716H448.084q4.92627,0,7.65136,2.60156A9.56894,9.56894,0,0,1,458.46,298.48532Zm-4.43066.11035q0-6.48193-5.72559-6.48242h-2.27051v13.10156h1.83008Q454.02886,305.21481,454.02935,298.59567Z"/><path class="cls-5" d="M482.67388,308.73825H471.086V288.61716h11.58789v3.49609h-7.32129v4.418h6.8125v3.49511h-6.8125v5.18848h7.32129Z"/><path class="cls-5" d="M499.5938,301.01755v7.7207h-4.2666V288.61716h5.86328q4.1001,0,6.06836,1.49414a5.95066,5.95066,0,0,1,.99121,7.69238,6.46092,6.46092,0,0,1-2.7666,2.168q4.54248,6.78514,5.918,8.7666H506.667l-4.80273-7.7207Zm0-3.46778h1.376a5.26021,5.26021,0,0,0,2.98633-.6748,2.40628,2.40628,0,0,0,.96386-2.11914,2.20264,2.20264,0,0,0-.98437-2.03711,5.976,5.976,0,0,0-3.04883-.60547h-1.293Z"/></svg>