<?xml version="1.0" encoding="UTF-8" standalone="no"?>
<svg
   xmlns:dc="http://purl.org/dc/elements/1.1/"
   xmlns:cc="http://creativecommons.org/ns#"
   xmlns:rdf="http://www.w3.org/1999/02/22-rdf-syntax-ns#"
   xmlns:svg="http://www.w3.org/2000/svg"
   xmlns="http://www.w3.org/2000/svg"
   xmlns:sodipodi="http://sodipodi.sourceforge.net/DTD/sodipodi-0.dtd"
   xmlns:inkscape="http://www.inkscape.org/namespaces/inkscape"
   inkscape:version="1.0beta1 (fe3e306, 2019-09-17)"
   sodipodi:docname="lf_mem_asso.svg"
   viewBox="0 0 474.66666 229.33333"
   height="229.33333"
   width="474.66666"
   xml:space="preserve"
   id="svg545"
   version="1.1">
  <metadata
     id="metadata551">
    <rdf:RDF>
      <cc:Work
         rdf:about="">
        <dc:format>image/svg+xml</dc:format>
        <dc:type
           rdf:resource="http://purl.org/dc/dcmitype/StillImage" />
        <dc:title></dc:title>
      </cc:Work>
    </rdf:RDF>
  </metadata>
  <defs
     id="defs549">
    <clipPath
       id="clipPath581"
       clipPathUnits="userSpaceOnUse">
      <path
         inkscape:connector-curvature="0"
         id="path579"
         d="M 0,172 H 356 V 0 H 0 Z" />
    </clipPath>
  </defs>
  <sodipodi:namedview
     inkscape:current-layer="g553"
     inkscape:window-maximized="0"
     inkscape:window-y="23"
     inkscape:window-x="57"
     inkscape:cy="114.66666"
     inkscape:cx="108.1287"
     inkscape:zoom="1.0912922"
     showgrid="false"
     id="namedview547"
     inkscape:window-height="480"
     inkscape:window-width="870"
     inkscape:pageshadow="2"
     inkscape:pageopacity="0"
     guidetolerance="10"
     gridtolerance="10"
     objecttolerance="10"
     borderopacity="1"
     inkscape:document-rotation="0"
     bordercolor="#666666"
     pagecolor="#ffffff" />
  <g
     transform="matrix(1.3333333,0,0,-1.3333333,0,229.33333)"
     inkscape:label="lf_mem_asso"
     inkscape:groupmode="layer"
     id="g553">
    <g
       transform="translate(6.2728,41.2331)"
       id="g555">
      <path
         inkscape:connector-curvature="0"
         id="path557"
         style="fill:none;stroke:#0d3a63;stroke-width:1;stroke-linecap:butt;stroke-linejoin:miter;stroke-miterlimit:10;stroke-dasharray:none;stroke-opacity:1"
         d="M 0,0 H 341.33" />
    </g>
    <g
       transform="translate(137.9857,164.4089)"
       id="g559">
      <path
         inkscape:connector-curvature="0"
         id="path561"
         style="fill:#00325d;fill-opacity:1;fill-rule:nonzero;stroke:none"
         d="M 0,0 H 19.778 V -2.026 H 11.076 V -24.95 H 8.701 V -2.026 H 0 Z" />
    </g>
    <g
       transform="translate(160.1087,164.4089)"
       id="g563">
      <path
         inkscape:connector-curvature="0"
         id="path565"
         style="fill:#00325d;fill-opacity:1;fill-rule:nonzero;stroke:none"
         d="M 0,0 H 2.376 V -10.833 H 17.192 V 0 h 2.376 v -24.95 h -2.376 v 12.091 H 2.376 V -24.95 H 0 Z" />
    </g>
    <g
       transform="translate(184.7132,164.4089)"
       id="g567">
      <path
         inkscape:connector-curvature="0"
         id="path569"
         style="fill:#00325d;fill-opacity:1;fill-rule:nonzero;stroke:none"
         d="M 0,0 H 17.229 V -2.026 H 2.377 v -9.017 h 13.908 v -2.026 H 2.377 v -9.855 H 17.403 V -24.95 H 0 Z" />
    </g>
    <g
       transform="translate(137.9857,77.5387)"
       id="g571">
      <path
         inkscape:connector-curvature="0"
         id="path573"
         style="fill:#00325d;fill-opacity:1;fill-rule:nonzero;stroke:none"
         d="M 0,0 H 15.829 V -2.027 H 2.375 v -9.016 H 14.326 V -13.07 H 2.375 V -24.951 H 0 Z" />
    </g>
    <g
       id="g575">
      <g
         clip-path="url(#clipPath581)"
         id="g577">
        <g
           transform="translate(167.2015,54.0905)"
           id="g583">
          <path
             inkscape:connector-curvature="0"
             id="path585"
             style="fill:#00325d;fill-opacity:1;fill-rule:nonzero;stroke:none"
             d="m 0,0 c 6.569,0 9.365,5.521 9.365,10.973 0,5.451 -2.796,10.972 -9.365,10.972 -6.604,0 -9.4,-5.521 -9.4,-10.972 C -9.4,5.521 -6.604,0 0,0 m 0,23.972 c 7.827,0 11.741,-6.151 11.741,-12.999 0,-6.85 -3.914,-13 -11.741,-13 -7.863,0 -11.776,6.15 -11.776,13 0,6.848 3.913,12.999 11.776,12.999" />
        </g>
        <g
           transform="translate(182.4075,77.5387)"
           id="g587">
          <path
             inkscape:connector-curvature="0"
             id="path589"
             style="fill:#00325d;fill-opacity:1;fill-rule:nonzero;stroke:none"
             d="m 0,0 h 2.376 v -15.446 c 0,-5.766 2.69,-8.002 7.304,-8.002 4.647,0 7.338,2.236 7.338,8.002 V 0 h 2.376 v -15.971 c 0,-5.136 -2.76,-9.505 -9.714,-9.505 -6.884,0 -9.68,4.369 -9.68,9.505 z" />
        </g>
        <g
           transform="translate(206.5579,77.5387)"
           id="g591">
          <path
             inkscape:connector-curvature="0"
             id="path593"
             style="fill:#00325d;fill-opacity:1;fill-rule:nonzero;stroke:none"
             d="m 0,0 h 2.655 l 14.537,-21.107 h 0.07 V 0 h 2.377 V -24.951 H 16.983 L 2.446,-3.844 H 2.376 V -24.951 H 0 Z" />
        </g>
        <g
           transform="translate(233.5736,54.6149)"
           id="g595">
          <path
             inkscape:connector-curvature="0"
             id="path597"
             style="fill:#00325d;fill-opacity:1;fill-rule:nonzero;stroke:none"
             d="m 0,0 h 5.067 c 7.164,0 10.275,2.97 10.275,10.448 0,7.479 -3.111,10.448 -10.275,10.448 H 0 Z m -2.375,22.924 h 8.631 c 7.548,-0.175 11.462,-4.229 11.462,-12.476 0,-8.247 -3.914,-12.301 -11.462,-12.475 h -8.631 z" />
        </g>
        <g
           transform="translate(258.6693,62.3727)"
           id="g599">
          <path
             inkscape:connector-curvature="0"
             id="path601"
             style="fill:#00325d;fill-opacity:1;fill-rule:nonzero;stroke:none"
             d="M 0,0 H 9.819 L 4.997,12.789 Z M 3.773,15.166 H 6.43 l 9.784,-24.951 h -2.551 l -3.04,7.758 H -0.733 l -3.006,-7.758 h -2.552 z" />
        </g>
        <g
           transform="translate(272.0912,77.5387)"
           id="g603">
          <path
             inkscape:connector-curvature="0"
             id="path605"
             style="fill:#00325d;fill-opacity:1;fill-rule:nonzero;stroke:none"
             d="M 0,0 H 19.779 V -2.027 H 11.078 V -24.951 H 8.701 v 22.924 l -8.701,0 z" />
        </g>
        <path
           inkscape:connector-curvature="0"
           id="path607"
           style="fill:#00325d;fill-opacity:1;fill-rule:nonzero;stroke:none"
           d="m 294.389,77.539 h 2.376 V 52.588 h -2.376 z" />
        <g
           transform="translate(312.4212,54.0905)"
           id="g609">
          <path
             inkscape:connector-curvature="0"
             id="path611"
             style="fill:#00325d;fill-opacity:1;fill-rule:nonzero;stroke:none"
             d="m 0,0 c 6.569,0 9.364,5.521 9.364,10.973 0,5.451 -2.795,10.972 -9.364,10.972 -6.605,0 -9.4,-5.521 -9.4,-10.972 C -9.4,5.521 -6.605,0 0,0 m 0,23.972 c 7.827,0 11.741,-6.151 11.741,-12.999 0,-6.85 -3.914,-13 -11.741,-13 -7.863,0 -11.777,6.15 -11.777,13 0,6.848 3.914,12.999 11.777,12.999" />
        </g>
        <g
           transform="translate(327.8363,77.5387)"
           id="g613">
          <path
             inkscape:connector-curvature="0"
             id="path615"
             style="fill:#00325d;fill-opacity:1;fill-rule:nonzero;stroke:none"
             d="m 0,0 h 2.655 l 14.538,-21.107 h 0.07 V 0 h 2.376 V -24.951 H 16.983 L 2.446,-3.844 H 2.377 V -24.951 H 0 Z" />
        </g>
        <g
           transform="translate(137.9857,132.027)"
           id="g617">
          <path
             inkscape:connector-curvature="0"
             id="path619"
             style="fill:#00325d;fill-opacity:1;fill-rule:nonzero;stroke:none"
             d="M 0,0 H 13.756 V -33.2 H 33.513 V -44.642 H 0 Z" />
        </g>
        <path
           inkscape:connector-curvature="0"
           id="path621"
           style="fill:#00325d;fill-opacity:1;fill-rule:nonzero;stroke:none"
           d="m 180.497,132.027 h 13.756 V 87.385 h -13.756 z" />
        <g
           transform="translate(204.5062,132.027)"
           id="g623">
          <path
             inkscape:connector-curvature="0"
             id="path625"
             style="fill:#00325d;fill-opacity:1;fill-rule:nonzero;stroke:none"
             d="m 0,0 h 14.067 l 13.005,-23.884 h 0.126 V 0 H 40.202 V -44.642 H 26.822 L 13.13,-20.258 H 13.004 V -44.642 H 0 Z" />
        </g>
        <g
           transform="translate(295.5355,104.6413)"
           id="g627">
          <path
             inkscape:connector-curvature="0"
             id="path629"
             style="fill:#00325d;fill-opacity:1;fill-rule:nonzero;stroke:none"
             d="m 0,0 c 0,-12.441 -6.564,-18.318 -20.32,-18.318 -13.755,0 -20.383,5.877 -20.383,18.318 v 27.386 h 13.755 V 3.064 c 0,-4.501 -0.062,-10.253 6.69,-10.253 6.503,0 6.503,5.752 6.503,10.253 V 27.386 H 0 Z" />
        </g>
        <g
           transform="translate(317.4154,111.1442)"
           id="g631">
          <path
             inkscape:connector-curvature="0"
             id="path633"
             style="fill:#00325d;fill-opacity:1;fill-rule:nonzero;stroke:none"
             d="M 0,0 -14.693,20.883 H 1.437 L 8.189,8.754 14.817,20.883 H 30.073 L 15.756,-0.125 31.698,-23.759 H 15.13 l -7.627,13.318 -7.879,-13.318 h -15.756 z" />
        </g>
        <g
           transform="translate(28.7659,75.0339)"
           id="g635">
          <path
             inkscape:connector-curvature="0"
             id="path637"
             style="fill:#2b93dd;fill-opacity:1;fill-rule:nonzero;stroke:none"
             d="M 0,0 V 44.883 H -22.485 V -22.446 H 44.871 L 44.871,0 Z" />
        </g>
        <g
           transform="translate(118.5052,164.8346)"
           id="g639">
          <path
             inkscape:connector-curvature="0"
             id="path641"
             style="fill:#00325d;fill-opacity:1;fill-rule:nonzero;stroke:none"
             d="m 0,0 h -112.209 v -33.672 h 22.438 v 11.128 h 67.335 v -67.257 h -11.208 v -22.446 H 0 Z" />
        </g>
        <g
           transform="translate(11.8949,19.3259)"
           id="g643">
          <path
             inkscape:connector-curvature="0"
             id="path645"
             style="fill:#2b93dd;fill-opacity:1;fill-rule:nonzero;stroke:none"
             d="M 0,0 H 8.306 L 5.146,8.368 C 4.881,9.024 4.563,9.935 4.192,11.1 3.907,10.083 3.595,9.162 3.256,8.337 Z m 8.846,-1.461 h -9.433 l -3.24,-8.194 h -1.794 l 9.337,23.311 h 1.032 l 9.148,-23.311 h -1.827 z" />
        </g>
        <g
           transform="translate(44.4945,15.6569)"
           id="g647">
          <path
             inkscape:connector-curvature="0"
             id="path649"
             style="fill:#2b93dd;fill-opacity:1;fill-rule:nonzero;stroke:none"
             d="m 0,0 c 0,-1.937 -0.713,-3.472 -2.137,-4.604 -1.424,-1.133 -3.316,-1.7 -5.676,-1.7 -2.837,0 -5.013,0.313 -6.527,0.937 v 1.62 c 1.673,-0.71 3.806,-1.065 6.4,-1.065 1.905,0 3.417,0.437 4.534,1.311 1.116,0.873 1.675,2.02 1.675,3.438 0,0.878 -0.186,1.606 -0.556,2.183 -0.371,0.577 -0.975,1.104 -1.811,1.58 -0.836,0.477 -2.064,0.99 -3.683,1.54 -2.372,0.816 -4.01,1.697 -4.915,2.645 -0.906,0.947 -1.358,2.21 -1.358,3.787 0,1.736 0.68,3.152 2.04,4.248 1.361,1.096 3.111,1.643 5.248,1.643 2.182,0 4.23,-0.413 6.146,-1.238 l -0.587,-1.397 c -1.927,0.803 -3.77,1.206 -5.526,1.206 -1.715,0 -3.081,-0.397 -4.097,-1.191 -1.017,-0.794 -1.524,-1.874 -1.524,-3.239 0,-0.857 0.155,-1.561 0.467,-2.112 0.313,-0.551 0.824,-1.046 1.533,-1.485 0.709,-0.439 1.926,-0.966 3.652,-1.58 C -4.892,5.902 -3.531,5.296 -2.62,4.709 -1.71,4.121 -1.046,3.454 -0.628,2.708 -0.21,1.962 0,1.059 0,0" />
        </g>
        <g
           transform="translate(64.8177,15.6569)"
           id="g651">
          <path
             inkscape:connector-curvature="0"
             id="path653"
             style="fill:#2b93dd;fill-opacity:1;fill-rule:nonzero;stroke:none"
             d="m 0,0 c 0,-1.937 -0.713,-3.472 -2.137,-4.604 -1.424,-1.133 -3.316,-1.7 -5.676,-1.7 -2.837,0 -5.013,0.313 -6.527,0.937 v 1.62 c 1.673,-0.71 3.806,-1.065 6.4,-1.065 1.905,0 3.417,0.437 4.534,1.311 1.116,0.873 1.675,2.02 1.675,3.438 0,0.878 -0.186,1.606 -0.556,2.183 -0.371,0.577 -0.975,1.104 -1.811,1.58 -0.836,0.477 -2.064,0.99 -3.683,1.54 -2.372,0.816 -4.01,1.697 -4.915,2.645 -0.906,0.947 -1.358,2.21 -1.358,3.787 0,1.736 0.68,3.152 2.04,4.248 1.361,1.096 3.111,1.643 5.248,1.643 2.182,0 4.23,-0.413 6.146,-1.238 l -0.587,-1.397 c -1.927,0.803 -3.77,1.206 -5.526,1.206 -1.715,0 -3.081,-0.397 -4.097,-1.191 -1.017,-0.794 -1.525,-1.874 -1.525,-3.239 0,-0.857 0.156,-1.561 0.468,-2.112 0.313,-0.551 0.824,-1.046 1.532,-1.485 0.71,-0.439 1.927,-0.966 3.653,-1.58 C -4.892,5.902 -3.531,5.296 -2.62,4.709 -1.71,4.121 -1.046,3.454 -0.628,2.708 -0.21,1.962 0,1.059 0,0" />
        </g>
        <g
           transform="translate(72.8509,21.3102)"
           id="g655">
          <path
             inkscape:connector-curvature="0"
             id="path657"
             style="fill:#2b93dd;fill-opacity:1;fill-rule:nonzero;stroke:none"
             d="m 0,0 c 0,-3.324 0.74,-5.894 2.223,-7.709 1.482,-1.816 3.61,-2.724 6.383,-2.724 2.795,0 4.931,0.9 6.408,2.7 1.477,1.799 2.215,4.378 2.215,7.733 0,3.346 -0.738,5.91 -2.215,7.694 C 13.537,9.478 11.412,10.37 8.639,10.37 5.875,10.37 3.744,9.47 2.247,7.67 0.748,5.87 0,3.313 0,0 m 18.992,0 c 0,-3.684 -0.921,-6.598 -2.763,-8.741 -1.842,-2.145 -4.383,-3.216 -7.623,-3.216 -3.229,0 -5.764,1.071 -7.606,3.216 -1.842,2.143 -2.763,5.067 -2.763,8.773 0,3.695 0.929,6.604 2.786,8.726 1.859,2.123 4.397,3.183 7.616,3.183 3.239,0 5.774,-1.066 7.606,-3.199 C 18.076,6.608 18.992,3.694 18.992,0" />
        </g>
        <g
           transform="translate(109.6888,31.7594)"
           id="g659">
          <path
             inkscape:connector-curvature="0"
             id="path661"
             style="fill:#2b93dd;fill-opacity:1;fill-rule:nonzero;stroke:none"
             d="m 0,0 c -2.912,0 -5.203,-0.932 -6.876,-2.795 -1.673,-1.863 -2.509,-4.415 -2.509,-7.654 0,-3.314 0.788,-5.886 2.366,-7.718 1.578,-1.831 3.832,-2.747 6.765,-2.747 1.947,0 3.736,0.249 5.367,0.747 v -1.43 c -1.535,-0.54 -3.451,-0.809 -5.749,-0.809 -3.26,0 -5.827,1.052 -7.701,3.16 -1.874,2.106 -2.81,5.05 -2.81,8.829 0,2.36 0.447,4.44 1.341,6.24 0.895,1.8 2.181,3.19 3.859,4.169 1.677,0.979 3.629,1.469 5.851,1.469 2.266,0 4.293,-0.424 6.082,-1.271 L 5.335,-1.271 C 3.642,-0.424 1.863,0 0,0" />
        </g>
        <path
           inkscape:connector-curvature="0"
           id="path663"
           style="fill:#2b93dd;fill-opacity:1;fill-rule:nonzero;stroke:none"
           d="m 122.58,32.886 h 1.62 V 9.67 h -1.62 z" />
        <g
           transform="translate(135.7103,19.3259)"
           id="g665">
          <path
             inkscape:connector-curvature="0"
             id="path667"
             style="fill:#2b93dd;fill-opacity:1;fill-rule:nonzero;stroke:none"
             d="M 0,0 H 8.306 L 5.146,8.368 C 4.881,9.024 4.563,9.935 4.192,11.1 3.907,10.083 3.595,9.162 3.256,8.337 Z m 8.846,-1.461 h -9.433 l -3.24,-8.194 h -1.794 l 9.337,23.311 h 1.032 l 9.148,-23.311 h -1.827 z" />
        </g>
        <g
           transform="translate(161.5443,9.6706)"
           id="g669">
          <path
             inkscape:connector-curvature="0"
             id="path671"
             style="fill:#2b93dd;fill-opacity:1;fill-rule:nonzero;stroke:none"
             d="m 0,0 h -1.635 v 21.691 h -7.543 v 1.525 H 7.543 V 21.691 H 0 Z" />
        </g>
        <g
           transform="translate(187.8226,9.6706)"
           id="g673">
          <path
             inkscape:connector-curvature="0"
             id="path675"
             style="fill:#2b93dd;fill-opacity:1;fill-rule:nonzero;stroke:none"
             d="M 0,0 H -12.688 V 23.216 H 0 V 21.724 H -11.067 V 12.942 H -0.619 V 11.449 H -11.067 V 1.493 L 0,1.493 Z" />
        </g>
        <g
           transform="translate(216.9417,9.6706)"
           id="g677">
          <path
             inkscape:connector-curvature="0"
             id="path679"
             style="fill:#2b93dd;fill-opacity:1;fill-rule:nonzero;stroke:none"
             d="m 0,0 -8.654,21.437 h -0.128 c 0.085,-1.312 0.128,-2.657 0.128,-4.033 V 0 h -1.557 v 23.216 h 2.509 L 0.523,2.795 H 0.619 L 8.845,23.216 H 11.29 V 0 H 9.654 v 17.595 c 0,1.228 0.064,2.498 0.192,3.811 H 9.718 L 1.032,0 Z" />
        </g>
        <g
           transform="translate(250.0794,9.6706)"
           id="g681">
          <path
             inkscape:connector-curvature="0"
             id="path683"
             style="fill:#2b93dd;fill-opacity:1;fill-rule:nonzero;stroke:none"
             d="M 0,0 H -12.688 V 23.216 H 0 V 21.724 H -11.067 V 12.942 H -0.619 V 11.449 H -11.067 V 1.493 L 0,1.493 Z" />
        </g>
        <g
           transform="translate(268.1488,9.6706)"
           id="g685">
          <path
             inkscape:connector-curvature="0"
             id="path687"
             style="fill:#2b93dd;fill-opacity:1;fill-rule:nonzero;stroke:none"
             d="m 0,0 -8.654,21.437 h -0.128 c 0.085,-1.312 0.128,-2.657 0.128,-4.033 V 0 h -1.557 v 23.216 h 2.509 L 0.523,2.795 H 0.619 L 8.845,23.216 H 11.29 V 0 H 9.654 v 17.595 c 0,1.228 0.064,2.498 0.192,3.811 H 9.718 L 1.032,0 Z" />
        </g>
        <g
           transform="translate(290.2201,21.1198)"
           id="g689">
          <path
             inkscape:connector-curvature="0"
             id="path691"
             style="fill:#2b93dd;fill-opacity:1;fill-rule:nonzero;stroke:none"
             d="m 0,0 v -10.021 h 5.462 c 4.299,0 6.447,1.748 6.447,5.242 C 11.909,-1.594 9.644,0 5.113,0 Z m 0,1.43 h 5.113 c 2.181,0 3.766,0.362 4.756,1.087 0.989,0.725 1.485,1.861 1.485,3.406 0,1.546 -0.559,2.668 -1.675,3.367 -1.117,0.698 -2.783,1.048 -4.994,1.048 H 0 Z m -1.62,10.337 h 6.368 c 2.868,0 4.976,-0.487 6.319,-1.461 1.345,-0.974 2.018,-2.446 2.018,-4.414 0,-1.345 -0.411,-2.464 -1.231,-3.359 C 11.033,1.639 9.834,1.064 8.257,0.81 V 0.715 c 1.852,-0.276 3.216,-0.861 4.089,-1.755 0.874,-0.895 1.31,-2.142 1.31,-3.739 0,-2.139 -0.709,-3.785 -2.128,-4.94 -1.419,-1.153 -3.429,-1.73 -6.034,-1.73 H -1.62 Z" />
        </g>
        <g
           transform="translate(324.2787,9.6706)"
           id="g693">
          <path
             inkscape:connector-curvature="0"
             id="path695"
             style="fill:#2b93dd;fill-opacity:1;fill-rule:nonzero;stroke:none"
             d="M 0,0 H -12.688 V 23.216 H 0 V 21.724 H -11.067 V 12.942 H -0.619 V 11.449 H -11.067 V 1.493 L 0,1.493 Z" />
        </g>
        <g
           transform="translate(333.7572,21.1833)"
           id="g697">
          <path
             inkscape:connector-curvature="0"
             id="path699"
             style="fill:#2b93dd;fill-opacity:1;fill-rule:nonzero;stroke:none"
             d="m 0,0 h 4.43 c 1.959,0 3.478,0.437 4.557,1.311 1.08,0.873 1.62,2.162 1.62,3.866 0,1.768 -0.529,3.054 -1.587,3.859 C 7.961,9.84 6.235,10.242 3.843,10.242 H 0 Z m 0,-1.397 v -10.116 h -1.62 v 23.216 h 5.526 c 2.879,0 5.007,-0.531 6.384,-1.596 1.376,-1.063 2.064,-2.665 2.064,-4.803 0,-1.556 -0.411,-2.869 -1.231,-3.938 -0.82,-1.069 -2.066,-1.837 -3.739,-2.303 l 6.304,-10.576 H 11.751 L 5.764,-1.397 Z" />
        </g>
      </g>
    </g>
  </g>
</svg>
