<?xml version="1.0" encoding="utf-8"?>
<!-- Generator: Adobe Illustrator 24.0.0, SVG Export Plug-In . SVG Version: 6.00 Build 0)  -->
<svg version="1.1" id="Layer_1" xmlns="http://www.w3.org/2000/svg" xmlns:xlink="http://www.w3.org/1999/xlink" x="0px" y="0px"
	 viewBox="0 0 1350 275" style="enable-background:new 0 0 1350 275;" xml:space="preserve">
<style type="text/css">
	.st0{fill:#2A7DE1;}
	.st1{fill:#0033A1;}
	.st2{fill:#9DC5F5;}
	.st3{fill:#231F20;}
	.st4{fill:#FFFFFF;}
</style>
<g>
	<path class="st3" d="M799.7,46h7.6c2.4-0.2,4.7,0.5,6.6,1.9c1.5,1.3,2.4,3.3,2.3,5.3c0.1,2.1-0.8,4-2.3,5.4c-2,1.5-4.4,2.2-6.8,2
		h-5.2v12.8h-2.1V46z M801.8,47.8v11.1h5.1c1.9,0.1,3.7-0.4,5.2-1.5c1.2-1,1.9-2.5,1.8-4.1c0.1-1.5-0.6-3-1.7-4
		c-1.4-1.1-3.2-1.6-5-1.5L801.8,47.8z"/>
	<path class="st3" d="M823.4,46h7c2.4-0.2,4.8,0.5,6.7,1.9c1.5,1.3,2.4,3.2,2.3,5.2c0,3.2-2.1,5.9-5.2,6.7c1.5,1.1,2.8,2.5,3.6,4.2
		l6.2,9.5h-2.5l-4.8-7.5c-1-1.8-2.2-3.3-3.7-4.7c-1.2-0.7-2.5-1-3.9-0.9h-3.7v13.1h-2.1V46z M825.5,47.8v10.7h4.6
		c1.9,0.1,3.7-0.4,5.3-1.4c1.2-0.9,1.9-2.4,1.8-4c0.1-1.5-0.6-3-1.9-3.9c-1.6-1-3.5-1.5-5.4-1.4H825.5z"/>
	<path class="st3" d="M862.4,45.6c3.8-0.1,7.6,1.4,10.3,4.1c2.8,2.6,4.3,6.2,4.2,10c0.1,3.8-1.5,7.4-4.2,10
		c-5.8,5.5-14.8,5.5-20.6,0c-2.7-2.6-4.3-6.2-4.2-10c-0.1-3.8,1.5-7.4,4.2-10C854.8,47,858.5,45.6,862.4,45.6z M862.4,71.8
		c3.2,0.1,6.4-1.2,8.6-3.5c2.3-2.2,3.6-5.4,3.5-8.6c0.1-3.2-1.2-6.3-3.5-8.6c-2.3-2.3-5.4-3.6-8.6-3.5c-3.3-0.1-6.4,1.2-8.7,3.5
		c-2.3,2.2-3.6,5.4-3.6,8.6c-0.1,3.2,1.2,6.3,3.6,8.6C856,70.6,859.2,71.9,862.4,71.8z"/>
	<path class="st3" d="M887.6,46v27.4c0.2,2.2-0.4,4.5-1.7,6.3c-1,1.1-2.5,1.7-4,1.7c-0.4,0-0.9,0-1.3-0.1l-0.2-2
		c0.4,0.1,0.8,0.2,1.3,0.2c2.6,0,3.8-1.8,3.8-5.5V46H887.6z"/>
	<path class="st3" d="M911.9,46v1.8H899v11h12.5v1.8H899v11.1h13.1v1.8h-15.3V46H911.9z"/>
	<path class="st3" d="M942.6,47.9v2.3c-3-1.7-6.3-2.6-9.8-2.6c-3.2-0.1-6.3,1.2-8.5,3.5c-2.3,2.3-3.5,5.4-3.4,8.7
		c-0.1,3.2,1.1,6.4,3.5,8.7c2.4,2.3,5.5,3.5,8.8,3.4c3.4-0.1,6.8-1.1,9.7-2.8v2.2c-3,1.6-6.3,2.5-9.7,2.6c-3.9,0.1-7.6-1.3-10.4-4
		c-2.7-2.6-4.3-6.2-4.2-10c-0.1-3.8,1.5-7.5,4.3-10.1c2.7-2.6,6.4-4.1,10.1-4C936.3,45.7,939.6,46.5,942.6,47.9z"/>
	<path class="st3" d="M969.9,46v1.8h-10.3v25.6h-2.1V47.8h-10.3V46H969.9z"/>
	<path class="st3" d="M514.8,75.3h-9.2V57.7l-8.3,10.2h-0.7l-8.3-10.2v17.6h-8.9V45h8.3l9.3,11.4l9.4-11.4h8.3L514.8,75.3z"/>
	<path class="st3" d="M555.8,75.3h-9.4l-2.5-6.2h-13.2l-2.5,6.2h-9.4L532.3,45h10.1L555.8,75.3z M541.8,63.9l-4.4-11.1l-4.5,11.1
		H541.8z"/>
	<path class="st3" d="M569,75.3h-9.2V45h9.2L569,75.3z"/>
	<path class="st3" d="M609.7,75.3h-8.2l-15.8-16.9v16.9h-9.1V45h8.1l15.7,16.8V45h9.1L609.7,75.3z"/>
	<path class="st3" d="M639.1,63h-12.6v12.3h-9.2V45h21.8v6.1h-12.6v5.9h12.6V63z"/>
	<path class="st3" d="M674.6,75.3h-9.8l-2.4-5.4c-0.6-1.5-1.4-3-2.4-4.3c-0.5-0.8-1.2-1.4-2-1.8c-0.8-0.3-1.7-0.4-2.6-0.4h-1v11.9
		h-9.2V45h15.6c2.2-0.1,4.3,0.4,6.2,1.5c1.5,0.9,2.7,2.2,3.5,3.7c0.7,1.3,1,2.7,1.1,4.2c0,1.4-0.3,2.7-0.9,3.9
		c-0.5,0.9-1.1,1.7-1.9,2.3c-0.7,0.5-1.4,1-2.2,1.4c0.9,0.5,1.7,1.2,2.4,2c1,1.5,1.9,3.1,2.6,4.7L674.6,75.3z M662.2,54.6
		c0.1-1.2-0.4-2.3-1.4-2.9c-1.4-0.7-2.9-0.9-4.5-0.8h-1.9v7.3h2c1.6,0.1,3.1-0.1,4.6-0.7C661.8,56.7,662.3,55.7,662.2,54.6
		L662.2,54.6z"/>
	<path class="st3" d="M712.1,75.3h-9.4l-2.5-6.2h-13.2l-2.5,6.2h-9.4L688.6,45h10.1L712.1,75.3z M698.2,63.9l-4.4-11.1l-4.5,11.1
		H698.2z"/>
	<path class="st3" d="M751.5,75.3h-9.2V57.7l-8.3,10.2h-0.7L725,57.7v17.6h-8.9V45h8.3l9.3,11.4l9.4-11.4h8.3V75.3z"/>
	<path class="st3" d="M782,75.3h-22.9V45h22.5v6.1h-13.4v5.6H781v6.1h-12.8v6.5H782L782,75.3z"/>
	<path class="st3" d="M365.8,46c4.3-0.1,8.4,1.6,11.5,4.6c3.1,2.9,4.8,6.9,4.7,11.1c0.1,4.2-1.6,8.2-4.7,11.1
		c-6.5,6.1-16.5,6.1-23,0c-3.1-2.9-4.8-6.9-4.7-11.1c-0.1-4.2,1.6-8.3,4.7-11.1C357.3,47.5,361.5,45.9,365.8,46z M365.9,75.2
		c3.6,0.1,7.1-1.3,9.7-3.9c2.6-2.5,4-6,3.9-9.6c0.1-3.6-1.3-7.1-3.9-9.6c-2.5-2.6-6-4-9.7-3.9c-3.6-0.1-7.1,1.3-9.7,3.9
		c-2.6,2.5-4.1,6-4,9.6c-0.1,3.6,1.4,7.1,4,9.6C358.7,73.8,362.2,75.3,365.9,75.2z"/>
	<path class="st3" d="M387.8,46.4h8.4c2.7-0.2,5.3,0.6,7.4,2.2c1.7,1.5,2.7,3.7,2.6,5.9c0.1,2.3-0.9,4.5-2.6,6
		c-2.2,1.6-4.9,2.4-7.6,2.2h-5.8V77h-2.4V46.4z M390.1,48.3v12.4h5.7c2.1,0.1,4.1-0.4,5.8-1.6c1.4-1.1,2.1-2.8,2-4.6
		c0.1-1.7-0.6-3.4-1.9-4.5c-1.6-1.2-3.6-1.8-5.6-1.7H390.1z"/>
	<path class="st3" d="M427.4,46.4v2h-14.3v12.2h14v2h-14V75h14.7v2h-17V46.4H427.4z"/>
	<path class="st3" d="M460.2,46.4V77h-1.9L435,50.2V77h-2.4V46.4h2l23.2,26.8V46.4H460.2z"/>
	<g>
		<path class="st3" d="M349,107.2h48.6c28.4,0,45.5,16.8,45.5,41.1v0.3c0,27.5-21.4,41.8-48,41.8h-19.9v35.7H349V107.2z
			 M395.8,167.2c13.1,0,20.7-7.8,20.7-18v-0.3c0-11.7-8.2-18-21.2-18h-20.2v36.3H395.8z"/>
		<path class="st3" d="M451,181.1v-0.3c0-26.1,21.1-47.4,49.4-47.4c28.2,0,49.1,20.9,49.1,47v0.3c0,26.1-21.1,47.4-49.4,47.4
			C471.9,228.1,451,207.2,451,181.1z M524,181.1v-0.3c0-13.4-9.7-25.1-23.9-25.1c-14.8,0-23.6,11.4-23.6,24.8v0.3
			c0,13.4,9.7,25.1,23.9,25.1C515.2,205.9,524,194.5,524,181.1z"/>
		<path class="st3" d="M565.9,102.1h25.8v123.9h-25.8V102.1z"/>
		<path class="st3" d="M672.4,135.1h26.8l-35,93.2c-7,18.5-14.4,25.5-29.9,25.5c-9.3,0-16.3-2.4-22.9-6.3l8.7-18.7
			c3.4,2,7.6,3.6,11,3.6c4.4,0,6.8-1.4,9-5.9l-35.7-91.3h27.3l20.7,62L672.4,135.1z"/>
		<path class="st3" d="M701.6,181.1v-0.3c0-26,19.9-47.4,47.7-47.4c17.1,0,27.8,5.8,36.3,15.3l-15.8,17c-5.8-6.1-11.5-10-20.7-10
			c-12.9,0-22.1,11.4-22.1,24.8v0.3c0,13.9,9,25.1,23.1,25.1c8.7,0,14.6-3.7,20.9-9.7l15.1,15.3c-8.8,9.7-19,16.6-37.2,16.6
			C721.6,228.1,701.6,207.1,701.6,181.1z"/>
		<path class="st3" d="M792.6,181.1v-0.3c0-26,18.5-47.4,45-47.4c30.4,0,44.3,23.6,44.3,49.4c0,2-0.2,4.4-0.3,6.8h-63.3
			c2.5,11.7,10.7,17.8,22.2,17.8c8.7,0,14.9-2.7,22.1-9.3l14.8,13.1c-8.5,10.5-20.7,17-37.2,17C812.8,228.1,792.6,208.9,792.6,181.1
			z M856.8,173.4c-1.5-11.5-8.3-19.4-19.2-19.4c-10.7,0-17.7,7.6-19.7,19.4H856.8z"/>
		<path class="st3" d="M897.7,135.1h25.8v13.1c6.3-8.5,14.9-14.8,28.4-14.8c21.2,0,41.4,16.6,41.4,47v0.3c0,30.4-19.9,47-41.4,47
			c-13.8,0-22.2-6.3-28.4-13.6v39.1h-25.8V135.1z M967.4,180.7v-0.3c0-15.1-10.2-25.1-22.2-25.1c-12.1,0-22.1,10-22.1,25.1v0.3
			c0,15.1,10,25.1,22.1,25.1C957.3,205.9,967.4,196,967.4,180.7z"/>
		<path class="st3" d="M1008.9,102.1h25.8V148c5.9-7.6,13.6-14.6,26.7-14.6c19.5,0,30.9,12.9,30.9,33.8v58.9h-25.8v-50.8
			c0-12.2-5.8-18.5-15.6-18.5c-9.8,0-16.1,6.3-16.1,18.5v50.8h-25.8V102.1z"/>
		<path class="st3" d="M1105.8,199.9v-0.3c0-19.9,15.1-29,36.7-29c9.2,0,15.8,1.5,22.2,3.7v-1.5c0-10.7-6.6-16.6-19.5-16.6
			c-9.8,0-16.8,1.9-25.1,4.9l-6.5-19.7c10-4.4,19.9-7.3,35.3-7.3c14.1,0,24.3,3.7,30.7,10.2c6.8,6.8,9.8,16.8,9.8,29v52.8h-25v-9.8
			c-6.3,7-14.9,11.5-27.5,11.5C1119.9,227.8,1105.8,217.9,1105.8,199.9z M1165.1,194v-4.6c-4.4-2-10.2-3.4-16.5-3.4
			c-11,0-17.8,4.4-17.8,12.6v0.3c0,7,5.8,11,14.1,11C1156.9,209.9,1165.1,203.3,1165.1,194z"/>
		<path class="st3" d="M1209.5,102.1h25.8v123.9h-25.8V102.1z"/>
		<path class="st3" d="M1316,135.1h26.8l-35,93.2c-7,18.5-14.4,25.5-29.9,25.5c-9.3,0-16.3-2.4-22.9-6.3l8.7-18.7
			c3.4,2,7.6,3.6,11,3.6c4.4,0,6.8-1.4,9-5.9l-35.7-91.3h27.3l20.7,62L1316,135.1z"/>
	</g>
	<path class="st3" d="M338.5,29.3c-0.4-1.4-1.9-2.3-3.3-1.9c-2.4,0.6-3.7-0.1-6.1-1.6c1.7-2.9,5.9-3.6,5.9-3.6
		c1.5-0.2,2.5-1.5,2.3-3c-0.2-1.5-1.5-2.6-3-2.4c-0.3,0-7.3,0.9-10.2,6.6c-1.6-0.4-3.4-0.5-5.5,0c-4.8,1.3-6.5,4.6-7.9,7.2
		c-1.3,2.5-2.1,3.9-4.5,4.5c-0.5,0.1-0.9,0.2-1.3,0.2c0.8,1.3,1.4,2.6,1.8,4c0.1,0.4,0.1,0.7,0.2,1.1c0.2,0,0.5-0.1,0.7-0.1
		c4.8-1.3,6.5-4.6,7.9-7.2c1.3-2.5,2.1-3.9,4.5-4.5c2.4-0.6,3.7,0.1,6.1,1.6c2.5,1.6,5.7,3.6,10.4,2.3
		C338.1,32.2,338.9,30.8,338.5,29.3z"/>
	<path class="st3" d="M48.3,31.1c-0.8-1.9-2.1-3.8-4.6-5.3c-4.2-2.5-7.8-1.4-10.6-0.6c-2.7,0.8-4.2,1.2-6.4,0
		c-2.1-1.2-2.5-2.7-3.1-5.5c-0.6-2.9-1.4-6.5-5.7-9c-1.3-0.8-2.9-0.3-3.7,1c-0.8,1.3-0.3,2.9,1,3.7c2.1,1.2,2.5,2.7,3.1,5.5
		c-3.2,0.9-6.6-1.7-6.7-1.7c-1.2-0.9-2.9-0.7-3.8,0.4c-0.9,1.2-0.7,2.9,0.4,3.8c0.2,0.2,4,3.1,8.7,3.1c1,0,2.1-0.1,3.1-0.5
		c0.8,1.4,2,2.8,3.9,3.9c4.2,2.5,7.8,1.4,10.6,0.6c2.7-0.8,4.2-1.2,6.4,0c2.1,1.2,2.5,2.7,3.1,5.5c0,0,0,0.1,0,0.1
		C45.2,34.2,46.6,32.5,48.3,31.1z"/>
	<path class="st3" d="M305,35.4c-6.5-10.3-25.9-14.4-47.2-9.6c-1.5-0.9-3.2-1.5-5-1.5h0c-1,0-1.9,0.1-2.9,0.4
		c-2.5,0.8-4.5,2.4-5.6,4.7c-0.1,0.2-0.2,0.4-0.3,0.7c-6.1,2.5-11.4,5.6-15.9,9c-1.1,0.1-2.3,0.3-3.4,0.5
		c-15.4,2.5-28.3,8.9-38.4,18.5C172.5,46,151,39.7,121.8,39.4c-2.5-2-5.3-3.9-8.5-5.6c-0.2-0.9-0.4-1.7-0.9-2.5
		c-1.2-2.3-3.2-4-5.6-4.7c-0.9-0.3-1.9-0.4-2.9-0.4c-1.9,0-3.6,0.6-5.1,1.5c-1.2-0.4-2.4-0.8-3.7-1.1c-19.4-5.2-37.6-3-46.8,4.5
		c-1.8,1.4-3.2,3.1-4.2,4.9c-0.6,1.1-1.1,2.2-1.4,3.4C39,53.3,56.4,70,81.7,76.7c0.8,0.2,1.6,0.4,2.4,0.6c1.2,1.6,2.9,2.9,4.8,3.5
		c0.9,0.3,1.9,0.4,2.9,0.4c2.1,0,4.1-0.7,5.7-1.9c10.2,0.7,19.3-0.8,26-4c26.7,0.5,36.5,7.1,39.8,10.4c2.6,2.7,3,5.3,3,6.4l-0.2,2.3
		c-1,15.1-3.7,16.4-18.8,16.4h-7.9c-26,0-47.2,21.2-47.2,47.2c0,26,21.2,47.2,47.2,47.2h119.9c6.2,0,11.3,5.1,11.3,11.3v1
		c0,6.2-5.1,11.3-11.3,11.3h-118c-39.5,0-71.6-32.1-71.6-71.6c0-9.9-8.1-18-18-18s-18,8.1-18,18c0,59.3,48.2,107.5,107.5,107.5h118
		c26,0,47.2-21.2,47.2-47.2v-1c0-26-21.2-47.2-47.2-47.2H139.4c-6.2,0-11.3-5.1-11.3-11.3s5.1-11.3,11.3-11.3h7.9
		c12.4,0,49.6,0,54.4-46.4c4.6-15.1,14.9-21.8,25.2-24.6c8.5,3.8,20.6,4.9,33.7,2.5c1.3,0.7,2.8,1,4.4,1c1,0,1.9-0.1,2.9-0.4
		c2.1-0.6,3.8-1.9,5-3.7c21.9-7.3,36.6-22,34.2-34.7c-0.1-0.4-0.1-0.7-0.2-1.1C306.4,38,305.8,36.6,305,35.4z M104,30.2
		c0.6,0,1.1,0.1,1.7,0.3c2.9,0.9,4.6,4,3.7,7c-0.3,0.8-0.7,1.5-1.2,2.1c-0.5-1.3-2.1-2.7-4.2-3.3c-2.1-0.7-4.2-0.5-5.4,0.3
		c-0.1-0.8-0.1-1.6,0.2-2.4C99.4,31.7,101.6,30.2,104,30.2z M97.1,73.3c-0.7,2.4-2.9,3.9-5.3,3.9c-0.6,0-1.1-0.1-1.7-0.3
		c-2.9-0.9-4.6-4-3.7-7c0.2-0.8,0.7-1.5,1.2-2c0.5,1.4,2.1,2.7,4.2,3.4c2.2,0.7,4.2,0.5,5.4-0.4C97.4,71.7,97.3,72.5,97.1,73.3z
		 M258.2,34.7c-1.2-0.8-3.2-1-5.4-0.3c-2.1,0.7-3.7,2-4.2,3.3c-0.5-0.6-1-1.3-1.2-2.1c-0.9-2.9,0.7-6.1,3.7-7
		c0.6-0.2,1.1-0.3,1.7-0.3c2.4,0,4.6,1.5,5.3,3.9C258.3,33.1,258.3,33.9,258.2,34.7z M266.6,75.1c-0.6,0.2-1.1,0.3-1.7,0.3
		c-2.4,0-4.6-1.5-5.3-3.9c-0.2-0.8-0.3-1.6-0.2-2.3c1.2,0.8,3.3,1,5.4,0.4c2.2-0.7,3.8-2,4.2-3.4c0.5,0.6,0.9,1.3,1.2,2
		C271.1,71,269.5,74.1,266.6,75.1z"/>
	<path class="st4" d="M252.7,28.3c-0.6,0-1.1,0.1-1.7,0.3c-2.9,0.9-4.6,4-3.7,7c0.3,0.8,0.7,1.5,1.2,2.1c0.5-1.3,2.1-2.7,4.2-3.3
		c2.1-0.7,4.2-0.5,5.4,0.3c0.1-0.8,0.1-1.6-0.2-2.4C257.3,29.9,255.1,28.3,252.7,28.3z"/>
	<path class="st4" d="M269.1,66c-0.5,1.4-2.1,2.7-4.2,3.4c-2.2,0.7-4.2,0.5-5.4-0.4c-0.1,0.8,0,1.6,0.2,2.3c0.7,2.4,2.9,3.9,5.3,3.9
		c0.6,0,1.1-0.1,1.7-0.3c2.9-0.9,4.6-4,3.7-7C270,67.3,269.6,66.6,269.1,66z"/>
	<path class="st4" d="M98.5,36.6c1.2-0.8,3.2-1,5.4-0.3c2.1,0.7,3.7,2,4.2,3.3c0.5-0.6,1-1.3,1.2-2.1c0.9-2.9-0.7-6.1-3.7-7
		c-0.6-0.2-1.1-0.3-1.7-0.3c-2.4,0-4.6,1.5-5.3,3.9C98.4,34.9,98.3,35.8,98.5,36.6z"/>
	<path class="st4" d="M91.9,71.3c-2.2-0.7-3.8-2-4.2-3.4c-0.5,0.6-0.9,1.3-1.2,2c-0.9,2.9,0.7,6.1,3.7,7c0.6,0.2,1.1,0.3,1.7,0.3
		c2.4,0,4.6-1.5,5.3-3.9c0.2-0.8,0.3-1.6,0.2-2.3C96.1,71.8,94,72,91.9,71.3z"/>
</g>
</svg>
