<?xml version="1.0" encoding="utf-8"?>
<!-- Generator: Adobe Illustrator 25.1.0, SVG Export Plug-In . SVG Version: 6.00 Build 0)  -->
<svg version="1.1" id="Layer_1" xmlns="http://www.w3.org/2000/svg" xmlns:xlink="http://www.w3.org/1999/xlink" x="0px" y="0px"
	 viewBox="0 0 1000 240" style="enable-background:new 0 0 1000 240;" xml:space="preserve">
<style type="text/css">
	.st0{fill:#020202;}
	.st1{fill:none;}
	.st2{fill:#2A7DE1;}
	.st3{fill:#00D400;}
	.st4{fill:#FFFFFF;}
	.st5{fill:#0033A1;}
</style>
<g>
	<path class="st4" d="M1.1,237.3h268.9V48.7H1.1V237.3z M146.7,113.2v-7.4v-7.4v-7.4v-7.4h7.4V76h7.4v-7.4h7.4h7.4h7.4h7.4h7.4h7.4
		h7.4h7.4h7.4h7.4V76h7.4v7.4h7.4v7.4v7.4v7.4v7.4v7.4h-7.4v7.4h-7.4v7.4h-7.4h-7.4h-7.4h-7.4h-7.4h-7.4h-7.4h-7.4H169h-7.4v-7.4
		h-7.4v-7.4h-7.4V113.2z M146.7,210.1h7.4v-7.4h7.4v-7.4h7.4h7.4v-7.4h7.4h7.4v-7.4h7.4h7.4v-7.4h7.4h7.4v-7.4h7.4h7.4v-7.4h-7.4
		h-7.4h-7.4h-7.4h-7.4h-7.4h-7.4h-7.4H169h-7.4h-7.4h-7.4v-7.4h7.4h7.4h7.4h7.4h7.4h7.4h7.4h7.4h7.4h7.4h7.4h7.4h7.4h7.4v7.4h-7.4
		v7.4h-7.4v7.4h-7.4h-7.4v7.4h-7.4h-7.4v7.4h-7.4h-7.4v7.4h-7.4h-7.4v7.4H169h-7.4v7.4h7.4h7.4h7.4h7.4h7.4h7.4h7.4h7.4h7.4h7.4h7.4
		h7.4v7.4h-7.4h-7.4h-7.4h-7.4h-7.4h-7.4h-7.4h-7.4h-7.4h-7.4H169h-7.4h-7.4h-7.4V210.1z M20.1,113.2v-7.4v-7.4v-7.4v-7.4h7.4V76H35
		v-7.4h7.4h7.4h7.4h7.4h7.4h7.4h7.4h7.4h7.4h7.4V76h7.4v7.4h7.4v7.4h-7.4v-7.4h-7.4V76H102h-7.4h-7.4h-7.4h-7.4h-7.4h-7.4h-7.4h-7.4
		H35v7.4h-7.4v7.4v7.4v7.4v7.4v7.4H35v7.4h7.4h7.4h7.4h7.4h7.4h7.4h7.4h7.4h7.4h7.4v-7.4h7.4v-7.4h7.4v7.4h-7.4v7.4h-7.4v7.4H102
		h-7.4h-7.4h-7.4h-7.4h-7.4h-7.4h-7.4h-7.4H35v-7.4h-7.4v-7.4h-7.4V113.2z M20.1,210.1v-7.4v-7.4v-7.4v-7.4v-7.4v-7.4v-7.4v-7.4h7.4
		v7.4H35v7.4h7.4h7.4v7.4h7.4h7.4v7.4h7.4h7.4v7.4h7.4h7.4v7.4h7.4h7.4v7.4h7.4v-7.4v-7.4v-7.4v-7.4v-7.4v-7.4v-7.4h7.4v7.4v7.4v7.4
		v7.4v7.4v7.4v7.4v7.4v7.4h-7.4v-7.4h-7.4v-7.4H102h-7.4v-7.4h-7.4h-7.4v-7.4h-7.4h-7.4v-7.4h-7.4h-7.4v-7.4h-7.4H35v-7.4h-7.4v7.4
		v7.4v7.4v7.4v7.4v7.4v7.4h-7.4V210.1z"/>
	<polygon class="st4" points="154.1,98.3 154.1,105.8 154.1,113.2 154.1,120.7 161.6,120.7 161.6,128.1 169,128.1 176.5,128.1 
		183.9,128.1 191.4,128.1 198.8,128.1 206.3,128.1 213.7,128.1 221.2,128.1 228.6,128.1 236.1,128.1 236.1,120.7 243.5,120.7 
		243.5,113.2 243.5,105.8 243.5,98.3 243.5,90.9 243.5,83.5 236.1,83.5 236.1,76 228.6,76 221.2,76 213.7,76 206.3,76 198.8,76 
		191.4,76 183.9,76 176.5,76 169,76 161.6,76 161.6,83.5 154.1,83.5 154.1,90.9 	"/>
	<path class="st4" d="M1.1,39.6h268.9V3.1H1.1V39.6z M71.9,13.8c4.2,0,7.7,3.4,7.7,7.7s-3.4,7.7-7.7,7.7s-7.7-3.4-7.7-7.7
		S67.6,13.8,71.9,13.8z M46.4,13.8c4.2,0,7.7,3.4,7.7,7.7s-3.4,7.7-7.7,7.7s-7.7-3.4-7.7-7.7S42.1,13.8,46.4,13.8z M20.8,13.8
		c4.2,0,7.7,3.4,7.7,7.7s-3.4,7.7-7.7,7.7c-4.2,0-7.7-3.4-7.7-7.7S16.5,13.8,20.8,13.8z"/>
	<path class="st4" d="M334.2,65.1c2.8-2.6,4.4-6.3,4.3-10.2c0.1-3.9-1.5-7.6-4.3-10.2c-2.8-2.8-6.6-4.3-10.6-4.2
		c-3.9-0.1-7.7,1.4-10.5,4.2c-2.8,2.6-4.4,6.4-4.3,10.2c-0.1,3.9,1.5,7.6,4.3,10.2C319,70.7,328.3,70.7,334.2,65.1z M314.8,46.1
		c2.4-2.4,5.6-3.7,8.9-3.6c3.3-0.1,6.5,1.2,8.9,3.6c2.4,2.3,3.7,5.5,3.6,8.8c0.1,3.3-1.2,6.5-3.6,8.8c-2.3,2.4-5.5,3.7-8.9,3.6
		c-3.3,0.1-6.6-1.2-8.9-3.6c-2.4-2.3-3.7-5.5-3.6-8.8C311.1,51.6,312.4,48.4,314.8,46.1z"/>
	<path class="st4" d="M723.7,53.9h4.8c2.2,0.2,4.5-0.5,6.3-1.8c1.4-1.2,2.2-3,2.1-4.9c0.1-1.9-0.7-3.7-2.1-4.9
		c-1.8-1.3-3.9-1.9-6.1-1.8h-6.9v25.1h1.9V53.9z M723.7,42.1l4.9,0c1.6-0.1,3.3,0.4,4.6,1.4c1.1,0.9,1.7,2.3,1.6,3.7
		c0.1,1.4-0.5,2.8-1.6,3.8c-1.4,1-3.1,1.4-4.8,1.3h-4.7V42.1z"/>
	<path class="st4" d="M745.5,53.6h3.4c1.3-0.1,2.5,0.2,3.6,0.9c1.4,1.2,2.5,2.7,3.4,4.3l4.4,6.9h2.3l-5.7-8.7
		c-0.8-1.5-2-2.8-3.3-3.8c2.8-0.7,4.8-3.2,4.8-6.1c0.1-1.8-0.7-3.6-2.1-4.7c-1.8-1.3-4-1.9-6.2-1.8h-6.4v25.1h1.9V53.6z M745.5,42.1
		h4.1c1.7-0.1,3.5,0.3,4.9,1.3c1.1,0.8,1.8,2.2,1.7,3.6c0.1,1.4-0.6,2.8-1.7,3.6c-1.4,0.9-3.1,1.4-4.9,1.3h-4.2V42.1z"/>
	<path class="st4" d="M779.3,40.2c-3.5-0.1-6.9,1.3-9.4,3.8c-2.5,2.4-3.9,5.7-3.9,9.2c-0.1,3.5,1.3,6.8,3.9,9.1c5.3,5,13.6,5,18.9,0
		c2.5-2.4,3.9-5.7,3.9-9.1c0.1-3.5-1.4-6.8-3.9-9.2C786.2,41.5,782.8,40.1,779.3,40.2z M787.3,61c-2.1,2.1-5,3.3-7.9,3.2
		c-3,0.1-5.9-1.1-8-3.2c-2.1-2.1-3.3-4.9-3.3-7.9c-0.1-3,1.1-5.8,3.3-7.9c2.1-2.1,5-3.3,8-3.2c3-0.1,5.8,1.1,7.9,3.2
		c2.1,2.1,3.3,4.9,3.2,7.9C790.6,56.1,789.4,58.9,787.3,61z"/>
	<path class="st4" d="M797.1,73c1.4,0,2.7-0.6,3.7-1.6c1.2-1.6,1.8-3.7,1.6-5.7V40.5h-1.9v25.7c0,3.4-1.2,5-3.5,5
		c-0.4,0-0.8-0.1-1.2-0.1l0.2,1.8C796.3,73,796.7,73,797.1,73z"/>
	<polygon class="st4" points="812.9,53.8 824.4,53.8 824.4,52.2 812.9,52.2 812.9,42.1 824.7,42.1 824.7,40.5 811,40.5 811,65.7 
		825,65.7 825,64 812.9,64 	"/>
	<path class="st4" d="M844.3,66c3.1,0,6.2-0.9,8.9-2.4v-2c-2.7,1.6-5.8,2.5-8.9,2.6c-3,0.1-5.9-1-8.1-3.1c-2.1-2.1-3.3-5-3.2-7.9
		c-0.1-3,1.1-5.8,3.1-8c2.1-2.1,4.9-3.3,7.8-3.2c3.1,0.1,6.2,0.9,9,2.4v-2.1c-2.8-1.3-5.8-2.1-8.8-2.1c-3.5-0.1-6.8,1.3-9.3,3.7
		c-2.6,2.4-4,5.7-3.9,9.2c-0.1,3.5,1.3,6.8,3.8,9.2C837.3,64.8,840.7,66.1,844.3,66z"/>
	<polygon class="st4" points="866.5,65.7 868.5,65.7 868.5,42.1 877.9,42.1 877.9,40.5 857.1,40.5 857.1,42.1 866.5,42.1 	"/>
	<polygon class="st4" points="436.1,51.3 443.7,60.6 444.4,60.6 452,51.3 452,67.4 460.4,67.4 460.4,39.6 452.8,39.6 444.2,50 
		435.6,39.6 428,39.6 428,67.4 436.1,67.4 	"/>
	<path class="st4" d="M475,61.8h12.1l2.3,5.6h8.6l-12.3-27.9h-9.3l-12.3,27.9h8.6L475,61.8z M481.1,46.8l4.1,10.2H477L481.1,46.8z"
		/>
	<rect x="501.7" y="39.6" class="st4" width="8.4" height="27.9"/>
	<polygon class="st4" points="525.5,51.9 540,67.4 547.4,67.4 547.4,39.6 539.1,39.6 539.1,55 524.6,39.6 517.2,39.6 517.2,67.4 
		525.5,67.4 	"/>
	<polygon class="st4" points="562.8,56.1 574.4,56.1 574.4,50.5 562.8,50.5 562.8,45.1 574.4,45.1 574.4,39.6 554.4,39.6 
		554.4,67.4 562.8,67.4 	"/>
	<path class="st4" d="M601.8,57c-0.6-0.7-1.4-1.4-2.2-1.9c0.7-0.4,1.4-0.8,2-1.3c0.7-0.6,1.3-1.3,1.7-2.1c0.6-1.1,0.9-2.3,0.8-3.6
		c0-1.3-0.4-2.6-1-3.8c-0.7-1.4-1.8-2.6-3.2-3.4c-1.7-1-3.7-1.5-5.7-1.4H580v27.9h8.4V56.5h0.9c0.8,0,1.6,0.1,2.4,0.4
		c0.8,0.4,1.4,0.9,1.9,1.6c0.9,1.2,1.6,2.6,2.2,4l2.2,4.9h9l-2.8-6.1C603.6,59.8,602.8,58.4,601.8,57z M594.5,50.9
		c-1.3,0.6-2.8,0.8-4.2,0.7h-1.8v-6.7h1.8c1.4-0.1,2.8,0.2,4.1,0.8c0.9,0.6,1.4,1.6,1.3,2.7h0C595.7,49.4,595.3,50.4,594.5,50.9z"/>
	<path class="st4" d="M618.5,61.8h12.1l2.3,5.6h8.6l-12.3-27.9h-9.3l-12.3,27.9h8.6L618.5,61.8z M624.5,46.8l4.1,10.2h-8.2
		L624.5,46.8z"/>
	<polygon class="st4" points="661.3,50 652.8,39.6 645.1,39.6 645.1,67.4 653.3,67.4 653.3,51.3 660.9,60.6 661.6,60.6 669.1,51.3 
		669.1,67.4 677.5,67.4 677.5,39.6 669.9,39.6 	"/>
	<polygon class="st4" points="705.6,61.8 693,61.8 693,55.9 704.7,55.9 704.7,50.3 693,50.3 693,45.1 705.2,45.1 705.2,39.6 
		684.6,39.6 684.6,67.4 705.6,67.4 	"/>
	<path class="st4" d="M346,55.8h5.4c2.5,0.2,5-0.5,7-2c1.6-1.4,2.5-3.4,2.4-5.5c0.1-2.1-0.8-4.1-2.4-5.4c-2-1.4-4.4-2.2-6.8-2h-7.7
		v28.1h2.2V55.8z M346,42.7h5.5c1.8-0.1,3.7,0.4,5.1,1.5c1.2,1,1.9,2.5,1.8,4.1c0.1,1.6-0.6,3.2-1.8,4.2c-1.6,1.1-3.4,1.6-5.3,1.5
		H346V42.7z"/>
	<polygon class="st4" points="380.5,67.1 367.1,67.1 367.1,55.7 379.9,55.7 379.9,53.9 367.1,53.9 367.1,42.7 380.2,42.7 
		380.2,40.8 364.9,40.8 364.9,68.9 380.5,68.9 	"/>
	<polygon class="st4" points="408.1,65.4 386.8,40.8 385,40.8 385,68.9 387.2,68.9 387.2,44.4 408.5,68.9 410.3,68.9 410.3,40.8 
		408.1,40.8 	"/>
	<path class="st4" d="M359.8,185.7c-18.7,0-31.6-15.6-31.6-34.2v-0.3c0-18.7,13.2-33.9,31.6-33.9c10.9,0,19.4,4.7,27.8,12.3
		l15.2-17.6c-10.1-10-22.4-16.8-42.9-16.8c-33.4,0-56.8,25.3-56.8,56.3v0.3c0,31.3,23.8,56,55.8,56c21,0,33.4-7.5,44.6-19.4
		L388.4,173C379.8,180.8,372.2,185.7,359.8,185.7z"/>
	<path class="st4" d="M458.4,121c-26,0-45.3,19.4-45.3,43.4v0.3c0,23.9,19.1,43.1,44.9,43.1c26,0,45.3-19.4,45.3-43.4v-0.3
		C503.3,140.2,484.2,121,458.4,121z M480,164.7c0,12.3-8.1,22.7-21.6,22.7c-13.1,0-21.9-10.7-21.9-23v-0.3
		c0-12.3,8.1-22.7,21.6-22.7c13.1,0,21.9,10.7,21.9,23V164.7z"/>
	<path class="st4" d="M566.9,121c-12,0-19,6.4-24.4,13.4v-11.8h-23.6V206h23.6v-46.5c0-11.2,5.8-17,14.8-17c9,0,14.3,5.8,14.3,17
		V206h23.6v-54C595.2,132.9,584.8,121,566.9,121z"/>
	<path class="st4" d="M650.1,155.6c-9-3.1-17-5.3-17-10v-0.3c0-3.3,3-5.8,8.7-5.8c6.1,0,14.3,3,22.6,7.8l9-16.3
		c-9-6.1-20.5-9.6-31.1-9.6c-16.8,0-30.5,9.5-30.5,26.4v0.3c0,16.2,13.2,21.6,24.9,25c9.2,2.8,17.3,4.5,17.3,9.6v0.3
		c0,3.7-3.1,6.2-10,6.2c-7.8,0-17.3-3.4-26.3-10l-10.1,15.6c11,8.7,24.1,12.6,35.8,12.6c18,0,31.9-8.4,31.9-26.9v-0.3
		C675.3,165.1,661.8,159.5,650.1,155.6z"/>
	<path class="st4" d="M731.9,121c-26,0-45.3,19.4-45.3,43.4v0.3c0,23.9,19.1,43.1,44.9,43.1c26,0,45.3-19.4,45.3-43.4v-0.3
		C776.9,140.2,757.7,121,731.9,121z M753.5,164.7c0,12.3-8.1,22.7-21.6,22.7c-13.1,0-21.9-10.7-21.9-23v-0.3
		c0-12.3,8.1-22.7,21.6-22.7c13.1,0,21.9,10.7,21.9,23V164.7z"/>
	<rect x="793.5" y="92.4" class="st4" width="23.6" height="113.5"/>
	<path class="st4" d="M875,121c-24.3,0-41.2,19.6-41.2,43.4v0.3c0,25.5,18.5,43.1,43.5,43.1c15.1,0,26.3-5.9,34.1-15.6l-13.5-12
		c-6.5,6.1-12.3,8.6-20.2,8.6c-10.6,0-18-5.6-20.4-16.3h58c0.2-2.2,0.3-4.4,0.3-6.2C915.6,142.7,902.8,121,875,121z M857,157.7
		c1.9-10.7,8.2-17.7,18-17.7c10,0,16.2,7.2,17.6,17.7H857z"/>
	<polygon class="st4" points="998.9,122.6 927.9,122.6 927.9,141.7 969.5,141.7 926.5,189.3 926.5,206 998.9,206 998.9,186.8 
		955.7,186.8 998.9,139.2 	"/>
</g>
</svg>
