<?xml version="1.0" encoding="UTF-8"?>
<svg id="Layer_1" xmlns="http://www.w3.org/2000/svg" version="1.1" viewBox="0 0 669.6 147">
  <!-- Generator: Adobe Illustrator 29.5.0, SVG Export Plug-In . SVG Version: 2.1.0 Build 137)  -->
  <defs>
    <style>
      .st0 {
        fill: #fff;
      }
    </style>
  </defs>
  <g>
    <path class="st0" d="M185.24,40.21l17.92-20.67h12.07v55.74h-13.89v-34.8l-15.06,17.48h-2.09l-15.06-17.48v34.8h-13.89V19.54h12.06l17.93,20.67Z"/>
    <path class="st0" d="M260.18,19.54l24.76,55.74h-14.93l-4.59-11.01h-24.96l-4.16,11.01h-14.71l22.52-55.74h16.09ZM261.35,54.53l-9.04-21.67-8.19,21.67h17.22Z"/>
    <path class="st0" d="M305.73,19.54v55.74h-13.89V19.54h13.89Z"/>
    <path class="st0" d="M375.04,19.54v55.74h-11.73l-30.77-35.71v35.71h-13.89V19.54h12.73l29.76,34.08V19.54h13.89Z"/>
    <path class="st0" d="M425.95,19.54v10.22h-24.5v12.45h24.5v10.22h-24.5v22.86h-13.89V19.54h38.39Z"/>
    <path class="st0" d="M436.93,19.54h24.9c5.4,0,9.79,1.56,13.17,4.69,3.38,3.12,5.07,6.91,5.07,11.34,0,6.14-3.19,10.69-9.58,13.64,2.8,1.27,5.46,4.7,7.98,10.28,2.52,5.58,4.96,10.85,7.3,15.79h-15.24c-.91-1.84-2.49-5.33-4.75-10.49-2.26-5.16-4.2-8.47-5.8-9.94-1.61-1.46-3.33-2.19-5.17-2.19h-3.99v22.62h-13.89V19.54ZM450.81,29.75v12.69h7.34c2.34,0,4.2-.55,5.57-1.66,1.37-1.1,2.05-2.68,2.05-4.73,0-4.2-2.65-6.3-7.94-6.3h-7.02Z"/>
    <path class="st0" d="M524.85,19.54l24.76,55.74h-14.93l-4.59-11.01h-24.96l-4.16,11.01h-14.71l22.52-55.74h16.09ZM526.03,54.53l-9.04-21.67-8.19,21.67h17.22Z"/>
    <path class="st0" d="M586.02,40.21l17.92-20.67h12.07v55.74h-13.89v-34.8l-15.06,17.48h-2.09l-15.06-17.48v34.8h-13.89V19.54h12.06l17.93,20.67Z"/>
    <path class="st0" d="M669.6,65.07v10.22h-41.1V19.54h40.54v10.22h-26.66v11.69h25.42v10.22h-25.42v13.41h27.21Z"/>
    <path class="st0" d="M439.4,118.42v5.85c-3.9,2.13-8.41,3.19-13.51,3.19-4.15,0-7.67-.83-10.56-2.5-2.89-1.67-5.18-3.96-6.86-6.89-1.69-2.93-2.53-6.09-2.53-9.5,0-5.41,1.93-9.96,5.79-13.65,3.86-3.69,8.61-5.53,14.27-5.53,3.9,0,8.24,1.02,13.01,3.06v5.72c-4.35-2.48-8.59-3.72-12.74-3.72s-7.79,1.34-10.6,4.03c-2.81,2.69-4.22,6.05-4.22,10.1s1.38,7.43,4.15,10.06c2.77,2.62,6.3,3.94,10.61,3.94s8.9-1.38,13.19-4.15Z"/>
    <path class="st0" d="M464.18,89.34c5.74,0,10.52,1.82,14.34,5.45,3.82,3.64,5.73,8.19,5.73,13.67s-1.93,10.02-5.78,13.61c-3.85,3.59-8.71,5.39-14.58,5.39s-10.27-1.8-14-5.39c-3.73-3.59-5.6-8.09-5.6-13.5s1.88-10.14,5.64-13.78c3.76-3.64,8.51-5.45,14.25-5.45ZM464.39,94.4c-4.25,0-7.75,1.33-10.48,3.99-2.74,2.66-4.11,6.06-4.11,10.19s1.37,7.34,4.12,10c2.75,2.66,6.18,3.99,10.31,3.99s7.61-1.36,10.38-4.07c2.77-2.71,4.16-6.09,4.16-10.14s-1.39-7.25-4.16-9.94c-2.77-2.69-6.18-4.03-10.22-4.03Z"/>
    <path class="st0" d="M520.32,89.88h5.05v37.16h-4.58l-24.85-28.62v28.62h-5v-37.16h4.31l25.06,28.86v-28.86Z"/>
    <path class="st0" d="M562.86,89.88h5.05v37.16h-4.58l-24.85-28.62v28.62h-5v-37.16h4.31l25.06,28.86v-28.86Z"/>
    <path class="st0" d="M575.86,89.88h21.07v4.74h-15.75v11.33h15.22v4.76h-15.22v11.55h16.25v4.74h-21.57v-37.11Z"/>
    <path class="st0" d="M635.13,118.42v5.85c-3.9,2.13-8.41,3.19-13.51,3.19-4.15,0-7.67-.83-10.56-2.5-2.89-1.67-5.18-3.96-6.86-6.89-1.69-2.93-2.53-6.09-2.53-9.5,0-5.41,1.93-9.96,5.79-13.65,3.86-3.69,8.61-5.53,14.27-5.53,3.9,0,8.24,1.02,13.01,3.06v5.72c-4.35-2.48-8.59-3.72-12.74-3.72s-7.79,1.34-10.6,4.03c-2.81,2.69-4.22,6.05-4.22,10.1s1.38,7.43,4.15,10.06c2.77,2.62,6.3,3.94,10.61,3.94s8.9-1.38,13.19-4.15Z"/>
    <path class="st0" d="M638.51,89.82h31.04v4.74h-12.96v32.48h-5.35v-32.48h-12.74v-4.74Z"/>
  </g>
  <g>
    <polygon class="st0" points="52.82 40.86 52.82 40.86 52.82 40.86 52.82 40.86"/>
    <path class="st0" d="M124.32,32.05L71.79,1.72c-3.97-2.3-8.87-2.3-12.85,0L6.43,32.05c-3.97,2.3-6.43,6.54-6.43,11.13v60.65c0,4.59,2.45,8.83,6.43,11.13l52.53,30.33c3.97,2.3,8.87,2.3,12.85,0l52.53-30.33c3.97-2.3,6.43-6.54,6.43-11.13v-60.65c0-4.59-2.45-8.83-6.43-11.12ZM31.73,68.02c1.4-10.86,7.62-19.79,17.08-25.26h0s3.12-1.54,3.12-1.54h0c.29-.12.59-.24.89-.36-.03-12.77,17.03-17.44,23.45-6.31,5.6,9.7-3.39,21.3-14.13,18.42-3.72-1-6.76-3.63-8.28-7.16-9.42,4.23-15.88,12.53-17.2,22.84-.42,3.24-5.34,2.61-4.92-.62ZM78.49,103.53c-11.34,4.8-24.46,3.02-34.13-4.59-9.7,5.53-21.23-3.46-18.36-14.17,2.88-10.73,17.41-12.74,23.02-3.03,2.53,4.38,2.18,9.84-.86,13.86h0c8.18,6.02,19.02,7.32,28.39,3.36,2.99-1.27,4.92,3.3,1.93,4.57ZM98.92,98.91c-9.58,5.59-21.32-3.32-18.42-14.13,1.61-6.01,7.39-9.93,13.54-9.24,1.13-10.08-3.14-20.04-11.18-26.17-2.59-1.98.42-5.93,3.01-3.95,9.69,7.39,14.7,19.53,12.97,31.67h0c8.28,4.69,8.65,16.82.08,21.82Z"/>
  </g>
</svg>