<?xml version="1.0" encoding="UTF-8"?>
<svg id="Layer_1" data-name="Layer 1" xmlns="http://www.w3.org/2000/svg" viewBox="0 0 84.0191286 82.6739773">
  <defs>
    <style>
      .cls-1 {
        fill: #002b9f;
      }
    </style>
  </defs>
  <path class="cls-1" d="M2.8938234,2.310622V80.890913H81.4741144V2.310622H2.8938234Zm73.6805806,2.0336889h2.8657904v6.9335557h-2.8657904V4.3443109Zm-5.0846071,70.2597951l-12.4803992-12.5728475h2.4035534l12.4803992,12.4804039-2.4035534,.0924436Zm3.0507624-24.1287726h-10.1692141v-17.1952176h10.1692141v17.1952176Zm0,12.5728475l-1.0168424-1.0168424h1.0168424v1.0168424Zm-5.8243443-1.0168424l5.8243396,5.8243396v2.4035534l-8.2278178-8.2278178,2.4034782-.0000752Zm7.8580291,16.8251938v-16.8254289h2.8657904v16.8254289h-2.8657904Zm0-65.5452065h2.8657904V59.9972633h-2.8657904V13.3113258Zm-24.3136646,0h22.2798246V31.2461206h-22.2798246V13.3113258Zm0,19.9686396h10.1692141v17.1952176h-10.1692141v-17.1952176Zm0,19.2290576h22.2798246v7.4881605h-22.2798246v-7.4881605Zm1.9413164,9.5220804l12.4803992,12.4803992h-2.4035534l-12.0181622-12.0181622v-.462237h1.9413164Zm-3.9753915-45.2067782l-3.5131545-3.5131557h3.5131545v3.5131557Zm-8.4126345-3.5128465l8.3202661,8.3202661v2.4035558l-10.7238995-10.7238983,2.4036334,.0000764Zm-7.2107449,0l15.6236099,15.6236122-.0003009,2.4959265L32.1067423,13.3113269l2.4963826,.0001516Zm-7.3034213,0l22.926956,22.926956v2.4035534L24.8036243,13.311401l2.4960794,.0000776Zm-7.3033438,0l30.2302997,30.2302997v2.4035534L17.5927265,13.3113986l2.4036334,.0000799Zm-1.6642065,37.1636996l-5.1769778-5.1769755v-2.4035534l7.5805336,7.5805336h-2.4035558v-.0000047Zm7.3034213,0l-12.4803992-12.3879508v-2.4035534l14.8840325,14.8840325h-2.4035558l-.0000776-.0925283Zm7.3034213,0L13.1552531,30.7838813v-2.4035558l22.1873763,22.1873763-2.4035558-.0003009-.0000776-.0922226Zm7.2110529,0L13.1554083,23.4805375v-2.4035558l29.398274,29.3982717-2.4036334-.0000752Zm7.3031133,0L13.1551756,16.1771914v-2.4035558L49.856791,50.4752534l-2.4036287-.0000752Zm9.5222356,24.1287773l-4.7147385-4.7147385v-2.4035534l7.2110506,7.2110553h-2.4962322l-.0000799-.0927634ZM23.0472798,4.3439307h27.0870867v6.9335551H23.0472774l.0000024-6.9335551Zm-18.1196904,0H21.1058834v6.9335551H4.9275882l.0000012-6.9335551Zm6.1941294,74.5126016H4.9275888v-16.8254289h6.2865772v16.8254289h-.0924472Zm0-18.8592689H4.9275888v-26.717298h6.2865772v26.717298h-.0924472Zm0-28.7511427H4.9275888V13.3113246h6.2865772V31.2461206h-.0924472Zm19.7837429,47.6104116H13.1555611v-9.0598434H30.9054617c.0003009,0,.0003009,9.0598434,.0003009,9.0598434h-.0003009Zm19.3215083,0h-17.2876635v-2.311185h17.2876635v2.311185Zm0-9.0598434h-17.2876635v-7.7655808h17.2876635v7.7655808Zm0-9.7994255h-17.2876635v-7.4881605h17.2876635v7.4881605Zm24.3136646,18.8592689h-22.2798246v-2.311185h22.2798246v2.311185Z"/>
</svg>