<?xml version="1.0" encoding="UTF-8"?>
<svg id="Layer_1" data-name="Layer 1" xmlns="http://www.w3.org/2000/svg" viewBox="0 0 84.0191286 82.6665001">
  <path d="M2.2627369,3.0439045V81.6241955H80.8430278V3.0439045H2.2627369Zm73.6805806,2.0336889h2.8657904v6.9335557h-2.8657904V5.0775935Zm-5.0846071,70.2597951l-12.4803992-12.5728475h2.4035534l12.4803992,12.4804039-2.4035534,.0924436Zm3.0507624-24.1287726h-10.1692141v-17.1952176h10.1692141v17.1952176Zm0,12.5728475l-1.0168424-1.0168424h1.0168424v1.0168424Zm-5.8243443-1.0168424l5.8243396,5.8243396v2.4035534l-8.2278178-8.2278178,2.4034782-.0000752Zm7.8580291,16.8251938v-16.8254289h2.8657904v16.8254289h-2.8657904Zm0-65.5452065h2.8657904V60.7305459h-2.8657904V14.0446083Zm-24.3136646,0h22.2798246V31.9794032h-22.2798246V14.0446083Zm0,19.9686396h10.1692141v17.1952176h-10.1692141v-17.1952176Zm0,19.2290576h22.2798246v7.4881605h-22.2798246v-7.4881605Zm1.9413164,9.5220804l12.4803992,12.4803992h-2.4035534l-12.0181622-12.0181622v-.462237h1.9413164Zm-3.9753915-45.2067782l-3.5131545-3.5131557h3.5131545v3.5131557Zm-8.4126345-3.5128465l8.3202661,8.3202661v2.4035558l-10.7238995-10.7238983,2.4036334,.0000764Zm-7.2107449,0l15.6236099,15.6236122-.0003009,2.4959265L31.4756558,14.0446095l2.4963826,.0001516Zm-7.3034213,0l22.926956,22.926956v2.4035534L24.1725377,14.0446835l2.4960794,.0000776Zm-7.3033438,0l30.2302997,30.2302997v2.4035534L16.9616399,14.0446812l2.4036334,.0000799Zm-1.6642065,37.1636996l-5.1769778-5.1769755v-2.4035534l7.5805336,7.5805336h-2.4035558v-.0000047Zm7.3034213,0l-12.4803992-12.3879508v-2.4035534l14.8840325,14.8840325h-2.4035558l-.0000776-.0925283Zm7.3034213,0L12.5241666,31.5171638v-2.4035558l22.1873763,22.1873763-2.4035558-.0003009-.0000776-.0922226Zm7.2110529,0L12.5243217,24.2138201v-2.4035558l29.398274,29.3982717-2.4036334-.0000752Zm7.3031133,0L12.524089,16.910474v-2.4035558L49.2257044,51.208536l-2.4036287-.0000752Zm9.5222356,24.1287773l-4.7147385-4.7147385v-2.4035534l7.2110506,7.2110553h-2.4962322l-.0000799-.0927634ZM22.4161932,5.0772132h27.0870867v6.9335551H22.4161908l.0000024-6.9335551Zm-18.1196904,0H20.4747968v6.9335551H4.2965016l.0000012-6.9335551Zm6.1941294,74.5126016H4.2965022v-16.8254289h6.2865772v16.8254289h-.0924472Zm0-18.8592689H4.2965022v-26.717298h6.2865772v26.717298h-.0924472Zm0-28.7511427H4.2965022V14.0446071h6.2865772V31.9794032h-.0924472Zm19.7837429,47.6104116H12.5244746v-9.0598434H30.2743751c.0003009,0,.0003009,9.0598434,.0003009,9.0598434h-.0003009Zm19.3215083,0h-17.2876635v-2.311185h17.2876635v2.311185Zm0-9.0598434h-17.2876635v-7.7655808h17.2876635v7.7655808Zm0-9.7994255h-17.2876635v-7.4881605h17.2876635v7.4881605Zm24.3136646,18.8592689h-22.2798246v-2.311185h22.2798246v2.311185Z"/>
  <rect x="12.5935005" y="53.2423055" width="17.6811756" height="15.1683386"/>
  <rect x="32.3082198" y="72.3385157" width="17.2876635" height="7.2512991"/>
  <rect x="51.9701377" y="5.0482403" width="21.9393351" height="6.8471799"/>
</svg>