<?xml version="1.0" encoding="UTF-8"?>
<svg id="Layer_1" xmlns="http://www.w3.org/2000/svg" version="1.1" viewBox="0 0 672.46 147">
  <!-- Generator: Adobe Illustrator 29.4.0, SVG Export Plug-In . SVG Version: 2.1.0 Build 152)  -->
  <defs>
    <style>
      .st0 {
        fill: #fff;
      }

      .st1 {
        fill: #2a7de1;
      }

      .st2 {
        fill: #002a3a;
      }

      .st3 {
        fill: #0033a1;
      }
    </style>
  </defs>
  <g>
    <path class="st3" d="M187.7,39.59l17.91-20.66h12.07v55.73h-13.88v-34.79l-15.05,17.47h-2.08l-15.05-17.47v34.79h-13.88V18.92h12.05l17.93,20.66Z"/>
    <path class="st3" d="M262.62,18.92l24.75,55.73h-14.93l-4.59-11.01h-24.96l-4.16,11.01h-14.71l22.51-55.73h16.08ZM263.79,53.91l-9.03-21.66-8.19,21.66h17.22Z"/>
    <path class="st3" d="M308.15,18.92v55.73h-13.88V18.92h13.88Z"/>
    <path class="st3" d="M377.45,18.92v55.73h-11.72l-30.76-35.7v35.7h-13.88V18.92h12.73l29.76,34.07V18.92h13.88Z"/>
    <path class="st3" d="M428.35,18.92v10.21h-24.49v12.45h24.49v10.21h-24.49v22.86h-13.88V18.92h38.38Z"/>
    <path class="st3" d="M439.32,18.92h24.89c5.4,0,9.79,1.56,13.17,4.68,3.38,3.12,5.07,6.9,5.07,11.34,0,6.14-3.19,10.68-9.57,13.63,2.8,1.27,5.46,4.7,7.98,10.28,2.52,5.58,4.95,10.84,7.3,15.79h-15.23c-.91-1.83-2.49-5.33-4.75-10.49-2.26-5.16-4.19-8.47-5.8-9.93-1.61-1.46-3.33-2.19-5.17-2.19h-3.99v22.62h-13.88V18.92ZM453.2,29.14v12.69h7.34c2.34,0,4.2-.55,5.57-1.66,1.37-1.1,2.05-2.68,2.05-4.73,0-4.2-2.65-6.3-7.94-6.3h-7.02Z"/>
    <path class="st3" d="M527.22,18.92l24.75,55.73h-14.93l-4.59-11.01h-24.96l-4.16,11.01h-14.71l22.51-55.73h16.08ZM528.4,53.91l-9.03-21.66-8.19,21.66h17.22Z"/>
    <path class="st3" d="M588.38,39.59l17.91-20.66h12.07v55.73h-13.88v-34.79l-15.06,17.47h-2.08l-15.05-17.47v34.79h-13.88V18.92h12.05l17.92,20.66Z"/>
    <path class="st3" d="M671.93,64.44v10.21h-41.09V18.92h40.53v10.21h-26.65v11.69h25.41v10.21h-25.41v13.4h27.21Z"/>
    <path class="st2" d="M528.56,119.04v5.85c-3.9,2.13-8.4,3.19-13.51,3.19-4.15,0-7.67-.83-10.56-2.5-2.89-1.67-5.18-3.96-6.86-6.89-1.68-2.92-2.53-6.09-2.53-9.49,0-5.41,1.93-9.96,5.78-13.64,3.86-3.69,8.61-5.53,14.27-5.53,3.9,0,8.24,1.02,13,3.06v5.72c-4.34-2.48-8.59-3.72-12.74-3.72s-7.79,1.34-10.6,4.03c-2.81,2.69-4.21,6.05-4.21,10.09s1.38,7.43,4.15,10.05,6.3,3.94,10.61,3.94,8.9-1.38,13.19-4.15Z"/>
    <path class="st2" d="M553.33,89.97c5.74,0,10.52,1.82,14.34,5.45,3.82,3.63,5.73,8.19,5.73,13.67s-1.93,10.01-5.78,13.6c-3.85,3.59-8.71,5.38-14.58,5.38s-10.26-1.79-13.99-5.38c-3.73-3.59-5.59-8.09-5.59-13.5s1.88-10.14,5.63-13.78c3.76-3.63,8.5-5.45,14.25-5.45ZM553.54,95.02c-4.25,0-7.75,1.33-10.48,3.99-2.74,2.66-4.11,6.05-4.11,10.19s1.37,7.34,4.12,10c2.75,2.66,6.18,3.99,10.31,3.99s7.6-1.36,10.38-4.07c2.77-2.71,4.16-6.09,4.16-10.13s-1.39-7.25-4.16-9.93c-2.77-2.69-6.18-4.03-10.22-4.03Z"/>
    <path class="st2" d="M601.29,90.5h5.3l-15.71,37.31h-1.21l-16.01-37.31h5.35l11.17,26.09,11.1-26.09Z"/>
    <path class="st2" d="M610.66,90.5h21.06v4.73h-15.74v11.33h15.21v4.76h-15.21v11.54h16.25v4.73h-21.57v-37.1Z"/>
    <path class="st2" d="M667.41,90.5h5.05v37.15h-4.58l-24.84-28.61v28.61h-5v-37.15h4.31l25.05,28.86v-28.86Z"/>
  </g>
  <path class="st1" d="M124.32,32.05L71.79,1.72c-3.97-2.3-8.87-2.3-12.85,0L6.43,32.05c-3.97,2.3-6.43,6.54-6.43,11.13v60.65c0,4.59,2.45,8.83,6.43,11.13l52.53,30.33c3.97,2.3,8.87,2.3,12.85,0l52.53-30.33c3.97-2.3,6.43-6.54,6.43-11.13v-60.65c0-4.59-2.45-8.83-6.43-11.12Z"/>
  <path class="st0" d="M76.01,50.58c-2.72,2.72-6.48,4.4-10.63,4.4s-7.91-1.68-10.63-4.4c-2.72-2.72-4.4-6.48-4.4-10.63s1.68-7.91,4.4-10.63c2.72-2.72,6.48-4.4,10.63-4.4s7.91,1.68,10.63,4.4c2.72,2.72,4.4,6.48,4.4,10.63s-1.68,7.91-4.4,10.63ZM79.21,103.74l-2.1,16.16c-.06,1.21-1.05,2.17-2.28,2.17h-18.9c-1.12,0-2.1-.84-2.25-1.98l-2.13-16.35h-6.74c-.22,0-.45-.04-.67-.11-1.2-.37-1.87-1.64-1.51-2.84l10.95-35.67c.22-1.02,1.13-1.78,2.22-1.78h19.12c.97,0,1.87.64,2.17,1.61l10.95,35.67c.1.26.16.55.16.84,0,1.26-1.02,2.28-2.28,2.28h-6.74,0Z"/>
</svg>