<svg id="Layer_1" data-name="Layer 1" xmlns="http://www.w3.org/2000/svg" viewBox="0 0 250 250"><defs><style>.cls-1,.cls-2{fill:#0033a1;}.cls-2,.cls-3{fill-rule:evenodd;}.cls-3,.cls-5{fill:#2a7de1;}.cls-4{fill:#fff;}</style></defs><path class="cls-1" d="M124.78785,242.77479A116.74427,116.74427,0,0,1,124.6556,9.28633h.13773A116.87575,116.87575,0,0,1,241.53521,125.87562v.07982A116.87825,116.87825,0,0,1,124.88567,242.77479Zm.00548-226.70456c-.04461,0-.0853.00078-.12991.00078a109.96037,109.96037,0,0,0,.12521,219.92067h.09156a110.08807,110.08807,0,0,0,109.8719-110.03155V125.885A110.09226,110.09226,0,0,0,124.79333,16.07023Z"/><path class="cls-1" d="M125.73551,195.46045h-.02817c-5.391-.02347-11.59656-2.92829-17.47661-8.18074l1.06739-1.19573c5.58816,4.99108,11.41736,7.75191,16.41392,7.77382h.0266c10.339,0,22.6516-11.023,31.377-28.09656l1.42737.72933C149.54684,184.09318,136.67238,195.46045,125.73551,195.46045Z"/><path class="cls-2" d="M120.39066,171.58573c-1.713.1319-4.68295,2.15331-4.68295,2.15331-2.327-1.50227-4.29729-1.35753-1.05128-2.56345,0,0,4.161-4.97446,6.30767-5.33187s2.87111,1.7431,4.47054,1.7431c1.5995,0,2.32385-2.10054,4.47058-1.7431s6.30766,5.33187,6.30766,5.33187c3.14854.97112.96414,1.42682-1.05127,2.56345,0,0-2.96995-2.02139-4.683-2.15331-1.74295-.13422-3.2959,1.43555-5.044,1.43555S122.13361,171.45151,120.39066,171.58573Z"/><path class="cls-1" d="M135.16207,174.52263a.78041.78041,0,0,1-.44136-.13616c-.77941-.529-3.07071-1.92506-4.30244-2.02054a5.01755,5.01755,0,0,0-2.22713.64326,5.16606,5.16606,0,0,1-5.51226,0,5.015,5.015,0,0,0-2.22869-.64326c-1.23173.097-3.52224,1.49154-4.30166,2.02054a.778.778,0,0,1-.86549.011,13.43042,13.43042,0,0,0-1.67778-.89211c-.8209-.38345-1.46884-.68551-1.43989-1.41954.03052-.74029.7802-1.105,2.02367-1.57292.97035-1.14251,4.44877-5.07638,6.64616-5.44261a3.98863,3.98863,0,0,1,3.27888,1.06348c1.094.8295,1.54787.8295,2.64187,0a3.99845,3.99845,0,0,1,3.27731-1.06348c2.188.36389,5.64216,4.26253,6.6313,5.4254,1.14252.37249,1.85464.77,1.91254,1.51031.0673.8702-.80289,1.29747-1.90628,1.83742-.35371.17216-.74185.3631-1.12374.57752A.78266.78266,0,0,1,135.16207,174.52263Zm-4.90031-3.72961c.09234,0,.18468.00313.277.01095a12.86555,12.86555,0,0,1,4.66242,2.0221c.26763-.13929.53213-.26919.781-.39127.18938-.09234.41005-.20033.60569-.30363-.15494-.05947-.35371-.12834-.60726-.20659a.794.794,0,0,1-.36936-.24729c-1.53692-1.83585-4.48086-4.83457-5.83467-5.05994a2.46028,2.46028,0,0,0-2.07375.76533,3.09765,3.09765,0,0,1-4.53564,0,2.47047,2.47047,0,0,0-2.07453-.76533c-1.3538.22537-4.29774,3.22409-5.83545,5.05994a.77235.77235,0,0,1-.32789.23164c-.2238.08451-.41083.15651-.56656.21911.37249.17529.83576.396,1.33033.68238a12.77448,12.77448,0,0,1,4.63659-2.00645h.00156a5.97272,5.97272,0,0,1,2.99872.77942,3.71381,3.71381,0,0,0,4.2101,0A6.55867,6.55867,0,0,1,130.26176,170.793Z"/><path class="cls-2" d="M125.38606,175.70214c6.16765-3.20645,14.85934,1.28549,0,4.16762C110.52672,176.9876,119.21841,172.49569,125.38606,175.70214Z"/><path class="cls-1" d="M125.38571,180.57015l-.13068-.0266c-5.39253-1.04548-8.32317-2.393-8.71053-4.00508a1.64829,1.64829,0,0,1,.68238-1.70908c1.45476-1.13469,5.09986-1.34441,8.15883.10486,3.059-1.45084,6.70565-1.24112,8.15962-.10486a1.64963,1.64963,0,0,1,.68238,1.70908c-.38814,1.61205-3.31956,2.9596-8.71131,4.00508Zm-4.60607-5.29158a4.76317,4.76317,0,0,0-2.706.63387c-.223.17529-.19955.27232-.19173.30519.01487.0626.45388,1.56666,7.50384,2.9502,7.05-1.38354,7.48976-2.8876,7.50384-2.9502.00783-.03287.03131-.1299-.1925-.30519-1.01262-.79038-4.23671-1.0314-6.9944.40066l-.31694.16434-.31693-.16434A9.46777,9.46777,0,0,0,120.77964,175.27857Z"/><path class="cls-2" d="M69.04342,67.46531c6.6975-28.62343,40.44917-40.879,55.87177-40.01983,15.42259-.83825,49.17427,11.41731,55.91461,39.8713,7.2198,13.91289,11.68621,45.49863-16.15949,85.68973.41847-18.66885-2.66306-20.70781-11.54453-28.15491,3.012-5.41938,28.83827-24.59557,30.71527-43.56636-4.77324,19.45927-26.049,33.78079-62.02136,63.02462,7.58947-10.51806,31.95092-42.07644,13.95815-58.552,12.66866,42.27753-71.959,54.06727-24.72659,138.89126C22.98045,133.20608,62.22041,73.55965,69.04342,67.46531Z"/><path class="cls-3" d="M101.62462,68.41485C97.142,104.91624,35.996,101.88271,88.56372,196.15042,72.67412,111.82548,131.69712,124.95052,101.62462,68.41485Z"/><path class="cls-4" d="M114.35,106.58316,102.20642,98.898l-13.276,5.55157,3.62661-13.81418L83.124,79.84477l14.3849-.85247,7.446-12.22052,5.26376,13.28731,14.035,3.23791-11.13171,9.06449Z"/><path class="cls-5" d="M118.1002,112.75,101.903,102.49938l-17.7192,7.40915,4.84161-18.44306L76.40768,77.0314,95.645,75.892l9.92034-16.28323,7.01318,17.70512,18.77878,4.333L116.46077,93.77555ZM102.51031,95.29682l8.09,5.12021-.81776-9.4696,7.36767-5.99979-9.292-2.14339-3.51363-8.87017-4.97152,8.15883-9.5322.565,6.24785,7.147-2.411,9.18553Z"/><path class="cls-4" d="M63.46537,96.3439l-7.3408-12.28321L41.74768,83.087,51.27288,72.376,47.765,58.53128l13.2277,5.6634,12.20887-7.5828-1.35,14.21124,11.05341,9.15824L68.84286,83.101Z"/><path class="cls-5" d="M64.01449,103.51122l-9.78027-16.3654L35.00783,85.84288,47.74847,71.516,43.06493,53.03226l17.65425,7.55862L77.004,50.47646,75.20334,69.43757,89.99426,81.69225,71.17949,85.86557ZM48.488,80.33062l9.52751.6456,4.9003,8.20031,3.59033-8.84044,9.31-2.06514-7.316-6.0616.89914-9.46256L61.2654,67.79813l-8.80052-3.768,2.33277,9.20588Z"/><path class="cls-4" d="M134.3886,106.58316,146.53213,98.898l13.276,5.55157-3.62661-13.81418,9.4331-10.7906-14.38491-.85247-7.446-12.22052-5.26376,13.28731L124.485,83.297l11.13171,9.06449Z"/><path class="cls-5" d="M130.639,112.75,132.276,93.77555,117.38183,81.64686l18.7772-4.333,7.01475-17.70434L153.09334,75.892l19.23657,1.13939L159.71369,91.46547l4.84083,18.44306-17.71842-7.40915Zm.94845-27.80232,7.36846,5.99979-.817,9.4696,8.09-5.12021,8.83182,3.69362-2.41181-9.18553,6.24942-7.147-9.533-.565-4.97073-8.15961-3.5152,8.87095Z"/><path class="cls-4" d="M186.11941,96.12914l7.3408-12.28321,14.37689-.97368-9.5252-10.71106,3.50793-13.84467-13.2277,5.6634-12.20887-7.5828,1.35,14.21124L166.67986,79.7666l14.06206,3.11963Z"/><path class="cls-5" d="M185.5706,103.2968l-7.165-17.64565-18.814-4.1741,14.79014-12.25468-1.79986-18.95954,16.28323,10.11363,17.65425-7.55862-4.68276,18.483L214.578,85.62846l-19.22717,1.30216Zm-11.80237-25.241,9.31074,2.06593,3.59032,8.84043L191.5696,80.761l9.52672-.64482-6.30889-7.09535,2.332-9.2051-8.79895,3.768-8.13536-5.05212.89837,9.46256Z"/></svg>