<svg id="Layer_1" data-name="Layer 1" xmlns="http://www.w3.org/2000/svg" viewBox="0 0 266.71127 247.89699"><defs><style>.cls-1{fill:none;}.cls-2{fill:#fff;}</style></defs><path class="cls-1" d="M132.175,9.32341l-.07263.00049a61.48135,61.48135,0,0,0,.07,122.96265h.05121a61.55279,61.55279,0,0,0,61.43188-61.52118v-.042A61.55515,61.55515,0,0,0,132.175,9.32341Zm.5268,100.30121h-.01575c-3.01422-.01312-6.48389-1.63727-9.77161-4.574l.5968-.66858c3.12452,2.79065,6.38373,4.33429,9.17743,4.34649h.0149c5.78076,0,12.665-6.16314,17.54358-15.70941l.798.40778C146.01527,103.26891,138.81685,109.62462,132.7018,109.62462ZM135.32,96.7119a2.80606,2.80606,0,0,0-1.24524.35968,2.88832,2.88832,0,0,1-3.082,0,2.80452,2.80452,0,0,0-1.24609-.35968,7.26919,7.26919,0,0,0-2.40515,1.12976.435.435,0,0,1-.48395.00611,7.50868,7.50868,0,0,0-.93805-.49878c-.459-.21442-.82129-.3833-.80512-.7937.01709-.41388.43628-.6178,1.13154-.87946.54254-.63879,2.48736-2.83832,3.716-3.04309a2.23032,2.23032,0,0,1,1.83331.5946c.61163.46381.86542.46381,1.47711,0a2.23576,2.23576,0,0,1,1.8324-.5946c1.22339.20349,3.15466,2.3833,3.7077,3.03345.63886.20831,1.037.43054,1.0694.84448.0376.48651-.449.72546-1.06586,1.02734-.19781.09626-.41479.203-.62835.32288a.437.437,0,0,1-.462-.01923A7.25472,7.25472,0,0,0,135.32,96.7119Zm2.13,2.333c-.21705.90131-1.856,1.65479-4.87067,2.23932l-.07306.01489-.07312-.01489c-3.01508-.58453-4.65363-1.338-4.87024-2.23932a.92172.92172,0,0,1,.38153-.95563c.81342-.6344,2.85144-.75165,4.56183.05866,1.71033-.81122,3.74927-.694,4.56219-.05866A.92235.92235,0,0,1,137.45,99.04491ZM182.37569,48.215l-10.75037.72809-5.46838,9.1507-.01142-.02808c-1.07318,7.88019-4.40222,17.32569-11.67438,27.8219.234-10.43817-1.489-11.57818-6.45483-15.74206,1.381-2.48487,11.33576-10.143,15.454-18.66815l-.27515-.67768c-1.91436,3.51837-4.87408,6.91284-8.884,10.62818l.09522.36267-.33966-.142c-5.79419,5.33374-13.67719,11.34692-23.55439,19.37658,2.84681-3.94531,9.90485-13.184,11.21106-21.62023l-5.943,3.76116c-8.85523,14.27833-31.35712,26.73829-11.28888,62.77863C92.156,92.371,90.51466,66.46386,94.27943,51.66649L92.72377,49.0634l-10.74988-.72851,7.1236-8.01044L86.47877,29.98973l9.87091,4.2262,9.10523-5.65521-.01953.20581c7.161-9.38135,20.09167-13.45709,26.80774-13.08295,6.66791-.36242,19.45831,3.65747,26.66052,12.85254l-.009-.09485,9.10431,5.65479,9.87091-4.2262-2.61823,10.33423Z"/><path class="cls-2" d="M132.70357,108.7285h-.0149c-2.7937-.0122-6.05291-1.55584-9.17743-4.34649l-.5968.66858c3.28772,2.93676,6.75739,4.56091,9.77161,4.574h.01575c6.115,0,13.31347-6.35571,18.34338-16.19775l-.798-.40778C145.36854,102.56536,138.48433,108.7285,132.70357,108.7285Z"/><path class="cls-2" d="M137.97243,97.91777a.43708.43708,0,0,0,.21521-.05688c.21356-.11987.43054-.22662.62835-.32288.61689-.30188,1.10346-.54083,1.06586-1.02734-.03241-.41394-.43054-.63617-1.0694-.84448-.553-.65015-2.48431-2.83-3.7077-3.03345a2.23576,2.23576,0,0,0-1.8324.5946c-.61169.46381-.86548.46381-1.47711,0a2.23032,2.23032,0,0,0-1.83331-.5946c-1.22864.20477-3.17346,2.4043-3.716,3.04309-.69526.26166-1.11445.46558-1.13154.87946-.01617.4104.34613.57928.80512.7937a7.50868,7.50868,0,0,1,.93805.49878.435.435,0,0,0,.48395-.00611,7.26919,7.26919,0,0,1,2.40515-1.12976,2.80452,2.80452,0,0,1,1.24609.35968,2.88832,2.88832,0,0,0,3.082,0A2.80606,2.80606,0,0,1,135.32,96.7119a7.25472,7.25472,0,0,1,2.40558,1.12976A.43672.43672,0,0,0,137.97243,97.91777Z"/><path class="cls-2" d="M132.50624,98.14794c-1.71039-.81031-3.74841-.69306-4.56183-.05866a.92172.92172,0,0,0-.38153.95563c.21661.90131,1.85516,1.65479,4.87024,2.23932l.07312.01489.07306-.01489c3.01465-.58453,4.65362-1.338,4.87067-2.23932a.92235.92235,0,0,0-.38154-.95563C136.25551,97.454,134.21657,97.33672,132.50624,98.14794Z"/><path class="cls-2" d="M132.175,5.53038h-.077a65.27441,65.27441,0,0,0,.074,130.54877h.05469a65.34932,65.34932,0,0,0,65.22143-65.31641v-.04461A65.348,65.348,0,0,0,132.175,5.53038Zm61.48047,65.21228v.02271a61.55279,61.55279,0,0,1-61.43188,61.52118h-.05121a61.48135,61.48135,0,0,1-.07-122.96265l.07263-.00049a61.55515,61.55515,0,0,1,61.48047,61.4Z"/><path class="cls-2" d="M175.25166,40.20409l2.61823-10.33423-9.87091,4.2262-9.10431-5.65479.009.09485c-7.20221-9.19507-19.99261-13.215-26.66052-12.85254-6.71607-.37414-19.64679,3.7016-26.80774,13.083l.01953-.20581-9.10523,5.65521-9.87091-4.2262,2.61872,10.33472-7.1236,8.01044,10.74988.72851,1.55566,2.60309c-3.76477,14.79737-2.12347,40.70453,30.212,74.2782-20.06824-36.04034,2.43365-48.5003,11.28888-62.77863l5.943-3.76116c-1.30621,8.43627-8.36425,17.67492-11.21106,21.62023,9.8772-8.02966,17.7602-14.04284,23.55439-19.37658l.33966.142-.09522-.36267c4.01-3.71534,6.96967-7.10981,8.884-10.62818l.27515.67768c-4.11828,8.52514-14.073,16.18328-15.454,18.66815,4.96582,4.16388,6.68878,5.30389,6.45483,15.74206,7.27216-10.49621,10.6012-19.94171,11.67438-27.8219l.01142.02808,5.46838-9.1507,10.75037-.72809ZM99.58528,45.256l-2.00745,4.94287-1.855-3.10425L94.838,45.61388l-5.327-.361,3.52789-3.96674L91.73451,36.1389l4.92059,2.10675,4.5478-2.82428-.2558,2.69208-.247,2.59864,4.09057,3.38922Zm24.4801,9.213.17395,2.01465-.29834-.18884-4.22491-2.67395L114.77754,55.686l1.34808-5.13586-1.4895-1.70386-2.00384-2.29217,3.77209-.22358,1.55756-.09234,2.77972-4.56177,1.96454,4.95953.04126.00953,5.15411,1.18884-4.06567,3.31091-.05377.04376Zm25.03278,1.217-4.93805-2.06518-2.33106,1.47534-2.19226,1.38745.45679-5.29462-1.34033-1.09143-2.77954-2.26324,5.19537-1.19837,1.96539-4.96,2.7793,4.5622,5.33008.31592-3.4942,3.996Zm20.413-10.1925L166.77125,50.079l-.31933-.78638L165.149,46.08446l-.0282-.0694-.357-.879L159.558,43.981l4.09009-3.38917-.30573-3.22021-.19653-2.07056,4.54864,2.82477,4.91968-2.10675-1.30383,5.14679,3.5274,3.96716Z"/><path class="cls-2" d="M186.31378,157.68833h2.95564a3.93044,3.93044,0,0,1,2.59844.76,2.56737,2.56737,0,0,1,.90188,2.07261,2.62069,2.62069,0,0,1-.90949,2.10337,4.01289,4.01289,0,0,1-2.66789.77554h-2.04947v5.0127h-.82911Zm.82911.69087v4.32946h1.99588a3.173,3.173,0,0,0,2.04185-.56784,2.1727,2.1727,0,0,0,.01555-3.17821,2.93215,2.93215,0,0,0-1.95754-.58338Z"/><path class="cls-2" d="M195.601,157.68833h2.74827a4.07448,4.07448,0,0,1,2.64078.74842,2.47762,2.47762,0,0,1,.91346,2.0227,2.678,2.678,0,0,1-2.04185,2.61,4.814,4.814,0,0,1,1.42771,1.63541l2.42581,3.70768h-.98126l-1.86821-2.93909a7.17674,7.17674,0,0,0-1.45779-1.83946,2.66152,2.66152,0,0,0-1.52728-.36477h-1.45053v5.14334H195.601Zm.82911.69087v4.19913h1.78093a3.368,3.368,0,0,0,2.07658-.549,2.01892,2.01892,0,0,0-.01154-3.09751,3.41855,3.41855,0,0,0-2.09547-.55263Z"/><path class="cls-2" d="M210.85341,157.55008a5.58394,5.58394,0,0,1,4.03412,1.60071,5.42283,5.42283,0,0,1,0,7.79933,5.86425,5.86425,0,0,1-8.05266,0,5.441,5.441,0,0,1,0-7.79933A5.548,5.548,0,0,1,210.85341,157.55008Zm.03076,10.2331a4.61011,4.61011,0,0,0,3.38161-1.3705,4.79062,4.79062,0,0,0,0-6.72449,4.61012,4.61012,0,0,0-3.38161-1.37051,4.67,4.67,0,0,0-3.40443,1.37051,4.75343,4.75343,0,0,0,0,6.72449A4.66994,4.66994,0,0,0,210.88417,167.78318Z"/><path class="cls-2" d="M220.70918,157.68833v10.72421a3.472,3.472,0,0,1-.668,2.449,2.15009,2.15009,0,0,1-1.58148.67532,4.69888,4.69888,0,0,1-.49871-.03075l-.07707-.78281a2.16842,2.16842,0,0,0,.49146.06151q1.5046,0,1.50477-2.14966V157.68833Z"/><path class="cls-2" d="M230.22659,157.68833v.69087h-5.02032v4.29108h4.89v.6988h-4.89v4.35259h5.14333v.69087h-5.97244V157.68833Z"/><path class="cls-2" d="M242.2548,158.44832v.90583a8.11245,8.11245,0,0,0-3.82308-1.03647,4.5072,4.5072,0,0,0-3.33927,1.35892,4.63162,4.63162,0,0,0-1.34336,3.39285,4.5445,4.5445,0,0,0,1.351,3.38557,4.71244,4.71244,0,0,0,3.44674,1.32816,8.21713,8.21713,0,0,0,3.8155-1.098v.85987a8.07662,8.07662,0,0,1-3.8,1.0057,5.64937,5.64937,0,0,1-4.08006-1.56992,5.49586,5.49586,0,0,1,.0344-7.84926,5.56568,5.56568,0,0,1,3.96892-1.58151A9.02275,9.02275,0,0,1,242.2548,158.44832Z"/><path class="cls-2" d="M252.92414,157.68833v.69087H248.9016v10.03334h-.83672V158.3792h-4.02254v-.69087Z"/><path class="cls-2" d="M74.82867,169.16512h-3.584v-6.885L68.01221,166.267h-.28288l-3.241-3.98688v6.885H61.00722V157.28145h3.24957L67.90936,161.74l3.66972-4.45855h3.24957Z"/><path class="cls-2" d="M90.87926,169.16512H87.20955l-.96888-2.4092H81.07911l-.986,2.4092H76.42339l5.2559-11.88367h3.96123Zm-5.46171-4.47557L83.67709,160.351l-1.75771,4.33857Z"/><path class="cls-2" d="M96.05809,169.16512H92.47436V157.28145h3.58379Z"/><path class="cls-2" d="M111.96293,169.16512h-3.18964l-6.16451-6.61925v6.61925H99.05911V157.28145H102.24l6.14768,6.58486v-6.58486h3.57525Z"/><path class="cls-2" d="M123.46065,164.355h-4.93v4.81011h-3.584V157.28145h8.514v2.38366h-4.93V161.963h4.93Z"/><path class="cls-2" d="M137.37649,169.16512h-3.84975l-.93459-2.10917a8.77466,8.77466,0,0,0-.92609-1.69352,1.999,1.999,0,0,0-.8015-.68588,2.85165,2.85165,0,0,0-1.00763-.1499h-.40288v4.63847h-3.584V157.28145h6.09625a4.43368,4.43368,0,0,1,2.41771.60017,3.60372,3.60372,0,0,1,1.359,1.45758,3.74073,3.74073,0,0,1,.41587,1.6291,3.08151,3.08151,0,0,1-.34708,1.522,2.79242,2.79242,0,0,1-.73316.90457,7.28646,7.28646,0,0,1-.866.54,3.42024,3.42024,0,0,1,.94737.79321,9.95952,9.95952,0,0,1,1.01616,1.8562Zm-4.87017-8.12825a1.23082,1.23082,0,0,0-.54-1.14892,3.55758,3.55758,0,0,0-1.75786-.3258H129.454v2.86362h.77169a3.869,3.869,0,0,0,1.79615-.28716,1.17288,1.17288,0,0,0,.48452-1.10174Z"/><path class="cls-2" d="M152.05537,169.16512h-3.66981l-.96888-2.4092h-5.16143l-.98613,2.4092h-3.66959l5.25574-11.88367h3.96134Zm-5.46174-4.47557-1.74056-4.33857-1.75761,4.33857Z"/><path class="cls-2" d="M167.45418,169.16512H163.8704v-6.885L160.638,166.267h-.283l-3.24094-3.98688v6.885h-3.48116V157.28145h3.2497L160.5351,161.74l3.66961-4.45855h3.24947Z"/><path class="cls-2" d="M179.415,169.16512h-8.9599V157.28145h8.81427v2.38366h-5.23025v2.17774h4.99006v2.39232h-4.99006V166.773H179.415Z"/><path class="cls-2" d="M16.51284,157.67671a6.23764,6.23764,0,0,1,4.50572,1.78764,6.05775,6.05775,0,0,1,0,8.71129,6.55011,6.55011,0,0,1-8.99418,0,6.07725,6.07725,0,0,1,0-8.71129A6.19771,6.19771,0,0,1,16.51284,157.67671Zm.0344,11.42926a5.14974,5.14974,0,0,0,3.77681-1.5305,5.35149,5.35149,0,0,0,0-7.511,5.14962,5.14962,0,0,0-3.77681-1.5304,5.21769,5.21769,0,0,0-3.8027,1.5304,5.3096,5.3096,0,0,0,0,7.511A5.21781,5.21781,0,0,0,16.54724,169.106Z"/><path class="cls-2" d="M25.12128,157.831h3.301a4.38914,4.38914,0,0,1,2.90226.84886,2.86744,2.86744,0,0,1,1.00753,2.315,2.92607,2.92607,0,0,1-1.016,2.34927,4.48093,4.48093,0,0,1-2.97947.866H26.04725V169.809h-.926Zm.926.77171v4.83577h2.22927a3.544,3.544,0,0,0,2.2807-.63446,2.427,2.427,0,0,0,.01714-3.54972,3.27511,3.27511,0,0,0-2.18636-.65159Z"/><path class="cls-2" d="M40.64027,157.831v.77171H35.0328v4.79282h5.46171v.78032H35.0328v4.86143h5.74461v.77173H34.10684V157.831Z"/><path class="cls-2" d="M53.47569,157.831v11.978h-.76205L43.607,159.3401V169.809h-.92612V157.831h.78469L52.54977,168.3V157.831Z"/><path class="cls-2" d="M28.46876,194.98893H10.88434V183.2663H58.76618v11.72263H41.18176v46.06625h-12.713Z"/><path class="cls-2" d="M56.37,219.178v-.16514c0-12.63115,8.998-23.03312,21.87714-23.03312,14.7775,0,21.54685,11.47515,21.54685,24.02349,0,.99085-.08233,2.14683-.16466,3.30234H68.83549c1.23879,5.69666,5.20123,8.66824,10.81507,8.66824,4.21038,0,7.26525-1.32065,10.73178-4.54019l7.18292,6.35626c-4.12805,5.1189-10.07217,8.2561-18.08032,8.2561C66.19419,242.046,56.37,232.71722,56.37,219.178Zm31.20546-3.715c-.7429-5.61384-4.04476-9.41161-9.32832-9.41161-5.20123,0-8.58543,3.715-9.57628,9.41161Z"/><path class="cls-2" d="M105.65191,235.19338l5.3659-8.25514c4.78861,3.46749,9.82422,5.28356,13.95227,5.28356,3.63215,0,5.28356-1.32113,5.28356-3.30234v-.16515c0-2.72411-4.29271-3.63214-9.16366-5.11841-6.19207-1.81608-13.20938-4.70581-13.20938-13.29124v-.16514c0-8.99852,7.26526-14.0346,16.181-14.0346a30.62476,30.62476,0,0,1,16.51124,5.11842l-4.78766,8.66823c-4.376-2.559-8.751-4.12757-11.97058-4.12757-3.05487,0-4.623,1.32065-4.623,3.05439v.16514c0,2.47664,4.20942,3.63263,8.998,5.28356,6.19207,2.064,13.374,5.03609,13.374,13.12657v.16514c0,9.82423-7.34759,14.2816-16.92386,14.2816A30.99777,30.99777,0,0,1,105.65191,235.19338Z"/><path class="cls-2" d="M146.26707,235.19338l5.36589-8.25514c4.78862,3.46749,9.82422,5.28356,13.95228,5.28356,3.63214,0,5.28356-1.32113,5.28356-3.30234v-.16515c0-2.72411-4.29272-3.63214-9.16366-5.11841-6.19208-1.81608-13.20938-4.70581-13.20938-13.29124v-.16514c0-8.99852,7.26525-14.0346,16.181-14.0346a30.62473,30.62473,0,0,1,16.51124,5.11842l-4.78765,8.66823c-4.376-2.559-8.751-4.12757-11.97058-4.12757-3.05488,0-4.623,1.32065-4.623,3.05439v.16514c0,2.47664,4.20942,3.63263,8.998,5.28356,6.19208,2.064,13.374,5.03609,13.374,13.12657v.16514c0,9.82423-7.34758,14.2816-16.92386,14.2816A30.99774,30.99774,0,0,1,146.26707,235.19338Z"/><path class="cls-2" d="M191.42289,180.78966h13.20842v11.14488H191.42289Zm.33028,16.01582H204.301v44.2497H191.75317Z"/><path class="cls-2" d="M213.46181,228.3417v-.16514c0-9.65908,7.34759-14.11694,17.83238-14.11694a31.44517,31.44517,0,0,1,10.81507,1.81608v-.7429c0-5.20123-3.21954-8.09048-9.49394-8.09048a32.55576,32.55576,0,0,0-12.21853,2.39383l-3.13721-9.57627a39.04521,39.04521,0,0,1,17.17181-3.54982c6.85168,0,11.805,1.81607,14.94217,4.95328,3.30282,3.30234,4.78861,8.17281,4.78861,14.11693v25.67491H242.02693v-4.78862c-3.05487,3.38516-7.26526,5.61384-13.374,5.61384C220.31445,241.8804,213.46181,237.09275,213.46181,228.3417Zm28.81211-2.88973v-2.22869a19.454,19.454,0,0,0-8.00815-1.65141c-5.36589,0-8.66776,2.14684-8.66776,6.10927v.16514c0,3.38467,2.80693,5.36637,6.85169,5.36637C238.31149,233.21265,242.27392,229.99263,242.27392,225.452Z"/></svg>