<?xml version="1.0" encoding="utf-8"?>
<!-- Generator: Adobe Illustrator 23.1.1, SVG Export Plug-In . SVG Version: 6.00 Build 0)  -->
<svg version="1.1" id="Layer_1" xmlns="http://www.w3.org/2000/svg" xmlns:xlink="http://www.w3.org/1999/xlink" x="0px" y="0px"
	 viewBox="0 0 658 192" style="enable-background:new 0 0 658 192;" xml:space="preserve">
<style type="text/css">
	.st0{fill:#FFFFFF;}
	.st1{fill:#231F20;}
</style>
<path class="st1" d="M15.4,58.3c-0.1,8.1,0,8,8,8.1c3.3,0.1,4-1.2,4-4.2c-0.1-8.3-0.6-16.6-0.1-24.9c0.1-1.8,0.6-2.2,2.3-2.2
	c19.2,0.1,38.5,0.1,57.7,0c2.7,0,3.1,1,3.1,3.3c-0.1,6,0.1,11.9-0.1,17.9c-0.1,2.8,0.9,3.6,3.6,3.6c6.2-0.1,12.4,0,18.6-0.1
	c1.7,0,2.8,0.4,2.6,2.4c-0.5,3.7,1.4,4.5,4.6,4.1c1.4-0.1,2.9-0.1,4.3,0c2,0.2,2.8-0.8,2.8-2.7c0-3.4,0-6.9,0.1-10.3
	c0-1.2-0.6-2.4-1.5-3.1c-8.2-8.1-16.3-16.2-24.3-24.4c-1.4-1.5-3.5-2.3-5.6-2.2c-11.2,0.1-22.3,0-33.5,0c-11.5,0-23,0-34.5,0
	c-5.8-0.1-10.7,4.1-11.4,9.8C14.8,41.7,15.5,50,15.4,58.3z"/>
<path class="st1" d="M80,147.7c-16.6,0-33.2,0-49.7,0c-1.1,0-3.2,0.8-2.9-1.5c0.7-4.6-1.8-4.9-5.3-4.5c-1.5,0.1-3.1,0.1-4.6,0
	c-1.2,0-1.9,0.4-2.1,1.6c-0.8,8.6,3.6,16,12.4,16c14.4-0.1,28.7,0,43.1,0v0c7,0,14,0,20.9,0c0.3-3.9,0.8-7.7,1.3-11.6
	C88.8,147.7,84.4,147.7,80,147.7z"/>
<path class="st1" d="M97.8,158.5c0,0.3-0.1,0.6-0.1,0.9l0.1,0V158.5z"/>
<path class="st1" d="M127.9,98.4c-1.5-10.5-14.1-15.6-22.4-9.2c-1.6,1.2-2.4,2.6-1.1,4.4c1.2,1.8,2.8,1.6,4.5,0.5
	c6.1-3.8,12.5-0.8,13.4,6.3c1.7,13,3.5,26.1,5.2,39.1h2.2v16.9c0.2,1.6,0.4,3.2,0.6,4.8c1.1,6.4-1.9,12.7-7.4,16.1
	c-5.2,3.8-12.3,3.9-17.6,0.3c-5.8-3.6-8.6-9-7.9-15.8c0.1-0.8,0.2-1.5,0.3-2.3c-1.9,0-3.9,0-5.8,0c-0.1,1-0.2,2-0.2,3
	c-0.8,12.2,8.3,22.7,20.5,23.6c0.5,0,1,0.1,1.4,0.1c12.8,0.2,22.9-10.1,22.7-24.5c-0.6-4.5-1.4-10.5-2.2-16.5
	C132.1,129.4,130.1,113.9,127.9,98.4z"/>
<path class="st1" d="M97.8,139.5h2.5c0.3-1.9,0.5-3.7,0.8-5.6c0.7-5.6,1.5-11.1,2.3-16.7c0.4-3-1.2-4.8-3.6-4.2
	c-1.8,0.5-2.2,2-2.4,3.6c-0.8,6.1-1.6,12.2-2.4,18.3c-0.5,4.3-1.2,8.6-1.8,13c1.5,0,3.1,0,4.6,0L97.8,139.5z"/>
<path class="st1" d="M97.8,158.5v-10.7c-1.5,0-3.1,0-4.6,0c-0.5,3.9-1,7.7-1.3,11.6c1.9,0,3.9,0,5.8,0
	C97.8,159,97.8,158.7,97.8,158.5z"/>
<path class="st1" d="M129.7,139.5h-2.2c0.7,5.6,1.5,11.2,2.2,16.9V139.5z"/>
<path class="st1" d="M97.8,147.7c0.5,0,0.9,0,1.4,0c0.4-2.8,0.8-5.5,1.1-8.3h-2.5V147.7z"/>
<path class="st1" d="M97.8,147.7v10.7c0.4-3.6,0.9-7.1,1.4-10.7C98.7,147.7,98.3,147.7,97.8,147.7z"/>
<path class="st1" d="M112.7,75.2c-11,3.5-21.8,7.4-32.7,11.1c-1.9,0.5-3.2,2.3-2.9,4.3c0.1,3.7,0,7.4,0,11.2h0c0,3.9,0,7.8,0,11.7
	c0,1.7,0.5,3.1,2.2,3.7c2.5,0.9,5.1,1.7,7.6,2.5c1.5,0.5,3.2-0.4,3.7-1.9c0.5-1.5-0.3-3-1.7-3.6c-1.3-0.5-2.6-1-3.9-1.3
	c-1.2-0.2-2.1-1.3-1.9-2.5c0,0,0-0.1,0-0.1c0.1-5.6,0.1-11.3,0-16.9c-0.2-1.1,0.5-2.2,1.7-2.5c10-3.3,20-6.9,30-10
	c9.9-3.2,20.5,2.3,23.6,12.2c0.2,0.7,0.4,1.4,0.5,2.1c1.3,7.1,1.5,14.3-3.1,20.7c-1.1,1.5-1.1,3.2,0.6,4.3c1.6,1.1,3.1,0.6,4.2-1
	c0.6-0.9,1.2-1.7,1.7-2.6c3.3-5.7,3.4-12.1,3.1-18.4c-0.6-13.9-12.3-24.7-26.2-24.1C117.1,74.1,114.9,74.5,112.7,75.2z"/>
<path class="st1" d="M102.4,104.8c2.7,0,5.4,0,8,0c2.1,0,3.7-0.7,3.8-2.9c0-2.3-1.5-3.1-3.6-3.1c-5.4,0-10.9,0-16.3,0
	c-2,0-3.5,0.8-3.5,2.9c0,2.3,1.5,3.1,3.6,3.1C97.1,104.8,99.7,104.8,102.4,104.8z"/>
<path class="st1" d="M17.7,113c0.1,3,1.7,5.1,4.8,5c2.8-0.1,4.6-1.9,4.6-4.8c0.1-7.5,0.1-15.1,0-22.6c0-3.1-1.8-5-4.8-5
	c-3.1,0-4.6,2.2-4.6,5.2c-0.1,3.6,0,7.1,0,10.7C17.6,105.3,17.5,109.2,17.7,113z"/>
<path class="st1" d="M42.3,85.6c-3.3,0-4.8,2.2-4.8,5.4c0,3.7,0,7.4,0,11.1c0,3.4,0,6.9,0,10.3c0,3.2,1.4,5.5,4.7,5.6
	c3.3,0,4.8-2.2,4.8-5.4c0-7.1,0-14.3,0-21.4C47,88,45.6,85.7,42.3,85.6z"/>
<path class="st1" d="M66.7,90.6c-0.1-3-1.7-5.1-4.8-5c-3.1,0-4.6,2.1-4.7,5.2c0,7.4-0.1,14.8,0,22.2c0,3,1.7,5.1,4.8,5
	c3.1,0,4.6-2.1,4.7-5.2c0.1-3.6,0-7.1,0-10.7C66.8,98.3,66.8,94.5,66.7,90.6z"/>
<circle class="st1" cx="113.5" cy="163.2" r="6"/>
<path class="st1" d="M182,102.4h-11.3v-7.6h30.9v7.6h-11.3v29.7H182V102.4z"/>
<path class="st1" d="M200,118v-0.1c0-8.1,5.8-14.9,14.1-14.9c9.5,0,13.9,7.4,13.9,15.5c0,0.6-0.1,1.4-0.1,2.1H208
	c0.5,3.4,3.6,5.8,7,5.6c2.6,0,5.1-1,6.9-2.9l4.6,4.1c-2.8,3.5-7.1,5.5-11.7,5.3C206.3,132.8,200,126.8,200,118z M220.1,115.6
	c-0.5-3.6-2.6-6.1-6-6.1c-3.4,0-5.5,2.4-6.2,6.1H220.1z"/>
<path class="st1" d="M234,103.6h8.1v5.8c1.7-3.9,4.3-6.5,9.1-6.3v8.5h-0.4c-5.4,0-8.7,3.2-8.7,10.1v10.5H234L234,103.6z"/>
<path class="st1" d="M254,128.4l3.5-5.3c2.6,2,5.7,3.2,9,3.4c2.3,0,3.4-0.9,3.4-2.1v-0.1c0-1.8-2.8-2.3-5.9-3.3
	c-4-1.2-8.5-3-8.5-8.6v-0.1c0-5.8,4.7-9.1,10.4-9.1c3.8,0.1,7.5,1.2,10.6,3.3l-3.1,5.6c-2.8-1.7-5.6-2.7-7.7-2.7c-2,0-3,0.9-3,2v0.1
	c0,1.6,2.7,2.3,5.8,3.4c4,1.3,8.6,3.2,8.6,8.5v0.1c0,6.3-4.7,9.2-10.9,9.2C261.8,132.6,257.5,131.1,254,128.4z"/>
<path class="st1" d="M281.6,118v-0.1c0-8.1,5.8-14.9,14.1-14.9c9.5,0,13.9,7.4,13.9,15.5c0,0.6-0.1,1.4-0.1,2.1h-19.9
	c0.5,3.4,3.6,5.8,7,5.6c2.6,0,5.1-1,6.9-2.9l4.6,4.1c-2.8,3.5-7.1,5.5-11.7,5.3C287.9,132.8,281.6,126.8,281.6,118z M301.7,115.6
	c-0.5-3.6-2.6-6.1-6-6.1c-3.4,0-5.5,2.4-6.2,6.1H301.7z"/>
<path class="st1" d="M316.5,94.9H331c11.7,0,19.8,8,19.8,18.5v0.1c0,10.5-8.1,18.6-19.8,18.6h-14.5V94.9z M331,124.7
	c6.7,0,11.2-4.5,11.2-11.1v-0.1c0-6.6-4.5-11.2-11.2-11.2h-6.3v22.5L331,124.7z"/>
<path class="st1" d="M355.9,118v-0.1c0-8.1,5.8-14.9,14.1-14.9c9.5,0,13.9,7.4,13.9,15.5c0,0.6-0.1,1.4-0.1,2.1h-19.9
	c0.5,3.4,3.6,5.8,7,5.6c2.6,0,5.1-1,6.9-2.9l4.6,4.1c-2.8,3.5-7.1,5.5-11.7,5.3C362.2,132.8,355.9,126.8,355.9,118z M376,115.6
	c-0.5-3.6-2.6-6.1-6-6.1c-3.4,0-5.5,2.4-6.2,6.1H376z"/>
<path class="st1" d="M388.5,118v-0.1c-0.1-8.1,6.4-14.7,14.4-14.9c0.2,0,0.3,0,0.5,0c5.4,0,8.7,1.8,11.4,4.8l-5,5.3
	c-1.8-1.9-3.6-3.1-6.5-3.1c-4,0-6.9,3.6-6.9,7.8v0.1c0,4.4,2.8,7.9,7.2,7.9c2.7,0,4.6-1.2,6.5-3l4.7,4.8c-2.9,3.5-7.2,5.4-11.7,5.2
	c-8,0.2-14.7-6.2-14.9-14.3C388.5,118.3,388.5,118.2,388.5,118z"/>
<path class="st1" d="M418.1,118v-0.1c0-8.2,6.6-14.9,15.5-14.9c8.8,0,15.4,6.5,15.4,14.7v0.1c0,8.2-6.6,14.9-15.5,14.9
	C424.7,132.8,418.1,126.2,418.1,118z M441,118v-0.1c0.2-4.2-3.1-7.7-7.3-7.9c-0.1,0-0.2,0-0.2,0c-4.6,0-7.4,3.6-7.4,7.8v0.1
	c-0.2,4.2,3.1,7.7,7.3,7.9c0.1,0,0.2,0,0.2,0C438.2,125.8,441,122.2,441,118z"/>
<path class="st1" d="M454.8,103.6h8.1v4c1.9-2.4,4.3-4.6,8.4-4.6c3.7,0,6.5,1.7,8,4.5c2.2-2.9,5.7-4.6,9.4-4.5c6,0,9.6,3.6,9.6,10.5
	v18.6h-8.1v-15.9c0-3.8-1.7-5.8-4.7-5.8c-3,0-4.9,2-4.9,5.8v15.9h-8.1v-15.9c0-3.8-1.7-5.8-4.7-5.8c-3,0-4.9,2-4.9,5.8v15.9h-8.1
	V103.6z"/>
<path class="st1" d="M505.4,103.6h8.1v4.1c2-3,5.3-4.7,8.9-4.6c6.7,0,13,5.2,13,14.7v0.1c0,9.5-6.2,14.7-13,14.7
	c-3.5,0.1-6.8-1.5-8.9-4.3v12.2h-8.1V103.6z M527.3,117.9v-0.1c0-4.7-3.2-7.9-7-7.9c-3.8,0-6.9,3.1-6.9,7.9v0.1
	c0,4.7,3.1,7.9,6.9,7.9C524.1,125.8,527.3,122.7,527.3,117.9z"/>
<path class="st1" d="M541.4,103.6h8.1v5.8c1.7-3.9,4.3-6.5,9.1-6.3v8.5h-0.4c-5.4,0-8.7,3.2-8.7,10.1v10.5h-8.1L541.4,103.6z"/>
<path class="st1" d="M561.4,118v-0.1c0-8.1,5.8-14.9,14.1-14.9c9.5,0,13.9,7.4,13.9,15.5c0,0.6-0.1,1.4-0.1,2.1h-19.9
	c0.5,3.4,3.6,5.8,7,5.6c2.6,0,5.1-1,6.9-2.9l4.6,4.1c-2.8,3.5-7.1,5.5-11.7,5.3C567.8,132.8,561.4,126.8,561.4,118z M581.6,115.6
	c-0.5-3.6-2.6-6.1-6-6.1c-3.4,0-5.5,2.4-6.2,6.1H581.6z"/>
<path class="st1" d="M593.2,128.4l3.5-5.3c2.6,2,5.7,3.2,9,3.4c2.3,0,3.4-0.9,3.4-2.1v-0.1c0-1.8-2.8-2.3-5.9-3.3
	c-4-1.2-8.5-3-8.5-8.6v-0.1c0-5.8,4.7-9.1,10.4-9.1c3.8,0.1,7.5,1.2,10.6,3.3l-3.1,5.6c-2.8-1.7-5.6-2.7-7.7-2.7c-2,0-3,0.9-3,2v0.1
	c0,1.6,2.7,2.3,5.8,3.4c4,1.3,8.6,3.2,8.6,8.5v0.1c0,6.3-4.7,9.2-10.9,9.2C601,132.6,596.7,131.1,593.2,128.4z"/>
<path class="st1" d="M619.4,128.4l3.5-5.3c2.6,2,5.7,3.2,9,3.4c2.3,0,3.4-0.9,3.4-2.1v-0.1c0-1.8-2.8-2.3-5.9-3.3
	c-4-1.2-8.5-3-8.5-8.6v-0.1c0-5.8,4.7-9.1,10.4-9.1c3.8,0.1,7.5,1.2,10.6,3.3l-3.1,5.6c-2.8-1.7-5.6-2.7-7.7-2.7c-2,0-3,0.9-3,2v0.1
	c0,1.6,2.7,2.3,5.8,3.4c4,1.3,8.6,3.2,8.6,8.5v0.1c0,6.3-4.7,9.2-10.9,9.2C627.2,132.6,622.9,131.1,619.4,128.4z"/>
<path class="st1" d="M479.7,49.5h-5.1V68h1.4v-8.6h3.5c1.6,0.1,3.3-0.4,4.6-1.3c1.1-0.9,1.6-2.2,1.6-3.6c0.1-1.4-0.5-2.7-1.6-3.6
	C482.9,49.9,481.3,49.4,479.7,49.5z M483,57.2c-1,0.7-2.3,1.1-3.5,1H476v-7.5h3.6c1.2-0.1,2.4,0.3,3.4,1c1.5,1.4,1.6,3.8,0.2,5.3
	C483.1,57.1,483,57.2,483,57.2z"/>
<path class="st1" d="M497.9,58.8c2.3-0.9,3.5-2.4,3.5-4.5c0.1-1.3-0.5-2.6-1.6-3.5c-1.3-0.9-2.9-1.4-4.6-1.3h-4.7V68h1.4v-8.9h2.5
	c0.9-0.1,1.8,0.2,2.6,0.6c1,0.9,1.9,2,2.5,3.2l3.2,5.1h1.7l-4.2-6.4C499.8,60.5,499,59.6,497.9,58.8z M495.1,58H492v-7.2h3
	c1.3-0.1,2.5,0.3,3.6,1c1.5,1.2,1.7,3.4,0.5,4.9c-0.1,0.2-0.3,0.3-0.4,0.4C497.6,57.7,496.4,58.1,495.1,58L495.1,58z"/>
<path class="st1" d="M516.9,49.3c-2.6-0.1-5.1,0.9-6.9,2.8c-3.7,3.6-3.8,9.6-0.2,13.3c0.1,0.1,0.1,0.1,0.2,0.2
	c3.9,3.7,10,3.7,13.9,0c3.7-3.6,3.8-9.5,0.2-13.2c-0.1-0.1-0.2-0.2-0.2-0.2C522,50.2,519.5,49.2,516.9,49.3z M522.8,64.6
	c-1.5,1.6-3.6,2.4-5.8,2.4c-2.2,0-4.3-0.8-5.9-2.4c-3.2-3.2-3.2-8.4,0-11.6c0,0,0,0,0,0c1.6-1.6,3.7-2.4,5.9-2.4
	c2.2,0,4.3,0.8,5.8,2.4C526,56.2,526,61.4,522.8,64.6z"/>
<path class="st1" d="M532.5,68.4c0,2.5-0.9,3.7-2.6,3.7c-0.3,0-0.6,0-0.8-0.1l0.1,1.4c0.3,0,0.6,0.1,0.9,0.1c1,0,2-0.4,2.7-1.2
	c0.8-0.8,1.2-2.2,1.2-4.2V49.5h-1.4V68.4z"/>
<polygon class="st1" points="541.7,59.3 550.1,59.3 550.1,58.1 541.7,58.1 541.7,50.7 550.3,50.7 550.3,49.5 540.2,49.5 540.2,68 
	550.5,68 550.5,66.8 541.7,66.8 "/>
<path class="st1" d="M558.7,64.7c-1.6-1.5-2.4-3.7-2.3-5.8c-0.1-2.2,0.8-4.3,2.3-5.9c1.5-1.5,3.6-2.4,5.8-2.3c2.3,0,4.6,0.7,6.6,1.8
	v-1.6c-2-1-4.2-1.5-6.5-1.5c-2.6,0-5,0.9-6.8,2.7c-3.8,3.7-3.8,9.7-0.2,13.4c0,0,0.1,0.1,0.1,0.1c1.9,1.8,4.4,2.8,7,2.7
	c2.3,0,4.5-0.6,6.6-1.7v-1.5c-2,1.2-4.3,1.8-6.6,1.9C562.5,67,560.3,66.2,558.7,64.7z"/>
<polygon class="st1" points="574.2,49.5 574.2,50.7 581.1,50.7 581.1,68 582.6,68 582.6,50.7 589.5,50.7 589.5,49.5 "/>
<polygon class="st1" points="270.2,56.5 263.9,48.8 258.3,48.8 258.3,69.3 264.3,69.3 264.3,57.5 269.9,64.3 270.4,64.3 276,57.5 
	276,69.3 282.2,69.3 282.2,48.8 276.6,48.8 "/>
<path class="st1" d="M294,48.8l-9.1,20.5h6.3l1.7-4.2h8.9l1.7,4.2h6.3l-9-20.5H294z M294.4,61.6l3-7.5l3,7.5H294.4z"/>
<rect x="312.6" y="48.8" class="st1" width="6.2" height="20.5"/>
<polygon class="st1" points="340.1,60.2 329.5,48.8 324,48.8 324,69.3 330.1,69.3 330.1,57.9 340.8,69.3 346.3,69.3 346.3,48.8 
	340.1,48.8 "/>
<polygon class="st1" points="351.4,69.3 357.6,69.3 357.6,61 366.1,61 366.1,56.9 357.6,56.9 357.6,52.9 366.1,52.9 366.1,48.8 
	351.4,48.8 "/>
<path class="st1" d="M386.3,61.7c-0.5-0.6-1-1-1.6-1.4c0.5-0.3,1-0.6,1.5-0.9c0.5-0.4,1-1,1.3-1.6c0.4-0.8,0.6-1.7,0.6-2.6
	c0-1-0.3-1.9-0.7-2.8c-0.5-1-1.3-1.9-2.3-2.5c-1.3-0.7-2.7-1.1-4.2-1h-10.5v20.5h6.2v-8h0.7c0.6,0,1.2,0.1,1.7,0.3
	c0.6,0.3,1,0.7,1.4,1.2c0.6,0.9,1.2,1.9,1.6,2.9l1.6,3.6h6.6l-2.1-4.5C387.6,63.8,387,62.7,386.3,61.7z M380.9,57.2
	c-1,0.4-2,0.6-3.1,0.5h-1.3v-4.9h1.3c1-0.1,2.1,0.1,3,0.6c0.7,0.4,1,1.2,0.9,2C381.8,56,381.5,56.8,380.9,57.2L380.9,57.2z"/>
<path class="st1" d="M399.6,48.8l-9.1,20.5h6.3l1.7-4.2h8.9l1.7,4.2h6.3l-9-20.5H399.6z M400,61.6l3-7.5l3,7.5H400z"/>
<polygon class="st1" points="430.1,56.5 423.8,48.8 418.2,48.8 418.2,69.3 424.2,69.3 424.2,57.5 429.8,64.3 430.3,64.3 435.8,57.5 
	435.8,69.3 442,69.3 442,48.8 436.4,48.8 "/>
<polygon class="st1" points="453.4,60.8 462,60.8 462,56.7 453.4,56.7 453.4,52.9 462.4,52.9 462.4,48.8 447.2,48.8 447.2,69.3 
	462.7,69.3 462.7,65.2 453.4,65.2 "/>
<path class="st1" d="M181.6,49.5c-2.9-0.1-5.7,1.1-7.7,3.1c-4.2,4-4.2,10.7-0.2,14.8c0.1,0.1,0.1,0.1,0.2,0.2
	c4.4,4.1,11.2,4.1,15.5,0c4.2-4,4.3-10.6,0.3-14.8c-0.1-0.1-0.2-0.2-0.3-0.3C187.3,50.6,184.5,49.4,181.6,49.5z M188.1,66.6
	c-1.7,1.7-4.1,2.7-6.5,2.6c-2.5,0.1-4.8-0.9-6.6-2.6c-3.6-3.6-3.6-9.4,0-13c0,0,0,0,0,0c1.7-1.7,4.1-2.7,6.6-2.6
	c2.4-0.1,4.8,0.9,6.5,2.6C191.7,57.2,191.7,63,188.1,66.6z"/>
<path class="st1" d="M202.1,49.8h-5.7v20.7h1.6v-9.7h4c1.8,0.1,3.7-0.4,5.1-1.5c1.2-1,1.8-2.5,1.8-4.1c0.1-1.5-0.6-3-1.7-4
	C205.7,50.2,203.9,49.7,202.1,49.8z M205.8,58.4c-1.1,0.8-2.5,1.2-3.9,1.1H198v-8.3h4c1.4-0.1,2.7,0.3,3.8,1.1
	c1.7,1.6,1.8,4.2,0.2,5.9C205.9,58.2,205.9,58.3,205.8,58.4L205.8,58.4z"/>
<polygon class="st1" points="213.5,60.7 222.9,60.7 222.9,59.4 213.5,59.4 213.5,51.1 223.2,51.1 223.2,49.8 211.9,49.8 211.9,70.4 
	223.4,70.4 223.4,69.1 213.5,69.1 "/>
<polygon class="st1" points="243.7,67.8 228.1,49.8 226.7,49.8 226.7,70.4 228.3,70.4 228.3,52.4 244,70.4 245.3,70.4 245.3,49.8 
	243.7,49.8 "/>
</svg>
