<svg id="Layer_1" data-name="Layer 1" xmlns="http://www.w3.org/2000/svg" viewBox="0 0 360 360"><title>zowe-logo-icon-black</title><polygon points="221.849 18.788 221.847 18.796 15.203 155.227 86.249 154.113 182.954 86.342 202.81 126.876 198.275 152.628 314.337 192.45 250.889 170.684 268.454 196.557 164.652 270.295 155.51 257.12 161.618 204.808 161.67 204.828 169.522 137.106 169.522 137.106 169.522 137.106 102.964 182.342 86.254 154.115 15.2 155.228 145.865 339.723 146.345 335.614 145.865 341.332 342.996 202.283 343 202.285 221.849 18.788"/><polygon points="191.001 212.42 250.886 170.683 198.272 152.633 191.001 212.42"/><polygon points="250.886 170.683 250.889 170.684 250.888 170.681 250.886 170.683"/></svg>