<?xml version="1.0" encoding="UTF-8"?>
<svg id="Layer_1" data-name="Layer 1" xmlns="http://www.w3.org/2000/svg" viewBox="0 0 298 353.85974">
  <defs>
    <style>
      .cls-1 {
        opacity: .5;
      }
    </style>
  </defs>
  <g>
    <polygon points="181.95599 55.78201 29.20203 156.63302 90.47742 158.70108 163.25922 107.69461 181.95599 55.78201"/>
    <path d="m125.78699,294.20199l145.72302-102.784-106.60724-37.4035.26147,7.36945c-3.58533-2.90717-8.14905-4.65515-13.12457-4.65515-5.79114,0-11.02832,2.36237-14.80811,6.17273l-.38538-6.95618-34.22626,23.26208,36.3252,14.62262.00781-.00525c3.57977,2.88934,8.12817,4.62683,13.08673,4.62683,5.51202,0,10.51001-2.15356,14.23956-5.64514l.29272,8.24963,43.50281-30.3197,12.76056,18.79633-80.94263,57.49951-16.10571,47.16974Zm26.25269-101.86053c-8.14685,0-14.75122-6.60437-14.75122-14.75122s6.60437-14.75128,14.75122-14.75128,14.75128,6.60437,14.75128,14.75128-6.60437,14.75122-14.75128,14.75122Z"/>
  </g>
  <path class="cls-1" d="m181.95599,55.78201L29.20203,156.63302l96.58496,137.56897,145.72302-102.784L181.95599,55.78201Zm-43.01086,138.04803l5.42969-3.65387c-4.24384-2.59039-7.08636-7.25024-7.08636-12.58594,0-1.35553.19806-2.66217.54041-3.90894l-.98267-17.73596-34.22626,23.26208-12.14252-20.50635,72.7818-51.00647,1.97296,55.60443-4.05206,2.72687c3.41357,2.70178,5.61084,6.87286,5.61084,11.56433,0,1.74536-.31891,3.41229-.87543,4.96631l.65643,18.49957,43.50281-30.3197,12.76056,18.79633-80.94263,57.49951-2.94757-53.20221Z"/>
</svg>