<?xml version="1.0" encoding="UTF-8" standalone="no"?>
<svg
   id="a"
   viewBox="0 0 624.24 469.28"
   version="1.1"
   xmlns="http://www.w3.org/2000/svg"
   xmlns:svg="http://www.w3.org/2000/svg">
  <defs
     id="defs4">
    <style
       id="style2">.b{font-family:OpenSans-Bold, Open Sans;font-size:31px;letter-spacing:.1em;}.c{opacity:.9;}</style>
  </defs>
  <g
     id="g252">
    <path
       id="polygon6"
       d="m 367.16,243.95 1.1,3.16 h 0.14 l 1.92,-5.34 z" />
    <path
       d="m 243.28,69.94 c -0.06,0.68 -0.23,1.36 -0.49,2.01 0.26,-0.65 0.42,-1.32 0.49,-2.01 z"
       id="path8" />
    <path
       d="m 252.2,62.18 v 0 c 0.26,-0.02 0.52,0 0.78,0.02 -0.26,-0.03 -0.51,-0.04 -0.77,-0.02 z"
       id="path10" />
    <path
       d="m 332.03,239.77 0.11,-1.08 c -0.21,0.1 -0.4,0.2 -0.62,0.29 l 0.5,0.79 z"
       id="path12" />
    <path
       d="m 231.02,64.19 c -0.08,0.08 -0.15,0.17 -0.23,0.26 0.08,-0.09 0.15,-0.18 0.24,-0.26 v 0 z"
       id="path14" />
    <path
       d="m 343.87,128.61 c -3.46,0.48 -6.4,1.85 -8.73,3.86 2.33,-2.01 5.27,-3.38 8.73,-3.86 z"
       id="path16" />
    <path
       d="m 321.13,224.66 v 11.17 h 3.88 c 2.6,0 4.49,-0.48 5.65,-1.45 1.16,-0.97 1.75,-2.4 1.75,-4.3 0,-1.9 -0.63,-3.32 -1.89,-4.16 -1.26,-0.84 -3.16,-1.26 -5.7,-1.26 z"
       id="path18" />
    <path
       d="M 548.39,7.38 H 464.5 l 37.48,54.35 c 0.59,0.32 1.15,0.71 1.66,1.19 v 0 c 1.28,1.22 2.01,2.79 2.2,4.41 l 4.54,6.58 V 60.95 h 1.11 v 14.5 c 0,0 0,0.05 0,0.08 l 25.33,36.73 c 18.47,2.88 27,18.97 27,36.42 0,0.81 -0.04,1.68 -0.09,2.59 l 48,69.6 V 70.72 c 0,-34.98 -28.36,-63.35 -63.35,-63.35 z m -23.9,68.04 h -8.04 V 60.96 h 7.89 v 0.93 h -6.77 v 5.78 h 6.59 v 0.94 h -6.59 v 5.87 h 6.92 z m 16.21,-1.14 c -1.57,0.87 -3.32,1.33 -5.12,1.35 -2.05,0.07 -4.03,-0.7 -5.51,-2.12 -2.89,-2.89 -2.89,-7.58 0,-10.47 v 0 c 0,0 0.07,-0.07 0.1,-0.11 1.43,-1.39 3.36,-2.16 5.35,-2.13 1.74,0.03 3.46,0.44 5.03,1.19 v 0 l 0.06,0.03 c 0,0 -0.04,-0.02 -0.06,-0.03 v 1.21 c -1.58,-0.9 -3.35,-1.4 -5.16,-1.45 -1.69,-0.04 -3.31,0.63 -4.49,1.84 -1.21,1.21 -1.87,2.87 -1.81,4.58 -0.07,1.72 0.59,3.39 1.81,4.61 1.24,1.2 2.92,1.85 4.65,1.79 1.81,-0.05 3.58,-0.55 5.14,-1.45 v 1.16 z m 14.25,-12.39 h -5.42 V 75.42 H 548.4 V 61.89 h -5.44 v -0.93 h 11.99 z"
       id="path20" />
    <path
       d="m 254.38,68.26 c 0.24,-0.11 0.48,-0.25 0.71,-0.41 0.5,-0.46 0.82,-1.04 0.96,-1.65 -0.14,0.61 -0.46,1.19 -0.96,1.65 -0.22,0.16 -0.46,0.29 -0.71,0.41 z"
       id="path22" />
    <path
       d="m 255.93,64.34 c -0.14,-0.4 -0.37,-0.78 -0.68,-1.11 -0.04,-0.06 -0.1,-0.12 -0.16,-0.16 0.06,0.04 0.12,0.1 0.16,0.16 0.31,0.33 0.53,0.71 0.68,1.11 z"
       id="path24" />
    <path
       id="polygon26"
       d="m 329.06,70.39 -2.35,-5.8 z" />
    <path
       d="m 412.94,230.5 c -0.23,-0.62 -0.56,-1.6 -0.97,-2.94 -0.41,-1.34 -0.7,-2.32 -0.85,-2.94 -0.42,1.92 -1.04,4.01 -1.85,6.28 l -3.08,8.9 h 9.95 z"
       id="path28" />
    <path
       d="m 203.92,142.28 -37.21,25.66 -0.35,0.95 86.27,-59.5 H 227.61 V 92.28 h 49.83 l 14.45,-9.96 -1.06,9.96 h 9.15 v 14.83 l -12.25,14.25 -4.53,42.52 h 16.78 v 17.11 h -18.6 l -4.44,41.7 c 2.67,-2.18 6.18,-3.29 10.57,-3.29 5.08,0 9,1.53 11.77,4.6 2.77,3.07 4.16,7.39 4.16,12.96 0,5.57 -1.39,9.88 -4.17,12.96 -2.78,3.08 -6.72,4.62 -11.81,4.62 -5.09,0 -9.11,-1.53 -11.88,-4.59 -0.5,-0.56 -0.94,-1.17 -1.35,-1.81 l -3.14,29.48 h 144.45 l 39.89,-27.51 -14.35,-23.25 h -0.19 l 0.12,1.52 c 0.22,2.9 0.33,5.54 0.33,7.94 v 17.75 h -5.07 v -34.15 h 6.77 l 16.75,27.07 h 0.14 c -0.03,-0.36 -0.09,-1.66 -0.19,-3.91 -0.1,-2.25 -0.14,-4.01 -0.14,-5.27 v -17.89 h 5.12 v 23.78 l 20.01,-13.8 v -5.19 h -10.04 v -4.79 h 10.45 l -26.51,-38.44 h -0.9 l -71.65,49.41 v 23.18 h -5.37 v -16.89 c 0,-0.76 0.01,-1.64 0.03,-2.6 l -4.12,2.84 -6,16.65 h -4.93 l -2.55,-7.35 -7.14,4.92 v 2.43 h -3.52 l -23.69,16.34 2.39,-22.46 -4.51,-7.53 h -5.51 v 13.64 h -5.58 v -34.15 h 9.65 c 3.75,0 6.66,0.6 8.75,1.8 l 4.27,-40.1 c -16.66,-3.53 -28.23,-17.41 -28.23,-34.23 v -0.25 c 0,-19.14 15.12,-34.74 35.67,-35.33 l 3.77,-35.4 h -1.97 V 60.37 h 3.68 L 354.38,30.28 338.57,7.35 H 303.39 L 172.92,97.33 Z m 204.19,77.52 h 6.07 l 12.78,34.29 h -5.93 l -3.41,-9.48 h -13.06 l -3.34,9.48 h -5.89 z M 338.57,60.4 h 4.82 v 16.03 h -4.82 z m -14.55,0 h 5.41 l 7,16.03 h -4.94 l -1.32,-3.25 h -6.96 l -1.33,3.25 h -4.94 l 7.09,-16.03 z m -27.88,0 h 4.38 l 4.93,6.01 4.94,-6.01 h 4.39 v 16.03 h -4.84 v -9.29 l -4.35,5.38 h -0.39 l -4.37,-5.38 v 9.29 h -4.69 z m -24.71,0.74 h 1.06 l 12.24,14.12 V 61.14 h 1.25 V 77.3 h -1.03 L 272.68,63.16 V 77.3 h -1.25 z m -11.57,0 h 8.81 v 1.04 h -7.57 v 6.46 h 7.37 v 1.04 h -7.37 v 6.56 h 7.76 v 1.05 h -9 V 61.13 Z m -12.12,0 h 4.45 c 1.4,-0.09 2.78,0.32 3.91,1.15 0.11,0.1 0.22,0.21 0.32,0.33 1.53,1.76 1.35,4.43 -0.41,5.96 -1.16,0.86 -2.58,1.27 -4.02,1.17 h -3.09 v 7.52 h -1.24 l 0.07,-16.13 z m -17.81,2.41 0.16,-0.16 c 1.61,-1.59 3.79,-2.45 6.05,-2.41 v -0.04 c 2.27,-0.06 4.46,0.81 6.07,2.41 3.26,3.13 3.37,8.3 0.24,11.56 -0.01,0 -0.03,0.02 -0.04,0.04 l -0.2,0.2 c -3.4,3.21 -8.71,3.21 -12.12,0 -3.24,-3.16 -3.31,-8.35 -0.16,-11.59 z"
       id="path30" />
    <path
       d="m 287.45,249.79 c 3.32,0 5.82,-1.08 7.51,-3.22 1.69,-2.15 2.53,-5.35 2.53,-9.6 0,-4.25 -0.84,-7.37 -2.51,-9.53 -1.67,-2.16 -4.17,-3.25 -7.49,-3.25 -3.32,0 -5.88,1.08 -7.58,3.25 -1.71,2.17 -2.56,5.34 -2.56,9.53 0,4.19 0.85,7.39 2.55,9.57 1.7,2.17 4.21,3.26 7.54,3.26 z"
       id="path32" />
    <path
       id="polygon34"
       d="m 231.02,74.33 -0.01,-0.02 z" />
    <path
       id="polygon36"
       d="m 279.88,342.14 h 42.11 l 30.41,-20.97 h -85.97 l -0.13,1.27 z" />
    <path
       id="polygon38"
       d="M 109.42,277.64 11.74,135.98 V 323.7 342.14 H 153.91 L 139.45,321.17 H 35.44 v -43.53 z" />
    <path
       d="M 75.08,7.38 C 40.1,7.38 11.73,35.74 11.73,70.73 v 40.84 L 162.81,7.38 Z"
       id="path40" />
    <path
       id="polygon42"
       d="m 492.94,321.17 -30.41,20.97 h 149.21 v -102.9 l -55.68,38.4 h 32.91 v 43.53 z" />
    <path
       d="m 329.47,142.35 c 0.16,-0.73 0.35,-1.45 0.58,-2.14 -0.23,0.7 -0.43,1.41 -0.58,2.14 z"
       id="path44" />
    <path
       d="m 330.05,153.61 c -0.34,-1.02 -0.61,-2.07 -0.78,-3.15 0.18,1.08 0.44,2.13 0.78,3.15 z"
       id="path46" />
    <path
       d="m 329,146.9 v 0 c 0,-1.56 0.16,-3.09 0.47,-4.55 -0.31,1.46 -0.47,2.99 -0.47,4.55 z"
       id="path48" />
    <path
       d="m 333.02,159.18 c -1.28,-1.65 -2.29,-3.54 -2.97,-5.57 0.69,2.03 1.69,3.91 2.97,5.57 z"
       id="path50" />
    <path
       d="m 468.92,67.67 c 0.36,0.03 0.71,0 1.06,-0.07 -0.35,0.06 -0.7,0.1 -1.06,0.07 z"
       id="path52" />
    <path
       d="m 471.85,62.77 c 0,0 0.02,0.03 0.03,0.04 v 0 c 0,0 -0.02,-0.02 -0.03,-0.04 l -0.14,-0.16 c -0.76,-0.56 -1.7,-0.84 -2.64,-0.78 v 0 c 0.95,-0.06 1.88,0.22 2.64,0.78 z"
       id="path54" />
    <path
       d="m 471.67,66.91 c -0.4,0.28 -0.84,0.5 -1.31,0.63 0.47,-0.13 0.91,-0.34 1.31,-0.63 z"
       id="path56" />
    <path
       d="m 471.67,66.9 v 0 c 0.1,-0.09 0.18,-0.19 0.26,-0.29 -0.08,0.1 -0.17,0.2 -0.27,0.29 v 0 z"
       id="path58" />
    <path
       d="m 391.91,66.95 c 0.23,-0.17 0.4,-0.39 0.52,-0.64 -0.11,0.25 -0.29,0.47 -0.52,0.64 z"
       id="path60" />
    <g
       class="c"
       id="g64">
      <path
         d="M 563.57,153.75 H 516.3 c 1.9,8.74 7.98,13.31 16.6,13.31 6.46,0 11.15,-2.03 16.47,-6.97 l 11.03,9.76 c -6.34,7.86 -15.46,12.67 -27.75,12.67 -20.4,0 -35.48,-14.32 -35.48,-35.1 v -0.25 c 0,-19.39 13.81,-35.36 33.58,-35.36 2.14,0 4.16,0.16 6.08,0.46 L 511.5,75.54 c 0.1,1.14 -0.22,2.27 -0.9,3.19 -0.55,0.59 -1.33,0.92 -2.13,0.92 -0.22,0 -0.44,0 -0.67,0 l -0.1,-1.05 c 0.21,0.05 0.43,0.07 0.65,0.07 1.36,0 2.03,-0.96 2.03,-2.9 v -1.86 l -4.54,-6.58 c 0.24,2.06 -0.4,4.22 -1.95,5.84 -0.03,0.03 -0.06,0.06 -0.08,0.09 l -0.18,0.18 c -3.05,2.88 -7.81,2.88 -10.86,0 -2.9,-2.82 -2.97,-7.46 -0.15,-10.37 v 0 l 0.14,-0.15 c 2.54,-2.39 6.26,-2.79 9.2,-1.19 L 464.5,7.38 H 338.53 l 15.81,22.93 -3.21,30.09 h 0.61 l 8.29,8.88 V 60.4 h 4.81 v 16.03 h -4.29 l -8.32,-8.93 v 8.93 h -2.81 l -3.77,35.4 c 0.4,-0.01 0.8,-0.03 1.21,-0.03 21.04,0 36.62,15.59 36.62,35.1 v 0.25 c 0,19.52 -15.71,35.36 -36.88,35.36 -2.91,0 -5.72,-0.31 -8.39,-0.88 l -4.27,40.1 c 0.37,0.21 0.72,0.43 1.03,0.68 2.12,1.65 3.18,4.14 3.18,7.47 0,4.04 -2.02,6.96 -6.02,8.8 l -0.11,1.08 9.15,14.33 h -6.35 l -3.67,-6.12 -2.39,22.46 23.69,-16.34 h -1.54 v -34.15 h 7.87 l 8.38,24.01 3.16,-2.18 7.85,-21.83 h 7.9 v 10.97 l 71.65,-49.41 h -4.39 l -13.05,-41.69 -13.31,41.69 h -17.23 l -20.91,-68.43 h 19.52 l 10.9,41.19 12.8,-41.44 h 16.6 l 12.93,41.57 11.15,-41.31 h 19.14 l -21.16,68.43 h -12.07 l 26.51,38.44 h 15.22 v 4.79 h -10.04 v 29.36 h -5.58 v -24.18 l -20.01,13.8 v 10.37 h -6.84 l -2.45,-3.97 -39.89,27.51 H 556.1 l 55.67,-38.4 v -18.37 l -48,-69.6 c -0.05,0.81 -0.11,1.64 -0.16,2.48 z M 380.36,63.62 h -6.65 v 3.1 h 6.65 v 3.22 h -6.65 v 6.49 h -4.83 V 60.4 h 11.48 z m 13.58,12.81 -1.26,-2.9 c -0.34,-0.8 -0.75,-1.57 -1.25,-2.28 -0.27,-0.4 -0.65,-0.72 -1.08,-0.93 -0.44,-0.15 -0.9,-0.22 -1.36,-0.2 h -0.54 v 6.26 h -4.84 V 60.39 h 8.22 c 1.14,-0.05 2.27,0.23 3.26,0.81 0.79,0.47 1.42,1.14 1.84,1.96 0.35,0.68 0.54,1.44 0.55,2.2 0.03,0.71 -0.13,1.42 -0.46,2.06 -0.24,0.47 -0.58,0.88 -0.99,1.22 -0.38,0.27 -0.77,0.51 -1.17,0.73 0.49,0.27 0.92,0.64 1.28,1.07 0.56,0.77 1.04,1.6 1.42,2.48 l 1.58,3.51 h -5.19 z m 20.03,0 -1.3,-3.25 h -6.96 l -1.33,3.25 h -4.96 l 7.09,-16.03 h 5.35 l 7.06,16.03 h -4.94 z m 25.71,0 h -4.82 v -9.29 l -4.37,5.38 h -0.37 l -4.38,-5.38 v 9.29 h -4.69 V 60.4 h 4.4 l 4.91,6.01 4.96,-6.01 h 4.38 v 16.03 z m 16.13,0 H 443.72 V 60.4 h 11.88 v 3.21 h -7.04 v 2.93 h 6.73 v 3.23 h -6.73 v 3.42 h 7.25 v 3.23 z m 16.78,-8.83 c -1.04,0.77 -2.32,1.14 -3.61,1.04 h -2.75 v 6.77 h -1.11 V 60.94 h 3.99 c 1.25,-0.09 2.49,0.28 3.49,1.03 0.83,0.69 1.28,1.73 1.22,2.8 0.05,1.08 -0.4,2.12 -1.22,2.83 z m 14.66,7.81 -2.52,-3.94 c -0.51,-0.93 -1.17,-1.77 -1.96,-2.48 -0.62,-0.36 -1.34,-0.54 -2.06,-0.49 h -2 v 6.94 h -1.11 l 0.04,-14.5 h 3.7 c 1.27,-0.09 2.53,0.27 3.57,1.02 0.82,0.66 1.27,1.67 1.23,2.72 0,1.67 -1.13,3.12 -2.75,3.51 0.8,0.59 1.46,1.35 1.93,2.22 l 3.27,5 z"
         id="path62" />
    </g>
    <path
       d="m 388.45,67.34 h 1.03 c 0.21,0.01 0.42,0.02 0.62,0 -0.21,0 -0.41,0 -0.62,0 z"
       id="path66" />
    <path
       d="m 481.12,61.88 c 0.45,-0.03 0.9,0.02 1.34,0.12 -0.44,-0.1 -0.89,-0.15 -1.34,-0.12 h -2.36 v 0 z"
       id="path68" />
    <path
       id="polygon70"
       d="m 290.83,92.28 1.06,-9.96 -14.45,9.96 z" />
    <path
       id="polygon72"
       d="m 138.03,91.99 -6.73,-9.76 -47.6,32.84 7.76,11.25 31.1,-21.45 -6.34,59.49 6.72,9.76 48.61,-33.52 -7.76,-11.26 -32.1,22.14 z" />
    <path
       id="polygon74"
       d="m 251.19,163.89 h 32.01 l 4.53,-42.53 z" />
    <g
       class="c"
       id="g78">
      <path
         id="polygon76"
         d="m 279.88,342.14 -13.58,-19.7 0.13,-1.27 H 139.45 l 14.46,20.97 z" />
    </g>
    <g
       class="c"
       id="g82">
      <path
         id="polygon80"
         d="M 492.94,321.17 H 352.4 l -30.41,20.97 h 140.54 z" />
    </g>
    <g
       class="c"
       id="g86">
      <path
         d="m 271.07,277.64 3.14,-29.48 c -1.85,-2.89 -2.79,-6.62 -2.79,-11.23 0,-5.64 1.39,-9.97 4.17,-12.99 0.42,-0.45 0.87,-0.86 1.34,-1.24 l 4.44,-41.7 h -55.28 v -14.83 l 48.79,-56.77 h -22.25 l -86.27,59.5 0.35,-0.95 -53.7,37.03 L 50.32,114.07 141.23,51.38 172.92,97.33 303.35,7.38 H 162.81 L 11.74,111.57 v 24.42 l 97.69,141.65 h 161.65 z m -28.21,-57.69 h 19.27 v 4.72 H 248.4 v 10.67 h 12.87 v 4.74 H 248.4 v 14.02 h -5.54 z m -42.25,0 h 6.77 l 16.75,27.07 h 0.14 c -0.03,-0.36 -0.09,-1.66 -0.19,-3.91 -0.1,-2.25 -0.14,-4.01 -0.14,-5.27 v -17.89 h 5.12 v 34.15 h -6.84 l -16.79,-27.21 h -0.19 l 0.12,1.52 c 0.22,2.9 0.33,5.54 0.33,7.94 v 17.75 h -5.07 v -34.15 z m -39.95,3.99 c 2.78,-3.02 6.75,-4.53 11.9,-4.53 5.15,0 9,1.53 11.77,4.6 2.77,3.07 4.16,7.39 4.16,12.96 0,5.57 -1.39,9.88 -4.17,12.96 -2.78,3.08 -6.72,4.62 -11.81,4.62 -5.09,0 -9.11,-1.53 -11.88,-4.59 -2.76,-3.06 -4.15,-7.41 -4.15,-13.05 0,-5.64 1.39,-9.97 4.17,-12.99 z m -37.32,3.76 c 1.3,-2.66 3.18,-4.7 5.64,-6.12 2.46,-1.42 5.35,-2.13 8.67,-2.13 3.49,0 6.71,0.73 9.67,2.2 l -2.01,4.65 c -1.15,-0.54 -2.37,-1.02 -3.66,-1.44 -1.29,-0.41 -2.64,-0.62 -4.05,-0.62 -3.21,0 -5.73,1.14 -7.57,3.41 -1.84,2.27 -2.76,5.41 -2.76,9.41 0,4 0.88,7.36 2.65,9.51 1.77,2.15 4.33,3.22 7.67,3.22 1.45,0 2.85,-0.14 4.2,-0.43 1.36,-0.29 2.76,-0.66 4.23,-1.11 v 4.79 c -2.68,1.01 -5.72,1.52 -9.11,1.52 -5,0 -8.84,-1.51 -11.52,-4.54 -2.68,-3.03 -4.02,-7.36 -4.02,-13 0,-3.55 0.65,-6.66 1.95,-9.32 z"
         id="path84" />
    </g>
    <g
       class="c"
       id="g90">
      <path
         d="m 172.51,249.79 c 3.32,0 5.82,-1.08 7.51,-3.22 1.69,-2.15 2.53,-5.35 2.53,-9.6 0,-4.25 -0.84,-7.37 -2.51,-9.53 -1.67,-2.16 -4.17,-3.25 -7.49,-3.25 -3.32,0 -5.88,1.08 -7.58,3.25 -1.71,2.17 -2.56,5.34 -2.56,9.53 0,4.19 0.85,7.39 2.55,9.57 1.7,2.17 4.21,3.26 7.54,3.26 z"
         id="path88" />
    </g>
    <path
       d="m 346.61,128.4 c 3.33,0 6.32,0.85 8.86,2.33 -2.54,-1.48 -5.53,-2.33 -8.86,-2.33 -0.95,0 -1.86,0.08 -2.74,0.21 v 0 c 0.88,-0.12 1.79,-0.21 2.74,-0.21 z"
       id="path92" />
    <path
       d="m 493.63,63.65 c -0.06,0.06 -0.12,0.13 -0.18,0.2 0.06,-0.07 0.11,-0.13 0.18,-0.2 z"
       id="path94" />
    <path
       d="m 497.57,74.53 c 0.21,0.02 0.42,0.02 0.64,0.02 v 0 c -0.21,0 -0.43,0 -0.64,-0.02 z"
       id="path96" />
    <path
       d="m 381.04,225.62 h -0.19 l -4.26,11.82 4.12,-2.84 c 0.02,-1.19 0.05,-2.52 0.1,-4.03 0.08,-2.73 0.16,-4.38 0.22,-4.95 z"
       id="path98" />
    <path
       d="m 355.58,225.57 c 0.26,4.24 0.4,8.21 0.4,11.91 v 14.18 l 7.14,-4.92 -7.35,-21.17 z"
       id="path100" />
    <path
       d="m 11.74,463.28 h 600 V 352.31 h -600 z m 3.6,-107.37 h 592.8 V 459.68 H 15.34 Z"
       id="path102" />
    <path
       d="m 392.17,64.22 c -0.1,-0.11 -0.21,-0.21 -0.34,-0.29 -0.55,-0.26 -1.15,-0.42 -1.75,-0.45 -0.2,-0.01 -0.41,-0.01 -0.61,0 h -1.01 v 3.87 h 1.03 c 0.21,0.01 0.42,0.02 0.62,0 0.62,-0.03 1.23,-0.16 1.81,-0.4 0.23,-0.17 0.4,-0.39 0.52,-0.64 0.11,-0.25 0.16,-0.53 0.14,-0.81 v -0.05 c 0.02,-0.15 0.01,-0.3 -0.02,-0.45 -0.05,-0.29 -0.18,-0.57 -0.38,-0.79 z"
       id="path104" />
    <path
       d="m 484.28,62.96 -0.33,-0.33 c -0.46,-0.3 -0.96,-0.51 -1.49,-0.63 -0.44,-0.1 -0.89,-0.15 -1.34,-0.12 h -2.36 v 5.67 h 2.39 c 0.99,0.06 1.98,-0.2 2.81,-0.74 1.15,-0.97 1.29,-2.69 0.32,-3.84 z"
       id="path106" />
    <path
       d="m 472.47,63.8 c -0.04,-0.13 -0.11,-0.25 -0.17,-0.37 -0.02,-0.05 -0.04,-0.1 -0.07,-0.14 -0.07,-0.12 -0.16,-0.22 -0.24,-0.33 -0.04,-0.05 -0.06,-0.1 -0.1,-0.14 v 0 c 0,0 -0.02,-0.02 -0.03,-0.04 l -0.14,-0.16 c -0.76,-0.56 -1.7,-0.84 -2.64,-0.78 l -2.83,0.04 v 5.8 h 2.68 c 0.36,0.03 0.71,0 1.06,-0.07 0.13,-0.02 0.26,-0.04 0.38,-0.07 0.47,-0.13 0.91,-0.34 1.31,-0.63 0.1,-0.09 0.18,-0.19 0.27,-0.29 0.04,-0.05 0.09,-0.09 0.13,-0.14 0.08,-0.11 0.15,-0.24 0.21,-0.36 0.02,-0.04 0.06,-0.08 0.08,-0.13 0.06,-0.14 0.11,-0.28 0.15,-0.43 0,-0.03 0.03,-0.07 0.04,-0.1 0.03,-0.13 0.05,-0.27 0.06,-0.41 0,-0.05 0.02,-0.09 0.02,-0.14 0,-0.14 0,-0.28 -0.02,-0.42 0,-0.05 0,-0.09 0,-0.14 -0.02,-0.14 -0.06,-0.28 -0.1,-0.42 -0.01,-0.04 -0.02,-0.08 -0.03,-0.13 z"
       id="path108" />
    <path
       d="m 340.04,164.57 3.83,-35.96 c -3.46,0.48 -6.4,1.85 -8.73,3.86 -1.81,1.56 -3.25,3.51 -4.28,5.71 -0.31,0.65 -0.57,1.33 -0.81,2.03 -0.23,0.7 -0.43,1.41 -0.58,2.14 -0.31,1.46 -0.47,2.99 -0.47,4.56 v 0.25 c 0,1.12 0.09,2.23 0.27,3.31 0.18,1.08 0.44,2.13 0.78,3.15 0.69,2.03 1.69,3.91 2.97,5.57 1.82,2.35 4.2,4.22 7.02,5.39 z"
       id="path110" />
    <g
       class="c"
       id="g114">
      <path
         d="m 343.87,128.61 -3.83,35.96 c 2.06,0.86 4.35,1.35 6.83,1.35 11.03,0 17.61,-8.49 17.61,-18.5 v -0.25 c 0,-0.92 -0.07,-1.83 -0.19,-2.72 -0.33,-2.41 -1.08,-4.71 -2.2,-6.77 -0.67,-1.23 -1.45,-2.38 -2.37,-3.41 -0.07,-0.08 -0.12,-0.16 -0.19,-0.23 -1.18,-1.29 -2.54,-2.4 -4.06,-3.29 -2.54,-1.48 -5.53,-2.33 -8.86,-2.33 -0.95,0 -1.86,0.08 -2.74,0.21 z"
         id="path112" />
    </g>
    <path
       id="polygon116"
       d="m 409.2,64.59 -2.36,5.8 h 4.71 z" />
    <path
       d="m 254.38,68.26 c 0.24,-0.11 0.48,-0.25 0.71,-0.41 0.5,-0.46 0.82,-1.04 0.96,-1.65 0.05,-0.2 0.08,-0.41 0.08,-0.62 0.02,-0.42 -0.05,-0.84 -0.19,-1.24 -0.14,-0.4 -0.37,-0.78 -0.68,-1.11 -0.04,-0.06 -0.1,-0.12 -0.16,-0.16 -0.62,-0.48 -1.35,-0.77 -2.12,-0.86 -0.26,-0.03 -0.51,-0.04 -0.78,-0.02 h -3.21 v 6.52 h 3.02 c 0.82,0.05 1.63,-0.1 2.37,-0.45 z"
       id="path118" />
    <g
       class="c"
       id="g122">
      <path
         d="m 526.56,127.84 c -0.86,0.26 -1.68,0.59 -2.45,1.01 -0.77,0.42 -1.49,0.9 -2.16,1.46 -1.34,1.12 -2.49,2.52 -3.42,4.17 -1.17,2.06 -2,4.49 -2.48,7.23 h 29.02 c -0.1,-0.75 -0.24,-1.47 -0.4,-2.17 -0.86,-3.83 -2.57,-6.98 -5.05,-9.13 -0.09,-0.08 -0.19,-0.15 -0.29,-0.23 -2.28,-1.86 -5.16,-2.91 -8.59,-2.91 -1.5,0 -2.9,0.2 -4.19,0.58 z"
         id="path120" />
    </g>
    <path
       id="polygon124"
       d="m 324.34,70.39 h 4.72 l -2.35,-5.8 z" />
    <path
       d="m 230.51,73.76 c 0.08,0.1 0.18,0.2 0.27,0.3 0.07,0.08 0.14,0.17 0.22,0.24 v 0 l 0.02,0.02 c 1.43,1.37 3.27,2.06 5.11,2.06 0.46,0 0.92,-0.04 1.37,-0.13 0.45,-0.09 0.9,-0.21 1.34,-0.39 0.43,-0.17 0.86,-0.39 1.26,-0.64 0.4,-0.26 0.78,-0.56 1.14,-0.9 0.35,-0.35 0.65,-0.73 0.91,-1.13 0.26,-0.4 0.47,-0.82 0.65,-1.25 0.26,-0.65 0.42,-1.32 0.49,-2.01 0.02,-0.23 0.03,-0.46 0.03,-0.69 0,-0.46 -0.04,-0.92 -0.13,-1.37 -0.04,-0.23 -0.1,-0.45 -0.16,-0.67 -0.13,-0.44 -0.3,-0.88 -0.52,-1.29 -0.16,-0.31 -0.35,-0.62 -0.56,-0.91 -0.21,-0.29 -0.44,-0.57 -0.7,-0.83 -0.89,-0.86 -1.95,-1.45 -3.06,-1.77 -1.34,-0.39 -2.76,-0.39 -4.1,0 -1.11,0.32 -2.17,0.91 -3.06,1.77 v 0 c -0.08,0.08 -0.16,0.17 -0.24,0.26 -0.09,0.09 -0.18,0.19 -0.26,0.28 -0.07,0.09 -0.13,0.18 -0.2,0.27 -0.08,0.1 -0.16,0.21 -0.23,0.31 -0.06,0.09 -0.11,0.18 -0.16,0.27 -0.07,0.11 -0.14,0.22 -0.2,0.34 -0.05,0.09 -0.08,0.18 -0.13,0.27 -0.06,0.12 -0.12,0.24 -0.17,0.36 -0.04,0.1 -0.07,0.21 -0.11,0.32 -0.04,0.11 -0.08,0.22 -0.12,0.34 -0.03,0.11 -0.05,0.22 -0.08,0.33 -0.03,0.11 -0.06,0.23 -0.08,0.34 -0.02,0.1 -0.03,0.21 -0.05,0.31 -0.02,0.12 -0.04,0.24 -0.05,0.37 -0.01,0.11 -0.01,0.22 -0.02,0.33 0,0.12 -0.02,0.24 -0.02,0.35 0,0.11 0.01,0.22 0.01,0.33 0,0.12 0,0.24 0.02,0.36 0.01,0.11 0.03,0.21 0.05,0.32 0.02,0.12 0.03,0.24 0.05,0.36 0.02,0.1 0.05,0.2 0.07,0.3 0.03,0.12 0.05,0.25 0.09,0.37 0.03,0.11 0.08,0.22 0.11,0.33 0.04,0.11 0.07,0.22 0.11,0.33 0.04,0.11 0.1,0.22 0.15,0.33 0.05,0.1 0.09,0.21 0.14,0.31 0.05,0.1 0.11,0.19 0.17,0.28 0.06,0.11 0.12,0.22 0.19,0.33 0.07,0.1 0.15,0.2 0.22,0.31 0.07,0.09 0.13,0.19 0.2,0.27 z"
       id="path126" />
    <path
       d="m 493.63,63.65 c -0.06,0.06 -0.12,0.13 -0.18,0.2 -0.09,0.1 -0.18,0.19 -0.26,0.29 -0.03,0.04 -0.05,0.08 -0.08,0.11 -0.1,0.13 -0.21,0.27 -0.3,0.4 -0.23,0.34 -0.41,0.7 -0.57,1.07 0,0.01 -0.01,0.03 -0.02,0.04 -0.05,0.11 -0.08,0.23 -0.12,0.34 -0.03,0.08 -0.06,0.16 -0.09,0.25 -0.01,0.05 -0.02,0.1 -0.04,0.15 -0.04,0.15 -0.08,0.3 -0.11,0.45 -0.01,0.05 -0.01,0.11 -0.02,0.16 -0.02,0.15 -0.05,0.3 -0.06,0.45 0,0.09 0,0.17 -0.01,0.26 0,0.12 -0.02,0.23 -0.02,0.35 0,0.12 0.01,0.22 0.02,0.34 0,0.09 0,0.19 0.01,0.28 0.01,0.12 0.03,0.24 0.05,0.36 0.01,0.08 0.02,0.17 0.04,0.25 0.03,0.14 0.06,0.27 0.1,0.41 0.02,0.06 0.03,0.13 0.05,0.19 0.02,0.08 0.06,0.17 0.09,0.25 0.04,0.11 0.07,0.23 0.12,0.34 0,0.01 0.01,0.03 0.02,0.04 0.15,0.37 0.34,0.73 0.57,1.07 0.04,0.06 0.09,0.12 0.14,0.18 0.08,0.11 0.16,0.23 0.25,0.33 0.02,0.02 0.04,0.04 0.05,0.06 0.12,0.15 0.25,0.29 0.39,0.43 0.15,0.15 0.31,0.3 0.47,0.43 0.49,0.4 1.04,0.73 1.63,0.96 0.59,0.23 1.2,0.38 1.84,0.43 0.21,0.02 0.43,0.02 0.64,0.02 v 0 c 0.43,0.02 0.85,0 1.27,-0.09 1.24,-0.23 2.4,-0.83 3.3,-1.74 2.48,-2.52 2.48,-6.56 0,-9.08 -2.55,-2.47 -6.6,-2.47 -9.14,0 z"
       id="path128" />
    <path
       d="m 472.23,63.29 c 0,0 0.04,0.1 0.07,0.14"
       id="path130" />
    <path
       d="m 472.47,63.8 c 0,0 0.02,0.08 0.03,0.13"
       id="path132" />
    <path
       d="m 472.6,65.05 c 0,0 0.02,-0.09 0.02,-0.14"
       id="path134" />
    <path
       d="m 472.51,65.55 c 0,0 0.03,-0.07 0.04,-0.1"
       id="path136" />
    <path
       d="m 472.28,66.11 c 0,0 0.06,-0.08 0.08,-0.13"
       id="path138" />
    <path
       d="m 471.94,66.61 c 0,0 0.09,-0.09 0.13,-0.14"
       id="path140" />
    <path
       d="m 469.98,67.6 c 0.13,-0.02 0.26,-0.04 0.38,-0.07"
       id="path142" />
    <path
       d="m 472.6,64.35 c 0,0 0,0.09 0,0.14"
       id="path144" />
    <path
       d="m 493.19,64.13 c 0.08,-0.1 0.17,-0.19 0.26,-0.29"
       id="path146" />
    <path
       d="m 495.73,74.1 c -0.58,-0.23 -1.13,-0.56 -1.63,-0.96"
       id="path148" />
    <path
       d="m 491.75,68.18 c 0,-0.12 0.01,-0.23 0.02,-0.35"
       id="path150" />
    <path
       d="m 491.87,66.95 c 0.03,-0.15 0.07,-0.3 0.11,-0.45"
       id="path152" />
    <path
       d="m 492.81,64.65 c 0.09,-0.14 0.19,-0.27 0.3,-0.4"
       id="path154" />
    <path
       d="m 492.11,70.25 c 0.04,0.11 0.07,0.23 0.12,0.34"
       id="path156" />
    <path
       d="m 492.22,65.76 c 0,0 0.01,-0.03 0.02,-0.04"
       id="path158" />
    <path
       d="m 492.02,66.35 c 0.02,-0.08 0.06,-0.17 0.09,-0.25"
       id="path160" />
    <path
       d="M 493.19,72.22 C 493.1,72.11 493.02,72 492.94,71.89"
       id="path162" />
    <path
       d="m 491.84,69.15 c 0.01,0.08 0.02,0.17 0.04,0.25"
       id="path164" />
    <path
       d="m 491.97,69.81 c 0.02,0.06 0.03,0.13 0.05,0.19"
       id="path166" />
    <path
       d="m 491.77,68.51 c 0,0.09 0,0.19 0.01,0.28"
       id="path168" />
    <path
       d="m 491.78,67.56 c 0.01,-0.15 0.04,-0.3 0.06,-0.45"
       id="path170" />
    <path
       d="m 391.82,63.92 c -0.55,-0.26 -1.15,-0.42 -1.75,-0.45"
       id="path172" />
    <path
       d="m 392.17,64.22 c 0.2,0.22 0.33,0.5 0.38,0.79"
       id="path174" />
    <path
       d="m 228.95,69.93 c -0.01,-0.12 -0.01,-0.24 -0.02,-0.36"
       id="path176" />
    <path
       d="M 229.05,70.61 C 229.03,70.49 229.02,70.37 229,70.25"
       id="path178" />
    <path
       d="m 230.09,73.18 c -0.07,-0.11 -0.13,-0.22 -0.19,-0.33"
       id="path180" />
    <path
       d="m 243.02,67.22 c -0.13,-0.44 -0.3,-0.88 -0.52,-1.29"
       id="path182" />
    <path
       d="m 242.5,65.92 c -0.16,-0.31 -0.35,-0.62 -0.56,-0.91"
       id="path184" />
    <path
       d="m 230.79,64.45 c -0.09,0.09 -0.18,0.19 -0.26,0.28"
       id="path186" />
    <path
       d="m 229.73,72.57 c -0.05,-0.1 -0.1,-0.21 -0.14,-0.31"
       id="path188" />
    <path
       d="m 230.51,73.76 c -0.07,-0.09 -0.13,-0.18 -0.2,-0.27"
       id="path190" />
    <path
       d="m 243.18,67.89 c 0.09,0.45 0.13,0.91 0.13,1.37"
       id="path192" />
    <path
       d="m 229.44,71.94 c -0.04,-0.11 -0.08,-0.22 -0.11,-0.33"
       id="path194" />
    <path
       d="m 229.21,71.28 c -0.04,-0.12 -0.06,-0.25 -0.09,-0.37"
       id="path196" />
    <path
       d="m 230.33,65 c -0.08,0.1 -0.16,0.21 -0.23,0.31"
       id="path198" />
    <path
       d="m 228.93,68.89 c 0,0.12 -0.02,0.24 -0.02,0.35"
       id="path200" />
    <path
       d="m 229.13,67.53 c -0.03,0.11 -0.06,0.23 -0.08,0.34"
       id="path202" />
    <path
       d="m 229,68.19 c -0.02,0.12 -0.04,0.24 -0.05,0.37"
       id="path204" />
    <path
       d="m 229.94,65.58 c -0.07,0.11 -0.14,0.22 -0.2,0.34"
       id="path206" />
    <path
       d="m 229.61,66.19 c -0.06,0.12 -0.12,0.24 -0.17,0.36"
       id="path208" />
    <path
       d="m 229.33,66.87 c -0.04,0.11 -0.08,0.22 -0.12,0.34"
       id="path210" />
    <path
       d="m 359.54,134.02 c 0.07,0.07 0.13,0.16 0.19,0.23"
       id="path212" />
    <path
       d="m 113.63,288.33 c -2.13,0 -3.8,0.51 -5,1.53 -1.21,1.02 -1.81,2.42 -1.81,4.2 0,0.95 0.18,1.77 0.55,2.48 0.37,0.71 0.86,1.33 1.47,1.86 0.61,0.53 1.54,1.09 2.77,1.67 1.31,0.62 2.18,1.08 2.61,1.36 0.43,0.28 0.75,0.58 0.97,0.89 0.22,0.31 0.33,0.66 0.33,1.05 0,0.71 -0.25,1.24 -0.75,1.6 -0.5,0.36 -1.22,0.54 -2.15,0.54 -0.78,0 -1.64,-0.12 -2.58,-0.37 -0.94,-0.25 -2.09,-0.67 -3.45,-1.28 v 3.96 c 1.65,0.81 3.55,1.21 5.7,1.21 2.33,0 4.15,-0.52 5.46,-1.57 1.31,-1.05 1.96,-2.48 1.96,-4.29 0,-1.31 -0.35,-2.42 -1.05,-3.32 -0.7,-0.9 -1.99,-1.8 -3.87,-2.7 -1.42,-0.68 -2.32,-1.15 -2.7,-1.41 -0.38,-0.26 -0.66,-0.53 -0.83,-0.81 -0.17,-0.28 -0.26,-0.61 -0.26,-0.98 0,-0.61 0.22,-1.1 0.65,-1.47 0.43,-0.38 1.05,-0.56 1.86,-0.56 0.68,0 1.37,0.09 2.07,0.26 0.7,0.17 1.59,0.48 2.66,0.92 l 0.69,-1.67 -1.74,-2.53 c -0.18,-0.05 -0.37,-0.12 -0.55,-0.17 -0.95,-0.25 -1.95,-0.37 -2.99,-0.37 z"
       id="path214" />
    <path
       d="m 119.6,289.75 c -0.84,-0.36 -1.64,-0.64 -2.43,-0.88 l 1.74,2.53 0.68,-1.65 z"
       id="path216" />
    <path
       d="m 143.92,300.91 c 0,1.56 -0.31,2.7 -0.94,3.43 -0.63,0.73 -1.64,1.09 -3.03,1.09 -1.39,0 -2.47,-0.36 -3.1,-1.09 -0.62,-0.72 -0.94,-1.86 -0.94,-3.41 v -12.32 h -4.25 v 12.96 c 0,2.3 0.72,4.12 2.15,5.44 1.43,1.33 3.44,1.99 6.03,1.99 1.72,0 3.2,-0.3 4.46,-0.89 1.26,-0.59 2.22,-1.45 2.88,-2.57 0.67,-1.12 1,-2.42 1,-3.91 v -13.02 h -4.25 v 12.29 z"
       id="path218" />
    <path
       d="m 173.55,290.19 c -1.27,-1.05 -3.13,-1.58 -5.57,-1.58 h -6.43 v 20.12 h 4.27 v -7.16 h 1.83 c 2.5,0 4.42,-0.57 5.77,-1.72 1.35,-1.15 2.03,-2.8 2.03,-4.97 0,-2.17 -0.64,-3.65 -1.91,-4.7 z m -3.38,7.12 c -0.65,0.52 -1.63,0.78 -2.95,0.78 h -1.4 v -5.97 h 1.94 c 1.17,0 2.02,0.24 2.57,0.72 0.55,0.48 0.82,1.22 0.82,2.22 0,1 -0.33,1.75 -0.98,2.26 z"
       id="path220" />
    <path
       d="m 199.71,290.19 c -1.27,-1.05 -3.13,-1.58 -5.57,-1.58 h -6.43 v 20.12 h 4.27 v -7.16 h 1.83 c 2.5,0 4.42,-0.57 5.77,-1.72 1.35,-1.15 2.03,-2.8 2.03,-4.97 0,-2.17 -0.64,-3.65 -1.91,-4.7 z m -3.38,7.12 c -0.65,0.52 -1.63,0.78 -2.95,0.78 h -1.4 v -5.97 h 1.94 c 1.17,0 2.02,0.24 2.57,0.72 0.55,0.48 0.82,1.22 0.82,2.22 0,1 -0.33,1.75 -0.98,2.26 z"
       id="path222" />
    <path
       d="m 222.58,288.3 c -3.09,0 -5.47,0.88 -7.12,2.65 -1.66,1.77 -2.48,4.32 -2.48,7.67 0,3.35 0.83,5.92 2.48,7.71 1.65,1.79 4.02,2.68 7.1,2.68 3.08,0 5.45,-0.89 7.1,-2.68 1.65,-1.79 2.48,-4.35 2.48,-7.68 0,-3.33 -0.82,-5.9 -2.46,-7.68 -1.64,-1.78 -4,-2.67 -7.09,-2.67 z m -0.03,17.13 c -1.7,0 -2.97,-0.57 -3.83,-1.71 -0.86,-1.14 -1.28,-2.83 -1.28,-5.08 0,-2.25 0.43,-3.94 1.29,-5.08 0.86,-1.14 2.14,-1.71 3.84,-1.71 3.39,0 5.08,2.27 5.08,6.8 0,4.53 -1.7,6.79 -5.11,6.79 z"
       id="path224" />
    <path
       d="m 257.68,297.8 c 0.65,-0.92 0.98,-1.97 0.98,-3.16 0,-2.03 -0.66,-3.54 -1.97,-4.53 -1.31,-1 -3.33,-1.49 -6.07,-1.49 h -5.86 v 20.12 h 4.27 v -7.72 h 2.27 l 4.8,7.72 h 4.73 c -0.92,-1.32 -2.89,-4.24 -5.92,-8.77 1.19,-0.52 2.12,-1.25 2.77,-2.17 z m -4.29,-0.93 c -0.64,0.45 -1.64,0.67 -2.99,0.67 h -1.38 v -5.44 h 1.29 c 1.38,0 2.39,0.2 3.05,0.61 0.66,0.4 0.98,1.08 0.98,2.04 0,0.96 -0.32,1.67 -0.96,2.12 z"
       id="path226" />
    <path
       id="polygon228"
       d="m 275.31,308.74 h 4.27 v -16.57 h 5.46 v -3.55 H 269.9 l -0.05,0.52 v 3.03 h 5.46 z" />
    <path
       id="polygon230"
       d="m 269.85,288.62 v 0.52 l 0.05,-0.52 z" />
    <path
       d="m 316.64,301.58 h 1.83 c 2.5,0 4.42,-0.57 5.77,-1.72 1.35,-1.15 2.03,-2.8 2.03,-4.97 0,-2.17 -0.64,-3.65 -1.91,-4.7 -1.27,-1.05 -3.13,-1.58 -5.57,-1.58 h -6.43 v 20.12 h 4.27 v -7.16 z m 0,-9.47 h 1.94 c 1.17,0 2.02,0.24 2.57,0.72 0.55,0.48 0.82,1.22 0.82,2.22 0,1 -0.33,1.75 -0.98,2.26 -0.65,0.51 -1.63,0.78 -2.95,0.78 h -1.4 v -5.97 z"
       id="path232" />
    <path
       d="m 342.79,301.02 h 2.27 l 4.8,7.72 h 4.73 c -0.92,-1.32 -2.89,-4.24 -5.92,-8.77 1.19,-0.52 2.12,-1.25 2.77,-2.17 0.65,-0.92 0.98,-1.97 0.98,-3.16 0,-2.03 -0.66,-3.54 -1.97,-4.53 -1.31,-1 -3.33,-1.49 -6.07,-1.49 h -5.86 v 20.12 h 4.27 z m 0,-8.9 h 1.29 c 1.38,0 2.39,0.2 3.05,0.61 0.66,0.4 0.98,1.08 0.98,2.04 0,0.96 -0.32,1.67 -0.96,2.12 -0.64,0.45 -1.64,0.67 -2.99,0.67 h -1.38 v -5.44 z"
       id="path234" />
    <path
       d="m 374.27,305.44 c -1.7,0 -2.97,-0.57 -3.83,-1.71 -0.86,-1.14 -1.28,-2.83 -1.28,-5.08 0,-2.25 0.43,-3.94 1.29,-5.08 0.86,-1.14 2.14,-1.71 3.84,-1.71 3.39,0 5.08,2.27 5.08,6.8 0,1.97 -0.34,3.48 -0.99,4.59 l 5.43,-3.75 c 0.01,-0.28 0.03,-0.56 0.03,-0.85 0,-3.34 -0.82,-5.9 -2.46,-7.68 -1.64,-1.78 -4,-2.67 -7.09,-2.67 -3.09,0 -5.47,0.88 -7.12,2.65 -1.66,1.77 -2.48,4.32 -2.48,7.67 0,3.35 0.83,5.92 2.48,7.71 0.95,1.03 2.15,1.75 3.57,2.19 l 4.61,-3.18 c -0.34,0.06 -0.7,0.1 -1.08,0.1 z"
       id="path236" />
    <path
       d="m 381.37,306.33 c 1.51,-1.63 2.32,-3.92 2.45,-6.83 l -5.43,3.75 c -0.67,1.16 -1.67,1.87 -3.04,2.1 l -4.61,3.18 c 1.05,0.32 2.22,0.49 3.53,0.49 3.08,0 5.45,-0.89 7.1,-2.68 z"
       id="path238" />
    <path
       id="polygon240"
       d="m 395.02,291.78 3.47,-2.4 -0.24,-0.76 h -4.31 z" />
    <path
       d="m 405.42,308.74 6.84,-20.12 h -4.31 l -3.81,11.97 c -0.59,2.11 -0.93,3.59 -1.03,4.43 -0.06,-0.37 -0.2,-1.02 -0.42,-1.96 -0.22,-0.94 -0.44,-1.76 -0.65,-2.47 l -3.54,-11.21 -3.48,2.4 5.75,16.96 z"
       id="path242" />
    <path
       id="rect244"
       d="m 423.25,288.62 h 4.27 v 20.12 h -4.27 z" />
    <path
       d="m 454.9,306.1 c 1.89,-1.76 2.83,-4.3 2.83,-7.61 0,-3.11 -0.91,-5.53 -2.72,-7.27 -1.81,-1.74 -4.37,-2.6 -7.65,-2.6 h -6.32 v 20.12 h 5.7 c 3.56,0 6.28,-0.88 8.17,-2.64 z m -9.6,-13.98 h 2.27 c 3.82,0 5.73,2.16 5.73,6.48 0,4.32 -2.06,6.62 -6.17,6.62 h -1.83 z"
       id="path246" />
    <path
       id="polygon248"
       d="m 474.62,300.03 h 6.81 v -3.5 h -6.81 v -4.42 h 7.32 v -3.49 h -11.59 v 20.12 h 11.59 v -3.53 h -7.32 z" />
    <path
       d="m 498.86,301.02 h 2.27 l 4.8,7.72 h 4.73 c -0.92,-1.32 -2.89,-4.24 -5.92,-8.77 1.19,-0.52 2.12,-1.25 2.77,-2.17 0.65,-0.92 0.98,-1.97 0.98,-3.16 0,-2.03 -0.66,-3.54 -1.97,-4.53 -1.31,-1 -3.33,-1.49 -6.07,-1.49 h -5.86 v 20.12 h 4.27 z m 0,-8.9 h 1.29 c 1.38,0 2.39,0.2 3.05,0.61 0.66,0.4 0.98,1.08 0.98,2.04 0,0.96 -0.32,1.67 -0.96,2.12 -0.64,0.45 -1.64,0.67 -2.99,0.67 h -1.38 v -5.44 z"
       id="path250" />
  </g>
  <g
     aria-label="EXPLORER FOR VISUAL CODE -ZOWE V2"
     transform="translate(37.81,401.8)"
     id="text258"
     class="b"
     style="font-size:31px;font-family:OpenSans-Bold, 'Open Sans';letter-spacing:0.1em">
    <path
       d="M 17.876465,0 H 3.0273438 V -22.538574 H 17.876465 v 2.664062 H 6.0244141 v 6.175782 H 17.876465 v 2.664062 H 6.0244141 v 8.3706055 H 17.876465 Z"
       id="path281" />
    <path
       d="M 42.939844,-22.538574 35.159571,-11.397949 42.924707,0 H 39.458399 L 33.312891,-9.2788086 27.016016,0 h -3.269531 l 7.855957,-11.261719 -7.674317,-11.276855 h 3.451172 l 6.069824,9.157715 6.206055,-9.157715 z"
       id="path283" />
    <path
       d="m 64.839649,-15.727051 q 0,1.498535 -0.529785,2.785156 -0.514648,1.271485 -1.453125,2.209961 -1.165527,1.1655277 -2.754883,1.7558598 -1.589355,0.5751953 -4.01123,0.5751953 H 53.093555 V 0 h -2.99707 v -22.538574 h 6.115235 q 2.02832,0 3.436035,0.348144 1.407715,0.333008 2.497558,1.059571 1.286621,0.862793 1.98291,2.149414 0.711426,1.286621 0.711426,3.254394 z m -3.118164,0.07568 q 0,-1.165528 -0.408691,-2.02832 -0.408692,-0.862793 -1.241211,-1.407715 -0.726563,-0.469239 -1.665039,-0.666016 -0.92334,-0.211914 -2.346192,-0.211914 h -2.966797 v 9.006348 h 2.527832 q 1.816407,0 2.951661,-0.317871 1.135254,-0.333008 1.846679,-1.044434 0.711426,-0.726563 0.999024,-1.528809 0.302734,-0.802246 0.302734,-1.801269 z"
       id="path285" />
    <path
       d="M 86.164261,0 H 71.905472 v -22.538574 h 2.99707 v 19.8745115 h 11.261719 z"
       id="path287" />
    <path
       d="m 109.06309,-19.950195 q 1.37744,1.513672 2.104,3.708496 0.7417,2.194824 0.7417,4.97998 0,2.7851565 -0.75684,4.9951174 -0.74169,2.1948243 -2.08886,3.663086 -1.39258,1.5288086 -3.29981,2.30078122 -1.89209,0.77197266 -4.3291,0.77197266 -2.376464,0 -4.3291,-0.78710937 -1.9375,-0.78710941 -3.299805,-2.28564451 -1.362305,-1.4985352 -2.104004,-3.6782227 -0.726562,-2.1796875 -0.726562,-4.9799807 0,-2.754883 0.726562,-4.93457 0.726563,-2.194824 2.119141,-3.753906 1.332031,-1.483399 3.299804,-2.270508 1.982911,-0.787109 4.313964,-0.787109 2.42188,0 4.34424,0.802246 1.9375,0.787109 3.28467,2.255371 z m -0.27246,8.688476 q 0,-4.389648 -1.96778,-6.766113 -1.96777,-2.391602 -5.37353,-2.391602 -3.436037,0 -5.403811,2.391602 -1.952636,2.376465 -1.952636,6.766113 0,4.4350588 1.998046,6.796387 1.998047,2.3461914 5.358401,2.3461914 3.36035,0 5.34326,-2.3461914 1.99805,-2.3613282 1.99805,-6.796387 z"
       id="path289" />
    <path
       d="m 138.41016,0 h -3.89014 l -7.53809,-8.9609375 h -4.22314 V 0 h -2.99707 v -22.538574 h 6.31201 q 2.04346,0 3.40576,0.272461 1.36231,0.257324 2.45215,0.938476 1.22607,0.771973 1.90723,1.952637 0.69629,1.165527 0.69629,2.966797 0,2.437012 -1.22608,4.086914 -1.22607,1.634766 -3.37549,2.4672851 z m -7.0083,-16.196289 q 0,-0.96875 -0.34815,-1.710449 -0.33301,-0.756836 -1.12012,-1.271485 -0.65088,-0.438964 -1.54394,-0.605468 -0.89307,-0.181641 -2.10401,-0.181641 h -3.52685 v 8.506836 h 3.02734 q 1.42285,0 2.48242,-0.242188 1.05957,-0.257324 1.80127,-0.938476 0.68116,-0.635742 0.99903,-1.453125 0.33301,-0.83252 0.33301,-2.104004 z"
       id="path291" />
    <path
       d="m 159.26553,0 h -14.84912 v -22.538574 h 14.84912 v 2.664062 h -11.85205 v 6.175782 h 11.85205 v 2.664062 h -11.85205 v 8.3706055 h 11.85205 z"
       id="path293" />
    <path
       d="m 185.78203,0 h -3.89014 l -7.53808,-8.9609375 h -4.22315 V 0 h -2.99707 v -22.538574 h 6.31201 q 2.04346,0 3.40576,0.272461 1.36231,0.257324 2.45215,0.938476 1.22608,0.771973 1.90723,1.952637 0.69629,1.165527 0.69629,2.966797 0,2.437012 -1.22608,4.086914 -1.22607,1.634766 -3.37548,2.4672851 z m -7.0083,-16.196289 q 0,-0.96875 -0.34815,-1.710449 -0.333,-0.756836 -1.12011,-1.271485 -0.65088,-0.438964 -1.54395,-0.605468 -0.89307,-0.181641 -2.104,-0.181641 h -3.52686 v 8.506836 h 3.02734 q 1.42286,0 2.48243,-0.242188 1.05957,-0.257324 1.80127,-0.938476 0.68115,-0.635742 0.99902,-1.453125 0.33301,-0.83252 0.33301,-2.104004 z"
       id="path295" />
    <path
       d="m 220.18173,-19.874512 h -11.39795 v 6.357422 h 9.79346 v 2.664063 h -9.79346 V 0 h -2.99707 v -22.538574 h 14.39502 z"
       id="path297" />
    <path
       d="m 243.48926,-19.950195 q 1.37744,1.513672 2.104,3.708496 0.7417,2.194824 0.7417,4.97998 0,2.7851565 -0.75684,4.9951174 -0.74169,2.1948243 -2.08886,3.663086 -1.39258,1.5288086 -3.29981,2.30078122 -1.89209,0.77197266 -4.3291,0.77197266 -2.37646,0 -4.3291,-0.78710937 -1.9375,-0.78710941 -3.2998,-2.28564451 -1.36231,-1.4985352 -2.10401,-3.6782227 -0.72656,-2.1796875 -0.72656,-4.9799807 0,-2.754883 0.72656,-4.93457 0.72656,-2.194824 2.11914,-3.753906 1.33203,-1.483399 3.29981,-2.270508 1.98291,-0.787109 4.31396,-0.787109 2.42188,0 4.34424,0.802246 1.9375,0.787109 3.28467,2.255371 z m -0.27246,8.688476 q 0,-4.389648 -1.96778,-6.766113 -1.96777,-2.391602 -5.37353,-2.391602 -3.43604,0 -5.40381,2.391602 -1.95264,2.376465 -1.95264,6.766113 0,4.4350588 1.99805,6.796387 1.99805,2.3461914 5.3584,2.3461914 3.36035,0 5.34326,-2.3461914 1.99805,-2.3613282 1.99805,-6.796387 z"
       id="path299" />
    <path
       d="m 272.83633,0 h -3.89013 l -7.53809,-8.9609375 h -4.22314 V 0 h -2.99707 v -22.538574 h 6.31201 q 2.04346,0 3.40576,0.272461 1.3623,0.257324 2.45215,0.938476 1.22607,0.771973 1.90723,1.952637 0.69628,1.165527 0.69628,2.966797 0,2.437012 -1.22607,4.086914 -1.22607,1.634766 -3.37549,2.4672851 z m -7.0083,-16.196289 q 0,-0.96875 -0.34814,-1.710449 -0.33301,-0.756836 -1.12012,-1.271485 -0.65088,-0.438964 -1.54394,-0.605468 -0.89307,-0.181641 -2.10401,-0.181641 h -3.52685 v 8.506836 h 3.02734 q 1.42285,0 2.48242,-0.242188 1.05957,-0.257324 1.80127,-0.938476 0.68115,-0.635742 0.99903,-1.453125 0.333,-0.83252 0.333,-2.104004 z"
       id="path301" />
    <path
       d="M 310.61151,-22.538574 302.40741,0 h -3.99609 l -8.20411,-22.538574 h 3.20899 l 7.06885,19.8291013 7.06884,-19.8291013 z"
       id="path303" />
    <path
       d="m 325.07919,0 h -8.90039 v -2.3007813 h 2.95166 V -20.237793 h -2.95166 v -2.300781 h 8.90039 v 2.300781 h -2.95166 v 17.9370117 h 2.95166 z"
       id="path305" />
    <path
       d="m 349.68848,-6.4331055 q 0,1.3168946 -0.62061,2.6035157 -0.60547,1.286621 -1.71045,2.1796875 -1.21094,0.96874996 -2.83056,1.51367183 -1.6045,0.54492188 -3.875,0.54492188 -2.43702,0 -4.38965,-0.45410157 -1.9375,-0.45410156 -3.95069,-1.34716794 v -3.7539063 h 0.21192 q 1.71045,1.4228516 3.95068,2.1948242 2.24024,0.7719727 4.20801,0.7719727 2.78516,0 4.3291,-1.0444336 1.55908,-1.0444336 1.55908,-2.7851562 0,-1.4985352 -0.7417,-2.209961 -0.72656,-0.7114258 -2.22509,-1.1049805 -1.13526,-0.3027343 -2.46729,-0.4995117 -1.31689,-0.1967775 -2.80029,-0.4995115 -2.99707,-0.635742 -4.4502,-2.164551 -1.43799,-1.543945 -1.43799,-4.01123 0,-2.830567 2.39161,-4.631836 2.3916,-1.816407 6.06982,-1.816407 2.37646,0 4.35937,0.454102 1.98291,0.454102 3.51172,1.120117 v 3.541992 h -0.21191 q -1.28662,-1.089843 -3.39063,-1.801269 -2.08886,-0.726563 -4.28369,-0.726563 -2.40674,0 -3.875,0.999024 -1.45312,0.999023 -1.45312,2.573242 0,1.407715 0.72656,2.209961 0.72656,0.802246 2.55811,1.226074 0.96875,0.211914 2.75488,0.514648 1.78613,0.302735 3.02734,0.620606 2.5127,0.666016 3.78418,2.013184 1.27149,1.3471675 1.27149,3.7690425 z"
       id="path307" />
    <path
       d="m 374.57022,-9.0517578 q 0,2.4521484 -0.54492,4.2836914 -0.52979,1.8164062 -1.75586,3.0273437 -1.16553,1.15039067 -2.72461,1.68017583 -1.55908,0.52978515 -3.63281,0.52978515 -2.11914,0 -3.69336,-0.56005859 -1.57422,-0.5600586 -2.64893,-1.64990239 -1.22607,-1.2412109 -1.77099,-2.9970703 -0.52979,-1.7558593 -0.52979,-4.3139648 V -22.538574 h 2.99707 v 13.6381834 q 0,1.8315429 0.24219,2.8911133 0.25732,1.0595703 0.84766,1.9223632 0.66601,0.9838868 1.80127,1.4833985 1.15039,0.4995117 2.75488,0.4995117 1.61963,0 2.75488,-0.484375 1.13525,-0.4995117 1.81641,-1.4985352 0.59033,-0.8627929 0.83252,-1.9677734 0.25732,-1.1201172 0.25732,-2.7700195 v -13.713867 h 2.99707 z"
       id="path309" />
    <path
       d="m 401.17755,0 h -3.19385 l -2.20996,-6.2817383 H 386.0257 L 383.81573,0 h -3.04248 l 8.20411,-22.538574 h 3.99609 z m -6.32715,-8.8549805 -3.95068,-11.0649415 -3.96582,11.0649415 z"
       id="path311" />
    <path
       d="m 421.95721,0 h -14.25878 v -22.538574 h 2.99707 v 19.8745115 h 11.26171 z"
       id="path313" />
    <path
       d="m 459.45996,-1.6347656 q -0.83252,0.3632812 -1.51367,0.68115232 -0.66602,0.31787109 -1.75586,0.66601562 Q 455.26709,0 454.17725,0.19677734 q -1.07471,0.21191407 -2.37647,0.21191407 -2.45215,0 -4.46533,-0.68115235 Q 445.3374,-0.96875 443.854,-2.4370117 442.40088,-3.875 441.5835,-6.0849609 q -0.81739,-2.2250977 -0.81739,-5.1616211 0,-2.785156 0.78711,-4.97998 0.78711,-2.194825 2.27051,-3.708497 1.43799,-1.468261 3.46631,-2.240234 2.04346,-0.771973 4.52588,-0.771973 1.8164,0 3.61767,0.438965 1.81641,0.438965 4.02637,1.543946 v 3.557128 h -0.22705 q -1.86182,-1.559082 -3.69336,-2.270507 -1.83154,-0.711426 -3.92041,-0.711426 -1.71045,0 -3.08789,0.560058 -1.3623,0.544922 -2.43701,1.71045 -1.04444,1.135254 -1.63477,2.875976 -0.57519,1.725586 -0.57519,3.996094 0,2.3764648 0.63574,4.086914 0.65088,1.7104493 1.66504,2.7851563 1.05957,1.1201172 2.46728,1.665039 1.42286,0.5297852 2.99707,0.5297852 2.16455,0 4.05664,-0.7416992 1.89209,-0.7416992 3.542,-2.2250977 h 0.21191 z"
       id="path315" />
    <path
       d="m 483.63028,-19.950195 q 1.37744,1.513672 2.104,3.708496 0.7417,2.194824 0.7417,4.97998 0,2.7851565 -0.75683,4.9951174 -0.7417,2.1948243 -2.08887,3.663086 -1.39258,1.5288086 -3.29981,2.30078122 -1.89208,0.77197266 -4.3291,0.77197266 -2.37646,0 -4.3291,-0.78710937 -1.9375,-0.78710941 -3.2998,-2.28564451 -1.36231,-1.4985352 -2.10401,-3.6782227 -0.72656,-2.1796875 -0.72656,-4.9799807 0,-2.754883 0.72656,-4.93457 0.72657,-2.194824 2.11914,-3.753906 1.33204,-1.483399 3.29981,-2.270508 1.98291,-0.787109 4.31396,-0.787109 2.42188,0 4.34424,0.802246 1.9375,0.787109 3.28467,2.255371 z m -0.27246,8.688476 q 0,-4.389648 -1.96777,-6.766113 -1.96778,-2.391602 -5.37354,-2.391602 -3.43604,0 -5.40381,2.391602 -1.95264,2.376465 -1.95264,6.766113 0,4.4350588 1.99805,6.796387 1.99805,2.3461914 5.3584,2.3461914 3.36035,0 5.34326,-2.3461914 1.99805,-2.3613282 1.99805,-6.796387 z"
       id="path317" />
    <path
       d="m 513.37091,-11.246582 q 0,3.0727539 -1.34717,5.5703125 -1.33203,2.4975586 -3.55713,3.875 -1.54394,0.95361325 -3.45117,1.37744137 Q 503.12335,0 500.02032,0 h -5.6914 v -22.538574 h 5.63086 q 3.2998,0 5.2373,0.484375 1.95264,0.469238 3.29981,1.301758 2.30078,1.437988 3.5874,3.829589 1.28662,2.391602 1.28662,5.67627 z m -3.1333,-0.04541 q 0,-2.648926 -0.92334,-4.465332 -0.92334,-1.816406 -2.75488,-2.86084 -1.33203,-0.756836 -2.83057,-1.044434 -1.49853,-0.302734 -3.5874,-0.302734 h -2.81543 v 17.3920898 h 2.81543 q 2.16455,0 3.76904,-0.3178711 1.61963,-0.3178711 2.9668,-1.180664 1.68017,-1.0747071 2.51269,-2.8305664 0.84766,-1.7558594 0.84766,-4.3896483 z"
       id="path319" />
    <path
       d="m 536.19403,0 h -14.84912 v -22.538574 h 14.84912 v 2.664062 h -11.85205 v 6.175782 h 11.85205 v 2.664062 h -11.85205 v 8.3706055 h 11.85205 z"
       id="path321" />
    <path
       d="m 566.79443,-8.4916992 h -9.44531 v -2.7397458 h 9.44531 z"
       id="path323" />
    <path
       d="m 215.03609,37.200001 h -17.58887 v -2.785156 l 13.81982,-17.089356 h -13.30517 v -2.664062 h 16.74121 v 2.709472 l -13.95606,17.165039 h 14.28907 z"
       id="path325" />
    <path
       d="m 239.72105,17.249805 q 1.37744,1.513672 2.104,3.708497 0.7417,2.194824 0.7417,4.97998 0,2.785156 -0.75683,4.995117 -0.7417,2.194824 -2.08887,3.663086 -1.39258,1.528809 -3.29981,2.300781 -1.89209,0.771973 -4.3291,0.771973 -2.37646,0 -4.3291,-0.787109 -1.9375,-0.78711 -3.2998,-2.285645 -1.36231,-1.498535 -2.10401,-3.678223 -0.72656,-2.179687 -0.72656,-4.97998 0,-2.754883 0.72656,-4.93457 0.72656,-2.194825 2.11914,-3.753907 1.33203,-1.483398 3.29981,-2.270507 1.98291,-0.78711 4.31396,-0.78711 2.42188,0 4.34424,0.802246 1.9375,0.78711 3.28467,2.255371 z m -0.27246,8.688477 q 0,-4.389648 -1.96778,-6.766113 -1.96777,-2.391602 -5.37353,-2.391602 -3.43604,0 -5.40381,2.391602 -1.95264,2.376465 -1.95264,6.766113 0,4.435059 1.99805,6.796387 1.99805,2.346191 5.3584,2.346191 3.36035,0 5.34326,-2.346191 1.99805,-2.361328 1.99805,-6.796387 z"
       id="path327" />
    <path
       d="m 276.65162,14.661427 -5.85792,22.538574 h -3.37548 l -4.7378,-18.708985 -4.63183,18.708985 h -3.29981 l -5.96386,-22.538574 h 3.07275 l 4.73779,18.739257 4.66211,-18.739257 h 3.04248 l 4.70752,18.920898 4.70752,-18.920898 z"
       id="path329" />
    <path
       d="M 299.00552,37.200001 H 284.1564 V 14.661427 h 14.84912 v 2.664062 h -11.85205 v 6.175781 h 11.85205 v 2.664063 h -11.85205 v 8.370605 h 11.85205 z"
       id="path331" />
    <path
       d="m 338.64253,14.661427 -8.2041,22.538574 h -3.99609 l -8.2041,-22.538574 h 3.20898 l 7.06885,19.829101 7.06885,-19.829101 z"
       id="path333" />
    <path
       d="M 359.83092,37.200001 H 344.5731 v -3.163574 q 1.58936,-1.362305 3.17872,-2.72461 1.60449,-1.362305 2.98193,-2.709472 2.90625,-2.81543 3.98096,-4.465333 1.0747,-1.665039 1.0747,-3.587402 0,-1.755859 -1.16552,-2.739746 -1.15039,-0.999023 -3.22412,-0.999023 -1.37745,0 -2.98194,0.484375 -1.60449,0.484375 -3.1333,1.483398 h -0.15137 v -3.178711 q 1.07471,-0.529785 2.86084,-0.96875 1.80127,-0.438965 3.48145,-0.438965 3.46631,0 5.43408,1.680176 1.96777,1.665039 1.96777,4.525879 0,1.286621 -0.333,2.406738 -0.31787,1.104981 -0.95362,2.104004 -0.59033,0.938477 -1.39258,1.84668 -0.7871,0.908203 -1.92236,2.013183 -1.61963,1.589356 -3.34521,3.087891 -1.72559,1.483398 -3.22412,2.754883 h 12.12451 z"
       id="path335" />
  </g>
</svg>
