<?xml version="1.0" encoding="UTF-8"?><svg id="a" xmlns="http://www.w3.org/2000/svg" viewBox="0 0 624.24 469.28"><defs><style>.b{opacity:.9;}</style></defs><g><path d="M53.34,401.8h-12.75v-22.13h12.75v3.84h-8.05v4.86h7.49v3.84h-7.49v5.71h8.05v3.88Z"/><path d="M78.94,401.8h-5.36l-5.15-8.37-5.15,8.37h-5.03l7.34-11.41-6.87-10.72h5.18l4.77,7.96,4.68-7.96h5.05l-6.95,10.97,7.48,11.16Z"/><path d="M100.12,386.57c0,2.38-.74,4.2-2.23,5.46-1.49,1.26-3.61,1.89-6.35,1.89h-2.01v7.87h-4.69v-22.13h7.07c2.68,0,4.73,.58,6.12,1.73s2.1,2.88,2.1,5.17Zm-10.6,3.51h1.54c1.44,0,2.52-.29,3.24-.86,.72-.57,1.08-1.4,1.08-2.49s-.3-1.91-.9-2.44-1.54-.79-2.82-.79h-2.13v6.57Z"/><path d="M107.4,401.8v-22.13h4.69v18.25h8.98v3.88h-13.67Z"/><path d="M148.1,390.7c0,3.66-.91,6.48-2.72,8.45-1.82,1.97-4.42,2.95-7.81,2.95s-5.99-.98-7.81-2.95c-1.82-1.97-2.72-4.79-2.72-8.48s.91-6.5,2.73-8.44c1.82-1.94,4.43-2.91,7.83-2.91s6,.98,7.8,2.94c1.8,1.96,2.7,4.77,2.7,8.45Zm-16.15,0c0,2.47,.47,4.33,1.41,5.59,.94,1.25,2.34,1.88,4.21,1.88,3.74,0,5.62-2.49,5.62-7.46s-1.86-7.48-5.58-7.48c-1.87,0-3.28,.63-4.22,1.88-.95,1.26-1.42,3.12-1.42,5.59Z"/><path d="M160.47,393.31v8.49h-4.69v-22.13h6.45c3.01,0,5.23,.55,6.67,1.64,1.44,1.09,2.17,2.76,2.17,4.99,0,1.3-.36,2.46-1.08,3.47-.72,1.01-1.73,1.81-3.04,2.38,3.33,4.98,5.5,8.19,6.51,9.64h-5.21l-5.28-8.49h-2.5Zm0-3.81h1.51c1.48,0,2.58-.25,3.28-.74,.71-.49,1.06-1.27,1.06-2.33s-.36-1.8-1.08-2.24-1.84-.67-3.35-.67h-1.42v5.98Z"/><path d="M192.09,401.8h-12.75v-22.13h12.75v3.84h-8.05v4.86h7.49v3.84h-7.49v5.71h8.05v3.88Z"/><path d="M204.5,393.31v8.49h-4.69v-22.13h6.45c3.01,0,5.23,.55,6.67,1.64,1.44,1.09,2.17,2.76,2.17,4.99,0,1.3-.36,2.46-1.08,3.47-.72,1.01-1.73,1.81-3.04,2.38,3.33,4.98,5.5,8.19,6.51,9.64h-5.21l-5.28-8.49h-2.5Zm0-3.81h1.51c1.48,0,2.58-.25,3.28-.74,.71-.49,1.06-1.27,1.06-2.33s-.36-1.8-1.08-2.24-1.84-.67-3.35-.67h-1.42v5.98Z"/><path d="M239.14,401.8h-4.62v-22.13h12.68v3.84h-8.07v5.71h7.51v3.83h-7.51v8.75Z"/><path d="M274.73,390.7c0,3.66-.91,6.48-2.72,8.45-1.82,1.97-4.42,2.95-7.81,2.95s-5.99-.98-7.81-2.95c-1.82-1.97-2.72-4.79-2.72-8.48s.91-6.5,2.73-8.44c1.82-1.94,4.43-2.91,7.83-2.91s6,.98,7.8,2.94c1.8,1.96,2.7,4.77,2.7,8.45Zm-16.15,0c0,2.47,.47,4.33,1.41,5.59,.94,1.25,2.34,1.88,4.21,1.88,3.74,0,5.62-2.49,5.62-7.46s-1.86-7.48-5.58-7.48c-1.87,0-3.28,.63-4.22,1.88-.95,1.26-1.42,3.12-1.42,5.59Z"/><path d="M287.11,393.31v8.49h-4.69v-22.13h6.45c3.01,0,5.23,.55,6.67,1.64,1.44,1.09,2.17,2.76,2.17,4.99,0,1.3-.36,2.46-1.08,3.47-.72,1.01-1.73,1.81-3.04,2.38,3.33,4.98,5.5,8.19,6.51,9.64h-5.21l-5.28-8.49h-2.5Zm0-3.81h1.51c1.48,0,2.58-.25,3.28-.74,.71-.49,1.06-1.27,1.06-2.33s-.36-1.8-1.08-2.24-1.84-.67-3.35-.67h-1.42v5.98Z"/><path d="M329.75,379.67h4.74l-7.52,22.13h-5.12l-7.51-22.13h4.74l4.16,13.17c.23,.78,.47,1.68,.72,2.72,.25,1.04,.4,1.75,.46,2.16,.11-.93,.49-2.55,1.14-4.87l4.19-13.17Z"/><path d="M340.38,401.8v-22.13h4.69v22.13h-4.69Z"/><path d="M366.8,395.65c0,2-.72,3.57-2.16,4.72-1.44,1.15-3.44,1.73-6,1.73-2.36,0-4.45-.44-6.27-1.33v-4.36c1.49,.67,2.76,1.13,3.79,1.41,1.03,.27,1.98,.41,2.84,.41,1.03,0,1.82-.2,2.37-.59,.55-.39,.82-.98,.82-1.76,0-.43-.12-.82-.36-1.16s-.6-.66-1.07-.98c-.47-.31-1.43-.81-2.87-1.5-1.35-.64-2.37-1.25-3.04-1.83s-1.22-1.27-1.62-2.04c-.4-.78-.61-1.69-.61-2.72,0-1.96,.66-3.5,1.99-4.62,1.33-1.12,3.16-1.68,5.5-1.68,1.15,0,2.25,.14,3.29,.41,1.04,.27,2.14,.66,3.28,1.15l-1.51,3.65c-1.18-.48-2.16-.82-2.93-1.01-.77-.19-1.53-.29-2.28-.29-.89,0-1.57,.21-2.04,.62-.47,.41-.71,.95-.71,1.62,0,.41,.1,.78,.29,1.08,.19,.31,.5,.61,.92,.89,.42,.29,1.41,.8,2.97,1.55,2.07,.99,3.49,1.98,4.25,2.97,.77,.99,1.15,2.21,1.15,3.66Z"/><path d="M391.93,379.67v14.32c0,1.63-.37,3.07-1.1,4.3s-1.79,2.17-3.17,2.83c-1.38,.66-3.02,.98-4.9,.98-2.85,0-5.06-.73-6.63-2.19-1.57-1.46-2.36-3.45-2.36-5.99v-14.26h4.68v13.55c0,1.71,.34,2.96,1.03,3.75,.69,.8,1.82,1.2,3.41,1.2s2.65-.4,3.34-1.2c.69-.8,1.04-2.06,1.04-3.78v-13.52h4.68Z"/><path d="M413.99,401.8l-1.6-5.27h-8.07l-1.6,5.27h-5.06l7.81-22.22h5.74l7.84,22.22h-5.06Zm-2.72-9.2c-1.48-4.77-2.32-7.47-2.5-8.1-.19-.63-.32-1.12-.4-1.48-.33,1.29-1.29,4.49-2.86,9.58h5.77Z"/><path d="M424.93,401.8v-22.13h4.69v18.25h8.98v3.88h-13.67Z"/><path d="M466.1,383.25c-1.77,0-3.13,.66-4.1,1.99s-1.45,3.18-1.45,5.55c0,4.93,1.85,7.4,5.56,7.4,1.55,0,3.44-.39,5.65-1.17v3.94c-1.82,.76-3.84,1.13-6.08,1.13-3.22,0-5.68-.98-7.39-2.93-1.71-1.95-2.56-4.76-2.56-8.41,0-2.3,.42-4.32,1.26-6.05,.84-1.73,2.04-3.06,3.61-3.98,1.57-.92,3.41-1.38,5.52-1.38s4.31,.52,6.48,1.56l-1.51,3.81c-.83-.39-1.66-.74-2.5-1.03s-1.66-.44-2.47-.44Z"/><path d="M499.64,390.7c0,3.66-.91,6.48-2.72,8.45-1.82,1.97-4.42,2.95-7.81,2.95s-5.99-.98-7.81-2.95c-1.82-1.97-2.72-4.79-2.72-8.48s.91-6.5,2.73-8.44c1.82-1.94,4.43-2.91,7.83-2.91s6,.98,7.8,2.94c1.8,1.96,2.7,4.77,2.7,8.45Zm-16.15,0c0,2.47,.47,4.33,1.41,5.59,.94,1.25,2.34,1.88,4.21,1.88,3.74,0,5.62-2.49,5.62-7.46s-1.86-7.48-5.58-7.48c-1.87,0-3.28,.63-4.22,1.88-.95,1.26-1.42,3.12-1.42,5.59Z"/><path d="M525.69,390.52c0,3.64-1.04,6.43-3.11,8.37-2.07,1.94-5.07,2.91-8.98,2.91h-6.27v-22.13h6.95c3.61,0,6.42,.95,8.42,2.86,2,1.91,3,4.57,3,7.99Zm-4.88,.12c0-4.75-2.1-7.13-6.3-7.13h-2.5v14.41h2.01c4.52,0,6.78-2.43,6.78-7.28Z"/><path d="M546.12,401.8h-12.75v-22.13h12.75v3.84h-8.05v4.86h7.49v3.84h-7.49v5.71h8.05v3.88Z"/><path d="M563.13,395.38v-3.78h8.13v3.78h-8.13Z"/><path d="M250.55,439h-16.47v-3.04l10.61-15.21h-10.32v-3.88h15.89v3.03l-10.6,15.23h10.88v3.88Z"/><path d="M277.26,427.9c0,3.66-.91,6.48-2.72,8.45-1.82,1.97-4.42,2.95-7.81,2.95s-5.99-.98-7.81-2.95c-1.82-1.97-2.72-4.79-2.72-8.48s.91-6.5,2.73-8.44c1.82-1.94,4.43-2.91,7.83-2.91s6,.98,7.8,2.94c1.8,1.96,2.7,4.77,2.7,8.45Zm-16.15,0c0,2.47,.47,4.33,1.41,5.59,.94,1.25,2.34,1.88,4.21,1.88,3.74,0,5.62-2.49,5.62-7.46s-1.86-7.48-5.58-7.48c-1.87,0-3.28,.63-4.22,1.88-.95,1.26-1.42,3.12-1.42,5.59Z"/><path d="M306.51,439h-5.34l-3-11.62c-.11-.41-.3-1.27-.57-2.57s-.42-2.17-.46-2.61c-.06,.54-.21,1.42-.46,2.63-.24,1.21-.43,2.07-.56,2.58l-2.98,11.59h-5.33l-5.65-22.13h4.62l2.83,12.08c.49,2.23,.85,4.16,1.07,5.8,.06-.57,.2-1.46,.42-2.67,.22-1.21,.42-2.14,.61-2.81l3.22-12.4h4.44l3.22,12.4c.14,.55,.32,1.4,.53,2.54,.21,1.14,.37,2.12,.48,2.94,.1-.79,.26-1.77,.48-2.94,.22-1.18,.42-2.13,.61-2.85l2.81-12.08h4.62l-5.63,22.13Z"/><path d="M330.77,439h-12.75v-22.13h12.75v3.84h-8.05v4.86h7.49v3.84h-7.49v5.71h8.05v3.88Z"/><path d="M362.26,416.87h4.74l-7.52,22.13h-5.12l-7.51-22.13h4.74l4.16,13.17c.23,.78,.47,1.68,.72,2.72,.25,1.04,.4,1.75,.46,2.16,.11-.93,.49-2.55,1.14-4.87l4.19-13.17Z"/><path d="M386.81,439h-15.47v-3.25l5.56-5.62c1.64-1.69,2.72-2.85,3.22-3.5,.5-.65,.87-1.25,1.09-1.81,.22-.55,.33-1.13,.33-1.72,0-.89-.25-1.55-.73-1.98s-1.14-.65-1.96-.65c-.86,0-1.69,.2-2.5,.59-.81,.39-1.65,.95-2.53,1.68l-2.54-3.01c1.09-.93,1.99-1.58,2.71-1.97,.72-.38,1.5-.68,2.35-.89,.85-.21,1.8-.31,2.85-.31,1.38,0,2.6,.25,3.66,.76,1.06,.5,1.88,1.21,2.47,2.12,.58,.91,.88,1.95,.88,3.12,0,1.02-.18,1.97-.54,2.87-.36,.89-.91,1.81-1.67,2.75s-2.08,2.28-3.97,4.01l-2.85,2.68v.21h9.64v3.94Z"/></g><g><polygon points="368.73 246.47 370.65 241.13 367.48 243.31 368.59 246.47 368.73 246.47"/><path d="M243.61,69.3c-.06,.68-.23,1.36-.49,2.01,.26-.65,.42-1.32,.49-2.01Z"/><path d="M252.53,61.54h0c.26-.02,.52,0,.78,.02-.26-.03-.51-.04-.77-.02Z"/><path d="M332.35,239.12l.11-1.08c-.21,.1-.4,.2-.62,.29l.5,.79Z"/><path d="M231.34,63.55c-.08,.08-.15,.17-.23,.26,.08-.09,.15-.18,.24-.26h0Z"/><path d="M344.2,127.97c-3.46,.48-6.4,1.85-8.73,3.86,2.33-2.01,5.27-3.38,8.73-3.86h0Z"/><path d="M321.45,224.02v11.17h3.88c2.6,0,4.49-.48,5.65-1.45s1.75-2.4,1.75-4.3-.63-3.32-1.89-4.16-3.16-1.26-5.7-1.26h-3.69Z"/><path d="M548.71,6.74h-83.89l37.48,54.35c.59,.32,1.15,.71,1.66,1.19h0c1.28,1.22,2.01,2.79,2.2,4.41l4.54,6.58v-12.96h1.11v14.5s0,.05,0,.08l25.33,36.73c18.47,2.88,27,18.97,27,36.42,0,.81-.04,1.68-.09,2.59l48,69.6V70.08c0-34.98-28.36-63.35-63.35-63.35Zm-23.9,68.04h-8.04v-14.46h7.89v.93h-6.77v5.78h6.59v.94h-6.59v5.87h6.92v.94Zm16.21-1.14c-1.57,.87-3.32,1.33-5.12,1.35-2.05,.07-4.03-.7-5.51-2.12-2.89-2.89-2.89-7.58,0-10.47h0s.07-.07,.1-.11c1.43-1.39,3.36-2.16,5.35-2.13,1.74,.03,3.46,.44,5.03,1.19h0l.06,.03s-.04-.02-.06-.03v1.21c-1.58-.9-3.35-1.4-5.16-1.45-1.69-.04-3.31,.63-4.49,1.84-1.21,1.21-1.87,2.87-1.81,4.58-.07,1.72,.59,3.39,1.81,4.61,1.24,1.2,2.92,1.85,4.65,1.79,1.81-.05,3.58-.55,5.14-1.45v1.16Zm14.25-12.39h-5.42v13.53h-1.13v-13.53h-5.44v-.93h11.99v.93Z"/><path d="M254.7,67.61c.24-.11,.48-.25,.71-.41,.5-.46,.82-1.04,.96-1.65-.14,.61-.46,1.19-.96,1.65-.22,.16-.46,.29-.71,.41Z"/><path d="M256.26,63.69c-.14-.4-.37-.78-.68-1.11-.04-.06-.1-.12-.16-.16,.06,.04,.12,.1,.16,.16,.31,.33,.53,.71,.68,1.11Z"/><polygon points="327.04 63.95 327.04 63.95 329.39 69.74 327.04 63.95"/><path d="M413.27,229.86c-.23-.62-.56-1.6-.97-2.94-.41-1.34-.7-2.32-.85-2.94-.42,1.92-1.04,4.01-1.85,6.28l-3.08,8.9h9.95l-3.2-9.3Z"/><path d="M204.25,141.64l-37.21,25.66-.35,.95,86.27-59.5h-25.02v-17.11h49.83l14.45-9.96-1.06,9.96h9.15v14.83l-12.25,14.25-4.53,42.52h16.78v17.11h-18.6l-4.44,41.7c2.67-2.18,6.18-3.29,10.57-3.29,5.08,0,9,1.53,11.77,4.6,2.77,3.07,4.16,7.39,4.16,12.96s-1.39,9.88-4.17,12.96c-2.78,3.08-6.72,4.62-11.81,4.62s-9.11-1.53-11.88-4.59c-.5-.56-.94-1.17-1.35-1.81l-3.14,29.48h144.45l39.89-27.51-14.35-23.25h-.19l.12,1.52c.22,2.9,.33,5.54,.33,7.94v17.75h-5.07v-34.15h6.77l16.75,27.07h.14c-.03-.36-.09-1.66-.19-3.91s-.14-4.01-.14-5.27v-17.89h5.12v23.78l20.01-13.8v-5.19h-10.04v-4.79h10.45l-26.51-38.44h-.9l-71.65,49.41v23.18h-5.37v-16.89c0-.76,.01-1.64,.03-2.6l-4.12,2.84-6,16.65h-4.93l-2.55-7.35-7.14,4.92v2.43h-3.52l-23.69,16.34,2.39-22.46-4.51-7.53h-5.51v13.64h-5.58v-34.15h9.65c3.75,0,6.66,.6,8.75,1.8l4.27-40.1c-16.66-3.53-28.23-17.41-28.23-34.23v-.25c0-19.14,15.12-34.74,35.67-35.33l3.77-35.4h-1.97v-16.03h3.68l3.21-30.09-15.81-22.93h-35.18L173.24,96.69l31,44.95Zm204.19,77.52h6.07l12.78,34.29h-5.93l-3.41-9.48h-13.06l-3.34,9.48h-5.89l12.78-34.29ZM338.9,59.76h4.82v16.03h-4.82v-16.03Zm-14.55,0h5.41l7,16.03h-4.94l-1.32-3.25h-6.96l-1.33,3.25h-4.94l7.09-16.03Zm-27.88,0h4.38l4.93,6.01,4.94-6.01h4.39v16.03h-4.84v-9.29l-4.35,5.38h-.39l-4.37-5.38v9.29h-4.69v-16.03Zm-24.71,.74h1.06l12.24,14.12v-14.12h1.25v16.16h-1.03l-12.27-14.14v14.14h-1.25v-16.16Zm-11.57,0h8.81v1.04h-7.57v6.46h7.37v1.04h-7.37v6.56h7.76v1.05h-9v-16.16Zm-12.12,0h4.45c1.4-.09,2.78,.32,3.91,1.15,.11,.1,.22,.21,.32,.33,1.53,1.76,1.35,4.43-.41,5.96-1.16,.86-2.58,1.27-4.02,1.17h-3.09v7.52h-1.24l.07-16.13Zm-17.81,2.41l.16-.16c1.61-1.59,3.79-2.45,6.05-2.41v-.04c2.27-.06,4.46,.81,6.07,2.41,3.26,3.13,3.37,8.3,.24,11.56-.01,0-.03,.02-.04,.04l-.2,.2c-3.4,3.21-8.71,3.21-12.12,0-3.24-3.16-3.31-8.35-.16-11.59Z"/><path d="M287.77,249.15c3.32,0,5.82-1.08,7.51-3.22,1.69-2.15,2.53-5.35,2.53-9.6s-.84-7.37-2.51-9.53c-1.67-2.16-4.17-3.25-7.49-3.25s-5.88,1.08-7.58,3.25c-1.71,2.17-2.56,5.34-2.56,9.53s.85,7.39,2.55,9.57c1.7,2.17,4.21,3.26,7.54,3.26Z"/><polygon points="231.33 73.67 231.33 73.67 231.35 73.69 231.33 73.67 231.33 73.67"/><polygon points="266.76 320.53 266.62 321.8 280.21 341.5 322.31 341.5 352.72 320.53 266.76 320.53"/><polygon points="35.76 320.53 35.76 276.99 109.75 276.99 12.06 135.34 12.06 323.06 12.06 341.5 154.24 341.5 139.77 320.53 35.76 320.53"/><path d="M75.41,6.74c-34.98,0-63.35,28.36-63.35,63.35v40.84L163.14,6.74H75.41Z"/><polygon points="589.3 276.99 589.3 320.53 493.26 320.53 462.85 341.5 612.06 341.5 612.06 238.6 556.39 276.99 589.3 276.99"/><path d="M329.8,141.71c.16-.73,.35-1.45,.58-2.14-.23,.7-.43,1.41-.58,2.14Z"/><path d="M330.37,152.97c-.34-1.02-.61-2.07-.78-3.15,.18,1.08,.44,2.13,.78,3.15Z"/><path d="M329.32,146.26h0c0-1.56,.16-3.09,.47-4.55-.31,1.46-.47,2.99-.47,4.55Z"/><path d="M333.34,158.53c-1.28-1.65-2.29-3.54-2.97-5.57,.69,2.03,1.69,3.91,2.97,5.57Z"/><path d="M469.24,67.03c.36,.03,.71,0,1.06-.07-.35,.06-.7,.1-1.06,.07h0Z"/><path d="M472.17,62.13s.02,.03,.03,.04h0s-.02-.02-.03-.04l-.14-.16c-.76-.56-1.7-.84-2.64-.78h0c.95-.06,1.88,.22,2.64,.78l.14,.16Z"/><path d="M472,66.26c-.4,.28-.84,.5-1.31,.63,.47-.13,.91-.34,1.31-.63Z"/><path d="M472,66.26h0c.1-.09,.18-.19,.26-.29-.08,.1-.17,.2-.27,.29h0Z"/><path d="M392.24,66.31c.23-.17,.4-.39,.52-.64-.11,.25-.29,.47-.52,.64Z"/><g class="b"><path d="M563.9,153.1h-47.27c1.9,8.74,7.98,13.31,16.6,13.31,6.46,0,11.15-2.03,16.47-6.97l11.03,9.76c-6.34,7.86-15.46,12.67-27.75,12.67-20.4,0-35.48-14.32-35.48-35.1v-.25c0-19.39,13.81-35.36,33.58-35.36,2.14,0,4.16,.16,6.08,.46l-25.33-36.73c.1,1.14-.22,2.27-.9,3.19-.55,.59-1.33,.92-2.13,.92-.22,0-.44,0-.67,0l-.1-1.05c.21,.05,.43,.07,.65,.07,1.36,0,2.03-.96,2.03-2.9v-1.86l-4.54-6.58c.24,2.06-.4,4.22-1.95,5.84-.03,.03-.06,.06-.08,.09l-.18,.18c-3.05,2.88-7.81,2.88-10.86,0-2.9-2.82-2.97-7.46-.15-10.37h0l.14-.15c2.54-2.39,6.26-2.79,9.2-1.19L464.83,6.74h-125.97l15.81,22.93-3.21,30.09h.61l8.29,8.88v-8.88h4.81v16.03h-4.29l-8.32-8.93v8.93h-2.81l-3.77,35.4c.4-.01,.8-.03,1.21-.03,21.04,0,36.62,15.59,36.62,35.1v.25c0,19.52-15.71,35.36-36.88,35.36-2.91,0-5.72-.31-8.39-.88l-4.27,40.1c.37,.21,.72,.43,1.03,.68,2.12,1.65,3.18,4.14,3.18,7.47,0,4.04-2.02,6.96-6.02,8.8l-.11,1.08,9.15,14.33h-6.35l-3.67-6.12-2.39,22.46,23.69-16.34h-1.54v-34.15h7.87l8.38,24.01,3.16-2.18,7.85-21.83h7.9v10.97l71.65-49.41h-4.39l-13.05-41.69-13.31,41.69h-17.23l-20.91-68.43h19.52l10.9,41.19,12.8-41.44h16.6l12.93,41.57,11.15-41.31h19.14l-21.16,68.43h-12.07l26.51,38.44h15.22v4.79h-10.04v29.36h-5.58v-24.18l-20.01,13.8v10.37h-6.84l-2.45-3.97-39.89,27.51h140.54l55.67-38.4v-18.37l-48-69.6c-.05,.81-.11,1.64-.16,2.48ZM380.68,62.98h-6.65v3.1h6.65v3.22h-6.65v6.49h-4.83v-16.03h11.48v3.22Zm13.58,12.81l-1.26-2.9c-.34-.8-.75-1.57-1.25-2.28-.27-.4-.65-.72-1.08-.93-.44-.15-.9-.22-1.36-.2h-.54v6.26h-4.84v-15.99h8.22c1.14-.05,2.27,.23,3.26,.81,.79,.47,1.42,1.14,1.84,1.96,.35,.68,.54,1.44,.55,2.2,.03,.71-.13,1.42-.46,2.06-.24,.47-.58,.88-.99,1.22-.38,.27-.77,.51-1.17,.73,.49,.27,.92,.64,1.28,1.07,.56,.77,1.04,1.6,1.42,2.48l1.58,3.51h-5.19Zm20.03,0l-1.3-3.25h-6.96l-1.33,3.25h-4.96l7.09-16.03h5.35l7.06,16.03h-4.94Zm25.71,0h-4.82v-9.29l-4.37,5.38h-.37l-4.38-5.38v9.29h-4.69v-16.03h4.4l4.91,6.01,4.96-6.01h4.38v16.03Zm16.13,0h-12.09v-16.03h11.88v3.21h-7.04v2.93h6.73v3.23h-6.73v3.42h7.25v3.23Zm16.78-8.83c-1.04,.77-2.32,1.14-3.61,1.04h-2.75v6.77h-1.11v-14.47h3.99c1.25-.09,2.49,.28,3.49,1.03,.83,.69,1.28,1.73,1.22,2.8,.05,1.08-.4,2.12-1.22,2.83Zm14.66,7.81l-2.52-3.94c-.51-.93-1.17-1.77-1.96-2.48-.62-.36-1.34-.54-2.06-.49h-2v6.94h-1.11l.04-14.5h3.7c1.27-.09,2.53,.27,3.57,1.02,.82,.66,1.27,1.67,1.23,2.72,0,1.67-1.13,3.12-2.75,3.51,.8,.59,1.46,1.35,1.93,2.22l3.27,5h-1.34Z"/></g><path d="M388.77,66.7h1.03c.21,.01,.42,.02,.62,0-.21,0-.41,0-.62,0h-1.03Z"/><path d="M481.45,61.24c.45-.03,.9,.02,1.34,.12-.44-.1-.89-.15-1.34-.12h-2.36v0h2.36Z"/><polygon points="292.21 81.68 277.77 91.64 291.15 91.64 292.21 81.68"/><polygon points="164.11 128.7 132.01 150.84 138.35 91.35 131.63 81.59 84.02 114.42 91.78 125.68 122.88 104.23 116.54 163.72 123.27 173.48 171.87 139.95 164.11 128.7"/><polygon points="283.52 163.24 288.05 120.72 251.51 163.24 283.52 163.24"/><g class="b"><polygon points="266.76 320.53 139.77 320.53 154.24 341.5 280.21 341.5 266.62 321.8 266.76 320.53"/></g><g class="b"><polygon points="352.72 320.53 322.31 341.5 462.85 341.5 493.26 320.53 352.72 320.53"/></g><g class="b"><path d="M271.4,276.99l3.14-29.48c-1.85-2.89-2.79-6.62-2.79-11.23,0-5.64,1.39-9.97,4.17-12.99,.42-.45,.87-.86,1.34-1.24l4.44-41.7h-55.28v-14.83l48.79-56.77h-22.25l-86.27,59.5,.35-.95-53.7,37.03L50.65,113.43l90.91-62.69,31.69,45.95L303.67,6.74H163.14L12.06,110.92v24.42l97.69,141.65h161.65Zm-28.21-57.69h19.27v4.72h-13.73v10.67h12.87v4.74h-12.87v14.02h-5.54v-34.15Zm-42.25,0h6.77l16.75,27.07h.14c-.03-.36-.09-1.66-.19-3.91s-.14-4.01-.14-5.27v-17.89h5.12v34.15h-6.84l-16.79-27.21h-.19l.12,1.52c.22,2.9,.33,5.54,.33,7.94v17.75h-5.07v-34.15Zm-39.95,3.99c2.78-3.02,6.75-4.53,11.9-4.53s9,1.53,11.77,4.6c2.77,3.07,4.16,7.39,4.16,12.96s-1.39,9.88-4.17,12.96c-2.78,3.08-6.72,4.62-11.81,4.62s-9.11-1.53-11.88-4.59c-2.76-3.06-4.15-7.41-4.15-13.05s1.39-9.97,4.17-12.99Zm-37.32,3.76c1.3-2.66,3.18-4.7,5.64-6.12s5.35-2.13,8.67-2.13c3.49,0,6.71,.73,9.67,2.2l-2.01,4.65c-1.15-.54-2.37-1.02-3.66-1.44-1.29-.41-2.64-.62-4.05-.62-3.21,0-5.73,1.14-7.57,3.41-1.84,2.27-2.76,5.41-2.76,9.41s.88,7.36,2.65,9.51c1.77,2.15,4.33,3.22,7.67,3.22,1.45,0,2.85-.14,4.2-.43,1.36-.29,2.76-.66,4.23-1.11v4.79c-2.68,1.01-5.72,1.52-9.11,1.52-5,0-8.84-1.51-11.52-4.54-2.68-3.03-4.02-7.36-4.02-13,0-3.55,.65-6.66,1.95-9.32Z"/></g><g class="b"><path d="M172.84,249.15c3.32,0,5.82-1.08,7.51-3.22,1.69-2.15,2.53-5.35,2.53-9.6s-.84-7.37-2.51-9.53c-1.67-2.16-4.17-3.25-7.49-3.25s-5.88,1.08-7.58,3.25c-1.71,2.17-2.56,5.34-2.56,9.53s.85,7.39,2.55,9.57c1.7,2.17,4.21,3.26,7.54,3.26Z"/></g><path d="M346.94,127.76c3.33,0,6.32,.85,8.86,2.33-2.54-1.48-5.53-2.33-8.86-2.33-.95,0-1.86,.08-2.74,.21h0c.88-.12,1.79-.21,2.74-.21Z"/><path d="M493.95,63c-.06,.06-.12,.13-.18,.2,.06-.07,.11-.13,.18-.2h0Z"/><path d="M497.9,73.89c.21,.02,.42,.02,.64,.02h0c-.21,0-.43,0-.64-.02Z"/><path d="M381.36,224.98h-.19l-4.26,11.82,4.12-2.84c.02-1.19,.05-2.52,.1-4.03,.08-2.73,.16-4.38,.22-4.95Z"/><path d="M355.9,224.93c.26,4.24,.4,8.21,.4,11.91v14.18l7.14-4.92-7.35-21.17h-.19Z"/><path d="M392.49,63.57c-.1-.11-.21-.21-.34-.29-.55-.26-1.15-.42-1.75-.45-.2-.01-.41-.01-.61,0h-1.01v3.87h1.03c.21,.01,.42,.02,.62,0,.62-.03,1.23-.16,1.81-.4,.23-.17,.4-.39,.52-.64,.11-.25,.16-.53,.14-.81v-.05c.02-.15,.01-.3-.02-.45-.05-.29-.18-.57-.38-.79Z"/><path d="M484.61,62.32l-.33-.33c-.46-.3-.96-.51-1.49-.63-.44-.1-.89-.15-1.34-.12h-2.36v5.67h2.39c.99,.06,1.98-.2,2.81-.74,1.15-.97,1.29-2.69,.32-3.84Z"/><path d="M472.79,63.16c-.04-.13-.11-.25-.17-.37-.02-.05-.04-.1-.07-.14-.07-.12-.16-.22-.24-.33-.04-.05-.06-.1-.1-.14h0s-.02-.02-.03-.04l-.14-.16c-.76-.56-1.7-.84-2.64-.78l-2.83,.04v5.8h2.68c.36,.03,.71,0,1.06-.07,.13-.02,.26-.04,.38-.07,.47-.13,.91-.34,1.31-.63,.1-.09,.18-.19,.27-.29,.04-.05,.09-.09,.13-.14,.08-.11,.15-.24,.21-.36,.02-.04,.06-.08,.08-.13,.06-.14,.11-.28,.15-.43,0-.03,.03-.07,.04-.1,.03-.13,.05-.27,.06-.41,0-.05,.02-.09,.02-.14,0-.14,0-.28-.02-.42,0-.05,0-.09,0-.14-.02-.14-.06-.28-.1-.42-.01-.04-.02-.08-.03-.13Z"/><path d="M340.36,163.92l3.83-35.96c-3.46,.48-6.4,1.85-8.73,3.86-1.81,1.56-3.25,3.51-4.28,5.71-.31,.65-.57,1.33-.81,2.03-.23,.7-.43,1.41-.58,2.14-.31,1.46-.47,2.99-.47,4.56v.25c0,1.12,.09,2.23,.27,3.31,.18,1.08,.44,2.13,.78,3.15,.69,2.03,1.69,3.91,2.97,5.57,1.82,2.35,4.2,4.22,7.02,5.39Z"/><g class="b"><path d="M344.2,127.97l-3.83,35.96c2.06,.86,4.35,1.35,6.83,1.35,11.03,0,17.61-8.49,17.61-18.5v-.25c0-.92-.07-1.83-.19-2.72-.33-2.41-1.08-4.71-2.2-6.77-.67-1.23-1.45-2.38-2.37-3.41-.07-.08-.12-.16-.19-.23-1.18-1.29-2.54-2.4-4.06-3.29-2.54-1.48-5.53-2.33-8.86-2.33-.95,0-1.86,.08-2.74,.21Z"/></g><polygon points="407.16 69.74 411.88 69.74 409.53 63.95 407.16 69.74"/><path d="M254.7,67.61c.24-.11,.48-.25,.71-.41,.5-.46,.82-1.04,.96-1.65,.05-.2,.08-.41,.08-.62,.02-.42-.05-.84-.19-1.24s-.37-.78-.68-1.11c-.04-.06-.1-.12-.16-.16-.62-.48-1.35-.77-2.12-.86-.26-.03-.51-.04-.78-.02h-3.21v6.52h3.02c.82,.05,1.63-.1,2.37-.45Z"/><g class="b"><path d="M526.88,127.2c-.86,.26-1.68,.59-2.45,1.01s-1.49,.9-2.16,1.46c-1.34,1.12-2.49,2.52-3.42,4.17-1.17,2.06-2,4.49-2.48,7.23h29.02c-.1-.75-.24-1.47-.4-2.17-.86-3.83-2.57-6.98-5.05-9.13-.09-.08-.19-.15-.29-.23-2.28-1.86-5.16-2.91-8.59-2.91-1.5,0-2.9,.2-4.19,.58Z"/></g><polygon points="329.39 69.74 327.04 63.95 324.67 69.74 329.39 69.74"/><path d="M230.84,73.12c.08,.1,.18,.2,.27,.3,.07,.08,.14,.17,.22,.24h0l.02,.02c1.43,1.37,3.27,2.06,5.11,2.06,.46,0,.92-.04,1.37-.13s.9-.21,1.34-.39c.43-.17,.86-.39,1.26-.64,.4-.26,.78-.56,1.14-.9,.35-.35,.65-.73,.91-1.13,.26-.4,.47-.82,.65-1.25,.26-.65,.42-1.32,.49-2.01,.02-.23,.03-.46,.03-.69,0-.46-.04-.92-.13-1.37-.04-.23-.1-.45-.16-.67-.13-.44-.3-.88-.52-1.29-.16-.31-.35-.62-.56-.91s-.44-.57-.7-.83c-.89-.86-1.95-1.45-3.06-1.77-1.34-.39-2.76-.39-4.1,0-1.11,.32-2.17,.91-3.06,1.77h0c-.08,.08-.16,.17-.24,.26-.09,.09-.18,.19-.26,.28-.07,.09-.13,.18-.2,.27-.08,.1-.16,.21-.23,.31-.06,.09-.11,.18-.16,.27-.07,.11-.14,.22-.2,.34-.05,.09-.08,.18-.13,.27-.06,.12-.12,.24-.17,.36-.04,.1-.07,.21-.11,.32-.04,.11-.08,.22-.12,.34-.03,.11-.05,.22-.08,.33-.03,.11-.06,.23-.08,.34-.02,.1-.03,.21-.05,.31-.02,.12-.04,.24-.05,.37-.01,.11-.01,.22-.02,.33,0,.12-.02,.24-.02,.35,0,.11,.01,.22,.01,.33,0,.12,0,.24,.02,.36,.01,.11,.03,.21,.05,.32,.02,.12,.03,.24,.05,.36,.02,.1,.05,.2,.07,.3,.03,.12,.05,.25,.09,.37,.03,.11,.08,.22,.11,.33,.04,.11,.07,.22,.11,.33,.04,.11,.1,.22,.15,.33,.05,.1,.09,.21,.14,.31,.05,.1,.11,.19,.17,.28,.06,.11,.12,.22,.19,.33,.07,.1,.15,.2,.22,.31,.07,.09,.13,.19,.2,.27Z"/><path d="M493.96,63c-.06,.06-.12,.13-.18,.2-.09,.1-.18,.19-.26,.29-.03,.04-.05,.08-.08,.11-.1,.13-.21,.27-.3,.4-.23,.34-.41,.7-.57,1.07,0,.01-.01,.03-.02,.04-.05,.11-.08,.23-.12,.34-.03,.08-.06,.16-.09,.25-.01,.05-.02,.1-.04,.15-.04,.15-.08,.3-.11,.45-.01,.05-.01,.11-.02,.16-.02,.15-.05,.3-.06,.45,0,.09,0,.17-.01,.26,0,.12-.02,.23-.02,.35s.01,.22,.02,.34c0,.09,0,.19,.01,.28,.01,.12,.03,.24,.05,.36,.01,.08,.02,.17,.04,.25,.03,.14,.06,.27,.1,.41,.02,.06,.03,.13,.05,.19,.02,.08,.06,.17,.09,.25,.04,.11,.07,.23,.12,.34,0,.01,.01,.03,.02,.04,.15,.37,.34,.73,.57,1.07,.04,.06,.09,.12,.14,.18,.08,.11,.16,.23,.25,.33,.02,.02,.04,.04,.05,.06,.12,.15,.25,.29,.39,.43,.15,.15,.31,.3,.47,.43,.49,.4,1.04,.73,1.63,.96s1.2,.38,1.84,.43c.21,.02,.43,.02,.64,.02h0c.43,.02,.85,0,1.27-.09,1.24-.23,2.4-.83,3.3-1.74,2.48-2.52,2.48-6.56,0-9.08-2.55-2.47-6.6-2.47-9.14,0Z"/><path d="M472.55,62.64s.04,.1,.07,.14"/><path d="M472.79,63.16s.02,.08,.03,.13"/><path d="M472.93,64.4s.02-.09,.02-.14"/><path d="M472.83,64.91s.03-.07,.04-.1"/><path d="M472.6,65.47s.06-.08,.08-.13"/><path d="M472.26,65.97s.09-.09,.13-.14"/><path d="M470.3,66.96c.13-.02,.26-.04,.38-.07"/><path d="M472.92,63.7s0,.09,0,.14"/><path d="M493.52,63.49c.08-.1,.17-.19,.26-.29"/><path d="M496.06,73.46c-.58-.23-1.13-.56-1.63-.96"/><path d="M492.08,67.53c0-.12,.01-.23,.02-.35"/><path d="M492.2,66.31c.03-.15,.07-.3,.11-.45"/><path d="M493.13,64.01c.09-.14,.19-.27,.3-.4"/><path d="M492.43,69.61c.04,.11,.07,.23,.12,.34"/><path d="M492.55,65.12s.01-.03,.02-.04"/><path d="M492.34,65.71c.02-.08,.06-.17,.09-.25"/><path d="M493.52,71.58c-.09-.11-.17-.22-.25-.33"/><path d="M492.16,68.51c.01,.08,.02,.17,.04,.25"/><path d="M492.3,69.17c.02,.06,.03,.13,.05,.19"/><path d="M492.09,67.87c0,.09,0,.19,.01,.28"/><path d="M492.11,66.92c.01-.15,.04-.3,.06-.45"/><path d="M392.15,63.28c-.55-.26-1.15-.42-1.75-.45"/><path d="M392.49,63.57c.2,.22,.33,.5,.38,.79"/><path d="M229.27,69.29c-.01-.12-.01-.24-.02-.36"/><path d="M229.37,69.97c-.02-.12-.03-.24-.05-.36"/><path d="M230.41,72.54c-.07-.11-.13-.22-.19-.33"/><path d="M243.35,66.58c-.13-.44-.3-.88-.52-1.29"/><path d="M242.83,65.28c-.16-.31-.35-.62-.56-.91"/><path d="M231.11,63.8c-.09,.09-.18,.19-.26,.28"/><path d="M230.05,71.93c-.05-.1-.1-.21-.14-.31"/><path d="M230.84,73.12c-.07-.09-.13-.18-.2-.27"/><path d="M243.51,67.25c.09,.45,.13,.91,.13,1.37"/><path d="M229.76,71.29c-.04-.11-.08-.22-.11-.33"/><path d="M229.53,70.64c-.04-.12-.06-.25-.09-.37"/><path d="M230.66,64.35c-.08,.1-.16,.21-.23,.31"/><path d="M229.26,68.25c0,.12-.02,.24-.02,.35"/><path d="M229.46,66.89c-.03,.11-.06,.23-.08,.34"/><path d="M229.33,67.55c-.02,.12-.04,.24-.05,.37"/><path d="M230.27,64.94c-.07,.11-.14,.22-.2,.34"/><path d="M229.94,65.55c-.06,.12-.12,.24-.17,.36"/><path d="M229.66,66.23c-.04,.11-.08,.22-.12,.34"/><path d="M359.86,133.38c.07,.07,.13,.16,.19,.23"/><path d="M113.95,287.69c-2.13,0-3.8,.51-5,1.53-1.21,1.02-1.81,2.42-1.81,4.2,0,.95,.18,1.77,.55,2.48,.37,.71,.86,1.33,1.47,1.86,.61,.53,1.54,1.09,2.77,1.67,1.31,.62,2.18,1.08,2.61,1.36s.75,.58,.97,.89c.22,.31,.33,.66,.33,1.05,0,.71-.25,1.24-.75,1.6-.5,.36-1.22,.54-2.15,.54-.78,0-1.64-.12-2.58-.37-.94-.25-2.09-.67-3.45-1.28v3.96c1.65,.81,3.55,1.21,5.7,1.21,2.33,0,4.15-.52,5.46-1.57s1.96-2.48,1.96-4.29c0-1.31-.35-2.42-1.05-3.32s-1.99-1.8-3.87-2.7c-1.42-.68-2.32-1.15-2.7-1.41-.38-.26-.66-.53-.83-.81s-.26-.61-.26-.98c0-.61,.22-1.1,.65-1.47,.43-.38,1.05-.56,1.86-.56,.68,0,1.37,.09,2.07,.26,.7,.17,1.59,.48,2.66,.92l.69-1.67-1.74-2.53c-.18-.05-.37-.12-.55-.17-.95-.25-1.95-.37-2.99-.37Z"/><path d="M119.92,289.1c-.84-.36-1.64-.64-2.43-.88l1.74,2.53,.68-1.65Z"/><path d="M144.25,300.27c0,1.56-.31,2.7-.94,3.43-.63,.73-1.64,1.09-3.03,1.09s-2.47-.36-3.1-1.09c-.62-.72-.94-1.86-.94-3.41v-12.32h-4.25v12.96c0,2.3,.72,4.12,2.15,5.44,1.43,1.33,3.44,1.99,6.03,1.99,1.72,0,3.2-.3,4.46-.89s2.22-1.45,2.88-2.57c.67-1.12,1-2.42,1-3.91v-13.02h-4.25v12.29Z"/><path d="M173.88,289.55c-1.27-1.05-3.13-1.58-5.57-1.58h-6.43v20.12h4.27v-7.16h1.83c2.5,0,4.42-.57,5.77-1.72,1.35-1.15,2.03-2.8,2.03-4.97s-.64-3.65-1.91-4.7Zm-3.38,7.12c-.65,.52-1.63,.78-2.95,.78h-1.4v-5.97h1.94c1.17,0,2.02,.24,2.57,.72,.55,.48,.82,1.22,.82,2.22s-.33,1.75-.98,2.26Z"/><path d="M200.03,289.55c-1.27-1.05-3.13-1.58-5.57-1.58h-6.43v20.12h4.27v-7.16h1.83c2.5,0,4.42-.57,5.77-1.72,1.35-1.15,2.03-2.8,2.03-4.97s-.64-3.65-1.91-4.7Zm-3.38,7.12c-.65,.52-1.63,.78-2.95,.78h-1.4v-5.97h1.94c1.17,0,2.02,.24,2.57,.72,.55,.48,.82,1.22,.82,2.22s-.33,1.75-.98,2.26Z"/><path d="M222.9,287.66c-3.09,0-5.47,.88-7.12,2.65-1.66,1.77-2.48,4.32-2.48,7.67s.83,5.92,2.48,7.71,4.02,2.68,7.1,2.68,5.45-.89,7.1-2.68,2.48-4.35,2.48-7.68-.82-5.9-2.46-7.68c-1.64-1.78-4-2.67-7.09-2.67Zm-.03,17.13c-1.7,0-2.97-.57-3.83-1.71s-1.28-2.83-1.28-5.08,.43-3.94,1.29-5.08,2.14-1.71,3.84-1.71c3.39,0,5.08,2.27,5.08,6.8s-1.7,6.79-5.11,6.79Z"/><path d="M258,297.16c.65-.92,.98-1.97,.98-3.16,0-2.03-.66-3.54-1.97-4.53-1.31-1-3.33-1.49-6.07-1.49h-5.86v20.12h4.27v-7.72h2.27l4.8,7.72h4.73c-.92-1.32-2.89-4.24-5.92-8.77,1.19-.52,2.12-1.25,2.77-2.17Zm-4.29-.93c-.64,.45-1.64,.67-2.99,.67h-1.38v-5.44h1.29c1.38,0,2.39,.2,3.05,.61,.66,.4,.98,1.08,.98,2.04s-.32,1.67-.96,2.12Z"/><polygon points="270.17 291.53 275.64 291.53 275.64 308.1 279.9 308.1 279.9 291.53 285.37 291.53 285.37 287.98 270.23 287.98 270.17 288.5 270.17 291.53"/><polygon points="270.17 288.5 270.23 287.98 270.17 287.98 270.17 288.5"/><path d="M316.96,300.94h1.83c2.5,0,4.42-.57,5.77-1.72,1.35-1.15,2.03-2.8,2.03-4.97s-.64-3.65-1.91-4.7c-1.27-1.05-3.13-1.58-5.57-1.58h-6.43v20.12h4.27v-7.16Zm0-9.47h1.94c1.17,0,2.02,.24,2.57,.72,.55,.48,.82,1.22,.82,2.22s-.33,1.75-.98,2.26-1.63,.78-2.95,.78h-1.4v-5.97Z"/><path d="M343.12,300.38h2.27l4.8,7.72h4.73c-.92-1.32-2.89-4.24-5.92-8.77,1.19-.52,2.12-1.25,2.77-2.17,.65-.92,.98-1.97,.98-3.16,0-2.03-.66-3.54-1.97-4.53-1.31-1-3.33-1.49-6.07-1.49h-5.86v20.12h4.27v-7.72Zm0-8.9h1.29c1.38,0,2.39,.2,3.05,.61,.66,.4,.98,1.08,.98,2.04s-.32,1.67-.96,2.12c-.64,.45-1.64,.67-2.99,.67h-1.38v-5.44Z"/><path d="M374.6,304.79c-1.7,0-2.97-.57-3.83-1.71s-1.28-2.83-1.28-5.08,.43-3.94,1.29-5.08,2.14-1.71,3.84-1.71c3.39,0,5.08,2.27,5.08,6.8,0,1.97-.34,3.48-.99,4.59l5.43-3.75c.01-.28,.03-.56,.03-.85,0-3.34-.82-5.9-2.46-7.68-1.64-1.78-4-2.67-7.09-2.67s-5.47,.88-7.12,2.65c-1.66,1.77-2.48,4.32-2.48,7.67s.83,5.92,2.48,7.71c.95,1.03,2.15,1.75,3.57,2.19l4.61-3.18c-.34,.06-.7,.1-1.08,.1Z"/><path d="M381.7,305.69c1.51-1.63,2.32-3.92,2.45-6.83l-5.43,3.75c-.67,1.16-1.67,1.87-3.04,2.1l-4.61,3.18c1.05,.32,2.22,.49,3.53,.49,3.08,0,5.45-.89,7.1-2.68Z"/><polygon points="398.58 287.98 394.27 287.98 395.34 291.14 398.82 288.74 398.58 287.98"/><path d="M405.75,308.1l6.84-20.12h-4.31l-3.81,11.97c-.59,2.11-.93,3.59-1.03,4.43-.06-.37-.2-1.02-.42-1.96s-.44-1.76-.65-2.47l-3.54-11.21-3.48,2.4,5.75,16.96h4.65Z"/><rect x="423.57" y="287.98" width="4.27" height="20.12"/><path d="M455.23,305.45c1.89-1.76,2.83-4.3,2.83-7.61,0-3.11-.91-5.53-2.72-7.27s-4.37-2.6-7.65-2.6h-6.32v20.12h5.7c3.56,0,6.28-.88,8.17-2.64Zm-9.6-13.98h2.27c3.82,0,5.73,2.16,5.73,6.48s-2.06,6.62-6.17,6.62h-1.83v-13.1Z"/><polygon points="482.27 304.57 474.95 304.57 474.95 299.38 481.76 299.38 481.76 295.89 474.95 295.89 474.95 291.47 482.27 291.47 482.27 287.98 470.68 287.98 470.68 308.1 482.27 308.1 482.27 304.57"/><path d="M499.19,300.38h2.27l4.8,7.72h4.73c-.92-1.32-2.89-4.24-5.92-8.77,1.19-.52,2.12-1.25,2.77-2.17,.65-.92,.98-1.97,.98-3.16,0-2.03-.66-3.54-1.97-4.53-1.31-1-3.33-1.49-6.07-1.49h-5.86v20.12h4.27v-7.72Zm0-8.9h1.29c1.38,0,2.39,.2,3.05,.61,.66,.4,.98,1.08,.98,2.04s-.32,1.67-.96,2.12c-.64,.45-1.64,.67-2.99,.67h-1.38v-5.44Z"/></g><path d="M11.74,463.28H611.74v-110.97H11.74v110.97Zm3.6-107.37H608.14v103.77H15.34v-103.77Z"/></svg>