<?xml version="1.0" encoding="UTF-8" standalone="no"?>
<svg
   id="a"
   viewBox="0 0 624.24 469.28"
   version="1.1"
   xmlns="http://www.w3.org/2000/svg"
   xmlns:svg="http://www.w3.org/2000/svg">
  <defs
     id="defs4">
    <style
       id="style2">.b{fill:none;}.c{fill:#fff;}.d{opacity:.9;}.e{font-family:OpenSans-Bold, Open Sans;font-size:27px;letter-spacing:.12em;}</style>
  </defs>
  <path
     class="b"
     d="M391.91,66.95c.46-.34,.7-.88,.65-1.45v-.05c.06-.61-.22-1.21-.74-1.54-.74-.35-1.55-.51-2.36-.45h-1.01v3.87h1.03c.83,.06,1.66-.08,2.43-.39Z"
     id="path6" />
  <path
     class="b"
     d="M483.96,66.8c1.15-.97,1.29-2.69,.32-3.84l-.33-.33c-.84-.55-1.83-.81-2.83-.75h-2.36v5.67h2.39c.99,.06,1.98-.2,2.81-.74Z"
     id="path8" />
  <path
     class="b"
     d="M471.67,66.91c1.19-1.07,1.28-2.9,.21-4.09h0s-.02-.03-.03-.04l-.14-.16c-.76-.56-1.7-.84-2.64-.78l-2.83,.04v5.8h2.68c.98,.07,1.95-.2,2.75-.77Z"
     id="path10" />
  <polygon
     class="b"
     points="409.2 64.59 406.84 70.39 411.55 70.39 409.2 64.59"
     id="polygon12" />
  <path
     class="b"
     d="M255.08,67.85c1.32-1.23,1.4-3.3,.18-4.62-.04-.06-.1-.12-.16-.16-.83-.63-1.86-.95-2.9-.88h-3.21v6.52h3.02c1.09,.07,2.17-.23,3.07-.86Z"
     id="path14" />
  <path
     class="b"
     d="M530.75,127.26c-7.98,0-13.18,5.7-14.7,14.45h29.02c-1.14-8.62-6.21-14.45-14.32-14.45Z"
     id="path16" />
  <polygon
     class="b"
     points="326.71 64.59 324.34 70.39 329.06 70.39 326.71 64.59"
     id="polygon18" />
  <path
     class="b"
     d="M231.02,74.33c2.85,2.74,7.36,2.74,10.22,0,2.76-2.82,2.76-7.33,0-10.14-2.85-2.74-7.36-2.74-10.22,0-2.8,2.79-2.81,7.32-.02,10.12h0l.02,.02Z"
     id="path20" />
  <path
     class="b"
     d="M502.78,72.72c2.48-2.52,2.48-6.56,0-9.08-2.55-2.47-6.6-2.47-9.14,0-2.5,2.5-2.5,6.56,0,9.06h0c1.21,1.22,2.87,1.88,4.58,1.84h0c1.71,.06,3.36-.61,4.57-1.83Z"
     id="path22" />
  <path
     class="c"
     d="M466.24,68.64h2.75c1.29,.1,2.57-.27,3.61-1.04,.82-.7,1.27-1.75,1.22-2.83,.06-1.07-.4-2.11-1.22-2.8-1-.75-2.24-1.12-3.49-1.03h-3.99v14.47h1.11v-6.77Zm0-6.77l2.83-.04c.95-.06,1.88,.22,2.64,.78l.14,.16s.02,.03,.03,.04c1.07,1.19,.98,3.02-.21,4.09h0c-.8,.57-1.77,.84-2.75,.77h-2.68v-5.8Z"
     id="path24" />
  <path
     class="c"
     d="M478.72,68.5h2c.72-.04,1.44,.13,2.06,.49,.79,.71,1.45,1.55,1.96,2.48l2.52,3.94h1.34l-3.27-5c-.47-.87-1.13-1.63-1.93-2.22,1.62-.39,2.76-1.84,2.75-3.51,.04-1.05-.41-2.06-1.23-2.72-1.03-.74-2.3-1.1-3.57-1.02h-3.7l-.04,14.5h1.11v-6.94Zm.04-6.62h2.36c1-.06,1.99,.2,2.83,.75l.33,.33c.97,1.15,.83,2.87-.32,3.84-.83,.54-1.82,.8-2.81,.74h-2.39v-5.67Z"
     id="path26" />
  <path
     class="c"
     d="M503.64,73.44l.18-.18s.06-.06,.08-.09c2.76-2.9,2.64-7.49-.26-10.25h0c-3.05-2.87-7.81-2.87-10.86,0l-.14,.15h0c-2.82,2.91-2.75,7.55,.15,10.37,3.05,2.88,7.81,2.88,10.86,0Zm-10.01-.74c-2.5-2.5-2.5-6.56,0-9.06h0c2.55-2.48,6.6-2.48,9.14,0,2.48,2.52,2.48,6.56,0,9.08-1.2,1.22-2.85,1.88-4.57,1.84h0c-1.71,.03-3.37-.64-4.58-1.85h0Z"
     id="path28" />
  <path
     class="c"
     d="M508.47,79.64c.81,0,1.58-.33,2.13-.92,.7-.94,1.02-2.11,.9-3.27v-14.5h-1.11v14.82c0,1.94-.67,2.9-2.03,2.9-.22,0-.44-.03-.65-.07l.1,1.05c.22,0,.44,0,.67,0Z"
     id="path30" />
  <polygon
     class="c"
     points="524.49 74.47 517.56 74.47 517.56 68.6 524.15 68.6 524.15 67.66 517.56 67.66 517.56 61.88 524.33 61.88 524.33 60.95 516.44 60.95 516.44 75.41 524.49 75.41 524.49 74.47"
     id="polygon32" />
  <path
     class="c"
     d="M540.55,61.98h0s.04,.02,.06,.03l-.06-.03Z"
     id="path34" />
  <path
     class="c"
     d="M535.58,75.62c1.79-.02,3.55-.48,5.12-1.35v-1.16c-1.57,.9-3.34,1.4-5.14,1.45-1.73,.06-3.41-.58-4.65-1.79-1.22-1.21-1.88-2.88-1.81-4.61-.05-1.71,.6-3.37,1.81-4.58,1.18-1.21,2.8-1.88,4.49-1.84,1.81,.05,3.59,.55,5.16,1.45v-1.21c-1.57-.75-3.29-1.16-5.03-1.19-2-.02-3.92,.74-5.35,2.13-.03,.04-.06,.07-.1,.1h0c-2.89,2.9-2.89,7.59,0,10.48,1.47,1.42,3.46,2.19,5.51,2.12Z"
     id="path36" />
  <polygon
     class="c"
     points="548.39 75.41 549.52 75.41 549.52 61.88 554.94 61.88 554.94 60.95 542.95 60.95 542.95 61.88 548.39 61.88 548.39 75.41"
     id="polygon38" />
  <polygon
     class="c"
     points="314.79 76.43 314.79 60.4 310.39 60.4 305.45 66.42 300.53 60.4 296.15 60.4 296.15 76.43 300.84 76.43 300.84 67.14 305.21 72.52 305.6 72.52 309.94 67.14 309.94 76.43 314.79 76.43"
     id="polygon40" />
  <path
     class="c"
     d="M323.21,73.18h6.96l1.32,3.25h4.94l-7-16.03h-5.41l-7.09,16.03h4.94l1.33-3.25Zm3.51-8.59l2.35,5.8h-4.72l2.37-5.8Z"
     id="path42" />
  <rect
     class="c"
     x="338.57"
     y="60.4"
     width="4.82"
     height="16.03"
     id="rect44" />
  <polygon
     class="c"
     points="352.24 67.5 360.56 76.43 364.85 76.43 364.85 60.4 360.03 60.4 360.03 69.28 351.75 60.4 347.46 60.4 347.46 76.43 352.24 76.43 352.24 67.5"
     id="polygon46" />
  <polygon
     class="c"
     points="373.71 69.94 380.36 69.94 380.36 66.72 373.71 66.72 373.71 63.62 380.36 63.62 380.36 60.4 368.88 60.4 368.88 76.43 373.71 76.43 373.71 69.94"
     id="polygon48" />
  <path
     class="c"
     d="M390.35,70.33c.44,.21,.81,.53,1.08,.93,.49,.71,.91,1.48,1.25,2.28l1.26,2.9h5.19l-1.58-3.51c-.38-.88-.86-1.71-1.42-2.48-.35-.43-.79-.8-1.28-1.07,.41-.22,.8-.46,1.17-.73,.41-.33,.75-.75,.99-1.22,.33-.63,.49-1.34,.46-2.06-.01-.77-.2-1.52-.55-2.2-.42-.81-1.06-1.49-1.84-1.96-.99-.58-2.12-.86-3.26-.81h-8.22v15.99h4.84v-6.26h.54c.46-.01,.93,.06,1.36,.2Zm-1.9-6.85h1.01c.81-.06,1.63,.1,2.36,.45,.52,.33,.8,.92,.74,1.54v.05c.05,.56-.2,1.11-.65,1.45-.77,.32-1.6,.45-2.43,.39h-1.03v-3.87Z"
     id="path50" />
  <path
     class="c"
     d="M405.71,73.18h6.96l1.3,3.25h4.94l-7.06-16.03h-5.35l-7.09,16.03h4.96l1.33-3.25Zm3.49-8.59l2.35,5.8h-4.71l2.36-5.8Z"
     id="path52" />
  <polygon
     class="c"
     points="425.74 67.14 430.12 72.52 430.49 72.52 434.86 67.14 434.86 76.43 439.68 76.43 439.68 60.4 435.31 60.4 430.35 66.42 425.44 60.4 421.04 60.4 421.04 76.43 425.74 76.43 425.74 67.14"
     id="polygon54" />
  <polygon
     class="c"
     points="455.82 73.2 448.57 73.2 448.57 69.78 455.29 69.78 455.29 66.54 448.57 66.54 448.57 63.62 455.61 63.62 455.61 60.4 443.73 60.4 443.73 76.43 455.82 76.43 455.82 73.2"
     id="polygon56" />
  <path
     class="c"
     d="M242.21,75.14l.2-.2s.02-.03,.04-.04c3.13-3.26,3.02-8.43-.24-11.56-1.61-1.6-3.81-2.47-6.07-2.41v.04c-2.26-.05-4.44,.82-6.05,2.41l-.16,.16c-3.16,3.25-3.08,8.43,.16,11.59,3.4,3.21,8.72,3.21,12.12,0Zm-11.19-10.95c2.85-2.74,7.36-2.74,10.22,0,2.76,2.82,2.76,7.33,0,10.14-2.85,2.74-7.36,2.74-10.22,0l-.02-.02c-2.79-2.8-2.79-7.33,.01-10.12h0Z"
     id="path58" />
  <path
     class="c"
     d="M248.92,69.75h3.09c1.44,.1,2.86-.32,4.01-1.17,1.76-1.53,1.94-4.2,.41-5.96-.1-.11-.21-.22-.32-.33-1.13-.83-2.51-1.23-3.91-1.15h-4.45l-.07,16.13h1.24v-7.52Zm.07-7.57h3.21c1.04-.06,2.07,.25,2.9,.88,.06,.04,.12,.1,.16,.16,1.23,1.33,1.15,3.39-.18,4.62-.9,.62-1.98,.93-3.07,.86h-3.02v-6.52Z"
     id="path60" />
  <polygon
     class="c"
     points="268.87 76.26 261.11 76.26 261.11 69.69 268.48 69.69 268.48 68.65 261.11 68.65 261.11 62.18 268.68 62.18 268.68 61.14 259.87 61.14 259.87 77.3 268.87 77.3 268.87 76.26"
     id="polygon62" />
  <polygon
     class="c"
     points="272.68 63.16 284.96 77.3 285.99 77.3 285.99 61.14 284.74 61.14 284.74 75.26 272.49 61.14 271.44 61.14 271.44 77.3 272.68 77.3 272.68 63.16"
     id="polygon64" />
  <g
     id="g312">
    <path
       id="polygon66"
       d="m 367.16,243.95 1.1,3.16 h 0.14 l 1.92,-5.34 z" />
    <path
       d="m 243.28,69.94 c -0.06,0.68 -0.23,1.36 -0.49,2.01 0.26,-0.65 0.42,-1.32 0.49,-2.01 z"
       id="path68" />
    <path
       d="m 252.2,62.18 v 0 c 0.26,-0.02 0.52,0 0.78,0.02 -0.26,-0.03 -0.51,-0.04 -0.77,-0.02 z"
       id="path70" />
    <path
       d="m 332.03,239.77 0.11,-1.08 c -0.21,0.1 -0.4,0.2 -0.62,0.29 l 0.5,0.79 z"
       id="path72" />
    <path
       d="m 231.02,64.19 c -0.08,0.08 -0.15,0.17 -0.23,0.26 0.08,-0.09 0.15,-0.18 0.24,-0.26 v 0 z"
       id="path74" />
    <path
       d="m 343.87,128.61 c -3.46,0.48 -6.4,1.85 -8.73,3.86 2.33,-2.01 5.27,-3.38 8.73,-3.86 z"
       id="path76" />
    <path
       d="m 321.13,224.66 v 11.17 h 3.88 c 2.6,0 4.49,-0.48 5.65,-1.45 1.16,-0.97 1.75,-2.4 1.75,-4.3 0,-1.9 -0.63,-3.32 -1.89,-4.16 -1.26,-0.84 -3.16,-1.26 -5.7,-1.26 z"
       id="path78" />
    <path
       d="M 548.39,7.38 H 464.5 l 37.48,54.35 c 0.59,0.32 1.15,0.71 1.66,1.19 v 0 c 1.28,1.22 2.01,2.79 2.2,4.41 l 4.54,6.58 V 60.95 h 1.11 v 14.5 c 0,0 0,0.05 0,0.08 l 25.33,36.73 c 18.47,2.88 27,18.97 27,36.42 0,0.81 -0.04,1.68 -0.09,2.59 l 48,69.6 V 70.72 c 0,-34.98 -28.36,-63.35 -63.35,-63.35 z m -23.9,68.04 h -8.04 V 60.96 h 7.89 v 0.93 h -6.77 v 5.78 h 6.59 v 0.94 h -6.59 v 5.87 h 6.92 z m 16.21,-1.14 c -1.57,0.87 -3.32,1.33 -5.12,1.35 -2.05,0.07 -4.03,-0.7 -5.51,-2.12 -2.89,-2.89 -2.89,-7.58 0,-10.47 v 0 c 0,0 0.07,-0.07 0.1,-0.11 1.43,-1.39 3.36,-2.16 5.35,-2.13 1.74,0.03 3.46,0.44 5.03,1.19 v 0 l 0.06,0.03 c 0,0 -0.04,-0.02 -0.06,-0.03 v 1.21 c -1.58,-0.9 -3.35,-1.4 -5.16,-1.45 -1.69,-0.04 -3.31,0.63 -4.49,1.84 -1.21,1.21 -1.87,2.87 -1.81,4.58 -0.07,1.72 0.59,3.39 1.81,4.61 1.24,1.2 2.92,1.85 4.65,1.79 1.81,-0.05 3.58,-0.55 5.14,-1.45 v 1.16 z m 14.25,-12.39 h -5.42 V 75.42 H 548.4 V 61.89 h -5.44 v -0.93 h 11.99 z"
       id="path80" />
    <path
       d="m 254.38,68.26 c 0.24,-0.11 0.48,-0.25 0.71,-0.41 0.5,-0.46 0.82,-1.04 0.96,-1.65 -0.14,0.61 -0.46,1.19 -0.96,1.65 -0.22,0.16 -0.46,0.29 -0.71,0.41 z"
       id="path82" />
    <path
       d="m 255.93,64.34 c -0.14,-0.4 -0.37,-0.78 -0.68,-1.11 -0.04,-0.06 -0.1,-0.12 -0.16,-0.16 0.06,0.04 0.12,0.1 0.16,0.16 0.31,0.33 0.53,0.71 0.68,1.11 z"
       id="path84" />
    <path
       id="polygon86"
       d="m 329.06,70.39 -2.35,-5.8 z" />
    <path
       d="m 412.94,230.5 c -0.23,-0.62 -0.56,-1.6 -0.97,-2.94 -0.41,-1.34 -0.7,-2.32 -0.85,-2.94 -0.42,1.92 -1.04,4.01 -1.85,6.28 l -3.08,8.9 h 9.95 z"
       id="path88" />
    <path
       d="m 203.92,142.28 -37.21,25.66 -0.35,0.95 86.27,-59.5 H 227.61 V 92.28 h 49.83 l 14.45,-9.96 -1.06,9.96 h 9.15 v 14.83 l -12.25,14.25 -4.53,42.52 h 16.78 v 17.11 h -18.6 l -4.44,41.7 c 2.67,-2.18 6.18,-3.29 10.57,-3.29 5.08,0 9,1.53 11.77,4.6 2.77,3.07 4.16,7.39 4.16,12.96 0,5.57 -1.39,9.88 -4.17,12.96 -2.78,3.08 -6.72,4.62 -11.81,4.62 -5.09,0 -9.11,-1.53 -11.88,-4.59 -0.5,-0.56 -0.94,-1.17 -1.35,-1.81 l -3.14,29.48 h 144.45 l 39.89,-27.51 -14.35,-23.25 h -0.19 l 0.12,1.52 c 0.22,2.9 0.33,5.54 0.33,7.94 v 17.75 h -5.07 v -34.15 h 6.77 l 16.75,27.07 h 0.14 c -0.03,-0.36 -0.09,-1.66 -0.19,-3.91 -0.1,-2.25 -0.14,-4.01 -0.14,-5.27 v -17.89 h 5.12 v 23.78 l 20.01,-13.8 v -5.19 h -10.04 v -4.79 h 10.45 l -26.51,-38.44 h -0.9 l -71.65,49.41 v 23.18 h -5.37 v -16.89 c 0,-0.76 0.01,-1.64 0.03,-2.6 l -4.12,2.84 -6,16.65 h -4.93 l -2.55,-7.35 -7.14,4.92 v 2.43 h -3.52 l -23.69,16.34 2.39,-22.46 -4.51,-7.53 h -5.51 v 13.64 h -5.58 v -34.15 h 9.65 c 3.75,0 6.66,0.6 8.75,1.8 l 4.27,-40.1 c -16.66,-3.53 -28.23,-17.41 -28.23,-34.23 v -0.25 c 0,-19.14 15.12,-34.74 35.67,-35.33 l 3.77,-35.4 h -1.97 V 60.37 h 3.68 L 354.38,30.28 338.57,7.35 H 303.39 L 172.92,97.33 Z m 204.19,77.52 h 6.07 l 12.78,34.29 h -5.93 l -3.41,-9.48 h -13.06 l -3.34,9.48 h -5.89 z M 338.57,60.4 h 4.82 v 16.03 h -4.82 z m -14.55,0 h 5.41 l 7,16.03 h -4.94 l -1.32,-3.25 h -6.96 l -1.33,3.25 h -4.94 l 7.09,-16.03 z m -27.88,0 h 4.38 l 4.93,6.01 4.94,-6.01 h 4.39 v 16.03 h -4.84 v -9.29 l -4.35,5.38 h -0.39 l -4.37,-5.38 v 9.29 h -4.69 z m -24.71,0.74 h 1.06 l 12.24,14.12 V 61.14 h 1.25 V 77.3 h -1.03 L 272.68,63.16 V 77.3 h -1.25 z m -11.57,0 h 8.81 v 1.04 h -7.57 v 6.46 h 7.37 v 1.04 h -7.37 v 6.56 h 7.76 v 1.05 h -9 V 61.13 Z m -12.12,0 h 4.45 c 1.4,-0.09 2.78,0.32 3.91,1.15 0.11,0.1 0.22,0.21 0.32,0.33 1.53,1.76 1.35,4.43 -0.41,5.96 -1.16,0.86 -2.58,1.27 -4.02,1.17 h -3.09 v 7.52 h -1.24 l 0.07,-16.13 z m -17.81,2.41 0.16,-0.16 c 1.61,-1.59 3.79,-2.45 6.05,-2.41 v -0.04 c 2.27,-0.06 4.46,0.81 6.07,2.41 3.26,3.13 3.37,8.3 0.24,11.56 -0.01,0 -0.03,0.02 -0.04,0.04 l -0.2,0.2 c -3.4,3.21 -8.71,3.21 -12.12,0 -3.24,-3.16 -3.31,-8.35 -0.16,-11.59 z"
       id="path90" />
    <path
       d="m 287.45,249.79 c 3.32,0 5.82,-1.08 7.51,-3.22 1.69,-2.15 2.53,-5.35 2.53,-9.6 0,-4.25 -0.84,-7.37 -2.51,-9.53 -1.67,-2.16 -4.17,-3.25 -7.49,-3.25 -3.32,0 -5.88,1.08 -7.58,3.25 -1.71,2.17 -2.56,5.34 -2.56,9.53 0,4.19 0.85,7.39 2.55,9.57 1.7,2.17 4.21,3.26 7.54,3.26 z"
       id="path92" />
    <path
       id="polygon94"
       d="m 231.02,74.33 -0.01,-0.02 z" />
    <path
       id="polygon96"
       d="m 279.88,342.14 h 42.11 l 30.41,-20.97 h -85.97 l -0.13,1.27 z" />
    <path
       id="polygon98"
       d="M 109.42,277.64 11.74,135.98 V 323.7 342.14 H 153.91 L 139.45,321.17 H 35.44 v -43.53 z" />
    <path
       d="M 75.08,7.38 C 40.1,7.38 11.73,35.74 11.73,70.73 v 40.84 L 162.81,7.38 Z"
       id="path100" />
    <path
       id="polygon102"
       d="m 492.94,321.17 -30.41,20.97 h 149.21 v -102.9 l -55.68,38.4 h 32.91 v 43.53 z" />
    <path
       d="m 329.47,142.35 c 0.16,-0.73 0.35,-1.45 0.58,-2.14 -0.23,0.7 -0.43,1.41 -0.58,2.14 z"
       id="path104" />
    <path
       d="m 330.05,153.61 c -0.34,-1.02 -0.61,-2.07 -0.78,-3.15 0.18,1.08 0.44,2.13 0.78,3.15 z"
       id="path106" />
    <path
       d="m 329,146.9 v 0 c 0,-1.56 0.16,-3.09 0.47,-4.55 -0.31,1.46 -0.47,2.99 -0.47,4.55 z"
       id="path108" />
    <path
       d="m 333.02,159.18 c -1.28,-1.65 -2.29,-3.54 -2.97,-5.57 0.69,2.03 1.69,3.91 2.97,5.57 z"
       id="path110" />
    <path
       d="m 468.92,67.67 c 0.36,0.03 0.71,0 1.06,-0.07 -0.35,0.06 -0.7,0.1 -1.06,0.07 z"
       id="path112" />
    <path
       d="m 471.85,62.77 c 0,0 0.02,0.03 0.03,0.04 v 0 c 0,0 -0.02,-0.02 -0.03,-0.04 l -0.14,-0.16 c -0.76,-0.56 -1.7,-0.84 -2.64,-0.78 v 0 c 0.95,-0.06 1.88,0.22 2.64,0.78 z"
       id="path114" />
    <path
       d="m 471.67,66.91 c -0.4,0.28 -0.84,0.5 -1.31,0.63 0.47,-0.13 0.91,-0.34 1.31,-0.63 z"
       id="path116" />
    <path
       d="m 471.67,66.9 v 0 c 0.1,-0.09 0.18,-0.19 0.26,-0.29 -0.08,0.1 -0.17,0.2 -0.27,0.29 v 0 z"
       id="path118" />
    <path
       d="m 391.91,66.95 c 0.23,-0.17 0.4,-0.39 0.52,-0.64 -0.11,0.25 -0.29,0.47 -0.52,0.64 z"
       id="path120" />
    <g
       class="d"
       id="g124">
      <path
         d="M 563.57,153.75 H 516.3 c 1.9,8.74 7.98,13.31 16.6,13.31 6.46,0 11.15,-2.03 16.47,-6.97 l 11.03,9.76 c -6.34,7.86 -15.46,12.67 -27.75,12.67 -20.4,0 -35.48,-14.32 -35.48,-35.1 v -0.25 c 0,-19.39 13.81,-35.36 33.58,-35.36 2.14,0 4.16,0.16 6.08,0.46 L 511.5,75.54 c 0.1,1.14 -0.22,2.27 -0.9,3.19 -0.55,0.59 -1.33,0.92 -2.13,0.92 -0.22,0 -0.44,0 -0.67,0 l -0.1,-1.05 c 0.21,0.05 0.43,0.07 0.65,0.07 1.36,0 2.03,-0.96 2.03,-2.9 v -1.86 l -4.54,-6.58 c 0.24,2.06 -0.4,4.22 -1.95,5.84 -0.03,0.03 -0.06,0.06 -0.08,0.09 l -0.18,0.18 c -3.05,2.88 -7.81,2.88 -10.86,0 -2.9,-2.82 -2.97,-7.46 -0.15,-10.37 v 0 l 0.14,-0.15 c 2.54,-2.39 6.26,-2.79 9.2,-1.19 L 464.5,7.38 H 338.53 l 15.81,22.93 -3.21,30.09 h 0.61 l 8.29,8.88 V 60.4 h 4.81 v 16.03 h -4.29 l -8.32,-8.93 v 8.93 h -2.81 l -3.77,35.4 c 0.4,-0.01 0.8,-0.03 1.21,-0.03 21.04,0 36.62,15.59 36.62,35.1 v 0.25 c 0,19.52 -15.71,35.36 -36.88,35.36 -2.91,0 -5.72,-0.31 -8.39,-0.88 l -4.27,40.1 c 0.37,0.21 0.72,0.43 1.03,0.68 2.12,1.65 3.18,4.14 3.18,7.47 0,4.04 -2.02,6.96 -6.02,8.8 l -0.11,1.08 9.15,14.33 h -6.35 l -3.67,-6.12 -2.39,22.46 23.69,-16.34 h -1.54 v -34.15 h 7.87 l 8.38,24.01 3.16,-2.18 7.85,-21.83 h 7.9 v 10.97 l 71.65,-49.41 h -4.39 l -13.05,-41.69 -13.31,41.69 h -17.23 l -20.91,-68.43 h 19.52 l 10.9,41.19 12.8,-41.44 h 16.6 l 12.93,41.57 11.15,-41.31 h 19.14 l -21.16,68.43 h -12.07 l 26.51,38.44 h 15.22 v 4.79 h -10.04 v 29.36 h -5.58 v -24.18 l -20.01,13.8 v 10.37 h -6.84 l -2.45,-3.97 -39.89,27.51 H 556.1 l 55.67,-38.4 v -18.37 l -48,-69.6 c -0.05,0.81 -0.11,1.64 -0.16,2.48 z M 380.36,63.62 h -6.65 v 3.1 h 6.65 v 3.22 h -6.65 v 6.49 h -4.83 V 60.4 h 11.48 z m 13.58,12.81 -1.26,-2.9 c -0.34,-0.8 -0.75,-1.57 -1.25,-2.28 -0.27,-0.4 -0.65,-0.72 -1.08,-0.93 -0.44,-0.15 -0.9,-0.22 -1.36,-0.2 h -0.54 v 6.26 h -4.84 V 60.39 h 8.22 c 1.14,-0.05 2.27,0.23 3.26,0.81 0.79,0.47 1.42,1.14 1.84,1.96 0.35,0.68 0.54,1.44 0.55,2.2 0.03,0.71 -0.13,1.42 -0.46,2.06 -0.24,0.47 -0.58,0.88 -0.99,1.22 -0.38,0.27 -0.77,0.51 -1.17,0.73 0.49,0.27 0.92,0.64 1.28,1.07 0.56,0.77 1.04,1.6 1.42,2.48 l 1.58,3.51 h -5.19 z m 20.03,0 -1.3,-3.25 h -6.96 l -1.33,3.25 h -4.96 l 7.09,-16.03 h 5.35 l 7.06,16.03 h -4.94 z m 25.71,0 h -4.82 v -9.29 l -4.37,5.38 h -0.37 l -4.38,-5.38 v 9.29 h -4.69 V 60.4 h 4.4 l 4.91,6.01 4.96,-6.01 h 4.38 v 16.03 z m 16.13,0 H 443.72 V 60.4 h 11.88 v 3.21 h -7.04 v 2.93 h 6.73 v 3.23 h -6.73 v 3.42 h 7.25 v 3.23 z m 16.78,-8.83 c -1.04,0.77 -2.32,1.14 -3.61,1.04 h -2.75 v 6.77 h -1.11 V 60.94 h 3.99 c 1.25,-0.09 2.49,0.28 3.49,1.03 0.83,0.69 1.28,1.73 1.22,2.8 0.05,1.08 -0.4,2.12 -1.22,2.83 z m 14.66,7.81 -2.52,-3.94 c -0.51,-0.93 -1.17,-1.77 -1.96,-2.48 -0.62,-0.36 -1.34,-0.54 -2.06,-0.49 h -2 v 6.94 h -1.11 l 0.04,-14.5 h 3.7 c 1.27,-0.09 2.53,0.27 3.57,1.02 0.82,0.66 1.27,1.67 1.23,2.72 0,1.67 -1.13,3.12 -2.75,3.51 0.8,0.59 1.46,1.35 1.93,2.22 l 3.27,5 z"
         id="path122" />
    </g>
    <path
       d="m 388.45,67.34 h 1.03 c 0.21,0.01 0.42,0.02 0.62,0 -0.21,0 -0.41,0 -0.62,0 z"
       id="path126" />
    <path
       d="m 481.12,61.88 c 0.45,-0.03 0.9,0.02 1.34,0.12 -0.44,-0.1 -0.89,-0.15 -1.34,-0.12 h -2.36 v 0 z"
       id="path128" />
    <path
       id="polygon130"
       d="m 290.83,92.28 1.06,-9.96 -14.45,9.96 z" />
    <path
       id="polygon132"
       d="m 138.03,91.99 -6.73,-9.76 -47.6,32.84 7.76,11.25 31.1,-21.45 -6.34,59.49 6.72,9.76 48.61,-33.52 -7.76,-11.26 -32.1,22.14 z" />
    <path
       id="polygon134"
       d="m 251.19,163.89 h 32.01 l 4.53,-42.53 z" />
    <g
       class="d"
       id="g138">
      <path
         id="polygon136"
         d="m 279.88,342.14 -13.58,-19.7 0.13,-1.27 H 139.45 l 14.46,20.97 z" />
    </g>
    <g
       class="d"
       id="g142">
      <path
         id="polygon140"
         d="M 492.94,321.17 H 352.4 l -30.41,20.97 h 140.54 z" />
    </g>
    <g
       class="d"
       id="g146">
      <path
         d="m 271.07,277.64 3.14,-29.48 c -1.85,-2.89 -2.79,-6.62 -2.79,-11.23 0,-5.64 1.39,-9.97 4.17,-12.99 0.42,-0.45 0.87,-0.86 1.34,-1.24 l 4.44,-41.7 h -55.28 v -14.83 l 48.79,-56.77 h -22.25 l -86.27,59.5 0.35,-0.95 -53.7,37.03 L 50.32,114.07 141.23,51.38 172.92,97.33 303.35,7.38 H 162.81 L 11.74,111.57 v 24.42 l 97.69,141.65 h 161.65 z m -28.21,-57.69 h 19.27 v 4.72 H 248.4 v 10.67 h 12.87 v 4.74 H 248.4 v 14.02 h -5.54 z m -42.25,0 h 6.77 l 16.75,27.07 h 0.14 c -0.03,-0.36 -0.09,-1.66 -0.19,-3.91 -0.1,-2.25 -0.14,-4.01 -0.14,-5.27 v -17.89 h 5.12 v 34.15 h -6.84 l -16.79,-27.21 h -0.19 l 0.12,1.52 c 0.22,2.9 0.33,5.54 0.33,7.94 v 17.75 h -5.07 v -34.15 z m -39.95,3.99 c 2.78,-3.02 6.75,-4.53 11.9,-4.53 5.15,0 9,1.53 11.77,4.6 2.77,3.07 4.16,7.39 4.16,12.96 0,5.57 -1.39,9.88 -4.17,12.96 -2.78,3.08 -6.72,4.62 -11.81,4.62 -5.09,0 -9.11,-1.53 -11.88,-4.59 -2.76,-3.06 -4.15,-7.41 -4.15,-13.05 0,-5.64 1.39,-9.97 4.17,-12.99 z m -37.32,3.76 c 1.3,-2.66 3.18,-4.7 5.64,-6.12 2.46,-1.42 5.35,-2.13 8.67,-2.13 3.49,0 6.71,0.73 9.67,2.2 l -2.01,4.65 c -1.15,-0.54 -2.37,-1.02 -3.66,-1.44 -1.29,-0.41 -2.64,-0.62 -4.05,-0.62 -3.21,0 -5.73,1.14 -7.57,3.41 -1.84,2.27 -2.76,5.41 -2.76,9.41 0,4 0.88,7.36 2.65,9.51 1.77,2.15 4.33,3.22 7.67,3.22 1.45,0 2.85,-0.14 4.2,-0.43 1.36,-0.29 2.76,-0.66 4.23,-1.11 v 4.79 c -2.68,1.01 -5.72,1.52 -9.11,1.52 -5,0 -8.84,-1.51 -11.52,-4.54 -2.68,-3.03 -4.02,-7.36 -4.02,-13 0,-3.55 0.65,-6.66 1.95,-9.32 z"
         id="path144" />
    </g>
    <g
       class="d"
       id="g150">
      <path
         d="m 172.51,249.79 c 3.32,0 5.82,-1.08 7.51,-3.22 1.69,-2.15 2.53,-5.35 2.53,-9.6 0,-4.25 -0.84,-7.37 -2.51,-9.53 -1.67,-2.16 -4.17,-3.25 -7.49,-3.25 -3.32,0 -5.88,1.08 -7.58,3.25 -1.71,2.17 -2.56,5.34 -2.56,9.53 0,4.19 0.85,7.39 2.55,9.57 1.7,2.17 4.21,3.26 7.54,3.26 z"
         id="path148" />
    </g>
    <path
       d="m 346.61,128.4 c 3.33,0 6.32,0.85 8.86,2.33 -2.54,-1.48 -5.53,-2.33 -8.86,-2.33 -0.95,0 -1.86,0.08 -2.74,0.21 v 0 c 0.88,-0.12 1.79,-0.21 2.74,-0.21 z"
       id="path152" />
    <path
       d="m 493.63,63.65 c -0.06,0.06 -0.12,0.13 -0.18,0.2 0.06,-0.07 0.11,-0.13 0.18,-0.2 z"
       id="path154" />
    <path
       d="m 497.57,74.53 c 0.21,0.02 0.42,0.02 0.64,0.02 v 0 c -0.21,0 -0.43,0 -0.64,-0.02 z"
       id="path156" />
    <path
       d="m 381.04,225.62 h -0.19 l -4.26,11.82 4.12,-2.84 c 0.02,-1.19 0.05,-2.52 0.1,-4.03 0.08,-2.73 0.16,-4.38 0.22,-4.95 z"
       id="path158" />
    <path
       d="m 355.58,225.57 c 0.26,4.24 0.4,8.21 0.4,11.91 v 14.18 l 7.14,-4.92 -7.35,-21.17 z"
       id="path160" />
    <path
       d="m 11.74,463.28 h 600 V 352.31 h -600 z m 3.6,-107.37 h 592.8 V 459.68 H 15.34 Z"
       id="path162" />
    <path
       d="m 392.17,64.22 c -0.1,-0.11 -0.21,-0.21 -0.34,-0.29 -0.55,-0.26 -1.15,-0.42 -1.75,-0.45 -0.2,-0.01 -0.41,-0.01 -0.61,0 h -1.01 v 3.87 h 1.03 c 0.21,0.01 0.42,0.02 0.62,0 0.62,-0.03 1.23,-0.16 1.81,-0.4 0.23,-0.17 0.4,-0.39 0.52,-0.64 0.11,-0.25 0.16,-0.53 0.14,-0.81 v -0.05 c 0.02,-0.15 0.01,-0.3 -0.02,-0.45 -0.05,-0.29 -0.18,-0.57 -0.38,-0.79 z"
       id="path164" />
    <path
       d="m 484.28,62.96 -0.33,-0.33 c -0.46,-0.3 -0.96,-0.51 -1.49,-0.63 -0.44,-0.1 -0.89,-0.15 -1.34,-0.12 h -2.36 v 5.67 h 2.39 c 0.99,0.06 1.98,-0.2 2.81,-0.74 1.15,-0.97 1.29,-2.69 0.32,-3.84 z"
       id="path166" />
    <path
       d="m 472.47,63.8 c -0.04,-0.13 -0.11,-0.25 -0.17,-0.37 -0.02,-0.05 -0.04,-0.1 -0.07,-0.14 -0.07,-0.12 -0.16,-0.22 -0.24,-0.33 -0.04,-0.05 -0.06,-0.1 -0.1,-0.14 v 0 c 0,0 -0.02,-0.02 -0.03,-0.04 l -0.14,-0.16 c -0.76,-0.56 -1.7,-0.84 -2.64,-0.78 l -2.83,0.04 v 5.8 h 2.68 c 0.36,0.03 0.71,0 1.06,-0.07 0.13,-0.02 0.26,-0.04 0.38,-0.07 0.47,-0.13 0.91,-0.34 1.31,-0.63 0.1,-0.09 0.18,-0.19 0.27,-0.29 0.04,-0.05 0.09,-0.09 0.13,-0.14 0.08,-0.11 0.15,-0.24 0.21,-0.36 0.02,-0.04 0.06,-0.08 0.08,-0.13 0.06,-0.14 0.11,-0.28 0.15,-0.43 0,-0.03 0.03,-0.07 0.04,-0.1 0.03,-0.13 0.05,-0.27 0.06,-0.41 0,-0.05 0.02,-0.09 0.02,-0.14 0,-0.14 0,-0.28 -0.02,-0.42 0,-0.05 0,-0.09 0,-0.14 -0.02,-0.14 -0.06,-0.28 -0.1,-0.42 -0.01,-0.04 -0.02,-0.08 -0.03,-0.13 z"
       id="path168" />
    <path
       d="m 340.04,164.57 3.83,-35.96 c -3.46,0.48 -6.4,1.85 -8.73,3.86 -1.81,1.56 -3.25,3.51 -4.28,5.71 -0.31,0.65 -0.57,1.33 -0.81,2.03 -0.23,0.7 -0.43,1.41 -0.58,2.14 -0.31,1.46 -0.47,2.99 -0.47,4.56 v 0.25 c 0,1.12 0.09,2.23 0.27,3.31 0.18,1.08 0.44,2.13 0.78,3.15 0.69,2.03 1.69,3.91 2.97,5.57 1.82,2.35 4.2,4.22 7.02,5.39 z"
       id="path170" />
    <g
       class="d"
       id="g174">
      <path
         d="m 343.87,128.61 -3.83,35.96 c 2.06,0.86 4.35,1.35 6.83,1.35 11.03,0 17.61,-8.49 17.61,-18.5 v -0.25 c 0,-0.92 -0.07,-1.83 -0.19,-2.72 -0.33,-2.41 -1.08,-4.71 -2.2,-6.77 -0.67,-1.23 -1.45,-2.38 -2.37,-3.41 -0.07,-0.08 -0.12,-0.16 -0.19,-0.23 -1.18,-1.29 -2.54,-2.4 -4.06,-3.29 -2.54,-1.48 -5.53,-2.33 -8.86,-2.33 -0.95,0 -1.86,0.08 -2.74,0.21 z"
         id="path172" />
    </g>
    <path
       id="polygon176"
       d="m 409.2,64.59 -2.36,5.8 h 4.71 z" />
    <path
       d="m 254.38,68.26 c 0.24,-0.11 0.48,-0.25 0.71,-0.41 0.5,-0.46 0.82,-1.04 0.96,-1.65 0.05,-0.2 0.08,-0.41 0.08,-0.62 0.02,-0.42 -0.05,-0.84 -0.19,-1.24 -0.14,-0.4 -0.37,-0.78 -0.68,-1.11 -0.04,-0.06 -0.1,-0.12 -0.16,-0.16 -0.62,-0.48 -1.35,-0.77 -2.12,-0.86 -0.26,-0.03 -0.51,-0.04 -0.78,-0.02 h -3.21 v 6.52 h 3.02 c 0.82,0.05 1.63,-0.1 2.37,-0.45 z"
       id="path178" />
    <g
       class="d"
       id="g182">
      <path
         d="m 526.56,127.84 c -0.86,0.26 -1.68,0.59 -2.45,1.01 -0.77,0.42 -1.49,0.9 -2.16,1.46 -1.34,1.12 -2.49,2.52 -3.42,4.17 -1.17,2.06 -2,4.49 -2.48,7.23 h 29.02 c -0.1,-0.75 -0.24,-1.47 -0.4,-2.17 -0.86,-3.83 -2.57,-6.98 -5.05,-9.13 -0.09,-0.08 -0.19,-0.15 -0.29,-0.23 -2.28,-1.86 -5.16,-2.91 -8.59,-2.91 -1.5,0 -2.9,0.2 -4.19,0.58 z"
         id="path180" />
    </g>
    <path
       id="polygon184"
       d="m 324.34,70.39 h 4.72 l -2.35,-5.8 z" />
    <path
       d="m 230.51,73.76 c 0.08,0.1 0.18,0.2 0.27,0.3 0.07,0.08 0.14,0.17 0.22,0.24 v 0 l 0.02,0.02 c 1.43,1.37 3.27,2.06 5.11,2.06 0.46,0 0.92,-0.04 1.37,-0.13 0.45,-0.09 0.9,-0.21 1.34,-0.39 0.43,-0.17 0.86,-0.39 1.26,-0.64 0.4,-0.26 0.78,-0.56 1.14,-0.9 0.35,-0.35 0.65,-0.73 0.91,-1.13 0.26,-0.4 0.47,-0.82 0.65,-1.25 0.26,-0.65 0.42,-1.32 0.49,-2.01 0.02,-0.23 0.03,-0.46 0.03,-0.69 0,-0.46 -0.04,-0.92 -0.13,-1.37 -0.04,-0.23 -0.1,-0.45 -0.16,-0.67 -0.13,-0.44 -0.3,-0.88 -0.52,-1.29 -0.16,-0.31 -0.35,-0.62 -0.56,-0.91 -0.21,-0.29 -0.44,-0.57 -0.7,-0.83 -0.89,-0.86 -1.95,-1.45 -3.06,-1.77 -1.34,-0.39 -2.76,-0.39 -4.1,0 -1.11,0.32 -2.17,0.91 -3.06,1.77 v 0 c -0.08,0.08 -0.16,0.17 -0.24,0.26 -0.09,0.09 -0.18,0.19 -0.26,0.28 -0.07,0.09 -0.13,0.18 -0.2,0.27 -0.08,0.1 -0.16,0.21 -0.23,0.31 -0.06,0.09 -0.11,0.18 -0.16,0.27 -0.07,0.11 -0.14,0.22 -0.2,0.34 -0.05,0.09 -0.08,0.18 -0.13,0.27 -0.06,0.12 -0.12,0.24 -0.17,0.36 -0.04,0.1 -0.07,0.21 -0.11,0.32 -0.04,0.11 -0.08,0.22 -0.12,0.34 -0.03,0.11 -0.05,0.22 -0.08,0.33 -0.03,0.11 -0.06,0.23 -0.08,0.34 -0.02,0.1 -0.03,0.21 -0.05,0.31 -0.02,0.12 -0.04,0.24 -0.05,0.37 -0.01,0.11 -0.01,0.22 -0.02,0.33 0,0.12 -0.02,0.24 -0.02,0.35 0,0.11 0.01,0.22 0.01,0.33 0,0.12 0,0.24 0.02,0.36 0.01,0.11 0.03,0.21 0.05,0.32 0.02,0.12 0.03,0.24 0.05,0.36 0.02,0.1 0.05,0.2 0.07,0.3 0.03,0.12 0.05,0.25 0.09,0.37 0.03,0.11 0.08,0.22 0.11,0.33 0.04,0.11 0.07,0.22 0.11,0.33 0.04,0.11 0.1,0.22 0.15,0.33 0.05,0.1 0.09,0.21 0.14,0.31 0.05,0.1 0.11,0.19 0.17,0.28 0.06,0.11 0.12,0.22 0.19,0.33 0.07,0.1 0.15,0.2 0.22,0.31 0.07,0.09 0.13,0.19 0.2,0.27 z"
       id="path186" />
    <path
       d="m 493.63,63.65 c -0.06,0.06 -0.12,0.13 -0.18,0.2 -0.09,0.1 -0.18,0.19 -0.26,0.29 -0.03,0.04 -0.05,0.08 -0.08,0.11 -0.1,0.13 -0.21,0.27 -0.3,0.4 -0.23,0.34 -0.41,0.7 -0.57,1.07 0,0.01 -0.01,0.03 -0.02,0.04 -0.05,0.11 -0.08,0.23 -0.12,0.34 -0.03,0.08 -0.06,0.16 -0.09,0.25 -0.01,0.05 -0.02,0.1 -0.04,0.15 -0.04,0.15 -0.08,0.3 -0.11,0.45 -0.01,0.05 -0.01,0.11 -0.02,0.16 -0.02,0.15 -0.05,0.3 -0.06,0.45 0,0.09 0,0.17 -0.01,0.26 0,0.12 -0.02,0.23 -0.02,0.35 0,0.12 0.01,0.22 0.02,0.34 0,0.09 0,0.19 0.01,0.28 0.01,0.12 0.03,0.24 0.05,0.36 0.01,0.08 0.02,0.17 0.04,0.25 0.03,0.14 0.06,0.27 0.1,0.41 0.02,0.06 0.03,0.13 0.05,0.19 0.02,0.08 0.06,0.17 0.09,0.25 0.04,0.11 0.07,0.23 0.12,0.34 0,0.01 0.01,0.03 0.02,0.04 0.15,0.37 0.34,0.73 0.57,1.07 0.04,0.06 0.09,0.12 0.14,0.18 0.08,0.11 0.16,0.23 0.25,0.33 0.02,0.02 0.04,0.04 0.05,0.06 0.12,0.15 0.25,0.29 0.39,0.43 0.15,0.15 0.31,0.3 0.47,0.43 0.49,0.4 1.04,0.73 1.63,0.96 0.59,0.23 1.2,0.38 1.84,0.43 0.21,0.02 0.43,0.02 0.64,0.02 v 0 c 0.43,0.02 0.85,0 1.27,-0.09 1.24,-0.23 2.4,-0.83 3.3,-1.74 2.48,-2.52 2.48,-6.56 0,-9.08 -2.55,-2.47 -6.6,-2.47 -9.14,0 z"
       id="path188" />
    <path
       d="m 472.23,63.29 c 0,0 0.04,0.1 0.07,0.14"
       id="path190" />
    <path
       d="m 472.47,63.8 c 0,0 0.02,0.08 0.03,0.13"
       id="path192" />
    <path
       d="m 472.6,65.05 c 0,0 0.02,-0.09 0.02,-0.14"
       id="path194" />
    <path
       d="m 472.51,65.55 c 0,0 0.03,-0.07 0.04,-0.1"
       id="path196" />
    <path
       d="m 472.28,66.11 c 0,0 0.06,-0.08 0.08,-0.13"
       id="path198" />
    <path
       d="m 471.94,66.61 c 0,0 0.09,-0.09 0.13,-0.14"
       id="path200" />
    <path
       d="m 469.98,67.6 c 0.13,-0.02 0.26,-0.04 0.38,-0.07"
       id="path202" />
    <path
       d="m 472.6,64.35 c 0,0 0,0.09 0,0.14"
       id="path204" />
    <path
       d="m 493.19,64.13 c 0.08,-0.1 0.17,-0.19 0.26,-0.29"
       id="path206" />
    <path
       d="m 495.73,74.1 c -0.58,-0.23 -1.13,-0.56 -1.63,-0.96"
       id="path208" />
    <path
       d="m 491.75,68.18 c 0,-0.12 0.01,-0.23 0.02,-0.35"
       id="path210" />
    <path
       d="m 491.87,66.95 c 0.03,-0.15 0.07,-0.3 0.11,-0.45"
       id="path212" />
    <path
       d="m 492.81,64.65 c 0.09,-0.14 0.19,-0.27 0.3,-0.4"
       id="path214" />
    <path
       d="m 492.11,70.25 c 0.04,0.11 0.07,0.23 0.12,0.34"
       id="path216" />
    <path
       d="m 492.22,65.76 c 0,0 0.01,-0.03 0.02,-0.04"
       id="path218" />
    <path
       d="m 492.02,66.35 c 0.02,-0.08 0.06,-0.17 0.09,-0.25"
       id="path220" />
    <path
       d="M 493.19,72.22 C 493.1,72.11 493.02,72 492.94,71.89"
       id="path222" />
    <path
       d="m 491.84,69.15 c 0.01,0.08 0.02,0.17 0.04,0.25"
       id="path224" />
    <path
       d="m 491.97,69.81 c 0.02,0.06 0.03,0.13 0.05,0.19"
       id="path226" />
    <path
       d="m 491.77,68.51 c 0,0.09 0,0.19 0.01,0.28"
       id="path228" />
    <path
       d="m 491.78,67.56 c 0.01,-0.15 0.04,-0.3 0.06,-0.45"
       id="path230" />
    <path
       d="m 391.82,63.92 c -0.55,-0.26 -1.15,-0.42 -1.75,-0.45"
       id="path232" />
    <path
       d="m 392.17,64.22 c 0.2,0.22 0.33,0.5 0.38,0.79"
       id="path234" />
    <path
       d="m 228.95,69.93 c -0.01,-0.12 -0.01,-0.24 -0.02,-0.36"
       id="path236" />
    <path
       d="M 229.05,70.61 C 229.03,70.49 229.02,70.37 229,70.25"
       id="path238" />
    <path
       d="m 230.09,73.18 c -0.07,-0.11 -0.13,-0.22 -0.19,-0.33"
       id="path240" />
    <path
       d="m 243.02,67.22 c -0.13,-0.44 -0.3,-0.88 -0.52,-1.29"
       id="path242" />
    <path
       d="m 242.5,65.92 c -0.16,-0.31 -0.35,-0.62 -0.56,-0.91"
       id="path244" />
    <path
       d="m 230.79,64.45 c -0.09,0.09 -0.18,0.19 -0.26,0.28"
       id="path246" />
    <path
       d="m 229.73,72.57 c -0.05,-0.1 -0.1,-0.21 -0.14,-0.31"
       id="path248" />
    <path
       d="m 230.51,73.76 c -0.07,-0.09 -0.13,-0.18 -0.2,-0.27"
       id="path250" />
    <path
       d="m 243.18,67.89 c 0.09,0.45 0.13,0.91 0.13,1.37"
       id="path252" />
    <path
       d="m 229.44,71.94 c -0.04,-0.11 -0.08,-0.22 -0.11,-0.33"
       id="path254" />
    <path
       d="m 229.21,71.28 c -0.04,-0.12 -0.06,-0.25 -0.09,-0.37"
       id="path256" />
    <path
       d="m 230.33,65 c -0.08,0.1 -0.16,0.21 -0.23,0.31"
       id="path258" />
    <path
       d="m 228.93,68.89 c 0,0.12 -0.02,0.24 -0.02,0.35"
       id="path260" />
    <path
       d="m 229.13,67.53 c -0.03,0.11 -0.06,0.23 -0.08,0.34"
       id="path262" />
    <path
       d="m 229,68.19 c -0.02,0.12 -0.04,0.24 -0.05,0.37"
       id="path264" />
    <path
       d="m 229.94,65.58 c -0.07,0.11 -0.14,0.22 -0.2,0.34"
       id="path266" />
    <path
       d="m 229.61,66.19 c -0.06,0.12 -0.12,0.24 -0.17,0.36"
       id="path268" />
    <path
       d="m 229.33,66.87 c -0.04,0.11 -0.08,0.22 -0.12,0.34"
       id="path270" />
    <path
       d="m 359.54,134.02 c 0.07,0.07 0.13,0.16 0.19,0.23"
       id="path272" />
    <path
       d="m 113.63,288.33 c -2.13,0 -3.8,0.51 -5,1.53 -1.21,1.02 -1.81,2.42 -1.81,4.2 0,0.95 0.18,1.77 0.55,2.48 0.37,0.71 0.86,1.33 1.47,1.86 0.61,0.53 1.54,1.09 2.77,1.67 1.31,0.62 2.18,1.08 2.61,1.36 0.43,0.28 0.75,0.58 0.97,0.89 0.22,0.31 0.33,0.66 0.33,1.05 0,0.71 -0.25,1.24 -0.75,1.6 -0.5,0.36 -1.22,0.54 -2.15,0.54 -0.78,0 -1.64,-0.12 -2.58,-0.37 -0.94,-0.25 -2.09,-0.67 -3.45,-1.28 v 3.96 c 1.65,0.81 3.55,1.21 5.7,1.21 2.33,0 4.15,-0.52 5.46,-1.57 1.31,-1.05 1.96,-2.48 1.96,-4.29 0,-1.31 -0.35,-2.42 -1.05,-3.32 -0.7,-0.9 -1.99,-1.8 -3.87,-2.7 -1.42,-0.68 -2.32,-1.15 -2.7,-1.41 -0.38,-0.26 -0.66,-0.53 -0.83,-0.81 -0.17,-0.28 -0.26,-0.61 -0.26,-0.98 0,-0.61 0.22,-1.1 0.65,-1.47 0.43,-0.38 1.05,-0.56 1.86,-0.56 0.68,0 1.37,0.09 2.07,0.26 0.7,0.17 1.59,0.48 2.66,0.92 l 0.69,-1.67 -1.74,-2.53 c -0.18,-0.05 -0.37,-0.12 -0.55,-0.17 -0.95,-0.25 -1.95,-0.37 -2.99,-0.37 z"
       id="path274" />
    <path
       d="m 119.6,289.75 c -0.84,-0.36 -1.64,-0.64 -2.43,-0.88 l 1.74,2.53 0.68,-1.65 z"
       id="path276" />
    <path
       d="m 143.92,300.91 c 0,1.56 -0.31,2.7 -0.94,3.43 -0.63,0.73 -1.64,1.09 -3.03,1.09 -1.39,0 -2.47,-0.36 -3.1,-1.09 -0.62,-0.72 -0.94,-1.86 -0.94,-3.41 v -12.32 h -4.25 v 12.96 c 0,2.3 0.72,4.12 2.15,5.44 1.43,1.33 3.44,1.99 6.03,1.99 1.72,0 3.2,-0.3 4.46,-0.89 1.26,-0.59 2.22,-1.45 2.88,-2.57 0.67,-1.12 1,-2.42 1,-3.91 v -13.02 h -4.25 v 12.29 z"
       id="path278" />
    <path
       d="m 173.55,290.19 c -1.27,-1.05 -3.13,-1.58 -5.57,-1.58 h -6.43 v 20.12 h 4.27 v -7.16 h 1.83 c 2.5,0 4.42,-0.57 5.77,-1.72 1.35,-1.15 2.03,-2.8 2.03,-4.97 0,-2.17 -0.64,-3.65 -1.91,-4.7 z m -3.38,7.12 c -0.65,0.52 -1.63,0.78 -2.95,0.78 h -1.4 v -5.97 h 1.94 c 1.17,0 2.02,0.24 2.57,0.72 0.55,0.48 0.82,1.22 0.82,2.22 0,1 -0.33,1.75 -0.98,2.26 z"
       id="path280" />
    <path
       d="m 199.71,290.19 c -1.27,-1.05 -3.13,-1.58 -5.57,-1.58 h -6.43 v 20.12 h 4.27 v -7.16 h 1.83 c 2.5,0 4.42,-0.57 5.77,-1.72 1.35,-1.15 2.03,-2.8 2.03,-4.97 0,-2.17 -0.64,-3.65 -1.91,-4.7 z m -3.38,7.12 c -0.65,0.52 -1.63,0.78 -2.95,0.78 h -1.4 v -5.97 h 1.94 c 1.17,0 2.02,0.24 2.57,0.72 0.55,0.48 0.82,1.22 0.82,2.22 0,1 -0.33,1.75 -0.98,2.26 z"
       id="path282" />
    <path
       d="m 222.58,288.3 c -3.09,0 -5.47,0.88 -7.12,2.65 -1.66,1.77 -2.48,4.32 -2.48,7.67 0,3.35 0.83,5.92 2.48,7.71 1.65,1.79 4.02,2.68 7.1,2.68 3.08,0 5.45,-0.89 7.1,-2.68 1.65,-1.79 2.48,-4.35 2.48,-7.68 0,-3.33 -0.82,-5.9 -2.46,-7.68 -1.64,-1.78 -4,-2.67 -7.09,-2.67 z m -0.03,17.13 c -1.7,0 -2.97,-0.57 -3.83,-1.71 -0.86,-1.14 -1.28,-2.83 -1.28,-5.08 0,-2.25 0.43,-3.94 1.29,-5.08 0.86,-1.14 2.14,-1.71 3.84,-1.71 3.39,0 5.08,2.27 5.08,6.8 0,4.53 -1.7,6.79 -5.11,6.79 z"
       id="path284" />
    <path
       d="m 257.68,297.8 c 0.65,-0.92 0.98,-1.97 0.98,-3.16 0,-2.03 -0.66,-3.54 -1.97,-4.53 -1.31,-1 -3.33,-1.49 -6.07,-1.49 h -5.86 v 20.12 h 4.27 v -7.72 h 2.27 l 4.8,7.72 h 4.73 c -0.92,-1.32 -2.89,-4.24 -5.92,-8.77 1.19,-0.52 2.12,-1.25 2.77,-2.17 z m -4.29,-0.93 c -0.64,0.45 -1.64,0.67 -2.99,0.67 h -1.38 v -5.44 h 1.29 c 1.38,0 2.39,0.2 3.05,0.61 0.66,0.4 0.98,1.08 0.98,2.04 0,0.96 -0.32,1.67 -0.96,2.12 z"
       id="path286" />
    <path
       id="polygon288"
       d="m 275.31,308.74 h 4.27 v -16.57 h 5.46 v -3.55 H 269.9 l -0.05,0.52 v 3.03 h 5.46 z" />
    <path
       id="polygon290"
       d="m 269.85,288.62 v 0.52 l 0.05,-0.52 z" />
    <path
       d="m 316.64,301.58 h 1.83 c 2.5,0 4.42,-0.57 5.77,-1.72 1.35,-1.15 2.03,-2.8 2.03,-4.97 0,-2.17 -0.64,-3.65 -1.91,-4.7 -1.27,-1.05 -3.13,-1.58 -5.57,-1.58 h -6.43 v 20.12 h 4.27 v -7.16 z m 0,-9.47 h 1.94 c 1.17,0 2.02,0.24 2.57,0.72 0.55,0.48 0.82,1.22 0.82,2.22 0,1 -0.33,1.75 -0.98,2.26 -0.65,0.51 -1.63,0.78 -2.95,0.78 h -1.4 v -5.97 z"
       id="path292" />
    <path
       d="m 342.79,301.02 h 2.27 l 4.8,7.72 h 4.73 c -0.92,-1.32 -2.89,-4.24 -5.92,-8.77 1.19,-0.52 2.12,-1.25 2.77,-2.17 0.65,-0.92 0.98,-1.97 0.98,-3.16 0,-2.03 -0.66,-3.54 -1.97,-4.53 -1.31,-1 -3.33,-1.49 -6.07,-1.49 h -5.86 v 20.12 h 4.27 z m 0,-8.9 h 1.29 c 1.38,0 2.39,0.2 3.05,0.61 0.66,0.4 0.98,1.08 0.98,2.04 0,0.96 -0.32,1.67 -0.96,2.12 -0.64,0.45 -1.64,0.67 -2.99,0.67 h -1.38 v -5.44 z"
       id="path294" />
    <path
       d="m 374.27,305.44 c -1.7,0 -2.97,-0.57 -3.83,-1.71 -0.86,-1.14 -1.28,-2.83 -1.28,-5.08 0,-2.25 0.43,-3.94 1.29,-5.08 0.86,-1.14 2.14,-1.71 3.84,-1.71 3.39,0 5.08,2.27 5.08,6.8 0,1.97 -0.34,3.48 -0.99,4.59 l 5.43,-3.75 c 0.01,-0.28 0.03,-0.56 0.03,-0.85 0,-3.34 -0.82,-5.9 -2.46,-7.68 -1.64,-1.78 -4,-2.67 -7.09,-2.67 -3.09,0 -5.47,0.88 -7.12,2.65 -1.66,1.77 -2.48,4.32 -2.48,7.67 0,3.35 0.83,5.92 2.48,7.71 0.95,1.03 2.15,1.75 3.57,2.19 l 4.61,-3.18 c -0.34,0.06 -0.7,0.1 -1.08,0.1 z"
       id="path296" />
    <path
       d="m 381.37,306.33 c 1.51,-1.63 2.32,-3.92 2.45,-6.83 l -5.43,3.75 c -0.67,1.16 -1.67,1.87 -3.04,2.1 l -4.61,3.18 c 1.05,0.32 2.22,0.49 3.53,0.49 3.08,0 5.45,-0.89 7.1,-2.68 z"
       id="path298" />
    <path
       id="polygon300"
       d="m 395.02,291.78 3.47,-2.4 -0.24,-0.76 h -4.31 z" />
    <path
       d="m 405.42,308.74 6.84,-20.12 h -4.31 l -3.81,11.97 c -0.59,2.11 -0.93,3.59 -1.03,4.43 -0.06,-0.37 -0.2,-1.02 -0.42,-1.96 -0.22,-0.94 -0.44,-1.76 -0.65,-2.47 l -3.54,-11.21 -3.48,2.4 5.75,16.96 z"
       id="path302" />
    <path
       id="rect304"
       d="m 423.25,288.62 h 4.27 v 20.12 h -4.27 z" />
    <path
       d="m 454.9,306.1 c 1.89,-1.76 2.83,-4.3 2.83,-7.61 0,-3.11 -0.91,-5.53 -2.72,-7.27 -1.81,-1.74 -4.37,-2.6 -7.65,-2.6 h -6.32 v 20.12 h 5.7 c 3.56,0 6.28,-0.88 8.17,-2.64 z m -9.6,-13.98 h 2.27 c 3.82,0 5.73,2.16 5.73,6.48 0,4.32 -2.06,6.62 -6.17,6.62 h -1.83 z"
       id="path306" />
    <path
       id="polygon308"
       d="m 474.62,300.03 h 6.81 v -3.5 h -6.81 v -4.42 h 7.32 v -3.49 h -11.59 v 20.12 h 11.59 v -3.53 h -7.32 z" />
    <path
       d="m 498.86,301.02 h 2.27 l 4.8,7.72 h 4.73 c -0.92,-1.32 -2.89,-4.24 -5.92,-8.77 1.19,-0.52 2.12,-1.25 2.77,-2.17 0.65,-0.92 0.98,-1.97 0.98,-3.16 0,-2.03 -0.66,-3.54 -1.97,-4.53 -1.31,-1 -3.33,-1.49 -6.07,-1.49 h -5.86 v 20.12 h 4.27 z m 0,-8.9 h 1.29 c 1.38,0 2.39,0.2 3.05,0.61 0.66,0.4 0.98,1.08 0.98,2.04 0,0.96 -0.32,1.67 -0.96,2.12 -0.64,0.45 -1.64,0.67 -2.99,0.67 h -1.38 v -5.44 z"
       id="path310" />
  </g>
  <g
     aria-label="API MEDIATION LAYER - ZOWE V2"
     transform="translate(40.02,416.5)"
     id="text316"
     class="e"
     style="font-size:27px;font-family:OpenSans-Bold, 'Open Sans';letter-spacing:0.12em">
    <path
       d="M 18.114258,0 H 15.33252 L 13.407715,-5.4711914 H 4.9174805 L 2.9926758,0 H 0.34277344 L 7.4882812,-19.630371 H 10.96875 Z M 12.603516,-7.7124023 9.1625977,-17.349609 5.7084961,-7.7124023 Z"
       id="path339" />
    <path
       d="m 37.17457,-13.697754 q 0,1.305176 -0.461426,2.425781 -0.448242,1.107422 -1.265625,1.924805 -1.015136,1.0151367 -2.399414,1.5292969 -1.384277,0.5009766 -3.493652,0.5009766 H 26.944101 V 0 H 24.33375 v -19.630371 h 5.326172 q 1.766601,0 2.992675,0.303223 1.226075,0.290039 2.175293,0.922851 1.120606,0.751465 1.727051,1.87207 0.619629,1.120606 0.619629,2.834473 z m -2.71582,0.06592 q 0,-1.015137 -0.355957,-1.766602 -0.355957,-0.751464 -1.081055,-1.226074 -0.632812,-0.408691 -1.450195,-0.580078 -0.804199,-0.18457 -2.043457,-0.18457 h -2.583985 v 7.8442381 h 2.20166 q 1.582032,0 2.570801,-0.2768554 0.98877,-0.2900387 1.608399,-0.9096677 0.619629,-0.632813 0.870117,-1.331543 0.263672,-0.698731 0.263672,-1.568848 z"
       id="path341" />
    <path
       d="m 50.790058,0 h -7.751953 v -2.0039063 h 2.570801 V -17.626465 h -2.570801 v -2.003906 h 7.751953 v 2.003906 h -2.570801 v 15.6225587 h 2.570801 z"
       id="path343" />
    <path
       d="M 88.712929,0 H 86.102577 V -16.914551 L 80.644569,-5.4052734 H 79.088905 L 73.670448,-16.914551 V 0 h -2.438965 v -19.630371 h 3.559571 l 5.233886,10.9291991 5.0625,-10.9291991 h 3.625489 z"
       id="path345" />
    <path
       d="M 110.18584,0 H 97.252731 v -19.630371 h 12.933109 v 2.320312 H 99.863083 v 5.378907 h 10.322757 v 2.3203122 H 99.863083 v 7.2905273 h 10.322757 z"
       id="path347" />
    <path
       d="m 134.16364,-9.7954102 q 0,2.6762696 -1.17334,4.8515625 -1.16016,2.175293 -3.09815,3.375 -1.34473,0.83056645 -3.00586,1.19970707 Q 125.23834,0 122.53571,0 h -4.95704 v -19.630371 h 4.9043 q 2.87402,0 4.56152,0.421875 1.70069,0.408691 2.87403,1.133789 2.0039,1.252441 3.12451,3.335449 1.12061,2.083008 1.12061,4.9438478 z m -2.72901,-0.039551 q 0,-2.3071291 -0.8042,-3.8891601 -0.8042,-1.582031 -2.39941,-2.491699 -1.16016,-0.65918 -2.46533,-0.909668 -1.30518,-0.263672 -3.12452,-0.263672 h -2.45214 v 15.1479491 h 2.45214 q 1.88526,0 3.28272,-0.2768555 1.41064,-0.2768555 2.58398,-1.0283203 1.46338,-0.9360352 2.18848,-2.465332 0.73828,-1.5292969 0.73828,-3.8232422 z"
       id="path349" />
    <path
       d="m 148.57013,0 h -7.75195 v -2.0039063 h 2.5708 V -17.626465 h -2.5708 v -2.003906 h 7.75195 v 2.003906 h -2.5708 v 15.6225587 h 2.5708 z"
       id="path351" />
    <path
       d="m 171.75691,0 h -2.78174 l -1.9248,-5.4711914 h -8.49024 L 156.63533,0 h -2.6499 l 7.14551,-19.630371 h 3.48046 z m -5.51074,-7.7124023 -3.44092,-9.6372067 -3.4541,9.6372067 z"
       id="path353" />
    <path
       d="m 191.97739,-17.310059 h -7.01368 V 0 h -2.61035 v -17.310059 h -7.01367 v -2.320312 h 16.6377 z"
       id="path355" />
    <path
       d="m 204.80185,0 h -7.75195 v -2.0039063 h 2.5708 V -17.626465 h -2.5708 v -2.003906 h 7.75195 v 2.003906 h -2.5708 v 15.6225587 h 2.5708 z"
       id="path357" />
    <path
       d="m 227.14488,-17.375977 q 1.19971,1.31836 1.83252,3.229981 0.646,1.911621 0.646,4.3374022 0,2.4257813 -0.65918,4.350586 -0.646,1.9116211 -1.81934,3.1904297 -1.21289,1.33154294 -2.87402,2.00390622 -1.64795,0.67236329 -3.77051,0.67236329 -2.06982,0 -3.77051,-0.68554688 -1.6875,-0.68554687 -2.87402,-1.99072263 -1.18652,-1.3051758 -1.83252,-3.2036133 -0.63281,-1.8984375 -0.63281,-4.3374024 0,-2.3994142 0.63281,-4.2978512 0.63281,-1.911621 1.8457,-3.269532 1.16016,-1.291992 2.87403,-1.977539 1.72705,-0.685546 3.75732,-0.685546 2.10938,0 3.78369,0.69873 1.6875,0.685547 2.86084,1.964355 z m -0.2373,7.5673832 q 0,-3.8232422 -1.71387,-5.8930662 -1.71387,-2.083008 -4.68018,-2.083008 -2.99267,0 -4.70654,2.083008 -1.70068,2.069824 -1.70068,5.8930662 0,3.862793 1.74023,5.9194336 1.74024,2.0434571 4.66699,2.0434571 2.92676,0 4.65381,-2.0434571 1.74024,-2.0566406 1.74024,-5.9194336 z"
       id="path359" />
    <path
       d="m 251.97961,0 h -3.22998 l -9.30761,-17.560547 V 0 h -2.43897 v -19.630371 h 4.04737 l 8.49023,16.0312499 V -19.630371 h 2.43896 z"
       id="path361" />
    <path
       d="m 285.59143,0 h -12.41894 v -19.630371 h 2.61035 v 17.3100585 h 9.80859 z"
       id="path363" />
    <path
       d="m 306.91934,0 h -2.78174 l -1.9248,-5.4711914 h -8.49024 L 291.79776,0 h -2.6499 l 7.14551,-19.630371 h 3.48046 z m -5.51074,-7.7124023 -3.44092,-9.6372067 -3.4541,9.6372067 z"
       id="path365" />
    <path
       d="m 327.03433,-19.630371 -6.9082,11.0214843 V 0 h -2.61035 v -8.3320313 l -6.93457,-11.2983397 h 2.8872 l 5.36573,8.780273 5.41845,-8.780273 z"
       id="path367" />
    <path
       d="m 345.92325,0 h -12.93311 v -19.630371 h 12.93311 v 2.320312 h -10.32276 v 5.378907 h 10.32276 v 2.3203122 h -10.32276 v 7.2905273 h 10.32276 z"
       id="path369" />
    <path
       d="m 369.55829,0 h -3.38819 l -6.56542,-7.8046875 h -3.67823 V 0 h -2.61035 v -19.630371 h 5.49756 q 1.77978,0 2.96631,0.237305 1.18652,0.224121 2.13574,0.817382 1.06787,0.672364 1.66113,1.700684 0.60645,1.015137 0.60645,2.583984 0,2.122559 -1.06787,3.559571 -1.06787,1.4238278 -2.93994,2.1489255 z m -6.10401,-14.106445 q 0,-0.84375 -0.30322,-1.489746 -0.29004,-0.65918 -0.97558,-1.107422 -0.5669,-0.382324 -1.34473,-0.527344 -0.77783,-0.158203 -1.83252,-0.158203 h -3.07178 v 7.4091795 h 2.63672 q 1.23926,0 2.16211,-0.2109375 0.92285,-0.224121 1.56885,-0.817383 0.59326,-0.553711 0.87012,-1.265625 0.29003,-0.725097 0.29003,-1.832519 z"
       id="path371" />
    <path
       d="m 395.66864,-7.3959961 h -8.22656 v -2.3862305 h 8.22656 z"
       id="path373" />
    <path
       d="m 430.66476,0 h -15.31933 v -2.4257813 l 12.03662,-14.8842777 h -11.58838 v -2.320312 h 14.58106 v 2.359863 l -12.15528,14.9501955 h 12.44531 z"
       id="path375" />
    <path
       d="m 452.70456,-17.375977 q 1.19971,1.31836 1.83252,3.229981 0.64599,1.911621 0.64599,4.3374022 0,2.4257813 -0.65917,4.350586 -0.646,1.9116211 -1.81934,3.1904297 -1.21289,1.33154294 -2.87402,2.00390622 -1.64795,0.67236329 -3.77051,0.67236329 -2.06983,0 -3.77051,-0.68554688 -1.6875,-0.68554687 -2.87402,-1.99072263 -1.18653,-1.3051758 -1.83252,-3.2036133 -0.63282,-1.8984375 -0.63282,-4.3374024 0,-2.3994142 0.63282,-4.2978512 0.63281,-1.911621 1.8457,-3.269532 1.16016,-1.291992 2.87402,-1.977539 1.72705,-0.685546 3.75733,-0.685546 2.10937,0 3.78369,0.69873 1.6875,0.685547 2.86084,1.964355 z m -0.23731,7.5673832 q 0,-3.8232422 -1.71386,-5.8930662 -1.71387,-2.083008 -4.68018,-2.083008 -2.99267,0 -4.70654,2.083008 -1.70068,2.069824 -1.70068,5.8930662 0,3.862793 1.74023,5.9194336 1.74023,2.0434571 4.66699,2.0434571 2.92676,0 4.65381,-2.0434571 1.74023,-2.0566406 1.74023,-5.9194336 z"
       id="path377" />
    <path
       d="M 485.40991,-19.630371 480.30786,0 h -2.93994 L 473.24146,-16.294922 469.20728,0 h -2.87403 l -5.19433,-19.630371 h 2.67627 l 4.12646,16.321289 4.06055,-16.321289 h 2.6499 l 4.1001,16.4794921 4.10009,-16.4794921 z"
       id="path379" />
    <path
       d="m 505.41943,0 h -12.9331 v -19.630371 h 12.9331 v 2.320312 h -10.32275 v 5.378907 h 10.32275 v 2.3203122 h -10.32275 v 7.2905273 h 10.32275 z"
       id="path381" />
    <path
       d="M 541.02197,-19.630371 533.87646,0 H 530.396 l -7.14551,-19.630371 h 2.79492 l 6.15674,17.2705077 6.15674,-17.2705077 z"
       id="path383" />
    <path
       d="m 560.01636,0 h -13.28907 v -2.7553711 q 1.38428,-1.1865234 2.76856,-2.3730469 1.39746,-1.1865234 2.59717,-2.3598632 2.53125,-2.4521485 3.46728,-3.8891598 0.93604,-1.450196 0.93604,-3.124512 0,-1.529297 -1.01514,-2.386231 -1.00195,-0.870117 -2.8081,-0.870117 -1.19971,0 -2.59717,0.421875 -1.39746,0.421875 -2.72901,1.291992 h -0.13183 v -2.768554 q 0.93603,-0.461426 2.4917,-0.84375 1.56884,-0.382324 3.03222,-0.382324 3.01905,0 4.73291,1.463378 1.71387,1.450196 1.71387,3.941895 0,1.120605 -0.29004,2.096191 -0.27685,0.962403 -0.83056,1.83252 -0.51416,0.8173827 -1.2129,1.6083983 -0.68554,0.7910156 -1.67431,1.753418 -1.41065,1.3842773 -2.91358,2.6894531 -1.50293,1.2919922 -2.8081,2.3994141 h 10.56006 z"
       id="path385" />
  </g>
</svg>
