<svg id="Layer_1" data-name="Layer 1" xmlns="http://www.w3.org/2000/svg" viewBox="0 0 266.71127 247.89699"><defs><style>.cls-1,.cls-2{fill:#0033a1;}.cls-2,.cls-3{fill-rule:evenodd;}.cls-3,.cls-5{fill:#2a7de1;}.cls-4{fill:#fff;}</style></defs><path class="cls-1" d="M130.78888,135.78356a65.27439,65.27439,0,0,1-.07395-130.54873h.077a65.34789,65.34789,0,0,1,65.273,65.18773v.04463a65.3493,65.3493,0,0,1-65.22142,65.31637Zm.00306-126.7557-.07263.00044a61.48135,61.48135,0,0,0,.07,122.96266h.0512A61.55276,61.55276,0,0,0,192.2724,70.46981v-.042A61.5551,61.5551,0,0,0,130.79194,9.02786Z"/><path class="cls-1" d="M131.31874,109.329H131.303c-3.01422-.01313-6.48391-1.63727-9.77158-4.574l.59681-.66856c3.12447,2.79063,6.3837,4.33427,9.17739,4.34652h.01488c5.78077,0,12.665-6.16319,17.54359-15.70943l.79807.40779C144.6322,102.97333,137.43379,109.329,131.31874,109.329Z"/><path class="cls-2" d="M128.33031,95.98013a7.92282,7.92282,0,0,0-2.61835,1.204c-1.30109-.84-2.40271-.759-.58779-1.43328,0,0,2.32649-2.78134,3.52676-2.98117s1.60531.97461,2.49958.97461,1.29932-1.17446,2.49961-.97461,3.52675,2.98117,3.52675,2.98117c1.76042.543.53908.79776-.58779,1.43328a7.92336,7.92336,0,0,0-2.61834-1.204c-.97453-.07505-1.84282.80264-2.82022.80264S129.30483,95.90508,128.33031,95.98013Z"/><path class="cls-1" d="M136.58934,97.62222a.43631.43631,0,0,1-.24677-.07614,7.25446,7.25446,0,0,0-2.4056-1.12972,2.80532,2.80532,0,0,0-1.24523.35965,2.88843,2.88843,0,0,1-3.082,0,2.804,2.804,0,0,0-1.24612-.35965,7.26932,7.26932,0,0,0-2.40515,1.12972.435.435,0,0,1-.48392.00613,7.50923,7.50923,0,0,0-.93809-.4988c-.459-.21439-.82126-.38328-.80507-.79369.01706-.41391.43623-.61781,1.13148-.87946.54255-.63881,2.48741-2.83832,3.716-3.04309a2.23012,2.23012,0,0,1,1.83329.59462c.61169.46379.86546.46379,1.47714,0a2.23563,2.23563,0,0,1,1.83242-.59462c1.22336.20346,3.15466,2.38328,3.70771,3.03347.6388.20827,1.037.43054,1.06934.84445.03763.48654-.44891.72544-1.06584,1.02734-.19777.09626-.41479.203-.62831.32291A.43773.43773,0,0,1,136.58934,97.62222Zm-2.73987-2.08532c.05163,0,.10326.00175.15489.00613a7.19344,7.19344,0,0,1,2.60686,1.1306c.14964-.07788.29752-.15051.43666-.21877.10589-.05163.22927-.112.33866-.16976-.08663-.03326-.19777-.07176-.33953-.11552a.44378.44378,0,0,1-.20652-.13826c-.85933-1.02647-2.50535-2.70312-3.2623-2.82913a1.37564,1.37564,0,0,0-1.15948.42791,1.732,1.732,0,0,1-2.536,0,1.38135,1.38135,0,0,0-1.15992-.42791c-.75694.126-2.403,1.80266-3.26273,2.82913a.43181.43181,0,0,1-.18333.12951c-.12514.04726-.22971.08751-.31678.12251.20827.098.46729.2214.74382.38154a7.14246,7.14246,0,0,1,2.59242-1.12185h.00088a3.33938,3.33938,0,0,1,1.67665.43579,2.07649,2.07649,0,0,0,2.354,0A3.667,3.667,0,0,1,133.84947,95.5369Z"/><path class="cls-2" d="M131.12335,98.2817c3.44848-1.7928,8.3082.71875,0,2.33022C122.81516,99.00044,127.67487,96.4889,131.12335,98.2817Z"/><path class="cls-1" d="M131.12316,101.00352l-.07307-.01487c-3.01509-.58456-4.65367-1.338-4.87026-2.23933a.92161.92161,0,0,1,.38154-.95559c.81338-.63443,2.85144-.75169,4.56179.05863,1.71034-.8112,3.74927-.69394,4.56222-.05863a.92235.92235,0,0,1,.38154.95559c-.217.90133-1.85605,1.65477-4.87069,2.23933Zm-2.57536-2.95864a2.66322,2.66322,0,0,0-1.513.35441c-.1247.098-.11158.15226-.1072.17064.00831.035.25377.876,4.19557,1.64952,3.94179-.77357,4.18769-1.61452,4.19557-1.64952.00437-.01838.0175-.07263-.10764-.17064a4.38378,4.38378,0,0,0-3.91073.224l-.1772.09188-.17721-.09188A5.29355,5.29355,0,0,0,128.5478,98.04488Z"/><path class="cls-2" d="M99.62089,37.764c3.74473-16.004,22.61606-22.85638,31.23918-22.376,8.62313-.46868,27.49446,6.38368,31.26314,22.293,4.03676,7.779,6.534,25.43933-9.03514,47.91109.234-10.43818-1.489-11.57821-6.45481-15.74205,1.6841-3.0301,16.12414-13.75195,17.17361-24.35895-2.66883,10.88012-14.56457,18.88761-34.67756,35.2385,4.24345-5.88088,17.86449-23.52589,7.80432-32.73775,7.08334,23.63834-40.23393,30.23025-13.8252,77.65728C73.866,74.52119,95.806,41.17151,99.62089,37.764Z"/><path class="cls-3" d="M117.83779,38.29494c-2.50635,20.40875-36.69446,18.71264-7.30265,71.41987C101.6509,62.56681,134.652,69.90532,117.83779,38.29494Z"/><path class="cls-4" d="M124.95281,59.6357l-6.78973-4.297-7.42289,3.104,2.02772-7.72381-5.27426-6.03328,8.04293-.47664,4.16322-6.83277,2.94309,7.42924,7.84726,1.81039-6.224,5.06816Z"/><path class="cls-5" d="M127.04966,63.08371l-9.0562-5.73134L108.08625,61.495l2.70706-10.31194-7.05489-8.07042,10.756-.63706,5.54669-9.10432,3.92123,9.89933L134.462,45.69325l-8.329,6.78143ZM118.333,53.32526l4.52328,2.86282-.45723-5.29467,4.11944-3.35462-5.19535-1.19842-1.96455-4.95951-2.77969,4.56179-5.32967.3159,3.49331,3.99605-1.34806,5.13584Z"/><path class="cls-4" d="M96.50208,53.9107l-4.10441-6.86782-8.03845-.54441,5.32576-5.9888L87.72361,32.7688l7.39591,3.16654,6.82626-4.23971-.75482,7.94582,6.18021,5.12058-7.86241,1.74426Z"/><path class="cls-5" d="M96.8091,57.91811l-5.46837-9.15027-10.74991-.7285,7.12358-8.01048L85.09573,29.69417l9.87089,4.2262,9.10521-5.6552-1.00678,10.60159,8.26994,6.85187L100.81522,48.052Zm-8.68122-12.9608,5.327.361,2.73988,4.585,2.00743-4.94289,5.20541-1.15466-4.09056-3.38919.50273-5.29073L95.272,37.95011l-4.92058-2.10675,1.30431,5.14721Z"/><path class="cls-4" d="M136.15687,59.6357l6.78973-4.297,7.4229,3.104-2.02772-7.72381,5.27426-6.03328-8.04293-.47664-4.16322-6.83277-2.94309,7.42924-7.84727,1.81039,6.224,5.06816Z"/><path class="cls-5" d="M134.06036,63.08371l.91533-10.609L126.648,45.69325l10.49877-2.42266,3.9221-9.89889,5.54626,9.10388,10.7556.63706-7.054,8.07042L153.02333,61.495l-9.90677-4.14263Zm.5303-15.54492,4.11987,3.35462-.45679,5.29467,4.52329-2.86282,4.93807,2.06518-1.3485-5.13584,3.4942-3.99605-5.33011-.3159-2.77926-4.56223L139.786,46.34037Z"/><path class="cls-4" d="M165.08075,53.79063l4.10441-6.86783,8.03845-.54441-5.32576-5.98879,1.96137-7.74087-7.39591,3.16653L159.637,31.57555l.75482,7.94582L154.21166,44.642l7.86241,1.74426Z"/><path class="cls-5" d="M164.7739,57.79823l-4.00611-9.86609-10.51933-2.33383,8.2695-6.85188-1.00634-10.60071,9.10432,5.65476,9.8709-4.22619L173.8686,39.90854l7.124,8.01091-10.75035.72807Zm-6.599-14.11285,5.20584,1.15511,2.00744,4.94288,2.73987-4.58541,5.32661-.36054-3.52745-3.96717,1.30387-5.14678-4.9197,2.10676-4.54866-2.82476.5023,5.29073Z"/><path class="cls-5" d="M184.93071,157.39275h2.95564a3.93045,3.93045,0,0,1,2.59844.76,2.5674,2.5674,0,0,1,.90188,2.07261,2.62073,2.62073,0,0,1-.90949,2.10337,4.01291,4.01291,0,0,1-2.6679.77553h-2.04946V168.117h-.82911Zm.82911.69088v4.32946h1.99588a3.17309,3.17309,0,0,0,2.04185-.56784,2.17271,2.17271,0,0,0,.01554-3.17821,2.93211,2.93211,0,0,0-1.95753-.58339Z"/><path class="cls-5" d="M194.21793,157.39275h2.74828a4.0745,4.0745,0,0,1,2.64078.74842,2.47763,2.47763,0,0,1,.91345,2.02271,2.678,2.678,0,0,1-2.04185,2.61,4.81373,4.81373,0,0,1,1.42771,1.6354l2.42581,3.70768h-.98125l-1.86822-2.93909a7.17708,7.17708,0,0,0-1.45779-1.83946,2.66155,2.66155,0,0,0-1.52727-.36477H195.047V168.117h-.82911Zm.82911.69088v4.19912H196.828a3.36794,3.36794,0,0,0,2.07658-.549,2.0189,2.0189,0,0,0-.01155-3.0975,3.41853,3.41853,0,0,0-2.09547-.55263Z"/><path class="cls-5" d="M209.47034,157.25451a5.58393,5.58393,0,0,1,4.03411,1.6007,5.42283,5.42283,0,0,1,0,7.79933,5.86425,5.86425,0,0,1-8.05266,0,5.441,5.441,0,0,1,0-7.79933A5.548,5.548,0,0,1,209.47034,157.25451Zm.03076,10.2331a4.61013,4.61013,0,0,0,3.3816-1.3705,4.79063,4.79063,0,0,0,0-6.7245,4.61009,4.61009,0,0,0-3.3816-1.3705,4.67,4.67,0,0,0-3.40443,1.3705,4.75344,4.75344,0,0,0,0,6.7245A4.67,4.67,0,0,0,209.5011,167.48761Z"/><path class="cls-5" d="M219.32611,157.39275V168.117a3.472,3.472,0,0,1-.66806,2.449,2.15009,2.15009,0,0,1-1.58148.67532,4.69658,4.69658,0,0,1-.49871-.03076l-.07706-.78281a2.16834,2.16834,0,0,0,.49145.06152q1.50462,0,1.50478-2.14967V157.39275Z"/><path class="cls-5" d="M228.84351,157.39275v.69088H223.8232v4.29107h4.89v.6988h-4.89v4.35259h5.14333v.69088h-5.97244V157.39275Z"/><path class="cls-5" d="M240.87173,158.15275v.90583a8.11234,8.11234,0,0,0-3.82309-1.03647,4.5072,4.5072,0,0,0-3.33926,1.35892,4.63162,4.63162,0,0,0-1.34337,3.39285,4.54456,4.54456,0,0,0,1.351,3.38556,4.71242,4.71242,0,0,0,3.44674,1.32817,8.21707,8.21707,0,0,0,3.81551-1.098v.85987a8.07658,8.07658,0,0,1-3.8,1.00571,5.64941,5.64941,0,0,1-4.08006-1.56992,5.49587,5.49587,0,0,1,.0344-7.84927,5.56574,5.56574,0,0,1,3.96893-1.5815A9.0226,9.0226,0,0,1,240.87173,158.15275Z"/><path class="cls-5" d="M251.54107,157.39275v.69088h-4.02254V168.117h-.83672V158.08363h-4.02254v-.69088Z"/><path class="cls-5" d="M73.44559,168.86955h-3.584v-6.885l-3.23245,3.98687h-.28288l-3.241-3.98687v6.885H59.62414V156.98587h3.24958l3.65257,4.45855,3.66971-4.45855h3.24958Z"/><path class="cls-5" d="M89.49619,168.86955H85.82647l-.96888-2.4092H79.696l-.986,2.4092h-3.6697l5.2559-11.88368h3.96123ZM84.03448,164.394,82.294,160.05541,80.5363,164.394Z"/><path class="cls-5" d="M94.675,168.86955H91.09129V156.98587h3.58378Z"/><path class="cls-5" d="M110.57986,168.86955h-3.18965l-6.1645-6.61926v6.61926H97.676V156.98587h3.18091l6.14767,6.58487v-6.58487h3.57526Z"/><path class="cls-5" d="M122.07758,164.05944h-4.93v4.81011h-3.584V156.98587h8.514v2.38366h-4.93v2.29785h4.93Z"/><path class="cls-5" d="M135.99342,168.86955h-3.84975l-.9346-2.10917a8.77445,8.77445,0,0,0-.92608-1.69353,1.999,1.999,0,0,0-.8015-.68587,2.85148,2.85148,0,0,0-1.00764-.14991H128.071v4.63848h-3.584V156.98587h6.09625a4.43378,4.43378,0,0,1,2.41772.60018,3.60383,3.60383,0,0,1,1.359,1.45757,3.74088,3.74088,0,0,1,.41587,1.62911,3.0814,3.0814,0,0,1-.34709,1.522,2.79253,2.79253,0,0,1-.73315.90458,7.28937,7.28937,0,0,1-.866.54,3.42036,3.42036,0,0,1,.94737.79321,9.96,9.96,0,0,1,1.01616,1.85619Zm-4.87017-8.12825a1.23083,1.23083,0,0,0-.54-1.14893,3.55782,3.55782,0,0,0-1.75786-.3258h-.75445v2.86362h.77169a3.86915,3.86915,0,0,0,1.79616-.28715,1.17289,1.17289,0,0,0,.48451-1.10174Z"/><path class="cls-5" d="M150.6723,168.86955h-3.66982l-.96888-2.4092h-5.16143l-.98612,2.4092h-3.6696l5.25574-11.88368h3.96135Zm-5.46174-4.47558L143.47,160.05541l-1.75761,4.33856Z"/><path class="cls-5" d="M166.0711,168.86955h-3.58378v-6.885l-3.23245,3.98687h-.283l-3.24095-3.98687v6.885h-3.48115V156.98587h3.24969l3.65256,4.45855,3.66961-4.45855h3.24947Z"/><path class="cls-5" d="M178.03194,168.86955H169.072V156.98587h8.81427v2.38366h-5.23025v2.17774h4.99v2.39233h-4.99v2.53784H178.032Z"/><path class="cls-5" d="M15.12977,157.38114a6.23757,6.23757,0,0,1,4.50571,1.78764,6.05772,6.05772,0,0,1,0,8.71128,6.55009,6.55009,0,0,1-8.99418,0,6.07721,6.07721,0,0,1,0-8.71128A6.19769,6.19769,0,0,1,15.12977,157.38114Zm.03439,11.42926a5.1497,5.1497,0,0,0,3.77681-1.53051,5.35146,5.35146,0,0,0,0-7.511,5.14967,5.14967,0,0,0-3.77681-1.5304,5.2177,5.2177,0,0,0-3.80269,1.5304,5.3096,5.3096,0,0,0,0,7.511A5.21776,5.21776,0,0,0,15.16416,168.8104Z"/><path class="cls-5" d="M23.73821,157.53541h3.301a4.38911,4.38911,0,0,1,2.90227.84886,2.86743,2.86743,0,0,1,1.00753,2.315,2.92609,2.92609,0,0,1-1.016,2.34928,4.4809,4.4809,0,0,1-2.97947.866H24.66418v5.59887h-.926Zm.926.7717v4.83577h2.22927a3.54388,3.54388,0,0,0,2.2807-.63446,2.42706,2.42706,0,0,0,.01714-3.54972,3.27517,3.27517,0,0,0-2.18637-.65159Z"/><path class="cls-5" d="M39.2572,157.53541v.7717H33.64973v4.79283h5.46171v.78032H33.64973v4.86143h5.7446v.77173H32.72376v-11.978Z"/><path class="cls-5" d="M52.09262,157.53541v11.978h-.76206l-9.10667-10.4689v10.4689h-.92611v-11.978h.78469l9.08423,10.469v-10.469Z"/><path class="cls-1" d="M27.08569,194.69335H9.50126V182.97072H57.38311v11.72263H39.79869V240.7596h-12.713Z"/><path class="cls-1" d="M54.98689,218.88247v-.16514c0-12.63115,8.998-23.03313,21.87713-23.03313,14.7775,0,21.54686,11.47516,21.54686,24.02349,0,.99085-.08233,2.14684-.16467,3.30235H67.45241c1.2388,5.69665,5.20123,8.66823,10.81507,8.66823,4.21038,0,7.26526-1.32065,10.73179-4.54018l7.18292,6.35626c-4.12805,5.1189-10.07218,8.2561-18.08033,8.2561C64.81111,241.75045,54.98689,232.42165,54.98689,218.88247Zm31.20545-3.715c-.74289-5.61384-4.04476-9.41161-9.32832-9.41161-5.20123,0-8.58542,3.715-9.57627,9.41161Z"/><path class="cls-1" d="M104.26884,234.89781l5.36589-8.25514c4.78862,3.46748,9.82423,5.28356,13.95228,5.28356,3.63214,0,5.28356-1.32113,5.28356-3.30235v-.16514c0-2.72411-4.29272-3.63215-9.16366-5.11842-6.19208-1.81607-13.20938-4.7058-13.20938-13.29123V209.884c0-8.99852,7.26525-14.03461,16.181-14.03461a30.62487,30.62487,0,0,1,16.51125,5.11842l-4.78766,8.66824c-4.376-2.559-8.75105-4.12757-11.97058-4.12757-3.05488,0-4.623,1.32065-4.623,3.05439v.16514c0,2.47664,4.20943,3.63263,8.998,5.28356,6.19208,2.064,13.374,5.03609,13.374,13.12657v.16514c0,9.82422-7.34758,14.2816-16.92386,14.2816A30.9978,30.9978,0,0,1,104.26884,234.89781Z"/><path class="cls-1" d="M144.884,234.89781l5.3659-8.25514c4.78861,3.46748,9.82422,5.28356,13.95227,5.28356,3.63215,0,5.28356-1.32113,5.28356-3.30235v-.16514c0-2.72411-4.29271-3.63215-9.16366-5.11842-6.19207-1.81607-13.20938-4.7058-13.20938-13.29123V209.884c0-8.99852,7.26526-14.03461,16.181-14.03461a30.62485,30.62485,0,0,1,16.51125,5.11842l-4.78766,8.66824c-4.376-2.559-8.751-4.12757-11.97058-4.12757-3.05487,0-4.623,1.32065-4.623,3.05439v.16514c0,2.47664,4.20942,3.63263,8.998,5.28356,6.19207,2.064,13.374,5.03609,13.374,13.12657v.16514c0,9.82422-7.34759,14.2816-16.92386,14.2816A30.99783,30.99783,0,0,1,144.884,234.89781Z"/><path class="cls-1" d="M190.03981,180.49409h13.20842V191.639H190.03981Zm.33028,16.01582H202.918V240.7596H190.37009Z"/><path class="cls-1" d="M212.07874,228.04613V227.881c0-9.65908,7.34758-14.11693,17.83237-14.11693a31.44514,31.44514,0,0,1,10.81507,1.81607v-.74289c0-5.20123-3.21953-8.09049-9.49394-8.09049a32.55584,32.55584,0,0,0-12.21853,2.39383l-3.1372-9.57627a39.04518,39.04518,0,0,1,17.17181-3.54982c6.85168,0,11.805,1.81608,14.94216,4.95328,3.30282,3.30235,4.78862,8.17281,4.78862,14.11694v25.6749H240.64385V235.971c-3.05487,3.38515-7.26525,5.61384-13.374,5.61384C218.93138,241.58483,212.07874,236.79717,212.07874,228.04613Zm28.81211-2.88974v-2.22868a19.454,19.454,0,0,0-8.00815-1.65141c-5.36589,0-8.66776,2.14683-8.66776,6.10926v.16514c0,3.38468,2.80692,5.36637,6.85168,5.36637C236.92842,232.91707,240.89085,229.69706,240.89085,225.15639Z"/></svg>