<?xml version="1.0" encoding="UTF-8"?><svg id="Layer_2" xmlns="http://www.w3.org/2000/svg" viewBox="0 0 624.23 469.28"><defs><style>.cls-1{fill:#fff;}.cls-2{opacity:.9;}</style></defs><g><path class="cls-1" d="M33.81,400.65h-10.69v-18.56h10.69v3.22h-6.75v4.08h6.28v3.22h-6.28v4.79h6.75v3.25Z"/><path class="cls-1" d="M55.29,400.65h-4.49l-4.32-7.02-4.32,7.02h-4.21l6.16-9.57-5.76-8.99h4.34l4,6.68,3.92-6.68h4.24l-5.83,9.2,6.27,9.36Z"/><path class="cls-1" d="M73.05,387.88c0,2-.62,3.53-1.87,4.58-1.25,1.06-3.02,1.59-5.33,1.59h-1.69v6.6h-3.94v-18.56h5.93c2.25,0,3.96,.48,5.14,1.45,1.17,.97,1.76,2.42,1.76,4.34Zm-8.89,2.95h1.29c1.21,0,2.12-.24,2.72-.72,.6-.48,.9-1.17,.9-2.09s-.25-1.6-.75-2.04c-.5-.44-1.29-.66-2.37-.66h-1.79v5.51Z"/><path class="cls-1" d="M79.15,400.65v-18.56h3.94v15.31h7.53v3.25h-11.46Z"/><path class="cls-1" d="M113.28,391.35c0,3.07-.76,5.43-2.29,7.08s-3.71,2.48-6.55,2.48-5.03-.83-6.55-2.48-2.29-4.02-2.29-7.11,.76-5.45,2.29-7.08c1.53-1.63,3.72-2.44,6.57-2.44s5.03,.82,6.54,2.46c1.51,1.64,2.27,4,2.27,7.08Zm-13.55,0c0,2.07,.39,3.63,1.18,4.68s1.96,1.57,3.53,1.57c3.14,0,4.71-2.09,4.71-6.26s-1.56-6.27-4.68-6.27c-1.57,0-2.75,.53-3.54,1.58-.8,1.05-1.19,2.62-1.19,4.69Z"/><path class="cls-1" d="M123.67,393.53v7.12h-3.94v-18.56h5.41c2.52,0,4.39,.46,5.6,1.38,1.21,.92,1.82,2.31,1.82,4.18,0,1.09-.3,2.06-.9,2.91-.6,.85-1.45,1.52-2.55,2,2.79,4.17,4.61,6.87,5.46,8.09h-4.37l-4.43-7.12h-2.09Zm0-3.2h1.27c1.24,0,2.16-.21,2.75-.62s.89-1.07,.89-1.96-.3-1.51-.91-1.88c-.61-.37-1.54-.56-2.81-.56h-1.19v5.01Z"/><path class="cls-1" d="M150.18,400.65h-10.69v-18.56h10.69v3.22h-6.75v4.08h6.28v3.22h-6.28v4.79h6.75v3.25Z"/><path class="cls-1" d="M160.59,393.53v7.12h-3.94v-18.56h5.41c2.52,0,4.39,.46,5.6,1.38,1.21,.92,1.82,2.31,1.82,4.18,0,1.09-.3,2.06-.9,2.91-.6,.85-1.45,1.52-2.55,2,2.79,4.17,4.61,6.87,5.46,8.09h-4.37l-4.43-7.12h-2.09Zm0-3.2h1.27c1.24,0,2.16-.21,2.75-.62s.89-1.07,.89-1.96-.3-1.51-.91-1.88c-.61-.37-1.54-.56-2.81-.56h-1.19v5.01Z"/><path class="cls-1" d="M189.65,400.65h-3.87v-18.56h10.64v3.22h-6.77v4.79h6.3v3.21h-6.3v7.34Z"/><path class="cls-1" d="M219.49,391.35c0,3.07-.76,5.43-2.29,7.08s-3.71,2.48-6.55,2.48-5.03-.83-6.55-2.48-2.29-4.02-2.29-7.11,.76-5.45,2.29-7.08c1.53-1.63,3.72-2.44,6.57-2.44s5.03,.82,6.54,2.46c1.51,1.64,2.27,4,2.27,7.08Zm-13.55,0c0,2.07,.39,3.63,1.18,4.68s1.96,1.57,3.53,1.57c3.14,0,4.71-2.09,4.71-6.26s-1.56-6.27-4.68-6.27c-1.57,0-2.75,.53-3.54,1.58-.8,1.05-1.19,2.62-1.19,4.69Z"/><path class="cls-1" d="M229.87,393.53v7.12h-3.94v-18.56h5.41c2.52,0,4.39,.46,5.6,1.38,1.21,.92,1.82,2.31,1.82,4.18,0,1.09-.3,2.06-.9,2.91-.6,.85-1.45,1.52-2.55,2,2.79,4.17,4.61,6.87,5.46,8.09h-4.37l-4.43-7.12h-2.09Zm0-3.2h1.27c1.24,0,2.16-.21,2.75-.62s.89-1.07,.89-1.96-.3-1.51-.91-1.88c-.61-.37-1.54-.56-2.81-.56h-1.19v5.01Z"/><path class="cls-1" d="M265.64,382.09h3.97l-6.31,18.56h-4.29l-6.3-18.56h3.97l3.49,11.04c.19,.65,.4,1.41,.6,2.28,.21,.87,.34,1.47,.39,1.81,.09-.78,.41-2.14,.95-4.09l3.52-11.04Z"/><path class="cls-1" d="M274.55,400.65v-18.56h3.94v18.56h-3.94Z"/><path class="cls-1" d="M296.72,395.5c0,1.68-.6,3-1.81,3.96-1.21,.96-2.88,1.45-5.03,1.45-1.98,0-3.73-.37-5.26-1.12v-3.66c1.25,.56,2.31,.95,3.18,1.18,.87,.23,1.66,.34,2.38,.34,.86,0,1.53-.17,1.99-.5,.46-.33,.69-.82,.69-1.47,0-.36-.1-.69-.3-.97-.2-.28-.5-.56-.9-.82-.39-.26-1.2-.68-2.41-1.26-1.13-.53-1.98-1.04-2.55-1.54s-1.02-1.06-1.36-1.71-.51-1.41-.51-2.29c0-1.64,.56-2.93,1.67-3.87,1.11-.94,2.65-1.41,4.62-1.41,.96,0,1.88,.11,2.76,.34,.88,.23,1.79,.55,2.75,.96l-1.27,3.06c-.99-.41-1.81-.69-2.46-.85-.65-.16-1.28-.24-1.91-.24-.75,0-1.32,.17-1.71,.52s-.6,.8-.6,1.36c0,.35,.08,.65,.24,.91,.16,.26,.42,.51,.77,.75,.35,.24,1.18,.67,2.49,1.3,1.74,.83,2.92,1.66,3.57,2.49,.64,.83,.96,1.86,.96,3.07Z"/><path class="cls-1" d="M317.79,382.09v12.01c0,1.37-.31,2.57-.92,3.61-.61,1.03-1.5,1.82-2.66,2.37s-2.53,.83-4.11,.83c-2.39,0-4.24-.61-5.56-1.83-1.32-1.22-1.98-2.9-1.98-5.02v-11.96h3.92v11.36c0,1.43,.29,2.48,.86,3.15s1.53,1,2.86,1,2.22-.34,2.8-1.01c.58-.67,.87-1.73,.87-3.17v-11.34h3.92Z"/><path class="cls-1" d="M336.3,400.65l-1.35-4.42h-6.77l-1.35,4.42h-4.24l6.55-18.64h4.81l6.58,18.64h-4.24Zm-2.29-7.72c-1.24-4-1.94-6.27-2.1-6.79-.16-.52-.27-.94-.34-1.24-.28,1.08-1.08,3.76-2.4,8.04h4.84Z"/><path class="cls-1" d="M345.47,400.65v-18.56h3.94v15.31h7.53v3.25h-11.46Z"/><path class="cls-1" d="M383.07,395.5c0,1.68-.6,3-1.81,3.96-1.21,.96-2.88,1.45-5.03,1.45-1.98,0-3.73-.37-5.26-1.12v-3.66c1.25,.56,2.31,.95,3.18,1.18,.87,.23,1.66,.34,2.38,.34,.86,0,1.53-.17,1.99-.5,.46-.33,.69-.82,.69-1.47,0-.36-.1-.69-.3-.97-.2-.28-.5-.56-.9-.82-.39-.26-1.2-.68-2.41-1.26-1.13-.53-1.98-1.04-2.55-1.54s-1.02-1.06-1.36-1.71-.51-1.41-.51-2.29c0-1.64,.56-2.93,1.67-3.87,1.11-.94,2.65-1.41,4.62-1.41,.96,0,1.88,.11,2.76,.34,.88,.23,1.79,.55,2.75,.96l-1.27,3.06c-.99-.41-1.81-.69-2.46-.85-.65-.16-1.28-.24-1.91-.24-.75,0-1.32,.17-1.71,.52s-.6,.8-.6,1.36c0,.35,.08,.65,.24,.91,.16,.26,.42,.51,.77,.75,.35,.24,1.18,.67,2.49,1.3,1.74,.83,2.92,1.66,3.57,2.49,.64,.83,.96,1.86,.96,3.07Z"/><path class="cls-1" d="M396.19,400.65h-3.94v-15.29h-5.04v-3.28h14.02v3.28h-5.04v15.29Z"/><path class="cls-1" d="M421.8,382.09v12.01c0,1.37-.31,2.57-.92,3.61-.61,1.03-1.5,1.82-2.66,2.37s-2.53,.83-4.11,.83c-2.39,0-4.24-.61-5.56-1.83-1.32-1.22-1.98-2.9-1.98-5.02v-11.96h3.92v11.36c0,1.43,.29,2.48,.86,3.15s1.53,1,2.86,1,2.22-.34,2.8-1.01c.58-.67,.87-1.73,.87-3.17v-11.34h3.92Z"/><path class="cls-1" d="M444.34,391.19c0,3.06-.87,5.4-2.61,7.02-1.74,1.62-4.25,2.44-7.54,2.44h-5.26v-18.56h5.83c3.03,0,5.38,.8,7.06,2.4s2.51,3.83,2.51,6.7Zm-4.09,.1c0-3.99-1.76-5.98-5.28-5.98h-2.09v12.09h1.69c3.79,0,5.69-2.04,5.69-6.11Z"/><path class="cls-1" d="M450.79,400.65v-18.56h3.94v18.56h-3.94Z"/><path class="cls-1" d="M478.84,391.35c0,3.07-.76,5.43-2.29,7.08s-3.71,2.48-6.55,2.48-5.03-.83-6.55-2.48-2.29-4.02-2.29-7.11,.76-5.45,2.29-7.08c1.53-1.63,3.72-2.44,6.57-2.44s5.03,.82,6.54,2.46c1.51,1.64,2.27,4,2.27,7.08Zm-13.55,0c0,2.07,.39,3.63,1.18,4.68s1.96,1.57,3.53,1.57c3.14,0,4.71-2.09,4.71-6.26s-1.56-6.27-4.68-6.27c-1.57,0-2.75,.53-3.54,1.58-.8,1.05-1.19,2.62-1.19,4.69Z"/><path class="cls-1" d="M502.53,385.1c-1.48,0-2.63,.56-3.44,1.67-.81,1.11-1.22,2.66-1.22,4.65,0,4.14,1.55,6.21,4.66,6.21,1.3,0,2.88-.33,4.74-.98v3.3c-1.52,.63-3.22,.95-5.1,.95-2.7,0-4.76-.82-6.2-2.46-1.43-1.64-2.15-3.99-2.15-7.05,0-1.93,.35-3.62,1.05-5.07,.7-1.45,1.71-2.56,3.03-3.34,1.32-.77,2.86-1.16,4.63-1.16s3.61,.44,5.43,1.31l-1.27,3.2c-.69-.33-1.39-.62-2.09-.86s-1.39-.37-2.07-.37Z"/><path class="cls-1" d="M530.66,391.35c0,3.07-.76,5.43-2.29,7.08s-3.71,2.48-6.55,2.48-5.03-.83-6.55-2.48-2.29-4.02-2.29-7.11,.76-5.45,2.29-7.08c1.53-1.63,3.72-2.44,6.57-2.44s5.03,.82,6.54,2.46c1.51,1.64,2.27,4,2.27,7.08Zm-13.55,0c0,2.07,.39,3.63,1.18,4.68s1.96,1.57,3.53,1.57c3.14,0,4.71-2.09,4.71-6.26s-1.56-6.27-4.68-6.27c-1.57,0-2.75,.53-3.54,1.58-.8,1.05-1.19,2.62-1.19,4.69Z"/><path class="cls-1" d="M552.5,391.19c0,3.06-.87,5.4-2.61,7.02-1.74,1.62-4.25,2.44-7.54,2.44h-5.26v-18.56h5.83c3.03,0,5.38,.8,7.06,2.4s2.51,3.83,2.51,6.7Zm-4.09,.1c0-3.99-1.76-5.98-5.28-5.98h-2.09v12.09h1.69c3.79,0,5.69-2.04,5.69-6.11Z"/><path class="cls-1" d="M569.64,400.65h-10.69v-18.56h10.69v3.22h-6.75v4.08h6.28v3.22h-6.28v4.79h6.75v3.25Z"/><path class="cls-1" d="M583.9,395.27v-3.17h6.82v3.17h-6.82Z"/><path class="cls-1" d="M260.48,431.85h-13.81v-2.55l8.9-12.76h-8.66v-3.25h13.33v2.54l-8.89,12.77h9.13v3.25Z"/><path class="cls-1" d="M282.89,422.55c0,3.07-.76,5.43-2.29,7.08s-3.71,2.48-6.55,2.48-5.03-.83-6.55-2.48-2.29-4.02-2.29-7.11,.76-5.45,2.29-7.08c1.53-1.63,3.72-2.44,6.57-2.44s5.03,.82,6.54,2.46c1.51,1.64,2.27,4,2.27,7.08Zm-13.55,0c0,2.07,.39,3.63,1.18,4.68s1.96,1.57,3.53,1.57c3.14,0,4.71-2.09,4.71-6.26s-1.56-6.27-4.68-6.27c-1.57,0-2.75,.53-3.54,1.58-.8,1.05-1.19,2.62-1.19,4.69Z"/><path class="cls-1" d="M307.41,431.85h-4.48l-2.51-9.75c-.09-.35-.25-1.06-.48-2.15-.22-1.09-.35-1.82-.39-2.19-.05,.46-.18,1.19-.38,2.2-.2,1.01-.36,1.73-.47,2.16l-2.5,9.72h-4.47l-4.74-18.56h3.87l2.37,10.13c.42,1.87,.71,3.49,.9,4.86,.05-.48,.17-1.23,.35-2.24,.18-1.01,.35-1.8,.51-2.35l2.7-10.4h3.72l2.7,10.4c.12,.47,.27,1.18,.44,2.13s.31,1.78,.41,2.46c.08-.66,.22-1.48,.41-2.47,.19-.99,.36-1.78,.51-2.39l2.36-10.13h3.87l-4.72,18.56Z"/><path class="cls-1" d="M327.76,431.85h-10.69v-18.56h10.69v3.22h-6.75v4.08h6.28v3.22h-6.28v4.79h6.75v3.25Z"/><path class="cls-1" d="M354.17,413.29h3.97l-6.31,18.56h-4.29l-6.3-18.56h3.97l3.49,11.04c.19,.65,.4,1.41,.6,2.28,.21,.87,.34,1.47,.39,1.81,.09-.78,.41-2.14,.95-4.09l3.52-11.04Z"/><path class="cls-1" d="M374.76,431.85h-12.97v-2.73l4.66-4.71c1.38-1.41,2.28-2.39,2.7-2.94,.42-.54,.73-1.05,.91-1.52s.28-.95,.28-1.45c0-.75-.21-1.3-.62-1.66-.41-.36-.96-.55-1.64-.55-.72,0-1.42,.17-2.09,.5s-1.38,.8-2.12,1.41l-2.13-2.53c.91-.78,1.67-1.33,2.27-1.65s1.26-.57,1.97-.74c.71-.17,1.51-.26,2.39-.26,1.16,0,2.18,.21,3.07,.63s1.58,1.02,2.07,1.78,.74,1.63,.74,2.62c0,.85-.15,1.66-.45,2.41-.3,.75-.77,1.52-1.4,2.3-.63,.79-1.74,1.91-3.33,3.36l-2.39,2.25v.18h8.09v3.3Z"/></g><g><polygon class="cls-1" points="368.78 246.42 370.7 241.08 367.54 243.26 368.64 246.42 368.78 246.42"/><path class="cls-1" d="M243.66,69.25c-.06,.68-.23,1.36-.49,2.01,.26-.65,.42-1.32,.49-2.01Z"/><path class="cls-1" d="M252.58,61.49h0c.26-.02,.52,0,.78,.02-.26-.03-.51-.04-.77-.02Z"/><path class="cls-1" d="M332.41,239.08l.11-1.08c-.21,.1-.4,.2-.62,.29l.5,.79Z"/><path class="cls-1" d="M231.4,63.5c-.08,.08-.15,.17-.23,.26,.08-.09,.15-.18,.24-.26h0Z"/><path class="cls-1" d="M344.25,127.92c-3.46,.48-6.4,1.85-8.73,3.86,2.33-2.01,5.27-3.38,8.73-3.86h0Z"/><path class="cls-1" d="M321.51,223.97v11.17h3.88c2.6,0,4.49-.48,5.65-1.45s1.75-2.4,1.75-4.3-.63-3.32-1.89-4.16-3.16-1.26-5.7-1.26h-3.69Z"/><path class="cls-1" d="M548.77,6.69h-83.89l37.48,54.35c.59,.32,1.15,.71,1.66,1.19h0c1.28,1.22,2.01,2.79,2.2,4.41l4.54,6.58v-12.96h1.11v14.5s0,.05,0,.08l25.33,36.73c18.47,2.88,27,18.97,27,36.42,0,.81-.04,1.68-.09,2.59l48,69.6V70.03c0-34.98-28.36-63.35-63.35-63.35Zm-23.9,68.04h-8.04v-14.46h7.89v.93h-6.77v5.78h6.59v.94h-6.59v5.87h6.92v.94Zm16.21-1.14c-1.57,.87-3.32,1.33-5.12,1.35-2.05,.07-4.03-.7-5.51-2.12-2.89-2.89-2.89-7.58,0-10.47h0s.07-.07,.1-.11c1.43-1.39,3.36-2.16,5.35-2.13,1.74,.03,3.46,.44,5.03,1.19h0l.06,.03s-.04-.02-.06-.03v1.21c-1.58-.9-3.35-1.4-5.16-1.45-1.69-.04-3.31,.63-4.49,1.84-1.21,1.21-1.87,2.87-1.81,4.58-.07,1.72,.59,3.39,1.81,4.61,1.24,1.2,2.92,1.85,4.65,1.79,1.81-.05,3.58-.55,5.14-1.45v1.16Zm14.25-12.39h-5.42v13.53h-1.13v-13.53h-5.44v-.93h11.99v.93Z"/><path class="cls-1" d="M254.76,67.57c.24-.11,.48-.25,.71-.41,.5-.46,.82-1.04,.96-1.65-.14,.61-.46,1.19-.96,1.65-.22,.16-.46,.29-.71,.41Z"/><path class="cls-1" d="M256.32,63.65c-.14-.4-.37-.78-.68-1.11-.04-.06-.1-.12-.16-.16,.06,.04,.12,.1,.16,.16,.31,.33,.53,.71,.68,1.11Z"/><polygon class="cls-1" points="327.09 63.9 327.09 63.9 329.44 69.7 327.09 63.9"/><path class="cls-1" d="M413.32,229.81c-.23-.62-.56-1.6-.97-2.94-.41-1.34-.7-2.32-.85-2.94-.42,1.92-1.04,4.01-1.85,6.28l-3.08,8.9h9.95l-3.2-9.3Z"/><path class="cls-1" d="M204.3,141.59l-37.21,25.66-.35,.95,86.27-59.5h-25.02v-17.11h49.83l14.45-9.96-1.06,9.96h9.15v14.83l-12.25,14.25-4.53,42.52h16.78v17.11h-18.6l-4.44,41.7c2.67-2.18,6.18-3.29,10.57-3.29,5.08,0,9,1.53,11.77,4.6,2.77,3.07,4.16,7.39,4.16,12.96s-1.39,9.88-4.17,12.96c-2.78,3.08-6.72,4.62-11.81,4.62s-9.11-1.53-11.88-4.59c-.5-.56-.94-1.17-1.35-1.81l-3.14,29.48h144.45l39.89-27.51-14.35-23.25h-.19l.12,1.52c.22,2.9,.33,5.54,.33,7.94v17.75h-5.07v-34.15h6.77l16.75,27.07h.14c-.03-.36-.09-1.66-.19-3.91s-.14-4.01-.14-5.27v-17.89h5.12v23.78l20.01-13.8v-5.19h-10.04v-4.79h10.45l-26.51-38.44h-.9l-71.65,49.41v23.18h-5.37v-16.89c0-.76,.01-1.64,.03-2.6l-4.12,2.84-6,16.65h-4.93l-2.55-7.35-7.14,4.92v2.43h-3.52l-23.69,16.34,2.39-22.46-4.51-7.53h-5.51v13.64h-5.58v-34.15h9.65c3.75,0,6.66,.6,8.75,1.8l4.27-40.1c-16.66-3.53-28.23-17.41-28.23-34.23v-.25c0-19.14,15.12-34.74,35.67-35.33l3.77-35.4h-1.97v-16.03h3.68l3.21-30.09-15.81-22.93h-35.18L173.3,96.64l31,44.95Zm204.19,77.52h6.07l12.78,34.29h-5.93l-3.41-9.48h-13.06l-3.34,9.48h-5.89l12.78-34.29ZM338.95,59.71h4.82v16.03h-4.82v-16.03Zm-14.55,0h5.41l7,16.03h-4.94l-1.32-3.25h-6.96l-1.33,3.25h-4.94l7.09-16.03Zm-27.88,0h4.38l4.93,6.01,4.94-6.01h4.39v16.03h-4.84v-9.29l-4.35,5.38h-.39l-4.37-5.38v9.29h-4.69v-16.03Zm-24.71,.74h1.06l12.24,14.12v-14.12h1.25v16.16h-1.03l-12.27-14.14v14.14h-1.25v-16.16Zm-11.57,0h8.81v1.04h-7.57v6.46h7.37v1.04h-7.37v6.56h7.76v1.05h-9v-16.16Zm-12.12,0h4.45c1.4-.09,2.78,.32,3.91,1.15,.11,.1,.22,.21,.32,.33,1.53,1.76,1.35,4.43-.41,5.96-1.16,.86-2.58,1.27-4.02,1.17h-3.09v7.52h-1.24l.07-16.13Zm-17.81,2.41l.16-.16c1.61-1.59,3.79-2.45,6.05-2.41v-.04c2.27-.06,4.46,.81,6.07,2.41,3.26,3.13,3.37,8.3,.24,11.56-.01,0-.03,.02-.04,.04l-.2,.2c-3.4,3.21-8.71,3.21-12.12,0-3.24-3.16-3.31-8.35-.16-11.59Z"/><path class="cls-1" d="M287.83,249.11c3.32,0,5.82-1.08,7.51-3.22,1.69-2.15,2.53-5.35,2.53-9.6s-.84-7.37-2.51-9.53c-1.67-2.16-4.17-3.25-7.49-3.25s-5.88,1.08-7.58,3.25c-1.71,2.17-2.56,5.34-2.56,9.53s.85,7.39,2.55,9.57c1.7,2.17,4.21,3.26,7.54,3.26Z"/><polygon class="cls-1" points="231.39 73.62 231.39 73.62 231.41 73.64 231.39 73.62 231.39 73.62"/><polygon class="cls-1" points="266.82 320.48 266.68 321.76 280.26 341.45 322.37 341.45 352.78 320.48 266.82 320.48"/><polygon class="cls-1" points="35.82 320.48 35.82 276.95 109.81 276.95 12.12 135.3 12.12 323.01 12.12 341.45 154.29 341.45 139.83 320.48 35.82 320.48"/><path class="cls-1" d="M75.46,6.69c-34.98,0-63.35,28.36-63.35,63.35v40.84L163.19,6.69H75.46Z"/><polygon class="cls-1" points="589.35 276.95 589.35 320.48 493.32 320.48 462.91 341.45 612.12 341.45 612.12 238.55 556.44 276.95 589.35 276.95"/><path class="cls-1" d="M329.85,141.66c.16-.73,.35-1.45,.58-2.14-.23,.7-.43,1.41-.58,2.14Z"/><path class="cls-1" d="M330.43,152.92c-.34-1.02-.61-2.07-.78-3.15,.18,1.08,.44,2.13,.78,3.15Z"/><path class="cls-1" d="M329.38,146.21h0c0-1.56,.16-3.09,.47-4.55-.31,1.46-.47,2.99-.47,4.55Z"/><path class="cls-1" d="M333.4,158.49c-1.28-1.65-2.29-3.54-2.97-5.57,.69,2.03,1.69,3.91,2.97,5.57Z"/><path class="cls-1" d="M469.3,66.98c.36,.03,.71,0,1.06-.07-.35,.06-.7,.1-1.06,.07h0Z"/><path class="cls-1" d="M472.23,62.09s.02,.03,.03,.04h0s-.02-.02-.03-.04l-.14-.16c-.76-.56-1.7-.84-2.64-.78h0c.95-.06,1.88,.22,2.64,.78l.14,.16Z"/><path class="cls-1" d="M472.05,66.22c-.4,.28-.84,.5-1.31,.63,.47-.13,.91-.34,1.31-.63Z"/><path class="cls-1" d="M472.05,66.21h0c.1-.09,.18-.19,.26-.29-.08,.1-.17,.2-.27,.29h0Z"/><path class="cls-1" d="M392.29,66.26c.23-.17,.4-.39,.52-.64-.11,.25-.29,.47-.52,.64Z"/><g class="cls-2"><path class="cls-1" d="M563.95,153.06h-47.27c1.9,8.74,7.98,13.31,16.6,13.31,6.46,0,11.15-2.03,16.47-6.97l11.03,9.76c-6.34,7.86-15.46,12.67-27.75,12.67-20.4,0-35.48-14.32-35.48-35.1v-.25c0-19.39,13.81-35.36,33.58-35.36,2.14,0,4.16,.16,6.08,.46l-25.33-36.73c.1,1.14-.22,2.27-.9,3.19-.55,.59-1.33,.92-2.13,.92-.22,0-.44,0-.67,0l-.1-1.05c.21,.05,.43,.07,.65,.07,1.36,0,2.03-.96,2.03-2.9v-1.86l-4.54-6.58c.24,2.06-.4,4.22-1.95,5.84-.03,.03-.06,.06-.08,.09l-.18,.18c-3.05,2.88-7.81,2.88-10.86,0-2.9-2.82-2.97-7.46-.15-10.37h0l.14-.15c2.54-2.39,6.26-2.79,9.2-1.19L464.88,6.69h-125.97l15.81,22.93-3.21,30.09h.61l8.29,8.88v-8.88h4.81v16.03h-4.29l-8.32-8.93v8.93h-2.81l-3.77,35.4c.4-.01,.8-.03,1.21-.03,21.04,0,36.62,15.59,36.62,35.1v.25c0,19.52-15.71,35.36-36.88,35.36-2.91,0-5.72-.31-8.39-.88l-4.27,40.1c.37,.21,.72,.43,1.03,.68,2.12,1.65,3.18,4.14,3.18,7.47,0,4.04-2.02,6.96-6.02,8.8l-.11,1.08,9.15,14.33h-6.35l-3.67-6.12-2.39,22.46,23.69-16.34h-1.54v-34.15h7.87l8.38,24.01,3.16-2.18,7.85-21.83h7.9v10.97l71.65-49.41h-4.39l-13.05-41.69-13.31,41.69h-17.23l-20.91-68.43h19.52l10.9,41.19,12.8-41.44h16.6l12.93,41.57,11.15-41.31h19.14l-21.16,68.43h-12.07l26.51,38.44h15.22v4.79h-10.04v29.36h-5.58v-24.18l-20.01,13.8v10.37h-6.84l-2.45-3.97-39.89,27.51h140.54l55.67-38.4v-18.37l-48-69.6c-.05,.81-.11,1.64-.16,2.48ZM380.74,62.93h-6.65v3.1h6.65v3.22h-6.65v6.49h-4.83v-16.03h11.48v3.22Zm13.58,12.81l-1.26-2.9c-.34-.8-.75-1.57-1.25-2.28-.27-.4-.65-.72-1.08-.93-.44-.15-.9-.22-1.36-.2h-.54v6.26h-4.84v-15.99h8.22c1.14-.05,2.27,.23,3.26,.81,.79,.47,1.42,1.14,1.84,1.96,.35,.68,.54,1.44,.55,2.2,.03,.71-.13,1.42-.46,2.06-.24,.47-.58,.88-.99,1.22-.38,.27-.77,.51-1.17,.73,.49,.27,.92,.64,1.28,1.07,.56,.77,1.04,1.6,1.42,2.48l1.58,3.51h-5.19Zm20.03,0l-1.3-3.25h-6.96l-1.33,3.25h-4.96l7.09-16.03h5.35l7.06,16.03h-4.94Zm25.71,0h-4.82v-9.29l-4.37,5.38h-.37l-4.38-5.38v9.29h-4.69v-16.03h4.4l4.91,6.01,4.96-6.01h4.38v16.03Zm16.13,0h-12.09v-16.03h11.88v3.21h-7.04v2.93h6.73v3.23h-6.73v3.42h7.25v3.23Zm16.78-8.83c-1.04,.77-2.32,1.14-3.61,1.04h-2.75v6.77h-1.11v-14.47h3.99c1.25-.09,2.49,.28,3.49,1.03,.83,.69,1.28,1.73,1.22,2.8,.05,1.08-.4,2.12-1.22,2.83Zm14.66,7.81l-2.52-3.94c-.51-.93-1.17-1.77-1.96-2.48-.62-.36-1.34-.54-2.06-.49h-2v6.94h-1.11l.04-14.5h3.7c1.27-.09,2.53,.27,3.57,1.02,.82,.66,1.27,1.67,1.23,2.72,0,1.67-1.13,3.12-2.75,3.51,.8,.59,1.46,1.35,1.93,2.22l3.27,5h-1.34Z"/></g><path class="cls-1" d="M388.83,66.66h1.03c.21,.01,.42,.02,.62,0-.21,0-.41,0-.62,0h-1.03Z"/><path class="cls-1" d="M481.5,61.19c.45-.03,.9,.02,1.34,.12-.44-.1-.89-.15-1.34-.12h-2.36v0h2.36Z"/><polygon class="cls-1" points="292.27 81.63 277.82 91.59 291.21 91.59 292.27 81.63"/><polygon class="cls-1" points="164.17 128.65 132.07 150.79 138.41 91.3 131.68 81.55 84.08 114.38 91.84 125.63 122.94 104.18 116.6 163.67 123.32 173.43 171.93 139.91 164.17 128.65"/><polygon class="cls-1" points="283.58 163.2 288.11 120.67 251.57 163.2 283.58 163.2"/><g class="cls-2"><polygon class="cls-1" points="266.82 320.48 139.83 320.48 154.29 341.45 280.26 341.45 266.68 321.76 266.82 320.48"/></g><g class="cls-2"><polygon class="cls-1" points="352.78 320.48 322.37 341.45 462.91 341.45 493.32 320.48 352.78 320.48"/></g><g class="cls-2"><path class="cls-1" d="M271.45,276.95l3.14-29.48c-1.85-2.89-2.79-6.62-2.79-11.23,0-5.64,1.39-9.97,4.17-12.99,.42-.45,.87-.86,1.34-1.24l4.44-41.7h-55.28v-14.83l48.79-56.77h-22.25l-86.27,59.5,.35-.95-53.7,37.03L50.7,113.38l90.91-62.69,31.69,45.95L303.73,6.69H163.19L12.12,110.88v24.42l97.69,141.65h161.65Zm-28.21-57.69h19.27v4.72h-13.73v10.67h12.87v4.74h-12.87v14.02h-5.54v-34.15Zm-42.25,0h6.77l16.75,27.07h.14c-.03-.36-.09-1.66-.19-3.91s-.14-4.01-.14-5.27v-17.89h5.12v34.15h-6.84l-16.79-27.21h-.19l.12,1.52c.22,2.9,.33,5.54,.33,7.94v17.75h-5.07v-34.15Zm-39.95,3.99c2.78-3.02,6.75-4.53,11.9-4.53s9,1.53,11.77,4.6c2.77,3.07,4.16,7.39,4.16,12.96s-1.39,9.88-4.17,12.96c-2.78,3.08-6.72,4.62-11.81,4.62s-9.11-1.53-11.88-4.59c-2.76-3.06-4.15-7.41-4.15-13.05s1.39-9.97,4.17-12.99Zm-37.32,3.76c1.3-2.66,3.18-4.7,5.64-6.12s5.35-2.13,8.67-2.13c3.49,0,6.71,.73,9.67,2.2l-2.01,4.65c-1.15-.54-2.37-1.02-3.66-1.44-1.29-.41-2.64-.62-4.05-.62-3.21,0-5.73,1.14-7.57,3.41-1.84,2.27-2.76,5.41-2.76,9.41s.88,7.36,2.65,9.51c1.77,2.15,4.33,3.22,7.67,3.22,1.45,0,2.85-.14,4.2-.43,1.36-.29,2.76-.66,4.23-1.11v4.79c-2.68,1.01-5.72,1.52-9.11,1.52-5,0-8.84-1.51-11.52-4.54-2.68-3.03-4.02-7.36-4.02-13,0-3.55,.65-6.66,1.95-9.32Z"/></g><g class="cls-2"><path class="cls-1" d="M172.89,249.11c3.32,0,5.82-1.08,7.51-3.22,1.69-2.15,2.53-5.35,2.53-9.6s-.84-7.37-2.51-9.53c-1.67-2.16-4.17-3.25-7.49-3.25s-5.88,1.08-7.58,3.25c-1.71,2.17-2.56,5.34-2.56,9.53s.85,7.39,2.55,9.57c1.7,2.17,4.21,3.26,7.54,3.26Z"/></g><path class="cls-1" d="M346.99,127.71c3.33,0,6.32,.85,8.86,2.33-2.54-1.48-5.53-2.33-8.86-2.33-.95,0-1.86,.08-2.74,.21h0c.88-.12,1.79-.21,2.74-.21Z"/><path class="cls-1" d="M494.01,62.96c-.06,.06-.12,.13-.18,.2,.06-.07,.11-.13,.18-.2h0Z"/><path class="cls-1" d="M497.95,73.84c.21,.02,.42,.02,.64,.02h0c-.21,0-.43,0-.64-.02Z"/><path class="cls-1" d="M381.42,224.93h-.19l-4.26,11.82,4.12-2.84c.02-1.19,.05-2.52,.1-4.03,.08-2.73,.16-4.38,.22-4.95Z"/><path class="cls-1" d="M355.96,224.88c.26,4.24,.4,8.21,.4,11.91v14.18l7.14-4.92-7.35-21.17h-.19Z"/><path class="cls-1" d="M12.12,462.59H612.12v-110.97H12.12v110.97Zm3.6-107.37H608.52v103.77H15.72v-103.77Z"/><path class="cls-1" d="M392.55,63.53c-.1-.11-.21-.21-.34-.29-.55-.26-1.15-.42-1.75-.45-.2-.01-.41-.01-.61,0h-1.01v3.87h1.03c.21,.01,.42,.02,.62,0,.62-.03,1.23-.16,1.81-.4,.23-.17,.4-.39,.52-.64,.11-.25,.16-.53,.14-.81v-.05c.02-.15,.01-.3-.02-.45-.05-.29-.18-.57-.38-.79Z"/><path class="cls-1" d="M484.66,62.28l-.33-.33c-.46-.3-.96-.51-1.49-.63-.44-.1-.89-.15-1.34-.12h-2.36v5.67h2.39c.99,.06,1.98-.2,2.81-.74,1.15-.97,1.29-2.69,.32-3.84Z"/><path class="cls-1" d="M472.85,63.11c-.04-.13-.11-.25-.17-.37-.02-.05-.04-.1-.07-.14-.07-.12-.16-.22-.24-.33-.04-.05-.06-.1-.1-.14h0s-.02-.02-.03-.04l-.14-.16c-.76-.56-1.7-.84-2.64-.78l-2.83,.04v5.8h2.68c.36,.03,.71,0,1.06-.07,.13-.02,.26-.04,.38-.07,.47-.13,.91-.34,1.31-.63,.1-.09,.18-.19,.27-.29,.04-.05,.09-.09,.13-.14,.08-.11,.15-.24,.21-.36,.02-.04,.06-.08,.08-.13,.06-.14,.11-.28,.15-.43,0-.03,.03-.07,.04-.1,.03-.13,.05-.27,.06-.41,0-.05,.02-.09,.02-.14,0-.14,0-.28-.02-.42,0-.05,0-.09,0-.14-.02-.14-.06-.28-.1-.42-.01-.04-.02-.08-.03-.13Z"/><path class="cls-1" d="M340.42,163.88l3.83-35.96c-3.46,.48-6.4,1.85-8.73,3.86-1.81,1.56-3.25,3.51-4.28,5.71-.31,.65-.57,1.33-.81,2.03-.23,.7-.43,1.41-.58,2.14-.31,1.46-.47,2.99-.47,4.56v.25c0,1.12,.09,2.23,.27,3.31,.18,1.08,.44,2.13,.78,3.15,.69,2.03,1.69,3.91,2.97,5.57,1.82,2.35,4.2,4.22,7.02,5.39Z"/><g class="cls-2"><path class="cls-1" d="M344.25,127.92l-3.83,35.96c2.06,.86,4.35,1.35,6.83,1.35,11.03,0,17.61-8.49,17.61-18.5v-.25c0-.92-.07-1.83-.19-2.72-.33-2.41-1.08-4.71-2.2-6.77-.67-1.23-1.45-2.38-2.37-3.41-.07-.08-.12-.16-.19-.23-1.18-1.29-2.54-2.4-4.06-3.29-2.54-1.48-5.53-2.33-8.86-2.33-.95,0-1.86,.08-2.74,.21Z"/></g><polygon class="cls-1" points="407.22 69.7 411.93 69.7 409.58 63.9 407.22 69.7"/><path class="cls-1" d="M254.76,67.57c.24-.11,.48-.25,.71-.41,.5-.46,.82-1.04,.96-1.65,.05-.2,.08-.41,.08-.62,.02-.42-.05-.84-.19-1.24s-.37-.78-.68-1.11c-.04-.06-.1-.12-.16-.16-.62-.48-1.35-.77-2.12-.86-.26-.03-.51-.04-.78-.02h-3.21v6.52h3.02c.82,.05,1.63-.1,2.37-.45Z"/><g class="cls-2"><path class="cls-1" d="M526.94,127.15c-.86,.26-1.68,.59-2.45,1.01s-1.49,.9-2.16,1.46c-1.34,1.12-2.49,2.52-3.42,4.17-1.17,2.06-2,4.49-2.48,7.23h29.02c-.1-.75-.24-1.47-.4-2.17-.86-3.83-2.57-6.98-5.05-9.13-.09-.08-.19-.15-.29-.23-2.28-1.86-5.16-2.91-8.59-2.91-1.5,0-2.9,.2-4.19,.58Z"/></g><polygon class="cls-1" points="329.44 69.7 327.09 63.9 324.72 69.7 329.44 69.7"/><path class="cls-1" d="M230.89,73.07c.08,.1,.18,.2,.27,.3,.07,.08,.14,.17,.22,.24h0l.02,.02c1.43,1.37,3.27,2.06,5.11,2.06,.46,0,.92-.04,1.37-.13s.9-.21,1.34-.39c.43-.17,.86-.39,1.26-.64,.4-.26,.78-.56,1.14-.9,.35-.35,.65-.73,.91-1.13,.26-.4,.47-.82,.65-1.25,.26-.65,.42-1.32,.49-2.01,.02-.23,.03-.46,.03-.69,0-.46-.04-.92-.13-1.37-.04-.23-.1-.45-.16-.67-.13-.44-.3-.88-.52-1.29-.16-.31-.35-.62-.56-.91s-.44-.57-.7-.83c-.89-.86-1.95-1.45-3.06-1.77-1.34-.39-2.76-.39-4.1,0-1.11,.32-2.17,.91-3.06,1.77h0c-.08,.08-.16,.17-.24,.26-.09,.09-.18,.19-.26,.28-.07,.09-.13,.18-.2,.27-.08,.1-.16,.21-.23,.31-.06,.09-.11,.18-.16,.27-.07,.11-.14,.22-.2,.34-.05,.09-.08,.18-.13,.27-.06,.12-.12,.24-.17,.36-.04,.1-.07,.21-.11,.32-.04,.11-.08,.22-.12,.34-.03,.11-.05,.22-.08,.33-.03,.11-.06,.23-.08,.34-.02,.1-.03,.21-.05,.31-.02,.12-.04,.24-.05,.37-.01,.11-.01,.22-.02,.33,0,.12-.02,.24-.02,.35,0,.11,.01,.22,.01,.33,0,.12,0,.24,.02,.36,.01,.11,.03,.21,.05,.32,.02,.12,.03,.24,.05,.36,.02,.1,.05,.2,.07,.3,.03,.12,.05,.25,.09,.37,.03,.11,.08,.22,.11,.33,.04,.11,.07,.22,.11,.33,.04,.11,.1,.22,.15,.33,.05,.1,.09,.21,.14,.31,.05,.1,.11,.19,.17,.28,.06,.11,.12,.22,.19,.33,.07,.1,.15,.2,.22,.31,.07,.09,.13,.19,.2,.27Z"/><path class="cls-1" d="M494.01,62.96c-.06,.06-.12,.13-.18,.2-.09,.1-.18,.19-.26,.29-.03,.04-.05,.08-.08,.11-.1,.13-.21,.27-.3,.4-.23,.34-.41,.7-.57,1.07,0,.01-.01,.03-.02,.04-.05,.11-.08,.23-.12,.34-.03,.08-.06,.16-.09,.25-.01,.05-.02,.1-.04,.15-.04,.15-.08,.3-.11,.45-.01,.05-.01,.11-.02,.16-.02,.15-.05,.3-.06,.45,0,.09,0,.17-.01,.26,0,.12-.02,.23-.02,.35s.01,.22,.02,.34c0,.09,0,.19,.01,.28,.01,.12,.03,.24,.05,.36,.01,.08,.02,.17,.04,.25,.03,.14,.06,.27,.1,.41,.02,.06,.03,.13,.05,.19,.02,.08,.06,.17,.09,.25,.04,.11,.07,.23,.12,.34,0,.01,.01,.03,.02,.04,.15,.37,.34,.73,.57,1.07,.04,.06,.09,.12,.14,.18,.08,.11,.16,.23,.25,.33,.02,.02,.04,.04,.05,.06,.12,.15,.25,.29,.39,.43,.15,.15,.31,.3,.47,.43,.49,.4,1.04,.73,1.63,.96s1.2,.38,1.84,.43c.21,.02,.43,.02,.64,.02h0c.43,.02,.85,0,1.27-.09,1.24-.23,2.4-.83,3.3-1.74,2.48-2.52,2.48-6.56,0-9.08-2.55-2.47-6.6-2.47-9.14,0Z"/><path class="cls-1" d="M472.61,62.6s.04,.1,.07,.14"/><path class="cls-1" d="M472.85,63.11s.02,.08,.03,.13"/><path class="cls-1" d="M472.98,64.36s.02-.09,.02-.14"/><path class="cls-1" d="M472.89,64.86s.03-.07,.04-.1"/><path class="cls-1" d="M472.66,65.42s.06-.08,.08-.13"/><path class="cls-1" d="M472.32,65.92s.09-.09,.13-.14"/><path class="cls-1" d="M470.36,66.91c.13-.02,.26-.04,.38-.07"/><path class="cls-1" d="M472.98,63.66s0,.09,0,.14"/><path class="cls-1" d="M493.57,63.44c.08-.1,.17-.19,.26-.29"/><path class="cls-1" d="M496.11,73.41c-.58-.23-1.13-.56-1.63-.96"/><path class="cls-1" d="M492.13,67.49c0-.12,.01-.23,.02-.35"/><path class="cls-1" d="M492.25,66.26c.03-.15,.07-.3,.11-.45"/><path class="cls-1" d="M493.19,63.96c.09-.14,.19-.27,.3-.4"/><path class="cls-1" d="M492.49,69.56c.04,.11,.07,.23,.12,.34"/><path class="cls-1" d="M492.6,65.08s.01-.03,.02-.04"/><path class="cls-1" d="M492.4,65.66c.02-.08,.06-.17,.09-.25"/><path class="cls-1" d="M493.57,71.53c-.09-.11-.17-.22-.25-.33"/><path class="cls-1" d="M492.22,68.46c.01,.08,.02,.17,.04,.25"/><path class="cls-1" d="M492.35,69.12c.02,.06,.03,.13,.05,.19"/><path class="cls-1" d="M492.15,67.82c0,.09,0,.19,.01,.28"/><path class="cls-1" d="M492.16,66.87c.01-.15,.04-.3,.06-.45"/><path class="cls-1" d="M392.2,63.23c-.55-.26-1.15-.42-1.75-.45"/><path class="cls-1" d="M392.55,63.53c.2,.22,.33,.5,.38,.79"/><path class="cls-1" d="M229.33,69.24c-.01-.12-.01-.24-.02-.36"/><path class="cls-1" d="M229.43,69.92c-.02-.12-.03-.24-.05-.36"/><path class="cls-1" d="M230.47,72.49c-.07-.11-.13-.22-.19-.33"/><path class="cls-1" d="M243.4,66.53c-.13-.44-.3-.88-.52-1.29"/><path class="cls-1" d="M242.89,65.24c-.16-.31-.35-.62-.56-.91"/><path class="cls-1" d="M231.17,63.76c-.09,.09-.18,.19-.26,.28"/><path class="cls-1" d="M230.11,71.88c-.05-.1-.1-.21-.14-.31"/><path class="cls-1" d="M230.89,73.07c-.07-.09-.13-.18-.2-.27"/><path class="cls-1" d="M243.56,67.2c.09,.45,.13,.91,.13,1.37"/><path class="cls-1" d="M229.82,71.25c-.04-.11-.08-.22-.11-.33"/><path class="cls-1" d="M229.59,70.59c-.04-.12-.06-.25-.09-.37"/><path class="cls-1" d="M230.71,64.31c-.08,.1-.16,.21-.23,.31"/><path class="cls-1" d="M229.32,68.2c0,.12-.02,.24-.02,.35"/><path class="cls-1" d="M229.52,66.84c-.03,.11-.06,.23-.08,.34"/><path class="cls-1" d="M229.39,67.5c-.02,.12-.04,.24-.05,.37"/><path class="cls-1" d="M230.32,64.89c-.07,.11-.14,.22-.2,.34"/><path class="cls-1" d="M229.99,65.5c-.06,.12-.12,.24-.17,.36"/><path class="cls-1" d="M229.71,66.18c-.04,.11-.08,.22-.12,.34"/><path class="cls-1" d="M359.92,133.34c.07,.07,.13,.16,.19,.23"/><path class="cls-1" d="M114.01,287.64c-2.13,0-3.8,.51-5,1.53-1.21,1.02-1.81,2.42-1.81,4.2,0,.95,.18,1.77,.55,2.48,.37,.71,.86,1.33,1.47,1.86,.61,.53,1.54,1.09,2.77,1.67,1.31,.62,2.18,1.08,2.61,1.36s.75,.58,.97,.89c.22,.31,.33,.66,.33,1.05,0,.71-.25,1.24-.75,1.6-.5,.36-1.22,.54-2.15,.54-.78,0-1.64-.12-2.58-.37-.94-.25-2.09-.67-3.45-1.28v3.96c1.65,.81,3.55,1.21,5.7,1.21,2.33,0,4.15-.52,5.46-1.57s1.96-2.48,1.96-4.29c0-1.31-.35-2.42-1.05-3.32s-1.99-1.8-3.87-2.7c-1.42-.68-2.32-1.15-2.7-1.41-.38-.26-.66-.53-.83-.81s-.26-.61-.26-.98c0-.61,.22-1.1,.65-1.47,.43-.38,1.05-.56,1.86-.56,.68,0,1.37,.09,2.07,.26,.7,.17,1.59,.48,2.66,.92l.69-1.67-1.74-2.53c-.18-.05-.37-.12-.55-.17-.95-.25-1.95-.37-2.99-.37Z"/><path class="cls-1" d="M119.98,289.06c-.84-.36-1.64-.64-2.43-.88l1.74,2.53,.68-1.65Z"/><path class="cls-1" d="M144.3,300.22c0,1.56-.31,2.7-.94,3.43-.63,.73-1.64,1.09-3.03,1.09s-2.47-.36-3.1-1.09c-.62-.72-.94-1.86-.94-3.41v-12.32h-4.25v12.96c0,2.3,.72,4.12,2.15,5.44,1.43,1.33,3.44,1.99,6.03,1.99,1.72,0,3.2-.3,4.46-.89s2.22-1.45,2.88-2.57c.67-1.12,1-2.42,1-3.91v-13.02h-4.25v12.29Z"/><path class="cls-1" d="M173.93,289.5c-1.27-1.05-3.13-1.58-5.57-1.58h-6.43v20.12h4.27v-7.16h1.83c2.5,0,4.42-.57,5.77-1.72,1.35-1.15,2.03-2.8,2.03-4.97s-.64-3.65-1.91-4.7Zm-3.38,7.12c-.65,.52-1.63,.78-2.95,.78h-1.4v-5.97h1.94c1.17,0,2.02,.24,2.57,.72,.55,.48,.82,1.22,.82,2.22s-.33,1.75-.98,2.26Z"/><path class="cls-1" d="M200.09,289.5c-1.27-1.05-3.13-1.58-5.57-1.58h-6.43v20.12h4.27v-7.16h1.83c2.5,0,4.42-.57,5.77-1.72,1.35-1.15,2.03-2.8,2.03-4.97s-.64-3.65-1.91-4.7Zm-3.38,7.12c-.65,.52-1.63,.78-2.95,.78h-1.4v-5.97h1.94c1.17,0,2.02,.24,2.57,.72,.55,.48,.82,1.22,.82,2.22s-.33,1.75-.98,2.26Z"/><path class="cls-1" d="M222.96,287.61c-3.09,0-5.47,.88-7.12,2.65-1.66,1.77-2.48,4.32-2.48,7.67s.83,5.92,2.48,7.71,4.02,2.68,7.1,2.68,5.45-.89,7.1-2.68,2.48-4.35,2.48-7.68-.82-5.9-2.46-7.68c-1.64-1.78-4-2.67-7.09-2.67Zm-.03,17.13c-1.7,0-2.97-.57-3.83-1.71s-1.28-2.83-1.28-5.08,.43-3.94,1.29-5.08,2.14-1.71,3.84-1.71c3.39,0,5.08,2.27,5.08,6.8s-1.7,6.79-5.11,6.79Z"/><path class="cls-1" d="M258.06,297.11c.65-.92,.98-1.97,.98-3.16,0-2.03-.66-3.54-1.97-4.53-1.31-1-3.33-1.49-6.07-1.49h-5.86v20.12h4.27v-7.72h2.27l4.8,7.72h4.73c-.92-1.32-2.89-4.24-5.92-8.77,1.19-.52,2.12-1.25,2.77-2.17Zm-4.29-.93c-.64,.45-1.64,.67-2.99,.67h-1.38v-5.44h1.29c1.38,0,2.39,.2,3.05,.61,.66,.4,.98,1.08,.98,2.04s-.32,1.67-.96,2.12Z"/><polygon class="cls-1" points="270.23 291.48 275.69 291.48 275.69 308.05 279.96 308.05 279.96 291.48 285.42 291.48 285.42 287.93 270.28 287.93 270.23 288.45 270.23 291.48"/><polygon class="cls-1" points="270.23 288.45 270.28 287.93 270.23 287.93 270.23 288.45"/><path class="cls-1" d="M317.02,300.89h1.83c2.5,0,4.42-.57,5.77-1.72,1.35-1.15,2.03-2.8,2.03-4.97s-.64-3.65-1.91-4.7c-1.27-1.05-3.13-1.58-5.57-1.58h-6.43v20.12h4.27v-7.16Zm0-9.47h1.94c1.17,0,2.02,.24,2.57,.72,.55,.48,.82,1.22,.82,2.22s-.33,1.75-.98,2.26-1.63,.78-2.95,.78h-1.4v-5.97Z"/><path class="cls-1" d="M343.17,300.33h2.27l4.8,7.72h4.73c-.92-1.32-2.89-4.24-5.92-8.77,1.19-.52,2.12-1.25,2.77-2.17,.65-.92,.98-1.97,.98-3.16,0-2.03-.66-3.54-1.97-4.53-1.31-1-3.33-1.49-6.07-1.49h-5.86v20.12h4.27v-7.72Zm0-8.9h1.29c1.38,0,2.39,.2,3.05,.61,.66,.4,.98,1.08,.98,2.04s-.32,1.67-.96,2.12c-.64,.45-1.64,.67-2.99,.67h-1.38v-5.44Z"/><path class="cls-1" d="M374.65,304.75c-1.7,0-2.97-.57-3.83-1.71s-1.28-2.83-1.28-5.08,.43-3.94,1.29-5.08,2.14-1.71,3.84-1.71c3.39,0,5.08,2.27,5.08,6.8,0,1.97-.34,3.48-.99,4.59l5.43-3.75c.01-.28,.03-.56,.03-.85,0-3.34-.82-5.9-2.46-7.68-1.64-1.78-4-2.67-7.09-2.67s-5.47,.88-7.12,2.65c-1.66,1.77-2.48,4.32-2.48,7.67s.83,5.92,2.48,7.71c.95,1.03,2.15,1.75,3.57,2.19l4.61-3.18c-.34,.06-.7,.1-1.08,.1Z"/><path class="cls-1" d="M381.75,305.64c1.51-1.63,2.32-3.92,2.45-6.83l-5.43,3.75c-.67,1.16-1.67,1.87-3.04,2.1l-4.61,3.18c1.05,.32,2.22,.49,3.53,.49,3.08,0,5.45-.89,7.1-2.68Z"/><polygon class="cls-1" points="398.63 287.93 394.32 287.93 395.4 291.09 398.87 288.69 398.63 287.93"/><path class="cls-1" d="M405.8,308.05l6.84-20.12h-4.31l-3.81,11.97c-.59,2.11-.93,3.59-1.03,4.43-.06-.37-.2-1.02-.42-1.96s-.44-1.76-.65-2.47l-3.54-11.21-3.48,2.4,5.75,16.96h4.65Z"/><rect class="cls-1" x="423.63" y="287.93" width="4.27" height="20.12"/><path class="cls-1" d="M455.28,305.41c1.89-1.76,2.83-4.3,2.83-7.61,0-3.11-.91-5.53-2.72-7.27s-4.37-2.6-7.65-2.6h-6.32v20.12h5.7c3.56,0,6.28-.88,8.17-2.64Zm-9.6-13.98h2.27c3.82,0,5.73,2.16,5.73,6.48s-2.06,6.62-6.17,6.62h-1.83v-13.1Z"/><polygon class="cls-1" points="482.32 304.53 475 304.53 475 299.34 481.81 299.34 481.81 295.84 475 295.84 475 291.42 482.32 291.42 482.32 287.93 470.74 287.93 470.74 308.05 482.32 308.05 482.32 304.53"/><path class="cls-1" d="M499.24,300.33h2.27l4.8,7.72h4.73c-.92-1.32-2.89-4.24-5.92-8.77,1.19-.52,2.12-1.25,2.77-2.17,.65-.92,.98-1.97,.98-3.16,0-2.03-.66-3.54-1.97-4.53-1.31-1-3.33-1.49-6.07-1.49h-5.86v20.12h4.27v-7.72Zm0-8.9h1.29c1.38,0,2.39,.2,3.05,.61,.66,.4,.98,1.08,.98,2.04s-.32,1.67-.96,2.12c-.64,.45-1.64,.67-2.99,.67h-1.38v-5.44Z"/></g></svg>