<?xml version="1.0" encoding="utf-8"?>
<!-- Generator: Adobe Illustrator 23.1.1, SVG Export Plug-In . SVG Version: 6.00 Build 0)  -->
<svg version="1.1" id="Layer_1" xmlns="http://www.w3.org/2000/svg" xmlns:xlink="http://www.w3.org/1999/xlink" x="0px" y="0px"
	 viewBox="0 0 360 130" style="enable-background:new 0 0 360 130;" xml:space="preserve">
<style type="text/css">
	.st0{opacity:0.6;}
	.st1{fill:#FFFFFF;}
	.st2{fill:#231F20;}
</style>
<g class="st0">
	<polyline class="st1" points="100.5,74.7 77.4,38.3 34.2,38.3 11.1,76.2 	"/>
</g>
<path class="st1" d="M121.1,91.9l20.2-23.6h-19.6v-7.1h30v6.2l-20.2,23.6h20.2V98h-30.6V91.9z"/>
<path class="st1" d="M158.6,79.7v-0.1c0-10.5,8.3-19,19.6-19c11.4,0,19.5,8.5,19.5,18.9v0.1c0,10.5-8.3,19-19.6,19
	C166.7,98.6,158.6,90.2,158.6,79.7z M189.2,79.7v-0.1c0-6.3-4.6-11.6-11.1-11.6c-6.5,0-11,5.2-11,11.5v0.1c0,6.3,4.6,11.6,11.1,11.6
	C184.7,91.2,189.2,86,189.2,79.7z"/>
<path class="st1" d="M207.5,61.2h16.8c4.7,0,8.3,1.3,10.7,3.7c2.1,2.3,3.3,5.3,3.2,8.4v0.1c0.2,5.1-3,9.8-7.9,11.4l9,13.1h-9.5
	L222,86.2h-6.4V98h-8.1V61.2z M223.8,79.1c3.9,0,6.2-2.1,6.2-5.2v-0.1c0-3.5-2.4-5.3-6.4-5.3h-8v10.6L223.8,79.1z"/>
<path class="st1" d="M246.5,79.7v-0.1c0-10.5,8.3-19,19.6-19c11.4,0,19.5,8.5,19.5,18.9v0.1c0,10.5-8.3,19-19.6,19
	C254.6,98.6,246.5,90.2,246.5,79.7z M277.1,79.7v-0.1c0-6.3-4.6-11.6-11.1-11.6s-11,5.2-11,11.5v0.1c0,6.3,4.6,11.6,11.1,11.6
	S277.1,86,277.1,79.7L277.1,79.7z"/>
<path class="st1" d="M290.5,61.2h8.7l7.6,24.9l8.3-25h6.9l8.3,25l7.6-24.9h8.5l-12.6,37.1h-7l-8.3-24.1l-8.3,24.1h-7L290.5,61.2z"/>
<path class="st1" d="M285.6,36h2.7c0.9-0.1,1.7,0.2,2.4,0.7c0.6,0.5,0.9,1.2,0.8,1.9c0,0.7-0.3,1.5-0.8,2c-0.7,0.5-1.6,0.8-2.5,0.7
	h-1.9V46h-0.8L285.6,36z M286.4,36.7v4h1.9c0.7,0,1.3-0.1,1.9-0.5c0.8-0.8,0.9-2,0.1-2.9c0,0-0.1-0.1-0.1-0.1
	c-0.5-0.4-1.2-0.6-1.8-0.5H286.4z"/>
<path class="st1" d="M294.2,36h2.6c0.9-0.1,1.7,0.2,2.5,0.7c0.6,0.5,0.9,1.2,0.8,1.9c0,1.2-0.8,2.2-1.9,2.4c0.6,0.4,1,0.9,1.3,1.5
	l2.3,3.4h-0.9l-1.7-2.7c-0.4-0.6-0.8-1.2-1.4-1.7c-0.4-0.3-0.9-0.4-1.4-0.3H295V46h-0.8L294.2,36z M295,36.7v3.9h1.7
	c0.7,0,1.4-0.1,1.9-0.5c0.8-0.7,0.9-1.9,0.2-2.6c-0.1-0.1-0.2-0.2-0.2-0.2c-0.6-0.4-1.3-0.6-1.9-0.5L295,36.7z"/>
<path class="st1" d="M308.4,35.9c1.4,0,2.8,0.5,3.8,1.5c2,1.9,2.1,5.1,0.1,7.1c0,0-0.1,0.1-0.1,0.1c-2.1,2-5.4,2-7.5,0
	c-2-1.9-2-5.2-0.1-7.2c0,0,0.1-0.1,0.1-0.1C305.7,36.4,307,35.9,308.4,35.9 M308.5,45.4c1.2,0,2.3-0.4,3.1-1.3
	c1.7-1.7,1.7-4.5,0-6.3c-0.8-0.8-2-1.3-3.1-1.3c-1.2,0-2.3,0.4-3.2,1.3c-1.7,1.7-1.7,4.5,0,6.3c0,0,0,0,0,0
	C306.1,45,307.3,45.4,308.5,45.4"/>
<path class="st1" d="M317.6,36v10c0.1,0.8-0.1,1.6-0.6,2.3c-0.4,0.4-0.9,0.6-1.5,0.6c-0.2,0-0.3,0-0.5,0l-0.1-0.7
	c0.1,0,0.3,0.1,0.5,0.1c0.9,0,1.4-0.7,1.4-2V36H317.6z"/>
<polygon class="st1" points="326.5,36 326.5,36.7 321.8,36.7 321.8,40.7 326.3,40.7 326.3,41.3 321.8,41.3 321.8,45.4 326.6,45.4 
	326.6,46 321,46 321,36 "/>
<path class="st1" d="M337.6,36.7v0.8c-1.1-0.6-2.3-0.9-3.6-1c-1.2,0-2.3,0.4-3.1,1.3c-0.8,0.8-1.3,2-1.3,3.2c0,1.2,0.4,2.3,1.3,3.2
	c0.9,0.8,2,1.3,3.2,1.2c1.2,0,2.5-0.4,3.5-1v0.8c-1.1,0.6-2.3,0.9-3.5,0.9c-1.4,0-2.8-0.5-3.8-1.5c-2-2-2-5.2,0-7.2c0,0,0,0,0.1-0.1
	c1-1,2.3-1.5,3.7-1.5C335.4,35.9,336.6,36.2,337.6,36.7"/>
<polygon class="st1" points="347.6,36 347.6,36.7 343.8,36.7 343.8,46 343.1,46 343.1,36.7 339.3,36.7 339.3,36 "/>
<polygon class="st1" points="181.9,46.7 178.5,46.7 178.5,40.3 175.5,44 175.3,44 172.3,40.3 172.3,46.7 169,46.7 169,35.6 
	172,35.6 175.4,39.8 178.9,35.6 181.9,35.6 "/>
<path class="st1" d="M196.8,46.7h-3.4l-0.9-2.2h-4.8l-0.9,2.2h-3.4l4.9-11.1h3.7L196.8,46.7z M191.7,42.5l-1.6-4l-1.6,4H191.7z"/>
<rect x="198.3" y="35.6" class="st1" width="3.3" height="11.1"/>
<polygon class="st1" points="216.4,46.7 213.5,46.7 207.7,40.5 207.7,46.7 204.4,46.7 204.4,35.6 207.4,35.6 213.1,41.8 213.1,35.6 
	216.4,35.6 "/>
<polygon class="st1" points="227.1,42.2 222.5,42.2 222.5,46.7 219.2,46.7 219.2,35.6 227.1,35.6 227.1,37.9 222.5,37.9 222.5,40 
	227.1,40 "/>
<path class="st1" d="M240.1,46.7h-3.6l-0.9-2c-0.2-0.6-0.5-1.1-0.9-1.6c-0.2-0.3-0.4-0.5-0.7-0.6c-0.3-0.1-0.6-0.2-0.9-0.1h-0.4v4.3
	h-3.3V35.6h5.7c0.8,0,1.6,0.2,2.2,0.6c0.5,0.3,1,0.8,1.3,1.4c0.2,0.5,0.4,1,0.4,1.5c0,0.5-0.1,1-0.3,1.4c-0.2,0.3-0.4,0.6-0.7,0.8
	c-0.3,0.2-0.5,0.4-0.8,0.5c0.3,0.2,0.6,0.4,0.9,0.7c0.4,0.5,0.7,1.1,0.9,1.7L240.1,46.7z M235.5,39.1c0-0.4-0.1-0.8-0.5-1.1
	c-0.5-0.2-1.1-0.3-1.6-0.3h-0.7v2.7h0.7c0.6,0,1.1,0,1.7-0.3C235.4,39.9,235.6,39.5,235.5,39.1"/>
<path class="st1" d="M253.7,46.7h-3.4l-0.9-2.2h-4.8l-0.9,2.2h-3.4l4.9-11.1h3.7L253.7,46.7z M248.6,42.5l-1.6-4l-1.6,4H248.6z"/>
<polygon class="st1" points="268.1,46.7 264.7,46.7 264.7,40.3 261.7,44 261.5,44 258.4,40.3 258.4,46.7 255.2,46.7 255.2,35.6 
	258.2,35.6 261.6,39.8 265,35.6 268.1,35.6 "/>
<polygon class="st1" points="279.2,46.7 270.8,46.7 270.8,35.6 279,35.6 279,37.9 274.2,37.9 274.2,39.9 278.8,39.9 278.8,42.1 
	274.2,42.1 274.2,44.5 279.2,44.5 "/>
<path class="st1" d="M127.6,36c1.6,0,3.1,0.6,4.2,1.7c2.2,2.2,2.3,5.7,0.1,8c0,0-0.1,0.1-0.1,0.1c-2.3,2.2-6,2.2-8.4,0
	c-2.2-2.2-2.3-5.8-0.1-8c0,0,0.1-0.1,0.1-0.1C124.6,36.6,126.1,36,127.6,36 M127.7,46.6c1.3,0,2.6-0.5,3.5-1.4c1.9-1.9,1.9-5.1,0-7
	c-0.9-0.9-2.2-1.5-3.5-1.4c-1.3,0-2.6,0.5-3.5,1.4c-1.9,1.9-1.9,5.1,0,7c0,0,0,0,0,0C125.1,46.2,126.3,46.7,127.7,46.6"/>
<path class="st1" d="M135.6,36.2h3.1c1-0.1,1.9,0.2,2.7,0.8c0.6,0.5,1,1.3,0.9,2.2c0,0.8-0.3,1.6-0.9,2.2c-0.8,0.6-1.8,0.9-2.8,0.8
	h-2.1v5.2h-0.9V36.2z M136.5,36.9v4.5h2.1c0.8,0.1,1.5-0.2,2.1-0.6c0.9-0.8,1-2.3,0.1-3.2c0,0-0.1-0.1-0.1-0.1
	c-0.6-0.4-1.3-0.7-2-0.6L136.5,36.9z"/>
<polygon class="st1" points="150.1,36.2 150.1,36.9 144.9,36.9 144.9,41.3 149.9,41.3 149.9,42.1 144.9,42.1 144.9,46.6 150.2,46.6 
	150.2,47.3 144,47.3 144,36.2 "/>
<polygon class="st1" points="162,36.2 162,47.3 161.3,47.3 152.8,37.6 152.8,47.3 152,47.3 152,36.2 152.7,36.2 161.2,45.9 
	161.2,36.2 "/>
<path class="st1" d="M9.4,95.3c0.1-6,0.3-12.1,1-18.1c0.1-2.2,1.9-3.9,4.1-3.9c6.6-0.2,13.2,0,19.8,0.7c9.5,1,19,1.3,28.6,1.1
	c5.2-0.2,10.4-0.9,15.5-1.4c6.3-0.6,12.6-0.7,19-0.3c3,0.2,4,1.2,4.4,4.1c0.7,4.8,1.1,9.7,1.5,14.5c0.2,2.7,0.2,5.4,0.3,8.1
	c0.1,1.8-0.9,3.4-2.5,4c-2.5,1.1-5.1,2-7.8,2.7c-5.5,1.7-11.3,2.5-17.1,2.4c-4.7-0.1-9.1-1.9-12.6-5.1c-0.8-0.7-1.6-1.4-2.4-2
	c-2.4-1.7-4.4-1.6-6.8,0c-2,1.4-3.8,3.2-5.9,4.4c-3,1.7-6.3,2.7-9.7,2.8c-3.9,0.2-7.8-0.2-11.6-1.2c-4.8-1.1-9.6-2.4-14.3-3.9
	c-2.7-1-3.4-1.9-3.4-4.7C9.3,98.3,9.4,96.8,9.4,95.3 M38.4,95.2c2.6,0.1,5.2-0.5,7.5-1.8c1.4-0.8,1.4-1.1,0.3-2.2
	c-5.4-5.7-12.4-6-19-2.5c-1.1,0.6-1.2,1-0.3,1.9C29.9,93.7,34.1,95.3,38.4,95.2 M79.3,86.5c-4.6-0.2-8,2.2-11.1,5.2
	c-0.5,0.5-0.4,0.9,0.1,1.2c0.5,0.3,1,0.6,1.5,0.8c5.9,2.4,12.9,2.1,17.8-3c0.7-0.8,0.8-1.2-0.1-1.8C85.1,87.2,82.2,86.4,79.3,86.5"
	/>
<path class="st1" d="M53.5,9.1h5.8c-0.1,0.1-0.3,0.1-0.1,0.2c0.1,0.1,0.2,0.2,0.3,0.2c2.7,0.9,5.1,2.4,6.4,4.9
	c2.8,5.6,1.6,11.7-3.8,15.1c-0.7,0.4-1.3,0.9-1.8,1.4c-1.3,1.4-1.5,3.6-0.5,5.2c0.9,1.7,2.9,2.4,4.8,1.8c0.7-0.2,1.4-0.5,2-0.8
	c2.4-1.1,5.1-1.4,7.7-0.9c3.8,0.8,6.8,3.5,8,7.2c0.1,0.2-0.2,0.9,0.5,0.6v5.5c0,0,0-0.1-0.1-0.1c0,0-0.1-0.1-0.1-0.1
	c-0.4,0.3-0.4,0.8-0.5,1.2c-2.5,6.6-9.8,9.8-16.9,5.6c-3.5-2.1-4.7-5.7-4.8-9.6c-0.1-2.1-1.5-3.9-3.5-4.5c-1.9-0.4-3.8,0.6-4.7,2.3
	c-0.5,1-0.8,2.2-0.7,3.4c-0.1,2-0.7,3.9-1.9,5.6c-1.8,2.8-4.6,3.9-7.6,4.7c-0.3,0.1-0.8-0.1-0.8,0.5h-1.2c0,0,0.1,0,0.1-0.1
	c0,0,0.1-0.1,0.1-0.1c-0.3-0.4-0.7-0.6-1.1-0.6c-4.9-0.6-8.7-4.4-9.4-9.2c0-0.3,0.1-0.7-0.5-0.6v-2.6c0,0.1,0.1,0.1,0.1,0.2
	c0,0,0.1,0,0.1-0.1c0.2-0.5,0.3-1,0.5-1.6c1.6-5.8,7.5-9.2,13.3-7.6c0.1,0,0.2,0,0.2,0.1c1.2,0.4,2.4,0.9,3.6,1.4
	c2,1,4.4,0.2,5.5-1.7c1.2-2,0.9-4-1.1-5.6c-0.5-0.4-1-0.7-1.5-1.1c-3.8-2.7-5.5-6.4-4.8-11C46,14.2,49,10.8,53,9.6
	C53.2,9.5,53.7,9.7,53.5,9.1z"/>
<circle class="st1" cx="40.4" cy="47.3" r="11.6"/>
<circle class="st1" cx="71.6" cy="47.4" r="11.6"/>
<circle class="st1" cx="56.4" cy="19.7" r="11.6"/>
</svg>
