<?xml version="1.0" encoding="utf-8"?>
<!-- Generator: Adobe Illustrator 23.1.1, SVG Export Plug-In . SVG Version: 6.00 Build 0)  -->
<svg version="1.1" id="Layer_1" xmlns="http://www.w3.org/2000/svg" xmlns:xlink="http://www.w3.org/1999/xlink" x="0px" y="0px"
	 viewBox="0 0 600 600" style="enable-background:new 0 0 600 600;" xml:space="preserve">
<style type="text/css">
	.st0{fill:#488EFF;}
	.st1{fill:#3274F9;}
	.st2{fill:#2A7DE1;}
	.st3{opacity:0.4;clip-path:url(#XMLID_281_);fill:#231F20;}
	.st4{fill:#FFFFFF;}
	.st5{fill:#002A3A;}
	.st6{fill:#0033A1;}
	.st7{fill:#A9D8FF;}
	.st8{opacity:0.1;}
	.st9{opacity:0.4;clip-path:url(#XMLID_282_);fill:#231F20;}
	.st10{opacity:0.4;clip-path:url(#XMLID_283_);fill:#231F20;}
	.st11{opacity:0.4;clip-path:url(#XMLID_284_);fill:#231F20;}
	.st12{opacity:0.4;fill:#231F20;}
	.st13{opacity:0.4;clip-path:url(#SVGID_2_);fill:#231F20;}
	.st14{opacity:0.4;clip-path:url(#SVGID_4_);fill:#231F20;}
	.st15{opacity:0.4;clip-path:url(#SVGID_6_);fill:#231F20;}
	.st16{fill:none;stroke:#FFFFFF;stroke-width:3.6;stroke-linecap:round;stroke-miterlimit:10;}
	.st17{fill:none;}
	.st18{opacity:0.85;fill:#231F20;}
	.st19{opacity:0.15;fill:#231F20;}
	.st20{fill:#231F20;}
	.st21{opacity:0.15;fill:#FFFFFF;}
	.st22{opacity:0.85;fill:#FFFFFF;}
</style>
<rect x="217.9" y="567.3" class="st4" width="382.1" height="32.7"/>
<g>
	<path id="XMLID_440_" class="st2" d="M440.7,149.7l-125-72.1c-9.5-5.5-21.1-5.5-30.6,0l-125,72.1c-9.5,5.5-15.3,15.6-15.3,26.5
		v144.3c0,10.9,5.8,21,15.3,26.5l125,72.1c9.5,5.5,21.1,5.5,30.6,0l125-72.1c9.5-5.5,15.3-15.6,15.3-26.5V176.1
		C455.9,165.2,450.1,155.1,440.7,149.7z"/>
	<path class="st7" d="M516.7,104.3L366.8,17.8C346.6,6.2,323.7,0,300.4,0c-23.3,0-46.2,6.2-66.4,17.8L84.1,104.3
		C43.2,128,17.8,172,17.8,219.3v173.1c0,47.3,25.4,91.3,66.4,115c0,0,262.5,98.2,282.7,86.5l149.9-86.5
		c40.9-23.6,66.4-67.7,66.4-115v-15.6V219.3C583.1,172,557.6,128,516.7,104.3z"/>
	<path class="st2" d="M543.2,599H57.6c-22,0-39.8-17.8-39.8-39.8V378h565.3v181.2C583.1,581.2,565.2,599,543.2,599z"/>
	<g>
		<path id="XMLID_439_" class="st2" d="M440.7,196.3l-125-72.1c-9.5-5.5-21.1-5.5-30.6,0l-125,72.1c-9.5,5.5-15.3,15.6-15.3,26.5
			v144.3c0,10.9,5.8,21,15.3,26.5l125,72.1c9.5,5.5,21.1,5.5,30.6,0l125-72.1c9.5-5.5,15.3-15.6,15.3-26.5V222.8
			C455.9,211.9,450.1,201.8,440.7,196.3z"/>
		<g id="XMLID_437_">
			<defs>
				<path id="XMLID_438_" d="M440.7,196.3l-125-72.1c-9.5-5.5-21.1-5.5-30.6,0l-125,72.1c-9.5,5.5-15.3,15.6-15.3,26.5v144.3
					c0,10.9,5.8,21,15.3,26.5l125,72.1c9.5,5.5,21.1,5.5,30.6,0l125-72.1c9.5-5.5,15.3-15.6,15.3-26.5V222.8
					C455.9,211.9,450.1,201.8,440.7,196.3z"/>
			</defs>
			<clipPath id="XMLID_281_">
				<use xlink:href="#XMLID_438_"  style="overflow:visible;"/>
			</clipPath>
		</g>
	</g>
	<g>
		<defs>
			<path id="SVGID_3_" d="M543.2,599H57.6c-22,0-39.8-17.8-39.8-39.8V181.7h565.3v377.5C583.1,581.2,565.2,599,543.2,599z"/>
		</defs>
		<clipPath id="SVGID_2_">
			<use xlink:href="#SVGID_3_"  style="overflow:visible;"/>
		</clipPath>
		<polyline id="XMLID_435_" class="st13" points="560.1,594.6 560.1,595 560.3,594.9 560.3,595.2 560.5,595.1 560.5,595.5 
			560.8,595.3 560.8,595.7 561,595.6 561,595.9 561.2,595.8 561.2,596.2 561.5,596 561.5,596.4 561.7,596.3 561.7,596.6 
			561.9,596.5 561.9,596.9 562.2,596.7 562.2,597.1 562.4,597 562.4,597.3 562.6,597.2 562.6,597.6 562.9,597.4 562.9,597.8 
			563.1,597.7 563.1,598 563.3,597.9 563.3,598.3 563.6,598.1 563.6,598.5 563.8,598.4 563.8,598.7 564,598.6 564,599 564.3,598.8 
			564.3,599.2 564.5,599.1 564.5,599.4 564.7,599.3 564.7,599.7 565,599.5 565,599.9 565.2,599.8 565.2,600.1 565.4,600 
			565.4,600.4 565.7,600.2 565.7,600.6 565.9,600.5 565.9,600.8 566.1,600.7 566.1,601.1 566.4,600.9 566.4,601.3 566.6,601.2 
			566.6,601.5 566.8,601.4 566.8,601.8 567.1,601.6 567.1,602 567.3,601.9 567.3,602.2 567.5,602.1 567.5,602.5 567.8,602.3 
			567.8,602.7 568,602.6 568,602.9 568.2,602.8 568.2,603.2 568.5,603 568.5,603.4 568.7,603.3 568.7,603.6 568.9,603.5 
			568.9,603.9 569.2,603.7 569.2,604.1 569.4,604 569.4,604.3 569.6,604.2 569.6,604.6 569.9,604.4 569.9,604.8 570.1,604.7 
			570.1,605 570.3,604.9 570.3,605.3 570.6,605.1 570.6,605.5 570.8,605.4 570.8,605.7 571,605.6 571,606 571.3,605.8 571.3,606.2 
			571.5,606.1 571.5,606.4 571.7,606.3 571.7,606.7 572,606.5 572,606.9 572.2,606.8 572.2,607.1 572.4,607 572.4,607.4 
			572.7,607.2 572.7,607.6 572.9,607.5 572.9,607.8 573.1,607.7 573.1,608.1 573.4,607.9 573.4,608.3 573.6,608.2 573.6,608.5 
			573.8,608.4 573.8,608.8 574.1,608.6 574.1,609 574.3,608.9 574.3,609.2 574.5,609.1 574.5,609.5 574.8,609.3 574.8,609.7 
			575,609.6 575,609.9 575.2,609.8 575.2,610.2 575.5,610 575.5,610.4 575.7,610.3 575.7,610.6 575.9,610.5 575.9,610.9 
			576.2,610.7 576.2,611.1 576.4,611 576.4,611.3 576.6,611.2 576.6,611.6 576.9,611.4 576.9,611.8 577.1,611.7 577.1,612 
			577.3,611.9 577.3,612.3 577.6,612.1 577.6,612.5 577.8,612.4 577.8,612.7 578,612.6 578,613 578.3,612.8 578.3,613.2 
			578.5,613.1 578.5,613.4 578.7,613.3 578.7,613.7 579,613.5 579,613.9 579.2,613.8 579.2,614.1 579.4,614 579.4,614.4 
			579.7,614.2 579.7,614.6 579.9,614.5 579.9,614.8 580.1,614.7 580.1,615.1 580.4,614.9 580.4,615.3 580.6,615.2 580.6,615.5 
			580.8,615.4 580.8,615.8 581.1,615.6 581.1,616 581.3,615.9 581.3,616.2 581.5,616.1 581.5,616.5 581.8,616.3 581.8,616.7 
			582,616.6 582,616.9 582.2,616.8 582.2,617.2 582.5,617 582.5,617.4 582.7,617.3 582.7,617.6 582.9,617.5 582.9,617.9 
			583.2,617.7 583.2,618.1 583.4,618 583.4,618.3 583.6,618.2 583.6,618.6 583.9,618.4 583.9,618.8 584.1,618.7 584.1,619 
			584.3,618.9 584.3,619.3 584.6,619.1 584.6,619.5 584.8,619.4 584.8,619.7 585,619.6 585,620 585.3,619.8 585.3,620.2 
			585.5,620.1 585.5,620.4 585.7,620.3 585.7,620.7 586,620.5 586,620.9 586.2,620.8 586.2,621.1 586.4,621 586.4,621.4 
			586.7,621.2 586.7,621.6 586.9,621.5 586.9,621.8 587.1,621.7 587.1,622.1 587.4,621.9 587.4,622.3 587.6,622.2 587.6,622.5 
			587.8,622.4 587.8,622.8 588.1,622.6 588.1,623 588.3,622.9 588.3,623.2 588.5,623.1 588.5,623.5 588.8,623.3 588.8,623.7 
			589,623.6 589,623.9 589.3,623.8 589.3,624.2 589.5,624 589.5,624.4 589.7,624.3 589.7,624.6 645.6,592.4 645.6,463.6 
			645.4,463.5 645.4,463.4 645.2,463.2 645.2,463.1 644.9,463 644.9,462.9 644.7,462.8 644.7,462.7 644.5,462.5 644.5,462.4 
			644.2,462.3 644.2,462.2 644,462.1 644,462 643.8,461.8 643.8,461.7 643.5,461.6 643.5,461.5 643.3,461.4 643.3,461.3 
			643.1,461.1 643.1,461 642.8,460.9 642.8,460.8 642.6,460.7 642.6,460.6 642.4,460.4 642.4,460.3 642.1,460.2 642.1,460.1 
			641.9,460 641.9,459.9 641.7,459.7 641.7,459.6 641.4,459.5 641.4,459.4 641.2,459.3 641.2,459.2 641,459 641,458.9 640.7,458.8 
			640.7,458.7 640.5,458.6 640.5,458.5 640.3,458.3 640.3,458.2 640,458.1 640,458 639.8,457.9 639.8,457.8 639.6,457.6 
			639.6,457.5 639.3,457.4 639.3,457.3 639.1,457.2 639.1,457.1 638.9,456.9 638.9,456.8 638.6,456.7 638.6,456.6 638.4,456.5 
			638.4,456.4 638.2,456.2 638.2,456.1 637.9,456 637.9,455.9 637.7,455.8 637.7,455.7 637.5,455.5 637.5,455.4 637.2,455.3 
			637.2,455.2 637,455.1 637,455 636.8,454.8 636.8,454.7 636.5,454.6 636.5,454.5 636.3,454.4 636.3,454.3 636.1,454.1 636.1,454 
			635.8,453.9 635.8,453.8 635.6,453.7 635.6,453.6 635.4,453.4 635.4,453.3 635.1,453.2 635.1,453.1 634.9,453 634.9,452.9 
			634.7,452.7 634.7,452.6 634.4,452.5 634.4,452.4 634.2,452.3 634.2,452.2 634,452 634,451.9 633.7,451.8 633.7,451.7 
			633.5,451.6 633.5,451.5 633.3,451.3 633.3,451.2 633,451.1 633,451 632.8,450.9 632.8,450.8 632.6,450.6 632.6,450.5 
			632.3,450.4 632.3,450.3 632.1,450.2 632.1,450.1 631.9,449.9 631.9,449.8 631.6,449.7 631.6,449.6 631.4,449.5 631.4,449.4 
			631.2,449.2 631.2,449.1 630.9,449 630.9,448.9 630.7,448.8 630.7,448.7 630.5,448.5 630.5,448.4 630.2,448.3 630.2,448.2 
			630,448.1 630,448 629.8,447.8 629.8,447.7 629.5,447.6 629.5,447.5 629.3,447.4 629.3,447.3 629.1,447.1 629.1,447 628.8,446.9 
			628.8,446.8 628.6,446.7 628.6,446.6 628.4,446.4 628.4,446.3 628.1,446.2 628.1,446.1 627.9,446 627.9,445.9 627.7,445.7 
			627.7,445.6 627.4,445.5 627.4,445.4 627.2,445.3 627.2,445.2 627,445 627,444.9 626.7,444.8 626.7,444.7 626.5,444.6 
			626.5,444.5 626.3,444.3 626.3,444.2 626,444.1 626,444 625.8,443.9 625.8,443.8 625.6,443.6 625.6,443.5 625.3,443.4 
			625.3,443.3 625.1,443.2 625.1,443.1 624.9,442.9 624.9,442.8 624.6,442.7 624.6,442.6 624.4,442.5 624.4,442.4 624.2,442.2 
			624.2,442.1 623.9,442 623.9,441.9 623.7,441.8 623.7,441.7 623.5,441.5 623.5,441.4 623.2,441.3 623.2,441.2 623,441.1 623,441 
			622.8,440.8 622.8,440.7 622.5,440.6 622.5,440.5 622.3,440.4 622.3,440.3 622.1,440.1 622.1,440 621.8,439.9 621.8,439.8 
			621.6,439.7 621.6,439.6 621.4,439.4 621.4,439.3 621.1,439.2 621.1,439.1 620.9,439 620.9,438.9 620.7,438.7 620.7,438.6 
			620.4,438.5 620.4,438.4 620.2,438.3 620.2,438.2 620,438 620,437.9 619.7,437.8 619.7,437.7 619.5,437.6 619.5,437.5 
			619.3,437.3 619.3,437.2 619,437.1 619,437 618.8,436.9 618.8,436.8 618.6,436.6 618.6,436.5 618.3,436.4 618.3,436.3 
			618.1,436.2 618.1,436.1 617.9,435.9 617.9,435.8 617.6,435.7 617.6,435.6 617.4,435.5 617.4,435.4 617.2,435.2 617.2,435.1 
			616.9,435 616.9,434.9 616.7,434.8 616.7,434.7 616.5,434.5 616.5,434.4 616.2,434.3 616.2,434.2 616,434.1 616,434 615.8,433.8 
			615.8,433.7 615.5,433.6 615.5,433.5 615.3,433.4 615.3,433.3 615.1,433.1 615.1,433 614.8,432.9 614.8,432.8 614.6,432.6 
			614.6,432.6 614.4,432.4 614.4,432.3 614.1,432.2 614.1,432.1 613.9,431.9 613.9,431.9 613.7,431.7 613.7,431.6 613.4,431.5 
			613.4,431.4 613.2,431.2 613.2,431.1 613,431 613,430.9 612.7,430.8 612.7,430.7 612.5,430.5 612.5,430.4 612.3,430.3 
			612.3,430.2 612,430.1 612,430 611.8,429.8 611.8,429.7 611.6,429.6 611.6,429.5 611.3,429.4 611.3,429.3 611.1,429.1 611.1,429 
			610.9,428.9 610.9,428.8 610.6,428.7 610.6,428.6 610.4,428.4 610.4,428.3 610.1,428.2 610.1,428.1 609.9,428 609.9,427.9 
			609.7,427.7 609.7,427.6 609.4,427.5 609.4,427.4 609.2,427.3 609.2,427.2 609,427 609,426.9 608.7,426.8 608.7,426.7 
			608.5,426.6 608.5,426.5 608.3,426.3 608.3,426.2 608,426.1 608,426 607.8,425.9 607.8,425.8 607.6,425.6 607.6,425.5 
			607.3,425.4 607.3,425.3 607.1,425.2 607.1,425.1 606.9,424.9 606.9,424.8 606.6,424.7 606.6,424.6 606.4,424.5 606.4,424.4 
			606.2,424.2 606.2,424.1 605.9,424 605.9,423.9 605.7,423.8 605.7,423.7 605.5,423.5 605.5,423.4 605.2,423.3 605.2,423.2 
			605,423.1 605,423 604.8,422.8 604.8,422.7 604.5,422.6 604.5,422.5 604.3,422.4 604.3,422.3 604.1,422.1 604.1,422 603.8,421.9 
			603.8,421.8 603.6,421.7 603.6,421.6 603.4,421.4 603.4,421.3 603.1,421.2 603.1,421.1 602.9,421 602.9,420.9 602.7,420.7 
			602.7,420.6 602.4,420.5 602.4,420.4 602.2,420.3 602.2,420.2 602,420 602,419.9 601.7,419.8 601.7,419.7 601.5,419.6 
			601.5,419.5 601.3,419.3 601.3,419.2 601,419.1 601,419 600.8,418.9 600.8,418.8 600.6,418.6 600.6,418.5 600.3,418.4 
			600.3,418.3 600.1,418.2 600.1,418.1 599.9,417.9 599.9,417.8 599.6,417.7 599.6,417.6 599.4,417.5 599.4,417.4 599.2,417.2 
			599.2,417.1 598.9,417 598.9,416.9 598.7,416.8 598.7,416.7 598.5,416.5 598.5,416.4 598.2,416.3 598.2,416.2 598,416.1 598,416 
			597.8,415.8 597.8,415.7 597.5,415.6 597.5,415.5 597.3,415.4 597.3,415.3 597.1,415.1 597.1,415 596.8,414.9 596.8,414.8 
			596.6,414.7 596.6,414.6 596.4,414.4 596.4,414.3 596.1,414.2 596.1,414.1 595.9,414 595.9,413.9 595.7,413.7 595.7,413.6 
			595.4,413.5 595.4,413.4 595.2,413.3 595.2,413.2 595,413 595,412.9 594.7,412.8 594.7,412.7 594.5,412.6 594.5,412.5 
			594.3,412.3 594.3,412.2 594,412.1 594,412 593.8,411.9 593.8,411.8 593.6,411.6 593.6,411.5 593.3,411.4 593.3,411.3 
			593.1,411.2 593.1,411.1 592.9,410.9 592.9,410.8 592.6,410.7 592.6,410.6 592.4,410.5 592.4,410.4 592.2,410.2 592.2,410.1 
			591.9,410 591.9,409.9 591.7,409.8 591.7,409.7 591.5,409.5 591.5,409.4 591.2,409.3 591.2,409.2 591,409.1 591,409 590.8,408.8 
			590.8,408.7 590.5,408.6 590.5,408.5 590.3,408.4 590.3,408.3 590.1,408.1 590.1,408 589.8,407.9 589.8,407.8 589.6,407.7 
			589.6,407.6 589.4,407.4 589.4,407.3 589.1,407.2 589.1,407.1 588.9,407 588.9,406.9 588.7,406.7 588.7,406.6 588.4,406.5 
			588.4,406.4 588.2,406.3 588.2,406.2 588,406 588,405.9 587.7,405.8 587.7,405.7 587.5,405.6 587.5,405.5 587.3,405.3 
			587.3,405.2 587,405.1 587,405 586.8,404.9 586.8,404.8 586.6,404.6 586.6,404.5 586.3,404.4 586.3,404.3 586.1,404.2 
			586.1,404.1 585.9,403.9 585.9,403.8 585.6,403.7 585.6,403.6 585.4,403.5 585.4,403.4 585.2,403.2 585.2,403.1 584.9,403 
			584.9,402.9 584.7,402.8 584.7,402.7 584.5,402.5 584.5,402.4 584.2,402.3 584.2,402.2 584,402.1 584,402 583.8,401.8 
			583.8,401.7 583.5,401.6 583.5,401.5 583.3,401.4 583.3,401.3 583.1,401.1 583.1,401 582.8,400.9 582.8,400.8 582.6,400.7 
			582.6,400.6 582.4,400.4 582.4,400.3 582.1,400.2 582.1,400.1 581.9,400 581.9,399.9 581.7,399.7 581.7,399.6 581.4,399.5 
			581.4,399.4 581.2,399.3 581.2,399.2 581,399 581,398.9 580.7,398.8 580.7,398.7 580.5,398.6 580.5,398.5 580.3,398.3 
			580.3,398.2 580,398.1 580,398 579.8,397.9 579.8,397.8 579.6,397.6 579.6,397.5 579.3,397.4 579.3,397.3 579.1,397.2 
			579.1,397.1 578.9,396.9 578.9,396.8 578.6,396.7 578.6,396.6 578.4,396.5 578.4,396.4 578.2,396.2 578.2,396.1 577.9,396 
			577.9,395.9 577.7,395.8 577.7,395.7 577.5,395.5 577.5,395.4 577.2,395.3 577.2,395.2 577,395.1 577,395 576.8,394.8 
			576.8,394.7 576.5,394.6 576.5,394.5 576.3,394.4 576.3,394.3 576.1,394.1 576.1,394 575.8,393.9 575.8,393.8 575.6,393.7 
			575.6,393.6 575.4,393.4 575.4,393.3 575.1,393.2 575.1,393.1 574.9,393 574.9,392.9 574.7,392.7 574.7,392.6 574.4,392.5 
			574.4,392.4 574.2,392.3 574.2,392.2 574,392 574,391.9 573.7,391.8 573.7,391.7 573.5,391.6 573.5,391.5 573.3,391.3 
			573.3,391.2 573,391.1 573,391 572.8,390.9 572.8,390.8 572.6,390.6 572.6,390.5 572.3,390.4 572.3,390.3 572.1,390.2 
			572.1,390.1 571.9,389.9 571.9,389.8 571.6,389.7 571.6,389.6 571.4,389.5 571.4,389.4 571.2,389.2 571.2,389.1 570.9,389 
			570.9,388.9 570.7,388.8 570.7,388.7 570.5,388.5 570.5,388.4 570.2,388.3 570.2,388.2 570,388.1 570,388 569.8,387.8 
			569.8,387.7 569.5,387.6 569.5,387.5 569.3,387.4 569.3,387.3 569.1,387.1 569.1,387 568.8,386.9 568.8,386.8 568.6,386.7 
			568.6,386.6 568.4,386.4 568.4,386.3 568.1,386.2 568.1,386.1 567.9,386 567.9,385.9 567.7,385.7 567.7,385.6 567.4,385.5 
			567.4,385.4 567.2,385.3 567.2,385.2 567,385 567,384.9 566.7,384.8 566.7,384.7 566.5,384.6 566.5,384.5 566.3,384.3 
			566.3,384.2 566,384.1 566,384 565.8,383.9 565.8,383.8 565.6,383.6 565.6,383.5 565.3,383.4 565.3,383.3 565.1,383.1 
			565.1,383.1 564.9,382.9 564.9,382.8 564.6,382.7 564.6,382.6 564.4,382.4 564.4,382.4 564.2,382.2 564.2,382.1 563.9,382 
			563.9,381.9 563.7,381.7 563.7,381.7 563.5,381.5 563.5,381.4 563.2,381.3 563.2,381.2 563,381 563,380.9 562.8,380.8 
			562.8,380.7 562.5,380.6 562.5,380.5 562.3,380.3 562.3,380.2 562.1,380.1 562.1,380 561.8,379.9 561.8,379.8 561.6,379.6 
			561.6,379.5 561.4,379.4 561.4,379.3 561.1,379.2 561.1,379.1 560.9,378.9 560.9,378.8 560.6,378.7 560.6,378.6 560.4,378.5 
			560.4,378.4 560.2,378.2 560.2,378.1 559.9,378 559.9,377.9 559.7,377.8 559.7,377.7 559.5,377.5 559.5,377.4 559.2,377.3 
			559.2,377.2 559,377.1 559,377 558.8,376.8 558.8,376.7 558.5,376.6 558.5,376.5 558.3,376.4 558.3,376.3 558.1,376.1 558.1,376 
			557.8,375.9 557.8,375.8 557.6,375.7 557.6,375.6 557.4,375.4 557.4,375.3 557.1,375.2 557.1,375.1 556.9,375 556.9,374.9 
			556.7,374.7 556.7,374.6 556.4,374.5 556.4,374.4 556.2,374.3 556.2,374.2 556,374 556,373.9 555.7,373.8 555.7,373.7 
			555.5,373.6 555.5,373.5 555.3,373.3 555.3,373.2 555,373.1 555,373 554.8,372.9 554.8,372.8 554.6,372.6 554.6,372.5 
			554.3,372.4 554.3,372.3 554.1,372.2 554.1,372.1 553.9,371.9 553.9,371.8 553.6,371.7 553.6,371.6 553.4,371.5 553.4,371.4 
			553.2,371.2 553.2,371.1 552.9,371 552.9,370.9 552.7,370.8 552.7,370.7 552.5,370.5 552.5,370.4 552.2,370.3 552.2,370.2 
			552,370.1 552,370 551.8,369.8 551.8,369.7 551.5,369.6 551.5,369.5 551.3,369.4 551.3,369.3 551.1,369.1 551.1,369 550.8,368.9 
			550.8,368.8 550.6,368.7 550.6,368.6 550.4,368.4 550.4,368.3 550.1,368.2 550.1,368.1 549.9,368 549.9,367.9 549.7,367.7 
			549.7,367.6 549.4,367.5 549.4,367.4 549.2,367.3 549.2,367.2 549,367 549,366.9 548.7,366.8 548.7,366.7 548.5,366.6 
			548.5,366.5 548.3,366.3 548.3,366.2 548,366.1 548,366 547.8,365.9 547.8,365.8 547.6,365.6 547.6,365.5 547.3,365.4 
			547.3,365.3 547.1,365.2 547.1,365.1 546.9,364.9 546.9,364.8 546.6,364.7 546.6,364.6 546.4,364.5 546.4,364.4 546.2,364.2 
			546.2,364.1 545.9,364 545.9,363.9 545.7,363.8 545.7,363.7 545.5,363.5 545.5,363.4 545.2,363.3 545.2,363.2 545,363.1 545,363 
			544.8,362.8 544.8,362.7 544.5,362.6 544.5,362.5 544.3,362.4 544.3,362.3 544.1,362.1 544.1,362 543.8,361.9 543.8,361.8 
			543.6,361.7 543.6,361.6 543.4,361.4 543.4,361.3 543.1,361.2 543.1,361.1 542.9,361 542.9,360.9 542.7,360.7 542.7,360.6 
			542.4,360.5 542.4,360.4 542.2,360.3 542.2,360.2 542,360 542,359.9 541.7,359.8 541.7,359.7 541.5,359.6 541.5,359.5 
			541.3,359.3 541.3,359.2 541,359.1 541,359 540.8,358.9 540.8,358.8 540.6,358.6 540.6,358.5 540.3,358.4 540.3,358.3 
			540.1,358.2 540.1,358.1 539.9,357.9 539.9,357.8 539.6,357.7 539.6,357.6 539.4,357.5 539.4,357.4 539.2,357.2 539.2,357.1 
			538.9,357 538.9,356.9 538.7,356.8 538.7,356.7 538.5,356.5 538.5,356.4 538.2,356.3 538.2,356.2 538,356.1 538,356 537.8,355.8 
			537.8,355.7 537.5,355.6 537.5,355.5 537.3,355.4 537.3,355.3 537.1,355.1 537.1,355 536.8,354.9 536.8,354.8 536.6,354.7 
			536.6,354.6 536.4,354.4 536.4,354.3 536.1,354.2 536.1,354.1 535.9,354 535.9,353.9 535.7,353.7 535.7,353.6 535.4,353.5 
			535.4,353.4 535.2,353.3 535.2,353.2 535,353 535,352.9 534.7,352.8 534.7,352.7 534.5,352.6 534.5,352.5 534.3,352.3 
			534.3,352.2 534,352.1 534,352 533.8,351.9 533.8,351.8 533.6,351.6 533.6,351.5 533.3,351.4 533.3,351.3 533.1,351.2 
			533.1,351.1 532.9,350.9 532.9,350.8 532.6,350.7 532.6,350.6 532.4,350.5 532.4,350.4 532.2,350.2 532.2,350.1 531.9,350 
			531.9,349.9 531.7,349.8 531.7,349.7 531.5,349.5 531.5,349.4 531.2,349.3 531.2,349.2 531,349.1 531,349 530.8,348.8 
			530.8,348.7 530.5,348.6 530.5,348.5 530.3,348.4 530.3,348.3 530.1,348.1 530.1,348 529.8,347.9 529.8,347.8 529.6,347.7 
			529.6,347.6 529.4,347.4 529.4,347.3 529.1,347.2 529.1,347.1 528.9,347 528.9,346.9 528.7,346.7 528.7,346.6 528.4,346.5 
			528.4,346.4 528.2,346.3 528.2,346.2 528,346 528,345.9 527.7,345.8 527.7,345.7 527.5,345.6 527.5,345.5 527.3,345.3 
			527.3,345.2 527,345.1 527,345 526.8,344.9 526.8,344.8 526.6,344.6 526.6,344.5 526.3,344.4 526.3,344.3 526.1,344.2 
			526.1,344.1 525.9,343.9 525.9,343.8 525.6,343.7 525.6,343.6 525.4,343.5 525.4,343.4 525.2,343.2 525.2,343.1 524.9,343 
			524.9,342.9 524.7,342.8 524.7,342.7 524.5,342.5 524.5,342.4 524.2,342.3 524.2,342.2 524,342.1 524,342 523.8,341.8 
			523.8,341.7 523.5,341.6 523.5,341.5 523.3,341.4 523.3,341.3 523.1,341.1 523.1,341 522.8,340.9 522.8,340.8 522.6,340.7 
			522.6,340.6 522.4,340.4 522.4,340.3 522.1,340.2 522.1,340.1 521.9,340 521.9,339.9 521.7,339.7 521.7,339.6 521.4,339.5 
			521.4,339.4 521.2,339.3 521.2,339.2 521,339 521,338.9 520.7,338.8 520.7,338.7 520.5,338.6 520.5,338.5 520.3,338.3 
			520.3,338.2 520,338.1 520,338 519.8,337.9 519.8,337.8 519.6,337.6 519.6,337.5 519.3,337.4 519.3,337.3 519.1,337.2 
			519.1,337.1 518.9,336.9 518.9,336.8 518.6,336.7 518.6,336.6 518.4,336.5 518.4,336.4 518.2,336.2 518.2,336.1 517.9,336 
			517.9,335.9 517.7,335.8 517.7,335.7 517.5,335.5 517.5,335.4 517.2,335.3 517.2,335.2 517,335.1 517,335 516.8,334.8 
			516.8,334.7 516.5,334.6 516.5,334.5 516.3,334.4 516.3,334.3 516.1,334.1 516.1,334 515.8,333.9 515.8,333.8 515.6,333.6 
			515.6,333.6 515.4,333.4 515.4,333.3 515.1,333.2 515.1,333.1 514.9,332.9 514.9,332.9 514.7,332.7 514.7,332.6 514.4,332.5 
			514.4,332.4 514.2,332.2 514.2,332.2 514,332 514,331.9 513.7,331.8 513.7,331.7 513.5,331.5 513.5,331.4 513.3,331.3 
			513.3,331.2 513,331.1 513,331 512.8,330.8 512.8,330.7 512.6,330.6 512.6,330.5 512.3,330.4 512.3,330.3 512.1,330.1 512.1,330 
			511.9,329.9 511.9,329.8 511.6,329.7 511.6,329.6 511.4,329.4 511.4,329.3 511.2,329.2 511.2,329.1 510.9,329 510.9,328.9 
			510.7,328.7 510.7,328.6 510.4,328.5 510.4,328.4 510.2,328.3 510.2,328.2 510,328 510,327.9 509.7,327.8 509.7,327.7 
			509.5,327.6 509.5,327.5 509.3,327.3 509.3,327.2 509,327.1 509,327 508.8,326.9 508.8,326.8 508.6,326.6 508.6,326.5 
			508.3,326.4 508.3,326.3 508.1,326.2 508.1,326.1 507.9,325.9 507.9,325.8 507.6,325.7 507.6,325.6 507.4,325.5 507.4,325.4 
			507.2,325.2 507.2,325.1 506.9,325 506.9,324.9 506.7,324.8 506.7,324.7 506.5,324.5 506.5,324.4 506.2,324.3 506.2,324.2 
			506,324.1 506,324 505.8,323.8 505.8,323.7 505.5,323.6 505.5,323.5 505.3,323.4 505.3,323.3 505.1,323.1 505.1,323 504.8,322.9 
			504.8,322.8 504.6,322.7 504.6,322.6 504.4,322.4 504.4,322.3 504.1,322.2 504.1,322.1 503.9,322 503.9,321.9 503.7,321.7 
			503.7,321.6 503.4,321.5 503.4,321.4 503.2,321.3 503.2,321.2 503,321 503,320.9 502.7,320.8 502.7,320.7 502.5,320.6 
			502.5,320.5 502.3,320.3 502.3,320.2 502,320.1 502,320 501.8,319.9 501.8,319.8 501.6,319.6 501.6,319.5 501.3,319.4 
			501.3,319.3 501.1,319.2 501.1,319.1 500.9,318.9 500.9,318.8 500.6,318.7 500.6,318.6 500.4,318.5 500.4,318.4 500.2,318.2 
			500.2,318.1 499.9,318 499.9,317.9 499.7,317.8 499.7,317.7 499.5,317.5 499.5,317.4 499.2,317.3 499.2,317.2 499,317.1 499,317 
			498.8,316.8 498.8,316.7 498.5,316.6 498.5,316.5 498.3,316.4 498.3,316.3 498.1,316.1 498.1,316 497.8,315.9 497.8,315.8 
			497.6,315.7 497.6,315.6 497.4,315.4 497.4,315.3 497.1,315.2 497.1,315.1 496.9,315 496.9,314.9 496.7,314.7 496.7,314.6 
			496.4,314.5 496.4,314.4 496.2,314.3 496.2,314.2 496,314 496,313.9 495.7,313.8 495.7,313.7 495.5,313.6 495.5,313.5 
			495.3,313.3 495.3,313.2 495,313.1 495,313 494.8,312.9 494.8,312.8 494.6,312.6 494.6,312.5 494.3,312.4 494.3,312.3 
			494.1,312.2 494.1,312.1 493.9,311.9 493.9,311.8 493.6,311.7 493.6,311.6 493.4,311.5 493.4,311.4 493.2,311.2 493.2,311.1 
			492.9,311 492.9,310.9 492.7,310.8 492.7,310.7 492.5,310.5 492.5,310.4 492.2,310.3 492.2,310.2 492,310.1 492,310 491.8,309.8 
			491.8,309.7 491.5,309.6 491.5,309.5 491.3,309.4 491.3,309.3 491.1,309.1 491.1,309 490.8,308.9 490.8,308.8 490.6,308.7 
			490.6,308.6 490.4,308.4 490.4,308.3 490.1,308.2 490.1,308.1 489.9,308 489.9,307.9 489.7,307.7 489.7,307.6 489.4,307.5 
			489.4,307.4 489.2,307.3 489.2,307.2 489,307 489,306.9 488.7,306.8 488.7,306.7 488.5,306.6 488.5,306.5 488.3,306.3 
			488.3,306.2 488,306.1 488,306 487.8,305.9 487.8,305.8 487.6,305.6 487.6,305.5 487.3,305.4 487.3,305.3 487.1,305.2 
			487.1,305.1 486.9,304.9 486.9,304.8 486.6,304.7 486.6,304.6 486.4,304.5 486.4,304.4 486.2,304.2 486.2,304.1 485.9,304 
			485.9,303.9 485.7,303.8 485.7,303.7 485.5,303.5 485.5,303.4 485.2,303.3 485.2,303.2 485,303.1 485,303 484.8,302.8 
			484.8,302.7 484.5,302.6 484.5,302.5 484.3,302.4 484.3,302.3 484.1,302.1 484.1,302 483.8,301.9 483.8,301.8 483.6,301.7 
			483.6,301.6 483.4,301.4 483.4,301.3 483.1,301.2 483.1,301.1 482.9,301 482.9,300.9 482.7,300.7 482.7,300.6 482.4,300.5 
			482.4,300.4 482.2,300.3 482.2,300.2 482,300 482,299.9 481.7,299.8 481.7,299.7 481.5,299.6 481.5,299.5 481.3,299.3 
			481.3,299.2 481,299.1 481,299 480.8,298.9 480.8,298.8 480.6,298.6 480.6,298.5 480.3,298.4 480.3,298.3 480.1,298.2 
			480.1,298.1 479.9,297.9 479.9,297.8 479.6,297.7 479.6,297.6 479.4,297.5 479.4,297.4 479.2,297.2 479.2,297.1 478.9,297 
			478.9,296.9 478.7,296.8 478.7,296.7 478.5,296.5 478.5,296.4 478.2,296.3 478.2,296.2 478,296.1 478,296 477.8,295.8 
			477.8,295.7 477.5,295.6 477.5,295.5 477.3,295.4 477.3,295.3 477.1,295.1 477.1,295 476.8,294.9 476.8,294.8 476.6,294.7 
			476.6,294.6 476.4,294.4 476.4,294.3 476.1,294.2 476.1,294.1 475.9,294 475.9,293.9 475.7,293.7 475.7,293.6 475.4,293.5 
			475.4,293.4 475.2,293.3 475.2,293.2 475,293 475,292.9 474.7,292.8 474.7,292.7 474.5,292.6 474.5,292.5 474.3,292.3 
			474.3,292.2 474,292.1 474,292 473.8,291.9 473.8,291.8 473.6,291.6 473.6,291.5 473.3,291.4 473.3,291.3 473.1,291.2 
			473.1,291.1 472.9,290.9 472.9,290.8 472.6,290.7 472.6,290.6 472.4,290.5 472.4,290.4 472.2,290.2 472.2,290.1 471.9,290 
			471.9,289.9 471.7,289.8 471.7,289.7 471.5,289.5 471.5,289.4 471.2,289.3 471.2,289.2 471,289.1 471,289 470.8,288.8 
			470.8,288.7 470.5,288.6 470.5,288.5 470.3,288.4 470.3,288.3 470.1,288.1 470.1,288 469.8,287.9 469.8,287.8 469.6,287.7 
			469.6,287.6 469.4,287.4 469.4,287.3 469.1,287.2 469.1,287.1 468.9,287 468.9,286.9 468.7,286.7 468.7,286.6 468.4,286.5 
			468.4,286.4 468.2,286.3 468.2,286.2 468,286 468,285.9 467.7,285.8 467.7,285.7 467.5,285.6 467.5,285.5 467.3,285.3 
			467.3,285.2 467,285.1 467,285 466.8,284.9 466.8,284.8 466.6,284.6 466.6,284.5 466.3,284.4 466.3,284.3 466.1,284.1 
			466.1,284.1 465.9,283.9 465.9,283.8 465.6,283.7 465.6,283.6 465.4,283.4 465.4,283.4 465.2,283.2 465.2,283.1 464.9,283 
			464.9,282.9 464.7,282.7 464.7,282.7 464.5,282.5 464.5,282.4 464.2,282.3 464.2,282.2 464,282 464,281.9 463.8,281.8 
			463.8,281.7 463.5,281.6 463.5,281.5 463.3,281.3 463.3,281.2 463.1,281.1 463.1,281 462.8,280.9 462.8,280.8 462.6,280.6 
			462.6,280.5 462.4,280.4 462.4,280.3 462.1,280.2 462.1,280.1 461.9,279.9 461.9,279.8 461.7,279.7 461.7,279.6 461.4,279.5 
			461.4,279.4 461.2,279.2 461.2,279.1 460.9,279 460.9,278.9 460.7,278.8 460.7,278.7 460.5,278.5 460.5,278.4 460.2,278.3 
			460.2,278.2 460,278.1 460,278 459.8,277.8 459.8,277.7 459.5,277.6 459.5,277.5 459.3,277.4 459.3,277.3 459.1,277.1 459.1,277 
			458.8,276.9 458.8,276.8 458.6,276.7 458.6,276.6 458.4,276.4 458.4,276.3 458.1,276.2 458.1,276.1 457.9,276 457.9,275.9 
			457.7,275.7 457.7,275.6 457.4,275.5 457.4,275.4 457.2,275.3 457.2,275.2 457,275 457,274.9 456.7,274.8 456.7,274.7 
			456.5,274.6 456.5,274.5 456.3,274.3 456.3,274.2 456,274.1 456,274 455.8,273.9 455.8,273.8 455.6,273.6 455.6,273.5 
			455.3,273.4 455.3,273.3 455.1,273.2 455.1,273.1 454.9,272.9 454.9,272.8 454.6,272.7 454.6,272.6 454.4,272.5 454.4,272.4 
			454.2,272.2 454.2,272.1 453.9,272 453.9,271.9 453.7,271.8 453.7,271.7 453.5,271.5 453.5,271.4 453.2,271.3 453.2,271.2 
			453,271.1 453,271 452.8,270.8 452.8,270.7 452.5,270.6 452.5,270.5 452.3,270.4 452.3,270.3 452.1,270.1 452.1,270 451.8,269.9 
			451.8,269.8 451.6,269.7 451.6,269.6 451.4,269.4 451.4,269.3 451.1,269.2 451.1,269.1 450.9,269 450.9,268.9 450.7,268.7 
			450.7,268.6 450.4,268.5 450.4,268.4 450.2,268.3 450.2,268.2 450,268 450,267.9 449.7,267.8 449.7,267.7 449.5,267.6 
			449.5,267.5 449.3,267.3 449.3,267.2 449,267.1 449,267 448.8,266.9 448.8,266.8 448.6,266.6 448.6,266.5 448.3,266.4 
			448.3,266.3 448.1,266.2 448.1,266.1 447.9,265.9 447.9,265.8 447.6,265.7 447.6,265.6 447.4,265.5 447.4,265.4 447.2,265.2 
			447.2,265.1 446.9,265 446.9,264.9 446.7,264.8 446.7,264.7 446.5,264.5 446.5,264.4 446.2,264.3 446.2,264.2 446,264.1 446,264 
			445.8,263.8 445.8,263.7 445.5,263.6 445.5,263.5 445.3,263.4 445.3,263.3 445.1,263.1 445.1,263 444.8,262.9 444.8,262.8 
			444.6,262.7 444.6,262.6 444.4,262.4 444.4,262.3 444.1,262.2 444.1,262.1 443.9,262 443.9,261.9 443.7,261.7 443.7,261.6 
			443.4,261.5 443.4,261.4 443.2,261.3 443.2,261.2 443,261 443,260.9 442.7,260.8 442.7,260.7 442.5,260.6 442.5,260.5 
			442.3,260.3 442.3,260.2 442,260.1 442,260 441.8,259.9 441.8,259.8 441.6,259.6 441.6,259.5 441.3,259.4 441.3,259.3 
			441.1,259.2 441.1,259.1 440.9,258.9 440.9,258.8 440.6,258.7 440.6,258.6 440.4,258.5 440.4,258.4 440.2,258.2 440.2,258.1 
			439.9,258 439.9,257.9 439.7,257.8 439.7,257.7 439.5,257.5 439.5,257.4 439.2,257.3 439.2,257.2 439,257.1 439,257 438.8,256.8 
			438.8,256.7 438.5,256.6 438.5,256.5 438.3,256.4 438.3,256.3 438.1,256.1 438.1,256 437.8,255.9 437.8,255.8 437.6,255.7 
			437.6,255.6 437.4,255.4 437.4,255.3 437.1,255.2 437.1,255.1 436.9,255 436.9,254.9 436.7,254.7 436.7,254.6 436.4,254.5 
			436.4,254.4 436.2,254.3 436.2,254.2 436,254 436,253.9 435.7,253.8 435.7,253.7 435.5,253.6 435.5,253.5 435.3,253.3 
			435.3,253.2 435,253.1 435,253 434.8,252.9 434.8,252.8 434.6,252.6 434.6,252.5 434.3,252.4 434.3,252.3 434.1,252.2 
			434.1,252.1 433.9,251.9 433.9,251.8 433.6,251.7 433.6,251.6 433.4,251.5 433.4,251.4 433.2,251.2 433.2,251.1 432.9,251 
			432.9,250.9 432.7,250.8 432.7,250.7 432.5,250.5 432.5,250.4 432.2,250.3 432.2,250.2 432,250.1 432,250 431.8,249.8 
			431.8,249.7 431.5,249.6 431.5,249.5 431.3,249.4 431.3,249.3 431.1,249.1 431.1,249 430.8,248.9 430.8,248.8 430.6,248.7 
			430.6,248.6 430.4,248.4 430.4,248.3 430.1,248.2 430.1,248.1 429.9,248 429.9,247.9 429.7,247.7 429.7,247.6 429.4,247.5 
			429.4,247.4 429.2,247.3 429.2,247.2 429,247 429,246.9 428.7,246.8 428.7,246.7 428.5,246.6 428.5,246.5 428.3,246.3 
			428.3,246.2 428,246.1 428,246 427.8,245.9 427.8,245.8 427.6,245.6 427.6,245.5 427.3,245.4 427.3,245.3 427.1,245.2 
			427.1,245.1 426.9,244.9 426.9,244.8 426.6,244.7 426.6,244.6 426.4,244.5 426.4,244.4 426.2,244.2 426.2,244.1 425.9,244 
			425.9,243.9 425.7,243.8 425.7,243.7 425.5,243.5 425.5,243.4 425.2,243.3 425.2,243.2 425,243.1 425,243 424.8,242.8 
			424.8,242.7 424.5,242.6 424.5,242.5 424.3,242.4 424.3,242.3 424.1,242.1 424.1,242 423.8,241.9 423.8,241.8 423.6,241.7 
			423.6,241.6 423.4,241.4 423.4,241.3 423.1,241.2 423.1,241.1 422.9,241 422.9,240.9 422.7,240.7 422.7,240.6 422.4,240.5 
			422.4,240.4 422.2,240.3 422.2,240.2 422,240 422,239.9 421.7,239.8 421.7,239.7 421.5,239.6 421.5,239.5 421.3,239.3 
			421.3,239.2 421,239.1 421,239 420.8,238.9 420.8,238.8 420.6,238.6 420.6,238.5 420.3,238.4 420.3,238.3 420.1,238.2 
			420.1,238.1 419.9,237.9 419.9,237.8 419.6,237.7 419.6,237.6 419.4,237.5 419.4,237.4 419.2,237.2 419.2,237.1 418.9,237 
			418.9,236.9 418.7,236.8 418.7,236.7 418.5,236.5 418.5,236.4 418.2,236.3 418.2,236.2 418,236.1 418,236 417.8,235.8 
			417.8,235.7 417.5,235.6 417.5,235.5 417.3,235.4 417.3,235.3 417.1,235.1 417.1,235 416.8,234.9 416.8,234.8 416.6,234.6 
			416.6,234.6 416.4,234.4 416.4,234.3 416.1,234.2 416.1,234.1 415.9,233.9 415.9,233.9 415.7,233.7 415.7,233.6 415.4,233.5 
			415.4,233.4 415.2,233.2 415.2,233.2 415,233 415,232.9 414.7,232.8 414.7,232.7 414.5,232.5 414.5,232.4 414.3,232.3 
			414.3,232.2 414,232.1 414,232 413.8,231.8 413.8,231.7 413.6,231.6 413.6,231.5 413.3,231.4 413.3,231.3 413.1,231.1 413.1,231 
			412.9,230.9 412.9,230.8 412.6,230.7 412.6,230.6 412.4,230.4 412.4,230.3 412.2,230.2 412.2,230.1 411.9,230 411.9,229.9 
			358.3,198.9 306,262.5 306,262.5 306,262.5 305.8,262.2 305.7,262.2 305.5,262 305.5,262 305.3,261.8 305.3,261.8 305.1,261.5 
			305,261.5 304.8,261.3 304.8,261.3 304.6,261.1 304.6,261.1 304.4,260.8 304.3,260.8 304.1,260.6 304.1,260.6 303.9,260.4 
			303.9,260.4 303.7,260.1 303.6,260.1 303.4,259.9 303.4,259.9 303.2,259.7 303.2,259.7 303,259.4 302.9,259.4 302.7,259.2 
			302.7,259.2 302.5,259 302.5,259 302.3,258.7 302.2,258.7 302,258.5 302,258.5 301.8,258.3 301.8,258.3 301.6,258 301.5,258 
			301.3,257.8 301.3,257.8 301.1,257.6 301.1,257.6 300.9,257.3 300.8,257.3 300.6,257.1 300.6,257.1 300.4,256.9 300.4,256.9 
			300.2,256.6 300.1,256.6 299.9,256.4 299.9,256.4 299.7,256.1 299.7,256.2 299.5,255.9 299.4,255.9 299.2,255.7 299.2,255.7 
			299,255.4 299,255.5 298.8,255.2 298.7,255.2 298.5,255 298.5,255 298.3,254.7 298.3,254.8 298.1,254.5 298,254.5 297.8,254.3 
			297.8,254.3 297.6,254 297.6,254.1 297.4,253.8 297.3,253.8 297.1,253.6 297.1,253.6 296.9,253.3 296.9,253.4 296.7,253.1 
			296.6,253.1 296.4,252.9 296.4,252.9 296.2,252.6 296.2,252.7 296,252.4 295.9,252.4 295.7,252.2 295.7,252.2 295.5,251.9 
			295.5,252 295.3,251.7 295.2,251.7 295,251.5 295,251.5 294.8,251.2 294.8,251.3 294.6,251 294.5,251 294.3,250.8 294.3,250.8 
			294.1,250.5 294.1,250.6 293.9,250.3 293.8,250.3 293.6,250.1 293.6,250.1 293.4,249.8 293.4,249.9 293.2,249.6 293.1,249.6 
			292.9,249.4 292.9,249.4 292.7,249.1 292.7,249.2 292.5,248.9 292.4,248.9 292.2,248.7 292.2,248.7 292,248.4 292,248.5 
			291.8,248.2 291.7,248.2 291.5,248 291.5,248 291.3,247.7 291.3,247.8 291.1,247.5 291,247.5 290.8,247.3 290.8,247.3 290.6,247 
			290.6,247.1 290.4,246.8 290.3,246.8 290.1,246.6 290.1,246.6 289.9,246.3 289.9,246.4 289.7,246.1 289.6,246.1 289.4,245.9 
			289.4,245.9 289.2,245.6 289.2,245.7 289,245.4 288.9,245.4 288.7,245.2 288.7,245.2 288.5,244.9 288.5,245 288.3,244.7 
			288.2,244.7 288,244.5 288,244.5 287.8,244.2 287.8,244.3 287.6,244 287.5,244 287.3,243.8 287.3,243.8 287.1,243.5 287.1,243.6 
			286.9,243.3 286.8,243.3 286.6,243.1 286.6,243.1 286.4,242.8 286.4,242.9 286.1,242.6 286.1,242.6 285.9,242.4 285.9,242.4 
			285.7,242.1 285.7,242.2 285.4,241.9 285.4,241.9 285.2,241.7 285.2,241.7 285,241.4 285,241.5 284.7,241.2 284.7,241.2 
			284.5,241 284.5,241 284.3,240.7 284.3,240.8 284,240.5 284,240.5 283.8,240.3 283.8,240.3 283.6,240 283.6,240.1 283.3,239.8 
			283.3,239.8 283.1,239.6 283.1,239.6 282.9,239.3 282.9,239.4 282.6,239.1 282.6,239.1 282.4,238.9 282.4,238.9 282.2,238.6 
			282.2,238.7 281.9,238.4 281.9,238.4 281.7,238.2 281.7,238.2 281.5,237.9 281.5,238 281.2,237.7 281.2,237.7 281,237.5 
			281,237.5 280.8,237.2 280.8,237.3 280.5,237 280.5,237 280.3,236.8 280.3,236.8 280.1,236.5 280.1,236.6 279.8,236.3 
			279.8,236.3 279.6,236.1 279.6,236.1 279.4,235.8 279.4,235.9 279.1,235.6 279.1,235.6 278.9,235.4 278.9,235.4 278.7,235.1 
			278.6,235.2 278.4,234.9 278.4,234.9 278.2,234.7 278.2,234.7 278,234.4 277.9,234.5 277.7,234.2 277.7,234.2 277.5,234 
			277.5,234 277.3,233.7 277.2,233.8 277,233.5 277,233.5 276.8,233.3 276.8,233.3 276.6,233 276.5,233.1 276.3,232.8 276.3,232.8 
			276.1,232.6 276.1,232.6 275.9,232.3 275.8,232.4 275.6,232.1 275.6,232.1 275.4,231.9 275.4,231.9 275.2,231.6 275.1,231.7 
			274.9,231.4 274.9,231.4 274.7,231.2 274.7,231.2 274.5,230.9 274.4,230.9 274.2,230.7 274.2,230.7 274,230.5 274,230.5 
			273.8,230.2 273.7,230.2 273.5,230 273.5,230 273.3,229.8 273.3,229.8 273.1,229.5 273,229.5 272.8,229.3 272.8,229.3 
			272.6,229.1 272.6,229.1 272.4,228.8 272.3,228.8 272.1,228.6 272.1,228.6 271.9,228.4 271.9,228.4 271.7,228.1 271.6,228.1 
			271.4,227.9 271.4,227.9 271.2,227.7 271.2,227.7 271,227.4 270.9,227.4 270.7,227.2 270.7,227.2 270.5,227 270.5,227 
			270.3,226.7 270.2,226.7 270,226.5 270,226.5 269.8,226.3 269.8,226.3 269.6,226 269.5,226 269.3,225.8 269.3,225.8 269.1,225.6 
			269.1,225.6 268.9,225.3 268.8,225.3 268.6,225.1 268.6,225.1 268.4,224.9 268.4,224.9 268.2,224.6 268.1,224.6 267.9,224.4 
			267.9,224.4 267.7,224.2 267.7,224.2 267.5,223.9 267.4,223.9 267.2,223.7 267.2,223.7 267,223.5 267,223.5 266.8,223.2 
			266.7,223.2 266.5,223 266.5,223 266.3,222.8 266.3,222.8 266.1,222.5 266,222.5 265.8,222.3 265.8,222.3 265.6,222.1 
			265.6,222.1 265.4,221.8 265.3,221.8 265.1,221.6 265.1,221.6 264.9,221.4 264.9,221.4 264.7,221.1 264.6,221.1 264.4,220.9 
			264.4,220.9 264.2,220.7 264.2,220.7 264,220.4 263.9,220.4 263.7,220.2 263.7,220.2 263.5,220 263.5,220 263.3,219.7 
			263.2,219.7 263,219.5 263,219.5 262.8,219.3 262.8,219.3 262.6,219 262.5,219 262.3,218.8 262.3,218.8 262.1,218.6 262.1,218.6 
			261.9,218.3 261.8,218.3 261.6,218.1 261.6,218.1 261.4,217.9 261.4,217.9 261.2,217.6 261.1,217.6 260.9,217.4 260.9,217.4 
			260.7,217.2 260.7,217.2 260.5,216.9 260.4,216.9 260.2,216.7 260.2,216.7 260,216.5 260,216.5 259.8,216.2 259.7,216.2 
			259.5,216 259.5,216 259.3,215.8 259.3,215.8 259.1,215.5 259,215.5 258.8,215.3 258.8,215.3 258.6,215.1 258.6,215.1 
			258.4,214.8 258.3,214.8 258.1,214.6 258.1,214.6 257.9,214.4 257.9,214.4 257.7,214.1 257.6,214.1 257.4,213.9 257.4,213.9 
			257.2,213.7 257.2,213.7 257,213.4 256.9,213.4 256.7,213.2 256.7,213.2 256.5,213 256.5,213 256.3,212.7 256.2,212.7 256,212.5 
			256,212.5 255.8,212.3 255.8,212.3 255.6,212 255.5,212 255.3,211.8 255.3,211.8 255.1,211.6 255.1,211.6 254.9,211.3 
			254.8,211.3 254.6,211.1 254.6,211.1 254.4,210.9 254.4,210.9 254.2,210.6 254.1,210.6 253.9,210.4 253.9,210.4 253.7,210.2 
			253.7,210.2 253.5,209.9 253.4,209.9 253.2,209.7 253.2,209.7 253,209.5 253,209.5 252.8,209.2 252.7,209.2 252.5,209 252.5,209 
			252.3,208.8 252.3,208.8 252.1,208.5 252,208.5 251.8,208.3 251.8,208.3 251.6,208.1 251.6,208.1 251.4,207.8 251.3,207.8 
			251.1,207.6 251.1,207.6 250.9,207.4 250.9,207.4 250.7,207.1 250.6,207.1 250.4,206.9 250.4,206.9 250.2,206.7 250.2,206.7 
			250,206.4 249.9,206.4 249.7,206.2 249.7,206.2 249.5,205.9 249.5,206 249.3,205.7 249.2,205.7 249,205.5 249,205.5 248.8,205.2 
			248.8,205.3 248.6,205 248.5,205 248.3,204.8 248.3,204.8 248.1,204.5 248.1,204.6 247.9,204.3 247.8,204.3 247.6,204.1 
			247.6,204.1 247.4,203.8 247.4,203.9 247.2,203.6 247.1,203.6 246.9,203.4 246.9,203.4 246.7,203.1 246.7,203.2 246.5,202.9 
			246.4,202.9 246.2,202.7 246.2,202.7 246,202.4 246,202.5 245.8,202.2 245.7,202.2 245.5,202 245.5,202 245.3,201.7 245.3,201.8 
			245.1,201.5 245,201.5 244.8,201.3 244.8,201.3 244.6,201 244.6,201.1 244.4,200.8 244.3,200.8 244.1,200.6 244.1,200.6 
			243.9,200.3 243.9,200.4 243.7,200.1 243.6,200.1 243.4,199.9 243.4,199.9 243.2,199.6 243.2,199.7 243,199.4 242.9,199.4 
			242.7,199.2 242.7,199.2 242.5,198.9 188.9,229.9 188.9,358.6 189.1,358.8 189.1,358.9 189.4,359 189.4,359.1 189.6,359.2 
			189.6,359.3 189.8,359.5 189.8,359.6 190.1,359.7 190.1,359.8 190.3,359.9 190.3,360 190.5,360.2 190.5,360.3 190.8,360.4 
			190.8,360.5 191,360.6 191,360.7 191.2,360.9 191.2,361 191.5,361.1 191.5,361.2 191.7,361.3 191.7,361.4 191.9,361.6 
			191.9,361.7 192.2,361.8 192.2,361.9 192.4,362 192.4,362.1 192.6,362.3 192.6,362.4 192.9,362.5 192.9,362.6 193.1,362.7 
			193.1,362.8 193.3,363 193.3,363.1 193.6,363.2 193.6,363.3 193.8,363.4 193.8,363.5 194,363.7 194,363.8 194.3,363.9 194.3,364 
			194.5,364.1 194.5,364.2 194.7,364.4 194.7,364.5 195,364.6 195,364.7 195.2,364.8 195.2,364.9 195.4,365.1 195.4,365.2 
			195.7,365.3 195.7,365.4 195.9,365.5 195.9,365.6 196.1,365.8 196.1,365.9 196.4,366 196.4,366.1 196.6,366.2 196.6,366.3 
			196.8,366.5 196.8,366.6 197.1,366.7 197.1,366.8 197.3,366.9 197.3,367 197.5,367.2 197.5,367.3 197.8,367.4 197.8,367.5 
			198,367.6 198,367.7 198.2,367.9 198.2,368 198.5,368.1 198.5,368.2 198.7,368.3 198.7,368.4 198.9,368.6 198.9,368.7 
			199.2,368.8 199.2,368.9 199.4,369 199.4,369.1 199.6,369.3 199.6,369.4 199.9,369.5 199.9,369.6 200.1,369.7 200.1,369.8 
			200.3,370 200.3,370.1 200.6,370.2 200.6,370.3 200.8,370.4 200.8,370.5 201,370.7 201,370.8 201.3,370.9 201.3,371 201.5,371.1 
			201.5,371.2 201.7,371.4 201.7,371.5 202,371.6 202,371.7 202.2,371.8 202.2,371.9 202.4,372.1 202.4,372.2 202.7,372.3 
			202.7,372.4 202.9,372.5 202.9,372.6 203.1,372.8 203.1,372.9 203.4,373 203.4,373.1 203.6,373.2 203.6,373.3 203.8,373.5 
			203.8,373.6 204.1,373.7 204.1,373.8 204.3,373.9 204.3,374 204.5,374.2 204.5,374.3 204.8,374.4 204.8,374.5 205,374.7 
			205,374.7 205.2,374.9 205.2,375 205.5,375.1 205.5,375.2 205.7,375.4 205.7,375.4 205.9,375.6 205.9,375.7 206.2,375.8 
			206.2,375.9 206.4,376.1 206.4,376.1 206.6,376.3 206.6,376.4 206.9,376.5 206.9,376.6 207.1,376.8 207.1,376.9 207.3,377 
			207.3,377.1 207.6,377.2 207.6,377.3 207.8,377.5 207.8,377.6 208.1,377.7 208.1,377.8 208.3,377.9 208.3,378 208.5,378.2 
			208.5,378.3 208.8,378.4 208.8,378.5 209,378.6 209,378.7 209.2,378.9 209.2,379 209.5,379.1 209.5,379.2 209.7,379.3 
			209.7,379.4 209.9,379.6 209.9,379.7 210.2,379.8 210.2,379.9 210.4,380 210.4,380.1 210.6,380.3 210.6,380.4 210.9,380.5 
			210.9,380.6 211.1,380.7 211.1,380.8 211.3,381 211.3,381.1 211.6,381.2 211.6,381.3 211.8,381.4 211.8,381.5 212,381.7 
			212,381.8 212.3,381.9 212.3,382 212.5,382.1 212.5,382.2 212.7,382.4 212.7,382.5 213,382.6 213,382.7 213.2,382.8 213.2,382.9 
			213.4,383.1 213.4,383.2 213.7,383.3 213.7,383.4 213.9,383.5 213.9,383.6 214.1,383.8 214.1,383.9 214.4,384 214.4,384.1 
			214.6,384.2 214.6,384.3 214.8,384.5 214.8,384.6 215.1,384.7 215.1,384.8 215.3,384.9 215.3,385 215.5,385.2 215.5,385.3 
			215.8,385.4 215.8,385.5 216,385.6 216,385.7 216.2,385.9 216.2,386 216.5,386.1 216.5,386.2 216.7,386.3 216.7,386.4 
			216.9,386.6 216.9,386.7 217.2,386.8 217.2,386.9 217.4,387 217.4,387.1 217.6,387.3 217.6,387.4 217.9,387.5 217.9,387.6 
			218.1,387.7 218.1,387.8 218.3,388 218.3,388.1 218.6,388.2 218.6,388.3 218.8,388.4 218.8,388.5 219,388.7 219,388.8 
			219.3,388.9 219.3,389 219.5,389.1 219.5,389.2 219.7,389.4 219.7,389.5 220,389.6 220,389.7 220.2,389.8 220.2,389.9 
			220.4,390.1 220.4,390.2 220.7,390.3 220.7,390.4 220.9,390.5 220.9,390.6 221.1,390.8 221.1,390.9 221.4,391 221.4,391.1 
			221.6,391.2 221.6,391.3 221.8,391.5 221.8,391.6 222.1,391.7 222.1,391.8 222.3,391.9 222.3,392 222.5,392.2 222.5,392.3 
			222.8,392.4 222.8,392.5 223,392.6 223,392.7 223.2,392.9 223.2,393 223.5,393.1 223.5,393.2 223.7,393.3 223.7,393.4 
			223.9,393.6 223.9,393.7 224.2,393.8 224.2,393.9 224.4,394 224.4,394.1 224.6,394.3 224.6,394.4 224.9,394.5 224.9,394.6 
			225.1,394.7 225.1,394.8 225.3,395 225.3,395.1 225.6,395.2 225.6,395.3 225.8,395.4 225.8,395.5 226,395.7 226,395.8 
			226.3,395.9 226.3,396 226.5,396.1 226.5,396.2 226.7,396.4 226.7,396.5 227,396.6 227,396.7 227.2,396.8 227.2,396.9 
			227.4,397.1 227.4,397.2 227.7,397.3 227.7,397.4 227.9,397.5 227.9,397.6 228.1,397.8 228.1,397.9 228.4,398 228.4,398.1 
			228.6,398.2 228.6,398.3 228.8,398.5 228.8,398.6 229.1,398.7 229.1,398.8 229.3,398.9 229.3,399 229.5,399.2 229.5,399.3 
			229.8,399.4 229.8,399.5 230,399.6 230,399.7 230.2,399.9 230.2,400 230.5,400.1 230.5,400.2 230.7,400.3 230.7,400.4 
			230.9,400.6 230.9,400.7 231.2,400.8 231.2,400.9 231.4,401 231.4,401.1 231.6,401.3 231.6,401.4 231.9,401.5 231.9,401.6 
			232.1,401.7 232.1,401.8 232.3,402 232.3,402.1 232.6,402.2 232.6,402.3 232.8,402.4 232.8,402.5 233,402.7 233,402.8 
			233.3,402.9 233.3,403 233.5,403.1 233.5,403.2 233.7,403.4 233.7,403.5 234,403.6 234,403.7 234.2,403.8 234.2,403.9 
			234.4,404.1 234.4,404.2 234.7,404.3 234.7,404.4 234.9,404.5 234.9,404.6 235.1,404.8 235.1,404.9 235.4,405 235.4,405.1 
			235.6,405.2 235.6,405.3 235.8,405.5 235.8,405.6 236.1,405.7 236.1,405.8 236.3,405.9 236.3,406 236.5,406.2 236.5,406.3 
			236.8,406.4 236.8,406.5 237,406.6 237,406.7 237.2,406.9 237.2,407 237.5,407.1 237.5,407.2 237.7,407.3 237.7,407.4 
			237.9,407.6 237.9,407.7 238.2,407.8 238.2,407.9 238.4,408 238.4,408.1 238.6,408.3 238.6,408.4 238.9,408.5 238.9,408.6 
			239.1,408.7 239.1,408.8 239.3,409 239.3,409.1 239.6,409.2 239.6,409.3 239.8,409.4 239.8,409.5 240,409.7 240,409.8 
			240.3,409.9 240.3,410 240.5,410.1 240.5,410.2 240.7,410.4 240.7,410.5 241,410.6 241,410.7 241.2,410.8 241.2,410.9 
			241.4,411.1 241.4,411.2 241.7,411.3 241.7,411.4 241.9,411.5 241.9,411.6 242.1,411.8 242.1,411.9 242.4,412 242.4,412.1 
			242.6,412.2 242.6,412.3 242.8,412.5 242.8,412.6 243.1,412.7 243.1,412.8 243.3,412.9 243.3,413 243.5,413.2 243.5,413.3 
			243.8,413.4 243.8,413.5 244,413.6 244,413.7 244.2,413.9 244.2,414 244.5,414.1 244.5,414.2 244.7,414.3 244.7,414.4 
			244.9,414.6 244.9,414.7 245.2,414.8 245.2,414.9 245.4,415 245.4,415.1 245.6,415.3 245.6,415.4 245.9,415.5 245.9,415.6 
			246.1,415.7 246.1,415.8 246.3,416 246.3,416.1 246.6,416.2 246.6,416.3 246.8,416.4 246.8,416.5 247,416.7 247,416.8 
			247.3,416.9 247.3,417 247.5,417.1 247.5,417.2 247.7,417.4 247.7,417.5 248,417.6 248,417.7 248.2,417.8 248.2,417.9 
			248.4,418.1 248.4,418.2 248.7,418.3 248.7,418.4 248.9,418.5 248.9,418.6 249.1,418.8 249.1,418.9 249.4,419 249.4,419.1 
			249.6,419.2 249.6,419.3 249.8,419.5 249.8,419.6 250.1,419.7 250.1,419.8 250.3,419.9 250.3,420 250.5,420.2 250.5,420.3 
			250.8,420.4 250.8,420.5 251,420.6 251,420.7 251.2,420.9 251.2,421 251.5,421.1 251.5,421.2 251.7,421.3 251.7,421.4 
			251.9,421.6 251.9,421.7 252.2,421.8 252.2,421.9 252.4,422 252.4,422.1 252.6,422.3 252.6,422.4 252.9,422.5 252.9,422.6 
			253.1,422.7 253.1,422.8 253.3,423 253.3,423.1 253.6,423.2 253.6,423.3 253.8,423.4 253.8,423.5 254,423.7 254,423.8 
			254.3,423.9 254.3,424 254.5,424.2 254.5,424.2 254.7,424.4 254.7,424.5 255,424.6 255,424.7 255.2,424.9 255.2,424.9 
			255.4,425.1 255.4,425.2 255.7,425.3 255.7,425.4 255.9,425.6 255.9,425.6 256.1,425.8 256.1,425.9 256.4,426 256.4,426.1 
			256.6,426.3 256.6,426.4 256.8,426.5 256.8,426.6 257.1,426.7 257.1,426.8 257.3,427 257.3,427.1 257.5,427.2 257.5,427.3 
			257.8,427.4 257.8,427.5 258,427.7 258,427.8 258.3,427.9 258.3,428 258.5,428.1 258.5,428.2 258.7,428.4 258.7,428.5 259,428.6 
			259,428.7 259.2,428.8 259.2,428.9 259.4,429.1 259.4,429.2 259.7,429.3 259.7,429.4 259.9,429.5 259.9,429.6 260.1,429.8 
			260.1,429.9 260.4,430 260.4,430.1 260.6,430.2 260.6,430.3 260.8,430.5 260.8,430.6 261.1,430.7 261.1,430.8 261.3,430.9 
			261.3,431 261.5,431.2 261.5,431.3 261.8,431.4 261.8,431.5 262,431.6 262,431.7 262.2,431.9 262.2,432 262.5,432.1 262.5,432.2 
			262.7,432.3 262.7,432.4 262.9,432.6 262.9,432.7 263.2,432.8 263.2,432.9 263.4,433 263.4,433.1 263.6,433.3 263.6,433.4 
			263.9,433.5 263.9,433.6 264.1,433.7 264.1,433.8 264.3,434 264.3,434.1 264.6,434.2 264.6,434.3 264.8,434.4 264.8,434.5 
			265,434.7 265,434.8 265.3,434.9 265.3,435 265.5,435.1 265.5,435.2 265.7,435.4 265.7,435.5 266,435.6 266,435.7 266.2,435.8 
			266.2,435.9 266.4,436.1 266.4,436.2 266.7,436.3 266.7,436.4 266.9,436.5 266.9,436.6 267.1,436.8 267.1,436.9 267.4,437 
			267.4,437.1 267.6,437.2 267.6,437.3 267.8,437.5 267.8,437.6 268.1,437.7 268.1,437.8 268.3,437.9 268.3,438 268.5,438.2 
			268.5,438.3 268.8,438.4 268.8,438.5 269,438.6 269,438.7 269.2,438.9 269.2,439 269.5,439.1 269.5,439.2 269.7,439.3 
			269.7,439.4 269.9,439.6 269.9,439.7 270.2,439.8 270.2,439.9 270.4,440 270.4,440.1 270.6,440.3 270.6,440.4 270.9,440.5 
			270.9,440.6 271.1,440.7 271.1,440.8 271.3,441 271.3,441.1 271.6,441.2 271.6,441.3 271.8,441.4 271.8,441.5 272,441.7 
			272,441.8 272.3,441.9 272.3,442 272.5,442.1 272.5,442.2 272.7,442.4 272.7,442.5 273,442.6 273,442.7 273.2,442.8 273.2,442.9 
			273.4,443.1 273.4,443.2 273.7,443.3 273.7,443.4 273.9,443.5 273.9,443.6 274.1,443.8 274.1,443.9 274.4,444 274.4,444.1 
			274.6,444.2 274.6,444.3 274.8,444.5 274.8,444.6 275.1,444.7 275.1,444.8 275.3,444.9 275.3,445 275.5,445.2 275.5,445.3 
			275.8,445.4 275.8,445.5 276,445.6 276,445.7 276.2,445.9 276.2,446 276.5,446.1 276.5,446.2 276.7,446.3 276.7,446.4 
			276.9,446.6 276.9,446.7 277.2,446.8 277.2,446.9 277.4,447 277.4,447.1 277.6,447.3 277.6,447.4 277.9,447.5 277.9,447.6 
			278.1,447.7 278.1,447.8 278.3,448 278.3,448.1 278.6,448.2 278.6,448.3 278.8,448.4 278.8,448.5 279,448.7 279,448.8 
			279.3,448.9 279.3,449 279.5,449.1 279.5,449.2 279.7,449.4 279.7,449.5 280,449.6 280,449.7 280.2,449.8 280.2,449.9 
			280.4,450.1 280.4,450.2 280.7,450.3 280.7,450.4 280.9,450.5 280.9,450.6 281.1,450.8 281.1,450.9 281.4,451 281.4,451.1 
			281.6,451.2 281.6,451.3 281.8,451.5 281.8,451.6 282.1,451.7 282.1,451.8 282.3,451.9 282.3,452 282.5,452.2 282.5,452.3 
			282.8,452.4 282.8,452.5 283,452.6 283,452.7 283.2,452.9 283.2,453 283.5,453.1 283.5,453.2 283.7,453.3 283.7,453.4 
			283.9,453.6 283.9,453.7 284.2,453.8 284.2,453.9 284.4,454 284.4,454.1 284.6,454.3 284.6,454.4 284.9,454.5 284.9,454.6 
			285.1,454.7 285.1,454.8 285.3,455 285.3,455.1 285.6,455.2 285.6,455.3 285.8,455.4 285.8,455.5 286,455.7 286,455.8 
			286.3,455.9 286.3,456 286.5,456.1 286.5,456.2 286.7,456.4 286.7,456.5 287,456.6 287,456.7 287.2,456.8 287.2,456.9 
			287.4,457.1 287.4,457.2 287.7,457.3 287.7,457.4 287.9,457.5 287.9,457.6 288.1,457.8 288.1,457.9 288.4,458 288.4,458.1 
			288.6,458.2 288.6,458.3 288.8,458.5 288.8,458.6 289.1,458.7 289.1,458.8 289.3,458.9 289.3,459 289.5,459.2 289.5,459.3 
			289.8,459.4 289.8,459.5 290,459.6 290,459.7 290.2,459.9 290.2,460 290.5,460.1 290.5,460.2 290.7,460.3 290.7,460.4 
			290.9,460.6 290.9,460.7 291.2,460.8 291.2,460.9 291.4,461 291.4,461.1 291.6,461.3 291.6,461.4 291.9,461.5 291.9,461.6 
			292.1,461.7 292.1,461.8 292.3,462 292.3,462.1 292.6,462.2 292.6,462.3 292.8,462.4 292.8,462.5 293,462.7 293,462.8 
			293.3,462.9 293.3,463 293.5,463.1 293.5,463.2 293.7,463.4 293.7,463.5 294,463.6 294,463.7 294.2,463.8 294.2,463.9 
			294.4,464.1 294.4,464.2 294.7,464.3 294.7,464.4 294.9,464.5 294.9,464.6 295.1,464.8 295.1,464.9 295.4,465 295.4,465.1 
			295.6,465.2 295.6,465.3 295.8,465.5 295.8,465.6 296.1,465.7 296.1,465.8 296.3,465.9 296.3,466 296.5,466.2 296.5,466.3 
			296.8,466.4 296.8,466.5 297,466.6 297,466.7 297.2,466.9 297.2,467 297.5,467.1 297.5,467.2 297.7,467.3 297.7,467.4 
			297.9,467.6 297.9,467.7 298.2,467.8 298.2,467.9 298.4,468 298.4,468.1 298.6,468.3 298.6,468.4 298.9,468.5 298.9,468.6 
			299.1,468.7 299.1,468.8 299.3,469 299.3,469.1 299.6,469.2 299.6,469.3 299.8,469.4 299.8,469.5 300,469.7 300,469.8 
			300.3,469.9 300.3,470 300.5,470.1 300.5,470.2 300.7,470.4 300.7,470.5 301,470.6 301,470.7 301.2,470.8 301.2,470.9 
			301.4,471.1 301.4,471.2 301.7,471.3 301.7,471.4 301.9,471.5 301.9,471.6 302.1,471.8 302.1,471.9 302.4,472 302.4,472.1 
			302.6,472.2 302.6,472.3 302.8,472.5 302.8,472.6 303.1,472.7 303.1,472.8 303.3,472.9 303.3,473 303.5,473.2 303.5,473.3 
			303.8,473.4 303.8,473.5 304,473.7 304,473.7 304.2,473.9 304.2,474 304.5,474.1 304.5,474.2 304.7,474.4 304.7,474.4 
			304.9,474.6 304.9,474.7 305.2,474.8 305.2,474.9 305.4,475.1 305.4,475.1 305.6,475.3 305.6,475.4 305.9,475.5 305.9,475.6 
			306.1,475.8 306.1,475.9 306.3,476 306.3,476.1 306.6,476.2 306.6,476.3 306.8,476.5 306.8,476.6 307,476.7 307,476.8 
			307.3,476.9 307.3,477 307.5,477.2 307.5,477.3 307.8,477.4 307.8,477.5 308,477.6 308,477.7 308.2,477.9 308.2,478 308.5,478.1 
			308.5,478.2 308.7,478.3 308.7,478.4 308.9,478.6 308.9,478.7 309.2,478.8 309.2,478.9 309.4,479 309.4,479.1 309.6,479.3 
			309.6,479.4 309.9,479.5 309.9,479.6 310.1,479.7 310.1,479.8 310.3,480 310.3,480.1 310.6,480.2 310.6,480.3 310.8,480.4 
			310.8,480.5 311,480.7 311,480.8 311.3,480.9 311.3,481 311.5,481.1 311.5,481.2 311.7,481.4 311.7,481.5 312,481.6 312,481.7 
			312.2,481.8 312.2,481.9 312.4,482.1 312.4,482.2 312.7,482.3 312.7,482.4 312.9,482.5 312.9,482.6 313.1,482.8 313.1,482.9 
			313.4,483 313.4,483.1 313.6,483.2 313.6,483.3 313.8,483.5 313.8,483.6 314.1,483.7 314.1,483.8 314.3,483.9 314.3,484 
			314.5,484.2 314.5,484.3 314.8,484.4 314.8,484.5 315,484.6 315,484.7 315.2,484.9 315.2,485 315.5,485.1 315.5,485.2 
			315.7,485.3 315.7,485.4 315.9,485.6 315.9,485.7 316.2,485.8 316.2,485.9 316.4,486 316.4,486.1 316.6,486.3 316.6,486.4 
			316.9,486.5 316.9,486.6 317.1,486.7 317.1,486.8 317.3,487 317.3,487.1 317.6,487.2 317.6,487.3 317.8,487.4 317.8,487.5 
			318,487.7 318,487.8 318.3,487.9 318.3,488 318.5,488.1 318.5,488.2 318.7,488.4 318.7,488.5 319,488.6 319,488.7 319.2,488.8 
			319.2,488.9 319.4,489.1 319.4,489.2 319.7,489.3 319.7,489.4 319.9,489.5 319.9,489.6 320.1,489.8 320.1,489.9 320.4,490 
			320.4,490.1 320.6,490.2 320.6,490.3 320.8,490.5 320.8,490.6 321.1,490.7 321.1,490.8 321.3,490.9 321.3,491 321.5,491.2 
			321.5,491.3 321.8,491.4 321.8,491.5 322,491.6 322,491.7 322.2,491.9 322.2,492 322.5,492.1 322.5,492.2 322.7,492.3 
			322.7,492.4 322.9,492.6 322.9,492.7 323.2,492.8 323.2,492.9 323.4,493 323.4,493.1 323.6,493.3 323.6,493.4 323.9,493.5 
			323.9,493.6 324.1,493.7 324.1,493.8 324.3,494 324.3,494.1 324.6,494.2 324.6,494.3 324.8,494.4 324.8,494.5 325,494.7 
			325,494.8 325.3,494.9 325.3,495 325.5,495.1 325.5,495.2 325.7,495.4 325.7,495.5 326,495.6 326,495.7 326.2,495.8 326.2,495.9 
			326.4,496.1 326.4,496.2 326.7,496.3 326.7,496.4 326.9,496.5 326.9,496.6 327.1,496.8 327.1,496.9 327.4,497 327.4,497.1 
			327.6,497.2 327.6,497.3 327.8,497.5 327.8,497.6 328.1,497.7 328.1,497.8 328.3,497.9 328.3,498 328.5,498.2 328.5,498.3 
			328.8,498.4 328.8,498.5 329,498.6 329,498.7 329.2,498.9 329.2,499 329.5,499.1 329.5,499.2 329.7,499.3 329.7,499.4 
			329.9,499.6 329.9,499.7 330.2,499.8 330.2,499.9 330.4,500 330.4,500.1 330.6,500.3 330.6,500.4 330.9,500.5 330.9,500.6 
			331.1,500.7 331.1,500.8 331.3,501 331.3,501.1 331.6,501.2 331.6,501.3 331.8,501.4 331.8,501.5 332,501.7 332,501.8 
			332.3,501.9 332.3,502 332.5,502.1 332.5,502.2 332.7,502.4 332.7,502.5 333,502.6 333,502.7 333.2,502.8 333.2,502.9 
			333.4,503.1 333.4,503.2 333.7,503.3 333.7,503.4 333.9,503.5 333.9,503.6 334.1,503.8 334.1,503.9 334.4,504 334.4,504.1 
			334.6,504.2 334.6,504.3 334.8,504.5 334.8,504.6 335.1,504.7 335.1,504.8 335.3,504.9 335.3,505 335.5,505.2 335.5,505.3 
			335.8,505.4 335.8,505.5 336,505.6 336,505.7 336.2,505.9 336.2,506 336.5,506.1 336.5,506.2 336.7,506.3 336.7,506.4 
			336.9,506.6 336.9,506.7 337.2,506.8 337.2,506.9 337.4,507 337.4,507.1 337.6,507.3 337.6,507.4 337.9,507.5 337.9,507.6 
			338.1,507.7 338.1,507.8 338.3,508 338.3,508.1 338.6,508.2 338.6,508.3 338.8,508.4 338.8,508.5 339,508.7 339,508.8 
			339.3,508.9 339.3,509 339.5,509.1 339.5,509.2 339.7,509.4 339.7,509.5 340,509.6 340,509.7 340.2,509.8 340.2,509.9 
			340.4,510.1 340.4,510.2 340.7,510.3 340.7,510.4 340.9,510.5 340.9,510.6 341.1,510.8 341.1,510.9 341.4,511 341.4,511.1 
			341.6,511.2 341.6,511.3 341.8,511.5 341.8,511.6 342.1,511.7 342.1,511.8 342.3,511.9 342.3,512 342.5,512.2 342.5,512.3 
			342.8,512.4 342.8,512.5 343,512.6 343,512.7 343.2,512.9 343.2,513 343.5,513.1 343.5,513.2 343.7,513.3 343.7,513.4 
			343.9,513.6 343.9,513.7 344.2,513.8 344.2,513.9 344.4,514 344.4,514.1 344.6,514.3 344.6,514.4 344.9,514.5 344.9,514.6 
			345.1,514.7 345.1,514.8 345.3,515 345.3,515.1 345.6,515.2 345.6,515.3 345.8,515.4 345.8,515.5 346,515.7 346,515.8 
			346.3,515.9 346.3,516 346.5,516.1 346.5,516.2 346.7,516.4 346.7,516.5 347,516.6 347,516.7 347.2,516.8 347.2,516.9 
			347.4,517.1 347.4,517.2 347.7,517.3 347.7,517.4 347.9,517.5 347.9,517.6 348.1,517.8 348.1,517.9 348.4,518 348.4,518.1 
			348.6,518.2 348.6,518.3 348.8,518.5 348.8,518.6 349.1,518.7 349.1,518.8 349.3,518.9 349.3,519 349.5,519.2 349.5,519.3 
			349.8,519.4 349.8,519.5 350,519.6 350,519.7 350.2,519.9 350.2,520 350.5,520.1 350.5,520.2 350.7,520.3 350.7,520.4 
			350.9,520.6 350.9,520.7 351.2,520.8 351.2,520.9 351.4,521 351.4,521.1 351.6,521.3 351.6,521.4 351.9,521.5 351.9,521.6 
			352.1,521.7 352.1,521.8 352.3,522 352.3,522.1 352.6,522.2 352.6,522.3 352.8,522.4 352.8,522.5 353,522.7 353,522.8 
			353.3,522.9 353.3,523 353.5,523.2 353.5,523.2 353.7,523.4 353.7,523.5 354,523.6 354,523.7 354.2,523.9 354.2,523.9 
			354.4,524.1 354.4,524.2 354.7,524.3 354.7,524.4 354.9,524.6 354.9,524.6 355.1,524.8 355.1,524.9 355.4,525 355.4,525.1 
			355.6,525.3 355.6,525.4 355.8,525.5 355.8,525.6 356.1,525.7 356.1,525.8 356.3,526 356.3,526.1 356.5,526.2 356.5,526.3 
			356.8,526.4 356.8,526.5 357,526.7 357,526.8 357.3,526.9 357.3,527 357.5,527.1 357.5,527.2 357.7,527.4 357.7,527.5 358,527.6 
			358,527.7 358.2,527.8 358.2,527.9 358.4,528.1 358.4,528.2 358.7,528.3 358.7,528.4 358.9,528.5 358.9,528.6 359.1,528.8 
			359.1,528.9 359.4,529 359.4,529.1 359.6,529.2 359.6,529.3 359.8,529.5 359.8,529.6 360.1,529.7 360.1,529.8 360.3,529.9 
			360.3,530 360.5,530.2 360.5,530.3 360.8,530.4 360.8,530.5 361,530.6 361,530.7 361.2,530.9 361.2,531 361.5,531.1 361.5,531.2 
			361.7,531.3 361.7,531.4 361.9,531.6 361.9,531.7 362.2,531.8 362.2,531.9 362.4,532 362.4,532.1 362.6,532.3 362.6,532.4 
			362.9,532.5 362.9,532.6 363.1,532.7 363.1,532.8 363.3,533 363.3,533.1 363.6,533.2 363.6,533.3 363.8,533.4 363.8,533.5 
			364,533.7 364,533.8 364.3,533.9 364.3,534 364.5,534.1 364.5,534.2 364.7,534.4 364.7,534.5 365,534.6 365,534.7 365.2,534.8 
			365.2,534.9 365.4,535.1 365.4,535.2 365.7,535.3 365.7,535.4 365.9,535.5 365.9,535.6 366.1,535.8 366.1,535.9 366.4,536 
			366.4,536.1 366.6,536.2 366.6,536.3 366.8,536.5 366.8,536.6 367.1,536.7 367.1,536.8 367.3,536.9 367.3,537 367.5,537.2 
			367.5,537.3 367.8,537.4 367.8,537.5 368,537.6 368,537.7 368.2,537.9 368.2,538 368.5,538.1 368.5,538.2 368.7,538.3 
			368.7,538.4 368.9,538.6 368.9,538.7 369.2,538.8 369.2,538.9 369.4,539 369.4,539.1 369.6,539.3 369.6,539.4 369.9,539.5 
			369.9,539.6 370.1,539.7 370.1,539.8 370.3,540 370.3,540.1 370.6,540.2 370.6,540.3 370.8,540.4 370.8,540.5 371,540.7 
			371,540.8 371.3,540.9 371.3,541 371.5,541.1 371.5,541.2 371.7,541.4 371.7,541.5 372,541.6 372,541.7 372.2,541.8 372.2,541.9 
			372.4,542.1 372.4,542.2 372.7,542.3 372.7,542.4 372.9,542.5 372.9,542.6 373.1,542.8 373.1,542.9 373.4,543 373.4,543.1 
			373.6,543.2 373.6,543.3 373.8,543.5 373.8,543.6 374.1,543.7 374.1,543.8 374.3,543.9 374.3,544 374.5,544.2 374.5,544.3 
			374.8,544.4 374.8,544.5 375,544.6 375,544.7 375.2,544.9 375.2,545 375.5,545.1 375.5,545.2 375.7,545.3 375.7,545.4 
			375.9,545.6 375.9,545.7 376.2,545.8 376.2,545.9 376.4,546 376.4,546.1 376.6,546.3 376.6,546.4 376.9,546.5 376.9,546.6 
			377.1,546.7 377.1,546.8 377.3,547 377.3,547.1 377.6,547.2 377.6,547.3 377.8,547.4 377.8,547.5 378,547.7 378,547.8 
			378.3,547.9 378.3,548 378.5,548.1 378.5,548.2 378.7,548.4 378.7,548.5 379,548.6 379,548.7 379.2,548.8 379.2,548.9 
			379.4,549.1 379.4,549.2 379.7,549.3 379.7,549.4 379.9,549.5 379.9,549.6 380.1,549.8 380.1,549.9 380.4,550 380.4,550.1 
			380.6,550.2 380.6,550.3 380.8,550.5 380.8,550.6 381.1,550.7 381.1,550.8 381.3,550.9 381.3,551 381.5,551.2 381.5,551.3 
			381.8,551.4 381.8,551.5 382,551.6 382,551.7 382.2,551.9 382.2,552 382.5,552.1 382.5,552.2 382.7,552.3 382.7,552.4 
			382.9,552.6 382.9,552.7 383.2,552.8 383.2,552.9 383.4,553 383.4,553.1 383.6,553.3 383.6,553.4 383.9,553.5 383.9,553.6 
			384.1,553.7 384.1,553.8 384.3,554 384.3,554.1 384.6,554.2 384.6,554.3 384.8,554.4 384.8,554.5 385,554.7 385,554.8 
			385.3,554.9 385.3,555 385.5,555.1 385.5,555.2 385.7,555.4 385.7,555.5 386,555.6 386,555.7 386.2,555.8 386.2,555.9 
			386.4,556.1 386.4,556.2 386.7,556.3 386.7,556.4 386.9,556.5 386.9,556.6 387.1,556.8 387.1,556.9 387.4,557 387.4,557.1 
			387.6,557.2 387.6,557.3 387.8,557.5 387.8,557.6 388.1,557.7 388.1,557.8 388.3,557.9 388.3,558 388.5,558.2 388.5,558.3 
			388.8,558.4 388.8,558.5 389,558.6 389,558.7 389.2,558.9 389.2,559 389.5,559.1 389.5,559.2 389.7,559.3 389.7,559.4 
			389.9,559.6 389.9,559.7 390.2,559.8 390.2,559.9 390.4,560 390.4,560.1 390.6,560.3 390.6,560.4 390.9,560.5 390.9,560.6 
			391.1,560.7 391.1,560.8 391.3,561 391.3,561.1 391.6,561.2 391.6,561.3 391.8,561.4 391.8,561.5 392,561.7 392,561.8 
			392.3,561.9 392.3,562 392.5,562.1 392.5,562.2 392.7,562.4 392.7,562.5 393,562.6 393,562.7 393.2,562.8 393.2,562.9 
			393.4,563.1 393.4,563.2 393.7,563.3 393.7,563.4 393.9,563.5 393.9,563.6 394.1,563.8 394.1,563.9 394.4,564 394.4,564.1 
			394.6,564.2 394.6,564.3 394.8,564.5 394.8,564.6 395.1,564.7 395.1,564.8 395.3,564.9 395.3,565 395.5,565.2 395.5,565.3 
			395.8,565.4 395.8,565.5 396,565.6 396,565.7 396.2,565.9 396.2,566 396.5,566.1 396.5,566.2 396.7,566.3 396.7,566.4 
			396.9,566.6 396.9,566.7 397.2,566.8 397.2,566.9 397.4,567 397.4,567.1 397.6,567.3 397.6,567.4 397.9,567.5 397.9,567.6 
			398.1,567.7 398.1,567.8 398.3,568 398.3,568.1 398.6,568.2 398.6,568.3 398.8,568.4 398.8,568.5 399,568.7 399,568.8 
			399.3,568.9 399.3,569 399.5,569.1 399.5,569.2 399.7,569.4 399.7,569.5 400,569.6 400,569.7 400.2,569.8 400.2,569.9 
			400.4,570.1 400.4,570.2 400.7,570.3 400.7,570.4 400.9,570.5 400.9,570.6 401.1,570.8 401.1,570.9 401.4,571 401.4,571.1 
			401.6,571.2 401.6,571.3 401.8,571.5 401.8,571.6 402.1,571.7 402.1,571.8 402.3,571.9 402.3,572 402.5,572.2 402.5,572.3 
			402.8,572.4 402.8,572.5 403,572.7 403,572.7 403.2,572.9 403.2,573 403.5,573.1 403.5,573.2 403.7,573.4 403.7,573.4 
			403.9,573.6 403.9,573.7 404.2,573.8 404.2,573.9 404.4,574.1 404.4,574.1 404.6,574.3 404.6,574.4 404.9,574.5 404.9,574.6 
			405.1,574.8 405.1,574.9 405.3,575 405.3,575.1 405.6,575.2 405.6,575.3 405.8,575.5 405.8,575.6 406,575.7 406,575.8 
			406.3,575.9 406.3,576 406.5,576.2 406.5,576.3 406.8,576.4 406.8,576.5 407,576.6 407,576.7 407.2,576.9 407.2,577 407.5,577.1 
			407.5,577.2 407.7,577.3 407.7,577.4 407.9,577.6 407.9,577.7 408.2,577.8 408.2,577.9 408.4,578 408.4,578.1 408.6,578.3 
			408.6,578.4 408.9,578.5 408.9,578.6 409.1,578.7 409.1,578.8 409.3,579 409.3,579.1 409.6,579.2 409.6,579.3 409.8,579.4 
			409.8,579.5 410,579.7 410,579.8 410.3,579.9 410.3,580 410.5,580.1 410.5,580.2 410.7,580.4 410.7,580.5 411,580.6 411,580.7 
			411.2,580.8 411.2,580.9 411.4,581.1 411.4,581.2 411.7,581.3 411.7,581.4 411.9,581.5 411.9,581.6 412.1,581.8 412.1,581.9 
			412.4,582 412.4,582.1 412.6,582.2 412.6,582.3 412.8,582.5 412.8,582.6 413.1,582.7 413.1,582.8 413.3,582.9 413.3,583 
			413.5,583.2 413.5,583.3 413.8,583.4 413.8,583.5 414,583.6 414,583.7 414.2,583.9 414.2,584 414.5,584.1 414.5,584.2 
			414.7,584.3 414.7,584.4 414.9,584.6 414.9,584.7 415.2,584.8 415.2,584.9 415.4,585 415.4,585.1 415.6,585.3 415.6,585.4 
			415.9,585.5 415.9,585.6 416.1,585.7 416.1,585.8 416.3,586 416.3,586.1 416.6,586.2 416.6,586.3 416.8,586.4 416.8,586.5 
			417,586.7 417,586.8 417.3,586.9 417.3,587 417.5,587.1 417.5,587.2 417.7,587.4 417.7,587.5 418,587.6 418,587.7 418.2,587.8 
			418.2,587.9 418.4,588.1 418.4,588.2 418.7,588.3 418.7,588.4 418.9,588.5 418.9,588.6 419.1,588.8 419.1,588.9 419.4,589 
			419.4,589.1 419.6,589.2 419.6,589.3 419.8,589.5 419.8,589.6 420.1,589.7 420.1,589.8 420.3,589.9 420.3,590 420.5,590.2 
			420.5,590.3 420.8,590.4 420.8,590.5 421,590.6 421,590.7 421.2,590.9 421.2,591 421.5,591.1 421.5,591.2 421.7,591.3 
			421.7,591.4 421.9,591.6 421.9,591.7 422.2,591.8 422.2,591.9 422.4,592 422.4,592.1 422.6,592.3 422.6,592.4 476.8,623.7 		"/>
	</g>
	<polygon id="XMLID_434_" class="st4" points="297.3,345.1 302,345.1 356,278.5 356,390.9 411.9,358.6 411.9,229.9 358.3,198.9 
		300.3,269.5 242.5,198.9 188.9,229.9 188.9,358.6 243.1,389.9 243.1,278.5 	"/>
	<path class="st4" d="M217.9,600H246c-0.7-0.3-1.4-0.6-2.1-1h-26V600z"/>
	<polygon class="st4" points="116.9,510.4 96.2,485.2 77.8,485.2 77.8,552.4 97.5,552.4 97.5,513.5 115.9,536 117.5,536 
		135.8,513.5 135.8,552.4 156.1,552.4 156.1,485.2 137.7,485.2 	"/>
	<polygon class="st4" points="191.4,524.5 219.6,524.5 219.6,511 191.4,511 191.4,498.6 221,498.6 221,485.2 171.1,485.2 
		171.1,552.4 221.8,552.4 221.8,538.9 191.4,538.9 	"/>
	<polygon class="st4" points="272.5,510.4 251.8,485.2 233.4,485.2 233.4,552.4 253.1,552.4 253.1,513.5 271.5,536 273.1,536 
		291.4,513.5 291.4,552.4 311.6,552.4 311.6,485.2 293.2,485.2 	"/>
	<path class="st4" d="M326.6,552.4h38.9c5.6,0,10.3-1.1,13.9-3.3c1-0.6,1.9-1.2,2.7-1.9c4-3.5,5.9-8.1,5.9-13.9
		c0-4.4-1.2-8-3.6-10.8s-5.9-5.1-10.5-6.9c1.5-0.5,2.9-1.5,4.3-2.8c1.4-1.3,2.6-3.1,3.6-5.1s1.5-4.4,1.5-6.8c0-2.3-0.5-4.4-1.4-6.3
		c-0.9-1.9-2.4-3.6-4.3-5s-4.4-2.5-7.5-3.3c-3.1-0.8-6.8-1.2-11-1.2h-32.5v11.1l0,0V552.4z M367.7,532.5c0,1.5-0.3,2.8-0.9,3.9
		c-1.6,3.1-5.5,4.7-11.6,4.7h-8.3v-17.2h7.3h1C363.5,523.9,367.7,526.8,367.7,532.5z M346.9,496.5h4.3c4.5,0,7.9,0.5,10,1.6
		c2.1,1.1,3.2,3.2,3.2,6.5s-1,5.4-3.1,6.5c-2.1,1.1-5.4,1.6-10,1.6h-4.4V496.5z"/>
	<polygon class="st4" points="419.4,524.5 447.6,524.5 447.6,511 419.4,511 419.4,498.6 449,498.6 449,485.2 399.1,485.2 
		399.1,552.4 449.8,552.4 449.8,538.9 419.4,538.9 	"/>
	<path class="st4" d="M514,527.3c-1.4-1.7-3.2-3.2-5.4-4.5c1.8-1,3.4-2,4.9-3.1c1.5-1.1,2.8-2.8,4.2-5.1c1.3-2.3,2-5.2,2-8.6
		c0-2.9-0.8-6-2.4-9.2c-1.6-3.2-4.1-6-7.7-8.3c-3.6-2.3-8.1-3.4-13.7-3.4h-34.5v67.3h20.3v-26.3h2.3c2.3,0,4.2,0.3,5.7,0.8
		c1.5,0.6,3,1.9,4.5,3.9c1.6,2,3.3,5.2,5.2,9.6l5.3,11.9h21.8l-6.8-14.6C517.3,532.5,515.4,529,514,527.3z M496.3,512.7
		c-1.8,1.1-5.2,1.6-10.2,1.6h-4.4v-16.2h4.3c4.6,0,7.9,0.6,10,1.8c2,1.2,3.1,3.4,3.1,6.5C499,509.5,498.1,511.6,496.3,512.7z"/>
	<path class="st4" d="M368.7,437.9h-4.3v15.6h1.2v-7.3h3c1.7,0,3-0.4,3.9-1.1c0.9-0.8,1.3-1.8,1.3-3.1c0-1.3-0.4-2.3-1.3-3
		C371.6,438.2,370.4,437.9,368.7,437.9z M371.5,444.3c-0.7,0.5-1.7,0.8-3,0.8h-2.9v-6.3h3c1.2,0,2.2,0.3,2.8,0.8
		c0.7,0.6,1,1.3,1,2.3C372.5,443,372.2,443.8,371.5,444.3z"/>
	<path class="st4" d="M384.1,445.7c2-0.7,3-2,3-3.8c0-1.2-0.4-2.2-1.3-2.9c-0.9-0.7-2.2-1.1-3.8-1.1h-4v15.6h1.2V446h2.1
		c1,0,1.7,0.2,2.2,0.5c0.5,0.4,1.2,1.2,2.1,2.7l2.7,4.3h1.4l-3.5-5.4C385.3,446.7,384.6,445.9,384.1,445.7z M381.7,445h-2.6v-6.1
		h2.5c1.3,0,2.3,0.3,3,0.8c0.7,0.5,1.1,1.3,1.1,2.2c0,1-0.3,1.7-1,2.3C384,444.7,383,445,381.7,445z"/>
	<path class="st4" d="M405.9,451.3c1.6-1.5,2.4-3.4,2.4-5.7c0-2.2-0.8-4.1-2.4-5.7c-1.6-1.5-3.6-2.3-5.9-2.3c-2.3,0-4.2,0.8-5.8,2.3
		c-1.6,1.5-2.4,3.4-2.4,5.7c0,2.2,0.8,4.1,2.4,5.7c1.6,1.5,3.5,2.3,5.8,2.3C402.4,453.6,404.3,452.8,405.9,451.3z M393.1,445.6
		c0-1.9,0.7-3.6,2-4.9c1.3-1.3,3-2,4.9-2c1.9,0,3.6,0.7,4.9,2c1.3,1.3,2,3,2,4.9c0,1.9-0.7,3.5-2,4.9c-1.3,1.3-3,2-4.9,2
		c-1.9,0-3.6-0.7-4.9-2C393.8,449.2,393.1,447.6,393.1,445.6z"/>
	<path class="st4" d="M411.1,458c0.9,0,1.6-0.3,2.3-1c0.6-0.7,1-1.8,1-3.6v-15.6h-1.2v15.9c0,2.1-0.7,3.1-2.2,3.1
		c-0.2,0-0.5,0-0.7-0.1l0.1,1.1C410.7,457.9,410.9,458,411.1,458z"/>
	<polygon class="st4" points="428.4,452.4 420.9,452.4 420.9,446.1 428,446.1 428,445.1 420.9,445.1 420.9,438.9 428.2,438.9 
		428.2,437.9 419.7,437.9 419.7,453.4 428.4,453.4 	"/>
	<path class="st4" d="M440.3,453.6c1.8,0,3.7-0.5,5.5-1.5v-1.2c-2,1.1-3.8,1.6-5.5,1.6c-2,0-3.7-0.6-5-1.9c-1.3-1.3-2-2.9-2-4.9
		c0-2,0.6-3.6,2-4.9c1.3-1.3,2.9-2,4.8-2c1.8,0,3.7,0.5,5.6,1.5V439c-1.9-0.9-3.7-1.3-5.5-1.3c-2.2,0-4.1,0.8-5.8,2.3
		c-1.6,1.5-2.4,3.4-2.4,5.7c0,2.3,0.8,4.2,2.4,5.7C435.9,452.9,437.9,453.6,440.3,453.6z"/>
	<polygon class="st4" points="448.2,438.9 454.1,438.9 454.1,453.4 455.3,453.4 455.3,438.9 461.1,438.9 461.1,437.9 448.2,437.9 	
		"/>
	<path class="st4" d="M147.9,437.7c-2.3,0-4.2,0.8-5.8,2.3c-1.6,1.5-2.4,3.4-2.4,5.7c0,2.2,0.8,4.1,2.4,5.7c1.6,1.5,3.5,2.3,5.8,2.3
		c2.3,0,4.3-0.8,5.9-2.3c1.6-1.5,2.4-3.4,2.4-5.7c0-2.2-0.8-4.1-2.4-5.7C152.2,438.4,150.2,437.7,147.9,437.7z M152.9,450.5
		c-1.3,1.3-3,2-4.9,2c-1.9,0-3.6-0.7-4.9-2c-1.3-1.3-2-2.9-2-4.9c0-1.9,0.7-3.6,2-4.9c1.3-1.3,3-2,4.9-2c1.9,0,3.6,0.7,4.9,2
		c1.3,1.3,2,3,2,4.9C154.9,447.6,154.2,449.2,152.9,450.5z"/>
	<path class="st4" d="M163.4,437.9h-4.3v15.6h1.2v-7.3h3c1.7,0,3-0.4,3.9-1.1c0.9-0.7,1.3-1.8,1.3-3.1c0-1.3-0.4-2.3-1.3-3
		C166.3,438.2,165,437.9,163.4,437.9z M166.1,444.3c-0.7,0.5-1.7,0.8-3,0.8h-2.9v-6.3h3c1.2,0,2.2,0.3,2.8,0.8c0.7,0.6,1,1.3,1,2.3
		C167.2,443,166.8,443.8,166.1,444.3z"/>
	<polygon class="st4" points="179.4,452.4 172,452.4 172,446.1 179.1,446.1 179.1,445.1 172,445.1 172,438.9 179.2,438.9 
		179.2,437.9 170.8,437.9 170.8,453.4 179.4,453.4 	"/>
	<polygon class="st4" points="183.1,439.8 194.9,453.4 195.9,453.4 195.9,437.9 194.7,437.9 194.7,451.4 182.9,437.9 181.9,437.9 
		181.9,453.4 183.1,453.4 	"/>
	<polygon class="st4" points="207.3,444.7 211.5,449.8 211.9,449.8 216.1,444.7 216.1,453.6 220.7,453.6 220.7,438.2 216.5,438.2 
		211.7,444 207,438.2 202.8,438.2 202.8,453.6 207.3,453.6 	"/>
	<path class="st4" d="M236.8,453.6h4.8l-6.8-15.4h-5.1l-6.8,15.4h4.8l1.3-3.1h6.7L236.8,453.6z M229.9,447.8l2.3-5.6l2.3,5.6H229.9z
		"/>
	<rect x="243.6" y="438.2" class="st4" width="4.7" height="15.4"/>
	<polygon class="st4" points="264.3,446.7 256.3,438.2 252.2,438.2 252.2,453.6 256.8,453.6 256.8,445 264.8,453.6 268.9,453.6 
		268.9,438.6 268.9,438.6 268.9,438.2 268.5,438.2 264.3,438.2 	"/>
	<polygon class="st4" points="277.5,453.6 277.5,447.4 277.6,447.4 283.9,447.4 283.9,444.3 277.5,444.3 277.5,441.3 283.9,441.3 
		283.9,438.2 272.8,438.2 272.8,442.5 272.8,442.5 272.8,453.6 	"/>
	<path class="st4" d="M299.1,447.8c-0.3-0.4-0.7-0.7-1.2-1c0.4-0.2,0.8-0.5,1.1-0.7c0.3-0.2,0.7-0.6,1-1.2c0.3-0.5,0.5-1.2,0.5-2
		c0-0.7-0.2-1.4-0.5-2.1c-0.4-0.7-0.9-1.4-1.8-1.9c-0.8-0.5-1.9-0.8-3.1-0.8H287v15.4h4.7v-6h0.5c0.5,0,1,0.1,1.3,0.2
		c0.3,0.1,0.7,0.4,1,0.9c0.4,0.5,0.8,1.2,1.2,2.2l1.2,2.7h5l-1.6-3.4C299.8,449,299.4,448.2,299.1,447.8z M295,444.5
		c-0.4,0.2-1.2,0.4-2.3,0.4h-1v-3.7h1c1.1,0,1.8,0.1,2.3,0.4c0.5,0.3,0.7,0.8,0.7,1.5C295.6,443.8,295.4,444.2,295,444.5z"/>
	<path class="st4" d="M309.1,438.2l-6.8,15.4h4.8l1.3-3.1h6.7l1.3,3.1h4.8l-6.8-15.4H309.1z M309.4,447.8l2.3-5.6l2.3,5.6H309.4z"/>
	<polygon class="st4" points="332,444 327.3,438.2 323.1,438.2 323.1,453.6 327.6,453.6 327.6,444.7 331.8,449.8 332.2,449.8 
		336.4,444.7 336.4,453.6 341,453.6 341,438.2 336.8,438.2 	"/>
	<polygon class="st4" points="349.6,447.2 356,447.2 356,444.1 349.6,444.1 349.6,441.3 356.4,441.3 356.4,438.2 344.9,438.2 
		344.9,453.6 356.6,453.6 356.6,450.5 349.6,450.5 	"/>
</g>
</svg>
