<svg id="Layer_1" data-name="Layer 1" xmlns="http://www.w3.org/2000/svg" xmlns:xlink="http://www.w3.org/1999/xlink" viewBox="0 0 624.23506 469.28291"><defs><style>.cls-1{fill:none;}.cls-2{fill:#488eff;}.cls-3{clip-path:url(#clip-path);}.cls-4{opacity:0.9;}.cls-5{fill:#3274f9;}.cls-6{fill:#fff;}.cls-7{opacity:0.58;}</style><clipPath id="clip-path"><path class="cls-1" d="M75.08134,7.3774H548.39027a63.34554,63.34554,0,0,1,63.34552,63.34553V342.14164h-600V70.72293A63.34553,63.34553,0,0,1,75.08132,7.3774Z"/></clipPath></defs><path class="cls-2" d="M611.73579,342.14164h-600V70.72293A63.34553,63.34553,0,0,1,75.08132,7.3774h473.309a63.34554,63.34554,0,0,1,63.34552,63.34553"/><path class="cls-2" d="M608.13569,355.91258V459.68294H15.33591V355.91258H608.13569m3.6001-3.6h-600V463.28291h600Z"/><g class="cls-3"><g class="cls-4"><path class="cls-5" d="M367.26463-133.6226.32319,119.436,253.38176,486.3774,620.32319,233.31883ZM266.2986,322.44475,291.88966,82.31882,166.36079,168.889l13.9624-37.51161-45.2933-7.91884L327.19273-9.06533,354.3462,30.308l-25.589,240.12455,129.5664-89.35461,31.33231,45.43249L293.45347,361.82Z"/></g></g><polygon class="cls-6" points="154.104 110.59 154.106 110.591 154.105 110.59 154.104 110.59"/><path class="cls-1" d="M391.91136,66.95147a1.61834,1.61834,0,0,0,.65225-1.44775V65.4574a1.6215,1.6215,0,0,0-.74008-1.5356,4.731,4.731,0,0,0-2.36365-.44867h-1.013v3.87149h1.0315A5.41649,5.41649,0,0,0,391.91136,66.95147Z"/><path class="cls-1" d="M483.96382,66.80349a2.72575,2.72575,0,0,0,.31912-3.83913l-.333-.333a4.63383,4.63383,0,0,0-2.82617-.754h-2.36355v5.66622h2.39135A4.66026,4.66026,0,0,0,483.96382,66.80349Z"/><path class="cls-1" d="M471.67119,66.90524a2.89729,2.89729,0,0,0,.20944-4.09206v0l-.00134-.00148a.26155.26155,0,0,1-.03241-.037l-.14341-.15728a4.01272,4.01272,0,0,0-2.64114-.78166l-2.82611.04159v5.79575h2.68271A4.20062,4.20062,0,0,0,471.67119,66.90524Z"/><path class="cls-1" d="M346.61287,128.401c-11.02579,0-17.61566,8.49087-17.61566,18.50256v.253c0,10.01167,7.22378,18.75625,17.86938,18.75625,11.02506,0,17.61493-8.49087,17.61493-18.50255v-.2537C364.48149,137.1452,357.25773,128.401,346.61287,128.401Z"/><polygon class="cls-1" points="409.201 64.589 406.837 70.385 411.551 70.385 409.201 64.589"/><path class="cls-1" d="M255.08325,67.84834a3.273,3.273,0,0,0,.17577-4.62082.67407.67407,0,0,0-.1619-.1619,4.32064,4.32064,0,0,0-2.89552-.88344h-3.2054v6.52191H252.012A4.83819,4.83819,0,0,0,255.08325,67.84834Z"/><path class="cls-1" d="M530.75148,127.2604c-7.98419,0-13.17975,5.70263-14.70056,14.44721h29.02093C543.93123,133.08988,538.8622,127.2604,530.75148,127.2604Z"/><polygon class="cls-1" points="326.713 64.589 324.34 70.385 329.063 70.385 326.713 64.589"/><path class="cls-1" d="M231.02487,74.32768a7.36938,7.36938,0,0,0,10.21764,0,7.24578,7.24578,0,0,0,0-10.14359,7.37219,7.37219,0,0,0-10.21764,0,7.15509,7.15509,0,0,0-.02475,10.11878l.00627.00627Z"/><path class="cls-1" d="M502.77546,72.72034a6.46629,6.46629,0,0,0,0-9.07511,6.56,6.56,0,0,0-9.14456,0,6.407,6.407,0,0,0-.00052,9.06073l.00052.00049a6.25563,6.25563,0,0,0,4.57929,1.84095v.01387A6.20625,6.20625,0,0,0,502.77546,72.72034Z"/><path class="cls-6" d="M466.23634,68.6444h2.75214a5.38206,5.38206,0,0,0,3.60785-1.04071,3.52066,3.52066,0,0,0,1.22113-2.82613,3.40663,3.40663,0,0,0-1.22113-2.79841,5.18585,5.18585,0,0,0-3.48761-1.03147h-3.98716V75.41606h1.11478Zm0-6.76706,2.82614-.0416a4.01289,4.01289,0,0,1,2.64112.78166l.1434.15728a.26107.26107,0,0,0,.03241.037,2.89727,2.89727,0,0,1-.20661,4.09216l-.00006.00005-.00146.00134a4.20048,4.20048,0,0,1-2.75217.76785H466.2364Z"/><path class="cls-6" d="M478.71852,68.501h1.9982a3.6483,3.6483,0,0,1,2.05832.49488,9.42029,9.42029,0,0,1,1.95651,2.47924l2.5209,3.94089h1.33674l-3.27482-5.00014a6.69458,6.69458,0,0,0-1.9288-2.2202,3.59372,3.59372,0,0,0,2.75211-3.5061,3.33955,3.33955,0,0,0-1.23035-2.72436,5.48666,5.48666,0,0,0-3.56622-1.01761h-3.69577l-.0416,14.49616h1.11472Zm.04163-6.6237h2.36355a4.6339,4.6339,0,0,1,2.82617.754l.333.333a2.72575,2.72575,0,0,1-.31912,3.83913,4.66026,4.66026,0,0,1-2.81229.74008h-2.39126Z"/><path class="cls-6" d="M503.645,73.44189l.17581-.185c.02777-.03238.05548-.06011.08326-.08784a7.2496,7.2496,0,0,0-.25812-10.24918L503.645,62.919a7.91223,7.91223,0,0,0-10.85589,0l-.14338.148-.00924.00464a7.33877,7.33877,0,0,0,.15259,10.37022A7.90594,7.90594,0,0,0,503.645,73.44189Zm-10.01407-.73544a6.407,6.407,0,0,1-.00052-9.06073l.00052-.00049a6.56,6.56,0,0,1,9.14456,0,6.46627,6.46627,0,0,1,0,9.07509,6.20618,6.20618,0,0,1-4.56533,1.84093V74.5474a6.25562,6.25562,0,0,1-4.5792-1.84095Z"/><path class="cls-6" d="M508.47218,79.63585a2.89936,2.89936,0,0,0,2.13239-.91584,4.69033,4.69033,0,0,0,.89737-3.2748V60.949h-1.11475V75.7644c0,1.94268-.666,2.90012-2.03052,2.90012a3.4752,3.4752,0,0,1-.65225-.074l.10181,1.04538Q508.13929,79.64966,508.47218,79.63585Z"/><polygon class="cls-6" points="524.487 74.474 517.563 74.474 517.563 68.604 524.154 68.604 524.154 67.66 517.563 67.66 517.563 61.878 524.33 61.878 524.33 60.949 516.444 60.949 516.444 75.413 524.487 75.413 524.487 74.474"/><path class="cls-6" d="M540.54878,61.9791v.00253c.01965.00941.04047.01572.06006.02523Z"/><path class="cls-6" d="M535.57637,75.61958a10.74687,10.74687,0,0,0,5.11578-1.35064V73.11257a10.927,10.927,0,0,1-5.14349,1.44776,6.38129,6.38129,0,0,1-4.6532-1.7854,6.13288,6.13288,0,0,1-1.81317-4.607,6.2085,6.2085,0,0,1,1.81317-4.57917,6.07642,6.07642,0,0,1,4.49127-1.84093,11.06828,11.06828,0,0,1,5.16205,1.44771V61.98163a12.15073,12.15073,0,0,0-5.02789-1.19125,7.54574,7.54574,0,0,0-5.35163,2.13233.53152.53152,0,0,1-.1018.10176l-.0044.00463h-.00024a7.40644,7.40644,0,0,0,.00464,10.472A7.58223,7.58223,0,0,0,535.57637,75.61958Z"/><polygon class="cls-6" points="548.388 75.413 549.521 75.413 549.521 61.878 554.942 61.878 554.942 60.949 542.953 60.949 542.953 61.878 548.388 61.878 548.388 75.413"/><polygon class="cls-6" points="314.787 76.429 314.787 60.401 310.393 60.401 305.453 66.415 300.527 60.401 296.146 60.401 296.146 76.429 300.841 76.429 300.841 67.14 305.208 72.516 305.596 72.516 309.944 67.14 309.944 76.429 314.787 76.429"/><path class="cls-6" d="M323.2072,73.18382h6.95669l1.31824,3.24709h4.94461L329.42851,60.3991h-5.40716l-7.09083,16.03181h4.94468Zm3.50619-8.59407,2.34979,5.79565h-4.72265Z"/><rect class="cls-6" x="338.57301" y="60.40227" width="4.82437" height="16.02716"/><polygon class="cls-6" points="352.24 67.501 360.557 76.429 364.849 76.429 364.849 60.401 360.034 60.401 360.034 69.282 351.745 60.401 347.457 60.401 347.457 76.429 352.24 76.429 352.24 67.501"/><polygon class="cls-6" points="373.707 69.936 380.358 69.936 380.358 66.721 373.707 66.721 373.707 63.617 380.358 63.617 380.358 60.398 368.878 60.398 368.878 76.429 373.707 76.429 373.707 69.936"/><path class="cls-6" d="M390.348,70.328a2.68934,2.68934,0,0,1,1.08237.92509,12.41763,12.41763,0,0,1,1.24884,2.28027l1.25812,2.89553h5.18976l-1.57727-3.506a12.79066,12.79066,0,0,0-1.42-2.47925,4.44886,4.44886,0,0,0-1.27661-1.07309,10.99621,10.99621,0,0,0,1.17484-.72621,3.75946,3.75946,0,0,0,.98523-1.21643,4.07664,4.07664,0,0,0,.46255-2.05832,5.06551,5.06551,0,0,0-.55047-2.20169,4.8675,4.8675,0,0,0-1.84092-1.95662,5.92521,5.92521,0,0,0-3.26092-.80944H383.604V76.3874h4.84286V70.12456h.53656A3.92672,3.92672,0,0,1,390.348,70.328Zm-1.90109-6.85489h1.013a4.73094,4.73094,0,0,1,2.36365.44868,1.62148,1.62148,0,0,1,.74008,1.53559v.04631a1.61835,1.61835,0,0,1-.65225,1.44776,5.41663,5.41663,0,0,1-2.433.39317h-1.0315Z"/><path class="cls-6" d="M405.70909,73.18382h6.95663l1.30436,3.24709h4.94461L411.85164,60.3991h-5.347l-7.08612,16.03181h4.9585Zm3.49222-8.59407L411.551,70.3854h-4.71329Z"/><polygon class="cls-6" points="425.737 67.14 430.118 72.516 430.492 72.516 434.859 67.14 434.859 76.429 439.683 76.429 439.683 60.401 435.307 60.401 430.349 66.415 425.437 60.401 421.042 60.401 421.042 76.429 425.737 76.429 425.737 67.14"/><polygon class="cls-6" points="455.815 73.196 448.567 73.196 448.567 69.777 455.293 69.777 455.293 66.544 448.567 66.544 448.567 63.616 455.612 63.616 455.612 60.401 443.729 60.401 443.729 76.429 455.815 76.429 455.815 73.196"/><path class="cls-6" d="M242.21382,75.13712l.20352-.19889a.14182.14182,0,0,1,.037-.037,8.17583,8.17583,0,0,0-.24052-11.559,8.30717,8.30717,0,0,0-6.07318-2.40522v.04163a8.34414,8.34414,0,0,0-6.0455,2.40523l-.15723.1619a8.2013,8.2013,0,0,0,.15723,11.59135A8.83812,8.83812,0,0,0,242.21382,75.13712Zm-11.189-10.953a7.37217,7.37217,0,0,1,10.21764,0,7.24577,7.24577,0,0,1,0,10.14358,7.36936,7.36936,0,0,1-10.21764,0l-.01848-.01852a7.15507,7.15507,0,0,1,.01221-10.11879h0l.00629-.00626Z"/><path class="cls-6" d="M248.92219,69.7494h3.08974a6.06391,6.06391,0,0,0,4.01494-1.17484,4.22661,4.22661,0,0,0,.08783-6.29063,5.99456,5.99456,0,0,0-3.91313-1.14712h-4.45426l-.06941,16.13358h1.24429Zm.074-7.56722h3.20541a4.32065,4.32065,0,0,1,2.89553.88344.67375.67375,0,0,1,.16191.1619,3.273,3.273,0,0,1-.17577,4.62081,4.83817,4.83817,0,0,1-3.07133.85573h-3.01577Z"/><polygon class="cls-6" points="268.869 76.255 261.112 76.255 261.112 69.691 268.48 69.691 268.48 68.646 261.112 68.646 261.112 62.184 268.679 62.184 268.679 61.139 259.868 61.139 259.868 77.3 268.869 77.3 268.869 76.255"/><polygon class="cls-6" points="272.683 63.164 284.955 77.3 285.986 77.3 285.986 61.139 284.737 61.139 284.737 75.255 272.493 61.139 271.435 61.139 271.435 77.3 272.683 77.3 272.683 63.164"/><polygon class="cls-6" points="227.613 109.391 274.883 109.391 226.092 166.166 226.092 180.993 299.976 180.993 299.976 163.885 251.185 163.885 299.976 107.11 299.976 92.283 227.613 92.283 227.613 109.391"/><path class="cls-6" d="M346.86656,111.79939c-21.16394,0-36.87863,15.84118-36.87863,35.35709v.25371c0,19.51668,15.58746,35.10411,36.62491,35.10411,21.16394,0,36.87787-15.84116,36.87787-35.35782v-.253C383.49077,127.38688,367.90327,111.79939,346.86656,111.79939Zm17.61493,35.61081c0,10.01168-6.58991,18.50255-17.61493,18.50255-10.6456,0-17.86938-8.74458-17.86938-18.75625v-.253c0-10.01167,6.5899-18.50255,17.61566-18.50255,10.64483,0,17.86865,8.74422,17.86865,18.75553Z"/><polygon class="cls-6" points="461.556 154.38 448.63 112.813 432.028 112.813 419.229 154.253 408.33 113.066 388.813 113.066 409.724 181.5 426.959 181.5 440.265 139.806 453.318 181.5 470.68 181.5 491.845 113.066 472.708 113.066 461.556 154.38"/><path class="cls-6" d="M563.82808,148.67732c0-19.26258-10.39185-36.87789-33.0766-36.87789-19.76966,0-33.58331,15.96766-33.58331,35.3571v.2537c0,20.78376,15.08074,35.10411,35.48431,35.10411,12.29285,0,21.41693-4.81611,27.75384-12.67308l-11.02581-9.758c-5.32282,4.9426-10.01166,6.97008-16.47437,6.97008-8.6181,0-14.70129-4.5624-16.60156-13.307h47.26977C563.70088,151.97261,563.82808,150.19812,563.82808,148.67732Zm-47.77719-6.96972c1.52081-8.74459,6.7164-14.44721,14.70053-14.44721,8.11065,0,13.17975,5.82949,14.32037,14.44721Z"/><path class="cls-6" d="M141.2285,51.3774,50.32319,114.0696l62.6922,90.9053,90.90531-62.69221ZM116.21538,164.36257l6.33989-59.48829L91.457,126.321,83.6952,115.06615l47.606-32.83119,6.727,9.75425-6.33936,59.488,32.09849-22.13653,7.76221,11.25537-48.60679,33.5213Z"/><path class="cls-2" d="M68.4656,417.4985l-1.43848-4.72265h-7.2334l-1.43848,4.72265H53.823l7.002-19.9209h5.14356l7.02929,19.9209Zm-2.44336-8.251q-1.99367-6.41748-2.24512-7.25977-.252-.84082-.36035-1.33008-.44677,1.73731-2.56446,8.58985Z"/><path class="cls-2" d="M94.75954,403.84714a6.06489,6.06489,0,0,1-2.002,4.89843,8.562,8.562,0,0,1-5.69239,1.69629H85.26052v7.05664h-4.207V397.65866H87.3904a8.43388,8.43388,0,0,1,5.48926,1.55371A5.66723,5.66723,0,0,1,94.75954,403.84714Zm-9.499,3.14843h1.38379a4.60671,4.60671,0,0,0,2.90429-.76758,2.6834,2.6834,0,0,0,.96289-2.23144,2.75067,2.75067,0,0,0-.80761-2.18555,3.78618,3.78618,0,0,0-2.53028-.70508H85.26052Z"/><path class="cls-2" d="M117.76931,403.84714a6.06486,6.06486,0,0,1-2.002,4.89843,8.562,8.562,0,0,1-5.69238,1.69629h-1.80469v7.05664h-4.207V397.65866h6.33692a8.43385,8.43385,0,0,1,5.48925,1.55371A5.66723,5.66723,0,0,1,117.76931,403.84714Zm-9.499,3.14843h1.38379a4.60674,4.60674,0,0,0,2.9043-.76758,2.6834,2.6834,0,0,0,.96289-2.23144,2.75068,2.75068,0,0,0-.80762-2.18555,3.78613,3.78613,0,0,0-2.53027-.70508h-1.91309Z"/><path class="cls-2" d="M143.989,417.4985h-4.13867V397.65866h11.37207v3.44726H143.989v5.11622h6.73047v3.43261H143.989Z"/><path class="cls-2" d="M164.86794,409.88522v7.61328h-4.207V397.65866h5.78027q4.04443,0,5.98535,1.47266a5.8699,5.8699,0,0,1,.97657,7.58593,6.37691,6.37691,0,0,1-2.72754,2.13672q4.478,6.69141,5.835,8.64453h-4.668l-4.73633-7.61328Zm0-3.41894h1.35644a5.19379,5.19379,0,0,0,2.94532-.665,2.37511,2.37511,0,0,0,.94922-2.08985,2.17188,2.17188,0,0,0-.96973-2.00879,5.89781,5.89781,0,0,0-3.00586-.59668h-1.27539Z"/><path class="cls-2" d="M196.71169,417.4985l-1.43848-4.72265h-7.2334l-1.43847,4.72265h-4.53223l7.00195-19.9209h5.14356l7.0293,19.9209Zm-2.44336-8.251q-1.99365-6.41748-2.24512-7.25977-.252-.84082-.36035-1.33008-.44677,1.73731-2.56445,8.58985Z"/><path class="cls-2" d="M217.699,417.4985l-4.77636-15.56543h-.12207q.25781,4.7505.25781,6.33789v9.22754h-3.75879V397.65866h5.72656l4.69531,15.17187h.08106l4.98047-15.17187h5.72656V417.4985h-3.92187v-9.39062q0-.665.0205-1.53321.02052-.86865.1836-4.61425h-.12207l-5.11621,15.53808Z"/><path class="cls-2" d="M252.48806,417.4985H241.06228V397.65866h11.42578v3.44726h-7.21875v4.35547h6.71679v3.44727h-6.71679v5.11621h7.21875Z"/><path class="cls-2" d="M281.50954,417.4985h-4.791L274.032,407.07663q-.14941-.55665-.50879-2.29981-.36034-1.74462-.41406-2.34082-.082.73242-.40723,2.35449-.32518,1.62159-.50195,2.31348l-2.67285,10.39453h-4.77734l-5.06153-19.83984h4.13867l2.53809,10.8291q.665,3,.96289,5.19727.082-.77344.374-2.39454.29151-1.62158.54883-2.51757l2.89063-11.11426h3.97656l2.88965,11.11426q.19043.74706.47558,2.27929.28419,1.53369.4336,2.63282.13623-1.05762.43457-2.63868.29883-1.582.543-2.55859l2.52441-10.8291h4.13867Z"/><path class="cls-2" d="M312.62087,407.55124q0,4.92627-2.44336,7.57226-2.44189,2.647-7.00195,2.64649-4.56006,0-7.002-2.64649-2.44335-2.64551-2.44238-7.59863,0-4.95409,2.44922-7.56543,2.44921-2.61329,7.02246-2.6123,4.57325,0,6.99512,2.63183Q312.62086,402.61276,312.62087,407.55124Zm-14.47949,0a8.29258,8.29258,0,0,0,1.26172,5.00781,4.41527,4.41527,0,0,0,3.77246,1.68262q5.03466,0,5.03515-6.69043,0-6.70312-5.00781-6.70313a4.4442,4.4442,0,0,0-3.78613,1.68946A8.25008,8.25008,0,0,0,298.14138,407.55124Z"/><path class="cls-2" d="M326.49782,409.88522v7.61328h-4.207V397.65866h5.78027q4.04444,0,5.98536,1.47266a5.86988,5.86988,0,0,1,.97656,7.58593,6.37691,6.37691,0,0,1-2.72754,2.13672q4.478,6.69141,5.835,8.64453h-4.668l-4.73633-7.61328Zm0-3.41894h1.35645a5.19376,5.19376,0,0,0,2.94531-.665,2.37511,2.37511,0,0,0,.94922-2.08985,2.17186,2.17186,0,0,0-.96973-2.00879,5.89781,5.89781,0,0,0-3.00586-.59668h-1.27539Z"/><path class="cls-2" d="M362.15407,417.4985H357.3777l-5.19726-8.35937-1.77734,1.27539v7.084h-4.207V397.65866h4.207v9.0791l1.65527-2.335,5.374-6.74414h4.668l-6.9209,8.78027Z"/><path class="cls-2" d="M381.31813,411.7446V408.352h7.28711v3.39258Z"/><path class="cls-2" d="M423.199,417.4985H408.43435V414.771l9.51269-13.63769h-9.25488v-3.47461h14.249v2.71387l-9.5,13.65234H423.199Z"/><path class="cls-2" d="M449.92653,407.55124q0,4.92627-2.44336,7.57226-2.44189,2.647-7.00195,2.64649-4.56006,0-7.002-2.64649-2.44336-2.64551-2.44239-7.59863,0-4.95409,2.44922-7.56543,2.44923-2.61329,7.02246-2.6123,4.57325,0,6.99512,2.63183Q449.92654,402.61276,449.92653,407.55124Zm-14.47949,0a8.29258,8.29258,0,0,0,1.26172,5.00781,4.41528,4.41528,0,0,0,3.77246,1.68262q5.03467,0,5.03516-6.69043,0-6.70312-5.00782-6.70313a4.44423,4.44423,0,0,0-3.78613,1.68946A8.25015,8.25015,0,0,0,435.447,407.55124Z"/><path class="cls-2" d="M478.92067,417.4985h-4.791l-2.68653-10.42187q-.1494-.55665-.50878-2.29981-.36036-1.74462-.41407-2.34082-.082.73242-.40722,2.35449-.3252,1.62159-.502,2.31348l-2.67285,10.39453h-4.77734l-5.06153-19.83984h4.13868l2.53808,10.8291q.665,3,.96289,5.19727.082-.77344.374-2.39454.29149-1.62158.54882-2.51757l2.89063-11.11426h3.97656l2.88965,11.11426q.19042.74706.47559,2.27929.28417,1.53369.43359,2.63282.13623-1.05762.43457-2.63868.29883-1.582.543-2.55859l2.52441-10.8291h4.13868Z"/><path class="cls-2" d="M503.45,417.4985H492.02419V397.65866H503.45v3.44726h-7.21875v4.35547h6.7168v3.44727h-6.7168v5.11621H503.45Z"/><path class="cls-2" d="M537.24294,397.65866H541.49l-6.74414,19.83984H530.159l-6.73046-19.83984h4.24707L531.408,409.4653q.312,1.04443.64453,2.43555.33252,1.39159.41406,1.93359a34.54922,34.54922,0,0,1,1.01758-4.36914Z"/><path class="cls-2" d="M558.52907,417.4985h-4.19336V406.018l.041-1.88574.06738-2.06347q-1.04443,1.04589-1.45215,1.37109l-2.27929,1.832-2.02247-2.52441,6.39161-5.08887h3.44726Z"/><path class="cls-6" d="M137.59516,224.23923a9.20124,9.20124,0,0,0-7.56836,3.41113q-2.75684,3.41016-2.75683,9.41308,0,6.28419,2.65136,9.50782,2.65137,3.22265,7.67383,3.22363a20.15564,20.15564,0,0,0,4.2041-.43262q2.03321-.43212,4.22852-1.10937V253.042a25.64876,25.64876,0,0,1-9.11035,1.51758q-7.49855,0-11.51563-4.543-4.01806-4.54248-4.01855-12.999a20.99657,20.99657,0,0,1,1.95117-9.32032,13.91307,13.91307,0,0,1,5.64062-6.12011,17.06679,17.06679,0,0,1,8.667-2.126,21.519,21.519,0,0,1,9.66992,2.19531l-2.00879,4.64844a30.10623,30.10623,0,0,0-3.65527-1.43652A13.19016,13.19016,0,0,0,137.59516,224.23923Z"/><path class="cls-6" d="M188.48969,236.97067q0,8.33935-4.16894,12.96387-4.17042,4.626-11.8086,4.625-7.73144,0-11.87793-4.58985-4.147-4.58936-4.14648-13.04589,0-8.45655,4.16992-12.98829,4.169-4.53075,11.90137-4.53125,7.61572,0,11.77344,4.60157Q188.48969,228.60837,188.48969,236.97067Zm-26.06836,0q0,6.30615,2.5459,9.56543,2.54591,3.25782,7.54492,3.25879,4.97609,0,7.51075-3.22363,2.53418-3.22413,2.53418-9.60059,0-6.28418-2.51172-9.53125-2.51074-3.24609-7.48633-3.24609-5.02295,0-7.58008,3.24609Q162.42133,230.687,162.42133,236.97067Z"/><path class="cls-6" d="M229.06,254.09274h-6.84472l-16.79492-27.21387h-.18653l.11621,1.51856q.32667,4.34472.32715,7.94238v17.75293h-5.06836V219.94137h6.77344l16.749,27.07325h.13965q-.04687-.53615-.18652-3.91211-.14062-3.375-.14063-5.26758V219.94137H229.06Z"/><path class="cls-6" d="M248.39692,254.09274h-5.53613V219.94137h19.2705v4.71875H248.39692v10.67481H261.267v4.74219H248.39692Z"/><path class="cls-6" d="M303.42622,236.97067q0,8.33935-4.16895,12.96387-4.17041,4.626-11.80859,4.625-7.73145,0-11.87793-4.58985-4.147-4.58936-4.14649-13.04589,0-8.45655,4.16992-12.98829,4.16895-4.53075,11.90137-4.53125,7.61572,0,11.77344,4.60157Q303.42621,228.60837,303.42622,236.97067Zm-26.06836,0q0,6.30615,2.54589,9.56543,2.54591,3.25782,7.54493,3.25879,4.97607,0,7.51074-3.22363,2.53417-3.22413,2.53418-9.60059,0-6.28418-2.51172-9.53125-2.51074-3.24609-7.48633-3.24609-5.02294,0-7.58008,3.24609Q277.35786,230.687,277.35786,236.97067Z"/><path class="cls-6" d="M321.12739,240.45114v13.6416h-5.582V219.94137h9.64648q6.61084,0,9.78809,2.47657,3.17577,2.47559,3.17675,7.47461,0,6.37645-6.63378,9.08691l9.64746,15.11328h-6.3545l-8.17578-13.6416Zm0-4.625h3.87793q3.90087,0,5.65332-1.44824a5.25583,5.25583,0,0,0,1.752-4.29883,4.62461,4.62461,0,0,0-1.89258-4.15723,10.37464,10.37464,0,0,0-5.69922-1.26172h-3.6914Z"/><path class="cls-6" d="M365.66938,254.09274l-9.9043-28.52148h-.1875q.397,6.35448.39746,11.91308v16.6084h-5.06836V219.94137h7.87207l9.4834,27.167h.13965l9.76465-27.167H386.062v34.15137h-5.373V237.20407q0-2.54591.12891-6.63379.12744-4.08838.22168-4.95215H380.853l-10.25488,28.47461Z"/><path class="cls-6" d="M421.02583,254.09274l-3.41016-9.4834H404.55708l-3.33985,9.4834h-5.88672l12.77735-34.291h6.07324l12.77734,34.291Zm-4.88184-14.2959L412.94379,230.5q-.35155-.93457-.96972-2.94336-.61964-2.00831-.85254-2.94336a52.44342,52.44342,0,0,1-1.8457,6.28418l-3.083,8.89941Z"/><path class="cls-6" d="M464.70356,254.09274h-6.84473l-16.79492-27.21387h-.18652l.11621,1.51856q.32665,4.34472.32715,7.94238v17.75293h-5.06836V219.94137h6.77344l16.749,27.07325h.13965q-.04687-.53615-.18653-3.91211-.14062-3.375-.14062-5.26758V219.94137h5.11621Z"/><path class="cls-6" d="M490.30024,254.09274h-5.583v-29.3623H474.67329v-4.78907h25.67187v4.78907H490.30024Z"/><g class="cls-7"><rect class="cls-6" x="35.43898" y="277.63619" width="553.53213" height="43.5348"/></g><path class="cls-5" d="M119.69477,303.15036a5.19956,5.19956,0,0,1-1.96094,4.29394,8.5212,8.5212,0,0,1-5.457,1.56934,12.81159,12.81159,0,0,1-5.69726-1.21094v-3.96387a23.513,23.513,0,0,0,3.44726,1.28028,10.22949,10.22949,0,0,0,2.58008.37109,3.67227,3.67227,0,0,0,2.1543-.53613,1.83749,1.83749,0,0,0,.75-1.59668,1.76557,1.76557,0,0,0-.33008-1.05273,3.69627,3.69627,0,0,0-.9707-.8877,25.07763,25.07763,0,0,0-2.60743-1.3623,12.32941,12.32941,0,0,1-2.7666-1.666,6.23845,6.23845,0,0,1-1.47265-1.85742,5.30167,5.30167,0,0,1-.55079-2.47754,5.20181,5.20181,0,0,1,1.80957-4.19727,7.52051,7.52051,0,0,1,5.00293-1.52734,11.79593,11.79593,0,0,1,2.99317.37109,20.60466,20.60466,0,0,1,2.97949,1.0459l-1.376,3.31641a20.17251,20.17251,0,0,0-2.66308-.92188,8.60029,8.60029,0,0,0-2.07129-.26172,2.74091,2.74091,0,0,0-1.85742.56446,1.86182,1.86182,0,0,0-.64746,1.47265,1.82735,1.82735,0,0,0,.26172.98438,2.85363,2.85363,0,0,0,.833.81152,25.53844,25.53844,0,0,0,2.7041,1.41113,10.76829,10.76829,0,0,1,3.86719,2.70411A5.27709,5.27709,0,0,1,119.69477,303.15036Z"/><path class="cls-5" d="M148.17426,288.61716v13.01953a7.505,7.505,0,0,1-.99707,3.9082,6.49875,6.49875,0,0,1-2.88379,2.57422,10.30572,10.30572,0,0,1-4.459.89453,8.53449,8.53449,0,0,1-6.02734-1.98926,7.0517,7.0517,0,0,1-2.14747-5.44238V288.61716h4.25293v12.31738a5.1578,5.1578,0,0,0,.93555,3.41308,3.88858,3.88858,0,0,0,3.09668,1.08789,3.802,3.802,0,0,0,3.03418-1.09472,5.18215,5.18215,0,0,0,.94336-3.4336v-12.29Z"/><path class="cls-5" d="M175.45747,294.89352a6.14813,6.14813,0,0,1-2.03028,4.96778,8.67843,8.67843,0,0,1-5.77344,1.7207h-1.83007v7.15625h-4.2666V288.61716h6.42675a8.55029,8.55029,0,0,1,5.56739,1.57617A5.74711,5.74711,0,0,1,175.45747,294.89352Zm-9.63379,3.19239H167.227a4.67337,4.67337,0,0,0,2.94531-.77735,2.72235,2.72235,0,0,0,.97754-2.26367,2.79014,2.79014,0,0,0-.81934-2.21582,3.83389,3.83389,0,0,0-2.5664-.71582h-1.94043Z"/><path class="cls-5" d="M201.61176,294.89352a6.14815,6.14815,0,0,1-2.03027,4.96778,8.67845,8.67845,0,0,1-5.77344,1.7207H191.978v7.15625h-4.2666V288.61716h6.42676a8.55024,8.55024,0,0,1,5.56738,1.57617A5.74708,5.74708,0,0,1,201.61176,294.89352Zm-9.63379,3.19239h1.40332a4.6734,4.6734,0,0,0,2.94532-.77735,2.72238,2.72238,0,0,0,.97754-2.26367,2.79014,2.79014,0,0,0-.81934-2.21582,3.83392,3.83392,0,0,0-2.56641-.71582H191.978Z"/><path class="cls-5" d="M232.12836,298.65036q0,4.99512-2.47753,7.67969-2.47706,2.68359-7.10059,2.68359-4.62452,0-7.10156-2.68359t-2.47754-7.707q0-5.02295,2.48437-7.67285,2.48438-2.64843,7.12207-2.64941,4.6377,0,7.09473,2.66992Q232.12885,293.64108,232.12836,298.65036Zm-14.68457,0a8.40193,8.40193,0,0,0,1.28028,5.07812,4.47828,4.47828,0,0,0,3.82617,1.707q5.105,0,5.10547-6.78515,0-6.79834-5.07813-6.79883a4.50724,4.50724,0,0,0-3.83984,1.71387A8.36959,8.36959,0,0,0,217.44379,298.65036Z"/><path class="cls-5" d="M249.02,301.01755v7.7207h-4.26661V288.61716h5.86329q4.10009,0,6.06835,1.49414a5.95069,5.95069,0,0,1,.99122,7.69238,6.461,6.461,0,0,1-2.76661,2.168q4.54248,6.78514,5.918,8.7666h-4.73437l-4.80274-7.7207Zm0-3.46778h1.376a5.26019,5.26019,0,0,0,2.98633-.6748,2.40626,2.40626,0,0,0,.96387-2.11914,2.20264,2.20264,0,0,0-.98438-2.03711,5.97594,5.97594,0,0,0-3.04883-.60547H249.02Z"/><path class="cls-5" d="M279.57758,308.73825H275.312V292.16794h-5.46387v-3.55078h15.19336v3.55078h-5.46387Z"/><path class="cls-5" d="M326.27094,294.89352a6.14815,6.14815,0,0,1-2.03027,4.96778,8.67845,8.67845,0,0,1-5.77344,1.7207h-1.83008v7.15625h-4.2666V288.61716h6.42676a8.55024,8.55024,0,0,1,5.56738,1.57617A5.74708,5.74708,0,0,1,326.27094,294.89352Zm-9.63379,3.19239h1.40332a4.6734,4.6734,0,0,0,2.94532-.77735,2.72238,2.72238,0,0,0,.97754-2.26367,2.79014,2.79014,0,0,0-.81934-2.21582,3.83392,3.83392,0,0,0-2.56641-.71582h-1.94043Z"/><path class="cls-5" d="M342.79145,301.01755v7.7207h-4.2666V288.61716h5.86328q4.1001,0,6.06836,1.49414a5.95066,5.95066,0,0,1,.99121,7.69238,6.46092,6.46092,0,0,1-2.7666,2.168q4.54248,6.78514,5.918,8.7666h-4.73438l-4.80273-7.7207Zm0-3.46778h1.376a5.26015,5.26015,0,0,0,2.98632-.6748,2.40626,2.40626,0,0,0,.96387-2.11914,2.20264,2.20264,0,0,0-.98437-2.03711,5.976,5.976,0,0,0-3.04883-.60547h-1.293Z"/><path class="cls-5" d="M383.85,298.65036q0,4.99512-2.47754,7.67969-2.477,2.68359-7.10058,2.68359-4.62451,0-7.10156-2.68359t-2.47754-7.707q0-5.02295,2.48437-7.67285,2.48438-2.64843,7.12207-2.64941,4.6377,0,7.09473,2.66992Q383.85053,293.64108,383.85,298.65036Zm-14.68457,0a8.40193,8.40193,0,0,0,1.28028,5.07812,4.47828,4.47828,0,0,0,3.82617,1.707q5.105,0,5.10547-6.78515,0-6.79834-5.07813-6.79883a4.50724,4.50724,0,0,0-3.83984,1.71387A8.36959,8.36959,0,0,0,369.16547,298.65036Z"/><path class="cls-5" d="M407.95356,288.61716h4.30762l-6.83985,20.12109H400.77l-6.82618-20.12109h4.30762l3.78418,11.97363q.31786,1.06054.6543,2.4707.33691,1.41064.41992,1.96094a35.08435,35.08435,0,0,1,1.03223-4.43164Z"/><path class="cls-5" d="M423.24848,308.73825V288.61716h4.2666v20.12109Z"/><path class="cls-5" d="M457.729,298.48532q0,4.96875-2.82812,7.61035-2.82716,2.64258-8.168,2.64258h-5.69727V288.61716H447.353q4.92627,0,7.65137,2.60156A9.56894,9.56894,0,0,1,457.729,298.48532Zm-4.43066.11035q0-6.48193-5.72559-6.48242h-2.27051v13.10156h1.83008Q453.29779,305.21481,453.29829,298.59567Z"/><path class="cls-5" d="M481.94282,308.73825H470.35493V288.61716h11.58789v3.49609h-7.32129v4.418h6.8125v3.49511h-6.8125v5.18848h7.32129Z"/><path class="cls-5" d="M498.86274,301.01755v7.7207h-4.2666V288.61716h5.86328q4.1001,0,6.06836,1.49414a5.95066,5.95066,0,0,1,.99121,7.69238,6.46092,6.46092,0,0,1-2.7666,2.168q4.54248,6.78514,5.918,8.7666H505.936l-4.80273-7.7207Zm0-3.46778h1.376a5.26015,5.26015,0,0,0,2.98632-.6748,2.40626,2.40626,0,0,0,.96387-2.11914,2.20264,2.20264,0,0,0-.98437-2.03711,5.976,5.976,0,0,0-3.04883-.60547h-1.293Z"/></svg>