<svg id="Layer_1" data-name="Layer 1" xmlns="http://www.w3.org/2000/svg" viewBox="0 0 624.23506 469.28291"><defs><style>.cls-1{opacity:0.9;}</style></defs><path d="M61.62353,416.499H52.16748V400.08005h9.45605v2.85253H55.64892v3.60547h5.55957v2.85157H55.64892V413.624h5.97461Z"/><path d="M82.92334,416.499H78.94775l-3.81836-6.21094L71.311,416.499H67.58252l5.44726-8.46777-5.09961-7.95117H71.772l3.53711,5.90722,3.4707-5.90722h3.75l-5.15429,8.1416Z"/><path d="M100.93213,405.20114a5.01666,5.01666,0,0,1-1.65625,4.05371,7.08242,7.08242,0,0,1-4.71192,1.4043H93.0708V416.499H89.58935V400.08005h5.24414a6.97479,6.97479,0,0,1,4.543,1.28613A4.68842,4.68842,0,0,1,100.93213,405.20114Zm-7.86133,2.60547h1.14551a3.81588,3.81588,0,0,0,2.40332-.63477,2.22025,2.22025,0,0,0,.79785-1.84668,2.279,2.279,0,0,0-.66895-1.80859,3.12905,3.12905,0,0,0-2.09472-.584h-1.583Z"/><path d="M108.63232,416.499V400.08005h3.48145V413.624H118.773v2.875Z"/><path d="M141.12842,408.26657a8.912,8.912,0,0,1-2.02149,6.26758,8.76357,8.76357,0,0,1-11.58984,0,8.94651,8.94651,0,0,1-2.02149-6.28907q0-4.10008,2.02735-6.26171a7.58137,7.58137,0,0,1,5.8125-2.16211,7.474,7.474,0,0,1,5.78906,2.17968A8.93232,8.93232,0,0,1,141.12842,408.26657Zm-11.98243,0a6.85257,6.85257,0,0,0,1.04493,4.14453,3.65091,3.65091,0,0,0,3.12109,1.39258q4.16748,0,4.167-5.53711,0-5.54736-4.14355-5.54688a3.68055,3.68055,0,0,0-3.13379,1.39747A6.82818,6.82818,0,0,0,129.146,408.26657Z"/><path d="M152.61279,410.19821V416.499h-3.48145V400.08005h4.78418a8.18386,8.18386,0,0,1,4.95215,1.21875,4.8559,4.8559,0,0,1,.8086,6.27734,5.25906,5.25906,0,0,1-2.25684,1.76855q3.706,5.53711,4.8291,7.1543h-3.86328l-3.91992-6.30078Zm0-2.83008h1.12305a4.291,4.291,0,0,0,2.43652-.5498,1.96448,1.96448,0,0,0,.78711-1.7295,1.79741,1.79741,0,0,0-.80371-1.6621,4.87452,4.87452,0,0,0-2.48731-.49415h-1.05566Z"/><path d="M178.3706,416.499h-9.45605V400.08005h9.45605v2.85253H172.396v3.60547h5.55957v2.85157H172.396V413.624h5.97461Z"/><path d="M189.87744,410.19821V416.499H186.396V400.08005h4.78418a8.18386,8.18386,0,0,1,4.95215,1.21875,4.8559,4.8559,0,0,1,.8086,6.27734,5.25906,5.25906,0,0,1-2.25684,1.76855q3.70605,5.53711,4.8291,7.1543H195.6499L191.73,410.19821Zm0-2.83008h1.12305a4.291,4.291,0,0,0,2.43652-.5498,1.96448,1.96448,0,0,0,.78711-1.7295,1.79743,1.79743,0,0,0-.80371-1.6621,4.87452,4.87452,0,0,0-2.48731-.49415h-1.05566Z"/><path d="M220.18017,416.499h-3.42578V400.08005h9.41113v2.85253h-5.98535V407.167h5.57032v2.84082h-5.57032Z"/><path d="M248.88037,408.26657a8.912,8.912,0,0,1-2.02149,6.26758,8.76357,8.76357,0,0,1-11.58984,0,8.94651,8.94651,0,0,1-2.02148-6.28907q0-4.10008,2.02734-6.26171a7.58137,7.58137,0,0,1,5.8125-2.16211,7.474,7.474,0,0,1,5.78906,2.17968A8.93232,8.93232,0,0,1,248.88037,408.26657Zm-11.98242,0a6.85258,6.85258,0,0,0,1.04492,4.14453,3.65092,3.65092,0,0,0,3.12109,1.39258q4.16748,0,4.167-5.53711,0-5.54736-4.14355-5.54688a3.68056,3.68056,0,0,0-3.13379,1.39747A6.82818,6.82818,0,0,0,236.898,408.26657Z"/><path d="M260.36474,410.19821V416.499H256.8833V400.08005h4.78418a8.1839,8.1839,0,0,1,4.95215,1.21875,4.85592,4.85592,0,0,1,.80859,6.27734,5.259,5.259,0,0,1-2.25684,1.76855q3.70606,5.53711,4.82911,7.1543H266.1372l-3.91992-6.30078Zm0-2.83008h1.12305a4.29094,4.29094,0,0,0,2.43652-.5498,1.96446,1.96446,0,0,0,.78711-1.7295,1.79741,1.79741,0,0,0-.80371-1.6621,4.87448,4.87448,0,0,0-2.4873-.49415h-1.05567Z"/><path d="M296.60791,400.08005h3.51465L294.5415,416.499h-3.7959l-5.57031-16.41894h3.51563l3.08789,9.7705q.2578.86427.5332,2.01563t.34277,1.60058a28.67352,28.67352,0,0,1,.84278-3.61621Z"/><path d="M316.481,411.93942a4.24506,4.24506,0,0,1-1.59961,3.50391,6.95415,6.95415,0,0,1-4.45312,1.28027,10.45318,10.45318,0,0,1-4.64941-.98828v-3.23438a19.29264,19.29264,0,0,0,2.81347,1.04493,8.36391,8.36391,0,0,0,2.10547.30273,3.00252,3.00252,0,0,0,1.75781-.4375,1.49869,1.49869,0,0,0,.61133-1.30273,1.43849,1.43849,0,0,0-.26953-.85938,3.0228,3.0228,0,0,0-.791-.72461,20.27859,20.27859,0,0,0-2.1289-1.11133,10.12053,10.12053,0,0,1-2.25684-1.35937,5.10926,5.10926,0,0,1-1.20215-1.51563,4.33826,4.33826,0,0,1-.44921-2.02148,4.24449,4.24449,0,0,1,1.47753-3.42578,6.13484,6.13484,0,0,1,4.082-1.2461,9.63527,9.63527,0,0,1,2.44238.30274,16.72079,16.72079,0,0,1,2.43164.85351l-1.123,2.707a16.513,16.513,0,0,0-2.17285-.75293,6.98649,6.98649,0,0,0-1.69043-.21387,2.23733,2.23733,0,0,0-1.51562.46094,1.51574,1.51574,0,0,0-.52832,1.20117,1.48594,1.48594,0,0,0,.21386.80371,2.32738,2.32738,0,0,0,.67871.66211,20.86092,20.86092,0,0,0,2.207,1.15137,8.767,8.767,0,0,1,3.15527,2.207A4.30459,4.30459,0,0,1,316.481,411.93942Z"/><path d="M341.606,402.74118a3.54889,3.54889,0,0,0-3.04394,1.47754,6.87037,6.87037,0,0,0-1.07813,4.11621q0,5.49023,4.12207,5.49121a13.036,13.036,0,0,0,4.18848-.86426v2.91992a11.651,11.651,0,0,1-4.51465.8418,6.887,6.887,0,0,1-5.48047-2.17285,9.20163,9.20163,0,0,1-1.89843-6.23926,10.19116,10.19116,0,0,1,.93261-4.48633,6.7318,6.7318,0,0,1,2.67871-2.95312,7.91763,7.91763,0,0,1,4.09375-1.02735,11.04829,11.04829,0,0,1,4.80664,1.15625l-1.123,2.83008a18.5849,18.5849,0,0,0-1.85352-.76367A5.53429,5.53429,0,0,0,341.606,402.74118Z"/><path d="M368.78955,408.26657a8.912,8.912,0,0,1-2.02149,6.26758,8.76357,8.76357,0,0,1-11.58984,0,8.94651,8.94651,0,0,1-2.02148-6.28907q0-4.10008,2.02734-6.26171a7.58137,7.58137,0,0,1,5.8125-2.16211,7.474,7.474,0,0,1,5.78906,2.17968A8.93232,8.93232,0,0,1,368.78955,408.26657Zm-11.98242,0a6.85258,6.85258,0,0,0,1.04492,4.14453,3.65092,3.65092,0,0,0,3.12109,1.39258q4.16748,0,4.167-5.53711,0-5.54736-4.14355-5.54688a3.68056,3.68056,0,0,0-3.13379,1.39747A6.82818,6.82818,0,0,0,356.80713,408.26657Z"/><path d="M390.4165,408.1318a8.08461,8.08461,0,0,1-2.30859,6.21094q-2.30714,2.15625-6.665,2.15625h-4.64942V400.08005h5.1543a8.684,8.684,0,0,1,6.24414,2.12207A7.811,7.811,0,0,1,390.4165,408.1318Zm-3.61719.08985q0-5.28809-4.67187-5.28907H380.2749V413.624h1.49316Q386.79981,413.624,386.79931,408.22165Z"/><path d="M407.87451,416.499h-9.45606V400.08005h9.45606v2.85253H401.8999v3.60547h5.55957v2.85157H401.8999V413.624h5.97461Z"/><path d="M425.09326,411.73727v-2.80761h6.03027v2.80761Z"/><path d="M459.75342,416.499H447.53467v-2.25781l7.87207-11.28613h-7.65918v-2.875h11.792v2.24609L451.67822,413.624h8.0752Z"/><path d="M481.87158,408.26657a8.912,8.912,0,0,1-2.02149,6.26758,8.76357,8.76357,0,0,1-11.58984,0,8.94651,8.94651,0,0,1-2.02148-6.28907q0-4.10008,2.02734-6.26171a7.58137,7.58137,0,0,1,5.8125-2.16211,7.474,7.474,0,0,1,5.78906,2.17968A8.93232,8.93232,0,0,1,481.87158,408.26657Zm-11.98242,0a6.85258,6.85258,0,0,0,1.04492,4.14453,3.65092,3.65092,0,0,0,3.12109,1.39258q4.16748,0,4.167-5.53711,0-5.54736-4.14356-5.54688a3.68056,3.68056,0,0,0-3.13379,1.39747A6.82818,6.82818,0,0,0,469.88916,408.26657Z"/><path d="M505.8667,416.499h-3.96485l-2.22265-8.625q-.12452-.46-.42188-1.90332-.29736-1.44286-.3418-1.9375-.06738.60645-.33789,1.94824-.26952,1.3418-.415,1.915l-2.21191,8.60254h-3.95312l-4.18946-16.41894h3.42578l2.09961,8.96191q.55079,2.48145.79688,4.30078.06738-.63867.30957-1.98144.2417-1.34181.4541-2.083l2.39258-9.19824h3.291l2.39161,9.19824q.15674.61669.39355,1.88672.23438,1.26855.35938,2.17773.11131-.876.35937-2.18359.24609-1.30811.44922-2.11719l2.08789-8.96191h3.42578Z"/><path d="M526.16748,416.499h-9.45606V400.08005h9.45606v2.85253h-5.97461v3.60547h5.55957v2.85157h-5.55957V413.624h5.97461Z"/><path d="M554.1333,400.08005H557.648L552.06689,416.499H548.271l-5.57031-16.41894h3.51563l3.08789,9.7705q.2578.86427.5332,2.01563t.34277,1.60058a28.67352,28.67352,0,0,1,.84278-3.61621Z"/><path d="M571.74951,416.499h-3.46973v-9.501l.03321-1.56152.05664-1.707q-.86573.86572-1.20215,1.13477l-1.88672,1.51562-1.67285-2.08789,5.28906-4.21191h2.85254Z"/><polygon points="368.402 247.108 370.321 241.768 367.159 243.949 368.262 247.108 368.402 247.108"/><path d="M243.28111,69.94189a7.23888,7.23888,0,0,1-.48535,2.00848A7.23837,7.23837,0,0,0,243.28111,69.94189Z"/><path d="M252.20164,62.18219h-.00012a4.318,4.318,0,0,1,.775.02172A4.317,4.317,0,0,0,252.20164,62.18219Z"/><path d="M332.02525,239.76635l.11487-1.07867c-.20862.0957-.39783.20209-.61731.29175Z"/><path d="M231.01866,64.19036c-.08228.0821-.15406.17048-.23145.25544.07922-.087.15283-.17719.23706-.26111Z"/><path d="M343.87083,128.608a16.68011,16.68011,0,0,0-8.731,3.85858,16.68005,16.68005,0,0,1,8.731-3.85852Z"/><path d="M321.1273,224.66009v11.166h3.87793q3.90087,0,5.65332-1.44825a5.25581,5.25581,0,0,0,1.752-4.29882,4.6246,4.6246,0,0,0-1.89258-4.15723,10.37464,10.37464,0,0,0-5.69922-1.26172Z"/><path d="M548.39024,7.37738h-83.886l37.481,54.34826A7.902,7.902,0,0,1,503.645,62.919l.00085.00086a7.21811,7.21811,0,0,1,2.20337,4.40881l4.538,6.58008V60.949h1.11474V75.44519c.00281.02716-.00158.054.00086.08117L536.83238,112.255c18.46777,2.87622,26.99572,18.97308,26.99572,36.4223,0,.80518-.03662,1.68347-.089,2.59314l47.99671,69.59644V70.723A63.34553,63.34553,0,0,0,548.39024,7.37738Zm-23.90308,68.036h-8.043V60.9494h7.886v.929h-6.767v5.782h6.59094v.944h-6.59094v5.87h6.92395Zm16.20508-1.14447a10.74779,10.74779,0,0,1-5.11584,1.35064,7.58237,7.58237,0,0,1-5.50892-2.11847,7.40642,7.40642,0,0,1-.00463-10.472h.00024l.00439-.00464a.532.532,0,0,0,.10181-.10174,7.54549,7.54549,0,0,1,5.35156-2.13233,12.1506,12.1506,0,0,1,5.028,1.19122v-.0025l.06006.02771c-.01966-.00946-.04041-.01581-.06006-.02521v1.21393a11.069,11.069,0,0,0-5.162-1.44775,6.07681,6.07681,0,0,0-4.49133,1.84094,6.2083,6.2083,0,0,0-1.81311,4.57916,6.13226,6.13226,0,0,0,1.81311,4.607,6.38153,6.38153,0,0,0,4.6532,1.78546,10.92767,10.92767,0,0,0,5.14355-1.44782Zm14.25-12.39051h-5.421v13.535h-1.13294v-13.535h-5.43505v-.929h11.989Z"/><path d="M254.378,68.25518a4.83687,4.83687,0,0,0,.70532-.40686,3.25634,3.25634,0,0,0,.96-1.6524,3.25571,3.25571,0,0,1-.96008,1.6524A4.83618,4.83618,0,0,1,254.378,68.25518Z"/><path d="M255.93467,64.33587a3.26235,3.26235,0,0,0-.67554-1.10834.67574.67574,0,0,0-.162-.16192.67309.67309,0,0,1,.16186.16192A3.26081,3.26081,0,0,1,255.93467,64.33587Z"/><polygon points="326.713 64.59 326.713 64.59 329.063 70.385 326.713 64.59"/><path d="M412.9437,230.49993q-.35155-.93456-.96972-2.94335-.61964-2.0083-.85254-2.94336a52.44342,52.44342,0,0,1-1.8457,6.28418l-3.083,8.89941h9.95117Z"/><path d="M203.92076,142.28271l-37.20777,25.66-.35217.94623,86.273-59.49756H227.61314v-17.108h49.82764l14.449-9.96454-1.062,9.96454h9.14844v14.827l-12.24744,14.25165-4.53186,42.52331h16.7793v17.108H281.37364l-4.4441,41.69953q3.999-3.27723,10.56592-3.2887,7.61572,0,11.77344,4.60156,4.15722,4.60254,4.15723,12.96485,0,8.33936-4.16895,12.96386-4.17041,4.626-11.80859,4.625-7.73145,0-11.87793-4.58984a13.764,13.764,0,0,1-1.355-1.81207l-3.1416,29.47858H415.5222l39.88916-27.50928-14.34754-23.24805h-.18652l.11621,1.51856q.32665,4.34472.32715,7.94238v17.75293H436.2523V219.94134h6.77344l16.749,27.07324h.13965q-.04687-.53613-.18653-3.91211-.14062-3.375-.14062-5.26757V219.94134h5.11621v23.77728l20.01367-13.8023V224.7304H474.6732v-4.78906h10.45239l-26.5105-38.441h-.904l-71.64917,49.41236v23.18h-5.373V237.204c0-.75989.01-1.63874.02722-2.60462l-4.12121,2.84223L370.598,254.09271h-4.92871l-2.55395-7.355-7.14039,4.92419v2.43079H352.4503l-23.69312,16.33978,2.39307-22.45593L326.64,240.45111H321.1273v13.6416h-5.582V219.94134h9.64648q5.6239,0,8.7544,1.79852l4.27343-40.10113c-16.657-3.52625-28.23169-17.41412-28.23169-34.22852v-.25372c0-19.14172,15.12171-34.7373,35.67115-35.32886l3.77221-35.39825h-1.97412v-16.028h3.68213l3.207-30.09344-15.814-22.9306H303.35044L172.91856,97.32885Zm204.187,77.519H414.181l12.77734,34.291h-5.93261l-3.41016-9.4834H404.557l-3.33985,9.4834h-5.88672ZM338.5731,60.40228h4.82422V76.42944H338.5731Zm-14.55176-.00318h5.40723l6.99817,16.0318h-4.94458l-1.31824-3.24707h-6.95679l-1.33191,3.24707h-4.9447Zm-27.87512.00232h4.381l4.926,6.014,4.93994-6.014h4.394v16.028h-4.843v-9.289l-4.3479,5.376h-.38806l-4.36706-5.376v9.289h-4.69495Zm-24.71106.738h1.05811l12.24389,14.116V61.1394h1.249v16.161h-1.031l-12.272-14.136v14.136h-1.248Zm-11.56689,0h8.81091v1.045h-7.567v6.462h7.368v1.045h-7.368v6.564h7.75708v1.045h-9.001Zm-12.121-.00256h4.45423a5.99437,5.99437,0,0,1,3.91321,1.14709,4.22693,4.22693,0,0,1-.08777,6.29065,6.06423,6.06423,0,0,1-4.015,1.17481h-3.08972v7.521h-1.24438Zm-17.80944,2.40893.15722-.16192a8.34446,8.34446,0,0,1,6.04566-2.40522V60.937a8.307,8.307,0,0,1,6.07312,2.40521,8.176,8.176,0,0,1,.24047,11.559.14216.14216,0,0,0-.037.037l-.20349.19891a8.83825,8.83825,0,0,1-12.11878,0A8.20141,8.20141,0,0,1,229.93785,63.54577Z"/><path d="M287.44859,249.79486q4.97607,0,7.51074-3.22364,2.53417-3.22412,2.53418-9.60058,0-6.28419-2.51172-9.53125-2.51074-3.24609-7.48633-3.2461-5.02294,0-7.58008,3.2461-2.55761,3.24756-2.55761,9.53125,0,6.30615,2.5459,9.56543Q282.44956,249.79388,287.44859,249.79486Z"/><polygon points="231.006 74.309 231.006 74.309 231.025 74.328 231.006 74.309 231.006 74.309"/><polygon points="266.434 321.171 266.299 322.445 279.882 342.142 321.988 342.142 352.396 321.171 266.434 321.171"/><polygon points="35.439 321.171 35.439 277.636 109.425 277.636 11.736 135.985 11.736 323.699 11.736 342.142 153.911 342.142 139.448 321.171 35.439 321.171"/><path d="M75.0814,7.37738A63.34553,63.34553,0,0,0,11.73582,70.723v40.8424L162.811,7.37738Z"/><polygon points="588.971 277.636 588.971 321.171 492.935 321.171 462.527 342.142 611.736 342.142 611.736 239.241 556.062 277.636 588.971 277.636"/><path d="M329.47166,142.34851a20.08242,20.08242,0,0,1,.58386-2.14411A20.08242,20.08242,0,0,0,329.47166,142.34851Z"/><path d="M330.048,153.61a19.91868,19.91868,0,0,1-.78247-3.14667A19.91868,19.91868,0,0,0,330.048,153.61Z"/><path d="M328.99717,146.9035v.00006a21.74543,21.74543,0,0,1,.47449-4.555A21.74485,21.74485,0,0,0,328.99717,146.9035Z"/><path d="M333.01951,159.17608A19.00225,19.00225,0,0,1,330.048,153.61,19.00225,19.00225,0,0,0,333.01951,159.17608Z"/><path d="M468.91905,67.67309a4.18025,4.18025,0,0,0,1.0603-.0708,4.1785,4.1785,0,0,1-1.06043.0708Z"/><path d="M471.8469,62.77471a.26288.26288,0,0,0,.03235.037l.00073.00067-.00048-.00067a.25236.25236,0,0,1-.03247-.03705l-.14344-.15722a4.01286,4.01286,0,0,0-2.64111-.78168h-.00012a4.01246,4.01246,0,0,1,2.64111.78168Z"/><path d="M471.67124,66.90521a4.1996,4.1996,0,0,1-1.30883.62512A4.19822,4.19822,0,0,0,471.67124,66.90521Z"/><path d="M471.67271,66.90387h.00012a2.87221,2.87221,0,0,0,.26428-.29218,2.88086,2.88086,0,0,1-.26587.29352Z"/><path d="M391.91136,66.95147a1.618,1.618,0,0,0,.516-.63836A1.61837,1.61837,0,0,1,391.91136,66.95147Z"/><g class="cls-1"><path d="M563.57432,153.74633H516.30454c1.9004,8.74463,7.98353,13.307,16.60157,13.307,6.46277,0,11.15161-2.02747,16.47436-6.97009l11.02588,9.758c-6.33691,7.857-15.46094,12.6731-27.75391,12.6731-20.40356,0-35.48425-14.32037-35.48425-35.10413v-.25366c0-19.38946,13.8136-35.35712,33.58338-35.35712a39.483,39.483,0,0,1,6.08081.45557L511.50279,75.52636a4.68663,4.68663,0,0,1-.8982,3.19367,2.8995,2.8995,0,0,1-2.13232.91583q-.33307.01383-.666.00006l-.1018-1.04541a3.47688,3.47688,0,0,0,.65222.074c1.36462,0,2.03052-.95746,2.03052-2.90015V73.90875l-4.538-6.58008a7.23291,7.23291,0,0,1-1.94519,5.84039c-.02771.02771-.05554.05542-.08325.08783l-.17578.185a7.906,7.906,0,0,1-10.85584,0,7.33867,7.33867,0,0,1-.15258-10.37024l.00915-.00464.14343-.148a7.909,7.909,0,0,1,9.19605-1.19336l-37.481-54.34826H338.53233l15.814,22.9306-3.207,30.09344h.606l8.28906,8.881v-8.881h4.81494v16.028h-4.292l-8.317-8.928v8.928h-2.809L345.659,111.82763c.40173-.01153.80175-.02826,1.20752-.02826,21.03674,0,36.62426,15.58753,36.62414,35.10413v.253c0,19.51666-15.714,35.35779-36.87781,35.35779a40.46316,40.46316,0,0,1-8.39331-.87555l-4.27343,40.10113a8.6766,8.6766,0,0,1,1.03369.678q3.17578,2.47558,3.17676,7.47461c0,4.04-2.02259,6.96283-6.01648,8.79517l-.11487,1.07867,9.145,14.32636h-6.35449l-3.66553-6.11615-2.39307,22.45593,23.69312-16.33978h-1.5437V219.94134h7.87207l8.38061,24.00751,3.16187-2.18067,7.84521-21.82684h7.89551v10.97138L457.711,181.50036h-4.39282l-13.053-41.694-13.306,41.694h-17.235l-20.911-68.434h19.517l10.899,41.187,12.799-41.44h16.602l12.926,41.567,11.152-41.314h19.137l-21.16491,68.434H458.61509l26.5105,38.441h15.21948v4.78906H490.30015v29.36231h-5.583V229.91632l-20.01367,13.8023v10.37409h-6.84473l-2.44738-3.96582L415.5222,277.63617H556.06187l55.67395-38.39509v-18.3742l-47.99671-69.59644C563.69261,152.07885,563.63389,152.91168,563.57432,153.74633ZM380.35826,63.61743h-6.65113v3.10394h6.65113v3.215h-6.65113v6.493h-4.82885v-16.031h11.48ZM393.93736,76.429l-1.25818-2.89557a12.41281,12.41281,0,0,0-1.2489-2.28027,2.689,2.689,0,0,0-1.08228-.92505,3.92592,3.92592,0,0,0-1.3645-.20349h-.53662v6.26282h-4.84277V60.40185h8.21936a5.92472,5.92472,0,0,1,3.26086.80945,4.86557,4.86557,0,0,1,1.84094,1.9566,5.064,5.064,0,0,1,.55042,2.20166,4.07658,4.07658,0,0,1-.46241,2.05835,3.76036,3.76036,0,0,1-.98535,1.21643,10.99306,10.99306,0,0,1-1.1748.7262,4.44835,4.44835,0,0,1,1.27661,1.07306,12.79209,12.79209,0,0,1,1.42,2.47925l1.57727,3.5061Zm20.03271.00195-1.30432-3.24707h-6.95666l-1.332,3.24707h-4.95849l7.08618-16.0318h5.34692l7.063,16.0318Zm25.71314-.00152h-4.824v-9.289l-4.36694,5.376h-.374l-4.38111-5.376v9.289h-4.69494v-16.028h4.395l4.912,6.014,4.958-6.014h4.376Zm16.13208,0H443.72923v-16.028h11.88293v3.215h-7.04492v2.928h6.72595v3.233h-6.72595v3.419h7.248Zm16.781-8.82569a5.38171,5.38171,0,0,1-3.60779,1.04071h-2.75207v6.77167h-1.11487V60.94769h3.98718a5.18542,5.18542,0,0,1,3.48755,1.03149,3.40664,3.40664,0,0,1,1.22119,2.7984A3.52062,3.52062,0,0,1,472.59629,67.60369Zm14.65625,7.81238-2.521-3.94092a9.42108,9.42108,0,0,0-1.95655-2.47924,3.64836,3.64836,0,0,0-2.05835-.49488h-1.998l-.00012,6.94275h-1.11475l.04162-14.49615h3.69581a5.4866,5.4866,0,0,1,3.56616,1.01764,3.33944,3.33944,0,0,1,1.23034,2.72436,3.59363,3.59363,0,0,1-2.75207,3.50611,6.69373,6.69373,0,0,1,1.92871,2.22015l3.2749,5.00018Z"/></g><path d="M388.44688,67.3446v.00006h1.03149a5.41367,5.41367,0,0,0,.6222.00733,5.416,5.416,0,0,1-.6222-.00739Z"/><path d="M481.12376,61.87738a4.62329,4.62329,0,0,1,1.34094.12378,4.62618,4.62618,0,0,0-1.34106-.12385h-2.36353l.00012,5.66626V61.87738Z"/><polygon points="291.89 82.319 277.441 92.283 290.828 92.283 291.89 82.319"/><polygon points="163.787 129.341 131.689 151.477 138.028 91.989 131.301 82.235 83.695 115.066 91.457 126.321 122.555 104.874 116.215 164.363 122.943 174.117 171.55 140.596 163.787 129.341"/><polygon points="283.197 163.885 287.729 121.362 251.185 163.885 283.197 163.885"/><g class="cls-1"><polygon points="266.434 321.171 139.448 321.171 153.911 342.142 279.882 342.142 266.299 322.445 266.434 321.171"/></g><g class="cls-1"><polygon points="352.396 321.171 321.988 342.142 462.527 342.142 492.935 321.171 352.396 321.171"/></g><g class="cls-1"><path d="M271.07408,277.63617l3.1416-29.47858c-1.85047-2.88678-2.79151-6.6214-2.79151-11.23383q0-8.45654,4.16993-12.98828a12.97245,12.97245,0,0,1,1.33544-1.24255l4.4441-41.69953h-55.2815v-14.827l48.791-56.775H252.63377l-86.273,59.49756.35217-.94623-53.69751,37.03217L50.32322,114.06958l90.90527-62.6922,31.69007,45.95147L303.35044,7.37738H162.811L11.73582,111.56536v24.41919l97.68909,141.65162ZM242.8607,219.94134h19.2705v4.71875H248.39683V235.3349H261.267v4.74218H248.39683v14.01563H242.8607Zm-42.252,0h6.77344l16.749,27.07324h.13965q-.04687-.53613-.18652-3.91211-.14062-3.375-.14063-5.26757V219.94134h5.11622v34.15137h-6.84473l-16.79492-27.21387h-.18653l.11621,1.51856q.32667,4.34472.32715,7.94238v17.75293h-5.06836Zm-39.95117,3.99414q4.169-4.53077,11.90137-4.53125,7.61572,0,11.77344,4.60156,4.15722,4.60254,4.15722,12.96485,0,8.33936-4.16894,12.96386-4.17042,4.626-11.8086,4.625-7.73144,0-11.87793-4.58984-4.147-4.58936-4.14648-13.0459Q156.48765,228.46723,160.65757,223.93548Zm-37.32324,3.76172a13.91309,13.91309,0,0,1,5.64062-6.12012,17.06689,17.06689,0,0,1,8.667-2.126,21.519,21.519,0,0,1,9.66992,2.19531l-2.00879,4.64844a30.10625,30.10625,0,0,0-3.65527-1.43653,13.19016,13.19016,0,0,0-4.05274-.61914,9.20125,9.20125,0,0,0-7.56836,3.41114q-2.75684,3.41015-2.75683,9.41308,0,6.28417,2.65136,9.50781,2.65137,3.22266,7.67383,3.22364a20.15564,20.15564,0,0,0,4.2041-.43262q2.03321-.43214,4.22852-1.10938v4.78907a25.64876,25.64876,0,0,1-9.11035,1.51757q-7.49855,0-11.51563-4.543-4.01806-4.54248-4.01855-12.999A20.99656,20.99656,0,0,1,123.33433,227.6972Z"/></g><g class="cls-1"><path d="M172.51206,249.79486q4.97609,0,7.51075-3.22364,2.53418-3.22412,2.53418-9.60058,0-6.28419-2.51172-9.53125-2.51074-3.24609-7.48633-3.2461-5.02295,0-7.58008,3.2461-2.55762,3.24756-2.55762,9.53125,0,6.30615,2.5459,9.56543Q167.513,249.79388,172.51206,249.79486Z"/></g><path d="M346.61289,128.401a17.4554,17.4554,0,0,1,8.86121,2.33355,17.45543,17.45543,0,0,0-8.86121-2.33361,19.89493,19.89493,0,0,0-2.74206.207v.00006A19.89637,19.89637,0,0,1,346.61289,128.401Z"/><path d="M493.63047,63.64569c-.06323.06317-.11767.13141-.17761.19647.06018-.06525.11475-.13367.1781-.197Z"/><path d="M497.5709,74.5296a6.24321,6.24321,0,0,0,.63916.01782v.01385h.00012v-.01385A6.24556,6.24556,0,0,1,497.5709,74.5296Z"/><path d="M381.03941,225.6181h-.18653l-4.25805,11.82355,4.12121-2.84223c.02124-1.19153.05432-2.52386.10169-4.02917Q380.94517,226.48187,381.03941,225.6181Z"/><path d="M355.57749,225.57122q.397,6.35449.39746,11.91309v14.17761l7.14039-4.92419L355.765,225.57122Z"/><path d="M11.73582,463.28289h600V352.31256h-600Zm3.6001-107.3703h592.7998V459.68292H15.33592Z"/><path d="M392.16661,64.21527a1.61889,1.61889,0,0,0-.343-.29346,4.73112,4.73112,0,0,0-2.36377-.44867h-1.01294V67.3446h1.03149a5.41548,5.41548,0,0,0,2.433-.39313,1.61757,1.61757,0,0,0,.65222-1.44775v-.04633a1.62151,1.62151,0,0,0-.397-1.24212Z"/><path d="M484.28282,62.96435l-.333-.333a4.80513,4.80513,0,0,0-2.82605-.754h-2.36353v5.66619h2.39124a4.66007,4.66007,0,0,0,2.81225-.74011A2.7255,2.7255,0,0,0,484.28282,62.96435Z"/><path d="M472.46714,63.80249a2.91682,2.91682,0,0,0-.17346-.37488c-.02417-.04663-.03894-.09644-.0658-.142a2.951,2.951,0,0,0-.24487-.33331c-.03662-.0456-.06335-.096-.103-.14l-.00073-.00067a.26288.26288,0,0,1-.03235-.037l-.14343-.15728a4.01246,4.01246,0,0,0-2.64111-.78168l-2.82593.04156v5.79578h2.68249a4.1785,4.1785,0,0,0,1.06043-.0708c.12793-.02313.25793-.037.38306-.072a4.1996,4.1996,0,0,0,1.30883-.62512,2.88086,2.88086,0,0,0,.26587-.29352c.0409-.04858.09131-.09143.12854-.14209a2.83734,2.83734,0,0,0,.214-.3606c.02332-.04394.05542-.084.07642-.12884a2.86932,2.86932,0,0,0,.15088-.42786c.00976-.034.02685-.06592.03528-.10016a2.88113,2.88113,0,0,0,.06018-.407c.00488-.048.01855-.09491.021-.14313a2.89656,2.89656,0,0,0-.01843-.415c-.00427-.04669.00012-.09375-.00635-.14019a2.88847,2.88847,0,0,0-.10119-.41877C472.48521,63.88653,472.4813,63.8435,472.46714,63.80249Z"/><path d="M340.03892,164.566l3.83191-35.958a16.68005,16.68005,0,0,0-8.731,3.85852,16.95687,16.95687,0,0,0-4.27771,5.70929,19.01356,19.01356,0,0,0-.80664,2.02856,20.08242,20.08242,0,0,0-.58386,2.14411,21.74543,21.74543,0,0,0-.47449,4.555v.25293a20.42651,20.42651,0,0,0,.26831,3.30682A19.91868,19.91868,0,0,0,330.048,153.61a19.00225,19.00225,0,0,0,2.97156,5.5661A17.20594,17.20594,0,0,0,340.03892,164.566Z"/><g class="cls-1"><path d="M343.87083,128.608l-3.83191,35.958a17.701,17.701,0,0,0,6.82764,1.34668c11.025,0,17.615-8.49085,17.615-18.50251v-.25366a20.21031,20.21031,0,0,0-.18811-2.71881,19.80858,19.80858,0,0,0-2.19568-6.76843,18.36691,18.36691,0,0,0-2.36609-3.41181c-.06665-.07556-.12488-.15869-.19275-.233a17.2467,17.2467,0,0,0-4.06482-3.28992,17.4554,17.4554,0,0,0-8.86121-2.33355A19.89637,19.89637,0,0,0,343.87083,128.608Z"/></g><polygon points="406.838 70.385 411.551 70.385 409.201 64.59 406.838 70.385"/><path d="M254.378,68.25518a4.83618,4.83618,0,0,0,.7052-.40686,3.25571,3.25571,0,0,0,.96008-1.6524,3.26729,3.26729,0,0,0-.7843-2.96839.67309.67309,0,0,0-.16186-.16192,4.3205,4.3205,0,0,0-2.89563-.88342h-3.20533V68.704h3.01575A4.83777,4.83777,0,0,0,254.378,68.25518Z"/><g class="cls-1"><path d="M526.5604,127.84429a12.84339,12.84339,0,0,0-4.61267,2.46784,15.0109,15.0109,0,0,0-3.42151,4.1698,22.4204,22.4204,0,0,0-2.47534,7.22565h29.021c-.09912-.74939-.23853-1.46924-.39673-2.17438a16.62678,16.62678,0,0,0-5.04614-9.12982c-.09363-.08112-.19336-.154-.28919-.23224a13.246,13.246,0,0,0-8.58838-2.91077A14.70944,14.70944,0,0,0,526.5604,127.84429Z"/></g><polygon points="329.063 70.385 326.713 64.59 324.341 70.385 329.063 70.385"/><path d="M230.5128,73.761c.08471.10437.18078.20233.27246.30292.074.08136.14209.166.22058.24469l.00061.00055.01843.01855a7.36174,7.36174,0,0,0,10.21765,0,7.2672,7.2672,0,0,0,.906-1.12921,7.21483,7.21483,0,0,0,1.13257-3.25659q.0324-.34213.03247-.686a7.28943,7.28943,0,0,0-.1294-1.36707q-.06481-.33848-.16186-.67114a7.203,7.203,0,0,0-1.07593-2.1994,6.74653,6.74653,0,0,0-3.76343-2.60212,7.36825,7.36825,0,0,0-7.15808,1.76795l-.00061.00055c-.08423.08392-.15784.17413-.23706.26111-.08618.09466-.17749.18628-.25757.2843-.07068.08618-.131.17767-.1969.26636-.07715.10376-.15905.20513-.23.312-.05823.08777-.10632.18-.16028.26971-.06787.11279-.14013.22376-.201.33936-.04724.08966-.08483.1828-.12805.27392-.05688.11988-.11792.23822-.16772.36048-.04248.10418-.07447.21136-.11182.31707-.03967.11231-.08435.22315-.11828.33692-.03211.10791-.05384.21808-.08069.32715-.02845.11468-.06189.22839-.08448.344-.02014.10327-.03027.20783-.04577.31177-.01843.12274-.04163.24493-.05359.36829-.01074.11053-.011.22155-.0166.33233-.00611.11786-.01709.23548-.01734.35346-.00024.10955.01.21881.0149.32824.00512.11927.00537.23877.0166.35767.01.10736.03052.21362.04541.3205.01684.12023.02856.24115.05151.36059.01953.10144.04907.20111.073.30182.0293.12323.05383.24731.0896.36914.03247.11041.07568.218.11352.327.038.10931.07081.22.11426.32775.04444.11036.09986.21705.15.32551.048.10357.09057.209.14367.31073.0503.096.11084.1878.16577.282.064.10962.12317.22137.19349.32824.06872.1045.14843.20362.22326.30518C230.37925,73.57843,230.44078,73.67242,230.5128,73.761Z"/><path d="M493.631,63.6452c-.06335.06329-.11792.13171-.1781.197-.0885.09607-.18054.19006-.26208.29-.03016.037-.05481.07678-.084.11426-.10327.13263-.20581.26574-.29736.40429a6.35437,6.35437,0,0,0-.56714,1.07324c-.00574.01374-.01331.02686-.0188.04065-.04517.11121-.07983.22528-.11841.33832-.02844.08313-.06225.16486-.08716.2489-.01477.05011-.02343.10138-.037.15174-.04016.14886-.08033.29785-.1095.44873-.0105.054-.01453.10888-.02356.16314-.02478.14844-.05017.29682-.06433.44635-.0083.08716-.00781.17475-.0127.26209-.00634.11731-.01672.2345-.01672.35193,0,.11206.01013.22394.016.33587.00488.09278.00452.18567.01343.2782.01147.12006.03345.23889.05163.35828.01282.08368.02015.168.03626.25122.02685.13837.06445.27478.10034.4115.0166.06274.02783.12659.04614.1889.02491.08405.05872.16577.08716.2489.03858.113.07324.22718.11841.33832.00549.0138.01306.02692.0188.04065a6.35753,6.35753,0,0,0,.56738,1.07349c.04175.06317.09131.12237.1355.18438.08008.11237.15759.22608.24585.33423.01648.02021.03613.03864.053.05872.12256.14642.24939.2904.387.42792a6.25518,6.25518,0,0,0,4.57922,1.841v.01385a6.20576,6.20576,0,0,0,4.56531-1.84094,6.4662,6.4662,0,0,0,0-9.07513A6.56,6.56,0,0,0,493.631,63.6452Z"/><path d="M472.22788,63.28564c.02686.04553.04163.09534.0658.142"/><path d="M472.46714,63.80249c.01416.041.01807.084.03028.12548"/><path d="M472.6024,65.0451c.00488-.048.01855-.09491.021-.14313"/><path d="M472.50694,65.5523c.00976-.034.02685-.06592.03528-.10016"/><path d="M472.27964,66.109c.02332-.04394.05542-.084.07642-.12884"/><path d="M471.93711,66.61169c.0409-.04858.09131-.09143.12854-.14209"/><path d="M469.97935,67.60229c.12793-.02313.25793-.037.38306-.072"/><path d="M472.59861,64.34674c.00647.04644.00208.0935.00635.14019"/><path d="M493.19078,64.1322c.08154-.1.17358-.194.26208-.29"/><path d="M495.7313,74.09759a6.25514,6.25514,0,0,1-1.62671-.96149"/><path d="M491.75413,68.17584c0-.11743.01038-.23462.01672-.35193"/><path d="M491.87144,66.95233c.02917-.15088.06934-.29987.1095-.44873"/><path d="M492.80943,64.65075c.09155-.13855.19409-.27166.29736-.40429"/><path d="M492.10508,70.24871c.03858.113.07324.22718.11841.33832"/><path d="M492.22349,65.76464c.00549-.01379.01306-.02691.0188-.04065"/><path d="M492.01792,66.35186c.02491-.084.05872-.16577.08716-.2489"/><path d="M493.191,72.21978c-.08826-.10815-.16577-.22186-.24585-.33423"/><path d="M491.83518,69.14819c.01282.08368.02015.168.03626.25122"/><path d="M491.97178,69.81091c.0166.06274.02783.12659.04614.1889"/><path d="M491.77012,68.51171c.00488.09278.00452.18567.01343.2782"/><path d="M491.78355,67.56182c.01416-.14953.03955-.29791.06433-.44635"/><path d="M391.82359,63.92181a4.73233,4.73233,0,0,0-1.75476-.45178"/><path d="M392.16661,64.21527a1.62154,1.62154,0,0,1,.3811.791"/><path d="M228.94859,69.92889c-.01123-.1189-.01148-.2384-.0166-.35767"/><path d="M229.04551,70.61c-.023-.11944-.03467-.24036-.05151-.36059"/><path d="M230.08885,73.18212c-.07032-.10687-.12952-.21862-.19349-.32824"/><path d="M243.02232,67.21771a7.197,7.197,0,0,0-.51782-1.29273"/><path d="M242.5045,65.925a7.19679,7.19679,0,0,0-.55811-.90667"/><path d="M230.78721,64.4458c-.08618.09466-.17749.18628-.25757.2843"/><path d="M229.72959,72.5719c-.0531-.10169-.0957-.20716-.14367-.31073"/><path d="M230.5128,73.761c-.072-.08856-.13355-.18255-.20069-.27368"/><path d="M243.18418,67.88885a7.28943,7.28943,0,0,1,.1294,1.36707"/><path d="M229.43589,71.93566c-.04345-.10772-.07629-.21844-.11426-.32775"/><path d="M229.20811,71.28094c-.03577-.12183-.0603-.24591-.0896-.36914"/><path d="M230.33274,64.99646c-.07715.10376-.15905.20513-.23.312"/><path d="M228.93443,68.88952c-.00611.11786-.01709.23548-.01734.35346"/><path d="M229.13487,67.53308c-.02845.11468-.06189.22839-.08448.344"/><path d="M229.00462,68.1889c-.01843.12274-.04163.24493-.05359.36829"/><path d="M229.94248,65.57818c-.06787.11279-.14013.22376-.201.33936"/><path d="M229.61338,66.19146c-.05688.11988-.11792.23822-.16772.36048"/><path d="M229.33384,66.869c-.03967.11231-.08435.22315-.11828.33692"/><path d="M359.53892,134.02447c.06787.07434.1261.15747.19275.233"/><path d="M113.62535,288.329a7.52047,7.52047,0,0,0-5.00293,1.52734,5.20176,5.20176,0,0,0-1.80957,4.19727,5.30162,5.30162,0,0,0,.55078,2.47753,6.23837,6.23837,0,0,0,1.47265,1.85743,12.32966,12.32966,0,0,0,2.7666,1.666,25.07909,25.07909,0,0,1,2.60743,1.36231,3.69625,3.69625,0,0,1,.9707.88769,1.76562,1.76562,0,0,1,.33008,1.05274,1.83749,1.83749,0,0,1-.75,1.59668,3.67227,3.67227,0,0,1-2.1543.53613,10.22949,10.22949,0,0,1-2.58008-.37109,23.513,23.513,0,0,1-3.44726-1.28028v3.96387a12.81159,12.81159,0,0,0,5.69726,1.21094,8.5212,8.5212,0,0,0,5.457-1.56934,5.19957,5.19957,0,0,0,1.96094-4.29394,5.27712,5.27712,0,0,0-1.0459-3.32325,10.76833,10.76833,0,0,0-3.86718-2.7041,25.5379,25.5379,0,0,1-2.70411-1.41113,2.85363,2.85363,0,0,1-.833-.81152,1.82737,1.82737,0,0,1-.26172-.98438,1.86185,1.86185,0,0,1,.64746-1.47266,2.741,2.741,0,0,1,1.85742-.56445,8.60029,8.60029,0,0,1,2.07129.26172,20.17132,20.17132,0,0,1,2.66309.92187l.69177-1.66711-1.74158-2.52521c-.18359-.05438-.37317-.12286-.55371-.17A11.79546,11.79546,0,0,0,113.62535,288.329Z"/><path d="M119.598,289.746a21.10841,21.10841,0,0,0-2.42578-.87592l1.74158,2.52521Z"/><path d="M143.92222,300.90716a5.18212,5.18212,0,0,1-.94336,3.43359,3.80192,3.80192,0,0,1-3.03418,1.09473,3.8886,3.8886,0,0,1-3.09668-1.08789,5.15781,5.15781,0,0,1-.93555-3.41309V288.61712h-4.25292V301.582a7.05175,7.05175,0,0,0,2.14746,5.44238,8.5345,8.5345,0,0,0,6.02734,1.98926,10.30586,10.30586,0,0,0,4.459-.89453,6.49881,6.49881,0,0,0,2.88379-2.57422,7.505,7.505,0,0,0,.99707-3.90821V288.61712h-4.25195Z"/><path d="M173.55113,290.19329a8.55029,8.55029,0,0,0-5.56739-1.57617H161.557v20.1211h4.2666V301.582h1.83008a8.67842,8.67842,0,0,0,5.77343-1.72071,6.14809,6.14809,0,0,0,2.03028-4.96777A5.74714,5.74714,0,0,0,173.55113,290.19329Zm-3.37891,7.11524a4.67344,4.67344,0,0,1-2.94531.77734h-1.40332v-5.97265H167.764a3.83388,3.83388,0,0,1,2.5664.71582,2.79014,2.79014,0,0,1,.81934,2.21582A2.72237,2.72237,0,0,1,170.17222,297.30853Z"/><path d="M199.70542,290.19329a8.55024,8.55024,0,0,0-5.56738-1.57617h-6.42676v20.1211h4.2666V301.582H193.808a8.67845,8.67845,0,0,0,5.77344-1.72071,6.14809,6.14809,0,0,0,2.03027-4.96777A5.74711,5.74711,0,0,0,199.70542,290.19329Zm-3.3789,7.11524a4.67347,4.67347,0,0,1-2.94532.77734h-1.40332v-5.97265h1.94043a3.83392,3.83392,0,0,1,2.56641.71582,2.79014,2.79014,0,0,1,.81934,2.21582A2.72239,2.72239,0,0,1,196.32652,297.30853Z"/><path d="M222.57749,288.30072q-4.63916,0-7.12207,2.64941Q212.971,293.6,212.97105,298.623t2.47754,7.707q2.477,2.6836,7.10156,2.6836,4.623,0,7.10059-2.6836,2.477-2.68359,2.47754-7.67968,0-5.00978-2.45606-7.67969Q227.21421,288.30169,222.57749,288.30072Zm-.02734,17.13476a4.47828,4.47828,0,0,1-3.82617-1.707,10.67461,10.67461,0,0,1,.01367-10.16309,4.50726,4.50726,0,0,1,3.83984-1.71386q5.07862,0,5.07813,6.79883Q227.65562,305.43548,222.55015,305.43548Z"/><path d="M257.67613,297.80365a5.95068,5.95068,0,0,0-.99121-7.69239q-1.96729-1.49414-6.06836-1.49414h-5.86328v20.1211h4.2666v-7.72071h2.2705l4.80274,7.72071h4.73437q-1.37549-1.98194-5.918-8.76661A6.46088,6.46088,0,0,0,257.67613,297.80365Zm-4.29395-.92872a5.2601,5.2601,0,0,1-2.98633.67481h-1.376v-5.43652h1.293a5.97593,5.97593,0,0,1,3.04882.60546,2.20265,2.20265,0,0,1,.98438,2.03711A2.40625,2.40625,0,0,1,253.38218,296.87493Z"/><polygon points="269.848 292.168 275.312 292.168 275.312 308.738 279.577 308.738 279.577 292.168 285.041 292.168 285.041 288.617 269.904 288.617 269.848 289.14 269.848 292.168"/><polygon points="269.848 289.14 269.904 288.617 269.848 288.617 269.848 289.14"/><path d="M316.63706,301.582h1.83008a8.67845,8.67845,0,0,0,5.77344-1.72071,6.14809,6.14809,0,0,0,2.03027-4.96777,5.74711,5.74711,0,0,0-1.90625-4.7002,8.55024,8.55024,0,0,0-5.56738-1.57617h-6.42676v20.1211h4.2666Zm0-9.46875h1.94043a3.83392,3.83392,0,0,1,2.56641.71582,2.79014,2.79014,0,0,1,.81934,2.21582,2.72239,2.72239,0,0,1-.97754,2.26367,4.67347,4.67347,0,0,1-2.94532.77734h-1.40332Z"/><path d="M342.79136,301.01751h2.27051l4.80273,7.72071H354.599q-1.37549-1.98194-5.918-8.76661a6.46082,6.46082,0,0,0,2.7666-2.168,5.95068,5.95068,0,0,0-.99121-7.69239q-1.96728-1.49414-6.06836-1.49414h-5.86328v20.1211h4.2666Zm0-8.90429h1.293a5.976,5.976,0,0,1,3.04883.60546,2.20265,2.20265,0,0,1,.98437,2.03711,2.40626,2.40626,0,0,1-.96386,2.11914,5.26012,5.26012,0,0,1-2.98633.67481h-1.376Z"/><path d="M374.27183,305.43548a4.47828,4.47828,0,0,1-3.82617-1.707,10.67461,10.67461,0,0,1,.01367-10.16309,4.50726,4.50726,0,0,1,3.83984-1.71386q5.07862,0,5.07813,6.79883a9.12835,9.12835,0,0,1-.98621,4.593l5.43189-3.74609c.01257-.279.027-.55621.027-.84692q0-5.00978-2.45605-7.67969-2.458-2.66895-7.09473-2.66992-4.63916,0-7.12207,2.64941-2.48437,2.6499-2.48437,7.67285t2.47754,7.707a7.90479,7.90479,0,0,0,3.56982,2.18976l4.61109-3.17993A6.41478,6.41478,0,0,1,374.27183,305.43548Z"/><path d="M381.37242,306.33a10.43057,10.43057,0,0,0,2.45056-6.83276l-5.43189,3.74609a4.14691,4.14691,0,0,1-3.03991,2.0965l-4.61109,3.17993a11.98017,11.98017,0,0,0,3.53174.49384Q378.89487,309.01361,381.37242,306.33Z"/><polygon points="398.251 288.617 393.944 288.617 395.016 291.778 398.493 289.38 398.251 288.617"/><path d="M405.42124,308.73822l6.83985-20.1211h-4.30762L404.142,300.59075a35.08478,35.08478,0,0,0-1.03223,4.43165q-.08349-.55078-.41992-1.96094-.33691-1.41064-.6543-2.47071l-3.54285-11.21026-3.47656,2.39752,5.75379,16.96021Z"/><rect x="423.24839" y="288.61712" width="4.2666" height="20.12109"/><path d="M454.90074,306.09564q2.82861-2.64258,2.82812-7.61035a9.569,9.569,0,0,0-2.72461-7.26661q-2.7246-2.60156-7.65137-2.60156H441.0355v20.1211h5.69727Q452.07358,308.73822,454.90074,306.09564Zm-9.59864-13.98242h2.27051q5.72462,0,5.72559,6.48242,0,6.61962-6.166,6.61914H445.3021Z"/><polygon points="481.943 305.215 474.621 305.215 474.621 300.026 481.434 300.026 481.434 296.531 474.621 296.531 474.621 292.113 481.943 292.113 481.943 288.617 470.355 288.617 470.355 308.738 481.943 308.738 481.943 305.215"/><path d="M498.86265,301.01751h2.27051l4.80273,7.72071h4.73438q-1.37548-1.98194-5.918-8.76661a6.46082,6.46082,0,0,0,2.7666-2.168,5.95068,5.95068,0,0,0-.99121-7.69239q-1.96728-1.49414-6.06836-1.49414h-5.86328v20.1211h4.2666Zm0-8.90429h1.293a5.976,5.976,0,0,1,3.04883.60546,2.20265,2.20265,0,0,1,.98437,2.03711,2.40625,2.40625,0,0,1-.96387,2.11914,5.26006,5.26006,0,0,1-2.98632.67481h-1.376Z"/></svg>