<svg id="Layer_1" data-name="Layer 1" xmlns="http://www.w3.org/2000/svg" viewBox="0 0 45.52 49"><defs><style>.cls-1{fill:#237ae4;}.cls-2{fill:#002ea3;}</style></defs><path class="cls-1" d="M29.94,15.69l-1.42,7.07h6.82L34.5,27a11.19,11.19,0,0,1-5.87,1.44c-5.53,0-8.65-4-7.51-9.71l0-.1C22.2,13.3,26.92,9.11,32,9.11a10,10,0,0,1,7.76,3.29l7-6.87c-3-3.19-7-5-13.13-5A23.15,23.15,0,0,0,11.36,18.24c0,.12,0,.24,0,.36A23,23,0,0,0,11.6,23a16.44,16.44,0,0,0,2.74,6.92,12.91,12.91,0,0,0,4.76,4.12,18.06,18.06,0,0,0,3.36,1.18,20.63,20.63,0,0,0,8.08.38c.31,0,.62-.1.93-.16-.34-1.59-.69-3.17-1-4.75a1.46,1.46,0,0,1,.09-.49l0-.09.08-.39s0,0,0,0,.14.08.18.1l.35.21,1.12.68,3.38,2L38,34.15a30.36,30.36,0,0,0,4.82-2.83l3.13-15.63Z" transform="translate(-1.24 -0.5)"/><path class="cls-2" d="M42.29,37.83l-3.38-2-2-1.19L35,33.46l-3.24-1.94L30.9,31l1,4.37a6.69,6.69,0,0,1-.16.87c0,.06,0,.1,0,.1l-.31.07a19.8,19.8,0,0,1-6.35.3l-.13,0a21.57,21.57,0,0,1-4.34-1,12,12,0,0,1-2.69-1.26,13.24,13.24,0,0,1-4.37-4.56,17.56,17.56,0,0,1-2.24-7.21c-.06-.72-.1-1.45-.1-2.18,0-.39,0-.79,0-1.18a.38.38,0,0,1,0-.1,2.28,2.28,0,0,0,0-.51c0-.09,0,0,0,.08l-.05.13-.09.28c-.27.83-.49,1.66-.68,2.49v0l0,.09c0,.1,0,.2-.05.3l-.09.55c0,.4-.1.79-.14,1.18a21.82,21.82,0,0,0,.78,8.27c.1.33.21.66.33,1H5a.27.27,0,0,0,0,.53h6.33a16.7,16.7,0,0,0,1.54,3H8a.27.27,0,0,0,0,.53h5.25c.31.43.64.86,1,1.26a14.57,14.57,0,0,0,1.66,1.58H10.67a.27.27,0,0,0,0,.53H16.6l0,0a19.55,19.55,0,0,0,3.45,2,24.25,24.25,0,0,0,7.22,1.67,23.13,23.13,0,0,0,3.44.08l-.05.29a6.7,6.7,0,0,1-.14.68l-.33.7c-.56,1.21-1.13,2.41-1.69,3.62.51-.4,1.05-.77,1.57-1.16l4-3,4.62-3.46,3.82-2.85.79-.59Z" transform="translate(-1.24 -0.5)"/><path class="cls-2" d="M28.89,45.44a.25.25,0,0,0-.26-.26H24a.25.25,0,0,0-.26.26.26.26,0,0,0,.26.26h4.66A.26.26,0,0,0,28.89,45.44Z" transform="translate(-1.24 -0.5)"/><path class="cls-2" d="M18.29,42.86H16.91a.27.27,0,1,0,0,.53h1.38a.27.27,0,0,0,0-.53Z" transform="translate(-1.24 -0.5)"/><path class="cls-2" d="M22.66,45.18h-2a.25.25,0,0,0-.26.26.26.26,0,0,0,.26.26h2a.26.26,0,0,0,.26-.26A.26.26,0,0,0,22.66,45.18Z" transform="translate(-1.24 -0.5)"/><path class="cls-2" d="M14.82,42.86H11.89a.27.27,0,0,0,0,.53h2.93a.27.27,0,1,0,0-.53Z" transform="translate(-1.24 -0.5)"/><path class="cls-2" d="M8.33,39.93H7.39a.27.27,0,0,0,0,.53h.94a.27.27,0,0,0,0-.53Z" transform="translate(-1.24 -0.5)"/><path class="cls-2" d="M3.44,33.06H1.5a.27.27,0,0,0,0,.53H3.44a.27.27,0,0,0,0-.53Z" transform="translate(-1.24 -0.5)"/><path class="cls-2" d="M5.65,39.93H4a.27.27,0,0,0,0,.53H5.65a.27.27,0,0,0,0-.53Z" transform="translate(-1.24 -0.5)"/><path class="cls-2" d="M4.32,30.62H9.11a.27.27,0,0,0,0-.53H4.32a.27.27,0,1,0,0,.53Z" transform="translate(-1.24 -0.5)"/></svg>