<?xml version="1.0" encoding="UTF-8"?>
<svg id="Layer_1" data-name="Layer 1" xmlns="http://www.w3.org/2000/svg" viewBox="0 0 298 353.85974">
  <defs>
    <style>
      .cls-1 {
        opacity: .5;
      }
    </style>
  </defs>
  <path class="cls-1" d="m181.95599,55.78199L29.20203,156.633l96.58496,137.56897,145.72302-102.784L181.95599,55.78199Zm-45.1098,100.16333l-34.22626,23.26208-12.14252-20.50629,72.7818-51.00653,1.97296,55.60449-26.9729,18.15137-1.41309-25.50513Zm2.09894,37.8847l26.73212-17.98938.89471,25.21545,43.50281-30.3197,12.76056,18.79639-80.94263,57.49945-2.94757-53.20221Z"/>
  <g>
    <polygon points="271.51001 191.41798 164.90277 154.01447 165.23218 163.29908 138.25928 181.45045 136.84619 155.94532 102.61993 179.20741 138.94513 193.83002 165.67725 175.84065 166.57196 201.0561 210.07477 170.7364 222.83533 189.53278 141.8927 247.03223 125.78699 294.20197 271.51001 191.41798"/>
    <polygon points="181.95599 55.78199 29.20203 156.633 90.47742 158.70112 163.25922 107.69459 181.95599 55.78199"/>
  </g>
</svg>