<svg id="Layer_1" data-name="Layer 1" xmlns="http://www.w3.org/2000/svg" viewBox="0 0 600 313.90551"><defs><style>.cls-1{opacity:0.8;}.cls-2{opacity:0.9;}.cls-3{fill:#fff;}.cls-4{fill:none;}</style></defs><title>Zowe_ConformanceBadge_2020</title><path d="M49.36032.361A67.676,67.676,0,0,1,59.2695-.91331,63.38207,63.38207,0,0,0,49.36032.361Z"/><path d="M585.5881,23.30806a63.69848,63.69848,0,0,0-12.24121-11.91534,68.21977,68.21977,0,0,1,7.23951,6.30188A66.24734,66.24734,0,0,1,585.5881,23.30806Z"/><g class="cls-1"><path d="M596.88937,45.85988a67.52363,67.52363,0,0,1,1.90039,10.95044c.16065,1.75513.22144,3.50806.22144,5.26624q.00183,74.26895.001,148.538v1.42755l-.22559.12042Q525.3591,105.69107,451.78488-.9929H325.11008a1.784,1.784,0,0,1,1.34619.87378q7.27076,10.63367,14.62329,21.21154a2.544,2.544,0,0,1,.47485,1.87482c-1.33838,12.38965-2.63012,24.7843-3.95093,37.17584q-2.09546,19.659-4.219,39.31507c-1.16016,10.88189-2.28906,21.76721-3.44946,32.64911q-2.10315,19.71862-4.23316,39.43451c-1.24023,11.63659-2.44726,23.27673-3.68847,34.9132q-2.217,20.7909-4.4646,41.57849c-.49317,4.60468-.96485,9.21161-1.4646,13.99323,2.46679-1.6958,4.82886-3.3147,7.18579-4.94043q60.7174-41.87887,121.42529-83.77179c.67554-.46631.999-.55518,1.54248.23627q14.99012,21.83313,30.06446,43.60833c.51269.741.54028,1.07581-.26783,1.63251q-69.42406,47.82734-138.81225,95.70722c-.35376.24389-.78491.40228-1.01392.80731H254.37961a4.05751,4.05751,0,0,1-.5542-3.25867c1.18652-10.879,2.30884-21.76495,3.47021-32.64673q2.21925-20.79071,4.46534-41.57849c1.16162-10.882,2.292-21.76721,3.45141-32.64947,1.07861-10.12744,2.186-20.25183,3.26416-30.37934,1.07837-10.12774,2.126-20.25872,3.20581-30.38629s2.19287-20.2514,3.2732-30.37884q1.74132-16.32267,3.45068-32.64887c.25195-2.38067.5166-4.76.80566-7.41925-41.88208,28.88269-83.5603,57.62488-125.50415,86.55011.95874-2.57751,1.81348-4.87665,2.66895-7.17548q5.44446-14.62774,10.90185-29.25061c.30274-.80822.315-1.10687-.71093-1.28356q-21.77418-3.74955-43.53077-7.60145c-.13793-.02417-.2749-.05358-.62939-.12316,2.52759-1.74512,4.88306-3.37311,7.24023-4.99884Q209.75046,54.83085,289.84738-.42326a3.14614,3.14614,0,0,1,1.43189-.56964H149.56711a.95725.95725,0,0,1,.36963.16552c-3.48194,2.40308-6.916,4.7746-10.35157,7.14386q-62.03649,42.782-124.07348,85.5633Q7.76962,97.21887.0195,102.54646c-.26929.18464-.47266.67066-.948.3974v25.18445c.54029-.19915.58472.331.75733.58118q19.93946,28.88315,39.856,57.7821,37.541,54.43095,75.08643,108.85865,6.56323,9.51525,13.12036,19.0346c.19751.28693.5022.52417.50513.92127q-64.13086,0-128.26221.02252h598.937V62.35262A63.39364,63.39364,0,0,0,596.88937,45.85988Zm2.1211,268.96942c0,.15894-.02491.31787-.03833.47681H477.06906c-.13623-.60156.43921-.63715.728-.83667q28.09936-19.40177,56.21826-38.77472,32.10534-22.13919,64.20679-44.28424c.18921-.13049.38281-.2544.55127-.366.35742.16834.23266.44336.23291.65424Q599.01547,273.264,599.01047,314.8293Z"/></g><g class="cls-2"><path d="M129.64767,110.07717c-2.35717,1.62573-4.71264,3.25372-7.24023,4.99884.35449.06958.49146.099.62939.12316q21.76283,3.816,43.53077,7.60145c1.02588.17669,1.01367.47534.71093,1.28356q-5.47375,14.61676-10.90185,29.25061c-.85547,2.29883-1.71021,4.598-2.66895,7.17548,41.94385-28.92523,83.62207-57.66742,125.50415-86.55011-.28906,2.65924-.55371,5.03858-.80566,7.41925q-1.72668,16.32432-3.45068,32.64887c-1.08033,10.12744-2.19336,20.2514-3.2732,30.37884s-2.12744,20.25855-3.20581,30.38629c-1.07812,10.12751-2.18555,20.2519-3.26416,30.37934-1.15942,10.88226-2.28979,21.76751-3.45141,32.64947q-2.21961,20.79072-4.46534,41.57849c-1.16137,10.88178-2.28369,21.76776-3.47021,32.64673a4.05751,4.05751,0,0,0,.5542,3.25867h81.82861c.229-.405.66016-.56342,1.01392-.80731q69.39551-47.86927,138.81225-95.70722c.80811-.5567.78052-.89148.26783-1.63251q-15.06775-21.77966-30.06446-43.60833c-.54345-.79145-.86694-.70258-1.54248-.23627q-60.702,41.90094-121.42529,83.77179c-2.35693,1.62573-4.719,3.24463-7.18579,4.94043.49975-4.78162.97143-9.38855,1.4646-13.99323q2.22693-20.78979,4.4646-41.57849c1.24121-11.63647,2.44824-23.27661,3.68847-34.9132q2.10206-19.71882,4.23316-39.43451c1.1604-10.8819,2.2893-21.76722,3.44946-32.64911q2.09619-19.65894,4.219-39.31507c1.32081-12.39154,2.61255-24.78619,3.95093-37.17584a2.544,2.544,0,0,0-.47485-1.87482Q333.74289,10.50371,326.45627-.11912a1.784,1.784,0,0,0-1.34619-.87378,2.91568,2.91568,0,0,0-.39649-.03284q-16.49706.03672-32.99389.0014a3.37173,3.37173,0,0,0-.44043.03144,3.14614,3.14614,0,0,0-1.43189.56964Q209.75376,54.83623,129.64767,110.07717Z"/></g><path d="M127.89157,314.38484q-6.55445-9.5213-13.12036-19.0346Q77.228,240.92094,39.68478,186.49159,19.75815,157.59965-.17117,128.70949c-.17261-.25018-.217-.78033-.75733-.58118l-.01709.0044q0,93.04679-.02221,186.09356a2.67783,2.67783,0,0,0,.0393.50837c.09107.4693.36817.59442,1.063.594q64.13087-.03873,128.26221-.02252C128.39377,314.909,128.08908,314.67177,127.89157,314.38484Z"/><path d="M.0195,102.54646q7.75892-5.31482,15.49219-10.66668Q77.54855,49.09819,139.58517,6.31648c3.43555-2.36926,6.86963-4.74078,10.35157-7.14386a.95725.95725,0,0,0-.36963-.16552,3.0487,3.0487,0,0,0-.73633-.00959q-43.00086-.01089-86.00147-.00634-1.78527.00009-3.55981.09552A67.676,67.676,0,0,0,49.36032.361c-.14673.02985-.29419.05011-.44116.08093A62.0662,62.0662,0,0,0,22.32468,13.314q-.204.16735-.4065.33588c-.58569.48755-1.15991.98834-1.72729,1.49634-.16895.15161-.34107.2995-.50855.45288q-.99609.911-1.95386,1.86273c-.20556.205-.40283.41785-.60571.62549-.43286.44293-.8623.88928-1.282,1.34472-.26148.28339-.51733.57172-.77344.85975q-.55956.62933-1.10278,1.273c-.22656.26867-.45361.53723-.67578.80957q-.75806.93054-1.48389,1.88806c-.05713.07556-.11719.14886-.17383.22473A62.13258,62.13258,0,0,0-.28006,53.15242c-.05908.42487-.10059.85211-.13794,1.28-.07056.80652-.127,1.61505-.25708,2.41321a10.14608,10.14608,0,0,1-.27051,1.217V102.9363l.01709.00756C-.45316,103.21712-.24979,102.7311.0195,102.54646Z"/><path d="M598.77341,231.04445c-.16846.11163-.36206.23554-.55127.366q-32.10352,22.14184-64.20679,44.28424-28.11108,19.38464-56.21826,38.77472c-.28882.19952-.86426.23511-.728.83667H598.97214c.01342-.15894.03833-.31787.03833-.47681q.00256-41.5653-.00415-83.13061C599.00607,231.48781,599.13083,231.21279,598.77341,231.04445Z"/><path d="M599.01218,212.04207v-1.42755q0-74.269-.001-148.538c0-1.75818-.06079-3.51111-.22144-5.26624a67.52363,67.52363,0,0,0-1.90039-10.95044c-.1289-.47888-.26611-.95435-.40576-1.42865-.09106-.3175-.17676-.63751-.27246-.95276A60.2637,60.2637,0,0,0,586.634,24.65871c-.0813-.10809-.15869-.2182-.24072-.326-.26123-.34747-.53711-.6828-.80518-1.02466a66.24734,66.24734,0,0,0-5.0017-5.61346,68.21977,68.21977,0,0,0-7.23951-6.30188A60.517,60.517,0,0,0,546.23556-.109c-.40795-.0658-.812-.14142-1.22265-.19983-.27588-.04059-.55567-.06879-.83276-.10577-1.88575-.24384-3.79834-.42084-5.74634-.50989-.2461-.01038-.49512-.01123-.74195-.01874-.72119-.0257-1.44506-.045-2.17456-.04968-.13891-.00092-.2749-.00934-.41406-.00946Q494.129-1.041,453.155-1.00914h-1.38135l.01123.01624q73.64758,106.79013,147.00171,213.15539Z"/><polygon class="cls-3" points="141.837 103.282 141.838 103.283 141.838 103.281 141.837 103.282"/><path class="cls-4" d="M379.64394,59.64282a1.61839,1.61839,0,0,0,.65225-1.44776v-.04629a1.62149,1.62149,0,0,0-.74009-1.53559,4.731,4.731,0,0,0-2.36365-.44868h-1.013V60.036H377.211A5.41669,5.41669,0,0,0,379.64394,59.64282Z"/><path class="cls-4" d="M471.69639,59.49483a2.72575,2.72575,0,0,0,.31911-3.83912l-.333-.33305a4.63391,4.63391,0,0,0-2.82617-.754h-2.36356v5.66623h2.39137A4.66025,4.66025,0,0,0,471.69639,59.49483Z"/><path class="cls-4" d="M459.40379,59.59658a2.8973,2.8973,0,0,0,.20945-4.09207l-.00133-.00148a.26155.26155,0,0,1-.03241-.037l-.1434-.15728a4.01286,4.01286,0,0,0-2.64113-.78166l-2.82612.04159v5.79575h2.68272A4.20055,4.20055,0,0,0,459.40379,59.59658Z"/><path class="cls-4" d="M334.34543,121.09233c-11.02578,0-17.61566,8.49088-17.61566,18.50257v.253c0,10.01168,7.22379,18.75627,17.86937,18.75627,11.02505,0,17.61493-8.49088,17.61493-18.50255v-.25372C352.21405,129.83655,344.99031,121.09233,334.34543,121.09233Z"/><polygon class="cls-4" points="396.934 57.281 394.57 63.077 399.283 63.077 396.934 57.281"/><path class="cls-4" d="M242.8158,60.53968a3.273,3.273,0,0,0,.17576-4.62081.67353.67353,0,0,0-.1619-.1619,4.32063,4.32063,0,0,0-2.89553-.88344h-3.2054v6.5219h3.01576A4.83815,4.83815,0,0,0,242.8158,60.53968Z"/><path class="cls-4" d="M518.484,119.95174c-7.98419,0-13.17976,5.70262-14.70055,14.44721H532.8044C531.6638,125.78123,526.59472,119.95174,518.484,119.95174Z"/><polygon class="cls-4" points="314.446 57.281 312.073 63.077 316.796 63.077 314.446 57.281"/><path class="cls-4" d="M218.75743,67.019a7.36937,7.36937,0,0,0,10.21763,0,7.24576,7.24576,0,0,0,0-10.14359,7.37218,7.37218,0,0,0-10.21763,0,7.15508,7.15508,0,0,0-.02475,10.11877l.00627.00629Z"/><path class="cls-4" d="M490.508,65.41168a6.46624,6.46624,0,0,0,0-9.0751,6.56,6.56,0,0,0-9.14455,0,6.40692,6.40692,0,0,0-.0005,9.06073l.0005.0005a6.25562,6.25562,0,0,0,4.57922,1.84092v.01388A6.20623,6.20623,0,0,0,490.508,65.41168Z"/><path class="cls-3" d="M453.96889,61.33575H456.721a5.382,5.382,0,0,0,3.60785-1.04072A3.52054,3.52054,0,0,0,461.55,57.46891a3.40665,3.40665,0,0,0-1.22113-2.79841,5.1858,5.1858,0,0,0-3.48761-1.03148h-3.98713V68.10741h1.11476Zm0-6.76707,2.82613-.04159a4.01288,4.01288,0,0,1,2.64113.78166l.1434.15729a.2614.2614,0,0,0,.0324.037,2.89728,2.89728,0,0,1-.20664,4.09221l-.00147.00134a4.2005,4.2005,0,0,1-2.75218.76785h-2.68272Z"/><path class="cls-3" d="M466.45109,61.19239h1.9982a3.64831,3.64831,0,0,1,2.05833.49488,9.42041,9.42041,0,0,1,1.95652,2.47925l2.52089,3.94089h1.33676l-3.2748-5.00014a6.69505,6.69505,0,0,0-1.92881-2.22021,3.59369,3.59369,0,0,0,2.75213-3.50609,3.3396,3.3396,0,0,0-1.23037-2.72437,5.48662,5.48662,0,0,0-3.5662-1.0176H465.378l-.0416,14.49617h1.11473Zm.04164-6.62371h2.36356a4.634,4.634,0,0,1,2.82617.754l.333.333a2.72576,2.72576,0,0,1-.31911,3.83913,4.66024,4.66024,0,0,1-2.81229.74008h-2.39137Z"/><path class="cls-3" d="M491.37755,66.13324l.1758-.18505c.02776-.03238.05548-.06011.08324-.08783a7.24961,7.24961,0,0,0-.25812-10.24919l-.00092-.00085a7.91226,7.91226,0,0,0-10.85591,0l-.14336.148-.00924.00464a7.33878,7.33878,0,0,0,.1526,10.37023A7.906,7.906,0,0,0,491.37755,66.13324Zm-10.01407-.73545a6.40692,6.40692,0,0,1-.0005-9.06073l.0005-.00049a6.56,6.56,0,0,1,9.14455,0,6.46625,6.46625,0,0,1,0,9.07511,6.20622,6.20622,0,0,1-4.56533,1.84092v-.01388A6.25555,6.25555,0,0,1,481.36348,65.39779Z"/><path class="cls-3" d="M496.20478,72.3272a2.89938,2.89938,0,0,0,2.13237-.91585,4.6903,4.6903,0,0,0,.89736-3.2748V53.64039H498.1197V68.45571c0,1.94269-.666,2.90012-2.03052,2.90012a3.47583,3.47583,0,0,1-.65225-.074l.10181,1.04536Q495.8718,72.341,496.20478,72.3272Z"/><polygon class="cls-3" points="512.22 67.165 505.296 67.165 505.296 61.295 511.887 61.295 511.887 60.352 505.296 60.352 505.296 54.57 512.062 54.57 512.062 53.641 504.177 53.641 504.177 68.104 512.22 68.104 512.22 67.165"/><path class="cls-3" d="M528.28135,54.67045V54.673c.01967.00943.04045.01572.06007.02523Z"/><path class="cls-3" d="M523.30893,68.31093a10.74711,10.74711,0,0,0,5.11578-1.35064V65.80392a10.92685,10.92685,0,0,1-5.1435,1.44776,6.38116,6.38116,0,0,1-4.65321-1.7854,6.13285,6.13285,0,0,1-1.81317-4.607,6.20854,6.20854,0,0,1,1.81317-4.57917,6.0764,6.0764,0,0,1,4.49129-1.84092,11.06812,11.06812,0,0,1,5.16206,1.44771V54.673a12.15119,12.15119,0,0,0-5.0279-1.19125,7.54571,7.54571,0,0,0-5.35161,2.13233.53072.53072,0,0,1-.10181.10176l-.00441.00464h-.00023a7.4064,7.4064,0,0,0,.00464,10.472A7.58229,7.58229,0,0,0,523.30893,68.31093Z"/><polygon class="cls-3" points="536.121 68.104 537.254 68.104 537.254 54.57 542.675 54.57 542.675 53.641 530.686 53.641 530.686 54.57 536.121 54.57 536.121 68.104"/><polygon class="cls-3" points="302.52 69.12 302.52 53.093 298.125 53.093 293.185 59.106 288.26 53.093 283.879 53.093 283.879 69.12 288.574 69.12 288.574 59.832 292.941 65.207 293.329 65.207 297.676 59.832 297.676 69.12 302.52 69.12"/><path class="cls-3" d="M310.93979,65.87516h6.9567l1.31825,3.2471h4.94461l-6.99827-16.03182H311.7539l-7.09083,16.03181h4.94467ZM314.446,57.2811l2.34973,5.79565H312.073Z"/><rect class="cls-3" x="326.30558" y="53.09362" width="4.82438" height="16.02716"/><polygon class="cls-3" points="339.973 60.193 348.289 69.12 352.582 69.12 352.582 53.093 347.767 53.093 347.767 61.974 339.478 53.093 335.19 53.093 335.19 69.12 339.973 69.12 339.973 60.193"/><polygon class="cls-3" points="361.44 62.627 368.091 62.627 368.091 59.413 361.44 59.413 361.44 56.309 368.091 56.309 368.091 53.089 356.611 53.089 356.611 69.121 361.44 69.121 361.44 62.627"/><path class="cls-3" d="M378.08053,63.01939a2.6895,2.6895,0,0,1,1.08237.92508,12.419,12.419,0,0,1,1.24884,2.28032l1.25812,2.89554h5.18978l-1.57729-3.50605A12.78984,12.78984,0,0,0,383.8623,63.135a4.44893,4.44893,0,0,0-1.2766-1.07309,10.99521,10.99521,0,0,0,1.17484-.72621,3.75973,3.75973,0,0,0,.98525-1.21648,4.07652,4.07652,0,0,0,.46256-2.05832,5.06526,5.06526,0,0,0-.55049-2.20169,4.86741,4.86741,0,0,0-1.84092-1.95661,5.92519,5.92519,0,0,0-3.26093-.80945h-8.21938V69.07876h4.84286V62.8159h.53656A3.927,3.927,0,0,1,378.08053,63.01939Zm-1.90109-6.85489h1.013a4.731,4.731,0,0,1,2.36366.44867,1.62152,1.62152,0,0,1,.74008,1.5356v.0463a1.61835,1.61835,0,0,1-.65225,1.44776,5.41665,5.41665,0,0,1-2.433.39317h-1.03149Z"/><path class="cls-3" d="M393.44166,65.87516h6.95661l1.30436,3.2471h4.94462l-7.06306-16.03182h-5.347L387.151,69.12225h4.95849Zm3.49221-8.59406,2.34972,5.79565h-4.71328Z"/><polygon class="cls-3" points="413.47 59.832 417.85 65.207 418.225 65.207 422.592 59.832 422.592 69.12 427.416 69.12 427.416 53.093 423.04 53.093 418.082 59.106 413.169 53.093 408.775 53.093 408.775 69.12 413.47 69.12 413.47 59.832"/><polygon class="cls-3" points="443.548 65.887 436.3 65.887 436.3 62.469 443.025 62.469 443.025 59.236 436.3 59.236 436.3 56.308 443.345 56.308 443.345 53.093 431.462 53.093 431.462 69.12 443.548 69.12 443.548 65.887"/><path class="cls-3" d="M229.94638,67.82846l.20352-.19888a.14212.14212,0,0,1,.037-.037,8.17581,8.17581,0,0,0-.24052-11.559,8.30713,8.30713,0,0,0-6.07317-2.40523V53.67a8.34406,8.34406,0,0,0-6.04551,2.40523l-.15723.1619a8.2013,8.2013,0,0,0,.15723,11.59135A8.83813,8.83813,0,0,0,229.94638,67.82846Zm-11.189-10.953a7.37218,7.37218,0,0,1,10.21763,0,7.24576,7.24576,0,0,1,0,10.14359,7.36937,7.36937,0,0,1-10.21763,0l-.01848-.01852a7.15509,7.15509,0,0,1,.0122-10.1188l.00628-.00625Z"/><path class="cls-3" d="M236.6547,62.44074h3.08975a6.06377,6.06377,0,0,0,4.01493-1.17484,4.2267,4.2267,0,0,0,.08784-6.29063,5.99461,5.99461,0,0,0-3.91313-1.14711h-4.45427l-.06936,16.13356h1.24424Zm.074-7.56722h3.20541a4.32072,4.32072,0,0,1,2.89553.88344.67389.67389,0,0,1,.1619.1619,3.273,3.273,0,0,1-.17576,4.62081,4.83812,4.83812,0,0,1-3.07133.85573h-3.01577Z"/><polygon class="cls-3" points="256.602 68.946 248.845 68.946 248.845 62.383 256.213 62.383 256.213 61.338 248.845 61.338 248.845 54.876 256.412 54.876 256.412 53.83 247.6 53.83 247.6 69.992 256.602 69.992 256.602 68.946"/><polygon class="cls-3" points="260.416 55.856 272.687 69.992 273.719 69.992 273.719 53.83 272.47 53.83 272.47 67.947 260.226 53.83 259.167 53.83 259.167 69.992 260.416 69.992 260.416 55.856"/><polygon class="cls-3" points="215.346 102.083 262.616 102.083 213.825 158.858 213.825 173.685 287.708 173.685 287.708 156.577 238.918 156.577 287.708 99.802 287.708 84.975 215.346 84.975 215.346 102.083"/><path class="cls-3" d="M334.59912,104.49078c-21.16395,0-36.87862,15.84117-36.87862,35.35708v.25371c0,19.51668,15.58745,35.10411,36.62491,35.10411,21.164,0,36.87788-15.84116,36.87788-35.35782v-.253C371.22331,120.07822,355.63585,104.49078,334.59912,104.49078Zm17.61493,35.61081c0,10.01167-6.5899,18.50255-17.61493,18.50255-10.64559,0-17.86938-8.74459-17.86938-18.75627v-.253c0-10.01169,6.58991-18.50255,17.61567-18.50255,10.64485,0,17.86864,8.74422,17.86864,18.75552Z"/><polygon class="cls-3" points="449.289 147.072 436.363 105.504 419.761 105.504 406.961 146.945 396.063 105.758 376.546 105.758 397.456 174.192 414.692 174.192 427.998 132.498 441.051 174.192 458.413 174.192 479.578 105.758 460.44 105.758 449.289 147.072"/><path class="cls-3" d="M551.56067,141.36866c0-19.26258-10.39188-36.87788-33.07663-36.87788-19.76964,0-33.58331,15.96765-33.58331,35.35708v.25371c0,20.78375,15.08076,35.10411,35.48431,35.10411,12.29287,0,21.41693-4.8161,27.75383-12.67307l-11.02579-9.75795c-5.32279,4.94259-10.01167,6.97008-16.47437,6.97008-8.6181,0-14.7013-4.5624-16.60156-13.307h47.26976C551.43344,144.664,551.56067,142.88947,551.56067,141.36866ZM503.78349,134.399c1.52079-8.74459,6.71636-14.44721,14.70055-14.44721,8.11068,0,13.17976,5.82949,14.32036,14.44721Z"/><path class="cls-3" d="M128.96106,44.06874,38.05575,106.761l62.6922,90.9053,90.90531-62.6922ZM103.94794,157.05392l6.33988-59.4883L79.18956,119.01234l-7.76185-11.25485,47.606-32.83119,6.72695,9.75426-6.33936,59.488L151.51983,122.032l7.76219,11.25536-48.60679,33.5213Z"/><path class="cls-3" d="M156.73455,216.51406q-6.98291,0-11.02441,4.65039-4.04151,4.65015-4.042,12.7334,0,8.31591,3.89746,12.84961,3.89649,4.53515,11.11133,4.53466a37.93339,37.93339,0,0,0,10.11133-1.59375v4.31739a31.151,31.151,0,0,1-10.86524,1.65136q-9.35889,0-14.44336-5.67871-5.08447-5.67846-5.084-16.13818a25.46473,25.46473,0,0,1,2.44824-11.47363,17.57408,17.57408,0,0,1,7.06934-7.59082,21.39576,21.39576,0,0,1,10.8789-2.66553,26.25125,26.25125,0,0,1,11.64746,2.43359l-2.08594,4.23A22.45336,22.45336,0,0,0,156.73455,216.51406Z"/><path class="cls-3" d="M202.715,239.17128q0,7.76514-3.91113,12.125-3.91113,4.36158-10.80664,4.36084a14.31254,14.31254,0,0,1-7.5625-1.99951,13.19567,13.19567,0,0,1-5.09961-5.73633,19.99676,19.99676,0,0,1-1.7959-8.75q0-7.7644,3.88281-12.09668,3.88183-4.3308,10.77735-4.33154a13.43448,13.43448,0,0,1,10.58984,4.43311Q202.715,231.60877,202.715,239.17128Zm-24.19238,0q0,6.08424,2.43359,9.27149a9.65882,9.65882,0,0,0,14.32715.01416q2.44776-3.17212,2.44824-9.28565,0-6.05566-2.44824-9.19922-2.44775-3.14355-7.22851-3.14355-4.72266,0-7.12793,3.1001Q178.52166,233.02895,178.52264,239.17128Z"/><path class="cls-3" d="M232.87616,255.07753v-20.542q0-3.88257-1.76758-5.79492-1.76661-1.91235-5.53321-1.91211-4.98339,0-7.30175,2.69434-2.31739,2.69457-2.31739,8.895v16.65966h-4.80957V223.32265h3.91114l.78222,4.34619h.23145a9.82419,9.82419,0,0,1,4.14355-3.63623,13.465,13.465,0,0,1,5.93946-1.28955q5.73631,0,8.63379,2.76709t2.89746,8.85156v20.71582Z"/><path class="cls-3" d="M261.87909,227.06044h-8.084v28.01709h-4.80957V227.06044h-5.67871V224.8871l5.67871-1.73828v-1.76709q0-11.70556,10.22852-11.70556a21.05728,21.05728,0,0,1,5.91015,1.01416l-1.24609,3.85351a15.9196,15.9196,0,0,0-4.751-.89844,4.62838,4.62838,0,0,0-4.02734,1.811q-1.30518,1.81128-1.30469,5.80908v2.05713h8.084Z"/><path class="cls-3" d="M295.08221,239.17128q0,7.76514-3.91113,12.125-3.91113,4.36158-10.80664,4.36084a14.31252,14.31252,0,0,1-7.5625-1.99951,13.19567,13.19567,0,0,1-5.09961-5.73633,19.99676,19.99676,0,0,1-1.7959-8.75q0-7.7644,3.88281-12.09668,3.88184-4.3308,10.77735-4.33154a13.43448,13.43448,0,0,1,10.58984,4.43311Q295.08222,231.60877,295.08221,239.17128Zm-24.19238,0q0,6.08424,2.43359,9.27149a9.65882,9.65882,0,0,0,14.32715.01416q2.44776-3.17212,2.44824-9.28565,0-6.05566-2.44824-9.19922-2.44776-3.14355-7.22852-3.14355-4.72265,0-7.12793,3.1001Q270.88885,233.02895,270.88983,239.17128Z"/><path class="cls-3" d="M318.00018,222.74306a18.85282,18.85282,0,0,1,3.7959.34766l-.667,4.46191a16.39692,16.39692,0,0,0-3.47657-.43457,8.46535,8.46535,0,0,0-6.59179,3.1294,11.40987,11.40987,0,0,0-2.73731,7.79394v17.03613h-4.80957V223.32265h3.96875l.55078,5.88184h.23145a13.95747,13.95747,0,0,1,4.25976-4.78077A9.58879,9.58879,0,0,1,318.00018,222.74306Z"/><path class="cls-3" d="M368.21112,255.07753v-20.6582q0-3.79467-1.623-5.69287a6.27423,6.27423,0,0,0-5.041-1.898q-4.49121,0-6.63476,2.57861-2.14454,2.57886-2.14453,7.93848v17.73193h-4.80957v-20.6582q0-3.79467-1.62207-5.69287-1.623-1.89771-5.07032-1.898-4.5205,0-6.62011,2.709-2.10206,2.70924-2.10059,8.88038v16.65966h-4.80957V223.32265h3.91113l.78223,4.34619h.23145a9.45355,9.45355,0,0,1,3.83886-3.62158,11.72665,11.72665,0,0,1,5.54883-1.3042q7.44581,0,9.73535,5.38916h.23145a10.13107,10.13107,0,0,1,4.11426-3.94043,12.77,12.77,0,0,1,6.14257-1.44873q5.38917,0,8.06934,2.76709,2.6792,2.76709,2.67969,8.85156v20.71582Z"/><path class="cls-3" d="M402.45721,255.07753l-.956-4.52h-.23145a13.36258,13.36258,0,0,1-4.7373,4.042,14.43867,14.43867,0,0,1-5.89551,1.05761,10.60489,10.60489,0,0,1-7.40332-2.43408,8.87354,8.87354,0,0,1-2.67969-6.92432q0-9.61888,15.38477-10.083l5.38867-.17383v-1.97022q0-3.73755-1.60742-5.519-1.60841-1.782-5.14258-1.78223a20.9537,20.9537,0,0,0-8.98242,2.43409l-1.47754-3.67969a22.605,22.605,0,0,1,5.14257-1.999,22.27337,22.27337,0,0,1,5.60645-.72461q5.67919,0,8.417,2.5205,2.7378,2.521,2.73828,8.084v21.67187Zm-10.86426-3.38964a9.76071,9.76071,0,0,0,7.05469-2.4629,9.11207,9.11207,0,0,0,2.56445-6.8955v-2.86866l-4.80957.20264q-5.73778.20361-8.27246,1.78223a5.37233,5.37233,0,0,0-2.53515,4.91064,4.95507,4.95507,0,0,0,1.5791,3.96973A6.5529,6.5529,0,0,0,391.59295,251.68789Z"/><path class="cls-3" d="M437.66034,255.07753v-20.542q0-3.88257-1.76758-5.79492-1.76661-1.91235-5.53321-1.91211-4.98339,0-7.30175,2.69434-2.31739,2.69457-2.31739,8.895v16.65966h-4.80957V223.32265H419.842l.78222,4.34619h.23145a9.82419,9.82419,0,0,1,4.14355-3.63623,13.465,13.465,0,0,1,5.93946-1.28955q5.73631,0,8.63378,2.76709t2.89747,8.85156v20.71582Z"/><path class="cls-3" d="M462.60565,251.68789a15.65543,15.65543,0,0,0,2.46289-.18848,15.94447,15.94447,0,0,0,1.88379-.39111V254.788a8.80137,8.80137,0,0,1-2.30371.62256,17.3121,17.3121,0,0,1-2.73828.24658q-9.21242,0-9.2129-9.70605V227.06044h-4.54882v-2.31787l4.54882-1.99951,2.02833-6.77978H457.507v7.35937h9.21289v3.73779H457.507v18.6875a6.42767,6.42767,0,0,0,1.36132,4.4043A4.738,4.738,0,0,0,462.60565,251.68789Z"/></svg>