<?xml version="1.0" encoding="utf-8"?>
<!-- Generator: Adobe Illustrator 23.1.1, SVG Export Plug-In . SVG Version: 6.00 Build 0)  -->
<svg version="1.1" id="Layer_1" xmlns="http://www.w3.org/2000/svg" xmlns:xlink="http://www.w3.org/1999/xlink" x="0px" y="0px"
	 viewBox="0 0 600 443.9" style="enable-background:new 0 0 600 443.9;" xml:space="preserve">
<style type="text/css">
	.st0{fill:#FFFFFF;}
	.st1{fill:#488EFF;}
	.st2{opacity:0.9;fill:#FFFFFF;}
	.st3{clip-path:url(#SVGID_2_);fill:#3274F9;}
	.st4{clip-path:url(#SVGID_4_);fill:#3274F9;}
	.st5{clip-path:url(#SVGID_6_);fill:#3274F9;}
	.st6{clip-path:url(#SVGID_8_);fill:#3274F9;}
	.st7{fill:#231F20;}
	.st8{opacity:0.9;fill:#231F20;}
</style>
<path class="st1" d="M600,316.3H0v-253C0,28.4,28.4,0,63.3,0h473.3c35,0,63.3,28.4,63.3,63.3V316.3z"/>
<g>
	<rect x="1.8" y="334.8" class="st0" width="596.4" height="107.4"/>
	<path class="st1" d="M596.4,336.6v103.8H3.6V336.6H596.4 M600,333H0v111h600V333L600,333z"/>
</g>
<g>
	<path class="st1" d="M55.4,399l-1.6-5.1H46l-1.6,5.1h-4.9l7.6-21.5h5.6l7.6,21.5H55.4z M52.7,390c-1.4-4.6-2.2-7.2-2.4-7.8
		s-0.3-1.1-0.4-1.4c-0.3,1.2-1.2,4.3-2.8,9.3H52.7z"/>
	<path class="st1" d="M81.4,384.2c0,2.3-0.7,4.1-2.2,5.3c-1.4,1.2-3.5,1.8-6.1,1.8h-1.9v7.6h-4.5v-21.4h6.8c2.6,0,4.6,0.6,5.9,1.7
		S81.4,382,81.4,384.2z M71.1,387.6h1.5c1.4,0,2.4-0.3,3.1-0.8c0.7-0.6,1-1.4,1-2.4c0-1.1-0.3-1.9-0.9-2.4s-1.5-0.8-2.7-0.8h-2.1
		V387.6z"/>
	<path class="st1" d="M89,399v-21.4h4.5V399H89z"/>
	<path class="st1" d="M123,399l-5.2-16.8h-0.1c0.2,3.4,0.3,5.7,0.3,6.8v10h-4.1v-21.4h6.2l5.1,16.4h0.1l5.4-16.4h6.2V399h-4.2v-10.1
		c0-0.5,0-1,0-1.7c0-0.6,0.1-2.3,0.2-5h-0.1l-5.5,16.8H123z"/>
	<path class="st1" d="M158.1,399h-12.3v-21.4h12.3v3.7h-7.8v4.7h7.3v3.7h-7.3v5.5h7.8V399z"/>
	<path class="st1" d="M184,388c0,3.5-1,6.2-3,8.1c-2,1.9-4.9,2.8-8.7,2.8h-6.1v-21.4h6.7c3.5,0,6.2,0.9,8.1,2.8S184,384.7,184,388z
		 M179.3,388.2c0-4.6-2-6.9-6.1-6.9h-2.4v13.9h1.9C177.1,395.2,179.3,392.9,179.3,388.2z"/>
	<path class="st1" d="M192,399v-21.4h4.5V399H192z"/>
	<path class="st1" d="M218.7,399l-1.6-5.1h-7.8l-1.6,5.1h-4.9l7.6-21.5h5.6l7.6,21.5H218.7z M216,390c-1.4-4.6-2.2-7.2-2.4-7.8
		s-0.3-1.1-0.4-1.4c-0.3,1.2-1.2,4.3-2.8,9.3H216z"/>
	<path class="st1" d="M238.1,399h-4.5v-17.6h-5.8v-3.8h16.2v3.8h-5.8V399z"/>
	<path class="st1" d="M250.8,399v-21.4h4.5V399H250.8z"/>
	<path class="st1" d="M283.8,388.2c0,3.5-0.9,6.3-2.6,8.2s-4.3,2.9-7.6,2.9s-5.8-1-7.6-2.9s-2.6-4.6-2.6-8.2s0.9-6.3,2.6-8.2
		c1.8-1.9,4.3-2.8,7.6-2.8s5.8,0.9,7.6,2.8C282.9,381.9,283.8,384.7,283.8,388.2z M268.2,388.2c0,2.4,0.5,4.2,1.4,5.4
		s2.3,1.8,4.1,1.8c3.6,0,5.4-2.4,5.4-7.2c0-4.8-1.8-7.2-5.4-7.2c-1.8,0-3.2,0.6-4.1,1.8C268.6,384,268.2,385.8,268.2,388.2z"/>
	<path class="st1" d="M310.8,399h-5.8l-9.3-16.2h-0.1c0.2,2.9,0.3,4.9,0.3,6.1V399h-4.1v-21.4h5.7l9.3,16h0.1
		c-0.1-2.8-0.2-4.8-0.2-5.9v-10.1h4.1V399z"/>
	<path class="st1" d="M331.2,399v-21.4h4.5v17.7h8.7v3.8H331.2z"/>
	<path class="st1" d="M364.9,399l-1.6-5.1h-7.8L354,399h-4.9l7.6-21.5h5.6l7.6,21.5H364.9z M362.2,390c-1.4-4.6-2.2-7.2-2.4-7.8
		s-0.3-1.1-0.4-1.4c-0.3,1.2-1.2,4.3-2.8,9.3H362.2z"/>
	<path class="st1" d="M382.7,386.4l4.5-8.8h4.9l-7.1,13.1v8.3h-4.5v-8.2l-7.1-13.2h4.9L382.7,386.4z"/>
	<path class="st1" d="M410.7,399h-12.3v-21.4h12.3v3.7h-7.8v4.7h7.3v3.7h-7.3v5.5h7.8V399z"/>
	<path class="st1" d="M423.3,390.7v8.2h-4.5v-21.4h6.2c2.9,0,5.1,0.5,6.5,1.6s2.1,2.7,2.1,4.8c0,1.3-0.3,2.4-1,3.4
		c-0.7,1-1.7,1.8-2.9,2.3c3.2,4.8,5.3,7.9,6.3,9.3h-5l-5.1-8.2H423.3z M423.3,387h1.5c1.4,0,2.5-0.2,3.2-0.7s1-1.2,1-2.3
		c0-1-0.3-1.7-1-2.2s-1.8-0.6-3.2-0.6h-1.4V387z"/>
	<path class="st1" d="M451.8,392.7v-3.7h7.9v3.7H451.8z"/>
	<path class="st1" d="M491.7,399h-15v-3.1l5.4-5.4c1.6-1.6,2.6-2.8,3.1-3.4c0.5-0.6,0.8-1.2,1.1-1.8s0.3-1.1,0.3-1.7
		c0-0.9-0.2-1.5-0.7-1.9s-1.1-0.6-1.9-0.6c-0.8,0-1.6,0.2-2.4,0.6s-1.6,0.9-2.4,1.6l-2.5-2.9c1.1-0.9,1.9-1.5,2.6-1.9
		s1.5-0.7,2.3-0.9c0.8-0.2,1.7-0.3,2.8-0.3c1.3,0,2.5,0.2,3.5,0.7s1.8,1.2,2.4,2.1s0.8,1.9,0.8,3c0,1-0.2,1.9-0.5,2.8
		c-0.3,0.9-0.9,1.8-1.6,2.7s-2,2.2-3.8,3.9l-2.8,2.6v0.2h9.3V399z"/>
	<path class="st1" d="M512.3,388.2c0,3.7-0.6,6.5-1.8,8.3c-1.2,1.8-3.1,2.7-5.7,2.7c-2.5,0-4.3-0.9-5.6-2.8
		c-1.3-1.9-1.9-4.6-1.9-8.2c0-3.8,0.6-6.6,1.8-8.4s3.1-2.7,5.6-2.7c2.5,0,4.3,0.9,5.6,2.8C511.7,381.9,512.3,384.6,512.3,388.2z
		 M501.8,388.2c0,2.6,0.2,4.5,0.7,5.6c0.5,1.1,1.2,1.7,2.3,1.7c1.1,0,1.8-0.6,2.3-1.7s0.7-3,0.7-5.6c0-2.6-0.2-4.5-0.7-5.7
		s-1.2-1.7-2.3-1.7c-1.1,0-1.8,0.6-2.3,1.7S501.8,385.6,501.8,388.2z"/>
	<path class="st1" d="M529.4,399h-4.5v-12.4l0-2l0.1-2.2c-0.8,0.8-1.3,1.2-1.6,1.5l-2.5,2l-2.2-2.7l6.9-5.5h3.7V399z"/>
	<path class="st1" d="M553.8,386.7c0,4.2-0.9,7.4-2.7,9.4s-4.5,3.1-8.1,3.1c-1.3,0-2.2-0.1-2.9-0.2v-3.6c0.8,0.2,1.7,0.3,2.6,0.3
		c1.5,0,2.8-0.2,3.7-0.7c1-0.4,1.7-1.1,2.2-2.1c0.5-1,0.8-2.3,0.9-3.9h-0.2c-0.6,0.9-1.2,1.6-2,1.9s-1.7,0.6-2.8,0.6
		c-1.9,0-3.3-0.6-4.4-1.8c-1.1-1.2-1.6-2.9-1.6-5c0-2.3,0.7-4.1,2-5.4c1.3-1.3,3.1-2,5.3-2c1.6,0,3,0.4,4.2,1.1
		c1.2,0.7,2.1,1.8,2.7,3.2C553.5,383,553.8,384.7,553.8,386.7z M546,380.9c-0.9,0-1.7,0.3-2.2,1s-0.8,1.6-0.8,2.8
		c0,1,0.2,1.9,0.7,2.5s1.2,0.9,2.2,0.9c0.9,0,1.7-0.3,2.4-0.9c0.7-0.6,1-1.3,1-2.1c0-1.2-0.3-2.1-0.9-2.9
		C547.8,381.3,547,380.9,546,380.9z"/>
</g>
<g>
	<defs>
		<path id="SVGID_5_" d="M600,316.3H0v-253C0,28.4,28.4,0,63.3,0h473.3c35,0,63.3,28.4,63.3,63.3V316.3z"/>
	</defs>
	<clipPath id="SVGID_2_">
		<use xlink:href="#SVGID_5_"  style="overflow:visible;"/>
	</clipPath>
	<path class="st3" d="M592.8,322.8l-299,209.4c-7,4.9-16.1,5.3-23.5,1.1c-7.4-4.2-11.7-12.3-11-20.8l33.3-431.7L48.3,269.8
		l199.9,267.5c7,10,4.6,23.7-5.4,30.7s-23.7,4.6-30.7-5.4L-0.4,259.1c-7-10-4.6-23.7,5.4-30.7L305.5,18c7-4.9,16.1-5.3,23.5-1.1
		c7.4,4.2,11.7,12.3,11,20.8l-33.3,431.7l244.3-171.1l-198.8-284c-7-10-4.6-23.7,5.4-30.7c10-7,23.7-4.6,30.7,5.4l210.4,300.5
		c3.8,5.4,4.8,11.8,3.4,17.7C601.4,313.4,598.2,319.1,592.8,322.8z"/>
</g>
<g>
	<g>
		<path class="st0" d="M258.1,149.7H305v12.8h-65v-10.1l43.6-60.2h-41.4V79.4h60.3v9.5L258.1,149.7z"/>
		<path class="st0" d="M379.4,131.4c0,22.9-15.4,32.9-31.4,32.9c-16,0-31.4-10-31.4-32.9c0-22.9,15.4-32.9,31.4-32.9
			C364,98.5,379.4,108.5,379.4,131.4z M331.1,131.4c0,12.9,6.4,20.3,16.8,20.3c10.5,0,16.8-7.5,16.8-20.3c0-12.8-6.4-20.3-16.8-20.3
			C337.6,111.1,331.1,118.5,331.1,131.4z"/>
		<path class="st0" d="M452.2,162.5h-9.4l-14.2-41.4l-15.1,41.4h-9.4l-20.2-62.2H398l12.1,43.3l14.4-43.3h9.3l14,43.8l12.9-43.8
			h13.8L452.2,162.5z"/>
		<path class="st0" d="M536.9,128c0,2.7-0.2,5.8-0.7,8.4h-42.7c1.7,11.9,8.5,16.3,17.7,16.3c7.4,0,13.4-2.7,17.7-6.3l5.9,9.3
			c-6.4,5.4-14.6,8.7-25.8,8.7c-16.3,0-30-10.5-30-32.6c0-20.3,12-33.2,29.5-33.2C527.8,98.5,536.9,113,536.9,128L536.9,128z
			 M523.8,126.7c-0.4-10.3-6-16.9-14.8-16.9c-8.7,0-14.7,5.4-15.7,16.9H523.8z"/>
	</g>
	<g>
		<g>
			<g>
				<path class="st0" d="M191.4,137.1l-64.3,45c-1.5,1-3.5,1.1-5.1,0.2c-1.6-0.9-2.5-2.6-2.4-4.5l7.2-92.8l-52.5,36.8l43,61.3
					c1.5,2.1,1,5.1-1.2,6.6c-2.1,1.5-5.1,1-6.6-1.2l-45.7-65.2c-1.5-2.1-1-5.1,1.2-6.6l64.6-45.2c1.5-1,3.5-1.1,5.1-0.2
					c1.6,0.9,2.5,2.6,2.4,4.5l-7.2,92.8l52.5-36.8l-42.7-61c-1.5-2.1-1-5.1,1.2-6.6s5.1-1,6.6,1.2l45.2,64.6c0.8,1.2,1,2.5,0.7,3.8
					C193.2,135.1,192.5,136.3,191.4,137.1z"/>
			</g>
		</g>
	</g>
</g>
<g>
	<path class="st0" d="M156.3,216.5c-4.7,0-8.3,1.5-11,4.7c-2.7,3.1-4,7.3-4,12.7c0,5.5,1.3,9.8,3.9,12.8c2.6,3,6.3,4.5,11.1,4.5
		c3,0,6.3-0.5,10.1-1.6v4.3c-2.9,1.1-6.6,1.7-10.9,1.7c-6.2,0-11.1-1.9-14.4-5.7c-3.4-3.8-5.1-9.2-5.1-16.1c0-4.4,0.8-8.2,2.4-11.5
		c1.6-3.3,4-5.8,7.1-7.6c3.1-1.8,6.7-2.7,10.9-2.7c4.4,0,8.3,0.8,11.6,2.4l-2.1,4.2C162.7,217.3,159.5,216.5,156.3,216.5z"/>
	<path class="st0" d="M202.2,239.2c0,5.2-1.3,9.2-3.9,12.1c-2.6,2.9-6.2,4.4-10.8,4.4c-2.8,0-5.4-0.7-7.6-2
		c-2.2-1.3-3.9-3.2-5.1-5.7c-1.2-2.5-1.8-5.4-1.8-8.8c0-5.2,1.3-9.2,3.9-12.1c2.6-2.9,6.2-4.3,10.8-4.3c4.4,0,8,1.5,10.6,4.4
		S202.2,234.2,202.2,239.2z M178,239.2c0,4.1,0.8,7.1,2.4,9.3c1.6,2.1,4,3.2,7.2,3.2s5.5-1.1,7.2-3.2c1.6-2.1,2.4-5.2,2.4-9.3
		c0-4-0.8-7.1-2.4-9.2c-1.6-2.1-4-3.1-7.2-3.1c-3.1,0-5.5,1-7.1,3.1C178.8,232,178,235.1,178,239.2z"/>
	<path class="st0" d="M232.4,255.1v-20.5c0-2.6-0.6-4.5-1.8-5.8c-1.2-1.3-3-1.9-5.5-1.9c-3.3,0-5.8,0.9-7.3,2.7s-2.3,4.8-2.3,8.9
		v16.7h-4.8v-31.8h3.9l0.8,4.3h0.2c1-1.6,2.4-2.8,4.1-3.6c1.8-0.9,3.8-1.3,5.9-1.3c3.8,0,6.7,0.9,8.6,2.8c1.9,1.8,2.9,4.8,2.9,8.9
		v20.7H232.4z"/>
	<path class="st0" d="M261.4,227.1h-8.1v28h-4.8v-28h-5.7v-2.2l5.7-1.7v-1.8c0-7.8,3.4-11.7,10.2-11.7c1.7,0,3.7,0.3,5.9,1l-1.2,3.9
		c-1.9-0.6-3.4-0.9-4.8-0.9c-1.8,0-3.2,0.6-4,1.8c-0.9,1.2-1.3,3.1-1.3,5.8v2.1h8.1V227.1z"/>
	<path class="st0" d="M294.6,239.2c0,5.2-1.3,9.2-3.9,12.1c-2.6,2.9-6.2,4.4-10.8,4.4c-2.8,0-5.4-0.7-7.6-2
		c-2.2-1.3-3.9-3.2-5.1-5.7c-1.2-2.5-1.8-5.4-1.8-8.8c0-5.2,1.3-9.2,3.9-12.1c2.6-2.9,6.2-4.3,10.8-4.3c4.4,0,8,1.5,10.6,4.4
		S294.6,234.2,294.6,239.2z M270.4,239.2c0,4.1,0.8,7.1,2.4,9.3c1.6,2.1,4,3.2,7.2,3.2s5.5-1.1,7.2-3.2c1.6-2.1,2.4-5.2,2.4-9.3
		c0-4-0.8-7.1-2.4-9.2c-1.6-2.1-4-3.1-7.2-3.1c-3.1,0-5.5,1-7.1,3.1C271.2,232,270.4,235.1,270.4,239.2z"/>
	<path class="st0" d="M317.5,222.8c1.4,0,2.7,0.1,3.8,0.3l-0.7,4.5c-1.3-0.3-2.5-0.4-3.5-0.4c-2.6,0-4.8,1-6.6,3.1
		c-1.8,2.1-2.7,4.7-2.7,7.8v17H303v-31.8h4l0.6,5.9h0.2c1.2-2.1,2.6-3.7,4.3-4.8C313.7,223.3,315.5,222.8,317.5,222.8z"/>
	<path class="st0" d="M367.7,255.1v-20.7c0-2.5-0.5-4.4-1.6-5.7c-1.1-1.3-2.8-1.9-5-1.9c-3,0-5.2,0.9-6.6,2.6
		c-1.4,1.7-2.1,4.4-2.1,7.9v17.7h-4.8v-20.7c0-2.5-0.5-4.4-1.6-5.7c-1.1-1.3-2.8-1.9-5.1-1.9c-3,0-5.2,0.9-6.6,2.7
		c-1.4,1.8-2.1,4.8-2.1,8.9v16.7h-4.8v-31.8h3.9l0.8,4.3h0.2c0.9-1.5,2.2-2.8,3.8-3.6c1.7-0.9,3.5-1.3,5.5-1.3c5,0,8.2,1.8,9.7,5.4
		h0.2c0.9-1.7,2.3-3,4.1-3.9c1.8-1,3.8-1.4,6.1-1.4c3.6,0,6.3,0.9,8.1,2.8c1.8,1.8,2.7,4.8,2.7,8.9v20.7H367.7z"/>
	<path class="st0" d="M402,255.1l-1-4.5h-0.2c-1.6,2-3.2,3.3-4.7,4s-3.5,1.1-5.9,1.1c-3.1,0-5.6-0.8-7.4-2.4
		c-1.8-1.6-2.7-3.9-2.7-6.9c0-6.4,5.1-9.8,15.4-10.1l5.4-0.2v-2c0-2.5-0.5-4.3-1.6-5.5c-1.1-1.2-2.8-1.8-5.1-1.8
		c-2.6,0-5.6,0.8-9,2.4l-1.5-3.7c1.6-0.8,3.3-1.5,5.1-2s3.7-0.7,5.6-0.7c3.8,0,6.6,0.8,8.4,2.5c1.8,1.7,2.7,4.4,2.7,8.1v21.7H402z
		 M391.1,251.7c3,0,5.3-0.8,7.1-2.5c1.7-1.6,2.6-3.9,2.6-6.9v-2.9l-4.8,0.2c-3.8,0.1-6.6,0.7-8.3,1.8s-2.5,2.7-2.5,4.9
		c0,1.7,0.5,3.1,1.6,4C387.7,251.3,389.2,251.7,391.1,251.7z"/>
	<path class="st0" d="M437.2,255.1v-20.5c0-2.6-0.6-4.5-1.8-5.8c-1.2-1.3-3-1.9-5.5-1.9c-3.3,0-5.8,0.9-7.3,2.7s-2.3,4.8-2.3,8.9
		v16.7h-4.8v-31.8h3.9l0.8,4.3h0.2c1-1.6,2.4-2.8,4.1-3.6c1.8-0.9,3.8-1.3,5.9-1.3c3.8,0,6.7,0.9,8.6,2.8c1.9,1.8,2.9,4.8,2.9,8.9
		v20.7H437.2z"/>
	<path class="st0" d="M462.1,251.7c0.9,0,1.7-0.1,2.5-0.2c0.8-0.1,1.4-0.3,1.9-0.4v3.7c-0.5,0.3-1.3,0.5-2.3,0.6s-1.9,0.2-2.7,0.2
		c-6.1,0-9.2-3.2-9.2-9.7v-18.9h-4.5v-2.3l4.5-2l2-6.8h2.8v7.4h9.2v3.7H457v18.7c0,1.9,0.5,3.4,1.4,4.4S460.5,251.7,462.1,251.7z"/>
</g>
</svg>
