<svg id="Layer_1" data-name="Layer 1" xmlns="http://www.w3.org/2000/svg" viewBox="0 0 600 443.90551"><defs><style>.cls-1{opacity:0.8;}.cls-2{opacity:0.9;}.cls-3{fill:#fff;}.cls-4{fill:none;}</style></defs><title>Zowe_ConformanceBadge_2020</title><path d="M50.28882.2923A67.67738,67.67738,0,0,1,60.198-.98206,63.38327,63.38327,0,0,0,50.28882.2923Z"/><path d="M.25342,56.77685c.13012-.79815.18652-1.60669.25708-2.4132C.41064,55.16394.323,55.96759.25342,56.77685Z"/><path d="M0,314.66589v.594H1.063C.36816,315.26031.09106,315.13519,0,314.66589Z"/><path d="M586.5166,23.23932A63.69824,63.69824,0,0,0,574.27539,11.324a68.21983,68.21983,0,0,1,7.2395,6.30188A66.24585,66.24585,0,0,1,586.5166,23.23932Z"/><g class="cls-1"><path d="M597.81787,45.79114a67.52344,67.52344,0,0,1,1.90039,10.95044c.16065,1.75512.22144,3.50805.22144,5.26623q.00183,74.269.001,148.538v1.42756l-.22558.12042Q526.2876,105.62231,452.71338-1.06165H326.03857a1.784,1.784,0,0,1,1.3462.87378q7.27074,10.63367,14.62329,21.21155a2.544,2.544,0,0,1,.47485,1.87482c-1.33838,12.38965-2.63013,24.7843-3.95093,37.17584q-2.09545,19.659-4.219,39.31506c-1.16016,10.8819-2.28906,21.76721-3.44946,32.64911q-2.10315,19.71863-4.23316,39.43451c-1.24023,11.6366-2.44726,23.27673-3.68848,34.91321q-2.217,20.79089-4.4646,41.57849c-.49316,4.60468-.96484,9.21161-1.46459,13.99323,2.46679-1.69581,4.82885-3.3147,7.18579-4.94043q60.7174-41.87889,121.42529-83.77179c.67554-.46631.999-.55518,1.54248.23626q14.99012,21.83313,30.06445,43.60834c.5127.741.54029,1.07581-.26782,1.63251q-69.42407,47.82734-138.81226,95.70721c-.35375.2439-.78491.40228-1.01391.80731H255.30811a4.05744,4.05744,0,0,1-.5542-3.25866c1.18652-10.879,2.30883-21.765,3.47021-32.64673q2.21923-20.79072,4.46533-41.57849c1.16162-10.882,2.292-21.76721,3.45142-32.64948,1.07861-10.12744,2.186-20.25183,3.26416-30.37933,1.07837-10.12775,2.126-20.25873,3.20581-30.38629s2.19287-20.25141,3.27319-30.37885q1.74133-16.32265,3.45069-32.64886c.252-2.38068.5166-4.76.80566-7.41925-41.88208,28.88269-83.5603,57.62487-125.50415,86.55011.95874-2.57752,1.81348-4.87665,2.66895-7.17548q5.44444-14.62775,10.90185-29.25061c.30274-.80823.31494-1.10687-.71094-1.28357q-21.77417-3.74953-43.53076-7.60144c-.13794-.02417-.2749-.05359-.62939-.12317,2.52759-1.74512,4.883-3.37311,7.24023-4.99884Q210.679,54.76211,290.77588-.492a3.1461,3.1461,0,0,1,1.43188-.56964H150.49561a.95724.95724,0,0,1,.36962.16553c-3.48193,2.40308-6.916,4.7746-10.35156,7.14386Q78.47718,49.02969,16.44019,91.811,8.69812,97.15012.948,102.47772c-.26929.18463-.47266.67065-.948.3974v25.18445c.54028-.19916.58472.331.75732.58118q19.93946,28.88314,39.856,57.7821,37.541,54.43093,75.08643,108.85864,6.56324,9.51526,13.12036,19.03461c.19751.28693.5022.52417.50513.92126q-64.13086,0-128.26221.02253H600V62.28387A63.39356,63.39356,0,0,0,597.81787,45.79114ZM599.939,314.76056c0,.15893-.0249.31787-.03833.4768H477.99756c-.13623-.60156.43921-.63714.728-.83667Q506.825,294.99893,534.94385,275.626q32.10534-22.13919,64.20678-44.28424c.18921-.13049.38282-.25439.55127-.366.35743.16833.23267.44336.23291.65423Q599.944,273.19525,599.939,314.76056Z"/></g><g class="cls-2"><path d="M130.57617,110.00842c-2.35718,1.62573-4.71264,3.25372-7.24023,4.99884.35449.06958.49145.099.62939.12317q21.76283,3.816,43.53076,7.60144c1.02588.1767,1.01368.47534.71094,1.28357q-5.47376,14.61677-10.90185,29.25061c-.85547,2.29883-1.71021,4.598-2.66895,7.17548,41.94385-28.92524,83.62207-57.66742,125.50415-86.55011-.28906,2.65924-.55371,5.03857-.80566,7.41925Q277.608,97.635,275.884,113.95953c-1.08032,10.12744-2.19336,20.25141-3.27319,30.37885s-2.12744,20.25854-3.20581,30.38629c-1.07813,10.1275-2.18555,20.25189-3.26416,30.37933-1.15942,10.88227-2.2898,21.76752-3.45142,32.64948q-2.2196,20.7907-4.46533,41.57849c-1.16138,10.88177-2.28369,21.76776-3.47021,32.64673a4.05744,4.05744,0,0,0,.5542,3.25866h81.82861c.229-.405.66016-.56341,1.01391-.80731q69.39552-47.86926,138.81226-95.70721c.80811-.5567.78052-.89148.26782-1.63251Q462.163,195.31066,447.16626,173.482c-.54346-.79144-.86694-.70257-1.54248-.23626q-60.702,41.90094-121.42529,83.77179c-2.35694,1.62573-4.719,3.24462-7.18579,4.94043.49975-4.78162.97143-9.38855,1.46459-13.99323q2.22693-20.78979,4.4646-41.57849c1.24122-11.63648,2.44825-23.27661,3.68848-34.91321q2.10206-19.71881,4.23316-39.43451c1.1604-10.8819,2.2893-21.76721,3.44946-32.64911q2.09619-19.65892,4.219-39.31506c1.3208-12.39154,2.61255-24.78619,3.95093-37.17584a2.544,2.544,0,0,0-.47485-1.87482Q334.67138,10.435,327.38477-.18787a1.784,1.784,0,0,0-1.3462-.87378,2.91545,2.91545,0,0,0-.39648-.03283q-16.49707.0367-32.9939.0014a3.372,3.372,0,0,0-.44043.03143,3.1461,3.1461,0,0,0-1.43188.56964Q210.68226,54.76748,130.57617,110.00842Z"/></g><path d="M128.82007,314.3161q-6.55444-9.5213-13.12036-19.03461Q78.1565,240.8522,40.61328,186.42285q-19.92663-28.89194-39.856-57.7821c-.1726-.25019-.217-.78034-.75732-.58118l-.01709.00439q0,93.04678-.02222,186.09357A2.67762,2.67762,0,0,0,0,314.66589c.09106.4693.36816.59442,1.063.594q64.13085-.03873,128.26221-.02253C129.32227,314.84027,129.01758,314.603,128.82007,314.3161Z"/><path d="M.948,102.47772Q8.70692,97.16291,16.44019,91.811,78.47705,49.02946,140.51367,6.24774c3.43555-2.36926,6.86963-4.74078,10.35156-7.14386a.95724.95724,0,0,0-.36962-.16553,3.04868,3.04868,0,0,0-.73633-.00958q-43.00086-.01089-86.00147-.00635-1.78527.00009-3.55981.09552A67.67738,67.67738,0,0,0,50.28882.2923c-.14673.02984-.29419.05011-.44116.08093a62.066,62.066,0,0,0-26.59449,12.872q-.204.16735-.40649.33587c-.58569.48755-1.15991.98835-1.7273,1.49634-.16894.15161-.34106.2995-.50854.45288q-.99609.911-1.95386,1.86273c-.20556.205-.40283.41785-.60571.62549-.43286.44294-.86231.88929-1.282,1.34473-.26148.28339-.51734.57172-.77344.85974q-.55958.62934-1.10278,1.273c-.22657.26868-.45362.53723-.67578.80957q-.75807.93054-1.48389,1.88806c-.05713.07556-.11719.14887-.17383.22473A62.13237,62.13237,0,0,0,.64844,53.08368c-.05908.42486-.10059.85211-.13794,1.28-.07056.80651-.127,1.61505-.25708,2.4132a10.14716,10.14716,0,0,1-.27051,1.217v44.87366L0,102.87512C.47534,103.14837.67871,102.66235.948,102.47772Z"/><path d="M599.7019,230.97571c-.16845.11163-.36206.23553-.55127.366q-32.10351,22.14184-64.20678,44.28424-28.11109,19.38465-56.21826,38.77472c-.28882.19953-.86426.23511-.728.83667H599.90063c.01343-.15893.03833-.31787.03833-.4768q.00257-41.56531-.00415-83.13062C599.93457,231.41907,600.05933,231.144,599.7019,230.97571Z"/><path d="M599.94067,211.97333v-1.42756q0-74.269-.001-148.538c0-1.75818-.06079-3.51111-.22144-5.26623a67.52344,67.52344,0,0,0-1.90039-10.95044c-.12891-.47889-.26611-.95435-.40576-1.42865-.09107-.31751-.17676-.63752-.27246-.95276A60.26375,60.26375,0,0,0,587.5625,24.59c-.0813-.10809-.15869-.2182-.24072-.326-.26123-.34748-.53711-.6828-.80518-1.02466a66.24585,66.24585,0,0,0-5.00171-5.61347,68.21983,68.21983,0,0,0-7.2395-6.30188A60.51719,60.51719,0,0,0,547.16406-.17774c-.408-.06579-.812-.14141-1.22265-.19983-.27588-.04058-.55567-.06878-.83277-.10577-1.88574-.24383-3.79834-.42084-5.74634-.50989-.24609-.01037-.49511-.01123-.74194-.01873-.72119-.0257-1.44507-.04505-2.17456-.04969-.13892-.00091-.2749-.00934-.41406-.00946q-40.97424-.03862-81.94824-.00677h-1.38135l.01123.01623Q526.361,105.72848,599.71509,212.09375Z"/><path d="M596.39989,336.53519V440.30554H3.60009V336.53519h592.7998m3.6001-3.6H0V443.90552H600V332.93518Z"/><polygon class="cls-3" points="142.765 103.213 142.767 103.214 142.766 103.213 142.765 103.213"/><path class="cls-4" d="M380.57243,59.57407a1.61833,1.61833,0,0,0,.65225-1.44775V58.08a1.62152,1.62152,0,0,0-.74008-1.5356,4.731,4.731,0,0,0-2.36365-.44867h-1.013v3.87149h1.03148A5.41652,5.41652,0,0,0,380.57243,59.57407Z"/><path class="cls-4" d="M472.62488,59.42609A2.72576,2.72576,0,0,0,472.944,55.587l-.333-.333a4.63393,4.63393,0,0,0-2.82617-.754h-2.36357v5.66623h2.39137A4.66032,4.66032,0,0,0,472.62488,59.42609Z"/><path class="cls-4" d="M460.33229,59.52784a2.89731,2.89731,0,0,0,.20945-4.09207l-.00134-.00148a.26148.26148,0,0,1-.0324-.037l-.1434-.15728a4.01275,4.01275,0,0,0-2.64113-.78166l-2.82612.04159v5.79575h2.68272A4.20062,4.20062,0,0,0,460.33229,59.52784Z"/><path class="cls-4" d="M335.27393,121.02359c-11.02579,0-17.61567,8.49088-17.61567,18.50256v.253c0,10.01167,7.22379,18.75626,17.86938,18.75626,11.025,0,17.61493-8.49087,17.61493-18.50255v-.25371C353.14255,129.76781,345.9188,121.02359,335.27393,121.02359Z"/><polygon class="cls-4" points="397.862 57.212 395.499 63.008 400.212 63.008 397.862 57.212"/><path class="cls-4" d="M243.7443,60.47094a3.273,3.273,0,0,0,.17576-4.62082.67407.67407,0,0,0-.1619-.1619,4.32072,4.32072,0,0,0-2.89553-.88344h-3.20541v6.52191H240.673A4.83817,4.83817,0,0,0,243.7443,60.47094Z"/><path class="cls-4" d="M519.41254,119.883c-7.98419,0-13.17976,5.70263-14.70056,14.44721H533.7329C532.5923,125.71248,527.52322,119.883,519.41254,119.883Z"/><polygon class="cls-4" points="315.375 57.212 313.002 63.008 317.724 63.008 315.375 57.212"/><path class="cls-4" d="M219.68593,66.95028a7.36937,7.36937,0,0,0,10.21763,0,7.24576,7.24576,0,0,0,0-10.14359,7.37218,7.37218,0,0,0-10.21763,0,7.15509,7.15509,0,0,0-.02475,10.11878l.00627.00628Z"/><path class="cls-4" d="M491.43653,65.34294a6.46627,6.46627,0,0,0,0-9.07511,6.56,6.56,0,0,0-9.14455,0,6.40694,6.40694,0,0,0-.00051,9.06074l.00051.00049A6.25559,6.25559,0,0,0,486.8712,67.17v.01388A6.20627,6.20627,0,0,0,491.43653,65.34294Z"/><path class="cls-3" d="M454.89739,61.267h2.75213a5.382,5.382,0,0,0,3.60785-1.04071,3.52058,3.52058,0,0,0,1.22112-2.82613,3.40664,3.40664,0,0,0-1.22112-2.7984,5.1858,5.1858,0,0,0-3.48761-1.03148h-3.98714V68.03866h1.11477Zm0-6.76706,2.82613-.04159a4.01278,4.01278,0,0,1,2.64112.78166l.14341.15728a.26085.26085,0,0,0,.0324.037,2.89728,2.89728,0,0,1-.20665,4.09221l-.00147.00134a4.20051,4.20051,0,0,1-2.75217.76785h-2.68272Z"/><path class="cls-3" d="M467.37958,61.12364h1.99821a3.6484,3.6484,0,0,1,2.05833.49489,9.42057,9.42057,0,0,1,1.95652,2.47924l2.52089,3.94089h1.33676l-3.27481-5.00014a6.69488,6.69488,0,0,0-1.9288-2.2202,3.59369,3.59369,0,0,0,2.75212-3.5061,3.33955,3.33955,0,0,0-1.23036-2.72436,5.48663,5.48663,0,0,0-3.56621-1.0176h-3.69577l-.0416,14.49616h1.11472Zm.04164-6.6237h2.36357a4.63393,4.63393,0,0,1,2.82617.754l.333.333a2.72576,2.72576,0,0,1-.31912,3.83913,4.66024,4.66024,0,0,1-2.81229.74008h-2.39137Z"/><path class="cls-3" d="M492.306,66.06449l.17581-.185c.02776-.03238.05548-.06011.08324-.08784a7.24959,7.24959,0,0,0-.25813-10.24918l-.00092-.00085a7.91224,7.91224,0,0,0-10.8559,0l-.14336.148-.00924.00464a7.33877,7.33877,0,0,0,.1526,10.37022A7.90594,7.90594,0,0,0,492.306,66.06449ZM482.292,65.32905a6.40692,6.40692,0,0,1-.00051-9.06073l.00051-.00049a6.56,6.56,0,0,1,9.14455,0,6.46626,6.46626,0,0,1,0,9.0751,6.20623,6.20623,0,0,1-4.56533,1.84093V67.17A6.25559,6.25559,0,0,1,482.292,65.32905Z"/><path class="cls-3" d="M497.13327,72.25845a2.89937,2.89937,0,0,0,2.13237-.91584,4.69027,4.69027,0,0,0,.89737-3.2748V53.57164H499.0482V68.387c0,1.94268-.666,2.90012-2.03052,2.90012a3.47584,3.47584,0,0,1-.65225-.074l.1018,1.04537Q496.80031,72.27227,497.13327,72.25845Z"/><polygon class="cls-3" points="513.148 67.097 506.224 67.097 506.224 61.227 512.815 61.227 512.815 60.283 506.224 60.283 506.224 54.501 512.991 54.501 512.991 53.572 505.105 53.572 505.105 68.036 513.148 68.036 513.148 67.097"/><path class="cls-3" d="M529.20985,54.6017v.00253c.01967.00942.04045.01572.06007.02523Z"/><path class="cls-3" d="M524.23743,68.24219a10.747,10.747,0,0,0,5.11577-1.35065V65.73517a10.92691,10.92691,0,0,1-5.14349,1.44777,6.38124,6.38124,0,0,1-4.65322-1.78541,6.13284,6.13284,0,0,1-1.81316-4.607,6.20857,6.20857,0,0,1,1.81316-4.57917,6.07648,6.07648,0,0,1,4.4913-1.84093,11.06831,11.06831,0,0,1,5.16206,1.44771V54.60423A12.151,12.151,0,0,0,524.182,53.413a7.54566,7.54566,0,0,0-5.35161,2.13233.531.531,0,0,1-.10181.10176l-.00441.00463h-.00023a7.4064,7.4064,0,0,0,.00464,10.472A7.58229,7.58229,0,0,0,524.23743,68.24219Z"/><polygon class="cls-3" points="537.049 68.036 538.183 68.036 538.183 54.501 543.604 54.501 543.604 53.572 531.614 53.572 531.614 54.501 537.049 54.501 537.049 68.036"/><polygon class="cls-3" points="303.449 69.052 303.449 53.024 299.054 53.024 294.114 59.038 289.188 53.024 284.808 53.024 284.808 69.052 289.502 69.052 289.502 59.763 293.869 65.139 294.258 65.139 298.605 59.763 298.605 69.052 303.449 69.052"/><path class="cls-3" d="M311.86829,65.80642h6.9567l1.31824,3.24709h4.94462L318.08957,53.0217h-5.40718l-7.09082,16.03181h4.94466Zm3.50618-8.59407L317.7242,63.008h-4.72267Z"/><rect class="cls-3" x="327.23408" y="53.02487" width="4.82438" height="16.02716"/><polygon class="cls-3" points="340.901 60.124 349.218 69.052 353.51 69.052 353.51 53.024 348.695 53.024 348.695 61.905 340.407 53.024 336.119 53.024 336.119 69.052 340.901 69.052 340.901 60.124"/><polygon class="cls-3" points="362.368 62.559 369.019 62.559 369.019 59.344 362.368 59.344 362.368 56.24 369.019 56.24 369.019 53.021 357.539 53.021 357.539 69.052 362.368 69.052 362.368 62.559"/><path class="cls-3" d="M379.009,62.95064a2.68943,2.68943,0,0,1,1.08236.92509,12.418,12.418,0,0,1,1.24884,2.28032l1.25813,2.89553h5.18978l-1.57729-3.50605a12.791,12.791,0,0,0-1.42005-2.47925,4.44909,4.44909,0,0,0-1.2766-1.07309A10.994,10.994,0,0,0,384.689,61.267a3.75952,3.75952,0,0,0,.98525-1.21648,4.07662,4.07662,0,0,0,.46256-2.05832,5.06543,5.06543,0,0,0-.55049-2.20169,4.86741,4.86741,0,0,0-1.84092-1.95661,5.92518,5.92518,0,0,0-3.26093-.80944h-8.21938V69.01H377.108V62.74716h.53656A3.92671,3.92671,0,0,1,379.009,62.95064Zm-1.90109-6.85489h1.013a4.731,4.731,0,0,1,2.36365.44868,1.62148,1.62148,0,0,1,.74009,1.53559v.04631a1.61838,1.61838,0,0,1-.65225,1.44776,5.41669,5.41669,0,0,1-2.433.39316h-1.03148Z"/><path class="cls-3" d="M394.37016,65.80642h6.95661l1.30436,3.24709h4.94462L400.51268,53.0217h-5.347l-7.08613,16.03181H393.038Zm3.4922-8.59407,2.34973,5.79565H395.4988Z"/><polygon class="cls-3" points="414.398 59.763 418.779 65.139 419.153 65.139 423.52 59.763 423.52 69.052 428.344 69.052 428.344 53.024 423.968 53.024 419.01 59.038 414.098 53.024 409.703 53.024 409.703 69.052 414.398 69.052 414.398 59.763"/><polygon class="cls-3" points="444.477 65.819 437.229 65.819 437.229 62.4 443.954 62.4 443.954 59.167 437.229 59.167 437.229 56.239 444.273 56.239 444.273 53.024 432.39 53.024 432.39 69.052 444.477 69.052 444.477 65.819"/><path class="cls-3" d="M230.87488,67.75972l.20352-.19888a.14167.14167,0,0,1,.037-.037,8.17582,8.17582,0,0,0-.24052-11.559,8.30712,8.30712,0,0,0-6.07317-2.40522v.04163a8.34414,8.34414,0,0,0-6.04551,2.40523l-.15723.1619a8.2013,8.2013,0,0,0,.15723,11.59135A8.83813,8.83813,0,0,0,230.87488,67.75972Zm-11.18895-10.953a7.37216,7.37216,0,0,1,10.21763,0,7.24575,7.24575,0,0,1,0,10.14358,7.36935,7.36935,0,0,1-10.21763,0l-.01848-.01852a7.15507,7.15507,0,0,1,.0122-10.11879l.00628-.00626Z"/><path class="cls-3" d="M237.5832,62.372h3.08974a6.06389,6.06389,0,0,0,4.01494-1.17484,4.22665,4.22665,0,0,0,.08783-6.29063,5.99452,5.99452,0,0,0-3.91313-1.14712h-4.45426L236.339,69.893h1.24424Zm.074-7.56722h3.20541a4.32062,4.32062,0,0,1,2.89552.88344.67357.67357,0,0,1,.16191.1619,3.273,3.273,0,0,1-.17576,4.62081,4.83821,4.83821,0,0,1-3.07134.85573h-3.01576Z"/><polygon class="cls-3" points="257.53 68.878 249.773 68.878 249.773 62.314 257.142 62.314 257.142 61.269 249.773 61.269 249.773 54.807 257.34 54.807 257.34 53.762 248.529 53.762 248.529 69.923 257.53 69.923 257.53 68.878"/><polygon class="cls-3" points="261.344 55.787 273.616 69.923 274.648 69.923 274.648 53.762 273.398 53.762 273.398 67.878 261.155 53.762 260.096 53.762 260.096 69.923 261.344 69.923 261.344 55.787"/><polygon class="cls-3" points="216.275 102.014 263.545 102.014 214.753 158.789 214.753 173.616 288.637 173.616 288.637 156.508 239.846 156.508 288.637 99.733 288.637 84.906 216.275 84.906 216.275 102.014"/><path class="cls-3" d="M335.52762,104.422c-21.16395,0-36.87862,15.84117-36.87862,35.35709v.25371c0,19.51667,15.58745,35.10411,36.62491,35.10411,21.16394,0,36.87788-15.84116,36.87788-35.35782v-.253C372.15181,120.00948,356.56434,104.422,335.52762,104.422Zm17.61493,35.61081c0,10.01168-6.58991,18.50255-17.61493,18.50255-10.64559,0-17.86938-8.74459-17.86938-18.75626v-.253c0-10.01168,6.5899-18.50255,17.61567-18.50255,10.64485,0,17.86864,8.74422,17.86864,18.75553Z"/><polygon class="cls-3" points="450.217 147.003 437.291 105.436 420.689 105.436 407.89 146.876 396.991 105.689 377.474 105.689 398.385 174.123 415.621 174.123 428.926 132.429 441.979 174.123 459.342 174.123 480.506 105.689 461.369 105.689 450.217 147.003"/><path class="cls-3" d="M552.48916,141.29992c0-19.26259-10.39187-36.87789-33.07662-36.87789-19.76964,0-33.58331,15.96766-33.58331,35.35709v.25371c0,20.78375,15.08076,35.10411,35.48431,35.10411,12.29287,0,21.41692-4.81611,27.75383-12.67308l-11.02579-9.758c-5.32279,4.9426-10.01167,6.97008-16.47438,6.97008-8.6181,0-14.70129-4.56239-16.60155-13.307h47.26976C552.36194,144.59522,552.48916,142.82073,552.48916,141.29992ZM504.712,134.3302c1.5208-8.74458,6.71637-14.44721,14.70056-14.44721,8.11068,0,13.17976,5.82949,14.32036,14.44721Z"/><path class="cls-3" d="M129.88955,44l-90.9053,62.6922,62.6922,90.90531,90.90531-62.69221ZM104.87644,156.98517l6.33988-59.48829L80.11806,118.9436l-7.76185-11.25485,47.606-32.83119,6.72695,9.75426-6.33936,59.488,32.0985-22.13653,7.7622,11.25536-48.60679,33.52131Z"/><path class="cls-3" d="M157.66305,216.44531q-6.98291,0-11.02441,4.65039-4.04151,4.65015-4.042,12.7334,0,8.31592,3.89746,12.84961,3.89647,4.53516,11.11132,4.53467a37.93333,37.93333,0,0,0,10.11133-1.59375V253.937a31.15069,31.15069,0,0,1-10.86523,1.65137q-9.35889,0-14.44336-5.67871-5.08448-5.67847-5.084-16.13819a25.46463,25.46463,0,0,1,2.44825-11.47363,17.57417,17.57417,0,0,1,7.06933-7.59082,21.3959,21.3959,0,0,1,10.87891-2.66553,26.25128,26.25128,0,0,1,11.64746,2.4336l-2.08594,4.23A22.45337,22.45337,0,0,0,157.66305,216.44531Z"/><path class="cls-3" d="M203.64352,239.10254q0,7.76514-3.91113,12.125-3.91113,4.36157-10.80664,4.36084a14.31252,14.31252,0,0,1-7.5625-1.99951,13.19567,13.19567,0,0,1-5.09961-5.73633,19.99676,19.99676,0,0,1-1.7959-8.75q0-7.76441,3.88281-12.09668,3.88184-4.33082,10.77735-4.33154a13.43448,13.43448,0,0,1,10.58984,4.4331Q203.64353,231.54,203.64352,239.10254Zm-24.19238,0q0,6.08423,2.43359,9.27148a9.6588,9.6588,0,0,0,14.32715.01416q2.44776-3.17211,2.44824-9.28564,0-6.05567-2.44824-9.19922-2.44776-3.14355-7.22852-3.14355-4.72264,0-7.12793,3.10009Q179.45017,232.96021,179.45114,239.10254Z"/><path class="cls-3" d="M233.80465,255.00879v-20.542q0-3.88257-1.76757-5.79492-1.76661-1.91236-5.53321-1.91211-4.98339,0-7.30176,2.69433-2.31738,2.69458-2.31738,8.895v16.65967h-4.80957V223.25391h3.91113l.78223,4.34619H217a9.82412,9.82412,0,0,1,4.14355-3.63623,13.46477,13.46477,0,0,1,5.93945-1.28955q5.73633,0,8.63379,2.76709t2.89746,8.85156v20.71582Z"/><path class="cls-3" d="M262.80758,226.9917h-8.084v28.01709H249.914V226.9917h-5.67871v-2.17334l5.67871-1.73828V221.313q0-11.70557,10.22851-11.70557a21.05734,21.05734,0,0,1,5.91016,1.01416l-1.24609,3.85352a15.91934,15.91934,0,0,0-4.751-.89844,4.62834,4.62834,0,0,0-4.02734,1.811q-1.30518,1.81127-1.30469,5.80908v2.05713h8.084Z"/><path class="cls-3" d="M296.01071,239.10254q0,7.76514-3.91113,12.125-3.91115,4.36157-10.80665,4.36084a14.31254,14.31254,0,0,1-7.5625-1.99951,13.19571,13.19571,0,0,1-5.0996-5.73633,19.99676,19.99676,0,0,1-1.7959-8.75q0-7.76441,3.88281-12.09668,3.88184-4.33082,10.77734-4.33154a13.43448,13.43448,0,0,1,10.58985,4.4331Q296.0107,231.54,296.01071,239.10254Zm-24.19238,0q0,6.08423,2.43359,9.27148a9.6588,9.6588,0,0,0,14.32715.01416q2.44774-3.17211,2.44824-9.28564,0-6.05567-2.44824-9.19922-2.44776-3.14355-7.22852-3.14355-4.72266,0-7.12793,3.10009Q271.81735,232.96021,271.81833,239.10254Z"/><path class="cls-3" d="M318.92868,222.67432a18.85366,18.85366,0,0,1,3.7959.34765l-.667,4.46192a16.39676,16.39676,0,0,0-3.47656-.43457,8.46535,8.46535,0,0,0-6.5918,3.12939,11.40994,11.40994,0,0,0-2.7373,7.79395v17.03613h-4.80957V223.25391h3.96875l.55078,5.88183h.23145a13.95752,13.95752,0,0,1,4.25976-4.78076A9.58869,9.58869,0,0,1,318.92868,222.67432Z"/><path class="cls-3" d="M369.13961,255.00879v-20.6582q0-3.79469-1.623-5.69288a6.27427,6.27427,0,0,0-5.041-1.89794q-4.49121,0-6.63476,2.57861-2.14454,2.57886-2.14454,7.93848v17.73193h-4.80957v-20.6582q0-3.79469-1.62207-5.69288-1.623-1.89769-5.07031-1.89794-4.5205,0-6.62012,2.709-2.102,2.70923-2.10058,8.88037v16.65967H328.664V223.25391h3.91113l.78223,4.34619h.23144a9.45358,9.45358,0,0,1,3.83887-3.62158,11.72662,11.72662,0,0,1,5.54883-1.3042q7.4458,0,9.73535,5.38916h.23145a10.13092,10.13092,0,0,1,4.11425-3.94043,12.76988,12.76988,0,0,1,6.14258-1.44873q5.38916,0,8.06934,2.76709,2.6792,2.76708,2.67968,8.85156v20.71582Z"/><path class="cls-3" d="M403.38571,255.00879l-.95606-4.52h-.23144a13.36256,13.36256,0,0,1-4.73731,4.042,14.43848,14.43848,0,0,1-5.8955,1.05762,10.60489,10.60489,0,0,1-7.40332-2.43408,8.87355,8.87355,0,0,1-2.67969-6.92432q0-9.6189,15.38476-10.083l5.38868-.17383v-1.97021q0-3.73755-1.60743-5.519-1.60839-1.782-5.14257-1.78223a20.95371,20.95371,0,0,0-8.98243,2.43408l-1.47754-3.67969a22.6055,22.6055,0,0,1,5.14258-1.999,22.27331,22.27331,0,0,1,5.60645-.72461q5.6792,0,8.417,2.52051,2.7378,2.521,2.73828,8.084v21.67188Zm-10.86426-3.38965a9.76074,9.76074,0,0,0,7.05469-2.46289,9.11207,9.11207,0,0,0,2.56445-6.89551v-2.86865l-4.80957.20264q-5.73779.20361-8.27246,1.78222a5.37235,5.37235,0,0,0-2.53516,4.91065,4.95506,4.95506,0,0,0,1.5791,3.96972A6.5529,6.5529,0,0,0,392.52145,251.61914Z"/><path class="cls-3" d="M438.58883,255.00879v-20.542q0-3.88257-1.76758-5.79492-1.76659-1.91236-5.5332-1.91211-4.98339,0-7.30176,2.69433-2.31738,2.69458-2.31738,8.895v16.65967h-4.80957V223.25391h3.91113l.78223,4.34619h.23145a9.82412,9.82412,0,0,1,4.14355-3.63623,13.46477,13.46477,0,0,1,5.93945-1.28955q5.73633,0,8.63379,2.76709t2.89746,8.85156v20.71582Z"/><path class="cls-3" d="M463.53415,251.61914a15.65552,15.65552,0,0,0,2.46289-.18848,15.94243,15.94243,0,0,0,1.88379-.39111v3.67969a8.80213,8.80213,0,0,1-2.30372.62256,17.31189,17.31189,0,0,1-2.73828.24658q-9.2124,0-9.21289-9.70606V226.9917h-4.54883v-2.31787l4.54883-1.99951,2.02832-6.77979h2.78125v7.35938h9.21289v3.73779h-9.21289v18.6875a6.42767,6.42767,0,0,0,1.36133,4.4043A4.738,4.738,0,0,0,463.53415,251.61914Z"/><path d="M101.5234,398.95031l-1.55273-5.09766H92.16305l-1.55273,5.09766H85.71774l7.55859-21.50391h5.55176l7.58789,21.50391Zm-2.63672-8.90625q-2.15331-6.92871-2.4248-7.83692-.271-.90819-.3877-1.43554-.48339,1.875-2.76855,9.27246Z"/><path d="M127.50583,384.214a6.54841,6.54841,0,0,1-2.16016,5.28809,9.244,9.244,0,0,1-6.14551,1.83105h-1.94824v7.61719h-4.541v-21.416h6.84082a9.09749,9.09749,0,0,1,5.92481,1.67774A6.11484,6.11484,0,0,1,127.50583,384.214Zm-10.25391,3.39844h1.49414a4.96968,4.96968,0,0,0,3.13477-.82813,2.89435,2.89435,0,0,0,1.04-2.40918,2.97025,2.97025,0,0,0-.87207-2.3584,4.08246,4.08246,0,0,0-2.73144-.76171h-2.06543Z"/><path d="M149.9443,384.214a6.5484,6.5484,0,0,1-2.16015,5.28809,9.244,9.244,0,0,1-6.14551,1.83105H139.6904v7.61719h-4.541v-21.416h6.84082a9.09745,9.09745,0,0,1,5.9248,1.67774A6.11484,6.11484,0,0,1,149.9443,384.214Zm-10.2539,3.39844h1.49414a4.96965,4.96965,0,0,0,3.13476-.82813,2.89432,2.89432,0,0,0,1.04-2.40918,2.97025,2.97025,0,0,0-.87207-2.3584,4.08246,4.08246,0,0,0-2.73144-.76171H139.6904Z"/><path d="M173.44821,398.95031h-4.46778v-21.416h12.2754V381.255h-7.80762v5.52246h7.26562v3.70605h-7.26562Z"/><path d="M193.5859,390.73253v8.21778h-4.541v-21.416h6.24023q4.36524,0,6.46,1.58985a6.33543,6.33543,0,0,1,1.05469,8.1875,6.87513,6.87513,0,0,1-2.94434,2.30761q4.834,7.22169,6.29883,9.33106H201.1152l-5.1123-8.21778Zm0-3.6914h1.46485a5.60413,5.60413,0,0,0,3.17871-.71777,2.56208,2.56208,0,0,0,1.02539-2.25586,2.34375,2.34375,0,0,0-1.04785-2.168,6.35355,6.35355,0,0,0-3.24414-.64453h-1.377Z"/><path d="M225.55954,398.95031l-1.55274-5.09766h-7.80762l-1.55273,5.09766h-4.89258l7.5586-21.50391h5.55175l7.58789,21.50391Zm-2.63672-8.90625q-2.15332-6.92871-2.42481-7.83692-.271-.90819-.38769-1.43554-.48341,1.875-2.76856,9.27246Z"/><path d="M245.8154,398.95031l-5.15625-16.80176h-.13184q.27832,5.127.27832,6.84082v9.96094H236.748v-21.416h6.18164l5.06836,16.377h.08789l5.376-16.377h6.18164v21.416h-4.2334V388.81359q0-.71778.02149-1.65527.02343-.9375.19824-4.98047H255.498l-5.52246,16.77246Z"/><path d="M280.96774,398.95031h-12.334v-21.416h12.334V381.255h-7.793v4.70214h7.251v3.72071h-7.251v5.52246h7.793Z"/><path d="M309.89547,398.95031h-5.17089l-2.9004-11.25q-.16113-.60059-.5498-2.48242-.38819-1.88234-.44629-2.52735-.08788.791-.43945,2.541-.35157,1.752-.542,2.498l-2.88575,11.2207h-5.15625l-5.46386-21.416h4.46777l2.73926,11.68946q.71776,3.2373,1.04,5.61035.08789-.835.40332-2.585.31347-1.7505.59277-2.71778l3.12012-11.99707h4.292l3.12012,11.99707q.20508.80566.51269,2.46094t.46875,2.8418q.14649-1.14258.46875-2.84864.32227-1.70653.58594-2.76171l2.72461-11.68946h4.46777Z"/><path d="M341.07809,388.213q0,5.31739-2.63672,8.17383t-7.55859,2.85645q-4.92187,0-7.5586-2.85645t-2.63671-8.20312q0-5.34669,2.64355-8.167,2.644-2.81835,7.58106-2.81933,4.93651,0,7.55175,2.8418Q341.07712,382.881,341.07809,388.213Zm-15.62988,0a8.94605,8.94605,0,0,0,1.3623,5.40528,4.76669,4.76669,0,0,0,4.07227,1.8164q5.43457,0,5.43457-7.22168,0-7.23633-5.40527-7.23632a4.80123,4.80123,0,0,0-4.08692,1.82324A8.91177,8.91177,0,0,0,325.44821,388.213Z"/><path d="M353.65719,390.73253v8.21778h-4.541v-21.416h6.24023q4.36524,0,6.46,1.58985a6.33543,6.33543,0,0,1,1.05469,8.1875,6.87519,6.87519,0,0,1-2.94434,2.30761q4.834,7.22169,6.29883,9.33106h-5.03906l-5.11231-8.21778Zm0-3.6914H355.122a5.60413,5.60413,0,0,0,3.17871-.71777,2.56208,2.56208,0,0,0,1.02539-2.25586,2.34375,2.34375,0,0,0-1.04785-2.168,6.35355,6.35355,0,0,0-3.24414-.64453h-1.377Z"/><path d="M389.748,398.95031h-5.15625l-5.61035-9.02344-1.91894,1.37695v7.64649h-4.541v-21.416h4.541v9.79981l1.78711-2.51953,5.80078-7.28028h5.03906l-7.4707,9.47754Z"/><path d="M405.63473,392.73937v-3.66211h7.86621v3.66211Z"/><path d="M445.55856,398.95031h-14.9707v-3.14942l5.376-5.43457q2.3877-2.44629,3.12012-3.39062a7.47991,7.47991,0,0,0,1.05469-1.751,4.45662,4.45662,0,0,0,.32226-1.66992,2.43343,2.43343,0,0,0-.71093-1.91894,2.75345,2.75345,0,0,0-1.89649-.62989,5.45492,5.45492,0,0,0-2.417.57129,12.47317,12.47317,0,0,0-2.44629,1.626l-2.46094-2.915a16.0551,16.0551,0,0,1,2.62207-1.9043,9.66875,9.66875,0,0,1,2.27051-.85742,11.686,11.686,0,0,1,2.75391-.2998,8.15414,8.15414,0,0,1,3.54492.73242,5.65535,5.65535,0,0,1,2.38769,2.05078,5.44777,5.44777,0,0,1,.84961,3.01758,7.39239,7.39239,0,0,1-.5205,2.77636,10.67311,10.67311,0,0,1-1.61133,2.65821,39.37336,39.37336,0,0,1-3.84473,3.88183l-2.75391,2.59278v.20507h9.33106Z"/><path d="M466.166,388.2423q0,5.61034-1.83789,8.30566a6.38085,6.38085,0,0,1-5.66211,2.69532,6.30375,6.30375,0,0,1-5.58789-2.78321q-1.88379-2.78319-1.88281-8.21777,0-5.66895,1.831-8.35644a7.12071,7.12071,0,0,1,11.24317.124Q466.165,382.82238,466.166,388.2423Zm-10.47363,0a16.69349,16.69349,0,0,0,.68066,5.64746,2.38429,2.38429,0,0,0,4.57813-.02246,22.87353,22.87353,0,0,0-.00781-11.28613,2.37218,2.37218,0,0,0-4.5625,0A16.62935,16.62935,0,0,0,455.69235,388.2423Z"/><path d="M487.0068,398.95031H472.0361v-3.14942l5.376-5.43457q2.38768-2.44629,3.12011-3.39062a7.47957,7.47957,0,0,0,1.05469-1.751,4.45663,4.45663,0,0,0,.32227-1.66992,2.43344,2.43344,0,0,0-.71094-1.91894,2.75343,2.75343,0,0,0-1.89649-.62989,5.455,5.455,0,0,0-2.417.57129,12.47317,12.47317,0,0,0-2.44629,1.626l-2.46094-2.915a16.0551,16.0551,0,0,1,2.62208-1.9043,9.6685,9.6685,0,0,1,2.2705-.85742,11.686,11.686,0,0,1,2.75391-.2998,8.15414,8.15414,0,0,1,3.54492.73242,5.65544,5.65544,0,0,1,2.3877,2.05078,5.44785,5.44785,0,0,1,.84961,3.01758,7.39239,7.39239,0,0,1-.52051,2.77636,10.67311,10.67311,0,0,1-1.61133,2.65821,39.37336,39.37336,0,0,1-3.84473,3.88183l-2.7539,2.59278v.20507h9.33105Z"/><path d="M507.61422,388.2423q0,5.61034-1.83789,8.30566a6.38085,6.38085,0,0,1-5.66211,2.69532,6.30375,6.30375,0,0,1-5.58789-2.78321q-1.88379-2.78319-1.88281-8.21777,0-5.66895,1.83106-8.35644a7.1207,7.1207,0,0,1,11.24316.124Q507.61325,382.82238,507.61422,388.2423Zm-10.47363,0a16.69349,16.69349,0,0,0,.68066,5.64746,2.38429,2.38429,0,0,0,4.57813-.02246,22.87353,22.87353,0,0,0-.00781-11.28613,2.37218,2.37218,0,0,0-4.5625,0A16.62935,16.62935,0,0,0,497.14059,388.2423Z"/></svg>