<svg id="Layer_1" data-name="Layer 1" xmlns="http://www.w3.org/2000/svg" xmlns:xlink="http://www.w3.org/1999/xlink" viewBox="0 0 600 313.91"><defs><style>.cls-1{fill:none;}.cls-2{fill:#488eff;}.cls-3{clip-path:url(#clip-path);}.cls-4{fill:#3274f9;}.cls-5,.cls-6{fill:#fff;}.cls-6{font-size:59.34px;font-family:OpenSans, Open Sans;}.cls-7{clip-path:url(#clip-path-2);}</style><clipPath id="clip-path"><path class="cls-1" d="M63.35,0H536.65A63.35,63.35,0,0,1,600,63.35v253a0,0,0,0,1,0,0H0a0,0,0,0,1,0,0v-253A63.35,63.35,0,0,1,63.35,0Z"/></clipPath><clipPath id="clip-path-2"><path class="cls-1" d="M63.35-555.91H536.65A63.35,63.35,0,0,1,600-492.56v253a0,0,0,0,1,0,0H0a0,0,0,0,1,0,0v-253A63.35,63.35,0,0,1,63.35-555.91Z"/></clipPath></defs><title>Zowe_ConformanceBadge</title><path class="cls-2" d="M63.35,0H536.65A63.35,63.35,0,0,1,600,63.35v253a0,0,0,0,1,0,0H0a0,0,0,0,1,0,0v-253A63.35,63.35,0,0,1,63.35,0Z"/><g class="cls-3"><path class="cls-4" d="M592.85,322.84l-299,209.35a22,22,0,0,1-34.57-19.72l33.32-431.7L48.3,269.84,248.18,537.31a22,22,0,1,1-36.06,25.24L-.38,259.06A22,22,0,0,1,5,228.41L305.51,18a22,22,0,0,1,34.57,19.72l-33.32,431.7L551.07,298.35l-198.83-284A22,22,0,1,1,388.3-10.86L598.7,289.63a25.37,25.37,0,0,1-5.85,33.21Z"/></g><path class="cls-5" d="M258.14,149.68h46.91V162.5h-65V152.43l43.65-60.2H242.36V79.4h60.26v9.53Z"/><path class="cls-5" d="M379.38,131.4c0,22.9-15.35,32.86-31.39,32.86s-31.38-10-31.38-32.86S332,98.54,348,98.54,379.38,108.49,379.38,131.4Zm-48.23,0c0,12.91,6.41,20.26,16.84,20.26s16.85-7.48,16.85-20.26-6.35-20.27-16.85-20.27S331.15,118.49,331.15,131.4Z"/><path class="cls-5" d="M452.19,162.5h-9.4l-14.24-41.44L413.5,162.5h-9.41l-20.18-62.2H398l12.06,43.29,14.4-43.29h9.32l14,43.8,12.88-43.8h13.79Z"/><path class="cls-5" d="M537,128a44.55,44.55,0,0,1-.75,8.37H493.52c1.7,11.87,8.54,16.26,17.74,16.26a27.54,27.54,0,0,0,17.7-6.3l5.93,9.26c-6.43,5.44-14.63,8.7-25.76,8.7-16.28,0-30-10.49-30-32.56,0-20.25,11.95-33.16,29.52-33.16C527.76,98.54,537,113,537,128Zm-13.11-1.23c-.42-10.34-6-16.93-14.83-16.93s-14.68,5.35-15.73,16.93Z"/><path class="cls-5" d="M191.4,137.12l-64.26,45a4.72,4.72,0,0,1-7.42-4.23l7.16-92.78L74.37,121.87l43,61.34a4.73,4.73,0,1,1-7.75,5.43L63.91,123.42a4.73,4.73,0,0,1,1.16-6.59l64.58-45.22a4.73,4.73,0,0,1,7.43,4.24l-7.16,92.77,52.5-36.76-42.73-61a4.73,4.73,0,0,1,7.75-5.43L192.66,130a4.75,4.75,0,0,1,.72,3.81A4.69,4.69,0,0,1,191.4,137.12Z"/><text class="cls-6" transform="translate(132.29 255.1)">Conformant</text><g class="cls-7"><path class="cls-4" d="M592.85-233.07l-299,209.35a22,22,0,0,1-23.53,1.09,22,22,0,0,1-11-20.81l33.32-431.69L48.3-286.07,248.18-18.6a22,22,0,0,1-5.4,30.65,22,22,0,0,1-30.66-5.4L-.38-296.85A22,22,0,0,1,5-327.5L305.51-537.9A22,22,0,0,1,329-539a22,22,0,0,1,11,20.81L306.76-86.49,551.07-257.55l-198.83-284a22,22,0,0,1,5.41-30.65,22,22,0,0,1,30.65,5.4L598.7-266.28a22,22,0,0,1,3.39,17.72A21.94,21.94,0,0,1,592.85-233.07Z"/></g></svg>