<svg id="Layer_1" data-name="Layer 1" xmlns="http://www.w3.org/2000/svg" xmlns:xlink="http://www.w3.org/1999/xlink" viewBox="0 0 601.41262 443.90551"><defs><style>.cls-1{fill:none;}.cls-2{fill:#488eff;}.cls-3{fill:#fff;}.cls-4{clip-path:url(#clip-path);}.cls-5{opacity:0.9;}.cls-6{fill:#3274f9;}.cls-7{clip-path:url(#clip-path-2);}</style><clipPath id="clip-path"><path class="cls-1" d="M64.75815,0H538.06709a63.34553,63.34553,0,0,1,63.34553,63.34553v252.976a0,0,0,0,1,0,0h-600a0,0,0,0,1,0,0V63.34553A63.34553,63.34553,0,0,1,64.75815,0Z"/></clipPath><clipPath id="clip-path-2"><path class="cls-1" d="M64.75815,475H538.06709a63.34553,63.34553,0,0,1,63.34553,63.34553v252.976a0,0,0,0,1,0,0h-600a0,0,0,0,1,0,0v-252.976A63.34553,63.34553,0,0,1,64.75815,475Z"/></clipPath></defs><title>Zowe_ConformanceBadge_2020</title><path class="cls-2" d="M64.75815,0H538.06709a63.34553,63.34553,0,0,1,63.34553,63.34553v252.976a0,0,0,0,1,0,0h-600a0,0,0,0,1,0,0V63.34553A63.34553,63.34553,0,0,1,64.75815,0Z"/><rect class="cls-3" x="3.21289" y="334.8291" width="596.40039" height="107.37109"/><path class="cls-2" d="M597.8125,336.62967V440.4H5.0127V336.62967H597.8125m3.6001-3.6h-600V444h600V333.02966Z"/><path class="cls-2" d="M56.78809,398.9502l-1.55274-5.09766H47.42773L45.875,398.9502H40.98242l7.5586-21.50391h5.55175l7.58789,21.50391ZM54.15137,390.044q-2.15332-6.92872-2.42481-7.83692-.271-.9082-.38769-1.43555-.48341,1.875-2.76856,9.27247Z"/><path class="cls-2" d="M82.77051,384.21387a6.54839,6.54839,0,0,1-2.16016,5.28808,9.24391,9.24391,0,0,1-6.14551,1.83106H72.5166v7.61719h-4.541v-21.416h6.84082a9.09754,9.09754,0,0,1,5.9248,1.67773A6.11488,6.11488,0,0,1,82.77051,384.21387ZM72.5166,387.6123h1.49414a4.96972,4.96972,0,0,0,3.13477-.82812,2.89432,2.89432,0,0,0,1.04-2.40918,2.97027,2.97027,0,0,0-.87207-2.3584,4.08249,4.08249,0,0,0-2.73145-.76172H72.5166Z"/><path class="cls-2" d="M90.41406,398.9502v-21.416h4.541v21.416Z"/><path class="cls-2" d="M124.40625,398.9502,119.25,382.14844h-.13184q.27832,5.127.27832,6.84082v9.96094h-4.05761v-21.416h6.18164l5.06836,16.377h.08789l5.376-16.377h6.18164v21.416H134.001V388.81348q0-.71778.02148-1.65528.02345-.9375.19824-4.98047h-.13183l-5.52246,16.77247Z"/><path class="cls-2" d="M159.55859,398.9502h-12.334v-21.416h12.334v3.7207h-7.793V385.957h7.251v3.7207h-7.251v5.52247h7.793Z"/><path class="cls-2" d="M185.39453,388.03711q0,5.28809-3.01074,8.10059-3.00879,2.8125-8.69336,2.8125H167.626v-21.416h6.72363q5.24413,0,8.14453,2.76855A10.18379,10.18379,0,0,1,185.39453,388.03711Zm-4.7168.11719q0-6.89941-6.09375-6.89942h-2.417V395.2002h1.94824Q180.67773,395.2002,180.67773,388.1543Z"/><path class="cls-2" d="M193.43359,398.9502v-21.416h4.541v21.416Z"/><path class="cls-2" d="M220.0752,398.9502l-1.55274-5.09766h-7.80762l-1.55273,5.09766h-4.89258l7.55859-21.50391h5.55176l7.58789,21.50391Zm-2.63672-8.90625q-2.15333-6.92872-2.42481-7.83692-.271-.9082-.38769-1.43555-.48341,1.875-2.76856,9.27247Z"/><path class="cls-2" d="M239.52539,398.9502h-4.541V381.31348H229.169v-3.7793h16.17187v3.7793h-5.81543Z"/><path class="cls-2" d="M252.23633,398.9502v-21.416h4.541v21.416Z"/><path class="cls-2" d="M285.20605,388.21289q0,5.31738-2.63671,8.17383t-7.5586,2.85644q-4.92187,0-7.55859-2.85644t-2.63672-8.20313q0-5.34667,2.64355-8.167,2.644-2.81835,7.58106-2.81933,4.93652,0,7.55176,2.84179Q285.20507,382.88086,285.20605,388.21289Zm-15.62988,0a8.94592,8.94592,0,0,0,1.36231,5.40527,4.76664,4.76664,0,0,0,4.07226,1.81641q5.43457,0,5.43457-7.22168,0-7.23633-5.40527-7.23633a4.80126,4.80126,0,0,0-4.08692,1.82324A8.91187,8.91187,0,0,0,269.57617,388.21289Z"/><path class="cls-2" d="M312.24414,398.9502h-5.77148L297.15625,382.749h-.13184q.27833,4.292.27832,6.12305V398.9502h-4.05761v-21.416h5.72754l9.30175,16.04h.10254q-.21972-4.1748-.21972-5.90332V377.53418h4.08691Z"/><path class="cls-2" d="M332.62793,398.9502v-21.416h4.541v17.666h8.68652v3.75Z"/><path class="cls-2" d="M366.28613,398.9502l-1.55273-5.09766h-7.80762l-1.55273,5.09766h-4.89258l7.55859-21.50391h5.55176l7.58789,21.50391Zm-2.63672-8.90625q-2.15331-6.92872-2.4248-7.83692-.271-.9082-.3877-1.43555-.48339,1.875-2.76855,9.27247Z"/><path class="cls-2" d="M384.13867,386.35254l4.46778-8.81836H393.499l-7.10449,13.08105v8.335h-4.51172v-8.18848l-7.10449-13.22754h4.92188Z"/><path class="cls-2" d="M412.12891,398.9502h-12.334v-21.416h12.334v3.7207h-7.793V385.957h7.251v3.7207h-7.251v5.52247h7.793Z"/><path class="cls-2" d="M424.7373,390.73242v8.21778h-4.541v-21.416h6.24023q4.36524,0,6.46,1.58984a6.33543,6.33543,0,0,1,1.05469,8.1875,6.8751,6.8751,0,0,1-2.94433,2.30762q4.834,7.22167,6.29882,9.33106H432.2666l-5.1123-8.21778Zm0-3.6914h1.46485a5.604,5.604,0,0,0,3.17871-.71778,2.56207,2.56207,0,0,0,1.02539-2.25586,2.34377,2.34377,0,0,0-1.04785-2.168,6.35363,6.35363,0,0,0-3.24414-.64453h-1.377Z"/><path class="cls-2" d="M453.19238,392.73926v-3.66211h7.86621v3.66211Z"/><path class="cls-2" d="M493.11719,398.9502H478.14648v-3.14942l5.376-5.43457q2.3877-2.44629,3.12012-3.39062a7.47991,7.47991,0,0,0,1.05469-1.751,4.45662,4.45662,0,0,0,.32226-1.66992,2.43341,2.43341,0,0,0-.71094-1.91895,2.75347,2.75347,0,0,0-1.89648-.62988,5.45492,5.45492,0,0,0-2.417.57129,12.47354,12.47354,0,0,0-2.44629,1.626l-2.46094-2.915a16.0545,16.0545,0,0,1,2.62207-1.9043,9.66875,9.66875,0,0,1,2.27051-.85742,11.68592,11.68592,0,0,1,2.7539-.29981,8.15416,8.15416,0,0,1,3.54493.73242,5.65544,5.65544,0,0,1,2.38769,2.05079,5.44776,5.44776,0,0,1,.84961,3.01757,7.39241,7.39241,0,0,1-.52051,2.77637,10.67331,10.67331,0,0,1-1.61132,2.6582,39.3732,39.3732,0,0,1-3.84473,3.88184l-2.75391,2.59277v.20508h9.33106Z"/><path class="cls-2" d="M513.72363,388.24219q0,5.61034-1.83789,8.30566a6.38085,6.38085,0,0,1-5.66211,2.69531,6.30374,6.30374,0,0,1-5.58789-2.7832q-1.88379-2.78321-1.88281-8.21777,0-5.66895,1.83105-8.35645a7.12072,7.12072,0,0,1,11.24317.124Q513.72266,382.82227,513.72363,388.24219Zm-10.47363,0a16.69353,16.69353,0,0,0,.68066,5.64746,2.38429,2.38429,0,0,0,4.57813-.02246,22.87357,22.87357,0,0,0-.00781-11.28614,2.37219,2.37219,0,0,0-4.5625,0A16.62942,16.62942,0,0,0,503.25,388.24219Z"/><path class="cls-2" d="M534.56543,398.9502h-14.9707v-3.14942l5.376-5.43457q2.3877-2.44629,3.12012-3.39062a7.47991,7.47991,0,0,0,1.05469-1.751,4.45662,4.45662,0,0,0,.32226-1.66992,2.43344,2.43344,0,0,0-.71093-1.91895,2.7535,2.7535,0,0,0-1.89649-.62988,5.45492,5.45492,0,0,0-2.417.57129,12.47354,12.47354,0,0,0-2.44629,1.626l-2.46094-2.915a16.0545,16.0545,0,0,1,2.62207-1.9043,9.66875,9.66875,0,0,1,2.27051-.85742,11.686,11.686,0,0,1,2.75391-.29981,8.15414,8.15414,0,0,1,3.54492.73242,5.65544,5.65544,0,0,1,2.38769,2.05079,5.44776,5.44776,0,0,1,.84961,3.01757,7.3924,7.3924,0,0,1-.5205,2.77637,10.67307,10.67307,0,0,1-1.61133,2.6582,39.3732,39.3732,0,0,1-3.84473,3.88184l-2.75391,2.59277v.20508h9.33106Z"/><path class="cls-2" d="M555.17187,388.24219q0,5.61034-1.83789,8.30566a6.38085,6.38085,0,0,1-5.66211,2.69531A6.30374,6.30374,0,0,1,542.084,396.46q-1.88379-2.78321-1.88281-8.21777,0-5.66895,1.83106-8.35645a7.12071,7.12071,0,0,1,11.24316.124Q555.1709,382.82227,555.17187,388.24219Zm-10.47363,0a16.69321,16.69321,0,0,0,.68067,5.64746,2.38428,2.38428,0,0,0,4.57812-.02246,22.87325,22.87325,0,0,0-.00781-11.28614,2.37219,2.37219,0,0,0-4.5625,0A16.62942,16.62942,0,0,0,544.69824,388.24219Z"/><g class="cls-4"><g class="cls-5"><path class="cls-6" d="M356.94143-141-10,112.05857,243.05857,479,610,225.94143ZM255.9754,315.06735,281.56646,74.94142,156.0376,161.51161,170,124l-45.2933-7.91884L316.86955-16.44273,344.023,22.93056l-25.589,240.12454,129.56639-89.35461L479.33274,219.133,283.13027,354.44256Z"/></g></g><path class="cls-3" d="M157.66309,216.54q-6.98292,0-11.02442,4.65039-4.04149,4.65015-4.042,12.7334,0,8.31591,3.89746,12.84961,3.89649,4.53516,11.11133,4.53467a37.93339,37.93339,0,0,0,10.11133-1.59375v4.31738a31.151,31.151,0,0,1-10.86524,1.65137q-9.35889,0-14.44336-5.67872-5.08447-5.67846-5.084-16.13818a25.46476,25.46476,0,0,1,2.44824-11.47363,17.57414,17.57414,0,0,1,7.06934-7.59082,21.39576,21.39576,0,0,1,10.8789-2.66553,26.25136,26.25136,0,0,1,11.64746,2.43359l-2.08593,4.23A22.45357,22.45357,0,0,0,157.66309,216.54Z"/><path class="cls-3" d="M203.64355,239.19727q0,7.76513-3.91113,12.125-3.91113,4.36157-10.80664,4.36084a14.31255,14.31255,0,0,1-7.5625-1.99952,13.1957,13.1957,0,0,1-5.09961-5.73632,19.99693,19.99693,0,0,1-1.7959-8.75q0-7.76441,3.88282-12.09668,3.88183-4.33082,10.77734-4.33155a13.43447,13.43447,0,0,1,10.58984,4.43311Q203.64356,231.63477,203.64355,239.19727Zm-24.19238,0q0,6.08423,2.4336,9.27148a9.65881,9.65881,0,0,0,14.32714.01416q2.44776-3.17213,2.44825-9.28564,0-6.05567-2.44825-9.19922-2.44774-3.14356-7.22851-3.14356-4.72266,0-7.12793,3.1001Q179.45019,233.05493,179.45117,239.19727Z"/><path class="cls-3" d="M233.80469,255.10352v-20.542q0-3.88257-1.76758-5.79492-1.76661-1.91235-5.5332-1.91211-4.98341,0-7.30176,2.69434-2.31738,2.69457-2.31738,8.895v16.65967H212.0752V223.34863h3.91113l.78222,4.34619H217a9.82425,9.82425,0,0,1,4.14355-3.63623A13.465,13.465,0,0,1,227.083,222.769q5.73633,0,8.63379,2.76709t2.89746,8.85157v20.71582Z"/><path class="cls-3" d="M262.80762,227.08643h-8.084v28.01709h-4.80957V227.08643h-5.67871v-2.17334l5.67871-1.73829v-1.76709q0-11.70556,10.22852-11.70556a21.05722,21.05722,0,0,1,5.91015,1.01416l-1.24609,3.85351a15.91954,15.91954,0,0,0-4.751-.89843,4.62837,4.62837,0,0,0-4.02734,1.811q-1.30518,1.81128-1.30469,5.80908v2.05713h8.084Z"/><path class="cls-3" d="M296.01074,239.19727q0,7.76513-3.91113,12.125-3.91113,4.36157-10.80664,4.36084a14.31252,14.31252,0,0,1-7.5625-1.99952,13.1957,13.1957,0,0,1-5.09961-5.73632,19.99679,19.99679,0,0,1-1.7959-8.75q0-7.76441,3.88281-12.09668,3.88184-4.33082,10.77735-4.33155a13.43448,13.43448,0,0,1,10.58984,4.43311Q296.01075,231.63477,296.01074,239.19727Zm-24.19238,0q0,6.08423,2.43359,9.27148a9.65882,9.65882,0,0,0,14.32715.01416q2.44776-3.17213,2.44824-9.28564,0-6.05567-2.44824-9.19922-2.44774-3.14356-7.22851-3.14356-4.72266,0-7.12793,3.1001Q271.81738,233.05493,271.81836,239.19727Z"/><path class="cls-3" d="M318.92871,222.769a18.85275,18.85275,0,0,1,3.7959.34766l-.667,4.46191a16.39692,16.39692,0,0,0-3.47657-.43457,8.46535,8.46535,0,0,0-6.59179,3.1294,11.40989,11.40989,0,0,0-2.73731,7.79394v17.03614h-4.80957V223.34863h3.96875l.55078,5.88184h.23145a13.95744,13.95744,0,0,1,4.25976-4.78076A9.58872,9.58872,0,0,1,318.92871,222.769Z"/><path class="cls-3" d="M369.13965,255.10352V234.44531q0-3.79467-1.62305-5.69287a6.27422,6.27422,0,0,0-5.041-1.898q-4.49121,0-6.63477,2.57862-2.14454,2.57885-2.14453,7.93847v17.73194h-4.80957V234.44531q0-3.79467-1.62207-5.69287-1.623-1.89771-5.07031-1.898-4.52052,0-6.62012,2.709-2.10206,2.70923-2.10059,8.88037v16.65967h-4.80957V223.34863h3.91114l.78222,4.34619h.23145a9.45355,9.45355,0,0,1,3.83886-3.62158,11.72665,11.72665,0,0,1,5.54883-1.3042q7.44581,0,9.73535,5.38916h.23145a10.13107,10.13107,0,0,1,4.11426-3.94043,12.77,12.77,0,0,1,6.14258-1.44873q5.38916,0,8.06933,2.76709,2.67919,2.76709,2.67969,8.85157v20.71582Z"/><path class="cls-3" d="M403.38574,255.10352l-.95605-4.52h-.23145a13.36256,13.36256,0,0,1-4.7373,4.042,14.43849,14.43849,0,0,1-5.89551,1.05762,10.60491,10.60491,0,0,1-7.40332-2.43409,8.87353,8.87353,0,0,1-2.67969-6.92431q0-9.6189,15.38477-10.083l5.38867-.17383v-1.97021q0-3.73755-1.60742-5.519-1.60841-1.782-5.14258-1.78222a20.95367,20.95367,0,0,0-8.98242,2.43408l-1.47754-3.67969a22.60486,22.60486,0,0,1,5.14258-1.999,22.27324,22.27324,0,0,1,5.60644-.72461q5.67919,0,8.417,2.52051,2.7378,2.521,2.73829,8.084v21.67188Zm-10.86426-3.38965a9.76071,9.76071,0,0,0,7.05469-2.46289,9.112,9.112,0,0,0,2.56445-6.89551v-2.86865l-4.80957.20263q-5.73779.20363-8.27246,1.78223a5.37233,5.37233,0,0,0-2.53515,4.91064,4.95505,4.95505,0,0,0,1.5791,3.96973A6.5529,6.5529,0,0,0,392.52148,251.71387Z"/><path class="cls-3" d="M438.58887,255.10352v-20.542q0-3.88257-1.76758-5.79492-1.76661-1.91235-5.5332-1.91211-4.98341,0-7.30176,2.69434-2.31738,2.69457-2.31738,8.895v16.65967h-4.80958V223.34863h3.91114l.78222,4.34619h.23145a9.82425,9.82425,0,0,1,4.14355-3.63623,13.465,13.465,0,0,1,5.93946-1.28955q5.73633,0,8.63379,2.76709t2.89746,8.85157v20.71582Z"/><path class="cls-3" d="M463.53418,251.71387a15.65534,15.65534,0,0,0,2.46289-.18848,15.94447,15.94447,0,0,0,1.88379-.39111V254.814a8.80137,8.80137,0,0,1-2.30371.62256,17.31092,17.31092,0,0,1-2.73828.24659q-9.2124,0-9.21289-9.70606V227.08643h-4.54883v-2.31788L453.626,222.769l2.02832-6.77978h2.78125v7.35937h9.21289v3.7378h-9.21289v18.6875a6.42764,6.42764,0,0,0,1.36132,4.40429A4.738,4.738,0,0,0,463.53418,251.71387Z"/><polygon class="cls-3" points="143.781 103.213 143.783 103.214 143.782 103.213 143.781 103.213"/><path class="cls-1" d="M381.58818,59.57407a1.61833,1.61833,0,0,0,.65225-1.44775V58.08a1.62152,1.62152,0,0,0-.74008-1.5356,4.731,4.731,0,0,0-2.36365-.44867h-1.013v3.87149h1.03148A5.41652,5.41652,0,0,0,381.58818,59.57407Z"/><path class="cls-1" d="M473.64063,59.42609a2.72576,2.72576,0,0,0,.31912-3.83913l-.333-.333a4.63393,4.63393,0,0,0-2.82617-.754H468.437v5.66623h2.39137A4.66032,4.66032,0,0,0,473.64063,59.42609Z"/><path class="cls-1" d="M461.348,59.52784a2.89731,2.89731,0,0,0,.20945-4.09207l-.00134-.00148a.26148.26148,0,0,1-.0324-.037l-.1434-.15728a4.01275,4.01275,0,0,0-2.64113-.78166l-2.82612.04159v5.79575h2.68272A4.20062,4.20062,0,0,0,461.348,59.52784Z"/><path class="cls-1" d="M336.28968,121.02359c-11.02579,0-17.61567,8.49088-17.61567,18.50256v.253c0,10.01167,7.22379,18.75626,17.86938,18.75626,11.02505,0,17.61493-8.49087,17.61493-18.50255v-.25371C354.1583,129.76781,346.93455,121.02359,336.28968,121.02359Z"/><polygon class="cls-1" points="398.878 57.212 396.514 63.008 401.228 63.008 398.878 57.212"/><path class="cls-1" d="M244.76005,60.47094a3.273,3.273,0,0,0,.17576-4.62082.67407.67407,0,0,0-.1619-.1619,4.32072,4.32072,0,0,0-2.89553-.88344H238.673v6.52191h3.01577A4.83817,4.83817,0,0,0,244.76005,60.47094Z"/><path class="cls-1" d="M520.42829,119.883c-7.98419,0-13.17976,5.70263-14.70056,14.44721h29.02092C533.60805,125.71248,528.539,119.883,520.42829,119.883Z"/><polygon class="cls-1" points="316.39 57.212 314.017 63.008 318.74 63.008 316.39 57.212"/><path class="cls-1" d="M220.70168,66.95028a7.36937,7.36937,0,0,0,10.21763,0,7.24576,7.24576,0,0,0,0-10.14359,7.37218,7.37218,0,0,0-10.21763,0,7.15509,7.15509,0,0,0-.02475,10.11878l.00627.00628Z"/><path class="cls-1" d="M492.45228,65.34294a6.46627,6.46627,0,0,0,0-9.07511,6.56,6.56,0,0,0-9.14455,0,6.40694,6.40694,0,0,0-.00051,9.06074l.00051.00049A6.25559,6.25559,0,0,0,487.887,67.17v.01388A6.20627,6.20627,0,0,0,492.45228,65.34294Z"/><path class="cls-3" d="M455.91314,61.267h2.75213a5.382,5.382,0,0,0,3.60785-1.04071,3.52058,3.52058,0,0,0,1.22112-2.82613,3.40664,3.40664,0,0,0-1.22112-2.7984,5.1858,5.1858,0,0,0-3.48761-1.03148h-3.98714V68.03866h1.11477Zm0-6.76706,2.82613-.04159a4.01278,4.01278,0,0,1,2.64112.78166l.14341.15728a.26085.26085,0,0,0,.0324.037,2.89728,2.89728,0,0,1-.20665,4.09221l-.00147.00134a4.20051,4.20051,0,0,1-2.75217.76785h-2.68272Z"/><path class="cls-3" d="M468.39533,61.12364h1.99821a3.6484,3.6484,0,0,1,2.05833.49489,9.42057,9.42057,0,0,1,1.95652,2.47924l2.52089,3.94089H478.266l-3.27481-5.00014a6.69488,6.69488,0,0,0-1.9288-2.2202,3.59369,3.59369,0,0,0,2.75212-3.5061,3.33955,3.33955,0,0,0-1.23036-2.72436,5.48663,5.48663,0,0,0-3.56621-1.0176h-3.69577l-.0416,14.49616h1.11472Zm.04164-6.6237h2.36357a4.63393,4.63393,0,0,1,2.82617.754l.333.333a2.72576,2.72576,0,0,1-.31912,3.83913,4.66024,4.66024,0,0,1-2.81229.74008H468.437Z"/><path class="cls-3" d="M493.32179,66.06449l.17581-.185c.02776-.03238.05548-.06011.08324-.08784a7.24959,7.24959,0,0,0-.25813-10.24918l-.00092-.00085a7.91224,7.91224,0,0,0-10.8559,0l-.14336.148-.00924.00464a7.33877,7.33877,0,0,0,.1526,10.37022A7.90594,7.90594,0,0,0,493.32179,66.06449Zm-10.01406-.73544a6.40692,6.40692,0,0,1-.00051-9.06073l.00051-.00049a6.56,6.56,0,0,1,9.14455,0,6.46626,6.46626,0,0,1,0,9.0751,6.20623,6.20623,0,0,1-4.56533,1.84093V67.17A6.25559,6.25559,0,0,1,483.30773,65.32905Z"/><path class="cls-3" d="M498.149,72.25845a2.89937,2.89937,0,0,0,2.13237-.91584,4.69027,4.69027,0,0,0,.89737-3.2748V53.57164H500.064V68.387c0,1.94268-.666,2.90012-2.03052,2.90012a3.47584,3.47584,0,0,1-.65225-.074l.1018,1.04537Q497.81606,72.27227,498.149,72.25845Z"/><polygon class="cls-3" points="514.164 67.097 507.24 67.097 507.24 61.227 513.831 61.227 513.831 60.283 507.24 60.283 507.24 54.501 514.007 54.501 514.007 53.572 506.121 53.572 506.121 68.036 514.164 68.036 514.164 67.097"/><path class="cls-3" d="M530.2256,54.6017v.00253c.01967.00942.04045.01572.06007.02523Z"/><path class="cls-3" d="M525.25318,68.24219a10.747,10.747,0,0,0,5.11577-1.35065V65.73517a10.92691,10.92691,0,0,1-5.14349,1.44777,6.38124,6.38124,0,0,1-4.65322-1.78541,6.13284,6.13284,0,0,1-1.81316-4.607,6.20857,6.20857,0,0,1,1.81316-4.57917,6.07648,6.07648,0,0,1,4.4913-1.84093,11.06831,11.06831,0,0,1,5.16206,1.44771V54.60423a12.151,12.151,0,0,0-5.0279-1.19125,7.54565,7.54565,0,0,0-5.35161,2.13233.531.531,0,0,1-.10181.10176l-.00441.00463h-.00023a7.4064,7.4064,0,0,0,.00464,10.472A7.58229,7.58229,0,0,0,525.25318,68.24219Z"/><polygon class="cls-3" points="538.065 68.036 539.198 68.036 539.198 54.501 544.619 54.501 544.619 53.572 532.63 53.572 532.63 54.501 538.065 54.501 538.065 68.036"/><polygon class="cls-3" points="304.464 69.052 304.464 53.024 300.07 53.024 295.13 59.038 290.204 53.024 285.823 53.024 285.823 69.052 290.518 69.052 290.518 59.763 294.885 65.139 295.273 65.139 299.621 59.763 299.621 69.052 304.464 69.052"/><path class="cls-3" d="M312.884,65.80642h6.9567l1.31824,3.24709h4.94462L319.10532,53.0217h-5.40718l-7.09082,16.03181H311.552Zm3.50618-8.59407L318.74,63.008h-4.72267Z"/><rect class="cls-3" x="328.24983" y="53.02487" width="4.82438" height="16.02716"/><polygon class="cls-3" points="341.917 60.124 350.234 69.052 354.526 69.052 354.526 53.024 349.711 53.024 349.711 61.905 341.422 53.024 337.134 53.024 337.134 69.052 341.917 69.052 341.917 60.124"/><polygon class="cls-3" points="363.384 62.559 370.035 62.559 370.035 59.344 363.384 59.344 363.384 56.24 370.035 56.24 370.035 53.021 358.555 53.021 358.555 69.052 363.384 69.052 363.384 62.559"/><path class="cls-3" d="M380.02478,62.95064a2.68943,2.68943,0,0,1,1.08236.92509A12.418,12.418,0,0,1,382.356,66.156l1.25813,2.89553h5.18977l-1.57728-3.50605a12.791,12.791,0,0,0-1.42005-2.47925,4.44909,4.44909,0,0,0-1.2766-1.07309,10.994,10.994,0,0,0,1.17484-.72621A3.75952,3.75952,0,0,0,386.69,60.0505a4.07662,4.07662,0,0,0,.46256-2.05832,5.06543,5.06543,0,0,0-.55049-2.20169,4.86741,4.86741,0,0,0-1.84092-1.95661,5.92518,5.92518,0,0,0-3.26093-.80944h-8.21938V69.01h4.84286V62.74716h.53656A3.92671,3.92671,0,0,1,380.02478,62.95064Zm-1.90109-6.85489h1.013a4.731,4.731,0,0,1,2.36365.44868,1.62148,1.62148,0,0,1,.74009,1.53559v.04631a1.61838,1.61838,0,0,1-.65225,1.44776,5.41669,5.41669,0,0,1-2.433.39316h-1.03148Z"/><path class="cls-3" d="M395.3859,65.80642h6.95662l1.30436,3.24709h4.94461L401.52843,53.0217h-5.347l-7.08613,16.03181h4.95849Zm3.49221-8.59407,2.34973,5.79565h-4.71329Z"/><polygon class="cls-3" points="415.414 59.763 419.795 65.139 420.169 65.139 424.536 59.763 424.536 69.052 429.36 69.052 429.36 53.024 424.984 53.024 420.026 59.038 415.114 53.024 410.719 53.024 410.719 69.052 415.414 69.052 415.414 59.763"/><polygon class="cls-3" points="445.492 65.819 438.244 65.819 438.244 62.4 444.97 62.4 444.97 59.167 438.244 59.167 438.244 56.239 445.289 56.239 445.289 53.024 433.406 53.024 433.406 69.052 445.492 69.052 445.492 65.819"/><path class="cls-3" d="M231.89063,67.75972l.20352-.19888a.14167.14167,0,0,1,.037-.037,8.17582,8.17582,0,0,0-.24052-11.559,8.30713,8.30713,0,0,0-6.07318-2.40522v.04163a8.34414,8.34414,0,0,0-6.0455,2.40523l-.15723.1619a8.2013,8.2013,0,0,0,.15723,11.59135A8.83813,8.83813,0,0,0,231.89063,67.75972Zm-11.18895-10.953a7.37216,7.37216,0,0,1,10.21763,0,7.24575,7.24575,0,0,1,0,10.14358,7.36935,7.36935,0,0,1-10.21763,0l-.01848-.01852a7.15507,7.15507,0,0,1,.0122-10.11879l.00628-.00626Z"/><path class="cls-3" d="M238.599,62.372h3.08974a6.06389,6.06389,0,0,0,4.01494-1.17484,4.22665,4.22665,0,0,0,.08783-6.29063,5.99452,5.99452,0,0,0-3.91313-1.14712h-4.45426L237.35471,69.893H238.599Zm.074-7.56722h3.20541a4.32062,4.32062,0,0,1,2.89552.88344.67357.67357,0,0,1,.16191.1619,3.273,3.273,0,0,1-.17576,4.62081,4.83821,4.83821,0,0,1-3.07134.85573h-3.01576Z"/><polygon class="cls-3" points="258.546 68.878 250.789 68.878 250.789 62.314 258.157 62.314 258.157 61.269 250.789 61.269 250.789 54.807 258.356 54.807 258.356 53.762 249.545 53.762 249.545 69.923 258.546 69.923 258.546 68.878"/><polygon class="cls-3" points="262.36 55.787 274.632 69.923 275.663 69.923 275.663 53.762 274.414 53.762 274.414 67.878 262.17 53.762 261.112 53.762 261.112 69.923 262.36 69.923 262.36 55.787"/><polygon class="cls-3" points="217.29 102.014 264.56 102.014 215.769 158.789 215.769 173.616 289.653 173.616 289.653 156.508 240.862 156.508 289.653 99.733 289.653 84.906 217.29 84.906 217.29 102.014"/><path class="cls-3" d="M336.54337,104.422c-21.16395,0-36.87862,15.84117-36.87862,35.35709v.25371c0,19.51667,15.58745,35.10411,36.62491,35.10411,21.16394,0,36.87788-15.84116,36.87788-35.35782v-.253C373.16756,120.00948,357.58009,104.422,336.54337,104.422Zm17.61493,35.61081c0,10.01168-6.58991,18.50255-17.61493,18.50255-10.64559,0-17.86938-8.74459-17.86938-18.75626v-.253c0-10.01168,6.5899-18.50255,17.61567-18.50255,10.64485,0,17.86864,8.74422,17.86864,18.75553Z"/><polygon class="cls-3" points="451.233 147.003 438.307 105.436 421.705 105.436 408.906 146.876 398.007 105.689 378.49 105.689 399.401 174.123 416.636 174.123 429.942 132.429 442.995 174.123 460.357 174.123 481.522 105.689 462.385 105.689 451.233 147.003"/><path class="cls-3" d="M553.50491,141.29992c0-19.26259-10.39187-36.87789-33.07662-36.87789-19.76964,0-33.58331,15.96766-33.58331,35.35709v.25371c0,20.78375,15.08076,35.10411,35.48431,35.10411,12.29287,0,21.41692-4.81611,27.75383-12.67308l-11.02579-9.758c-5.32279,4.9426-10.01167,6.97008-16.47438,6.97008-8.6181,0-14.70129-4.56239-16.60155-13.307h47.26976C553.37769,144.59522,553.50491,142.82073,553.50491,141.29992Zm-47.77718-6.96972c1.5208-8.74458,6.71637-14.44721,14.70056-14.44721,8.11068,0,13.17976,5.82949,14.32036,14.44721Z"/><path class="cls-3" d="M130.9053,44,40,106.6922l62.6922,90.90531,90.90531-62.69221ZM105.89219,156.98517l6.33988-59.48829L81.13381,118.9436,73.372,107.68875l47.606-32.83119,6.727,9.75426-6.33936,59.488,32.0985-22.13653,7.7622,11.25536-48.60679,33.52131Z"/><g class="cls-7"><g class="cls-5"><path class="cls-6" d="M356.94143,334-10,587.05857,243.05857,954,610,700.94143ZM255.9754,790.06735l25.59106-240.12593L156.0376,636.51161,170,599l-45.2933-7.91884L316.86955,458.55727,344.023,497.93056l-25.589,240.12454,129.56639-89.35461L479.33274,694.133,283.13027,829.44256Z"/></g></g></svg>