<?xml version="1.0" encoding="utf-8"?>
<!-- Generator: Adobe Illustrator 23.1.1, SVG Export Plug-In . SVG Version: 6.00 Build 0)  -->
<svg version="1.1" id="Layer_1" xmlns="http://www.w3.org/2000/svg" xmlns:xlink="http://www.w3.org/1999/xlink" x="0px" y="0px"
	 viewBox="0 0 600 313.9" style="enable-background:new 0 0 600 313.9;" xml:space="preserve">
<style type="text/css">
	.st0{fill:#FFFFFF;}
	.st1{fill:#488EFF;}
	.st2{opacity:0.9;fill:#FFFFFF;}
	.st3{clip-path:url(#SVGID_2_);fill:#3274F9;}
	.st4{clip-path:url(#SVGID_4_);fill:#3274F9;}
	.st5{clip-path:url(#SVGID_6_);fill:#3274F9;}
	.st6{clip-path:url(#SVGID_8_);fill:#3274F9;}
	.st7{fill:#231F20;}
	.st8{opacity:0.9;fill:#231F20;}
</style>
<path class="st1" d="M600,316.3H0v-253C0,28.4,28.4,0,63.3,0h473.3c35,0,63.3,28.4,63.3,63.3V316.3z"/>
<g>
	<defs>
		<path id="SVGID_1_" d="M600,316.3H0v-253C0,28.4,28.4,0,63.3,0h473.3c35,0,63.3,28.4,63.3,63.3V316.3z"/>
	</defs>
	<clipPath id="SVGID_2_">
		<use xlink:href="#SVGID_1_"  style="overflow:visible;"/>
	</clipPath>
	<path class="st3" d="M592.8,322.8l-299,209.4c-7,4.9-16.1,5.3-23.5,1.1c-7.4-4.2-11.7-12.3-11-20.8l33.3-431.7L48.3,269.8
		l199.9,267.5c7,10,4.6,23.7-5.4,30.7s-23.7,4.6-30.7-5.4L-0.4,259.1c-7-10-4.6-23.7,5.4-30.7L305.5,18c7-4.9,16.1-5.3,23.5-1.1
		c7.4,4.2,11.7,12.3,11,20.8l-33.3,431.7l244.3-171.1l-198.8-284c-7-10-4.6-23.7,5.4-30.7c10-7,23.7-4.6,30.7,5.4l210.4,300.5
		c3.8,5.4,4.8,11.8,3.4,17.7C601.4,313.4,598.2,319.1,592.8,322.8z"/>
</g>
<g>
	<g>
		<path class="st0" d="M258.1,149.7H305v12.8h-65v-10.1l43.6-60.2h-41.4V79.4h60.3v9.5L258.1,149.7z"/>
		<path class="st0" d="M379.4,131.4c0,22.9-15.4,32.9-31.4,32.9c-16,0-31.4-10-31.4-32.9c0-22.9,15.4-32.9,31.4-32.9
			C364,98.5,379.4,108.5,379.4,131.4z M331.1,131.4c0,12.9,6.4,20.3,16.8,20.3c10.5,0,16.8-7.5,16.8-20.3c0-12.8-6.4-20.3-16.8-20.3
			C337.6,111.1,331.1,118.5,331.1,131.4z"/>
		<path class="st0" d="M452.2,162.5h-9.4l-14.2-41.4l-15.1,41.4h-9.4l-20.2-62.2H398l12.1,43.3l14.4-43.3h9.3l14,43.8l12.9-43.8
			h13.8L452.2,162.5z"/>
		<path class="st0" d="M536.9,128c0,2.7-0.2,5.8-0.7,8.4h-42.7c1.7,11.9,8.5,16.3,17.7,16.3c7.4,0,13.4-2.7,17.7-6.3l5.9,9.3
			c-6.4,5.4-14.6,8.7-25.8,8.7c-16.3,0-30-10.5-30-32.6c0-20.3,12-33.2,29.5-33.2C527.8,98.5,536.9,113,536.9,128L536.9,128z
			 M523.8,126.7c-0.4-10.3-6-16.9-14.8-16.9c-8.7,0-14.7,5.4-15.7,16.9H523.8z"/>
	</g>
	<g>
		<g>
			<g>
				<path class="st0" d="M191.4,137.1l-64.3,45c-1.5,1-3.5,1.1-5.1,0.2c-1.6-0.9-2.5-2.6-2.4-4.5l7.2-92.8l-52.5,36.8l43,61.3
					c1.5,2.1,1,5.1-1.2,6.6c-2.1,1.5-5.1,1-6.6-1.2l-45.7-65.2c-1.5-2.1-1-5.1,1.2-6.6l64.6-45.2c1.5-1,3.5-1.1,5.1-0.2
					c1.6,0.9,2.5,2.6,2.4,4.5l-7.2,92.8l52.5-36.8l-42.7-61c-1.5-2.1-1-5.1,1.2-6.6s5.1-1,6.6,1.2l45.2,64.6c0.8,1.2,1,2.5,0.7,3.8
					C193.2,135.1,192.5,136.3,191.4,137.1z"/>
			</g>
		</g>
	</g>
</g>
<g>
	<path class="st0" d="M156.3,216.5c-4.7,0-8.3,1.5-11,4.7c-2.7,3.1-4,7.3-4,12.7c0,5.5,1.3,9.8,3.9,12.8c2.6,3,6.3,4.5,11.1,4.5
		c3,0,6.3-0.5,10.1-1.6v4.3c-2.9,1.1-6.6,1.7-10.9,1.7c-6.2,0-11.1-1.9-14.4-5.7c-3.4-3.8-5.1-9.2-5.1-16.1c0-4.4,0.8-8.2,2.4-11.5
		c1.6-3.3,4-5.8,7.1-7.6c3.1-1.8,6.7-2.7,10.9-2.7c4.4,0,8.3,0.8,11.6,2.4l-2.1,4.2C162.7,217.3,159.5,216.5,156.3,216.5z"/>
	<path class="st0" d="M202.2,239.2c0,5.2-1.3,9.2-3.9,12.1s-6.2,4.4-10.8,4.4c-2.8,0-5.4-0.7-7.6-2s-3.9-3.2-5.1-5.7
		c-1.2-2.5-1.8-5.4-1.8-8.8c0-5.2,1.3-9.2,3.9-12.1c2.6-2.9,6.2-4.3,10.8-4.3c4.4,0,8,1.5,10.6,4.4S202.2,234.2,202.2,239.2z
		 M178,239.2c0,4.1,0.8,7.1,2.4,9.3c1.6,2.1,4,3.2,7.2,3.2s5.5-1.1,7.2-3.2c1.6-2.1,2.4-5.2,2.4-9.3c0-4-0.8-7.1-2.4-9.2
		s-4-3.1-7.2-3.1c-3.1,0-5.5,1-7.1,3.1C178.8,232,178,235.1,178,239.2z"/>
	<path class="st0" d="M232.4,255.1v-20.5c0-2.6-0.6-4.5-1.8-5.8c-1.2-1.3-3-1.9-5.5-1.9c-3.3,0-5.8,0.9-7.3,2.7
		c-1.5,1.8-2.3,4.8-2.3,8.9v16.7h-4.8v-31.8h3.9l0.8,4.3h0.2c1-1.6,2.4-2.8,4.1-3.6s3.8-1.3,5.9-1.3c3.8,0,6.7,0.9,8.6,2.8
		s2.9,4.8,2.9,8.9v20.7H232.4z"/>
	<path class="st0" d="M261.4,227.1h-8.1v28h-4.8v-28h-5.7v-2.2l5.7-1.7v-1.8c0-7.8,3.4-11.7,10.2-11.7c1.7,0,3.7,0.3,5.9,1l-1.2,3.9
		c-1.9-0.6-3.4-0.9-4.8-0.9c-1.8,0-3.2,0.6-4,1.8c-0.9,1.2-1.3,3.1-1.3,5.8v2.1h8.1V227.1z"/>
	<path class="st0" d="M294.6,239.2c0,5.2-1.3,9.2-3.9,12.1s-6.2,4.4-10.8,4.4c-2.8,0-5.4-0.7-7.6-2s-3.9-3.2-5.1-5.7
		c-1.2-2.5-1.8-5.4-1.8-8.8c0-5.2,1.3-9.2,3.9-12.1c2.6-2.9,6.2-4.3,10.8-4.3c4.4,0,8,1.5,10.6,4.4S294.6,234.2,294.6,239.2z
		 M270.4,239.2c0,4.1,0.8,7.1,2.4,9.3c1.6,2.1,4,3.2,7.2,3.2s5.5-1.1,7.2-3.2c1.6-2.1,2.4-5.2,2.4-9.3c0-4-0.8-7.1-2.4-9.2
		s-4-3.1-7.2-3.1c-3.1,0-5.5,1-7.1,3.1C271.2,232,270.4,235.1,270.4,239.2z"/>
	<path class="st0" d="M317.5,222.8c1.4,0,2.7,0.1,3.8,0.3l-0.7,4.5c-1.3-0.3-2.5-0.4-3.5-0.4c-2.6,0-4.8,1-6.6,3.1
		c-1.8,2.1-2.7,4.7-2.7,7.8v17H303v-31.8h4l0.6,5.9h0.2c1.2-2.1,2.6-3.7,4.3-4.8C313.7,223.3,315.5,222.8,317.5,222.8z"/>
	<path class="st0" d="M367.7,255.1v-20.7c0-2.5-0.5-4.4-1.6-5.7c-1.1-1.3-2.8-1.9-5-1.9c-3,0-5.2,0.9-6.6,2.6
		c-1.4,1.7-2.1,4.4-2.1,7.9v17.7h-4.8v-20.7c0-2.5-0.5-4.4-1.6-5.7c-1.1-1.3-2.8-1.9-5.1-1.9c-3,0-5.2,0.9-6.6,2.7
		c-1.4,1.8-2.1,4.8-2.1,8.9v16.7h-4.8v-31.8h3.9l0.8,4.3h0.2c0.9-1.5,2.2-2.8,3.8-3.6c1.7-0.9,3.5-1.3,5.5-1.3c5,0,8.2,1.8,9.7,5.4
		h0.2c0.9-1.7,2.3-3,4.1-3.9s3.8-1.4,6.1-1.4c3.6,0,6.3,0.9,8.1,2.8c1.8,1.8,2.7,4.8,2.7,8.9v20.7H367.7z"/>
	<path class="st0" d="M402,255.1l-1-4.5h-0.2c-1.6,2-3.2,3.3-4.7,4s-3.5,1.1-5.9,1.1c-3.1,0-5.6-0.8-7.4-2.4
		c-1.8-1.6-2.7-3.9-2.7-6.9c0-6.4,5.1-9.8,15.4-10.1l5.4-0.2v-2c0-2.5-0.5-4.3-1.6-5.5c-1.1-1.2-2.8-1.8-5.1-1.8
		c-2.6,0-5.6,0.8-9,2.4l-1.5-3.7c1.6-0.8,3.3-1.5,5.1-2c1.9-0.5,3.7-0.7,5.6-0.7c3.8,0,6.6,0.8,8.4,2.5s2.7,4.4,2.7,8.1v21.7H402z
		 M391.1,251.7c3,0,5.3-0.8,7.1-2.5s2.6-3.9,2.6-6.9v-2.9l-4.8,0.2c-3.8,0.1-6.6,0.7-8.3,1.8s-2.5,2.7-2.5,4.9c0,1.7,0.5,3.1,1.6,4
		C387.7,251.3,389.2,251.7,391.1,251.7z"/>
	<path class="st0" d="M437.2,255.1v-20.5c0-2.6-0.6-4.5-1.8-5.8c-1.2-1.3-3-1.9-5.5-1.9c-3.3,0-5.8,0.9-7.3,2.7
		c-1.5,1.8-2.3,4.8-2.3,8.9v16.7h-4.8v-31.8h3.9l0.8,4.3h0.2c1-1.6,2.4-2.8,4.1-3.6s3.8-1.3,5.9-1.3c3.8,0,6.7,0.9,8.6,2.8
		s2.9,4.8,2.9,8.9v20.7H437.2z"/>
	<path class="st0" d="M462.1,251.7c0.9,0,1.7-0.1,2.5-0.2s1.4-0.3,1.9-0.4v3.7c-0.5,0.3-1.3,0.5-2.3,0.6s-1.9,0.2-2.7,0.2
		c-6.1,0-9.2-3.2-9.2-9.7v-18.9h-4.5v-2.3l4.5-2l2-6.8h2.8v7.4h9.2v3.7H457v18.7c0,1.9,0.5,3.4,1.4,4.4
		C459.3,251.2,460.5,251.7,462.1,251.7z"/>
</g>
<g>
	<defs>
		<path id="SVGID_7_" d="M600-239.6H0v-253c0-35,28.4-63.3,63.3-63.3h473.3c35,0,63.3,28.4,63.3,63.3V-239.6z"/>
	</defs>
	<clipPath id="SVGID_4_">
		<use xlink:href="#SVGID_7_"  style="overflow:visible;"/>
	</clipPath>
	<path class="st4" d="M592.8-233.1l-299,209.4c-7,4.9-16.1,5.3-23.5,1.1c-7.4-4.2-11.7-12.3-11-20.8l33.3-431.7L48.3-286.1
		L248.2-18.6c7,10,4.6,23.7-5.4,30.7s-23.7,4.6-30.7-5.4L-0.4-296.8c-7-10-4.6-23.7,5.4-30.7l300.5-210.4c7-4.9,16.1-5.3,23.5-1.1
		c7.4,4.2,11.7,12.3,11,20.8L306.8-86.5l244.3-171.1l-198.8-284c-7-10-4.6-23.7,5.4-30.7c10-7,23.7-4.6,30.7,5.4l210.4,300.5
		c3.8,5.4,4.8,11.8,3.4,17.7C601.4-242.5,598.2-236.8,592.8-233.1z"/>
</g>
</svg>
