<svg id="Layer_1" data-name="Layer 1" xmlns="http://www.w3.org/2000/svg" xmlns:xlink="http://www.w3.org/1999/xlink" viewBox="0 0 600 443.91"><defs><style>.cls-1{fill:none;}.cls-2{clip-path:url(#clip-path);}.cls-3{fill:#3274f9;}.cls-4,.cls-7{fill:#fff;}.cls-5,.cls-8{fill:#488eff;}.cls-6{clip-path:url(#clip-path-2);}.cls-7{font-size:59.34px;font-family:OpenSans, Open Sans;}.cls-8{font-size:30px;font-family:OpenSans-Bold, Open Sans;font-weight:700;letter-spacing:0.12em;}</style><clipPath id="clip-path"><path class="cls-1" d="M63.35-482.23H536.65A63.35,63.35,0,0,1,600-418.89v253a0,0,0,0,1,0,0H0a0,0,0,0,1,0,0v-253A63.35,63.35,0,0,1,63.35-482.23Z"/></clipPath><clipPath id="clip-path-2"><path class="cls-1" d="M63.35,0H536.65A63.35,63.35,0,0,1,600,63.35v253a0,0,0,0,1,0,0H0a0,0,0,0,1,0,0v-253A63.35,63.35,0,0,1,63.35,0Z"/></clipPath></defs><title>Zowe_ConformanceBadge</title><g class="cls-2"><path class="cls-3" d="M592.85-159.39,293.86,50a22,22,0,0,1-34.57-19.72l33.32-431.7L48.3-212.39,248.18,55.07a22,22,0,1,1-36.06,25.25L-.38-223.17A22,22,0,0,1,5-253.83l300.49-210.4A22,22,0,0,1,329-465.32a22,22,0,0,1,11,20.81L306.76-12.81,551.07-183.88l-198.83-284a22,22,0,0,1,5.41-30.66,22,22,0,0,1,30.65,5.41L598.7-192.6a21.93,21.93,0,0,1,3.39,17.71A22,22,0,0,1,592.85-159.39Z"/></g><rect class="cls-4" x="1.8" y="334.83" width="596.4" height="107.37"/><path class="cls-5" d="M596.4,336.63V440.4H3.6V336.63H596.4M600,333H0V444H600V333Z"/><path class="cls-5" d="M63.35,0H536.65A63.35,63.35,0,0,1,600,63.35v253a0,0,0,0,1,0,0H0a0,0,0,0,1,0,0v-253A63.35,63.35,0,0,1,63.35,0Z"/><g class="cls-6"><path class="cls-3" d="M592.85,322.84l-299,209.35a22,22,0,0,1-34.57-19.72l33.32-431.7L48.3,269.84,248.18,537.31a22,22,0,1,1-36.06,25.24L-.38,259.06A22,22,0,0,1,5,228.41L305.51,18a22,22,0,0,1,34.57,19.72l-33.32,431.7L551.07,298.35l-198.83-284A22,22,0,1,1,388.3-10.86L598.7,289.63a25.37,25.37,0,0,1-5.85,33.21Z"/></g><path class="cls-4" d="M258.14,149.68h46.91V162.5h-65V152.43l43.65-60.2H242.36V79.4h60.26v9.53Z"/><path class="cls-4" d="M379.38,131.4c0,22.9-15.35,32.86-31.39,32.86s-31.38-10-31.38-32.86S332,98.54,348,98.54,379.38,108.49,379.38,131.4Zm-48.23,0c0,12.91,6.41,20.26,16.84,20.26s16.85-7.48,16.85-20.26-6.35-20.27-16.85-20.27S331.15,118.49,331.15,131.4Z"/><path class="cls-4" d="M452.19,162.5h-9.4l-14.24-41.44L413.5,162.5h-9.41l-20.18-62.2H398l12.06,43.29,14.4-43.29h9.32l14,43.8,12.88-43.8h13.79Z"/><path class="cls-4" d="M537,128a44.55,44.55,0,0,1-.75,8.37H493.52c1.7,11.87,8.54,16.26,17.74,16.26a27.54,27.54,0,0,0,17.7-6.3l5.93,9.26c-6.43,5.44-14.63,8.7-25.76,8.7-16.28,0-30-10.49-30-32.56,0-20.25,11.95-33.16,29.52-33.16C527.76,98.54,537,113,537,128Zm-13.11-1.23c-.42-10.34-6-16.93-14.83-16.93s-14.68,5.35-15.73,16.93Z"/><path class="cls-4" d="M191.4,137.12l-64.26,45a4.72,4.72,0,0,1-7.42-4.23l7.16-92.78L74.37,121.87l43,61.34a4.73,4.73,0,1,1-7.75,5.43L63.91,123.42a4.73,4.73,0,0,1,1.16-6.59l64.58-45.22a4.73,4.73,0,0,1,7.43,4.24l-7.16,92.77,52.5-36.76-42.73-61a4.73,4.73,0,0,1,7.75-5.43L192.66,130a4.75,4.75,0,0,1,.72,3.81A4.69,4.69,0,0,1,191.4,137.12Z"/><text class="cls-7" transform="translate(132.29 255.1)">Conformant</text><text class="cls-8" transform="translate(85.72 398.95)">APP FRAMEWORK - 2019</text></svg>