<?xml version="1.0" encoding="UTF-8"?><svg xmlns="http://www.w3.org/2000/svg" xmlns:xlink="http://www.w3.org/1999/xlink" viewBox="0 0 624.23506 469.28291"><defs><style>.cls-1{fill:#333;}.cls-1,.cls-2,.cls-3,.cls-4,.cls-5,.cls-6,.cls-7,.cls-8{stroke-width:0px;}.cls-2{fill:#2a7de1;}.cls-9{clip-path:url(#clippath);}.cls-3{fill:none;}.cls-4{opacity:.7;}.cls-4,.cls-8{fill:#fff;}.cls-5{fill:#0033a1;}.cls-10{mix-blend-mode:multiply;}.cls-11,.cls-7{fill:#07265f;}.cls-12{clip-path:url(#clippath-1);}.cls-13{clip-path:url(#clippath-3);}.cls-14{clip-path:url(#clippath-2);}.cls-6{fill:#488eff;}.cls-15{opacity:.9;}.cls-16{isolation:isolate;}</style><clipPath id="clippath"><path class="cls-7" d="M75.30404,7.3774h473.30893c34.98474,0,63.34552,28.36076,63.34552,63.34553v271.41871H11.95849V70.72293c0-34.98477,28.36076-63.34553,63.34553-63.34553h.00002Z"/></clipPath><clipPath id="clippath-1"><path class="cls-3" d="M-583.11408,7.33482H-109.80515c34.98474,0,63.34552,28.36076,63.34552,63.34553v271.41871h-600V70.68035c0-34.98477,28.36076-63.34553,63.34553-63.34553h.00002Z"/></clipPath><clipPath id="clippath-2"><path class="cls-3" d="M74.20224,7.33482h473.30893c34.98474,0,63.34552,28.36076,63.34552,63.34553v271.41871H10.85669V70.68035c0-34.98477,28.36076-63.34553,63.34553-63.34553h.00002Z"/></clipPath><clipPath id="clippath-3"><path class="cls-3" d="M741.68325,7.33482h473.30893c34.98474,0,63.34552,28.36076,63.34552,63.34553v271.41871h-600V70.68035c0-34.98477,28.36076-63.34553,63.34553-63.34553h.00002Z"/></clipPath></defs><g class="cls-16"><g id="Layer_1"><path class="cls-6" d="M611.95849,342.14164H11.95849V70.72293c0-34.98477,28.36076-63.34553,63.34553-63.34553h.00002s473.30893,0,473.30893,0c34.98474,0,63.34552,28.36076,63.34552,63.34553"/><path class="cls-6" d="M607.25659,355.91258v103.77036H14.45681v-103.77036h592.79978M610.85669,352.31258H10.85669v110.97034h600v-110.97034Z"/><path class="cls-11" d="M75.30404,7.3774h473.30893c34.98474,0,63.34552,28.36076,63.34552,63.34553v271.41871H11.95849V70.72293c0-34.98477,28.36076-63.34553,63.34553-63.34553h.00002Z"/><g class="cls-9"><g class="cls-15"><path class="cls-7" d="M367.48733-133.6226L.5459,119.43597l253.05856,366.94143,366.94144-253.05856-253.05856-366.94144ZM266.5213,322.44475l25.59106-240.12593-125.52887,86.57019,13.9624-37.51161-45.2933-7.91884L327.41543-9.06533l27.15347,39.37329-25.58899,240.12456,129.56641-89.35461,31.33231,45.4325-196.20245,135.30957-27.15488-39.37521Z"/></g></g><g class="cls-10"><path class="cls-1" d="M265.79005,438.89735h-15.46542v-2.85683l9.96503-14.28592h-9.6952v-3.63864h14.92575v2.84269l-9.94971,14.30006h10.21955v3.63864Z"/><path class="cls-1" d="M284.65963,430.92308c0,1.32679-.17793,2.50157-.53378,3.52494-.35467,1.02337-.87195,1.88825-1.54949,2.59407-.67753.7064-1.49175,1.23959-2.44501,1.59957-.95208.35998-2.02553.54026-3.21916.54026-1.11822,0-2.14454-.18028-3.07777-.54026s-1.74391-.89316-2.43087-1.59957c-.68696-.70581-1.2172-1.5707-1.59191-2.59407-.37353-1.02337-.56088-2.19815-.56088-3.52494,0-1.76276.31225-3.2551.93794-4.47761s1.51649-2.15102,2.67242-2.78613c1.15593-.63452,2.53456-.95208,4.13589-.95208,1.48821,0,2.80793.31756,3.95915.95208,1.15122.63511,2.05616,1.56363,2.71484,2.78613s.98861,2.71484.98861,4.47761ZM273.67182,430.92308c0,1.04222.11312,1.91889.34053,2.62942.22742.71111.58327,1.24666,1.06638,1.60664s1.11351.53967,1.89002.53967c.76826,0,1.39041-.17969,1.86999-.53967.4784-.35998.82836-.89552,1.05106-1.60664.2227-.71053.33464-1.58719.33464-2.62942,0-1.05224-.11194-1.92596-.33464-2.62293-.2227-.69639-.57502-1.21956-1.05813-1.5707-.48429-.34996-1.11469-.52553-1.8912-.52553-1.1465,0-1.97839.39297-2.4945,1.1795-.5161.78712-.77415,1.96661-.77415,3.53967Z"/><path class="cls-1" d="M302.75859,438.89735l-1.22192-5.55812c-.06599-.33111-.17557-.82188-.32639-1.47113-.152-.64866-.31579-1.34505-.49136-2.08916s-.33582-1.43342-.48311-2.06854c-.14729-.63452-.25334-1.09937-.31932-1.39277h-.12844c-.06599.2934-.17086.75825-.31225,1.39277-.14258.63511-.30165,1.32679-.47604,2.07561-.17557.74823-.33936,1.45228-.49136,2.11096-.15082.65868-.26512,1.15829-.34053,1.49941l-1.27965,5.50098h-4.6626l-4.52003-15.89197h4.32207l1.83346,7.03632c.12255.49254.24156,1.07816.35467,1.75569.1143.67753.21563,1.3315.30636,1.96131.08955.6304.15789,1.13001.20621,1.5h.11312c.01885-.27514.05892-.63983.12137-1.09466.06127-.45483.13197-.92616.21328-1.41457.08013-.48782.15554-.92851.22742-1.32207.0707-.39297.1249-.66104.16261-.80302l1.9619-7.619h4.77572l1.86292,7.619c.06599.27514.15318.71111.26276,1.30793.10841.59682.20621,1.21072.29104,1.84053.08602.6304.13315,1.12529.14258,1.48586h.11312c.03771-.32227.10487-.80067.19914-1.43578.09544-.63511.20621-1.30086.33464-1.99725.12726-.69639.25805-1.29144.39002-1.78397l1.90534-7.03632h4.25019l-4.57776,15.89197h-4.71916Z"/><path class="cls-1" d="M322.62266,422.70727c1.46936,0,2.73487.28162,3.79536.84544,1.06166.56382,1.88177,1.38158,2.45915,2.45208.57855,1.07109.86724,2.37843.86724,3.92321v2.10389h-10.24901c.04831,1.2225.41477,2.18165,1.10173,2.87804.68696.69697,1.64257,1.04517,2.86449,1.04517,1.01453,0,1.94305-.10428,2.78672-.31284.8425-.20856,1.70974-.52082,2.60055-.93794v3.35467c-.78594.38826-1.6084.67282-2.46622.85251s-1.89709.27042-3.12018.27042c-1.59191,0-3.00117-.29399-4.22898-.88138-1.22663-.58739-2.18814-1.48291-2.8857-2.68656-.69639-1.20365-1.04399-2.71956-1.04399-4.54889,0-1.85703.31461-3.40416.94501-4.6408s1.50942-2.16575,2.63707-2.78613,2.4403-.93087,3.93676-.93087ZM322.65212,425.79151c-.84368,0-1.54242.26983-2.09741.81009-.55381.54026-.87431,1.38865-.95915,2.54458h6.08365c-.00943-.64454-.12608-1.21779-.34878-1.71975-.2227-.50255-.55381-.90023-.9945-1.19422-.44069-.2934-1.00157-.44069-1.68382-.44069Z"/><path class="cls-1" d="M347.52404,438.89735l-6.05537-15.89197h4.53417l3.0707,9.05478c.17086.53083.30518,1.08994.40534,1.67733.09898.58739.16732,1.11351.20621,1.57777h.11312c.02828-.50196.0978-1.03751.20621-1.60605s.25334-1.11822.43362-1.64906l3.05656-9.05478h4.53417l-6.05537,15.89197h-4.44933Z"/><path class="cls-1" d="M374.36611,422.76382c0,.95738-.19796,1.78633-.59623,2.48743-.39827.70169-.93676,1.27494-1.61312,1.72034-.67871.4454-1.43873.77239-2.2824.98036v.08543c1.6685.20856,2.93519.72054,3.80243,1.53535s1.30086,1.90475,1.30086,3.26924c0,1.21308-.29576,2.29831-.88845,3.2551-.59269.95738-1.50471,1.71092-2.73605,2.26001-1.23252.54969-2.81971.82482-4.76158.82482-1.1465,0-2.21524-.0925-3.2062-.27749-.98979-.185-1.92066-.46661-2.79261-.84544v-3.7388c.89081.45483,1.82404.79831,2.79968,1.03044.97683.23272,1.88649.34819,2.73016.34819,1.57305,0,2.6736-.27219,3.304-.81716s.94619-1.3097.94619-2.29536c0-.57796-.14729-1.06638-.44069-1.46406-.29458-.39827-.80361-.70169-1.52828-.91025-.72467-.20797-1.73684-.31225-3.03535-.31225h-1.57777v-3.36881h1.60605c1.27965,0,2.25294-.12078,2.92105-.36292.66811-.24156,1.12294-.57325,1.36567-.9945.24156-.42184.36174-.90318.36174-1.44285,0-.73939-.22742-1.31736-.68225-1.73448-.45483-.41654-1.21249-.6251-2.27415-.6251-.66339,0-1.26787.08307-1.81225.24862-.54556.16555-1.03574.36469-1.47172.59682s-.81893.45719-1.15122.67518l-2.0326-3.02769c.8154-.58739,1.76983-1.07521,2.86449-1.46406,1.09466-.38826,2.40023-.58268,3.91555-.58268,2.14218,0,3.83778.43126,5.08915,1.2932,1.25137.86253,1.87588,2.08032,1.87588,3.65337Z"/></g><path class="cls-6" d="M264.48693,437.59422h-15.46542v-2.85683l9.96503-14.28592h-9.6952v-3.63864h14.92575v2.84269l-9.94971,14.30006h10.21955v3.63864Z"/><path class="cls-6" d="M283.3565,429.61996c0,1.32679-.17793,2.50157-.53378,3.52494-.35467,1.02337-.87195,1.88825-1.54949,2.59407-.67753.7064-1.49175,1.23959-2.44501,1.59957-.95208.35998-2.02553.54026-3.21916.54026-1.11822,0-2.14454-.18028-3.07777-.54026s-1.74391-.89316-2.43087-1.59957c-.68696-.70581-1.2172-1.5707-1.59191-2.59407-.37353-1.02337-.56088-2.19815-.56088-3.52494,0-1.76276.31225-3.2551.93794-4.47761.62569-1.2225,1.51649-2.15102,2.67242-2.78613,1.15593-.63452,2.53456-.95208,4.13589-.95208,1.48821,0,2.80793.31756,3.95915.95208,1.15122.63511,2.05616,1.56363,2.71484,2.78613s.98861,2.71484.98861,4.47761ZM272.36869,429.61996c0,1.04222.11312,1.91889.34053,2.62942.22742.71111.58327,1.24666,1.06638,1.60664s1.11351.53967,1.89002.53967c.76826,0,1.39041-.17969,1.86999-.53967.4784-.35998.82836-.89552,1.05106-1.60664.2227-.71053.33464-1.58719.33464-2.62942,0-1.05224-.11194-1.92596-.33464-2.62293-.2227-.69639-.57502-1.21956-1.05813-1.5707-.48429-.34996-1.11469-.52553-1.8912-.52553-1.1465,0-1.97839.39297-2.4945,1.1795-.5161.78712-.77415,1.96661-.77415,3.53967Z"/><path class="cls-6" d="M301.45546,437.59422l-1.22192-5.55812c-.06599-.33111-.17557-.82188-.32639-1.47113-.152-.64866-.31579-1.34505-.49136-2.08916s-.33582-1.43342-.48311-2.06854c-.14729-.63452-.25334-1.09937-.31932-1.39277h-.12844c-.06599.2934-.17086.75825-.31225,1.39277-.14258.63511-.30165,1.32679-.47604,2.07561-.17557.74823-.33936,1.45228-.49136,2.11096-.15082.65868-.26512,1.15829-.34053,1.49941l-1.27965,5.50098h-4.6626l-4.52003-15.89197h4.32207l1.83346,7.03632c.12255.49254.24156,1.07816.35467,1.75569.1143.67753.21563,1.3315.30636,1.96131.08955.6304.15789,1.13001.20621,1.5h.11312c.01885-.27514.05892-.63983.12137-1.09466.06127-.45483.13197-.92616.21328-1.41457.08013-.48782.15554-.92851.22742-1.32207.0707-.39297.1249-.66104.16261-.80302l1.9619-7.619h4.77572l1.86292,7.619c.06599.27514.15318.71111.26276,1.30793.10841.59682.20621,1.21072.29104,1.84053.08602.6304.13315,1.12529.14258,1.48586h.11312c.03771-.32227.10487-.80067.19914-1.43578.09544-.63511.20621-1.30086.33464-1.99725.12726-.69639.25805-1.29144.39002-1.78397l1.90534-7.03632h4.25019l-4.57776,15.89197h-4.71916Z"/><path class="cls-6" d="M321.31954,421.40414c1.46936,0,2.73487.28162,3.79536.84544,1.06166.56382,1.88177,1.38158,2.45915,2.45208.57855,1.07109.86724,2.37843.86724,3.92321v2.10389h-10.24901c.04831,1.2225.41477,2.18165,1.10173,2.87804.68696.69697,1.64257,1.04517,2.86449,1.04517,1.01453,0,1.94305-.10428,2.78672-.31284.8425-.20856,1.70974-.52082,2.60055-.93794v3.35467c-.78594.38826-1.6084.67282-2.46622.85251s-1.89709.27042-3.12018.27042c-1.59191,0-3.00117-.29399-4.22898-.88138-1.22663-.58739-2.18814-1.48291-2.8857-2.68656-.69639-1.20365-1.04399-2.71956-1.04399-4.54889,0-1.85703.31461-3.40416.94501-4.6408s1.50942-2.16575,2.63707-2.78613,2.4403-.93087,3.93676-.93087ZM321.34899,424.48839c-.84368,0-1.54242.26983-2.09741.81009-.55381.54026-.87431,1.38865-.95915,2.54458h6.08365c-.00943-.64454-.12608-1.21779-.34878-1.71975-.2227-.50255-.55381-.90023-.9945-1.19422-.44069-.2934-1.00157-.44069-1.68382-.44069Z"/><path class="cls-6" d="M346.22092,437.59422l-6.05537-15.89197h4.53417l3.0707,9.05478c.17086.53083.30518,1.08994.40534,1.67733.09898.58739.16732,1.11351.20621,1.57777h.11312c.02828-.50196.0978-1.03751.20621-1.60605s.25334-1.11822.43362-1.64906l3.05656-9.05478h4.53417l-6.05537,15.89197h-4.44933Z"/><path class="cls-6" d="M373.06299,421.4607c0,.95738-.19796,1.78633-.59623,2.48743-.39827.70169-.93676,1.27494-1.61312,1.72034-.67871.4454-1.43873.77239-2.2824.98036v.08543c1.6685.20856,2.93519.72054,3.80243,1.53535s1.30086,1.90475,1.30086,3.26924c0,1.21308-.29576,2.29831-.88845,3.2551-.59269.95738-1.50471,1.71092-2.73605,2.26001-1.23252.54969-2.81971.82482-4.76158.82482-1.1465,0-2.21524-.0925-3.2062-.27749-.98979-.185-1.92066-.46661-2.79261-.84544v-3.7388c.89081.45483,1.82404.79831,2.79968,1.03044.97683.23272,1.88649.34819,2.73016.34819,1.57305,0,2.6736-.27219,3.304-.81716s.94619-1.3097.94619-2.29536c0-.57796-.14729-1.06638-.44069-1.46406-.29458-.39827-.80361-.70169-1.52828-.91025-.72467-.20797-1.73684-.31225-3.03535-.31225h-1.57777v-3.36881h1.60605c1.27965,0,2.25294-.12078,2.92105-.36292.66811-.24156,1.12294-.57325,1.36567-.9945.24156-.42184.36174-.90318.36174-1.44285,0-.73939-.22742-1.31736-.68225-1.73448-.45483-.41654-1.21249-.6251-2.27415-.6251-.66339,0-1.26787.08307-1.81225.24862-.54556.16555-1.03574.36469-1.47172.59682s-.81893.45719-1.15122.67518l-2.0326-3.02769c.8154-.58739,1.76983-1.07521,2.86449-1.46406,1.09466-.38826,2.40023-.58268,3.91555-.58268,2.14218,0,3.83778.43126,5.08915,1.2932,1.25137.86253,1.87588,2.08032,1.87588,3.65337Z"/></g><g id="Layer_2"><g class="cls-12"><polygon class="cls-2" points="129.66109 263.48684 -282.6731 122.01185 -215.51241 -259.31085 129.66109 263.48684"/><polyline class="cls-5" points="-411.04358 410.30774 -378.46726 457.25278 -82.72877 247.16786 -132.77653 173.44715 -303.39759 292.36308 -282.68086 122.02726 129.65333 263.47914 -431.99543 659.64462"/></g><g class="cls-14"><polygon class="cls-5" points="388.7807 -1.02516 441.81162 -259.29158 -146.94426 129.41587 55.4707 126.24381 330.98969 -66.8438 388.7807 -1.02516"/><polygon class="cls-2" points="786.97741 263.48684 374.64322 122.01185 441.80392 -259.31085 786.97741 263.48684"/><polyline class="cls-5" points="246.27275 410.30774 278.84906 457.25278 574.58756 247.16786 524.53979 173.44715 353.91873 292.36308 374.63546 122.02726 786.96965 263.47914 225.32089 659.64462"/><polygon class="cls-2" points="-146.95196 129.41976 55.48611 126.2477 103.0941 206.67098 292.72442 77.7879 225.32474 655.05802 -146.95196 129.41976"/><polygon class="cls-5" points="103.0941 206.67098 270.3542 270.7329 292.72442 77.79173 103.0941 206.67098"/></g><polygon class="cls-8" points="160.2088 103.45509 160.21074 103.45606 160.20976 103.45509 160.2088 103.45509"/><path class="cls-3" d="M391.4942,61.01294c.44301-.32622.68352-.86009.63436-1.40805v-.04505c.06221-.59396-.21643-1.1721-.71979-1.49349-.71587-.34112-1.50775-.49143-2.29883-.43636h-.98522v3.76532h1.00321c.80767.05606,1.61736-.07478,2.36626-.38237Z"/><path class="cls-3" d="M481.02216,60.86902c1.1159-.94583,1.25478-2.61676.31037-3.73384l-.32388-.32387c-.81301-.53478-1.77731-.79205-2.74867-.73332h-2.29874v5.51084h2.32578c.96516.05794,1.92354-.19427,2.73513-.7198Z"/><path class="cls-3" d="M469.06664,60.96798c1.15526-1.04275,1.24647-2.82458.2037-3.97983h0s-.00131-.00145-.00131-.00145c-.01161-.01098-.02217-.02302-.03152-.03598l-.13947-.15297c-.73973-.54854-1.64959-.81782-2.56871-.76022l-2.74861.04045v5.6368h2.60914c.95213.07151,1.89921-.19272,2.67678-.74679Z"/><path class="cls-3" d="M347.438,120.77723c-10.72341,0-17.13256,8.25802-17.13256,17.99514v.24607c0,9.73711,7.02568,18.24187,17.37932,18.24187,10.7227,0,17.13185-8.25802,17.13185-17.99512v-.24675c-.00003-9.7368-7.02568-18.24121-17.37861-18.24121Z"/><polygon class="cls-3" points="408.30986 58.71565 406.0107 64.3527 410.59541 64.3527 408.30986 58.71565"/><path class="cls-3" d="M258.41854,61.88521c1.28651-1.19459,1.36299-3.20523.17095-4.4941-.04313-.06108-.09637-.11434-.15746-.15746-.80438-.61665-1.80451-.92179-2.81611-.85921h-3.11749v6.34305h2.93307c1.06111.06803,2.114-.22533,2.98705-.83228Z"/><path class="cls-3" d="M526.52668,119.66793c-7.76523,0-12.8183,5.54624-14.29741,14.051h28.22505c-1.10934-8.3814-6.03936-14.051-13.92764-14.051Z"/><polygon class="cls-3" points="328.08408 58.71565 325.77614 64.3527 330.36961 64.3527 328.08408 58.71565"/><path class="cls-3" d="M235.01995,68.18686c2.7748,2.66912,7.16262,2.66912,9.93742,0,2.68562-2.74014,2.68562-7.12526,0-9.86541-2.77536-2.66771-7.16206-2.66771-9.93742,0-2.72424,2.71095-2.73501,7.11703-.02407,9.84128l.0061.00611.01797.01802Z"/><path class="cls-3" d="M499.3179,66.6236c2.4112-2.44804,2.4112-6.37819,0-8.82623-2.47611-2.40677-6.41767-2.40677-8.89378,0-2.43355,2.4333-2.43378,6.37867-.0005,8.81225l.0005.00047c1.17645,1.18199,2.78648,1.82925,4.4537,1.79046v.0135c1.66354.04073,3.27012-.60712,4.44008-1.79045Z"/><path class="cls-8" d="M463.78085,62.65944h2.67666c1.25321.0948,2.49872-.26447,3.50891-1.01217.79672-.68539,1.23457-1.6987,1.18764-2.74862.05559-1.04377-.3846-2.05257-1.18764-2.72166-.97249-.73291-2.17728-1.08924-3.39196-1.00319h-3.87781v14.07159h1.0842v-6.58595ZM463.78085,56.07796l2.74864-.04045c.91909-.05759,1.82895.21169,2.56868.76022l.13947.15297c.00935.01296.01992.02501.03152.03598,1.04354,1.15452.95358,2.9364-.20094,3.97993-.00003.00001-.00003.00003-.00006.00005l-.00142.0013c-.77754.55406-1.72459.81829-2.67669.74679h-2.60914l-.00006-5.6368Z"/><path class="cls-8" d="M475.92071,62.52001h1.9434c.7002-.04094,1.39683.12655,2.00187.48132.76546.69094,1.40879,1.50614,1.90286,2.41124l2.45177,3.83281h1.30007l-3.185-4.86301c-.45753-.84992-1.09827-1.58748-1.87591-2.15931,1.57447-.37925,2.68218-1.79045,2.67663-3.40995.04075-1.02239-.40265-2.00422-1.1966-2.64965-1.00623-.72248-2.23246-1.07237-3.46842-.98969h-3.59442l-.04045,14.09861h1.08414l.00006-6.75237ZM475.96119,56.07796h2.29874c.97136-.05872,1.93565.19854,2.74867.73332l.32388.32387c.94441,1.11708.80553,2.78802-.31037,3.73384-.81162.52553-1.77001.77774-2.73516.71979h-2.32569l-.00006-5.51082Z"/><path class="cls-8" d="M500.16356,67.32536l.17099-.17992c.02701-.03149.05396-.05846.08097-.08543,2.68328-2.82194,2.57088-7.2848-.25104-9.9681l-.00089-.00083c-2.96444-2.79509-7.59373-2.79509-10.55818,0l-.13944.14394-.00899.00451c-2.74136,2.8272-2.67497,7.3405.1484,10.08582,2.96323,2.79815,7.59495,2.79815,10.55818,0ZM490.42413,66.61009c-2.43355-2.43329-2.43375-6.37865-.0005-8.81224l.0005-.00047c2.47611-2.40677,6.41767-2.40677,8.89378,0,2.4112,2.44804,2.4112,6.37817,0,8.82622-1.16995,1.18335-2.77657,1.83119-4.44014,1.79044v-.01348c-1.66719.03877-3.27719-.6085-4.45361-1.79046h-.00003Z"/><path class="cls-8" d="M504.85839,73.34946c.78517.00478,1.53677-.31803,2.07391-.89072.6785-.9154.98982-2.05159.87276-3.18499v-14.09862h-1.08417v14.40906c0,1.8894-.64772,2.82059-1.97483,2.82059-.21326-.00393-.42565-.02802-.63436-.07197l.09901,1.0167c.21596.00893.43182.00891.64769-.00004Z"/><polygon class="cls-8" points="520.4342 68.32956 513.70007 68.32956 513.70007 62.62054 520.11032 62.62054 520.11032 61.70243 513.70007 61.70243 513.70007 56.079 520.28152 56.079 520.28152 55.17547 512.61177 55.17547 512.61177 69.24281 520.4342 69.24281 520.4342 68.32956"/><path class="cls-8" d="M536.0553,56.17693v.00246c.01911.00916.03936.01529.05841.02454l-.05841-.027Z"/><path class="cls-8" d="M531.21925,69.44334c1.74208-.01638,3.45239-.46794,4.97549-1.31361v-1.12466c-1.52523.87611-3.24415,1.35993-5.00244,1.40806-1.68153.05857-3.31479-.56809-4.52559-1.73644-1.19132-1.17938-1.83141-2.80565-1.76345-4.48065-.05135-1.66416.58679-3.27566,1.76345-4.45359,1.14407-1.17769,2.72658-1.82634,4.3681-1.79044,1.76356.05082,3.48765.53434,5.02048,1.40801v-1.18062c-1.52808-.73231-3.19577-1.12743-4.89001-1.15858-1.94094-.02426-3.81242.72143-5.20486,2.07385-.02837.03733-.06168.07063-.09901.09897l-.00427.0045h-.00024c-2.81034,2.81406-2.80832,7.37325.00451,10.18481,1.43435,1.38224,3.36691,2.12542,5.35783,2.06039Z"/><polygon class="cls-8" points="543.67972 69.24281 544.78165 69.24281 544.78165 56.079 550.054 56.079 550.054 55.17547 538.39378 55.17547 538.39378 56.079 543.67972 56.079 543.67972 69.24281"/><polygon class="cls-8" points="316.48512 70.23094 316.48512 54.6425 312.21164 54.6425 307.40711 60.49157 302.61621 54.6425 298.35535 54.6425 298.35535 70.23094 302.9216 70.23094 302.9216 61.19669 307.16884 66.42525 307.5462 66.42525 311.77495 61.19669 311.77495 70.23094 316.48512 70.23094"/><path class="cls-8" d="M324.67422,67.07437h6.76591l1.28209,3.15804h4.80901l-6.80631-15.59215h-5.25888l-6.89636,15.59215h4.80907l1.29547-3.15804ZM328.08425,58.71599l2.28535,5.63671h-4.59314l2.30779-5.63671Z"/><rect class="cls-8" x="339.61863" y="54.64335" width="4.69207" height="15.58762"/><polygon class="cls-8" points="352.91099 61.54779 360.99991 70.23094 365.1742 70.23094 365.1742 54.6425 360.49125 54.6425 360.49125 63.27994 352.42957 54.6425 348.25917 54.6425 348.25917 70.23094 352.91099 70.23094 352.91099 61.54779"/><polygon class="cls-8" points="373.78928 63.91601 380.25788 63.91601 380.25788 60.78918 373.78928 60.78918 373.78928 57.77031 380.25788 57.77031 380.25788 54.63959 369.0927 54.63959 369.0927 70.23094 373.78928 70.23094 373.78928 63.91601"/><path class="cls-8" d="M389.97369,64.29691c.42535.19989.789.51069,1.05268.89972.48136.69471.88843,1.43803,1.21459,2.21773l1.22361,2.81612h5.04743l-1.53401-3.4099c-.36887-.85281-.83213-1.6616-1.3811-2.41126-.34438-.42304-.76564-.77714-1.2416-1.04366.39529-.21125.77692-.44715,1.14262-.7063.39888-.32275.72537-.72585.95821-1.18307.32301-.61626.47816-1.30666.44987-2.00187-.01422-.74508-.19726-1.47722-.53538-2.14131-.40648-.78972-1.02692-1.44916-1.79043-1.90295-.95907-.56293-2.06052-.83634-3.1715-.78724h-7.99398v15.54717h4.71005v-6.09108h.52185c.45058-.01287.89986.05413,1.32708.1979ZM388.12473,57.63001h.98522c.79108-.05507,1.58296.09526,2.29883.43638.50335.32138.782.89952.71979,1.49348v.04504c.04915.54796-.19135,1.08183-.63436,1.40806-.7489.30759-1.55862.43844-2.36629.38238h-1.00321l.00003-3.76533Z"/><path class="cls-8" d="M404.91353,67.07437h6.76585l1.26858,3.15804h4.80901l-6.86935-15.59215h-5.20035l-6.89179,15.59215h4.82251l1.29553-3.15804ZM408.30997,58.71599l2.28529,5.63671h-4.58403l2.29874-5.63671Z"/><polygon class="cls-8" points="424.39237 61.19669 428.65324 66.42525 429.01697 66.42525 433.26422 61.19669 433.26422 70.23094 437.9559 70.23094 437.9559 54.6425 433.69993 54.6425 428.87789 60.49157 424.10061 54.6425 419.82612 54.6425 419.82612 70.23094 424.39237 70.23094 424.39237 61.19669"/><polygon class="cls-8" points="453.6455 67.08661 446.59626 67.08661 446.59626 63.76137 453.13781 63.76137 453.13781 60.61703 446.59626 60.61703 446.59626 57.76933 453.44806 57.76933 453.44806 54.6425 441.89096 54.6425 441.89096 70.23094 453.6455 70.23094 453.6455 67.08661"/><path class="cls-8" d="M245.90205,68.9741l.19794-.19343c.00966-.01413.02186-.02633.03599-.03599,3.03946-3.16911,2.93473-8.20206-.23393-11.242-1.56684-1.5536-3.70092-2.39879-5.90663-2.33926v.04049c-2.1957-.04797-4.31708.79603-5.87971,2.33927l-.15291.15746c-3.06858,3.15621-3.00013,8.20164.15291,11.27346,3.31033,3.11754,8.47601,3.11754,11.78633,0ZM235.01995,58.32148c2.77536-2.66772,7.16206-2.66772,9.93742,0,2.68562,2.74014,2.68562,7.12526,0,9.8654-2.77478,2.66913-7.16264,2.66913-9.93742,0l-.01797-.01801c-2.71432-2.72088-2.709-7.12697.01187-9.84129h0l.00611-.00609h-.00001Z"/><path class="cls-8" d="M252.42645,63.73414h3.005c1.39594.09437,2.77996-.31062,3.90483-1.14262,1.71064-1.49264,1.88736-4.0894.39474-5.80004-.09731-.11151-.20057-.21769-.30932-.31807-1.09925-.80521-2.44582-1.19995-3.80582-1.11566h-4.3321l-.06751,15.69113h1.21017v-7.31474ZM252.49842,56.37445h3.11751c1.01161-.06259,2.01175.24256,2.81611.85921.0611.04311.11434.09637.15747.15746,1.19205,1.28886,1.11556,3.2995-.17095,4.49409-.87307.60695-1.92596.90031-2.9871.83226h-2.93306v-6.34302Z"/><polygon class="cls-8" points="271.8264 70.06171 264.28214 70.06171 264.28214 63.67773 271.44809 63.67773 271.44809 62.66139 264.28214 62.66139 264.28214 56.3766 271.64161 56.3766 271.64161 55.36026 263.07226 55.36026 263.07226 71.07805 271.8264 71.07805 271.8264 70.06171"/><polygon class="cls-8" points="275.5358 57.32973 287.47125 71.07805 288.47398 71.07805 288.47398 55.36026 287.25924 55.36026 287.25924 69.08914 275.35104 55.36026 274.32204 55.36026 274.32204 71.07805 275.5358 71.07805 275.5358 57.32973"/><polygon class="cls-8" points="231.70183 102.28897 277.67548 102.28897 230.22255 157.50695 230.22255 171.92732 302.08033 171.92732 302.08033 155.28849 254.62738 155.28849 302.08033 100.07053 302.08033 85.65015 231.70183 85.65015 231.70183 102.28897"/><path class="cls-8" d="M347.68473,104.63093c-20.58353,0-35.86725,15.40673-35.86725,34.38743v.24675c0,18.98144,15.15998,34.1414,35.62049,34.1414,20.58353,0,35.86651-15.40672,35.86651-34.38815v-.24607c.00006-18.98136-15.15995-34.14137-35.61974-34.14137ZM364.81658,139.26513c0,9.73711-6.40918,17.99512-17.13185,17.99512-10.35365,0-17.37932-8.50477-17.37932-18.24187v-.24607c0-9.73711,6.40918-17.99512,17.13256-17.99512,10.35291,0,17.37861,8.50441,17.37861,18.24116v.24678Z"/><polygon class="cls-8" points="459.22905 146.04418 446.65755 105.61712 430.51083 105.61712 418.06286 145.92066 407.46274 105.86319 388.48099 105.86319 408.81852 172.42042 425.58085 172.42042 438.52193 131.86986 451.21697 172.42042 468.10282 172.42042 488.68739 105.86319 470.07522 105.86319 459.22905 146.04418"/><path class="cls-8" d="M558.69617,140.4975c0-18.73432-10.10685-35.86653-32.16949-35.86653-19.22748,0-32.66231,15.52975-32.66231,34.38744v.24675c0,20.21377,14.66717,34.1414,34.51117,34.1414,11.95572,0,20.82958-4.68404,26.99271-12.32553l-10.72344-9.49039c-5.17684,4.80705-9.73709,6.77893-16.02256,6.77893-8.38176,0-14.29812-4.43727-16.14627-12.94207h45.97342c.12306-1.72508.24676-3.45091.24676-4.93ZM512.22925,133.71892c1.47911-8.50477,6.53221-14.051,14.29738-14.051,7.88823,0,12.8183,5.66962,13.92764,14.051h-28.22502Z"/><path class="cls-8" d="M147.6862,45.86598l-88.41227,60.97289,60.97289,88.41227,88.41227-60.97291-60.97289-88.41225ZM123.35906,155.75258l6.16601-57.85685-30.2454,20.85856-7.54895-10.94619,46.30042-31.93081,6.54251,9.48675-6.16551,57.85657,31.21821-21.52944,7.54933,10.94669-47.27377,32.60199-6.54286-9.48727Z"/><path class="cls-8" d="M144.15251,222.17141c-3.12098,0-5.57426,1.10649-7.3608,3.31758-1.78749,2.21109-2.68123,5.26273-2.68123,9.15494,0,4.07456.85955,7.1566,2.57865,9.24706,1.7191,2.08952,4.20658,3.13523,7.46338,3.13523,1.40852,0,2.77146-.14057,4.08881-.42075,1.3183-.28019,2.68883-.6392,4.11255-1.07895v4.65772c-2.60525.98397-5.55907,1.47596-8.8605,1.47596-4.86193,0-8.59552-1.47216-11.19981-4.41838-2.60525-2.94527-3.90835-7.15945-3.90835-12.64253,0-3.4534.63255-6.4756,1.89766-9.06471,1.26416-2.59005,3.09249-4.57414,5.48593-5.95228s5.2029-2.06767,8.4293-2.06767c3.39167,0,6.52689.71234,9.40473,2.13511l-1.9537,4.52096c-1.12074-.52998-2.30607-.99537-3.55503-1.39713-1.24991-.40081-2.56346-.60216-3.94159-.60216Z"/><path class="cls-8" d="M193.65128,234.5537c0,5.4071-1.35154,9.60988-4.05461,12.60834-2.70403,2.99941-6.53164,4.49816-11.48475,4.49816-5.01294,0-8.8643-1.48736-11.55218-4.46397-2.68883-2.97566-4.03277-7.20504-4.03277-12.68812s1.35249-9.69346,4.05556-12.63208c2.70308-2.93767,6.56203-4.40698,11.57498-4.40698,4.93791,0,8.75413,1.49211,11.45056,4.47537,2.69548,2.98421,4.04322,7.18699,4.04322,12.60929ZM168.29783,234.5537c0,4.08881.82536,7.18984,2.47608,9.3031,1.65072,2.11231,4.09735,3.16942,7.33801,3.16942,3.22641,0,5.66069-1.04571,7.30476-3.13523,1.64312-2.09047,2.46468-5.2029,2.46468-9.33729,0-4.07456-.81491-7.1642-2.44284-9.26986-1.62792-2.10471-4.05461-3.15707-7.28102-3.15707-3.2568,0-5.71388,1.05236-7.3722,3.15707-1.65832,2.10566-2.48748,5.1953-2.48748,9.26986Z"/><path class="cls-8" d="M233.10897,251.20621h-6.65701l-16.33433-26.46754h-.18141l.11302,1.47691c.2118,2.81705.31818,5.39191.31818,7.72457v17.26606h-4.92936v-33.21478h6.58768l16.28969,26.33077h.13582c-.03039-.34762-.09023-1.61653-.18141-3.80482-.09118-2.18829-.13677-3.89695-.13677-5.12312v-17.40283h4.9759v33.21478Z"/><path class="cls-8" d="M251.91558,251.20621h-5.38431v-33.21478h18.74202v4.58934h-13.35772v10.38205h12.51716v4.61214h-12.51716v13.63125Z"/><path class="cls-8" d="M305.43572,234.5537c0,5.4071-1.35154,9.60988-4.05461,12.60834-2.70403,2.99941-6.53164,4.49816-11.48475,4.49816-5.01294,0-8.8643-1.48736-11.55218-4.46397-2.68883-2.97566-4.03277-7.20504-4.03277-12.68812s1.35249-9.69346,4.05556-12.63208c2.70308-2.93767,6.56203-4.40698,11.57498-4.40698,4.93791,0,8.75413,1.49211,11.45056,4.47537,2.69548,2.98421,4.04322,7.18699,4.04322,12.60929ZM280.08227,234.5537c0,4.08881.82536,7.18984,2.47608,9.3031,1.65072,2.11231,4.09735,3.16942,7.33801,3.16942,3.22641,0,5.66069-1.04571,7.30476-3.13523,1.64312-2.09047,2.46468-5.2029,2.46468-9.33729,0-4.07456-.81491-7.1642-2.44284-9.26986-1.62792-2.10471-4.05461-3.15707-7.28102-3.15707-3.2568,0-5.71388,1.05236-7.3722,3.15707-1.65832,2.10566-2.48748,5.1953-2.48748,9.26986Z"/><path class="cls-8" d="M322.65144,237.93872v13.26749h-5.42895v-33.21478h9.38193c4.28636,0,7.45958.80351,9.51965,2.40864,2.05912,1.60513,3.08964,4.02897,3.08964,7.26962,0,4.1344-2.15125,7.08062-6.45186,8.83771l9.38288,14.69881h-6.18022l-7.95156-13.26749h-5.36151ZM322.65144,233.44056h3.77158c2.52927,0,4.36234-.46919,5.49828-1.40852s1.70391-2.33266,1.70391-4.18093c0-1.87772-.61356-3.22546-1.84067-4.04322s-3.07444-1.22712-5.54292-1.22712h-3.59017v10.85979Z"/><path class="cls-8" d="M365.97189,251.20621l-9.63268-27.7393h-.18236c.25739,4.12015.38656,7.98196.38656,11.58637v16.15292h-4.92936v-33.21478h7.65618l9.22332,26.42195h.13582l9.49686-26.42195h7.67898v33.21478h-5.22569v-16.42551c0-1.65072.04179-3.80102.12537-6.45186.08263-2.65084.15481-4.25597.2156-4.81634h-.18141l-9.97365,27.69371h-4.79354Z"/><path class="cls-8" d="M419.81021,251.20621l-3.31663-9.22332h-12.70047l-3.24825,9.22332h-5.72528l12.42693-33.3506h5.90669l12.42693,33.3506h-5.76992ZM415.06226,237.30237l-3.11243-9.04191c-.22795-.60596-.54232-1.55954-.94313-2.86264-.40176-1.30215-.67814-2.25668-.82916-2.86264-.40936,1.86347-1.00772,3.90075-1.79509,6.11184l-2.99846,8.65535h9.67827Z"/><path class="cls-8" d="M462.2901,251.20621h-6.65701l-16.33433-26.46754h-.18141l.11302,1.47691c.2118,2.81705.31818,5.39191.31818,7.72457v17.26606h-4.92936v-33.21478h6.58768l16.28969,26.33077h.13582c-.03039-.34762-.09023-1.61653-.18141-3.80482-.09118-2.18829-.13677-3.89695-.13677-5.12312v-17.40283h4.9759v33.21478Z"/><path class="cls-8" d="M487.1848,251.20621h-5.4299v-28.55706h-9.76849v-4.65772h24.96783v4.65772h-9.76944v28.55706Z"/><rect class="cls-4" x="72.09439" y="279.27791" width="473.78117" height="42.96549"/><path class="cls-7" d="M133.70565,305.12401c0-.66455-.23535-1.18213-.70605-1.55371-.4707-.37061-1.29688-.75488-2.47852-1.15186-1.18262-.39697-2.14844-.78076-2.89941-1.15186-2.44238-1.19971-3.66309-2.84814-3.66309-4.94482,0-1.04395.30371-1.96533.91211-2.76367s1.46875-1.41943,2.58203-1.86426c1.11328-.44434,2.36523-.6665,3.75391-.6665,1.35547,0,2.56934.2417,3.64453.7251,1.07422.4834,1.90918,1.17139,2.50391,2.06445.5957.89307.89355,1.91357.89355,3.06152h-4.53027c0-.76807-.23535-1.36377-.70605-1.78662-.46973-.42236-1.10645-.63428-1.90918-.63428-.81055,0-1.45215.1792-1.92188.5376-.4707.35791-.70508.81299-.70508,1.36523,0,.4834.25879.92139.77637,1.31396s1.42773.79834,2.73145,1.2168c1.30273.41846,2.37305.86963,3.20996,1.35254,2.03613,1.17383,3.05469,2.79199,3.05469,4.85449,0,1.64795-.62109,2.94238-1.86426,3.8833-1.24219.94043-2.94629,1.41064-5.1123,1.41064-1.52734,0-2.91113-.27393-4.14941-.82178s-2.16992-1.29883-2.7959-2.25244c-.625-.95361-.93848-2.05176-.93848-3.29443h4.55664c0,1.00977.26074,1.75391.7832,2.23291s1.37012.71875,2.54395.71875c.75,0,1.34375-.16211,1.7793-.48584.43555-.32324.6543-.77832.6543-1.36523Z"/><path class="cls-7" d="M163.31405,291.28612v12.33594c0,1.39844-.29785,2.6084-.89258,3.63135-.5957,1.02246-1.4502,1.80127-2.56348,2.33643s-2.42871.80225-3.94824.80225c-2.29492,0-4.10254-.59521-5.42285-1.78613s-1.99414-2.82178-2.01953-4.89307v-12.42676h4.56934v12.51758c.05176,2.0625,1.00977,3.09326,2.87305,3.09326.94043,0,1.65332-.25879,2.13574-.77637.4834-.51807.72559-1.35938.72559-2.52441v-12.31006h4.54297Z"/><path class="cls-7" d="M178.64608,303.73876v6.39453h-4.54395v-18.84717h7.52051c1.44141,0,2.71582.26562,3.8252.79639,1.1084.53076,1.96777,1.28564,2.57617,2.26514s.91211,2.09033.91211,3.33301c0,1.83838-.6582,3.30762-1.97363,4.40771-1.31641,1.1001-3.12207,1.65039-5.41699,1.65039h-2.89941ZM178.64608,300.23095h2.97656c.88086,0,1.55176-.22021,2.0127-.66016.46191-.44043.69336-1.06152.69336-1.86426,0-.87988-.23828-1.5835-.71289-2.10986s-1.12109-.79395-1.94141-.80225h-3.02832v5.43652Z"/><path class="cls-7" d="M203.85409,303.73876v6.39453h-4.54395v-18.84717h7.52051c1.44141,0,2.71582.26562,3.8252.79639,1.1084.53076,1.96777,1.28564,2.57617,2.26514s.91211,2.09033.91211,3.33301c0,1.83838-.6582,3.30762-1.97363,4.40771-1.31641,1.1001-3.12207,1.65039-5.41699,1.65039h-2.89941ZM203.85409,300.23095h2.97656c.88086,0,1.55176-.22021,2.0127-.66016.46191-.44043.69336-1.06152.69336-1.86426,0-.87988-.23828-1.5835-.71289-2.10986s-1.12109-.79395-1.94141-.80225h-3.02832v5.43652Z"/><path class="cls-7" d="M240.47714,301.09813c0,1.83789-.34082,3.46484-1.02246,4.87988-.68164,1.41553-1.65039,2.50488-2.90527,3.26855-1.25586.76367-2.68652,1.14551-4.29102,1.14551-1.60547,0-3.0293-.36865-4.27246-1.10645-1.24219-.73779-2.21094-1.79297-2.90527-3.16504-.69531-1.37207-1.05957-2.94678-1.09375-4.72461v-1.06152c0-1.84668.33789-3.47559,1.01562-4.88672.67773-1.41064,1.64844-2.5,2.91211-3.26807,1.26465-.76807,2.7041-1.15234,4.31738-1.15234,1.59668,0,3.02051.37988,4.27148,1.13916s2.22461,1.84033,2.91895,3.24268,1.04688,3.00928,1.05469,4.82178v.86719ZM235.85604,300.30858c0-1.87256-.3125-3.29443-.93848-4.26514-.625-.9707-1.52051-1.45654-2.68555-1.45654-2.27832,0-3.48242,1.70898-3.61133,5.12598l-.0127,1.38525c0,1.84668.30566,3.2666.91895,4.25879.6123.99219,1.52246,1.48828,2.73145,1.48828,1.14746,0,2.03223-.4873,2.65332-1.4624s.93652-2.37744.94434-4.20703v-.86719Z"/><path class="cls-7" d="M257.77694,303.46678h-2.45898v6.6665h-4.54395v-18.84717h7.41699c2.23535,0,3.98242.49609,5.24219,1.4873,1.26074.99121,1.89062,2.39209,1.89062,4.20215,0,1.31055-.26562,2.39648-.7959,3.25879-.53125.86182-1.3623,1.56055-2.49219,2.09473l3.93457,7.60986v.19434h-4.86621l-3.32715-6.6665ZM255.31796,299.97216h2.87305c.86328,0,1.5127-.22705,1.94824-.68115.43555-.45459.65332-1.08838.65332-1.90137s-.21973-1.45117-.66016-1.91406c-.43945-.46289-1.08691-.69434-1.94141-.69434h-2.87305v5.19092Z"/><path class="cls-7" d="M290.16952,294.79442h-5.65723v15.33887h-4.54297v-15.33887h-5.55371v-3.5083h15.75391v3.5083Z"/><path class="cls-7" d="M318.35897,303.73876v6.39453h-4.54395v-18.84717h7.52051c1.44141,0,2.71582.26562,3.8252.79639,1.1084.53076,1.96777,1.28564,2.57617,2.26514s.91211,2.09033.91211,3.33301c0,1.83838-.6582,3.30762-1.97363,4.40771-1.31641,1.1001-3.12207,1.65039-5.41699,1.65039h-2.89941ZM318.35897,300.23095h2.97656c.88086,0,1.55176-.22021,2.0127-.66016.46191-.44043.69336-1.06152.69336-1.86426,0-.87988-.23828-1.5835-.71289-2.10986s-1.12109-.79395-1.94141-.80225h-3.02832v5.43652Z"/><path class="cls-7" d="M346.02597,303.46678h-2.45898v6.6665h-4.54395v-18.84717h7.41699c2.23535,0,3.98242.49609,5.24219,1.4873,1.26074.99121,1.89062,2.39209,1.89062,4.20215,0,1.31055-.26562,2.39648-.7959,3.25879-.53125.86182-1.3623,1.56055-2.49219,2.09473l3.93457,7.60986v.19434h-4.86621l-3.32715-6.6665ZM343.56698,299.97216h2.87305c.86328,0,1.5127-.22705,1.94824-.68115.43555-.45459.65332-1.08838.65332-1.90137s-.21973-1.45117-.66016-1.91406c-.43945-.46289-1.08691-.69434-1.94141-.69434h-2.87305v5.19092Z"/><path class="cls-7" d="M380.23007,301.09813c0,1.83789-.34082,3.46484-1.02246,4.87988-.68164,1.41553-1.65039,2.50488-2.90527,3.26855-1.25586.76367-2.68652,1.14551-4.29102,1.14551-1.60547,0-3.0293-.36865-4.27246-1.10645-1.24219-.73779-2.21094-1.79297-2.90527-3.16504-.69531-1.37207-1.05957-2.94678-1.09375-4.72461v-1.06152c0-1.84668.33789-3.47559,1.01562-4.88672.67773-1.41064,1.64844-2.5,2.91211-3.26807,1.26465-.76807,2.7041-1.15234,4.31738-1.15234,1.59668,0,3.02051.37988,4.27148,1.13916s2.22461,1.84033,2.91895,3.24268,1.04688,3.00928,1.05469,4.82178v.86719ZM375.60897,300.30858c0-1.87256-.3125-3.29443-.93848-4.26514-.625-.9707-1.52051-1.45654-2.68555-1.45654-2.27832,0-3.48242,1.70898-3.61133,5.12598l-.0127,1.38525c0,1.84668.30566,3.2666.91895,4.25879.6123.99219,1.52246,1.48828,2.73145,1.48828,1.14746,0,2.03223-.4873,2.65332-1.4624s.93652-2.37744.94434-4.20703v-.86719Z"/><path class="cls-7" d="M397.55526,305.00731l3.75391-13.72119h5.07422l-6.34277,18.84717h-4.9707l-6.29102-18.84717h5.03516l3.74121,13.72119Z"/><path class="cls-7" d="M420.5494,310.13329h-4.53027v-18.84717h4.53027v18.84717Z"/><path class="cls-7" d="M431.66073,310.13329v-18.84717h6.07129c1.66504,0,3.16211.37793,4.49121,1.13281,1.3291.75537,2.36719,1.8208,3.11328,3.19727s1.12402,2.91895,1.13281,4.62744v.86719c0,1.72607-.36523,3.27295-1.09375,4.64062-.72949,1.36816-1.75684,2.43799-3.08105,3.21045-1.3252.77246-2.80273,1.16309-4.43359,1.17139h-6.2002ZM436.20468,294.79442v11.84375h1.5791c1.30273,0,2.30371-.46387,3.00293-1.3916.69922-.92725,1.04785-2.30566,1.04785-4.13574v-.81543c0-1.82031-.34863-3.19287-1.04785-4.11621s-1.71777-1.38477-3.05469-1.38477h-1.52734Z"/><path class="cls-7" d="M468.441,302.13378h-7.14453v4.50439h8.43945v3.49512h-12.9834v-18.84717h13.00879v3.5083h-8.46484v3.97363h7.14453v3.36572Z"/><path class="cls-7" d="M486.54257,303.46678h-2.45898v6.6665h-4.54395v-18.84717h7.41699c2.23535,0,3.98242.49609,5.24219,1.4873,1.26074.99121,1.89062,2.39209,1.89062,4.20215,0,1.31055-.26562,2.39648-.7959,3.25879-.53125.86182-1.3623,1.56055-2.49219,2.09473l3.93457,7.60986v.19434h-4.86621l-3.32715-6.6665ZM484.08358,299.97216h2.87305c.86328,0,1.5127-.22705,1.94824-.68115.43555-.45459.65332-1.08838.65332-1.90137s-.21973-1.45117-.66016-1.91406c-.43945-.46289-1.08691-.69434-1.94141-.69434h-2.87305v5.19092Z"/><path class="cls-6" d="M169.1168,397.92526l-1.14062-4.34082h-7.52539l-1.17188,4.34082h-6.87598l7.55664-23.25684h8.34961l7.65137,23.25684h-6.84375ZM166.67735,388.45114l-.99805-3.80225c-.23242-.84473-.51465-1.93799-.84766-3.2793s-.55176-2.30225-.65723-2.8833c-.0957.53857-.2832,1.42578-.5625,2.66162-.28027,1.23584-.90039,3.67041-1.8623,7.30322h4.92773Z"/><path class="cls-6" d="M197.70665,382.13034c0,2.5874-.76367,4.58643-2.29004,5.99609-1.52539,1.41016-3.69336,2.11523-6.50293,2.11523h-1.75879v7.68359h-6.25781v-23.16211h8.0166c2.92578,0,5.12207.63916,6.59082,1.91699,1.46777,1.27832,2.20215,3.09473,2.20215,5.4502ZM187.15489,385.1401h1.14062c.94043,0,1.6875-.26367,2.24219-.79199.55469-.52783.83203-1.25684.83203-2.18652,0-1.56299-.86621-2.34424-2.59863-2.34424h-1.61621v5.32275Z"/><path class="cls-6" d="M220.64024,382.13034c0,2.5874-.76367,4.58643-2.29004,5.99609-1.52539,1.41016-3.69336,2.11523-6.50293,2.11523h-1.75879v7.68359h-6.25781v-23.16211h8.0166c2.92578,0,5.12207.63916,6.59082,1.91699,1.46777,1.27832,2.20215,3.09473,2.20215,5.4502ZM210.08848,385.1401h1.14062c.94043,0,1.6875-.26367,2.24219-.79199.55469-.52783.83203-1.25684.83203-2.18652,0-1.56299-.86621-2.34424-2.59863-2.34424h-1.61621v5.32275Z"/><path class="cls-6" d="M243.78965,397.92526h-6.16309v-23.16211h13.68848v5.02246h-7.52539v4.41992h6.93945v5.02197h-6.93945v8.69775Z"/><path class="cls-6" d="M263.80821,389.49704v8.42822h-6.25781v-23.16211h7.58887c6.29492,0,9.44238,2.28125,9.44238,6.84424,0,2.68262-1.30957,4.7583-3.92871,6.22607l6.74805,10.0918h-7.09668l-4.91113-8.42822h-1.58496ZM263.80821,384.79147h1.17285c2.18652,0,3.2793-.96631,3.2793-2.89893,0-1.59473-1.07227-2.39209-3.21582-2.39209h-1.23633v5.29102Z"/><path class="cls-6" d="M296.15294,397.92526l-1.14062-4.34082h-7.52539l-1.17188,4.34082h-6.87598l7.55664-23.25684h8.34961l7.65137,23.25684h-6.84375ZM293.71348,388.45114l-.99805-3.80225c-.23242-.84473-.51465-1.93799-.84766-3.2793s-.55176-2.30225-.65723-2.8833c-.0957.53857-.2832,1.42578-.5625,2.66162-.28027,1.23584-.90039,3.67041-1.8623,7.30322h4.92773Z"/><path class="cls-6" d="M318.02501,397.92526l-4.73633-16.68213h-.14258c.22168,2.84131.33203,5.04834.33203,6.62207v10.06006h-5.54492v-23.16211h8.33301l4.83203,16.44482h.12695l4.7373-16.44482h8.34863v23.16211h-5.75098v-10.15527c0-.52783.00879-1.11426.02441-1.7583s.08691-2.22314.21387-4.73682h-.14258l-4.67383,16.65039h-5.95703Z"/><path class="cls-6" d="M355.48692,397.92526h-13.75195v-23.16211h13.75195v5.02246h-7.49414v3.64355h6.93945v5.02197h-6.93945v4.37256h7.49414v5.10156Z"/><path class="cls-6" d="M386.99083,397.92526h-7.39844l-2.21777-10.0918c-.10547-.42236-.27246-1.26172-.49902-2.51904-.22754-1.25684-.39355-2.30762-.49902-3.15283-.08496.68701-.22168,1.53955-.41211,2.55859-.19043,1.01953-.37793,1.95703-.5625,2.8125s-.95312,4.31982-2.30469,10.39258h-7.39844l-5.73535-23.16211h6.03613l2.51855,11.61279c.57031,2.56641.96094,4.61035,1.17285,6.13135.13672-1.07764.38281-2.54004.73633-4.38867.35352-1.84814.68359-3.37988.99023-4.59424l2.04395-8.76123h5.79785l1.98047,8.76123c.33789,1.40479.68164,3.02588,1.03027,4.86377.34863,1.8374.58008,3.21045.69727,4.11914.13672-1.17236.51172-3.20557,1.12402-6.09961l2.56641-11.64453h6.03613l-5.70312,23.16211Z"/><path class="cls-6" d="M419.79551,386.31247c0,3.89746-.95605,6.85986-2.86719,8.8877-1.91211,2.02783-4.71094,3.04199-8.39648,3.04199-3.63379,0-6.41895-1.01904-8.35742-3.05762-1.93848-2.03809-2.90723-5.00635-2.90723-8.90381,0-3.85498.96387-6.79883,2.8916-8.83203,1.92676-2.0332,4.72852-3.0498,8.4043-3.0498,3.68555,0,6.47949,1.00879,8.38086,3.02588,1.90137,2.01758,2.85156,4.97998,2.85156,8.8877ZM403.85801,386.31247c0,4.47852,1.55762,6.71729,4.67383,6.71729,1.58398,0,2.75879-.54395,3.52441-1.63184.76562-1.0874,1.14844-2.78271,1.14844-5.08545,0-2.31299-.3877-4.021-1.16406-5.125-.77637-1.10352-1.93555-1.65576-3.47754-1.65576-3.13672,0-4.70508,2.26074-4.70508,6.78076Z"/><path class="cls-6" d="M432.66856,389.49704v8.42822h-6.25781v-23.16211h7.58887c6.29492,0,9.44238,2.28125,9.44238,6.84424,0,2.68262-1.30957,4.7583-3.92871,6.22607l6.74805,10.0918h-7.09668l-4.91113-8.42822h-1.58496ZM432.66856,384.79147h1.17285c2.18652,0,3.2793-.96631,3.2793-2.89893,0-1.59473-1.07227-2.39209-3.21582-2.39209h-1.23633v5.29102Z"/><path class="cls-6" d="M470.59044,397.92526h-7.06641l-4.57812-8.85596-1.85352,1.10889v7.74707h-6.29004v-23.16211h6.29004v10.06006c.31641-.62305.95508-1.61035,1.91699-2.9624l4.86328-7.09766h6.84375l-7.30273,10.37695,7.17676,12.78516Z"/><g class="cls-13"><polygon class="cls-5" points="1056.26171 -1.02516 1109.29263 -259.29158 520.53675 129.41587 722.95171 126.24381 998.4707 -66.8438 1056.26171 -1.02516"/><polygon class="cls-2" points="520.52904 129.41976 722.96712 126.2477 770.57511 206.67098 960.20542 77.7879 892.80575 655.05802 520.52904 129.41976"/></g></g></g></svg>