<svg id="Layer_1" data-name="Layer 1" xmlns="http://www.w3.org/2000/svg" xmlns:xlink="http://www.w3.org/1999/xlink" viewBox="0 0 601.4126 443.90552"><defs><style>.cls-1{fill:none;}.cls-2{fill:#fff;}.cls-3{fill:#488eff;}.cls-4{clip-path:url(#clip-path);}.cls-5{opacity:0.9;}.cls-6{fill:#3274f9;}.cls-7{clip-path:url(#clip-path-2);}</style><clipPath id="clip-path"><path class="cls-1" d="M64.04925,0H537.35818A63.34554,63.34554,0,0,1,600.7037,63.34553v252.976h-600V63.34553A63.34553,63.34553,0,0,1,64.04923,0Z"/></clipPath><clipPath id="clip-path-2"><path class="cls-1" d="M64.75815,475H538.06708a63.34553,63.34553,0,0,1,63.34552,63.34552v252.976h-600v-252.976A63.34553,63.34553,0,0,1,64.75814,475Z"/></clipPath></defs><rect class="cls-2" x="2.50351" y="333.16014" width="596.40037" height="107.37109"/><path class="cls-3" d="M597.1036,336.53519V440.30554H4.30382V336.53519H597.1036m3.6001-3.6h-600V443.90552h600Z"/><path class="cls-3" d="M64.04925,0H537.35818A63.34554,63.34554,0,0,1,600.7037,63.34553v252.976h-600V63.34553A63.34553,63.34553,0,0,1,64.04923,0Z"/><g class="cls-4"><g class="cls-5"><path class="cls-6" d="M356.23254-141-10.7089,112.05857,242.34966,479,609.2911,225.94144ZM255.2665,315.06735,280.85757,74.94142,155.3287,161.51161,169.2911,124l-45.2933-7.91884L316.16064-16.44273l27.15347,39.37329-25.589,240.12455L447.29153,173.7005l31.3323,45.4325L282.42138,354.44257Z"/></g></g><path class="cls-2" d="M156.95419,216.54q-6.98294,0-11.02442,4.65039-4.04148,4.65015-4.042,12.7334,0,8.3159,3.89746,12.84961,3.89649,4.53516,11.11133,4.53467a37.9341,37.9341,0,0,0,10.11133-1.59375v4.31738a31.15082,31.15082,0,0,1-10.86524,1.65137q-9.35889,0-14.44336-5.67873-5.08447-5.67846-5.084-16.13818a25.46488,25.46488,0,0,1,2.44825-11.47363,17.574,17.574,0,0,1,7.06933-7.59082,21.39569,21.39569,0,0,1,10.87891-2.66553,26.25143,26.25143,0,0,1,11.64746,2.43359l-2.08594,4.23A22.45357,22.45357,0,0,0,156.95419,216.54Z"/><path class="cls-2" d="M202.93465,239.19727q0,7.76513-3.91113,12.125-3.91113,4.36157-10.80664,4.36084a14.31261,14.31261,0,0,1-7.5625-1.99953,13.1958,13.1958,0,0,1-5.09961-5.73631,19.997,19.997,0,0,1-1.7959-8.75q0-7.76441,3.88282-12.09668,3.88183-4.33082,10.77734-4.33155a13.43442,13.43442,0,0,1,10.58984,4.43311Q202.93466,231.63477,202.93465,239.19727Zm-24.19238,0q0,6.08423,2.4336,9.27148a9.65872,9.65872,0,0,0,14.32713.01416q2.44774-3.17213,2.44826-9.28564,0-6.05567-2.44826-9.19922-2.44773-3.14356-7.22852-3.14356-4.72265,0-7.12793,3.1001Q178.7413,233.05493,178.74227,239.19727Z"/><path class="cls-2" d="M233.09579,255.10352v-20.542q0-3.88257-1.76758-5.79492-1.7666-1.91235-5.5332-1.91211-4.98341,0-7.30176,2.69434-2.31738,2.69457-2.31738,8.895V255.1035H211.3663V223.34863h3.91113l.78222,4.34619h.23145a9.82423,9.82423,0,0,1,4.14355-3.63623,13.46528,13.46528,0,0,1,5.93944-1.28959q5.73633,0,8.63379,2.76709t2.89746,8.85157v20.71583Z"/><path class="cls-2" d="M262.09872,227.08643h-8.084v28.01709h-4.80957V227.08643h-5.67871v-2.17334l5.67871-1.7383V221.4077q0-11.70557,10.22853-11.70557a21.05772,21.05772,0,0,1,5.91015,1.01416l-1.24609,3.85352a15.91958,15.91958,0,0,0-4.751-.89844,4.62835,4.62835,0,0,0-4.02734,1.811q-1.30519,1.81128-1.30469,5.80908v2.05713h8.084Z"/><path class="cls-2" d="M295.30184,239.19727q0,7.76513-3.91113,12.125-3.91113,4.36157-10.80664,4.36084a14.31259,14.31259,0,0,1-7.5625-1.99953,13.19562,13.19562,0,0,1-5.09961-5.73631,19.99676,19.99676,0,0,1-1.7959-8.75q0-7.76441,3.88281-12.09668,3.88184-4.33082,10.77735-4.33155a13.43446,13.43446,0,0,1,10.58984,4.43311Q295.30184,231.63477,295.30184,239.19727Zm-24.19238,0q0,6.08423,2.43359,9.27148a9.65873,9.65873,0,0,0,14.32715.01416q2.44776-3.17213,2.44824-9.28564,0-6.05567-2.44824-9.19922-2.44775-3.14356-7.22851-3.14356-4.72266,0-7.12793,3.1001Q271.10848,233.05493,271.10946,239.19727Z"/><path class="cls-2" d="M318.21981,222.769a18.85308,18.85308,0,0,1,3.7959.34765l-.667,4.46192a16.3976,16.3976,0,0,0-3.47657-.43457,8.46539,8.46539,0,0,0-6.59179,3.12939,11.41,11.41,0,0,0-2.73731,7.79395v17.03615h-4.80957V223.34863h3.96875l.55078,5.88184h.23145a13.95737,13.95737,0,0,1,4.25977-4.78076A9.58871,9.58871,0,0,1,318.21981,222.769Z"/><path class="cls-2" d="M368.43075,255.10352V234.44531q0-3.79467-1.623-5.69287a6.27417,6.27417,0,0,0-5.041-1.898q-4.49121,0-6.63477,2.57861-2.14453,2.57886-2.14453,7.93848v17.73193h-4.80957V234.44531q0-3.79467-1.62207-5.69287-1.623-1.89771-5.07031-1.898-4.52052,0-6.62012,2.709-2.10206,2.7092-2.10059,8.88037v16.65967h-4.80957V223.34863h3.91114l.78222,4.34619H332.88a9.45365,9.45365,0,0,1,3.83886-3.62158,11.727,11.727,0,0,1,5.54883-1.3042q7.4458,0,9.73535,5.38916h.23145a10.13116,10.13116,0,0,1,4.11426-3.94043,12.77018,12.77018,0,0,1,6.14258-1.44873q5.38915,0,8.06933,2.76709,2.6792,2.76709,2.67969,8.85157v20.71582Z"/><path class="cls-2" d="M402.67684,255.10352l-.95605-4.52h-.23145a13.36263,13.36263,0,0,1-4.7373,4.042,14.43844,14.43844,0,0,1-5.89551,1.05762,10.605,10.605,0,0,1-7.40332-2.4341,8.87357,8.87357,0,0,1-2.67969-6.92432q0-9.6189,15.38477-10.083l5.38867-.17383v-1.97021q0-3.73754-1.60742-5.519-1.60841-1.782-5.14258-1.78223a20.95375,20.95375,0,0,0-8.98242,2.43409l-1.47754-3.67969a22.60419,22.60419,0,0,1,5.14258-1.999,22.2732,22.2732,0,0,1,5.60644-.7246q5.67919,0,8.417,2.5205,2.7378,2.521,2.73829,8.084v21.67188Zm-10.86426-3.38965a9.7607,9.7607,0,0,0,7.05469-2.46289,9.11205,9.11205,0,0,0,2.56446-6.89551v-2.86865l-4.80958.20263q-5.73778.20363-8.27246,1.78223a5.37233,5.37233,0,0,0-2.53515,4.91064,4.95506,4.95506,0,0,0,1.5791,3.96973A6.55287,6.55287,0,0,0,391.81258,251.71387Z"/><path class="cls-2" d="M437.88,255.10352v-20.542q0-3.88257-1.76758-5.79492-1.76661-1.91235-5.5332-1.91211-4.98341,0-7.30176,2.69434-2.31738,2.69457-2.31738,8.895V255.1035h-4.80957V223.34863h3.91113l.78222,4.34619h.23145a9.82423,9.82423,0,0,1,4.14355-3.63623,13.4653,13.4653,0,0,1,5.93946-1.28955q5.73633,0,8.63379,2.76709t2.89746,8.85157v20.71582Z"/><path class="cls-2" d="M462.82528,251.71387a15.657,15.657,0,0,0,2.46289-.18848,15.94655,15.94655,0,0,0,1.88379-.39111V254.814a8.80142,8.80142,0,0,1-2.30371.62255,17.31072,17.31072,0,0,1-2.73828.2466q-9.2124,0-9.21289-9.70605V227.08643h-4.54883v-2.31789l4.54886-1.99954,2.02832-6.77979h2.78125v7.35938h9.21289v3.73779h-9.21289v18.6875a6.42759,6.42759,0,0,0,1.36133,4.4043A4.738,4.738,0,0,0,462.82528,251.71387Z"/><polygon class="cls-2" points="143.072 103.213 143.074 103.214 143.073 103.213 143.072 103.213"/><path class="cls-1" d="M380.87927,59.57407a1.61838,1.61838,0,0,0,.65225-1.44775V58.08a1.62155,1.62155,0,0,0-.74008-1.5356,4.73108,4.73108,0,0,0-2.36365-.44867h-1.013v3.87149h1.03149A5.41638,5.41638,0,0,0,380.87927,59.57407Z"/><path class="cls-1" d="M472.93173,59.42609a2.72576,2.72576,0,0,0,.31912-3.83913l-.333-.333a4.63391,4.63391,0,0,0-2.82617-.754h-2.36356v5.66623h2.39136A4.66036,4.66036,0,0,0,472.93173,59.42609Z"/><path class="cls-1" d="M460.63909,59.52784a2.89728,2.89728,0,0,0,.20944-4.09206v0l-.00134-.00148a.26219.26219,0,0,1-.03241-.037l-.1434-.15728a4.01274,4.01274,0,0,0-2.64114-.78166l-2.82611.04159v5.79575h2.6827A4.20054,4.20054,0,0,0,460.63909,59.52784Z"/><path class="cls-1" d="M335.58077,121.02359c-11.02578,0-17.61566,8.49088-17.61566,18.50256v.253c0,10.01167,7.22379,18.75626,17.86939,18.75626,11.02505,0,17.61493-8.49088,17.61493-18.50255v-.25371C353.44939,129.76781,346.22564,121.02359,335.58077,121.02359Z"/><polygon class="cls-1" points="398.169 57.212 395.805 63.008 400.519 63.008 398.169 57.212"/><path class="cls-1" d="M244.05116,60.47094a3.273,3.273,0,0,0,.17576-4.62082.67421.67421,0,0,0-.16189-.1619,4.32077,4.32077,0,0,0-2.89553-.88344h-3.2054v6.52191h3.01578A4.83815,4.83815,0,0,0,244.05116,60.47094Z"/><path class="cls-1" d="M519.71938,119.883c-7.98419,0-13.17974,5.70263-14.70056,14.44722h29.02094C532.89913,125.71248,527.8301,119.883,519.71938,119.883Z"/><polygon class="cls-1" points="315.681 57.212 313.308 63.008 318.031 63.008 315.681 57.212"/><path class="cls-1" d="M219.99278,66.95028a7.36937,7.36937,0,0,0,10.21763,0,7.24578,7.24578,0,0,0,0-10.14359,7.37218,7.37218,0,0,0-10.21763,0,7.15508,7.15508,0,0,0-.02475,10.11878l.00627.00628Z"/><path class="cls-1" d="M491.74337,65.34294a6.46629,6.46629,0,0,0,0-9.07511,6.56,6.56,0,0,0-9.14456,0,6.407,6.407,0,0,0-.00052,9.06074l.00052.00049A6.25563,6.25563,0,0,0,487.17809,67.17v.01388A6.20632,6.20632,0,0,0,491.74337,65.34294Z"/><path class="cls-2" d="M455.20425,61.267h2.75213a5.382,5.382,0,0,0,3.60785-1.04071,3.52062,3.52062,0,0,0,1.22113-2.82613,3.40658,3.40658,0,0,0-1.22113-2.7984,5.1858,5.1858,0,0,0-3.48761-1.03148h-3.98715V68.03866h1.11478Zm0-6.76706,2.82614-.04159a4.0128,4.0128,0,0,1,2.64111.78166l.1434.15728a.26218.26218,0,0,0,.03241.037,2.89728,2.89728,0,0,1-.2066,4.09216l-.00006.00005-.00147.00134a4.20046,4.20046,0,0,1-2.75216.76785h-2.68271Z"/><path class="cls-2" d="M467.68642,61.12364h1.9982a3.6483,3.6483,0,0,1,2.05832.49489,9.42012,9.42012,0,0,1,1.95652,2.47923l2.5209,3.94089h1.33673l-3.27481-5.00014a6.69489,6.69489,0,0,0-1.9288-2.2202,3.5937,3.5937,0,0,0,2.7521-3.5061,3.33959,3.33959,0,0,0-1.23034-2.72436,5.48667,5.48667,0,0,0-3.56623-1.0176h-3.69577l-.04159,14.49616h1.11471Zm.04163-6.6237h2.36356a4.63391,4.63391,0,0,1,2.82617.754l.333.333a2.72575,2.72575,0,0,1-.31913,3.83913,4.66023,4.66023,0,0,1-2.81228.74008h-2.39127Z"/><path class="cls-2" d="M492.61288,66.06449l.17581-.185c.02777-.03238.05548-.06011.08325-.08783a7.24959,7.24959,0,0,0-.25812-10.24918l-.00091-.00085a7.91222,7.91222,0,0,0-10.8559,0l-.14337.148-.00925.00464a7.33879,7.33879,0,0,0,.15259,10.37022A7.90593,7.90593,0,0,0,492.61288,66.06449Zm-10.01407-.73544a6.407,6.407,0,0,1-.00052-9.06073l.00052-.00049a6.56,6.56,0,0,1,9.14456,0,6.46628,6.46628,0,0,1,0,9.0751,6.20623,6.20623,0,0,1-4.56534,1.84092V67.17a6.2556,6.2556,0,0,1-4.57919-1.841Z"/><path class="cls-2" d="M497.44009,72.25845a2.89925,2.89925,0,0,0,2.13238-.91584,4.69031,4.69031,0,0,0,.89737-3.2748V53.57164H499.3551V68.387c0,1.94268-.666,2.90012-2.03052,2.90012a3.47519,3.47519,0,0,1-.65225-.074l.1018,1.04537Q497.10721,72.27227,497.44009,72.25845Z"/><polygon class="cls-2" points="513.455 67.097 506.531 67.097 506.531 61.227 513.122 61.227 513.122 60.283 506.531 60.283 506.531 54.501 513.298 54.501 513.298 53.572 505.412 53.572 505.412 68.036 513.455 68.036 513.455 67.097"/><path class="cls-2" d="M529.51669,54.6017v.00253c.01965.00942.04046.01572.06.02523Z"/><path class="cls-2" d="M524.54427,68.24219a10.747,10.747,0,0,0,5.11579-1.35065V65.73517a10.92688,10.92688,0,0,1-5.1435,1.44777,6.38131,6.38131,0,0,1-4.65319-1.78541,6.13288,6.13288,0,0,1-1.81318-4.607,6.20855,6.20855,0,0,1,1.81318-4.57917,6.07648,6.07648,0,0,1,4.49127-1.84093,11.06831,11.06831,0,0,1,5.16205,1.44771V54.60423a12.15089,12.15089,0,0,0-5.0279-1.19125,7.54571,7.54571,0,0,0-5.35162,2.13233.53186.53186,0,0,1-.10181.10176l-.00439.00463h-.00025a7.40645,7.40645,0,0,0,.00464,10.472A7.58232,7.58232,0,0,0,524.54427,68.24219Z"/><polygon class="cls-2" points="537.356 68.036 538.489 68.036 538.489 54.501 543.91 54.501 543.91 53.572 531.921 53.572 531.921 54.501 537.356 54.501 537.356 68.036"/><polygon class="cls-2" points="303.755 69.052 303.755 53.024 299.361 53.024 294.421 59.038 289.495 53.024 285.114 53.024 285.114 69.052 289.809 69.052 289.809 59.763 294.176 65.139 294.564 65.139 298.912 59.763 298.912 69.052 303.755 69.052"/><path class="cls-2" d="M312.1751,65.80642h6.9567L320.45,69.05351h4.94461L318.39642,53.0217h-5.40717l-7.09082,16.03181h4.94467Zm3.5062-8.59407,2.34979,5.79565h-4.72266Z"/><rect class="cls-2" x="327.54092" y="53.02487" width="4.82437" height="16.02716"/><polygon class="cls-2" points="341.208 60.124 349.525 69.052 353.817 69.052 353.817 53.024 349.002 53.024 349.002 61.905 340.713 53.024 336.425 53.024 336.425 69.052 341.208 69.052 341.208 60.124"/><polygon class="cls-2" points="362.675 62.559 369.326 62.559 369.326 59.344 362.675 59.344 362.675 56.24 369.326 56.24 369.326 53.021 357.846 53.021 357.846 69.052 362.675 69.052 362.675 62.559"/><path class="cls-2" d="M379.31588,62.95064a2.68942,2.68942,0,0,1,1.08237.92509,12.41822,12.41822,0,0,1,1.24884,2.28027l1.25812,2.89553H388.095l-1.57727-3.50605a12.79061,12.79061,0,0,0-1.42-2.47925,4.449,4.449,0,0,0-1.27661-1.07309,10.99607,10.99607,0,0,0,1.17483-.72621,3.75933,3.75933,0,0,0,.98523-1.21643,4.07662,4.07662,0,0,0,.46256-2.05832,5.06539,5.06539,0,0,0-.55048-2.20169,4.86746,4.86746,0,0,0-1.84091-1.95661,5.92514,5.92514,0,0,0-3.26093-.80944H372.572V69.01h4.84287V62.74716h.53656A3.92672,3.92672,0,0,1,379.31588,62.95064Zm-1.90109-6.85489h1.013a4.73109,4.73109,0,0,1,2.36365.44868,1.62152,1.62152,0,0,1,.74008,1.53559v.04632a1.6184,1.6184,0,0,1-.65225,1.44776,5.41679,5.41679,0,0,1-2.433.39316h-1.03149Z"/><path class="cls-2" d="M394.677,65.80642h6.95664l1.30435,3.24709h4.94461l-7.063-16.03181h-5.347l-7.08612,16.03181h4.95849Zm3.49222-8.59407,2.34973,5.79565h-4.71328Z"/><polygon class="cls-2" points="414.705 59.763 419.086 65.139 419.46 65.139 423.827 59.763 423.827 69.052 428.651 69.052 428.651 53.024 424.275 53.024 419.317 59.038 414.405 53.024 410.01 53.024 410.01 69.052 414.705 69.052 414.705 59.763"/><polygon class="cls-2" points="444.783 65.819 437.535 65.819 437.535 62.4 444.261 62.4 444.261 59.167 437.535 59.167 437.535 56.239 444.58 56.239 444.58 53.024 432.697 53.024 432.697 69.052 444.783 69.052 444.783 65.819"/><path class="cls-2" d="M231.18173,67.75972l.20352-.19888a.14155.14155,0,0,1,.037-.037,8.17582,8.17582,0,0,0-.24052-11.559,8.30713,8.30713,0,0,0-6.07319-2.40522v.04163a8.34411,8.34411,0,0,0-6.0455,2.40523l-.15722.1619a8.2013,8.2013,0,0,0,.15722,11.59135A8.83814,8.83814,0,0,0,231.18173,67.75972Zm-11.18895-10.953a7.37216,7.37216,0,0,1,10.21763,0,7.24577,7.24577,0,0,1,0,10.14358,7.36935,7.36935,0,0,1-10.21763,0l-.01848-.01851a7.15506,7.15506,0,0,1,.0122-10.11879h0l.00629-.00626Z"/><path class="cls-2" d="M237.8901,62.372h3.08974a6.06387,6.06387,0,0,0,4.01493-1.17484,4.22661,4.22661,0,0,0,.08783-6.29063,5.99454,5.99454,0,0,0-3.91313-1.14712h-4.45425L236.64581,69.893h1.24429Zm.074-7.56722h3.20542a4.32061,4.32061,0,0,1,2.89552.88344.67375.67375,0,0,1,.16191.1619,3.273,3.273,0,0,1-.17576,4.62082,4.83823,4.83823,0,0,1-3.07134.85572h-3.01576Z"/><polygon class="cls-2" points="257.837 68.878 250.08 68.878 250.08 62.314 257.448 62.314 257.448 61.269 250.08 61.269 250.08 54.807 257.647 54.807 257.647 53.762 248.836 53.762 248.836 69.923 257.837 69.923 257.837 68.878"/><polygon class="cls-2" points="261.651 55.787 273.923 69.923 274.954 69.923 274.954 53.762 273.705 53.762 273.705 67.878 261.461 53.762 260.403 53.762 260.403 69.923 261.651 69.923 261.651 55.787"/><polygon class="cls-2" points="216.581 102.014 263.851 102.014 215.06 158.789 215.06 173.616 288.944 173.616 288.944 156.508 240.153 156.508 288.944 99.733 288.944 84.906 216.581 84.906 216.581 102.014"/><path class="cls-2" d="M335.83447,104.422c-21.16394,0-36.87864,15.84117-36.87864,35.35708v.25371c0,19.51668,15.58747,35.10411,36.62491,35.10411,21.16394,0,36.87787-15.84115,36.87787-35.35782v-.253C372.45867,120.00948,356.87118,104.422,335.83447,104.422Zm17.61492,35.61081c0,10.01167-6.5899,18.50254-17.61492,18.50254-10.6456,0-17.86939-8.74458-17.86939-18.75625v-.253c0-10.01167,6.58991-18.50255,17.61566-18.50255,10.64484,0,17.86865,8.74422,17.86865,18.75553Z"/><polygon class="cls-2" points="450.524 147.003 437.598 105.436 420.996 105.436 408.197 146.876 397.298 105.689 377.781 105.689 398.692 174.123 415.927 174.123 429.233 132.429 442.286 174.123 459.648 174.123 480.813 105.689 461.676 105.689 450.524 147.003"/><path class="cls-2" d="M552.796,141.29993c0-19.26259-10.39184-36.87789-33.0766-36.87789-19.76965,0-33.58331,15.96765-33.58331,35.35709v.25371c0,20.78375,15.08075,35.10411,35.48431,35.10411,12.29285,0,21.41694-4.81612,27.75385-12.67308l-11.02582-9.758c-5.32281,4.9426-10.01166,6.97008-16.47436,6.97008-8.61811,0-14.7013-4.56239-16.60157-13.307h47.26978C552.66879,144.59521,552.796,142.82072,552.796,141.29993Zm-47.77719-6.96973c1.52081-8.74458,6.7164-14.44721,14.70053-14.44721,8.11066,0,13.17975,5.82949,14.32038,14.44721Z"/><path class="cls-2" d="M130.1964,44,39.2911,106.6922l62.6922,90.9053,90.9053-62.69221ZM105.18329,156.98517l6.33988-59.48829L80.42491,118.9436,72.6631,107.68875l47.606-32.83119,6.727,9.75426-6.33936,59.488,32.0985-22.13653,7.7622,11.25537L111.91065,166.74Z"/><g class="cls-7"><g class="cls-5"><path class="cls-6" d="M356.94144,334-10,587.05859,243.05856,954,610,700.94141ZM255.9754,790.06732l25.59107-240.12591L156.0376,636.5116,170,599l-45.2933-7.91882,192.16284-132.5239L344.023,497.93057,318.434,738.05511,448.00043,648.7005l31.3323,45.4325L283.13028,829.44257Z"/></g></g><path class="cls-3" d="M45.41219,396.96094H34.28671V377.64355H45.41219V381H38.3829v4.24121h6.54052v3.35547H38.3829v4.98144h7.02929Z"/><path class="cls-3" d="M67.7662,396.96094H63.08846l-4.49218-7.30664-4.49268,7.30664H49.71688l6.4082-9.96289-5.99853-9.3545h4.519l4.16211,6.9502,4.08252-6.9502h4.41309l-6.06446,9.57911Z"/><path class="cls-3" d="M86.24862,383.669a5.9022,5.9022,0,0,1-1.94873,4.76953,8.33384,8.33384,0,0,1-5.543,1.65136H76.9996v6.8711H72.9034V377.64355h6.17041a8.20652,8.20652,0,0,1,5.34473,1.5127A5.51637,5.51637,0,0,1,86.24862,383.669Zm-9.249,3.06543h1.34765a4.486,4.486,0,0,0,2.82764-.74708,2.61115,2.61115,0,0,0,.938-2.17382,2.67907,2.67907,0,0,0-.78614-2.127A3.6842,3.6842,0,0,0,78.86239,381H76.9996Z"/><path class="cls-3" d="M92.60116,396.96094V377.64355h4.09619v15.93457h7.83545v3.38282Z"/><path class="cls-3" d="M128.1285,387.27539q0,4.79736-2.37842,7.373a10.30694,10.30694,0,0,1-13.63574,0q-2.37817-2.57667-2.37842-7.39942,0-4.82226,2.38526-7.36621,2.38476-2.543,6.8374-2.543,4.45313,0,6.81152,2.56348T128.1285,387.27539Zm-14.09814,0a8.07217,8.07217,0,0,0,1.22851,4.876,4.29851,4.29851,0,0,0,3.67334,1.63867q4.90211,0,4.90235-6.51465,0-6.52734-4.876-6.52734a4.32967,4.32967,0,0,0-3.68652,1.6455A8.03853,8.03853,0,0,0,114.03036,387.27539Z"/><path class="cls-3" d="M138.93465,389.54883v7.41211h-4.09619V377.64355h5.62891q3.9375,0,5.82666,1.4336a5.71541,5.71541,0,0,1,.95166,7.38574,6.20366,6.20366,0,0,1-2.65576,2.08106q4.36011,6.51416,5.68164,8.417h-4.54541l-4.61133-7.41211Zm0-3.33008h1.32129a5.05473,5.05473,0,0,0,2.86719-.64746,2.31151,2.31151,0,0,0,.92481-2.03516,2.11321,2.11321,0,0,0-.94483-1.95508A5.73054,5.73054,0,0,0,140.17684,381h-1.24219Z"/><path class="cls-3" d="M166.53378,396.96094H155.40829V377.64355h11.12549V381h-7.0293v4.24121H166.045v3.35547h-6.54053v4.98144h7.0293Z"/><path class="cls-3" d="M177.36581,389.54883v7.41211h-4.09619V377.64355h5.6289q3.9375,0,5.82666,1.4336a5.71541,5.71541,0,0,1,.95166,7.38574,6.20366,6.20366,0,0,1-2.65576,2.08106q4.36011,6.51416,5.68164,8.417h-4.54541l-4.61133-7.41211Zm0-3.33008h1.32129a5.05471,5.05471,0,0,0,2.86718-.64746,2.31151,2.31151,0,0,0,.92481-2.03516,2.11319,2.11319,0,0,0-.94483-1.95508A5.73054,5.73054,0,0,0,178.608,381h-1.24218Z"/><path class="cls-3" d="M207.60555,396.96094h-4.03027V377.64355H214.648V381h-7.04248v4.98047h6.55323v3.34375h-6.55323Z"/><path class="cls-3" d="M238.66659,387.27539q0,4.79736-2.37842,7.373a10.30694,10.30694,0,0,1-13.63574,0q-2.37818-2.57667-2.37842-7.39942,0-4.82226,2.38525-7.36621,2.38478-2.543,6.83741-2.543,4.45313,0,6.81152,2.56348T238.66659,387.27539Zm-14.09815,0a8.0721,8.0721,0,0,0,1.22852,4.876A4.29851,4.29851,0,0,0,229.4703,393.79q4.90211,0,4.90234-6.51465,0-6.52734-4.876-6.52734a4.32969,4.32969,0,0,0-3.68653,1.6455A8.0386,8.0386,0,0,0,224.56844,387.27539Z"/><path class="cls-3" d="M249.47225,389.54883v7.41211h-4.09619V377.64355H251.005q3.9375,0,5.82666,1.4336a5.71541,5.71541,0,0,1,.95166,7.38574,6.20366,6.20366,0,0,1-2.65576,2.08106q4.3601,6.51416,5.68164,8.417h-4.54541l-4.61133-7.41211Zm0-3.33008h1.32129a5.05475,5.05475,0,0,0,2.86719-.64746,2.31151,2.31151,0,0,0,.9248-2.03516,2.11321,2.11321,0,0,0-.94482-1.95508A5.73054,5.73054,0,0,0,250.71444,381h-1.24219Z"/><path class="cls-3" d="M286.70126,377.64355H290.837l-6.5669,19.31739h-4.46582l-6.55371-19.31739h4.13574l3.63379,11.49512q.30322,1.01807.62745,2.37207.32373,1.35353.40283,1.88281a33.87909,33.87909,0,0,1,.99121-4.25488Z"/><path class="cls-3" d="M307.37655,391.59668a4.99061,4.99061,0,0,1-1.88281,4.12207,8.17829,8.17829,0,0,1-5.23828,1.50684,12.29964,12.29964,0,0,1-5.47022-1.16309v-3.80566a22.5132,22.5132,0,0,0,3.30957,1.22949,9.81791,9.81791,0,0,0,2.47705.35644,3.52356,3.52356,0,0,0,2.06836-.51562,1.762,1.762,0,0,0,.7207-1.53223,1.68222,1.68222,0,0,0-.31836-1.01074,3.54245,3.54245,0,0,0-.93164-.85254,23.81659,23.81659,0,0,0-2.5039-1.30859,11.82536,11.82536,0,0,1-2.65479-1.59864,5.998,5.998,0,0,1-1.41406-1.7832,5.09169,5.09169,0,0,1-.52832-2.37891,4.99091,4.99091,0,0,1,1.7373-4.02929,7.21583,7.21583,0,0,1,4.80323-1.4668,11.30836,11.30836,0,0,1,2.873.35645,19.82279,19.82279,0,0,1,2.86133,1.0039l-1.32226,3.18457a19.19565,19.19565,0,0,0-2.55664-.88476,8.194,8.194,0,0,0-1.98829-.251,2.63031,2.63031,0,0,0-1.7832.541,1.78808,1.78808,0,0,0-.62109,1.41406,1.74656,1.74656,0,0,0,.251.94433,2.75141,2.75141,0,0,0,.79981.78028,24.76306,24.76306,0,0,0,2.5957,1.35449,10.33346,10.33346,0,0,1,3.71289,2.5957A5.06642,5.06642,0,0,1,307.37655,391.59668Z"/><path class="cls-3" d="M331.526,380.77539a4.17392,4.17392,0,0,0-3.58105,1.73731,8.08281,8.08281,0,0,0-1.26856,4.84277q0,6.46,4.84961,6.46094a15.3224,15.3224,0,0,0,4.92871-1.01758v3.43555a13.69983,13.69983,0,0,1-5.3125.99121,8.1007,8.1007,0,0,1-6.44726-2.55664q-2.23389-2.55762-2.2334-7.34083a11.98155,11.98155,0,0,1,1.09668-5.27832,7.923,7.923,0,0,1,3.15137-3.4746,9.316,9.316,0,0,1,4.8164-1.209,13.00224,13.00224,0,0,1,5.65528,1.36035L335.86,382.05664a21.92836,21.92836,0,0,0-2.18067-.89844A6.49447,6.49447,0,0,0,331.526,380.77539Z"/><path class="cls-3" d="M360.80331,387.27539q0,4.79736-2.37793,7.373a10.30694,10.30694,0,0,1-13.63574,0q-2.37891-2.57667-2.37891-7.39942,0-4.82226,2.38476-7.36621,2.38477-2.543,6.8379-2.543t6.81152,2.56348Q360.8033,382.46679,360.80331,387.27539Zm-14.09864,0a8.06835,8.06835,0,0,0,1.2295,4.876A4.29756,4.29756,0,0,0,351.607,393.79q4.90283,0,4.90234-6.51465,0-6.52734-4.876-6.52734a4.32908,4.32908,0,0,0-3.68653,1.6455A8.03508,8.03508,0,0,0,346.70467,387.27539Z"/><path class="cls-3" d="M383.54061,387.11719q0,4.76953-2.71582,7.30664-2.71436,2.5371-7.8418,2.53711h-5.46972V377.64355h6.06445q4.73,0,7.34668,2.49707A9.186,9.186,0,0,1,383.54061,387.11719Zm-4.25488.10547q0-6.22266-5.49707-6.22266H371.609v12.57812h1.75684Q379.28525,393.57812,379.28573,387.22266Z"/><path class="cls-3" d="M401.37557,396.96094h-11.125V377.64355h11.125V381h-7.02929v4.24121h6.54v3.35547h-6.54v4.98144h7.02929Z"/><path class="cls-3" d="M416.22128,391.3584v-3.30274h7.0957v3.30274Z"/><path class="cls-3" d="M451.58749,396.96094h-14.376v-2.65625l9.2627-13.27832h-9.01172v-3.38282h13.874v2.64258l-9.249,13.292h9.5Z"/><path class="cls-3" d="M474.90585,387.27539q0,4.79736-2.37793,7.373a10.307,10.307,0,0,1-13.63575,0q-2.37889-2.57667-2.3789-7.39942,0-4.82226,2.38476-7.36621,2.38478-2.543,6.83789-2.543t6.81153,2.56348Q474.90584,382.46679,474.90585,387.27539Zm-14.09864,0a8.06835,8.06835,0,0,0,1.2295,4.876,4.29755,4.29755,0,0,0,3.67285,1.63867q4.90283,0,4.90234-6.51465,0-6.52734-4.876-6.52734a4.32907,4.32907,0,0,0-3.68652,1.6455A8.03508,8.03508,0,0,0,460.80721,387.27539Z"/><path class="cls-3" d="M500.43124,396.96094h-4.665L493.15,386.81348q-.145-.542-.49512-2.24024-.3501-1.69774-.40332-2.27929-.07911.71484-.39649,2.293-.31639,1.57911-.48828,2.25293l-2.60351,10.1211h-4.65039l-4.92871-19.31739h4.03027l2.4707,10.54395q.64746,2.92091.93848,5.06055.07909-.75294.36328-2.332.28272-1.57911.53516-2.45118l2.81347-10.82129h3.87207l2.81446,10.82129q.18456.72657.46191,2.21973.27832,1.49413.42285,2.56348.13184-1.03125.42285-2.57032.29151-1.53809.52832-2.49023l2.458-10.54395h4.03028Z"/><path class="cls-3" d="M521.609,396.96094H510.484V377.64355h11.125V381h-7.0293v4.24121h6.54v3.35547h-6.54v4.98144h7.0293Z"/><path class="cls-3" d="M549.10018,377.64355h4.13574l-6.56738,19.31739h-4.46582L535.649,377.64355h4.13574l3.63379,11.49512q.30322,1.01807.62695,2.37207.32373,1.35353.40332,1.88281a33.87967,33.87967,0,0,1,.99122-4.25488Z"/><path class="cls-3" d="M567.12069,396.96094h-4.083V385.78223l.03906-1.83594.06641-2.00879q-1.01807,1.01807-1.41406,1.335l-2.21973,1.7832-1.96875-2.457,6.22363-4.95508h3.35645Z"/></svg>