<?xml version="1.0" encoding="utf-8"?>
<!-- Generator: Adobe Illustrator 25.4.1, SVG Export Plug-In . SVG Version: 6.00 Build 0)  -->
<svg version="1.1" id="Layer_1" xmlns="http://www.w3.org/2000/svg" xmlns:xlink="http://www.w3.org/1999/xlink" x="0px" y="0px"
	 viewBox="0 0 601.4 443.9" style="enable-background:new 0 0 601.4 443.9;" xml:space="preserve">
<style type="text/css">
	.st0{fill:#FFFFFF;}
	.st1{fill:#488EFF;}
	.st2{clip-path:url(#SVGID_00000032617265822971500410000013447550345737449602_);}
	.st3{opacity:0.9;}
	.st4{fill:#3274F9;}
	.st5{fill:none;}
	.st6{display:none;}
	.st7{display:inline;}
	.st8{clip-path:url(#SVGID_00000057859264829962078650000014252678433682994597_);}
</style>
<rect x="2.5" y="333.2" class="st0" width="596.4" height="107.4"/>
<path class="st1" d="M597.1,336.5v103.8H4.3V336.5H597.1 M600.7,332.9H0.7v111h600V332.9z"/>
<path class="st1" d="M64,0h473.3c35,0,63.3,28.4,63.3,63.3v253H0.7v-253C0.7,28.4,29.1,0,64,0L64,0L64,0z"/>
<g>
	<g>
		<g>
			<defs>
				<path id="SVGID_1_" d="M64,0h473.3c35,0,63.3,28.4,63.3,63.3v253H0.7v-253C0.7,28.4,29.1,0,64,0L64,0L64,0z"/>
			</defs>
			<clipPath id="SVGID_00000021106806862835301700000001113401191101014180_">
				<use xlink:href="#SVGID_1_"  style="overflow:visible;"/>
			</clipPath>
			<g style="clip-path:url(#SVGID_00000021106806862835301700000001113401191101014180_);">
				<g class="st3">
					<path class="st4" d="M356.2-141L-10.7,112.1l253,366.9l366.9-253.1L356.2-141z M255.3,315.1L280.9,75l-125.5,86.6l14-37.5
						l-45.3-7.9L316.2-16.4L343.4,23l-25.6,240.1l129.6-89.4l31.3,45.4L282.4,354.4L255.3,315.1z"/>
				</g>
			</g>
		</g>
	</g>
</g>
<path class="st0" d="M157,216.5c-4.7,0-8.3,1.6-11,4.7c-2.7,3.1-4,7.3-4,12.7c0,5.5,1.3,9.8,3.9,12.8c2.6,3,6.3,4.5,11.1,4.5
	c3.4-0.1,6.8-0.6,10.1-1.6v4.3c-3.5,1.2-7.2,1.7-10.9,1.7c-6.2,0-11.1-1.9-14.4-5.7c-3.4-3.8-5.1-9.2-5.1-16.1
	c-0.1-4,0.8-7.9,2.4-11.5c1.5-3.2,4-5.8,7.1-7.6c3.3-1.8,7.1-2.8,10.9-2.7c4-0.1,8,0.7,11.6,2.4l-2.1,4.2
	C163.6,217.3,160.3,216.6,157,216.5z"/>
<path class="st0" d="M202.9,239.2c0,5.2-1.3,9.2-3.9,12.1c-2.6,2.9-6.2,4.4-10.8,4.4c-2.7,0-5.3-0.6-7.6-2c-2.2-1.4-4-3.4-5.1-5.7
	c-1.3-2.7-1.9-5.7-1.8-8.8c0-5.2,1.3-9.2,3.9-12.1c2.6-2.9,6.2-4.3,10.8-4.3c4-0.2,7.9,1.4,10.6,4.4
	C201.6,230.2,202.9,234.2,202.9,239.2z M178.7,239.2c0,4.1,0.8,7.1,2.4,9.3c3.6,4,9.7,4.3,13.6,0.7c0.2-0.2,0.5-0.4,0.7-0.7
	c1.6-2.1,2.4-5.2,2.4-9.3c0-4-0.8-7.1-2.4-9.2c-1.6-2.1-4-3.1-7.2-3.1c-3.1,0-5.5,1-7.1,3.1C179.5,232,178.7,235.1,178.7,239.2z"/>
<path class="st0" d="M233.1,255.1v-20.5c0-2.6-0.6-4.5-1.8-5.8s-3-1.9-5.5-1.9c-3.3,0-5.8,0.9-7.3,2.7s-2.3,4.8-2.3,8.9v16.7h-4.8
	v-31.8h3.9l0.8,4.3h0.2c1-1.6,2.4-2.8,4.1-3.6c1.9-0.9,3.9-1.3,5.9-1.3c3.8,0,6.7,0.9,8.6,2.8s2.9,4.8,2.9,8.9v20.7L233.1,255.1z"/>
<path class="st0" d="M262.1,227.1H254v28h-4.8v-28h-5.7v-2.2l5.7-1.7v-1.8c0-7.8,3.4-11.7,10.2-11.7c2,0.1,4,0.4,5.9,1l-1.2,3.9
	c-1.5-0.5-3.1-0.8-4.8-0.9c-1.6-0.1-3.1,0.6-4,1.8s-1.3,3.1-1.3,5.8v2.1h8.1L262.1,227.1z"/>
<path class="st0" d="M295.3,239.2c0,5.2-1.3,9.2-3.9,12.1c-2.6,2.9-6.2,4.4-10.8,4.4c-2.7,0-5.3-0.6-7.6-2c-2.2-1.4-4-3.4-5.1-5.7
	c-1.3-2.7-1.9-5.7-1.8-8.8c0-5.2,1.3-9.2,3.9-12.1c2.6-2.9,6.2-4.3,10.8-4.3c4-0.2,7.9,1.4,10.6,4.4
	C294,230.2,295.3,234.2,295.3,239.2z M271.1,239.2c0,4.1,0.8,7.1,2.4,9.3c3.6,4,9.7,4.3,13.6,0.7c0.2-0.2,0.5-0.4,0.7-0.7
	c1.6-2.1,2.4-5.2,2.4-9.3c0-4-0.8-7.1-2.4-9.2c-1.6-2.1-4-3.1-7.2-3.1c-3.1,0-5.5,1-7.1,3.1C271.9,232,271.1,235.1,271.1,239.2z"/>
<path class="st0" d="M318.2,222.8c1.3,0,2.5,0.1,3.8,0.3l-0.7,4.5c-1.1-0.3-2.3-0.4-3.5-0.4c-2.6,0-5,1.1-6.6,3.1
	c-1.9,2.2-2.8,4.9-2.7,7.8v17h-4.8v-31.8h4l0.6,5.9h0.2c1-1.9,2.5-3.5,4.3-4.8C314.4,223.3,316.3,222.8,318.2,222.8z"/>
<path class="st0" d="M368.4,255.1v-20.7c0-2.5-0.5-4.4-1.6-5.7c-1.3-1.4-3.2-2.1-5-1.9c-3,0-5.2,0.9-6.6,2.6
	c-1.4,1.7-2.1,4.4-2.1,7.9V255h-4.8v-20.7c0-2.5-0.5-4.4-1.6-5.7s-2.8-1.9-5.1-1.9c-3,0-5.2,0.9-6.6,2.7s-2.1,4.8-2.1,8.9V255H328
	v-31.8h3.9l0.8,4.3h0.2c0.9-1.5,2.2-2.8,3.8-3.6c1.7-0.9,3.6-1.3,5.5-1.3c5,0,8.2,1.8,9.7,5.4h0.2c1-1.7,2.4-3,4.1-3.9
	c1.9-1,4-1.5,6.1-1.4c3.6,0,6.3,0.9,8.1,2.8c1.8,1.8,2.7,4.8,2.7,8.9v20.7L368.4,255.1L368.4,255.1z"/>
<path class="st0" d="M402.7,255.1l-1-4.5h-0.2c-1.2,1.7-2.9,3.1-4.7,4c-1.9,0.8-3.9,1.1-5.9,1.1c-2.7,0.2-5.3-0.7-7.4-2.4
	c-1.9-1.8-2.8-4.3-2.7-6.9c0-6.4,5.1-9.8,15.4-10.1l5.4-0.2v-2c0-2.5-0.5-4.3-1.6-5.5s-2.8-1.8-5.1-1.8c-3.1,0.1-6.2,1-9,2.4
	l-1.5-3.7c1.6-0.9,3.4-1.5,5.1-2c1.8-0.5,3.7-0.7,5.6-0.7c3.8,0,6.6,0.8,8.4,2.5s2.7,4.4,2.7,8.1v21.7L402.7,255.1z M391.8,251.7
	c2.6,0.1,5.1-0.7,7.1-2.5c1.8-1.8,2.7-4.3,2.6-6.9v-2.9l-4.8,0.2c-3.8,0.1-6.6,0.7-8.3,1.8c-1.7,1-2.7,2.9-2.5,4.9
	c-0.1,1.5,0.5,3,1.6,4C388.7,251.3,390.2,251.8,391.8,251.7z"/>
<path class="st0" d="M437.9,255.1v-20.5c0-2.6-0.6-4.5-1.8-5.8c-1.2-1.3-3-1.9-5.5-1.9c-3.3,0-5.8,0.9-7.3,2.7s-2.3,4.8-2.3,8.9
	v16.7h-4.8v-31.8h3.9l0.8,4.3h0.2c1-1.6,2.4-2.8,4.1-3.6c1.9-0.9,3.9-1.3,5.9-1.3c3.8,0,6.7,0.9,8.6,2.8s2.9,4.8,2.9,8.9v20.7
	L437.9,255.1L437.9,255.1z"/>
<path class="st0" d="M462.8,251.7c0.8,0,1.6-0.1,2.5-0.2c0.6-0.1,1.3-0.2,1.9-0.4v3.7c-0.7,0.3-1.5,0.5-2.3,0.6
	c-0.9,0.2-1.8,0.2-2.7,0.2c-6.1,0-9.2-3.2-9.2-9.7V227h-4.5v-2.3l4.5-2l2-6.8h2.8v7.4h9.2v3.7h-9.2v18.7c-0.1,1.6,0.4,3.2,1.4,4.4
	C460,251.2,461.4,251.8,462.8,251.7z"/>
<path class="st0" d="M143.1,103.2L143.1,103.2L143.1,103.2z"/>
<path class="st5" d="M380.9,59.6c0.5-0.3,0.7-0.9,0.7-1.4l0,0c0.1-0.6-0.2-1.2-0.7-1.5c-0.7-0.4-1.6-0.5-2.4-0.4h-1V60h1
	C379.3,60,380.1,59.9,380.9,59.6z"/>
<path class="st5" d="M472.9,59.4c1.1-1,1.3-2.7,0.3-3.8l-0.3-0.3c-0.8-0.5-1.8-0.8-2.8-0.8h-2.4v5.7h2.4
	C471.1,60.2,472.1,60,472.9,59.4z"/>
<path class="st5" d="M460.6,59.5c1.2-1.1,1.3-2.9,0.2-4.1l0,0l0,0l0,0l0,0l-0.1-0.2c-0.8-0.6-1.7-0.8-2.6-0.8h-2.8v5.8h2.7
	C458.9,60.4,459.8,60.1,460.6,59.5z"/>
<path class="st5" d="M335.6,121c-11,0-17.6,8.5-17.6,18.5v0.3c0,10,7.2,18.8,17.9,18.8c11,0,17.6-8.5,17.6-18.5v-0.3
	C353.4,129.8,346.2,121,335.6,121z"/>
<polygon class="st5" points="398.2,57.2 395.8,63 400.5,63 "/>
<path class="st5" d="M244.1,60.5c1.3-1.2,1.4-3.3,0.2-4.6c0-0.1-0.1-0.1-0.2-0.2c-0.8-0.6-1.9-0.9-2.9-0.9H238v6.5h3
	C242.1,61.4,243.2,61.1,244.1,60.5z"/>
<path class="st5" d="M519.7,119.9c-8,0-13.2,5.7-14.7,14.4h29C532.9,125.7,527.8,119.9,519.7,119.9z"/>
<polygon class="st5" points="315.7,57.2 313.3,63 318,63 "/>
<path class="st5" d="M220,67c2.9,2.7,7.4,2.7,10.2,0c2.8-2.8,2.8-7.3,0-10.1c-2.9-2.7-7.4-2.7-10.2,0C217.2,59.6,217.2,64.1,220,67
	L220,67L220,67z"/>
<path class="st5" d="M491.7,65.3c2.5-2.5,2.5-6.6,0-9.1s-6.6-2.5-9.1,0s-2.5,6.6,0,9.1l0,0c1.2,1.2,2.9,1.9,4.6,1.8l0,0
	C488.9,67.2,490.5,66.6,491.7,65.3z"/>
<path class="st0" d="M455.2,61.3h2.8c1.3,0.1,2.6-0.3,3.6-1c0.8-0.7,1.3-1.7,1.2-2.8c0.1-1.1-0.4-2.1-1.2-2.8c-1-0.8-2.2-1.1-3.5-1
	h-4V68h1.1V61.3z M455.2,54.5h2.8c0.9-0.1,1.9,0.2,2.6,0.8l0.1,0.2l0,0c1.1,1.2,1,3-0.2,4.1l0,0l0,0c-0.8,0.6-1.8,0.8-2.8,0.8H455
	L455.2,54.5z"/>
<path class="st0" d="M467.7,61.1h2c0.7,0,1.4,0.1,2.1,0.5c0.8,0.7,1.4,1.5,2,2.5l2.5,3.9h1.3l-3.3-5c-0.5-0.9-1.1-1.6-1.9-2.2
	c1.6-0.4,2.8-1.8,2.8-3.5c0-1.1-0.4-2.1-1.2-2.7c-1-0.7-2.3-1.1-3.6-1h-3.7v14.5h1.1L467.7,61.1z M467.7,54.5h2.4
	c1-0.1,2,0.2,2.8,0.8l0.3,0.3c1,1.1,0.8,2.9-0.3,3.8c-0.8,0.5-1.8,0.8-2.8,0.7h-2.4V54.5z"/>
<path class="st0" d="M492.6,66.1l0.2-0.2l0.1-0.1c2.8-2.9,2.6-7.5-0.3-10.2l0,0c-3-2.9-7.8-2.9-10.9,0l-0.1,0.1l0,0
	c-2.8,2.9-2.8,7.5,0.2,10.4C484.8,68.9,489.6,68.9,492.6,66.1z M482.6,65.3c-2.5-2.5-2.5-6.6,0-9.1l0,0c2.5-2.5,6.6-2.5,9.1,0
	s2.5,6.6,0,9.1c-1.2,1.2-2.9,1.9-4.6,1.8l0,0C485.5,67.2,483.8,66.5,482.6,65.3L482.6,65.3z"/>
<path class="st0" d="M497.4,72.3c0.8,0,1.6-0.3,2.1-0.9c0.7-0.9,1-2.1,0.9-3.3V53.6h-1.1v14.8c0,1.9-0.7,2.9-2,2.9
	c-0.2,0-0.4,0-0.7-0.1l0.1,1C497,72.3,497.2,72.3,497.4,72.3z"/>
<polygon class="st0" points="513.5,67.1 506.5,67.1 506.5,61.2 513.1,61.2 513.1,60.3 506.5,60.3 506.5,54.5 513.3,54.5 513.3,53.6 
	505.4,53.6 505.4,68 513.5,68 "/>
<path class="st0" d="M529.5,54.6L529.5,54.6C529.5,54.6,529.6,54.6,529.5,54.6L529.5,54.6z"/>
<path class="st0" d="M524.5,68.2c1.8,0,3.5-0.5,5.1-1.4v-1.2c-1.6,0.9-3.3,1.4-5.1,1.4c-1.7,0.1-3.4-0.6-4.7-1.8
	c-1.2-1.2-1.9-2.9-1.8-4.6c-0.1-1.7,0.6-3.4,1.8-4.6c1.2-1.2,2.8-1.9,4.5-1.8c1.8,0.1,3.6,0.5,5.2,1.4v-1.2c-1.6-0.8-3.3-1.2-5-1.2
	c-2,0-3.9,0.7-5.4,2.1l-0.1,0.1l0,0l0,0c-2.9,2.9-2.9,7.6,0,10.5C520.5,67.5,522.5,68.3,524.5,68.2z"/>
<polygon class="st0" points="537.4,68 538.5,68 538.5,54.5 543.9,54.5 543.9,53.6 531.9,53.6 531.9,54.5 537.4,54.5 "/>
<polygon class="st0" points="303.8,69.1 303.8,53 299.4,53 294.4,59 289.5,53 285.1,53 285.1,69.1 289.8,69.1 289.8,59.8 
	294.2,65.1 294.6,65.1 298.9,59.8 298.9,69.1 "/>
<path class="st0" d="M312.2,65.8h7l1.3,3.2h4.9l-7-16H313l-7.1,16h4.9L312.2,65.8z M315.7,57.2L318,63h-4.7L315.7,57.2z"/>
<rect x="327.5" y="53" class="st0" width="4.8" height="16"/>
<polygon class="st0" points="341.2,60.1 349.5,69.1 353.8,69.1 353.8,53 349,53 349,61.9 340.7,53 336.4,53 336.4,69.1 341.2,69.1 
	"/>
<polygon class="st0" points="362.7,62.6 369.3,62.6 369.3,59.3 362.7,59.3 362.7,56.2 369.3,56.2 369.3,53 357.8,53 357.8,69.1 
	362.7,69.1 "/>
<path class="st0" d="M379.3,63c0.4,0.2,0.8,0.5,1.1,0.9c0.5,0.7,0.9,1.5,1.2,2.3l1.3,2.9h5.2l-1.6-3.5c-0.4-0.9-0.9-1.7-1.4-2.5
	c-0.4-0.4-0.8-0.8-1.3-1.1c0.4-0.2,0.8-0.5,1.2-0.7c0.4-0.3,0.7-0.7,1-1.2c0.3-0.6,0.5-1.3,0.5-2.1s-0.2-1.5-0.6-2.2
	c-0.4-0.8-1.1-1.5-1.8-2c-1-0.6-2.1-0.9-3.3-0.8h-8.2v16h4.8v-6.3h0.5C378.4,62.7,378.9,62.8,379.3,63z M377.4,56.1h1
	c0.8-0.1,1.6,0.1,2.4,0.4c0.5,0.3,0.8,0.9,0.7,1.5l0,0c0.1,0.6-0.2,1.1-0.7,1.4c-0.8,0.3-1.6,0.5-2.4,0.4h-1V56.1z"/>
<path class="st0" d="M394.7,65.8h7L403,69h4.9l-7.1-16h-5.3l-7.1,16h5L394.7,65.8z M398.2,57.2l2.3,5.8h-4.7L398.2,57.2z"/>
<polygon class="st0" points="414.7,59.8 419.1,65.1 419.5,65.1 423.8,59.8 423.8,69.1 428.7,69.1 428.7,53 424.3,53 419.3,59 
	414.4,53 410,53 410,69.1 414.7,69.1 "/>
<polygon class="st0" points="444.8,65.8 437.5,65.8 437.5,62.4 444.3,62.4 444.3,59.2 437.5,59.2 437.5,56.2 444.6,56.2 444.6,53 
	432.7,53 432.7,69.1 444.8,69.1 "/>
<path class="st0" d="M231.2,67.8l0.2-0.2l0,0c3.1-3.3,3-8.4-0.2-11.6c-1.6-1.6-3.8-2.5-6.1-2.4l0,0c-2.3,0-4.4,0.8-6,2.4l-0.2,0.2
	c-3.2,3.2-3.1,8.4,0.2,11.6C222.5,71,227.8,71,231.2,67.8z M220,56.8c2.9-2.7,7.4-2.7,10.2,0c2.8,2.8,2.8,7.3,0,10.1
	c-2.9,2.7-7.4,2.7-10.2,0l0,0C217.2,64.1,217.2,59.6,220,56.8L220,56.8L220,56.8L220,56.8L220,56.8z"/>
<path class="st0" d="M237.9,62.4h3.1c1.4,0.1,2.9-0.3,4-1.2c1.8-1.5,1.9-4.2,0.4-6c-0.1-0.1-0.2-0.2-0.3-0.3
	c-1.1-0.8-2.5-1.2-3.9-1.1h-4.5l-0.1,16.1h1.2v-7.5H237.9z M238,54.8h3.2c1-0.1,2.1,0.2,2.9,0.9c0.1,0,0.1,0.1,0.2,0.2
	c1.2,1.3,1.1,3.4-0.2,4.6c-0.9,0.6-2,0.9-3.1,0.9h-3L238,54.8z"/>
<polygon class="st0" points="257.8,68.9 250.1,68.9 250.1,62.3 257.4,62.3 257.4,61.3 250.1,61.3 250.1,54.8 257.6,54.8 257.6,53.8 
	248.8,53.8 248.8,69.9 257.8,69.9 "/>
<polygon class="st0" points="261.7,55.8 273.9,69.9 275,69.9 275,53.8 273.7,53.8 273.7,67.9 261.5,53.8 260.4,53.8 260.4,69.9 
	261.7,69.9 "/>
<polygon class="st0" points="216.6,102 263.9,102 215.1,158.8 215.1,173.6 288.9,173.6 288.9,156.5 240.2,156.5 288.9,99.7 
	288.9,84.9 216.6,84.9 "/>
<path class="st0" d="M335.8,104.4c-21.2,0-36.9,15.8-36.9,35.4v0.3c0,19.5,15.6,35.1,36.6,35.1c21.2,0,36.9-15.8,36.9-35.4v-0.3
	C372.5,120,356.9,104.4,335.8,104.4z M353.4,140c0,10-6.6,18.5-17.6,18.5c-10.6,0-17.9-8.7-17.9-18.8v-0.3c0-10,6.6-18.5,17.6-18.5
	c10.6,0,17.9,8.7,17.9,18.8V140z"/>
<polygon class="st0" points="450.5,147 437.6,105.4 421,105.4 408.2,146.9 397.3,105.7 377.8,105.7 398.7,174.1 415.9,174.1 
	429.2,132.4 442.3,174.1 459.6,174.1 480.8,105.7 461.7,105.7 "/>
<path class="st0" d="M552.8,141.3c0-19.3-10.4-36.9-33.1-36.9c-19.8,0-33.6,16-33.6,35.4v0.3c0,20.8,15.1,35.1,35.5,35.1
	c12.3,0,21.4-4.8,27.8-12.7l-11-9.8c-5.3,4.9-10,7-16.5,7c-8.6,0-14.7-4.6-16.6-13.3h47.3C552.7,144.6,552.8,142.8,552.8,141.3z
	 M505,134.3c1.5-8.7,6.7-14.4,14.7-14.4c8.1,0,13.2,5.8,14.3,14.4H505z"/>
<path class="st0" d="M130.2,44l-90.9,62.7l62.7,90.9l90.9-62.7L130.2,44z M105.2,157l6.3-59.5l-31.1,21.4l-7.8-11.3l47.6-32.8
	l6.7,9.8l-6.3,59.5l32.1-22.1l7.8,11.3l-48.6,33.5L105.2,157z"/>
<g class="st6">
	<g class="st7">
		<g>
			<defs>
				<path id="SVGID_00000057149291520671427120000003702716283927182217_" d="M64.8,475h473.3c35,0,63.3,28.4,63.3,63.3v253H1.4
					v-253C1.4,503.4,29.8,475,64.8,475L64.8,475z"/>
			</defs>
			<clipPath id="SVGID_00000080176780671808898910000017539018728554798783_">
				<use xlink:href="#SVGID_00000057149291520671427120000003702716283927182217_"  style="overflow:visible;"/>
			</clipPath>
			<g style="clip-path:url(#SVGID_00000080176780671808898910000017539018728554798783_);">
				<g class="st3">
					<path class="st4" d="M356.9,334L-10,587.1L243.1,954L610,700.9L356.9,334z M256,790.1L281.6,550L156,636.5l14-37.5l-45.3-7.9
						l192.2-132.5l27.2,39.4l-25.6,240.1L448,648.7l31.3,45.4L283.1,829.4L256,790.1z"/>
				</g>
			</g>
		</g>
	</g>
</g>
<g>
	<path class="st1" d="M34.6,379.2H23.5v-19.3h11.1v3.3h-7v4.2h6.5v3.3h-6.5v5h7V379.2z"/>
	<path class="st1" d="M55.6,379.2h-4.7l-4.5-7.3l-4.5,7.3h-4.4l6.4-9.9l-6-9.3h4.5l4.2,6.9l4.1-6.9h4.4l-6.1,9.6L55.6,379.2z"/>
	<path class="st1" d="M72.7,365.9c0,2.1-0.6,3.7-1.9,4.8c-1.3,1.1-3.1,1.6-5.5,1.6h-1.8v6.9h-4.1v-19.3h6.2c2.3,0,4.1,0.5,5.3,1.5
		C72.1,362.4,72.7,363.9,72.7,365.9z M63.5,369h1.3c1.3,0,2.2-0.2,2.8-0.7c0.6-0.5,0.9-1.2,0.9-2.2s-0.3-1.7-0.8-2.1
		s-1.3-0.7-2.5-0.7h-1.9v5.7L63.5,369L63.5,369z"/>
	<path class="st1" d="M77.7,379.2v-19.3h4.1v15.9h7.8v3.4H77.7z"/>
	<path class="st1" d="M111.8,369.5c0,3.2-0.8,5.6-2.4,7.4c-1.6,1.7-3.8,2.6-6.8,2.6s-5.2-0.9-6.8-2.6c-1.6-1.7-2.4-4.2-2.4-7.4
		s0.8-5.7,2.4-7.4c1.6-1.7,3.9-2.5,6.8-2.5s5.2,0.9,6.8,2.6C111,363.9,111.8,366.3,111.8,369.5z M97.7,369.5c0,2.2,0.4,3.8,1.2,4.9
		s2,1.6,3.7,1.6c3.3,0,4.9-2.2,4.9-6.5s-1.6-6.5-4.9-6.5c-1.6,0-2.9,0.5-3.7,1.6S97.7,367.4,97.7,369.5z"/>
	<path class="st1" d="M121.2,371.8v7.4h-4.1v-19.3h5.6c2.6,0,4.6,0.5,5.8,1.4c1.3,1,1.9,2.4,1.9,4.3c0,1.1-0.3,2.1-0.9,3
		c-0.6,0.9-1.5,1.6-2.6,2.1c2.9,4.3,4.8,7.1,5.7,8.4H128l-4.6-7.4h-2.2C121.2,371.7,121.2,371.8,121.2,371.8z M121.2,368.4h1.3
		c1.3,0,2.2-0.2,2.9-0.6s0.9-1.1,0.9-2s-0.3-1.6-0.9-2s-1.6-0.6-2.9-0.6h-1.2v5.2H121.2z"/>
	<path class="st1" d="M147.4,379.2h-11.1v-19.3h11.1v3.3h-7v4.2h6.5v3.3h-6.5v5h7V379.2z"/>
	<path class="st1" d="M156.9,371.8v7.4h-4.1v-19.3h5.6c2.6,0,4.6,0.5,5.8,1.4c1.3,1,1.9,2.4,1.9,4.3c0,1.1-0.3,2.1-0.9,3
		c-0.6,0.9-1.5,1.6-2.6,2.1c2.9,4.3,4.8,7.1,5.7,8.4h-4.5l-4.6-7.4h-2.3L156.9,371.8L156.9,371.8z M156.9,368.4h1.3
		c1.3,0,2.2-0.2,2.9-0.6s0.9-1.1,0.9-2s-0.3-1.6-0.9-2s-1.6-0.6-2.9-0.6H157v5.2H156.9z"/>
	<path class="st1" d="M184.3,379.2h-4v-19.3h11v3.3h-7v5h6.5v3.3h-6.5V379.2z"/>
	<path class="st1" d="M214,369.5c0,3.2-0.8,5.6-2.4,7.4c-1.6,1.7-3.8,2.6-6.8,2.6s-5.2-0.9-6.8-2.6s-2.4-4.2-2.4-7.4
		s0.8-5.7,2.4-7.4c1.6-1.7,3.9-2.5,6.8-2.5s5.2,0.9,6.8,2.6C213.2,363.9,214,366.3,214,369.5z M199.9,369.5c0,2.2,0.4,3.8,1.2,4.9
		s2,1.6,3.7,1.6c3.3,0,4.9-2.2,4.9-6.5s-1.6-6.5-4.9-6.5c-1.6,0-2.9,0.5-3.7,1.6C200.3,365.7,199.9,367.4,199.9,369.5z"/>
	<path class="st1" d="M223.4,371.8v7.4h-4.1v-19.3h5.6c2.6,0,4.6,0.5,5.8,1.4c1.3,1,1.9,2.4,1.9,4.3c0,1.1-0.3,2.1-0.9,3
		c-0.6,0.9-1.5,1.6-2.6,2.1c2.9,4.3,4.8,7.1,5.7,8.4h-4.5l-4.6-7.4h-2.3L223.4,371.8L223.4,371.8z M223.4,368.4h1.3
		c1.3,0,2.2-0.2,2.9-0.6s0.9-1.1,0.9-2s-0.3-1.6-0.9-2s-1.6-0.6-2.9-0.6h-1.2v5.2H223.4z"/>
	<path class="st1" d="M257.8,359.9h4.1l-6.6,19.3H251l-6.5-19.3h4.1l3.6,11.5c0.2,0.7,0.4,1.5,0.6,2.4c0.2,0.9,0.3,1.5,0.4,1.9
		c0.1-0.8,0.4-2.2,1-4.2L257.8,359.9z"/>
	<path class="st1" d="M265.7,379.2v-19.3h4.1v19.3H265.7z"/>
	<path class="st1" d="M287.4,373.8c0,1.7-0.6,3.1-1.9,4.1s-3,1.5-5.2,1.5c-2.1,0-3.9-0.4-5.5-1.2v-3.8c1.3,0.6,2.4,1,3.3,1.2
		s1.7,0.4,2.5,0.4c0.9,0,1.6-0.2,2.1-0.5s0.7-0.9,0.7-1.5c0-0.4-0.1-0.7-0.3-1c-0.2-0.3-0.5-0.6-0.9-0.9s-1.2-0.7-2.5-1.3
		c-1.2-0.6-2.1-1.1-2.6-1.6s-1.1-1.1-1.4-1.8s-0.5-1.5-0.5-2.4c0-1.7,0.6-3,1.7-4c1.2-1,2.8-1.5,4.8-1.5c1,0,2,0.1,2.9,0.4
		c0.9,0.2,1.9,0.6,2.9,1l-1.3,3.2c-1-0.4-1.9-0.7-2.6-0.9c-0.7-0.2-1.3-0.3-2-0.3c-0.8,0-1.4,0.2-1.8,0.5s-0.6,0.8-0.6,1.4
		c0,0.4,0.1,0.7,0.3,0.9c0.2,0.3,0.4,0.5,0.8,0.8s1.2,0.7,2.6,1.4c1.8,0.9,3,1.7,3.7,2.6C287.1,371.5,287.4,372.6,287.4,373.8z"/>
	<path class="st1" d="M307.9,359.9v12.5c0,1.4-0.3,2.7-1,3.7s-1.6,1.9-2.8,2.5c-1.2,0.6-2.6,0.9-4.3,0.9c-2.5,0-4.4-0.6-5.8-1.9
		s-2.1-3-2.1-5.2V360h4.1v11.8c0,1.5,0.3,2.6,0.9,3.3s1.6,1,3,1c1.3,0,2.3-0.3,2.9-1s0.9-1.8,0.9-3.3V360h4.2L307.9,359.9
		L307.9,359.9z"/>
	<path class="st1" d="M325.8,379.2l-1.4-4.6h-7l-1.4,4.6h-4.4l6.8-19.4h5l6.8,19.4H325.8z M323.4,371.2c-1.3-4.2-2-6.5-2.2-7.1
		c-0.2-0.5-0.3-1-0.3-1.3c-0.3,1.1-1.1,3.9-2.5,8.3h5V371.2z"/>
	<path class="st1" d="M334,379.2v-19.3h4.1v15.9h7.8v3.4H334z"/>
	<path class="st1" d="M370.3,373.8c0,1.7-0.6,3.1-1.9,4.1s-3,1.5-5.2,1.5c-2.1,0-3.9-0.4-5.5-1.2v-3.8c1.3,0.6,2.4,1,3.3,1.2
		s1.7,0.4,2.5,0.4c0.9,0,1.6-0.2,2.1-0.5s0.7-0.9,0.7-1.5c0-0.4-0.1-0.7-0.3-1c-0.2-0.3-0.5-0.6-0.9-0.9s-1.2-0.7-2.5-1.3
		c-1.2-0.6-2.1-1.1-2.7-1.6s-1.1-1.1-1.4-1.8s-0.5-1.5-0.5-2.4c0-1.7,0.6-3,1.7-4c1.2-1,2.8-1.5,4.8-1.5c1,0,2,0.1,2.9,0.4
		c0.9,0.2,1.9,0.6,2.9,1l-1.3,3.2c-1-0.4-1.9-0.7-2.6-0.9c-0.7-0.2-1.3-0.3-2-0.3c-0.8,0-1.4,0.2-1.8,0.5s-0.6,0.8-0.6,1.4
		c0,0.4,0.1,0.7,0.3,0.9c0.2,0.3,0.4,0.5,0.8,0.8s1.2,0.7,2.6,1.4c1.8,0.9,3,1.7,3.7,2.6C370,371.5,370.3,372.6,370.3,373.8z"/>
	<path class="st1" d="M382.6,379.2h-4.1v-15.9h-5.2v-3.4h14.6v3.4h-5.2L382.6,379.2L382.6,379.2z"/>
	<path class="st1" d="M407.9,359.9v12.5c0,1.4-0.3,2.7-1,3.7c-0.6,1.1-1.6,1.9-2.8,2.5c-1.2,0.6-2.6,0.9-4.3,0.9
		c-2.5,0-4.4-0.6-5.8-1.9s-2.1-3-2.1-5.2V360h4.1v11.8c0,1.5,0.3,2.6,0.9,3.3s1.6,1,3,1c1.3,0,2.3-0.3,2.9-1s0.9-1.8,0.9-3.3V360
		h4.2L407.9,359.9L407.9,359.9z"/>
	<path class="st1" d="M429.9,369.3c0,3.2-0.9,5.6-2.7,7.3c-1.8,1.7-4.4,2.5-7.8,2.5h-5.5v-19.3h6.1c3.1,0,5.6,0.8,7.3,2.5
		C429,364,429.9,366.4,429.9,369.3z M425.7,369.5c0-4.1-1.8-6.2-5.5-6.2H418v12.6h1.8C423.7,375.8,425.7,373.7,425.7,369.5z"/>
	<path class="st1" d="M435.3,379.2v-19.3h4.1v19.3H435.3z"/>
	<path class="st1" d="M463,369.5c0,3.2-0.8,5.6-2.4,7.4c-1.6,1.7-3.8,2.6-6.8,2.6s-5.2-0.9-6.8-2.6c-1.6-1.7-2.4-4.2-2.4-7.4
		s0.8-5.7,2.4-7.4c1.6-1.7,3.9-2.5,6.8-2.5s5.2,0.9,6.8,2.6S463,366.3,463,369.5z M449,369.5c0,2.2,0.4,3.8,1.2,4.9s2,1.6,3.7,1.6
		c3.3,0,4.9-2.2,4.9-6.5s-1.6-6.5-4.9-6.5c-1.6,0-2.9,0.5-3.7,1.6S449,367.4,449,369.5z"/>
	<path class="st1" d="M484.9,363c-1.5,0-2.7,0.6-3.6,1.7c-0.8,1.2-1.3,2.8-1.3,4.8c0,4.3,1.6,6.4,4.8,6.4c1.4,0,3-0.3,4.9-1v3.4
		c-1.6,0.7-3.3,1-5.3,1c-2.8,0-4.9-0.9-6.4-2.6s-2.2-4.1-2.2-7.3c0-2,0.4-3.8,1.1-5.3s1.8-2.7,3.1-3.5c1.4-0.8,3-1.2,4.8-1.2
		c1.9,0,3.8,0.5,5.6,1.4l-1.3,3.3c-0.7-0.3-1.4-0.6-2.2-0.9S485.6,363,484.9,363z"/>
	<path class="st1" d="M512.8,369.5c0,3.2-0.8,5.6-2.4,7.4c-1.6,1.7-3.8,2.6-6.8,2.6s-5.2-0.9-6.8-2.6c-1.6-1.7-2.4-4.2-2.4-7.4
		s0.8-5.7,2.4-7.4c1.6-1.7,3.9-2.5,6.8-2.5c3,0,5.2,0.9,6.8,2.6C512,363.9,512.8,366.3,512.8,369.5z M498.7,369.5
		c0,2.2,0.4,3.8,1.2,4.9c0.8,1.1,2,1.6,3.7,1.6c3.3,0,4.9-2.2,4.9-6.5s-1.6-6.5-4.9-6.5c-1.6,0-2.9,0.5-3.7,1.6
		S498.7,367.4,498.7,369.5z"/>
	<path class="st1" d="M534.1,369.3c0,3.2-0.9,5.6-2.7,7.3c-1.8,1.7-4.4,2.5-7.8,2.5h-5.5v-19.3h6.1c3.1,0,5.6,0.8,7.3,2.5
		C533.3,364,534.1,366.4,534.1,369.3z M529.9,369.5c0-4.1-1.8-6.2-5.5-6.2h-2.2v12.6h1.8C527.9,375.8,529.9,373.7,529.9,369.5z"/>
	<path class="st1" d="M550.6,379.2h-11.1v-19.3h11.1v3.3h-7v4.2h6.5v3.3h-6.5v5h7V379.2z"/>
	<path class="st1" d="M562.7,373.6v-3.3h7.1v3.3H562.7z"/>
	<path class="st1" d="M251.8,415.2h-14.3v-2.7l9.2-13.2h-9v-3.4h13.8v2.6l-9.2,13.3h9.5V415.2z"/>
	<path class="st1" d="M273.7,405.5c0,3.2-0.8,5.6-2.4,7.4c-1.6,1.7-3.8,2.6-6.8,2.6s-5.2-0.9-6.8-2.6c-1.6-1.7-2.4-4.2-2.4-7.4
		s0.8-5.7,2.4-7.4c1.6-1.7,3.9-2.5,6.8-2.5s5.2,0.9,6.8,2.6C272.9,399.9,273.7,402.3,273.7,405.5z M259.7,405.5
		c0,2.2,0.4,3.8,1.2,4.9s2,1.6,3.7,1.6c3.3,0,4.9-2.2,4.9-6.5s-1.6-6.5-4.9-6.5c-1.6,0-2.9,0.5-3.7,1.6S259.7,403.4,259.7,405.5z"/>
	<path class="st1" d="M297.8,415.2h-4.7l-2.6-10.1c-0.1-0.4-0.3-1.1-0.5-2.2s-0.4-1.9-0.4-2.3c-0.1,0.5-0.2,1.2-0.4,2.3
		c-0.2,1.1-0.4,1.8-0.5,2.2l-2.6,10.1h-4.6l-4.9-19.3h4l2.5,10.5c0.4,1.9,0.7,3.6,0.9,5c0.1-0.5,0.2-1.3,0.4-2.3
		c0.2-1.1,0.4-1.9,0.5-2.4l2.8-10.8h3.9l2.8,10.8c0.1,0.5,0.3,1.2,0.5,2.2s0.3,1.8,0.4,2.6c0.1-0.7,0.2-1.5,0.4-2.6
		c0.2-1,0.4-1.9,0.5-2.5l2.5-10.5h4L297.8,415.2z"/>
	<path class="st1" d="M317.6,415.2h-11.1v-19.3h11.1v3.3h-7v4.2h6.5v3.3h-6.5v5h7V415.2z"/>
	<path class="st1" d="M342.4,395.9h4.1l-6.6,19.3h-4.5l-6.5-19.3h4.1l3.6,11.5c0.2,0.7,0.4,1.5,0.6,2.4s0.3,1.5,0.4,1.9
		c0.1-0.8,0.4-2.2,1-4.2L342.4,395.9z"/>
	<path class="st1" d="M359,415.2h-4.1V404v-1.8l0.1-2c-0.7,0.7-1.1,1.1-1.4,1.3l-2.2,1.8l-2-2.5l6.2-4.9h3.3v19.3L359,415.2
		L359,415.2z"/>
</g>
</svg>
