<?xml version="1.0" encoding="UTF-8" standalone="no"?>
<svg
   xmlns:dc="http://purl.org/dc/elements/1.1/"
   xmlns:cc="http://creativecommons.org/ns#"
   xmlns:rdf="http://www.w3.org/1999/02/22-rdf-syntax-ns#"
   xmlns:svg="http://www.w3.org/2000/svg"
   xmlns="http://www.w3.org/2000/svg"
   xmlns:sodipodi="http://sodipodi.sourceforge.net/DTD/sodipodi-0.dtd"
   xmlns:inkscape="http://www.inkscape.org/namespaces/inkscape"
   inkscape:version="1.0beta1 (fe3e306, 2019-09-17)"
   sodipodi:docname="lf_mem_silv.svg"
   viewBox="0 0 474.66666 229.33333"
   height="229.33333"
   width="474.66666"
   xml:space="preserve"
   id="svg1053"
   version="1.1">
  <metadata
     id="metadata1059">
    <rdf:RDF>
      <cc:Work
         rdf:about="">
        <dc:format>image/svg+xml</dc:format>
        <dc:type
           rdf:resource="http://purl.org/dc/dcmitype/StillImage" />
        <dc:title></dc:title>
      </cc:Work>
    </rdf:RDF>
  </metadata>
  <defs
     id="defs1057">
    <clipPath
       id="clipPath1089"
       clipPathUnits="userSpaceOnUse">
      <path
         inkscape:connector-curvature="0"
         id="path1087"
         d="M 0,172 H 356 V 0 H 0 Z" />
    </clipPath>
  </defs>
  <sodipodi:namedview
     inkscape:current-layer="g1061"
     inkscape:window-maximized="0"
     inkscape:window-y="23"
     inkscape:window-x="57"
     inkscape:cy="114.66666"
     inkscape:cx="109.60991"
     inkscape:zoom="1.076545"
     showgrid="false"
     id="namedview1055"
     inkscape:window-height="480"
     inkscape:window-width="870"
     inkscape:pageshadow="2"
     inkscape:pageopacity="0"
     guidetolerance="10"
     gridtolerance="10"
     objecttolerance="10"
     borderopacity="1"
     inkscape:document-rotation="0"
     bordercolor="#666666"
     pagecolor="#ffffff" />
  <g
     transform="matrix(1.3333333,0,0,-1.3333333,0,229.33333)"
     inkscape:label="lf_mem_silv"
     inkscape:groupmode="layer"
     id="g1061">
    <g
       transform="translate(7.3242,40.1071)"
       id="g1063">
      <path
         inkscape:connector-curvature="0"
         id="path1065"
         style="fill:none;stroke:#0d3a63;stroke-width:1;stroke-linecap:butt;stroke-linejoin:miter;stroke-miterlimit:10;stroke-dasharray:none;stroke-opacity:1"
         d="M 0,0 H 341.331" />
    </g>
    <g
       transform="translate(139.0366,163.2829)"
       id="g1067">
      <path
         inkscape:connector-curvature="0"
         id="path1069"
         style="fill:#00325d;fill-opacity:1;fill-rule:nonzero;stroke:none"
         d="M 0,0 H 19.779 V -2.026 H 11.077 V -24.95 H 8.701 V -2.026 H 0 Z" />
    </g>
    <g
       transform="translate(161.1602,163.2829)"
       id="g1071">
      <path
         inkscape:connector-curvature="0"
         id="path1073"
         style="fill:#00325d;fill-opacity:1;fill-rule:nonzero;stroke:none"
         d="M 0,0 H 2.375 V -10.833 H 17.193 V 0 h 2.375 v -24.95 h -2.375 v 12.091 H 2.375 V -24.95 H 0 Z" />
    </g>
    <g
       transform="translate(185.7646,163.2829)"
       id="g1075">
      <path
         inkscape:connector-curvature="0"
         id="path1077"
         style="fill:#00325d;fill-opacity:1;fill-rule:nonzero;stroke:none"
         d="M 0,0 H 17.228 V -2.026 H 2.376 v -9.017 h 13.909 v -2.026 H 2.376 v -9.855 H 17.403 V -24.95 H 0 Z" />
    </g>
    <g
       transform="translate(139.0366,76.4128)"
       id="g1079">
      <path
         inkscape:connector-curvature="0"
         id="path1081"
         style="fill:#00325d;fill-opacity:1;fill-rule:nonzero;stroke:none"
         d="M 0,0 H 15.83 V -2.027 H 2.376 v -9.016 H 14.327 V -13.07 H 2.376 V -24.951 H 0 Z" />
    </g>
    <g
       id="g1083">
      <g
         clip-path="url(#clipPath1089)"
         id="g1085">
        <g
           transform="translate(168.2524,52.9645)"
           id="g1091">
          <path
             inkscape:connector-curvature="0"
             id="path1093"
             style="fill:#00325d;fill-opacity:1;fill-rule:nonzero;stroke:none"
             d="M 0,0 C 6.57,0 9.365,5.521 9.365,10.973 9.365,16.424 6.57,21.945 0,21.945 -6.604,21.945 -9.4,16.424 -9.4,10.973 -9.4,5.521 -6.604,0 0,0 m 0,23.972 c 7.828,0 11.742,-6.151 11.742,-12.999 0,-6.85 -3.914,-13 -11.742,-13 -7.863,0 -11.776,6.15 -11.776,13 0,6.848 3.913,12.999 11.776,12.999" />
        </g>
        <g
           transform="translate(183.4585,76.4128)"
           id="g1095">
          <path
             inkscape:connector-curvature="0"
             id="path1097"
             style="fill:#00325d;fill-opacity:1;fill-rule:nonzero;stroke:none"
             d="m 0,0 h 2.376 v -15.446 c 0,-5.766 2.69,-8.002 7.304,-8.002 4.648,0 7.338,2.236 7.338,8.002 V 0 h 2.377 v -15.971 c 0,-5.136 -2.761,-9.505 -9.715,-9.505 -6.884,0 -9.68,4.369 -9.68,9.505 z" />
        </g>
        <g
           transform="translate(207.6089,76.4128)"
           id="g1099">
          <path
             inkscape:connector-curvature="0"
             id="path1101"
             style="fill:#00325d;fill-opacity:1;fill-rule:nonzero;stroke:none"
             d="m 0,0 h 2.655 l 14.537,-21.107 h 0.071 V 0 h 2.376 V -24.951 H 16.983 L 2.446,-3.844 H 2.377 V -24.951 H 0 Z" />
        </g>
        <g
           transform="translate(234.6255,53.4889)"
           id="g1103">
          <path
             inkscape:connector-curvature="0"
             id="path1105"
             style="fill:#00325d;fill-opacity:1;fill-rule:nonzero;stroke:none"
             d="m 0,0 h 5.067 c 7.163,0 10.274,2.97 10.274,10.448 0,7.478 -3.111,10.448 -10.274,10.448 H 0 Z m -2.376,22.924 h 8.631 c 7.549,-0.175 11.462,-4.229 11.462,-12.476 0,-8.247 -3.913,-12.301 -11.462,-12.475 h -8.631 z" />
        </g>
        <g
           transform="translate(259.7202,61.2467)"
           id="g1107">
          <path
             inkscape:connector-curvature="0"
             id="path1109"
             style="fill:#00325d;fill-opacity:1;fill-rule:nonzero;stroke:none"
             d="M 0,0 H 9.819 L 4.997,12.789 Z M 3.773,15.166 H 6.43 l 9.785,-24.951 h -2.551 l -3.041,7.758 H -0.733 L -3.739,-9.785 H -6.29 Z" />
        </g>
        <g
           transform="translate(273.1421,76.4128)"
           id="g1111">
          <path
             inkscape:connector-curvature="0"
             id="path1113"
             style="fill:#00325d;fill-opacity:1;fill-rule:nonzero;stroke:none"
             d="M 0,0 H 19.779 V -2.027 H 11.078 V -24.951 H 8.701 v 22.924 l -8.701,0 z" />
        </g>
        <path
           inkscape:connector-curvature="0"
           id="path1115"
           style="fill:#00325d;fill-opacity:1;fill-rule:nonzero;stroke:none"
           d="m 295.44,76.413 h 2.377 V 51.462 h -2.377 z" />
        <g
           transform="translate(313.4722,52.9645)"
           id="g1117">
          <path
             inkscape:connector-curvature="0"
             id="path1119"
             style="fill:#00325d;fill-opacity:1;fill-rule:nonzero;stroke:none"
             d="m 0,0 c 6.569,0 9.365,5.521 9.365,10.973 0,5.451 -2.796,10.972 -9.365,10.972 -6.604,0 -9.4,-5.521 -9.4,-10.972 C -9.4,5.521 -6.604,0 0,0 m 0,23.972 c 7.827,0 11.741,-6.151 11.741,-12.999 0,-6.85 -3.914,-13 -11.741,-13 -7.863,0 -11.776,6.15 -11.776,13 0,6.848 3.913,12.999 11.776,12.999" />
        </g>
        <g
           transform="translate(328.8872,76.4128)"
           id="g1121">
          <path
             inkscape:connector-curvature="0"
             id="path1123"
             style="fill:#00325d;fill-opacity:1;fill-rule:nonzero;stroke:none"
             d="m 0,0 h 2.656 l 14.537,-21.107 h 0.07 V 0 H 19.64 V -24.951 H 16.983 L 2.446,-3.844 H 2.377 V -24.951 H 0 Z" />
        </g>
        <g
           transform="translate(139.0366,130.901)"
           id="g1125">
          <path
             inkscape:connector-curvature="0"
             id="path1127"
             style="fill:#00325d;fill-opacity:1;fill-rule:nonzero;stroke:none"
             d="M 0,0 H 13.756 V -33.2 H 33.513 V -44.642 H 0 Z" />
        </g>
        <path
           inkscape:connector-curvature="0"
           id="path1129"
           style="fill:#00325d;fill-opacity:1;fill-rule:nonzero;stroke:none"
           d="m 181.549,130.901 h 13.756 V 86.259 h -13.756 z" />
        <g
           transform="translate(205.5571,130.901)"
           id="g1131">
          <path
             inkscape:connector-curvature="0"
             id="path1133"
             style="fill:#00325d;fill-opacity:1;fill-rule:nonzero;stroke:none"
             d="m 0,0 h 14.067 l 13.005,-23.884 h 0.126 V 0 H 40.202 V -44.642 H 26.822 L 13.13,-20.258 H 13.005 V -44.642 H 0 Z" />
        </g>
        <g
           transform="translate(296.5864,103.5153)"
           id="g1135">
          <path
             inkscape:connector-curvature="0"
             id="path1137"
             style="fill:#00325d;fill-opacity:1;fill-rule:nonzero;stroke:none"
             d="m 0,0 c 0,-12.441 -6.564,-18.319 -20.32,-18.319 -13.754,0 -20.382,5.878 -20.382,18.319 v 27.386 h 13.755 V 3.064 c 0,-4.501 -0.063,-10.253 6.689,-10.253 6.503,0 6.503,5.752 6.503,10.253 V 27.386 H 0 Z" />
        </g>
        <g
           transform="translate(318.4663,110.0182)"
           id="g1139">
          <path
             inkscape:connector-curvature="0"
             id="path1141"
             style="fill:#00325d;fill-opacity:1;fill-rule:nonzero;stroke:none"
             d="M 0,0 -14.693,20.883 H 1.437 L 8.19,8.754 14.817,20.883 H 30.073 L 15.756,-0.125 31.699,-23.759 H 15.13 l -7.627,13.318 -7.879,-13.318 h -15.756 z" />
        </g>
        <g
           transform="translate(29.8174,73.9079)"
           id="g1143">
          <path
             inkscape:connector-curvature="0"
             id="path1145"
             style="fill:#2b93dd;fill-opacity:1;fill-rule:nonzero;stroke:none"
             d="M 0,0 V 44.883 H -22.485 V -22.446 H 44.871 L 44.871,0 Z" />
        </g>
        <g
           transform="translate(119.5571,163.7087)"
           id="g1147">
          <path
             inkscape:connector-curvature="0"
             id="path1149"
             style="fill:#00325d;fill-opacity:1;fill-rule:nonzero;stroke:none"
             d="m 0,0 h -112.209 v -33.672 h 22.438 v 11.128 h 67.334 v -67.257 h -11.207 v -22.446 H 0 Z" />
        </g>
        <g
           transform="translate(22.836,12.6159)"
           id="g1151">
          <path
             inkscape:connector-curvature="0"
             id="path1153"
             style="fill:#2b93dd;fill-opacity:1;fill-rule:nonzero;stroke:none"
             d="m 0,0 c 0,-2.107 -0.774,-3.776 -2.323,-5.008 -1.548,-1.232 -3.606,-1.848 -6.174,-1.848 -3.085,0 -5.451,0.339 -7.097,1.019 v 1.761 c 1.819,-0.772 4.138,-1.156 6.959,-1.156 2.073,0 3.716,0.474 4.931,1.424 1.214,0.95 1.822,2.196 1.822,3.739 0,0.956 -0.202,1.747 -0.605,2.375 -0.403,0.627 -1.059,1.2 -1.969,1.717 -0.909,0.519 -2.245,1.078 -4.006,1.676 -2.579,0.886 -4.361,1.845 -5.345,2.875 -0.985,1.03 -1.477,2.404 -1.477,4.119 0,1.888 0.74,3.428 2.22,4.619 1.479,1.192 3.381,1.789 5.708,1.789 2.371,0 4.599,-0.45 6.683,-1.348 l -0.639,-1.52 c -2.096,0.875 -4.099,1.313 -6.01,1.313 -1.866,0 -3.35,-0.432 -4.456,-1.295 -1.105,-0.864 -1.658,-2.038 -1.658,-3.523 0,-0.933 0.17,-1.699 0.51,-2.297 0.339,-0.599 0.895,-1.137 1.666,-1.615 0.772,-0.478 2.095,-1.05 3.972,-1.718 C -5.319,6.418 -3.84,5.76 -2.849,5.12 -1.859,4.481 -1.137,3.756 -0.682,2.944 -0.228,2.133 0,1.151 0,0" />
        </g>
        <path
           inkscape:connector-curvature="0"
           id="path1155"
           style="fill:#2b93dd;fill-opacity:1;fill-rule:nonzero;stroke:none"
           d="m 35.246,31.353 h 1.762 V 6.105 h -1.762 z" />
        <g
           transform="translate(51.231,6.1051)"
           id="g1157">
          <path
             inkscape:connector-curvature="0"
             id="path1159"
             style="fill:#2b93dd;fill-opacity:1;fill-rule:nonzero;stroke:none"
             d="M 0,0 V 25.248 H 1.762 V 1.658 H 13.798 V 0 Z" />
        </g>
        <g
           transform="translate(91.3755,31.3532)"
           id="g1161">
          <path
             inkscape:connector-curvature="0"
             id="path1163"
             style="fill:#2b93dd;fill-opacity:1;fill-rule:nonzero;stroke:none"
             d="M 0,0 H 1.917 L -7.529,-25.248 H -9.083 L -18.496,0 h 1.883 l 6.355,-17.184 c 0.967,-2.589 1.617,-4.536 1.951,-5.837 0.231,0.864 0.685,2.206 1.365,4.025 z" />
        </g>
        <g
           transform="translate(117.7393,6.1051)"
           id="g1165">
          <path
             inkscape:connector-curvature="0"
             id="path1167"
             style="fill:#2b93dd;fill-opacity:1;fill-rule:nonzero;stroke:none"
             d="M 0,0 H -13.798 V 25.248 H 0 v -1.623 h -12.037 v -9.55 H -0.673 V 12.451 H -12.037 V 1.623 L 0,1.623 Z" />
        </g>
        <g
           transform="translate(132.291,18.6257)"
           id="g1169">
          <path
             inkscape:connector-curvature="0"
             id="path1171"
             style="fill:#2b93dd;fill-opacity:1;fill-rule:nonzero;stroke:none"
             d="m 0,0 h 4.818 c 2.13,0 3.782,0.475 4.956,1.425 1.175,0.95 1.762,2.351 1.762,4.205 0,1.923 -0.576,3.321 -1.727,4.196 -1.151,0.875 -3.028,1.313 -5.63,1.313 l -4.179,0 z m 0,-1.52 v -11.001 h -1.762 v 25.249 h 6.01 c 3.132,0 5.446,-0.579 6.942,-1.736 1.497,-1.157 2.246,-2.898 2.246,-5.224 0,-1.693 -0.447,-3.121 -1.339,-4.283 C 11.205,0.322 9.849,-0.513 8.03,-1.019 l 6.856,-11.502 H 12.779 L 6.269,-1.52 Z" />
        </g>
        <g
           transform="translate(185.9858,6.1051)"
           id="g1173">
          <path
             inkscape:connector-curvature="0"
             id="path1175"
             style="fill:#2b93dd;fill-opacity:1;fill-rule:nonzero;stroke:none"
             d="M 0,0 -9.412,23.314 H -9.55 c 0.092,-1.427 0.138,-2.89 0.138,-4.386 V 0 h -1.692 v 25.248 h 2.728 L 0.57,3.039 h 0.103 l 8.946,22.209 h 2.66 V 0 H 10.5 v 19.135 c 0,1.335 0.068,2.717 0.207,4.144 H 10.568 L 1.123,0 Z" />
        </g>
        <g
           transform="translate(226.269,6.1051)"
           id="g1177">
          <path
             inkscape:connector-curvature="0"
             id="path1179"
             style="fill:#2b93dd;fill-opacity:1;fill-rule:nonzero;stroke:none"
             d="M 0,0 H -13.798 V 25.248 H 0 v -1.623 h -12.037 v -9.55 H -0.673 V 12.451 H -12.037 V 1.623 L 0,1.623 Z" />
        </g>
        <g
           transform="translate(250.1626,6.1051)"
           id="g1181">
          <path
             inkscape:connector-curvature="0"
             id="path1183"
             style="fill:#2b93dd;fill-opacity:1;fill-rule:nonzero;stroke:none"
             d="M 0,0 -9.411,23.314 H -9.55 c 0.092,-1.427 0.139,-2.89 0.139,-4.386 V 0 h -1.693 v 25.248 h 2.729 L 0.57,3.039 H 0.674 L 9.62,25.248 h 2.659 V 0 H 10.5 v 19.135 c 0,1.335 0.069,2.717 0.208,4.144 H 10.569 L 1.123,0 Z" />
        </g>
        <g
           transform="translate(278.4087,18.5563)"
           id="g1185">
          <path
             inkscape:connector-curvature="0"
             id="path1187"
             style="fill:#2b93dd;fill-opacity:1;fill-rule:nonzero;stroke:none"
             d="m 0,0 v -10.896 h 5.941 c 4.674,0 7.011,1.899 7.011,5.698 0,3.466 -2.464,5.198 -7.39,5.198 z m 0,1.555 h 5.562 c 2.371,0 4.095,0.394 5.171,1.182 1.077,0.789 1.616,2.024 1.616,3.704 0,1.682 -0.608,2.902 -1.823,3.662 -1.214,0.76 -3.025,1.14 -5.431,1.14 l -5.095,0 z m -1.761,11.242 h 6.925 c 3.12,0 5.411,-0.529 6.873,-1.589 1.462,-1.06 2.193,-2.659 2.193,-4.801 0,-1.462 -0.446,-2.679 -1.337,-3.652 C 12,1.781 10.696,1.157 8.98,0.881 V 0.777 c 2.015,-0.299 3.498,-0.935 4.448,-1.908 0.949,-0.973 1.425,-2.329 1.425,-4.067 0,-2.325 -0.772,-4.116 -2.315,-5.37 -1.543,-1.256 -3.73,-1.883 -6.562,-1.883 h -7.737 z" />
        </g>
        <g
           transform="translate(319.6938,6.1051)"
           id="g1189">
          <path
             inkscape:connector-curvature="0"
             id="path1191"
             style="fill:#2b93dd;fill-opacity:1;fill-rule:nonzero;stroke:none"
             d="M 0,0 H -13.798 V 25.248 H 0 v -1.623 h -12.037 v -9.55 H -0.673 V 12.451 H -12.037 V 1.623 L 0,1.623 Z" />
        </g>
        <g
           transform="translate(334.2456,18.6257)"
           id="g1193">
          <path
             inkscape:connector-curvature="0"
             id="path1195"
             style="fill:#2b93dd;fill-opacity:1;fill-rule:nonzero;stroke:none"
             d="m 0,0 h 4.818 c 2.13,0 3.783,0.475 4.957,1.425 1.174,0.95 1.761,2.351 1.761,4.205 0,1.923 -0.575,3.321 -1.726,4.196 -1.152,0.875 -3.029,1.313 -5.63,1.313 l -4.18,0 z m 0,-1.52 v -11.001 h -1.761 v 25.249 h 6.01 c 3.131,0 5.445,-0.579 6.942,-1.736 1.497,-1.157 2.246,-2.898 2.246,-5.224 0,-1.693 -0.447,-3.121 -1.339,-4.283 C 11.205,0.322 9.85,-0.513 8.03,-1.019 l 6.857,-11.502 H 12.78 L 6.27,-1.52 Z" />
        </g>
      </g>
    </g>
  </g>
</svg>
