<?xml version="1.0" encoding="utf-8"?>
<!-- Generator: Adobe Illustrator 23.1.1, SVG Export Plug-In . SVG Version: 6.00 Build 0)  -->
<svg version="1.1" id="Layer_1" xmlns="http://www.w3.org/2000/svg" xmlns:xlink="http://www.w3.org/1999/xlink" x="0px" y="0px"
	 viewBox="0 0 550 100" style="enable-background:new 0 0 550 100;" xml:space="preserve">
<style type="text/css">
	.st0{fill:#FFFFFF;}
	.st1{fill:#231F20;}
	.st2{fill:#231F20;stroke:#FFFFFF;stroke-width:2;stroke-miterlimit:10;}
</style>
<g>
	<path class="st1" d="M308.6,16.7h2.7c0.9-0.1,1.7,0.2,2.4,0.7c0.6,0.5,0.9,1.2,0.8,1.9c0,0.7-0.3,1.5-0.8,2
		c-0.7,0.5-1.6,0.8-2.5,0.7h-1.9v4.7h-0.8L308.6,16.7z M309.4,17.4v4h1.9c0.7,0,1.3-0.1,1.9-0.5c0.8-0.8,0.9-2,0.1-2.9
		c0,0-0.1-0.1-0.1-0.1c-0.5-0.4-1.2-0.6-1.8-0.5H309.4z"/>
	<path class="st1" d="M317.3,16.7h2.6c0.9-0.1,1.7,0.2,2.5,0.7c0.6,0.5,0.9,1.2,0.8,1.9c0,1.2-0.8,2.2-1.9,2.4
		c0.6,0.4,1,0.9,1.3,1.5l2.3,3.4h-0.9l-1.7-2.7c-0.4-0.6-0.8-1.2-1.4-1.7c-0.4-0.3-0.9-0.4-1.4-0.3H318v4.8h-0.8L317.3,16.7z
		 M318,17.4v3.9h1.7c0.7,0,1.4-0.1,1.9-0.5c0.8-0.7,0.9-1.9,0.2-2.6c-0.1-0.1-0.2-0.2-0.2-0.2c-0.6-0.4-1.3-0.6-1.9-0.5L318,17.4z"
		/>
	<path class="st1" d="M331.4,16.6c1.4,0,2.8,0.5,3.8,1.5c2,1.9,2.1,5.1,0.1,7.1c0,0-0.1,0.1-0.1,0.1c-2.1,2-5.4,2-7.5,0
		c-2-1.9-2-5.2-0.1-7.2c0,0,0.1-0.1,0.1-0.1C328.7,17.1,330.1,16.6,331.4,16.6 M331.5,26.1c1.2,0,2.3-0.4,3.1-1.3
		c1.7-1.7,1.7-4.5,0-6.3c-0.8-0.8-2-1.3-3.1-1.3c-1.2,0-2.3,0.4-3.2,1.3c-1.7,1.7-1.7,4.5,0,6.3c0,0,0,0,0,0
		C329.1,25.7,330.3,26.2,331.5,26.1"/>
	<path class="st1" d="M340.6,16.7v10c0.1,0.8-0.1,1.6-0.6,2.3c-0.4,0.4-0.9,0.6-1.5,0.6c-0.2,0-0.3,0-0.5,0l-0.1-0.7
		c0.1,0,0.3,0.1,0.5,0.1c0.9,0,1.4-0.7,1.4-2V16.7H340.6z"/>
	<polygon class="st1" points="349.5,16.7 349.5,17.4 344.8,17.4 344.8,21.4 349.3,21.4 349.3,22 344.8,22 344.8,26.1 349.6,26.1 
		349.6,26.7 344,26.7 344,16.7 	"/>
	<path class="st1" d="M360.7,17.4v0.8c-1.1-0.6-2.3-0.9-3.6-1c-1.2,0-2.3,0.4-3.1,1.3c-0.8,0.8-1.3,2-1.3,3.2c0,1.2,0.4,2.3,1.3,3.2
		c0.9,0.8,2,1.3,3.2,1.2c1.2,0,2.5-0.4,3.5-1v0.8c-1.1,0.6-2.3,0.9-3.5,0.9c-1.4,0-2.8-0.5-3.8-1.5c-2-2-2-5.2,0-7.2
		c0,0,0,0,0.1-0.1c1-1,2.3-1.5,3.7-1.5C358.4,16.6,359.6,16.9,360.7,17.4"/>
	<polygon class="st1" points="370.6,16.7 370.6,17.4 366.8,17.4 366.8,26.7 366.1,26.7 366.1,17.4 362.3,17.4 362.3,16.7 	"/>
	<polygon class="st1" points="204.9,27.4 201.6,27.4 201.6,21 198.6,24.7 198.3,24.7 195.3,21 195.3,27.4 192,27.4 192,16.4 
		195.1,16.4 198.5,20.5 201.9,16.4 204.9,16.4 	"/>
	<path class="st1" d="M219.8,27.4h-3.4l-0.9-2.2h-4.8l-0.9,2.2h-3.4l4.9-11.1h3.7L219.8,27.4z M214.7,23.3l-1.6-4l-1.6,4H214.7z"/>
	<rect x="221.3" y="16.4" class="st1" width="3.3" height="11.1"/>
	<polygon class="st1" points="239.4,27.4 236.5,27.4 230.7,21.3 230.7,27.4 227.4,27.4 227.4,16.4 230.4,16.4 236.1,22.5 
		236.1,16.4 239.4,16.4 	"/>
	<polygon class="st1" points="250.1,22.9 245.6,22.9 245.6,27.4 242.2,27.4 242.2,16.4 250.1,16.4 250.1,18.6 245.6,18.6 
		245.6,20.7 250.1,20.7 	"/>
	<path class="st1" d="M263.1,27.4h-3.6l-0.9-2c-0.2-0.6-0.5-1.1-0.9-1.6c-0.2-0.3-0.4-0.5-0.7-0.6c-0.3-0.1-0.6-0.2-0.9-0.1h-0.4
		v4.3h-3.3V16.4h5.7c0.8,0,1.6,0.2,2.2,0.6c0.5,0.3,1,0.8,1.3,1.4c0.2,0.5,0.4,1,0.4,1.5c0,0.5-0.1,1-0.3,1.4
		c-0.2,0.3-0.4,0.6-0.7,0.8c-0.3,0.2-0.5,0.4-0.8,0.5c0.3,0.2,0.6,0.4,0.9,0.7c0.4,0.5,0.7,1.1,0.9,1.7L263.1,27.4z M258.6,19.9
		c0-0.4-0.1-0.8-0.5-1.1c-0.5-0.2-1.1-0.3-1.6-0.3h-0.7v2.7h0.7c0.6,0,1.1,0,1.7-0.3C258.4,20.6,258.6,20.3,258.6,19.9"/>
	<path class="st1" d="M276.7,27.4h-3.4l-0.9-2.2h-4.8l-0.9,2.2h-3.4l4.9-11.1h3.7L276.7,27.4z M271.7,23.3l-1.6-4l-1.6,4H271.7z"/>
	<polygon class="st1" points="291.1,27.4 287.7,27.4 287.7,21 284.7,24.7 284.5,24.7 281.4,21 281.4,27.4 278.2,27.4 278.2,16.4 
		281.2,16.4 284.6,20.5 288,16.4 291.1,16.4 	"/>
	<polygon class="st1" points="302.2,27.4 293.9,27.4 293.9,16.4 302.1,16.4 302.1,18.6 297.2,18.6 297.2,20.6 301.8,20.6 
		301.8,22.8 297.2,22.8 297.2,25.2 302.2,25.2 	"/>
	<path class="st1" d="M150.6,16.7c1.6,0,3.1,0.6,4.2,1.7c2.2,2.2,2.3,5.7,0.1,8c0,0-0.1,0.1-0.1,0.1c-2.3,2.2-6,2.2-8.4,0
		c-2.2-2.2-2.3-5.8-0.1-8c0,0,0.1-0.1,0.1-0.1C147.6,17.3,149.1,16.7,150.6,16.7 M150.7,27.4c1.3,0,2.6-0.5,3.5-1.4
		c1.9-1.9,1.9-5.1,0-7c-0.9-0.9-2.2-1.5-3.5-1.4c-1.3,0-2.6,0.5-3.5,1.4c-1.9,1.9-1.9,5.1,0,7c0,0,0,0,0,0
		C148.1,26.9,149.4,27.4,150.7,27.4"/>
	<path class="st1" d="M158.7,16.9h3.1c1-0.1,1.9,0.2,2.7,0.8c0.6,0.5,1,1.3,0.9,2.2c0,0.8-0.3,1.6-0.9,2.2c-0.8,0.6-1.8,0.9-2.8,0.8
		h-2.1V28h-0.9V16.9z M159.5,17.6v4.5h2.1c0.8,0.1,1.5-0.2,2.1-0.6c0.9-0.8,1-2.3,0.1-3.2c0,0-0.1-0.1-0.1-0.1
		c-0.6-0.4-1.3-0.7-2-0.6L159.5,17.6z"/>
	<polygon class="st1" points="173.1,16.9 173.1,17.6 167.9,17.6 167.9,22 173,22 173,22.8 167.9,22.8 167.9,27.3 173.2,27.3 
		173.2,28 167,28 167,16.9 	"/>
	<polygon class="st1" points="185,16.9 185,28 184.3,28 175.8,18.3 175.8,28 175,28 175,16.9 175.7,16.9 184.2,26.6 184.2,16.9 	"/>
	<g>
		<path class="st1" d="M146.6,42.3h11l9,14.6l9-14.6h11V80h-10.4V58.3l-9.6,14.8h-0.2l-9.6-14.7V80h-10.2V42.3z"/>
		<path class="st1" d="M195.5,42.3h30.3v8.8h-20v5.8h18.1v8.2h-18.1v6h20.2V80h-30.6V42.3z"/>
		<path class="st1" d="M233.6,42.3h9.7l15.5,19.9V42.3h10.3V80h-9.1L244,59.3V80h-10.3V42.3z"/>
		<path class="st1" d="M286.2,51.4h-11.3v-9.2h33v9.2h-11.3V80h-10.4V51.4z"/>
		<path class="st1" d="M308.6,61.2v-0.1c0-10.8,8.7-19.6,20.4-19.6c11.6,0,20.2,8.7,20.2,19.5v0.1c0,10.8-8.7,19.6-20.4,19.6
			C317.2,80.7,308.6,72,308.6,61.2z M338.5,61.2v-0.1c0-5.5-3.9-10.2-9.6-10.2s-9.6,4.6-9.6,10.1v0.1c0,5.4,3.9,10.2,9.7,10.2
			C334.7,71.3,338.5,66.7,338.5,61.2z"/>
		<path class="st1" d="M353.5,42.3h17.8c5.8,0,9.7,1.5,12.3,4c2.2,2.2,3.3,5.1,3.3,8.8v0.1c0,5.8-3.1,9.6-7.8,11.6l9,13.1h-12
			l-7.6-11.4h-4.6V80h-10.4V42.3z M370.9,60.4c3.5,0,5.6-1.7,5.6-4.5v-0.1c0-3-2.2-4.5-5.7-4.5h-6.9v9.1H370.9z"/>
		<path class="st1" d="M391.5,74.4l5.8-6.9c3.8,3,7.9,4.5,12.2,4.5c2.9,0,4.4-1,4.4-2.6v-0.1c0-1.6-1.2-2.4-6.4-3.7
			c-8-1.8-14.2-4.1-14.2-11.8v-0.1c0-7,5.5-12.1,14.6-12.1c6.4,0,11.4,1.7,15.5,5l-5.2,7.4c-3.4-2.5-7.2-3.7-10.6-3.7
			c-2.5,0-3.8,1-3.8,2.4v0.1c0,1.7,1.3,2.5,6.6,3.7c8.6,1.9,14,4.7,14,11.7v0.1c0,7.7-6.1,12.3-15.2,12.3
			C402.5,80.6,396.2,78.5,391.5,74.4z"/>
		<path class="st1" d="M431.6,42.3h10.4v14.1h13.4V42.3h10.4V80h-10.4V65.6h-13.4V80h-10.4V42.3z"/>
		<path class="st1" d="M475,42.3h10.4V80H475V42.3z"/>
		<path class="st1" d="M494.5,42.3h16.2c9.5,0,15.6,4.9,15.6,13.2v0.1c0,8.9-6.8,13.6-16.2,13.6H505V80h-10.4V42.3z M510,61
			c3.7,0,6-2,6-5v-0.1c0-3.2-2.3-4.9-6-4.9h-5v10H510z"/>
	</g>
	<line class="st2" x1="32.3" y1="27.3" x2="78.2" y2="27.3"/>
	<g>
		<path class="st1" d="M34.4,69.2h-3.1c-1.7,0-3,1.4-3,3.1l-1.4,6.5c0,1.7,1.4,3.1,3,3.1h6c1.7,0,3-1.4,3-3.1l-1.4-6.5
			C37.4,70.5,36,69.2,34.4,69.2z"/>
		<g>
			<rect x="31.3" y="49.6" class="st1" width="3" height="19.6"/>
			<polygon class="st1" points="121.6,12.8 41.6,12.8 34.4,26.3 78.2,26.3 78.2,28.3 33.3,28.3 23.7,46.4 136.1,46.4 			"/>
			<path class="st1" d="M102.7,48.2l1.4-0.3l0,0H55.8l0,0l1.4,0.3L57,49.3l-6.5,28.3c0.2,5.6,12.5,9.7,29.4,9.7s29.2-4.1,29.4-9.7
				l-6.5-28.3L102.7,48.2z"/>
		</g>
	</g>
</g>
</svg>
