<svg id="Layer_1" data-name="Layer 1" xmlns="http://www.w3.org/2000/svg" viewBox="0 0 360 89"><defs><style>.cls-1{fill:#231f20;}</style></defs><title>OMP-feilong-logo (2)</title><path class="cls-1" d="M107.71,28.15h36.37V37.7H118.22V47.87H141v9.55H118.22V75.91H107.71Z"/><path class="cls-1" d="M148.58,57.83v-.14c0-10.44,7.44-19,18.09-19,12.21,0,17.8,9.48,17.8,19.85,0,.82-.06,1.78-.13,2.73H158.89c1,4.71,4.3,7.17,8.94,7.17,3.48,0,6-1.09,8.87-3.76l5.93,5.26c-3.41,4.23-8.32,6.82-14.94,6.82C156.7,76.73,148.58,69,148.58,57.83Zm25.8-3.07C173.76,50.12,171,47,166.67,47s-7.1,3.07-7.92,7.78Z"/><path class="cls-1" d="M192.39,26.1h10.92v9.21H192.39Zm.28,13.24H203V75.91H192.67Z"/><path class="cls-1" d="M213.27,26.1h10.37V75.91H213.27Z"/><path class="cls-1" d="M231.63,57.83v-.14c0-10.5,8.46-19,19.85-19s19.72,8.39,19.72,18.9v.13c0,10.51-8.46,19-19.85,19S231.63,68.34,231.63,57.83Zm29.34,0v-.14c0-5.39-3.89-10.09-9.62-10.09-5.94,0-9.49,4.57-9.49,10v.13c0,5.39,3.89,10.1,9.62,10.1C257.42,67.79,261,63.22,261,57.83Z"/><path class="cls-1" d="M278.71,39.34h10.37v5.19c2.39-3.08,5.46-5.87,10.71-5.87,7.85,0,12.42,5.18,12.42,13.58V75.91H301.84V55.51c0-4.91-2.32-7.44-6.28-7.44s-6.48,2.53-6.48,7.44v20.4H278.71Z"/><path class="cls-1" d="M321.43,83.15,325,75.37a23.91,23.91,0,0,0,12.35,3.34c7.09,0,10.44-3.41,10.44-10V67c-3.08,3.69-6.42,5.94-11.95,5.94-8.53,0-16.24-6.21-16.24-17.06v-.13c0-10.92,7.85-17.06,16.24-17.06,5.67,0,9,2.39,11.81,5.46V39.34H358V67.66c0,6.55-1.57,11.32-4.64,14.39C350,85.47,344.69,87,337.6,87A34.81,34.81,0,0,1,321.43,83.15Zm26.34-27.3v-.13c0-5-3.89-8.47-8.94-8.47S330,50.73,330,55.72v.13c0,5,3.82,8.46,8.87,8.46s8.94-3.48,8.94-8.46Z"/><path class="cls-1" d="M289.26,3.52h3.05A4,4,0,0,1,295,4.3a2.68,2.68,0,0,1,.93,2.14A2.71,2.71,0,0,1,295,8.6a4.11,4.11,0,0,1-2.75.8h-2.11v5.17h-.86Zm.86.71V8.69h2.05a3.29,3.29,0,0,0,2.11-.58A2,2,0,0,0,295,6.45a2,2,0,0,0-.7-1.62,3,3,0,0,0-2-.6Z"/><path class="cls-1" d="M298.84,3.52h2.83a4.13,4.13,0,0,1,2.72.77,2.54,2.54,0,0,1,.94,2.08,2.74,2.74,0,0,1-2.1,2.69,5.08,5.08,0,0,1,1.47,1.69l2.5,3.82h-1l-1.93-3a7.45,7.45,0,0,0-1.5-1.9,2.71,2.71,0,0,0-1.57-.37h-1.5v5.3h-.85Zm.85.71V8.56h1.84A3.48,3.48,0,0,0,303.67,8a1.92,1.92,0,0,0,.74-1.6,1.9,1.9,0,0,0-.76-1.59,3.49,3.49,0,0,0-2.16-.57Z"/><path class="cls-1" d="M314.56,3.37A5.82,5.82,0,0,1,318.72,5a5.39,5.39,0,0,1,1.7,4,5.33,5.33,0,0,1-1.7,4,6,6,0,0,1-8.3,0,5.34,5.34,0,0,1-1.7-4,5.4,5.4,0,0,1,1.7-4A5.75,5.75,0,0,1,314.56,3.37Zm0,10.55a4.83,4.83,0,0,0,4.91-4.87,4.74,4.74,0,0,0-1.42-3.47,4.8,4.8,0,0,0-3.49-1.42,4.86,4.86,0,0,0-3.51,1.42,4.7,4.7,0,0,0-1.44,3.47,4.7,4.7,0,0,0,1.44,3.46A4.81,4.81,0,0,0,314.59,13.92Z"/><path class="cls-1" d="M324.72,3.52V14.57a3.6,3.6,0,0,1-.69,2.52,2.2,2.2,0,0,1-1.63.7,4.53,4.53,0,0,1-.52,0L321.8,17a3,3,0,0,0,.51.07c1,0,1.55-.74,1.55-2.22V3.52Z"/><path class="cls-1" d="M334.53,3.52v.71h-5.18V8.65h5v.72h-5v4.49h5.3v.71H328.5v-11Z"/><path class="cls-1" d="M346.93,4.3v.93A8.51,8.51,0,0,0,343,4.16a4.66,4.66,0,0,0-3.45,1.41,4.74,4.74,0,0,0-1.38,3.49,4.7,4.7,0,0,0,1.39,3.49,4.84,4.84,0,0,0,3.55,1.37A8.51,8.51,0,0,0,347,12.79v.89a8.28,8.28,0,0,1-3.92,1,5.8,5.8,0,0,1-4.21-1.62,5.41,5.41,0,0,1-1.68-4A5.4,5.4,0,0,1,339,5,5.76,5.76,0,0,1,343,3.37,9.38,9.38,0,0,1,346.93,4.3Z"/><path class="cls-1" d="M357.92,3.52v.71h-4.14V14.57h-.86V4.23h-4.15V3.52Z"/><path class="cls-1" d="M174.34,15.35h-3.69V8.25l-3.33,4.11H167l-3.34-4.11v7.1H160.1V3.1h3.35l3.76,4.59L171,3.1h3.35Z"/><path class="cls-1" d="M190.89,15.35h-3.78l-1-2.49h-5.32l-1,2.49H176L181.41,3.1h4.08Zm-5.63-4.62-1.8-4.47-1.81,4.47Z"/><path class="cls-1" d="M196.23,15.35h-3.7V3.1h3.7Z"/><path class="cls-1" d="M212.62,15.35h-3.29L203,8.52v6.83h-3.66V3.1h3.28l6.34,6.78V3.1h3.68Z"/><path class="cls-1" d="M224.47,10.39h-5.08v5H215.7V3.1h8.77V5.55h-5.08V7.92h5.08Z"/><path class="cls-1" d="M238.82,15.35h-4l-1-2.18a9.5,9.5,0,0,0-1-1.74,2.08,2.08,0,0,0-.82-.71,3.09,3.09,0,0,0-1-.16h-.42v4.79H227V3.1h6.28a4.53,4.53,0,0,1,2.49.62,3.62,3.62,0,0,1,1.4,1.5,3.77,3.77,0,0,1,.43,1.68,3.19,3.19,0,0,1-.35,1.57,3.11,3.11,0,0,1-.76.93,7.34,7.34,0,0,1-.89.55,3.65,3.65,0,0,1,1,.82,9.93,9.93,0,0,1,1.05,1.92ZM233.8,7a1.27,1.27,0,0,0-.56-1.19,3.63,3.63,0,0,0-1.81-.33h-.78v3h.8a3.93,3.93,0,0,0,1.85-.3A1.21,1.21,0,0,0,233.8,7Z"/><path class="cls-1" d="M254,15.35h-3.78l-1-2.49h-5.32l-1,2.49h-3.78L244.47,3.1h4.08Zm-5.63-4.62-1.8-4.47-1.81,4.47Z"/><path class="cls-1" d="M269.82,15.35h-3.69V8.25l-3.33,4.11h-.3l-3.34-4.11v7.1h-3.59V3.1h3.35l3.77,4.59,3.78-4.59h3.35Z"/><path class="cls-1" d="M282.15,15.35h-9.23V3.1H282V5.55h-5.39V7.8h5.14v2.46h-5.14v2.62h5.54Z"/><path class="cls-1" d="M114.23,3.5a6.45,6.45,0,0,1,4.65,1.85,6,6,0,0,1,1.9,4.49,6,6,0,0,1-1.9,4.49,6.76,6.76,0,0,1-9.27,0,6,6,0,0,1-1.9-4.49,6,6,0,0,1,1.9-4.49A6.37,6.37,0,0,1,114.23,3.5Zm0,11.79a5.41,5.41,0,0,0,5.48-5.45,5.41,5.41,0,0,0-5.48-5.45A5.36,5.36,0,0,0,110.35,6a5.22,5.22,0,0,0-1.61,3.87,5.22,5.22,0,0,0,1.61,3.87A5.36,5.36,0,0,0,114.27,15.29Z"/><path class="cls-1" d="M123.11,3.66h3.4a4.51,4.51,0,0,1,3,.88,2.94,2.94,0,0,1,1,2.38,3,3,0,0,1-1,2.43,4.61,4.61,0,0,1-3.07.89h-2.36V16h-1Zm1,.8v5h2.3a3.66,3.66,0,0,0,2.35-.65,2.25,2.25,0,0,0,.8-1.85,2.27,2.27,0,0,0-.78-1.81,3.39,3.39,0,0,0-2.26-.67Z"/><path class="cls-1" d="M139.1,3.66v.8h-5.78V9.4H139v.8h-5.63v5h5.92V16h-6.87V3.66Z"/><path class="cls-1" d="M152.33,3.66V16h-.78L142.16,5.22V16h-.95V3.66h.8l9.37,10.79V3.66Z"/><path class="cls-1" d="M55.32,12.38a2.09,2.09,0,0,0,1,.22c.31,0,.72,0,.79-.38s-.34-.52-.67-.62l-.92-.25c-.34.09-.82,0-.88.44S55,12.25,55.32,12.38Z"/><path class="cls-1" d="M68.52,12.34c.32,0,.57-.1.57-.51s-.31-.42-.63-.41-.57.15-.57.51S68.23,12.34,68.52,12.34Z"/><path class="cls-1" d="M69.29,18.88c1.3-1.94,2.68-3.81,2.22-6-.21-1-.36-2.12-1.4-2.5-1.2-.45-1.94.57-2.72,1.27l-.09,0a2.11,2.11,0,0,0-1.09.53,26.12,26.12,0,0,1-5.59-.14,9.87,9.87,0,0,1-2-.92c-1-.44-2-.76-3.06-1.13a1,1,0,0,0-.85-.09c-.48.39-.87.16-1.24-.19l-.79-.22-.27-.1c-.55-.27-1.1-.54-1.63-.83-.81-.43-1.07-.24-1.1.71,0,.5.45.91.22,1.58a10,10,0,0,1-1.68-1.69A28.5,28.5,0,0,0,45.3,5.44a4.18,4.18,0,0,0-3.36-1.33A9.08,9.08,0,0,1,46.53,9c.17.39.66.88.28,1.2s-.69-.3-1-.52C43.89,8.54,42,7.51,39.62,7.92a.15.15,0,0,1-.13.16h-.05S39.37,8,39.33,8a4.81,4.81,0,0,0-2.91,1.52,5.42,5.42,0,0,1,1.92.16,1.5,1.5,0,0,1,1.15,1.78,1.43,1.43,0,0,1-.34.67,3.91,3.91,0,0,1-1.4,1.12c-1.47.73-3.12,1-4.61,1.67a4.32,4.32,0,0,0-2.68,3.43c-.06.38-.18.87.15,1.09s.51-.28.77-.45a3.36,3.36,0,0,1,3.72.2c.83.82.8,2-.11,3.26a4.1,4.1,0,0,1-.71.79c-.65.54-1.31,1-2,1.56a2.78,2.78,0,0,0-1,3.44c.2.47.34.89,1,.29a2,2,0,0,1,2.79-.16,2,2,0,0,1,.59.95c1.46,3.79,4.13,6.7,7,9.47,4.53,4.45,8.22,9.36,9.32,15.83A38.28,38.28,0,0,1,52.68,59a27.7,27.7,0,0,1-1.5,10.41l.34,0c.13-.21.27-.42.4-.64a1,1,0,0,1,.39-.75,4.88,4.88,0,0,0,.84-1.31c1.05-2,2.07-4,3.16-6,.49-.68.95-1.38,1.37-2.1.79-2,2.44-3.22,3.81-4.66a17.23,17.23,0,0,1,6.18-3.69,15,15,0,0,1,6.39-1.07c5.06.28,8.46,2.55,9.94,7.34a12.42,12.42,0,0,1-1.41,10,15.26,15.26,0,0,1-2.86,3.3,22.1,22.1,0,0,0,9.06-6.9,27.59,27.59,0,0,0,1.71-2.2,25.28,25.28,0,0,0,1.9-4.33,30,30,0,0,0,2-9.16,42.51,42.51,0,0,0-5.78-24.21A35.87,35.87,0,0,0,75.75,9.72c-.19-.11-.38-.32-.61-.18s-.09.42-.06.62c.1.74.23,1.47.36,2.2a34.93,34.93,0,0,1,.18,13.05A14.7,14.7,0,0,1,71.79,33a13.78,13.78,0,0,1-6.33,3.61c-4.51,1.26-9,1.61-13.43-.31-3.69-1.59-6.82-3.8-8.62-7.57a6.35,6.35,0,0,1,2.67-8.57,6.55,6.55,0,0,1,.86-.37c1-.36,1.87-.66,2.79.12a3.14,3.14,0,0,0,1,.41,26.24,26.24,0,0,1,4.92,1.76c2.52,1.43,3.95,3.77,5.1,6.31a4.51,4.51,0,0,1,.14,3.05c-.06.23-.2.46-.07.71,1-.58,1.07-1.74,1.47-2.81.59.86.08,1.63.4,2.42a6.42,6.42,0,0,0,.79-3,3,3,0,0,1,.86-2.39c.54-.54,1-1.14,1.53-1.73-.37-.2-.62.05-.9.09a3.18,3.18,0,0,1-2.69-.48,12.4,12.4,0,0,1-3.76-5.55c-.37-1.15,0-1.74,1.06-2.25,1.33-.63,2.79-.56,4.18-.84a.09.09,0,0,1,.13,0l0,0a5.7,5.7,0,0,0,1.7,0c.65,0,1.32-.13,1.83.42a6,6,0,0,1,1.3,1.16c.4.51,0,1.19.37,1.81m.37-7.58c.32,0,.58.05.63.41s-.25.51-.57.51-.62,0-.63-.41.25-.49.57-.51Zm-13.81.37c.07-.4.55-.35.89-.44l.92.25c.33.1.77.14.67.62s-.48.36-.79.38a2.09,2.09,0,0,1-1-.22c-.29-.13-.72-.23-.66-.59Z"/><path class="cls-1" d="M49.74,53.68a18.86,18.86,0,0,0-8-11.73,58.38,58.38,0,0,0-10.8-5.06c-1.12-.45-2.08-1.27-3.34-1.39.1-.26-.12-.34-.27-.42a20.37,20.37,0,0,1-5.63-4.26,14.2,14.2,0,0,1-3.95-8.56,21.71,21.71,0,0,1,1.9-10.51,9.47,9.47,0,0,0,.9-2.41c-.61.36-1.05.6-1.48.87A36.61,36.61,0,0,0,5.61,25.32,42.78,42.78,0,0,0,1,45.48a35.56,35.56,0,0,0,1.34,9,22.84,22.84,0,0,0,3,6.39l3.1,4a19.4,19.4,0,0,0,4.71,3.7,13,13,0,0,0,3.3,1.56c.06-.36-.17-.48-.31-.65a13.19,13.19,0,0,1-3.08-5.85,16.06,16.06,0,0,1,1.12-10.46,13.14,13.14,0,0,1,6.47-6.69c3.16-1.36,9.65-.1,12.61,1.26a43.67,43.67,0,0,1,7.06,4.2,34.59,34.59,0,0,1,2.94,3.34c2.16,2.68,2.73,5.85,2.63,9.19a19,19,0,0,1-1.14,5.26,23.1,23.1,0,0,1-6.42,9.51l-7.27,5a25.08,25.08,0,0,0,6.79-2.82,26.62,26.62,0,0,0,7.47-6.26,22.08,22.08,0,0,0,5-12.31A26.54,26.54,0,0,0,49.74,53.68Z"/></svg>