<?xml version="1.0" encoding="UTF-8"?>
<svg id="Layer_1" xmlns="http://www.w3.org/2000/svg" viewBox="0 0 157.9 156.93">
  <g>
    <path d="M0,96.54l18.77-12.07v-12.18L0,60.4l34.74,6.17s-3.45,15.91.77,23.66L0,96.54Z"/>
    <path d="M157.9,96.54l-18.77-12.07v-12.18l18.77-11.89-34.74,6.17s3.45,15.91-.77,23.66l35.51,6.31Z"/>
    <path d="M60.88,0l12.07,18.77h12.18L97.02,0l-6.17,34.74s-15.91-3.45-23.66.77L60.88,0Z"/>
    <path d="M60.88,156.93l12.07-18.77h12.18l11.89,18.77-6.17-34.74s-15.91,3.45-23.66-.77l-6.31,35.51Z"/>
  </g>
  <g>
    <path d="M56.11,71.02L0,60.4l9.78-23.38,22.83,4.05c1.04-4.69,3.57-7.33,7.83-7.58l-3.91-23.49L60.88,0l9.95,56.02c-6.66,2.55-11.81,7.31-14.73,15Z"/>
    <circle cx="14.32" cy="13.66" r="13.66"/>
  </g>
  <g>
    <path d="M101.8,71.02l56.11-10.63-9.78-23.38-22.83,4.05c-1.04-4.69-3.57-7.33-7.83-7.58l3.91-23.49L97.02,0l-9.95,56.02c6.66,2.55,11.81,7.31,14.73,15Z"/>
    <circle cx="143.58" cy="13.66" r="13.66"/>
  </g>
  <g>
    <path d="M56.11,85.9L0,96.53l9.78,23.38,22.83-4.05c1.04,4.69,3.57,7.33,7.83,7.58l-3.91,23.49,24.36,10,9.95-56.02c-6.66-2.55-11.81-7.31-14.73-15Z"/>
    <circle cx="14.32" cy="143.27" r="13.66"/>
  </g>
  <g>
    <path d="M101.8,85.9l56.11,10.63-9.78,23.38-22.83-4.05c-1.04,4.69-3.57,7.33-7.83,7.58l3.91,23.49-24.36,10-9.95-56.02c6.66-2.55,11.81-7.31,14.73-15Z"/>
    <circle cx="143.58" cy="143.27" r="13.66"/>
  </g>
</svg>