<?xml version="1.0" encoding="UTF-8" standalone="no"?>
<svg
   xmlns:dc="http://purl.org/dc/elements/1.1/"
   xmlns:cc="http://creativecommons.org/ns#"
   xmlns:rdf="http://www.w3.org/1999/02/22-rdf-syntax-ns#"
   xmlns:svg="http://www.w3.org/2000/svg"
   xmlns="http://www.w3.org/2000/svg"
   xmlns:sodipodi="http://sodipodi.sourceforge.net/DTD/sodipodi-0.dtd"
   xmlns:inkscape="http://www.inkscape.org/namespaces/inkscape"
   inkscape:version="1.0beta1 (fe3e306, 2019-09-17)"
   sodipodi:docname="lf_mem_plat.svg"
   viewBox="0 0 474.66666 231.11067"
   height="231.11067"
   width="474.66666"
   xml:space="preserve"
   id="svg831"
   version="1.1">
  <metadata
     id="metadata837">
    <rdf:RDF>
      <cc:Work
         rdf:about="">
        <dc:format>image/svg+xml</dc:format>
        <dc:type
           rdf:resource="http://purl.org/dc/dcmitype/StillImage" />
        <dc:title></dc:title>
      </cc:Work>
    </rdf:RDF>
  </metadata>
  <defs
     id="defs835">
    <clipPath
       id="clipPath867"
       clipPathUnits="userSpaceOnUse">
      <path
         inkscape:connector-curvature="0"
         id="path865"
         d="M 0,173.333 H 356 V 0 H 0 Z" />
    </clipPath>
  </defs>
  <sodipodi:namedview
     inkscape:current-layer="g839"
     inkscape:window-maximized="0"
     inkscape:window-y="23"
     inkscape:window-x="57"
     inkscape:cy="115.55534"
     inkscape:cx="109.18258"
     inkscape:zoom="1.0807585"
     showgrid="false"
     id="namedview833"
     inkscape:window-height="480"
     inkscape:window-width="870"
     inkscape:pageshadow="2"
     inkscape:pageopacity="0"
     guidetolerance="10"
     gridtolerance="10"
     objecttolerance="10"
     borderopacity="1"
     inkscape:document-rotation="0"
     bordercolor="#666666"
     pagecolor="#ffffff" />
  <g
     transform="matrix(1.3333333,0,0,-1.3333333,0,231.11067)"
     inkscape:label="lf_mem_plat"
     inkscape:groupmode="layer"
     id="g839">
    <g
       transform="translate(6.5796,41.0576)"
       id="g841">
      <path
         inkscape:connector-curvature="0"
         id="path843"
         style="fill:none;stroke:#0d3a63;stroke-width:1;stroke-linecap:butt;stroke-linejoin:miter;stroke-miterlimit:10;stroke-dasharray:none;stroke-opacity:1"
         d="M 0,0 H 341.33" />
    </g>
    <g
       transform="translate(138.292,164.2334)"
       id="g845">
      <path
         inkscape:connector-curvature="0"
         id="path847"
         style="fill:#00325d;fill-opacity:1;fill-rule:nonzero;stroke:none"
         d="M 0,0 H 19.779 V -2.027 H 11.077 V -24.951 H 8.701 v 22.924 l -8.701,0 z" />
    </g>
    <g
       transform="translate(160.4155,164.2334)"
       id="g849">
      <path
         inkscape:connector-curvature="0"
         id="path851"
         style="fill:#00325d;fill-opacity:1;fill-rule:nonzero;stroke:none"
         d="M 0,0 H 2.375 V -10.833 H 17.192 V 0 h 2.376 V -24.951 H 17.192 V -12.86 H 2.375 V -24.951 H 0 Z" />
    </g>
    <g
       transform="translate(185.02,164.2334)"
       id="g853">
      <path
         inkscape:connector-curvature="0"
         id="path855"
         style="fill:#00325d;fill-opacity:1;fill-rule:nonzero;stroke:none"
         d="M 0,0 H 17.228 V -2.027 H 2.376 v -9.016 H 16.285 V -13.07 H 2.376 v -9.854 h 15.027 v -2.027 H 0 Z" />
    </g>
    <g
       transform="translate(138.292,77.3628)"
       id="g857">
      <path
         inkscape:connector-curvature="0"
         id="path859"
         style="fill:#00325d;fill-opacity:1;fill-rule:nonzero;stroke:none"
         d="M 0,0 H 15.83 V -2.027 H 2.375 v -9.016 H 14.327 V -13.07 H 2.375 V -24.951 H 0 Z" />
    </g>
    <g
       id="g861">
      <g
         clip-path="url(#clipPath867)"
         id="g863">
        <g
           transform="translate(167.5078,53.9146)"
           id="g869">
          <path
             inkscape:connector-curvature="0"
             id="path871"
             style="fill:#00325d;fill-opacity:1;fill-rule:nonzero;stroke:none"
             d="m 0,0 c 6.569,0 9.365,5.521 9.365,10.973 0,5.451 -2.796,10.972 -9.365,10.972 -6.604,0 -9.4,-5.521 -9.4,-10.972 C -9.4,5.521 -6.604,0 0,0 m 0,23.972 c 7.828,0 11.742,-6.15 11.742,-12.999 0,-6.85 -3.914,-13 -11.742,-13 -7.863,0 -11.776,6.15 -11.776,13 0,6.849 3.913,12.999 11.776,12.999" />
        </g>
        <g
           transform="translate(182.7139,77.3628)"
           id="g873">
          <path
             inkscape:connector-curvature="0"
             id="path875"
             style="fill:#00325d;fill-opacity:1;fill-rule:nonzero;stroke:none"
             d="m 0,0 h 2.376 v -15.446 c 0,-5.766 2.69,-8.002 7.303,-8.002 4.649,0 7.339,2.236 7.339,8.002 V 0 h 2.376 v -15.97 c 0,-5.137 -2.761,-9.505 -9.715,-9.505 -6.883,0 -9.679,4.368 -9.679,9.505 z" />
        </g>
        <g
           transform="translate(206.8638,77.3628)"
           id="g877">
          <path
             inkscape:connector-curvature="0"
             id="path879"
             style="fill:#00325d;fill-opacity:1;fill-rule:nonzero;stroke:none"
             d="m 0,0 h 2.656 l 14.537,-21.107 h 0.07 V 0 H 19.64 V -24.951 H 16.983 L 2.446,-3.844 H 2.377 V -24.951 H 0 Z" />
        </g>
        <g
           transform="translate(233.8804,54.439)"
           id="g881">
          <path
             inkscape:connector-curvature="0"
             id="path883"
             style="fill:#00325d;fill-opacity:1;fill-rule:nonzero;stroke:none"
             d="m 0,0 h 5.067 c 7.164,0 10.274,2.97 10.274,10.448 0,7.478 -3.11,10.449 -10.274,10.449 H 0 Z m -2.375,22.924 h 8.63 c 7.549,-0.175 11.463,-4.229 11.463,-12.476 0,-8.247 -3.914,-12.301 -11.463,-12.475 h -8.63 z" />
        </g>
        <g
           transform="translate(258.9751,62.1963)"
           id="g885">
          <path
             inkscape:connector-curvature="0"
             id="path887"
             style="fill:#00325d;fill-opacity:1;fill-rule:nonzero;stroke:none"
             d="M 0,0 H 9.82 L 4.997,12.79 Z M 3.774,15.167 H 6.43 l 9.785,-24.952 h -2.551 l -3.04,7.758 H -0.733 L -3.739,-9.785 H -6.29 Z" />
        </g>
        <g
           transform="translate(272.3979,77.3628)"
           id="g889">
          <path
             inkscape:connector-curvature="0"
             id="path891"
             style="fill:#00325d;fill-opacity:1;fill-rule:nonzero;stroke:none"
             d="M 0,0 H 19.778 V -2.027 H 11.077 V -24.951 H 8.701 v 22.924 l -8.701,0 z" />
        </g>
        <path
           inkscape:connector-curvature="0"
           id="path893"
           style="fill:#00325d;fill-opacity:1;fill-rule:nonzero;stroke:none"
           d="m 294.696,77.363 h 2.376 V 52.412 h -2.376 z" />
        <g
           transform="translate(312.7271,53.9146)"
           id="g895">
          <path
             inkscape:connector-curvature="0"
             id="path897"
             style="fill:#00325d;fill-opacity:1;fill-rule:nonzero;stroke:none"
             d="m 0,0 c 6.569,0 9.365,5.521 9.365,10.973 0,5.451 -2.796,10.972 -9.365,10.972 -6.604,0 -9.4,-5.521 -9.4,-10.972 C -9.4,5.521 -6.604,0 0,0 m 0,23.972 c 7.828,0 11.742,-6.15 11.742,-12.999 0,-6.85 -3.914,-13 -11.742,-13 -7.862,0 -11.776,6.15 -11.776,13 0,6.849 3.914,12.999 11.776,12.999" />
        </g>
        <g
           transform="translate(328.1431,77.3628)"
           id="g899">
          <path
             inkscape:connector-curvature="0"
             id="path901"
             style="fill:#00325d;fill-opacity:1;fill-rule:nonzero;stroke:none"
             d="m 0,0 h 2.655 l 14.537,-21.107 h 0.07 V 0 h 2.377 V -24.951 H 16.983 L 2.446,-3.844 H 2.376 V -24.951 H 0 Z" />
        </g>
        <g
           transform="translate(138.292,131.8516)"
           id="g903">
          <path
             inkscape:connector-curvature="0"
             id="path905"
             style="fill:#00325d;fill-opacity:1;fill-rule:nonzero;stroke:none"
             d="M 0,0 H 13.756 V -33.2 H 33.513 V -44.642 H 0 Z" />
        </g>
        <path
           inkscape:connector-curvature="0"
           id="path907"
           style="fill:#00325d;fill-opacity:1;fill-rule:nonzero;stroke:none"
           d="M 180.804,131.852 H 194.56 V 87.21 h -13.756 z" />
        <g
           transform="translate(204.813,131.8516)"
           id="g909">
          <path
             inkscape:connector-curvature="0"
             id="path911"
             style="fill:#00325d;fill-opacity:1;fill-rule:nonzero;stroke:none"
             d="m 0,0 h 14.066 l 13.006,-23.884 h 0.125 V 0 H 40.202 V -44.642 H 26.822 L 13.13,-20.258 H 13.004 V -44.642 H 0 Z" />
        </g>
        <g
           transform="translate(295.8423,104.4658)"
           id="g913">
          <path
             inkscape:connector-curvature="0"
             id="path915"
             style="fill:#00325d;fill-opacity:1;fill-rule:nonzero;stroke:none"
             d="m 0,0 c 0,-12.442 -6.565,-18.319 -20.32,-18.319 -13.755,0 -20.383,5.877 -20.383,18.319 v 27.386 h 13.755 V 3.063 c 0,-4.5 -0.063,-10.253 6.69,-10.253 6.503,0 6.503,5.753 6.503,10.253 V 27.386 H 0 Z" />
        </g>
        <g
           transform="translate(317.7212,110.9683)"
           id="g917">
          <path
             inkscape:connector-curvature="0"
             id="path919"
             style="fill:#00325d;fill-opacity:1;fill-rule:nonzero;stroke:none"
             d="M 0,0 -14.692,20.883 H 1.438 L 8.19,8.753 14.818,20.883 H 30.073 L 15.757,-0.125 31.699,-23.759 H 15.131 l -7.628,13.318 -7.878,-13.318 h -15.756 z" />
        </g>
        <g
           transform="translate(29.0728,74.8579)"
           id="g921">
          <path
             inkscape:connector-curvature="0"
             id="path923"
             style="fill:#2b93dd;fill-opacity:1;fill-rule:nonzero;stroke:none"
             d="M 0,0 V 44.883 H -22.485 V -22.446 H 44.87 L 44.87,0 Z" />
        </g>
        <g
           transform="translate(118.812,164.6582)"
           id="g925">
          <path
             inkscape:connector-curvature="0"
             id="path927"
             style="fill:#00325d;fill-opacity:1;fill-rule:nonzero;stroke:none"
             d="m 0,0 h -112.209 v -33.671 h 22.438 v 11.128 h 67.335 V -89.8 h -11.208 v -22.447 H 0 Z" />
        </g>
        <g
           transform="translate(8.5464,20.2778)"
           id="g929">
          <path
             inkscape:connector-curvature="0"
             id="path931"
             style="fill:#2b93dd;fill-opacity:1;fill-rule:nonzero;stroke:none"
             d="m 0,0 h 3.231 c 2.646,0 4.56,0.437 5.738,1.31 1.179,0.874 1.768,2.291 1.768,4.252 0,1.811 -0.557,3.153 -1.671,4.026 -1.115,0.873 -2.84,1.31 -5.176,1.31 H 0 Z M 12.505,5.626 C 12.505,3.354 11.734,1.613 10.191,0.402 8.648,-0.809 6.462,-1.415 3.633,-1.415 H 0 v -9.708 h -1.64 v 23.5 h 5.755 c 5.594,0 8.39,-2.251 8.39,-6.751" />
        </g>
        <g
           transform="translate(29.4551,9.1548)"
           id="g933">
          <path
             inkscape:connector-curvature="0"
             id="path935"
             style="fill:#2b93dd;fill-opacity:1;fill-rule:nonzero;stroke:none"
             d="M 0,0 V 23.5 H 1.64 V 1.543 H 12.843 V 0 Z" />
        </g>
        <g
           transform="translate(52.0039,18.9277)"
           id="g937">
          <path
             inkscape:connector-curvature="0"
             id="path939"
             style="fill:#2b93dd;fill-opacity:1;fill-rule:nonzero;stroke:none"
             d="M 0,0 H 8.407 L 5.208,8.471 C 4.94,9.135 4.619,10.057 4.244,11.236 3.955,10.207 3.638,9.275 3.295,8.439 Z M 8.954,-1.479 H -0.595 L -3.874,-9.773 H -5.69 l 9.452,23.597 h 1.044 l 9.259,-23.597 h -1.849 z" />
        </g>
        <g
           transform="translate(78.812,9.1548)"
           id="g941">
          <path
             inkscape:connector-curvature="0"
             id="path943"
             style="fill:#2b93dd;fill-opacity:1;fill-rule:nonzero;stroke:none"
             d="M 0,0 H -1.656 V 21.957 H -9.291 V 23.5 H 7.635 V 21.957 H 0 Z" />
        </g>
        <path
           inkscape:connector-curvature="0"
           id="path945"
           style="fill:#2b93dd;fill-opacity:1;fill-rule:nonzero;stroke:none"
           d="m 93.227,32.655 h 1.64 v -23.5 h -1.64 z" />
        <g
           transform="translate(121.8999,9.1548)"
           id="g947">
          <path
             inkscape:connector-curvature="0"
             id="path949"
             style="fill:#2b93dd;fill-opacity:1;fill-rule:nonzero;stroke:none"
             d="m 0,0 h -1.656 l -13.92,20.864 h -0.129 c 0.129,-2.486 0.193,-4.362 0.193,-5.626 V 0 h -1.575 v 23.5 h 1.64 L -1.543,2.668 h 0.096 C -1.543,4.597 -1.591,6.43 -1.591,8.166 V 23.5 H 0 Z" />
        </g>
        <g
           transform="translate(149.126,32.6548)"
           id="g951">
          <path
             inkscape:connector-curvature="0"
             id="path953"
             style="fill:#2b93dd;fill-opacity:1;fill-rule:nonzero;stroke:none"
             d="m 0,0 v -15.206 c 0,-2.7 -0.783,-4.812 -2.347,-6.333 -1.565,-1.522 -3.745,-2.282 -6.542,-2.282 -2.722,0 -4.846,0.763 -6.373,2.29 -1.528,1.527 -2.291,3.657 -2.291,6.389 V 0 h 1.656 v -15.206 c 0,-2.261 0.626,-4.021 1.88,-5.28 1.254,-1.26 3.028,-1.889 5.321,-1.889 2.239,0 3.975,0.619 5.208,1.857 1.232,1.237 1.848,2.955 1.848,5.151 L -1.64,0 Z" />
        </g>
        <g
           transform="translate(169.1509,9.1548)"
           id="g955">
          <path
             inkscape:connector-curvature="0"
             id="path957"
             style="fill:#2b93dd;fill-opacity:1;fill-rule:nonzero;stroke:none"
             d="m 0,0 -8.761,21.7 h -0.128 c 0.085,-1.329 0.128,-2.69 0.128,-4.083 V 0 h -1.575 v 23.5 h 2.54 L 0.53,2.829 H 0.626 L 8.953,23.5 h 2.475 V 0 H 9.773 v 17.81 c 0,1.243 0.064,2.529 0.193,3.857 H 9.837 L 1.044,0 Z" />
        </g>
        <g
           transform="translate(212.689,9.1548)"
           id="g959">
          <path
             inkscape:connector-curvature="0"
             id="path961"
             style="fill:#2b93dd;fill-opacity:1;fill-rule:nonzero;stroke:none"
             d="m 0,0 -8.761,21.7 h -0.128 c 0.085,-1.329 0.128,-2.69 0.128,-4.083 V 0 h -1.575 v 23.5 h 2.54 L 0.53,2.829 H 0.627 L 8.953,23.5 h 2.476 V 0 H 9.772 v 17.81 c 0,1.243 0.065,2.529 0.194,3.857 H 9.837 L 1.045,0 Z" />
        </g>
        <g
           transform="translate(246.8901,9.1548)"
           id="g963">
          <path
             inkscape:connector-curvature="0"
             id="path965"
             style="fill:#2b93dd;fill-opacity:1;fill-rule:nonzero;stroke:none"
             d="M 0,0 H -12.843 V 23.5 H 0 V 21.989 H -11.203 V 13.1 H -0.626 V 11.589 H -11.203 V 1.511 L 0,1.511 Z" />
        </g>
        <g
           transform="translate(265.8394,9.1548)"
           id="g967">
          <path
             inkscape:connector-curvature="0"
             id="path969"
             style="fill:#2b93dd;fill-opacity:1;fill-rule:nonzero;stroke:none"
             d="m 0,0 -8.761,21.7 h -0.128 c 0.085,-1.329 0.128,-2.69 0.128,-4.083 V 0 h -1.575 v 23.5 h 2.54 L 0.53,2.829 H 0.627 L 8.953,23.5 h 2.476 V 0 H 9.772 v 17.81 c 0,1.243 0.065,2.529 0.194,3.857 H 9.837 L 1.045,0 Z" />
        </g>
        <g
           transform="translate(288.8374,20.7441)"
           id="g971">
          <path
             inkscape:connector-curvature="0"
             id="path973"
             style="fill:#2b93dd;fill-opacity:1;fill-rule:nonzero;stroke:none"
             d="m 0,0 v -10.143 h 5.529 c 4.351,0 6.527,1.768 6.527,5.305 C 12.056,-1.613 9.762,0 5.176,0 Z m 0,1.447 h 5.176 c 2.207,0 3.812,0.366 4.814,1.101 1.002,0.734 1.503,1.883 1.503,3.448 0,1.564 -0.565,2.7 -1.696,3.407 -1.131,0.707 -2.816,1.061 -5.055,1.061 H 0 Z m -1.64,10.464 h 6.447 c 2.903,0 5.036,-0.494 6.396,-1.479 1.361,-0.986 2.042,-2.475 2.042,-4.469 0,-1.36 -0.416,-2.494 -1.246,-3.399 C 11.169,1.658 9.955,1.077 8.358,0.82 V 0.723 c 1.875,-0.279 3.255,-0.87 4.139,-1.776 0.885,-0.905 1.326,-2.167 1.326,-3.785 0,-2.165 -0.718,-3.831 -2.153,-4.999 -1.437,-1.168 -3.472,-1.752 -6.108,-1.752 H -1.64 Z" />
        </g>
        <g
           transform="translate(323.9712,9.1548)"
           id="g975">
          <path
             inkscape:connector-curvature="0"
             id="path977"
             style="fill:#2b93dd;fill-opacity:1;fill-rule:nonzero;stroke:none"
             d="M 0,0 H -12.843 V 23.5 H 0 V 21.989 H -11.203 V 13.1 H -0.626 V 11.589 H -11.203 V 1.511 L 0,1.511 Z" />
        </g>
        <g
           transform="translate(334.2241,20.8086)"
           id="g979">
          <path
             inkscape:connector-curvature="0"
             id="path981"
             style="fill:#2b93dd;fill-opacity:1;fill-rule:nonzero;stroke:none"
             d="m 0,0 h 4.484 c 1.983,0 3.521,0.442 4.614,1.326 1.093,0.884 1.639,2.189 1.639,3.914 0,1.789 -0.536,3.092 -1.607,3.906 C 8.059,9.96 6.312,10.368 3.89,10.368 H 0 Z m 0,-1.415 v -10.239 h -1.64 v 23.5 h 5.594 c 2.915,0 5.068,-0.538 6.462,-1.615 1.393,-1.077 2.09,-2.698 2.09,-4.862 C 12.506,3.793 12.09,2.464 11.26,1.382 10.43,0.3 9.167,-0.477 7.475,-0.949 l 6.38,-10.705 h -1.96 l -6.06,10.239 z" />
        </g>
      </g>
    </g>
  </g>
</svg>
