<svg id="Layer_1" data-name="Layer 1" xmlns="http://www.w3.org/2000/svg" viewBox="0 0 298 353.85974">
  <defs>
    <style>
      .cls-1 {
        fill: #fff;
      }

      .cls-2 {
        fill: #0033a1;
      }

      .cls-3 {
        fill: #2a7de1;
      }
    </style>
  </defs>
  <g>
    <polygon class="cls-1" points="177.436 81.429 252.085 184.753 127.906 274.872 51 154.716 177.436 81.429"/>
    <polygon class="cls-2" points="168.197 136.32 181.956 55.782 29.202 156.633 81.719 155.81 153.203 105.713 168.197 136.32"/>
    <polygon class="cls-3" points="271.51 191.418 164.529 154.712 181.954 55.777 271.51 191.418"/>
    <polyline class="cls-2" points="131.223 229.511 139.675 241.691 216.405 187.184 203.42 168.057 159.152 198.91 164.527 154.716 271.508 191.416 125.787 294.202"/>
    <polygon class="cls-3" points="29.2 156.634 81.723 155.811 94.075 176.677 143.275 143.238 125.788 293.012 29.2 156.634"/>
    <polygon class="cls-2" points="94.075 176.677 137.471 193.298 143.275 143.239 94.075 176.677"/>
  </g>
</svg>
