<?xml version="1.0" encoding="UTF-8" standalone="no"?>
<svg
   id="a"
   viewBox="0 0 624.24 469.28"
   version="1.1"
   xmlns="http://www.w3.org/2000/svg"
   xmlns:svg="http://www.w3.org/2000/svg">
  <defs
     id="defs7">
    <style
       id="style2">.c{fill:none;}.d{font-family:OpenSans-Bold, Open Sans;font-size:30px;letter-spacing:.12em;}.d,.e{fill:#488eff;}.f{fill:#fff;}.g{fill:#3274f9;}.h{opacity:.58;}.i{opacity:.9;}.j{clip-path:url(#b);}</style>
    <clipPath
       id="b">
      <path
         class="c"
         d="M75.08,7.38h473.31c34.98,0,63.35,28.36,63.35,63.35V342.14H11.74V70.72C11.74,35.74,40.1,7.38,75.08,7.38h0Z"
         id="path4" />
    </clipPath>
  </defs>
  <path
     class="e"
     d="M611.74,342.14H11.74V70.72C11.74,35.74,40.1,7.38,75.08,7.38h473.31c34.98,0,63.35,28.36,63.35,63.35"
     id="path9" />
  <path
     class="e"
     d="M608.14,355.91v103.77H15.34v-103.77H608.14m3.6-3.6H11.74v110.97H611.74v-110.97Z"
     id="path11" />
  <g
     class="j"
     clip-path="url(#b)"
     id="g17">
    <g
       class="i"
       id="g15">
      <path
         class="g"
         d="M 367.26,-133.62 0.32,119.44 253.38,486.38 620.32,233.32 Z M 266.29,322.45 291.88,82.32 166.35,168.89 180.31,131.38 135.02,123.46 327.19,-9.07 354.34,30.3 328.75,270.42 458.32,181.07 489.65,226.5 293.45,361.81 266.3,322.43 Z"
         id="path13" />
    </g>
  </g>
  <polygon
     class="f"
     points="154.1 110.59 154.11 110.59 154.11 110.59 154.1 110.59"
     id="polygon19" />
  <path
     class="c"
     d="M391.91,66.95c.46-.34,.7-.88,.65-1.45v-.05c.06-.61-.22-1.21-.74-1.54-.74-.35-1.55-.51-2.36-.45h-1.01v3.87h1.03c.83,.06,1.66-.08,2.43-.39Z"
     id="path21" />
  <path
     class="c"
     d="M483.96,66.8c1.15-.97,1.29-2.69,.32-3.84l-.33-.33c-.84-.55-1.83-.81-2.83-.75h-2.36v5.67h2.39c.99,.06,1.98-.2,2.81-.74Z"
     id="path23" />
  <path
     class="c"
     d="M471.67,66.91c1.19-1.07,1.28-2.9,.21-4.09h0s-.02-.03-.03-.04l-.14-.16c-.76-.56-1.7-.84-2.64-.78l-2.83,.04v5.8h2.68c.98,.07,1.95-.2,2.75-.77Z"
     id="path25" />
  <path
     class="c"
     d="M346.61,128.4c-11.03,0-17.62,8.49-17.62,18.5v.25c0,10.01,7.22,18.76,17.87,18.76s17.61-8.49,17.61-18.5v-.25c0-10.01-7.22-18.76-17.87-18.76Z"
     id="path27" />
  <polygon
     class="c"
     points="409.2 64.59 406.84 70.39 411.55 70.39 409.2 64.59"
     id="polygon29" />
  <path
     class="c"
     d="M255.08,67.85c1.32-1.23,1.4-3.3,.18-4.62-.04-.06-.1-.12-.16-.16-.83-.63-1.86-.95-2.9-.88h-3.21v6.52h3.02c1.09,.07,2.17-.23,3.07-.86Z"
     id="path31" />
  <path
     class="c"
     d="M530.75,127.26c-7.98,0-13.18,5.7-14.7,14.45h29.02c-1.14-8.62-6.21-14.45-14.32-14.45Z"
     id="path33" />
  <polygon
     class="c"
     points="326.71 64.59 324.34 70.39 329.06 70.39 326.71 64.59"
     id="polygon35" />
  <path
     class="c"
     d="M231.02,74.33c2.85,2.74,7.36,2.74,10.22,0,2.76-2.82,2.76-7.33,0-10.14-2.85-2.74-7.36-2.74-10.22,0-2.8,2.79-2.81,7.32-.02,10.12h0l.02,.02Z"
     id="path37" />
  <path
     class="c"
     d="M502.78,72.72c2.48-2.52,2.48-6.56,0-9.08-2.55-2.47-6.6-2.47-9.14,0-2.5,2.5-2.5,6.56,0,9.06h0c1.21,1.22,2.87,1.88,4.58,1.84h0c1.71,.06,3.36-.61,4.57-1.83Z"
     id="path39" />
  <path
     class="f"
     d="M466.24,68.64h2.75c1.29,.1,2.57-.27,3.61-1.04,.82-.7,1.27-1.75,1.22-2.83,.06-1.07-.4-2.11-1.22-2.8-1-.75-2.24-1.12-3.49-1.03h-3.99v14.47h1.11v-6.77Zm0-6.77l2.83-.04c.95-.06,1.88,.22,2.64,.78l.14,.16s.02,.03,.03,.04c1.07,1.19,.98,3.02-.21,4.09h0c-.8,.57-1.77,.84-2.75,.77h-2.68v-5.8Z"
     id="path41" />
  <path
     class="f"
     d="M478.72,68.5h2c.72-.04,1.44,.13,2.06,.49,.79,.71,1.45,1.55,1.96,2.48l2.52,3.94h1.34l-3.27-5c-.47-.87-1.13-1.63-1.93-2.22,1.62-.39,2.76-1.84,2.75-3.51,.04-1.05-.41-2.06-1.23-2.72-1.03-.74-2.3-1.1-3.57-1.02h-3.7l-.04,14.5h1.11v-6.94Zm.04-6.62h2.36c1-.06,1.99,.2,2.83,.75l.33,.33c.97,1.15,.83,2.87-.32,3.84-.83,.54-1.82,.8-2.81,.74h-2.39v-5.67Z"
     id="path43" />
  <path
     class="f"
     d="M503.64,73.44l.18-.18s.06-.06,.08-.09c2.76-2.9,2.64-7.49-.26-10.25h0c-3.05-2.87-7.81-2.87-10.86,0l-.14,.15h0c-2.82,2.91-2.75,7.55,.15,10.37,3.05,2.88,7.81,2.88,10.86,0Zm-10.01-.74c-2.5-2.5-2.5-6.56,0-9.06h0c2.55-2.48,6.6-2.48,9.14,0,2.48,2.52,2.48,6.56,0,9.08-1.2,1.22-2.85,1.88-4.57,1.84h0c-1.71,.03-3.37-.64-4.58-1.85h0Z"
     id="path45" />
  <path
     class="f"
     d="M508.47,79.64c.81,0,1.58-.33,2.13-.92,.7-.94,1.02-2.11,.9-3.27v-14.5h-1.11v14.82c0,1.94-.67,2.9-2.03,2.9-.22,0-.44-.03-.65-.07l.1,1.05c.22,0,.44,0,.67,0Z"
     id="path47" />
  <polygon
     class="f"
     points="524.49 74.47 517.56 74.47 517.56 68.6 524.15 68.6 524.15 67.66 517.56 67.66 517.56 61.88 524.33 61.88 524.33 60.95 516.44 60.95 516.44 75.41 524.49 75.41 524.49 74.47"
     id="polygon49" />
  <path
     class="f"
     d="M540.55,61.98h0s.04,.02,.06,.03l-.06-.03Z"
     id="path51" />
  <path
     class="f"
     d="M535.58,75.62c1.79-.02,3.55-.48,5.12-1.35v-1.16c-1.57,.9-3.34,1.4-5.14,1.45-1.73,.06-3.41-.58-4.65-1.79-1.22-1.21-1.88-2.88-1.81-4.61-.05-1.71,.6-3.37,1.81-4.58,1.18-1.21,2.8-1.88,4.49-1.84,1.81,.05,3.59,.55,5.16,1.45v-1.21c-1.57-.75-3.29-1.16-5.03-1.19-2-.02-3.92,.74-5.35,2.13-.03,.04-.06,.07-.1,.1h0c-2.89,2.9-2.89,7.59,0,10.48,1.47,1.42,3.46,2.19,5.51,2.12Z"
     id="path53" />
  <polygon
     class="f"
     points="548.39 75.41 549.52 75.41 549.52 61.88 554.94 61.88 554.94 60.95 542.95 60.95 542.95 61.88 548.39 61.88 548.39 75.41"
     id="polygon55" />
  <polygon
     class="f"
     points="314.79 76.43 314.79 60.4 310.39 60.4 305.45 66.42 300.53 60.4 296.15 60.4 296.15 76.43 300.84 76.43 300.84 67.14 305.21 72.52 305.6 72.52 309.94 67.14 309.94 76.43 314.79 76.43"
     id="polygon57" />
  <path
     class="f"
     d="M323.21,73.18h6.96l1.32,3.25h4.94l-7-16.03h-5.41l-7.09,16.03h4.94l1.33-3.25Zm3.51-8.59l2.35,5.8h-4.72l2.37-5.8Z"
     id="path59" />
  <rect
     class="f"
     x="338.57"
     y="60.4"
     width="4.82"
     height="16.03"
     id="rect61" />
  <polygon
     class="f"
     points="352.24 67.5 360.56 76.43 364.85 76.43 364.85 60.4 360.03 60.4 360.03 69.28 351.75 60.4 347.46 60.4 347.46 76.43 352.24 76.43 352.24 67.5"
     id="polygon63" />
  <polygon
     class="f"
     points="373.71 69.94 380.36 69.94 380.36 66.72 373.71 66.72 373.71 63.62 380.36 63.62 380.36 60.4 368.88 60.4 368.88 76.43 373.71 76.43 373.71 69.94"
     id="polygon65" />
  <path
     class="f"
     d="M390.35,70.33c.44,.21,.81,.53,1.08,.93,.49,.71,.91,1.48,1.25,2.28l1.26,2.9h5.19l-1.58-3.51c-.38-.88-.86-1.71-1.42-2.48-.35-.43-.79-.8-1.28-1.07,.41-.22,.8-.46,1.17-.73,.41-.33,.75-.75,.99-1.22,.33-.63,.49-1.34,.46-2.06-.01-.77-.2-1.52-.55-2.2-.42-.81-1.06-1.49-1.84-1.96-.99-.58-2.12-.86-3.26-.81h-8.22v15.99h4.84v-6.26h.54c.46-.01,.93,.06,1.36,.2Zm-1.9-6.85h1.01c.81-.06,1.63,.1,2.36,.45,.52,.33,.8,.92,.74,1.54v.05c.05,.56-.2,1.11-.65,1.45-.77,.32-1.6,.45-2.43,.39h-1.03v-3.87Z"
     id="path67" />
  <path
     class="f"
     d="M405.71,73.18h6.96l1.3,3.25h4.94l-7.06-16.03h-5.35l-7.09,16.03h4.96l1.33-3.25Zm3.49-8.59l2.35,5.8h-4.71l2.36-5.8Z"
     id="path69" />
  <polygon
     class="f"
     points="425.74 67.14 430.12 72.52 430.49 72.52 434.86 67.14 434.86 76.43 439.68 76.43 439.68 60.4 435.31 60.4 430.35 66.42 425.44 60.4 421.04 60.4 421.04 76.43 425.74 76.43 425.74 67.14"
     id="polygon71" />
  <polygon
     class="f"
     points="455.82 73.2 448.57 73.2 448.57 69.78 455.29 69.78 455.29 66.54 448.57 66.54 448.57 63.62 455.61 63.62 455.61 60.4 443.73 60.4 443.73 76.43 455.82 76.43 455.82 73.2"
     id="polygon73" />
  <path
     class="f"
     d="M242.21,75.14l.2-.2s.02-.03,.04-.04c3.13-3.26,3.02-8.43-.24-11.56-1.61-1.6-3.81-2.47-6.07-2.41v.04c-2.26-.05-4.44,.82-6.05,2.41l-.16,.16c-3.16,3.25-3.08,8.43,.16,11.59,3.4,3.21,8.72,3.21,12.12,0Zm-11.19-10.95c2.85-2.74,7.36-2.74,10.22,0,2.76,2.82,2.76,7.33,0,10.14-2.85,2.74-7.36,2.74-10.22,0l-.02-.02c-2.79-2.8-2.79-7.33,.01-10.12h0Z"
     id="path75" />
  <path
     class="f"
     d="M248.92,69.75h3.09c1.44,.1,2.86-.32,4.01-1.17,1.76-1.53,1.94-4.2,.41-5.96-.1-.11-.21-.22-.32-.33-1.13-.83-2.51-1.23-3.91-1.15h-4.45l-.07,16.13h1.24v-7.52Zm.07-7.57h3.21c1.04-.06,2.07,.25,2.9,.88,.06,.04,.12,.1,.16,.16,1.23,1.33,1.15,3.39-.18,4.62-.9,.62-1.98,.93-3.07,.86h-3.02v-6.52Z"
     id="path77" />
  <polygon
     class="f"
     points="268.87 76.26 261.11 76.26 261.11 69.69 268.48 69.69 268.48 68.65 261.11 68.65 261.11 62.18 268.68 62.18 268.68 61.14 259.87 61.14 259.87 77.3 268.87 77.3 268.87 76.26"
     id="polygon79" />
  <polygon
     class="f"
     points="272.68 63.16 284.96 77.3 285.99 77.3 285.99 61.14 284.74 61.14 284.74 75.26 272.49 61.14 271.44 61.14 271.44 77.3 272.68 77.3 272.68 63.16"
     id="polygon81" />
  <polygon
     class="f"
     points="227.61 109.39 274.88 109.39 226.09 166.17 226.09 180.99 299.98 180.99 299.98 163.89 251.19 163.89 299.98 107.11 299.98 92.28 227.61 92.28 227.61 109.39"
     id="polygon83" />
  <path
     class="f"
     d="M346.87,111.8c-21.16,0-36.88,15.84-36.88,35.36v.25c0,19.52,15.59,35.1,36.62,35.1s36.88-15.84,36.88-35.36v-.25c0-19.52-15.59-35.1-36.62-35.1Zm17.61,35.61c0,10.01-6.59,18.5-17.61,18.5s-17.87-8.74-17.87-18.76v-.25c0-10.01,6.59-18.5,17.62-18.5s17.87,8.74,17.87,18.76v.25Z"
     id="path85" />
  <polygon
     class="f"
     points="461.56 154.38 448.63 112.81 432.03 112.81 419.23 154.25 408.33 113.07 388.81 113.07 409.72 181.5 426.96 181.5 440.27 139.81 453.32 181.5 470.68 181.5 491.85 113.07 472.71 113.07 461.56 154.38"
     id="polygon87" />
  <path
     class="f"
     d="M563.83,148.68c0-19.26-10.39-36.88-33.08-36.88-19.77,0-33.58,15.97-33.58,35.36v.25c0,20.78,15.08,35.1,35.48,35.1,12.29,0,21.42-4.82,27.75-12.67l-11.03-9.76c-5.32,4.94-10.01,6.97-16.47,6.97-8.62,0-14.7-4.56-16.6-13.31h47.27c.13-1.77,.25-3.55,.25-5.07Zm-47.78-6.97c1.52-8.74,6.72-14.45,14.7-14.45s13.18,5.83,14.32,14.45h-29.02Z"
     id="path89" />
  <path
     class="f"
     d="M141.23,51.38L50.32,114.07l62.69,90.91,90.91-62.69-62.69-90.91Zm-25.01,112.99l6.34-59.49-31.1,21.45-7.76-11.25,47.61-32.83,6.73,9.75-6.34,59.49,32.1-22.14,7.76,11.26-48.61,33.52-6.73-9.75Z"
     id="path91" />
  <g
     id="g151">
    <g
       id="g113">
      <path
         class="f"
         d="m 137.6,224.24 c -3.21,0 -5.73,1.14 -7.57,3.41 -1.84,2.27 -2.76,5.41 -2.76,9.41 0,4 0.88,7.36 2.65,9.51 1.77,2.15 4.33,3.22 7.67,3.22 1.45,0 2.85,-0.14 4.2,-0.43 1.36,-0.29 2.76,-0.66 4.23,-1.11 v 4.79 c -2.68,1.01 -5.72,1.52 -9.11,1.52 -5,0 -8.84,-1.51 -11.52,-4.54 -2.68,-3.03 -4.02,-7.36 -4.02,-13 0,-3.55 0.65,-6.66 1.95,-9.32 1.3,-2.66 3.18,-4.7 5.64,-6.12 2.46,-1.42 5.35,-2.13 8.67,-2.13 3.49,0 6.71,0.73 9.67,2.2 l -2.01,4.65 c -1.15,-0.54 -2.37,-1.02 -3.66,-1.44 -1.29,-0.41 -2.64,-0.62 -4.05,-0.62 z"
         id="path93" />
      <path
         class="f"
         d="m 188.49,236.97 c 0,5.56 -1.39,9.88 -4.17,12.96 -2.78,3.08 -6.72,4.62 -11.81,4.62 -5.09,0 -9.11,-1.53 -11.88,-4.59 -2.76,-3.06 -4.15,-7.41 -4.15,-13.05 0,-5.64 1.39,-9.97 4.17,-12.99 2.78,-3.02 6.75,-4.53 11.9,-4.53 5.15,0 9,1.53 11.77,4.6 2.77,3.07 4.16,7.39 4.16,12.96 z m -26.07,0 c 0,4.2 0.85,7.39 2.55,9.57 1.7,2.17 4.21,3.26 7.54,3.26 3.33,0 5.82,-1.08 7.51,-3.22 1.69,-2.15 2.53,-5.35 2.53,-9.6 0,-4.25 -0.84,-7.37 -2.51,-9.53 -1.67,-2.16 -4.17,-3.25 -7.49,-3.25 -3.32,0 -5.88,1.08 -7.58,3.25 -1.71,2.17 -2.56,5.34 -2.56,9.53 z"
         id="path95" />
      <path
         class="f"
         d="m 229.06,254.09 h -6.84 l -16.79,-27.21 h -0.19 l 0.12,1.52 c 0.22,2.9 0.33,5.54 0.33,7.94 v 17.75 h -5.07 v -34.15 h 6.77 l 16.75,27.07 h 0.14 c -0.03,-0.36 -0.09,-1.66 -0.19,-3.91 -0.1,-2.25 -0.14,-4.01 -0.14,-5.27 v -17.89 h 5.12 v 34.15 z"
         id="path97" />
      <path
         class="f"
         d="m 248.4,254.09 h -5.54 v -34.15 h 19.27 v 4.72 H 248.4 v 10.67 h 12.87 v 4.74 H 248.4 Z"
         id="path99" />
      <path
         class="f"
         d="m 303.43,236.97 c 0,5.56 -1.39,9.88 -4.17,12.96 -2.78,3.08 -6.72,4.62 -11.81,4.62 -5.09,0 -9.11,-1.53 -11.88,-4.59 -2.76,-3.06 -4.15,-7.41 -4.15,-13.05 0,-5.64 1.39,-9.97 4.17,-12.99 2.78,-3.02 6.75,-4.53 11.9,-4.53 5.15,0 9,1.53 11.77,4.6 2.77,3.07 4.16,7.39 4.16,12.96 z m -26.07,0 c 0,4.2 0.85,7.39 2.55,9.57 1.7,2.17 4.21,3.26 7.54,3.26 3.33,0 5.82,-1.08 7.51,-3.22 1.69,-2.15 2.53,-5.35 2.53,-9.6 0,-4.25 -0.84,-7.37 -2.51,-9.53 -1.67,-2.16 -4.17,-3.25 -7.49,-3.25 -3.32,0 -5.88,1.08 -7.58,3.25 -1.71,2.17 -2.56,5.34 -2.56,9.53 z"
         id="path101" />
      <path
         class="f"
         d="m 321.13,240.45 v 13.64 h -5.58 v -34.15 h 9.65 c 4.41,0 7.67,0.83 9.79,2.48 2.12,1.65 3.18,4.14 3.18,7.47 0,4.25 -2.21,7.28 -6.63,9.09 l 9.65,15.11 h -6.35 l -8.18,-13.64 h -5.51 z m 0,-4.62 h 3.88 c 2.6,0 4.49,-0.48 5.65,-1.45 1.16,-0.97 1.75,-2.4 1.75,-4.3 0,-1.9 -0.63,-3.32 -1.89,-4.16 -1.26,-0.84 -3.16,-1.26 -5.7,-1.26 h -3.69 z"
         id="path103" />
      <path
         class="f"
         d="m 365.67,254.09 -9.9,-28.52 h -0.19 c 0.26,4.24 0.4,8.21 0.4,11.91 v 16.61 h -5.07 v -34.15 h 7.87 l 9.48,27.17 h 0.14 l 9.76,-27.17 h 7.9 v 34.15 h -5.37 V 237.2 c 0,-1.7 0.04,-3.91 0.13,-6.63 0.08,-2.73 0.16,-4.38 0.22,-4.95 h -0.19 l -10.25,28.47 z"
         id="path105" />
      <path
         class="f"
         d="m 421.03,254.09 -3.41,-9.48 h -13.06 l -3.34,9.48 h -5.89 l 12.78,-34.29 h 6.07 l 12.78,34.29 z m -4.88,-14.3 -3.2,-9.3 c -0.23,-0.62 -0.56,-1.6 -0.97,-2.94 -0.41,-1.34 -0.7,-2.32 -0.85,-2.94 -0.42,1.92 -1.04,4.01 -1.85,6.28 l -3.08,8.9 z"
         id="path107" />
      <path
         class="f"
         d="m 464.7,254.09 h -6.84 l -16.79,-27.21 h -0.19 l 0.12,1.52 c 0.22,2.9 0.33,5.54 0.33,7.94 v 17.75 h -5.07 v -34.15 h 6.77 l 16.75,27.07 h 0.14 c -0.03,-0.36 -0.09,-1.66 -0.19,-3.91 -0.1,-2.25 -0.14,-4.01 -0.14,-5.27 v -17.89 h 5.12 v 34.15 z"
         id="path109" />
      <path
         class="f"
         d="m 490.3,254.09 h -5.58 v -29.36 h -10.04 v -4.79 h 25.67 v 4.79 h -10.04 v 29.36 z"
         id="path111" />
    </g>
    <g
       class="h"
       id="g117">
      <path
         id="rect115"
         class="f"
         style="fill:#ffffff"
         d="M 35.439999,277.64001 H 588.97003 v 43.53 H 35.439999 Z" />
    </g>
    <g
       id="g149">
      <path
         class="g"
         d="m 119.69,303.15 c 0,1.82 -0.65,3.25 -1.96,4.29 -1.31,1.04 -3.13,1.57 -5.46,1.57 -2.15,0 -4.05,-0.4 -5.7,-1.21 v -3.96 c 1.36,0.61 2.51,1.03 3.45,1.28 0.94,0.25 1.8,0.37 2.58,0.37 0.94,0 1.65,-0.18 2.15,-0.54 0.5,-0.36 0.75,-0.89 0.75,-1.6 0,-0.39 -0.11,-0.75 -0.33,-1.05 -0.22,-0.31 -0.54,-0.6 -0.97,-0.89 -0.43,-0.29 -1.3,-0.74 -2.61,-1.36 -1.23,-0.58 -2.15,-1.13 -2.77,-1.67 -0.62,-0.53 -1.11,-1.15 -1.47,-1.86 -0.37,-0.71 -0.55,-1.53 -0.55,-2.48 0,-1.78 0.6,-3.18 1.81,-4.2 1.21,-1.02 2.87,-1.53 5,-1.53 1.05,0 2.04,0.12 2.99,0.37 0.95,0.25 1.94,0.6 2.98,1.05 l -1.38,3.32 c -1.07,-0.44 -1.96,-0.75 -2.66,-0.92 -0.7,-0.17 -1.39,-0.26 -2.07,-0.26 -0.81,0 -1.43,0.19 -1.86,0.56 -0.43,0.38 -0.65,0.87 -0.65,1.47 0,0.38 0.09,0.7 0.26,0.98 0.17,0.28 0.45,0.55 0.83,0.81 0.38,0.26 1.28,0.73 2.7,1.41 1.88,0.9 3.17,1.8 3.87,2.7 0.7,0.9 1.05,2.01 1.05,3.32 z"
         id="path119" />
      <path
         class="g"
         d="m 148.17,288.62 v 13.02 c 0,1.49 -0.33,2.79 -1,3.91 -0.67,1.12 -1.63,1.98 -2.88,2.57 -1.25,0.59 -2.74,0.89 -4.46,0.89 -2.59,0 -4.6,-0.66 -6.03,-1.99 -1.43,-1.33 -2.15,-3.14 -2.15,-5.44 v -12.96 h 4.25 v 12.32 c 0,1.55 0.31,2.69 0.94,3.41 0.62,0.73 1.66,1.09 3.1,1.09 1.44,0 2.41,-0.37 3.03,-1.09 0.63,-0.73 0.94,-1.87 0.94,-3.43 v -12.29 h 4.25 z"
         id="path121" />
      <path
         class="g"
         d="m 175.46,294.89 c 0,2.17 -0.68,3.82 -2.03,4.97 -1.35,1.15 -3.28,1.72 -5.77,1.72 h -1.83 v 7.16 h -4.27 v -20.12 h 6.43 c 2.44,0 4.3,0.53 5.57,1.58 1.27,1.05 1.91,2.62 1.91,4.7 z m -9.63,3.19 h 1.4 c 1.31,0 2.29,-0.26 2.95,-0.78 0.66,-0.52 0.98,-1.27 0.98,-2.26 0,-0.99 -0.27,-1.74 -0.82,-2.22 -0.55,-0.48 -1.4,-0.72 -2.57,-0.72 h -1.94 v 5.97 z"
         id="path123" />
      <path
         class="g"
         d="m 201.61,294.89 c 0,2.17 -0.68,3.82 -2.03,4.97 -1.35,1.15 -3.28,1.72 -5.77,1.72 h -1.83 v 7.16 h -4.27 v -20.12 h 6.43 c 2.44,0 4.3,0.53 5.57,1.58 1.27,1.05 1.91,2.62 1.91,4.7 z m -9.63,3.19 h 1.4 c 1.31,0 2.29,-0.26 2.95,-0.78 0.66,-0.52 0.98,-1.27 0.98,-2.26 0,-0.99 -0.27,-1.74 -0.82,-2.22 -0.55,-0.48 -1.4,-0.72 -2.57,-0.72 h -1.94 v 5.97 z"
         id="path125" />
      <path
         class="g"
         d="m 232.13,298.65 c 0,3.33 -0.83,5.89 -2.48,7.68 -1.65,1.79 -4.02,2.68 -7.1,2.68 -3.08,0 -5.45,-0.89 -7.1,-2.68 -1.65,-1.79 -2.48,-4.36 -2.48,-7.71 0,-3.35 0.83,-5.91 2.48,-7.67 1.66,-1.77 4.03,-2.65 7.12,-2.65 3.09,0 5.46,0.89 7.09,2.67 1.64,1.78 2.46,4.34 2.46,7.68 z m -14.68,0 c 0,2.25 0.43,3.94 1.28,5.08 0.85,1.14 2.13,1.71 3.83,1.71 3.4,0 5.11,-2.26 5.11,-6.79 0,-4.53 -1.69,-6.8 -5.08,-6.8 -1.7,0 -2.98,0.57 -3.84,1.71 -0.86,1.14 -1.29,2.84 -1.29,5.08 z"
         id="path127" />
      <path
         class="g"
         d="m 249.02,301.02 v 7.72 h -4.27 v -20.12 h 5.86 c 2.73,0 4.76,0.5 6.07,1.49 1.31,1 1.97,2.51 1.97,4.53 0,1.18 -0.33,2.24 -0.98,3.16 -0.65,0.92 -1.57,1.64 -2.77,2.17 3.03,4.52 5,7.45 5.92,8.77 h -4.73 l -4.8,-7.72 z m 0,-3.47 h 1.38 c 1.35,0 2.34,-0.22 2.99,-0.67 0.64,-0.45 0.96,-1.16 0.96,-2.12 0,-0.96 -0.33,-1.63 -0.98,-2.04 -0.66,-0.4 -1.67,-0.61 -3.05,-0.61 h -1.29 v 5.44 z"
         id="path129" />
      <path
         class="g"
         d="m 279.58,308.74 h -4.27 v -16.57 h -5.46 v -3.55 h 15.19 v 3.55 h -5.46 z"
         id="path131" />
      <path
         class="g"
         d="m 326.27,294.89 c 0,2.17 -0.68,3.82 -2.03,4.97 -1.35,1.15 -3.28,1.72 -5.77,1.72 h -1.83 v 7.16 h -4.27 v -20.12 h 6.43 c 2.44,0 4.3,0.53 5.57,1.58 1.27,1.05 1.91,2.62 1.91,4.7 z m -9.63,3.19 h 1.4 c 1.31,0 2.29,-0.26 2.95,-0.78 0.66,-0.52 0.98,-1.27 0.98,-2.26 0,-0.99 -0.27,-1.74 -0.82,-2.22 -0.55,-0.48 -1.4,-0.72 -2.57,-0.72 h -1.94 v 5.97 z"
         id="path133" />
      <path
         class="g"
         d="m 342.79,301.02 v 7.72 h -4.27 v -20.12 h 5.86 c 2.73,0 4.76,0.5 6.07,1.49 1.31,1 1.97,2.51 1.97,4.53 0,1.18 -0.33,2.24 -0.98,3.16 -0.65,0.92 -1.57,1.64 -2.77,2.17 3.03,4.52 5,7.45 5.92,8.77 h -4.73 l -4.8,-7.72 z m 0,-3.47 h 1.38 c 1.35,0 2.34,-0.22 2.99,-0.67 0.64,-0.45 0.96,-1.16 0.96,-2.12 0,-0.96 -0.33,-1.63 -0.98,-2.04 -0.66,-0.4 -1.67,-0.61 -3.05,-0.61 h -1.29 v 5.44 z"
         id="path135" />
      <path
         class="g"
         d="m 383.85,298.65 c 0,3.33 -0.83,5.89 -2.48,7.68 -1.65,1.79 -4.02,2.68 -7.1,2.68 -3.08,0 -5.45,-0.89 -7.1,-2.68 -1.65,-1.79 -2.48,-4.36 -2.48,-7.71 0,-3.35 0.83,-5.91 2.48,-7.67 1.66,-1.77 4.03,-2.65 7.12,-2.65 3.09,0 5.46,0.89 7.09,2.67 1.64,1.78 2.46,4.34 2.46,7.68 z m -14.68,0 c 0,2.25 0.43,3.94 1.28,5.08 0.85,1.14 2.13,1.71 3.83,1.71 3.4,0 5.11,-2.26 5.11,-6.79 0,-4.53 -1.69,-6.8 -5.08,-6.8 -1.7,0 -2.98,0.57 -3.84,1.71 -0.86,1.14 -1.29,2.84 -1.29,5.08 z"
         id="path137" />
      <path
         class="g"
         d="m 407.95,288.62 h 4.31 l -6.84,20.12 h -4.65 l -6.83,-20.12 h 4.31 l 3.78,11.97 c 0.21,0.71 0.43,1.53 0.65,2.47 0.22,0.94 0.36,1.59 0.42,1.96 0.1,-0.84 0.44,-2.32 1.03,-4.43 l 3.81,-11.97 z"
         id="path139" />
      <path
         class="g"
         d="m 423.25,308.74 v -20.12 h 4.27 v 20.12 z"
         id="path141" />
      <path
         class="g"
         d="m 457.73,298.49 c 0,3.31 -0.94,5.85 -2.83,7.61 -1.88,1.76 -4.61,2.64 -8.17,2.64 h -5.7 v -20.12 h 6.32 c 3.28,0 5.83,0.87 7.65,2.6 1.82,1.73 2.72,4.16 2.72,7.27 z m -4.43,0.11 c 0,-4.32 -1.91,-6.48 -5.73,-6.48 h -2.27 v 13.1 h 1.83 c 4.11,0 6.17,-2.21 6.17,-6.62 z"
         id="path143" />
      <path
         class="g"
         d="m 481.94,308.74 h -11.59 v -20.12 h 11.59 v 3.5 h -7.32 v 4.42 h 6.81 v 3.5 h -6.81 v 5.19 h 7.32 v 3.52 z"
         id="path145" />
      <path
         class="g"
         d="m 498.86,301.02 v 7.72 h -4.27 v -20.12 h 5.86 c 2.73,0 4.76,0.5 6.07,1.49 1.31,1 1.97,2.51 1.97,4.53 0,1.18 -0.33,2.24 -0.98,3.16 -0.65,0.92 -1.57,1.64 -2.77,2.17 3.03,4.52 5,7.45 5.92,8.77 h -4.73 l -4.8,-7.72 z m 0,-3.47 h 1.38 c 1.35,0 2.34,-0.22 2.99,-0.67 0.64,-0.45 0.96,-1.16 0.96,-2.12 0,-0.96 -0.33,-1.63 -0.98,-2.04 -0.66,-0.4 -1.67,-0.61 -3.05,-0.61 h -1.29 v 5.44 z"
         id="path147" />
    </g>
  </g>
  <g
     aria-label="APP FRAMEWORK - ZOWE V2"
     transform="translate(61.6,420.49)"
     id="text155"
     class="d"
     style="font-size:30px;font-family:OpenSans-Bold, 'Open Sans';letter-spacing:0.12em;fill:#488eff">
    <path
       d="m 20.126953,0 h -3.09082 L 14.897461,-6.0791016 H 5.4638672 L 3.3251953,0 H 0.38085938 L 8.3203125,-21.811523 H 12.1875 Z M 14.003906,-8.5693359 10.180664,-19.277344 6.3427734,-8.5693359 Z"
       id="path161" />
    <path
       d="m 41.305079,-15.219727 q 0,1.450196 -0.512696,2.695313 -0.498047,1.230469 -1.40625,2.138672 -1.127929,1.1279295 -2.666015,1.6992186 -1.538086,0.5566406 -3.881836,0.5566406 H 29.937891 V 0 H 27.0375 v -21.811523 h 5.917969 q 1.962891,0 3.325195,0.336914 1.362305,0.322265 2.416993,1.02539 1.245117,0.834961 1.918945,2.080078 0.688477,1.245118 0.688477,3.149414 z m -3.017579,0.07324 q 0,-1.12793 -0.395507,-1.962891 -0.395508,-0.834961 -1.201172,-1.362305 -0.703125,-0.454101 -1.611328,-0.644531 -0.893555,-0.205078 -2.270508,-0.205078 h -2.871094 v 8.71582 h 2.446289 q 1.757813,0 2.856445,-0.307617 1.098633,-0.322266 1.78711,-1.010742 0.688476,-0.703125 0.966797,-1.479492 0.292968,-0.776368 0.292968,-1.743164 z"
       id="path163" />
    <path
       d="m 63.010548,-15.219727 q 0,1.450196 -0.512696,2.695313 -0.498047,1.230469 -1.40625,2.138672 -1.127929,1.1279295 -2.666015,1.6992186 -1.538086,0.5566406 -3.881836,0.5566406 H 51.64336 V 0 h -2.90039 v -21.811523 h 5.917968 q 1.962891,0 3.325196,0.336914 1.362304,0.322265 2.416992,1.02539 1.245117,0.834961 1.918945,2.080078 0.688477,1.245118 0.688477,3.149414 z m -3.017578,0.07324 q 0,-1.12793 -0.395508,-1.962891 -0.395508,-0.834961 -1.201172,-1.362305 -0.703125,-0.454101 -1.611328,-0.644531 -0.893555,-0.205078 -2.270508,-0.205078 H 51.64336 v 8.71582 h 2.446289 q 1.757813,0 2.856446,-0.307617 1.098632,-0.322266 1.787109,-1.010742 0.688476,-0.703125 0.966797,-1.479492 0.292969,-0.776368 0.292969,-1.743164 z"
       id="path165" />
    <path
       d="M 98.525978,-19.233398 H 87.495705 v 6.152343 h 9.477539 v 2.578125 H 87.495705 V 0 h -2.900391 v -21.811523 h 13.930664 z"
       id="path167" />
    <path
       d="m 123.46875,0 h -3.76465 l -7.29492,-8.671875 h -4.08691 V 0 h -2.90039 v -21.811523 h 6.10839 q 1.97754,0 3.2959,0.263671 1.31836,0.249024 2.37305,0.908204 1.18652,0.74707 1.8457,1.889648 0.67383,1.12793 0.67383,2.871094 0,2.358398 -1.18652,3.955078 -1.18653,1.582031 -3.2666,2.3876952 z m -6.78223,-15.673828 q 0,-0.9375 -0.33691,-1.655274 -0.32227,-0.732421 -1.08398,-1.230468 -0.62989,-0.424805 -1.49415,-0.585938 -0.86425,-0.175781 -2.03613,-0.175781 h -3.41308 v 8.232422 h 2.92968 q 1.37696,0 2.40235,-0.234375 1.02539,-0.249024 1.74316,-0.908203 0.65918,-0.615235 0.9668,-1.40625 0.32226,-0.805664 0.32226,-2.036133 z"
       id="path169" />
    <path
       d="m 147.07851,0 h -3.09082 l -2.13867,-6.0791016 h -9.43359 L 130.27676,0 h -2.94434 l 7.93945,-21.811523 h 3.86719 z m -6.12304,-8.5693359 -3.82324,-10.7080081 -3.8379,10.7080081 z"
       id="path171" />
    <path
       d="m 173.41289,0 h -2.90039 v -18.793945 l -6.06446,12.7880856 h -1.72851 L 156.69902,-18.793945 V 0 h -2.70996 v -21.811523 h 3.95508 l 5.81543,12.1435542 5.625,-12.1435542 h 4.02832 z"
       id="path173" />
    <path
       d="m 197.27168,0 h -14.37011 v -21.811523 h 14.37011 v 2.578125 h -11.46972 v 5.976562 h 11.46972 v 2.578125 h -11.46972 v 8.100586 h 11.46972 z"
       id="path175" />
    <path
       d="M 230.87167,-21.811523 225.20273,0 h -3.2666 L 217.35117,-18.105469 212.86874,0 h -3.19336 l -5.77148,-21.811523 h 2.97363 l 4.58496,18.1347652 4.51172,-18.1347652 h 2.94434 l 4.55566,18.3105464 4.55567,-18.3105464 z"
       id="path177" />
    <path
       d="m 254.99414,-19.306641 q 1.33301,1.464844 2.03613,3.588868 0.71778,2.124023 0.71778,4.819335 0,2.695313 -0.73243,4.8339849 -0.71777,2.1240234 -2.02148,3.5449218 -1.34766,1.4794922 -3.19336,2.22656255 -1.83105,0.74707031 -4.18945,0.74707031 -2.29981,0 -4.18946,-0.76171875 -1.875,-0.76171871 -3.19335,-2.21191411 -1.31836,-1.4501953 -2.03614,-3.5595703 -0.70312,-2.109375 -0.70312,-4.8193364 0,-2.666015 0.70312,-4.77539 0.70313,-2.124024 2.05078,-3.632813 1.28907,-1.435546 3.19336,-2.197265 1.91895,-0.761719 4.17481,-0.761719 2.34375,0 4.2041,0.776367 1.875,0.761719 3.17871,2.182617 z m -0.26367,8.408203 q 0,-4.248046 -1.9043,-6.547851 -1.9043,-2.314453 -5.20019,-2.314453 -3.3252,0 -5.2295,2.314453 -1.88964,2.299805 -1.88964,6.547851 0,4.2919927 1.93359,6.5771489 1.93359,2.2705078 5.18555,2.2705078 3.25195,0 5.17089,-2.2705078 1.9336,-2.2851562 1.9336,-6.5771489 z"
       id="path179" />
    <path
       d="m 283.99454,0 h -3.76465 l -7.29492,-8.671875 h -4.08692 V 0 h -2.90039 v -21.811523 h 6.1084 q 1.97754,0 3.2959,0.263671 1.31836,0.249024 2.37305,0.908204 1.18652,0.74707 1.8457,1.889648 0.67383,1.12793 0.67383,2.871094 0,2.358398 -1.18653,3.955078 -1.18652,1.582031 -3.2666,2.3876952 z m -6.78223,-15.673828 q 0,-0.9375 -0.33691,-1.655274 -0.32227,-0.732421 -1.08399,-1.230468 -0.62988,-0.424805 -1.49414,-0.585938 -0.86426,-0.175781 -2.03613,-0.175781 h -3.41309 v 8.232422 h 2.92969 q 1.37695,0 2.40234,-0.234375 1.02539,-0.249024 1.74317,-0.908203 0.65918,-0.615235 0.9668,-1.40625 0.32226,-0.805664 0.32226,-2.036133 z"
       id="path181" />
    <path
       d="m 307.94122,0 h -3.76465 l -8.62792,-9.7119141 -2.16797,2.3144532 V 0 h -2.90039 v -21.811523 h 2.90039 v 11.381835 l 10.59082,-11.381835 h 3.51562 l -9.74121,10.253906 z"
       id="path183" />
    <path
       d="m 337.40683,-8.2177734 h -9.14063 v -2.6513676 h 9.14063 z"
       id="path185" />
    <path
       d="m 376.29141,0 h -17.02148 v -2.6953125 l 13.37402,-16.5380855 h -12.87598 v -2.578125 h 16.20118 v 2.62207 l -13.50586,16.611328 h 13.82812 z"
       id="path187" />
    <path
       d="m 400.78009,-19.306641 q 1.33301,1.464844 2.03613,3.588868 0.71778,2.124023 0.71778,4.819335 0,2.695313 -0.73243,4.8339849 -0.71777,2.1240234 -2.02148,3.5449218 -1.34766,1.4794922 -3.19336,2.22656255 -1.83105,0.74707031 -4.18945,0.74707031 -2.29981,0 -4.18946,-0.76171875 -1.875,-0.76171871 -3.19335,-2.21191411 -1.31836,-1.4501953 -2.03614,-3.5595703 -0.70312,-2.109375 -0.70312,-4.8193364 0,-2.666015 0.70312,-4.77539 0.70313,-2.124024 2.05078,-3.632813 1.28907,-1.435546 3.19336,-2.197265 1.91895,-0.761719 4.17481,-0.761719 2.34375,0 4.2041,0.776367 1.875,0.761719 3.17871,2.182617 z m -0.26367,8.408203 q 0,-4.248046 -1.9043,-6.547851 -1.9043,-2.314453 -5.20019,-2.314453 -3.3252,0 -5.2295,2.314453 -1.88964,2.299805 -1.88964,6.547851 0,4.2919927 1.93359,6.5771489 1.93359,2.2705078 5.18555,2.2705078 3.25195,0 5.17089,-2.2705078 1.9336,-2.2851562 1.9336,-6.5771489 z"
       id="path189" />
    <path
       d="M 437.11932,-21.811523 431.45038,0 h -3.2666 L 423.59882,-18.105469 419.11639,0 h -3.19336 l -5.77148,-21.811523 h 2.97363 l 4.58496,18.1347652 4.51172,-18.1347652 h 2.94434 l 4.55566,18.3105464 4.55567,-18.3105464 z"
       id="path191" />
    <path
       d="m 459.35214,0 h -14.37011 v -21.811523 h 14.37011 v 2.578125 h -11.46972 v 5.976562 h 11.46972 v 2.578125 h -11.46972 v 8.100586 h 11.46972 z"
       id="path193" />
    <path
       d="M 498.91055,-21.811523 490.9711,0 h -3.86719 l -7.93945,-21.811523 h 3.10547 l 6.84082,19.1894527 6.84082,-19.1894527 z"
       id="path195" />
    <path
       d="m 520.01544,0 h -14.76562 v -3.0615234 q 1.53808,-1.3183594 3.07617,-2.6367188 1.55273,-1.3183594 2.88574,-2.6220703 2.8125,-2.7246095 3.85254,-4.3212895 1.04004,-1.611328 1.04004,-3.471679 0,-1.699219 -1.12793,-2.651367 -1.11328,-0.966797 -3.12012,-0.966797 -1.33301,0 -2.88574,0.46875 -1.55273,0.46875 -3.03223,1.435547 h -0.14648 v -3.076172 q 1.04004,-0.512696 2.76855,-0.9375 1.74317,-0.424805 3.36914,-0.424805 3.3545,0 5.25879,1.625977 1.9043,1.611328 1.9043,4.379882 0,1.245118 -0.32227,2.329102 -0.30761,1.069336 -0.92285,2.036133 -0.57129,0.908203 -1.34765,1.787109 -0.76172,0.8789064 -1.86035,1.9482423 -1.56739,1.538086 -3.23731,2.9882813 -1.66992,1.4355468 -3.12012,2.6660156 h 11.7334 z"
       id="path197" />
  </g>
</svg>
