<?xml version="1.0" encoding="utf-8"?>
<!-- Generator: Adobe Illustrator 25.4.1, SVG Export Plug-In . SVG Version: 6.00 Build 0)  -->
<svg version="1.1" id="Layer_1" xmlns="http://www.w3.org/2000/svg" xmlns:xlink="http://www.w3.org/1999/xlink" x="0px" y="0px"
	 viewBox="0 0 624.2 469.3" style="enable-background:new 0 0 624.2 469.3;" xml:space="preserve">
<style type="text/css">
	.st0{fill:#FFFFFF;}
	.st1{fill:#488EFF;}
	.st2{clip-path:url(#SVGID_00000164506734979712188410000006018924694463919506_);}
	.st3{opacity:0.9;}
	.st4{fill:#3274F9;}
	.st5{fill:none;}
	.st6{opacity:0.58;}
</style>
<rect x="13.5" y="354.2" class="st0" width="596.4" height="107.4"/>
<path class="st1" d="M612,342.1H12V70.7c0-35,28.4-63.3,63.3-63.3h473.3c35,0,63.3,28.4,63.3,63.3"/>
<path class="st1" d="M608.4,355.9v103.8H15.6V355.9H608.4 M612,352.3H12v111h600V352.3z"/>
<g>
	<g>
		<defs>
			<path id="SVGID_1_" d="M75.3,7.4h473.3c35,0,63.3,28.4,63.3,63.3v271.4H12V70.7C12,35.7,40.3,7.4,75.3,7.4z"/>
		</defs>
		<clipPath id="SVGID_00000076580202531662640610000011861218953245510064_">
			<use xlink:href="#SVGID_1_"  style="overflow:visible;"/>
		</clipPath>
		<g style="clip-path:url(#SVGID_00000076580202531662640610000011861218953245510064_);">
			<g class="st3">
				<path class="st4" d="M367.5-133.6l-367,253l253.1,366.9l366.9-253.1L367.5-133.6z M266.5,322.4l25.6-240.1l-125.5,86.6l14-37.5
					l-45.3-7.9L327.4-9.1l27.2,39.4L329,270.4L458.6,181l31.3,45.4L293.7,361.8L266.5,322.4z"/>
			</g>
		</g>
	</g>
</g>
<path class="st0" d="M154.3,110.6L154.3,110.6L154.3,110.6z"/>
<path class="st5" d="M392.1,67c0.5-0.3,0.7-0.9,0.7-1.4l0,0c0.1-0.6-0.2-1.2-0.7-1.5c-0.7-0.4-1.6-0.5-2.4-0.4h-1v3.9h1
	C390.5,67.4,391.4,67.3,392.1,67z"/>
<path class="st5" d="M484.2,66.8c1.1-1,1.3-2.7,0.3-3.8l-0.3-0.3c-0.8-0.5-1.8-0.8-2.8-0.8H479v5.7h2.4
	C482.4,67.6,483.4,67.3,484.2,66.8z"/>
<path class="st5" d="M471.9,66.9c1.2-1.1,1.3-2.9,0.2-4.1l0,0l0,0l0,0l0,0l-0.1-0.2c-0.8-0.6-1.7-0.8-2.6-0.8h-2.8v5.8h2.7
	C470.1,67.7,471.1,67.5,471.9,66.9z"/>
<path class="st5" d="M346.8,128.4c-11,0-17.6,8.5-17.6,18.5v0.3c0,10,7.2,18.8,17.9,18.8c11,0,17.6-8.5,17.6-18.5v-0.3
	C364.7,137.1,357.5,128.4,346.8,128.4z"/>
<polygon class="st5" points="409.4,64.6 407.1,70.4 411.8,70.4 "/>
<path class="st5" d="M255.3,67.8c1.3-1.2,1.4-3.3,0.2-4.6c0-0.1-0.1-0.1-0.2-0.2c-0.8-0.6-1.9-0.9-2.9-0.9h-3.2v6.5h3
	C253.3,68.8,254.4,68.5,255.3,67.8z"/>
<path class="st5" d="M531,127.3c-8,0-13.2,5.7-14.7,14.4h29C544.2,133.1,539.1,127.3,531,127.3z"/>
<polygon class="st5" points="326.9,64.6 324.6,70.4 329.3,70.4 "/>
<path class="st5" d="M231.2,74.3c2.9,2.7,7.4,2.7,10.2,0c2.8-2.8,2.8-7.3,0-10.1c-2.9-2.7-7.4-2.7-10.2,0
	C228.4,67,228.4,71.5,231.2,74.3L231.2,74.3L231.2,74.3z"/>
<path class="st5" d="M503,72.7c2.5-2.5,2.5-6.6,0-9.1s-6.6-2.5-9.1,0s-2.5,6.6,0,9.1l0,0c1.2,1.2,2.9,1.9,4.6,1.8l0,0
	C500.1,74.6,501.8,73.9,503,72.7z"/>
<path class="st0" d="M466.5,68.6h2.8c1.3,0.1,2.6-0.3,3.6-1c0.8-0.7,1.3-1.7,1.2-2.8c0.1-1.1-0.4-2.1-1.2-2.8c-1-0.8-2.2-1.1-3.5-1
	h-4v14.5h1.1V68.6z M466.5,61.9h2.8c0.9-0.1,1.9,0.2,2.6,0.8l0.1,0.2l0,0c1.1,1.2,1,3-0.2,4.1l0,0l0,0l0,0c-0.8,0.6-1.8,0.8-2.8,0.8
	h-2.7L466.5,61.9z"/>
<path class="st0" d="M478.9,68.5h2c0.7,0,1.4,0.1,2.1,0.5c0.8,0.7,1.4,1.5,2,2.5l2.5,3.9h1.3l-3.3-5c-0.5-0.9-1.1-1.6-1.9-2.2
	c1.6-0.4,2.8-1.8,2.8-3.5c0-1.1-0.4-2.1-1.2-2.7c-1-0.7-2.3-1.1-3.6-1h-3.7v14.5h1.1L478.9,68.5z M479,61.9h2.4c1-0.1,2,0.2,2.8,0.8
	l0.3,0.3c1,1.1,0.8,2.9-0.3,3.8c-0.8,0.5-1.8,0.8-2.8,0.7H479V61.9z"/>
<path class="st0" d="M503.9,73.4l0.2-0.2l0.1-0.1c2.8-2.9,2.6-7.5-0.3-10.2l0,0c-3-2.9-7.8-2.9-10.9,0l-0.1,0.1l0,0
	c-2.8,2.9-2.8,7.5,0.2,10.4C496.1,76.3,500.8,76.3,503.9,73.4z M493.9,72.7c-2.5-2.5-2.5-6.6,0-9.1l0,0c2.5-2.5,6.6-2.5,9.1,0
	s2.5,6.6,0,9.1c-1.2,1.2-2.9,1.9-4.6,1.8l0,0C496.7,74.6,495.1,73.9,493.9,72.7L493.9,72.7z"/>
<path class="st0" d="M508.7,79.6c0.8,0,1.6-0.3,2.1-0.9c0.7-0.9,1-2.1,0.9-3.3V60.9h-1.1v14.8c0,1.9-0.7,2.9-2,2.9
	c-0.2,0-0.4,0-0.7-0.1l0.1,1C508.3,79.6,508.5,79.6,508.7,79.6z"/>
<polygon class="st0" points="524.7,74.5 517.8,74.5 517.8,68.6 524.4,68.6 524.4,67.7 517.8,67.7 517.8,61.9 524.6,61.9 524.6,60.9 
	516.7,60.9 516.7,75.4 524.7,75.4 "/>
<path class="st0" d="M540.8,62L540.8,62L540.8,62L540.8,62z"/>
<path class="st0" d="M535.8,75.6c1.8,0,3.5-0.5,5.1-1.4V73c-1.6,0.9-3.3,1.4-5.1,1.4c-1.7,0.1-3.4-0.6-4.7-1.8
	c-1.2-1.2-1.9-2.9-1.8-4.6c-0.1-1.7,0.6-3.4,1.8-4.6c1.2-1.2,2.8-1.9,4.5-1.8c1.8,0.1,3.6,0.5,5.2,1.4v-1c-1.6-0.8-3.3-1.2-5-1.2
	c-2,0-3.9,0.7-5.4,2.1l-0.1,0.1l0,0l0,0c-2.9,2.9-2.9,7.6,0,10.5C531.8,74.9,533.8,75.7,535.8,75.6z"/>
<polygon class="st0" points="548.6,75.4 549.7,75.4 549.7,61.9 555.2,61.9 555.2,60.9 543.2,60.9 543.2,61.9 548.6,61.9 "/>
<polygon class="st0" points="315,76.4 315,60.4 310.6,60.4 305.7,66.4 300.8,60.4 296.4,60.4 296.4,76.4 301.1,76.4 301.1,67.1 
	305.4,72.5 305.8,72.5 310.2,67.1 310.2,76.4 "/>
<path class="st0" d="M323.4,73.2h7l1.3,3.2h4.9l-7-16h-5.4l-7.1,16h4.9L323.4,73.2z M326.9,64.6l2.3,5.8h-4.7L326.9,64.6z"/>
<rect x="338.8" y="60.4" class="st0" width="4.8" height="16"/>
<polygon class="st0" points="352.5,67.5 360.8,76.4 365.1,76.4 365.1,60.4 360.3,60.4 360.3,69.3 352,60.4 347.7,60.4 347.7,76.4 
	352.5,76.4 "/>
<polygon class="st0" points="373.9,69.9 380.6,69.9 380.6,66.7 373.9,66.7 373.9,63.6 380.6,63.6 380.6,60.4 369.1,60.4 369.1,76.4 
	373.9,76.4 "/>
<path class="st0" d="M390.6,70.3c0.4,0.2,0.8,0.5,1.1,0.9c0.5,0.7,0.9,1.5,1.2,2.3l1.3,2.9h5.2l-1.6-3.5c-0.4-0.9-0.9-1.7-1.4-2.5
	c-0.4-0.4-0.8-0.8-1.3-1.1c0.4-0.2,0.8-0.5,1.2-0.7c0.4-0.3,0.7-0.7,1-1.2c0.3-0.6,0.5-1.3,0.5-2.1c0-0.8-0.2-1.5-0.6-2.2
	c-0.4-0.8-1.1-1.5-1.8-2c-1-0.6-2.1-0.9-3.3-0.8h-8.2v16h4.8V70h0.5C389.7,70.1,390.1,70.2,390.6,70.3z M388.7,63.5h1
	c0.8-0.1,1.6,0.1,2.4,0.4c0.5,0.3,0.8,0.9,0.7,1.5l0,0c0.1,0.6-0.2,1.1-0.7,1.4c-0.8,0.3-1.6,0.5-2.4,0.4h-1V63.5z"/>
<path class="st0" d="M405.9,73.2h7l1.3,3.2h4.9l-7.1-16h-5.3l-7.1,16h5L405.9,73.2z M409.4,64.6l2.3,5.8H407L409.4,64.6z"/>
<polygon class="st0" points="426,67.1 430.3,72.5 430.7,72.5 435.1,67.1 435.1,76.4 439.9,76.4 439.9,60.4 435.5,60.4 430.6,66.4 
	425.7,60.4 421.3,60.4 421.3,76.4 426,76.4 "/>
<polygon class="st0" points="456,73.2 448.8,73.2 448.8,69.8 455.5,69.8 455.5,66.5 448.8,66.5 448.8,63.6 455.8,63.6 455.8,60.4 
	444,60.4 444,76.4 456,76.4 "/>
<path class="st0" d="M242.4,75.1l0.2-0.2l0,0c3.1-3.3,3-8.4-0.2-11.6c-1.6-1.6-3.8-2.5-6.1-2.4l0,0c-2.3,0-4.4,0.8-6,2.4l-0.2,0.2
	c-3.2,3.2-3.1,8.4,0.2,11.6C233.7,78.3,239,78.3,242.4,75.1z M231.2,64.2c2.9-2.7,7.4-2.7,10.2,0c2.8,2.8,2.8,7.3,0,10.1
	c-2.9,2.7-7.4,2.7-10.2,0l0,0C228.4,71.5,228.4,67,231.2,64.2L231.2,64.2L231.2,64.2L231.2,64.2L231.2,64.2z"/>
<path class="st0" d="M249.1,69.7h3.1c1.4,0.1,2.9-0.3,4-1.2c1.8-1.5,1.9-4.2,0.4-6c-0.1-0.1-0.2-0.2-0.3-0.3
	c-1.1-0.8-2.5-1.2-3.9-1.1H248l-0.1,16.1h1.2L249.1,69.7z M249.2,62.2h3.2c1-0.1,2.1,0.2,2.9,0.9c0.1,0,0.1,0.1,0.2,0.2
	c1.2,1.3,1.1,3.4-0.2,4.6c-0.9,0.6-2,0.9-3.1,0.9h-3L249.2,62.2z"/>
<polygon class="st0" points="269.1,76.3 261.3,76.3 261.3,69.7 268.7,69.7 268.7,68.6 261.3,68.6 261.3,62.2 268.9,62.2 268.9,61.1 
	260.1,61.1 260.1,77.3 269.1,77.3 "/>
<polygon class="st0" points="272.9,63.2 285.2,77.3 286.2,77.3 286.2,61.1 285,61.1 285,75.3 272.7,61.1 271.7,61.1 271.7,77.3 
	272.9,77.3 "/>
<polygon class="st0" points="227.8,109.4 275.1,109.4 226.3,166.2 226.3,181 300.2,181 300.2,163.9 251.4,163.9 300.2,107.1 
	300.2,92.3 227.8,92.3 "/>
<path class="st0" d="M347.1,111.8c-21.2,0-36.9,15.8-36.9,35.4v0.3c0,19.5,15.6,35.1,36.6,35.1c21.2,0,36.9-15.8,36.9-35.4v-0.3
	C383.7,127.4,368.1,111.8,347.1,111.8z M364.7,147.4c0,10-6.6,18.5-17.6,18.5c-10.6,0-17.9-8.7-17.9-18.8v-0.3
	c0-10,6.6-18.5,17.6-18.5c10.6,0,17.9,8.7,17.9,18.8V147.4z"/>
<polygon class="st0" points="461.8,154.4 448.9,112.8 432.3,112.8 419.5,154.3 408.6,113.1 389,113.1 409.9,181.5 427.2,181.5 
	440.5,139.8 453.5,181.5 470.9,181.5 492.1,113.1 472.9,113.1 "/>
<path class="st0" d="M564.1,148.7c0-19.3-10.4-36.9-33.1-36.9c-19.8,0-33.6,16-33.6,35.4v0.3c0,20.8,15.1,35.1,35.5,35.1
	c12.3,0,21.4-4.8,27.8-12.7l-11-9.8c-5.3,4.9-10,7-16.5,7c-8.6,0-14.7-4.6-16.6-13.3h47.3C563.9,152,564.1,150.2,564.1,148.7z
	 M516.3,141.7c1.5-8.7,6.7-14.4,14.7-14.4c8.1,0,13.2,5.8,14.3,14.4H516.3z"/>
<path class="st0" d="M141.5,51.4l-90.9,62.7l62.7,90.9l90.9-62.7L141.5,51.4z M116.4,164.4l6.3-59.5l-31.1,21.4L83.8,115l47.6-32.8
	l6.7,9.8l-6.3,59.5l32.1-22.1l7.8,11.3l-48.6,33.5L116.4,164.4z"/>
<path class="st0" d="M137.8,224.2c-2.9-0.1-5.7,1.1-7.6,3.4c-1.8,2.3-2.8,5.4-2.8,9.4c0,4.2,0.9,7.4,2.7,9.5s4.3,3.2,7.7,3.2
	c1.4,0,2.8-0.1,4.2-0.4c1.4-0.3,2.8-0.7,4.2-1.1v4.8c-2.9,1.1-6,1.6-9.1,1.5c-5,0-8.8-1.5-11.5-4.5s-4-7.4-4-13
	c-0.1-3.2,0.6-6.4,2-9.3c1.2-2.6,3.2-4.7,5.6-6.1c2.6-1.5,5.6-2.2,8.7-2.1c3.4,0,6.7,0.7,9.7,2.2l-2,4.6c-1.2-0.6-2.4-1-3.7-1.4
	C140.6,224.4,139.2,224.2,137.8,224.2z"/>
<path class="st0" d="M188.7,237c0,5.6-1.4,9.9-4.2,13s-6.7,4.6-11.8,4.6c-5.2,0-9.1-1.5-11.9-4.6c-2.8-3.1-4.1-7.4-4.1-13
	s1.4-10,4.2-13s6.7-4.5,11.9-4.5c5.1,0,9,1.5,11.8,4.6C187.3,227.1,188.7,231.4,188.7,237z M162.6,237c0,4.2,0.8,7.4,2.5,9.6
	c1.7,2.2,4.2,3.3,7.5,3.3s5.8-1.1,7.5-3.2c1.7-2.1,2.5-5.3,2.5-9.6c0-4.2-0.8-7.4-2.5-9.5c-1.7-2.2-4.2-3.2-7.5-3.2
	s-5.9,1.1-7.6,3.2C163.5,229.6,162.6,232.8,162.6,237L162.6,237z"/>
<path class="st0" d="M229.3,254.1h-6.8l-16.8-27.2h-0.2l0.1,1.5c0.2,2.9,0.3,5.5,0.3,7.9v17.8h-5.1v-34.2h6.8l16.7,27.1h0.1
	c0-0.4-0.1-1.7-0.2-3.9c-0.1-2.3-0.1-4-0.1-5.3v-17.9h5.1L229.3,254.1z"/>
<path class="st0" d="M248.6,254.1h-5.5v-34.2h19.3v4.7h-13.7v10.7h12.9v4.7h-12.9v14.1H248.6z"/>
<path class="st0" d="M303.6,237c0,5.6-1.4,9.9-4.2,13c-2.8,3.1-6.7,4.6-11.8,4.6c-5.2,0-9.1-1.5-11.9-4.6s-4.1-7.4-4.1-13
	s1.4-10,4.2-13c2.8-3,6.7-4.5,11.9-4.5c5.1,0,9,1.5,11.8,4.6C302.3,227.1,303.6,231.4,303.6,237z M277.6,237c0,4.2,0.8,7.4,2.5,9.6
	c1.7,2.2,4.2,3.3,7.5,3.3s5.8-1.1,7.5-3.2c1.7-2.1,2.5-5.3,2.5-9.6c0-4.2-0.8-7.4-2.5-9.5c-1.7-2.2-4.2-3.2-7.5-3.2
	s-5.9,1.1-7.6,3.2C278.4,229.6,277.6,232.8,277.6,237z"/>
<path class="st0" d="M321.4,240.5v13.6h-5.6v-34.2h9.6c4.4,0,7.7,0.8,9.8,2.5c2.1,1.7,3.2,4.1,3.2,7.5c0,4.3-2.2,7.3-6.6,9.1
	l9.6,15.1H335l-8.2-13.6L321.4,240.5L321.4,240.5z M321.4,235.8h3.9c2.6,0,4.5-0.5,5.7-1.4c1.2-1.1,1.9-2.7,1.8-4.3
	c0.1-1.6-0.6-3.2-1.9-4.2c-1.7-1-3.7-1.4-5.7-1.3h-3.7L321.4,235.8z"/>
<path class="st0" d="M365.9,254.1l-9.9-28.5h-0.2c0.3,4.2,0.4,8.2,0.4,11.9v16.6h-5.1v-34.2h7.9l9.5,27.2h0.1l9.8-27.2h7.9v34.2
	h-5.4v-16.9c0-1.7,0-3.9,0.1-6.6c0.1-2.7,0.2-4.4,0.2-5H381l-10.3,28.5H365.9z"/>
<path class="st0" d="M421.2,254.1l-3.4-9.5h-13.1l-3.3,9.5h-5.9l12.8-34.3h6.1l12.8,34.3H421.2z M416.4,239.8l-3.2-9.3
	c-0.2-0.6-0.6-1.6-1-2.9c-0.4-1.3-0.7-2.3-0.9-2.9c-0.5,2.1-1.1,4.2-1.8,6.3l-3.1,8.9L416.4,239.8z"/>
<path class="st0" d="M464.9,254.1h-6.8l-16.8-27.2h-0.2l0.1,1.5c0.2,2.9,0.3,5.5,0.3,7.9v17.8h-5.1v-34.2h6.8L460,247h0.1
	c0-0.4-0.1-1.7-0.2-3.9c-0.1-2.3-0.1-4-0.1-5.3v-17.9h5.1V254.1z"/>
<path class="st0" d="M490.5,254.1h-5.6v-29.4h-10v-4.8h25.7v4.8h-10v29.4H490.5z"/>
<g class="st6">
	<rect x="35.7" y="277.6" class="st0" width="553.5" height="43.5"/>
</g>
<path class="st4" d="M119.9,303.2c0.1,1.7-0.7,3.3-2,4.3c-1.6,1.1-3.5,1.7-5.5,1.6c-2,0-3.9-0.4-5.7-1.2v-4c1.1,0.5,2.3,0.9,3.4,1.3
	c0.8,0.2,1.7,0.4,2.6,0.4c0.8,0,1.5-0.1,2.2-0.5c0.5-0.4,0.8-1,0.8-1.6c0-0.4-0.1-0.7-0.3-1.1c-0.3-0.4-0.6-0.7-1-0.9
	c-0.8-0.5-1.7-1-2.6-1.4c-1-0.4-1.9-1-2.8-1.7c-0.6-0.5-1.1-1.1-1.5-1.9s-0.6-1.6-0.6-2.5c-0.1-1.6,0.6-3.2,1.8-4.2
	c1.4-1.1,3.2-1.6,5-1.5c1,0,2,0.1,3,0.4s2,0.6,3,1l-1.4,3.3c-0.9-0.4-1.8-0.7-2.7-0.9c-0.7-0.2-1.4-0.3-2.1-0.3s-1.3,0.2-1.9,0.6
	c-0.4,0.4-0.7,0.9-0.6,1.5c0,0.3,0.1,0.7,0.3,1c0.2,0.3,0.5,0.6,0.8,0.8c0.9,0.5,1.8,1,2.7,1.4c1.5,0.6,2.8,1.5,3.9,2.7
	C119.6,300.8,120,302,119.9,303.2z"/>
<path class="st4" d="M148.4,288.6v13c0,1.4-0.3,2.7-1,3.9c-0.7,1.1-1.7,2-2.9,2.6c-1.4,0.6-2.9,0.9-4.5,0.9c-2.2,0.1-4.3-0.6-6-2
	c-1.5-1.4-2.3-3.4-2.1-5.4v-13h4.3v12.3c-0.1,1.2,0.2,2.4,0.9,3.4c0.8,0.8,2,1.2,3.1,1.1c1.1,0.1,2.2-0.3,3-1.1c0.7-1,1-2.2,0.9-3.4
	v-12.3H148.4z"/>
<path class="st4" d="M175.7,294.9c0.1,1.9-0.6,3.7-2,5c-1.7,1.2-3.7,1.9-5.8,1.7H166v7.2h-4.3v-20.1h6.4c2-0.1,4,0.4,5.6,1.6
	C175.1,291.4,175.8,293.1,175.7,294.9z M166,298.1h1.4c1,0.1,2.1-0.2,2.9-0.8c0.7-0.6,1-1.4,1-2.3c0.1-0.8-0.2-1.6-0.8-2.2
	c-0.7-0.5-1.7-0.8-2.6-0.7H166V298.1z"/>
<path class="st4" d="M201.8,294.9c0.1,1.9-0.6,3.7-2,5c-1.7,1.2-3.7,1.9-5.8,1.7h-1.8v7.2h-4.3v-20.1h6.4c2-0.1,4,0.4,5.6,1.6
	C201.3,291.4,202,293.1,201.8,294.9z M192.2,298.1h1.4c1,0.1,2.1-0.2,2.9-0.8c0.7-0.6,1-1.4,1-2.3c0.1-0.8-0.2-1.6-0.8-2.2
	c-0.7-0.5-1.7-0.8-2.6-0.7h-1.9L192.2,298.1z"/>
<path class="st4" d="M232.4,298.7c0,3.3-0.8,5.9-2.5,7.7c-1.7,1.8-4,2.7-7.1,2.7s-5.5-0.9-7.1-2.7s-2.5-4.4-2.5-7.7
	c0-3.3,0.8-5.9,2.5-7.7c1.7-1.8,4-2.6,7.1-2.6s5.5,0.9,7.1,2.7C231.5,292.8,232.4,295.3,232.4,298.7z M217.7,298.7
	c-0.1,1.8,0.3,3.6,1.3,5.1c0.9,1.2,2.3,1.8,3.8,1.7c3.4,0,5.1-2.3,5.1-6.8s-1.7-6.8-5.1-6.8c-1.5-0.1-2.9,0.5-3.8,1.7
	C218,295.1,217.5,296.9,217.7,298.7z"/>
<path class="st4" d="M249.2,301v7.7H245v-20.1h5.9c2.7,0,4.8,0.5,6.1,1.5c2.2,2,2.6,5.2,1,7.7c-0.7,1-1.7,1.7-2.8,2.2
	c3,4.5,5,7.4,5.9,8.8h-4.7l-4.8-7.7L249.2,301z M249.2,297.5h1.4c1,0.1,2.1-0.2,3-0.7c0.7-0.5,1-1.3,1-2.1c0.1-0.8-0.3-1.6-1-2
	c-0.9-0.5-2-0.7-3-0.6h-1.3L249.2,297.5z"/>
<path class="st4" d="M279.8,308.7h-4.3v-16.6H270v-3.6h15.2v3.6h-5.5L279.8,308.7L279.8,308.7z"/>
<path class="st4" d="M326.5,294.9c0.1,1.9-0.6,3.7-2,5c-1.7,1.2-3.7,1.9-5.8,1.7h-1.8v7.2h-4.3v-20.1h6.4c2-0.1,4,0.4,5.6,1.6
	C325.9,291.4,326.6,293.1,326.5,294.9z M316.9,298.1h1.4c1,0.1,2.1-0.2,2.9-0.8c0.7-0.6,1-1.4,1-2.3c0.1-0.8-0.2-1.6-0.8-2.2
	c-0.7-0.5-1.7-0.8-2.6-0.7h-1.9V298.1z"/>
<path class="st4" d="M343,301v7.7h-4.3v-20.1h5.9c2.7,0,4.8,0.5,6.1,1.5c2.2,2,2.6,5.2,1,7.7c-0.7,1-1.7,1.7-2.8,2.2
	c3,4.5,5,7.4,5.9,8.8h-4.7l-4.8-7.7L343,301z M343,297.5h1.4c1,0.1,2.1-0.2,3-0.7c0.7-0.5,1-1.3,1-2.1c0.1-0.8-0.3-1.6-1-2
	c-0.9-0.5-2-0.7-3-0.6H343V297.5z"/>
<path class="st4" d="M384.1,298.7c0,3.3-0.8,5.9-2.5,7.7c-1.7,1.8-4,2.7-7.1,2.7s-5.5-0.9-7.1-2.7s-2.5-4.4-2.5-7.7
	c0-3.3,0.8-5.9,2.5-7.7c1.7-1.8,4-2.6,7.1-2.6s5.5,0.9,7.1,2.7C383.3,292.8,384.1,295.3,384.1,298.7z M369.4,298.7
	c-0.1,1.8,0.3,3.6,1.3,5.1c0.9,1.2,2.3,1.8,3.8,1.7c3.4,0,5.1-2.3,5.1-6.8s-1.7-6.8-5.1-6.8c-1.5-0.1-2.9,0.5-3.8,1.7
	C369.7,295.1,369.3,296.9,369.4,298.7z"/>
<path class="st4" d="M408.2,288.6h4.3l-6.8,20.1H401l-6.8-20.1h4.3l3.8,12c0.2,0.7,0.4,1.5,0.7,2.5c0.2,0.9,0.4,1.6,0.4,2
	c0.2-1.5,0.6-3,1-4.4L408.2,288.6z"/>
<path class="st4" d="M423.5,308.7v-20.1h4.3v20.1H423.5z"/>
<path class="st4" d="M458,298.5c0,3.3-0.9,5.8-2.8,7.6c-1.9,1.8-4.6,2.6-8.2,2.6h-5.7v-20.1h6.3c3.3,0,5.8,0.9,7.7,2.6
	C457.1,293.1,458.1,295.8,458,298.5z M453.5,298.6c0-4.3-1.9-6.5-5.7-6.5h-2.3v13.1h1.8C451.5,305.2,453.5,303,453.5,298.6z"/>
<path class="st4" d="M482.2,308.7h-11.6v-20.1h11.6v3.5h-7.3v4.4h6.8v3.5h-6.8v5.2h7.3V308.7z"/>
<path class="st4" d="M499.1,301v7.7h-4.3v-20.1h5.9c2.7,0,4.8,0.5,6.1,1.5c2.2,2,2.6,5.2,1,7.7c-0.7,1-1.7,1.7-2.8,2.2
	c3,4.5,5,7.4,5.9,8.8h-4.7l-4.8-7.7L499.1,301z M499.1,297.5h1.4c1,0.1,2.1-0.2,3-0.7c0.7-0.5,1-1.3,1-2.1c0.1-0.8-0.3-1.6-1-2
	c-0.9-0.5-2-0.7-3-0.6h-1.3v5.4H499.1z"/>
<g>
	<path class="st1" d="M55.2,398.2h-9.9v-17.1h9.9v3H49v3.8h5.8v3H49v4.4h6.2V398.2z"/>
	<path class="st1" d="M75,398.2h-4.1l-4-6.5l-4,6.5H59l5.7-8.8l-5.3-8.3h4l3.7,6.2l3.6-6.2h3.9l-5.4,8.5L75,398.2z"/>
	<path class="st1" d="M91.4,386.4c0,1.8-0.6,3.3-1.7,4.2s-2.8,1.5-4.9,1.5h-1.6v6.1h-3.6v-17.1h5.5c2.1,0,3.7,0.4,4.7,1.3
		S91.4,384.6,91.4,386.4z M83.2,389.1h1.2c1.1,0,2-0.2,2.5-0.7s0.8-1.1,0.8-1.9c0-0.9-0.2-1.5-0.7-1.9s-1.2-0.6-2.2-0.6h-1.7
		L83.2,389.1L83.2,389.1z"/>
	<path class="st1" d="M97.1,398.2v-17.1h3.6v14.1h6.9v3H97.1z"/>
	<path class="st1" d="M128.6,389.6c0,2.8-0.7,5-2.1,6.5s-3.4,2.3-6,2.3s-4.6-0.8-6-2.3s-2.1-3.7-2.1-6.6s0.7-5,2.1-6.5
		s3.4-2.3,6.1-2.3s4.6,0.8,6,2.3C128,384.5,128.6,386.8,128.6,389.6z M116.1,389.6c0,1.9,0.4,3.4,1.1,4.3s1.8,1.5,3.3,1.5
		c2.9,0,4.3-1.9,4.3-5.8s-1.4-5.8-4.3-5.8c-1.4,0-2.5,0.5-3.3,1.5S116.1,387.7,116.1,389.6z"/>
	<path class="st1" d="M138.2,391.6v6.6h-3.6v-17.1h5c2.3,0,4.1,0.4,5.2,1.3s1.7,2.1,1.7,3.9c0,1-0.3,1.9-0.8,2.7s-1.3,1.4-2.4,1.8
		c2.6,3.9,4.3,6.3,5,7.5h-4l-4.1-6.6L138.2,391.6L138.2,391.6z M138.2,388.7h1.2c1.1,0,2-0.2,2.5-0.6s0.8-1,0.8-1.8
		s-0.3-1.4-0.8-1.7s-1.4-0.5-2.6-0.5h-1.1L138.2,388.7L138.2,388.7z"/>
	<path class="st1" d="M162.6,398.2h-9.9v-17.1h9.9v3h-6.2v3.8h5.8v3h-5.8v4.4h6.2V398.2z"/>
	<path class="st1" d="M172.2,391.6v6.6h-3.6v-17.1h5c2.3,0,4.1,0.4,5.2,1.3s1.7,2.1,1.7,3.9c0,1-0.3,1.9-0.8,2.7s-1.3,1.4-2.4,1.8
		c2.6,3.9,4.3,6.3,5,7.5h-4l-4.1-6.6L172.2,391.6L172.2,391.6z M172.2,388.7h1.2c1.1,0,2-0.2,2.5-0.6s0.8-1,0.8-1.8
		s-0.3-1.4-0.8-1.7s-1.4-0.5-2.6-0.5h-1.1L172.2,388.7L172.2,388.7z"/>
	<path class="st1" d="M199.1,398.2h-3.6v-17.1h9.8v3h-6.2v4.4h5.8v3h-5.8V398.2z"/>
	<path class="st1" d="M226.6,389.6c0,2.8-0.7,5-2.1,6.5s-3.4,2.3-6,2.3s-4.6-0.8-6-2.3s-2.1-3.7-2.1-6.6s0.7-5,2.1-6.5
		s3.4-2.3,6.1-2.3s4.6,0.8,6,2.3S226.6,386.8,226.6,389.6z M214.1,389.6c0,1.9,0.4,3.4,1.1,4.3s1.8,1.5,3.3,1.5
		c2.9,0,4.3-1.9,4.3-5.8s-1.4-5.8-4.3-5.8c-1.4,0-2.5,0.5-3.3,1.5S214.1,387.7,214.1,389.6z"/>
	<path class="st1" d="M236.2,391.6v6.6h-3.6v-17.1h5c2.3,0,4.1,0.4,5.2,1.3s1.7,2.1,1.7,3.9c0,1-0.3,1.9-0.8,2.7s-1.3,1.4-2.4,1.8
		c2.6,3.9,4.3,6.3,5,7.5h-4l-4.1-6.6L236.2,391.6L236.2,391.6z M236.2,388.7h1.2c1.1,0,2-0.2,2.5-0.6s0.8-1,0.8-1.8
		s-0.3-1.4-0.8-1.7s-1.4-0.5-2.6-0.5h-1.1L236.2,388.7L236.2,388.7z"/>
	<path class="st1" d="M269.2,381.1h3.7l-5.8,17.1h-4l-5.8-17.1h3.7l3.2,10.2c0.2,0.6,0.4,1.3,0.6,2.1s0.3,1.4,0.4,1.7
		c0.1-0.7,0.4-2,0.9-3.8L269.2,381.1z"/>
	<path class="st1" d="M277.4,398.2v-17.1h3.6v17.1H277.4z"/>
	<path class="st1" d="M297.9,393.4c0,1.5-0.6,2.8-1.7,3.7s-2.7,1.3-4.6,1.3c-1.8,0-3.4-0.3-4.9-1V394c1.2,0.5,2.1,0.9,2.9,1.1
		s1.5,0.3,2.2,0.3c0.8,0,1.4-0.2,1.8-0.5s0.6-0.8,0.6-1.4c0-0.3-0.1-0.6-0.3-0.9s-0.5-0.5-0.8-0.8s-1.1-0.6-2.2-1.2
		c-1-0.5-1.8-1-2.4-1.4s-0.9-1-1.3-1.6s-0.5-1.3-0.5-2.1c0-1.5,0.5-2.7,1.5-3.6s2.4-1.3,4.3-1.3c0.9,0,1.7,0.1,2.5,0.3
		s1.7,0.5,2.5,0.9l-1.2,2.8c-0.9-0.4-1.7-0.6-2.3-0.8s-1.2-0.2-1.8-0.2c-0.7,0-1.2,0.2-1.6,0.5s-0.6,0.7-0.6,1.3
		c0,0.3,0.1,0.6,0.2,0.8s0.4,0.5,0.7,0.7s1.1,0.6,2.3,1.2c1.6,0.8,2.7,1.5,3.3,2.3S297.9,392.3,297.9,393.4z"/>
	<path class="st1" d="M317.4,381.1v11.1c0,1.3-0.3,2.4-0.8,3.3s-1.4,1.7-2.5,2.2s-2.3,0.8-3.8,0.8c-2.2,0-3.9-0.6-5.1-1.7
		s-1.8-2.7-1.8-4.6v-11h3.6v10.5c0,1.3,0.3,2.3,0.8,2.9s1.4,0.9,2.6,0.9s2-0.3,2.6-0.9s0.8-1.6,0.8-2.9v-10.5L317.4,381.1
		L317.4,381.1z"/>
	<path class="st1" d="M334.4,398.2l-1.2-4.1H327l-1.2,4.1h-3.9l6-17.2h4.4l6.1,17.2H334.4z M332.3,391.1c-1.1-3.7-1.8-5.8-1.9-6.3
		s-0.2-0.9-0.3-1.1c-0.3,1-1,3.5-2.2,7.4H332.3z"/>
	<path class="st1" d="M342.9,398.2v-17.1h3.6v14.1h6.9v3H342.9z"/>
	<path class="st1" d="M377.6,393.4c0,1.5-0.6,2.8-1.7,3.7s-2.7,1.3-4.6,1.3c-1.8,0-3.4-0.3-4.9-1V394c1.2,0.5,2.1,0.9,2.9,1.1
		s1.5,0.3,2.2,0.3c0.8,0,1.4-0.2,1.8-0.5s0.6-0.8,0.6-1.4c0-0.3-0.1-0.6-0.3-0.9s-0.5-0.5-0.8-0.8s-1.1-0.6-2.2-1.2
		c-1-0.5-1.8-1-2.4-1.4s-0.9-1-1.3-1.6s-0.5-1.3-0.5-2.1c0-1.5,0.5-2.7,1.5-3.6s2.4-1.3,4.3-1.3c0.9,0,1.7,0.1,2.5,0.3
		s1.7,0.5,2.5,0.9l-1.2,2.8c-0.9-0.4-1.7-0.6-2.3-0.8s-1.2-0.2-1.8-0.2c-0.7,0-1.2,0.2-1.6,0.5s-0.6,0.7-0.6,1.3
		c0,0.3,0.1,0.6,0.2,0.8s0.4,0.5,0.7,0.7s1.1,0.6,2.3,1.2c1.6,0.8,2.7,1.5,3.3,2.3S377.6,392.3,377.6,393.4z"/>
	<path class="st1" d="M389.7,398.2h-3.6v-14.1h-4.7v-3h12.9v3h-4.7v14.1H389.7z"/>
	<path class="st1" d="M413.4,381.1v11.1c0,1.3-0.3,2.4-0.8,3.3s-1.4,1.7-2.5,2.2s-2.3,0.8-3.8,0.8c-2.2,0-3.9-0.6-5.1-1.7
		s-1.8-2.7-1.8-4.6v-11h3.6v10.5c0,1.3,0.3,2.3,0.8,2.9s1.4,0.9,2.6,0.9s2-0.3,2.6-0.9s0.8-1.6,0.8-2.9v-10.5L413.4,381.1
		L413.4,381.1z"/>
	<path class="st1" d="M434.2,389.5c0,2.8-0.8,5-2.4,6.5s-3.9,2.2-7,2.2H420v-17.1h5.4c2.8,0,5,0.7,6.5,2.2S434.2,386.8,434.2,389.5z
		 M430.4,389.5c0-3.7-1.6-5.5-4.9-5.5h-1.9v11.2h1.6C428.6,395.2,430.4,393.3,430.4,389.5z"/>
	<path class="st1" d="M440.1,398.2v-17.1h3.6v17.1H440.1z"/>
	<path class="st1" d="M466,389.6c0,2.8-0.7,5-2.1,6.5s-3.4,2.3-6,2.3s-4.6-0.8-6-2.3s-2.1-3.7-2.1-6.6s0.7-5,2.1-6.5
		s3.4-2.3,6.1-2.3s4.6,0.8,6,2.3S466,386.8,466,389.6z M453.5,389.6c0,1.9,0.4,3.4,1.1,4.3s1.8,1.5,3.3,1.5c2.9,0,4.3-1.9,4.3-5.8
		s-1.4-5.8-4.3-5.8c-1.4,0-2.5,0.5-3.3,1.5S453.5,387.7,453.5,389.6z"/>
	<path class="st1" d="M487.9,383.8c-1.4,0-2.4,0.5-3.2,1.5s-1.1,2.5-1.1,4.3c0,3.8,1.4,5.7,4.3,5.7c1.2,0,2.7-0.3,4.4-0.9v3
		c-1.4,0.6-3,0.9-4.7,0.9c-2.5,0-4.4-0.8-5.7-2.3s-2-3.7-2-6.5c0-1.8,0.3-3.3,1-4.7s1.6-2.4,2.8-3.1s2.6-1.1,4.3-1.1
		c1.7,0,3.3,0.4,5,1.2l-1.2,3c-0.6-0.3-1.3-0.6-1.9-0.8S488.5,383.8,487.9,383.8z"/>
	<path class="st1" d="M513.8,389.6c0,2.8-0.7,5-2.1,6.5s-3.4,2.3-6,2.3s-4.6-0.8-6-2.3s-2.1-3.7-2.1-6.6s0.7-5,2.1-6.5
		s3.4-2.3,6.1-2.3s4.6,0.8,6,2.3C513.2,384.5,513.8,386.8,513.8,389.6z M501.3,389.6c0,1.9,0.4,3.4,1.1,4.3s1.8,1.5,3.3,1.5
		c2.9,0,4.3-1.9,4.3-5.8s-1.4-5.8-4.3-5.8c-1.4,0-2.5,0.5-3.3,1.5S501.3,387.7,501.3,389.6z"/>
	<path class="st1" d="M534,389.5c0,2.8-0.8,5-2.4,6.5s-3.9,2.2-7,2.2h-4.9v-17.1h5.4c2.8,0,5,0.7,6.5,2.2S534,386.8,534,389.5z
		 M530.2,389.5c0-3.7-1.6-5.5-4.9-5.5h-1.9v11.2h1.6C528.5,395.2,530.2,393.3,530.2,389.5z"/>
	<path class="st1" d="M549.8,398.2H540v-17.1h9.9v3h-6.2v3.8h5.8v3h-5.8v4.4h6.2v2.9H549.8z"/>
	<path class="st1" d="M563,393.2v-2.9h6.3v2.9H563z"/>
	<path class="st1" d="M264.5,434.2h-12.8v-2.4l8.2-11.8h-8v-3h12.3v2.3l-8.2,11.8h8.4v3.1H264.5z"/>
	<path class="st1" d="M285.1,425.6c0,2.8-0.7,5-2.1,6.5s-3.4,2.3-6,2.3s-4.6-0.8-6-2.3s-2.1-3.7-2.1-6.6s0.7-5,2.1-6.5
		s3.4-2.3,6.1-2.3s4.6,0.8,6,2.3S285.1,422.8,285.1,425.6z M272.6,425.6c0,1.9,0.4,3.4,1.1,4.3s1.8,1.5,3.3,1.5
		c2.9,0,4.3-1.9,4.3-5.8s-1.4-5.8-4.3-5.8c-1.4,0-2.5,0.5-3.3,1.5S272.6,423.7,272.6,425.6z"/>
	<path class="st1" d="M307.8,434.2h-4.1l-2.3-9c-0.1-0.3-0.2-1-0.4-2s-0.3-1.7-0.4-2c0,0.4-0.2,1.1-0.4,2s-0.3,1.6-0.4,2l-2.3,9
		h-4.1l-4.4-17.1h3.6l2.2,9.4c0.4,1.7,0.7,3.2,0.8,4.5c0-0.4,0.2-1.1,0.3-2.1s0.3-1.7,0.5-2.2l2.5-9.6h3.4l2.5,9.6
		c0.1,0.4,0.2,1.1,0.4,2s0.3,1.6,0.4,2.3c0.1-0.6,0.2-1.4,0.4-2.3s0.3-1.6,0.5-2.2l2.2-9.4h3.6L307.8,434.2z"/>
	<path class="st1" d="M326.6,434.2h-9.9v-17.1h9.9v3h-6.2v3.8h5.8v3h-5.8v4.4h6.2V434.2z"/>
	<path class="st1" d="M350.9,417.1h3.7l-5.8,17.1h-4l-5.8-17.1h3.7l3.2,10.2c0.2,0.6,0.4,1.3,0.6,2.1s0.3,1.4,0.4,1.7
		c0.1-0.7,0.4-2,0.9-3.8L350.9,417.1z"/>
	<path class="st1" d="M366.9,434.2h-3.6v-9.9v-1.6l0.1-1.8c-0.6,0.6-1,1-1.3,1.2l-2,1.6l-1.7-2.2l5.5-4.4h3V434.2z"/>
</g>
</svg>
