<svg id="Layer_1" data-name="Layer 1" xmlns="http://www.w3.org/2000/svg" xmlns:xlink="http://www.w3.org/1999/xlink" viewBox="0 0 624.23506 469.28291"><defs><style>.cls-1{fill:none;}.cls-2{fill:#488eff;}.cls-3{clip-path:url(#clip-path);}.cls-4{opacity:0.9;}.cls-5{fill:#3274f9;}.cls-6{fill:#fff;}.cls-7{opacity:0.58;}</style><clipPath id="clip-path"><path class="cls-1" d="M75.304,7.3774H548.613a63.34554,63.34554,0,0,1,63.34552,63.34553V342.14164h-600V70.72293A63.34553,63.34553,0,0,1,75.304,7.3774Z"/></clipPath></defs><path class="cls-2" d="M61.62353,416.499H52.16748V400.08005h9.45605v2.85253H55.64892v3.60547h5.55957v2.85157H55.64892V413.624h5.97461Z"/><path class="cls-2" d="M82.92334,416.499H78.94775l-3.81836-6.21094L71.311,416.499H67.58252l5.44726-8.46777-5.09961-7.95117H71.772l3.53711,5.90722,3.4707-5.90722h3.75l-5.15429,8.1416Z"/><path class="cls-2" d="M100.93213,405.20114a5.01666,5.01666,0,0,1-1.65625,4.05371,7.08242,7.08242,0,0,1-4.71192,1.4043H93.0708V416.499H89.58935V400.08005h5.24414a6.97479,6.97479,0,0,1,4.543,1.28613A4.68842,4.68842,0,0,1,100.93213,405.20114Zm-7.86133,2.60547h1.14551a3.81588,3.81588,0,0,0,2.40332-.63477,2.22025,2.22025,0,0,0,.79785-1.84668,2.279,2.279,0,0,0-.66895-1.80859,3.12905,3.12905,0,0,0-2.09472-.584h-1.583Z"/><path class="cls-2" d="M108.63232,416.499V400.08005h3.48145V413.624H118.773v2.875Z"/><path class="cls-2" d="M141.12842,408.26657a8.912,8.912,0,0,1-2.02149,6.26758,8.76357,8.76357,0,0,1-11.58984,0,8.94651,8.94651,0,0,1-2.02149-6.28907q0-4.10008,2.02735-6.26171a7.58137,7.58137,0,0,1,5.8125-2.16211,7.474,7.474,0,0,1,5.78906,2.17968A8.93232,8.93232,0,0,1,141.12842,408.26657Zm-11.98243,0a6.85257,6.85257,0,0,0,1.04493,4.14453,3.65091,3.65091,0,0,0,3.12109,1.39258q4.16748,0,4.167-5.53711,0-5.54736-4.14355-5.54688a3.68055,3.68055,0,0,0-3.13379,1.39747A6.82818,6.82818,0,0,0,129.146,408.26657Z"/><path class="cls-2" d="M152.61279,410.19821V416.499h-3.48145V400.08005h4.78418a8.18386,8.18386,0,0,1,4.95215,1.21875,4.8559,4.8559,0,0,1,.8086,6.27734,5.25906,5.25906,0,0,1-2.25684,1.76855q3.706,5.53711,4.8291,7.1543h-3.86328l-3.91992-6.30078Zm0-2.83008h1.12305a4.291,4.291,0,0,0,2.43652-.5498,1.96448,1.96448,0,0,0,.78711-1.7295,1.79741,1.79741,0,0,0-.80371-1.6621,4.87452,4.87452,0,0,0-2.48731-.49415h-1.05566Z"/><path class="cls-2" d="M178.3706,416.499h-9.45605V400.08005h9.45605v2.85253H172.396v3.60547h5.55957v2.85157H172.396V413.624h5.97461Z"/><path class="cls-2" d="M189.87744,410.19821V416.499H186.396V400.08005h4.78418a8.18386,8.18386,0,0,1,4.95215,1.21875,4.8559,4.8559,0,0,1,.8086,6.27734,5.25906,5.25906,0,0,1-2.25684,1.76855q3.70605,5.53711,4.8291,7.1543H195.6499L191.73,410.19821Zm0-2.83008h1.12305a4.291,4.291,0,0,0,2.43652-.5498,1.96448,1.96448,0,0,0,.78711-1.7295,1.79743,1.79743,0,0,0-.80371-1.6621,4.87452,4.87452,0,0,0-2.48731-.49415h-1.05566Z"/><path class="cls-2" d="M220.18017,416.499h-3.42578V400.08005h9.41113v2.85253h-5.98535V407.167h5.57032v2.84082h-5.57032Z"/><path class="cls-2" d="M248.88037,408.26657a8.912,8.912,0,0,1-2.02149,6.26758,8.76357,8.76357,0,0,1-11.58984,0,8.94651,8.94651,0,0,1-2.02148-6.28907q0-4.10008,2.02734-6.26171a7.58137,7.58137,0,0,1,5.8125-2.16211,7.474,7.474,0,0,1,5.78906,2.17968A8.93232,8.93232,0,0,1,248.88037,408.26657Zm-11.98242,0a6.85258,6.85258,0,0,0,1.04492,4.14453,3.65092,3.65092,0,0,0,3.12109,1.39258q4.16748,0,4.167-5.53711,0-5.54736-4.14355-5.54688a3.68056,3.68056,0,0,0-3.13379,1.39747A6.82818,6.82818,0,0,0,236.898,408.26657Z"/><path class="cls-2" d="M260.36474,410.19821V416.499H256.8833V400.08005h4.78418a8.1839,8.1839,0,0,1,4.95215,1.21875,4.85592,4.85592,0,0,1,.80859,6.27734,5.259,5.259,0,0,1-2.25684,1.76855q3.70606,5.53711,4.82911,7.1543H266.1372l-3.91992-6.30078Zm0-2.83008h1.12305a4.29094,4.29094,0,0,0,2.43652-.5498,1.96446,1.96446,0,0,0,.78711-1.7295,1.79741,1.79741,0,0,0-.80371-1.6621,4.87448,4.87448,0,0,0-2.4873-.49415h-1.05567Z"/><path class="cls-2" d="M296.60791,400.08005h3.51465L294.5415,416.499h-3.7959l-5.57031-16.41894h3.51563l3.08789,9.7705q.2578.86427.5332,2.01563t.34277,1.60058a28.67352,28.67352,0,0,1,.84278-3.61621Z"/><path class="cls-2" d="M316.481,411.93942a4.24506,4.24506,0,0,1-1.59961,3.50391,6.95415,6.95415,0,0,1-4.45312,1.28027,10.45318,10.45318,0,0,1-4.64941-.98828v-3.23438a19.29264,19.29264,0,0,0,2.81347,1.04493,8.36391,8.36391,0,0,0,2.10547.30273,3.00252,3.00252,0,0,0,1.75781-.4375,1.49869,1.49869,0,0,0,.61133-1.30273,1.43849,1.43849,0,0,0-.26953-.85938,3.0228,3.0228,0,0,0-.791-.72461,20.27859,20.27859,0,0,0-2.1289-1.11133,10.12053,10.12053,0,0,1-2.25684-1.35937,5.10926,5.10926,0,0,1-1.20215-1.51563,4.33826,4.33826,0,0,1-.44921-2.02148,4.24449,4.24449,0,0,1,1.47753-3.42578,6.13484,6.13484,0,0,1,4.082-1.2461,9.63527,9.63527,0,0,1,2.44238.30274,16.72079,16.72079,0,0,1,2.43164.85351l-1.123,2.707a16.513,16.513,0,0,0-2.17285-.75293,6.98649,6.98649,0,0,0-1.69043-.21387,2.23733,2.23733,0,0,0-1.51562.46094,1.51574,1.51574,0,0,0-.52832,1.20117,1.48594,1.48594,0,0,0,.21386.80371,2.32738,2.32738,0,0,0,.67871.66211,20.86092,20.86092,0,0,0,2.207,1.15137,8.767,8.767,0,0,1,3.15527,2.207A4.30459,4.30459,0,0,1,316.481,411.93942Z"/><path class="cls-2" d="M341.606,402.74118a3.54889,3.54889,0,0,0-3.04394,1.47754,6.87037,6.87037,0,0,0-1.07813,4.11621q0,5.49023,4.12207,5.49121a13.036,13.036,0,0,0,4.18848-.86426v2.91992a11.651,11.651,0,0,1-4.51465.8418,6.887,6.887,0,0,1-5.48047-2.17285,9.20163,9.20163,0,0,1-1.89843-6.23926,10.19116,10.19116,0,0,1,.93261-4.48633,6.7318,6.7318,0,0,1,2.67871-2.95312,7.91763,7.91763,0,0,1,4.09375-1.02735,11.04829,11.04829,0,0,1,4.80664,1.15625l-1.123,2.83008a18.5849,18.5849,0,0,0-1.85352-.76367A5.53429,5.53429,0,0,0,341.606,402.74118Z"/><path class="cls-2" d="M368.78955,408.26657a8.912,8.912,0,0,1-2.02149,6.26758,8.76357,8.76357,0,0,1-11.58984,0,8.94651,8.94651,0,0,1-2.02148-6.28907q0-4.10008,2.02734-6.26171a7.58137,7.58137,0,0,1,5.8125-2.16211,7.474,7.474,0,0,1,5.78906,2.17968A8.93232,8.93232,0,0,1,368.78955,408.26657Zm-11.98242,0a6.85258,6.85258,0,0,0,1.04492,4.14453,3.65092,3.65092,0,0,0,3.12109,1.39258q4.16748,0,4.167-5.53711,0-5.54736-4.14355-5.54688a3.68056,3.68056,0,0,0-3.13379,1.39747A6.82818,6.82818,0,0,0,356.80713,408.26657Z"/><path class="cls-2" d="M390.4165,408.1318a8.08461,8.08461,0,0,1-2.30859,6.21094q-2.30714,2.15625-6.665,2.15625h-4.64942V400.08005h5.1543a8.684,8.684,0,0,1,6.24414,2.12207A7.811,7.811,0,0,1,390.4165,408.1318Zm-3.61719.08985q0-5.28809-4.67187-5.28907H380.2749V413.624h1.49316Q386.79981,413.624,386.79931,408.22165Z"/><path class="cls-2" d="M407.87451,416.499h-9.45606V400.08005h9.45606v2.85253H401.8999v3.60547h5.55957v2.85157H401.8999V413.624h5.97461Z"/><path class="cls-2" d="M425.09326,411.73727v-2.80761h6.03027v2.80761Z"/><path class="cls-2" d="M459.75342,416.499H447.53467v-2.25781l7.87207-11.28613h-7.65918v-2.875h11.792v2.24609L451.67822,413.624h8.0752Z"/><path class="cls-2" d="M481.87158,408.26657a8.912,8.912,0,0,1-2.02149,6.26758,8.76357,8.76357,0,0,1-11.58984,0,8.94651,8.94651,0,0,1-2.02148-6.28907q0-4.10008,2.02734-6.26171a7.58137,7.58137,0,0,1,5.8125-2.16211,7.474,7.474,0,0,1,5.78906,2.17968A8.93232,8.93232,0,0,1,481.87158,408.26657Zm-11.98242,0a6.85258,6.85258,0,0,0,1.04492,4.14453,3.65092,3.65092,0,0,0,3.12109,1.39258q4.16748,0,4.167-5.53711,0-5.54736-4.14356-5.54688a3.68056,3.68056,0,0,0-3.13379,1.39747A6.82818,6.82818,0,0,0,469.88916,408.26657Z"/><path class="cls-2" d="M505.8667,416.499h-3.96485l-2.22265-8.625q-.12452-.46-.42188-1.90332-.29736-1.44286-.3418-1.9375-.06738.60645-.33789,1.94824-.26952,1.3418-.415,1.915l-2.21191,8.60254h-3.95312l-4.18946-16.41894h3.42578l2.09961,8.96191q.55079,2.48145.79688,4.30078.06738-.63867.30957-1.98144.2417-1.34181.4541-2.083l2.39258-9.19824h3.291l2.39161,9.19824q.15674.61669.39355,1.88672.23438,1.26855.35938,2.17773.11131-.876.35937-2.18359.24609-1.30811.44922-2.11719l2.08789-8.96191h3.42578Z"/><path class="cls-2" d="M526.16748,416.499h-9.45606V400.08005h9.45606v2.85253h-5.97461v3.60547h5.55957v2.85157h-5.55957V413.624h5.97461Z"/><path class="cls-2" d="M554.1333,400.08005H557.648L552.06689,416.499H548.271l-5.57031-16.41894h3.51563l3.08789,9.7705q.2578.86427.5332,2.01563t.34277,1.60058a28.67352,28.67352,0,0,1,.84278-3.61621Z"/><path class="cls-2" d="M571.74951,416.499h-3.46973v-9.501l.03321-1.56152.05664-1.707q-.86573.86572-1.20215,1.13477l-1.88672,1.51562-1.67285-2.08789,5.28906-4.21191h2.85254Z"/><path class="cls-2" d="M611.95849,342.14164h-600V70.72293A63.34553,63.34553,0,0,1,75.304,7.3774H548.613a63.34554,63.34554,0,0,1,63.34552,63.34553"/><path class="cls-2" d="M608.3584,355.91258V459.68294H15.55862V355.91258H608.3584m3.60009-3.6h-600V463.28291h600Z"/><g class="cls-3"><g class="cls-4"><path class="cls-5" d="M367.48733-133.6226.5459,119.436,253.60446,486.3774,620.5459,233.31883ZM266.5213,322.44475,292.11236,82.31882,166.58349,168.889,180.5459,131.3774l-45.29331-7.91884L327.41543-9.06533,354.56891,30.308l-25.589,240.12455,129.5664-89.35461,31.33231,45.43249L293.67618,361.82Z"/></g></g><polygon class="cls-6" points="154.327 110.59 154.329 110.591 154.328 110.59 154.327 110.59"/><path class="cls-1" d="M392.13406,66.95147a1.61834,1.61834,0,0,0,.65225-1.44775V65.4574a1.6215,1.6215,0,0,0-.74008-1.5356,4.731,4.731,0,0,0-2.36365-.44867h-1.013v3.87149h1.0315A5.41649,5.41649,0,0,0,392.13406,66.95147Z"/><path class="cls-1" d="M484.18652,66.80349a2.72575,2.72575,0,0,0,.31912-3.83913l-.333-.333a4.63388,4.63388,0,0,0-2.82618-.754h-2.36355v5.66622h2.39135A4.66025,4.66025,0,0,0,484.18652,66.80349Z"/><path class="cls-1" d="M471.89389,66.90524a2.89729,2.89729,0,0,0,.20944-4.09206v0l-.00134-.00148a.26155.26155,0,0,1-.03241-.037l-.1434-.15728a4.01275,4.01275,0,0,0-2.64115-.78166l-2.82611.04159v5.79575h2.68271A4.20062,4.20062,0,0,0,471.89389,66.90524Z"/><path class="cls-1" d="M346.83557,128.401c-11.02579,0-17.61566,8.49087-17.61566,18.50256v.253c0,10.01167,7.22378,18.75625,17.86938,18.75625,11.02506,0,17.61493-8.49087,17.61493-18.50255v-.2537C364.70419,137.1452,357.48044,128.401,346.83557,128.401Z"/><polygon class="cls-1" points="409.424 64.589 407.06 70.385 411.774 70.385 409.424 64.589"/><path class="cls-1" d="M255.306,67.84834a3.273,3.273,0,0,0,.17577-4.62082.67389.67389,0,0,0-.1619-.1619,4.32064,4.32064,0,0,0-2.89552-.88344h-3.2054v6.52191h3.01578A4.83819,4.83819,0,0,0,255.306,67.84834Z"/><path class="cls-1" d="M530.97418,127.2604c-7.98419,0-13.17975,5.70263-14.70056,14.44721h29.02093C544.15393,133.08988,539.0849,127.2604,530.97418,127.2604Z"/><polygon class="cls-1" points="326.936 64.589 324.563 70.385 329.286 70.385 326.936 64.589"/><path class="cls-1" d="M231.24757,74.32768a7.36938,7.36938,0,0,0,10.21764,0,7.24578,7.24578,0,0,0,0-10.14359,7.37219,7.37219,0,0,0-10.21764,0,7.1551,7.1551,0,0,0-.02475,10.11878l.00627.00627Z"/><path class="cls-1" d="M502.99817,72.72034a6.46631,6.46631,0,0,0,0-9.07511,6.56,6.56,0,0,0-9.14457,0,6.40694,6.40694,0,0,0-.00051,9.06073l.00051.00049a6.25564,6.25564,0,0,0,4.57929,1.84095v.01387A6.20629,6.20629,0,0,0,502.99817,72.72034Z"/><path class="cls-6" d="M466.459,68.6444h2.75214a5.38206,5.38206,0,0,0,3.60785-1.04071,3.52066,3.52066,0,0,0,1.22113-2.82613,3.40663,3.40663,0,0,0-1.22113-2.79841,5.18585,5.18585,0,0,0-3.48761-1.03147h-3.98715V75.41606H466.459Zm0-6.76706,2.82614-.0416a4.01289,4.01289,0,0,1,2.64112.78166l.1434.15728a.26107.26107,0,0,0,.03241.037,2.89727,2.89727,0,0,1-.20661,4.09216l-.00006.00005-.00146.00134a4.20047,4.20047,0,0,1-2.75217.76785H466.4591Z"/><path class="cls-6" d="M478.94122,68.501h1.9982a3.6483,3.6483,0,0,1,2.05832.49488,9.42008,9.42008,0,0,1,1.95651,2.47924l2.52091,3.94089h1.33673l-3.27481-5.00014a6.69472,6.69472,0,0,0-1.92881-2.2202,3.59371,3.59371,0,0,0,2.75211-3.5061A3.33955,3.33955,0,0,0,485.13,61.96525a5.48665,5.48665,0,0,0-3.56622-1.01761H477.868l-.0416,14.49616h1.11472Zm.04163-6.6237h2.36355a4.6339,4.6339,0,0,1,2.82617.754l.333.333a2.72575,2.72575,0,0,1-.31912,3.83913,4.66026,4.66026,0,0,1-2.81229.74008h-2.39126Z"/><path class="cls-6" d="M503.86767,73.44189l.17581-.185c.02778-.03238.05549-.06011.08326-.08784a7.2496,7.2496,0,0,0-.25812-10.24918l-.00092-.00085a7.91223,7.91223,0,0,0-10.85589,0l-.14337.148-.00925.00464a7.33877,7.33877,0,0,0,.15259,10.37022A7.90594,7.90594,0,0,0,503.86767,73.44189Zm-10.01407-.73544a6.407,6.407,0,0,1-.00051-9.06073l.00051-.00049a6.56,6.56,0,0,1,9.14457,0,6.46629,6.46629,0,0,1,0,9.07509,6.20622,6.20622,0,0,1-4.56534,1.84093V74.5474a6.25564,6.25564,0,0,1-4.5792-1.84095Z"/><path class="cls-6" d="M508.69488,79.63585a2.89936,2.89936,0,0,0,2.13239-.91584,4.69033,4.69033,0,0,0,.89737-3.2748V60.949h-1.11475V75.7644c0,1.94268-.666,2.90012-2.03052,2.90012a3.4752,3.4752,0,0,1-.65225-.074l.10181,1.04538Q508.362,79.64966,508.69488,79.63585Z"/><polygon class="cls-6" points="524.71 74.474 517.786 74.474 517.786 68.604 524.377 68.604 524.377 67.66 517.786 67.66 517.786 61.878 524.553 61.878 524.553 60.949 516.667 60.949 516.667 75.413 524.71 75.413 524.71 74.474"/><path class="cls-6" d="M540.77148,61.9791v.00253c.01965.00941.04047.01572.06006.02523Z"/><path class="cls-6" d="M535.79907,75.61958a10.74687,10.74687,0,0,0,5.11578-1.35064V73.11257a10.927,10.927,0,0,1-5.14349,1.44776,6.3813,6.3813,0,0,1-4.6532-1.7854,6.13288,6.13288,0,0,1-1.81317-4.607,6.2085,6.2085,0,0,1,1.81317-4.57917,6.07642,6.07642,0,0,1,4.49127-1.84093,11.06828,11.06828,0,0,1,5.16205,1.44771V61.98163a12.15073,12.15073,0,0,0-5.02789-1.19125,7.54574,7.54574,0,0,0-5.35163,2.13233.53152.53152,0,0,1-.1018.10176l-.0044.00463h-.00024a7.40644,7.40644,0,0,0,.00464,10.472A7.58223,7.58223,0,0,0,535.79907,75.61958Z"/><polygon class="cls-6" points="548.611 75.413 549.744 75.413 549.744 61.878 555.165 61.878 555.165 60.949 543.176 60.949 543.176 61.878 548.611 61.878 548.611 75.413"/><polygon class="cls-6" points="315.01 76.429 315.01 60.401 310.616 60.401 305.676 66.415 300.75 60.401 296.369 60.401 296.369 76.429 301.064 76.429 301.064 67.14 305.431 72.516 305.819 72.516 310.167 67.14 310.167 76.429 315.01 76.429"/><path class="cls-6" d="M323.4299,73.18382h6.95669l1.31824,3.24709h4.94461L329.65121,60.3991h-5.40716l-7.09082,16.03181h4.94467Zm3.50619-8.59407,2.3498,5.79565h-4.72266Z"/><rect class="cls-6" x="338.79571" y="60.40227" width="4.82437" height="16.02716"/><polygon class="cls-6" points="352.463 67.501 360.78 76.429 365.072 76.429 365.072 60.401 360.257 60.401 360.257 69.282 351.968 60.401 347.68 60.401 347.68 76.429 352.463 76.429 352.463 67.501"/><polygon class="cls-6" points="373.93 69.936 380.581 69.936 380.581 66.721 373.93 66.721 373.93 63.617 380.581 63.617 380.581 60.398 369.101 60.398 369.101 76.429 373.93 76.429 373.93 69.936"/><path class="cls-6" d="M390.57068,70.328a2.68938,2.68938,0,0,1,1.08236.92509,12.417,12.417,0,0,1,1.24884,2.28027L394.16,76.42893h5.18976l-1.57727-3.506a12.79014,12.79014,0,0,0-1.42005-2.47925,4.44886,4.44886,0,0,0-1.27661-1.07309,10.99621,10.99621,0,0,0,1.17484-.72621,3.75946,3.75946,0,0,0,.98523-1.21643,4.07664,4.07664,0,0,0,.46255-2.05832,5.06537,5.06537,0,0,0-.55047-2.20169,4.86755,4.86755,0,0,0-1.84091-1.95662,5.92527,5.92527,0,0,0-3.26093-.80944h-8.21939V76.3874h4.84286V70.12456h.53656A3.92677,3.92677,0,0,1,390.57068,70.328Zm-1.9011-6.85489h1.013a4.73094,4.73094,0,0,1,2.36365.44868,1.62148,1.62148,0,0,1,.74008,1.53559v.04631a1.61835,1.61835,0,0,1-.65225,1.44776,5.41663,5.41663,0,0,1-2.433.39317h-1.0315Z"/><path class="cls-6" d="M405.93179,73.18382h6.95663l1.30436,3.24709h4.94461l-7.063-16.03181h-5.347l-7.08612,16.03181h4.9585Zm3.49222-8.59407,2.34973,5.79565h-4.71329Z"/><polygon class="cls-6" points="425.96 67.14 430.341 72.516 430.715 72.516 435.082 67.14 435.082 76.429 439.906 76.429 439.906 60.401 435.53 60.401 430.572 66.415 425.66 60.401 421.265 60.401 421.265 76.429 425.96 76.429 425.96 67.14"/><polygon class="cls-6" points="456.038 73.196 448.79 73.196 448.79 69.777 455.516 69.777 455.516 66.544 448.79 66.544 448.79 63.616 455.835 63.616 455.835 60.401 443.952 60.401 443.952 76.429 456.038 76.429 456.038 73.196"/><path class="cls-6" d="M242.43652,75.13712l.20352-.19889a.142.142,0,0,1,.037-.037,8.17583,8.17583,0,0,0-.24052-11.559,8.30717,8.30717,0,0,0-6.07318-2.40522v.04163a8.34415,8.34415,0,0,0-6.0455,2.40523l-.15723.1619a8.2013,8.2013,0,0,0,.15723,11.59135A8.83812,8.83812,0,0,0,242.43652,75.13712Zm-11.189-10.953a7.37217,7.37217,0,0,1,10.21764,0,7.24577,7.24577,0,0,1,0,10.14358,7.36936,7.36936,0,0,1-10.21764,0l-.01848-.01852a7.15507,7.15507,0,0,1,.01221-10.11879h0l.00629-.00626Z"/><path class="cls-6" d="M249.14489,69.7494h3.08974a6.06391,6.06391,0,0,0,4.01494-1.17484,4.22661,4.22661,0,0,0,.08783-6.29063,5.99456,5.99456,0,0,0-3.91313-1.14712H247.97l-.06941,16.13358h1.24429Zm.074-7.56722h3.20541a4.32063,4.32063,0,0,1,2.89553.88344.67357.67357,0,0,1,.16191.1619,3.273,3.273,0,0,1-.17577,4.62081,4.83817,4.83817,0,0,1-3.07133.85573h-3.01577Z"/><polygon class="cls-6" points="269.092 76.255 261.335 76.255 261.335 69.691 268.703 69.691 268.703 68.646 261.335 68.646 261.335 62.184 268.902 62.184 268.902 61.139 260.091 61.139 260.091 77.3 269.092 77.3 269.092 76.255"/><polygon class="cls-6" points="272.906 63.164 285.178 77.3 286.209 77.3 286.209 61.139 284.96 61.139 284.96 75.255 272.716 61.139 271.658 61.139 271.658 77.3 272.906 77.3 272.906 63.164"/><polygon class="cls-6" points="227.836 109.391 275.106 109.391 226.315 166.166 226.315 180.993 300.199 180.993 300.199 163.885 251.408 163.885 300.199 107.11 300.199 92.283 227.836 92.283 227.836 109.391"/><path class="cls-6" d="M347.08926,111.79939c-21.16394,0-36.87863,15.84118-36.87863,35.35709v.25371c0,19.51668,15.58746,35.10411,36.62491,35.10411,21.16394,0,36.87787-15.84116,36.87787-35.35782v-.253C383.71347,127.38688,368.126,111.79939,347.08926,111.79939Zm17.61493,35.61081c0,10.01168-6.5899,18.50255-17.61493,18.50255-10.6456,0-17.86938-8.74458-17.86938-18.75625v-.253c0-10.01167,6.5899-18.50255,17.61566-18.50255,10.64483,0,17.86865,8.74422,17.86865,18.75553Z"/><polygon class="cls-6" points="461.779 154.38 448.853 112.813 432.251 112.813 419.452 154.253 408.553 113.066 389.036 113.066 409.947 181.5 427.182 181.5 440.488 139.806 453.541 181.5 470.903 181.5 492.068 113.066 472.931 113.066 461.779 154.38"/><path class="cls-6" d="M564.05078,148.67732c0-19.26258-10.39185-36.87789-33.0766-36.87789-19.76965,0-33.58331,15.96766-33.58331,35.3571v.2537c0,20.78376,15.08075,35.10411,35.48431,35.10411,12.29285,0,21.41693-4.81611,27.75385-12.67308l-11.02582-9.758c-5.32282,4.9426-10.01166,6.97008-16.47437,6.97008-8.6181,0-14.70129-4.5624-16.60156-13.307h47.26978C563.92358,151.97261,564.05078,150.19812,564.05078,148.67732Zm-47.77719-6.96972c1.52081-8.74459,6.7164-14.44721,14.70053-14.44721,8.11066,0,13.17975,5.82949,14.32037,14.44721Z"/><path class="cls-6" d="M141.4512,51.3774,50.5459,114.0696l62.6922,90.9053,90.9053-62.69221ZM116.43808,164.36257l6.33989-59.48829L91.67971,126.321,83.9179,115.06615l47.606-32.83119,6.727,9.75425-6.33936,59.488L164.01,129.34069l7.76221,11.25537-48.60679,33.5213Z"/><path class="cls-6" d="M137.81786,224.23923a9.20124,9.20124,0,0,0-7.56836,3.41113q-2.75684,3.41016-2.75683,9.41308,0,6.28419,2.65136,9.50782,2.65137,3.22265,7.67383,3.22363a20.15564,20.15564,0,0,0,4.2041-.43262q2.0332-.43212,4.22852-1.10937V253.042a25.64876,25.64876,0,0,1-9.11035,1.51758q-7.49855,0-11.51563-4.543-4.01806-4.54248-4.01855-12.999a20.99657,20.99657,0,0,1,1.95117-9.32032,13.91307,13.91307,0,0,1,5.64062-6.12011,17.06679,17.06679,0,0,1,8.667-2.126,21.519,21.519,0,0,1,9.66992,2.19531l-2.00879,4.64844a30.10623,30.10623,0,0,0-3.65527-1.43652A13.19016,13.19016,0,0,0,137.81786,224.23923Z"/><path class="cls-6" d="M188.71239,236.97067q0,8.33935-4.16894,12.96387-4.17042,4.626-11.8086,4.625-7.73144,0-11.87793-4.58985-4.147-4.58936-4.14648-13.04589,0-8.45655,4.16992-12.98829,4.16895-4.53075,11.90137-4.53125,7.61572,0,11.77344,4.60157Q188.71239,228.60837,188.71239,236.97067Zm-26.06836,0q0,6.30615,2.5459,9.56543,2.54591,3.25782,7.54492,3.25879,4.97609,0,7.51075-3.22363,2.53417-3.22413,2.53418-9.60059,0-6.28418-2.51172-9.53125-2.51074-3.24609-7.48633-3.24609-5.02295,0-7.58008,3.24609Q162.644,230.687,162.644,236.97067Z"/><path class="cls-6" d="M229.28271,254.09274H222.438l-16.79492-27.21387h-.18653l.11621,1.51856q.32667,4.34472.32715,7.94238v17.75293h-5.06836V219.94137H207.605l16.749,27.07325h.13965q-.04687-.53615-.18652-3.91211-.14062-3.375-.14063-5.26758V219.94137h5.11622Z"/><path class="cls-6" d="M248.61962,254.09274h-5.53613V219.94137H262.354v4.71875H248.61962v10.67481h12.87012v4.74219H248.61962Z"/><path class="cls-6" d="M303.64892,236.97067q0,8.33935-4.16895,12.96387-4.1704,4.626-11.80859,4.625-7.73145,0-11.87793-4.58985-4.147-4.58936-4.14649-13.04589,0-8.45655,4.16993-12.98829,4.16893-4.53075,11.90136-4.53125,7.61572,0,11.77344,4.60157Q303.64891,228.60837,303.64892,236.97067Zm-26.06836,0q0,6.30615,2.5459,9.56543,2.54589,3.25782,7.54492,3.25879,4.97607,0,7.51074-3.22363,2.53418-3.22413,2.53418-9.60059,0-6.28418-2.51172-9.53125-2.51074-3.24609-7.48633-3.24609-5.02295,0-7.58008,3.24609Q277.58057,230.687,277.58056,236.97067Z"/><path class="cls-6" d="M321.35009,240.45114v13.6416h-5.582V219.94137h9.64648q6.61085,0,9.78809,2.47657,3.17579,2.47559,3.17676,7.47461,0,6.37645-6.63379,9.08691l9.64746,15.11328h-6.35449l-8.17579-13.6416Zm0-4.625H325.228q3.90087,0,5.65332-1.44824a5.25583,5.25583,0,0,0,1.75195-4.29883,4.62461,4.62461,0,0,0-1.89258-4.15723,10.37464,10.37464,0,0,0-5.69922-1.26172h-3.6914Z"/><path class="cls-6" d="M365.89208,254.09274l-9.9043-28.52148h-.1875q.397,6.35448.39746,11.91308v16.6084h-5.06835V219.94137h7.87207l9.48339,27.167h.13965l9.76465-27.167h7.89551v34.15137h-5.373V237.20407q0-2.54591.12891-6.63379.12744-4.08838.22168-4.95215h-.18653l-10.25488,28.47461Z"/><path class="cls-6" d="M421.24853,254.09274l-3.41016-9.4834H404.77978l-3.33985,9.4834h-5.88672l12.77735-34.291h6.07324l12.77734,34.291Zm-4.88184-14.2959L413.16649,230.5q-.35156-.93457-.96972-2.94336-.61964-2.00831-.85254-2.94336a52.44342,52.44342,0,0,1-1.8457,6.28418l-3.083,8.89941Z"/><path class="cls-6" d="M464.92626,254.09274h-6.84473l-16.79492-27.21387h-.18652l.11621,1.51856q.32666,4.34472.32715,7.94238v17.75293h-5.06836V219.94137h6.77344l16.749,27.07325h.13965q-.04687-.53615-.18653-3.91211-.14062-3.375-.14062-5.26758V219.94137h5.11621Z"/><path class="cls-6" d="M490.52294,254.09274h-5.583v-29.3623H474.896v-4.78907h25.67187v4.78907H490.52294Z"/><g class="cls-7"><rect class="cls-6" x="35.66168" y="277.63619" width="553.53213" height="43.5348"/></g><path class="cls-5" d="M119.91747,303.15036a5.19956,5.19956,0,0,1-1.96094,4.29394,8.5212,8.5212,0,0,1-5.457,1.56934,12.81159,12.81159,0,0,1-5.69726-1.21094v-3.96387a23.513,23.513,0,0,0,3.44726,1.28028,10.22949,10.22949,0,0,0,2.58008.37109,3.67227,3.67227,0,0,0,2.1543-.53613,1.83749,1.83749,0,0,0,.75-1.59668,1.76557,1.76557,0,0,0-.33008-1.05273,3.69627,3.69627,0,0,0-.9707-.8877,25.07763,25.07763,0,0,0-2.60743-1.3623,12.32964,12.32964,0,0,1-2.7666-1.666,6.23845,6.23845,0,0,1-1.47265-1.85742,5.30166,5.30166,0,0,1-.55078-2.47754,5.20178,5.20178,0,0,1,1.80957-4.19727,7.52047,7.52047,0,0,1,5.00293-1.52734,11.79591,11.79591,0,0,1,2.99316.37109,20.60466,20.60466,0,0,1,2.97949,1.0459l-1.376,3.31641a20.17306,20.17306,0,0,0-2.66309-.92188,8.60029,8.60029,0,0,0-2.07129-.26172,2.74091,2.74091,0,0,0-1.85742.56446,1.86182,1.86182,0,0,0-.64746,1.47265,1.82735,1.82735,0,0,0,.26172.98438,2.85363,2.85363,0,0,0,.833.81152,25.5379,25.5379,0,0,0,2.70411,1.41113,10.76833,10.76833,0,0,1,3.86718,2.70411A5.27709,5.27709,0,0,1,119.91747,303.15036Z"/><path class="cls-5" d="M148.397,288.61716v13.01953a7.505,7.505,0,0,1-.99707,3.9082,6.49875,6.49875,0,0,1-2.88379,2.57422,10.30572,10.30572,0,0,1-4.459.89453,8.5345,8.5345,0,0,1-6.02734-1.98926,7.05173,7.05173,0,0,1-2.14746-5.44238V288.61716h4.25292v12.31738a5.1578,5.1578,0,0,0,.93555,3.41308,3.8886,3.8886,0,0,0,3.09668,1.08789,3.802,3.802,0,0,0,3.03418-1.09472,5.18215,5.18215,0,0,0,.94336-3.4336v-12.29Z"/><path class="cls-5" d="M175.68017,294.89352a6.14813,6.14813,0,0,1-2.03028,4.96778,8.67842,8.67842,0,0,1-5.77343,1.7207h-1.83008v7.15625h-4.2666V288.61716h6.42675a8.55029,8.55029,0,0,1,5.56739,1.57617A5.74711,5.74711,0,0,1,175.68017,294.89352Zm-9.63379,3.19239h1.40332a4.67337,4.67337,0,0,0,2.94531-.77735,2.72235,2.72235,0,0,0,.97754-2.26367,2.79014,2.79014,0,0,0-.81934-2.21582,3.83388,3.83388,0,0,0-2.5664-.71582h-1.94043Z"/><path class="cls-5" d="M201.83446,294.89352a6.14812,6.14812,0,0,1-2.03027,4.96778,8.67845,8.67845,0,0,1-5.77344,1.7207h-1.83008v7.15625h-4.2666V288.61716h6.42676a8.55024,8.55024,0,0,1,5.56738,1.57617A5.74708,5.74708,0,0,1,201.83446,294.89352Zm-9.63379,3.19239H193.604a4.6734,4.6734,0,0,0,2.94532-.77735,2.72238,2.72238,0,0,0,.97754-2.26367,2.79014,2.79014,0,0,0-.81934-2.21582,3.83392,3.83392,0,0,0-2.56641-.71582h-1.94043Z"/><path class="cls-5" d="M232.35107,298.65036q0,4.99512-2.47754,7.67969-2.47705,2.68359-7.10059,2.68359-4.62452,0-7.10156-2.68359t-2.47754-7.707q0-5.02295,2.48437-7.67285,2.48438-2.64843,7.12207-2.64941,4.6377,0,7.09473,2.66992Q232.35156,293.64108,232.35107,298.65036Zm-14.68458,0a8.40193,8.40193,0,0,0,1.28028,5.07812,4.47828,4.47828,0,0,0,3.82617,1.707q5.105,0,5.10547-6.78515,0-6.79834-5.07813-6.79883a4.50724,4.50724,0,0,0-3.83984,1.71387A8.36966,8.36966,0,0,0,217.66649,298.65036Z"/><path class="cls-5" d="M249.24267,301.01755v7.7207h-4.2666V288.61716h5.86328q4.10009,0,6.06836,1.49414a5.95066,5.95066,0,0,1,.99121,7.69238,6.461,6.461,0,0,1-2.7666,2.168q4.54248,6.78514,5.918,8.7666h-4.73437l-4.80274-7.7207Zm0-3.46778h1.376a5.26019,5.26019,0,0,0,2.98633-.6748,2.40626,2.40626,0,0,0,.96387-2.11914,2.20264,2.20264,0,0,0-.98438-2.03711,5.97592,5.97592,0,0,0-3.04882-.60547h-1.293Z"/><path class="cls-5" d="M279.80028,308.73825h-4.26562V292.16794h-5.46387v-3.55078h15.19336v3.55078h-5.46387Z"/><path class="cls-5" d="M326.49364,294.89352a6.14812,6.14812,0,0,1-2.03027,4.96778,8.67845,8.67845,0,0,1-5.77344,1.7207h-1.83008v7.15625h-4.2666V288.61716H319.02a8.55024,8.55024,0,0,1,5.56738,1.57617A5.74708,5.74708,0,0,1,326.49364,294.89352Zm-9.63379,3.19239h1.40332a4.6734,4.6734,0,0,0,2.94532-.77735,2.72238,2.72238,0,0,0,.97754-2.26367,2.79014,2.79014,0,0,0-.81934-2.21582,3.83392,3.83392,0,0,0-2.56641-.71582h-1.94043Z"/><path class="cls-5" d="M343.01415,301.01755v7.7207h-4.2666V288.61716h5.86328q4.1001,0,6.06836,1.49414a5.95066,5.95066,0,0,1,.99121,7.69238,6.46092,6.46092,0,0,1-2.7666,2.168q4.54248,6.78514,5.918,8.7666h-4.73438l-4.80273-7.7207Zm0-3.46778h1.376a5.26021,5.26021,0,0,0,2.98633-.6748,2.40628,2.40628,0,0,0,.96386-2.11914,2.20264,2.20264,0,0,0-.98437-2.03711,5.976,5.976,0,0,0-3.04883-.60547h-1.293Z"/><path class="cls-5" d="M384.07274,298.65036q0,4.99512-2.47753,7.67969-2.47706,2.68359-7.10059,2.68359-4.62452,0-7.10156-2.68359t-2.47754-7.707q0-5.02295,2.48437-7.67285,2.48438-2.64843,7.12207-2.64941,4.6377,0,7.09473,2.66992Q384.07324,293.64108,384.07274,298.65036Zm-14.68457,0a8.40193,8.40193,0,0,0,1.28028,5.07812,4.47828,4.47828,0,0,0,3.82617,1.707q5.105,0,5.10547-6.78515,0-6.79834-5.07813-6.79883a4.50724,4.50724,0,0,0-3.83984,1.71387A8.36966,8.36966,0,0,0,369.38817,298.65036Z"/><path class="cls-5" d="M408.17626,288.61716h4.30762L405.644,308.73825h-4.65136l-6.82618-20.12109h4.30762l3.78418,11.97363q.31788,1.06054.6543,2.4707.33691,1.41064.41992,1.96094a35.08435,35.08435,0,0,1,1.03223-4.43164Z"/><path class="cls-5" d="M423.47118,308.73825V288.61716h4.2666v20.12109Z"/><path class="cls-5" d="M457.95165,298.48532q0,4.96875-2.82812,7.61035-2.82716,2.64258-8.168,2.64258h-5.69727V288.61716h6.31738q4.92627,0,7.65137,2.60156A9.56894,9.56894,0,0,1,457.95165,298.48532Zm-4.43066.11035q0-6.48193-5.72559-6.48242h-2.27051v13.10156H447.355Q453.5205,305.21481,453.521,298.59567Z"/><path class="cls-5" d="M482.16552,308.73825H470.57763V288.61716h11.58789v3.49609h-7.32129v4.418h6.8125v3.49511h-6.8125v5.18848h7.32129Z"/><path class="cls-5" d="M499.08544,301.01755v7.7207h-4.2666V288.61716h5.86328q4.1001,0,6.06836,1.49414a5.95066,5.95066,0,0,1,.99121,7.69238,6.46092,6.46092,0,0,1-2.7666,2.168q4.54248,6.78514,5.918,8.7666h-4.73438l-4.80273-7.7207Zm0-3.46778h1.376a5.26015,5.26015,0,0,0,2.98632-.6748,2.40626,2.40626,0,0,0,.96387-2.11914,2.20264,2.20264,0,0,0-.98437-2.03711,5.976,5.976,0,0,0-3.04883-.60547h-1.293Z"/></svg>