<svg id="Layer_1" data-name="Layer 1" xmlns="http://www.w3.org/2000/svg" viewBox="0 0 250 250"><defs><style>.cls-1{fill:#fff;}</style></defs><path class="cls-1" d="M124.79331,9.28629h-.13769a116.74427,116.74427,0,0,0,.1322,233.48847h.09784A116.87814,116.87814,0,0,0,241.53519,125.95542v-.07983A116.87565,116.87565,0,0,0,124.79331,9.28629Zm109.9588,116.63312v.04071A110.08813,110.08813,0,0,1,124.88017,235.99168h-.09156A109.96037,109.96037,0,0,1,124.66343,16.071c.04462,0,.08527-.00079.12988-.00079A110.09228,110.09228,0,0,1,234.75211,125.885Z"/><path class="cls-1" d="M125.73863,193.85777H125.712c-4.99652-.02192-10.82574-2.78272-16.41388-7.77381l-1.06738,1.19574c5.88,5.25244,12.08563,8.15729,17.47656,8.18073h.0282c10.93689,0,23.81134-11.36725,32.8075-28.96985l-1.42737-.72937C148.39024,182.83482,136.07768,193.85777,125.73863,193.85777Z"/><path class="cls-1" d="M135.16209,174.52262a.78262.78262,0,0,0,.385-.10174c.38189-.21442.77-.40534,1.12371-.57752,1.1034-.54,1.97358-.96722,1.90632-1.8374-.05793-.7403-.77-1.13782-1.91254-1.51032-.9892-1.1629-4.44336-5.06152-6.63135-5.42541a3.99864,3.99864,0,0,0-3.27728,1.06348c-1.094.82952-1.54791.82952-2.64191,0a3.98868,3.98868,0,0,0-3.27887-1.06348c-2.19739.36621-5.67578,4.30011-6.64612,5.44263-1.24346.468-1.99316.83264-2.02368,1.57293-.029.734.619,1.03607,1.43988,1.4195a13.43807,13.43807,0,0,1,1.6778.89215.778.778,0,0,0,.86548-.011c.77942-.529,3.06994-1.92352,4.30163-2.02051a5.01533,5.01533,0,0,1,2.2287.64325,5.16607,5.16607,0,0,0,5.51227,0,5.01778,5.01778,0,0,1,2.22711-.64325c1.23175.09546,3.52307,1.49152,4.30249,2.02051A.78038.78038,0,0,0,135.16209,174.52262Z"/><path class="cls-1" d="M125.38572,174.93424c-3.059-1.44928-6.7041-1.23956-8.15881-.10486a1.64825,1.64825,0,0,0-.68244,1.70905c.38739,1.61206,3.31806,2.95959,8.71057,4.00513l.13068.02661.13068-.02661c5.39172-1.04554,8.32318-2.39307,8.7113-4.00513a1.64957,1.64957,0,0,0-.68237-1.70905C132.09135,173.69309,128.44468,173.48338,125.38572,174.93424Z"/><path class="cls-1" d="M188.86515,60.37644,172.582,50.26279l.01611.1695c-12.88135-16.4455-35.75726-23.635-47.68286-22.98682C112.90336,26.77634,89.77647,34.0659,76.969,50.84452l.035-.3681L60.71915,60.59086,43.06492,53.03227,47.74845,71.516l-12.7406,14.3269,19.22638,1.30292,2.78241,4.65576c-6.73334,26.46533-3.79791,72.80066,54.03461,132.8476-35.89246-64.45874,4.35254-86.74365,20.19043-112.28064l10.64624-6.73767c-2.33277,15.09082-14.97571,31.6214-20.06824,38.679,17.66119-14.35772,31.77045-25.11529,42.13275-34.65307l.60217.25177-.16992-.64722c7.15723-6.63092,12.48291-12.68414,15.90808-18.96259l.47278,1.16437c-7.36548,15.24719-25.16974,28.94428-27.63977,33.38849,8.88147,7.44708,11.963,9.486,11.54456,28.15491,13.00634-18.77277,18.96045-35.66626,20.87988-49.76007l.02039.05035,9.78027-16.36621L214.578,85.62846,201.83659,71.30082l4.68286-18.483ZM109.8787,90.86906l-.09619.07837.50665,5.867.3111,3.6026-.53357-.33771-7.5564-4.78253-8.83258,3.69367,2.411-9.18555-2.664-3.04743-3.58386-4.0996,6.74646-.39991,2.78577-.1651,4.97149-8.15881,3.51367,8.87018.07367.017,9.21827,2.1264ZM48.488,80.33061l6.3097-7.09455-2.33277-9.20593,8.80054,3.768,8.13379-5.05133-.45752,4.81488L68.5,72.20933l7.316,6.06158L66.50614,80.3361l-3.59033,8.84039-3.31775-5.55194-1.58258-2.64838ZM138.13889,100.417l.817-9.4696-2.39722-1.952-4.97125-4.04785,9.292-2.14337,3.5152-8.871,4.9707,8.1596,9.533.565-6.24945,7.147,2.41181,9.18555-8.83179-3.69367-4.16,2.63288Zm53.43073-19.656-4.90027,8.201-.57129-1.40673-2.33032-5.73767-.04346-.10682-.64526-1.58917-9.31079-2.06592,7.31518-6.06164-.54675-5.75952-.35156-3.703,8.13537,5.05213,8.79895-3.768-2.33191,9.20514,6.30884,7.09534Z"/></svg>