<?xml version="1.0" encoding="UTF-8"?> <!-- Generator: Adobe Illustrator 24.0.0, SVG Export Plug-In . SVG Version: 6.00 Build 0) --> <svg xmlns="http://www.w3.org/2000/svg" xmlns:xlink="http://www.w3.org/1999/xlink" id="Layer_1" x="0px" y="0px" viewBox="0 0 397 161.8" style="enable-background:new 0 0 397 161.8;" xml:space="preserve"> <style type="text/css"> .st0{clip-path:url(#SVGID_2_);fill:url(#SVGID_3_);} .st1{clip-path:url(#SVGID_2_);} .st2{fill:none;stroke:#0BBBF8;stroke-width:1.0354;stroke-miterlimit:10;} .st3{fill:#0BBBF8;} .st4{clip-path:url(#SVGID_2_);fill:url(#SVGID_4_);} .st5{clip-path:url(#SVGID_6_);fill:url(#SVGID_7_);} .st6{clip-path:url(#SVGID_6_);} .st7{fill:none;stroke:#0BBBF8;stroke-width:0.5194;stroke-miterlimit:10;} .st8{clip-path:url(#SVGID_6_);fill:url(#SVGID_8_);} .st9{clip-path:url(#SVGID_10_);fill:url(#SVGID_11_);} .st10{clip-path:url(#SVGID_10_);} .st11{fill:none;stroke:#0BBBF8;stroke-width:1.0598;stroke-miterlimit:10;} .st12{clip-path:url(#SVGID_10_);fill:url(#SVGID_12_);} .st13{clip-path:url(#SVGID_14_);} .st14{clip-path:url(#SVGID_16_);fill:url(#SVGID_17_);} .st15{clip-path:url(#SVGID_16_);} .st16{fill:none;stroke:#0BBBF8;stroke-width:0.4342;stroke-miterlimit:10;} .st17{clip-path:url(#SVGID_16_);fill:url(#SVGID_18_);} .st18{clip-path:url(#SVGID_20_);} .st19{clip-path:url(#SVGID_22_);fill:url(#SVGID_23_);} .st20{clip-path:url(#SVGID_22_);} .st21{fill:none;stroke:#0BBBF8;stroke-width:1.0714;stroke-miterlimit:10;} .st22{clip-path:url(#SVGID_22_);fill:url(#SVGID_24_);} .st23{fill:#2A7DE1;} .st24{opacity:0.4;clip-path:url(#XMLID_101_);fill:#231F20;} .st25{fill:#00000;} .st26{opacity:0.4;clip-path:url(#XMLID_102_);fill:#231F20;} .st27{opacity:0.4;clip-path:url(#XMLID_103_);fill:#231F20;} .st28{opacity:0.4;clip-path:url(#XMLID_104_);fill:#231F20;} </style> <g> <defs> <rect id="SVGID_1_" x="1035.8" y="-647.4" transform="matrix(-1.836970e-16 1 -1 -1.836970e-16 2198.3945 -1081.6055)" width="1208.5" height="2411.5"></rect> </defs> <clipPath id="SVGID_2_"> <use xlink:href="#SVGID_1_" style="overflow:visible;"></use> </clipPath> <g class="st1"> <path id="XMLID_44_" class="st2" d="M219,1091.3l473.8,273.6c35.9,20.7,80,20.7,115.9,0l473.8-273.6c35.9-20.7,58-59,58-100.4 V443.8c0-41.4-22.1-79.7-58-100.4L808.7,69.9c-35.9-20.7-80-20.7-115.9,0L219,343.5c-35.9,20.7-58,59-58,100.4V991 C161,1032.4,183.1,1070.6,219,1091.3z"></path> </g> </g> <g> <path class="st25" d="M38.3,84.6c-0.6-0.1-1.3-0.2-1.9-0.5C37,84.4,37.7,84.6,38.3,84.6z"></path> <polygon class="st25" points="12.2,57.8 12.3,57.8 12.2,57.8 "></polygon> <path class="st25" d="M73.2,18.5L42.9,1c-1.4-0.8-3.1-1.1-4.7-0.9c-0.6,0.1-1.3,0.2-1.9,0.5c-0.3,0.1-0.6,0.3-0.9,0.4L5.3,18.5 c-2.3,1.3-3.7,3.8-3.7,6.4v34.9c0,2.6,1.4,5.1,3.7,6.4l30.3,17.5c0.3,0.2,0.6,0.3,0.9,0.4c0.6,0.2,1.2,0.4,1.9,0.5 c0.3,0,0.6,0.1,0.9,0.1c1.3,0,2.6-0.3,3.8-1l30.3-17.5c2.3-1.3,3.7-3.8,3.7-6.4V37.3V24.9C76.9,22.2,75.5,19.8,73.2,18.5z M66.3,57.8l-13.5,7.8V38.4L39.6,54.5h-1.1L25.4,38.4v27l-13.1-7.6l0,0v0V26.6l13-7.5l0,0l0,0l0,0l13.9,17l1.4-1.7l12.7-15.4 l13,7.5v0V57.8z"></path> <g id="XMLID_1_"> <path id="XMLID_97_" class="st25" d="M114.5,6.1c4.4,0,8.2,1.5,11.3,4.5c3.1,3,4.6,6.6,4.6,10.9c0,4.3-1.5,7.9-4.6,10.9 c-3.1,3-6.9,4.5-11.3,4.5c-4.4,0-8.2-1.5-11.2-4.5s-4.6-6.6-4.6-10.9c0-4.3,1.5-7.9,4.6-10.9C106.3,7.6,110,6.1,114.5,6.1z M114.5,34.7c3.7,0,6.9-1.3,9.5-3.8c2.6-2.6,3.9-5.7,3.9-9.4c0-3.7-1.3-6.9-3.9-9.4c-2.6-2.6-5.7-3.8-9.5-3.8 c-3.8,0-6.9,1.3-9.5,3.8c-2.6,2.6-3.9,5.7-3.9,9.4c0,3.7,1.3,6.8,3.9,9.4C107.6,33.4,110.8,34.7,114.5,34.7z"></path> <path id="XMLID_94_" class="st25" d="M136,6.5h8.3c3.2,0,5.6,0.7,7.3,2.1s2.5,3.4,2.5,5.8c0,2.5-0.8,4.4-2.5,5.9 c-1.7,1.4-4.2,2.2-7.5,2.2h-5.7v14H136V6.5z M138.4,8.4v12.1h5.6c2.5,0,4.4-0.5,5.7-1.6c1.3-1.1,2-2.6,2-4.5 c0-1.8-0.6-3.3-1.9-4.4c-1.3-1.1-3.1-1.6-5.5-1.6H138.4z"></path> <path id="XMLID_92_" class="st25" d="M174.9,6.5v1.9h-14.1v12h13.7v2h-13.7v12.2h14.4v1.9h-16.7v-30H174.9z"></path> <path id="XMLID_90_" class="st25" d="M207.1,6.5v30h-1.9l-22.8-26.2v26.2H180v-30h2l22.8,26.2V6.5H207.1z"></path> <path id="XMLID_88_" class="st25" d="M134.7,82.8h-9V65.6l-8.1,10h-0.7l-8.1-10v17.3h-8.7V53h8.1l9.2,11.2l9.2-11.2h8.1V82.8z"></path> <path id="XMLID_85_" class="st25" d="M175,82.8h-9.2l-2.4-6h-12.9l-2.5,6h-9.2L151.9,53h9.9L175,82.8z M161.3,71.6l-4.4-10.9 l-4.4,10.9H161.3z"></path> <path id="XMLID_83_" class="st25" d="M187.9,82.8h-9V53h9V82.8z"></path> <path id="XMLID_81_" class="st25" d="M227.8,82.8h-8l-15.4-16.6v16.6h-8.9V53h8l15.4,16.5V53h9V82.8z"></path> <path id="XMLID_79_" class="st25" d="M256.6,70.8h-12.4v12.1h-9V53h21.3v6h-12.4v5.8h12.4V70.8z"></path> <path id="XMLID_76_" class="st25" d="M291.5,82.8h-9.6l-2.3-5.3c-0.9-1.9-1.6-3.3-2.3-4.2c-0.7-0.9-1.4-1.5-2-1.7 c-0.7-0.3-1.5-0.4-2.5-0.4h-1v11.6h-9V53h15.3c2.5,0,4.5,0.5,6.1,1.5c1.6,1,2.7,2.2,3.4,3.7c0.7,1.4,1,2.8,1,4.1 c0,1.5-0.3,2.8-0.9,3.8c-0.6,1-1.2,1.8-1.8,2.3c-0.6,0.5-1.4,0.9-2.2,1.4c1,0.6,1.8,1.2,2.4,2c0.6,0.8,1.5,2.3,2.5,4.7L291.5,82.8 z M279.3,62.4c0-1.4-0.5-2.3-1.4-2.9c-0.9-0.5-2.4-0.8-4.4-0.8h-1.9v7.2h1.9c2.2,0,3.7-0.2,4.5-0.7 C278.9,64.7,279.3,63.8,279.3,62.4z"></path> <path id="XMLID_7_" class="st25" d="M328.3,82.8h-9.2l-2.4-6h-12.9l-2.5,6h-9.2L305.2,53h9.9L328.3,82.8z M314.6,71.6l-4.4-10.9 l-4.4,10.9H314.6z"></path> <path id="XMLID_5_" class="st25" d="M366.9,82.8h-9V65.6l-8.1,10h-0.7l-8.1-10v17.3h-8.7V53h8.1l9.2,11.2l9.2-11.2h8.1V82.8z"></path> <path id="XMLID_3_" class="st25" d="M396.9,82.8h-22.5V53h22.1v6h-13.1v5.5h12.5v6h-12.5v6.4h13.5V82.8z"></path> </g> <g> <path class="st25" d="M44.7,143.4c0,3.8-1,7.1-2.9,9.8c-1.9,2.8-4.6,4.9-8.1,6.3c-3.5,1.5-7.4,2.2-11.9,2.2 c-1.3,0-2.8-0.1-4.6-0.2c-1.8-0.2-4.2-0.6-7.2-1.3c-3-0.7-6.1-1.8-9.4-3.2v-14.8c3.1,1.9,6.1,3.5,9,4.7c3,1.3,6.1,1.9,9.5,1.9 c3.1,0,5.1-0.5,6-1.5c0.9-1,1.4-2,1.4-2.9c0-1.6-0.8-3-2.4-4.1c-1.6-1.1-3.9-2.3-6.8-3.5c-3.3-1.4-6.2-2.9-8.7-4.6 C6,130.5,4,128.5,2.4,126c-1.6-2.5-2.4-5.4-2.4-8.8c0-3.3,0.8-6.2,2.4-8.8c1.6-2.6,4-4.7,7.3-6.3c3.3-1.6,7.3-2.4,12-2.4 c3.4,0,6.5,0.3,9.4,1c2.9,0.7,5.2,1.4,7.1,2.2c1.9,0.8,3.1,1.5,3.8,1.9V119c-2.5-1.8-5.2-3.4-8.3-4.8c-3-1.4-6.3-2.1-9.7-2.1 c-2.3,0-3.9,0.4-4.9,1.3c-1,0.9-1.5,1.9-1.5,3.2c0,1.2,0.5,2.2,1.5,3.1c1,0.9,2.8,1.9,5.5,3.2c4.7,2.2,8.4,4.1,11.2,5.9 c2.8,1.7,5,3.8,6.6,6C43.9,137.2,44.7,140,44.7,143.4z"></path> <path class="st25" d="M120,133.9c0,5.2-1,9.6-2.9,13.2c-1.9,3.7-4.5,6.5-7.7,8.7c-3.2,2.1-6.6,3.6-10.3,4.6 c-3.7,0.9-7.3,1.4-11,1.4c-5.1,0-10.1-0.9-14.9-2.6c-4.8-1.7-8.9-4.7-12.1-8.9c-3.3-4.2-4.9-9.6-4.9-16.4v-33.4h18.2v28.7 c0,4,0.6,7.3,1.7,9.9s2.7,4.5,4.8,5.7c2,1.2,4.5,1.8,7.3,1.8c2.7,0,5-0.6,7.1-1.8c2.1-1.2,3.7-3.1,4.8-5.7 c1.1-2.6,1.7-5.9,1.7-9.9v-28.7H120V133.9z"></path> <path class="st25" d="M204.6,161h-18.2v-35L170,146.3h-1.4L152,126v35h-17.7v-60.4h16.5l18.6,22.7l18.7-22.7h16.5V161z"></path> <path class="st25" d="M290.2,161H272v-35l-16.4,20.3h-1.4L237.6,126v35h-17.7v-60.4h16.5l18.6,22.7l18.7-22.7h16.5V161z"></path> <path class="st25" d="M323.8,161h-18.2v-60.4h18.2V161z"></path> <path class="st25" d="M397,115.3h-22.2V161h-18.2v-45.7h-22.2v-14.7H397V115.3z"></path> </g> </g> </svg> 
