<?xml version="1.0" encoding="UTF-8"?>
<svg xmlns="http://www.w3.org/2000/svg" viewBox="0 0 440 206.6"><g fill="#fff"><path d="m25.5 86.1c-.3-.5-.6-1.1-.7-1.8.2.6.4 1.2.7 1.8z"/><path d="m95.7 41.3-30.1-17.3c-2.3-1.3-5.1-1.3-7.3 0l-30 17.3c-2.3 1.3-3.7 3.7-3.7 6.4v34.7c0 .7.1 1.3.3 1.9s.4 1.2.7 1.8c.6 1.1 1.6 2 2.7 2.7l30 17.3c1.1.6 2.3 1 3.6 1s2.6-.3 3.8-1l30-17.3c1.1-.7 2.1-1.6 2.7-2.7.3-.5.6-1.1.7-1.8.2-.6.3-1.3.3-1.9v-22.4-12.3c-.1-2.6-1.5-5-3.7-6.4zm-6.9 39.1-13.4 7.8v-27l-13 16h-1.1l-13-16v26.8l-13-7.5v-31l12.7-7.5 13.9 17 14-17 12.9 7.4z"/><path d="m136.6 29c4.4 0 8.1 1.5 11.2 4.4 3.1 3 4.6 6.6 4.6 10.8 0 4.3-1.5 7.9-4.6 10.8-3.1 3-6.8 4.4-11.2 4.4s-8.1-1.5-11.2-4.4c-3-3-4.6-6.6-4.6-10.8 0-4.3 1.5-7.9 4.6-10.8s6.8-4.4 11.2-4.4zm.1 28.5c3.7 0 6.8-1.3 9.4-3.8s3.8-5.6 3.8-9.3-1.3-6.8-3.8-9.4c-2.6-2.5-5.7-3.8-9.4-3.8s-6.9 1.3-9.5 3.8-3.9 5.7-3.9 9.4 1.3 6.8 3.9 9.3 5.8 3.8 9.5 3.8z"/><path d="m158 29.4h8.2c3.1 0 5.5.7 7.2 2.1s2.5 3.3 2.5 5.8-.8 4.4-2.5 5.8-4.2 2.2-7.4 2.2h-5.7v13.9h-2.3zm2.3 1.9v12h5.5c2.5 0 4.4-.5 5.7-1.6s1.9-2.5 1.9-4.5c0-1.8-.6-3.3-1.9-4.4s-3.1-1.6-5.4-1.6h-5.8z"/><path d="m196.6 29.4v1.9h-13.9v11.9h13.6v1.9h-13.6v12.1h14.3v1.9h-16.6v-29.7z"/><path d="m228.5 29.4v29.8h-1.9l-22.7-26v26h-2.3v-29.8h2l22.6 26v-26z"/><path d="m156.7 105.2h-8.9v-17.1l-8 9.9h-.7l-8.1-9.9v17.1h-8.7v-29.6h8.1l9.1 11.1 9.1-11.1h8.1z"/><path d="m196.6 105.2h-9.1l-2.4-6h-12.8l-2.5 6h-9.1l13.1-29.6h9.9zm-13.5-11.1-4.3-10.8-4.4 10.8z"/><path d="m209.5 105.2h-8.9v-29.6h8.9z"/><path d="m249.1 105.2h-7.9l-15.3-16.5v16.5h-8.9v-29.6h7.9l15.3 16.4v-16.4h8.9z"/><path d="m277.7 93.2h-12.3v12h-8.9v-29.6h21.2v5.9h-12.3v5.7h12.3z"/><path d="m312.3 105.2h-9.6l-2.3-5.2c-.9-1.9-1.6-3.3-2.3-4.2s-1.3-1.5-2-1.7c-.6-.2-1.5-.4-2.5-.4h-1v11.5h-8.9v-29.6h15.2c2.4 0 4.4.5 6 1.5s2.7 2.2 3.4 3.6 1 2.8 1 4.1c0 1.5-.3 2.8-.9 3.8s-1.2 1.8-1.8 2.2c-.6.5-1.4.9-2.2 1.3 1 .6 1.7 1.2 2.4 2 .6.8 1.5 2.3 2.5 4.6zm-12.1-20.2c0-1.4-.4-2.3-1.3-2.9-.9-.5-2.4-.8-4.4-.8h-1.9v7.1h1.9c2.2 0 3.7-.2 4.5-.7s1.2-1.4 1.2-2.7z"/><path d="m348.8 105.2h-9.1l-2.4-6h-12.8l-2.5 6h-9.1l13.1-29.6h9.9zm-13.6-11.1-4.3-10.8-4.4 10.8z"/><path d="m387.1 105.2h-8.9v-17.1l-8 9.9h-.7l-8.1-9.9v17.1h-8.7v-29.6h8.1l9.1 11.1 9.1-11.1h8.1z"/><path d="m416.9 105.2h-22.3v-29.6h21.9v5.9h-13v5.5h12.4v6h-12.4v6.3h13.4z"/><path d="m67.3 165.4c0 3.8-1 7-2.9 9.7s-4.6 4.8-8 6.3-7.4 2.2-11.8 2.2c-1.2 0-2.8-.1-4.6-.2-1.8-.2-4.2-.6-7.2-1.3s-6.1-1.8-9.3-3.2v-14.7c3 1.9 6 3.4 8.9 4.7 2.9 1.2 6.1 1.9 9.4 1.9 3.1 0 5.1-.5 6-1.5s1.4-2 1.4-2.9c0-1.6-.8-3-2.3-4.1-1.6-1.1-3.8-2.3-6.8-3.4-3.3-1.4-6.2-2.9-8.7-4.5s-4.5-3.7-6.1-6.1c-1.6-2.5-2.4-5.4-2.4-8.7 0-3.2.8-6.2 2.4-8.8s4-4.7 7.3-6.3 7.2-2.3 11.9-2.3c3.3 0 6.4.3 9.3 1 2.8.7 5.2 1.4 7 2.2s3.1 1.4 3.8 1.9v14.1c-2.5-1.8-5.2-3.3-8.2-4.7s-6.2-2.1-9.7-2.1c-2.3 0-3.9.4-4.9 1.3s-1.5 1.9-1.5 3.2c0 1.2.5 2.2 1.5 3.1s2.8 1.9 5.4 3.2c4.6 2.2 8.3 4.1 11.1 5.8s4.9 3.7 6.5 6c1.7 2 2.5 4.8 2.5 8.2z"/><path d="m142.1 155.9c0 5.1-1 9.5-2.9 13.1s-4.5 6.5-7.6 8.6c-3.2 2.1-6.6 3.6-10.2 4.5-3.7.9-7.3 1.4-10.9 1.4-5.1 0-10-.9-14.8-2.6s-8.8-4.7-12.1-8.8c-3.2-4.2-4.8-9.6-4.8-16.2v-33.1h18v28.4c0 4 .6 7.2 1.7 9.8s2.7 4.5 4.8 5.7c2 1.2 4.4 1.8 7.2 1.8 2.7 0 5-.6 7.1-1.8 2-1.2 3.6-3.1 4.8-5.6 1.1-2.6 1.7-5.8 1.7-9.8v-28.5h18.1v33.1z"/><path d="m226.1 182.8h-18.1v-34.8l-16.3 20.1h-1.4l-16.4-20.1v34.8h-17.6v-60h16.4l18.4 22.5 18.5-22.5h16.4v60z"/><path d="m311 182.8h-18.1v-34.8l-16.3 20.1h-1.4l-16.4-20.1v34.8h-17.6v-60h16.4l18.4 22.5 18.5-22.5h16.5z"/><path d="m344.3 182.8h-18.1v-60h18.1z"/><path d="m417 137.4h-22v45.4h-18v-45.4h-22v-14.6h62z"/></g></svg>