<svg xmlns="http://www.w3.org/2000/svg" xmlns:xlink="http://www.w3.org/1999/xlink" viewBox="0 0 394 160.57"><defs><style>.cls-1{fill:none;}.cls-2{isolation:isolate;}.cls-3{fill:#2a7de1;}.cls-4{clip-path:url(#clip-path);}.cls-5{fill:#231f20;opacity:0.4;mix-blend-mode:multiply;}.cls-6{fill:#fff;}.cls-7{fill:#002a3a;}</style><clipPath id="clip-path"><path class="cls-1" d="M72.66,18.33,42.62,1a7.36,7.36,0,0,0-7.35,0l-30,17.35a7.34,7.34,0,0,0-3.67,6.36V59.37a7.35,7.35,0,0,0,3.67,6.37l30,17.34a7.36,7.36,0,0,0,7.35,0l30-17.34a7.35,7.35,0,0,0,3.67-6.37V24.69A7.34,7.34,0,0,0,72.66,18.33Z"/></clipPath></defs><g class="cls-2"><g id="Layer_1" data-name="Layer 1"><path class="cls-3" d="M72.66,18.33,42.62,1a7.36,7.36,0,0,0-7.35,0l-30,17.35a7.34,7.34,0,0,0-3.67,6.36V59.37a7.35,7.35,0,0,0,3.67,6.37l30,17.34a7.36,7.36,0,0,0,7.35,0l30-17.34a7.35,7.35,0,0,0,3.67-6.37V24.69A7.34,7.34,0,0,0,72.66,18.33Z"/><g class="cls-4"><polygon class="cls-5" points="121.88 82.55 121.88 82.52 121.82 82.49 121.82 82.47 121.77 82.43 121.77 82.41 121.71 82.38 121.71 82.35 121.65 82.32 121.65 82.3 121.6 82.27 121.6 82.24 121.54 82.21 121.54 82.19 121.48 82.15 121.48 82.13 121.43 82.1 121.43 82.07 121.37 82.04 121.37 82.02 121.32 81.98 121.32 81.96 121.26 81.93 121.26 81.91 121.2 81.87 121.2 81.85 121.15 81.82 121.15 81.79 121.09 81.76 121.09 81.74 121.03 81.7 121.03 81.68 120.98 81.65 120.98 81.62 120.92 81.59 120.92 81.57 120.87 81.54 120.87 81.51 120.81 81.48 120.81 81.46 120.75 81.42 120.75 81.4 120.7 81.37 120.7 81.34 120.64 81.31 120.64 81.29 120.59 81.25 120.59 81.23 120.53 81.2 120.53 81.17 120.47 81.14 120.47 81.12 120.42 81.09 120.42 81.06 120.36 81.03 120.36 81.01 120.31 80.97 120.31 80.95 120.25 80.92 120.25 80.89 120.19 80.86 120.19 80.84 120.14 80.81 120.14 80.78 120.08 80.75 120.08 80.73 120.03 80.69 120.03 80.67 119.97 80.64 119.97 80.61 119.91 80.58 119.91 80.56 119.86 80.53 119.86 80.5 119.8 80.47 119.8 80.44 119.74 80.41 119.74 80.39 119.69 80.36 119.69 80.33 119.63 80.3 119.63 80.28 119.58 80.25 119.58 80.22 119.52 80.19 119.52 80.17 119.46 80.13 119.46 80.11 119.41 80.08 119.41 80.05 119.35 80.02 119.35 80 119.3 79.96 119.3 79.94 119.24 79.91 119.24 79.88 119.18 79.85 119.18 79.83 119.13 79.8 119.13 79.77 119.07 79.74 119.07 79.72 119.02 79.68 119.02 79.66 118.96 79.63 118.96 79.6 118.9 79.57 118.9 79.55 118.85 79.52 118.85 79.49 118.79 79.46 118.79 79.44 118.73 79.4 118.73 79.38 118.68 79.35 118.68 79.32 118.62 79.29 118.62 79.27 118.57 79.23 118.57 79.21 118.51 79.18 118.51 79.16 118.45 79.12 118.45 79.1 118.4 79.07 118.4 79.04 118.34 79.01 118.34 78.99 118.28 78.95 118.28 78.93 118.23 78.9 118.23 78.87 118.17 78.84 118.17 78.82 118.12 78.78 118.12 78.76 118.06 78.73 118.06 78.7 118 78.67 118 78.65 117.95 78.62 117.95 78.59 117.89 78.56 117.89 78.54 117.84 78.5 117.84 78.48 117.78 78.45 117.78 78.42 117.72 78.39 117.72 78.37 117.67 78.34 117.67 78.31 117.61 78.28 117.61 78.26 117.56 78.22 117.56 78.2 117.5 78.17 117.5 78.14 117.44 78.11 117.44 78.09 117.39 78.06 117.39 78.03 117.33 78 117.33 77.98 117.28 77.94 117.28 77.92 117.22 77.89 117.22 77.86 117.16 77.83 117.16 77.81 117.11 77.78 117.11 77.75 117.05 77.72 117.05 77.69 116.99 77.66 116.99 77.64 116.94 77.61 116.94 77.58 116.88 77.55 116.88 77.53 116.83 77.49 116.83 77.47 116.77 77.44 116.77 77.42 116.71 77.38 116.71 77.36 116.66 77.33 116.66 77.3 116.6 77.27 116.6 77.25 116.55 77.21 116.55 77.19 116.49 77.16 116.49 77.13 116.43 77.1 116.43 77.08 116.38 77.05 116.38 77.02 116.32 76.99 116.32 76.97 116.26 76.93 116.26 76.91 116.21 76.88 116.21 76.85 116.15 76.82 116.15 76.8 116.1 76.77 116.1 76.74 116.04 76.71 116.04 76.69 115.98 76.65 115.98 76.63 115.93 76.6 115.93 76.57 115.87 76.54 115.87 76.52 115.81 76.48 115.81 76.46 115.76 76.43 115.76 76.4 115.7 76.37 115.7 76.35 115.65 76.32 115.65 76.29 115.59 76.26 115.59 76.24 115.53 76.2 115.53 76.18 115.48 76.15 115.48 76.12 115.42 76.09 115.42 76.07 115.37 76.03 115.37 76.01 115.31 75.98 115.31 75.95 115.25 75.92 115.25 75.9 115.2 75.87 115.2 75.84 115.14 75.81 115.14 75.79 115.09 75.75 115.09 75.73 115.03 75.7 115.03 75.67 114.97 75.64 114.97 75.62 114.92 75.59 114.92 75.56 114.86 75.53 114.86 75.51 114.81 75.47 114.81 75.45 114.75 75.42 114.75 75.39 114.69 75.36 114.69 75.34 114.64 75.31 114.64 75.28 114.58 75.25 114.58 75.23 114.52 75.19 114.52 75.17 114.47 75.14 114.47 75.11 114.41 75.08 114.41 75.06 114.36 75.03 114.36 75 114.3 74.97 114.3 74.94 114.24 74.91 114.24 74.89 114.19 74.86 114.19 74.83 114.13 74.8 114.13 74.78 114.08 74.74 114.08 74.72 114.02 74.69 114.02 74.66 113.96 74.63 113.96 74.61 113.91 74.58 113.91 74.55 113.85 74.52 113.85 74.5 113.8 74.46 113.8 74.44 113.74 74.41 113.74 74.38 113.68 74.35 113.68 74.33 113.63 74.3 113.63 74.27 113.57 74.24 113.57 74.22 113.51 74.18 113.51 74.16 113.46 74.13 113.46 74.1 113.4 74.07 113.4 74.05 113.35 74.02 113.35 73.99 113.29 73.96 113.29 73.94 113.23 73.9 113.23 73.88 113.18 73.85 113.18 73.82 113.12 73.79 113.12 73.77 113.06 73.73 113.06 73.71 113.01 73.68 113.01 73.65 112.95 73.62 112.95 73.6 112.9 73.57 112.9 73.54 112.84 73.51 112.84 73.49 112.78 73.45 112.78 73.43 112.73 73.4 112.73 73.37 112.67 73.34 112.67 73.32 112.62 73.28 112.62 73.26 112.56 73.23 112.56 73.2 112.5 73.17 112.5 73.15 112.45 73.12 112.45 73.09 112.39 73.06 112.39 73.04 112.34 73 112.34 72.98 112.28 72.95 112.28 72.92 112.22 72.89 112.22 72.87 112.17 72.84 112.17 72.81 112.11 72.78 112.11 72.76 112.06 72.72 112.06 72.7 112 72.67 112 72.64 111.94 72.61 111.94 72.59 111.89 72.56 111.89 72.53 111.83 72.5 111.83 72.47 111.77 72.44 111.77 72.42 111.72 72.39 111.72 72.36 111.66 72.33 111.66 72.31 111.61 72.28 111.61 72.25 111.55 72.22 111.55 72.19 111.49 72.16 111.49 72.14 111.44 72.11 111.44 72.08 111.38 72.05 111.38 72.03 111.33 71.99 111.33 71.97 111.27 71.94 111.27 71.91 111.21 71.88 111.21 71.86 111.16 71.83 111.16 71.8 111.1 71.77 111.1 71.75 111.05 71.71 111.05 71.69 110.99 71.66 110.99 71.63 110.93 71.6 110.93 71.58 110.88 71.55 110.88 71.52 110.82 71.49 110.82 71.47 110.76 71.43 110.76 71.41 110.71 71.38 110.71 71.35 110.65 71.32 110.65 71.3 110.6 71.26 110.6 71.24 110.54 71.21 110.54 71.19 110.48 71.15 110.48 71.13 110.43 71.1 110.43 71.07 110.37 71.04 110.37 71.02 110.31 70.98 110.31 70.96 110.26 70.93 110.26 70.9 110.2 70.87 110.2 70.85 110.15 70.81 110.15 70.79 110.09 70.76 110.09 70.74 110.03 70.7 110.03 70.68 109.98 70.65 109.98 70.62 109.92 70.59 109.92 70.57 109.87 70.53 109.87 70.51 109.81 70.48 109.81 70.45 109.75 70.42 109.75 70.4 109.7 70.37 109.7 70.34 109.64 70.31 109.64 70.29 109.58 70.25 109.58 70.23 109.53 70.2 109.53 70.17 109.47 70.14 109.47 70.12 109.42 70.09 109.42 70.06 109.36 70.03 109.36 70.01 109.31 69.97 109.31 69.95 109.25 69.92 109.25 69.89 109.19 69.86 109.19 69.84 109.14 69.81 109.14 69.78 109.08 69.75 109.08 69.72 109.02 69.69 109.02 69.67 108.97 69.64 108.97 69.61 108.91 69.58 108.91 69.56 108.86 69.52 108.86 69.5 108.8 69.47 108.8 69.44 108.74 69.41 108.74 69.39 108.69 69.36 108.69 69.33 108.63 69.3 108.63 69.28 108.58 69.24 108.58 69.22 108.52 69.19 108.52 69.16 108.46 69.13 108.46 69.11 108.41 69.08 108.41 69.05 108.35 69.02 108.35 69 108.29 68.96 108.29 68.94 108.24 68.91 108.24 68.88 108.18 68.85 108.18 68.83 108.13 68.8 108.13 68.77 108.07 68.74 108.07 68.72 108.01 68.68 108.01 68.66 107.96 68.63 107.96 68.6 107.9 68.57 107.9 68.55 107.84 68.51 107.84 68.49 107.79 68.46 107.79 68.43 107.73 68.4 107.73 68.38 107.68 68.35 107.68 68.32 107.62 68.29 107.62 68.27 107.56 68.23 107.56 68.21 107.51 68.18 107.51 68.15 107.45 68.12 107.45 68.1 107.4 68.06 107.4 68.04 107.34 68.01 107.34 67.98 107.28 67.95 107.28 67.93 107.23 67.9 107.23 67.87 107.17 67.84 107.17 67.82 107.12 67.78 107.12 67.76 107.06 67.73 107.06 67.7 107 67.67 107 67.65 106.95 67.62 106.95 67.59 106.89 67.56 106.89 67.54 106.83 67.5 106.83 67.48 106.78 67.45 106.78 67.42 106.72 67.39 106.72 67.37 106.67 67.33 106.67 67.31 106.61 67.28 106.61 67.26 106.55 67.22 106.55 67.2 106.5 67.17 106.5 67.14 106.44 67.11 106.44 67.09 106.39 67.06 106.39 67.03 106.33 67 106.33 66.97 106.27 66.94 106.27 66.92 106.22 66.89 106.22 66.86 106.16 66.83 106.16 66.81 106.11 66.77 106.11 66.75 106.05 66.72 106.05 66.69 105.99 66.66 105.99 66.64 105.94 66.61 105.94 66.58 105.88 66.55 105.88 66.53 105.83 66.49 105.83 66.47 105.77 66.44 105.77 66.41 105.71 66.38 105.71 66.36 105.66 66.33 105.66 66.3 105.6 66.27 105.6 66.25 105.54 66.21 105.54 66.19 105.49 66.16 105.49 66.13 105.43 66.1 105.43 66.08 105.38 66.05 105.38 66.02 105.32 65.99 105.32 65.97 105.26 65.93 105.26 65.91 105.21 65.88 105.21 65.85 105.15 65.82 105.15 65.8 105.09 65.76 105.09 65.74 105.04 65.71 105.04 65.68 104.98 65.65 104.98 65.63 104.93 65.6 104.93 65.57 104.87 65.54 104.87 65.52 104.81 65.48 104.81 65.46 104.76 65.43 104.76 65.4 104.7 65.37 104.7 65.35 104.65 65.31 104.65 65.29 104.59 65.26 104.59 65.23 104.53 65.2 104.53 65.18 104.48 65.15 104.48 65.12 104.42 65.09 104.42 65.07 104.37 65.03 104.37 65.01 104.31 64.98 104.31 64.95 104.25 64.92 104.25 64.9 104.2 64.87 104.2 64.84 104.14 64.81 104.14 64.79 104.08 64.75 104.08 64.73 104.03 64.7 104.03 64.67 103.97 64.64 103.97 64.62 103.92 64.58 103.92 64.56 103.86 64.53 103.86 64.5 103.8 64.47 103.8 64.45 103.75 64.42 103.75 64.39 103.69 64.36 103.69 64.34 103.64 64.31 103.64 64.28 103.58 64.25 103.58 64.22 103.52 64.19 103.52 64.17 103.47 64.14 103.47 64.11 103.41 64.08 103.41 64.06 103.36 64.02 103.36 64 103.3 63.97 103.3 63.94 103.24 63.91 103.24 63.89 103.19 63.86 103.19 63.83 103.13 63.8 103.13 63.78 103.08 63.74 103.08 63.72 103.02 63.69 103.02 63.66 102.96 63.63 102.96 63.61 102.91 63.58 102.91 63.55 102.85 63.52 102.85 63.49 102.79 63.46 102.79 63.44 102.74 63.41 102.74 63.38 102.68 63.35 102.68 63.33 102.63 63.29 102.63 63.27 102.57 63.24 102.57 63.22 102.51 63.18 102.51 63.16 102.46 63.13 102.46 63.1 102.4 63.07 102.4 63.05 102.34 63.01 102.34 62.99 102.29 62.96 102.29 62.93 102.23 62.9 102.23 62.88 102.18 62.84 102.18 62.82 102.12 62.79 102.12 62.77 102.06 62.73 102.06 62.71 102.01 62.68 102.01 62.65 101.95 62.62 101.95 62.6 101.9 62.56 101.9 62.54 101.84 62.51 101.84 62.48 101.78 62.45 101.78 62.43 101.73 62.4 101.73 62.37 101.67 62.34 101.67 62.32 101.61 62.28 101.61 62.26 101.56 62.23 101.56 62.2 101.5 62.17 101.5 62.15 101.45 62.12 101.45 62.09 101.39 62.06 101.39 62.04 101.33 62 101.33 61.98 101.28 61.95 101.28 61.92 101.22 61.89 101.22 61.87 101.17 61.84 101.17 61.81 101.11 61.78 101.11 61.76 101.05 61.72 101.05 61.7 101 61.67 101 61.64 100.94 61.61 100.94 61.59 100.89 61.55 100.89 61.53 100.83 61.5 100.83 61.48 100.77 61.44 100.77 61.42 100.72 61.39 100.72 61.36 100.66 61.33 100.66 61.31 100.61 61.27 100.61 61.25 100.55 61.22 100.55 61.19 100.49 61.16 100.49 61.14 100.44 61.1 100.44 61.08 100.38 61.05 100.38 61.03 100.32 60.99 100.32 60.97 100.27 60.94 100.27 60.91 100.21 60.88 100.21 60.86 100.16 60.83 100.16 60.8 100.1 60.77 100.1 60.74 100.04 60.71 100.04 60.69 99.99 60.66 99.99 60.63 99.93 60.6 99.93 60.58 99.88 60.54 99.88 60.52 99.82 60.49 99.82 60.46 99.76 60.43 99.76 60.41 99.71 60.38 99.71 60.35 99.65 60.32 99.65 60.3 99.59 60.26 99.59 60.24 99.54 60.21 99.54 60.18 99.48 60.15 99.48 60.13 99.43 60.09 99.43 60.07 99.37 60.04 99.37 60.02 99.31 59.98 99.31 59.96 99.26 59.93 99.26 59.9 99.2 59.87 99.2 59.85 99.15 59.81 99.15 59.79 99.09 59.76 99.09 59.73 99.03 59.7 99.03 59.68 98.98 59.65 98.98 59.62 98.92 59.59 98.92 59.57 98.86 59.53 98.86 59.51 98.81 59.48 98.81 59.45 98.75 59.42 98.75 59.4 98.7 59.37 98.7 59.34 98.64 59.31 98.64 59.29 98.58 59.25 98.58 59.23 98.53 59.2 98.53 59.17 98.47 59.14 98.47 59.12 98.42 59.09 98.42 59.06 98.36 59.03 98.36 59.01 98.3 58.97 98.3 58.95 98.25 58.92 98.25 58.89 98.19 58.86 98.19 58.84 98.14 58.8 98.14 58.78 98.08 58.75 98.08 58.72 98.02 58.69 98.02 58.67 97.97 58.64 97.97 58.61 97.91 58.58 97.91 58.56 97.86 58.52 97.86 58.5 97.8 58.47 97.8 58.44 97.74 58.41 97.74 58.39 97.69 58.35 97.69 58.33 97.63 58.3 97.63 58.27 97.57 58.24 97.57 58.22 97.52 58.19 97.52 58.16 97.46 58.13 97.46 58.11 97.41 58.08 97.41 58.05 97.35 58.02 97.35 57.99 97.29 57.96 97.29 57.94 97.24 57.91 97.24 57.88 97.18 57.85 97.18 57.83 97.13 57.79 97.13 57.77 97.07 57.74 97.07 57.71 97.01 57.68 97.01 57.66 96.96 57.63 96.96 57.6 96.9 57.57 96.9 57.55 96.84 57.51 96.84 57.49 96.79 57.46 96.79 57.43 96.73 57.4 96.73 57.38 96.68 57.34 96.68 57.32 96.62 57.29 96.62 57.27 96.56 57.23 96.56 57.21 96.51 57.18 96.51 57.15 96.45 57.12 96.45 57.1 96.4 57.06 96.4 57.04 96.34 57.01 96.34 56.98 96.28 56.95 96.28 56.93 96.23 56.9 96.23 56.87 96.17 56.84 96.17 56.82 96.11 56.78 96.11 56.76 96.06 56.73 96.06 56.7 96 56.67 96 56.65 95.95 56.62 95.95 56.59 95.89 56.56 95.89 56.53 95.83 56.5 95.83 56.48 95.78 56.45 95.78 56.42 95.72 56.39 95.72 56.37 95.67 56.34 95.67 56.31 95.61 56.28 95.61 56.26 95.55 56.22 95.55 56.2 95.5 56.17 95.5 56.14 95.44 56.11 95.44 56.09 95.39 56.05 95.39 56.03 95.33 56 95.33 55.97 95.27 55.94 95.27 55.92 95.22 55.89 95.22 55.86 95.16 55.83 95.16 55.81 95.11 55.77 95.11 55.75 95.05 55.72 95.05 55.69 94.99 55.66 94.99 55.64 94.94 55.6 94.94 55.58 94.88 55.55 94.88 55.52 94.82 55.49 94.82 55.47 94.77 55.44 94.77 55.41 94.71 55.38 94.71 55.36 94.66 55.32 94.66 55.3 94.6 55.27 94.6 55.24 94.54 55.21 94.54 55.19 94.49 55.16 94.49 55.13 94.43 55.1 94.43 55.08 94.38 55.04 94.38 55.02 94.32 54.99 94.32 54.96 94.26 54.93 94.26 54.91 94.21 54.88 94.21 54.85 94.15 54.82 94.15 54.8 94.09 54.76 94.09 54.74 94.04 54.71 94.04 54.68 93.98 54.65 93.98 54.63 93.93 54.59 93.93 54.57 93.87 54.54 93.87 54.52 93.81 54.48 93.81 54.46 93.76 54.43 93.76 54.4 93.7 54.37 93.7 54.35 93.64 54.31 93.64 54.29 93.59 54.26 93.59 54.23 93.53 54.2 93.53 54.18 93.48 54.15 93.48 54.12 93.42 54.09 93.42 54.07 93.36 54.03 93.36 54.01 93.31 53.98 93.31 53.95 93.25 53.92 93.25 53.9 93.2 53.87 93.2 53.84 93.14 53.81 93.14 53.78 93.08 53.75 93.08 53.73 93.03 53.7 93.03 53.67 92.97 53.64 92.97 53.62 92.92 53.58 92.92 53.56 92.86 53.53 92.86 53.51 92.8 53.47 92.8 53.45 92.75 53.42 92.75 53.39 92.69 53.36 92.69 53.34 92.64 53.3 92.64 53.28 92.58 53.25 92.58 53.22 92.52 53.19 92.52 53.17 92.47 53.13 92.47 53.11 92.41 53.08 92.41 53.06 92.35 53.02 92.35 53 92.3 52.97 92.3 52.94 92.24 52.91 92.24 52.89 92.19 52.85 92.19 52.83 92.13 52.8 92.13 52.77 92.07 52.74 92.07 52.72 92.02 52.69 92.02 52.66 91.96 52.63 91.96 52.61 91.91 52.57 91.91 52.55 91.85 52.52 91.85 52.49 91.79 52.46 91.79 52.44 91.74 52.41 91.74 52.38 91.68 52.35 91.68 52.33 91.63 52.29 91.63 52.27 91.57 52.24 91.57 52.21 91.51 52.18 91.51 52.16 91.46 52.13 91.46 52.1 91.4 52.07 91.4 52.05 91.34 52.01 91.34 51.99 91.29 51.96 91.29 51.93 91.23 51.9 91.23 51.88 91.18 51.84 91.18 51.82 91.12 51.79 91.12 51.77 91.06 51.73 91.06 51.71 91.01 51.68 91.01 51.65 90.95 51.62 90.95 51.6 90.89 51.56 90.89 51.54 90.84 51.51 90.84 51.48 90.78 51.45 90.78 51.43 90.73 51.4 90.73 51.37 90.67 51.34 90.67 51.32 90.61 51.28 90.61 51.26 90.56 51.23 90.56 51.2 90.5 51.17 90.5 51.15 90.45 51.12 90.45 51.09 90.39 51.06 90.39 51.03 90.33 51 90.33 50.98 90.28 50.95 90.28 50.92 90.22 50.89 90.22 50.87 90.17 50.83 90.17 50.81 90.11 50.78 90.11 50.75 90.05 50.72 90.05 50.7 90 50.67 90 50.64 89.94 50.61 89.94 50.59 89.89 50.55 89.89 50.53 89.83 50.5 89.83 50.47 89.77 50.44 89.77 50.42 89.72 50.38 89.72 50.36 89.66 50.33 89.66 50.3 89.6 50.27 89.6 50.25 89.55 50.22 89.55 50.19 89.49 50.16 89.49 50.14 89.44 50.1 89.44 50.08 89.38 50.05 89.38 50.02 89.32 49.99 89.32 49.97 89.27 49.94 89.27 49.91 89.21 49.88 89.21 49.86 89.16 49.82 89.16 49.8 89.1 49.77 89.1 49.74 89.04 49.71 89.04 49.69 88.99 49.66 88.99 49.63 88.93 49.6 88.93 49.58 88.88 49.54 88.88 49.52 88.82 49.49 88.82 49.46 88.76 49.43 88.76 49.41 88.71 49.38 88.71 49.35 88.65 49.32 88.65 49.3 88.59 49.26 88.59 49.24 88.54 49.21 88.54 49.18 88.48 49.15 88.48 49.13 88.43 49.09 88.43 49.07 88.37 49.04 88.37 49.01 88.31 48.98 88.31 48.96 88.26 48.93 88.26 48.9 88.2 48.87 88.2 48.85 88.14 48.81 88.14 48.79 88.09 48.76 88.09 48.73 88.03 48.7 88.03 48.68 87.98 48.65 87.98 48.62 87.92 48.59 87.92 48.56 87.86 48.53 87.86 48.51 87.81 48.48 87.81 48.45 87.75 48.42 87.75 48.4 87.7 48.37 87.7 48.34 87.64 48.31 87.64 48.28 87.58 48.25 87.58 48.23 87.53 48.2 87.53 48.17 87.47 48.14 87.47 48.12 87.42 48.08 87.42 48.06 87.36 48.03 87.36 48 87.3 47.97 87.3 47.95 87.25 47.92 87.25 47.89 87.19 47.86 87.19 47.84 87.14 47.8 87.14 47.78 87.08 47.75 87.08 47.72 87.02 47.69 87.02 47.67 86.97 47.63 86.97 47.61 86.91 47.58 86.91 47.55 86.85 47.52 86.85 47.5 86.8 47.47 86.8 47.44 86.74 47.41 86.74 47.39 86.69 47.35 86.69 47.33 86.63 47.3 86.63 47.27 86.57 47.24 86.57 47.22 86.52 47.19 86.52 47.16 86.46 47.13 86.46 47.11 86.41 47.07 86.41 47.05 86.35 47.02 86.35 46.99 86.29 46.96 86.29 46.94 86.24 46.91 86.24 46.88 86.18 46.85 86.18 46.83 86.12 46.79 86.12 46.77 86.07 46.74 86.07 46.71 86.01 46.68 86.01 46.66 85.96 46.63 85.96 46.6 85.9 46.57 85.9 46.55 85.84 46.51 85.84 46.49 85.79 46.46 85.79 46.43 85.73 46.4 85.73 46.38 85.67 46.34 85.67 46.32 85.62 46.29 85.62 46.26 85.56 46.23 85.56 46.21 85.51 46.18 85.51 46.15 85.45 46.12 85.45 46.1 85.39 46.06 85.39 46.04 85.34 46.01 85.34 45.98 85.28 45.95 85.28 45.93 85.23 45.9 85.23 45.87 85.17 45.84 85.17 45.81 85.11 45.78 85.11 45.76 85.06 45.73 85.06 45.7 85 45.67 85 45.65 84.95 45.61 84.95 45.59 84.89 45.56 84.89 45.53 84.83 45.5 84.83 45.48 84.78 45.45 84.78 45.42 84.72 45.39 84.72 45.37 84.67 45.33 84.67 45.31 84.61 45.28 84.61 45.25 84.55 45.22 84.55 45.2 84.5 45.16 84.5 45.14 84.44 45.11 84.44 45.09 84.38 45.05 84.38 45.03 84.33 45 84.33 44.97 84.27 44.94 84.27 44.92 84.22 44.88 84.22 44.86 84.16 44.83 84.16 44.8 84.1 44.77 84.1 44.75 84.05 44.72 84.05 44.69 83.99 44.66 83.99 44.64 83.94 44.6 83.94 44.58 83.88 44.55 83.88 44.52 83.82 44.49 83.82 44.47 83.77 44.44 83.77 44.41 83.71 44.38 83.71 44.36 83.66 44.32 83.66 44.3 83.6 44.27 83.6 44.24 83.54 44.21 83.54 44.19 83.49 44.16 83.49 44.13 83.43 44.1 83.43 44.08 83.37 44.04 83.37 44.02 83.32 43.99 83.32 43.96 83.26 43.93 83.26 43.91 83.21 43.88 83.21 43.85 83.15 43.82 83.15 43.8 83.09 43.76 83.09 43.74 83.04 43.71 83.04 43.68 82.98 43.65 82.98 43.63 82.92 43.59 82.92 43.57 82.87 43.54 82.87 43.51 82.81 43.48 82.81 43.46 82.76 43.43 82.76 43.4 82.7 43.37 82.7 43.35 82.64 43.31 82.64 43.29 82.59 43.26 82.59 43.23 82.53 43.2 82.53 43.18 82.48 43.15 82.48 43.12 82.42 43.09 82.42 43.06 82.36 43.03 82.36 43.01 82.31 42.98 82.31 42.95 82.25 42.92 82.25 42.9 82.19 42.86 82.19 42.84 82.14 42.81 82.14 42.78 82.08 42.75 82.08 42.73 82.03 42.7 82.03 42.67 81.97 42.64 81.97 42.62 81.92 42.58 81.92 42.56 81.86 42.53 81.86 42.5 81.8 42.47 81.8 42.45 81.75 42.41 81.75 42.39 81.69 42.36 81.69 42.34 81.63 42.3 81.63 42.28 81.58 42.25 81.58 42.22 81.52 42.19 81.52 42.17 81.47 42.13 81.47 42.11 81.41 42.08 81.41 42.05 81.35 42.02 81.35 42 81.3 41.97 81.3 41.94 81.24 41.91 81.24 41.89 81.19 41.85 81.19 41.83 81.13 41.8 81.13 41.77 81.07 41.74 81.07 41.72 81.02 41.69 81.02 41.66 80.96 41.63 80.96 41.61 80.91 41.57 80.91 41.55 80.85 41.52 80.85 41.49 80.79 41.46 80.79 41.44 80.74 41.41 80.74 41.38 80.68 41.35 80.68 41.33 80.62 41.29 80.62 41.27 80.57 41.24 80.57 41.21 80.51 41.18 80.51 41.16 80.46 41.12 80.46 41.1 80.4 41.07 80.4 41.04 80.34 41.01 80.34 40.99 80.29 40.96 80.29 40.93 80.23 40.9 80.23 40.88 80.17 40.84 80.17 40.82 80.12 40.79 80.12 40.76 80.06 40.73 80.06 40.71 80.01 40.67 80.01 40.65 79.95 40.62 79.95 40.59 79.89 40.56 79.89 40.54 79.84 40.51 79.84 40.48 79.78 40.45 79.78 40.43 79.73 40.4 79.73 40.37 79.67 40.34 79.67 40.31 79.61 40.28 79.61 40.26 79.56 40.23 79.56 40.2 79.5 40.17 79.5 40.15 79.44 40.11 79.44 40.09 79.39 40.06 79.39 40.03 79.33 40 79.33 39.98 79.28 39.95 79.28 39.92 79.22 39.89 79.22 39.87 79.17 39.83 79.17 39.81 79.11 39.78 79.11 39.75 79.05 39.72 79.05 39.7 79 39.66 79 39.64 78.94 39.61 78.94 39.59 78.88 39.55 78.88 39.53 78.83 39.5 78.83 39.47 78.77 39.44 78.77 39.42 78.72 39.38 78.72 39.36 78.66 39.33 78.66 39.3 78.6 39.27 78.6 39.25 78.55 39.22 78.55 39.19 78.49 39.16 78.49 39.14 78.44 39.1 78.44 39.08 78.38 39.05 78.38 39.02 78.32 38.99 78.32 38.97 78.27 38.94 78.27 38.91 78.21 38.88 78.21 38.86 78.15 38.82 78.15 38.8 78.1 38.77 78.1 38.74 78.04 38.71 78.04 38.69 77.99 38.66 77.99 38.63 77.93 38.6 77.93 38.58 77.87 38.54 77.87 38.52 77.82 38.49 77.82 38.46 77.76 38.43 77.76 38.41 77.7 38.37 77.7 38.35 77.65 38.32 77.65 38.29 77.59 38.26 77.59 38.24 77.54 38.21 77.54 38.18 77.48 38.15 77.48 38.13 77.42 38.09 77.42 38.07 77.37 38.04 77.37 38.01 77.31 37.98 77.31 37.96 77.26 37.92 77.26 37.9 77.2 37.87 77.2 37.84 77.14 37.81 77.14 37.79 77.09 37.76 77.09 37.73 77.03 37.7 77.03 37.68 76.98 37.64 76.98 37.62 76.92 37.59 76.92 37.56 76.86 37.53 76.86 37.51 76.81 37.48 76.81 37.45 76.75 37.42 76.75 37.4 76.69 37.36 76.69 37.34 76.64 37.31 76.64 37.28 76.58 37.25 76.58 37.23 76.53 37.2 76.53 37.17 76.47 37.14 76.47 37.12 76.41 37.08 76.41 37.06 76.36 37.03 76.36 37 76.3 36.97 76.3 36.95 76.25 36.91 76.25 36.89 76.19 36.86 76.19 36.84 76.13 36.8 76.13 36.78 76.08 36.75 76.08 36.72 76.02 36.69 76.02 36.67 75.97 36.63 75.97 36.61 75.91 36.58 75.91 36.55 75.85 36.52 75.85 36.5 75.8 36.47 75.8 36.44 75.74 36.41 75.74 36.39 75.69 36.35 75.69 36.33 75.63 36.3 75.63 36.27 75.57 36.24 75.57 36.22 75.52 36.19 75.52 36.16 75.46 36.13 75.46 36.1 75.4 36.07 75.4 36.05 75.35 36.02 75.35 35.99 75.29 35.96 75.29 35.94 75.24 35.91 75.24 35.88 75.18 35.85 75.18 35.83 75.12 35.79 75.12 35.77 75.07 35.74 75.07 35.71 75.01 35.68 75.01 35.66 74.95 35.62 74.95 35.6 74.9 35.57 74.9 35.54 74.84 35.51 74.84 35.49 74.79 35.46 74.79 35.43 74.73 35.4 74.73 35.38 74.67 35.34 74.67 35.32 74.62 35.29 74.62 35.26 74.56 35.23 74.56 35.21 74.51 35.17 74.51 35.15 74.45 35.12 74.45 35.09 74.39 35.06 74.39 35.04 74.34 35.01 74.34 34.98 74.28 34.95 74.28 34.93 74.22 34.89 74.22 34.87 74.17 34.84 74.17 34.81 74.11 34.78 74.11 34.76 74.06 34.73 74.06 34.7 74 34.67 74 34.65 73.94 34.61 73.94 34.59 73.89 34.56 73.89 34.53 73.83 34.5 73.83 34.48 73.78 34.45 73.78 34.42 73.72 34.39 73.72 34.37 73.66 34.33 73.66 34.31 73.61 34.28 73.61 34.25 73.55 34.22 73.55 34.2 73.5 34.16 73.5 34.14 73.44 34.11 73.44 34.09 73.38 34.05 73.38 34.03 73.33 34 73.33 33.97 73.27 33.94 73.27 33.92 73.22 33.88 73.22 33.86 73.16 33.83 73.16 33.8 73.1 33.77 73.1 33.75 73.05 33.72 73.05 33.69 72.99 33.66 72.99 33.64 72.94 33.6 72.94 33.58 72.88 33.55 72.88 33.52 72.82 33.49 72.82 33.47 72.77 33.44 72.77 33.41 72.71 33.38 72.71 33.35 72.65 33.32 72.65 33.3 72.6 33.27 72.6 33.24 72.54 33.21 72.54 33.19 72.49 33.15 72.49 33.13 72.43 33.1 72.43 33.07 72.37 33.04 72.37 33.02 72.32 32.99 72.32 32.96 72.26 32.93 72.26 32.91 72.2 32.87 72.2 32.85 72.15 32.82 72.15 32.79 72.09 32.76 72.09 32.74 72.04 32.7 72.04 32.68 71.98 32.65 71.98 32.63 71.92 32.59 71.92 32.57 71.87 32.54 71.87 32.51 71.81 32.48 71.81 32.46 71.76 32.42 71.76 32.4 71.7 32.37 71.7 32.34 71.64 32.31 71.64 32.29 71.59 32.26 71.59 32.23 71.53 32.2 71.53 32.18 71.47 32.14 71.47 32.12 71.42 32.09 71.42 32.06 71.36 32.03 71.36 32.01 71.31 31.98 71.31 31.95 71.25 31.92 71.25 31.9 71.19 31.86 71.19 31.84 71.14 31.81 71.14 31.78 71.08 31.75 71.08 31.73 71.03 31.7 71.03 31.67 70.97 31.64 70.97 31.61 70.91 31.58 70.91 31.56 70.86 31.53 70.86 31.5 70.8 31.47 70.8 31.45 70.75 31.41 70.75 31.39 70.69 31.36 70.69 31.34 70.63 31.3 70.63 31.28 70.58 31.25 70.58 31.22 70.52 31.19 70.52 31.17 70.47 31.13 70.47 31.11 70.41 31.08 70.41 31.05 70.35 31.02 70.35 31 70.3 30.96 70.3 30.94 70.24 30.91 70.24 30.89 70.18 30.85 70.18 30.83 70.13 30.8 70.13 30.77 70.07 30.74 70.07 30.72 70.02 30.68 70.02 30.66 69.96 30.63 69.96 30.61 69.9 30.57 69.9 30.55 69.85 30.52 69.85 30.49 69.79 30.46 69.79 30.44 69.73 30.4 69.73 30.38 69.68 30.35 69.68 30.32 69.62 30.29 69.62 30.27 69.57 30.24 69.57 30.21 69.51 30.18 69.51 30.16 69.45 30.12 69.45 30.1 69.4 30.07 69.4 30.04 69.34 30.01 69.34 29.99 69.29 29.95 69.29 29.93 69.23 29.9 69.23 29.88 69.17 29.84 69.17 29.82 69.12 29.79 69.12 29.76 69.06 29.73 69.06 29.71 69.01 29.67 69.01 29.65 68.95 29.62 68.95 29.59 68.89 29.56 68.89 29.54 68.84 29.51 68.84 29.48 68.78 29.45 68.78 29.43 68.72 29.39 68.72 29.37 68.67 29.34 68.67 29.31 68.61 29.28 68.61 29.26 68.56 29.23 68.56 29.2 68.5 29.17 68.5 29.15 68.44 29.11 68.44 29.09 68.39 29.06 68.39 29.03 68.33 29 68.33 28.98 68.28 28.95 68.28 28.92 68.22 28.89 68.22 28.86 68.16 28.83 68.16 28.81 68.11 28.78 68.11 28.75 68.05 28.72 68.05 28.7 68 28.66 68 28.64 67.94 28.61 67.94 28.58 67.88 28.55 67.88 28.53 67.83 28.5 67.83 28.47 67.77 28.44 67.77 28.42 67.72 28.38 67.72 28.36 67.66 28.33 67.66 28.3 67.6 28.27 67.6 28.25 67.55 28.21 67.55 28.19 67.49 28.16 67.49 28.14 67.43 28.1 67.43 28.08 67.38 28.05 67.38 28.02 67.32 27.99 67.32 27.97 67.27 27.93 67.27 27.91 67.21 27.88 67.21 27.86 67.15 27.82 67.15 27.8 67.1 27.77 67.1 27.74 67.04 27.71 67.04 27.69 66.98 27.65 66.98 27.63 66.93 27.6 66.93 27.57 66.87 27.54 66.87 27.52 66.82 27.49 66.82 27.46 66.76 27.43 66.76 27.41 66.7 27.37 66.7 27.35 66.65 27.32 66.65 27.29 66.59 27.26 66.59 27.24 66.54 27.2 66.54 27.18 66.48 27.15 66.48 27.13 66.42 27.09 66.42 27.07 66.37 27.04 66.37 27.01 66.31 26.98 66.31 26.96 66.25 26.92 66.25 26.9 66.2 26.87 66.2 26.84 66.14 26.81 66.14 26.79 66.09 26.76 66.09 26.73 66.03 26.7 66.03 26.68 65.97 26.64 65.97 26.62 65.92 26.59 65.92 26.56 65.86 26.53 65.86 26.51 65.81 26.48 65.81 26.45 65.75 26.42 65.75 26.39 52.87 18.96 40.3 34.23 40.29 34.23 40.28 34.23 40.23 34.17 40.23 34.17 40.18 34.11 40.17 34.12 40.12 34.06 40.11 34.06 40.06 34 40.06 34.01 40.01 33.95 40 33.95 39.95 33.89 39.95 33.89 39.9 33.83 39.89 33.84 39.84 33.78 39.83 33.78 39.78 33.72 39.78 33.72 39.73 33.66 39.72 33.67 39.67 33.61 39.66 33.61 39.62 33.55 39.61 33.56 39.56 33.5 39.55 33.5 39.5 33.44 39.5 33.44 39.45 33.38 39.44 33.39 39.39 33.33 39.38 33.33 39.34 33.27 39.33 33.27 39.28 33.22 39.27 33.22 39.22 33.16 39.22 33.16 39.17 33.1 39.16 33.11 39.11 33.05 39.1 33.05 39.05 32.99 39.05 32.99 39 32.93 38.99 32.94 38.94 32.88 38.94 32.88 38.89 32.82 38.88 32.83 38.83 32.77 38.82 32.77 38.77 32.71 38.77 32.71 38.72 32.65 38.71 32.66 38.66 32.6 38.66 32.6 38.6 32.54 38.6 32.55 38.55 32.48 38.54 32.49 38.49 32.43 38.49 32.43 38.44 32.37 38.43 32.38 38.38 32.32 38.37 32.32 38.33 32.26 38.32 32.27 38.27 32.2 38.26 32.21 38.21 32.15 38.21 32.15 38.16 32.09 38.15 32.1 38.1 32.04 38.09 32.04 38.04 31.98 38.04 31.98 37.99 31.92 37.98 31.93 37.93 31.87 37.92 31.87 37.88 31.81 37.87 31.82 37.82 31.76 37.81 31.76 37.76 31.7 37.76 31.7 37.71 31.64 37.7 31.65 37.65 31.59 37.64 31.59 37.59 31.53 37.59 31.54 37.54 31.48 37.53 31.48 37.48 31.42 37.48 31.42 37.43 31.36 37.42 31.37 37.37 31.31 37.36 31.31 37.31 31.25 37.31 31.25 37.26 31.19 37.25 31.2 37.2 31.14 37.2 31.14 37.15 31.08 37.14 31.09 37.09 31.03 37.08 31.03 37.03 30.97 37.03 30.97 36.98 30.91 36.97 30.92 36.92 30.86 36.91 30.86 36.87 30.8 36.86 30.81 36.81 30.75 36.8 30.75 36.75 30.69 36.75 30.69 36.7 30.63 36.69 30.64 36.64 30.58 36.63 30.58 36.59 30.52 36.58 30.52 36.53 30.46 36.52 30.47 36.47 30.41 36.47 30.41 36.42 30.35 36.41 30.36 36.36 30.3 36.35 30.3 36.3 30.24 36.3 30.24 36.25 30.18 36.24 30.19 36.19 30.13 36.19 30.13 36.14 30.07 36.13 30.08 36.08 30.02 36.07 30.02 36.02 29.96 36.02 29.96 35.97 29.9 35.96 29.91 35.91 29.85 35.9 29.85 35.85 29.79 35.85 29.8 35.8 29.73 35.79 29.74 35.74 29.68 35.74 29.68 35.69 29.62 35.68 29.63 35.63 29.57 35.62 29.57 35.57 29.51 35.57 29.52 35.52 29.45 35.51 29.46 35.46 29.4 35.45 29.4 35.41 29.34 35.4 29.35 35.35 29.29 35.34 29.29 35.29 29.23 35.29 29.23 35.24 29.17 35.23 29.18 35.18 29.12 35.17 29.12 35.13 29.06 35.12 29.07 35.07 29.01 35.06 29.01 35.01 28.95 35.01 28.95 34.96 28.89 34.95 28.9 34.9 28.84 34.89 28.84 34.84 28.78 34.84 28.79 34.79 28.73 34.78 28.73 34.73 28.67 34.73 28.67 34.68 28.61 34.67 28.62 34.62 28.56 34.61 28.56 34.56 28.5 34.56 28.5 34.51 28.44 34.5 28.45 34.45 28.39 34.45 28.39 34.4 28.33 34.39 28.34 34.34 28.28 34.33 28.28 34.28 28.22 34.28 28.22 34.23 28.16 34.22 28.17 34.17 28.11 34.16 28.11 34.12 28.05 34.11 28.05 34.06 28 34.05 28 34 27.94 34 27.94 33.95 27.88 33.94 27.89 33.89 27.83 33.88 27.83 33.84 27.77 33.83 27.77 33.78 27.71 33.77 27.72 33.72 27.66 33.72 27.66 33.67 27.6 33.66 27.61 33.61 27.55 33.6 27.55 33.55 27.49 33.55 27.49 33.5 27.43 33.49 27.44 33.44 27.38 33.44 27.38 33.39 27.32 33.38 27.33 33.33 27.27 33.32 27.27 33.27 27.21 33.27 27.21 33.22 27.15 33.21 27.16 33.16 27.1 33.15 27.1 33.1 27.04 33.1 27.05 33.05 26.98 33.04 26.99 32.99 26.93 32.99 26.93 32.94 26.87 32.93 26.88 32.88 26.82 32.87 26.82 32.82 26.76 32.82 26.76 32.77 26.7 32.76 26.71 32.71 26.65 32.7 26.65 32.66 26.59 32.65 26.6 32.6 26.54 32.59 26.54 32.54 26.48 32.54 26.48 32.49 26.42 32.48 26.43 32.43 26.37 32.42 26.37 32.38 26.31 32.37 26.32 32.32 26.25 32.31 26.26 32.26 26.2 32.26 26.2 32.21 26.14 32.2 26.15 32.15 26.09 32.14 26.09 32.09 26.03 32.09 26.04 32.04 25.98 32.03 25.98 31.98 25.92 31.98 25.92 31.93 25.86 31.92 25.87 31.87 25.81 31.86 25.81 31.81 25.75 31.81 25.75 31.76 25.69 31.75 25.7 31.7 25.64 31.7 25.64 31.65 25.58 31.64 25.59 31.59 25.53 31.58 25.53 31.53 25.47 31.53 25.47 31.48 25.41 31.47 25.42 31.42 25.36 31.41 25.36 31.36 25.3 31.36 25.3 31.31 25.25 31.3 25.25 31.25 25.19 31.25 25.19 31.2 25.13 31.19 25.14 31.14 25.08 31.13 25.08 31.08 25.02 31.08 25.02 31.03 24.96 31.02 24.97 30.97 24.91 30.96 24.91 30.92 24.85 30.91 24.86 30.86 24.8 30.85 24.8 30.8 24.74 30.8 24.74 30.75 24.68 30.74 24.69 30.69 24.63 30.68 24.63 30.64 24.57 30.63 24.58 30.58 24.52 30.57 24.52 30.52 24.46 30.52 24.46 30.47 24.4 30.46 24.41 30.41 24.35 30.4 24.35 30.36 24.29 30.35 24.3 30.3 24.23 30.29 24.24 30.24 24.18 30.24 24.18 30.19 24.12 30.18 24.13 30.13 24.07 30.12 24.07 30.07 24.01 30.07 24.01 30.02 23.95 30.01 23.96 29.96 23.9 29.95 23.9 29.91 23.84 29.9 23.85 29.85 23.79 29.84 23.79 29.79 23.73 29.79 23.73 29.74 23.67 29.73 23.68 29.68 23.62 29.67 23.62 29.63 23.56 29.62 23.57 29.57 23.5 29.56 23.51 29.51 23.45 29.51 23.45 29.46 23.39 29.45 23.4 29.4 23.34 29.39 23.34 29.34 23.28 29.34 23.29 29.29 23.22 29.28 23.23 29.23 23.17 29.23 23.17 29.18 23.11 29.17 23.12 29.12 23.06 29.11 23.06 29.06 23 29.06 23 29.01 22.94 29 22.95 28.95 22.89 28.95 22.89 28.89 22.83 28.89 22.84 28.84 22.77 28.83 22.78 28.78 22.72 28.78 22.72 28.73 22.66 28.72 22.67 28.67 22.61 28.66 22.61 28.61 22.55 28.61 22.55 28.56 22.5 28.55 22.5 28.5 22.44 28.5 22.44 28.45 22.38 28.44 22.39 28.39 22.33 28.38 22.33 28.33 22.27 28.33 22.27 28.28 22.21 28.27 22.22 28.22 22.16 28.21 22.16 28.17 22.1 28.16 22.11 28.11 22.05 28.1 22.05 28.05 21.99 28.05 21.99 28 21.93 27.99 21.94 27.94 21.88 27.93 21.88 27.89 21.82 27.88 21.82 27.83 21.77 27.82 21.77 27.77 21.71 27.77 21.71 27.72 21.65 27.71 21.66 27.66 21.6 27.65 21.6 27.6 21.54 27.6 21.55 27.55 21.48 27.54 21.49 27.49 21.43 27.48 21.43 27.44 21.37 27.43 21.38 27.38 21.32 27.37 21.32 27.32 21.26 27.32 21.26 27.27 21.2 27.26 21.21 27.21 21.15 27.2 21.15 27.16 21.09 27.15 21.1 27.1 21.04 27.09 21.04 27.04 20.98 27.04 20.98 26.99 20.92 26.98 20.93 26.93 20.87 26.92 20.87 26.88 20.81 26.87 20.82 26.82 20.75 26.81 20.76 26.76 20.7 26.76 20.7 26.71 20.64 26.7 20.65 26.65 20.59 26.64 20.59 26.59 20.53 26.59 20.53 26.54 20.47 26.53 20.48 26.48 20.42 26.48 20.42 26.43 20.36 26.42 20.37 26.37 20.31 26.36 20.31 26.31 20.25 26.31 20.25 26.26 20.19 26.25 20.2 26.2 20.14 26.19 20.14 26.14 20.08 26.14 20.09 26.09 20.02 26.08 20.03 26.03 19.97 26.03 19.97 25.98 19.91 25.97 19.92 25.92 19.86 25.91 19.86 25.86 19.8 25.86 19.8 25.81 19.75 25.8 19.75 25.75 19.69 25.75 19.69 25.7 19.63 25.69 19.64 25.64 19.58 25.63 19.58 25.58 19.52 25.58 19.52 25.53 19.46 25.52 19.47 25.47 19.41 25.46 19.41 25.42 19.35 25.41 19.36 25.36 19.3 25.35 19.3 25.3 19.24 25.3 19.24 25.25 19.18 25.24 19.19 25.19 19.13 25.18 19.13 25.14 19.07 25.13 19.07 25.08 19.02 25.07 19.02 25.02 18.96 12.14 26.39 12.14 57.35 12.2 57.38 12.2 57.4 12.25 57.44 12.25 57.46 12.31 57.49 12.31 57.52 12.37 57.55 12.37 57.57 12.42 57.6 12.42 57.63 12.48 57.66 12.48 57.68 12.54 57.72 12.54 57.74 12.59 57.77 12.59 57.8 12.65 57.83 12.65 57.85 12.7 57.88 12.7 57.91 12.76 57.94 12.76 57.96 12.82 58 12.82 58.02 12.87 58.05 12.87 58.08 12.93 58.11 12.93 58.13 12.98 58.16 12.98 58.19 13.04 58.22 13.04 58.24 13.1 58.28 13.1 58.3 13.15 58.33 13.15 58.36 13.21 58.39 13.21 58.41 13.27 58.45 13.27 58.47 13.32 58.5 13.32 58.52 13.38 58.56 13.38 58.58 13.43 58.61 13.43 58.64 13.49 58.67 13.49 58.69 13.54 58.73 13.54 58.75 13.6 58.78 13.6 58.8 13.66 58.84 13.66 58.86 13.71 58.89 13.71 58.92 13.77 58.95 13.77 58.97 13.83 59.01 13.83 59.03 13.88 59.06 13.88 59.09 13.94 59.12 13.94 59.14 13.99 59.17 13.99 59.2 14.05 59.23 14.05 59.25 14.11 59.29 14.11 59.31 14.16 59.34 14.16 59.37 14.22 59.4 14.22 59.42 14.28 59.45 14.28 59.48 14.33 59.51 14.33 59.53 14.39 59.57 14.39 59.59 14.44 59.62 14.44 59.65 14.5 59.68 14.5 59.7 14.56 59.74 14.56 59.76 14.61 59.79 14.61 59.82 14.67 59.85 14.67 59.87 14.72 59.9 14.72 59.93 14.78 59.96 14.78 59.98 14.84 60.02 14.84 60.04 14.89 60.07 14.89 60.1 14.95 60.13 14.95 60.15 15.01 60.19 15.01 60.21 15.06 60.24 15.06 60.27 15.12 60.3 15.12 60.32 15.17 60.35 15.17 60.38 15.23 60.41 15.23 60.43 15.29 60.47 15.29 60.49 15.34 60.52 15.34 60.55 15.4 60.58 15.4 60.6 15.45 60.63 15.45 60.66 15.51 60.69 15.51 60.71 15.57 60.75 15.57 60.77 15.62 60.8 15.62 60.83 15.68 60.86 15.68 60.88 15.73 60.91 15.73 60.94 15.79 60.97 15.79 60.99 15.85 61.03 15.85 61.05 15.9 61.08 15.9 61.11 15.96 61.14 15.96 61.16 16.02 61.2 16.02 61.22 16.07 61.25 16.07 61.27 16.13 61.31 16.13 61.33 16.18 61.36 16.18 61.39 16.24 61.42 16.24 61.44 16.3 61.48 16.3 61.5 16.35 61.53 16.35 61.56 16.41 61.59 16.41 61.61 16.46 61.64 16.46 61.67 16.52 61.7 16.52 61.72 16.58 61.76 16.58 61.78 16.63 61.81 16.63 61.84 16.69 61.87 16.69 61.89 16.75 61.92 16.75 61.95 16.8 61.98 16.8 62.01 16.86 62.04 16.86 62.06 16.91 62.09 16.91 62.12 16.97 62.15 16.97 62.17 17.02 62.2 17.02 62.23 17.08 62.26 17.08 62.28 17.14 62.32 17.14 62.34 17.19 62.37 17.19 62.4 17.25 62.43 17.25 62.45 17.31 62.49 17.31 62.51 17.36 62.54 17.36 62.57 17.42 62.6 17.42 62.62 17.47 62.65 17.47 62.68 17.53 62.71 17.53 62.73 17.59 62.77 17.59 62.79 17.64 62.82 17.64 62.85 17.7 62.88 17.7 62.9 17.75 62.94 17.75 62.96 17.81 62.99 17.81 63.02 17.87 63.05 17.87 63.07 17.92 63.1 17.92 63.13 17.98 63.16 17.98 63.18 18.04 63.22 18.04 63.24 18.09 63.27 18.09 63.3 18.15 63.33 18.15 63.35 18.2 63.38 18.2 63.41 18.26 63.44 18.26 63.46 18.32 63.5 18.32 63.52 18.37 63.55 18.37 63.58 18.43 63.61 18.43 63.63 18.48 63.66 18.48 63.69 18.54 63.72 18.54 63.74 18.6 63.78 18.6 63.8 18.65 63.83 18.65 63.86 18.71 63.89 18.71 63.91 18.77 63.95 18.77 63.97 18.82 64 18.82 64.03 18.88 64.06 18.88 64.08 18.93 64.11 18.93 64.14 18.99 64.17 18.99 64.19 19.05 64.23 19.05 64.25 19.1 64.28 19.1 64.31 19.16 64.34 19.16 64.36 19.21 64.39 19.21 64.42 19.27 64.45 19.27 64.47 19.33 64.51 19.33 64.53 19.38 64.56 19.38 64.59 19.44 64.62 19.44 64.64 19.5 64.67 19.5 64.7 19.55 64.73 19.55 64.75 19.61 64.79 19.61 64.81 19.66 64.84 19.66 64.87 19.72 64.9 19.72 64.92 19.77 64.96 19.77 64.98 19.83 65.01 19.83 65.03 19.89 65.07 19.89 65.09 19.94 65.12 19.94 65.15 20 65.18 20 65.2 20.06 65.24 20.06 65.26 20.11 65.29 20.11 65.32 20.17 65.35 20.17 65.37 20.22 65.41 20.22 65.43 20.28 65.46 20.28 65.48 20.34 65.52 20.34 65.54 20.39 65.57 20.39 65.6 20.45 65.63 20.45 65.65 20.5 65.69 20.5 65.71 20.56 65.74 20.56 65.77 20.62 65.8 20.62 65.82 20.67 65.85 20.67 65.88 20.73 65.91 20.73 65.93 20.79 65.97 20.79 65.99 20.84 66.02 20.84 66.05 20.9 66.08 20.9 66.1 20.95 66.13 20.95 66.16 21.01 66.19 21.01 66.21 21.07 66.25 21.07 66.27 21.12 66.3 21.12 66.33 21.18 66.36 21.18 66.38 21.23 66.42 21.23 66.44 21.29 66.47 21.29 66.5 21.35 66.53 21.35 66.55 21.4 66.58 21.4 66.61 21.46 66.64 21.46 66.66 21.52 66.7 21.52 66.72 21.57 66.75 21.57 66.78 21.63 66.81 21.63 66.83 21.68 66.86 21.68 66.89 21.74 66.92 21.74 66.94 21.8 66.98 21.8 67 21.85 67.03 21.85 67.06 21.91 67.09 21.91 67.11 21.96 67.14 21.96 67.17 22.02 67.2 22.02 67.22 22.08 67.26 22.08 67.28 22.13 67.31 22.13 67.34 22.19 67.37 22.19 67.39 22.25 67.42 22.25 67.45 22.3 67.48 22.3 67.5 22.36 67.54 22.36 67.56 22.41 67.59 22.41 67.62 22.47 67.65 22.47 67.67 22.53 67.71 22.53 67.73 22.58 67.76 22.58 67.79 22.64 67.82 22.64 67.84 22.69 67.87 22.69 67.9 22.75 67.93 22.75 67.95 22.81 67.99 22.81 68.01 22.86 68.04 22.86 68.07 22.92 68.1 22.92 68.12 22.98 68.16 22.98 68.18 23.03 68.21 23.03 68.23 23.09 68.27 23.09 68.29 23.14 68.32 23.14 68.35 23.2 68.38 23.2 68.4 23.25 68.44 23.25 68.46 23.31 68.49 23.31 68.52 23.37 68.55 23.37 68.57 23.42 68.6 23.42 68.63 23.48 68.66 23.48 68.68 23.54 68.72 23.54 68.74 23.59 68.77 23.59 68.8 23.65 68.83 23.65 68.85 23.7 68.89 23.7 68.91 23.76 68.94 23.76 68.96 23.82 69 23.82 69.02 23.87 69.05 23.87 69.08 23.93 69.11 23.93 69.13 23.98 69.17 23.98 69.19 24.04 69.22 24.04 69.25 24.1 69.28 24.1 69.3 24.15 69.33 24.15 69.36 24.21 69.39 24.21 69.41 24.27 69.45 24.27 69.47 24.32 69.5 24.32 69.53 24.38 69.56 24.38 69.58 24.43 69.61 24.43 69.64 24.49 69.67 24.49 69.69 24.55 69.73 24.55 69.75 24.6 69.78 24.6 69.81 24.66 69.84 24.66 69.86 24.71 69.89 24.71 69.92 24.77 69.95 24.77 69.97 24.83 70.01 24.83 70.03 24.88 70.06 24.88 70.09 24.94 70.12 24.94 70.14 25 70.17 25 70.2 25.05 70.23 25.05 70.25 25.11 70.29 25.11 70.31 25.16 70.34 25.16 70.37 25.22 70.4 25.22 70.42 25.28 70.46 25.28 70.48 25.33 70.51 25.33 70.54 25.39 70.57 25.39 70.59 25.44 70.62 25.44 70.65 25.5 70.68 25.5 70.7 25.56 70.74 25.56 70.76 25.61 70.79 25.61 70.82 25.67 70.85 25.67 70.87 25.73 70.91 25.73 70.93 25.78 70.96 25.78 70.98 25.84 71.02 25.84 71.04 25.89 71.07 25.89 71.1 25.95 71.13 25.95 71.15 26.01 71.19 26.01 71.21 26.06 71.24 26.06 71.27 26.12 71.3 26.12 71.32 26.17 71.35 26.17 71.38 26.23 71.41 26.23 71.43 26.29 71.47 26.29 71.49 26.34 71.52 26.34 71.55 26.4 71.58 26.4 71.6 26.45 71.64 26.45 71.66 26.51 71.69 26.51 71.72 26.57 71.75 26.57 71.77 26.62 71.8 26.62 71.83 26.68 71.86 26.68 71.88 26.73 71.92 26.73 71.94 26.79 71.97 26.79 72 26.85 72.03 26.85 72.05 26.9 72.08 26.9 72.11 26.96 72.14 26.96 72.16 27.02 72.2 27.02 72.22 27.07 72.25 27.07 72.28 27.13 72.31 27.13 72.33 27.18 72.36 27.18 72.39 27.24 72.42 27.24 72.44 27.3 72.48 27.3 72.5 27.35 72.53 27.35 72.56 27.41 72.59 27.41 72.61 27.46 72.64 27.46 72.67 27.52 72.7 27.52 72.72 27.58 72.76 27.58 72.78 27.63 72.81 27.63 72.84 27.69 72.87 27.69 72.89 27.75 72.93 27.75 72.95 27.8 72.98 27.8 73 27.86 73.04 27.86 73.06 27.91 73.09 27.91 73.12 27.97 73.15 27.97 73.17 28.03 73.21 28.03 73.23 28.08 73.26 28.08 73.29 28.14 73.32 28.14 73.34 28.19 73.38 28.19 73.4 28.25 73.43 28.25 73.45 28.31 73.49 28.31 73.51 28.36 73.54 28.36 73.57 28.42 73.6 28.42 73.62 28.48 73.66 28.48 73.68 28.53 73.71 28.53 73.73 28.59 73.77 28.59 73.79 28.64 73.82 28.64 73.85 28.7 73.88 28.7 73.9 28.76 73.94 28.76 73.96 28.81 73.99 28.81 74.02 28.87 74.05 28.87 74.07 28.92 74.1 28.92 74.13 28.98 74.16 28.98 74.18 29.04 74.22 29.04 74.24 29.09 74.27 29.09 74.3 29.15 74.33 29.15 74.35 29.2 74.39 29.2 74.41 29.26 74.44 29.26 74.47 29.32 74.5 29.32 74.52 29.37 74.55 29.37 74.58 29.43 74.61 29.43 74.63 29.48 74.67 29.48 74.69 29.54 74.72 29.54 74.75 29.6 74.78 29.6 74.8 29.65 74.83 29.65 74.86 29.71 74.89 29.71 74.91 29.77 74.95 29.77 74.97 29.82 75 29.82 75.03 29.88 75.06 29.88 75.08 29.93 75.11 29.93 75.14 29.99 75.17 29.99 75.19 30.05 75.23 30.05 75.25 30.1 75.28 30.1 75.31 30.16 75.34 30.16 75.36 30.21 75.39 30.21 75.42 30.27 75.45 30.27 75.47 30.33 75.51 30.33 75.53 30.38 75.56 30.38 75.59 30.44 75.62 30.44 75.64 30.5 75.68 30.5 75.7 30.55 75.73 30.55 75.76 30.61 75.79 30.61 75.81 30.66 75.84 30.66 75.87 30.72 75.9 30.72 75.92 30.78 75.96 30.78 75.98 30.83 76.01 30.83 76.04 30.89 76.07 30.89 76.09 30.95 76.13 30.95 76.15 31 76.18 31 76.2 31.06 76.24 31.06 76.26 31.11 76.29 31.11 76.32 31.17 76.35 31.17 76.37 31.23 76.41 31.23 76.43 31.28 76.46 31.28 76.48 31.34 76.52 31.34 76.54 31.39 76.57 31.39 76.6 31.45 76.63 31.45 76.65 31.51 76.69 31.51 76.71 31.56 76.74 31.56 76.77 31.62 76.8 31.62 76.82 31.67 76.86 31.67 76.88 31.73 76.91 31.73 76.93 31.79 76.97 31.79 76.99 31.84 77.02 31.84 77.05 31.9 77.08 31.9 77.1 31.95 77.14 31.95 77.16 32.01 77.19 32.01 77.22 32.07 77.25 32.07 77.27 32.12 77.3 32.12 77.33 32.18 77.36 32.18 77.38 32.24 77.42 32.24 77.44 32.29 77.47 32.29 77.5 32.35 77.53 32.35 77.55 32.4 77.58 32.4 77.61 32.46 77.64 32.46 77.66 32.52 77.7 32.52 77.72 32.57 77.75 32.57 77.78 32.63 77.81 32.63 77.83 32.69 77.86 32.69 77.89 32.74 77.92 32.74 77.94 32.8 77.98 32.8 78 32.85 78.03 32.85 78.06 32.91 78.09 32.91 78.11 32.97 78.14 32.97 78.17 33.02 78.2 33.02 78.22 33.08 78.26 33.08 78.28 33.13 78.31 33.13 78.34 33.19 78.37 33.19 78.39 33.25 78.43 33.25 78.45 33.3 78.48 33.3 78.51 33.36 78.54 33.36 78.56 33.41 78.59 33.41 78.62 33.47 78.65 33.47 78.67 33.53 78.71 33.53 78.73 33.58 78.76 33.58 78.79 33.64 78.82 33.64 78.84 33.7 78.88 33.7 78.9 33.75 78.93 33.75 78.95 33.81 78.99 33.81 79.01 33.86 79.04 33.86 79.07 33.92 79.1 33.92 79.12 33.98 79.16 33.98 79.18 34.03 79.21 34.03 79.24 34.09 79.27 34.09 79.29 34.14 79.32 34.14 79.35 34.2 79.38 34.2 79.4 34.26 79.44 34.26 79.46 34.31 79.49 34.31 79.52 34.37 79.55 34.37 79.57 34.42 79.61 34.42 79.63 34.48 79.66 34.48 79.69 34.54 79.72 34.54 79.74 34.59 79.77 34.59 79.8 34.65 79.83 34.65 79.85 34.7 79.89 34.7 79.91 34.76 79.94 34.76 79.97 34.82 80 34.82 80.02 34.87 80.05 34.87 80.08 34.93 80.11 34.93 80.13 34.99 80.17 34.99 80.19 35.04 80.22 35.04 80.25 35.1 80.28 35.1 80.3 35.15 80.33 35.15 80.36 35.21 80.39 35.21 80.41 35.27 80.45 35.27 80.47 35.32 80.5 35.32 80.53 35.38 80.56 35.38 80.58 35.44 80.61 35.44 80.64 35.49 80.67 35.49 80.69 35.55 80.73 35.55 80.75 35.6 80.78 35.6 80.81 35.66 80.84 35.66 80.86 35.72 80.9 35.72 80.92 35.77 80.95 35.77 80.97 35.83 81.01 35.83 81.03 35.88 81.06 35.88 81.09 35.94 81.12 35.94 81.14 36 81.18 36 81.2 36.05 81.23 36.05 81.26 36.11 81.29 36.11 81.31 36.16 81.34 36.16 81.37 36.22 81.4 36.22 81.42 36.28 81.46 36.28 81.48 36.33 81.51 36.33 81.54 36.39 81.57 36.39 81.59 36.45 81.63 36.45 81.65 36.5 81.68 36.5 81.7 36.56 81.74 36.56 81.76 36.61 81.79 36.61 81.82 36.67 81.85 36.67 81.87 36.73 81.91 36.73 81.93 36.78 81.96 36.78 81.99 36.84 82.02 36.84 82.04 36.89 82.07 36.89 82.1 36.95 82.13 36.95 82.15 37.01 82.19 37.01 82.21 37.06 82.24 37.06 82.27 37.12 82.3 37.12 82.32 37.17 82.36 37.17 82.38 37.23 82.41 37.23 82.44 37.29 82.47 37.29 82.49 37.34 82.52 37.34 82.55 37.4 82.58 37.4 82.6 37.45 82.64 37.45 82.66 37.51 82.69 37.51 82.72 37.57 82.75 37.57 82.77 37.62 82.8 37.62 82.83 37.68 82.86 37.68 82.88 37.74 82.92 37.74 82.94 37.79 82.97 37.79 83 37.85 83.03 37.85 83.05 37.9 83.08 37.9 83.11 37.96 83.14 37.96 83.16 38.02 83.2 38.02 83.22 38.07 83.25 38.07 83.28 38.13 83.31 38.13 83.33 38.19 83.36 38.19 83.39 38.24 83.42 38.24 83.44 38.3 83.48 38.3 83.5 38.35 83.53 38.35 83.56 38.41 83.59 38.41 83.61 38.47 83.65 38.47 83.67 38.52 83.7 38.52 83.73 38.58 83.76 38.58 83.78 38.63 83.81 38.63 83.84 38.69 83.87 38.69 83.89 38.75 83.93 38.75 83.95 38.8 83.98 38.8 84.01 38.86 84.04 38.86 84.06 38.91 84.09 38.91 84.12 38.97 84.15 38.97 84.17 39.03 84.21 39.03 84.23 39.08 84.26 39.08 84.29 39.14 84.32 39.14 84.34 39.2 84.38 39.2 84.4 39.25 84.43 39.25 84.45 39.31 84.49 39.31 84.51 39.36 84.54 39.36 84.57 39.42 84.6 39.42 84.62 39.48 84.66 39.48 84.68 39.53 84.71 39.53 84.74 39.59 84.77 39.59 84.79 39.64 84.82 39.64 84.85 39.7 84.88 39.7 84.9 39.76 84.94 39.76 84.96 39.81 84.99 39.81 85.02 39.87 85.05 39.87 85.07 39.92 85.11 39.92 85.13 39.98 85.16 39.98 85.19 40.04 85.22 40.04 85.24 40.09 85.27 40.09 85.3 40.15 85.33 40.15 85.35 40.21 85.39 40.21 85.41 40.26 85.44 40.26 85.47 40.32 85.5 40.32 85.52 40.37 85.55 40.37 85.58 40.43 85.61 40.43 85.63 40.49 85.67 40.49 85.69 40.54 85.72 40.54 85.75 40.6 85.78 40.6 85.8 40.66 85.83 40.66 85.86 40.71 85.89 40.71 85.92 40.77 85.95 40.77 85.97 40.82 86 40.82 86.03 40.88 86.06 40.88 86.08 40.94 86.11 40.94 86.14 40.99 86.17 40.99 86.19 41.05 86.23 41.05 86.25 41.1 86.28 41.1 86.31 41.16 86.34 41.16 86.36 41.22 86.4 41.22 86.42 41.27 86.45 41.27 86.48 41.33 86.51 41.33 86.53 41.38 86.56 41.38 86.59 41.44 86.62 41.44 86.64 41.5 86.68 41.5 86.7 41.55 86.73 41.55 86.76 41.61 86.79 41.61 86.81 41.66 86.84 41.66 86.87 41.72 86.9 41.72 86.92 41.78 86.96 41.78 86.98 41.83 87.01 41.83 87.04 41.89 87.07 41.89 87.09 41.95 87.13 41.95 87.15 42 87.18 42 87.21 42.06 87.24 42.06 87.26 42.11 87.29 42.11 87.32 42.17 87.35 42.17 87.37 42.23 87.41 42.23 87.43 42.28 87.46 42.28 87.49 42.34 87.52 42.34 87.54 42.39 87.58 42.39 87.6 42.45 87.63 42.45 87.66 42.51 87.69 42.51 87.71 42.56 87.74 42.56 87.77 42.62 87.8 42.62 87.82 42.67 87.86 42.67 87.88 42.73 87.91 42.73 87.94 42.79 87.97 42.79 87.99 42.84 88.02 42.84 88.05 42.9 88.08 42.9 88.1 42.96 88.14 42.96 88.16 43.01 88.19 43.01 88.22 43.07 88.25 43.07 88.27 43.12 88.3 43.12 88.33 43.18 88.36 43.18 88.38 43.24 88.42 43.24 88.44 43.29 88.47 43.29 88.5 43.35 88.53 43.35 88.55 43.41 88.58 43.41 88.61 43.46 88.64 43.46 88.67 43.52 88.7 43.52 88.72 43.57 88.75 43.57 88.78 43.63 88.81 43.63 88.83 43.69 88.87 43.69 88.89 43.74 88.92 43.74 88.94 43.8 88.98 43.8 89 43.85 89.03 43.85 89.06 43.91 89.09 43.91 89.11 43.97 89.15 43.97 89.17 44.02 89.2 44.02 89.23 44.08 89.26 44.08 89.28 44.13 89.31 44.13 89.34 44.19 89.37 44.19 89.39 44.25 89.43 44.25 89.45 44.3 89.48 44.3 89.51 44.36 89.54 44.36 89.56 44.41 89.59 44.41 89.62 44.47 89.65 44.47 89.67 44.53 89.71 44.53 89.73 44.58 89.76 44.58 89.79 44.64 89.82 44.64 89.84 44.7 89.88 44.7 89.9 44.75 89.93 44.75 89.96 44.81 89.99 44.81 90.01 44.86 90.04 44.86 90.07 44.92 90.1 44.92 90.12 44.98 90.16 44.98 90.18 45.03 90.21 45.03 90.24 45.09 90.27 45.09 90.29 45.15 90.33 45.15 90.35 45.2 90.38 45.2 90.41 45.26 90.44 45.26 90.46 45.31 90.49 45.31 90.52 45.37 90.55 45.37 90.57 45.42 90.61 45.42 90.63 45.48 90.66 45.48 90.69 45.54 90.72 45.54 90.74 45.59 90.77 45.59 90.8 45.65 90.83 45.65 90.85 45.71 90.89 45.71 90.91 45.76 90.94 45.76 90.97 45.82 91 45.82 91.02 45.87 91.06 45.87 91.08 45.93 91.11 45.93 91.13 45.99 91.17 45.99 91.19 46.04 91.22 46.04 91.25 46.1 91.28 46.1 91.3 46.16 91.33 46.16 91.36 46.21 91.39 46.21 91.42 46.27 91.45 46.27 91.47 46.32 91.5 46.32 91.53 46.38 91.56 46.38 91.58 46.44 91.62 46.44 91.64 46.49 91.67 46.49 91.7 46.55 91.73 46.55 91.75 46.6 91.78 46.6 91.81 46.66 91.84 46.66 91.86 46.72 91.9 46.72 91.92 46.77 91.95 46.77 91.98 46.83 92.01 46.83 92.03 46.88 92.06 46.88 92.09 46.94 92.12 46.94 92.14 47 92.18 47 92.2 47.05 92.23 47.05 92.26 47.11 92.29 47.11 92.31 47.16 92.34 47.16 92.37 47.22 92.4 47.22 92.42 47.28 92.46 47.28 92.48 47.33 92.51 47.33 92.54 47.39 92.57 47.39 92.59 47.45 92.63 47.45 92.65 47.5 92.68 47.5 92.71 47.56 92.74 47.56 92.76 47.61 92.79 47.61 92.82 47.67 92.85 47.67 92.87 47.73 92.91 47.73 92.93 47.78 92.96 47.78 92.99 47.84 93.02 47.84 93.04 47.9 93.08 47.9 93.1 47.95 93.13 47.95 93.16 48.01 93.19 48.01 93.21 48.06 93.24 48.06 93.27 48.12 93.3 48.12 93.32 48.18 93.36 48.18 93.38 48.23 93.41 48.23 93.44 48.29 93.47 48.29 93.49 48.34 93.52 48.34 93.55 48.4 93.58 48.4 93.6 48.46 93.64 48.46 93.66 48.51 93.69 48.51 93.72 48.57 93.75 48.57 93.77 48.63 93.81 48.63 93.83 48.68 93.86 48.68 93.89 48.74 93.92 48.74 93.94 48.79 93.97 48.79 94 48.85 94.03 48.85 94.05 48.91 94.08 48.91 94.11 48.96 94.14 48.96 94.17 49.02 94.2 49.02 94.22 49.07 94.25 49.07 94.28 49.13 94.31 49.13 94.33 49.19 94.37 49.19 94.39 49.24 94.42 49.24 94.45 49.3 94.48 49.3 94.5 49.35 94.53 49.35 94.56 49.41 94.59 49.41 94.61 49.47 94.65 49.47 94.67 49.52 94.7 49.52 94.73 49.58 94.76 49.58 94.78 49.63 94.81 49.63 94.84 49.69 94.87 49.69 94.89 49.75 94.93 49.75 94.95 49.8 94.98 49.8 95.01 49.86 95.04 49.86 95.06 49.91 95.1 49.91 95.12 49.97 95.15 49.97 95.18 50.03 95.21 50.03 95.23 50.08 95.26 50.08 95.29 50.14 95.32 50.14 95.34 50.2 95.38 50.2 95.4 50.25 95.43 50.25 95.46 50.31 95.49 50.31 95.51 50.36 95.55 50.36 95.57 50.42 95.6 50.42 95.63 50.48 95.66 50.48 95.68 50.53 95.71 50.53 95.74 50.59 95.77 50.59 95.79 50.65 95.83 50.65 95.85 50.7 95.88 50.7 95.91 50.76 95.94 50.76 95.96 50.81 95.99 50.81 96.02 50.87 96.05 50.87 96.07 50.93 96.11 50.93 96.13 50.98 96.16 50.98 96.19 51.04 96.22 51.04 96.24 51.09 96.27 51.09 96.3 51.15 96.33 51.15 96.35 51.21 96.39 51.21 96.41 51.26 96.44 51.26 96.47 51.32 96.5 51.32 96.52 51.38 96.56 51.38 96.58 51.43 96.61 51.43 96.64 51.49 96.67 51.49 96.69 51.54 96.72 51.54 96.75 51.6 96.78 51.6 96.8 51.66 96.84 51.66 96.86 51.71 96.89 51.71 96.92 51.77 96.95 51.77 96.97 51.82 97 51.82 97.03 51.88 97.06 51.88 97.08 51.94 97.12 51.94 97.14 51.99 97.17 51.99 97.2 52.05 97.23 52.05 97.25 52.1 97.28 52.1 97.31 52.16 97.34 52.16 97.36 52.22 97.4 52.22 97.42 52.27 97.45 52.27 97.48 52.33 97.51 52.33 97.53 52.38 97.56 52.38 97.59 52.44 97.62 52.44 97.64 52.5 97.68 52.5 97.7 52.55 97.73 52.55 97.76 52.61 97.79 52.61 97.81 52.67 97.85 52.67 97.87 52.72 97.9 52.72 97.93 52.78 97.96 52.78 97.98 52.83 98.01 52.83 98.04 52.89 98.07 52.89 98.09 52.95 98.13 52.95 98.15 53 98.18 53 98.21 53.06 98.24 53.06 98.26 53.12 98.3 53.12 98.32 53.17 98.35 53.17 98.38 53.23 98.41 53.23 98.43 53.28 98.46 53.28 98.49 53.34 98.52 53.34 98.54 53.4 98.58 53.4 98.6 53.45 98.63 53.45 98.66 53.51 98.69 53.51 98.71 53.56 98.74 53.56 98.77 53.62 98.8 53.62 98.82 53.68 98.86 53.68 98.88 53.73 98.91 53.73 98.94 53.79 98.97 53.79 98.99 53.84 99.03 53.84 99.05 53.9 99.08 53.9 99.1 53.96 99.14 53.96 99.16 54.01 99.19 54.01 99.22 54.07 99.25 54.07 99.27 54.13 99.31 54.13 99.33 54.18 99.36 54.18 99.39 54.24 99.42 54.24 99.44 54.29 99.47 54.29 99.5 54.35 99.53 54.35 99.55 54.41 99.59 54.41 99.61 54.46 99.64 54.46 99.67 54.52 99.7 54.52 99.72 54.57 99.75 54.57 99.78 54.63 99.81 54.63 99.83 54.69 99.87 54.69 99.89 54.74 99.92 54.74 99.95 54.8 99.98 54.8 100 54.85 100.03 54.85 100.06 54.91 100.09 54.91 100.11 54.97 100.15 54.97 100.17 55.02 100.2 55.02 100.23 55.08 100.26 55.08 100.28 55.13 100.31 55.13 100.34 55.19 100.37 55.19 100.39 55.25 100.43 55.25 100.45 55.3 100.48 55.3 100.51 55.36 100.54 55.36 100.56 55.42 100.6 55.42 100.62 55.47 100.65 55.47 100.68 55.53 100.71 55.53 100.73 55.58 100.76 55.58 100.79 55.64 100.82 55.64 100.84 55.7 100.88 55.7 100.9 55.75 100.93 55.75 100.96 55.81 100.99 55.81 101.01 55.87 101.05 55.87 101.07 55.92 101.1 55.92 101.13 55.98 101.16 55.98 101.18 56.03 101.21 56.03 101.24 56.09 101.27 56.09 101.29 56.15 101.33 56.15 101.35 56.2 101.38 56.2 101.41 56.26 101.44 56.26 101.46 56.31 101.49 56.31 101.52 56.37 101.55 56.37 101.57 56.43 101.61 56.43 101.63 56.48 101.66 56.48 101.69 56.54 101.72 56.54 101.74 56.59 101.78 56.59 101.8 56.65 101.83 56.65 101.86 56.71 101.89 56.71 101.91 56.76 101.94 56.76 101.97 56.82 102 56.82 102.02 56.88 102.06 56.88 102.08 56.93 102.11 56.93 102.14 56.99 102.17 56.99 102.19 57.04 102.22 57.04 102.25 57.1 102.28 57.1 102.3 57.16 102.34 57.16 102.36 57.21 102.39 57.21 102.42 57.27 102.45 57.27 102.47 57.32 102.5 57.32 102.53 57.38 102.56 57.38 102.58 57.44 102.62 57.44 102.64 57.49 102.67 57.49 102.7 57.55 102.73 57.55 102.75 57.6 102.78 57.6 102.81 57.66 102.84 57.66 102.86 57.72 102.9 57.72 102.92 57.77 102.95 57.77 102.98 57.83 103.01 57.83 103.03 57.88 103.07 57.88 103.09 57.94 103.12 57.94 103.15 58 103.18 58 103.2 58.05 103.23 58.05 103.26 58.11 103.29 58.11 103.31 58.17 103.35 58.17 103.37 58.22 103.4 58.22 103.43 58.28 103.46 58.28 103.48 58.33 103.52 58.33 103.54 58.39 103.57 58.39 103.59 58.45 103.63 58.45 103.65 58.5 103.68 58.5 103.71 58.56 103.74 58.56 103.76 58.62 103.8 58.62 103.82 58.67 103.85 58.67 103.88 58.73 103.91 58.73 103.93 58.78 103.96 58.78 103.99 58.84 104.02 58.84 104.04 58.9 104.08 58.9 104.1 58.95 104.13 58.95 104.16 59.01 104.19 59.01 104.21 59.06 104.24 59.06 104.27 59.12 104.3 59.12 104.32 59.18 104.36 59.18 104.38 59.23 104.41 59.23 104.44 59.29 104.47 59.29 104.49 59.34 104.53 59.34 104.55 59.4 104.58 59.4 104.61 59.46 104.64 59.46 104.66 59.51 104.69 59.51 104.72 59.57 104.75 59.57 104.77 59.63 104.81 59.63 104.83 59.68 104.86 59.68 104.89 59.74 104.92 59.74 104.94 59.79 104.97 59.79 105 59.85 105.03 59.85 105.05 59.91 105.09 59.91 105.11 59.96 105.14 59.96 105.17 60.02 105.2 60.02 105.22 60.07 105.25 60.07 105.28 60.13 105.31 60.13 105.33 60.19 105.37 60.19 105.39 60.24 105.42 60.24 105.45 60.3 105.48 60.3 105.5 60.35 105.53 60.35 105.56 60.41 105.59 60.41 105.61 60.47 105.65 60.47 105.67 60.52 105.7 60.52 105.73 60.58 105.76 60.58 105.78 60.64 105.82 60.64 105.84 60.69 105.87 60.69 105.9 60.75 105.93 60.75 105.95 60.8 105.98 60.8 106.01 60.86 106.04 60.86 106.06 60.92 106.1 60.92 106.12 60.97 106.15 60.97 106.18 61.03 106.21 61.03 106.23 61.09 106.27 61.09 106.29 61.14 106.32 61.14 106.34 61.2 106.38 61.2 106.4 61.25 106.43 61.25 106.46 61.31 106.49 61.31 106.51 61.37 106.55 61.37 106.57 61.42 106.6 61.42 106.63 61.48 106.66 61.48 106.68 61.53 106.71 61.53 106.74 61.59 106.77 61.59 106.79 61.65 106.83 61.65 106.85 61.7 106.88 61.7 106.91 61.76 106.94 61.76 106.96 61.81 107 61.81 107.02 61.87 107.05 61.87 107.07 61.93 107.11 61.93 107.13 61.98 107.16 61.98 107.19 62.04 107.22 62.04 107.24 62.09 107.28 62.09 107.3 62.15 107.33 62.15 107.36 62.21 107.39 62.21 107.41 62.26 107.44 62.26 107.47 62.32 107.5 62.32 107.52 62.38 107.56 62.38 107.58 62.43 107.61 62.43 107.64 62.49 107.67 62.49 107.69 62.54 107.72 62.54 107.75 62.6 107.78 62.6 107.8 62.66 107.84 62.66 107.86 62.71 107.89 62.71 107.92 62.77 107.95 62.77 107.97 62.83 108 62.83 108.03 62.88 108.06 62.88 108.08 62.94 108.12 62.94 108.14 62.99 108.17 62.99 108.2 63.05 108.23 63.05 108.25 63.1 108.28 63.1 108.31 63.16 108.34 63.16 108.36 63.22 108.4 63.22 108.42 63.27 108.45 63.27 108.48 63.33 108.51 63.33 108.53 63.39 108.57 63.39 108.59 63.44 108.62 63.44 108.65 63.5 108.68 63.5 108.7 63.55 108.73 63.55 108.76 63.61 108.79 63.61 108.81 63.67 108.85 63.67 108.87 63.72 108.9 63.72 108.93 63.78 108.96 63.78 108.98 63.84 109.02 63.84 109.04 63.89 109.07 63.89 109.09 63.95 109.13 63.95 109.15 64 109.18 64 109.21 64.06 109.24 64.06 109.26 64.12 109.3 64.12 109.32 64.17 109.35 64.17 109.38 64.23 109.41 64.23 109.43 64.28 109.46 64.28 109.49 64.34 109.52 64.34 109.54 64.4 109.58 64.4 109.6 64.45 109.63 64.45 109.66 64.51 109.69 64.51 109.71 64.56 109.75 64.56 109.77 64.62 109.8 64.62 109.83 64.68 109.86 64.68 109.88 64.73 109.91 64.73 109.94 64.79 109.97 64.79 109.99 64.84 110.03 64.84 110.05 64.9 110.08 64.9 110.11 64.96 110.14 64.96 110.16 65.01 110.19 65.01 110.22 65.07 110.25 65.07 110.27 65.13 110.31 65.13 110.33 65.18 110.36 65.18 110.39 65.24 110.42 65.24 110.44 65.29 110.47 65.29 110.5 65.35 110.53 65.35 110.55 65.41 110.59 65.41 110.61 65.46 110.64 65.46 110.67 65.52 110.7 65.52 110.72 65.58 110.75 65.58 110.78 65.63 110.81 65.63 110.83 65.69 110.87 65.69 110.89 65.74 110.92 65.74 110.95 65.8 110.98 65.8 111 65.86 111.04 65.86 111.06 65.91 111.09 65.91 111.12 65.97 111.15 65.97 111.17 66.02 111.2 66.02 111.23 66.08 111.26 66.08 111.28 66.14 111.32 66.14 111.34 66.19 111.37 66.19 111.4 66.25 111.43 66.25 111.45 66.3 111.48 66.3 111.51 66.36 111.54 66.36 111.56 66.42 111.6 66.42 111.62 66.47 111.65 66.47 111.68 66.53 111.71 66.53 111.73 66.58 111.77 66.58 111.79 66.64 111.82 66.64 111.84 66.7 111.88 66.7 111.9 66.75 111.93 66.75 111.96 66.81 111.99 66.81 112.01 66.87 112.05 66.87 112.07 66.92 112.1 66.92 112.13 66.98 112.16 66.98 112.18 67.03 112.21 67.03 112.24 67.09 112.27 67.09 112.29 67.15 112.33 67.15 112.35 67.2 112.38 67.2 112.41 67.26 112.44 67.26 112.46 67.31 112.5 67.31 112.52 67.37 112.55 67.37 112.58 67.43 112.61 67.43 112.63 67.48 112.66 67.48 112.69 67.54 112.72 67.54 112.74 67.59 112.78 67.59 112.8 67.65 112.83 67.65 112.86 67.71 112.89 67.71 112.91 67.76 112.94 67.76 112.97 67.82 113 67.82 113.02 67.88 113.06 67.88 113.08 67.93 113.11 67.93 113.14 67.99 113.17 67.99 113.19 68.04 113.22 68.04 113.25 68.1 113.28 68.1 113.3 68.16 113.34 68.16 113.36 68.21 113.39 68.21 113.42 68.27 113.45 68.27 113.47 68.33 113.5 68.33 113.53 81.36 121.05 81.36 97.26 81.36 97.26 81.41 97.31 81.42 97.31 81.46 97.37 81.47 97.37 81.52 97.43 81.53 97.43 81.58 97.48 81.58 97.48 81.63 97.54 81.64 97.54 81.69 97.59 81.7 97.59 81.74 97.65 81.75 97.65 81.8 97.71 81.81 97.71 81.86 97.76 81.87 97.76 81.91 97.82 81.92 97.82 81.97 97.88 81.98 97.88 82.02 97.93 82.03 97.93 82.08 97.99 82.09 97.99 82.14 98.04 82.15 98.04 82.19 98.1 82.2 98.1 82.25 98.16 82.26 98.16 82.3 98.21 82.31 98.21 82.36 98.27 82.37 98.27 82.42 98.32 82.43 98.32 82.47 98.38 82.48 98.38 82.53 98.44 82.54 98.44 82.58 98.49 82.6 98.49 82.64 98.55 82.65 98.55 82.7 98.6 82.71 98.6 82.75 98.66 82.76 98.66 82.81 98.72 82.82 98.72 82.87 98.77 82.88 98.77 82.92 98.83 82.93 98.83 82.98 98.89 82.99 98.89 83.03 98.94 83.05 98.94 83.09 99 83.1 99 83.15 99.05 83.16 99.05 83.2 99.11 83.21 99.11 83.26 99.17 83.27 99.17 83.31 99.22 83.33 99.22 83.37 99.28 83.38 99.28 83.43 99.33 83.44 99.33 83.48 99.39 83.49 99.39 83.54 99.45 83.55 99.45 83.59 99.5 83.61 99.5 83.65 99.56 83.66 99.56 83.71 99.61 83.72 99.61 83.76 99.67 83.77 99.67 83.82 99.73 83.83 99.73 83.88 99.78 83.89 99.78 83.93 99.84 83.94 99.84 83.99 99.89 84 99.89 84.04 99.95 84.06 99.95 84.1 100.01 84.11 100.01 84.16 100.06 84.17 100.06 84.21 100.12 84.22 100.12 84.27 100.18 84.28 100.18 84.33 100.23 84.34 100.23 84.38 100.29 84.39 100.29 84.44 100.34 84.45 100.34 84.49 100.4 84.5 100.4 84.55 100.46 84.56 100.46 84.61 100.51 84.62 100.51 84.66 100.57 84.67 100.57 84.72 100.63 84.73 100.63 84.77 100.68 84.78 100.68 84.83 100.74 84.84 100.74 84.89 100.79 84.9 100.79 84.94 100.85 84.95 100.85 85 100.91 85.01 100.91 85.06 100.96 85.06 100.96 85.11 101.02 85.12 101.02 85.17 101.07 85.18 101.07 85.22 101.13 85.23 101.13 85.28 101.19 85.29 101.19 85.33 101.24 85.35 101.24 85.39 101.3 85.4 101.3 85.45 101.36 85.46 101.36 85.5 101.41 85.51 101.41 85.56 101.47 85.57 101.47 85.62 101.52 85.63 101.52 85.67 101.58 85.68 101.58 85.73 101.64 85.74 101.64 85.78 101.69 85.8 101.69 85.84 101.75 85.85 101.75 85.9 101.8 85.91 101.8 85.95 101.86 85.96 101.86 86.01 101.92 86.02 101.92 86.06 101.97 86.08 101.97 86.12 102.03 86.13 102.03 86.18 102.08 86.19 102.08 86.23 102.14 86.24 102.14 86.29 102.2 86.3 102.2 86.35 102.25 86.36 102.25 86.4 102.31 86.41 102.31 86.46 102.36 86.47 102.36 86.51 102.42 86.52 102.42 86.57 102.48 86.58 102.48 86.63 102.53 86.64 102.53 86.68 102.59 86.69 102.59 86.74 102.64 86.75 102.64 86.8 102.7 86.81 102.7 86.85 102.76 86.86 102.76 86.91 102.81 86.92 102.81 86.96 102.87 86.97 102.87 87.02 102.93 87.03 102.93 87.08 102.98 87.09 102.98 87.13 103.04 87.14 103.04 87.19 103.09 87.2 103.09 87.24 103.15 87.25 103.15 87.3 103.21 87.31 103.21 87.36 103.26 87.37 103.26 87.41 103.32 87.42 103.32 87.47 103.38 87.48 103.38 87.52 103.43 87.53 103.43 87.58 103.49 87.59 103.49 87.64 103.54 87.65 103.54 87.69 103.6 87.7 103.6 87.75 103.66 87.76 103.66 87.81 103.71 87.81 103.71 87.86 103.77 87.87 103.77 87.92 103.82 87.93 103.82 87.97 103.88 87.98 103.88 88.03 103.94 88.04 103.94 88.09 103.99 88.1 103.99 88.14 104.05 88.15 104.05 88.2 104.11 88.21 104.11 88.25 104.16 88.26 104.16 88.31 104.22 88.32 104.22 88.37 104.27 88.38 104.27 88.42 104.33 88.43 104.33 88.48 104.39 88.49 104.39 88.53 104.44 88.55 104.44 88.59 104.5 88.6 104.5 88.65 104.55 88.66 104.55 88.7 104.61 88.71 104.61 88.76 104.67 88.77 104.67 88.81 104.72 88.83 104.72 88.87 104.78 88.88 104.78 88.93 104.83 88.94 104.83 88.98 104.89 88.99 104.89 89.04 104.95 89.05 104.95 89.1 105 89.11 105 89.15 105.06 89.16 105.06 89.21 105.11 89.22 105.11 89.26 105.17 89.28 105.17 89.32 105.23 89.33 105.23 89.38 105.28 89.39 105.28 89.43 105.34 89.44 105.34 89.49 105.4 89.5 105.4 89.55 105.45 89.56 105.45 89.6 105.51 89.61 105.51 89.66 105.56 89.67 105.56 89.71 105.62 89.72 105.62 89.77 105.68 89.78 105.68 89.83 105.73 89.84 105.73 89.88 105.79 89.89 105.79 89.94 105.84 89.95 105.84 89.99 105.9 90 105.9 90.05 105.96 90.06 105.96 90.11 106.01 90.12 106.01 90.16 106.07 90.17 106.07 90.22 106.13 90.23 106.13 90.27 106.18 90.28 106.18 90.33 106.24 90.34 106.24 90.39 106.29 90.4 106.29 90.44 106.35 90.45 106.35 90.5 106.41 90.51 106.41 90.56 106.46 90.57 106.46 90.61 106.52 90.62 106.52 90.67 106.57 90.68 106.57 90.72 106.63 90.73 106.63 90.78 106.69 90.79 106.69 90.84 106.74 90.85 106.74 90.89 106.8 90.9 106.8 90.95 106.86 90.96 106.86 91 106.91 91.02 106.91 91.06 106.97 91.07 106.97 91.12 107.02 91.13 107.02 91.17 107.08 91.18 107.08 91.23 107.14 91.24 107.14 91.28 107.19 91.3 107.19 91.34 107.25 91.35 107.25 91.4 107.3 91.41 107.3 91.45 107.36 91.46 107.36 91.51 107.42 91.52 107.42 91.56 107.47 91.58 107.47 91.62 107.53 91.63 107.53 91.68 107.58 91.69 107.58 91.73 107.64 91.74 107.64 91.79 107.7 91.8 107.7 91.85 107.75 91.86 107.75 91.9 107.81 91.91 107.81 91.96 107.86 91.97 107.86 92.01 107.92 92.03 107.92 92.07 107.98 92.08 107.98 92.13 108.03 92.14 108.03 92.18 108.09 92.19 108.09 92.24 108.15 92.25 108.15 92.3 108.2 92.31 108.2 92.35 108.26 92.36 108.26 92.41 108.31 92.42 108.31 92.46 108.37 92.47 108.37 92.52 108.43 92.53 108.43 92.58 108.48 92.59 108.48 92.63 108.54 92.64 108.54 92.69 108.59 92.7 108.59 92.74 108.65 92.75 108.65 92.8 108.71 92.81 108.71 92.86 108.76 92.87 108.76 92.91 108.82 92.92 108.82 92.97 108.88 92.98 108.88 93.03 108.93 93.03 108.93 93.08 108.99 93.09 108.99 93.14 109.04 93.15 109.04 93.19 109.1 93.2 109.1 93.25 109.16 93.26 109.16 93.31 109.21 93.32 109.21 93.36 109.27 93.37 109.27 93.42 109.33 93.43 109.33 93.47 109.38 93.48 109.38 93.53 109.44 93.54 109.44 93.59 109.49 93.6 109.49 93.64 109.55 93.65 109.55 93.7 109.61 93.71 109.61 93.75 109.66 93.77 109.66 93.81 109.72 93.82 109.72 93.87 109.77 93.88 109.77 93.92 109.83 93.93 109.83 93.98 109.89 93.99 109.89 94.03 109.94 94.05 109.94 94.09 110 94.1 110 94.15 110.05 94.16 110.05 94.2 110.11 94.21 110.11 94.26 110.17 94.27 110.17 94.32 110.22 94.33 110.22 94.37 110.28 95.51 110.28 96.42 109.15 96.42 109.22 96.48 109.19 96.48 109.28 96.53 109.25 96.53 109.33 96.59 109.3 96.59 109.39 96.65 109.36 96.65 109.45 96.7 109.42 96.7 109.5 96.76 109.47 96.76 109.56 96.82 109.53 96.82 109.62 96.87 109.58 96.87 109.67 96.93 109.64 96.93 109.73 96.98 109.7 96.98 109.78 97.04 109.75 97.04 109.84 97.1 109.81 97.1 109.9 97.15 109.86 97.15 109.95 97.21 109.92 97.21 110.01 97.27 109.98 97.27 110.06 97.32 110.03 97.32 110.12 97.38 110.09 97.38 110.18 97.43 110.14 97.43 110.23 97.49 110.2 97.49 110.29 97.55 110.26 97.55 110.35 97.6 110.31 97.6 110.4 97.66 110.37 97.66 110.46 97.71 110.42 97.71 110.51 97.77 110.48 97.77 110.57 97.83 110.54 97.83 110.63 97.88 110.59 97.88 110.68 97.94 110.65 97.94 110.74 98 110.71 98 110.8 98.05 110.76 98.05 110.85 98.11 110.82 98.11 110.91 98.16 110.87 98.16 110.96 98.22 110.93 98.22 111.02 98.28 110.99 98.28 111.08 98.33 111.04 98.33 111.13 98.39 111.1 98.39 111.19 98.44 111.16 98.44 111.24 98.5 111.21 98.5 111.3 98.56 111.27 98.56 111.36 98.61 111.32 98.61 111.41 98.67 111.38 98.67 111.47 98.72 111.44 98.72 111.52 98.78 111.49 98.78 111.58 98.84 111.55 98.84 111.64 98.89 111.6 98.89 111.69 98.95 111.66 98.95 111.75 99 111.72 99 111.81 99.06 111.77 99.06 111.86 99.12 111.83 99.12 111.92 99.17 111.89 99.17 111.97 99.23 111.94 99.23 112.03 99.29 112 99.29 112.08 99.34 112.05 99.34 112.14 99.4 112.11 99.4 112.2 99.45 112.17 99.45 112.25 99.51 112.22 99.51 112.31 99.57 112.28 99.57 112.37 99.62 112.33 99.62 112.42 99.68 112.39 99.68 112.48 99.73 112.45 99.73 112.53 99.79 112.5 99.79 112.59 99.85 112.56 99.85 112.65 99.9 112.61 99.9 112.7 99.96 112.67 99.96 112.76 100.02 112.73 100.02 112.81 100.07 112.78 100.07 112.87 100.13 112.84 100.13 112.93 100.18 112.89 100.18 112.98 100.24 112.95 100.24 113.04 100.3 113.01 100.3 113.1 100.35 113.06 100.35 113.15 100.41 113.12 100.41 113.21 100.46 113.18 100.46 113.26 100.52 113.23 100.52 113.32 100.58 113.29 100.58 113.38 100.63 113.34 100.63 113.43 100.69 113.4 100.69 113.49 100.75 113.46 100.75 113.55 100.8 113.51 100.8 113.6 100.86 113.57 100.86 113.66 100.91 113.63 100.91 113.71 100.97 113.68 100.97 113.77 101.03 113.74 101.03 113.83 101.08 113.79 101.08 113.88 101.14 113.85 101.14 113.94 101.19 113.91 101.19 113.99 101.25 113.96 101.25 114.05 101.31 114.02 101.31 114.11 101.36 114.07 101.36 114.16 101.42 114.13 101.42 114.22 101.47 114.19 101.47 114.27 101.53 114.24 101.53 114.33 101.59 114.3 101.59 114.39 101.64 114.35 101.64 114.44 101.7 114.41 101.7 114.5 101.75 114.47 101.75 114.56 101.81 114.52 101.81 114.61 101.87 114.58 101.87 114.67 101.92 114.64 101.92 114.72 101.98 114.69 101.98 114.78 102.04 114.75 102.04 114.84 102.09 114.8 102.09 114.89 102.15 114.86 102.15 114.95 102.2 114.92 102.2 115 102.26 114.97 102.26 115.06 102.32 115.03 102.32 115.12 102.37 115.08 102.37 115.17 102.43 115.14 102.43 115.23 102.48 115.2 102.48 115.28 102.54 115.25 102.54 115.34 102.6 115.31 102.6 115.4 102.65 115.36 102.65 115.45 102.71 115.42 102.71 115.51 102.77 115.48 102.77 115.56 102.82 115.53 102.82 115.62 102.88 115.59 102.88 115.68 102.93 115.64 102.93 115.73 102.99 115.7 102.99 115.79 103.05 115.76 103.05 115.85 103.1 115.81 103.1 115.9 103.16 115.87 103.16 115.96 103.21 115.93 103.21 116.01 103.27 115.98 103.27 116.07 103.33 116.04 103.33 116.13 103.38 116.09 103.38 116.18 103.44 116.15 103.44 116.24 103.5 116.21 103.5 116.3 103.55 116.26 103.55 116.35 103.61 116.32 103.61 116.41 103.66 116.38 103.66 116.46 103.72 116.43 103.72 116.52 103.78 116.49 103.78 116.58 103.83 116.54 103.83 116.63 103.89 116.6 103.89 116.69 103.94 116.66 103.94 116.74 104 116.71 104 116.8 104.06 116.77 104.06 116.86 104.11 116.82 104.11 116.91 104.17 116.88 104.17 116.97 104.22 116.94 104.22 117.03 104.28 116.99 104.28 117.08 104.34 117.05 104.34 117.14 104.39 117.1 104.39 117.19 104.45 117.16 104.45 117.25 104.5 117.22 104.5 117.31 104.56 117.27 104.56 117.36 104.62 117.33 104.62 117.42 104.67 117.39 104.67 117.47 104.73 117.44 104.73 117.53 104.79 117.5 104.79 117.59 104.84 117.55 104.84 117.64 104.9 117.61 104.9 117.7 104.95 117.67 104.95 117.75 105.01 117.72 105.01 117.81 105.07 117.78 105.07 117.87 105.12 117.83 105.12 117.92 105.18 117.89 105.18 117.98 105.23 117.95 105.23 118.03 105.29 118 105.29 118.09 105.35 118.06 105.35 118.15 105.4 118.11 105.4 118.2 105.46 118.17 105.46 118.26 105.52 118.23 105.52 118.32 105.57 118.28 105.57 118.37 105.63 118.34 105.63 118.43 105.68 118.39 105.68 118.48 105.74 118.45 105.74 118.54 105.8 118.51 105.8 118.6 105.85 118.56 105.85 118.65 105.91 118.62 105.91 118.71 105.97 118.68 105.97 118.77 106.02 118.73 106.02 118.82 106.08 118.79 106.08 118.88 106.13 118.84 106.13 118.93 106.19 118.9 106.19 118.99 106.25 118.96 106.25 119.05 106.3 119.01 106.3 119.1 106.36 119.07 106.36 119.16 106.41 119.13 106.41 119.21 106.47 119.18 106.47 119.27 106.53 119.24 106.53 119.33 106.58 119.29 106.58 119.38 106.64 119.35 106.64 119.44 106.69 119.41 106.69 119.49 106.75 119.46 106.75 119.55 106.81 119.52 106.81 119.61 106.86 119.57 106.86 119.66 106.92 119.63 106.92 119.72 106.97 119.69 106.97 119.78 107.03 119.74 107.03 119.83 107.09 119.8 107.09 119.89 107.14 119.86 107.14 119.94 107.2 119.91 107.2 120 107.26 119.97 107.26 120.06 107.31 120.02 107.31 120.11 107.37 120.08 107.37 120.17 107.42 120.14 107.42 120.22 107.48 120.19 107.48 120.28 107.54 120.25 107.54 120.34 107.59 120.3 107.59 120.39 107.65 120.36 107.65 120.45 107.7 120.42 107.7 120.5 107.76 120.47 107.76 120.56 107.82 120.53 107.82 120.62 107.87 120.58 107.87 120.67 107.93 120.64 107.93 120.73 107.98 120.7 107.98 120.78 108.04 120.75 108.04 120.84 108.1 120.81 108.1 120.9 108.15 120.86 108.15 120.95 108.21 120.92 108.21 121.01 108.27 120.98 108.27 121.07 108.32 121.03 108.32 121.12 108.38 121.09 108.38 121.18 108.43 121.15 108.43 121.23 108.49 121.2 108.49 121.29 121.93 113.53 121.93 82.58 121.88 82.55"/></g><polygon class="cls-6" points="38.19 54.1 39.33 54.1 52.31 38.08 52.31 65.11 65.75 57.35 65.75 26.39 52.87 18.96 38.91 35.91 25.02 18.96 12.14 26.39 12.14 57.35 25.17 64.87 25.17 38.08 38.19 54.1"/><path class="cls-7" d="M113.59,6a15.51,15.51,0,0,1,11.21,4.45,14.52,14.52,0,0,1,4.59,10.84,14.53,14.53,0,0,1-4.59,10.83,16.31,16.31,0,0,1-22.37,0,14.55,14.55,0,0,1-4.58-10.83,14.54,14.54,0,0,1,4.58-10.84A15.39,15.39,0,0,1,113.59,6Zm.09,28.43a12.79,12.79,0,0,0,9.39-3.81,12.64,12.64,0,0,0,3.83-9.33A13,13,0,0,0,113.68,8.16a13,13,0,0,0-9.46,3.8,12.62,12.62,0,0,0-3.87,9.35,12.56,12.56,0,0,0,3.87,9.33A13,13,0,0,0,113.68,34.45Z"/><path class="cls-7" d="M135,6.41h8.21q4.71,0,7.22,2.11a7.13,7.13,0,0,1,2.51,5.76,7.29,7.29,0,0,1-2.53,5.84q-2.53,2.14-7.41,2.15h-5.7V36.2H135Zm2.3,1.92v12h5.55a8.81,8.81,0,0,0,5.67-1.57,5.42,5.42,0,0,0,1.94-4.46,5.43,5.43,0,0,0-1.9-4.37,8.11,8.11,0,0,0-5.43-1.62Z"/><path class="cls-7" d="M173.6,6.41V8.33H159.65V20.25h13.59v1.94H159.65V34.28h14.29V36.2H157.35V6.41Z"/><path class="cls-7" d="M205.53,6.41V36.2h-1.9L181,10.16v26h-2.3V6.41h1.95l22.59,26v-26Z"/><path class="cls-7" d="M133.72,82.18h-8.91V65.06l-8,9.91h-.71L108,65.06V82.18H99.34V52.63h8.09l9.08,11.09,9.13-11.09h8.08Z"/><path class="cls-7" d="M173.64,82.18h-9.12l-2.41-6H149.27l-2.45,6h-9.13l13.07-29.55h9.85ZM160.06,71.05l-4.33-10.79-4.37,10.79Z"/><path class="cls-7" d="M186.52,82.18h-8.91V52.63h8.91Z"/><path class="cls-7" d="M226.08,82.18h-7.93L202.82,65.72V82.18H194V52.63h7.91L217.19,69V52.63h8.89Z"/><path class="cls-7" d="M254.68,70.22H242.42v12h-8.91V52.63h21.17v5.92H242.42v5.72h12.26Z"/><path class="cls-7" d="M289.29,82.18h-9.57l-2.33-5.24a21.94,21.94,0,0,0-2.3-4.22,5,5,0,0,0-2-1.7,7.11,7.11,0,0,0-2.51-.37h-1V82.18h-8.92V52.63h15.17a11,11,0,0,1,6,1.49,9,9,0,0,1,3.38,3.62,9.37,9.37,0,0,1,1,4.06,7.6,7.6,0,0,1-.87,3.78,6.87,6.87,0,0,1-1.82,2.25,17,17,0,0,1-2.16,1.34,8.57,8.57,0,0,1,2.36,2,25,25,0,0,1,2.53,4.61ZM277.18,62a3.07,3.07,0,0,0-1.34-2.86,8.89,8.89,0,0,0-4.38-.81h-1.87v7.12h1.92a9.77,9.77,0,0,0,4.47-.71A2.93,2.93,0,0,0,277.18,62Z"/><path class="cls-7" d="M325.8,82.18h-9.12l-2.41-6H301.43l-2.45,6h-9.13l13.07-29.55h9.85ZM312.22,71.05l-4.33-10.79-4.37,10.79Z"/><path class="cls-7" d="M364.1,82.18h-8.91V65.06l-8,9.91h-.7l-8.06-9.91V82.18h-8.66V52.63h8.08l9.08,11.09L356,52.63h8.08Z"/><path class="cls-7" d="M393.85,82.18H371.57V52.63h21.92v5.92h-13V64h12.41v6H380.48v6.31h13.37Z"/><path class="cls-3" d="M44.32,142.35a16.57,16.57,0,0,1-2.88,9.74,18.18,18.18,0,0,1-8,6.29,29.94,29.94,0,0,1-11.81,2.19c-1.24,0-2.77-.08-4.57-.24A51.83,51.83,0,0,1,9.85,159a56.46,56.46,0,0,1-9.33-3.2V141.09a64,64,0,0,0,8.94,4.67,23.7,23.7,0,0,0,9.41,1.87c3.09,0,5.09-.52,6-1.54a4.52,4.52,0,0,0,1.36-2.88,4.91,4.91,0,0,0-2.34-4.09,33.17,33.17,0,0,0-6.79-3.44,54.13,54.13,0,0,1-8.66-4.52A20.42,20.42,0,0,1,2.36,125,15.78,15.78,0,0,1,0,116.33a15.93,15.93,0,0,1,9.65-15A27.68,27.68,0,0,1,21.6,99a41.63,41.63,0,0,1,9.28,1,40.3,40.3,0,0,1,7,2.19,28.63,28.63,0,0,1,3.8,1.9v14.07a48.71,48.71,0,0,0-8.2-4.72,22.8,22.8,0,0,0-9.67-2.08q-3.37,0-4.89,1.3a4.06,4.06,0,0,0-1.52,3.2A4,4,0,0,0,19,118.89a26.74,26.74,0,0,0,5.41,3.16,108.28,108.28,0,0,1,11.08,5.84,21.88,21.88,0,0,1,6.51,6A14.53,14.53,0,0,1,44.32,142.35Z"/><path class="cls-3" d="M119.11,132.91a27.72,27.72,0,0,1-2.88,13.14,23,23,0,0,1-7.61,8.59,32.88,32.88,0,0,1-10.22,4.54,44.09,44.09,0,0,1-10.93,1.39A43.39,43.39,0,0,1,72.65,158a26.3,26.3,0,0,1-12.05-8.83q-4.86-6.22-4.85-16.23V99.8h18v28.44a24.36,24.36,0,0,0,1.71,9.8,11.86,11.86,0,0,0,4.76,5.67,15.09,15.09,0,0,0,14.26,0,11.69,11.69,0,0,0,4.78-5.63,24.16,24.16,0,0,0,1.71-9.78V99.8h18.09Z"/><path class="cls-3" d="M203.08,159.79H185V125l-16.32,20.13h-1.43L150.88,125v34.76H133.31v-60h16.4l18.44,22.51L186.68,99.8h16.4Z"/><path class="cls-3" d="M288,159.79H269.91V125l-16.32,20.13h-1.43L235.8,125v34.76H218.23v-60h16.4l18.44,22.51L271.6,99.8H288Z"/><path class="cls-3" d="M321.33,159.79H303.24v-60h18.09Z"/><path class="cls-3" d="M394,114.38H372v45.41H354V114.38H332V99.8h62Z"/></g></g></svg>