<svg id="Layer_1" data-name="Layer 1" xmlns="http://www.w3.org/2000/svg" viewBox="0 0 250 250"><defs><style>.cls-1{fill:none;}</style></defs><polygon class="cls-1" points="146.229 95.297 155.061 98.99 152.649 89.805 158.898 82.658 149.365 82.093 144.395 73.933 140.879 82.804 131.587 84.948 136.559 88.995 138.956 90.947 138.139 100.417 142.069 97.93 146.229 95.297"/><polygon class="cls-1" points="197.119 63.816 188.32 67.584 180.185 62.532 180.537 66.235 181.083 71.994 173.768 78.056 183.079 80.122 183.724 81.711 183.768 81.818 186.098 87.555 186.669 88.962 191.57 80.761 201.096 80.116 194.788 73.021 197.119 63.816"/><polygon class="cls-1" points="107.858 82.804 104.345 73.934 99.373 82.093 96.587 82.258 89.841 82.658 93.425 86.757 96.089 89.805 93.678 98.99 102.51 95.297 110.067 100.079 110.6 100.417 110.289 96.814 109.783 90.947 109.879 90.869 117.15 84.948 107.932 82.821 107.858 82.804"/><polygon class="cls-1" points="59.598 83.625 62.916 89.176 66.506 80.336 75.816 78.271 68.5 72.209 68.942 67.562 69.399 62.747 61.265 67.798 52.465 64.03 54.798 73.236 48.488 80.331 58.015 80.976 59.598 83.625"/><path class="cls-1" d="M124.79331,16.07023c-.04461,0-.08526.00079-.12988.00079a109.96037,109.96037,0,0,0,.12518,219.92066h.09156A110.08813,110.08813,0,0,0,234.75211,125.96012V125.885A110.09228,110.09228,0,0,0,124.79331,16.07023Zm.9422,179.3902h-.0282c-5.39093-.02344-11.59655-2.92829-17.47656-8.18073l1.06738-1.19574c5.58814,4.99109,11.41736,7.75189,16.41388,7.77381h.02662c10.339,0,22.65161-11.02295,31.377-28.09656l1.42737.72937C149.54685,184.09318,136.6724,195.46043,125.73551,195.46043Zm4.68274-23.09449a5.01778,5.01778,0,0,0-2.22711.64325,5.16607,5.16607,0,0,1-5.51227,0,5.01533,5.01533,0,0,0-2.2287-.64325c-1.23169.097-3.52221,1.49152-4.30163,2.02051a.778.778,0,0,1-.86548.011,13.43807,13.43807,0,0,0-1.6778-.89215c-.82092-.38343-1.46887-.68549-1.43988-1.4195.03052-.74029.78022-1.105,2.02368-1.57293.97034-1.14252,4.44873-5.07642,6.64612-5.44263a3.98868,3.98868,0,0,1,3.27887,1.06348c1.094.82952,1.54791.82952,2.64191,0a3.99864,3.99864,0,0,1,3.27728-1.06348c2.188.36389,5.64215,4.26251,6.63135,5.42541,1.14252.3725,1.85461.77,1.91254,1.51032.06726.87018-.80292,1.29742-1.90632,1.8374-.35369.17218-.74182.3631-1.12371.57752a.7815.7815,0,0,1-.82636-.03443C133.94132,173.85746,131.65,172.4614,130.41825,172.36594Zm3.80945,4.17249c-.38812,1.61206-3.31958,2.95959-8.7113,4.00513l-.13068.02661-.13068-.02661c-5.39251-1.04554-8.32318-2.39307-8.71057-4.00513a1.64825,1.64825,0,0,1,.68244-1.70905c1.45471-1.1347,5.09985-1.34442,8.15881.10486,3.059-1.45086,6.70563-1.24115,8.15961-.10486A1.64957,1.64957,0,0,1,134.2277,176.53843Zm80.35034-90.91-19.22717,1.30212-9.78027,16.36621-.02039-.05035c-1.91943,14.09381-7.87354,30.9873-20.87988,49.76007.41845-18.66889-2.66309-20.70783-11.54456-28.15491,2.47-4.44421,20.27429-18.1413,27.63977-33.38849l-.47278-1.16437c-3.42517,6.27845-8.75085,12.33167-15.90808,18.96259l.16992.64722-.60217-.25177c-10.3623,9.53778-24.47156,20.29535-42.13275,34.65307,5.09253-7.05761,17.73547-23.58819,20.06824-38.679l-10.64624,6.73767c-15.83789,25.537-56.08289,47.8219-20.19043,112.28064C53.21873,164.60221,50.2833,118.26688,57.01664,91.80155l-2.78241-4.65576L35.00785,85.84287,47.74845,71.516l-4.68353-18.4837,17.65423,7.55859L77.004,50.47642l-.035.3681C89.77647,34.0659,112.90336,26.77634,124.9152,27.44547c11.9256-.64819,34.80151,6.54132,47.68286,22.98682l-.01611-.1695,16.2832,10.11365,17.6543-7.55859-4.68286,18.483Z"/><path d="M124.79331,9.28629h-.13769a116.74427,116.74427,0,0,0,.1322,233.48847h.09784A116.87814,116.87814,0,0,0,241.53519,125.95542v-.07983A116.87565,116.87565,0,0,0,124.79331,9.28629Zm109.9588,116.63312v.04071A110.08813,110.08813,0,0,1,124.88017,235.99168h-.09156A109.96037,109.96037,0,0,1,124.66343,16.071c.04462,0,.08527-.00079.12988-.00079A110.09228,110.09228,0,0,1,234.75211,125.885Z"/><path d="M125.73863,193.85777H125.712c-4.99652-.02192-10.82574-2.78272-16.41388-7.77381l-1.06738,1.19574c5.88,5.25244,12.08563,8.15729,17.47656,8.18073h.0282c10.93689,0,23.81134-11.36725,32.8075-28.96985l-1.42737-.72937C148.39024,182.83482,136.07768,193.85777,125.73863,193.85777Z"/><path d="M135.16209,174.52262a.78262.78262,0,0,0,.385-.10174c.38189-.21442.77-.40534,1.12371-.57752,1.1034-.54,1.97358-.96722,1.90632-1.8374-.05793-.7403-.77-1.13782-1.91254-1.51032-.9892-1.1629-4.44336-5.06152-6.63135-5.42541a3.99864,3.99864,0,0,0-3.27728,1.06348c-1.094.82952-1.54791.82952-2.64191,0a3.98868,3.98868,0,0,0-3.27887-1.06348c-2.19739.36621-5.67578,4.30011-6.64612,5.44263-1.24346.468-1.99316.83264-2.02368,1.57293-.029.734.619,1.03607,1.43988,1.4195a13.43807,13.43807,0,0,1,1.6778.89215.778.778,0,0,0,.86548-.011c.77942-.529,3.06994-1.92352,4.30163-2.02051a5.01533,5.01533,0,0,1,2.2287.64325,5.16607,5.16607,0,0,0,5.51227,0,5.01778,5.01778,0,0,1,2.22711-.64325c1.23175.09546,3.52307,1.49152,4.30249,2.02051A.78038.78038,0,0,0,135.16209,174.52262Z"/><path d="M125.38572,174.93424c-3.059-1.44928-6.7041-1.23956-8.15881-.10486a1.64825,1.64825,0,0,0-.68244,1.70905c.38739,1.61206,3.31806,2.95959,8.71057,4.00513l.13068.02661.13068-.02661c5.39172-1.04554,8.32318-2.39307,8.7113-4.00513a1.64957,1.64957,0,0,0-.68237-1.70905C132.09135,173.69309,128.44468,173.48338,125.38572,174.93424Z"/><path d="M188.86515,60.37644,172.582,50.26279l.01611.1695c-12.88135-16.4455-35.75726-23.635-47.68286-22.98682C112.90336,26.77634,89.77647,34.0659,76.969,50.84452l.035-.3681L60.71915,60.59086,43.06492,53.03227,47.74845,71.516l-12.7406,14.3269,19.22638,1.30292,2.78241,4.65576c-6.73334,26.46533-3.79791,72.80066,54.03461,132.8476-35.89246-64.45874,4.35254-86.74365,20.19043-112.28064l10.64624-6.73767c-2.33277,15.09082-14.97571,31.6214-20.06824,38.679,17.66119-14.35772,31.77045-25.11529,42.13275-34.65307l.60217.25177-.16992-.64722c7.15723-6.63092,12.48291-12.68414,15.90808-18.96259l.47278,1.16437c-7.36548,15.24719-25.16974,28.94428-27.63977,33.38849,8.88147,7.44708,11.963,9.486,11.54456,28.15491,13.00634-18.77277,18.96045-35.66626,20.87988-49.76007l.02039.05035,9.78027-16.36621L214.578,85.62846,201.83659,71.30082l4.68286-18.483ZM109.8787,90.86906l-.09619.07837.50665,5.867.3111,3.6026-.53357-.33771-7.5564-4.78253-8.83258,3.69367,2.411-9.18555-2.664-3.04743-3.58386-4.0996,6.74646-.39991,2.78577-.1651,4.97149-8.15881,3.51367,8.87018.07367.017,9.21827,2.1264ZM48.488,80.33061l6.3097-7.09455-2.33277-9.20593,8.80054,3.768,8.13379-5.05133-.45752,4.81488L68.5,72.20933l7.316,6.06158L66.50614,80.3361l-3.59033,8.84039-3.31775-5.55194-1.58258-2.64838ZM138.13889,100.417l.817-9.4696-2.39722-1.952-4.97125-4.04785,9.292-2.14337,3.5152-8.871,4.9707,8.1596,9.533.565-6.24945,7.147,2.41181,9.18555-8.83179-3.69367-4.16,2.63288Zm53.43073-19.656-4.90027,8.201-.57129-1.40673-2.33032-5.73767-.04346-.10682-.64526-1.58917-9.31079-2.06592,7.31518-6.06164-.54675-5.75952-.35156-3.703,8.13537,5.05213,8.79895-3.768-2.33191,9.20514,6.30884,7.09534Z"/></svg>