<svg id="Layer_1" data-name="Layer 1" xmlns="http://www.w3.org/2000/svg" viewBox="0 0 266.71127 247.89699"><defs><style>.cls-1{fill:none;}.cls-2{fill:#fff;}</style></defs><path class="cls-1" d="M130.792,9.02782l-.07264.00049a61.48135,61.48135,0,0,0,.07,122.96265h.05121a61.55279,61.55279,0,0,0,61.43188-61.52118v-.042A61.55515,61.55515,0,0,0,130.792,9.02782Zm.52679,100.30121H131.303c-3.01422-.01312-6.48388-1.63727-9.7716-4.574l.5968-.66858c3.12451,2.79065,6.38373,4.33429,9.17743,4.34649h.01489c5.78076,0,12.665-6.16314,17.54358-15.70941l.798.40778C144.63222,102.97332,137.43379,109.329,131.31874,109.329ZM133.937,96.41631a2.80615,2.80615,0,0,0-1.24524.35968,2.88833,2.88833,0,0,1-3.082,0,2.80462,2.80462,0,0,0-1.24609-.35968,7.26919,7.26919,0,0,0-2.40515,1.12976.435.435,0,0,1-.48395.00611,7.51,7.51,0,0,0-.93805-.49878c-.459-.21442-.82129-.3833-.80511-.7937.01709-.41388.43628-.6178,1.13153-.87946.54254-.63879,2.48736-2.83832,3.716-3.04309a2.23029,2.23029,0,0,1,1.83331.59461c.61164.4638.86542.4638,1.47712,0a2.23574,2.23574,0,0,1,1.83239-.59461c1.22339.20349,3.15467,2.3833,3.70771,3.03345.63885.20831,1.037.43054,1.06939.84448.0376.48651-.449.72546-1.06585,1.02734-.19782.09626-.4148.203-.62836.32288a.437.437,0,0,1-.462-.01923A7.25467,7.25467,0,0,0,133.937,96.41631Zm2.12994,2.333c-.217.90131-1.856,1.65479-4.87067,2.23932l-.07306.01489-.07312-.01489c-3.01507-.58453-4.65362-1.338-4.87024-2.23932a.92172.92172,0,0,1,.38153-.95563c.81342-.6344,2.85145-.75164,4.56183.05866,1.71033-.81122,3.74927-.694,4.5622-.05866A.92236.92236,0,0,1,136.06691,98.74932Zm44.92572-50.82989-10.75037.72808-5.46838,9.1507-.01141-.02808c-1.07319,7.88019-4.40223,17.32569-11.67438,27.8219.23395-10.43817-1.489-11.57818-6.45484-15.74206,1.381-2.48487,11.33576-10.143,15.454-18.66815l-.27514-.67768c-1.91437,3.51837-4.87409,6.91284-8.884,10.62818l.09521.36267-.33966-.142c-5.79419,5.33374-13.67719,11.34692-23.55438,19.37659,2.8468-3.94532,9.90484-13.184,11.21106-21.62024l-5.94306,3.76117c-8.85522,14.27832-31.35711,26.73828-11.28888,62.77862-32.33551-33.57367-33.9768-59.48083-30.212-74.2782l-1.55567-2.60309L80.59083,48.0393l7.1236-8.01044L85.09572,29.69415l9.87091,4.22619,9.10522-5.65521-.01953.20581c7.161-9.38135,20.09168-13.45709,26.80774-13.08295,6.66791-.36242,19.45831,3.65747,26.66052,12.85254l-.009-.09485,9.10431,5.65479,9.87091-4.2262L173.86861,39.9085Z"/><polygon class="cls-2" points="121.323 46.34 119.359 41.381 116.579 45.943 115.021 46.035 111.249 46.259 113.253 48.551 114.743 50.255 113.394 55.39 118.333 53.325 122.558 55.999 122.856 56.188 122.682 54.173 122.399 50.893 122.453 50.85 126.519 47.539 121.364 46.35 121.323 46.34"/><polygon class="cls-2" points="142.777 53.325 147.715 55.39 146.367 50.255 149.861 46.259 144.531 45.943 141.751 41.38 139.786 46.34 134.591 47.539 137.37 49.802 138.711 50.893 138.254 56.188 140.446 54.801 142.777 53.325"/><polygon class="cls-2" points="94.34 46.799 96.195 49.903 98.202 44.96 103.408 43.806 99.317 40.416 99.564 37.818 99.82 35.126 95.272 37.95 90.351 35.843 91.656 40.991 88.128 44.957 93.455 45.318 94.34 46.799"/><polygon class="cls-2" points="171.231 35.723 166.311 37.83 161.763 35.005 161.959 37.076 162.265 40.296 158.175 43.685 163.381 44.84 163.738 45.719 163.766 45.789 165.069 48.997 165.388 49.783 168.128 45.198 173.455 44.837 169.927 40.87 171.231 35.723"/><path d="M131.32051,108.43291h-.01489c-2.7937-.0122-6.05292-1.55584-9.17743-4.34649l-.5968.66858c3.28772,2.93676,6.75738,4.56091,9.7716,4.574h.01575c6.115,0,13.31348-6.35571,18.34338-16.19775l-.798-.40778C143.98549,102.26977,137.10127,108.43291,131.32051,108.43291Z"/><path d="M136.58937,97.62218a.43708.43708,0,0,0,.21521-.05688c.21356-.11987.43054-.22662.62836-.32288.61688-.30188,1.10345-.54083,1.06585-1.02734-.03241-.41394-.43054-.63617-1.06939-.84448-.553-.65015-2.48432-2.83-3.70771-3.03345a2.23574,2.23574,0,0,0-1.83239.59461c-.6117.4638-.86548.4638-1.47712,0a2.23029,2.23029,0,0,0-1.83331-.59461c-1.22864.20477-3.17346,2.4043-3.716,3.04309-.69525.26166-1.11444.46558-1.13153.87946-.01618.4104.34613.57928.80511.7937a7.51,7.51,0,0,1,.93805.49878.435.435,0,0,0,.48395-.00611,7.26919,7.26919,0,0,1,2.40515-1.12976,2.80462,2.80462,0,0,1,1.24609.35968,2.88833,2.88833,0,0,0,3.082,0,2.80615,2.80615,0,0,1,1.24524-.35968,7.25467,7.25467,0,0,1,2.40557,1.12976A.43674.43674,0,0,0,136.58937,97.62218Z"/><path d="M131.12318,97.85235c-1.71038-.8103-3.74841-.69306-4.56183-.05866a.92172.92172,0,0,0-.38153.95563c.21662.90131,1.85517,1.65479,4.87024,2.23932l.07312.01489.07306-.01489c3.01465-.58453,4.65363-1.338,4.87067-2.23932a.92236.92236,0,0,0-.38153-.95563C134.87245,97.15838,132.83351,97.04113,131.12318,97.85235Z"/><path d="M130.792,5.23479h-.077a65.27441,65.27441,0,0,0,.074,130.54877h.05469A65.34932,65.34932,0,0,0,196.065,70.46716v-.04462A65.348,65.348,0,0,0,130.792,5.23479Zm61.48046,65.21228v.02271A61.55279,61.55279,0,0,1,130.84053,131.991h-.05121a61.48135,61.48135,0,0,1-.07-122.96265l.07264-.00049a61.55515,61.55515,0,0,1,61.48046,61.4Z"/><path d="M166.61592,33.80047l-9.10431-5.65479.009.09485c-7.20221-9.19507-19.99261-13.215-26.66052-12.85254-6.71606-.37414-19.64679,3.7016-26.80774,13.08295l.01953-.20581-9.10522,5.65521-9.87091-4.22619,2.61871,10.33471-7.1236,8.01044,10.74988.72851,1.55567,2.60309c-3.76477,14.79737-2.12348,40.70453,30.212,74.2782-20.06823-36.04034,2.43366-48.5003,11.28888-62.77862l5.94306-3.76117c-1.30622,8.43628-8.36426,17.67492-11.21106,21.62024,9.87719-8.02967,17.76019-14.04285,23.55438-19.37659l.33966.142-.09521-.36267c4.00994-3.71534,6.96966-7.10981,8.884-10.62818l.27514.67768C157.969,59.707,148.0143,67.3651,146.63325,69.85c4.96582,4.16388,6.68879,5.30389,6.45484,15.74206,7.27215-10.49621,10.60119-19.94171,11.67438-27.8219l.01141.02808,5.46838-9.1507,10.75037-.72808-7.124-8.01093,2.61822-10.33423ZM122.45283,50.84966l-.05377.04377.28327,3.28.174,2.01465-.29834-.18884-4.22492-2.674-4.93854,2.06518,1.34809-5.13586-1.4895-1.70386-2.00385-2.29217,3.7721-.22357,1.55755-.09235,2.77973-4.56177,1.96453,4.95954.04126.00952,5.15412,1.18884ZM88.12788,44.95727l3.5279-3.96674-1.30433-5.14721,4.9206,2.10675,4.54779-2.82428-.2558,2.69207-.247,2.59864,4.09058,3.38922-5.20545,1.15466-2.00744,4.94287-1.855-3.10425-.88483-1.48071ZM138.25374,56.188l.45678-5.29461L137.37019,49.802l-2.77954-2.26324,5.19538-1.19836,1.96539-4.96,2.7793,4.5622,5.33007.31592-3.4942,3.996,1.34851,5.13586-4.93805-2.06518L140.446,54.80059Zm29.87433-10.99011-2.73987,4.58545-.31934-.78638-1.30292-3.20813-.02819-.0694-.357-.879-5.20581-1.15509L162.265,40.2962,161.9593,37.076l-.19653-2.07056,4.54865,2.82477,4.91967-2.10675-1.30383,5.14679,3.52741,3.96716Z"/><path d="M184.93071,157.39275h2.95564a3.93045,3.93045,0,0,1,2.59844.76,2.5674,2.5674,0,0,1,.90188,2.07261,2.62073,2.62073,0,0,1-.90949,2.10337,4.01291,4.01291,0,0,1-2.6679.77553h-2.04946V168.117h-.82911Zm.82911.69088v4.32946h1.99588a3.17309,3.17309,0,0,0,2.04185-.56784,2.17271,2.17271,0,0,0,.01554-3.17821,2.93211,2.93211,0,0,0-1.95753-.58339Z"/><path d="M194.21793,157.39275h2.74828a4.0745,4.0745,0,0,1,2.64078.74842,2.47763,2.47763,0,0,1,.91345,2.02271,2.678,2.678,0,0,1-2.04185,2.61,4.81373,4.81373,0,0,1,1.42771,1.6354l2.42581,3.70768h-.98125l-1.86822-2.93909a7.17708,7.17708,0,0,0-1.45779-1.83946,2.66155,2.66155,0,0,0-1.52727-.36477H195.047V168.117h-.82911Zm.82911.69088v4.19912H196.828a3.36794,3.36794,0,0,0,2.07658-.549,2.0189,2.0189,0,0,0-.01155-3.0975,3.41853,3.41853,0,0,0-2.09547-.55263Z"/><path d="M209.47034,157.25451a5.58393,5.58393,0,0,1,4.03411,1.6007,5.42283,5.42283,0,0,1,0,7.79933,5.86425,5.86425,0,0,1-8.05266,0,5.441,5.441,0,0,1,0-7.79933A5.548,5.548,0,0,1,209.47034,157.25451Zm.03076,10.2331a4.61013,4.61013,0,0,0,3.3816-1.3705,4.79063,4.79063,0,0,0,0-6.7245,4.61009,4.61009,0,0,0-3.3816-1.3705,4.67,4.67,0,0,0-3.40443,1.3705,4.75344,4.75344,0,0,0,0,6.7245A4.67,4.67,0,0,0,209.5011,167.48761Z"/><path d="M219.32611,157.39275V168.117a3.472,3.472,0,0,1-.66806,2.449,2.15009,2.15009,0,0,1-1.58148.67532,4.69658,4.69658,0,0,1-.49871-.03076l-.07706-.78281a2.16834,2.16834,0,0,0,.49145.06152q1.50462,0,1.50478-2.14967V157.39275Z"/><path d="M228.84351,157.39275v.69088H223.8232v4.29107h4.89v.6988h-4.89v4.35259h5.14333v.69088h-5.97244V157.39275Z"/><path d="M240.87173,158.15275v.90583a8.11234,8.11234,0,0,0-3.82309-1.03647,4.5072,4.5072,0,0,0-3.33926,1.35892,4.63162,4.63162,0,0,0-1.34337,3.39285,4.54456,4.54456,0,0,0,1.351,3.38556,4.71242,4.71242,0,0,0,3.44674,1.32817,8.21707,8.21707,0,0,0,3.81551-1.098v.85987a8.07658,8.07658,0,0,1-3.8,1.00571,5.64941,5.64941,0,0,1-4.08006-1.56992,5.49587,5.49587,0,0,1,.0344-7.84927,5.56574,5.56574,0,0,1,3.96893-1.5815A9.0226,9.0226,0,0,1,240.87173,158.15275Z"/><path d="M251.54107,157.39275v.69088h-4.02254V168.117h-.83672V158.08363h-4.02254v-.69088Z"/><path d="M73.44559,168.86955h-3.584v-6.885l-3.23245,3.98687h-.28288l-3.241-3.98687v6.885H59.62414V156.98587h3.24958l3.65257,4.45855,3.66971-4.45855h3.24958Z"/><path d="M89.49619,168.86955H85.82647l-.96888-2.4092H79.696l-.986,2.4092h-3.6697l5.2559-11.88368h3.96123ZM84.03448,164.394,82.294,160.05541,80.5363,164.394Z"/><path d="M94.675,168.86955H91.09129V156.98587h3.58378Z"/><path d="M110.57986,168.86955h-3.18965l-6.1645-6.61926v6.61926H97.676V156.98587h3.18091l6.14767,6.58487v-6.58487h3.57526Z"/><path d="M122.07758,164.05944h-4.93v4.81011h-3.584V156.98587h8.514v2.38366h-4.93v2.29785h4.93Z"/><path d="M135.99342,168.86955h-3.84975l-.9346-2.10917a8.77445,8.77445,0,0,0-.92608-1.69353,1.999,1.999,0,0,0-.8015-.68587,2.85148,2.85148,0,0,0-1.00764-.14991H128.071v4.63848h-3.584V156.98587h6.09625a4.43378,4.43378,0,0,1,2.41772.60018,3.60383,3.60383,0,0,1,1.359,1.45757,3.74088,3.74088,0,0,1,.41587,1.62911,3.0814,3.0814,0,0,1-.34709,1.522,2.79253,2.79253,0,0,1-.73315.90458,7.28937,7.28937,0,0,1-.866.54,3.42036,3.42036,0,0,1,.94737.79321,9.96,9.96,0,0,1,1.01616,1.85619Zm-4.87017-8.12825a1.23083,1.23083,0,0,0-.54-1.14893,3.55782,3.55782,0,0,0-1.75786-.3258h-.75445v2.86362h.77169a3.86915,3.86915,0,0,0,1.79616-.28715,1.17289,1.17289,0,0,0,.48451-1.10174Z"/><path d="M150.6723,168.86955h-3.66982l-.96888-2.4092h-5.16143l-.98612,2.4092h-3.6696l5.25574-11.88368h3.96135Zm-5.46174-4.47558L143.47,160.05541l-1.75761,4.33856Z"/><path d="M166.0711,168.86955h-3.58378v-6.885l-3.23245,3.98687h-.283l-3.24095-3.98687v6.885h-3.48115V156.98587h3.24969l3.65256,4.45855,3.66961-4.45855h3.24947Z"/><path d="M178.03194,168.86955H169.072V156.98587h8.81427v2.38366h-5.23025v2.17774h4.99v2.39233h-4.99v2.53784H178.032Z"/><path d="M15.12977,157.38114a6.23757,6.23757,0,0,1,4.50571,1.78764,6.05772,6.05772,0,0,1,0,8.71128,6.55009,6.55009,0,0,1-8.99418,0,6.07721,6.07721,0,0,1,0-8.71128A6.19769,6.19769,0,0,1,15.12977,157.38114Zm.03439,11.42926a5.1497,5.1497,0,0,0,3.77681-1.53051,5.35146,5.35146,0,0,0,0-7.511,5.14967,5.14967,0,0,0-3.77681-1.5304,5.2177,5.2177,0,0,0-3.80269,1.5304,5.3096,5.3096,0,0,0,0,7.511A5.21776,5.21776,0,0,0,15.16416,168.8104Z"/><path d="M23.73821,157.53541h3.301a4.38911,4.38911,0,0,1,2.90227.84886,2.86743,2.86743,0,0,1,1.00753,2.315,2.92609,2.92609,0,0,1-1.016,2.34928,4.4809,4.4809,0,0,1-2.97947.866H24.66418v5.59887h-.926Zm.926.7717v4.83577h2.22927a3.54388,3.54388,0,0,0,2.2807-.63446,2.42706,2.42706,0,0,0,.01714-3.54972,3.27517,3.27517,0,0,0-2.18637-.65159Z"/><path d="M39.2572,157.53541v.7717H33.64973v4.79283h5.46171v.78032H33.64973v4.86143h5.7446v.77173H32.72376v-11.978Z"/><path d="M52.09262,157.53541v11.978h-.76206l-9.10667-10.4689v10.4689h-.92611v-11.978h.78469l9.08423,10.469v-10.469Z"/><path d="M27.08569,194.69335H9.50126V182.97072H57.38311v11.72263H39.79869V240.7596h-12.713Z"/><path d="M54.98689,218.88247v-.16514c0-12.63115,8.998-23.03313,21.87713-23.03313,14.7775,0,21.54686,11.47516,21.54686,24.02349,0,.99085-.08233,2.14684-.16467,3.30235H67.45241c1.2388,5.69665,5.20123,8.66823,10.81507,8.66823,4.21038,0,7.26526-1.32065,10.73179-4.54018l7.18292,6.35626c-4.12805,5.1189-10.07218,8.2561-18.08033,8.2561C64.81111,241.75045,54.98689,232.42165,54.98689,218.88247Zm31.20545-3.715c-.74289-5.61384-4.04476-9.41161-9.32832-9.41161-5.20123,0-8.58542,3.715-9.57627,9.41161Z"/><path d="M104.26884,234.89781l5.36589-8.25514c4.78862,3.46748,9.82423,5.28356,13.95228,5.28356,3.63214,0,5.28356-1.32113,5.28356-3.30235v-.16514c0-2.72411-4.29272-3.63215-9.16366-5.11842-6.19208-1.81607-13.20938-4.7058-13.20938-13.29123V209.884c0-8.99852,7.26525-14.03461,16.181-14.03461a30.62487,30.62487,0,0,1,16.51125,5.11842l-4.78766,8.66824c-4.376-2.559-8.75105-4.12757-11.97058-4.12757-3.05488,0-4.623,1.32065-4.623,3.05439v.16514c0,2.47664,4.20943,3.63263,8.998,5.28356,6.19208,2.064,13.374,5.03609,13.374,13.12657v.16514c0,9.82422-7.34758,14.2816-16.92386,14.2816A30.9978,30.9978,0,0,1,104.26884,234.89781Z"/><path d="M144.884,234.89781l5.3659-8.25514c4.78861,3.46748,9.82422,5.28356,13.95227,5.28356,3.63215,0,5.28356-1.32113,5.28356-3.30235v-.16514c0-2.72411-4.29271-3.63215-9.16366-5.11842-6.19207-1.81607-13.20938-4.7058-13.20938-13.29123V209.884c0-8.99852,7.26526-14.03461,16.181-14.03461a30.62485,30.62485,0,0,1,16.51125,5.11842l-4.78766,8.66824c-4.376-2.559-8.751-4.12757-11.97058-4.12757-3.05487,0-4.623,1.32065-4.623,3.05439v.16514c0,2.47664,4.20942,3.63263,8.998,5.28356,6.19207,2.064,13.374,5.03609,13.374,13.12657v.16514c0,9.82422-7.34759,14.2816-16.92386,14.2816A30.99783,30.99783,0,0,1,144.884,234.89781Z"/><path d="M190.03981,180.49409h13.20842V191.639H190.03981Zm.33028,16.01582H202.918V240.7596H190.37009Z"/><path d="M212.07874,228.04613V227.881c0-9.65908,7.34758-14.11693,17.83237-14.11693a31.44514,31.44514,0,0,1,10.81507,1.81607v-.74289c0-5.20123-3.21953-8.09049-9.49394-8.09049a32.55584,32.55584,0,0,0-12.21853,2.39383l-3.1372-9.57627a39.04518,39.04518,0,0,1,17.17181-3.54982c6.85168,0,11.805,1.81608,14.94216,4.95328,3.30282,3.30235,4.78862,8.17281,4.78862,14.11694v25.6749H240.64385V235.971c-3.05487,3.38515-7.26525,5.61384-13.374,5.61384C218.93138,241.58483,212.07874,236.79717,212.07874,228.04613Zm28.81211-2.88974v-2.22868a19.454,19.454,0,0,0-8.00815-1.65141c-5.36589,0-8.66776,2.14683-8.66776,6.10926v.16514c0,3.38468,2.80692,5.36637,6.85168,5.36637C236.92842,232.91707,240.89085,229.69706,240.89085,225.15639Z"/></svg>