<?xml version="1.0" encoding="UTF-8" standalone="no"?>
<svg
   id="a"
   viewBox="0 0 624.24 469.28"
   version="1.1"
   xmlns="http://www.w3.org/2000/svg"
   xmlns:svg="http://www.w3.org/2000/svg">
  <defs
     id="defs4">
    <style
       id="style2">.b,.c{fill:#fff;}.c{font-family:OpenSans-Bold, Open Sans;font-size:27px;letter-spacing:.12em;}.d{opacity:.9;}</style>
  </defs>
  <g
     id="g252">
    <path
       id="polygon6"
       class="b"
       style="fill:#ffffff"
       d="m 366.42,243.06 1.11,3.16 h 0.14 l 1.92,-5.34 z" />
    <path
       class="b"
       d="m 242.55,69.05 c -0.06,0.68 -0.23,1.36 -0.49,2.01 0.26,-0.65 0.42,-1.32 0.49,-2.01 z"
       id="path8" />
    <path
       class="b"
       d="m 251.47,61.29 v 0 c 0.26,-0.02 0.52,0 0.78,0.02 -0.26,-0.03 -0.51,-0.04 -0.77,-0.02 z"
       id="path10" />
    <path
       class="b"
       d="m 331.29,238.88 0.11,-1.08 c -0.21,0.1 -0.4,0.2 -0.62,0.29 l 0.5,0.79 z"
       id="path12" />
    <path
       class="b"
       d="m 230.28,63.3 c -0.08,0.08 -0.15,0.17 -0.23,0.26 0.08,-0.09 0.15,-0.18 0.24,-0.26 v 0 z"
       id="path14" />
    <path
       class="b"
       d="m 343.14,127.72 c -3.46,0.48 -6.4,1.85 -8.73,3.86 2.33,-2.01 5.27,-3.38 8.73,-3.86 z"
       id="path16" />
    <path
       class="b"
       d="m 320.39,223.77 v 11.17 h 3.88 c 2.6,0 4.49,-0.48 5.65,-1.45 1.16,-0.97 1.75,-2.4 1.75,-4.3 0,-1.9 -0.63,-3.32 -1.89,-4.16 -1.26,-0.84 -3.16,-1.26 -5.7,-1.26 z"
       id="path18" />
    <path
       class="b"
       d="m 547.65,6.49 h -83.89 l 37.48,54.35 c 0.59,0.32 1.15,0.71 1.66,1.19 v 0 c 1.28,1.22 2.01,2.79 2.2,4.41 l 4.54,6.58 V 60.06 h 1.11 v 14.5 c 0,0 0,0.05 0,0.08 l 25.33,36.73 c 18.47,2.88 27,18.97 27,36.42 0,0.81 -0.04,1.68 -0.09,2.59 l 48,69.6 V 69.83 c 0,-34.98 -28.36,-63.35 -63.35,-63.35 z m -23.9,68.04 h -8.04 V 60.07 h 7.89 V 61 h -6.77 v 5.78 h 6.59 v 0.94 h -6.59 v 5.87 h 6.92 z m 16.21,-1.14 c -1.57,0.87 -3.32,1.33 -5.12,1.35 -2.05,0.07 -4.03,-0.7 -5.51,-2.12 -2.89,-2.89 -2.89,-7.58 0,-10.47 v 0 c 0,0 0.07,-0.07 0.1,-0.11 1.43,-1.39 3.36,-2.16 5.35,-2.13 1.74,0.03 3.46,0.44 5.03,1.19 v 0 l 0.06,0.03 c 0,0 -0.04,-0.02 -0.06,-0.03 v 1.21 c -1.58,-0.9 -3.35,-1.4 -5.16,-1.45 -1.69,-0.04 -3.31,0.63 -4.49,1.84 -1.21,1.21 -1.87,2.87 -1.81,4.58 -0.07,1.72 0.59,3.39 1.81,4.61 1.24,1.2 2.92,1.85 4.65,1.79 1.81,-0.05 3.58,-0.55 5.14,-1.45 v 1.16 z M 554.21,61 h -5.42 v 13.53 h -1.13 V 61 h -5.44 v -0.93 h 11.99 z"
       id="path20" />
    <path
       class="b"
       d="m 253.64,67.37 c 0.24,-0.11 0.48,-0.25 0.71,-0.41 0.5,-0.46 0.82,-1.04 0.96,-1.65 -0.14,0.61 -0.46,1.19 -0.96,1.65 -0.22,0.16 -0.46,0.29 -0.71,0.41 z"
       id="path22" />
    <path
       class="b"
       d="m 255.2,63.45 c -0.14,-0.4 -0.37,-0.78 -0.68,-1.11 -0.04,-0.06 -0.1,-0.12 -0.16,-0.16 0.06,0.04 0.12,0.1 0.16,0.16 0.31,0.33 0.53,0.71 0.68,1.11 z"
       id="path24" />
    <path
       id="polygon26"
       class="b"
       style="fill:#ffffff"
       d="m 328.33,69.5 -2.35,-5.8 z" />
    <path
       class="b"
       d="m 412.21,229.61 c -0.23,-0.62 -0.56,-1.6 -0.97,-2.94 -0.41,-1.34 -0.7,-2.32 -0.85,-2.94 -0.42,1.92 -1.04,4.01 -1.85,6.28 l -3.08,8.9 h 9.95 z"
       id="path28" />
    <path
       class="b"
       d="m 203.18,141.39 -37.21,25.66 -0.35,0.95 86.27,-59.5 H 226.87 V 91.39 h 49.83 l 14.45,-9.96 -1.06,9.96 h 9.15 v 14.83 l -12.25,14.25 -4.53,42.52 h 16.78 v 17.11 h -18.6 l -4.44,41.7 c 2.67,-2.18 6.18,-3.29 10.57,-3.29 5.08,0 9,1.53 11.77,4.6 2.77,3.07 4.16,7.39 4.16,12.96 0,5.57 -1.39,9.88 -4.17,12.96 -2.78,3.08 -6.72,4.62 -11.81,4.62 -5.09,0 -9.11,-1.53 -11.88,-4.59 -0.5,-0.56 -0.94,-1.17 -1.35,-1.81 l -3.14,29.48 H 414.8 l 39.89,-27.51 -14.35,-23.25 h -0.19 l 0.12,1.52 c 0.22,2.9 0.33,5.54 0.33,7.94 v 17.75 h -5.07 v -34.15 h 6.77 l 16.75,27.07 h 0.14 c -0.03,-0.36 -0.09,-1.66 -0.19,-3.91 -0.1,-2.25 -0.14,-4.01 -0.14,-5.27 v -17.89 h 5.12 v 23.78 l 20.01,-13.8 v -5.19 h -10.04 v -4.79 h 10.45 l -26.51,-38.44 h -0.9 L 385.34,230 v 23.18 h -5.37 v -16.89 c 0,-0.76 0.01,-1.64 0.03,-2.6 l -4.12,2.84 -6,16.65 h -4.93 l -2.55,-7.35 -7.14,4.92 v 2.43 h -3.52 l -23.69,16.34 2.39,-22.46 -4.51,-7.53 h -5.51 v 13.64 h -5.58 v -34.15 h 9.65 c 3.75,0 6.66,0.6 8.75,1.8 l 4.27,-40.1 c -16.66,-3.53 -28.23,-17.41 -28.23,-34.23 v -0.25 c 0,-19.14 15.12,-34.74 35.67,-35.33 l 3.77,-35.4 h -1.97 V 59.48 h 3.68 L 353.64,29.39 337.83,6.46 H 302.65 L 172.18,96.44 Z m 204.19,77.52 h 6.07 l 12.78,34.29 h -5.93 l -3.41,-9.48 h -13.06 l -3.34,9.48 h -5.89 z M 337.84,59.51 h 4.82 v 16.03 h -4.82 z m -14.55,0 h 5.41 l 7,16.03 h -4.94 l -1.32,-3.25 h -6.96 l -1.33,3.25 h -4.94 l 7.09,-16.03 z m -27.88,0 h 4.38 l 4.93,6.01 4.94,-6.01 h 4.39 v 16.03 h -4.84 v -9.29 l -4.35,5.38 h -0.39 l -4.37,-5.38 v 9.29 h -4.69 z m -24.71,0.74 h 1.06 L 284,74.37 V 60.25 h 1.25 v 16.16 h -1.03 L 271.95,62.27 v 14.14 h -1.25 z m -11.57,0 h 8.81 v 1.04 h -7.57 v 6.46 h 7.37 v 1.04 h -7.37 v 6.56 h 7.76 v 1.05 h -9 V 60.24 Z m -12.12,0 h 4.45 c 1.4,-0.09 2.78,0.32 3.91,1.15 0.11,0.1 0.22,0.21 0.32,0.33 1.53,1.76 1.35,4.43 -0.41,5.96 -1.16,0.86 -2.58,1.27 -4.02,1.17 h -3.09 v 7.52 h -1.24 L 247,60.25 Z m -17.81,2.41 0.16,-0.16 c 1.61,-1.59 3.79,-2.45 6.05,-2.41 v -0.04 c 2.27,-0.06 4.46,0.81 6.07,2.41 3.26,3.13 3.37,8.3 0.24,11.56 -0.01,0 -0.03,0.02 -0.04,0.04 l -0.2,0.2 c -3.4,3.21 -8.71,3.21 -12.12,0 -3.24,-3.16 -3.31,-8.35 -0.16,-11.59 z"
       id="path30" />
    <path
       class="b"
       d="m 286.71,248.91 c 3.32,0 5.82,-1.08 7.51,-3.22 1.69,-2.15 2.53,-5.35 2.53,-9.6 0,-4.25 -0.84,-7.37 -2.51,-9.53 -1.67,-2.16 -4.17,-3.25 -7.49,-3.25 -3.32,0 -5.88,1.08 -7.58,3.25 -1.71,2.17 -2.56,5.34 -2.56,9.53 0,4.19 0.85,7.39 2.55,9.57 1.7,2.17 4.21,3.26 7.54,3.26 z"
       id="path32" />
    <path
       id="polygon34"
       class="b"
       style="fill:#ffffff"
       d="m 230.29,73.44 -0.02,-0.02 z" />
    <path
       id="polygon36"
       class="b"
       style="fill:#ffffff"
       d="m 279.15,341.25 h 42.1 l 30.41,-20.97 H 265.7 l -0.14,1.28 z" />
    <path
       id="polygon38"
       class="b"
       style="fill:#ffffff"
       d="M 108.69,276.75 11,135.1 v 187.71 18.44 H 153.17 L 138.71,320.28 H 34.7 v -43.53 z" />
    <path
       class="b"
       d="M 74.35,6.49 C 39.37,6.49 11,34.85 11,69.84 v 40.84 L 162.08,6.49 Z"
       id="path40" />
    <path
       id="polygon42"
       class="b"
       style="fill:#ffffff"
       d="m 492.2,320.28 -30.41,20.97 H 611 v -102.9 l -55.67,38.4 h 32.91 v 43.53 z" />
    <path
       class="b"
       d="m 328.74,141.46 c 0.16,-0.73 0.35,-1.45 0.58,-2.14 -0.23,0.7 -0.43,1.41 -0.58,2.14 z"
       id="path44" />
    <path
       class="b"
       d="m 329.31,152.72 c -0.34,-1.02 -0.61,-2.07 -0.78,-3.15 0.18,1.08 0.44,2.13 0.78,3.15 z"
       id="path46" />
    <path
       class="b"
       d="m 328.26,146.02 v 0 c 0,-1.56 0.16,-3.09 0.47,-4.55 -0.31,1.46 -0.47,2.99 -0.47,4.55 z"
       id="path48" />
    <path
       class="b"
       d="m 332.28,158.29 c -1.28,-1.65 -2.29,-3.54 -2.97,-5.57 0.69,2.03 1.69,3.91 2.97,5.57 z"
       id="path50" />
    <path
       class="b"
       d="m 468.18,66.78 c 0.36,0.03 0.71,0 1.06,-0.07 -0.35,0.06 -0.7,0.1 -1.06,0.07 z"
       id="path52" />
    <path
       class="b"
       d="m 471.11,61.89 c 0,0 0.02,0.03 0.03,0.04 v 0 c 0,0 -0.02,-0.02 -0.03,-0.04 l -0.14,-0.16 c -0.76,-0.56 -1.7,-0.84 -2.64,-0.78 v 0 c 0.95,-0.06 1.88,0.22 2.64,0.78 z"
       id="path54" />
    <path
       class="b"
       d="m 470.94,66.02 c -0.4,0.28 -0.84,0.5 -1.31,0.63 0.47,-0.13 0.91,-0.34 1.31,-0.63 z"
       id="path56" />
    <path
       class="b"
       d="m 470.94,66.02 v 0 c 0.1,-0.09 0.18,-0.19 0.26,-0.29 -0.08,0.1 -0.17,0.2 -0.27,0.29 v 0 z"
       id="path58" />
    <path
       class="b"
       d="m 391.18,66.06 c 0.23,-0.17 0.4,-0.39 0.52,-0.64 -0.11,0.25 -0.29,0.47 -0.52,0.64 z"
       id="path60" />
    <g
       class="d"
       id="g64">
      <path
         class="b"
         d="m 562.84,152.86 h -47.27 c 1.9,8.74 7.98,13.31 16.6,13.31 6.46,0 11.15,-2.03 16.47,-6.97 l 11.03,9.76 c -6.34,7.86 -15.46,12.67 -27.75,12.67 -20.4,0 -35.48,-14.32 -35.48,-35.1 v -0.25 c 0,-19.39 13.81,-35.36 33.58,-35.36 2.14,0 4.16,0.16 6.08,0.46 L 510.77,74.65 c 0.1,1.14 -0.22,2.27 -0.9,3.19 -0.55,0.59 -1.33,0.92 -2.13,0.92 -0.22,0 -0.44,0 -0.67,0 l -0.1,-1.05 c 0.21,0.05 0.43,0.07 0.65,0.07 1.36,0 2.03,-0.96 2.03,-2.9 v -1.86 l -4.54,-6.58 c 0.24,2.06 -0.4,4.22 -1.95,5.84 -0.03,0.03 -0.06,0.06 -0.08,0.09 l -0.18,0.18 c -3.05,2.88 -7.81,2.88 -10.86,0 -2.9,-2.82 -2.97,-7.46 -0.15,-10.37 v 0 l 0.14,-0.15 c 2.54,-2.39 6.26,-2.79 9.2,-1.19 L 463.77,6.49 H 337.8 l 15.81,22.93 -3.21,30.09 h 0.61 l 8.29,8.88 v -8.88 h 4.81 v 16.03 h -4.29 l -8.32,-8.93 v 8.93 h -2.81 l -3.77,35.4 c 0.4,-0.01 0.8,-0.03 1.21,-0.03 21.04,0 36.62,15.59 36.62,35.1 v 0.25 c 0,19.52 -15.71,35.36 -36.88,35.36 -2.91,0 -5.72,-0.31 -8.39,-0.88 l -4.27,40.1 c 0.37,0.21 0.72,0.43 1.03,0.68 2.12,1.65 3.18,4.14 3.18,7.47 0,4.04 -2.02,6.96 -6.02,8.8 l -0.11,1.08 9.15,14.33 h -6.35 l -3.67,-6.12 -2.39,22.46 23.69,-16.34 h -1.54 v -34.15 h 7.87 l 8.38,24.01 3.16,-2.18 7.85,-21.83 h 7.9 v 10.97 l 71.65,-49.41 h -4.39 l -13.05,-41.69 -13.31,41.69 H 409.01 L 388.1,112.18 h 19.52 l 10.9,41.19 12.8,-41.44 h 16.6 L 460.85,153.5 472,112.19 h 19.14 l -21.16,68.43 h -12.07 l 26.51,38.44 h 15.22 v 4.79 H 489.6 v 29.36 h -5.58 v -24.18 l -20.01,13.8 v 10.37 h -6.84 l -2.45,-3.97 -39.89,27.51 h 140.54 l 55.67,-38.4 v -18.37 l -48,-69.6 c -0.05,0.81 -0.11,1.64 -0.16,2.48 z M 379.62,62.73 h -6.65 v 3.1 h 6.65 v 3.22 h -6.65 v 6.49 h -4.83 V 59.51 h 11.48 z m 13.58,12.81 -1.26,-2.9 c -0.34,-0.8 -0.75,-1.57 -1.25,-2.28 -0.27,-0.4 -0.65,-0.72 -1.08,-0.93 -0.44,-0.15 -0.9,-0.22 -1.36,-0.2 h -0.54 v 6.26 h -4.84 V 59.5 h 8.22 c 1.14,-0.05 2.27,0.23 3.26,0.81 0.79,0.47 1.42,1.14 1.84,1.96 0.35,0.68 0.54,1.44 0.55,2.2 0.03,0.71 -0.13,1.42 -0.46,2.06 -0.24,0.47 -0.58,0.88 -0.99,1.22 -0.38,0.27 -0.77,0.51 -1.17,0.73 0.49,0.27 0.92,0.64 1.28,1.07 0.56,0.77 1.04,1.6 1.42,2.48 l 1.58,3.51 h -5.19 z m 20.03,0 -1.3,-3.25 h -6.96 l -1.33,3.25 h -4.96 l 7.09,-16.03 h 5.35 l 7.06,16.03 h -4.94 z m 25.71,0 h -4.82 v -9.29 l -4.37,5.38 h -0.37 L 425,66.25 v 9.29 h -4.69 V 59.51 h 4.4 l 4.91,6.01 4.96,-6.01 h 4.38 v 16.03 z m 16.13,0 H 442.98 V 59.51 h 11.88 v 3.21 h -7.04 v 2.93 h 6.73 v 3.23 h -6.73 v 3.42 h 7.25 v 3.23 z m 16.78,-8.83 c -1.04,0.77 -2.32,1.14 -3.61,1.04 h -2.75 v 6.77 h -1.11 V 60.05 h 3.99 c 1.25,-0.09 2.49,0.28 3.49,1.03 0.83,0.69 1.28,1.73 1.22,2.8 0.05,1.08 -0.4,2.12 -1.22,2.83 z m 14.66,7.81 -2.52,-3.94 c -0.51,-0.93 -1.17,-1.77 -1.96,-2.48 -0.62,-0.36 -1.34,-0.54 -2.06,-0.49 h -2 v 6.94 h -1.11 l 0.04,-14.5 h 3.7 c 1.27,-0.09 2.53,0.27 3.57,1.02 0.82,0.66 1.27,1.67 1.23,2.72 0,1.67 -1.13,3.12 -2.75,3.51 0.8,0.59 1.46,1.35 1.93,2.22 l 3.27,5 z"
         id="path62" />
    </g>
    <path
       class="b"
       d="m 387.71,66.46 h 1.03 c 0.21,0.01 0.42,0.02 0.62,0 -0.21,0 -0.41,0 -0.62,0 z"
       id="path66" />
    <path
       class="b"
       d="m 480.39,60.99 c 0.45,-0.03 0.9,0.02 1.34,0.12 -0.44,-0.1 -0.89,-0.15 -1.34,-0.12 h -2.36 v 0 z"
       id="path68" />
    <path
       id="polygon70"
       class="b"
       style="fill:#ffffff"
       d="m 290.09,91.39 1.06,-9.96 -14.45,9.96 z" />
    <path
       id="polygon72"
       class="b"
       style="fill:#ffffff"
       d="m 137.29,91.1 -6.72,-9.75 -47.61,32.83 7.76,11.25 31.1,-21.44 -6.34,59.48 6.73,9.76 48.6,-33.52 -7.76,-11.26 -32.1,22.14 z" />
    <path
       id="polygon74"
       class="b"
       style="fill:#ffffff"
       d="m 250.45,163 h 32.01 l 4.53,-42.53 z" />
    <g
       class="d"
       id="g78">
      <path
         id="polygon76"
         class="b"
         style="fill:#ffffff"
         d="m 279.15,341.25 -13.59,-19.69 0.14,-1.28 H 138.71 l 14.46,20.97 z" />
    </g>
    <g
       class="d"
       id="g82">
      <path
         id="polygon80"
         class="b"
         style="fill:#ffffff"
         d="M 492.2,320.28 H 351.66 l -30.41,20.97 h 140.54 z" />
    </g>
    <g
       class="d"
       id="g86">
      <path
         class="b"
         d="m 270.34,276.75 3.14,-29.48 c -1.85,-2.89 -2.79,-6.62 -2.79,-11.23 0,-5.64 1.39,-9.97 4.17,-12.99 0.42,-0.45 0.87,-0.86 1.34,-1.24 l 4.44,-41.7 h -55.28 v -14.83 l 48.79,-56.77 H 251.9 l -86.27,59.5 0.35,-0.95 -53.7,37.03 L 49.59,113.18 140.5,50.49 172.19,96.44 302.61,6.49 H 162.08 L 11,110.68 v 24.42 l 97.69,141.65 z m -28.21,-57.69 h 19.27 v 4.72 h -13.73 v 10.67 h 12.87 v 4.74 h -12.87 v 14.02 h -5.54 z m -42.25,0 h 6.77 l 16.75,27.07 h 0.14 c -0.03,-0.36 -0.09,-1.66 -0.19,-3.91 -0.1,-2.25 -0.14,-4.01 -0.14,-5.27 v -17.89 h 5.12 v 34.15 h -6.84 L 204.7,226 h -0.19 l 0.12,1.52 c 0.22,2.9 0.33,5.54 0.33,7.94 v 17.75 h -5.07 v -34.15 z m -39.95,3.99 c 2.78,-3.02 6.75,-4.53 11.9,-4.53 5.15,0 9,1.53 11.77,4.6 2.77,3.07 4.16,7.39 4.16,12.96 0,5.57 -1.39,9.88 -4.17,12.96 -2.78,3.08 -6.72,4.62 -11.81,4.62 -5.09,0 -9.11,-1.53 -11.88,-4.59 -2.76,-3.06 -4.15,-7.41 -4.15,-13.05 0,-5.64 1.39,-9.97 4.17,-12.99 z m -37.32,3.76 c 1.3,-2.66 3.18,-4.7 5.64,-6.12 2.46,-1.42 5.35,-2.13 8.67,-2.13 3.49,0 6.71,0.73 9.67,2.2 l -2.01,4.65 c -1.15,-0.54 -2.37,-1.02 -3.66,-1.44 -1.29,-0.41 -2.64,-0.62 -4.05,-0.62 -3.21,0 -5.73,1.14 -7.57,3.41 -1.84,2.27 -2.76,5.41 -2.76,9.41 0,4 0.88,7.36 2.65,9.51 1.77,2.15 4.33,3.22 7.67,3.22 1.45,0 2.85,-0.14 4.2,-0.43 1.36,-0.29 2.76,-0.66 4.23,-1.11 v 4.79 c -2.68,1.01 -5.72,1.52 -9.11,1.52 -5,0 -8.84,-1.51 -11.52,-4.54 -2.68,-3.03 -4.02,-7.36 -4.02,-13 0,-3.55 0.65,-6.66 1.95,-9.32 z"
         id="path84" />
    </g>
    <g
       class="d"
       id="g90">
      <path
         class="b"
         d="m 171.78,248.91 c 3.32,0 5.82,-1.08 7.51,-3.22 1.69,-2.15 2.53,-5.35 2.53,-9.6 0,-4.25 -0.84,-7.37 -2.51,-9.53 -1.67,-2.16 -4.17,-3.25 -7.49,-3.25 -3.32,0 -5.88,1.08 -7.58,3.25 -1.71,2.17 -2.56,5.34 -2.56,9.53 0,4.19 0.85,7.39 2.55,9.57 1.7,2.17 4.21,3.26 7.54,3.26 z"
         id="path88" />
    </g>
    <path
       class="b"
       d="m 345.88,127.51 c 3.33,0 6.32,0.85 8.86,2.33 -2.54,-1.48 -5.53,-2.33 -8.86,-2.33 -0.95,0 -1.86,0.08 -2.74,0.21 v 0 c 0.88,-0.12 1.79,-0.21 2.74,-0.21 z"
       id="path92" />
    <path
       class="b"
       d="m 492.89,62.76 c -0.06,0.06 -0.12,0.13 -0.18,0.2 0.06,-0.07 0.11,-0.13 0.18,-0.2 z"
       id="path94" />
    <path
       class="b"
       d="m 496.84,73.64 c 0.21,0.02 0.42,0.02 0.64,0.02 v 0 c -0.21,0 -0.43,0 -0.64,-0.02 z"
       id="path96" />
    <path
       class="b"
       d="m 380.3,224.73 h -0.19 l -4.26,11.82 4.12,-2.84 c 0.02,-1.19 0.05,-2.52 0.1,-4.03 0.08,-2.73 0.16,-4.38 0.22,-4.95 z"
       id="path98" />
    <path
       class="b"
       d="m 354.84,224.68 c 0.26,4.24 0.4,8.21 0.4,11.91 v 14.18 l 7.14,-4.92 -7.35,-21.17 z"
       id="path100" />
    <path
       class="b"
       d="M 11,462.39 H 611 V 351.42 H 11 Z M 14.6,355.02 H 607.4 V 458.79 H 14.6 Z"
       id="path102" />
    <path
       class="b"
       d="m 391.43,63.33 c -0.1,-0.11 -0.21,-0.21 -0.34,-0.29 -0.55,-0.26 -1.15,-0.42 -1.75,-0.45 -0.2,-0.01 -0.41,-0.01 -0.61,0 h -1.01 v 3.87 h 1.03 c 0.21,0.01 0.42,0.02 0.62,0 0.62,-0.03 1.23,-0.16 1.81,-0.4 0.23,-0.17 0.4,-0.39 0.52,-0.64 0.11,-0.25 0.16,-0.53 0.14,-0.81 v -0.05 c 0.02,-0.15 0.01,-0.3 -0.02,-0.45 -0.05,-0.29 -0.18,-0.57 -0.38,-0.79 z"
       id="path104" />
    <path
       class="b"
       d="m 483.55,62.08 -0.33,-0.33 c -0.46,-0.3 -0.96,-0.51 -1.49,-0.63 -0.44,-0.1 -0.89,-0.15 -1.34,-0.12 h -2.36 v 5.67 h 2.39 c 0.99,0.06 1.98,-0.2 2.81,-0.74 1.15,-0.97 1.29,-2.69 0.32,-3.84 z"
       id="path106" />
    <path
       class="b"
       d="m 471.73,62.91 c -0.04,-0.13 -0.11,-0.25 -0.17,-0.37 -0.02,-0.05 -0.04,-0.1 -0.07,-0.14 -0.07,-0.12 -0.16,-0.22 -0.24,-0.33 -0.04,-0.05 -0.06,-0.1 -0.1,-0.14 v 0 c 0,0 -0.02,-0.02 -0.03,-0.04 l -0.14,-0.16 c -0.76,-0.56 -1.7,-0.84 -2.64,-0.78 l -2.83,0.04 v 5.8 h 2.68 c 0.36,0.03 0.71,0 1.06,-0.07 0.13,-0.02 0.26,-0.04 0.38,-0.07 0.47,-0.13 0.91,-0.34 1.31,-0.63 0.1,-0.09 0.18,-0.19 0.27,-0.29 0.04,-0.05 0.09,-0.09 0.13,-0.14 0.08,-0.11 0.15,-0.24 0.21,-0.36 0.02,-0.04 0.06,-0.08 0.08,-0.13 0.06,-0.14 0.11,-0.28 0.15,-0.43 0,-0.03 0.03,-0.07 0.04,-0.1 0.03,-0.13 0.05,-0.27 0.06,-0.41 0,-0.05 0.02,-0.09 0.02,-0.14 0,-0.14 0,-0.28 -0.02,-0.42 0,-0.05 0,-0.09 0,-0.14 -0.02,-0.14 -0.06,-0.28 -0.1,-0.42 -0.01,-0.04 -0.02,-0.08 -0.03,-0.13 z"
       id="path108" />
    <path
       class="b"
       d="m 339.3,163.68 3.83,-35.96 c -3.46,0.48 -6.4,1.85 -8.73,3.86 -1.81,1.56 -3.25,3.51 -4.28,5.71 -0.31,0.65 -0.57,1.33 -0.81,2.03 -0.23,0.7 -0.43,1.41 -0.58,2.14 -0.31,1.46 -0.47,2.99 -0.47,4.56 v 0.25 c 0,1.12 0.09,2.23 0.27,3.31 0.18,1.08 0.44,2.13 0.78,3.15 0.69,2.03 1.69,3.91 2.97,5.57 1.82,2.35 4.2,4.22 7.02,5.39 z"
       id="path110" />
    <g
       class="d"
       id="g114">
      <path
         class="b"
         d="m 343.14,127.72 -3.83,35.96 c 2.06,0.86 4.35,1.35 6.83,1.35 11.03,0 17.61,-8.49 17.61,-18.5 v -0.25 c 0,-0.92 -0.07,-1.83 -0.19,-2.72 -0.33,-2.41 -1.08,-4.71 -2.2,-6.77 -0.67,-1.23 -1.45,-2.38 -2.37,-3.41 -0.07,-0.08 -0.12,-0.16 -0.19,-0.23 -1.18,-1.29 -2.54,-2.4 -4.06,-3.29 -2.54,-1.48 -5.53,-2.33 -8.86,-2.33 -0.95,0 -1.86,0.08 -2.74,0.21 z"
         id="path112" />
    </g>
    <path
       id="polygon116"
       class="b"
       style="fill:#ffffff"
       d="m 408.47,63.7 -2.37,5.8 h 4.72 z" />
    <path
       class="b"
       d="m 253.64,67.37 c 0.24,-0.11 0.48,-0.25 0.71,-0.41 0.5,-0.46 0.82,-1.04 0.96,-1.65 0.05,-0.2 0.08,-0.41 0.08,-0.62 0.02,-0.42 -0.05,-0.84 -0.19,-1.24 -0.14,-0.4 -0.37,-0.78 -0.68,-1.11 -0.04,-0.06 -0.1,-0.12 -0.16,-0.16 -0.62,-0.48 -1.35,-0.77 -2.12,-0.86 -0.26,-0.03 -0.51,-0.04 -0.78,-0.02 h -3.21 v 6.52 h 3.02 c 0.82,0.05 1.63,-0.1 2.37,-0.45 z"
       id="path118" />
    <g
       class="d"
       id="g122">
      <path
         class="b"
         d="m 525.82,126.96 c -0.86,0.26 -1.68,0.59 -2.45,1.01 -0.77,0.42 -1.49,0.9 -2.16,1.46 -1.34,1.12 -2.49,2.52 -3.42,4.17 -1.17,2.06 -2,4.49 -2.48,7.23 h 29.02 c -0.1,-0.75 -0.24,-1.47 -0.4,-2.17 -0.86,-3.83 -2.57,-6.98 -5.05,-9.13 -0.09,-0.08 -0.19,-0.15 -0.29,-0.23 -2.28,-1.86 -5.16,-2.91 -8.59,-2.91 -1.5,0 -2.9,0.2 -4.19,0.58 z"
         id="path120" />
    </g>
    <path
       id="polygon124"
       class="b"
       style="fill:#ffffff"
       d="m 323.6,69.5 h 4.73 l -2.35,-5.8 z" />
    <path
       class="b"
       d="m 229.78,72.87 c 0.08,0.1 0.18,0.2 0.27,0.3 0.07,0.08 0.14,0.17 0.22,0.24 v 0 l 0.02,0.02 c 1.43,1.37 3.27,2.06 5.11,2.06 0.46,0 0.92,-0.04 1.37,-0.13 0.45,-0.09 0.9,-0.21 1.34,-0.39 0.43,-0.17 0.86,-0.39 1.26,-0.64 0.4,-0.26 0.78,-0.56 1.14,-0.9 0.35,-0.35 0.65,-0.73 0.91,-1.13 0.26,-0.4 0.47,-0.82 0.65,-1.25 0.26,-0.65 0.42,-1.32 0.49,-2.01 0.02,-0.23 0.03,-0.46 0.03,-0.69 0,-0.46 -0.04,-0.92 -0.13,-1.37 -0.04,-0.23 -0.1,-0.45 -0.16,-0.67 -0.13,-0.44 -0.3,-0.88 -0.52,-1.29 -0.16,-0.31 -0.35,-0.62 -0.56,-0.91 -0.21,-0.29 -0.44,-0.57 -0.7,-0.83 -0.89,-0.86 -1.95,-1.45 -3.06,-1.77 -1.34,-0.39 -2.76,-0.39 -4.1,0 -1.11,0.32 -2.17,0.91 -3.06,1.77 v 0 c -0.08,0.08 -0.16,0.17 -0.24,0.26 -0.09,0.09 -0.18,0.19 -0.26,0.28 -0.07,0.09 -0.13,0.18 -0.2,0.27 -0.08,0.1 -0.16,0.21 -0.23,0.31 -0.06,0.09 -0.11,0.18 -0.16,0.27 -0.07,0.11 -0.14,0.22 -0.2,0.34 -0.05,0.09 -0.08,0.18 -0.13,0.27 -0.06,0.12 -0.12,0.24 -0.17,0.36 -0.04,0.1 -0.07,0.21 -0.11,0.32 -0.04,0.11 -0.08,0.22 -0.12,0.34 -0.03,0.11 -0.05,0.22 -0.08,0.33 -0.03,0.11 -0.06,0.23 -0.08,0.34 -0.02,0.1 -0.03,0.21 -0.05,0.31 -0.02,0.12 -0.04,0.24 -0.05,0.37 -0.01,0.11 -0.01,0.22 -0.02,0.33 0,0.12 -0.02,0.24 -0.02,0.35 0,0.11 0.01,0.22 0.01,0.33 0,0.12 0,0.24 0.02,0.36 0.01,0.11 0.03,0.21 0.05,0.32 0.02,0.12 0.03,0.24 0.05,0.36 0.02,0.1 0.05,0.2 0.07,0.3 0.03,0.12 0.05,0.25 0.09,0.37 0.03,0.11 0.08,0.22 0.11,0.33 0.04,0.11 0.07,0.22 0.11,0.33 0.04,0.11 0.1,0.22 0.15,0.33 0.05,0.1 0.09,0.21 0.14,0.31 0.05,0.1 0.11,0.19 0.17,0.28 0.06,0.11 0.12,0.22 0.19,0.33 0.07,0.1 0.15,0.2 0.22,0.31 0.07,0.09 0.13,0.19 0.2,0.27 z"
       id="path126" />
    <path
       class="b"
       d="m 492.9,62.76 c -0.06,0.06 -0.12,0.13 -0.18,0.2 -0.09,0.1 -0.18,0.19 -0.26,0.29 -0.03,0.04 -0.05,0.08 -0.08,0.11 -0.1,0.13 -0.21,0.27 -0.3,0.4 -0.23,0.34 -0.41,0.7 -0.57,1.07 0,0.01 -0.01,0.03 -0.02,0.04 -0.05,0.11 -0.08,0.23 -0.12,0.34 -0.03,0.08 -0.06,0.16 -0.09,0.25 -0.01,0.05 -0.02,0.1 -0.04,0.15 -0.04,0.15 -0.08,0.3 -0.11,0.45 -0.01,0.05 -0.01,0.11 -0.02,0.16 -0.02,0.15 -0.05,0.3 -0.06,0.45 0,0.09 0,0.17 -0.01,0.26 0,0.12 -0.02,0.23 -0.02,0.35 0,0.12 0.01,0.22 0.02,0.34 0,0.09 0,0.19 0.01,0.28 0.01,0.12 0.03,0.24 0.05,0.36 0.01,0.08 0.02,0.17 0.04,0.25 0.03,0.14 0.06,0.27 0.1,0.41 0.02,0.06 0.03,0.13 0.05,0.19 0.02,0.08 0.06,0.17 0.09,0.25 0.04,0.11 0.07,0.23 0.12,0.34 0,0.01 0.01,0.03 0.02,0.04 0.15,0.37 0.34,0.73 0.57,1.07 0.04,0.06 0.09,0.12 0.14,0.18 0.08,0.11 0.16,0.23 0.25,0.33 0.02,0.02 0.04,0.04 0.05,0.06 0.12,0.15 0.25,0.29 0.39,0.43 0.15,0.15 0.31,0.3 0.47,0.43 0.49,0.4 1.04,0.73 1.63,0.96 0.59,0.23 1.2,0.38 1.84,0.43 0.21,0.02 0.43,0.02 0.64,0.02 v 0 c 0.43,0.02 0.85,0 1.27,-0.09 1.24,-0.23 2.4,-0.83 3.3,-1.74 2.48,-2.52 2.48,-6.56 0,-9.08 -2.55,-2.47 -6.6,-2.47 -9.14,0 z"
       id="path128" />
    <path
       class="b"
       d="m 471.49,62.4 c 0,0 0.04,0.1 0.07,0.14"
       id="path130" />
    <path
       class="b"
       d="m 471.73,62.91 c 0,0 0.02,0.08 0.03,0.13"
       id="path132" />
    <path
       class="b"
       d="m 471.87,64.16 c 0,0 0.02,-0.09 0.02,-0.14"
       id="path134" />
    <path
       class="b"
       d="m 471.77,64.66 c 0,0 0.03,-0.07 0.04,-0.1"
       id="path136" />
    <path
       class="b"
       d="m 471.54,65.22 c 0,0 0.06,-0.08 0.08,-0.13"
       id="path138" />
    <path
       class="b"
       d="m 471.2,65.72 c 0,0 0.09,-0.09 0.13,-0.14"
       id="path140" />
    <path
       class="b"
       d="m 469.24,66.71 c 0.13,-0.02 0.26,-0.04 0.38,-0.07"
       id="path142" />
    <path
       class="b"
       d="m 471.86,63.46 c 0,0 0,0.09 0,0.14"
       id="path144" />
    <path
       class="b"
       d="m 492.45,63.24 c 0.08,-0.1 0.17,-0.19 0.26,-0.29"
       id="path146" />
    <path
       class="b"
       d="m 495,73.21 c -0.58,-0.23 -1.13,-0.56 -1.63,-0.96"
       id="path148" />
    <path
       class="b"
       d="m 491.02,67.29 c 0,-0.12 0.01,-0.23 0.02,-0.35"
       id="path150" />
    <path
       class="b"
       d="m 491.14,66.06 c 0.03,-0.15 0.07,-0.3 0.11,-0.45"
       id="path152" />
    <path
       class="b"
       d="m 492.07,63.76 c 0.09,-0.14 0.19,-0.27 0.3,-0.4"
       id="path154" />
    <path
       class="b"
       d="m 491.37,69.36 c 0.04,0.11 0.07,0.23 0.12,0.34"
       id="path156" />
    <path
       class="b"
       d="m 491.49,64.88 c 0,0 0.01,-0.03 0.02,-0.04"
       id="path158" />
    <path
       class="b"
       d="m 491.28,65.46 c 0.02,-0.08 0.06,-0.17 0.09,-0.25"
       id="path160" />
    <path
       class="b"
       d="M 492.46,71.33 C 492.37,71.22 492.29,71.11 492.21,71"
       id="path162" />
    <path
       class="b"
       d="m 491.1,68.26 c 0.01,0.08 0.02,0.17 0.04,0.25"
       id="path164" />
    <path
       class="b"
       d="m 491.24,68.92 c 0.02,0.06 0.03,0.13 0.05,0.19"
       id="path166" />
    <path
       class="b"
       d="m 491.03,67.62 c 0,0.09 0,0.19 0.01,0.28"
       id="path168" />
    <path
       class="b"
       d="m 491.05,66.67 c 0.01,-0.15 0.04,-0.3 0.06,-0.45"
       id="path170" />
    <path
       class="b"
       d="m 391.09,63.03 c -0.55,-0.26 -1.15,-0.42 -1.75,-0.45"
       id="path172" />
    <path
       class="b"
       d="m 391.43,63.33 c 0.2,0.22 0.33,0.5 0.38,0.79"
       id="path174" />
    <path
       class="b"
       d="M 228.21,69.04 C 228.2,68.92 228.2,68.8 228.19,68.68"
       id="path176" />
    <path
       class="b"
       d="m 228.31,69.72 c -0.02,-0.12 -0.03,-0.24 -0.05,-0.36"
       id="path178" />
    <path
       class="b"
       d="m 229.35,72.29 c -0.07,-0.11 -0.13,-0.22 -0.19,-0.33"
       id="path180" />
    <path
       class="b"
       d="m 242.29,66.33 c -0.13,-0.44 -0.3,-0.88 -0.52,-1.29"
       id="path182" />
    <path
       class="b"
       d="m 241.77,65.04 c -0.16,-0.31 -0.35,-0.62 -0.56,-0.91"
       id="path184" />
    <path
       class="b"
       d="m 230.05,63.56 c -0.09,0.09 -0.18,0.19 -0.26,0.28"
       id="path186" />
    <path
       class="b"
       d="m 228.99,71.68 c -0.05,-0.1 -0.1,-0.21 -0.14,-0.31"
       id="path188" />
    <path
       class="b"
       d="m 229.78,72.87 c -0.07,-0.09 -0.13,-0.18 -0.2,-0.27"
       id="path190" />
    <path
       class="b"
       d="m 242.45,67 c 0.09,0.45 0.13,0.91 0.13,1.37"
       id="path192" />
    <path
       class="b"
       d="m 228.7,71.05 c -0.04,-0.11 -0.08,-0.22 -0.11,-0.33"
       id="path194" />
    <path
       class="b"
       d="m 228.47,70.39 c -0.04,-0.12 -0.06,-0.25 -0.09,-0.37"
       id="path196" />
    <path
       class="b"
       d="m 229.6,64.11 c -0.08,0.1 -0.16,0.21 -0.23,0.31"
       id="path198" />
    <path
       class="b"
       d="m 228.2,68 c 0,0.12 -0.02,0.24 -0.02,0.35"
       id="path200" />
    <path
       class="b"
       d="m 228.4,66.64 c -0.03,0.11 -0.06,0.23 -0.08,0.34"
       id="path202" />
    <path
       class="b"
       d="m 228.27,67.3 c -0.02,0.12 -0.04,0.24 -0.05,0.37"
       id="path204" />
    <path
       class="b"
       d="m 229.21,64.69 c -0.07,0.11 -0.14,0.22 -0.2,0.34"
       id="path206" />
    <path
       class="b"
       d="m 228.88,65.3 c -0.06,0.12 -0.12,0.24 -0.17,0.36"
       id="path208" />
    <path
       class="b"
       d="m 228.6,65.98 c -0.04,0.11 -0.08,0.22 -0.12,0.34"
       id="path210" />
    <path
       class="b"
       d="m 358.8,133.14 c 0.07,0.07 0.13,0.16 0.19,0.23"
       id="path212" />
    <path
       class="b"
       d="m 112.89,287.44 c -2.13,0 -3.8,0.51 -5,1.53 -1.21,1.02 -1.81,2.42 -1.81,4.2 0,0.95 0.18,1.77 0.55,2.48 0.37,0.71 0.86,1.33 1.47,1.86 0.61,0.53 1.54,1.09 2.77,1.67 1.31,0.62 2.18,1.08 2.61,1.36 0.43,0.28 0.75,0.58 0.97,0.89 0.22,0.31 0.33,0.66 0.33,1.05 0,0.71 -0.25,1.24 -0.75,1.6 -0.5,0.36 -1.22,0.54 -2.15,0.54 -0.78,0 -1.64,-0.12 -2.58,-0.37 -0.94,-0.25 -2.09,-0.67 -3.45,-1.28 v 3.96 c 1.65,0.81 3.55,1.21 5.7,1.21 2.33,0 4.15,-0.52 5.46,-1.57 1.31,-1.05 1.96,-2.48 1.96,-4.29 0,-1.31 -0.35,-2.42 -1.05,-3.32 -0.7,-0.9 -1.99,-1.8 -3.87,-2.7 -1.42,-0.68 -2.32,-1.15 -2.7,-1.41 -0.38,-0.26 -0.66,-0.53 -0.83,-0.81 -0.17,-0.28 -0.26,-0.61 -0.26,-0.98 0,-0.61 0.22,-1.1 0.65,-1.47 0.43,-0.38 1.05,-0.56 1.86,-0.56 0.68,0 1.37,0.09 2.07,0.26 0.7,0.17 1.59,0.48 2.66,0.92 l 0.69,-1.67 -1.74,-2.53 c -0.18,-0.05 -0.37,-0.12 -0.55,-0.17 -0.95,-0.25 -1.95,-0.37 -2.99,-0.37 z"
       id="path214" />
    <path
       class="b"
       d="m 118.86,288.86 c -0.84,-0.36 -1.64,-0.64 -2.43,-0.88 l 1.74,2.53 0.68,-1.65 z"
       id="path216" />
    <path
       class="b"
       d="m 143.19,300.02 c 0,1.56 -0.31,2.7 -0.94,3.43 -0.63,0.73 -1.64,1.09 -3.03,1.09 -1.39,0 -2.47,-0.36 -3.1,-1.09 -0.62,-0.72 -0.94,-1.86 -0.94,-3.41 v -12.32 h -4.25 v 12.96 c 0,2.3 0.72,4.12 2.15,5.44 1.43,1.33 3.44,1.99 6.03,1.99 1.72,0 3.2,-0.3 4.46,-0.89 1.26,-0.59 2.22,-1.45 2.88,-2.57 0.67,-1.12 1,-2.42 1,-3.91 v -13.02 h -4.25 v 12.29 z"
       id="path218" />
    <path
       class="b"
       d="m 172.82,289.3 c -1.27,-1.05 -3.13,-1.58 -5.57,-1.58 h -6.43 v 20.12 h 4.27 v -7.16 h 1.83 c 2.5,0 4.42,-0.57 5.77,-1.72 1.35,-1.15 2.03,-2.8 2.03,-4.97 0,-2.17 -0.64,-3.65 -1.91,-4.7 z m -3.38,7.12 c -0.65,0.52 -1.63,0.78 -2.95,0.78 h -1.4 v -5.97 h 1.94 c 1.17,0 2.02,0.24 2.57,0.72 0.55,0.48 0.82,1.22 0.82,2.22 0,1 -0.33,1.75 -0.98,2.26 z"
       id="path220" />
    <path
       class="b"
       d="m 198.97,289.3 c -1.27,-1.05 -3.13,-1.58 -5.57,-1.58 h -6.43 v 20.12 h 4.27 v -7.16 h 1.83 c 2.5,0 4.42,-0.57 5.77,-1.72 1.35,-1.15 2.03,-2.8 2.03,-4.97 0,-2.17 -0.64,-3.65 -1.91,-4.7 z m -3.38,7.12 c -0.65,0.52 -1.63,0.78 -2.95,0.78 h -1.4 v -5.97 h 1.94 c 1.17,0 2.02,0.24 2.57,0.72 0.55,0.48 0.82,1.22 0.82,2.22 0,1 -0.33,1.75 -0.98,2.26 z"
       id="path222" />
    <path
       class="b"
       d="m 221.84,287.41 c -3.09,0 -5.47,0.88 -7.12,2.65 -1.66,1.77 -2.48,4.32 -2.48,7.67 0,3.35 0.83,5.92 2.48,7.71 1.65,1.79 4.02,2.68 7.1,2.68 3.08,0 5.45,-0.89 7.1,-2.68 1.65,-1.79 2.48,-4.35 2.48,-7.68 0,-3.33 -0.82,-5.9 -2.46,-7.68 -1.64,-1.78 -4,-2.67 -7.09,-2.67 z m -0.03,17.13 c -1.7,0 -2.97,-0.57 -3.83,-1.71 -0.86,-1.14 -1.28,-2.83 -1.28,-5.08 0,-2.25 0.43,-3.94 1.29,-5.08 0.86,-1.14 2.14,-1.71 3.84,-1.71 3.39,0 5.08,2.27 5.08,6.8 0,4.53 -1.7,6.79 -5.11,6.79 z"
       id="path224" />
    <path
       class="b"
       d="m 256.94,296.92 c 0.65,-0.92 0.98,-1.97 0.98,-3.16 0,-2.03 -0.66,-3.54 -1.97,-4.53 -1.31,-1 -3.33,-1.49 -6.07,-1.49 h -5.86 v 20.12 h 4.27 v -7.72 h 2.27 l 4.8,7.72 h 4.73 c -0.92,-1.32 -2.89,-4.24 -5.92,-8.77 1.19,-0.52 2.12,-1.25 2.77,-2.17 z m -4.29,-0.93 c -0.64,0.45 -1.64,0.67 -2.99,0.67 h -1.38 v -5.44 h 1.29 c 1.38,0 2.39,0.2 3.05,0.61 0.66,0.4 0.98,1.08 0.98,2.04 0,0.96 -0.32,1.67 -0.96,2.12 z"
       id="path226" />
    <path
       id="polygon228"
       class="b"
       style="fill:#ffffff"
       d="m 274.58,307.85 h 4.26 v -16.57 h 5.47 v -3.55 h -15.14 l -0.06,0.52 v 3.03 h 5.47 z" />
    <path
       id="polygon230"
       class="b"
       style="fill:#ffffff"
       d="m 269.11,287.73 v 0.52 l 0.06,-0.52 z" />
    <path
       class="b"
       d="m 315.9,300.69 h 1.83 c 2.5,0 4.42,-0.57 5.77,-1.72 1.35,-1.15 2.03,-2.8 2.03,-4.97 0,-2.17 -0.64,-3.65 -1.91,-4.7 -1.27,-1.05 -3.13,-1.58 -5.57,-1.58 h -6.43 v 20.12 h 4.27 v -7.16 z m 0,-9.47 h 1.94 c 1.17,0 2.02,0.24 2.57,0.72 0.55,0.48 0.82,1.22 0.82,2.22 0,1 -0.33,1.75 -0.98,2.26 -0.65,0.51 -1.63,0.78 -2.95,0.78 h -1.4 v -5.97 z"
       id="path232" />
    <path
       class="b"
       d="m 342.06,300.13 h 2.27 l 4.8,7.72 h 4.73 c -0.92,-1.32 -2.89,-4.24 -5.92,-8.77 1.19,-0.52 2.12,-1.25 2.77,-2.17 0.65,-0.92 0.98,-1.97 0.98,-3.16 0,-2.03 -0.66,-3.54 -1.97,-4.53 -1.31,-1 -3.33,-1.49 -6.07,-1.49 h -5.86 v 20.12 h 4.27 z m 0,-8.9 h 1.29 c 1.38,0 2.39,0.2 3.05,0.61 0.66,0.4 0.98,1.08 0.98,2.04 0,0.96 -0.32,1.67 -0.96,2.12 -0.64,0.45 -1.64,0.67 -2.99,0.67 h -1.38 v -5.44 z"
       id="path234" />
    <path
       class="b"
       d="m 373.54,304.55 c -1.7,0 -2.97,-0.57 -3.83,-1.71 -0.86,-1.14 -1.28,-2.83 -1.28,-5.08 0,-2.25 0.43,-3.94 1.29,-5.08 0.86,-1.14 2.14,-1.71 3.84,-1.71 3.39,0 5.08,2.27 5.08,6.8 0,1.97 -0.34,3.48 -0.99,4.59 l 5.43,-3.75 c 0.01,-0.28 0.03,-0.56 0.03,-0.85 0,-3.34 -0.82,-5.9 -2.46,-7.68 -1.64,-1.78 -4,-2.67 -7.09,-2.67 -3.09,0 -5.47,0.88 -7.12,2.65 -1.66,1.77 -2.48,4.32 -2.48,7.67 0,3.35 0.83,5.92 2.48,7.71 0.95,1.03 2.15,1.75 3.57,2.19 l 4.61,-3.18 c -0.34,0.06 -0.7,0.1 -1.08,0.1 z"
       id="path236" />
    <path
       class="b"
       d="m 380.64,305.44 c 1.51,-1.63 2.32,-3.92 2.45,-6.83 l -5.43,3.75 c -0.67,1.16 -1.67,1.87 -3.04,2.1 l -4.61,3.18 c 1.05,0.32 2.22,0.49 3.53,0.49 3.08,0 5.45,-0.89 7.1,-2.68 z"
       id="path238" />
    <path
       id="polygon240"
       class="b"
       style="fill:#ffffff"
       d="m 394.28,290.89 3.48,-2.4 -0.24,-0.76 h -4.31 z" />
    <path
       class="b"
       d="m 404.69,307.85 6.84,-20.12 h -4.31 l -3.81,11.97 c -0.59,2.11 -0.93,3.59 -1.03,4.43 -0.06,-0.37 -0.2,-1.02 -0.42,-1.96 -0.22,-0.94 -0.44,-1.76 -0.65,-2.47 l -3.54,-11.21 -3.48,2.4 5.75,16.96 z"
       id="path242" />
    <path
       id="rect244"
       class="b"
       style="fill:#ffffff"
       d="m 422.51001,287.73001 h 4.27 v 20.12 h -4.27 z" />
    <path
       class="b"
       d="m 454.16,305.21 c 1.89,-1.76 2.83,-4.3 2.83,-7.61 0,-3.11 -0.91,-5.53 -2.72,-7.27 -1.81,-1.74 -4.37,-2.6 -7.65,-2.6 h -6.32 v 20.12 h 5.7 c 3.56,0 6.28,-0.88 8.17,-2.64 z m -9.6,-13.98 h 2.27 c 3.82,0 5.73,2.16 5.73,6.48 0,4.32 -2.06,6.62 -6.17,6.62 h -1.83 z"
       id="path246" />
    <path
       id="polygon248"
       class="b"
       style="fill:#ffffff"
       d="m 473.89,299.14 h 6.81 v -3.5 h -6.81 v -4.42 h 7.32 v -3.49 h -11.59 v 20.12 h 11.59 v -3.52 h -7.32 z" />
    <path
       class="b"
       d="m 498.13,300.13 h 2.27 l 4.8,7.72 h 4.73 c -0.92,-1.32 -2.89,-4.24 -5.92,-8.77 1.19,-0.52 2.12,-1.25 2.77,-2.17 0.65,-0.92 0.98,-1.97 0.98,-3.16 0,-2.03 -0.66,-3.54 -1.97,-4.53 -1.31,-1 -3.33,-1.49 -6.07,-1.49 h -5.86 v 20.12 h 4.27 z m 0,-8.9 h 1.29 c 1.38,0 2.39,0.2 3.05,0.61 0.66,0.4 0.98,1.08 0.98,2.04 0,0.96 -0.32,1.67 -0.96,2.12 -0.64,0.45 -1.64,0.67 -2.99,0.67 h -1.38 v -5.44 z"
       id="path250" />
  </g>
  <g
     aria-label="API MEDIATION LAYER - ZOWE V2"
     transform="translate(40.02,416.5)"
     id="text256"
     class="c"
     style="font-size:27px;font-family:OpenSans-Bold, 'Open Sans';letter-spacing:0.12em;fill:#ffffff">
    <path
       d="M 18.114258,0 H 15.33252 L 13.407715,-5.4711914 H 4.9174805 L 2.9926758,0 H 0.34277344 L 7.4882812,-19.630371 H 10.96875 Z M 12.603516,-7.7124023 9.1625977,-17.349609 5.7084961,-7.7124023 Z"
       id="path279" />
    <path
       d="m 37.17457,-13.697754 q 0,1.305176 -0.461426,2.425781 -0.448242,1.107422 -1.265625,1.924805 -1.015136,1.0151367 -2.399414,1.5292969 -1.384277,0.5009766 -3.493652,0.5009766 H 26.944101 V 0 H 24.33375 v -19.630371 h 5.326172 q 1.766601,0 2.992675,0.303223 1.226075,0.290039 2.175293,0.922851 1.120606,0.751465 1.727051,1.87207 0.619629,1.120606 0.619629,2.834473 z m -2.71582,0.06592 q 0,-1.015137 -0.355957,-1.766602 -0.355957,-0.751464 -1.081055,-1.226074 -0.632812,-0.408691 -1.450195,-0.580078 -0.804199,-0.18457 -2.043457,-0.18457 h -2.583985 v 7.8442381 h 2.20166 q 1.582032,0 2.570801,-0.2768554 0.98877,-0.2900387 1.608399,-0.9096677 0.619629,-0.632813 0.870117,-1.331543 0.263672,-0.698731 0.263672,-1.568848 z"
       id="path281" />
    <path
       d="m 50.790058,0 h -7.751953 v -2.0039063 h 2.570801 V -17.626465 h -2.570801 v -2.003906 h 7.751953 v 2.003906 h -2.570801 v 15.6225587 h 2.570801 z"
       id="path283" />
    <path
       d="M 88.712929,0 H 86.102577 V -16.914551 L 80.644569,-5.4052734 H 79.088905 L 73.670448,-16.914551 V 0 h -2.438965 v -19.630371 h 3.559571 l 5.233886,10.9291991 5.0625,-10.9291991 h 3.625489 z"
       id="path285" />
    <path
       d="M 110.18584,0 H 97.252731 v -19.630371 h 12.933109 v 2.320312 H 99.863083 v 5.378907 h 10.322757 v 2.3203122 H 99.863083 v 7.2905273 h 10.322757 z"
       id="path287" />
    <path
       d="m 134.16364,-9.7954102 q 0,2.6762696 -1.17334,4.8515625 -1.16016,2.175293 -3.09815,3.375 -1.34473,0.83056645 -3.00586,1.19970707 Q 125.23834,0 122.53571,0 h -4.95704 v -19.630371 h 4.9043 q 2.87402,0 4.56152,0.421875 1.70069,0.408691 2.87403,1.133789 2.0039,1.252441 3.12451,3.335449 1.12061,2.083008 1.12061,4.9438478 z m -2.72901,-0.039551 q 0,-2.3071291 -0.8042,-3.8891601 -0.8042,-1.582031 -2.39941,-2.491699 -1.16016,-0.65918 -2.46533,-0.909668 -1.30518,-0.263672 -3.12452,-0.263672 h -2.45214 v 15.1479491 h 2.45214 q 1.88526,0 3.28272,-0.2768555 1.41064,-0.2768555 2.58398,-1.0283203 1.46338,-0.9360352 2.18848,-2.465332 0.73828,-1.5292969 0.73828,-3.8232422 z"
       id="path289" />
    <path
       d="m 148.57013,0 h -7.75195 v -2.0039063 h 2.5708 V -17.626465 h -2.5708 v -2.003906 h 7.75195 v 2.003906 h -2.5708 v 15.6225587 h 2.5708 z"
       id="path291" />
    <path
       d="m 171.75691,0 h -2.78174 l -1.9248,-5.4711914 h -8.49024 L 156.63533,0 h -2.6499 l 7.14551,-19.630371 h 3.48046 z m -5.51074,-7.7124023 -3.44092,-9.6372067 -3.4541,9.6372067 z"
       id="path293" />
    <path
       d="m 191.97739,-17.310059 h -7.01368 V 0 h -2.61035 v -17.310059 h -7.01367 v -2.320312 h 16.6377 z"
       id="path295" />
    <path
       d="m 204.80185,0 h -7.75195 v -2.0039063 h 2.5708 V -17.626465 h -2.5708 v -2.003906 h 7.75195 v 2.003906 h -2.5708 v 15.6225587 h 2.5708 z"
       id="path297" />
    <path
       d="m 227.14488,-17.375977 q 1.19971,1.31836 1.83252,3.229981 0.646,1.911621 0.646,4.3374022 0,2.4257813 -0.65918,4.350586 -0.646,1.9116211 -1.81934,3.1904297 -1.21289,1.33154294 -2.87402,2.00390622 -1.64795,0.67236329 -3.77051,0.67236329 -2.06982,0 -3.77051,-0.68554688 -1.6875,-0.68554687 -2.87402,-1.99072263 -1.18652,-1.3051758 -1.83252,-3.2036133 -0.63281,-1.8984375 -0.63281,-4.3374024 0,-2.3994142 0.63281,-4.2978512 0.63281,-1.911621 1.8457,-3.269532 1.16016,-1.291992 2.87403,-1.977539 1.72705,-0.685546 3.75732,-0.685546 2.10938,0 3.78369,0.69873 1.6875,0.685547 2.86084,1.964355 z m -0.2373,7.5673832 q 0,-3.8232422 -1.71387,-5.8930662 -1.71387,-2.083008 -4.68018,-2.083008 -2.99267,0 -4.70654,2.083008 -1.70068,2.069824 -1.70068,5.8930662 0,3.862793 1.74023,5.9194336 1.74024,2.0434571 4.66699,2.0434571 2.92676,0 4.65381,-2.0434571 1.74024,-2.0566406 1.74024,-5.9194336 z"
       id="path299" />
    <path
       d="m 251.97961,0 h -3.22998 l -9.30761,-17.560547 V 0 h -2.43897 v -19.630371 h 4.04737 l 8.49023,16.0312499 V -19.630371 h 2.43896 z"
       id="path301" />
    <path
       d="m 285.59143,0 h -12.41894 v -19.630371 h 2.61035 v 17.3100585 h 9.80859 z"
       id="path303" />
    <path
       d="m 306.91934,0 h -2.78174 l -1.9248,-5.4711914 h -8.49024 L 291.79776,0 h -2.6499 l 7.14551,-19.630371 h 3.48046 z m -5.51074,-7.7124023 -3.44092,-9.6372067 -3.4541,9.6372067 z"
       id="path305" />
    <path
       d="m 327.03433,-19.630371 -6.9082,11.0214843 V 0 h -2.61035 v -8.3320313 l -6.93457,-11.2983397 h 2.8872 l 5.36573,8.780273 5.41845,-8.780273 z"
       id="path307" />
    <path
       d="m 345.92325,0 h -12.93311 v -19.630371 h 12.93311 v 2.320312 h -10.32276 v 5.378907 h 10.32276 v 2.3203122 h -10.32276 v 7.2905273 h 10.32276 z"
       id="path309" />
    <path
       d="m 369.55829,0 h -3.38819 l -6.56542,-7.8046875 h -3.67823 V 0 h -2.61035 v -19.630371 h 5.49756 q 1.77978,0 2.96631,0.237305 1.18652,0.224121 2.13574,0.817382 1.06787,0.672364 1.66113,1.700684 0.60645,1.015137 0.60645,2.583984 0,2.122559 -1.06787,3.559571 -1.06787,1.4238278 -2.93994,2.1489255 z m -6.10401,-14.106445 q 0,-0.84375 -0.30322,-1.489746 -0.29004,-0.65918 -0.97558,-1.107422 -0.5669,-0.382324 -1.34473,-0.527344 -0.77783,-0.158203 -1.83252,-0.158203 h -3.07178 v 7.4091795 h 2.63672 q 1.23926,0 2.16211,-0.2109375 0.92285,-0.224121 1.56885,-0.817383 0.59326,-0.553711 0.87012,-1.265625 0.29003,-0.725097 0.29003,-1.832519 z"
       id="path311" />
    <path
       d="m 395.66864,-7.3959961 h -8.22656 v -2.3862305 h 8.22656 z"
       id="path313" />
    <path
       d="m 430.66476,0 h -15.31933 v -2.4257813 l 12.03662,-14.8842777 h -11.58838 v -2.320312 h 14.58106 v 2.359863 l -12.15528,14.9501955 h 12.44531 z"
       id="path315" />
    <path
       d="m 452.70456,-17.375977 q 1.19971,1.31836 1.83252,3.229981 0.64599,1.911621 0.64599,4.3374022 0,2.4257813 -0.65917,4.350586 -0.646,1.9116211 -1.81934,3.1904297 -1.21289,1.33154294 -2.87402,2.00390622 -1.64795,0.67236329 -3.77051,0.67236329 -2.06983,0 -3.77051,-0.68554688 -1.6875,-0.68554687 -2.87402,-1.99072263 -1.18653,-1.3051758 -1.83252,-3.2036133 -0.63282,-1.8984375 -0.63282,-4.3374024 0,-2.3994142 0.63282,-4.2978512 0.63281,-1.911621 1.8457,-3.269532 1.16016,-1.291992 2.87402,-1.977539 1.72705,-0.685546 3.75733,-0.685546 2.10937,0 3.78369,0.69873 1.6875,0.685547 2.86084,1.964355 z m -0.23731,7.5673832 q 0,-3.8232422 -1.71386,-5.8930662 -1.71387,-2.083008 -4.68018,-2.083008 -2.99267,0 -4.70654,2.083008 -1.70068,2.069824 -1.70068,5.8930662 0,3.862793 1.74023,5.9194336 1.74023,2.0434571 4.66699,2.0434571 2.92676,0 4.65381,-2.0434571 1.74023,-2.0566406 1.74023,-5.9194336 z"
       id="path317" />
    <path
       d="M 485.40991,-19.630371 480.30786,0 h -2.93994 L 473.24146,-16.294922 469.20728,0 h -2.87403 l -5.19433,-19.630371 h 2.67627 l 4.12646,16.321289 4.06055,-16.321289 h 2.6499 l 4.1001,16.4794921 4.10009,-16.4794921 z"
       id="path319" />
    <path
       d="m 505.41943,0 h -12.9331 v -19.630371 h 12.9331 v 2.320312 h -10.32275 v 5.378907 h 10.32275 v 2.3203122 h -10.32275 v 7.2905273 h 10.32275 z"
       id="path321" />
    <path
       d="M 541.02197,-19.630371 533.87646,0 H 530.396 l -7.14551,-19.630371 h 2.79492 l 6.15674,17.2705077 6.15674,-17.2705077 z"
       id="path323" />
    <path
       d="m 560.01636,0 h -13.28907 v -2.7553711 q 1.38428,-1.1865234 2.76856,-2.3730469 1.39746,-1.1865234 2.59717,-2.3598632 2.53125,-2.4521485 3.46728,-3.8891598 0.93604,-1.450196 0.93604,-3.124512 0,-1.529297 -1.01514,-2.386231 -1.00195,-0.870117 -2.8081,-0.870117 -1.19971,0 -2.59717,0.421875 -1.39746,0.421875 -2.72901,1.291992 h -0.13183 v -2.768554 q 0.93603,-0.461426 2.4917,-0.84375 1.56884,-0.382324 3.03222,-0.382324 3.01905,0 4.73291,1.463378 1.71387,1.450196 1.71387,3.941895 0,1.120605 -0.29004,2.096191 -0.27685,0.962403 -0.83056,1.83252 -0.51416,0.8173827 -1.2129,1.6083983 -0.68554,0.7910156 -1.67431,1.753418 -1.41065,1.3842773 -2.91358,2.6894531 -1.50293,1.2919922 -2.8081,2.3994141 h 10.56006 z"
       id="path325" />
  </g>
</svg>
