<?xml version="1.0" encoding="UTF-8" standalone="no"?>
<svg
   id="a"
   viewBox="0 0 624.24 469.28"
   version="1.1"
   xmlns="http://www.w3.org/2000/svg"
   xmlns:svg="http://www.w3.org/2000/svg">
  <defs
     id="defs7">
    <style
       id="style2">.c{fill:none;}.d{fill:#fff;}.e{fill:#3274f9;}.f,.g{fill:#488eff;}.g{font-family:OpenSans-Bold, Open Sans;font-size:32px;letter-spacing:.12em;}.h{opacity:.58;}.i{opacity:.9;}.j{clip-path:url(#b);}</style>
    <clipPath
       id="b">
      <path
         class="c"
         d="M75.81,7.38h473.31c34.98,0,63.35,28.36,63.35,63.35V342.14H12.47V70.72C12.47,35.74,40.83,7.38,75.81,7.38h0Z"
         id="path4" />
    </clipPath>
  </defs>
  <g
     id="g153">
    <path
       class="f"
       d="m 612.47,342.14 h -600 V 70.72 C 12.47,35.74 40.83,7.38 75.81,7.38 h 473.31 c 34.98,0 63.35,28.36 63.35,63.35"
       id="path9" />
    <path
       class="f"
       d="M 608.87,355.91 V 459.68 H 16.07 V 355.91 h 592.8 m 3.6,-3.6 h -600 v 110.97 h 600 z"
       id="path11" />
    <g
       class="j"
       clip-path="url(#b)"
       id="g17">
      <g
         class="i"
         id="g15">
        <path
           class="e"
           d="M 368,-133.62 1.05,119.44 254.11,486.38 621.05,233.32 Z M 267.03,322.45 292.62,82.32 167.09,168.89 181.05,131.38 135.76,123.46 327.92,-9.07 355.07,30.3 329.48,270.42 459.05,181.07 490.38,226.5 294.18,361.81 267.03,322.43 Z"
           id="path13" />
      </g>
    </g>
    <polygon
       class="d"
       points=""
       id="polygon19" />
    <path
       class="c"
       d="m 392.64,66.95 c 0.46,-0.34 0.7,-0.88 0.65,-1.45 v -0.05 c 0.06,-0.61 -0.22,-1.21 -0.74,-1.54 -0.74,-0.35 -1.55,-0.51 -2.36,-0.45 h -1.01 v 3.87 h 1.03 c 0.83,0.06 1.66,-0.08 2.43,-0.39 z"
       id="path21" />
    <path
       class="c"
       d="m 484.69,66.8 c 1.15,-0.97 1.29,-2.69 0.32,-3.84 l -0.33,-0.33 c -0.84,-0.55 -1.83,-0.81 -2.83,-0.75 h -2.36 v 5.67 h 2.39 c 0.99,0.06 1.98,-0.2 2.81,-0.74 z"
       id="path23" />
    <path
       class="c"
       d="m 472.4,66.91 c 1.19,-1.07 1.28,-2.9 0.21,-4.09 v 0 c 0,0 -0.02,-0.03 -0.03,-0.04 l -0.14,-0.16 c -0.76,-0.56 -1.7,-0.84 -2.64,-0.78 l -2.83,0.04 v 5.8 h 2.68 c 0.98,0.07 1.95,-0.2 2.75,-0.77 z"
       id="path25" />
    <path
       class="c"
       d="m 347.34,128.4 c -11.03,0 -17.62,8.49 -17.62,18.5 v 0.25 c 0,10.01 7.22,18.76 17.87,18.76 10.65,0 17.61,-8.49 17.61,-18.5 v -0.25 c 0,-10.01 -7.22,-18.76 -17.87,-18.76 z"
       id="path27" />
    <path
       id="polygon29"
       class="c"
       style="fill:none"
       d="m 412.28,70.39 -2.35,-5.8 -2.36,5.8 z" />
    <path
       class="c"
       d="m 255.81,67.85 c 1.32,-1.23 1.4,-3.3 0.18,-4.62 -0.04,-0.06 -0.1,-0.12 -0.16,-0.16 -0.83,-0.63 -1.86,-0.95 -2.9,-0.88 h -3.21 v 6.52 h 3.02 c 1.09,0.07 2.17,-0.23 3.07,-0.86 z"
       id="path31" />
    <path
       class="c"
       d="m 531.48,127.26 c -7.98,0 -13.18,5.7 -14.7,14.45 h 29.02 c -1.14,-8.62 -6.21,-14.45 -14.32,-14.45 z"
       id="path33" />
    <path
       id="polygon35"
       class="c"
       style="fill:none"
       d="m 329.79,70.39 -2.35,-5.8 -2.37,5.8 z" />
    <path
       class="c"
       d="m 231.76,74.33 c 2.85,2.74 7.36,2.74 10.22,0 2.76,-2.82 2.76,-7.33 0,-10.14 -2.85,-2.74 -7.36,-2.74 -10.22,0 -2.8,2.79 -2.81,7.32 -0.02,10.12 v 0 z"
       id="path37" />
    <path
       class="c"
       d="m 503.51,72.72 c 2.48,-2.52 2.48,-6.56 0,-9.08 -2.55,-2.47 -6.6,-2.47 -9.14,0 -2.5,2.5 -2.5,6.56 0,9.06 v 0 c 1.21,1.22 2.87,1.88 4.58,1.84 v 0 c 1.71,0.06 3.36,-0.61 4.57,-1.83 z"
       id="path39" />
    <path
       class="d"
       d="m 466.97,68.64 h 2.75 c 1.29,0.1 2.57,-0.27 3.61,-1.04 0.82,-0.7 1.27,-1.75 1.22,-2.83 0.06,-1.07 -0.4,-2.11 -1.22,-2.8 -1,-0.75 -2.24,-1.12 -3.49,-1.03 h -3.99 v 14.47 h 1.11 v -6.77 z m 0,-6.77 2.83,-0.04 c 0.95,-0.06 1.88,0.22 2.64,0.78 l 0.14,0.16 c 0,0 0.02,0.03 0.03,0.04 1.07,1.19 0.98,3.02 -0.21,4.09 v 0 c -0.8,0.57 -1.77,0.84 -2.75,0.77 h -2.68 z"
       id="path41" />
    <path
       class="d"
       d="m 479.45,68.5 h 2 c 0.72,-0.04 1.44,0.13 2.06,0.49 0.79,0.71 1.45,1.55 1.96,2.48 l 2.52,3.94 h 1.34 l -3.27,-5 c -0.47,-0.87 -1.13,-1.63 -1.93,-2.22 1.62,-0.39 2.76,-1.84 2.75,-3.51 0.04,-1.05 -0.41,-2.06 -1.23,-2.72 -1.03,-0.74 -2.3,-1.1 -3.57,-1.02 h -3.7 l -0.04,14.5 h 1.11 z m 0.04,-6.62 h 2.36 c 1,-0.06 1.99,0.2 2.83,0.75 l 0.33,0.33 c 0.97,1.15 0.83,2.87 -0.32,3.84 -0.83,0.54 -1.82,0.8 -2.81,0.74 h -2.39 v -5.67 z"
       id="path43" />
    <path
       class="d"
       d="m 504.38,73.44 0.18,-0.18 c 0,0 0.06,-0.06 0.08,-0.09 2.76,-2.9 2.64,-7.49 -0.26,-10.25 v 0 c -3.05,-2.87 -7.81,-2.87 -10.86,0 l -0.14,0.15 v 0 c -2.82,2.91 -2.75,7.55 0.15,10.37 3.05,2.88 7.81,2.88 10.86,0 z M 494.37,72.7 c -2.5,-2.5 -2.5,-6.56 0,-9.06 v 0 c 2.55,-2.48 6.6,-2.48 9.14,0 2.48,2.52 2.48,6.56 0,9.08 -1.2,1.22 -2.85,1.88 -4.57,1.84 v 0 c -1.71,0.03 -3.37,-0.64 -4.58,-1.85 v 0 z"
       id="path45" />
    <path
       class="d"
       d="m 509.2,79.64 c 0.81,0 1.58,-0.33 2.13,-0.92 0.7,-0.94 1.02,-2.11 0.9,-3.27 v -14.5 h -1.11 v 14.82 c 0,1.94 -0.67,2.9 -2.03,2.9 -0.22,0 -0.44,-0.03 -0.65,-0.07 l 0.1,1.05 c 0.22,0 0.44,0 0.67,0 z"
       id="path47" />
    <path
       id="polygon49"
       class="d"
       style="fill:#ffffff"
       d="m 518.29,68.6 h 6.6 v -0.94 h -6.6 v -5.78 h 6.77 v -0.93 h -7.88 v 14.46 h 8.04 v -0.94 h -6.93 z" />
    <path
       class="d"
       d="m 541.28,61.98 v 0 c 0,0 0.04,0.02 0.06,0.03 z"
       id="path51" />
    <path
       class="d"
       d="m 536.31,75.62 c 1.79,-0.02 3.55,-0.48 5.12,-1.35 v -1.16 c -1.57,0.9 -3.34,1.4 -5.14,1.45 -1.73,0.06 -3.41,-0.58 -4.65,-1.79 -1.22,-1.21 -1.88,-2.88 -1.81,-4.61 -0.05,-1.71 0.6,-3.37 1.81,-4.58 1.18,-1.21 2.8,-1.88 4.49,-1.84 1.81,0.05 3.59,0.55 5.16,1.45 v -1.21 c -1.57,-0.75 -3.29,-1.16 -5.03,-1.19 -2,-0.02 -3.92,0.74 -5.35,2.13 -0.03,0.04 -0.06,0.07 -0.1,0.1 v 0 c -2.89,2.9 -2.89,7.59 0,10.48 1.47,1.42 3.46,2.19 5.51,2.12 z"
       id="path53" />
    <path
       id="polygon55"
       class="d"
       style="fill:#ffffff"
       d="m 550.25,61.88 h 5.42 v -0.93 h -11.99 v 0.93 h 5.44 v 13.53 h 1.13 z" />
    <path
       id="polygon57"
       class="d"
       style="fill:#ffffff"
       d="m 311.12,60.4 -4.94,6.02 -4.92,-6.02 h -4.38 v 16.03 h 4.69 v -9.29 l 4.37,5.38 h 0.39 l 4.35,-5.38 v 9.29 h 4.84 V 60.4 Z" />
    <path
       class="d"
       d="m 323.94,73.18 h 6.96 l 1.32,3.25 h 4.94 l -7,-16.03 h -5.41 l -7.09,16.03 h 4.94 l 1.33,-3.25 z m 3.51,-8.59 2.35,5.8 h -4.72 z"
       id="path59" />
    <path
       id="rect61"
       class="d"
       style="fill:#ffffff"
       d="m 339.29999,60.400002 h 4.82 v 16.03 h -4.82 z" />
    <path
       id="polygon63"
       class="d"
       style="fill:#ffffff"
       d="M 365.58,76.43 V 60.4 h -4.81 v 8.88 l -8.29,-8.88 h -4.29 v 16.03 h 4.78 V 67.5 l 8.32,8.93 z" />
    <path
       id="polygon65"
       class="d"
       style="fill:#ffffff"
       d="m 381.09,66.72 h -6.65 v -3.1 h 6.65 V 60.4 h -11.48 v 16.03 h 4.83 v -6.49 h 6.65 z" />
    <path
       class="d"
       d="m 391.08,70.33 c 0.44,0.21 0.81,0.53 1.08,0.93 0.49,0.71 0.91,1.48 1.25,2.28 l 1.26,2.9 h 5.19 l -1.58,-3.51 c -0.38,-0.88 -0.86,-1.71 -1.42,-2.48 -0.35,-0.43 -0.79,-0.8 -1.28,-1.07 0.41,-0.22 0.8,-0.46 1.17,-0.73 0.41,-0.33 0.75,-0.75 0.99,-1.22 0.33,-0.63 0.49,-1.34 0.46,-2.06 -0.01,-0.77 -0.2,-1.52 -0.55,-2.2 -0.42,-0.81 -1.06,-1.49 -1.84,-1.96 -0.99,-0.58 -2.12,-0.86 -3.26,-0.81 h -8.22 v 15.99 h 4.84 v -6.26 h 0.54 c 0.46,-0.01 0.93,0.06 1.36,0.2 z m -1.9,-6.85 h 1.01 c 0.81,-0.06 1.63,0.1 2.36,0.45 0.52,0.33 0.8,0.92 0.74,1.54 v 0.05 c 0.05,0.56 -0.2,1.11 -0.65,1.45 -0.77,0.32 -1.6,0.45 -2.43,0.39 h -1.03 v -3.87 z"
       id="path67" />
    <path
       class="d"
       d="m 406.44,73.18 h 6.96 l 1.3,3.25 h 4.94 L 412.58,60.4 h -5.35 l -7.09,16.03 h 4.96 l 1.33,-3.25 z m 3.49,-8.59 2.35,5.8 h -4.71 z"
       id="path69" />
    <path
       id="polygon71"
       class="d"
       style="fill:#ffffff"
       d="m 431.22,72.52 4.37,-5.38 v 9.29 h 4.82 V 60.4 h -4.37 l -4.96,6.02 -4.91,-6.02 h -4.4 v 16.03 h 4.7 v -9.29 l 4.38,5.38 z" />
    <path
       id="polygon73"
       class="d"
       style="fill:#ffffff"
       d="m 449.3,69.78 h 6.72 v -3.24 h -6.72 v -2.92 h 7.04 V 60.4 h -11.88 v 16.03 h 12.09 V 73.2 h -7.25 z" />
    <path
       class="d"
       d="m 242.94,75.14 0.2,-0.2 c 0,0 0.02,-0.03 0.04,-0.04 3.13,-3.26 3.02,-8.43 -0.24,-11.56 -1.61,-1.6 -3.81,-2.47 -6.07,-2.41 v 0.04 c -2.26,-0.05 -4.44,0.82 -6.05,2.41 l -0.16,0.16 c -3.16,3.25 -3.08,8.43 0.16,11.59 3.4,3.21 8.72,3.21 12.12,0 z M 231.75,64.19 c 2.85,-2.74 7.36,-2.74 10.22,0 2.76,2.82 2.76,7.33 0,10.14 -2.85,2.74 -7.36,2.74 -10.22,0 l -0.02,-0.02 c -2.79,-2.8 -2.79,-7.33 0.01,-10.12 v 0 z"
       id="path75" />
    <path
       class="d"
       d="m 249.65,69.75 h 3.09 c 1.44,0.1 2.86,-0.32 4.01,-1.17 1.76,-1.53 1.94,-4.2 0.41,-5.96 -0.1,-0.11 -0.21,-0.22 -0.32,-0.33 -1.13,-0.83 -2.51,-1.23 -3.91,-1.15 h -4.45 l -0.07,16.13 h 1.24 z m 0.07,-7.57 h 3.21 c 1.04,-0.06 2.07,0.25 2.9,0.88 0.06,0.04 0.12,0.1 0.16,0.16 1.23,1.33 1.15,3.39 -0.18,4.62 -0.9,0.62 -1.98,0.93 -3.07,0.86 h -3.02 z"
       id="path77" />
    <path
       id="polygon79"
       class="d"
       style="fill:#ffffff"
       d="m 261.84,69.69 h 7.37 v -1.04 h -7.37 v -6.47 h 7.57 V 61.14 H 260.6 V 77.3 h 9 v -1.04 h -7.76 z" />
    <path
       id="polygon81"
       class="d"
       style="fill:#ffffff"
       d="M 286.72,77.3 V 61.14 h -1.25 V 75.26 L 273.22,61.14 h -1.05 V 77.3 h 1.24 V 63.16 l 12.28,14.14 z" />
    <path
       id="polygon83"
       class="d"
       style="fill:#ffffff"
       d="m 226.82,166.17 v 14.82 h 73.89 v -17.1 h -48.79 l 48.79,-56.78 V 92.28 h -72.37 v 17.11 h 47.27 z" />
    <path
       class="d"
       d="m 347.6,111.8 c -21.16,0 -36.88,15.84 -36.88,35.36 v 0.25 c 0,19.52 15.59,35.1 36.62,35.1 21.03,0 36.88,-15.84 36.88,-35.36 v -0.25 c 0,-19.52 -15.59,-35.1 -36.62,-35.1 z m 17.61,35.61 c 0,10.01 -6.59,18.5 -17.61,18.5 -11.02,0 -17.87,-8.74 -17.87,-18.76 v -0.25 c 0,-10.01 6.59,-18.5 17.62,-18.5 11.03,0 17.87,8.74 17.87,18.76 v 0.25 z"
       id="path85" />
    <path
       id="polygon87"
       class="d"
       style="fill:#ffffff"
       d="m 432.76,112.81 -12.8,41.44 -10.9,-41.18 h -19.52 l 20.92,68.43 h 17.23 L 441,139.81 454.05,181.5 h 17.36 l 21.17,-68.43 h -19.14 l -11.15,41.31 -12.93,-41.57 z" />
    <path
       class="d"
       d="m 564.56,148.68 c 0,-19.26 -10.39,-36.88 -33.08,-36.88 -19.77,0 -33.58,15.97 -33.58,35.36 v 0.25 c 0,20.78 15.08,35.1 35.48,35.1 12.29,0 21.42,-4.82 27.75,-12.67 l -11.03,-9.76 c -5.32,4.94 -10.01,6.97 -16.47,6.97 -8.62,0 -14.7,-4.56 -16.6,-13.31 h 47.27 c 0.13,-1.77 0.25,-3.55 0.25,-5.07 z m -47.78,-6.97 c 1.52,-8.74 6.72,-14.45 14.7,-14.45 7.98,0 13.18,5.83 14.32,14.45 z"
       id="path89" />
    <path
       class="d"
       d="m 141.96,51.38 -90.91,62.69 62.69,90.91 90.91,-62.69 z m -25.01,112.99 6.34,-59.49 -31.1,21.45 -7.76,-11.25 47.61,-32.83 6.73,9.75 -6.34,59.49 32.1,-22.14 7.76,11.26 -48.61,33.52 -6.73,-9.75 z"
       id="path91" />
    <g
       id="g151">
      <g
         id="g113">
        <path
           class="d"
           d="m 138.33,224.24 c -3.21,0 -5.73,1.14 -7.57,3.41 -1.84,2.27 -2.76,5.41 -2.76,9.41 0,4 0.88,7.36 2.65,9.51 1.77,2.15 4.33,3.22 7.67,3.22 1.45,0 2.85,-0.14 4.2,-0.43 1.36,-0.29 2.76,-0.66 4.23,-1.11 v 4.79 c -2.68,1.01 -5.72,1.52 -9.11,1.52 -5,0 -8.84,-1.51 -11.52,-4.54 -2.68,-3.03 -4.02,-7.36 -4.02,-13 0,-3.55 0.65,-6.66 1.95,-9.32 1.3,-2.66 3.18,-4.7 5.64,-6.12 2.46,-1.42 5.35,-2.13 8.67,-2.13 3.49,0 6.71,0.73 9.67,2.2 l -2.01,4.65 c -1.15,-0.54 -2.37,-1.02 -3.66,-1.44 -1.29,-0.41 -2.64,-0.62 -4.05,-0.62 z"
           id="path93" />
        <path
           class="d"
           d="m 189.22,236.97 c 0,5.56 -1.39,9.88 -4.17,12.96 -2.78,3.08 -6.72,4.62 -11.81,4.62 -5.09,0 -9.11,-1.53 -11.88,-4.59 -2.76,-3.06 -4.15,-7.41 -4.15,-13.05 0,-5.64 1.39,-9.97 4.17,-12.99 2.78,-3.02 6.75,-4.53 11.9,-4.53 5.15,0 9,1.53 11.77,4.6 2.77,3.07 4.16,7.39 4.16,12.96 z m -26.07,0 c 0,4.2 0.85,7.39 2.55,9.57 1.7,2.17 4.21,3.26 7.54,3.26 3.33,0 5.82,-1.08 7.51,-3.22 1.69,-2.15 2.53,-5.35 2.53,-9.6 0,-4.25 -0.84,-7.37 -2.51,-9.53 -1.67,-2.16 -4.17,-3.25 -7.49,-3.25 -3.32,0 -5.88,1.08 -7.58,3.25 -1.71,2.17 -2.56,5.34 -2.56,9.53 z"
           id="path95" />
        <path
           class="d"
           d="m 229.79,254.09 h -6.84 l -16.79,-27.21 h -0.19 l 0.12,1.52 c 0.22,2.9 0.33,5.54 0.33,7.94 v 17.75 h -5.07 v -34.15 h 6.77 l 16.75,27.07 h 0.14 c -0.03,-0.36 -0.09,-1.66 -0.19,-3.91 -0.1,-2.25 -0.14,-4.01 -0.14,-5.27 v -17.89 h 5.12 v 34.15 z"
           id="path97" />
        <path
           class="d"
           d="m 249.13,254.09 h -5.54 v -34.15 h 19.27 v 4.72 h -13.73 v 10.67 H 262 v 4.74 h -12.87 z"
           id="path99" />
        <path
           class="d"
           d="m 304.16,236.97 c 0,5.56 -1.39,9.88 -4.17,12.96 -2.78,3.08 -6.72,4.62 -11.81,4.62 -5.09,0 -9.11,-1.53 -11.88,-4.59 -2.76,-3.06 -4.15,-7.41 -4.15,-13.05 0,-5.64 1.39,-9.97 4.17,-12.99 2.78,-3.02 6.75,-4.53 11.9,-4.53 5.15,0 9,1.53 11.77,4.6 2.77,3.07 4.16,7.39 4.16,12.96 z m -26.07,0 c 0,4.2 0.85,7.39 2.55,9.57 1.7,2.17 4.21,3.26 7.54,3.26 3.33,0 5.82,-1.08 7.51,-3.22 1.69,-2.15 2.53,-5.35 2.53,-9.6 0,-4.25 -0.84,-7.37 -2.51,-9.53 -1.67,-2.16 -4.17,-3.25 -7.49,-3.25 -3.32,0 -5.88,1.08 -7.58,3.25 -1.71,2.17 -2.56,5.34 -2.56,9.53 z"
           id="path101" />
        <path
           class="d"
           d="m 321.86,240.45 v 13.64 h -5.58 v -34.15 h 9.65 c 4.41,0 7.67,0.83 9.79,2.48 2.12,1.65 3.18,4.14 3.18,7.47 0,4.25 -2.21,7.28 -6.63,9.09 l 9.65,15.11 h -6.35 l -8.18,-13.64 h -5.51 z m 0,-4.62 h 3.88 c 2.6,0 4.49,-0.48 5.65,-1.45 1.16,-0.97 1.75,-2.4 1.75,-4.3 0,-1.9 -0.63,-3.32 -1.89,-4.16 -1.26,-0.84 -3.16,-1.26 -5.7,-1.26 h -3.69 z"
           id="path103" />
        <path
           class="d"
           d="m 366.4,254.09 -9.9,-28.52 h -0.19 c 0.26,4.24 0.4,8.21 0.4,11.91 v 16.61 h -5.07 v -34.15 h 7.87 l 9.48,27.17 h 0.14 l 9.76,-27.17 h 7.9 v 34.15 h -5.37 V 237.2 c 0,-1.7 0.04,-3.91 0.13,-6.63 0.08,-2.73 0.16,-4.38 0.22,-4.95 h -0.19 l -10.25,28.47 z"
           id="path105" />
        <path
           class="d"
           d="m 421.76,254.09 -3.41,-9.48 h -13.06 l -3.34,9.48 h -5.89 l 12.78,-34.29 h 6.07 l 12.78,34.29 z m -4.88,-14.3 -3.2,-9.3 c -0.23,-0.62 -0.56,-1.6 -0.97,-2.94 -0.41,-1.34 -0.7,-2.32 -0.85,-2.94 -0.42,1.92 -1.04,4.01 -1.85,6.28 l -3.08,8.9 z"
           id="path107" />
        <path
           class="d"
           d="m 465.43,254.09 h -6.84 L 441.8,226.88 h -0.19 l 0.12,1.52 c 0.22,2.9 0.33,5.54 0.33,7.94 v 17.75 h -5.07 v -34.15 h 6.77 l 16.75,27.07 h 0.14 c -0.03,-0.36 -0.09,-1.66 -0.19,-3.91 -0.1,-2.25 -0.14,-4.01 -0.14,-5.27 v -17.89 h 5.12 v 34.15 z"
           id="path109" />
        <path
           class="d"
           d="m 491.03,254.09 h -5.58 v -29.36 h -10.04 v -4.79 h 25.67 v 4.79 h -10.04 v 29.36 z"
           id="path111" />
      </g>
      <g
         class="h"
         id="g117">
        <path
           id="rect115"
           class="d"
           style="fill:#ffffff"
           d="M 36.169998,277.64001 H 589.70003 v 43.53 H 36.169998 Z" />
      </g>
      <g
         id="g149">
        <path
           class="e"
           d="m 120.43,303.15 c 0,1.82 -0.65,3.25 -1.96,4.29 -1.31,1.04 -3.13,1.57 -5.46,1.57 -2.15,0 -4.05,-0.4 -5.7,-1.21 v -3.96 c 1.36,0.61 2.51,1.03 3.45,1.28 0.94,0.25 1.8,0.37 2.58,0.37 0.94,0 1.65,-0.18 2.15,-0.54 0.5,-0.36 0.75,-0.89 0.75,-1.6 0,-0.39 -0.11,-0.75 -0.33,-1.05 -0.22,-0.31 -0.54,-0.6 -0.97,-0.89 -0.43,-0.29 -1.3,-0.74 -2.61,-1.36 -1.23,-0.58 -2.15,-1.13 -2.77,-1.67 -0.62,-0.53 -1.11,-1.15 -1.47,-1.86 -0.37,-0.71 -0.55,-1.53 -0.55,-2.48 0,-1.78 0.6,-3.18 1.81,-4.2 1.21,-1.02 2.87,-1.53 5,-1.53 1.05,0 2.04,0.12 2.99,0.37 0.95,0.25 1.94,0.6 2.98,1.05 l -1.38,3.32 c -1.07,-0.44 -1.96,-0.75 -2.66,-0.92 -0.7,-0.17 -1.39,-0.26 -2.07,-0.26 -0.81,0 -1.43,0.19 -1.86,0.56 -0.43,0.38 -0.65,0.87 -0.65,1.47 0,0.38 0.09,0.7 0.26,0.98 0.17,0.28 0.45,0.55 0.83,0.81 0.38,0.26 1.28,0.73 2.7,1.41 1.88,0.9 3.17,1.8 3.87,2.7 0.7,0.9 1.05,2.01 1.05,3.32 z"
           id="path119" />
        <path
           class="e"
           d="m 148.91,288.62 v 13.02 c 0,1.49 -0.33,2.79 -1,3.91 -0.67,1.12 -1.63,1.98 -2.88,2.57 -1.25,0.59 -2.74,0.89 -4.46,0.89 -2.59,0 -4.6,-0.66 -6.03,-1.99 -1.43,-1.33 -2.15,-3.14 -2.15,-5.44 v -12.96 h 4.25 v 12.32 c 0,1.55 0.31,2.69 0.94,3.41 0.62,0.73 1.66,1.09 3.1,1.09 1.44,0 2.41,-0.37 3.03,-1.09 0.63,-0.73 0.94,-1.87 0.94,-3.43 v -12.29 h 4.25 z"
           id="path121" />
        <path
           class="e"
           d="m 176.19,294.89 c 0,2.17 -0.68,3.82 -2.03,4.97 -1.35,1.15 -3.28,1.72 -5.77,1.72 h -1.83 v 7.16 h -4.27 v -20.12 h 6.43 c 2.44,0 4.3,0.53 5.57,1.58 1.27,1.05 1.91,2.62 1.91,4.7 z m -9.63,3.19 h 1.4 c 1.31,0 2.29,-0.26 2.95,-0.78 0.66,-0.52 0.98,-1.27 0.98,-2.26 0,-0.99 -0.27,-1.74 -0.82,-2.22 -0.55,-0.48 -1.4,-0.72 -2.57,-0.72 h -1.94 v 5.97 z"
           id="path123" />
        <path
           class="e"
           d="m 202.34,294.89 c 0,2.17 -0.68,3.82 -2.03,4.97 -1.35,1.15 -3.28,1.72 -5.77,1.72 h -1.83 v 7.16 h -4.27 v -20.12 h 6.43 c 2.44,0 4.3,0.53 5.57,1.58 1.27,1.05 1.91,2.62 1.91,4.7 z m -9.63,3.19 h 1.4 c 1.31,0 2.29,-0.26 2.95,-0.78 0.66,-0.52 0.98,-1.27 0.98,-2.26 0,-0.99 -0.27,-1.74 -0.82,-2.22 -0.55,-0.48 -1.4,-0.72 -2.57,-0.72 h -1.94 v 5.97 z"
           id="path125" />
        <path
           class="e"
           d="m 232.86,298.65 c 0,3.33 -0.83,5.89 -2.48,7.68 -1.65,1.79 -4.02,2.68 -7.1,2.68 -3.08,0 -5.45,-0.89 -7.1,-2.68 -1.65,-1.79 -2.48,-4.36 -2.48,-7.71 0,-3.35 0.83,-5.91 2.48,-7.67 1.66,-1.77 4.03,-2.65 7.12,-2.65 3.09,0 5.46,0.89 7.09,2.67 1.64,1.78 2.46,4.34 2.46,7.68 z m -14.68,0 c 0,2.25 0.43,3.94 1.28,5.08 0.85,1.14 2.13,1.71 3.83,1.71 3.4,0 5.11,-2.26 5.11,-6.79 0,-4.53 -1.69,-6.8 -5.08,-6.8 -1.7,0 -2.98,0.57 -3.84,1.71 -0.86,1.14 -1.29,2.84 -1.29,5.08 z"
           id="path127" />
        <path
           class="e"
           d="m 249.75,301.02 v 7.72 h -4.27 v -20.12 h 5.86 c 2.73,0 4.76,0.5 6.07,1.49 1.31,1 1.97,2.51 1.97,4.53 0,1.18 -0.33,2.24 -0.98,3.16 -0.65,0.92 -1.57,1.64 -2.77,2.17 3.03,4.52 5,7.45 5.92,8.77 h -4.73 l -4.8,-7.72 z m 0,-3.47 h 1.38 c 1.35,0 2.34,-0.22 2.99,-0.67 0.64,-0.45 0.96,-1.16 0.96,-2.12 0,-0.96 -0.33,-1.63 -0.98,-2.04 -0.66,-0.4 -1.67,-0.61 -3.05,-0.61 h -1.29 v 5.44 z"
           id="path129" />
        <path
           class="e"
           d="m 280.31,308.74 h -4.27 v -16.57 h -5.46 v -3.55 h 15.19 v 3.55 h -5.46 z"
           id="path131" />
        <path
           class="e"
           d="m 327,294.89 c 0,2.17 -0.68,3.82 -2.03,4.97 -1.35,1.15 -3.28,1.72 -5.77,1.72 h -1.83 v 7.16 h -4.27 v -20.12 h 6.43 c 2.44,0 4.3,0.53 5.57,1.58 1.27,1.05 1.91,2.62 1.91,4.7 z m -9.63,3.19 h 1.4 c 1.31,0 2.29,-0.26 2.95,-0.78 0.66,-0.52 0.98,-1.27 0.98,-2.26 0,-0.99 -0.27,-1.74 -0.82,-2.22 -0.55,-0.48 -1.4,-0.72 -2.57,-0.72 h -1.94 v 5.97 z"
           id="path133" />
        <path
           class="e"
           d="m 343.52,301.02 v 7.72 h -4.27 v -20.12 h 5.86 c 2.73,0 4.76,0.5 6.07,1.49 1.31,1 1.97,2.51 1.97,4.53 0,1.18 -0.33,2.24 -0.98,3.16 -0.65,0.92 -1.57,1.64 -2.77,2.17 3.03,4.52 5,7.45 5.92,8.77 h -4.73 l -4.8,-7.72 z m 0,-3.47 h 1.38 c 1.35,0 2.34,-0.22 2.99,-0.67 0.64,-0.45 0.96,-1.16 0.96,-2.12 0,-0.96 -0.33,-1.63 -0.98,-2.04 -0.66,-0.4 -1.67,-0.61 -3.05,-0.61 h -1.29 v 5.44 z"
           id="path135" />
        <path
           class="e"
           d="m 384.58,298.65 c 0,3.33 -0.83,5.89 -2.48,7.68 -1.65,1.79 -4.02,2.68 -7.1,2.68 -3.08,0 -5.45,-0.89 -7.1,-2.68 -1.65,-1.79 -2.48,-4.36 -2.48,-7.71 0,-3.35 0.83,-5.91 2.48,-7.67 1.66,-1.77 4.03,-2.65 7.12,-2.65 3.09,0 5.46,0.89 7.09,2.67 1.64,1.78 2.46,4.34 2.46,7.68 z m -14.68,0 c 0,2.25 0.43,3.94 1.28,5.08 0.85,1.14 2.13,1.71 3.83,1.71 3.4,0 5.11,-2.26 5.11,-6.79 0,-4.53 -1.69,-6.8 -5.08,-6.8 -1.7,0 -2.98,0.57 -3.84,1.71 -0.86,1.14 -1.29,2.84 -1.29,5.08 z"
           id="path137" />
        <path
           class="e"
           d="m 408.68,288.62 h 4.31 l -6.84,20.12 h -4.65 l -6.83,-20.12 h 4.31 l 3.78,11.97 c 0.21,0.71 0.43,1.53 0.65,2.47 0.22,0.94 0.36,1.59 0.42,1.96 0.1,-0.84 0.44,-2.32 1.03,-4.43 l 3.81,-11.97 z"
           id="path139" />
        <path
           class="e"
           d="m 423.98,308.74 v -20.12 h 4.27 v 20.12 z"
           id="path141" />
        <path
           class="e"
           d="m 458.46,298.49 c 0,3.31 -0.94,5.85 -2.83,7.61 -1.88,1.76 -4.61,2.64 -8.17,2.64 h -5.7 v -20.12 h 6.32 c 3.28,0 5.83,0.87 7.65,2.6 1.82,1.73 2.72,4.16 2.72,7.27 z m -4.43,0.11 c 0,-4.32 -1.91,-6.48 -5.73,-6.48 h -2.27 v 13.1 h 1.83 c 4.11,0 6.17,-2.21 6.17,-6.62 z"
           id="path143" />
        <path
           class="e"
           d="m 482.67,308.74 h -11.59 v -20.12 h 11.59 v 3.5 h -7.32 v 4.42 h 6.81 v 3.5 h -6.81 v 5.19 h 7.32 v 3.52 z"
           id="path145" />
        <path
           class="e"
           d="m 499.59,301.02 v 7.72 h -4.27 v -20.12 h 5.86 c 2.73,0 4.76,0.5 6.07,1.49 1.31,1 1.97,2.51 1.97,4.53 0,1.18 -0.33,2.24 -0.98,3.16 -0.65,0.92 -1.57,1.64 -2.77,2.17 3.03,4.52 5,7.45 5.92,8.77 h -4.73 l -4.8,-7.72 z m 0,-3.47 h 1.38 c 1.35,0 2.34,-0.22 2.99,-0.67 0.64,-0.45 0.96,-1.16 0.96,-2.12 0,-0.96 -0.33,-1.63 -0.98,-2.04 -0.66,-0.4 -1.67,-0.61 -3.05,-0.61 h -1.29 v 5.44 z"
           id="path147" />
      </g>
    </g>
  </g>
  <g
     aria-label="COMPREHENSIVE - ZOWE V2"
     transform="translate(48.75,418.17)"
     id="text157"
     class="g"
     style="font-size:32px;font-family:OpenSans-Bold, 'Open Sans';letter-spacing:0.12em;fill:#488eff">
    <path
       d="m 21.09375,-1.6875 q -0.859375,0.375 -1.5625,0.703125 -0.6875,0.328125 -1.8125,0.6875 -0.953125,0.296875 -2.078125,0.5 -1.109375,0.21875 -2.453125,0.21875 -2.53125,0 -4.609375,-0.703125 Q 6.515625,-1 4.984375,-2.515625 3.484375,-4 2.640625,-6.28125 q -0.84375,-2.296875 -0.84375,-5.328125 0,-2.875 0.8125,-5.140625 0.8125,-2.265625 2.34375,-3.828125 1.484375,-1.515625 3.578125,-2.3125 2.109375,-0.796875 4.671875,-0.796875 1.875,0 3.734375,0.453125 1.875,0.453125 4.15625,1.59375 v 3.671875 H 20.859375 Q 18.9375,-19.578125 17.046875,-20.3125 15.15625,-21.046875 13,-21.046875 q -1.765625,0 -3.1875,0.578125 -1.40625,0.5625 -2.515625,1.765625 -1.078125,1.171875 -1.6875,2.96875 -0.59375,1.78125 -0.59375,4.125 0,2.453125 0.65625,4.21875 0.671875,1.765625 1.71875,2.875 1.09375,1.15625 2.546875,1.71875 1.46875,0.546875 3.09375,0.546875 2.234375,0 4.1875,-0.765625 Q 19.171875,-3.78125 20.875,-5.3125 h 0.21875 z"
       id="path177" />
    <path
       d="m 46.68375,-20.59375 q 1.421875,1.5625 2.171875,3.828125 0.765625,2.265625 0.765625,5.140625 0,2.875 -0.78125,5.15625 -0.765625,2.265625 -2.15625,3.78125 -1.4375,1.578125 -3.40625,2.375 -1.953125,0.796875 -4.46875,0.796875 -2.453125,0 -4.46875,-0.8125 -2,-0.8125 -3.40625,-2.359375 -1.40625,-1.546875 -2.171875,-3.796875 -0.75,-2.25 -0.75,-5.140625 0,-2.84375 0.75,-5.09375 0.75,-2.265625 2.1875,-3.875 1.375,-1.53125 3.40625,-2.34375 2.046875,-0.8125 4.453125,-0.8125 2.5,0 4.484375,0.828125 2,0.8125 3.390625,2.328125 z M 46.4025,-11.625 q 0,-4.53125 -2.03125,-6.984375 -2.03125,-2.46875 -5.546875,-2.46875 -3.546875,0 -5.578125,2.46875 -2.015625,2.453125 -2.015625,6.984375 0,4.578125 2.0625,7.015625 2.0625,2.421875 5.53125,2.421875 3.46875,0 5.515625,-2.421875 2.0625,-2.4375 2.0625,-7.015625 z"
       id="path179" />
    <path
       d="M 79.08625,0 H 75.9925 V -20.046875 L 69.52375,-6.40625 H 67.68 L 61.258125,-20.046875 V 0 H 58.3675 v -23.265625 h 4.21875 l 6.203125,12.953125 6,-12.953125 h 4.296875 z"
       id="path181" />
    <path
       d="m 104.42625,-16.234375 q 0,1.546875 -0.54688,2.875 -0.53125,1.3125 -1.5,2.28125 -1.20312,1.203125 -2.843748,1.8125 -1.640625,0.59375 -4.140625,0.59375 h -3.09375 V 0 h -3.09375 v -23.265625 h 6.3125 q 2.09375,0 3.546875,0.359375 1.453128,0.34375 2.578128,1.09375 1.32812,0.890625 2.04687,2.21875 0.73438,1.328125 0.73438,3.359375 z m -3.21875,0.07813 q 0,-1.203125 -0.42188,-2.09375 -0.42187,-0.890625 -1.281248,-1.453125 -0.75,-0.484375 -1.71875,-0.6875 -0.953125,-0.21875 -2.421875,-0.21875 h -3.0625 v 9.296875 h 2.609375 q 1.875,0 3.046875,-0.328125 1.171875,-0.34375 1.90625,-1.078125 0.734373,-0.75 1.031253,-1.578125 0.3125,-0.828125 0.3125,-1.859375 z"
       id="path183" />
    <path
       d="m 131.61,0 h -4.01562 l -7.78125,-9.25 h -4.35938 V 0 H 112.36 v -23.265625 h 6.51563 q 2.10937,0 3.51562,0.28125 1.40625,0.265625 2.53125,0.96875 1.26563,0.796875 1.96875,2.015625 0.71875,1.203125 0.71875,3.0625 0,2.515625 -1.26562,4.21875 -1.26563,1.6875 -3.48438,2.546875 z m -7.23437,-16.71875 q 0,-1 -0.35938,-1.765625 -0.34375,-0.78125 -1.15625,-1.3125 -0.67187,-0.453125 -1.59375,-0.625 -0.92187,-0.1875 -2.17187,-0.1875 h -3.64063 v 8.78125 h 3.125 q 1.46875,0 2.5625,-0.25 1.09375,-0.265625 1.85938,-0.96875 0.70312,-0.65625 1.03125,-1.5 0.34375,-0.859375 0.34375,-2.171875 z"
       id="path185" />
    <path
       d="M 153.77812,0 H 138.45 v -23.265625 h 15.32812 v 2.75 h -12.23437 v 6.375 h 12.23437 v 2.75 H 141.54375 V -2.75 h 12.23437 z"
       id="path187" />
    <path
       d="m 180.33687,0 h -3.09375 V -11.390625 H 165.63374 V 0 h -3.09375 v -23.265625 h 3.09375 v 9.125 h 11.60938 v -9.125 h 3.09375 z"
       id="path189" />
    <path
       d="M 205.77063,0 H 190.4425 v -23.265625 h 15.32813 v 2.75 h -12.23438 v 6.375 h 12.23438 v 2.75 H 193.53625 V -2.75 h 12.23438 z"
       id="path191" />
    <path
       d="m 232.2825,0 h -3.82812 L 217.42313,-20.8125 V 0 h -2.89063 v -23.265625 h 4.79688 l 10.0625,19 v -19 h 2.89062 z"
       id="path193" />
    <path
       d="m 259.21625,-6.640625 q 0,1.359375 -0.64063,2.6875 -0.625,1.328125 -1.76562,2.25 -1.25,1 -2.92188,1.5625 -1.65625,0.5625 -4,0.5625 -2.51562,0 -4.53125,-0.46875 -2,-0.46875 -4.07812,-1.390625 v -3.875 h 0.21875 q 1.76562,1.46875 4.07812,2.265625 2.3125,0.796875 4.34375,0.796875 2.875,0 4.46875,-1.078125 1.60938,-1.078125 1.60938,-2.875 0,-1.546875 -0.76563,-2.28125 -0.75,-0.734375 -2.29687,-1.140625 -1.17188,-0.3125 -2.54688,-0.515625 -1.35937,-0.203125 -2.89062,-0.515625 -3.09375,-0.65625 -4.59375,-2.234375 -1.48438,-1.59375 -1.48438,-4.140625 0,-2.921875 2.46875,-4.78125 2.46875,-1.875 6.26563,-1.875 2.45312,0 4.5,0.46875 2.04687,0.46875 3.625,1.15625 v 3.65625 H 258.06 q -1.32813,-1.125 -3.5,-1.859375 -2.15625,-0.75 -4.42188,-0.75 -2.48437,0 -4,1.03125 -1.5,1.03125 -1.5,2.65625 0,1.453125 0.75,2.28125 0.75,0.828125 2.64063,1.265625 1,0.21875 2.84375,0.53125 1.84375,0.3125 3.125,0.640625 2.59375,0.6875 3.90625,2.078125 1.3125,1.390625 1.3125,3.890625 z"
       id="path195" />
    <path
       d="m 276.22812,0 h -9.1875 v -2.375 h 3.04687 v -18.515625 h -3.04687 v -2.375 h 9.1875 v 2.375 h -3.04688 V -2.375 h 3.04688 z"
       id="path197" />
    <path
       d="M 303.70874,-23.265625 295.23999,0 h -4.125 l -8.46875,-23.265625 h 3.3125 l 7.29688,20.46875 7.29687,-20.46875 z"
       id="path199" />
    <path
       d="m 326.40811,0 h -15.32812 v -23.265625 h 15.32812 v 2.75 h -12.23437 v 6.375 h 12.23437 v 2.75 H 314.17374 V -2.75 h 12.23437 z"
       id="path201" />
    <path
       d="m 359.27563,-8.765625 h -9.75 v -2.828125 h 9.75 z"
       id="path203" />
    <path
       d="m 400.7525,0 h -18.15625 v -2.875 l 14.26563,-17.640625 H 383.1275 v -2.75 h 17.28125 v 2.796875 L 386.0025,-2.75 h 14.75 z"
       id="path205" />
    <path
       d="m 426.87375,-20.59375 q 1.42187,1.5625 2.17187,3.828125 0.76563,2.265625 0.76563,5.140625 0,2.875 -0.78125,5.15625 -0.76563,2.265625 -2.15625,3.78125 -1.4375,1.578125 -3.40625,2.375 -1.95313,0.796875 -4.46875,0.796875 -2.45313,0 -4.46875,-0.8125 -2,-0.8125 -3.40625,-2.359375 -1.40625,-1.546875 -2.17188,-3.796875 -0.75,-2.25 -0.75,-5.140625 0,-2.84375 0.75,-5.09375 0.75,-2.265625 2.1875,-3.875 1.375,-1.53125 3.40625,-2.34375 2.04688,-0.8125 4.45313,-0.8125 2.5,0 4.48437,0.828125 2,0.8125 3.39063,2.328125 z m -0.28125,8.96875 q 0,-4.53125 -2.03125,-6.984375 -2.03125,-2.46875 -5.54688,-2.46875 -3.54687,0 -5.57812,2.46875 -2.01563,2.453125 -2.01563,6.984375 0,4.578125 2.0625,7.015625 2.0625,2.421875 5.53125,2.421875 3.46875,0 5.51563,-2.421875 2.0625,-2.4375 2.0625,-7.015625 z"
       id="path207" />
    <path
       d="M 465.63562,-23.265625 459.58875,0 h -3.48438 L 451.21375,-19.3125 446.4325,0 h -3.40625 L 436.87,-23.265625 h 3.17187 l 4.89063,19.34375 4.8125,-19.34375 h 3.14062 l 4.85938,19.53125 4.85937,-19.53125 z"
       id="path209" />
    <path
       d="m 489.35062,0 h -15.32813 v -23.265625 h 15.32813 v 2.75 h -12.23438 v 6.375 h 12.23438 v 2.75 H 477.11624 V -2.75 h 12.23438 z"
       id="path211" />
    <path
       d="M 531.54623,-23.265625 523.07748,0 h -4.125 l -8.46875,-23.265625 h 3.3125 l 7.29688,20.46875 7.29687,-20.46875 z"
       id="path213" />
    <path
       d="m 554.05811,0 h -15.75 v -3.265625 q 1.64062,-1.40625 3.28125,-2.8125 1.65625,-1.40625 3.07812,-2.796875 3,-2.90625 4.10938,-4.609375 1.10937,-1.71875 1.10937,-3.703125 0,-1.8125 -1.20312,-2.828125 -1.1875,-1.03125 -3.32813,-1.03125 -1.42187,0 -3.07812,0.5 -1.65625,0.5 -3.23438,1.53125 h -0.15625 v -3.28125 q 1.10938,-0.546875 2.95313,-1 1.85937,-0.453125 3.59375,-0.453125 3.57812,0 5.60937,1.734375 2.03125,1.71875 2.03125,4.671875 0,1.328125 -0.34375,2.484375 -0.32812,1.140625 -0.98437,2.171875 -0.60938,0.96875 -1.4375,1.90625 -0.8125,0.9375 -1.98438,2.078125 -1.67187,1.640625 -3.45312,3.1875 -1.78125,1.53125 -3.32813,2.84375 h 12.51563 z"
       id="path215" />
  </g>
</svg>
