<?xml version="1.0" encoding="UTF-8"?><svg id="a" xmlns="http://www.w3.org/2000/svg" xmlns:xlink="http://www.w3.org/1999/xlink" viewBox="0 0 624.24 469.28"><defs><style>.c{fill:none;}.d{fill:#fff;}.e{fill:#3274f9;}.f{fill:#488eff;}.g{opacity:.58;}.h{opacity:.9;}.i{clip-path:url(#b);}</style><clipPath id="b"><path class="c" d="M75.81,7.38h473.31c34.98,0,63.35,28.36,63.35,63.35V342.14H12.47V70.72C12.47,35.74,40.83,7.38,75.81,7.38h0Z"/></clipPath></defs><g><path class="f" d="M612.47,342.14H12.47V70.72C12.47,35.74,40.83,7.38,75.81,7.38h473.31c34.98,0,63.35,28.36,63.35,63.35"/><path class="f" d="M608.87,355.91v103.77H16.07v-103.77H608.87m3.6-3.6H12.47v110.97H612.47v-110.97Z"/><g class="i"><g class="h"><path class="e" d="M368-133.62L1.05,119.44,254.11,486.38l366.94-253.06L368-133.62Zm-100.97,456.07l25.59-240.13-125.53,86.57,13.96-37.51-45.29-7.92L327.92-9.07l27.15,39.37-25.59,240.12,129.57-89.35,31.33,45.43-196.2,135.31-27.15-39.38Z"/></g></g><polygon class="d" points="154.84 110.59 154.84 110.59 154.84 110.59 154.84 110.59"/><path class="c" d="M392.64,66.95c.46-.34,.7-.88,.65-1.45v-.05c.06-.61-.22-1.21-.74-1.54-.74-.35-1.55-.51-2.36-.45h-1.01v3.87h1.03c.83,.06,1.66-.08,2.43-.39Z"/><path class="c" d="M484.69,66.8c1.15-.97,1.29-2.69,.32-3.84l-.33-.33c-.84-.55-1.83-.81-2.83-.75h-2.36v5.67h2.39c.99,.06,1.98-.2,2.81-.74Z"/><path class="c" d="M472.4,66.91c1.19-1.07,1.28-2.9,.21-4.09h0s-.02-.03-.03-.04l-.14-.16c-.76-.56-1.7-.84-2.64-.78l-2.83,.04v5.8h2.68c.98,.07,1.95-.2,2.75-.77Z"/><path class="c" d="M347.34,128.4c-11.03,0-17.62,8.49-17.62,18.5v.25c0,10.01,7.22,18.76,17.87,18.76s17.61-8.49,17.61-18.5v-.25c0-10.01-7.22-18.76-17.87-18.76Z"/><polygon class="c" points="409.93 64.59 407.57 70.39 412.28 70.39 409.93 64.59"/><path class="c" d="M255.81,67.85c1.32-1.23,1.4-3.3,.18-4.62-.04-.06-.1-.12-.16-.16-.83-.63-1.86-.95-2.9-.88h-3.21v6.52h3.02c1.09,.07,2.17-.23,3.07-.86Z"/><path class="c" d="M531.48,127.26c-7.98,0-13.18,5.7-14.7,14.45h29.02c-1.14-8.62-6.21-14.45-14.32-14.45Z"/><polygon class="c" points="327.44 64.59 325.07 70.39 329.79 70.39 327.44 64.59"/><path class="c" d="M231.76,74.33c2.85,2.74,7.36,2.74,10.22,0,2.76-2.82,2.76-7.33,0-10.14-2.85-2.74-7.36-2.74-10.22,0-2.8,2.79-2.81,7.32-.02,10.12h0l.02,.02Z"/><path class="c" d="M503.51,72.72c2.48-2.52,2.48-6.56,0-9.08-2.55-2.47-6.6-2.47-9.14,0-2.5,2.5-2.5,6.56,0,9.06h0c1.21,1.22,2.87,1.88,4.58,1.84h0c1.71,.06,3.36-.61,4.57-1.83Z"/><path class="d" d="M466.97,68.64h2.75c1.29,.1,2.57-.27,3.61-1.04,.82-.7,1.27-1.75,1.22-2.83,.06-1.07-.4-2.11-1.22-2.8-1-.75-2.24-1.12-3.49-1.03h-3.99v14.47h1.11v-6.77Zm0-6.77l2.83-.04c.95-.06,1.88,.22,2.64,.78l.14,.16s.02,.03,.03,.04c1.07,1.19,.98,3.02-.21,4.09h0c-.8,.57-1.77,.84-2.75,.77h-2.68v-5.8Z"/><path class="d" d="M479.45,68.5h2c.72-.04,1.44,.13,2.06,.49,.79,.71,1.45,1.55,1.96,2.48l2.52,3.94h1.34l-3.27-5c-.47-.87-1.13-1.63-1.93-2.22,1.62-.39,2.76-1.84,2.75-3.51,.04-1.05-.41-2.06-1.23-2.72-1.03-.74-2.3-1.1-3.57-1.02h-3.7l-.04,14.5h1.11v-6.94Zm.04-6.62h2.36c1-.06,1.99,.2,2.83,.75l.33,.33c.97,1.15,.83,2.87-.32,3.84-.83,.54-1.82,.8-2.81,.74h-2.39v-5.67Z"/><path class="d" d="M504.38,73.44l.18-.18s.06-.06,.08-.09c2.76-2.9,2.64-7.49-.26-10.25h0c-3.05-2.87-7.81-2.87-10.86,0l-.14,.15h0c-2.82,2.91-2.75,7.55,.15,10.37,3.05,2.88,7.81,2.88,10.86,0Zm-10.01-.74c-2.5-2.5-2.5-6.56,0-9.06h0c2.55-2.48,6.6-2.48,9.14,0,2.48,2.52,2.48,6.56,0,9.08-1.2,1.22-2.85,1.88-4.57,1.84h0c-1.71,.03-3.37-.64-4.58-1.85h0Z"/><path class="d" d="M509.2,79.64c.81,0,1.58-.33,2.13-.92,.7-.94,1.02-2.11,.9-3.27v-14.5h-1.11v14.82c0,1.94-.67,2.9-2.03,2.9-.22,0-.44-.03-.65-.07l.1,1.05c.22,0,.44,0,.67,0Z"/><polygon class="d" points="525.22 74.47 518.29 74.47 518.29 68.6 524.89 68.6 524.89 67.66 518.29 67.66 518.29 61.88 525.06 61.88 525.06 60.95 517.18 60.95 517.18 75.41 525.22 75.41 525.22 74.47"/><path class="d" d="M541.28,61.98h0s.04,.02,.06,.03l-.06-.03Z"/><path class="d" d="M536.31,75.62c1.79-.02,3.55-.48,5.12-1.35v-1.16c-1.57,.9-3.34,1.4-5.14,1.45-1.73,.06-3.41-.58-4.65-1.79-1.22-1.21-1.88-2.88-1.81-4.61-.05-1.71,.6-3.37,1.81-4.58,1.18-1.21,2.8-1.88,4.49-1.84,1.81,.05,3.59,.55,5.16,1.45v-1.21c-1.57-.75-3.29-1.16-5.03-1.19-2-.02-3.92,.74-5.35,2.13-.03,.04-.06,.07-.1,.1h0c-2.89,2.9-2.89,7.59,0,10.48,1.47,1.42,3.46,2.19,5.51,2.12Z"/><polygon class="d" points="549.12 75.41 550.25 75.41 550.25 61.88 555.67 61.88 555.67 60.95 543.68 60.95 543.68 61.88 549.12 61.88 549.12 75.41"/><polygon class="d" points="315.52 76.43 315.52 60.4 311.12 60.4 306.18 66.42 301.26 60.4 296.88 60.4 296.88 76.43 301.57 76.43 301.57 67.14 305.94 72.52 306.33 72.52 310.68 67.14 310.68 76.43 315.52 76.43"/><path class="d" d="M323.94,73.18h6.96l1.32,3.25h4.94l-7-16.03h-5.41l-7.09,16.03h4.94l1.33-3.25Zm3.51-8.59l2.35,5.8h-4.72l2.37-5.8Z"/><rect class="d" x="339.3" y="60.4" width="4.82" height="16.03"/><polygon class="d" points="352.97 67.5 361.29 76.43 365.58 76.43 365.58 60.4 360.77 60.4 360.77 69.28 352.48 60.4 348.19 60.4 348.19 76.43 352.97 76.43 352.97 67.5"/><polygon class="d" points="374.44 69.94 381.09 69.94 381.09 66.72 374.44 66.72 374.44 63.62 381.09 63.62 381.09 60.4 369.61 60.4 369.61 76.43 374.44 76.43 374.44 69.94"/><path class="d" d="M391.08,70.33c.44,.21,.81,.53,1.08,.93,.49,.71,.91,1.48,1.25,2.28l1.26,2.9h5.19l-1.58-3.51c-.38-.88-.86-1.71-1.42-2.48-.35-.43-.79-.8-1.28-1.07,.41-.22,.8-.46,1.17-.73,.41-.33,.75-.75,.99-1.22,.33-.63,.49-1.34,.46-2.06-.01-.77-.2-1.52-.55-2.2-.42-.81-1.06-1.49-1.84-1.96-.99-.58-2.12-.86-3.26-.81h-8.22v15.99h4.84v-6.26h.54c.46-.01,.93,.06,1.36,.2Zm-1.9-6.85h1.01c.81-.06,1.63,.1,2.36,.45,.52,.33,.8,.92,.74,1.54v.05c.05,.56-.2,1.11-.65,1.45-.77,.32-1.6,.45-2.43,.39h-1.03v-3.87Z"/><path class="d" d="M406.44,73.18h6.96l1.3,3.25h4.94l-7.06-16.03h-5.35l-7.09,16.03h4.96l1.33-3.25Zm3.49-8.59l2.35,5.8h-4.71l2.36-5.8Z"/><polygon class="d" points="426.47 67.14 430.85 72.52 431.22 72.52 435.59 67.14 435.59 76.43 440.41 76.43 440.41 60.4 436.04 60.4 431.08 66.42 426.17 60.4 421.77 60.4 421.77 76.43 426.47 76.43 426.47 67.14"/><polygon class="d" points="456.55 73.2 449.3 73.2 449.3 69.78 456.02 69.78 456.02 66.54 449.3 66.54 449.3 63.62 456.34 63.62 456.34 60.4 444.46 60.4 444.46 76.43 456.55 76.43 456.55 73.2"/><path class="d" d="M242.94,75.14l.2-.2s.02-.03,.04-.04c3.13-3.26,3.02-8.43-.24-11.56-1.61-1.6-3.81-2.47-6.07-2.41v.04c-2.26-.05-4.44,.82-6.05,2.41l-.16,.16c-3.16,3.25-3.08,8.43,.16,11.59,3.4,3.21,8.72,3.21,12.12,0Zm-11.19-10.95c2.85-2.74,7.36-2.74,10.22,0,2.76,2.82,2.76,7.33,0,10.14-2.85,2.74-7.36,2.74-10.22,0l-.02-.02c-2.79-2.8-2.79-7.33,.01-10.12h0Z"/><path class="d" d="M249.65,69.75h3.09c1.44,.1,2.86-.32,4.01-1.17,1.76-1.53,1.94-4.2,.41-5.96-.1-.11-.21-.22-.32-.33-1.13-.83-2.51-1.23-3.91-1.15h-4.45l-.07,16.13h1.24v-7.52Zm.07-7.57h3.21c1.04-.06,2.07,.25,2.9,.88,.06,.04,.12,.1,.16,.16,1.23,1.33,1.15,3.39-.18,4.62-.9,.62-1.98,.93-3.07,.86h-3.02v-6.52Z"/><polygon class="d" points="269.6 76.26 261.84 76.26 261.84 69.69 269.21 69.69 269.21 68.65 261.84 68.65 261.84 62.18 269.41 62.18 269.41 61.14 260.6 61.14 260.6 77.3 269.6 77.3 269.6 76.26"/><polygon class="d" points="273.41 63.16 285.69 77.3 286.72 77.3 286.72 61.14 285.47 61.14 285.47 75.26 273.22 61.14 272.17 61.14 272.17 77.3 273.41 77.3 273.41 63.16"/><polygon class="d" points="228.34 109.39 275.61 109.39 226.82 166.17 226.82 180.99 300.71 180.99 300.71 163.89 251.92 163.89 300.71 107.11 300.71 92.28 228.34 92.28 228.34 109.39"/><path class="d" d="M347.6,111.8c-21.16,0-36.88,15.84-36.88,35.36v.25c0,19.52,15.59,35.1,36.62,35.1s36.88-15.84,36.88-35.36v-.25c0-19.52-15.59-35.1-36.62-35.1Zm17.61,35.61c0,10.01-6.59,18.5-17.61,18.5s-17.87-8.74-17.87-18.76v-.25c0-10.01,6.59-18.5,17.62-18.5s17.87,8.74,17.87,18.76v.25Z"/><polygon class="d" points="462.29 154.38 449.36 112.81 432.76 112.81 419.96 154.25 409.06 113.07 389.54 113.07 410.46 181.5 427.69 181.5 441 139.81 454.05 181.5 471.41 181.5 492.58 113.07 473.44 113.07 462.29 154.38"/><path class="d" d="M564.56,148.68c0-19.26-10.39-36.88-33.08-36.88-19.77,0-33.58,15.97-33.58,35.36v.25c0,20.78,15.08,35.1,35.48,35.1,12.29,0,21.42-4.82,27.75-12.67l-11.03-9.76c-5.32,4.94-10.01,6.97-16.47,6.97-8.62,0-14.7-4.56-16.6-13.31h47.27c.13-1.77,.25-3.55,.25-5.07Zm-47.78-6.97c1.52-8.74,6.72-14.45,14.7-14.45s13.18,5.83,14.32,14.45h-29.02Z"/><path class="d" d="M141.96,51.38L51.05,114.07l62.69,90.91,90.91-62.69-62.69-90.91Zm-25.01,112.99l6.34-59.49-31.1,21.45-7.76-11.25,47.61-32.83,6.73,9.75-6.34,59.49,32.1-22.14,7.76,11.26-48.61,33.52-6.73-9.75Z"/><g><g><path class="d" d="M138.33,224.24c-3.21,0-5.73,1.14-7.57,3.41-1.84,2.27-2.76,5.41-2.76,9.41s.88,7.36,2.65,9.51c1.77,2.15,4.33,3.22,7.67,3.22,1.45,0,2.85-.14,4.2-.43,1.36-.29,2.76-.66,4.23-1.11v4.79c-2.68,1.01-5.72,1.52-9.11,1.52-5,0-8.84-1.51-11.52-4.54-2.68-3.03-4.02-7.36-4.02-13,0-3.55,.65-6.66,1.95-9.32,1.3-2.66,3.18-4.7,5.64-6.12s5.35-2.13,8.67-2.13c3.49,0,6.71,.73,9.67,2.2l-2.01,4.65c-1.15-.54-2.37-1.02-3.66-1.44-1.29-.41-2.64-.62-4.05-.62Z"/><path class="d" d="M189.22,236.97c0,5.56-1.39,9.88-4.17,12.96-2.78,3.08-6.72,4.62-11.81,4.62s-9.11-1.53-11.88-4.59c-2.76-3.06-4.15-7.41-4.15-13.05s1.39-9.97,4.17-12.99c2.78-3.02,6.75-4.53,11.9-4.53s9,1.53,11.77,4.6c2.77,3.07,4.16,7.39,4.16,12.96Zm-26.07,0c0,4.2,.85,7.39,2.55,9.57,1.7,2.17,4.21,3.26,7.54,3.26s5.82-1.08,7.51-3.22c1.69-2.15,2.53-5.35,2.53-9.6s-.84-7.37-2.51-9.53c-1.67-2.16-4.17-3.25-7.49-3.25s-5.88,1.08-7.58,3.25c-1.71,2.17-2.56,5.34-2.56,9.53Z"/><path class="d" d="M229.79,254.09h-6.84l-16.79-27.21h-.19l.12,1.52c.22,2.9,.33,5.54,.33,7.94v17.75h-5.07v-34.15h6.77l16.75,27.07h.14c-.03-.36-.09-1.66-.19-3.91s-.14-4.01-.14-5.27v-17.89h5.12v34.15Z"/><path class="d" d="M249.13,254.09h-5.54v-34.15h19.27v4.72h-13.73v10.67h12.87v4.74h-12.87v14.02Z"/><path class="d" d="M304.16,236.97c0,5.56-1.39,9.88-4.17,12.96-2.78,3.08-6.72,4.62-11.81,4.62s-9.11-1.53-11.88-4.59c-2.76-3.06-4.15-7.41-4.15-13.05s1.39-9.97,4.17-12.99c2.78-3.02,6.75-4.53,11.9-4.53s9,1.53,11.77,4.6c2.77,3.07,4.16,7.39,4.16,12.96Zm-26.07,0c0,4.2,.85,7.39,2.55,9.57,1.7,2.17,4.21,3.26,7.54,3.26s5.82-1.08,7.51-3.22c1.69-2.15,2.53-5.35,2.53-9.6s-.84-7.37-2.51-9.53c-1.67-2.16-4.17-3.25-7.49-3.25s-5.88,1.08-7.58,3.25c-1.71,2.17-2.56,5.34-2.56,9.53Z"/><path class="d" d="M321.86,240.45v13.64h-5.58v-34.15h9.65c4.41,0,7.67,.83,9.79,2.48,2.12,1.65,3.18,4.14,3.18,7.47,0,4.25-2.21,7.28-6.63,9.09l9.65,15.11h-6.35l-8.18-13.64h-5.51Zm0-4.62h3.88c2.6,0,4.49-.48,5.65-1.45s1.75-2.4,1.75-4.3-.63-3.32-1.89-4.16-3.16-1.26-5.7-1.26h-3.69v11.17Z"/><path class="d" d="M366.4,254.09l-9.9-28.52h-.19c.26,4.24,.4,8.21,.4,11.91v16.61h-5.07v-34.15h7.87l9.48,27.17h.14l9.76-27.17h7.9v34.15h-5.37v-16.89c0-1.7,.04-3.91,.13-6.63,.08-2.73,.16-4.38,.22-4.95h-.19l-10.25,28.47h-4.93Z"/><path class="d" d="M421.76,254.09l-3.41-9.48h-13.06l-3.34,9.48h-5.89l12.78-34.29h6.07l12.78,34.29h-5.93Zm-4.88-14.3l-3.2-9.3c-.23-.62-.56-1.6-.97-2.94-.41-1.34-.7-2.32-.85-2.94-.42,1.92-1.04,4.01-1.85,6.28l-3.08,8.9h9.95Z"/><path class="d" d="M465.43,254.09h-6.84l-16.79-27.21h-.19l.12,1.52c.22,2.9,.33,5.54,.33,7.94v17.75h-5.07v-34.15h6.77l16.75,27.07h.14c-.03-.36-.09-1.66-.19-3.91s-.14-4.01-.14-5.27v-17.89h5.12v34.15Z"/><path class="d" d="M491.03,254.09h-5.58v-29.36h-10.04v-4.79h25.67v4.79h-10.04v29.36Z"/></g><g class="g"><rect class="d" x="36.17" y="277.64" width="553.53" height="43.53"/></g><g><path class="e" d="M120.43,303.15c0,1.82-.65,3.25-1.96,4.29s-3.13,1.57-5.46,1.57c-2.15,0-4.05-.4-5.7-1.21v-3.96c1.36,.61,2.51,1.03,3.45,1.28,.94,.25,1.8,.37,2.58,.37,.94,0,1.65-.18,2.15-.54,.5-.36,.75-.89,.75-1.6,0-.39-.11-.75-.33-1.05-.22-.31-.54-.6-.97-.89s-1.3-.74-2.61-1.36c-1.23-.58-2.15-1.13-2.77-1.67-.62-.53-1.11-1.15-1.47-1.86-.37-.71-.55-1.53-.55-2.48,0-1.78,.6-3.18,1.81-4.2,1.21-1.02,2.87-1.53,5-1.53,1.05,0,2.04,.12,2.99,.37,.95,.25,1.94,.6,2.98,1.05l-1.38,3.32c-1.07-.44-1.96-.75-2.66-.92-.7-.17-1.39-.26-2.07-.26-.81,0-1.43,.19-1.86,.56-.43,.38-.65,.87-.65,1.47,0,.38,.09,.7,.26,.98s.45,.55,.83,.81c.38,.26,1.28,.73,2.7,1.41,1.88,.9,3.17,1.8,3.87,2.7s1.05,2.01,1.05,3.32Z"/><path class="e" d="M148.91,288.62v13.02c0,1.49-.33,2.79-1,3.91-.67,1.12-1.63,1.98-2.88,2.57s-2.74,.89-4.46,.89c-2.59,0-4.6-.66-6.03-1.99-1.43-1.33-2.15-3.14-2.15-5.44v-12.96h4.25v12.32c0,1.55,.31,2.69,.94,3.41,.62,.73,1.66,1.09,3.1,1.09s2.41-.37,3.03-1.09c.63-.73,.94-1.87,.94-3.43v-12.29h4.25Z"/><path class="e" d="M176.19,294.89c0,2.17-.68,3.82-2.03,4.97-1.35,1.15-3.28,1.72-5.77,1.72h-1.83v7.16h-4.27v-20.12h6.43c2.44,0,4.3,.53,5.57,1.58,1.27,1.05,1.91,2.62,1.91,4.7Zm-9.63,3.19h1.4c1.31,0,2.29-.26,2.95-.78s.98-1.27,.98-2.26-.27-1.74-.82-2.22c-.55-.48-1.4-.72-2.57-.72h-1.94v5.97Z"/><path class="e" d="M202.34,294.89c0,2.17-.68,3.82-2.03,4.97-1.35,1.15-3.28,1.72-5.77,1.72h-1.83v7.16h-4.27v-20.12h6.43c2.44,0,4.3,.53,5.57,1.58,1.27,1.05,1.91,2.62,1.91,4.7Zm-9.63,3.19h1.4c1.31,0,2.29-.26,2.95-.78s.98-1.27,.98-2.26-.27-1.74-.82-2.22c-.55-.48-1.4-.72-2.57-.72h-1.94v5.97Z"/><path class="e" d="M232.86,298.65c0,3.33-.83,5.89-2.48,7.68s-4.02,2.68-7.1,2.68-5.45-.89-7.1-2.68-2.48-4.36-2.48-7.71,.83-5.91,2.48-7.67c1.66-1.77,4.03-2.65,7.12-2.65s5.46,.89,7.09,2.67c1.64,1.78,2.46,4.34,2.46,7.68Zm-14.68,0c0,2.25,.43,3.94,1.28,5.08s2.13,1.71,3.83,1.71c3.4,0,5.11-2.26,5.11-6.79s-1.69-6.8-5.08-6.8c-1.7,0-2.98,.57-3.84,1.71s-1.29,2.84-1.29,5.08Z"/><path class="e" d="M249.75,301.02v7.72h-4.27v-20.12h5.86c2.73,0,4.76,.5,6.07,1.49,1.31,1,1.97,2.51,1.97,4.53,0,1.18-.33,2.24-.98,3.16-.65,.92-1.57,1.64-2.77,2.17,3.03,4.52,5,7.45,5.92,8.77h-4.73l-4.8-7.72h-2.27Zm0-3.47h1.38c1.35,0,2.34-.22,2.99-.67,.64-.45,.96-1.16,.96-2.12s-.33-1.63-.98-2.04c-.66-.4-1.67-.61-3.05-.61h-1.29v5.44Z"/><path class="e" d="M280.31,308.74h-4.27v-16.57h-5.46v-3.55h15.19v3.55h-5.46v16.57Z"/><path class="e" d="M327,294.89c0,2.17-.68,3.82-2.03,4.97-1.35,1.15-3.28,1.72-5.77,1.72h-1.83v7.16h-4.27v-20.12h6.43c2.44,0,4.3,.53,5.57,1.58,1.27,1.05,1.91,2.62,1.91,4.7Zm-9.63,3.19h1.4c1.31,0,2.29-.26,2.95-.78s.98-1.27,.98-2.26-.27-1.74-.82-2.22c-.55-.48-1.4-.72-2.57-.72h-1.94v5.97Z"/><path class="e" d="M343.52,301.02v7.72h-4.27v-20.12h5.86c2.73,0,4.76,.5,6.07,1.49,1.31,1,1.97,2.51,1.97,4.53,0,1.18-.33,2.24-.98,3.16-.65,.92-1.57,1.64-2.77,2.17,3.03,4.52,5,7.45,5.92,8.77h-4.73l-4.8-7.72h-2.27Zm0-3.47h1.38c1.35,0,2.34-.22,2.99-.67,.64-.45,.96-1.16,.96-2.12s-.33-1.63-.98-2.04c-.66-.4-1.67-.61-3.05-.61h-1.29v5.44Z"/><path class="e" d="M384.58,298.65c0,3.33-.83,5.89-2.48,7.68s-4.02,2.68-7.1,2.68-5.45-.89-7.1-2.68-2.48-4.36-2.48-7.71,.83-5.91,2.48-7.67c1.66-1.77,4.03-2.65,7.12-2.65s5.46,.89,7.09,2.67c1.64,1.78,2.46,4.34,2.46,7.68Zm-14.68,0c0,2.25,.43,3.94,1.28,5.08s2.13,1.71,3.83,1.71c3.4,0,5.11-2.26,5.11-6.79s-1.69-6.8-5.08-6.8c-1.7,0-2.98,.57-3.84,1.71s-1.29,2.84-1.29,5.08Z"/><path class="e" d="M408.68,288.62h4.31l-6.84,20.12h-4.65l-6.83-20.12h4.31l3.78,11.97c.21,.71,.43,1.53,.65,2.47s.36,1.59,.42,1.96c.1-.84,.44-2.32,1.03-4.43l3.81-11.97Z"/><path class="e" d="M423.98,308.74v-20.12h4.27v20.12h-4.27Z"/><path class="e" d="M458.46,298.49c0,3.31-.94,5.85-2.83,7.61-1.88,1.76-4.61,2.64-8.17,2.64h-5.7v-20.12h6.32c3.28,0,5.83,.87,7.65,2.6s2.72,4.16,2.72,7.27Zm-4.43,.11c0-4.32-1.91-6.48-5.73-6.48h-2.27v13.1h1.83c4.11,0,6.17-2.21,6.17-6.62Z"/><path class="e" d="M482.67,308.74h-11.59v-20.12h11.59v3.5h-7.32v4.42h6.81v3.5h-6.81v5.19h7.32v3.52Z"/><path class="e" d="M499.59,301.02v7.72h-4.27v-20.12h5.86c2.73,0,4.76,.5,6.07,1.49,1.31,1,1.97,2.51,1.97,4.53,0,1.18-.33,2.24-.98,3.16-.65,.92-1.57,1.64-2.77,2.17,3.03,4.52,5,7.45,5.92,8.77h-4.73l-4.8-7.72h-2.27Zm0-3.47h1.38c1.35,0,2.34-.22,2.99-.67,.64-.45,.96-1.16,.96-2.12s-.33-1.63-.98-2.04c-.66-.4-1.67-.61-3.05-.61h-1.29v5.44Z"/></g></g></g><g><path class="f" d="M61.32,399.03c-1.82,0-3.23,.69-4.23,2.05-1,1.37-1.5,3.28-1.5,5.73,0,5.09,1.91,7.64,5.73,7.64,1.6,0,3.55-.4,5.83-1.2v4.06c-1.88,.78-3.97,1.17-6.28,1.17-3.32,0-5.87-1.01-7.62-3.02-1.76-2.02-2.64-4.91-2.64-8.68,0-2.38,.43-4.46,1.3-6.24,.86-1.79,2.11-3.16,3.73-4.11,1.62-.95,3.52-1.43,5.7-1.43s4.45,.54,6.69,1.61l-1.56,3.94c-.85-.41-1.71-.76-2.58-1.06-.87-.3-1.71-.45-2.55-.45Z"/><path class="f" d="M96.62,406.71c0,3.78-.94,6.69-2.81,8.72s-4.56,3.05-8.06,3.05-6.19-1.02-8.06-3.05-2.81-4.95-2.81-8.75,.94-6.71,2.82-8.71c1.88-2,4.58-3.01,8.09-3.01s6.2,1.01,8.05,3.03c1.86,2.02,2.79,4.93,2.79,8.72Zm-16.67,0c0,2.55,.48,4.47,1.45,5.77,.97,1.29,2.42,1.94,4.34,1.94,3.86,0,5.8-2.57,5.8-7.7s-1.92-7.72-5.77-7.72c-1.93,0-3.38,.65-4.36,1.95-.98,1.3-1.47,3.22-1.47,5.77Z"/><path class="f" d="M114.9,418.17l-5.5-17.92h-.14c.2,3.65,.3,6.08,.3,7.3v10.62h-4.33v-22.84h6.59l5.41,17.47h.09l5.73-17.47h6.59v22.84h-4.52v-10.81c0-.51,0-1.1,.02-1.77,.02-.67,.09-2.44,.21-5.31h-.14l-5.89,17.89h-4.44Z"/><path class="f" d="M155.05,402.45c0,2.46-.77,4.34-2.3,5.64-1.54,1.3-3.72,1.95-6.55,1.95h-2.08v8.12h-4.84v-22.84h7.3c2.77,0,4.88,.6,6.32,1.79,1.44,1.19,2.16,2.97,2.16,5.34Zm-10.94,3.62h1.59c1.49,0,2.6-.29,3.34-.88,.74-.59,1.11-1.45,1.11-2.57s-.31-1.97-.93-2.52c-.62-.54-1.59-.81-2.91-.81h-2.2v6.78Z"/><path class="f" d="M168.08,409.4v8.77h-4.84v-22.84h6.66c3.1,0,5.4,.57,6.89,1.7,1.49,1.13,2.23,2.85,2.23,5.15,0,1.34-.37,2.54-1.11,3.59-.74,1.05-1.79,1.87-3.14,2.46,3.44,5.14,5.68,8.45,6.72,9.95h-5.38l-5.45-8.77h-2.58Zm0-3.94h1.56c1.53,0,2.66-.25,3.39-.77,.73-.51,1.09-1.31,1.09-2.41s-.37-1.85-1.12-2.31c-.75-.46-1.9-.69-3.46-.69h-1.47v6.17Z"/><path class="f" d="M201.39,418.17h-13.16v-22.84h13.16v3.97h-8.31v5.02h7.73v3.97h-7.73v5.89h8.31v4Z"/><path class="f" d="M228.74,418.17h-4.83v-9.86h-9.05v9.86h-4.84v-22.84h4.84v8.95h9.05v-8.95h4.83v22.84Z"/><path class="f" d="M251.54,418.17h-13.16v-22.84h13.16v3.97h-8.31v5.02h7.73v3.97h-7.73v5.89h8.31v4Z"/><path class="f" d="M280.44,418.17h-6.16l-9.94-17.28h-.14c.2,3.05,.3,5.23,.3,6.53v10.75h-4.33v-22.84h6.11l9.92,17.11h.11c-.16-2.97-.23-5.07-.23-6.3v-10.81h4.36v22.84Z"/><path class="f" d="M303.55,411.82c0,2.06-.74,3.69-2.23,4.88s-3.55,1.78-6.2,1.78c-2.44,0-4.59-.46-6.47-1.38v-4.5c1.54,.69,2.85,1.17,3.91,1.45,1.07,.28,2.04,.42,2.93,.42,1.06,0,1.88-.2,2.45-.61,.57-.41,.85-1.01,.85-1.81,0-.45-.12-.85-.38-1.2-.25-.35-.62-.68-1.1-1.01-.48-.32-1.47-.84-2.96-1.55-1.4-.66-2.44-1.29-3.14-1.89-.7-.6-1.26-1.31-1.67-2.11-.42-.8-.62-1.74-.62-2.81,0-2.02,.68-3.61,2.05-4.77,1.37-1.16,3.26-1.73,5.68-1.73,1.19,0,2.32,.14,3.4,.42s2.21,.68,3.38,1.19l-1.56,3.77c-1.22-.5-2.23-.85-3.02-1.05-.8-.2-1.58-.3-2.35-.3-.92,0-1.62,.21-2.11,.64-.49,.43-.73,.98-.73,1.67,0,.43,.1,.8,.3,1.12,.2,.32,.51,.62,.95,.92,.43,.3,1.46,.83,3.07,1.6,2.13,1.02,3.6,2.04,4.39,3.07,.79,1.03,1.19,2.28,1.19,3.77Z"/><path class="f" d="M311.56,418.17v-22.84h4.84v22.84h-4.84Z"/><path class="f" d="M339.06,395.32h4.89l-7.77,22.84h-5.28l-7.75-22.84h4.89l4.3,13.59c.24,.8,.49,1.74,.74,2.8,.25,1.07,.41,1.81,.48,2.23,.11-.96,.5-2.63,1.17-5.03l4.33-13.59Z"/><path class="f" d="M363.85,418.17h-13.16v-22.84h13.16v3.97h-8.31v5.02h7.73v3.97h-7.73v5.89h8.31v4Z"/><path class="f" d="M382.75,411.54v-3.91h8.39v3.91h-8.39Z"/><path class="f" d="M425.92,418.17h-17v-3.14l10.95-15.7h-10.66v-4h16.41v3.12l-10.94,15.72h11.23v4Z"/><path class="f" d="M454.16,406.71c0,3.78-.94,6.69-2.81,8.72s-4.56,3.05-8.06,3.05-6.19-1.02-8.06-3.05-2.81-4.95-2.81-8.75,.94-6.71,2.82-8.71c1.88-2,4.58-3.01,8.09-3.01s6.2,1.01,8.05,3.03c1.86,2.02,2.79,4.93,2.79,8.72Zm-16.67,0c0,2.55,.48,4.47,1.45,5.77,.97,1.29,2.42,1.94,4.34,1.94,3.86,0,5.8-2.57,5.8-7.7s-1.92-7.72-5.77-7.72c-1.93,0-3.38,.65-4.36,1.95-.98,1.3-1.47,3.22-1.47,5.77Z"/><path class="f" d="M485.02,418.17h-5.52l-3.09-12c-.12-.43-.31-1.31-.59-2.65-.28-1.34-.44-2.24-.48-2.7-.06,.56-.22,1.47-.47,2.71-.25,1.25-.44,2.13-.58,2.66l-3.08,11.97h-5.5l-5.83-22.84h4.77l2.92,12.47c.51,2.3,.88,4.3,1.11,5.98,.06-.59,.21-1.51,.43-2.76,.22-1.24,.43-2.21,.63-2.9l3.33-12.8h4.58l3.33,12.8c.15,.57,.33,1.45,.55,2.62,.22,1.18,.38,2.19,.5,3.03,.1-.81,.27-1.83,.5-3.04,.23-1.21,.44-2.2,.62-2.95l2.91-12.47h4.77l-5.81,22.84Z"/><path class="f" d="M510.74,418.17h-13.16v-22.84h13.16v3.97h-8.31v5.02h7.73v3.97h-7.73v5.89h8.31v4Z"/><path class="f" d="M544.59,395.32h4.89l-7.77,22.84h-5.28l-7.75-22.84h4.89l4.3,13.59c.24,.8,.49,1.74,.74,2.8,.25,1.07,.41,1.81,.48,2.23,.11-.96,.5-2.63,1.17-5.03l4.33-13.59Z"/><path class="f" d="M570.6,418.17h-15.97v-3.36l5.73-5.8c1.7-1.74,2.81-2.95,3.33-3.62,.52-.67,.9-1.29,1.12-1.87,.23-.57,.34-1.17,.34-1.78,0-.92-.25-1.6-.76-2.05-.51-.45-1.18-.67-2.02-.67-.89,0-1.75,.2-2.58,.61-.83,.41-1.7,.98-2.61,1.73l-2.62-3.11c1.12-.96,2.06-1.63,2.8-2.03,.74-.4,1.55-.7,2.42-.91,.88-.21,1.85-.32,2.94-.32,1.43,0,2.69,.26,3.78,.78,1.09,.52,1.94,1.25,2.55,2.19,.6,.94,.91,2.01,.91,3.22,0,1.05-.19,2.04-.55,2.96-.37,.92-.94,1.87-1.72,2.84-.78,.97-2.14,2.35-4.1,4.14l-2.94,2.77v.22h9.95v4.06Z"/></g></svg>