<?xml version="1.0" encoding="UTF-8"?>
<svg id="Layer_1" xmlns="http://www.w3.org/2000/svg" version="1.1" viewBox="0 0 730.54 147">
  <!-- Generator: Adobe Illustrator 29.4.0, SVG Export Plug-In . SVG Version: 2.1.0 Build 152)  -->
  <defs>
    <style>
      .st0 {
        fill: #fff;
      }

      .st1 {
        fill: #2a7de1;
      }

      .st2 {
        fill: #002a3a;
      }

      .st3 {
        fill: #0033a1;
      }
    </style>
  </defs>
  <text/>
  <g>
    <g>
      <path class="st2" d="M154.66,19.16h5.32v37.16h-5.32V19.16Z"/>
      <path class="st2" d="M189.77,18.95h3.74l16.66,37.38h-5.45l-4.95-11.01h-15.85l-4.64,11.01h-5.47l15.96-37.38ZM197.59,40.57l-6-13.46-5.56,13.46h11.56Z"/>
      <path class="st2" d="M243.8,19.16h4.97v37.16h-5.35v-28.92l-11.43,14.37h-.98l-11.56-14.37v28.92h-5.32V19.16h5.04l12.35,15.26,12.28-15.26Z"/>
      <path class="st2" d="M278.33,18.95h3.74l16.66,37.38h-5.45l-4.95-11.01h-15.85l-4.64,11.01h-5.47l15.96-37.38ZM286.15,40.57l-6-13.46-5.56,13.46h11.56Z"/>
      <path class="st3" d="M186.72,92.98l17.92-20.67h12.07v55.74h-13.89v-34.8l-15.06,17.48h-2.08l-15.06-17.48v34.8h-13.89v-55.74h12.06l17.93,20.67Z"/>
      <path class="st3" d="M261.66,72.31l24.76,55.74h-14.93l-4.59-11.01h-24.96l-4.16,11.01h-14.71l22.52-55.74h16.09ZM262.83,107.31l-9.04-21.67-8.19,21.67h17.22Z"/>
      <path class="st3" d="M307.21,72.31v55.74h-13.89v-55.74h13.89Z"/>
      <path class="st3" d="M376.52,72.31v55.74h-11.73l-30.77-35.71v35.71h-13.89v-55.74h12.73l29.76,34.08v-34.08h13.89Z"/>
      <path class="st3" d="M427.43,72.31v10.22h-24.5v12.45h24.5v10.22h-24.5v22.86h-13.89v-55.74h38.39Z"/>
      <path class="st3" d="M438.41,72.31h24.9c5.4,0,9.79,1.56,13.17,4.69,3.38,3.12,5.07,6.91,5.07,11.34,0,6.14-3.19,10.69-9.58,13.64,2.8,1.27,5.46,4.7,7.98,10.28,2.52,5.58,4.96,10.85,7.3,15.79h-15.24c-.91-1.84-2.49-5.33-4.75-10.49-2.26-5.16-4.2-8.47-5.8-9.94-1.61-1.46-3.33-2.19-5.17-2.19h-3.99v22.62h-13.89v-55.74ZM452.29,82.53v12.69h7.34c2.34,0,4.2-.55,5.57-1.66,1.37-1.1,2.06-2.68,2.06-4.73,0-4.2-2.65-6.3-7.94-6.3h-7.02Z"/>
      <path class="st3" d="M526.33,72.31l24.76,55.74h-14.93l-4.59-11.01h-24.96l-4.16,11.01h-14.71l22.52-55.74h16.09ZM527.51,107.31l-9.04-21.67-8.19,21.67h17.22Z"/>
      <path class="st3" d="M587.5,92.98l17.92-20.67h12.07v55.74h-13.89v-34.8l-15.06,17.48h-2.08l-15.06-17.48v34.8h-13.89v-55.74h12.06l17.93,20.67Z"/>
      <path class="st3" d="M671.08,117.84v10.22h-41.1v-55.74h40.54v10.22h-26.66v11.69h25.42v10.22h-25.42v13.41h27.21Z"/>
      <path class="st3" d="M681.69,72.31h24.9c5.4,0,9.79,1.56,13.17,4.69,3.38,3.12,5.07,6.91,5.07,11.34,0,6.14-3.19,10.69-9.58,13.64,2.8,1.27,5.46,4.7,7.98,10.28,2.52,5.58,4.96,10.85,7.3,15.79h-15.24c-.91-1.84-2.5-5.33-4.75-10.49-2.26-5.16-4.2-8.47-5.8-9.94-1.61-1.46-3.33-2.19-5.17-2.19h-3.99v22.62h-13.89v-55.74ZM695.58,82.53v12.69h7.34c2.34,0,4.2-.55,5.57-1.66,1.37-1.1,2.05-2.68,2.05-4.73,0-4.2-2.65-6.3-7.94-6.3h-7.02Z"/>
    </g>
    <path class="st1" d="M124.32,32.05L71.79,1.72c-3.97-2.3-8.87-2.3-12.85,0L6.43,32.05c-3.97,2.3-6.43,6.54-6.43,11.13v60.65c0,4.59,2.45,8.83,6.43,11.13l52.53,30.33c3.97,2.3,8.87,2.3,12.85,0l52.53-30.33c3.97-2.3,6.43-6.54,6.43-11.13v-60.65c0-4.59-2.45-8.83-6.43-11.12Z"/>
    <path class="st0" d="M64.24,71.9c11.23,0,20.28-9.05,20.28-20.28s-9.05-20.28-20.28-20.28-20.28,9.05-20.28,20.28,9.15,20.28,20.28,20.28Z"/>
    <path class="st0" d="M79.31,72.62l-.94-.31-.83.52c-3.95,2.71-8.53,4.16-13.31,4.16s-8.94-1.35-12.68-3.74l-.83-.52-.93.31c-8.42,3.01-14.04,10.92-14.04,19.86v8.94l.63.63c.41.41,9.15,8.94,29.01,8.94s28.7-8.53,29.01-8.94l.63-.63v-8.94c-.1-9.46-6.55-17.88-15.7-20.28h0Z"/>
  </g>
</svg>