<?xml version="1.0" encoding="UTF-8"?><svg xmlns="http://www.w3.org/2000/svg" xmlns:xlink="http://www.w3.org/1999/xlink" viewBox="0 0 624.24 469.28"><defs><style>.d{fill:none;}.e{font-family:OpenSans-Bold, Open Sans;font-size:30px;letter-spacing:.12em;}.e,.f{fill:#488eff;}.g{fill:#fff;}.h{fill:#3274f9;}.i{opacity:.9;}.j{clip-path:url(#b);}</style><clipPath id="b"><path class="d" d="M75.08,7.38h473.31c34.98,0,63.35,28.36,63.35,63.35V342.14H11.74V70.72C11.74,35.74,40.1,7.38,75.08,7.38h0Z"/></clipPath></defs><g id="a"><path class="f" d="M611.74,342.14H11.74V70.72C11.74,35.74,40.1,7.38,75.08,7.38h473.31c34.98,0,63.35,28.36,63.35,63.35"/><path class="f" d="M608.14,355.91v103.77H15.34v-103.77H608.14m3.6-3.6H11.74v110.97H611.74v-110.97Z"/><g class="j"><g class="i"><path class="h" d="M367.26-133.62L.32,119.44,253.38,486.38l366.94-253.06L367.26-133.62Zm-100.97,456.07l25.59-240.13-125.53,86.57,13.96-37.51-45.29-7.92L327.19-9.07l27.15,39.37-25.59,240.12,129.57-89.35,31.33,45.43-196.2,135.31-27.15-39.38Z"/></g></g><polygon class="g" points="154.1 110.59 154.11 110.59 154.11 110.59 154.1 110.59"/><path class="d" d="M391.91,66.95c.46-.34,.7-.88,.65-1.45v-.05c.06-.61-.22-1.21-.74-1.54-.74-.35-1.55-.51-2.36-.45h-1.01v3.87h1.03c.83,.06,1.66-.08,2.43-.39Z"/><path class="d" d="M483.96,66.8c1.15-.97,1.29-2.69,.32-3.84l-.33-.33c-.84-.55-1.83-.81-2.83-.75h-2.36v5.67h2.39c.99,.06,1.98-.2,2.81-.74Z"/><path class="d" d="M471.67,66.91c1.19-1.07,1.28-2.9,.21-4.09h0s-.02-.03-.03-.04l-.14-.16c-.76-.56-1.7-.84-2.64-.78l-2.83,.04v5.8h2.68c.98,.07,1.95-.2,2.75-.77Z"/><path class="d" d="M346.61,128.4c-11.03,0-17.62,8.49-17.62,18.5v.25c0,10.01,7.22,18.76,17.87,18.76s17.61-8.49,17.61-18.5v-.25c0-10.01-7.22-18.76-17.87-18.76Z"/><polygon class="d" points="409.2 64.59 406.84 70.39 411.55 70.39 409.2 64.59"/><path class="d" d="M255.08,67.85c1.32-1.23,1.4-3.3,.18-4.62-.04-.06-.1-.12-.16-.16-.83-.63-1.86-.95-2.9-.88h-3.21v6.52h3.02c1.09,.07,2.17-.23,3.07-.86Z"/><path class="d" d="M530.75,127.26c-7.98,0-13.18,5.7-14.7,14.45h29.02c-1.14-8.62-6.21-14.45-14.32-14.45Z"/><polygon class="d" points="326.71 64.59 324.34 70.39 329.06 70.39 326.71 64.59"/><path class="d" d="M231.02,74.33c2.85,2.74,7.36,2.74,10.22,0,2.76-2.82,2.76-7.33,0-10.14-2.85-2.74-7.36-2.74-10.22,0-2.8,2.79-2.81,7.32-.02,10.12h0l.02,.02Z"/><path class="d" d="M502.78,72.72c2.48-2.52,2.48-6.56,0-9.08-2.55-2.47-6.6-2.47-9.14,0-2.5,2.5-2.5,6.56,0,9.06h0c1.21,1.22,2.87,1.88,4.58,1.84h0c1.71,.06,3.36-.61,4.57-1.83Z"/><path class="g" d="M466.24,68.64h2.75c1.29,.1,2.57-.27,3.61-1.04,.82-.7,1.27-1.75,1.22-2.83,.06-1.07-.4-2.11-1.22-2.8-1-.75-2.24-1.12-3.49-1.03h-3.99v14.47h1.11v-6.77Zm0-6.77l2.83-.04c.95-.06,1.88,.22,2.64,.78l.14,.16s.02,.03,.03,.04c1.07,1.19,.98,3.02-.21,4.09h0c-.8,.57-1.77,.84-2.75,.77h-2.68v-5.8Z"/><path class="g" d="M478.72,68.5h2c.72-.04,1.44,.13,2.06,.49,.79,.71,1.45,1.55,1.96,2.48l2.52,3.94h1.34l-3.27-5c-.47-.87-1.13-1.63-1.93-2.22,1.62-.39,2.76-1.84,2.75-3.51,.04-1.05-.41-2.06-1.23-2.72-1.03-.74-2.3-1.1-3.57-1.02h-3.7l-.04,14.5h1.11v-6.94Zm.04-6.62h2.36c1-.06,1.99,.2,2.83,.75l.33,.33c.97,1.15,.83,2.87-.32,3.84-.83,.54-1.82,.8-2.81,.74h-2.39v-5.67Z"/><path class="g" d="M503.64,73.44l.18-.18s.06-.06,.08-.09c2.76-2.9,2.64-7.49-.26-10.25h0c-3.05-2.87-7.81-2.87-10.86,0l-.14,.15h0c-2.82,2.91-2.75,7.55,.15,10.37,3.05,2.88,7.81,2.88,10.86,0Zm-10.01-.74c-2.5-2.5-2.5-6.56,0-9.06h0c2.55-2.48,6.6-2.48,9.14,0,2.48,2.52,2.48,6.56,0,9.08-1.2,1.22-2.85,1.88-4.57,1.84h0c-1.71,.03-3.37-.64-4.58-1.85h0Z"/><path class="g" d="M508.47,79.64c.81,0,1.58-.33,2.13-.92,.7-.94,1.02-2.11,.9-3.27v-14.5h-1.11v14.82c0,1.94-.67,2.9-2.03,2.9-.22,0-.44-.03-.65-.07l.1,1.05c.22,0,.44,0,.67,0Z"/><polygon class="g" points="524.49 74.47 517.56 74.47 517.56 68.6 524.15 68.6 524.15 67.66 517.56 67.66 517.56 61.88 524.33 61.88 524.33 60.95 516.44 60.95 516.44 75.41 524.49 75.41 524.49 74.47"/><path class="g" d="M540.55,61.98h0s.04,.02,.06,.03l-.06-.03Z"/><path class="g" d="M535.58,75.62c1.79-.02,3.55-.48,5.12-1.35v-1.16c-1.57,.9-3.34,1.4-5.14,1.45-1.73,.06-3.41-.58-4.65-1.79-1.22-1.21-1.88-2.88-1.81-4.61-.05-1.71,.6-3.37,1.81-4.58,1.18-1.21,2.8-1.88,4.49-1.84,1.81,.05,3.59,.55,5.16,1.45v-1.21c-1.57-.75-3.29-1.16-5.03-1.19-2-.02-3.92,.74-5.35,2.13-.03,.04-.06,.07-.1,.1h0c-2.89,2.9-2.89,7.59,0,10.48,1.47,1.42,3.46,2.19,5.51,2.12Z"/><polygon class="g" points="548.39 75.41 549.52 75.41 549.52 61.88 554.94 61.88 554.94 60.95 542.95 60.95 542.95 61.88 548.39 61.88 548.39 75.41"/><polygon class="g" points="314.79 76.43 314.79 60.4 310.39 60.4 305.45 66.42 300.53 60.4 296.15 60.4 296.15 76.43 300.84 76.43 300.84 67.14 305.21 72.52 305.6 72.52 309.94 67.14 309.94 76.43 314.79 76.43"/><path class="g" d="M323.21,73.18h6.96l1.32,3.25h4.94l-7-16.03h-5.41l-7.09,16.03h4.94l1.33-3.25Zm3.51-8.59l2.35,5.8h-4.72l2.37-5.8Z"/><rect class="g" x="338.57" y="60.4" width="4.82" height="16.03"/><polygon class="g" points="352.24 67.5 360.56 76.43 364.85 76.43 364.85 60.4 360.03 60.4 360.03 69.28 351.75 60.4 347.46 60.4 347.46 76.43 352.24 76.43 352.24 67.5"/><polygon class="g" points="373.71 69.94 380.36 69.94 380.36 66.72 373.71 66.72 373.71 63.62 380.36 63.62 380.36 60.4 368.88 60.4 368.88 76.43 373.71 76.43 373.71 69.94"/><path class="g" d="M390.35,70.33c.44,.21,.81,.53,1.08,.93,.49,.71,.91,1.48,1.25,2.28l1.26,2.9h5.19l-1.58-3.51c-.38-.88-.86-1.71-1.42-2.48-.35-.43-.79-.8-1.28-1.07,.41-.22,.8-.46,1.17-.73,.41-.33,.75-.75,.99-1.22,.33-.63,.49-1.34,.46-2.06-.01-.77-.2-1.52-.55-2.2-.42-.81-1.06-1.49-1.84-1.96-.99-.58-2.12-.86-3.26-.81h-8.22v15.99h4.84v-6.26h.54c.46-.01,.93,.06,1.36,.2Zm-1.9-6.85h1.01c.81-.06,1.63,.1,2.36,.45,.52,.33,.8,.92,.74,1.54v.05c.05,.56-.2,1.11-.65,1.45-.77,.32-1.6,.45-2.43,.39h-1.03v-3.87Z"/><path class="g" d="M405.71,73.18h6.96l1.3,3.25h4.94l-7.06-16.03h-5.35l-7.09,16.03h4.96l1.33-3.25Zm3.49-8.59l2.35,5.8h-4.71l2.36-5.8Z"/><polygon class="g" points="425.74 67.14 430.12 72.52 430.49 72.52 434.86 67.14 434.86 76.43 439.68 76.43 439.68 60.4 435.31 60.4 430.35 66.42 425.44 60.4 421.04 60.4 421.04 76.43 425.74 76.43 425.74 67.14"/><polygon class="g" points="455.82 73.2 448.57 73.2 448.57 69.78 455.29 69.78 455.29 66.54 448.57 66.54 448.57 63.62 455.61 63.62 455.61 60.4 443.73 60.4 443.73 76.43 455.82 76.43 455.82 73.2"/><path class="g" d="M242.21,75.14l.2-.2s.02-.03,.04-.04c3.13-3.26,3.02-8.43-.24-11.56-1.61-1.6-3.81-2.47-6.07-2.41v.04c-2.26-.05-4.44,.82-6.05,2.41l-.16,.16c-3.16,3.25-3.08,8.43,.16,11.59,3.4,3.21,8.72,3.21,12.12,0Zm-11.19-10.95c2.85-2.74,7.36-2.74,10.22,0,2.76,2.82,2.76,7.33,0,10.14-2.85,2.74-7.36,2.74-10.22,0l-.02-.02c-2.79-2.8-2.79-7.33,.01-10.12h0Z"/><path class="g" d="M248.92,69.75h3.09c1.44,.1,2.86-.32,4.01-1.17,1.76-1.53,1.94-4.2,.41-5.96-.1-.11-.21-.22-.32-.33-1.13-.83-2.51-1.23-3.91-1.15h-4.45l-.07,16.13h1.24v-7.52Zm.07-7.57h3.21c1.04-.06,2.07,.25,2.9,.88,.06,.04,.12,.1,.16,.16,1.23,1.33,1.15,3.39-.18,4.62-.9,.62-1.98,.93-3.07,.86h-3.02v-6.52Z"/><polygon class="g" points="268.87 76.26 261.11 76.26 261.11 69.69 268.48 69.69 268.48 68.65 261.11 68.65 261.11 62.18 268.68 62.18 268.68 61.14 259.87 61.14 259.87 77.3 268.87 77.3 268.87 76.26"/><polygon class="g" points="272.68 63.16 284.96 77.3 285.99 77.3 285.99 61.14 284.74 61.14 284.74 75.26 272.49 61.14 271.44 61.14 271.44 77.3 272.68 77.3 272.68 63.16"/><polygon class="g" points="227.61 109.39 274.88 109.39 226.09 166.17 226.09 180.99 299.98 180.99 299.98 163.89 251.19 163.89 299.98 107.11 299.98 92.28 227.61 92.28 227.61 109.39"/><path class="g" d="M346.87,111.8c-21.16,0-36.88,15.84-36.88,35.36v.25c0,19.52,15.59,35.1,36.62,35.1s36.88-15.84,36.88-35.36v-.25c0-19.52-15.59-35.1-36.62-35.1Zm17.61,35.61c0,10.01-6.59,18.5-17.61,18.5s-17.87-8.74-17.87-18.76v-.25c0-10.01,6.59-18.5,17.62-18.5s17.87,8.74,17.87,18.76v.25Z"/><polygon class="g" points="461.56 154.38 448.63 112.81 432.03 112.81 419.23 154.25 408.33 113.07 388.81 113.07 409.72 181.5 426.96 181.5 440.27 139.81 453.32 181.5 470.68 181.5 491.85 113.07 472.71 113.07 461.56 154.38"/><path class="g" d="M563.83,148.68c0-19.26-10.39-36.88-33.08-36.88-19.77,0-33.58,15.97-33.58,35.36v.25c0,20.78,15.08,35.1,35.48,35.1,12.29,0,21.42-4.82,27.75-12.67l-11.03-9.76c-5.32,4.94-10.01,6.97-16.47,6.97-8.62,0-14.7-4.56-16.6-13.31h47.27c.13-1.77,.25-3.55,.25-5.07Zm-47.78-6.97c1.52-8.74,6.72-14.45,14.7-14.45s13.18,5.83,14.32,14.45h-29.02Z"/><path class="g" d="M141.23,51.38L50.32,114.07l62.69,90.91,90.91-62.69-62.69-90.91Zm-25.01,112.99l6.34-59.49-31.1,21.45-7.76-11.25,47.61-32.83,6.73,9.75-6.34,59.49,32.1-22.14,7.76,11.26-48.61,33.52-6.73-9.75Z"/><g><path class="g" d="M137.6,254.24c-3.21,0-5.73,1.14-7.57,3.41-1.84,2.27-2.76,5.41-2.76,9.41s.88,7.36,2.65,9.51c1.77,2.15,4.33,3.22,7.67,3.22,1.45,0,2.85-.14,4.2-.43,1.36-.29,2.76-.66,4.23-1.11v4.79c-2.68,1.01-5.72,1.52-9.11,1.52-5,0-8.84-1.51-11.52-4.54-2.68-3.03-4.02-7.36-4.02-13,0-3.55,.65-6.66,1.95-9.32,1.3-2.66,3.18-4.7,5.64-6.12s5.35-2.13,8.67-2.13c3.49,0,6.71,.73,9.67,2.2l-2.01,4.65c-1.15-.54-2.37-1.02-3.66-1.44-1.29-.41-2.64-.62-4.05-.62Z"/><path class="g" d="M188.49,266.97c0,5.56-1.39,9.88-4.17,12.96-2.78,3.08-6.72,4.62-11.81,4.62s-9.11-1.53-11.88-4.59c-2.76-3.06-4.15-7.41-4.15-13.05s1.39-9.97,4.17-12.99c2.78-3.02,6.75-4.53,11.9-4.53s9,1.53,11.77,4.6c2.77,3.07,4.16,7.39,4.16,12.96Zm-26.07,0c0,4.2,.85,7.39,2.55,9.57,1.7,2.17,4.21,3.26,7.54,3.26s5.82-1.08,7.51-3.22c1.69-2.15,2.53-5.35,2.53-9.6s-.84-7.37-2.51-9.53c-1.67-2.16-4.17-3.25-7.49-3.25s-5.88,1.08-7.58,3.25c-1.71,2.17-2.56,5.34-2.56,9.53Z"/><path class="g" d="M229.06,284.09h-6.84l-16.79-27.21h-.19l.12,1.52c.22,2.9,.33,5.54,.33,7.94v17.75h-5.07v-34.15h6.77l16.75,27.07h.14c-.03-.36-.09-1.66-.19-3.91s-.14-4.01-.14-5.27v-17.89h5.12v34.15Z"/><path class="g" d="M248.4,284.09h-5.54v-34.15h19.27v4.72h-13.73v10.67h12.87v4.74h-12.87v14.02Z"/><path class="g" d="M303.43,266.97c0,5.56-1.39,9.88-4.17,12.96-2.78,3.08-6.72,4.62-11.81,4.62s-9.11-1.53-11.88-4.59c-2.76-3.06-4.15-7.41-4.15-13.05s1.39-9.97,4.17-12.99c2.78-3.02,6.75-4.53,11.9-4.53s9,1.53,11.77,4.6c2.77,3.07,4.16,7.39,4.16,12.96Zm-26.07,0c0,4.2,.85,7.39,2.55,9.57,1.7,2.17,4.21,3.26,7.54,3.26s5.82-1.08,7.51-3.22c1.69-2.15,2.53-5.35,2.53-9.6s-.84-7.37-2.51-9.53c-1.67-2.16-4.17-3.25-7.49-3.25s-5.88,1.08-7.58,3.25c-1.71,2.17-2.56,5.34-2.56,9.53Z"/><path class="g" d="M321.13,270.45v13.64h-5.58v-34.15h9.65c4.41,0,7.67,.83,9.79,2.48,2.12,1.65,3.18,4.14,3.18,7.47,0,4.25-2.21,7.28-6.63,9.09l9.65,15.11h-6.35l-8.18-13.64h-5.51Zm0-4.62h3.88c2.6,0,4.49-.48,5.65-1.45s1.75-2.4,1.75-4.3-.63-3.32-1.89-4.16-3.16-1.26-5.7-1.26h-3.69v11.17Z"/><path class="g" d="M365.67,284.09l-9.9-28.52h-.19c.26,4.24,.4,8.21,.4,11.91v16.61h-5.07v-34.15h7.87l9.48,27.17h.14l9.76-27.17h7.9v34.15h-5.37v-16.89c0-1.7,.04-3.91,.13-6.63,.08-2.73,.16-4.38,.22-4.95h-.19l-10.25,28.47h-4.93Z"/><path class="g" d="M421.03,284.09l-3.41-9.48h-13.06l-3.34,9.48h-5.89l12.78-34.29h6.07l12.78,34.29h-5.93Zm-4.88-14.3l-3.2-9.3c-.23-.62-.56-1.6-.97-2.94-.41-1.34-.7-2.32-.85-2.94-.42,1.92-1.04,4.01-1.85,6.28l-3.08,8.9h9.95Z"/><path class="g" d="M464.7,284.09h-6.84l-16.79-27.21h-.19l.12,1.52c.22,2.9,.33,5.54,.33,7.94v17.75h-5.07v-34.15h6.77l16.75,27.07h.14c-.03-.36-.09-1.66-.19-3.91s-.14-4.01-.14-5.27v-17.89h5.12v34.15Z"/><path class="g" d="M490.3,284.09h-5.58v-29.36h-10.04v-4.79h25.67v4.79h-10.04v29.36Z"/></g><text class="e" transform="translate(61.6 420.49)"><tspan x="0" y="0">APP FRAMEWORK - ZOWE V2</tspan></text></g><g id="c"/></svg>