<?xml version="1.0" encoding="UTF-8"?><svg xmlns="http://www.w3.org/2000/svg" xmlns:xlink="http://www.w3.org/1999/xlink" viewBox="0 0 624.23506 469.28291"><defs><style>.cls-1{fill:#2a7de1;}.cls-1,.cls-2,.cls-3,.cls-4,.cls-5,.cls-6,.cls-7{stroke-width:0px;}.cls-8{clip-path:url(#clippath);}.cls-2{fill:none;}.cls-3{opacity:.7;}.cls-3,.cls-4,.cls-6,.cls-7{fill:#fff;}.cls-4,.cls-9{opacity:.8;}.cls-5{fill:#0033a1;}.cls-10{clip-path:url(#clippath-1);}.cls-6{opacity:.9;}</style><clipPath id="clippath"><path class="cls-2" d="M764.24383,637.54532h473.30893c34.98474,0,63.34552,28.36076,63.34552,63.34553v271.41871h-600v-271.41871c0-34.98477,28.36076-63.34553,63.34553-63.34553h.00002Z"/></clipPath><clipPath id="clippath-1"><path class="cls-2" d="M75.30404,637.54532h473.30893c34.98474,0,63.34552,28.36076,63.34552,63.34553v271.41871H11.95849v-271.41871c0-34.98477,28.36076-63.34553,63.34553-63.34553h.00002Z"/></clipPath></defs><g id="Layer_1"><path class="cls-7" d="M608.92185,355.91258v103.77036H16.12207v-103.77036h592.79978M612.52195,352.31258H12.52195v110.97034h600v-110.97034Z"/><path class="cls-7" d="M48.30129,396.29099h-11.3418v-19.10352h11.3418v4.1416h-6.18066v3.00586h5.72363v4.14258h-5.72363v3.60645h6.18066v4.20703Z"/><path class="cls-7" d="M70.86281,396.29099h-5.97168l-3.72363-5.97168-3.68457,5.97168h-5.84082l6.33691-9.77441-5.95801-9.3291h5.72266l3.4502,5.90625,3.31836-5.90625h5.89355l-6.0498,9.73438,6.50684,9.36914Z"/><path class="cls-7" d="M88.87648,383.26365c0,2.13379-.62988,3.78223-1.88867,4.94531s-3.04688,1.74512-5.36328,1.74512h-1.45117v6.33691h-5.16113v-19.10352h6.6123c2.41211,0,4.22461.52734,5.43555,1.58105s1.81641,2.55273,1.81641,4.49512ZM80.17336,385.74607h.94141c.77539,0,1.3916-.21777,1.84863-.65332s.68652-1.03613.68652-1.80371c0-1.28906-.71484-1.93359-2.14355-1.93359h-1.33301v4.39062Z"/><path class="cls-7" d="M93.92824,396.29099v-19.10352h5.16113v14.93555h7.35742v4.16797h-12.51855Z"/><path class="cls-7" d="M129.38625,386.71287c0,3.21484-.78809,5.6582-2.36426,7.33105-1.57715,1.67188-3.88574,2.50879-6.92578,2.50879-2.99707,0-5.29395-.84082-6.89258-2.52246-1.59863-1.68066-2.39746-4.12891-2.39746-7.34375,0-3.17871.79395-5.60742,2.38379-7.28418s3.90137-2.51562,6.93262-2.51562c3.04004,0,5.34375.83203,6.91211,2.49609s2.35156,4.10742,2.35156,7.33008ZM116.24172,386.71287c0,3.69336,1.28418,5.54004,3.85449,5.54004,1.30664,0,2.27539-.44824,2.90723-1.3457.63184-.89648.94727-2.29492.94727-4.19434,0-1.90723-.32031-3.31641-.95996-4.22656-.64062-.91016-1.59668-1.36621-2.86816-1.36621-2.58789,0-3.88086,1.86426-3.88086,5.59277Z"/><path class="cls-7" d="M140.00441,389.33982v6.95117h-5.16113v-19.10352h6.25879c5.19238,0,7.78809,1.88184,7.78809,5.64453,0,2.21289-1.08008,3.9248-3.24023,5.13574l5.56641,8.32324h-5.85449l-4.05078-6.95117h-1.30664ZM140.00441,385.45896h.96777c1.80273,0,2.7041-.79785,2.7041-2.3916,0-1.31543-.88379-1.97266-2.65234-1.97266h-1.01953v4.36426Z"/><path class="cls-7" d="M166.30226,396.29099h-11.3418v-19.10352h11.3418v4.1416h-6.18066v3.00586h5.72363v4.14258h-5.72363v3.60645h6.18066v4.20703Z"/><path class="cls-7" d="M176.81594,389.33982v6.95117h-5.16113v-19.10352h6.25879c5.19238,0,7.78809,1.88184,7.78809,5.64453,0,2.21289-1.08008,3.9248-3.24023,5.13574l5.56641,8.32324h-5.85449l-4.05078-6.95117h-1.30664ZM176.81594,385.45896h.96777c1.80273,0,2.7041-.79785,2.7041-2.3916,0-1.31543-.88379-1.97266-2.65234-1.97266h-1.01953v4.36426Z"/><path class="cls-7" d="M205.81398,396.29099h-5.08301v-19.10352h11.29004v4.1416h-6.20703v3.64648h5.72363v4.1416h-5.72363v7.17383Z"/><path class="cls-7" d="M235.03859,386.71287c0,3.21484-.78809,5.6582-2.36426,7.33105-1.57715,1.67188-3.88574,2.50879-6.92578,2.50879-2.99707,0-5.29395-.84082-6.89258-2.52246-1.59863-1.68066-2.39746-4.12891-2.39746-7.34375,0-3.17871.79395-5.60742,2.38379-7.28418s3.90137-2.51562,6.93262-2.51562c3.04004,0,5.34375.83203,6.91211,2.49609s2.35156,4.10742,2.35156,7.33008ZM221.89406,386.71287c0,3.69336,1.28418,5.54004,3.85449,5.54004,1.30664,0,2.27539-.44824,2.90723-1.3457.63184-.89648.94727-2.29492.94727-4.19434,0-1.90723-.32031-3.31641-.95996-4.22656-.64062-.91016-1.59668-1.36621-2.86816-1.36621-2.58789,0-3.88086,1.86426-3.88086,5.59277Z"/><path class="cls-7" d="M245.65676,389.33982v6.95117h-5.16113v-19.10352h6.25879c5.19238,0,7.78809,1.88184,7.78809,5.64453,0,2.21289-1.08008,3.9248-3.24023,5.13574l5.56641,8.32324h-5.85449l-4.05078-6.95117h-1.30664ZM245.65676,385.45896h.96777c1.80273,0,2.7041-.79785,2.7041-2.3916,0-1.31543-.88379-1.97266-2.65234-1.97266h-1.01953v4.36426Z"/><path class="cls-7" d="M280.29934,377.18748h5.77637l-6.25977,19.10352h-6.07617l-6.23242-19.10352h5.80176l2.60059,9.68262c.54004,2.15137.83594,3.64941.8877,4.49512.06152-.61035.18359-1.37207.36621-2.28711s.34375-1.63379.4834-2.15625l2.65234-9.73438Z"/><path class="cls-7" d="M290.14699,396.29099v-19.10352h5.1875v19.10352h-5.1875Z"/><path class="cls-7" d="M313.9634,390.48924c0,1.18457-.30078,2.23633-.90137,3.15527-.60156.91992-1.46875,1.63379-2.60059,2.14355-1.13281.50977-2.46094.76465-3.98535.76465-1.27246,0-2.33887-.08984-3.20117-.26855-.86328-.17773-1.75977-.48926-2.69238-.93359v-4.59961c.98438.50488,2.00781.89941,3.07129,1.18262,1.0625.2832,2.03809.42383,2.92676.42383.7666,0,1.32812-.13184,1.68555-.39844.35742-.26562.53613-.60742.53613-1.02539,0-.26172-.07227-.49023-.21582-.68555-.14355-.19629-.375-.39453-.69238-.59473-.31836-.2002-1.16602-.61035-2.54199-1.22852-1.24609-.56641-2.17969-1.11523-2.80273-1.64648s-1.08496-1.14062-1.38477-1.8291c-.30078-.68848-.45117-1.50293-.45117-2.44336,0-1.75977.64062-3.13184,1.9209-4.11621s3.04004-1.47656,5.2793-1.47656c1.97656,0,3.99316.45703,6.0498,1.37207l-1.58105,3.98535c-1.78613-.81934-3.32812-1.22852-4.62598-1.22852-.6709,0-1.1582.11719-1.46387.35254-.30469.23535-.45703.52734-.45703.87598,0,.37402.19434.70996.58203,1.00586.38672.2959,1.43945.83594,3.15527,1.62012,1.64648.74121,2.79004,1.53516,3.42969,2.38477.64062.84961.96094,1.91895.96094,3.20801Z"/><path class="cls-7" d="M335.16457,377.18748v11.49902c0,2.5-.70801,4.43555-2.12305,5.80762-1.41602,1.37207-3.45605,2.05859-6.12207,2.05859-2.60449,0-4.60645-.66699-6.00391-2-1.39844-1.33203-2.09766-3.24902-2.09766-5.74902v-11.61621h5.1875v11.21094c0,1.35059.25293,2.33105.75781,2.94043s1.25.91406,2.23438.91406c1.05371,0,1.81836-.30176,2.29297-.90723.47559-.60547.71289-1.59668.71289-2.97363v-11.18457h5.16113Z"/><path class="cls-7" d="M352.90383,396.29099l-.94043-3.58008h-6.20703l-.9668,3.58008h-5.6709l6.23242-19.18164h6.88672l6.31152,19.18164h-5.64551ZM350.89211,388.47752l-.82324-3.13672c-.19238-.69629-.4248-1.59863-.69922-2.70508-.27441-1.10547-.45508-1.89844-.54199-2.37793-.0791.44434-.2334,1.17578-.46387,2.19531-.23145,1.01953-.74316,3.02734-1.53613,6.02441h4.06445Z"/><path class="cls-7" d="M362.62062,396.29099v-19.10352h5.16113v14.93555h7.35742v4.16797h-12.51855Z"/><path class="cls-7" d="M401.65383,390.48924c0,1.18457-.30078,2.23633-.90137,3.15527-.60156.91992-1.46875,1.63379-2.60059,2.14355-1.13281.50977-2.46094.76465-3.98535.76465-1.27246,0-2.33887-.08984-3.20117-.26855-.86328-.17773-1.75977-.48926-2.69238-.93359v-4.59961c.98438.50488,2.00781.89941,3.07129,1.18262,1.0625.2832,2.03809.42383,2.92676.42383.7666,0,1.32812-.13184,1.68555-.39844.35742-.26562.53613-.60742.53613-1.02539,0-.26172-.07227-.49023-.21582-.68555-.14355-.19629-.375-.39453-.69238-.59473-.31836-.2002-1.16602-.61035-2.54199-1.22852-1.24609-.56641-2.17969-1.11523-2.80273-1.64648s-1.08496-1.14062-1.38477-1.8291c-.30078-.68848-.45117-1.50293-.45117-2.44336,0-1.75977.64062-3.13184,1.9209-4.11621s3.04004-1.47656,5.2793-1.47656c1.97656,0,3.99316.45703,6.0498,1.37207l-1.58105,3.98535c-1.78613-.81934-3.32812-1.22852-4.62598-1.22852-.6709,0-1.1582.11719-1.46387.35254-.30469.23535-.45703.52734-.45703.87598,0,.37402.19434.70996.58203,1.00586.38672.2959,1.43945.83594,3.15527,1.62012,1.64648.74121,2.79004,1.53516,3.42969,2.38477.64062.84961.96094,1.91895.96094,3.20801Z"/><path class="cls-7" d="M415.04152,396.29099h-5.16113v-14.88281h-4.66504v-4.2207h14.47852v4.2207h-4.65234v14.88281Z"/><path class="cls-7" d="M440.67434,377.18748v11.49902c0,2.5-.70801,4.43555-2.12305,5.80762-1.41602,1.37207-3.45605,2.05859-6.12207,2.05859-2.60449,0-4.60645-.66699-6.00391-2-1.39844-1.33203-2.09766-3.24902-2.09766-5.74902v-11.61621h5.1875v11.21094c0,1.35059.25293,2.33105.75781,2.94043s1.25.91406,2.23438.91406c1.05371,0,1.81836-.30176,2.29297-.90723.47559-.60547.71289-1.59668.71289-2.97363v-11.18457h5.16113Z"/><path class="cls-7" d="M462.90871,386.33396c0,3.18848-.87793,5.64453-2.63281,7.37012-1.75586,1.72461-4.22266,2.58691-7.40234,2.58691h-6.18066v-19.10352h6.6123c3.06543,0,5.43359.78418,7.10156,2.35156,1.66797,1.56836,2.50195,3.83301,2.50195,6.79492ZM457.55129,386.51658c0-1.75098-.3457-3.04883-1.03906-3.89355-.69238-.84473-1.74414-1.26758-3.15527-1.26758h-1.50293v10.70215h1.15039c1.56738,0,2.71777-.45508,3.44922-1.36621.73242-.91016,1.09766-2.30176,1.09766-4.1748Z"/><path class="cls-7" d="M468.33937,396.29099v-19.10352h5.1875v19.10352h-5.1875Z"/><path class="cls-7" d="M497.53762,386.71287c0,3.21484-.78809,5.6582-2.36426,7.33105-1.57715,1.67188-3.88574,2.50879-6.92578,2.50879-2.99707,0-5.29395-.84082-6.89258-2.52246-1.59863-1.68066-2.39746-4.12891-2.39746-7.34375,0-3.17871.79395-5.60742,2.38379-7.28418s3.90137-2.51562,6.93262-2.51562c3.04004,0,5.34375.83203,6.91211,2.49609s2.35156,4.10742,2.35156,7.33008ZM484.39309,386.71287c0,3.69336,1.28418,5.54004,3.85449,5.54004,1.30664,0,2.27539-.44824,2.90723-1.3457.63184-.89648.94727-2.29492.94727-4.19434,0-1.90723-.32031-3.31641-.95996-4.22656-.64062-.91016-1.59668-1.36621-2.86816-1.36621-2.58789,0-3.88086,1.86426-3.88086,5.59277Z"/><path class="cls-7" d="M520.46047,381.14646c-1.22852,0-2.18652.50293-2.875,1.50977-.68848,1.00586-1.03223,2.39258-1.03223,4.16113,0,3.67676,1.39844,5.51465,4.19434,5.51465.84473,0,1.66406-.11816,2.45703-.35352.79199-.23438,1.58887-.51758,2.39062-.84863v4.36426c-1.59375.70508-3.39746,1.05859-5.40918,1.05859-2.88379,0-5.09473-.83691-6.63184-2.50879-1.53711-1.67285-2.30566-4.08984-2.30566-7.25293,0-1.97656.37207-3.71484,1.11719-5.21289.74414-1.49805,1.81543-2.65039,3.21387-3.45605s3.04297-1.20898,4.93262-1.20898c2.06445,0,4.03809.44824,5.91992,1.3457l-1.58105,4.06348c-.70605-.33105-1.41211-.60938-2.11719-.83594-.70605-.22656-1.46387-.33984-2.27344-.33984Z"/><path class="cls-7" d="M549.20168,386.71287c0,3.21484-.78809,5.6582-2.36426,7.33105-1.57715,1.67188-3.88574,2.50879-6.92578,2.50879-2.99707,0-5.29395-.84082-6.89258-2.52246-1.59863-1.68066-2.39746-4.12891-2.39746-7.34375,0-3.17871.79395-5.60742,2.38379-7.28418s3.90137-2.51562,6.93262-2.51562c3.04004,0,5.34375.83203,6.91211,2.49609s2.35156,4.10742,2.35156,7.33008ZM536.05715,386.71287c0,3.69336,1.28418,5.54004,3.85449,5.54004,1.30664,0,2.27539-.44824,2.90723-1.3457.63184-.89648.94727-2.29492.94727-4.19434,0-1.90723-.32031-3.31641-.95996-4.22656-.64062-.91016-1.59668-1.36621-2.86816-1.36621-2.58789,0-3.88086,1.86426-3.88086,5.59277Z"/><path class="cls-7" d="M570.87453,386.33396c0,3.18848-.87793,5.64453-2.63281,7.37012-1.75586,1.72461-4.22266,2.58691-7.40234,2.58691h-6.18066v-19.10352h6.6123c3.06543,0,5.43359.78418,7.10156,2.35156,1.66797,1.56836,2.50195,3.83301,2.50195,6.79492ZM565.51711,386.51658c0-1.75098-.3457-3.04883-1.03906-3.89355-.69238-.84473-1.74414-1.26758-3.15527-1.26758h-1.50293v10.70215h1.15039c1.56738,0,2.71777-.45508,3.44922-1.36621.73242-.91016,1.09766-2.30176,1.09766-4.1748Z"/><path class="cls-7" d="M587.64699,396.29099h-11.3418v-19.10352h11.3418v4.1416h-6.18066v3.00586h5.72363v4.14258h-5.72363v3.60645h6.18066v4.20703Z"/><g class="cls-9"><path class="cls-7" d="M266.35351,438.89735h-15.46542v-2.85683l9.96503-14.28592h-9.6952v-3.63864h14.92575v2.84269l-9.94971,14.30006h10.21955v3.63864Z"/><path class="cls-7" d="M285.22308,430.92308c0,1.32679-.17793,2.50157-.53378,3.52494-.35467,1.02337-.87195,1.88825-1.54949,2.59407-.67753.7064-1.49175,1.23959-2.44501,1.59957-.95208.35998-2.02553.54026-3.21916.54026-1.11822,0-2.14454-.18028-3.07777-.54026s-1.74391-.89316-2.43087-1.59957c-.68696-.70581-1.2172-1.5707-1.59191-2.59407-.37353-1.02337-.56088-2.19815-.56088-3.52494,0-1.76276.31225-3.2551.93794-4.47761s1.51649-2.15102,2.67242-2.78613c1.15593-.63452,2.53456-.95208,4.13589-.95208,1.48821,0,2.80793.31756,3.95915.95208,1.15122.63511,2.05616,1.56363,2.71484,2.78613s.98861,2.71484.98861,4.47761ZM274.23527,430.92308c0,1.04222.11312,1.91889.34053,2.62942.22742.71111.58327,1.24666,1.06638,1.60664s1.11351.53967,1.89002.53967c.76826,0,1.39041-.17969,1.86999-.53967.4784-.35998.82836-.89552,1.05106-1.60664.2227-.71053.33464-1.58719.33464-2.62942,0-1.05224-.11194-1.92596-.33464-2.62293-.2227-.69639-.57502-1.21956-1.05813-1.5707-.48429-.34996-1.11469-.52553-1.8912-.52553-1.1465,0-1.97839.39297-2.4945,1.1795-.5161.78712-.77415,1.96661-.77415,3.53967Z"/><path class="cls-7" d="M303.32204,438.89735l-1.22192-5.55812c-.06599-.33111-.17557-.82188-.32639-1.47113-.152-.64866-.31579-1.34505-.49136-2.08916s-.33582-1.43342-.48311-2.06854c-.14729-.63452-.25334-1.09937-.31932-1.39277h-.12844c-.06599.2934-.17086.75825-.31225,1.39277-.14258.63511-.30165,1.32679-.47604,2.07561-.17557.74823-.33936,1.45228-.49136,2.11096-.15082.65868-.26512,1.15829-.34053,1.49941l-1.27965,5.50098h-4.6626l-4.52003-15.89197h4.32207l1.83346,7.03632c.12255.49254.24156,1.07816.35467,1.75569.1143.67753.21563,1.3315.30636,1.96131.08955.6304.15789,1.13001.20621,1.5h.11312c.01885-.27514.05892-.63983.12137-1.09466.06127-.45483.13197-.92616.21328-1.41457.08013-.48782.15554-.92851.22742-1.32207.0707-.39297.1249-.66104.16261-.80302l1.9619-7.619h4.77572l1.86292,7.619c.06599.27514.15318.71111.26276,1.30793.10841.59682.20621,1.21072.29104,1.84053.08602.6304.13315,1.12529.14258,1.48586h.11312c.03771-.32227.10487-.80067.19914-1.43578.09544-.63511.20621-1.30086.33464-1.99725.12726-.69639.25805-1.29144.39002-1.78397l1.90534-7.03632h4.25019l-4.57776,15.89197h-4.71916Z"/><path class="cls-7" d="M323.18611,422.70727c1.46936,0,2.73487.28162,3.79536.84544,1.06166.56382,1.88177,1.38158,2.45915,2.45208.57855,1.07109.86724,2.37843.86724,3.92321v2.10389h-10.24901c.04831,1.2225.41477,2.18165,1.10173,2.87804.68696.69697,1.64257,1.04517,2.86449,1.04517,1.01453,0,1.94305-.10428,2.78672-.31284.8425-.20856,1.70974-.52082,2.60055-.93794v3.35467c-.78594.38826-1.6084.67282-2.46622.85251s-1.89709.27042-3.12018.27042c-1.59191,0-3.00117-.29399-4.22898-.88138-1.22663-.58739-2.18814-1.48291-2.8857-2.68656-.69639-1.20365-1.04399-2.71956-1.04399-4.54889,0-1.85703.31461-3.40416.94501-4.6408s1.50942-2.16575,2.63707-2.78613,2.4403-.93087,3.93676-.93087ZM323.21557,425.79151c-.84368,0-1.54242.26983-2.09741.81009-.55381.54026-.87431,1.38865-.95915,2.54458h6.08365c-.00943-.64454-.12608-1.21779-.34878-1.71975-.2227-.50255-.55381-.90023-.9945-1.19422-.44069-.2934-1.00157-.44069-1.68382-.44069Z"/><path class="cls-7" d="M348.0875,438.89735l-6.05537-15.89197h4.53417l3.0707,9.05478c.17086.53083.30518,1.08994.40534,1.67733.09898.58739.16732,1.11351.20621,1.57777h.11312c.02828-.50196.0978-1.03751.20621-1.60605s.25334-1.11822.43362-1.64906l3.05656-9.05478h4.53417l-6.05537,15.89197h-4.44933Z"/><path class="cls-7" d="M374.92957,422.76382c0,.95738-.19796,1.78633-.59623,2.48743-.39827.70169-.93676,1.27494-1.61312,1.72034-.67871.4454-1.43873.77239-2.2824.98036v.08543c1.6685.20856,2.93519.72054,3.80243,1.53535s1.30086,1.90475,1.30086,3.26924c0,1.21308-.29576,2.29831-.88845,3.2551-.59269.95738-1.50471,1.71092-2.73605,2.26001-1.23252.54969-2.81971.82482-4.76158.82482-1.1465,0-2.21524-.0925-3.2062-.27749-.98979-.185-1.92066-.46661-2.79261-.84544v-3.7388c.89081.45483,1.82404.79831,2.79968,1.03044.97683.23272,1.88649.34819,2.73016.34819,1.57305,0,2.6736-.27219,3.304-.81716s.94619-1.3097.94619-2.29536c0-.57796-.14729-1.06638-.44069-1.46406-.29458-.39827-.80361-.70169-1.52828-.91025-.72467-.20797-1.73684-.31225-3.03535-.31225h-1.57777v-3.36881h1.60605c1.27965,0,2.25294-.12078,2.92105-.36292.66811-.24156,1.12294-.57325,1.36567-.9945.24156-.42184.36174-.90318.36174-1.44285,0-.73939-.22742-1.31736-.68225-1.73448-.45483-.41654-1.21249-.6251-2.27415-.6251-.66339,0-1.26787.08307-1.81225.24862-.54556.16555-1.03574.36469-1.47172.59682s-.81893.45719-1.15122.67518l-2.0326-3.02769c.8154-.58739,1.76983-1.07521,2.86449-1.46406,1.09466-.38826,2.40023-.58268,3.91555-.58268,2.14218,0,3.83778.43126,5.08915,1.2932,1.25137.86253,1.87588,2.08032,1.87588,3.65337Z"/></g><path class="cls-7" d="M265.05038,437.59422h-15.46542v-2.85683l9.96503-14.28592h-9.6952v-3.63864h14.92575v2.84269l-9.94971,14.30006h10.21955v3.63864Z"/><path class="cls-7" d="M283.91996,429.61996c0,1.32679-.17793,2.50157-.53378,3.52494-.35467,1.02337-.87195,1.88825-1.54949,2.59407-.67753.7064-1.49175,1.23959-2.44501,1.59957-.95208.35998-2.02553.54026-3.21916.54026-1.11822,0-2.14454-.18028-3.07777-.54026s-1.74391-.89316-2.43087-1.59957c-.68696-.70581-1.2172-1.5707-1.59191-2.59407-.37353-1.02337-.56088-2.19815-.56088-3.52494,0-1.76276.31225-3.2551.93794-4.47761.62569-1.2225,1.51649-2.15102,2.67242-2.78613,1.15593-.63452,2.53456-.95208,4.13589-.95208,1.48821,0,2.80793.31756,3.95915.95208,1.15122.63511,2.05616,1.56363,2.71484,2.78613s.98861,2.71484.98861,4.47761ZM272.93215,429.61996c0,1.04222.11312,1.91889.34053,2.62942.22742.71111.58327,1.24666,1.06638,1.60664s1.11351.53967,1.89002.53967c.76826,0,1.39041-.17969,1.86999-.53967.4784-.35998.82836-.89552,1.05106-1.60664.2227-.71053.33464-1.58719.33464-2.62942,0-1.05224-.11194-1.92596-.33464-2.62293-.2227-.69639-.57502-1.21956-1.05813-1.5707-.48429-.34996-1.11469-.52553-1.8912-.52553-1.1465,0-1.97839.39297-2.4945,1.1795-.5161.78712-.77415,1.96661-.77415,3.53967Z"/><path class="cls-7" d="M302.01891,437.59422l-1.22192-5.55812c-.06599-.33111-.17557-.82188-.32639-1.47113-.152-.64866-.31579-1.34505-.49136-2.08916s-.33582-1.43342-.48311-2.06854c-.14729-.63452-.25334-1.09937-.31932-1.39277h-.12844c-.06599.2934-.17086.75825-.31225,1.39277-.14258.63511-.30165,1.32679-.47604,2.07561-.17557.74823-.33936,1.45228-.49136,2.11096-.15082.65868-.26512,1.15829-.34053,1.49941l-1.27965,5.50098h-4.6626l-4.52003-15.89197h4.32207l1.83346,7.03632c.12255.49254.24156,1.07816.35467,1.75569.1143.67753.21563,1.3315.30636,1.96131.08955.6304.15789,1.13001.20621,1.5h.11312c.01885-.27514.05892-.63983.12137-1.09466.06127-.45483.13197-.92616.21328-1.41457.08013-.48782.15554-.92851.22742-1.32207.0707-.39297.1249-.66104.16261-.80302l1.9619-7.619h4.77572l1.86292,7.619c.06599.27514.15318.71111.26276,1.30793.10841.59682.20621,1.21072.29104,1.84053.08602.6304.13315,1.12529.14258,1.48586h.11312c.03771-.32227.10487-.80067.19914-1.43578.09544-.63511.20621-1.30086.33464-1.99725.12726-.69639.25805-1.29144.39002-1.78397l1.90534-7.03632h4.25019l-4.57776,15.89197h-4.71916Z"/><path class="cls-7" d="M321.88299,421.40414c1.46936,0,2.73487.28162,3.79536.84544,1.06166.56382,1.88177,1.38158,2.45915,2.45208.57855,1.07109.86724,2.37843.86724,3.92321v2.10389h-10.24901c.04831,1.2225.41477,2.18165,1.10173,2.87804.68696.69697,1.64257,1.04517,2.86449,1.04517,1.01453,0,1.94305-.10428,2.78672-.31284.8425-.20856,1.70974-.52082,2.60055-.93794v3.35467c-.78594.38826-1.6084.67282-2.46622.85251s-1.89709.27042-3.12018.27042c-1.59191,0-3.00117-.29399-4.22898-.88138-1.22663-.58739-2.18814-1.48291-2.8857-2.68656-.69639-1.20365-1.04399-2.71956-1.04399-4.54889,0-1.85703.31461-3.40416.94501-4.6408s1.50942-2.16575,2.63707-2.78613,2.4403-.93087,3.93676-.93087ZM321.91245,424.48839c-.84368,0-1.54242.26983-2.09741.81009-.55381.54026-.87431,1.38865-.95915,2.54458h6.08365c-.00943-.64454-.12608-1.21779-.34878-1.71975-.2227-.50255-.55381-.90023-.9945-1.19422-.44069-.2934-1.00157-.44069-1.68382-.44069Z"/><path class="cls-7" d="M346.78437,437.59422l-6.05537-15.89197h4.53417l3.0707,9.05478c.17086.53083.30518,1.08994.40534,1.67733.09898.58739.16732,1.11351.20621,1.57777h.11312c.02828-.50196.0978-1.03751.20621-1.60605s.25334-1.11822.43362-1.64906l3.05656-9.05478h4.53417l-6.05537,15.89197h-4.44933Z"/><path class="cls-7" d="M373.62644,421.4607c0,.95738-.19796,1.78633-.59623,2.48743-.39827.70169-.93676,1.27494-1.61312,1.72034-.67871.4454-1.43873.77239-2.2824.98036v.08543c1.6685.20856,2.93519.72054,3.80243,1.53535s1.30086,1.90475,1.30086,3.26924c0,1.21308-.29576,2.29831-.88845,3.2551-.59269.95738-1.50471,1.71092-2.73605,2.26001-1.23252.54969-2.81971.82482-4.76158.82482-1.1465,0-2.21524-.0925-3.2062-.27749-.98979-.185-1.92066-.46661-2.79261-.84544v-3.7388c.89081.45483,1.82404.79831,2.79968,1.03044.97683.23272,1.88649.34819,2.73016.34819,1.57305,0,2.6736-.27219,3.304-.81716s.94619-1.3097.94619-2.29536c0-.57796-.14729-1.06638-.44069-1.46406-.29458-.39827-.80361-.70169-1.52828-.91025-.72467-.20797-1.73684-.31225-3.03535-.31225h-1.57777v-3.36881h1.60605c1.27965,0,2.25294-.12078,2.92105-.36292.66811-.24156,1.12294-.57325,1.36567-.9945.24156-.42184.36174-.90318.36174-1.44285,0-.73939-.22742-1.31736-.68225-1.73448-.45483-.41654-1.21249-.6251-2.27415-.6251-.66339,0-1.26787.08307-1.81225.24862-.54556.16555-1.03574.36469-1.47172.59682s-.81893.45719-1.15122.67518l-2.0326-3.02769c.8154-.58739,1.76983-1.07521,2.86449-1.46406,1.09466-.38826,2.40023-.58268,3.91555-.58268,2.14218,0,3.83778.43126,5.08915,1.2932,1.25137.86253,1.87588,2.08032,1.87588,3.65337Z"/></g><g id="Layer_2"><g class="cls-8"><polygon class="cls-5" points="1078.82229 629.18534 1131.85321 370.91892 543.09733 759.62637 745.51229 756.45431 1021.03128 563.3667 1078.82229 629.18534"/></g><g class="cls-10"><polygon class="cls-5" points="389.8825 629.18534 442.91342 370.91892 -145.84246 759.62637 56.5725 756.45431 332.09149 563.3667 389.8825 629.18534"/><polygon class="cls-1" points="788.07922 893.69733 375.74503 752.22235 442.90572 370.89964 788.07922 893.69733"/></g><path class="cls-7" d="M554.86777,6.72269c-1.29541-.07324-2.59473-.12024-3.90088-.11035-26.39185.19946-52.78613.04205-79.17944.04211-23.59399.00006-47.18799-.00171-70.78174.00305-.66675.00012-1.17065.0014-1.56079.04102,68.40674.24933,129.7832.58124,162.99854.93054-2.49292-.45532-5.02197-.76202-7.57568-.90637Z"/><path class="cls-3" d="M448.87974,341.53208c-1.14258-.00018-2.30176.09344-3.52588-.20264-.04443-.01074-.08765-.01312-.13232-.02496.24829-1.0777,1.15186-1.36719,1.81055-1.83606,16.22266-11.54791,32.45703-23.07971,48.69067-34.6123,26.59985-18.89667,53.20386-37.78693,79.79517-56.6955,2.56079-1.82086,2.71338-1.27264.77661-4.12512-15.18384-22.36139-30.3645-44.72491-45.52417-67.10254-.79956-1.18048-1.83911-2.20789-2.36304-3.57153-.302-.05804-.60376-.11603-.90576-.17407-22.17383,15.46417-44.34473,30.9325-66.52173,46.39172-33.59424,23.41772-67.19214,46.82977-100.79224,70.23914-.76147.53058-1.47046,1.17609-2.55347,1.53418-.21948-2.76349.37939-5.25702.67065-7.75952,1.17285-10.08447,2.43066-20.15906,3.66284-30.23657,1.36768-11.18848,2.74707-22.37555,4.11084-33.56451,1.34473-11.03033,2.67773-22.06207,4.01318-33.09351,1.34497-11.1106,2.67944-22.22247,4.03149-33.33221,1.23608-10.15771,2.48975-20.31329,3.73584-30.46985.48901-2.99023.94702-5.98596,1.47192-8.96991,3.95996-22.51868,7.93213-45.03522,11.90234-67.55206,2.17944-12.36023,4.35571-24.72107,6.5498-37.07874.35229-1.9834.45898-2.47473,1.66187-2.59698-130.96777-.47729-287.70776-.65179-321.94678-.06573,49.1936.01855,98.38721.00708,147.58081.01471.91943.00018,1.86548-.13727,2.83594.18542-.33862.85571-1.04272,1.11841-1.604,1.51196-55.40527,38.83765-110.81543,77.66858-166.22559,116.49927-.19678.1377-.40015.26556-.60034.39807-.14453,1.22949.63452,2.112,1.19336,3.05676,13.45361,22.74011,26.91968,45.47284,40.38208,68.20776,1.42334,2.40387,2.82666,4.81982,4.2627,7.21606.44189.73737.77612,1.61444,1.79053,1.79437,27.77271-18.88525,55.54272-37.77472,83.31909-56.65466,34.39014-23.37518,68.78467-46.7439,103.18579-70.10297.70068-.47589,1.31372-1.17499,2.26733-1.23364.4856.81708.13208,1.5946.04517,2.35284-1.19043,10.40344-2.38916,20.80597-3.59766,31.2074-1.36523,11.75134-2.74756,23.50067-4.11328,35.25201-1.19019,10.2428-2.36426,20.48743-3.55127,30.73059-1.21436,10.4812-2.44043,20.96118-3.65356,31.44257-1.20386,10.40216-2.39282,20.80597-3.59717,31.20801-1.12158,9.68762-2.25464,19.37402-3.38281,29.06091-2.00684,13.91742-3.31616,27.91937-5.07056,41.86774-1.10742,8.80194-2.03564,17.62634-3.05078,26.43994-.10059.87341-.22705,1.74481-.37451,2.61151-.16577.97296-.28223,1.40894-.67969,1.63-.29224.16241-.73193.21228-1.47656.25598-.55811.03278-1.11938.01685-1.6792.01685-67.66162.00043-135.32349.00079-202.98486.00299"/><path class="cls-7" d="M562.44346,7.62907c5.60156,1.02313,11.01221,2.82007,16.09741,5.28503-4.64087-3.36414-9.97583-5.22064-16.09741-5.28503Z"/><path class="cls-4" d="M110.92197,207.71061c25.96826,9.98737,51.95728,19.92108,77.93872,29.87433,23.2937,8.92352,46.58252,17.8598,69.87598,26.78394,4.25537,1.63031,8.52881,3.21405,12.78076,4.85388.96973.37402,1.83936.63019,2.51782-.4425,1.12817-9.68689,2.26123-19.37329,3.38281-29.06091,1.20435-10.40204,2.39331-20.80585,3.59717-31.20801,1.21313-10.48138,2.43921-20.96136,3.65356-31.44257,1.18701-10.24316,2.36108-20.48779,3.55127-30.73059,1.36572-11.75134,2.74805-23.50067,4.11328-35.25201,1.2085-10.40143,2.40723-20.80396,3.59766-31.2074.08691-.75824.44043-1.53577-.04517-2.35284-.95361.05865-1.56665.75775-2.26733,1.23364-34.40112,23.35907-68.79565,46.72778-103.18579,70.10297-27.77637,18.87994-55.54639,37.76941-83.31909,56.65466.74634,1.62787,2.45825,1.67419,3.80835,2.19342Z"/><path class="cls-6" d="M271.51735,269.22276c-4.25195-1.63983-8.52539-3.22357-12.78076-4.85388-23.29346-8.92413-46.58228-17.86041-69.87598-26.78394-25.98145-9.95325-51.97046-19.88696-77.93872-29.87433-1.3501-.51923-3.06201-.56555-3.80835-2.19342-1.0144-.17993-1.34863-1.05701-1.79053-1.79437-1.43604-2.39624-2.83936-4.81219-4.2627-7.21606-13.4624-22.73492-26.92847-45.46765-40.38208-68.20776-.55884-.94476-1.33789-1.82727-1.19336-3.05676.2002-.13251.40356-.26038.60034-.39807C115.49538,86.01347,170.90554,47.18253,226.31081,8.34489c.56128-.39355,1.26538-.65625,1.604-1.51196-.97046-.32269-1.9165-.18524-2.83594-.18542-49.1936-.00763-98.38721.00385-147.58081-.01471-5.05615-.00189-9.97729.52539-14.73267,1.62988-.00098.00024-.0022.00049-.00317.00073-6.1145,1.42041-11.95532,3.79504-17.45825,7.22614-19.95703,12.44312-30.57715,30.46747-30.90259,54.10883-.24536,17.83429-.05029,35.67462-.04419,53.51227.00049,1.0379.06494,2.07581.09937,3.11365-.0293.87842-.08423,1.75684-.08423,2.63519-.00415,69.73956-.00537,139.47919.00098,209.21875.00024,2.02057-.15112,2.88196.57471,3.25122.4895.24902,1.37402.27649,2.9873.27643l243.76855-.0036c.55981,0,1.12109.01593,1.6792-.01685.74463-.0437,1.18433-.09357,1.47656-.25598.39746-.22107.51392-.65704.67969-1.63.14746-.8667.27393-1.7381.37451-2.61151,1.01514-8.8136,1.94336-17.638,3.05078-26.43994,1.75439-13.94836,3.06372-27.95032,5.07056-41.86774-.67847,1.07269-1.5481.81653-2.51782.4425Z"/><path class="cls-4" d="M525.14683,171.74479c-12.01587-4.16162-24.03174-8.323-36.05786-12.45514-22.16138-7.61493-44.32959-15.21088-66.49512-22.81415-10.8938-3.73682-21.78638-7.4765-32.68237-11.20605-3.25391-1.11377-6.52856-2.16779-9.77173-3.31158-1.12109-.39526-1.8479-.17212-2.28076.93835-1.24609,10.15656-2.49976,20.31213-3.73584,30.46985-1.35205,11.10974-2.68652,22.22162-4.03149,33.33221-1.33545,11.03143-2.66846,22.06317-4.01318,33.09351-1.36377,11.18896-2.74316,22.37604-4.11084,33.56451-1.23218,10.07751-2.48999,20.1521-3.66284,30.23657-.29126,2.5025-.89014,4.99603-.67065,7.75952,1.08301-.35809,1.79199-1.0036,2.55347-1.53418,33.6001-23.40936,67.198-46.82141,100.79224-70.23914,22.177-15.45923,44.3479-30.92755,66.52173-46.39172-.42188-1.0708-1.47607-1.13824-2.35474-1.44257Z"/><path class="cls-6" d="M614.421,337.90379c.01465-44.15015.00952-88.30023.00708-132.45038,0-.95923-.03345-1.91852-.05127-2.87775v-.00006c.01782-.31897.05103-.63788.05103-.95685.00171-43.8288-.00024-87.65759.00366-131.48639.00049-4.0918-.38794-8.14813-1.16602-12.15814-3.9812-20.51447-17.44873-36.68597-34.72461-45.06012-5.08521-2.46497-10.49585-4.2619-16.09741-5.28503-33.21533-.3493-94.5918-.68121-162.99854-.93054-1.20288.12225-1.30957.61359-1.66187,2.59698-2.19409,12.35767-4.37036,24.71851-6.5498,37.07874-3.97021,22.51685-7.94238,45.03339-11.90234,67.55206-.5249,2.98395-.98291,5.97968-1.47192,8.96991.43286-1.11047,1.15967-1.33362,2.28076-.93835,3.24316,1.1438,6.51782,2.19781,9.77173,3.31158,10.896,3.72955,21.78857,7.46924,32.68237,11.20605,22.16553,7.60327,44.33374,15.19922,66.49512,22.81415,12.02612,4.13214,24.04199,8.29352,36.05786,12.45514.87866.30432,1.93286.37177,2.35474,1.44257.302.05804.60376.11603.90576.17407.52393,1.36365,1.56348,2.39105,2.36304,3.57153,15.15967,22.37762,30.34033,44.74115,45.52417,67.10254,1.93677,2.85248,1.78418,2.30426-.77661,4.12512-26.59131,18.90857-53.19531,37.79883-79.79517,56.6955-16.23364,11.53259-32.46802,23.06439-48.69067,34.6123-.65869.46887-1.56226.75836-1.81055,1.83606.04468.01184.08789.01422.13232.02496,1.22412.29608,2.3833.20245,3.52588.20264,45.03149.005,90.06348.00427,135.09497.0025,8.9563-.00037,17.91235.0011,26.86865.00049,1.71655-.00012,2.61963.02222,3.09644-.20563.0083-.00397.01733-.00757.02539-.01172.65918-.33795.45508-1.2005.45581-3.41394Z"/><polygon class="cls-7" points="164.49471 98.01125 164.49665 98.01222 164.49567 98.01125 164.49471 98.01125"/><path class="cls-2" d="M395.78011,55.5691c.44301-.32622.68352-.86009.63436-1.40805v-.04505c.06221-.59396-.21643-1.1721-.71979-1.49349-.71587-.34112-1.50775-.49143-2.29883-.43636h-.98522v3.76532h1.00321c.80767.05606,1.61736-.07478,2.36626-.38237Z"/><path class="cls-2" d="M485.30807,55.42518c1.1159-.94583,1.25478-2.61676.31037-3.73384l-.32388-.32387c-.81301-.53478-1.77731-.79205-2.74867-.73332h-2.29874v5.51084h2.32578c.96516.05794,1.92354-.19427,2.73513-.7198Z"/><path class="cls-2" d="M473.35256,55.52414c1.15526-1.04275,1.24647-2.82458.2037-3.97983h0s-.00131-.00145-.00131-.00145c-.01161-.01098-.02217-.02302-.03152-.03598l-.13947-.15297c-.73973-.54854-1.64959-.81782-2.56871-.76022l-2.74861.04045v5.6368h2.60914c.95213.07151,1.89921-.19272,2.67678-.74679Z"/><path class="cls-2" d="M351.72391,115.3334c-10.72341,0-17.13256,8.25802-17.13256,17.99514v.24607c0,9.73711,7.02568,18.24187,17.37932,18.24187,10.7227,0,17.13185-8.25802,17.13185-17.99512v-.24675c-.00003-9.7368-7.02568-18.24121-17.37861-18.24121Z"/><polygon class="cls-2" points="412.59577 53.27181 410.29662 58.90886 414.88133 58.90886 412.59577 53.27181"/><path class="cls-2" d="M262.70445,56.44138c1.28651-1.19459,1.36299-3.20523.17095-4.4941-.04313-.06108-.09637-.11434-.15746-.15746-.80438-.61665-1.80451-.92179-2.81611-.85921h-3.11749v6.34305h2.93307c1.06111.06803,2.114-.22533,2.98705-.83228Z"/><path class="cls-2" d="M530.8126,114.22409c-7.76523,0-12.8183,5.54624-14.29741,14.051h28.22505c-1.10934-8.3814-6.03936-14.051-13.92764-14.051Z"/><polygon class="cls-2" points="332.36999 53.27181 330.06205 58.90886 334.65552 58.90886 332.36999 53.27181"/><path class="cls-2" d="M239.30586,62.74302c2.7748,2.66912,7.16262,2.66912,9.93742,0,2.68562-2.74014,2.68562-7.12526,0-9.86541-2.77536-2.66771-7.16206-2.66771-9.93742,0-2.72424,2.71095-2.73501,7.11703-.02407,9.84128l.0061.00611.01797.01802Z"/><path class="cls-2" d="M503.60381,61.17977c2.4112-2.44804,2.4112-6.37819,0-8.82623-2.47611-2.40677-6.41767-2.40677-8.89378,0-2.43355,2.4333-2.43378,6.37867-.0005,8.81225l.0005.00047c1.17645,1.18199,2.78648,1.82925,4.4537,1.79046v.0135c1.66354.04073,3.27012-.60712,4.44008-1.79045Z"/><path class="cls-7" d="M468.06676,57.2156h2.67666c1.25321.0948,2.49872-.26447,3.50891-1.01217.79672-.68539,1.23457-1.6987,1.18764-2.74862.05559-1.04377-.3846-2.05257-1.18764-2.72166-.97249-.73291-2.17728-1.08924-3.39196-1.00319h-3.87781v14.07159h1.0842v-6.58595ZM468.06676,50.63413l2.74864-.04045c.91909-.05759,1.82895.21169,2.56868.76022l.13947.15297c.00935.01296.01992.02501.03152.03598,1.04354,1.15452.95358,2.9364-.20094,3.97993-.00003.00001-.00003.00003-.00006.00005l-.00142.0013c-.77754.55406-1.72459.81829-2.67669.74679h-2.60914l-.00006-5.6368Z"/><path class="cls-7" d="M480.20662,57.07617h1.9434c.7002-.04094,1.39683.12655,2.00187.48132.76546.69094,1.40879,1.50614,1.90286,2.41124l2.45177,3.83281h1.30007l-3.185-4.86301c-.45753-.84992-1.09827-1.58748-1.87591-2.15931,1.57447-.37925,2.68218-1.79045,2.67663-3.40995.04075-1.02239-.40265-2.00422-1.1966-2.64965-1.00623-.72248-2.23246-1.07237-3.46842-.98969h-3.59442l-.04045,14.09861h1.08414l.00006-6.75237ZM480.2471,50.63413h2.29874c.97136-.05872,1.93565.19854,2.74867.73332l.32388.32387c.94441,1.11708.80553,2.78802-.31037,3.73384-.81162.52553-1.77001.77774-2.73516.71979h-2.32569l-.00006-5.51082Z"/><path class="cls-7" d="M504.44948,61.88153l.17099-.17992c.02701-.03149.05396-.05846.08097-.08543,2.68328-2.82194,2.57088-7.2848-.25104-9.9681l-.00089-.00083c-2.96444-2.79509-7.59373-2.79509-10.55818,0l-.13944.14394-.00899.00451c-2.74136,2.8272-2.67497,7.3405.1484,10.08582,2.96323,2.79815,7.59495,2.79815,10.55818,0ZM494.71004,61.16625c-2.43355-2.43329-2.43375-6.37865-.0005-8.81224l.0005-.00047c2.47611-2.40677,6.41767-2.40677,8.89378,0,2.4112,2.44804,2.4112,6.37817,0,8.82622-1.16995,1.18335-2.77657,1.83119-4.44014,1.79044v-.01348c-1.66719.03877-3.27719-.6085-4.45361-1.79046h-.00003Z"/><path class="cls-7" d="M509.1443,67.90562c.78517.00478,1.53677-.31803,2.07391-.89072.6785-.9154.98982-2.05159.87276-3.18499v-14.09862h-1.08417v14.40906c0,1.8894-.64772,2.82059-1.97483,2.82059-.21326-.00393-.42565-.02802-.63436-.07197l.09901,1.0167c.21596.00893.43182.00891.64769-.00004Z"/><polygon class="cls-7" points="524.72011 62.88572 517.98599 62.88572 517.98599 57.1767 524.39624 57.1767 524.39624 56.25859 517.98599 56.25859 517.98599 50.63516 524.56743 50.63516 524.56743 49.73164 516.89769 49.73164 516.89769 63.79897 524.72011 63.79897 524.72011 62.88572"/><path class="cls-7" d="M540.34121,50.7331v.00246c.01911.00916.03936.01529.05841.02454l-.05841-.027Z"/><path class="cls-7" d="M535.50517,63.9995c1.74208-.01638,3.45239-.46794,4.97549-1.31361v-1.12466c-1.52523.87611-3.24415,1.35993-5.00244,1.40806-1.68153.05857-3.31479-.56809-4.52559-1.73644-1.19132-1.17938-1.83141-2.80565-1.76345-4.48065-.05135-1.66416.58679-3.27566,1.76345-4.45359,1.14407-1.17769,2.72658-1.82634,4.3681-1.79044,1.76356.05082,3.48765.53434,5.02048,1.40801v-1.18062c-1.52808-.73231-3.19577-1.12743-4.89001-1.15858-1.94094-.02426-3.81242.72143-5.20486,2.07385-.02837.03733-.06168.07063-.09901.09897l-.00427.0045h-.00024c-2.81034,2.81406-2.80832,7.37325.00451,10.18481,1.43435,1.38224,3.36691,2.12542,5.35783,2.06039Z"/><polygon class="cls-7" points="547.96564 63.79897 549.06756 63.79897 549.06756 50.63516 554.33991 50.63516 554.33991 49.73164 542.67969 49.73164 542.67969 50.63516 547.96564 50.63516 547.96564 63.79897"/><polygon class="cls-7" points="320.77103 64.78711 320.77103 49.19866 316.49755 49.19866 311.69303 55.04773 306.90212 49.19866 302.64126 49.19866 302.64126 64.78711 307.20751 64.78711 307.20751 55.75285 311.45475 60.98142 311.83211 60.98142 316.06086 55.75285 316.06086 64.78711 320.77103 64.78711"/><path class="cls-7" d="M328.96013,61.63053h6.76591l1.28209,3.15804h4.80901l-6.80631-15.59215h-5.25888l-6.89636,15.59215h4.80907l1.29547-3.15804ZM332.37017,53.27215l2.28535,5.63671h-4.59314l2.30779-5.63671Z"/><rect class="cls-7" x="343.90454" y="49.19951" width="4.69207" height="15.58762"/><polygon class="cls-7" points="357.1969 56.10395 365.28583 64.78711 369.46011 64.78711 369.46011 49.19866 364.77716 49.19866 364.77716 57.83611 356.71548 49.19866 352.54508 49.19866 352.54508 64.78711 357.1969 64.78711 357.1969 56.10395"/><polygon class="cls-7" points="378.07519 58.47217 384.54379 58.47217 384.54379 55.34534 378.07519 55.34534 378.07519 52.32647 384.54379 52.32647 384.54379 49.19575 373.37861 49.19575 373.37861 64.78711 378.07519 64.78711 378.07519 58.47217"/><path class="cls-7" d="M394.2596,58.85307c.42535.19989.789.51069,1.05268.89972.48136.69471.88843,1.43803,1.21459,2.21773l1.22361,2.81612h5.04743l-1.53401-3.4099c-.36887-.85281-.83213-1.6616-1.3811-2.41126-.34438-.42304-.76564-.77714-1.2416-1.04366.39529-.21125.77692-.44715,1.14262-.7063.39888-.32275.72537-.72585.95821-1.18307.32301-.61626.47816-1.30666.44987-2.00187-.01422-.74508-.19726-1.47722-.53538-2.14131-.40648-.78972-1.02692-1.44916-1.79043-1.90295-.95907-.56293-2.06052-.83634-3.1715-.78724h-7.99398v15.54717h4.71005v-6.09108h.52185c.45058-.01287.89986.05413,1.32708.1979ZM392.41064,52.18618h.98522c.79108-.05507,1.58296.09526,2.29883.43638.50335.32138.782.89952.71979,1.49348v.04504c.04915.54796-.19135,1.08183-.63436,1.40806-.7489.30759-1.55862.43844-2.36629.38238h-1.00321l.00003-3.76533Z"/><path class="cls-7" d="M409.19944,61.63053h6.76585l1.26858,3.15804h4.80901l-6.86935-15.59215h-5.20035l-6.89179,15.59215h4.82251l1.29553-3.15804ZM412.59589,53.27215l2.28529,5.63671h-4.58403l2.29874-5.63671Z"/><polygon class="cls-7" points="428.67829 55.75285 432.93915 60.98142 433.30289 60.98142 437.55013 55.75285 437.55013 64.78711 442.24181 64.78711 442.24181 49.19866 437.98584 49.19866 433.1638 55.04773 428.38653 49.19866 424.11204 49.19866 424.11204 64.78711 428.67829 64.78711 428.67829 55.75285"/><polygon class="cls-7" points="457.93141 61.64277 450.88217 61.64277 450.88217 58.31753 457.42373 58.31753 457.42373 55.1732 450.88217 55.1732 450.88217 52.32549 457.73398 52.32549 457.73398 49.19866 446.17687 49.19866 446.17687 64.78711 457.93141 64.78711 457.93141 61.64277"/><path class="cls-7" d="M250.18796,63.53027l.19794-.19343c.00966-.01413.02186-.02633.03599-.03599,3.03946-3.16911,2.93473-8.20206-.23393-11.242-1.56684-1.5536-3.70092-2.39879-5.90663-2.33926v.04049c-2.1957-.04797-4.31708.79603-5.87971,2.33927l-.15291.15746c-3.06858,3.15621-3.00013,8.20164.15291,11.27346,3.31033,3.11754,8.47601,3.11754,11.78633,0ZM239.30586,52.87765c2.77536-2.66772,7.16206-2.66772,9.93742,0,2.68562,2.74014,2.68562,7.12526,0,9.8654-2.77478,2.66913-7.16264,2.66913-9.93742,0l-.01797-.01801c-2.71432-2.72088-2.709-7.12697.01187-9.84129h0l.00611-.00609h-.00001Z"/><path class="cls-7" d="M256.71236,58.2903h3.005c1.39594.09437,2.77996-.31062,3.90483-1.14262,1.71064-1.49264,1.88736-4.0894.39474-5.80004-.09731-.11151-.20057-.21769-.30932-.31807-1.09925-.80521-2.44582-1.19995-3.80582-1.11566h-4.3321l-.06751,15.69113h1.21017v-7.31474ZM256.78433,50.93061h3.11751c1.01161-.06259,2.01175.24256,2.81611.85921.0611.04311.11434.09637.15747.15746,1.19205,1.28886,1.11556,3.2995-.17095,4.49409-.87307.60695-1.92596.90031-2.9871.83226h-2.93306v-6.34302Z"/><polygon class="cls-7" points="276.11231 64.61788 268.56806 64.61788 268.56806 58.23389 275.734 58.23389 275.734 57.21755 268.56806 57.21755 268.56806 50.93277 275.92752 50.93277 275.92752 49.91643 267.35817 49.91643 267.35817 65.63421 276.11231 65.63421 276.11231 64.61788"/><polygon class="cls-7" points="279.82171 51.88589 291.75716 65.63421 292.75989 65.63421 292.75989 49.91643 291.54515 49.91643 291.54515 63.6453 279.63695 49.91643 278.60795 49.91643 278.60795 65.63421 279.82171 65.63421 279.82171 51.88589"/><polygon class="cls-7" points="235.98774 96.84514 281.96139 96.84514 234.50846 152.06311 234.50846 166.48348 306.36624 166.48348 306.36624 149.84466 258.9133 149.84466 306.36624 94.62669 306.36624 80.20631 235.98774 80.20631 235.98774 96.84514"/><path class="cls-7" d="M351.97064,99.1871c-20.58353,0-35.86725,15.40673-35.86725,34.38743v.24675c0,18.98144,15.15998,34.1414,35.62049,34.1414,20.58353,0,35.86651-15.40672,35.86651-34.38815v-.24607c.00006-18.98136-15.15995-34.14137-35.61974-34.14137ZM369.10249,133.82129c0,9.73711-6.40918,17.99512-17.13185,17.99512-10.35365,0-17.37932-8.50477-17.37932-18.24187v-.24607c0-9.73711,6.40918-17.99512,17.13256-17.99512,10.35291,0,17.37861,8.50441,17.37861,18.24116v.24678Z"/><polygon class="cls-7" points="463.51497 140.60034 450.94346 100.17329 434.79674 100.17329 422.34877 140.47682 411.74865 100.41935 392.7669 100.41935 413.10444 166.97658 429.86676 166.97658 442.80785 126.42602 455.50288 166.97658 472.38874 166.97658 492.9733 100.41935 474.36114 100.41935 463.51497 140.60034"/><path class="cls-7" d="M562.98209,135.05366c0-18.73432-10.10685-35.86653-32.16949-35.86653-19.22748,0-32.66231,15.52975-32.66231,34.38744v.24675c0,20.21377,14.66717,34.1414,34.51117,34.1414,11.95572,0,20.82958-4.68404,26.99271-12.32553l-10.72344-9.49039c-5.17684,4.80705-9.73709,6.77893-16.02256,6.77893-8.38176,0-14.29812-4.43727-16.14627-12.94207h45.97342c.12306-1.72508.24676-3.45091.24676-4.93ZM516.51516,128.27508c1.47911-8.50477,6.53221-14.051,14.29738-14.051,7.88823,0,12.8183,5.66962,13.92764,14.051h-28.22502Z"/><path class="cls-7" d="M151.97212,40.42215l-88.41227,60.97289,60.97289,88.41227,88.41227-60.97291-60.97289-88.41225ZM127.64498,150.30874l6.16601-57.85685-30.2454,20.85856-7.54895-10.94619,46.30042-31.93081,6.54251,9.48675-6.16551,57.85657,31.21821-21.52944,7.54933,10.94669-47.27377,32.60199-6.54286-9.48727Z"/><path class="cls-7" d="M148.43842,216.72758c-3.12098,0-5.57426,1.10649-7.3608,3.31758-1.78749,2.21109-2.68123,5.26273-2.68123,9.15494,0,4.07456.85955,7.1566,2.57865,9.24706,1.7191,2.08952,4.20658,3.13523,7.46338,3.13523,1.40852,0,2.77146-.14057,4.08881-.42075,1.3183-.28019,2.68883-.6392,4.11255-1.07895v4.65772c-2.60525.98397-5.55907,1.47596-8.8605,1.47596-4.86193,0-8.59552-1.47216-11.19981-4.41838-2.60525-2.94527-3.90835-7.15945-3.90835-12.64253,0-3.4534.63255-6.4756,1.89766-9.06471,1.26416-2.59005,3.09249-4.57414,5.48593-5.95228s5.2029-2.06767,8.4293-2.06767c3.39167,0,6.52689.71234,9.40473,2.13511l-1.9537,4.52096c-1.12074-.52998-2.30607-.99537-3.55503-1.39713-1.24991-.40081-2.56346-.60216-3.94159-.60216Z"/><path class="cls-7" d="M197.93719,229.10987c0,5.4071-1.35154,9.60988-4.05461,12.60834-2.70403,2.99941-6.53164,4.49816-11.48475,4.49816-5.01294,0-8.8643-1.48736-11.55218-4.46397-2.68883-2.97566-4.03277-7.20504-4.03277-12.68812s1.35249-9.69346,4.05556-12.63208c2.70308-2.93767,6.56203-4.40698,11.57498-4.40698,4.93791,0,8.75413,1.49211,11.45056,4.47537,2.69548,2.98421,4.04322,7.18699,4.04322,12.60929ZM172.58375,229.10987c0,4.08881.82536,7.18984,2.47608,9.3031,1.65072,2.11231,4.09735,3.16942,7.33801,3.16942,3.22641,0,5.66069-1.04571,7.30476-3.13523,1.64312-2.09047,2.46468-5.2029,2.46468-9.33729,0-4.07456-.81491-7.1642-2.44284-9.26986-1.62792-2.10471-4.05461-3.15707-7.28102-3.15707-3.2568,0-5.71388,1.05236-7.3722,3.15707-1.65832,2.10566-2.48748,5.1953-2.48748,9.26986Z"/><path class="cls-7" d="M237.39488,245.76237h-6.65701l-16.33433-26.46754h-.18141l.11302,1.47691c.2118,2.81705.31818,5.39191.31818,7.72457v17.26606h-4.92936v-33.21478h6.58768l16.28969,26.33077h.13582c-.03039-.34762-.09023-1.61653-.18141-3.80482-.09118-2.18829-.13677-3.89695-.13677-5.12312v-17.40283h4.9759v33.21478Z"/><path class="cls-7" d="M256.20149,245.76237h-5.38431v-33.21478h18.74202v4.58934h-13.35772v10.38205h12.51716v4.61214h-12.51716v13.63125Z"/><path class="cls-7" d="M309.72163,229.10987c0,5.4071-1.35154,9.60988-4.05461,12.60834-2.70403,2.99941-6.53164,4.49816-11.48475,4.49816-5.01294,0-8.8643-1.48736-11.55218-4.46397-2.68883-2.97566-4.03277-7.20504-4.03277-12.68812s1.35249-9.69346,4.05556-12.63208c2.70308-2.93767,6.56203-4.40698,11.57498-4.40698,4.93791,0,8.75413,1.49211,11.45056,4.47537,2.69548,2.98421,4.04322,7.18699,4.04322,12.60929ZM284.36819,229.10987c0,4.08881.82536,7.18984,2.47608,9.3031,1.65072,2.11231,4.09735,3.16942,7.33801,3.16942,3.22641,0,5.66069-1.04571,7.30476-3.13523,1.64312-2.09047,2.46468-5.2029,2.46468-9.33729,0-4.07456-.81491-7.1642-2.44284-9.26986-1.62792-2.10471-4.05461-3.15707-7.28102-3.15707-3.2568,0-5.71388,1.05236-7.3722,3.15707-1.65832,2.10566-2.48748,5.1953-2.48748,9.26986Z"/><path class="cls-7" d="M326.93736,232.49489v13.26749h-5.42895v-33.21478h9.38193c4.28636,0,7.45958.80351,9.51965,2.40864,2.05912,1.60513,3.08964,4.02897,3.08964,7.26962,0,4.1344-2.15125,7.08062-6.45186,8.83771l9.38288,14.69881h-6.18022l-7.95156-13.26749h-5.36151ZM326.93736,227.99672h3.77158c2.52927,0,4.36234-.46919,5.49828-1.40852s1.70391-2.33266,1.70391-4.18093c0-1.87772-.61356-3.22546-1.84067-4.04322s-3.07444-1.22712-5.54292-1.22712h-3.59017v10.85979Z"/><path class="cls-7" d="M370.2578,245.76237l-9.63268-27.7393h-.18236c.25739,4.12015.38656,7.98196.38656,11.58637v16.15292h-4.92936v-33.21478h7.65618l9.22332,26.42195h.13582l9.49686-26.42195h7.67898v33.21478h-5.22569v-16.42551c0-1.65072.04179-3.80102.12537-6.45186.08263-2.65084.15481-4.25597.2156-4.81634h-.18141l-9.97365,27.69371h-4.79354Z"/><path class="cls-7" d="M424.09612,245.76237l-3.31663-9.22332h-12.70047l-3.24825,9.22332h-5.72528l12.42693-33.3506h5.90669l12.42693,33.3506h-5.76992ZM419.34817,231.85853l-3.11243-9.04191c-.22795-.60596-.54232-1.55954-.94313-2.86264-.40176-1.30215-.67814-2.25668-.82916-2.86264-.40936,1.86347-1.00772,3.90075-1.79509,6.11184l-2.99846,8.65535h9.67827Z"/><path class="cls-7" d="M466.57601,245.76237h-6.65701l-16.33433-26.46754h-.18141l.11302,1.47691c.2118,2.81705.31818,5.39191.31818,7.72457v17.26606h-4.92936v-33.21478h6.58768l16.28969,26.33077h.13582c-.03039-.34762-.09023-1.61653-.18141-3.80482-.09118-2.18829-.13677-3.89695-.13677-5.12312v-17.40283h4.9759v33.21478Z"/><path class="cls-7" d="M491.47072,245.76237h-5.4299v-28.55706h-9.76849v-4.65772h24.96783v4.65772h-9.76944v28.55706Z"/><path class="cls-3" d="M350.68728,289.36281h-2.87305v5.19092h2.87305c.86328,0,1.5127-.22705,1.94824-.68115.43555-.45459.65332-1.08838.65332-1.90137s-.21973-1.45117-.66016-1.91406c-.43945-.46289-1.08691-.69434-1.94141-.69434Z"/><path class="cls-3" d="M211.12966,289.37599h-3.02832v5.43652h2.97656c.88086,0,1.55176-.22021,2.0127-.66016.46191-.44043.69336-1.06152.69336-1.86426,0-.87988-.23828-1.5835-.71289-2.10986s-1.12109-.79395-1.94141-.80225Z"/><path class="cls-3" d="M236.47927,289.16847c-2.27832,0-3.48242,1.70898-3.61133,5.12598l-.0127,1.38525c0,1.84668.30566,3.2666.91895,4.25879.6123.99219,1.52246,1.48828,2.73145,1.48828,1.14746,0,2.03223-.4873,2.65332-1.4624s.93652-2.37744.94434-4.20703v-.86719c0-1.87256-.3125-3.29443-.93848-4.26514-.625-.9707-1.52051-1.45654-2.68555-1.45654Z"/><path class="cls-3" d="M325.63454,289.37599h-3.02832v5.43652h2.97656c.88086,0,1.55176-.22021,2.0127-.66016.46191-.44043.69336-1.06152.69336-1.86426,0-.87988-.23828-1.5835-.71289-2.10986s-1.12109-.79395-1.94141-.80225Z"/><path class="cls-3" d="M262.43825,289.36281h-2.87305v5.19092h2.87305c.86328,0,1.5127-.22705,1.94824-.68115.43555-.45459.65332-1.08838.65332-1.90137s-.21973-1.45117-.66016-1.91406c-.43945-.46289-1.08691-.69434-1.94141-.69434Z"/><path class="cls-3" d="M376.2322,289.16847c-2.27832,0-3.48242,1.70898-3.61133,5.12598l-.0127,1.38525c0,1.84668.30566,3.2666.91895,4.25879.6123.99219,1.52246,1.48828,2.73145,1.48828,1.14746,0,2.03223-.4873,2.65332-1.4624s.93652-2.37744.94434-4.20703v-.86719c0-1.87256-.3125-3.29443-.93848-4.26514-.625-.9707-1.52051-1.45654-2.68555-1.45654Z"/><path class="cls-3" d="M185.92165,289.37599h-3.02832v5.43652h2.97656c.88086,0,1.55176-.22021,2.0127-.66016.46191-.44043.69336-1.06152.69336-1.86426,0-.87988-.23828-1.5835-.71289-2.10986s-1.12109-.79395-1.94141-.80225Z"/><path class="cls-7" d="M76.41897,273.80861v42.96545h473.78101v-42.96545H76.41897ZM133.49978,292.25587c.51758.39258,1.42773.79834,2.73145,1.2168,1.30273.41846,2.37305.86963,3.20996,1.35254,2.03613,1.17383,3.05469,2.79199,3.05469,4.85449,0,1.64795-.62109,2.94238-1.86426,3.8833-1.24219.94043-2.94629,1.41064-5.1123,1.41064-1.52734,0-2.91113-.27393-4.14941-.82178s-2.16992-1.29883-2.7959-2.25244c-.625-.95361-.93848-2.05176-.93848-3.29443h4.55664c0,1.00977.26074,1.75391.7832,2.23291s1.37012.71875,2.54395.71875c.75,0,1.34375-.16211,1.7793-.48584.43555-.32324.6543-.77832.6543-1.36523,0-.66455-.23535-1.18213-.70605-1.55371-.4707-.37061-1.29688-.75488-2.47852-1.15186-1.18262-.39697-2.14844-.78076-2.89941-1.15186-2.44238-1.19971-3.66309-2.84814-3.66309-4.94482,0-1.04395.30371-1.96533.91211-2.76367s1.46875-1.41943,2.58203-1.86426c1.11328-.44434,2.36523-.6665,3.75391-.6665,1.35547,0,2.56934.2417,3.64453.7251,1.07422.4834,1.90918,1.17139,2.50391,2.06445.5957.89307.89355,1.91357.89355,3.06152h-4.53027c0-.76807-.23535-1.36377-.70605-1.78662-.46973-.42236-1.10645-.63428-1.90918-.63428-.81055,0-1.45215.1792-1.92188.5376-.4707.35791-.70508.81299-.70508,1.36523,0,.4834.25879.92139.77637,1.31396ZM167.5613,298.20363c0,1.39844-.29785,2.6084-.89258,3.63135-.5957,1.02246-1.4502,1.80127-2.56348,2.33643s-2.42871.80225-3.94824.80225c-2.29492,0-4.10254-.59521-5.42285-1.78613s-1.99414-2.82178-2.01953-4.89307v-12.42676h4.56934v12.51758c.05176,2.0625,1.00977,3.09326,2.87305,3.09326.94043,0,1.65332-.25879,2.13574-.77637.4834-.51807.72559-1.35938.72559-2.52441v-12.31006h4.54297v12.33594ZM191.20974,296.66994c-1.31641,1.1001-3.12207,1.65039-5.41699,1.65039h-2.89941v6.39453h-4.54395v-18.84717h7.52051c1.44141,0,2.71582.26562,3.8252.79639,1.1084.53076,1.96777,1.28564,2.57617,2.26514s.91211,2.09033.91211,3.33301c0,1.83838-.6582,3.30762-1.97363,4.40771ZM216.41775,296.66994c-1.31641,1.1001-3.12207,1.65039-5.41699,1.65039h-2.89941v6.39453h-4.54395v-18.84717h7.52051c1.44141,0,2.71582.26562,3.8252.79639,1.1084.53076,1.96777,1.28564,2.57617,2.26514s.91211,2.09033.91211,3.33301c0,1.83838-.6582,3.30762-1.97363,4.40771ZM244.72439,295.6797c0,1.83789-.34082,3.46484-1.02246,4.87988-.68164,1.41553-1.65039,2.50488-2.90527,3.26855-1.25586.76367-2.68652,1.14551-4.29102,1.14551-1.60547,0-3.0293-.36865-4.27246-1.10645-1.24219-.73779-2.21094-1.79297-2.90527-3.16504-.69531-1.37207-1.05957-2.94678-1.09375-4.72461v-1.06152c0-1.84668.33789-3.47559,1.01562-4.88672.67773-1.41064,1.64844-2.5,2.91211-3.26807,1.26465-.76807,2.7041-1.15234,4.31738-1.15234,1.59668,0,3.02051.37988,4.27148,1.13916s2.22461,1.84033,2.91895,3.24268,1.04688,3.00928,1.05469,4.82178v.86719ZM270.21755,304.71486h-4.86621l-3.32715-6.6665h-2.45898v6.6665h-4.54395v-18.84717h7.41699c2.23535,0,3.98242.49609,5.24219,1.4873,1.26074.99121,1.89062,2.39209,1.89062,4.20215,0,1.31055-.26562,2.39648-.7959,3.25879-.53125.86182-1.3623,1.56055-2.49219,2.09473l3.93457,7.60986v.19434ZM294.41677,289.37599h-5.65723v15.33887h-4.54297v-15.33887h-5.55371v-3.5083h15.75391v3.5083ZM330.92263,296.66994c-1.31641,1.1001-3.12207,1.65039-5.41699,1.65039h-2.89941v6.39453h-4.54395v-18.84717h7.52051c1.44141,0,2.71582.26562,3.8252.79639,1.1084.53076,1.96777,1.28564,2.57617,2.26514s.91211,2.09033.91211,3.33301c0,1.83838-.6582,3.30762-1.97363,4.40771ZM358.46658,304.71486h-4.86621l-3.32715-6.6665h-2.45898v6.6665h-4.54395v-18.84717h7.41699c2.23535,0,3.98242.49609,5.24219,1.4873,1.26074.99121,1.89062,2.39209,1.89062,4.20215,0,1.31055-.26562,2.39648-.7959,3.25879-.53125.86182-1.3623,1.56055-2.49219,2.09473l3.93457,7.60986v.19434ZM384.47732,295.6797c0,1.83789-.34082,3.46484-1.02246,4.87988-.68164,1.41553-1.65039,2.50488-2.90527,3.26855-1.25586.76367-2.68652,1.14551-4.29102,1.14551-1.60547,0-3.0293-.36865-4.27246-1.10645-1.24219-.73779-2.21094-1.79297-2.90527-3.16504-.69531-1.37207-1.05957-2.94678-1.09375-4.72461v-1.06152c0-1.84668.33789-3.47559,1.01562-4.88672.67773-1.41064,1.64844-2.5,2.91211-3.26807,1.26465-.76807,2.7041-1.15234,4.31738-1.15234,1.59668,0,3.02051.37988,4.27148,1.13916s2.22461,1.84033,2.91895,3.24268,1.04688,3.00928,1.05469,4.82178v.86719ZM404.28786,304.71486h-4.9707l-6.29102-18.84717h5.03516l3.74121,13.72119,3.75391-13.72119h5.07422l-6.34277,18.84717ZM424.79665,304.71486h-4.53027v-18.84717h4.53027v18.84717ZM450.71658,295.6924c0,1.72607-.36523,3.27295-1.09375,4.64062-.72949,1.36816-1.75684,2.43799-3.08105,3.21045-1.3252.77246-2.80273,1.16309-4.43359,1.17139h-6.2002v-18.84717h6.07129c1.66504,0,3.16211.37793,4.49121,1.13281,1.3291.75537,2.36719,1.8208,3.11328,3.19727s1.12402,2.91895,1.13281,4.62744v.86719ZM474.00857,289.37599h-8.46484v3.97363h7.14453v3.36572h-7.14453v4.50439h8.43945v3.49512h-12.9834v-18.84717h13.00879v3.5083ZM498.98318,304.71486h-4.86621l-3.32715-6.6665h-2.45898v6.6665h-4.54395v-18.84717h7.41699c2.23535,0,3.98242.49609,5.24219,1.4873,1.26074.99121,1.89062,2.39209,1.89062,4.20215,0,1.31055-.26562,2.39648-.7959,3.25879-.53125.86182-1.3623,1.56055-2.49219,2.09473l3.93457,7.60986v.19434Z"/><path class="cls-3" d="M441.97927,289.37599h-1.52734v11.84375h1.5791c1.30273,0,2.30371-.46387,3.00293-1.3916.69922-.92725,1.04785-2.30566,1.04785-4.13574v-.81543c0-1.82031-.34863-3.19287-1.04785-4.11621s-1.71777-1.38477-3.05469-1.38477Z"/><path class="cls-3" d="M491.20388,289.36281h-2.87305v5.19092h2.87305c.86328,0,1.5127-.22705,1.94824-.68115.43555-.45459.65332-1.08838.65332-1.90137s-.21973-1.45117-.66016-1.91406c-.43945-.46289-1.08691-.69434-1.94141-.69434Z"/></g></svg>