<?xml version="1.0" encoding="UTF-8" standalone="no"?>
<!-- Created with Inkscape (http://www.inkscape.org/) -->

<svg
   version="1.1"
   id="svg325"
   width="378"
   height="378"
   viewBox="0 0 378 378"
   sodipodi:docname="zowe-5-year-sticker-color.svg"
   inkscape:version="1.3 (0e150ed, 2023-07-21)"
   inkscape:export-filename="zowe-5-year-sticker-color.png"
   inkscape:export-xdpi="1200"
   inkscape:export-ydpi="1200"
   xmlns:inkscape="http://www.inkscape.org/namespaces/inkscape"
   xmlns:sodipodi="http://sodipodi.sourceforge.net/DTD/sodipodi-0.dtd"
   xmlns="http://www.w3.org/2000/svg"
   xmlns:svg="http://www.w3.org/2000/svg">
  <defs
     id="defs329">
    <clipPath
       clipPathUnits="userSpaceOnUse"
       id="clipPath341">
      <path
         d="M 0,0 H 1183.3333 V 1214.6384 H 0 Z"
         clip-rule="evenodd"
         id="path339" />
    </clipPath>
    <clipPath
       clipPathUnits="userSpaceOnUse"
       id="clipPath353">
      <path
         d="M 0,0 H 1183.3333 V 1183.3333 H 0 Z"
         clip-rule="evenodd"
         id="path351" />
    </clipPath>
    <clipPath
       clipPathUnits="userSpaceOnUse"
       id="clipPath365">
      <path
         d="M 0,0 H 1183.3333 V 1183.3333 H 0 Z"
         clip-rule="evenodd"
         id="path363" />
    </clipPath>
    <clipPath
       clipPathUnits="userSpaceOnUse"
       id="clipPath377">
      <path
         d="M 118.31854,118.31854 H 1063.7329 V 1063.7329 H 118.31854 Z"
         clip-rule="evenodd"
         id="path375" />
    </clipPath>
    <clipPath
       clipPathUnits="userSpaceOnUse"
       id="clipPath389">
      <path
         d="M 142.07526,142.07526 H 1040.532 V 1040.532 H 142.07526 Z"
         clip-rule="evenodd"
         id="path387" />
    </clipPath>
    <clipPath
       clipPathUnits="userSpaceOnUse"
       id="clipPath401">
      <path
         d="M 0,0 H 1183.3333 V 1214.6384 H 0 Z"
         id="path399" />
    </clipPath>
    <clipPath
       clipPathUnits="userSpaceOnUse"
       id="clipPath407">
      <path
         d="M 0,0 H 1183.3333 V 1183.3333 H 0 Z"
         id="path405" />
    </clipPath>
    <clipPath
       clipPathUnits="userSpaceOnUse"
       id="clipPath413">
      <path
         d="M 0,0 H 1183.3333 V 1183.3333 H 0 Z"
         id="path411" />
    </clipPath>
    <clipPath
       clipPathUnits="userSpaceOnUse"
       id="clipPath419">
      <path
         d="m 927.55029,608.87006 h 27.00507 v 27.00507 h -27.00507 z"
         id="path417" />
    </clipPath>
    <clipPath
       clipPathUnits="userSpaceOnUse"
       id="clipPath425">
      <path
         d="m 941.05286,608.87006 c -7.45728,0 -13.50257,6.04528 -13.50257,13.5025 0,7.45727 6.04529,13.50256 13.50257,13.50256 7.45721,0 13.5025,-6.04529 13.5025,-13.50256 0,-7.45722 -6.04529,-13.5025 -13.5025,-13.5025"
         id="path423" />
    </clipPath>
    <clipPath
       clipPathUnits="userSpaceOnUse"
       id="clipPath437">
      <path
         d="M 0,0 H 1183.3333 V 1214.6384 H 0 Z"
         id="path435" />
    </clipPath>
    <clipPath
       clipPathUnits="userSpaceOnUse"
       id="clipPath443">
      <path
         d="M 0,0 H 1183.3333 V 1183.3333 H 0 Z"
         id="path441" />
    </clipPath>
    <clipPath
       clipPathUnits="userSpaceOnUse"
       id="clipPath449">
      <path
         d="M 0,0 H 1183.3333 V 1183.3333 H 0 Z"
         id="path447" />
    </clipPath>
    <clipPath
       clipPathUnits="userSpaceOnUse"
       id="clipPath455">
      <path
         d="m 212.05334,609.65912 h 28.23839 v 28.2384 h -28.23839 z"
         id="path453" />
    </clipPath>
    <clipPath
       clipPathUnits="userSpaceOnUse"
       id="clipPath461">
      <path
         d="m 226.17253,609.65912 c -7.7978,0 -14.11919,6.32135 -14.11919,14.1192 0,7.79779 6.32139,14.1192 14.11919,14.1192 7.79782,0 14.1192,-6.32141 14.1192,-14.1192 0,-7.79785 -6.32138,-14.1192 -14.1192,-14.1192"
         id="path459" />
    </clipPath>
    <clipPath
       clipPathUnits="userSpaceOnUse"
       id="clipPath473">
      <path
         d="m 236.87257,434.8454 h 701.2345 v 313.05109 h -701.2345 z"
         clip-rule="evenodd"
         id="path471" />
    </clipPath>
    <clipPath
       clipPathUnits="userSpaceOnUse"
       id="clipPath543">
      <path
         d="M 0,0 H 1183.3333 V 1183.3333 H 0 Z"
         clip-rule="evenodd"
         id="path541" />
    </clipPath>
  </defs>
  <sodipodi:namedview
     id="namedview327"
     pagecolor="#ffffff"
     bordercolor="#666666"
     borderopacity="1.0"
     inkscape:showpageshadow="2"
     inkscape:pageopacity="0.0"
     inkscape:pagecheckerboard="0"
     inkscape:deskcolor="#d1d1d1"
     showgrid="false"
     inkscape:zoom="1.4047619"
     inkscape:cx="202.88136"
     inkscape:cy="202.88136"
     inkscape:window-width="1352"
     inkscape:window-height="769"
     inkscape:window-x="0"
     inkscape:window-y="25"
     inkscape:window-maximized="0"
     inkscape:current-layer="g333">
    <inkscape:page
       x="0"
       y="0"
       id="page331"
       width="378"
       height="378"
       margin="0"
       bleed="0" />
  </sodipodi:namedview>
  <g
     id="g333"
     inkscape:groupmode="layer"
     inkscape:label="Page 1"
     transform="matrix(0.31999998,0,0,0.31999998,0,2.3069333e-5)">
    <circle
       style="opacity:0.921914;fill:#ffffff;stroke:#575656;stroke-width:4.32771"
       id="path1"
       cx="591.7373"
       cy="591.73724"
       r="462.11057" />
    <g
       id="g371">
      <g
         id="g373"
         clip-path="url(#clipPath377)">
        <g
           id="g379"
           transform="matrix(1.1122522,0,0,1.1122522,34.899628,34.899628)">
          <path
             d="m 898.70703,613.32031 c -10.77734,36.6875 -27.23047,71.49219 -47.64844,103.55078 -16.85546,26.08594 -36.02343,50.60547 -57.5625,72.90625 -2.78515,3.04688 -5.89453,5.77344 -8.85156,8.64844 -3.00781,2.82422 -5.92969,5.74219 -9,8.4961 l -9.33594,8.12109 -4.66796,4.0625 -4.84375,3.84766 -9.66797,7.72656 c -3.27735,2.5039 -6.65625,4.87109 -9.97266,7.32422 -6.55859,5.01953 -13.53516,9.43359 -20.36719,14.07812 -0.98437,0.66406 -2.01953,1.35547 -3.09765,2.08203 -1.11328,0.66797 -2.26953,1.36328 -3.47657,2.08985 -2.41015,1.4414 -5.0039,2.99218 -7.76562,4.64062 -5.45703,3.42969 -11.91406,6.65625 -18.88281,10.36328 -1.75391,0.90235 -3.51172,1.89063 -5.36719,2.77735 -1.86328,0.86718 -3.76172,1.75 -5.69922,2.64843 -3.875,1.78907 -7.89062,3.64454 -12.03125,5.5586 -8.49219,3.32031 -17.34766,7.30469 -27.00391,10.39844 -38.1289,13.82421 -85.71093,22.37109 -133.46484,22.57031 -47.75,-0.19922 -95.33594,-8.7461 -133.46094,-22.57031 -9.66015,-3.09375 -18.51172,-7.07813 -27.00781,-10.39844 -4.14062,-1.91406 -8.15234,-3.76953 -12.02734,-5.5586 -1.9375,-0.89843 -3.83985,-1.78125 -5.70313,-2.64453 -1.85156,-0.88672 -3.60937,-1.8789 -5.36328,-2.78125 -6.96875,-3.70312 -13.42969,-6.93359 -18.88281,-10.35937 -2.76172,-1.65235 -5.35547,-3.20313 -7.76563,-4.64453 -1.20312,-0.72266 -2.36328,-1.41797 -3.47656,-2.08985 -1.07812,-0.72265 -2.11328,-1.41797 -3.09766,-2.07812 -25.9414,-17 -50.3125,-36.3125 -72.46484,-58.00391 C 187.38281,770.74219 166.95703,744.59766 148.94531,716.875 128.52344,684.81641 112.07031,650.00781 101.29297,613.32031 90.074219,576.75391 84.886719,538.37891 84.550781,500 c 0.335938,-38.37891 5.523438,-76.75391 16.742189,-113.32031 10.77734,-36.6875 27.23047,-71.49219 47.64844,-103.55078 16.85546,-26.08594 36.02343,-50.60547 57.5625,-72.90625 2.78515,-3.04688 5.89453,-5.77344 8.85156,-8.64844 3.00781,-2.82422 5.92969,-5.74219 9,-8.49609 l 9.33594,-8.1211 4.66797,-4.0664 4.84375,-3.84375 9.66796,-7.72657 c 3.27735,-2.5039 6.65625,-4.87109 9.97266,-7.32422 6.55859,-5.01953 13.53516,-9.43359 20.36719,-14.07812 0.98437,-0.66406 2.01953,-1.35547 3.09765,-2.08203 1.11329,-0.66797 2.26954,-1.36328 3.47657,-2.08985 2.41015,-1.4414 5.0039,-2.99218 7.76562,-4.64062 5.45703,-3.42969 11.91406,-6.65625 18.88281,-10.36328 1.75391,-0.90235 3.51172,-1.89063 5.36719,-2.77735 1.86328,-0.86718 3.76172,-1.75 5.69922,-2.64843 3.875,-1.78907 7.89063,-3.64454 12.03125,-5.5586 8.49219,-3.32031 17.34766,-7.30468 27.00391,-10.39844 C 404.66406,93.535156 452.24609,84.988281 500,84.789063 c 47.75,0.199218 95.33594,8.746093 133.46094,22.570307 9.66015,3.09376 18.51172,7.07813 27.00781,10.39844 4.14063,1.91406 8.15234,3.76953 12.02734,5.5586 1.9375,0.89843 3.83985,1.78125 5.70313,2.64453 1.85156,0.88672 3.60937,1.8789 5.36328,2.78125 6.96875,3.70312 13.42969,6.93359 18.88281,10.35937 2.76172,1.65235 5.35547,3.20313 7.76563,4.64453 1.20312,0.72266 2.36328,1.41797 3.47656,2.08985 1.07813,0.72265 2.11328,1.41797 3.09766,2.07812 25.9414,17 50.3125,36.3125 72.46484,58.00391 23.36719,23.33984 43.79297,49.48437 61.80469,77.20703 20.42187,32.05859 36.875,66.86719 47.65234,103.55469 11.21875,36.5664 16.40625,74.9414 16.73828,113.32031 -0.33203,38.37891 -5.51953,76.75391 -16.73828,113.32031 z m 26.28906,-113.60156 -0.008,-0.0352 C 924.64044,460.49605 919.3709,421.28512 907.95294,383.8984 896.97247,346.39449 880.15606,310.79684 859.19122,278.10152 l -10.07813,-15.14843 c 0,0 -2.91406,-4.07422 -7.28125,-10.1836 -4.20703,-6.23828 -10.64453,-13.92187 -16.79297,-21.82422 -6.625,-7.5039 -12.97656,-15.25 -18.32031,-20.53125 -5.19141,-5.42187 -8.65234,-9.03125 -8.65234,-9.03125 0,0 -0.875,-0.89453 -2.45313,-2.41015 -1.57422,-1.51953 -3.82031,-3.69532 -6.51953,-6.30078 -5.26562,-5.36329 -12.90625,-11.82422 -20.40234,-18.45313 -3.84766,-3.19531 -7.80469,-6.25781 -11.46094,-9.19922 -1.83594,-1.46094 -3.60938,-2.87109 -5.29297,-4.21094 -1.74219,-1.25781 -3.39062,-2.44531 -4.91406,-3.54297 -6.08594,-4.39453 -10.14453,-7.32031 -10.14453,-7.32031 0,0 -0.88282,-0.71875 -2.3125,-1.64453 -1.41797,-0.94531 -3.30469,-2.20703 -5.1875,-3.47265 -3.77735,-2.52735 -7.55469,-5.05469 -7.55469,-5.05469 -1.00781,-0.67969 -2.0625,-1.39453 -3.16406,-2.13672 -1.13672,-0.69141 -2.32032,-1.40625 -3.55078,-2.14844 -2.46485,-1.48437 -5.11719,-3.07422 -7.9375,-4.76953 -5.57813,-3.51562 -12.17969,-6.83594 -19.3086,-10.63281 -1.79297,-0.92969 -3.59375,-1.94141 -5.48828,-2.85156 -1.90625,-0.89063 -3.85156,-1.79688 -5.82812,-2.71875 -3.96485,-1.83594 -8.07422,-3.73829 -12.3125,-5.70313 -8.6875,-3.41406 -17.75,-7.48437 -27.63282,-10.667969 C 597.58203,83.972656 548.85938,75.191406 500,75 c -48.85937,0.191406 -97.58203,8.972656 -136.60547,23.148438 -9.8789,3.179692 -18.94531,7.253902 -27.63281,10.667972 -4.23828,1.96093 -8.34375,3.86328 -12.30859,5.70312 -1.98047,0.92188 -3.92579,1.82813 -5.83204,2.71485 -1.89453,0.91015 -3.69531,1.92187 -5.48828,2.85156 -7.1289,3.79687 -13.73047,7.11719 -19.30859,10.63281 -2.82031,1.69531 -5.46875,3.28906 -7.9375,4.76953 -1.22656,0.74219 -2.41406,1.46094 -3.54688,2.14844 -1.10546,0.74609 -2.16015,1.45703 -3.16796,2.13672 0,0 -3.77344,2.52734 -7.55079,5.05469 -1.88671,1.26562 -3.77343,2.52734 -5.1875,3.47656 -1.42968,0.92187 -2.3125,1.64062 -2.3125,1.64062 0,0 -4.05859,2.92578 -10.14453,7.32031 -1.52343,1.09766 -3.17187,2.28516 -4.91406,3.54297 -1.68359,1.33985 -3.45703,2.75 -5.29297,4.21094 -3.65625,2.94141 -7.61328,6.00391 -11.46094,9.19922 -7.49609,6.62891 -15.13671,13.08984 -20.40234,18.45313 -2.69922,2.60546 -4.94531,4.78125 -6.51953,6.30078 -1.57813,1.51562 -2.45313,2.41015 -2.45313,2.41015 0,0 -3.46093,3.60938 -8.65234,9.03125 -5.34375,5.28125 -11.69531,13.02735 -18.32031,20.53125 -6.14844,7.90235 -12.58985,15.58985 -16.79297,21.82422 -4.3711,6.11328 -7.28516,10.1875 -7.28516,10.1875 l -10.07422,15.14453 C 119.84375,310.79688 103.02734,346.39844 92.046875,383.89844 80.628906,421.28906 75.359375,460.5 75.011719,499.6875 l -0.0078,0.0312 L 75,500 l 0.0039,0.28125 0.0078,0.0352 c 0.347656,39.1875 5.617187,78.39843 17.035156,115.78515 10.980464,37.50391 27.796874,73.10157 48.761714,105.79688 l 10.07813,15.14453 c 0,0 2.91406,4.07812 7.28125,10.1875 4.20703,6.23828 10.64453,13.92187 16.79297,21.82422 6.625,7.5039 12.97656,15.25 18.32031,20.53125 5.19141,5.41797 8.65234,9.03125 8.65234,9.03125 0,0 0.875,0.89453 2.45313,2.41015 1.57422,1.51954 3.82031,3.69532 6.51953,6.30079 5.26563,5.36328 12.90625,11.82421 20.40234,18.45312 3.84766,3.19531 7.80469,6.25781 11.46094,9.19922 1.83594,1.46094 3.60938,2.87109 5.29297,4.21094 1.74219,1.25781 3.39063,2.44531 4.91406,3.54297 6.08594,4.39453 10.14453,7.32031 10.14453,7.32031 0,0 0.88282,0.71875 2.3125,1.64062 1.41797,0.94922 3.30469,2.21094 5.1875,3.47657 3.77735,2.52734 7.55469,5.05468 7.55469,5.05468 1.00781,0.67969 2.0625,1.39453 3.16406,2.13672 1.13672,0.69141 2.32032,1.40625 3.55079,2.14844 2.46484,1.48437 5.11718,3.07422 7.9375,4.76953 5.57812,3.51563 12.17968,6.83594 19.30859,10.63281 1.79297,0.92969 3.59375,1.94141 5.48828,2.85157 1.90625,0.89062 3.85156,1.79687 5.82813,2.71875 3.96484,1.83593 8.07421,3.73828 12.3125,5.70312 8.6875,3.41406 17.75,7.48438 27.63281,10.66797 C 402.41797,916.02734 451.14063,924.80469 500,925 c 48.85938,-0.19531 97.58203,-8.97266 136.60547,-23.14844 9.87891,-3.17968 18.94531,-7.2539 27.63281,-10.66797 4.23828,-1.96093 8.34375,-3.86328 12.3086,-5.70312 1.98046,-0.92188 3.92578,-1.82813 5.83203,-2.71484 1.89453,-0.91016 3.69531,-1.92188 5.48828,-2.85157 7.1289,-3.79687 13.73047,-7.11718 19.30859,-10.63281 2.82031,-1.69531 5.46875,-3.28906 7.9375,-4.76953 1.22656,-0.74219 2.41406,-1.46094 3.54688,-2.14844 1.10547,-0.74609 2.16015,-1.45703 3.16797,-2.13672 0,0 3.77343,-2.52734 7.55078,-5.05468 1.88672,-1.26563 3.77343,-2.52735 5.1875,-3.47657 1.42968,-0.92187 2.3125,-1.64062 2.3125,-1.64062 0,0 4.05859,-2.92578 10.14453,-7.32031 1.52344,-1.09766 3.17187,-2.28516 4.91406,-3.54297 1.68359,-1.33985 3.45703,-2.75 5.29297,-4.21094 3.65625,-2.94141 7.61328,-6.00391 11.46094,-9.19922 7.49609,-6.62891 15.13672,-13.08984 20.40234,-18.45312 2.69922,-2.60547 4.94531,-4.78125 6.51953,-6.30079 1.57813,-1.51562 2.45313,-2.41015 2.45313,-2.41015 0,0 3.46093,-3.61328 8.65234,-9.03125 5.34375,-5.28125 11.69531,-13.02735 18.32031,-20.53125 6.14844,-7.90235 12.58985,-15.58985 16.79297,-21.82422 4.3711,-6.11328 7.28125,-10.1875 7.28125,-10.1875 l 10.07813,-15.14453 c 20.96484,-32.69531 37.78125,-68.29688 48.76172,-105.79688 11.41796,-37.39062 16.6875,-76.60156 17.03515,-115.78906 l 0.008,-0.0312 L 925,500 l -0.004,-0.28125"
             style="fill:#051d40;fill-opacity:1;fill-rule:nonzero;stroke:none"
             id="path381" />
        </g>
      </g>
    </g>
    <g
       id="g383">
      <g
         id="g385"
         clip-path="url(#clipPath389)">
        <g
           id="g391"
           transform="matrix(1.0570079,0,0,1.0570079,62.79966,62.79966)">
          <path
             d="m 898.70703,613.32031 c -10.77734,36.6875 -27.23047,71.49219 -47.64844,103.55078 -16.85546,26.08594 -36.02343,50.60547 -57.5625,72.90625 -2.78515,3.04688 -5.89453,5.77344 -8.85156,8.64844 -3.00781,2.82422 -5.92969,5.74219 -9,8.4961 l -9.33594,8.12109 -4.66796,4.0625 -4.84375,3.84766 -9.66797,7.72656 c -3.27735,2.5039 -6.65625,4.87109 -9.97266,7.32422 -6.55859,5.01953 -13.53516,9.43359 -20.36719,14.07812 -0.98437,0.66406 -2.01953,1.35547 -3.09765,2.08203 -1.11328,0.66797 -2.26953,1.36328 -3.47657,2.08985 -2.41015,1.4414 -5.0039,2.99218 -7.76562,4.64062 -5.45703,3.42969 -11.91406,6.65625 -18.88281,10.36328 -1.75391,0.90235 -3.51172,1.89063 -5.36719,2.77735 -1.86328,0.86718 -3.76172,1.75 -5.69922,2.64843 -3.875,1.78907 -7.89062,3.64454 -12.03125,5.5586 -8.49219,3.32031 -17.34766,7.30469 -27.00391,10.39844 -38.1289,13.82421 -85.71093,22.37109 -133.46484,22.57031 -47.75,-0.19922 -95.33594,-8.7461 -133.46094,-22.57031 -9.66015,-3.09375 -18.51172,-7.07813 -27.00781,-10.39844 -4.14062,-1.91406 -8.15234,-3.76953 -12.02734,-5.5586 -1.9375,-0.89843 -3.83985,-1.78125 -5.70313,-2.64453 -1.85156,-0.88672 -3.60937,-1.8789 -5.36328,-2.78125 -6.96875,-3.70312 -13.42969,-6.93359 -18.88281,-10.35937 -2.76172,-1.65235 -5.35547,-3.20313 -7.76563,-4.64453 -1.20312,-0.72266 -2.36328,-1.41797 -3.47656,-2.08985 -1.07812,-0.72265 -2.11328,-1.41797 -3.09766,-2.07812 -25.9414,-17 -50.3125,-36.3125 -72.46484,-58.00391 C 187.38281,770.74219 166.95703,744.59766 148.94531,716.875 128.52344,684.81641 112.07031,650.00781 101.29297,613.32031 90.074219,576.75391 84.886719,538.37891 84.550781,500 c 0.335938,-38.37891 5.523438,-76.75391 16.742189,-113.32031 10.77734,-36.6875 27.23047,-71.49219 47.64844,-103.55078 16.85546,-26.08594 36.02343,-50.60547 57.5625,-72.90625 2.78515,-3.04688 5.89453,-5.77344 8.85156,-8.64844 3.00781,-2.82422 5.92969,-5.74219 9,-8.49609 l 9.33594,-8.1211 4.66797,-4.0664 4.84375,-3.84375 9.66796,-7.72657 c 3.27735,-2.5039 6.65625,-4.87109 9.97266,-7.32422 6.55859,-5.01953 13.53516,-9.43359 20.36719,-14.07812 0.98437,-0.66406 2.01953,-1.35547 3.09765,-2.08203 1.11329,-0.66797 2.26954,-1.36328 3.47657,-2.08985 2.41015,-1.4414 5.0039,-2.99218 7.76562,-4.64062 5.45703,-3.42969 11.91406,-6.65625 18.88281,-10.36328 1.75391,-0.90235 3.51172,-1.89063 5.36719,-2.77735 1.86328,-0.86718 3.76172,-1.75 5.69922,-2.64843 3.875,-1.78907 7.89063,-3.64454 12.03125,-5.5586 8.49219,-3.32031 17.34766,-7.30468 27.00391,-10.39844 C 404.66406,93.535156 452.24609,84.988281 500,84.789063 c 47.75,0.199218 95.33594,8.746093 133.46094,22.570307 9.66015,3.09376 18.51172,7.07813 27.00781,10.39844 4.14063,1.91406 8.15234,3.76953 12.02734,5.5586 1.9375,0.89843 3.83985,1.78125 5.70313,2.64453 1.85156,0.88672 3.60937,1.8789 5.36328,2.78125 6.96875,3.70312 13.42969,6.93359 18.88281,10.35937 2.76172,1.65235 5.35547,3.20313 7.76563,4.64453 1.20312,0.72266 2.36328,1.41797 3.47656,2.08985 1.07813,0.72265 2.11328,1.41797 3.09766,2.07812 25.9414,17 50.3125,36.3125 72.46484,58.00391 23.36719,23.33984 43.79297,49.48437 61.80469,77.20703 20.42187,32.05859 36.875,66.86719 47.65234,103.55469 11.21875,36.5664 16.40625,74.9414 16.73828,113.32031 -0.33203,38.37891 -5.51953,76.75391 -16.73828,113.32031 z m 26.28906,-113.60156 -0.008,-0.0352 C 924.64044,460.49605 919.3709,421.28512 907.95294,383.8984 896.97247,346.39449 880.15606,310.79684 859.19122,278.10152 l -10.07813,-15.14843 c 0,0 -2.91406,-4.07422 -7.28125,-10.1836 -4.20703,-6.23828 -10.64453,-13.92187 -16.79297,-21.82422 -6.625,-7.5039 -12.97656,-15.25 -18.32031,-20.53125 -5.19141,-5.42187 -8.65234,-9.03125 -8.65234,-9.03125 0,0 -0.875,-0.89453 -2.45313,-2.41015 -1.57422,-1.51953 -3.82031,-3.69532 -6.51953,-6.30078 -5.26562,-5.36329 -12.90625,-11.82422 -20.40234,-18.45313 -3.84766,-3.19531 -7.80469,-6.25781 -11.46094,-9.19922 -1.83594,-1.46094 -3.60938,-2.87109 -5.29297,-4.21094 -1.74219,-1.25781 -3.39062,-2.44531 -4.91406,-3.54297 -6.08594,-4.39453 -10.14453,-7.32031 -10.14453,-7.32031 0,0 -0.88282,-0.71875 -2.3125,-1.64453 -1.41797,-0.94531 -3.30469,-2.20703 -5.1875,-3.47265 -3.77735,-2.52735 -7.55469,-5.05469 -7.55469,-5.05469 -1.00781,-0.67969 -2.0625,-1.39453 -3.16406,-2.13672 -1.13672,-0.69141 -2.32032,-1.40625 -3.55078,-2.14844 -2.46485,-1.48437 -5.11719,-3.07422 -7.9375,-4.76953 -5.57813,-3.51562 -12.17969,-6.83594 -19.3086,-10.63281 -1.79297,-0.92969 -3.59375,-1.94141 -5.48828,-2.85156 -1.90625,-0.89063 -3.85156,-1.79688 -5.82812,-2.71875 -3.96485,-1.83594 -8.07422,-3.73829 -12.3125,-5.70313 -8.6875,-3.41406 -17.75,-7.48437 -27.63282,-10.667969 C 597.58203,83.972656 548.85938,75.191406 500,75 c -48.85937,0.191406 -97.58203,8.972656 -136.60547,23.148438 -9.8789,3.179692 -18.94531,7.253902 -27.63281,10.667972 -4.23828,1.96093 -8.34375,3.86328 -12.30859,5.70312 -1.98047,0.92188 -3.92579,1.82813 -5.83204,2.71485 -1.89453,0.91015 -3.69531,1.92187 -5.48828,2.85156 -7.1289,3.79687 -13.73047,7.11719 -19.30859,10.63281 -2.82031,1.69531 -5.46875,3.28906 -7.9375,4.76953 -1.22656,0.74219 -2.41406,1.46094 -3.54688,2.14844 -1.10546,0.74609 -2.16015,1.45703 -3.16796,2.13672 0,0 -3.77344,2.52734 -7.55079,5.05469 -1.88671,1.26562 -3.77343,2.52734 -5.1875,3.47656 -1.42968,0.92187 -2.3125,1.64062 -2.3125,1.64062 0,0 -4.05859,2.92578 -10.14453,7.32031 -1.52343,1.09766 -3.17187,2.28516 -4.91406,3.54297 -1.68359,1.33985 -3.45703,2.75 -5.29297,4.21094 -3.65625,2.94141 -7.61328,6.00391 -11.46094,9.19922 -7.49609,6.62891 -15.13671,13.08984 -20.40234,18.45313 -2.69922,2.60546 -4.94531,4.78125 -6.51953,6.30078 -1.57813,1.51562 -2.45313,2.41015 -2.45313,2.41015 0,0 -3.46093,3.60938 -8.65234,9.03125 -5.34375,5.28125 -11.69531,13.02735 -18.32031,20.53125 -6.14844,7.90235 -12.58985,15.58985 -16.79297,21.82422 -4.3711,6.11328 -7.28516,10.1875 -7.28516,10.1875 l -10.07422,15.14453 C 119.84375,310.79688 103.02734,346.39844 92.046875,383.89844 80.628906,421.28906 75.359375,460.5 75.011719,499.6875 l -0.0078,0.0312 L 75,500 l 0.0039,0.28125 0.0078,0.0352 c 0.347656,39.1875 5.617187,78.39843 17.035156,115.78515 10.980464,37.50391 27.796874,73.10157 48.761714,105.79688 l 10.07813,15.14453 c 0,0 2.91406,4.07812 7.28125,10.1875 4.20703,6.23828 10.64453,13.92187 16.79297,21.82422 6.625,7.5039 12.97656,15.25 18.32031,20.53125 5.19141,5.41797 8.65234,9.03125 8.65234,9.03125 0,0 0.875,0.89453 2.45313,2.41015 1.57422,1.51954 3.82031,3.69532 6.51953,6.30079 5.26563,5.36328 12.90625,11.82421 20.40234,18.45312 3.84766,3.19531 7.80469,6.25781 11.46094,9.19922 1.83594,1.46094 3.60938,2.87109 5.29297,4.21094 1.74219,1.25781 3.39063,2.44531 4.91406,3.54297 6.08594,4.39453 10.14453,7.32031 10.14453,7.32031 0,0 0.88282,0.71875 2.3125,1.64062 1.41797,0.94922 3.30469,2.21094 5.1875,3.47657 3.77735,2.52734 7.55469,5.05468 7.55469,5.05468 1.00781,0.67969 2.0625,1.39453 3.16406,2.13672 1.13672,0.69141 2.32032,1.40625 3.55079,2.14844 2.46484,1.48437 5.11718,3.07422 7.9375,4.76953 5.57812,3.51563 12.17968,6.83594 19.30859,10.63281 1.79297,0.92969 3.59375,1.94141 5.48828,2.85157 1.90625,0.89062 3.85156,1.79687 5.82813,2.71875 3.96484,1.83593 8.07421,3.73828 12.3125,5.70312 8.6875,3.41406 17.75,7.48438 27.63281,10.66797 C 402.41797,916.02734 451.14063,924.80469 500,925 c 48.85938,-0.19531 97.58203,-8.97266 136.60547,-23.14844 9.87891,-3.17968 18.94531,-7.2539 27.63281,-10.66797 4.23828,-1.96093 8.34375,-3.86328 12.3086,-5.70312 1.98046,-0.92188 3.92578,-1.82813 5.83203,-2.71484 1.89453,-0.91016 3.69531,-1.92188 5.48828,-2.85157 7.1289,-3.79687 13.73047,-7.11718 19.30859,-10.63281 2.82031,-1.69531 5.46875,-3.28906 7.9375,-4.76953 1.22656,-0.74219 2.41406,-1.46094 3.54688,-2.14844 1.10547,-0.74609 2.16015,-1.45703 3.16797,-2.13672 0,0 3.77343,-2.52734 7.55078,-5.05468 1.88672,-1.26563 3.77343,-2.52735 5.1875,-3.47657 1.42968,-0.92187 2.3125,-1.64062 2.3125,-1.64062 0,0 4.05859,-2.92578 10.14453,-7.32031 1.52344,-1.09766 3.17187,-2.28516 4.91406,-3.54297 1.68359,-1.33985 3.45703,-2.75 5.29297,-4.21094 3.65625,-2.94141 7.61328,-6.00391 11.46094,-9.19922 7.49609,-6.62891 15.13672,-13.08984 20.40234,-18.45312 2.69922,-2.60547 4.94531,-4.78125 6.51953,-6.30079 1.57813,-1.51562 2.45313,-2.41015 2.45313,-2.41015 0,0 3.46093,-3.61328 8.65234,-9.03125 5.34375,-5.28125 11.69531,-13.02735 18.32031,-20.53125 6.14844,-7.90235 12.58985,-15.58985 16.79297,-21.82422 4.3711,-6.11328 7.28125,-10.1875 7.28125,-10.1875 l 10.07813,-15.14453 c 20.96484,-32.69531 37.78125,-68.29688 48.76172,-105.79688 11.41796,-37.39062 16.6875,-76.60156 17.03515,-115.78906 l 0.008,-0.0312 L 925,500 l -0.004,-0.28125"
             style="fill:#549eff;fill-opacity:1;fill-rule:nonzero;stroke:none"
             id="path393" />
        </g>
      </g>
    </g>
    <g
       id="g395">
      <g
         id="g397"
         clip-path="url(#clipPath401)">
        <g
           id="g403"
           clip-path="url(#clipPath407)">
          <g
             id="g409"
             clip-path="url(#clipPath413)">
            <g
               id="g415"
               clip-path="url(#clipPath419)">
              <g
                 id="g421"
                 clip-path="url(#clipPath425)">
                <g
                   id="g427"
                   transform="matrix(0.05401013,0,0,0.05401013,927.55029,608.87006)">
                  <path
                     d="M 0,0 H 500 V 500 H 0 Z"
                     style="fill:#051d40;fill-opacity:1;fill-rule:nonzero;stroke:none"
                     id="path429" />
                </g>
              </g>
            </g>
          </g>
        </g>
      </g>
    </g>
    <g
       id="g431">
      <g
         id="g433"
         clip-path="url(#clipPath437)">
        <g
           id="g439"
           clip-path="url(#clipPath443)">
          <g
             id="g445"
             clip-path="url(#clipPath449)">
            <g
               id="g451"
               clip-path="url(#clipPath455)">
              <g
                 id="g457"
                 clip-path="url(#clipPath461)">
                <g
                   id="g463"
                   transform="matrix(0.05647676,0,0,0.05647676,212.05334,609.65912)">
                  <path
                     d="M 0,0 H 500 V 500 H 0 Z"
                     style="fill:#051d40;fill-opacity:1;fill-rule:nonzero;stroke:none"
                     id="path465" />
                </g>
              </g>
            </g>
          </g>
        </g>
      </g>
    </g>
    <g
       id="g467">
      <g
         id="g469"
         clip-path="url(#clipPath473)">
        <g
           id="g475"
           transform="matrix(0.8853972,0,0,0.88427716,236.87257,434.9158)">
          <path
             d="M 177.436,81.429001 252.08501,184.75301 127.906,274.87201 51,154.716 Z"
             style="fill:#ffffff;fill-opacity:1;fill-rule:nonzero;stroke:none"
             id="path477" />
          <path
             d="M 168.19701,136.32001 181.95599,55.782001 29.202,156.633 81.719002,155.81 153.203,105.713 Z"
             style="fill:#0033a1;fill-opacity:1;fill-rule:nonzero;stroke:none"
             id="path479" />
          <path
             d="M 271.51001,191.418 164.52901,154.71201 181.95399,55.777 Z"
             style="fill:#2a7de1;fill-opacity:1;fill-rule:nonzero;stroke:none"
             id="path481" />
          <path
             d="m 131.22301,229.511 8.45199,12.17999 76.73,-54.50698 -12.985,-19.127 -44.26801,30.85299 5.375,-44.194 106.98101,36.7 -145.721,102.786"
             style="fill:#0033a1;fill-opacity:1;fill-rule:nonzero;stroke:none"
             id="path483" />
          <path
             d="M 29.200001,156.634 81.723,155.811 94.074997,176.677 143.27499,143.23801 125.788,293.01199 Z"
             style="fill:#2a7de1;fill-opacity:1;fill-rule:nonzero;stroke:none"
             id="path485" />
          <path
             d="m 616.43188,91.219803 h 5.29468 c 1.71472,-0.12146 3.25849,0.335121 4.63135,1.369751 1.1615,0.967735 1.70203,2.206444 1.62158,3.71611 0.0677,1.513802 -0.47284,2.764801 -1.62158,3.752996 -1.42554,1.05509 -3.02258,1.51575 -4.79108,1.382 h -3.65466 v 8.99234 h -1.48035 z m 1.48035,1.234588 v 7.696369 h 3.5625 c 1.34119,0.10076 2.55945,-0.239116 3.65473,-1.019626 0.78863,-0.711868 1.21014,-1.598328 1.26446,-2.659378 0.0544,-1.061058 -0.27441,-1.985931 -0.98627,-2.77462 l -0.002,-0.002 c -0.0159,-0.01502 -0.0303,-0.0314 -0.043,-0.04916 l -0.19043,-0.208817 c -1.04266,-0.773185 -2.21179,-1.119186 -3.50732,-1.038002 l -3.75281,0.05523 z"
             style="fill:#2a7de1;fill-opacity:1;fill-rule:nonzero;stroke:none"
             id="path487" />
          <path
             d="m 633.06287,91.219803 h 4.90771 c 1.7403,-0.116417 3.31891,0.334022 4.73572,1.351318 1.14813,0.933388 1.69275,2.139321 1.63385,3.617813 0.004,1.105629 -0.33563,2.0933 -1.01831,2.963005 -0.68268,0.869711 -1.56146,1.434001 -2.63635,1.692891 1.07501,0.79055 1.92883,1.77332 2.56134,2.94829 l 4.34875,6.63987 h -1.77515 l -3.34759,-5.23325 c -0.67951,-1.2447 -1.54553,-2.34213 -2.59821,-3.29232 -0.84466,-0.49529 -1.75579,-0.71435 -2.73333,-0.65718 h -2.65351 v 9.21962 h -1.48016 l 0.0552,-19.250057 z m 1.48034,1.234588 v 7.524392 h 3.1756 c 1.35242,0.08122 2.59729,-0.246376 3.73456,-0.982788 0.76178,-0.645707 1.18402,-1.466164 1.26678,-2.46138 0.0827,-0.995209 -0.1983,-1.874131 -0.84301,-2.636757 l -0.44226,-0.442238 c -1.13996,-0.749848 -2.391,-1.083588 -3.753,-1.001213 z"
             style="fill:#2a7de1;fill-opacity:1;fill-rule:nonzero;stroke:none"
             id="path489" />
          <path
             d="m 660.37164,90.975319 c 2.80732,-0.05835 5.21302,0.895752 7.21717,2.862297 0.92523,0.879532 1.64703,1.902641 2.16534,3.069328 0.51831,1.16668 0.79364,2.388123 0.82599,3.664326 0.0323,1.27621 -0.18073,2.51004 -0.63928,3.70149 -0.45844,1.19144 -1.12744,2.24981 -2.00696,3.17512 l -10e-4,0.001 c -0.0368,0.0368 -0.0737,0.0737 -0.11047,0.11669 l -0.23346,0.2457 c -0.97443,0.92011 -2.08429,1.62771 -3.32965,2.12277 -1.24537,0.49507 -2.53815,0.74261 -3.87836,0.74261 -1.34015,0 -2.63287,-0.24754 -3.8783,-0.74261 -1.24536,-0.49506 -2.35528,-1.20266 -3.32971,-2.12277 -0.92566,-0.9001 -1.6441,-1.94297 -2.15533,-3.12861 -0.51117,-1.18566 -0.77625,-2.42399 -0.79529,-3.71501 -0.019,-1.291019 0.20959,-2.53661 0.68567,-3.736782 0.47613,-1.20018 1.16357,-2.26374 2.06231,-3.190681 l 0.0123,-0.0061 0.19037,-0.196571 c 1.9964,-1.968224 4.39606,-2.922318 7.19885,-2.862297 m 0,18.322521 c 2.37287,0.0582 4.39374,-0.75671 6.0625,-2.44461 0.7912,-0.80322 1.40052,-1.72644 1.82801,-2.76966 0.42743,-1.04323 0.64117,-2.12854 0.64111,-3.25596 6e-5,-1.127407 -0.21368,-2.212727 -0.64111,-3.255955 -0.42749,-1.04322 -1.03681,-1.966438 -1.82801,-2.769668 -0.81292,-0.790215 -1.74469,-1.398537 -2.79522,-1.824967 -1.05054,-0.426422 -2.1427,-0.639633 -3.27649,-0.639641 -1.13373,8e-6 -2.22583,0.213219 -3.27637,0.639649 -1.05048,0.426422 -1.98224,1.034744 -2.79529,1.824959 -0.79779,0.797752 -1.4126,1.717804 -1.84442,2.760139 -0.43176,1.042336 -0.6477,2.127617 -0.64783,3.255854 -6e-5,1.12824 0.21582,2.21355 0.64753,3.25593 0.4317,1.04239 1.04638,1.96248 1.84411,2.7603 l 6.1e-4,6e-4 c 1.67719,1.68507 3.70417,2.49993 6.08094,2.44461"
             style="fill:#2a7de1;fill-opacity:1;fill-rule:nonzero;stroke:none"
             id="path491" />
          <path
             d="m 678.02228,91.221626 v 19.250064 c 0.16565,1.6038 -0.23157,3.05339 -1.19159,4.34877 -0.76685,0.81764 -1.71076,1.22303 -2.83173,1.21617 -0.2948,0.0123 -0.5896,0.0123 -0.88446,0 l -0.13513,-1.38815 c 0.28558,0.0601 0.57428,0.0928 0.86609,0.0983 1.81201,0 2.69647,-1.27147 2.69647,-3.85122 V 91.221666 h 1.48035 z"
             style="fill:#2a7de1;fill-opacity:1;fill-rule:nonzero;stroke:none"
             id="path493" />
          <path
             d="m 695.05701,91.222 v 1.234001 h -8.98603 V 100.134 h 8.75299 v 1.253 h -8.75299 v 7.795 h 9.19501 v 1.247 H 684.58502 V 91.222 Z"
             style="fill:#2a7de1;fill-opacity:1;fill-rule:nonzero;stroke:none"
             id="path495" />
          <path
             d="m 716.59485,92.589493 v 1.61544 c -2.12494,-1.211204 -4.40991,-1.852043 -6.85486,-1.922531 -2.34308,-0.05123 -4.33118,0.763657 -5.96417,2.444656 -1.67841,1.680191 -2.48102,3.707169 -2.40784,6.080942 -0.0971,2.39335 0.70551,4.4326 2.40778,6.11777 1.72442,1.66406 3.78418,2.45436 6.17914,2.3709 2.43835,-0.0667 4.71508,-0.70757 6.83026,-1.92252 v 1.53558 c -2.11267,1.17301 -4.37714,1.77086 -6.79346,1.79356 -2.83472,0.0927 -5.27319,-0.84508 -7.31549,-2.81318 -0.92218,-0.92176 -1.633,-1.98486 -2.13233,-3.18932 -0.49945,-1.20446 -0.74945,-2.45862 -0.75,-3.7625 -5.5e-4,-1.303875 0.2483,-2.558262 0.74659,-3.763165 0.49835,-1.204903 1.20819,-2.268646 2.12951,-3.191238 l 0.006,-0.0058 v -3.13e-4 c 0.0512,-0.0389 0.0962,-0.08395 0.13513,-0.135147 1.97913,-1.922264 4.34802,-2.866127 7.10675,-2.831596 2.37085,0.04206 4.62299,0.580543 6.75647,1.61544"
             style="fill:#2a7de1;fill-opacity:1;fill-rule:nonzero;stroke:none"
             id="path497" />
          <path
             d="m 735.70898,91.222 v 1.234001 h -7.19897 V 110.429 H 727.005 V 92.456001 h -7.21698 V 91.222 Z"
             style="fill:#2a7de1;fill-opacity:1;fill-rule:nonzero;stroke:none"
             id="path499" />
          <path
             d="m 416.797,111.778 h -6.43201 V 99.444 l -5.77298,7.138 h -0.51602 l -5.79898,-7.138 v 12.334 H 392.043 V 90.495003 h 5.81699 l 6.54101,7.985 6.56,-7.985 h 5.836 z"
             style="fill:#2a7de1;fill-opacity:1;fill-rule:nonzero;stroke:none"
             id="path501" />
          <path
             d="m 445.53271,111.78065 h -6.56613 l -1.75055,-4.31193 h -9.238 l -1.76902,4.31193 h -6.56616 l 9.41614,-21.289317 h 7.18036 z m -9.77856,-8.02806 -3.12033,-7.696331 -3.151,7.696331 z"
             style="fill:#2a7de1;fill-opacity:1;fill-rule:nonzero;stroke:none"
             id="path503" />
          <path
             d="m 448.383,90.496002 h 6.40601 V 111.779 H 448.383 Z"
             style="fill:#2a7de1;fill-opacity:1;fill-rule:nonzero;stroke:none"
             id="path505" />
          <path
             d="m 483.276,111.778 h -5.70001 L 466.53201,99.922997 V 111.778 H 460.181 V 90.495003 h 5.694 L 476.88199,102.288 V 90.495003 h 6.39401 z"
             style="fill:#2a7de1;fill-opacity:1;fill-rule:nonzero;stroke:none"
             id="path507" />
          <path
             d="m 503.871,103.156 h -8.832 v 8.623 h -6.41299 V 90.489998 H 503.871 v 4.275001 h -8.832 v 4.122002 h 8.832 z"
             style="fill:#2a7de1;fill-opacity:1;fill-rule:nonzero;stroke:none"
             id="path509" />
          <path
             d="m 528.79498,111.77812 h -6.89172 l -1.67072,-3.84509 c -0.44653,-1.06759 -0.99932,-2.07697 -1.65838,-3.02815 -0.36664,-0.54104 -0.84577,-0.95054 -1.43732,-1.2285 -0.58789,-0.19786 -1.19189,-0.28795 -1.81201,-0.27027 h -0.71253 v 8.31674 h -6.431 V 90.495003 h 10.91501 c 1.54938,-0.06849 2.9928,0.28981 4.33033,1.07489 1.06353,0.632118 1.87835,1.498192 2.44458,2.598221 0.46771,0.918571 0.71142,1.893142 0.73101,2.923729 0.0394,0.965965 -0.1654,1.877075 -0.61419,2.733337 -0.32154,0.63129 -0.75763,1.16977 -1.30835,1.61543 -0.49982,0.35418 -1.01984,0.67562 -1.56012,0.96434 0.65576,0.36719 1.22088,0.84219 1.69531,1.42501 0.75195,1.02677 1.38049,2.1242 1.88568,3.29229 z m -8.716,-14.569609 c 0.0924,-0.882118 -0.23523,-1.561859 -0.98279,-2.039207 -0.99408,-0.473633 -2.04028,-0.672234 -3.13873,-0.595802 h -1.34516 v 5.141113 h 1.36976 c 1.11761,0.07757 2.19458,-0.09646 3.23089,-0.52208 0.64948,-0.478332 0.93811,-1.119178 0.86603,-1.922538"
             style="fill:#2a7de1;fill-opacity:1;fill-rule:nonzero;stroke:none"
             id="path511" />
          <path
             d="m 555.0719,111.78065 h -6.56616 l -1.73212,-4.31193 h -9.23798 l -1.76898,4.31193 h -6.58465 l 9.40997,-21.289325 h 7.10052 z m -9.77857,-8.02806 -3.12036,-7.696331 -3.13873,7.696331 z"
             style="fill:#2a7de1;fill-opacity:1;fill-rule:nonzero;stroke:none"
             id="path513" />
          <path
             d="m 582.651,111.778 h -6.406 V 99.444 l -5.79902,7.138 h -0.49701 l -5.81695,-7.138 v 12.334 h -6.23505 V 90.495003 h 5.836 l 6.52301,7.985 6.58405,-7.985 h 5.81097 z"
             style="fill:#2a7de1;fill-opacity:1;fill-rule:nonzero;stroke:none"
             id="path515" />
          <path
             d="M 604.07397,111.778 H 588.02399 V 90.495003 h 15.78003 V 94.764 h -9.35505 v 3.888 H 603.38 v 4.293 h -8.93103 v 4.54 h 9.625 z"
             style="fill:#2a7de1;fill-opacity:1;fill-rule:nonzero;stroke:none"
             id="path517" />
          <path
             d="m 312.35852,91.20565 c 3.14352,-0.08486 5.83182,0.979805 8.06485,3.194001 1.03879,0.99662 1.84738,2.154075 2.42578,3.472358 0.5784,1.318276 0.88257,2.697061 0.91254,4.136341 0.0299,1.43927 -0.21662,2.8295 -0.73966,4.1707 -0.52307,1.3412 -1.28283,2.53129 -2.27926,3.57027 -0.0195,0.0133 -0.0359,0.0297 -0.0492,0.0492 l -0.27026,0.26412 c -1.08868,1.02528 -2.32806,1.81368 -3.71811,2.3652 -1.39007,0.5515 -2.83285,0.82726 -4.32837,0.82726 -1.49548,0 -2.93826,-0.27576 -4.32831,-0.82727 -1.39004,-0.55151 -2.62939,-1.33991 -3.71811,-2.36519 -1.03372,-1.00713 -1.8356,-2.17365 -2.4056,-3.49955 -0.57001,-1.32591 -0.86481,-2.71042 -0.88437,-4.15352 -0.0196,-1.44311 0.23755,-2.835105 0.77136,-4.176002 0.53378,-1.340881 1.30371,-2.528725 2.30978,-3.56353 l 0.20883,-0.214996 c 2.22525,-2.19767 4.90125,-3.262337 8.02805,-3.194 m 0,20.459998 c 2.65152,0.0634 4.90985,-0.84766 6.77499,-2.73332 0.88144,-0.89929 1.56015,-1.93181 2.0362,-3.09757 0.47601,-1.16577 0.71402,-2.37825 0.71402,-3.63746 0,-1.25921 -0.23801,-2.471698 -0.71405,-3.637461 -0.47602,-1.165764 -1.15473,-2.198288 -2.03617,-3.097588 -0.9118,-0.876404 -1.95428,-1.550804 -3.12741,-2.023201 -1.17315,-0.472389 -2.39209,-0.70858 -3.65677,-0.708588 -1.26471,8e-6 -2.48364,0.236206 -3.65676,0.708596 -1.17319,0.472389 -2.21567,1.146789 -3.12745,2.023193 -0.89309,0.888763 -1.58218,1.914589 -2.0672,3.077484 -0.48501,1.162888 -0.72906,2.374325 -0.73217,3.634295 -0.003,1.25999 0.23504,2.47262 0.71438,3.63786 0.47934,1.16525 1.16336,2.19443 2.05213,3.08754 l 0.008,0.008 0.0246,0.0246 c 1.87232,1.88581 4.13678,2.79692 6.79343,2.73332"
             style="fill:#2a7de1;fill-opacity:1;fill-rule:nonzero;stroke:none"
             id="path519" />
          <path
             d="m 327.77145,91.471001 h 5.91501 c 1.91577,-0.118706 3.64792,0.389068 5.19641,1.523307 0.58564,0.54052 1.03574,1.176896 1.35028,1.909142 0.31455,0.732246 0.46628,1.496811 0.45514,2.293678 -0.0111,0.796883 -0.18411,1.556908 -0.51901,2.280075 -0.33487,0.723167 -0.80258,1.346727 -1.40311,1.870667 -1.58609,1.17316 -3.36328,1.69321 -5.33157,1.56014 h -4.103 v 9.98742 h -1.65228 l 0.0921,-21.424429 z m 1.65845,1.388153 v 8.660726 h 4.00476 c 1.4917,0.0957 2.8512,-0.2831 4.07852,-1.13634 0.8783,-0.815539 1.34021,-1.822146 1.38578,-3.019824 0.0456,-1.197685 -0.33854,-2.236473 -1.15235,-3.116363 -0.0593,-0.08402 -0.13098,-0.155693 -0.21499,-0.214997 -1.13541,-0.87043 -2.41712,-1.261497 -3.8451,-1.17321 z"
             style="fill:#2a7de1;fill-opacity:1;fill-rule:nonzero;stroke:none"
             id="path521" />
          <path
             d="M 355.56799,91.473999 V 92.862 h -10.04898 v 8.581 h 9.78498 v 1.388 h -9.78498 v 8.716 h 10.301 v 1.388 H 343.867 V 91.473999 Z"
             style="fill:#2a7de1;fill-opacity:1;fill-rule:nonzero;stroke:none"
             id="path523" />
          <path
             d="M 378.55099,91.473999 V 112.935 H 377.181 L 360.88501,94.164001 V 112.935 h -1.65802 V 91.473999 H 360.634 L 376.892,110.22 V 91.473999 Z"
             style="fill:#2a7de1;fill-opacity:1;fill-rule:nonzero;stroke:none"
             id="path525" />
          <path
             d="m 299.01526,230.94429 64.7915,-75.394 h -62.772 V 132.8315 h 96.09323 v 19.6895 l -64.7915,75.39399 h 64.7915 v 22.71875 h -98.11276 z"
             style="fill:#0033a1;fill-opacity:1;fill-rule:nonzero;stroke:none"
             id="path527" />
          <path
             d="m 410.42349,206.03706 v -0.33691 c 0,-25.916 20.86817,-46.95215 48.97266,-46.95215 27.93555,0 48.63476,20.69922 48.63476,46.61623 v 0.33593 c 0,25.917 -20.86718,46.95313 -48.97168,46.95313 -27.93652,-2e-5 -48.63574,-20.69923 -48.63574,-46.61623 z m 72.36426,0 v -0.33691 c 0,-13.29443 -9.59277,-24.90625 -23.72852,-24.90625 -14.6416,0 -23.39257,11.27539 -23.39257,24.57033 v 0.33593 c 0,13.29494 9.59277,24.90723 23.72949,24.90723 14.64062,0 23.39157,-11.27539 23.39157,-24.57033 z"
             style="fill:#0033a1;fill-opacity:1;fill-rule:nonzero;stroke:none"
             id="path529" />
          <path
             d="m 515.09924,160.43062 h 25.917 l 14.47265,54.69438 16.99713,-55.03081 h 22.0459 l 17.16498,55.19873 14.80957,-54.8623 h 25.41211 l -28.10449,90.87599 h -23.05567 l -17.33398,-55.3667 -17.66992,55.3667 h -22.8877 z"
             style="fill:#0033a1;fill-opacity:1;fill-rule:nonzero;stroke:none"
             id="path531" />
          <path
             d="m 658.98792,206.03706 v -0.33691 c 0,-25.748 18.34375,-46.95215 44.59667,-46.95215 30.12403,0 43.92383,23.39209 43.92383,48.97168 0,2.01955 -0.16894,4.37601 -0.33691,6.73145 h -62.77149 c 2.52344,11.6123 10.60157,17.67088 22.0459,17.67088 8.58197,0 14.8086,-2.69238 21.87702,-9.25584 l 14.6416,12.95799 c -8.41498,10.43359 -20.53125,16.8291 -36.85547,16.8291 -27.09479,1e-5 -47.12115,-19.01659 -47.12115,-46.6162 z m 63.61328,-7.57275 c -1.51465,-11.44383 -8.2461,-19.18506 -19.01661,-19.18506 -10.60253,0 -17.50201,7.57276 -19.52148,19.18506 z"
             style="fill:#0033a1;fill-opacity:1;fill-rule:nonzero;stroke:none"
             id="path533" />
          <path
             d="m 94.074997,176.677 43.395993,16.621 5.804,-50.059 z"
             style="fill:#0033a1;fill-opacity:1;fill-rule:nonzero;stroke:none"
             id="path535" />
        </g>
      </g>
    </g>
    <g
       id="g537">
      <g
         id="g539"
         clip-path="url(#clipPath543)">
        <g
           id="g545"
           transform="matrix(1.813467,-3.2754326,3.2754326,1.813467,246.58781,421.28143)">
          <g
             aria-label="F"
             transform="translate(0,15)"
             id="text549"
             style="font-weight:900;font-size:16.9px;font-family:OpenSauceOne;-inkscape-font-specification:OpenSauceOne-Black;fill:#051d40">
            <path
               d="m 1.5513672,-12.320166 h 8.5737788 v 2.4013186 H 4.728369 v 2.2940429 h 5.0749511 v 2.4013183 H 4.728369 V 0 H 1.5513672 Z"
               id="path221" />
          </g>
        </g>
        <g
           id="g551"
           transform="matrix(2.1333802,-3.0766554,3.0766554,2.1333802,270.92654,379.36566)">
          <g
             aria-label="I"
             transform="translate(0,15)"
             id="text555"
             style="font-weight:900;font-size:16.9px;font-family:OpenSauceOne;-inkscape-font-specification:OpenSauceOne-Black;fill:#051d40">
            <path
               d="M 1.5513672,-12.320166 H 4.728369 V 0 H 1.5513672 Z"
               id="path224" />
          </g>
        </g>
        <g
           id="g557"
           transform="matrix(2.4580152,-2.8240542,2.8240542,2.4580152,287.64227,355.02682)">
          <g
             aria-label="V"
             transform="translate(0,15)"
             id="text561"
             style="font-weight:900;font-size:16.9px;font-family:OpenSauceOne;-inkscape-font-specification:OpenSauceOne-Black;fill:#051d40">
            <path
               d="M 0.08251953,-12.320166 H 3.2760253 l 3.2677734,9.0936524 3.2595214,-9.0936524 H 12.996826 L 8.4334959,0 H 4.6458495 Z"
               id="path227" />
          </g>
        </g>
        <g
           id="g563"
           transform="matrix(2.8265667,-2.4551253,2.4551253,2.8265667,325.42859,313.12433)">
          <g
             aria-label="E"
             transform="translate(0,15)"
             id="text567"
             style="font-weight:900;font-size:16.9px;font-family:OpenSauceOne;-inkscape-font-specification:OpenSauceOne-Black;fill:#051d40">
            <path
               d="m 1.5513672,-12.320166 h 8.5737788 v 2.4013186 H 4.728369 v 2.2940429 h 5.0749511 v 2.4013183 H 4.728369 v 2.8221679 h 5.57832 V 0 H 1.5513672 Z"
               id="path230" />
          </g>
        </g>
        <g
           id="g569"
           transform="matrix(3.0546088,-2.1648293,2.1648293,3.0546088,363.5101,281.46561)" />
        <g
           id="g571"
           transform="matrix(3.2686856,-1.8255999,1.8255999,3.2686856,385.32504,265.73499)">
          <g
             aria-label="Y"
             transform="translate(0,15)"
             id="text575"
             style="font-weight:900;font-size:16.9px;font-family:OpenSauceOne;-inkscape-font-specification:OpenSauceOne-Black;fill:#051d40">
            <path
               d="M -0.16503906,-12.320166 H 3.3090331 l 2.805664,4.3900392 2.805664,-4.3900392 H 12.402685 L 7.707324,-5.1904784 V 0 H 4.5303222 v -5.1904784 z"
               id="path233" />
          </g>
        </g>
        <g
           id="g577"
           transform="matrix(3.4918711,-1.3505397,1.3505397,3.4918711,435.65778,238.79391)">
          <g
             aria-label="E"
             transform="translate(0,15)"
             id="text581"
             style="font-weight:900;font-size:16.9px;font-family:OpenSauceOne;-inkscape-font-specification:OpenSauceOne-Black;fill:#051d40">
            <path
               d="m 1.5513672,-12.320166 h 8.5737788 v 2.4013186 H 4.728369 v 2.2940429 h 5.0749511 v 2.4013183 H 4.728369 v 2.8221679 h 5.57832 V 0 H 1.5513672 Z"
               id="path236" />
          </g>
        </g>
        <g
           id="g583"
           transform="matrix(3.6465812,-0.84827226,0.84827226,3.6465812,483.60342,220.90417)">
          <g
             aria-label="A"
             transform="translate(0,15)"
             id="text587"
             style="font-weight:900;font-size:16.9px;font-family:OpenSauceOne;-inkscape-font-specification:OpenSauceOne-Black;fill:#051d40">
            <path
               d="M 9.0276365,-2.2445312 H 4.0599608 L 3.2760253,0 H 0.08251953 L 4.6458495,-12.320166 H 8.4334959 L 12.996826,0 H 9.8033201 Z m -4.1754882,-2.285791 h 3.3750488 l -1.6833984,-4.90166 z"
               id="path239" />
          </g>
        </g>
        <g
           id="g589"
           transform="matrix(3.731843,-0.30077949,0.30077949,3.731843,539.83728,208.76234)">
          <g
             aria-label="R"
             transform="translate(0,15)"
             id="text593"
             style="font-weight:900;font-size:16.9px;font-family:OpenSauceOne;-inkscape-font-specification:OpenSauceOne-Black;fill:#051d40">
            <path
               d="m 6.0651854,-6.8573729 q 0.9984863,0 1.4275879,-0.3713379 0.4373535,-0.3713379 0.4373535,-1.221289 0,-0.8416992 -0.4373535,-1.2047851 Q 7.0636717,-10.017871 6.0651854,-10.017871 H 4.728369 v 3.1604981 z M 4.728369,-4.6623534 V 0 H 1.5513672 v -12.320166 h 4.8521483 q 2.4343261,0 3.5648436,0.816944 1.1387699,0.816943 1.1387699,2.5828609 0,1.221289 -0.594141,2.0052245 -0.5858886,0.7839356 -1.7741698,1.1552734 0.6519042,0.1485352 1.1635253,0.6766602 0.5198735,0.519873 1.0479985,1.584375 L 12.675,0 H 9.291699 L 7.7898436,-3.0614745 Q 7.3359862,-3.9856933 6.8656248,-4.3240233 6.4035155,-4.6623534 5.6278319,-4.6623534 Z"
               id="path242" />
          </g>
        </g>
        <g
           id="g595"
           transform="matrix(3.7355492,0.2505827,-0.2505827,3.7355492,596.46191,205.0733)">
          <g
             aria-label="S"
             transform="translate(0,15)"
             id="text599"
             style="font-weight:900;font-size:16.9px;font-family:OpenSauceOne;-inkscape-font-specification:OpenSauceOne-Black;fill:#051d40">
            <path
               d="m 10.125146,-11.932324 v 2.6076172 q -1.01499,-0.4538574 -1.9804684,-0.6849122 -0.9654785,-0.231055 -1.8236816,-0.231055 -1.1387696,0 -1.6833984,0.3135746 -0.5446289,0.3135742 -0.5446289,0.9737305 0,0.4951171 0.3630859,0.7756835 0.3713379,0.2723145 1.3368164,0.4703614 l 1.3533202,0.2723144 q 2.0547363,0.4125976 2.9211918,1.2542968 0.866455,0.8416992 0.866455,2.3930664 0,2.0382324 -1.2130374,3.03671868 -1.2047852,0.99023436 -3.688623,0.99023436 -1.1717773,0 -2.3518066,-0.22280273 Q 2.5003417,-0.20629882 1.3203125,-0.64365233 V -3.325537 q 1.1800292,0.6271484 2.277539,0.9489746 1.1057617,0.3135742 2.1290038,0.3135742 1.0397461,0 1.592627,-0.3465821 0.5528808,-0.346582 0.5528808,-0.9902343 0,-0.5776367 -0.3795898,-0.8912109 Q 7.1214354,-4.6045897 5.9991698,-4.8521483 L 4.7696288,-5.1244628 Q 2.9211913,-5.5205565 2.0629882,-6.3870116 1.2130371,-7.2534666 1.2130371,-8.7223143 q 0,-1.8401857 1.1882812,-2.8304197 1.1882812,-0.990234 3.4163085,-0.990234 1.0149902,0 2.0877441,0.156787 1.0727539,0.148535 2.2197751,0.453857 z"
               id="path245" />
          </g>
        </g>
        <g
           id="g601"
           transform="matrix(3.6876531,0.6467877,-0.6467877,3.6876531,651.62372,210.08757)" />
        <g
           id="g603"
           transform="matrix(3.5978556,1.0356433,-1.0356433,3.5978556,678.12683,214.52885)">
          <g
             aria-label="S"
             transform="translate(0,15)"
             id="text607"
             style="font-weight:900;font-size:16.9px;font-family:OpenSauceOne;-inkscape-font-specification:OpenSauceOne-Black;fill:#051d40">
            <path
               d="m 10.125146,-11.932324 v 2.6076172 q -1.01499,-0.4538574 -1.9804684,-0.6849122 -0.9654785,-0.231055 -1.8236816,-0.231055 -1.1387696,0 -1.6833984,0.3135746 -0.5446289,0.3135742 -0.5446289,0.9737305 0,0.4951171 0.3630859,0.7756835 0.3713379,0.2723145 1.3368164,0.4703614 l 1.3533202,0.2723144 q 2.0547363,0.4125976 2.9211918,1.2542968 0.866455,0.8416992 0.866455,2.3930664 0,2.0382324 -1.2130374,3.03671868 -1.2047852,0.99023436 -3.688623,0.99023436 -1.1717773,0 -2.3518066,-0.22280273 Q 2.5003417,-0.20629882 1.3203125,-0.64365233 V -3.325537 q 1.1800292,0.6271484 2.277539,0.9489746 1.1057617,0.3135742 2.1290038,0.3135742 1.0397461,0 1.592627,-0.3465821 0.5528808,-0.346582 0.5528808,-0.9902343 0,-0.5776367 -0.3795898,-0.8912109 Q 7.1214354,-4.6045897 5.9991698,-4.8521483 L 4.7696288,-5.1244628 Q 2.9211913,-5.5205565 2.0629882,-6.3870116 1.2130371,-7.2534666 1.2130371,-8.7223143 q 0,-1.8401857 1.1882812,-2.8304197 1.1882812,-0.990234 3.4163085,-0.990234 1.0149902,0 2.0877441,0.156787 1.0727539,0.148535 2.2197751,0.453857 z"
               id="path248" />
          </g>
        </g>
        <g
           id="g609"
           transform="matrix(3.4183609,1.5270652,-1.5270652,3.4183609,732.31934,231.17633)">
          <g
             aria-label="T"
             transform="translate(0,15)"
             id="text613"
             style="font-weight:900;font-size:16.9px;font-family:OpenSauceOne;-inkscape-font-specification:OpenSauceOne-Black;fill:#051d40">
            <path
               d="M 0.08251953,-12.320166 H 11.437207 v 2.4013186 H 7.3524901 V 0 H 4.1754882 V -9.9188474 H 0.08251953 Z"
               id="path251" />
          </g>
        </g>
        <g
           id="g615"
           transform="matrix(3.1728396,1.9875132,-1.9875132,3.1728396,778.80487,252.62811)">
          <g
             aria-label="R"
             transform="translate(0,15)"
             id="text619"
             style="font-weight:900;font-size:16.9px;font-family:OpenSauceOne;-inkscape-font-specification:OpenSauceOne-Black;fill:#051d40">
            <path
               d="m 6.0651854,-6.8573729 q 0.9984863,0 1.4275879,-0.3713379 0.4373535,-0.3713379 0.4373535,-1.221289 0,-0.8416992 -0.4373535,-1.2047851 Q 7.0636717,-10.017871 6.0651854,-10.017871 H 4.728369 v 3.1604981 z M 4.728369,-4.6623534 V 0 H 1.5513672 v -12.320166 h 4.8521483 q 2.4343261,0 3.5648436,0.816944 1.1387699,0.816943 1.1387699,2.5828609 0,1.221289 -0.594141,2.0052245 -0.5858886,0.7839356 -1.7741698,1.1552734 0.6519042,0.1485352 1.1635253,0.6766602 0.5198735,0.519873 1.0479985,1.584375 L 12.675,0 H 9.291699 L 7.7898436,-3.0614745 Q 7.3359862,-3.9856933 6.8656248,-4.3240233 6.4035155,-4.6623534 5.6278319,-4.6623534 Z"
               id="path254" />
          </g>
        </g>
        <g
           id="g621"
           transform="matrix(2.8211484,2.46135,-2.46135,2.8211484,826.8844,283.56357)">
          <g
             aria-label="O"
             transform="translate(0,15)"
             id="text625"
             style="font-weight:900;font-size:16.9px;font-family:OpenSauceOne;-inkscape-font-specification:OpenSauceOne-Black;fill:#051d40">
            <path
               d="m 7.1791991,-10.240674 q -1.4523438,0 -2.2527832,1.0727543 -0.8004394,1.0727539 -0.8004394,3.0202148 0,1.9392089 0.8004394,3.0119628 0.8004394,1.0727539 2.2527832,1.0727539 1.4605956,0 2.2610351,-1.0727539 0.8004398,-1.0727539 0.8004398,-3.0119628 0,-1.9474609 -0.8004398,-3.0202148 -0.8004395,-1.0727543 -2.2610351,-1.0727543 z m 0,-2.302294 q 2.9707029,0 4.6541019,1.699902 1.683398,1.6999021 1.683398,4.6953611 0,2.9872069 -1.683398,4.6871092 -1.683399,1.69990234 -4.6541019,1.69990234 -2.9624511,0 -4.6541015,-1.69990234 -1.6833984,-1.6999023 -1.6833984,-4.6871092 0,-2.995459 1.6833984,-4.6953611 1.6916504,-1.699902 4.6541015,-1.699902 z"
               id="path257" />
          </g>
        </g>
        <g
           id="g627"
           transform="matrix(2.3820744,2.8883977,-2.8883977,2.3820744,874.96857,327.05872)">
          <g
             aria-label="N"
             transform="translate(0,15)"
             id="text631"
             style="font-weight:900;font-size:16.9px;font-family:OpenSauceOne;-inkscape-font-specification:OpenSauceOne-Black;fill:#051d40">
            <path
               d="m 1.5513672,-12.320166 h 3.5483397 l 4.4808105,8.4500001 V -12.320166 H 12.59248 V 0 H 9.0441404 L 4.56333,-8.4499998 V 0 H 1.5513672 Z"
               id="path260" />
          </g>
        </g>
        <g
           id="g633"
           transform="matrix(1.878952,3.2383113,-3.2383113,1.878952,913.4433,375.13437)">
          <g
             aria-label="G"
             transform="translate(0,15)"
             id="text637"
             style="font-weight:900;font-size:16.9px;font-family:OpenSauceOne;-inkscape-font-specification:OpenSauceOne-Black;fill:#051d40">
            <path
               d="m 12.625488,-0.91596678 q -1.188281,0.57763671 -2.467334,0.86645506 -1.2790526,0.28881836 -2.6406249,0.28881836 -3.0779784,0 -4.8769042,-1.71640624 -1.7989257,-1.7246581 -1.7989257,-4.6706053 0,-2.9789551 1.8319336,-4.6871091 1.8319335,-1.708154 5.0171873,-1.708154 1.229541,0 2.3518069,0.231054 1.130517,0.231055 2.129004,0.684912 v 2.5498538 q -1.031495,-0.5858887 -2.054737,-0.874707 -1.0149899,-0.2888188 -2.0382321,-0.2888188 -1.8979491,0 -2.9294433,1.0645023 -1.0232421,1.05625 -1.0232421,3.0284668 0,1.9557128 0.9902343,3.0202147 0.9902344,1.064502 2.813916,1.064502 0.4951172,0 0.9159668,-0.057764 0.4291015,-0.066016 0.7674316,-0.1980469 V -4.7118651 H 7.6743162 V -6.840869 h 4.9511718 z"
               id="path263" />
          </g>
        </g>
        <g
           id="g639"
           transform="matrix(1.7811812,3.4862692,-3.4862692,1.7811812,285.06128,731.35516)">
          <g
             aria-label="O"
             transform="translate(0,11)"
             id="text643"
             style="font-weight:bold;font-size:12.9px;font-family:OpenSauceOne;-inkscape-font-specification:OpenSauceOne-Bold;fill:#051d40">
            <path
               d="m 5.4799803,-7.8168455 q -1.1085937,0 -1.71958,0.8188477 -0.6109863,0.8188476 -0.6109863,2.305371 0,1.4802246 0.6109863,2.2990722 0.6109863,0.8188476 1.71958,0.8188476 1.1148926,0 1.7258789,-0.8188476 0.6109863,-0.8188476 0.6109863,-2.2990722 0,-1.4865234 -0.6109863,-2.305371 -0.6109863,-0.8188477 -1.7258789,-0.8188477 z m 0,-1.757373 q 2.2675781,0 3.552539,1.2975586 1.2849607,1.2975585 1.2849607,3.5840331 0,2.2801757 -1.2849607,3.5777343 -1.2849609,1.29755851 -3.552539,1.29755851 -2.2612792,0 -3.552539,-1.29755851 -1.28496085,-1.2975586 -1.28496085,-3.5777343 0,-2.2864746 1.28496085,-3.5840331 1.2912598,-1.2975586 3.552539,-1.2975586 z"
               id="path266" />
          </g>
        </g>
        <g
           id="g645"
           transform="matrix(2.2213464,3.2237089,-3.2237089,2.2213464,307.27551,773.38861)">
          <g
             aria-label="P"
             transform="translate(0,11)"
             id="text649"
             style="font-weight:bold;font-size:12.9px;font-family:OpenSauceOne;-inkscape-font-specification:OpenSauceOne-Bold;fill:#051d40">
            <path
               d="m 1.1841797,-9.4041501 h 4.024951 q 1.795166,0 2.7525878,0.7999511 0.9637207,0.7936524 0.9637207,2.2675781 0,1.4802246 -0.9637207,2.2801757 -0.9574218,0.7936523 -2.7525878,0.7936523 H 3.6092284 V 0 H 1.1841797 Z m 2.4250487,1.757373 v 2.6266112 h 1.3416504 q 0.7054687,0 1.0896972,-0.3401367 0.3842285,-0.3464355 0.3842285,-0.9763183 0,-0.6298828 -0.3842285,-0.9700195 -0.3842285,-0.3401367 -1.0896972,-0.3401367 z"
               id="path269" />
          </g>
        </g>
        <g
           id="g651"
           transform="matrix(2.5830343,2.9418724,-2.9418724,2.5830343,330.44858,806.21985)">
          <g
             aria-label="E"
             transform="translate(0,11)"
             id="text655"
             style="font-weight:bold;font-size:12.9px;font-family:OpenSauceOne;-inkscape-font-specification:OpenSauceOne-Bold;fill:#051d40">
            <path
               d="m 1.1841797,-9.4041501 h 6.5444822 v 1.8329589 H 3.6092284 v 1.7510742 h 3.8737792 v 1.8329589 H 3.6092284 v 2.1541992 H 7.8672361 V 0 H 1.1841797 Z"
               id="path272" />
          </g>
        </g>
        <g
           id="g657"
           transform="matrix(2.9254234,2.6016488,-2.6016488,2.9254234,355.48935,834.47577)">
          <g
             aria-label="N"
             transform="translate(0,11)"
             id="text661"
             style="font-weight:bold;font-size:12.9px;font-family:OpenSauceOne;-inkscape-font-specification:OpenSauceOne-Bold;fill:#051d40">
            <path
               d="m 1.1841797,-9.4041501 h 2.708496 l 3.4202635,6.4499998 V -9.4041501 H 9.6120114 V 0 H 6.9035154 L 3.4832519,-6.4499998 V 0 H 1.1841797 Z"
               id="path275" />
          </g>
        </g>
        <g
           id="g663"
           transform="matrix(3.1688726,2.2988963,-2.2988963,3.1688726,389.88943,863.77252)">
          <g
             aria-label=","
             transform="translate(0,11)"
             id="text667"
             style="font-weight:bold;font-size:12.9px;font-family:OpenSauceOne;-inkscape-font-specification:OpenSauceOne-Bold;fill:#051d40">
            <path
               d="m 1.316455,-2.4376464 h 2.2675781 v 1.92114251 L 2.0282226,1.8329589 H 0.68657225 L 1.316455,-0.51650389 Z"
               id="path278" />
          </g>
        </g>
        <g
           id="g669"
           transform="matrix(3.3124559,2.0866992,-2.0866992,3.3124559,407.81488,876.44543)" />
        <g
           id="g671"
           transform="matrix(3.4950364,1.763916,-1.763916,3.4950364,425.31671,887.67334)">
          <g
             aria-label="S"
             transform="translate(0,11)"
             id="text675"
             style="font-weight:bold;font-size:12.9px;font-family:OpenSauceOne;-inkscape-font-specification:OpenSauceOne-Bold;fill:#051d40">
            <path
               d="m 7.7286619,-9.1081052 v 1.9904296 Q 6.953906,-7.4641111 6.2169432,-7.6404783 5.4799803,-7.8168455 4.8249022,-7.8168455 q -0.8692383,0 -1.2849609,0.2393555 -0.4157226,0.2393555 -0.4157226,0.7432617 0,0.3779297 0.2771484,0.5920898 0.2834472,0.2078613 1.0204101,0.3590332 L 5.454785,-5.675244 q 1.5684082,0.3149414 2.2297851,0.9574219 0.6613769,0.6424804 0.6613769,1.8266601 0,1.5558105 -0.9259277,2.31796866 -0.9196289,0.75585935 -2.8155761,0.75585935 -0.8944335,0 -1.7951659,-0.17006835 Q 1.9085449,-0.1574707 1.0078125,-0.49130858 V -2.5384277 q 0.9007324,0.478711 1.7384765,0.7243653 0.8440429,0.2393554 1.6250976,0.2393554 0.7936523,0 1.2156738,-0.2645508 0.4220215,-0.2645507 0.4220215,-0.7558593 0,-0.440918 -0.2897461,-0.6802734 Q 5.4358885,-3.514746 4.5792479,-3.7037108 L 3.6407225,-3.9115721 Q 2.2297851,-4.2139159 1.574707,-4.8752928 0.92592771,-5.5366698 0.92592771,-6.6578611 q 0,-1.4046387 0.90703119,-2.160498 0.9070313,-0.7558594 2.6077148,-0.7558594 0.7747558,0 1.5936035,0.1196778 0.8188476,0.1133789 1.6943847,0.3464355 z"
               id="path281" />
          </g>
        </g>
        <g
           id="g677"
           transform="matrix(3.6474423,1.4222665,-1.4222665,3.6474423,463.47525,905.99609)">
          <g
             aria-label="I"
             transform="translate(0,11)"
             id="text681"
             style="font-weight:bold;font-size:12.9px;font-family:OpenSauceOne;-inkscape-font-specification:OpenSauceOne-Bold;fill:#051d40">
            <path
               d="M 1.1841797,-9.4041501 H 3.6092284 V 0 H 1.1841797 Z"
               id="path284" />
          </g>
        </g>
        <g
           id="g683"
           transform="matrix(3.7833233,1.0065505,-1.0065505,3.7833233,482.77127,914.09113)">
          <g
             aria-label="M"
             transform="translate(0,11)"
             id="text687"
             style="font-weight:bold;font-size:12.9px;font-family:OpenSauceOne;-inkscape-font-specification:OpenSauceOne-Bold;fill:#051d40">
            <path
               d="m 1.1841797,-9.4041501 h 3.0864256 l 2.1416015,5.0327635 2.1541992,-5.0327635 h 3.080127 V 0 H 9.3537595 V -6.8783201 L 7.1869627,-1.8077636 H 5.6500487 L 3.4832519,-6.8783201 V 0 H 1.1841797 Z"
               id="path287" />
          </g>
        </g>
        <g
           id="g689"
           transform="matrix(3.8860943,0.47428954,-0.47428954,3.8860943,534.0238,926.82764)">
          <g
             aria-label="P"
             transform="translate(0,11)"
             id="text693"
             style="font-weight:bold;font-size:12.9px;font-family:OpenSauceOne;-inkscape-font-specification:OpenSauceOne-Bold;fill:#051d40">
            <path
               d="m 1.1841797,-9.4041501 h 4.024951 q 1.795166,0 2.7525878,0.7999511 0.9637207,0.7936524 0.9637207,2.2675781 0,1.4802246 -0.9637207,2.2801757 -0.9574218,0.7936523 -2.7525878,0.7936523 H 3.6092284 V 0 H 1.1841797 Z m 2.4250487,1.757373 v 2.6266112 h 1.3416504 q 0.7054687,0 1.0896972,-0.3401367 0.3842285,-0.3464355 0.3842285,-0.9763183 0,-0.6298828 -0.3842285,-0.9700195 -0.3842285,-0.3401367 -1.0896972,-0.3401367 z"
               id="path290" />
          </g>
        </g>
        <g
           id="g695"
           transform="matrix(3.9147546,0.03705374,-0.03705374,3.9147546,574.12549,931.1734)">
          <g
             aria-label="L"
             transform="translate(0,11)"
             id="text699"
             style="font-weight:bold;font-size:12.9px;font-family:OpenSauceOne;-inkscape-font-specification:OpenSauceOne-Bold;fill:#051d40">
            <path
               d="m 1.1841797,-9.4041501 h 2.4250487 v 7.5711912 H 7.8672361 V 0 H 1.1841797 Z"
               id="path293" />
          </g>
        </g>
        <g
           id="g701"
           transform="matrix(3.8956084,-0.3884747,0.3884747,3.8956084,608.51086,931.23206)">
          <g
             aria-label="E"
             transform="translate(0,11)"
             id="text705"
             style="font-weight:bold;font-size:12.9px;font-family:OpenSauceOne;-inkscape-font-specification:OpenSauceOne-Bold;fill:#051d40">
            <path
               d="m 1.1841797,-9.4041501 h 6.5444822 v 1.8329589 H 3.6092284 v 1.7510742 h 3.8737792 v 1.8329589 H 3.6092284 v 2.1541992 H 7.8672361 V 0 H 1.1841797 Z"
               id="path296" />
          </g>
        </g>
        <g
           id="g707"
           transform="matrix(3.844949,-0.73691559,0.73691559,3.844949,646.95624,926.67224)">
          <g
             aria-label=","
             transform="translate(0,11)"
             id="text711"
             style="font-weight:bold;font-size:12.9px;font-family:OpenSauceOne;-inkscape-font-specification:OpenSauceOne-Bold;fill:#051d40">
            <path
               d="m 1.316455,-2.4376464 h 2.2675781 v 1.92114251 L 2.0282226,1.8329589 H 0.68657225 L 1.316455,-0.51650389 Z"
               id="path299" />
          </g>
        </g>
        <g
           id="g713"
           transform="matrix(3.7885139,-0.98683333,0.98683333,3.7885139,668.46405,922.27576)" />
        <g
           id="g715"
           transform="matrix(3.6866353,-1.3173455,1.3173455,3.6866353,688.77423,917.03271)">
          <g
             aria-label="F"
             transform="translate(0,11)"
             id="text719"
             style="font-weight:bold;font-size:12.9px;font-family:OpenSauceOne;-inkscape-font-specification:OpenSauceOne-Bold;fill:#051d40">
            <path
               d="m 1.1841797,-9.4041501 h 6.5444822 v 1.8329589 H 3.6092284 v 1.7510742 h 3.8737792 v 1.8329589 H 3.6092284 V 0 H 1.1841797 Z"
               id="path302" />
          </g>
        </g>
        <g
           id="g721"
           transform="matrix(3.5040541,-1.7459333,1.7459333,3.5040541,723.55188,904.35742)">
          <g
             aria-label="A"
             transform="translate(0,11)"
             id="text725"
             style="font-weight:bold;font-size:12.9px;font-family:OpenSauceOne;-inkscape-font-specification:OpenSauceOne-Bold;fill:#051d40">
            <path
               d="M 6.8909178,-1.7132812 H 3.0990233 L 2.5006347,0 H 0.06298828 L 3.5462401,-9.4041501 H 6.4374022 L 9.920654,0 H 7.4830076 Z M 3.7037108,-3.4580565 H 6.2799315 L 4.9949706,-7.1995603 Z"
               id="path305" />
          </g>
        </g>
        <g
           id="g727"
           transform="matrix(3.2225091,-2.2230866,2.2230866,3.2225091,760.8869,885.73358)">
          <g
             aria-label="M"
             transform="translate(0,11)"
             id="text731"
             style="font-weight:bold;font-size:12.9px;font-family:OpenSauceOne;-inkscape-font-specification:OpenSauceOne-Bold;fill:#051d40">
            <path
               d="m 1.1841797,-9.4041501 h 3.0864256 l 2.1416015,5.0327635 2.1541992,-5.0327635 h 3.080127 V 0 H 9.3537595 V -6.8783201 L 7.1869627,-1.8077636 H 5.6500487 L 3.4832519,-6.8783201 V 0 H 1.1841797 Z"
               id="path308" />
          </g>
        </g>
        <g
           id="g733"
           transform="matrix(2.9544334,-2.5686574,2.5686574,2.9544334,804.24603,854.24207)">
          <g
             aria-label="I"
             transform="translate(0,11)"
             id="text737"
             style="font-weight:bold;font-size:12.9px;font-family:OpenSauceOne;-inkscape-font-specification:OpenSauceOne-Bold;fill:#051d40">
            <path
               d="M 1.1841797,-9.4041501 H 3.6092284 V 0 H 1.1841797 Z"
               id="path311" />
          </g>
        </g>
        <g
           id="g739"
           transform="matrix(2.7251947,-2.8106923,2.8106923,2.7251947,820.58325,840.00769)">
          <g
             aria-label="L"
             transform="translate(0,11)"
             id="text743"
             style="font-weight:bold;font-size:12.9px;font-family:OpenSauceOne;-inkscape-font-specification:OpenSauceOne-Bold;fill:#051d40">
            <path
               d="m 1.1841797,-9.4041501 h 2.4250487 v 7.5711912 H 7.8672361 V 0 H 1.1841797 Z"
               id="path314" />
          </g>
        </g>
        <g
           id="g745"
           transform="matrix(2.4761958,-3.0323477,3.0323477,2.4761958,844.55658,814.39368)">
          <g
             aria-label="I"
             transform="translate(0,11)"
             id="text749"
             style="font-weight:bold;font-size:12.9px;font-family:OpenSauceOne;-inkscape-font-specification:OpenSauceOne-Bold;fill:#051d40">
            <path
               d="M 1.1841797,-9.4041501 H 3.6092284 V 0 H 1.1841797 Z"
               id="path317" />
          </g>
        </g>
        <g
           id="g751"
           transform="matrix(2.1722922,-3.2569656,3.2569656,2.1722922,858.19696,797.97809)">
          <g
             aria-label="A"
             transform="translate(0,11)"
             id="text755"
             style="font-weight:bold;font-size:12.9px;font-family:OpenSauceOne;-inkscape-font-specification:OpenSauceOne-Bold;fill:#051d40">
            <path
               d="M 6.8909178,-1.7132812 H 3.0990233 L 2.5006347,0 H 0.06298828 L 3.5462401,-9.4041501 H 6.4374022 L 9.920654,0 H 7.4830076 Z M 3.7037108,-3.4580565 H 6.2799315 L 4.9949706,-7.1995603 Z"
               id="path320" />
          </g>
        </g>
        <g
           id="g757"
           transform="matrix(1.7493938,-3.5023277,3.5023277,1.7493938,881.24902,762.65894)">
          <g
             aria-label="R"
             transform="translate(0,11)"
             id="text761"
             style="font-weight:bold;font-size:12.9px;font-family:OpenSauceOne;-inkscape-font-specification:OpenSauceOne-Bold;fill:#051d40">
            <path
               d="m 4.6296385,-5.234326 q 0.7621582,0 1.0896973,-0.2834473 0.3338378,-0.2834472 0.3338378,-0.9322265 0,-0.6424805 -0.3338378,-0.9196289 Q 5.3917967,-7.6467771 4.6296385,-7.6467771 H 3.6092284 V -5.234326 Z M 3.6092284,-3.5588378 V 0 H 1.1841797 v -9.4041501 h 3.7037108 q 1.8581542,0 2.7210936,0.623584 0.8692383,0.6235839 0.8692383,1.9715331 0,0.9322265 -0.4535156,1.5306152 -0.4472168,0.5983886 -1.354248,0.8818359 0.4976074,0.1133789 0.8881347,0.5165039 0.3968262,0.3968261 0.7999512,1.209375 L 9.6749997,0 H 7.0924803 L 5.9460936,-2.3368652 Q 5.599658,-3.0423339 5.2406248,-3.3005858 4.8878905,-3.5588378 4.2958007,-3.5588378 Z"
               id="path323" />
          </g>
        </g>
      </g>
    </g>
  </g>
</svg>
