<?xml version="1.0" encoding="UTF-8" standalone="no"?>
<svg
   viewBox="0 0 624.23506 469.28291"
   version="1.1"
   id="svg66"
   sodipodi:docname="zowe-conformant-zowev3-cli-ONLY-black.svg"
   inkscape:version="1.3.2 (091e20e, 2023-11-25)"
   xmlns:inkscape="http://www.inkscape.org/namespaces/inkscape"
   xmlns:sodipodi="http://sodipodi.sourceforge.net/DTD/sodipodi-0.dtd"
   xmlns="http://www.w3.org/2000/svg"
   xmlns:svg="http://www.w3.org/2000/svg">
  <sodipodi:namedview
     id="namedview66"
     pagecolor="#ffffff"
     bordercolor="#000000"
     borderopacity="0.25"
     inkscape:showpageshadow="2"
     inkscape:pageopacity="0.0"
     inkscape:pagecheckerboard="0"
     inkscape:deskcolor="#d1d1d1"
     inkscape:zoom="0.70646466"
     inkscape:cx="312.11752"
     inkscape:cy="234.26508"
     inkscape:window-width="1392"
     inkscape:window-height="1212"
     inkscape:window-x="3190"
     inkscape:window-y="155"
     inkscape:window-maximized="0"
     inkscape:current-layer="svg66" />
  <defs
     id="defs3">
    <style
       id="style1">.cls-1{fill:#333;}.cls-1,.cls-2,.cls-3,.cls-4,.cls-5,.cls-6,.cls-7,.cls-8,.cls-9{stroke-width:0px;}.cls-2{fill:#2a7de1;}.cls-3{fill:none;}.cls-4{fill:#0033a1;}.cls-5{fill:#666;}.cls-10{mix-blend-mode:multiply;}.cls-6{fill:#4a4a4a;}.cls-11{clip-path:url(#clippath-1);}.cls-12{clip-path:url(#clippath-3);}.cls-13{clip-path:url(#clippath-2);}.cls-7,.cls-14{fill:#000;}.cls-8{fill:#8a8a8a;}.cls-15{opacity:.5;}.cls-16{isolation:isolate;}.cls-9{fill:#fff;}</style>
    <clipPath
       id="clippath-1">
      <path
         class="cls-3"
         d="M75.30404-525.74646h473.30893c34.98474,0,63.34552,28.36076,63.34552,63.34553V-190.98221H11.95849v-271.41871c0-34.98477,28.36076-63.34553,63.34553-63.34553h.00002Z"
         id="path1" />
    </clipPath>
    <clipPath
       id="clippath-2">
      <path
         class="cls-3"
         d="M-613.63574-525.74646H-140.32681c34.98474,0,63.34552,28.36076,63.34552,63.34553V-190.98221h-600v-271.41871c0-34.98477,28.36076-63.34553,63.34553-63.34553h.00002Z"
         id="path2" />
    </clipPath>
    <clipPath
       id="clippath-3">
      <path
         class="cls-3"
         d="M759.72619-525.74646h473.30893c34.98474,0,63.34552,28.36076,63.34552,63.34553V-190.98221h-600v-271.41871c0-34.98477,28.36076-63.34553,63.34553-63.34553h.00002Z"
         id="path3" />
    </clipPath>
  </defs>
  <g
     class="cls-16"
     id="g66">
    <g
       id="Layer_1">
      <path
         class="cls-7"
         d="M608.3584,355.91258v103.77036H15.55862v-103.77036h592.79978M611.95849,352.31258H11.95849v110.97034h600v-110.97034Z"
         id="path4" />
      <path
         class="cls-14"
         d="M75.30404,7.3774h473.30893c34.98474,0,63.34552,28.36076,63.34552,63.34553v271.41871H11.95849V70.72293c0-34.98477,28.36076-63.34553,63.34553-63.34553h.00002Z"
         id="path5" />
      <g
         class="cls-10"
         id="g11">
        <path
           class="cls-1"
           d="M265.79005,438.89735h-15.46542v-2.85683l9.96503-14.28592h-9.6952v-3.63864h14.92575v2.84269l-9.94971,14.30006h10.21955v3.63864Z"
           id="path6" />
        <path
           class="cls-1"
           d="M284.65963,430.92308c0,1.32679-.17793,2.50157-.53378,3.52494-.35467,1.02337-.87195,1.88825-1.54949,2.59407-.67753.7064-1.49175,1.23959-2.44501,1.59957-.95208.35998-2.02553.54026-3.21916.54026-1.11822,0-2.14454-.18028-3.07777-.54026s-1.74391-.89316-2.43087-1.59957c-.68696-.70581-1.2172-1.5707-1.59191-2.59407-.37353-1.02337-.56088-2.19815-.56088-3.52494,0-1.76276.31225-3.2551.93794-4.47761s1.51649-2.15102,2.67242-2.78613c1.15593-.63452,2.53456-.95208,4.13589-.95208,1.48821,0,2.80793.31756,3.95915.95208,1.15122.63511,2.05616,1.56363,2.71484,2.78613s.98861,2.71484.98861,4.47761ZM273.67182,430.92308c0,1.04222.11312,1.91889.34053,2.62942.22742.71111.58327,1.24666,1.06638,1.60664s1.11351.53967,1.89002.53967c.76826,0,1.39041-.17969,1.86999-.53967.4784-.35998.82836-.89552,1.05106-1.60664.2227-.71053.33464-1.58719.33464-2.62942,0-1.05224-.11194-1.92596-.33464-2.62293-.2227-.69639-.57502-1.21956-1.05813-1.5707-.48429-.34996-1.11469-.52553-1.8912-.52553-1.1465,0-1.97839.39297-2.4945,1.1795-.5161.78712-.77415,1.96661-.77415,3.53967Z"
           id="path7" />
        <path
           class="cls-1"
           d="M302.75859,438.89735l-1.22192-5.55812c-.06599-.33111-.17557-.82188-.32639-1.47113-.152-.64866-.31579-1.34505-.49136-2.08916s-.33582-1.43342-.48311-2.06854c-.14729-.63452-.25334-1.09937-.31932-1.39277h-.12844c-.06599.2934-.17086.75825-.31225,1.39277-.14258.63511-.30165,1.32679-.47604,2.07561-.17557.74823-.33936,1.45228-.49136,2.11096-.15082.65868-.26512,1.15829-.34053,1.49941l-1.27965,5.50098h-4.6626l-4.52003-15.89197h4.32207l1.83346,7.03632c.12255.49254.24156,1.07816.35467,1.75569.1143.67753.21563,1.3315.30636,1.96131.08955.6304.15789,1.13001.20621,1.5h.11312c.01885-.27514.05892-.63983.12137-1.09466.06127-.45483.13197-.92616.21328-1.41457.08013-.48782.15554-.92851.22742-1.32207.0707-.39297.1249-.66104.16261-.80302l1.9619-7.619h4.77572l1.86292,7.619c.06599.27514.15318.71111.26276,1.30793.10841.59682.20621,1.21072.29104,1.84053.08602.6304.13315,1.12529.14258,1.48586h.11312c.03771-.32227.10487-.80067.19914-1.43578.09544-.63511.20621-1.30086.33464-1.99725.12726-.69639.25805-1.29144.39002-1.78397l1.90534-7.03632h4.25019l-4.57776,15.89197h-4.71916Z"
           id="path8" />
        <path
           class="cls-1"
           d="M322.62266,422.70727c1.46936,0,2.73487.28162,3.79536.84544,1.06166.56382,1.88177,1.38158,2.45915,2.45208.57855,1.07109.86724,2.37843.86724,3.92321v2.10389h-10.24901c.04831,1.2225.41477,2.18165,1.10173,2.87804.68696.69697,1.64257,1.04517,2.86449,1.04517,1.01453,0,1.94305-.10428,2.78672-.31284.8425-.20856,1.70974-.52082,2.60055-.93794v3.35467c-.78594.38826-1.6084.67282-2.46622.85251s-1.89709.27042-3.12018.27042c-1.59191,0-3.00117-.29399-4.22898-.88138-1.22663-.58739-2.18814-1.48291-2.8857-2.68656-.69639-1.20365-1.04399-2.71956-1.04399-4.54889,0-1.85703.31461-3.40416.94501-4.6408s1.50942-2.16575,2.63707-2.78613,2.4403-.93087,3.93676-.93087ZM322.65212,425.79151c-.84368,0-1.54242.26983-2.09741.81009-.55381.54026-.87431,1.38865-.95915,2.54458h6.08365c-.00943-.64454-.12608-1.21779-.34878-1.71975-.2227-.50255-.55381-.90023-.9945-1.19422-.44069-.2934-1.00157-.44069-1.68382-.44069Z"
           id="path9" />
        <path
           class="cls-1"
           d="M347.52404,438.89735l-6.05537-15.89197h4.53417l3.0707,9.05478c.17086.53083.30518,1.08994.40534,1.67733.09898.58739.16732,1.11351.20621,1.57777h.11312c.02828-.50196.0978-1.03751.20621-1.60605s.25334-1.11822.43362-1.64906l3.05656-9.05478h4.53417l-6.05537,15.89197h-4.44933Z"
           id="path10" />
        <path
           class="cls-1"
           d="M374.36611,422.76382c0,.95738-.19796,1.78633-.59623,2.48743-.39827.70169-.93676,1.27494-1.61312,1.72034-.67871.4454-1.43873.77239-2.2824.98036v.08543c1.6685.20856,2.93519.72054,3.80243,1.53535s1.30086,1.90475,1.30086,3.26924c0,1.21308-.29576,2.29831-.88845,3.2551-.59269.95738-1.50471,1.71092-2.73605,2.26001-1.23252.54969-2.81971.82482-4.76158.82482-1.1465,0-2.21524-.0925-3.2062-.27749-.98979-.185-1.92066-.46661-2.79261-.84544v-3.7388c.89081.45483,1.82404.79831,2.79968,1.03044.97683.23272,1.88649.34819,2.73016.34819,1.57305,0,2.6736-.27219,3.304-.81716s.94619-1.3097.94619-2.29536c0-.57796-.14729-1.06638-.44069-1.46406-.29458-.39827-.80361-.70169-1.52828-.91025-.72467-.20797-1.73684-.31225-3.03535-.31225h-1.57777v-3.36881h1.60605c1.27965,0,2.25294-.12078,2.92105-.36292.66811-.24156,1.12294-.57325,1.36567-.9945.24156-.42184.36174-.90318.36174-1.44285,0-.73939-.22742-1.31736-.68225-1.73448-.45483-.41654-1.21249-.6251-2.27415-.6251-.66339,0-1.26787.08307-1.81225.24862-.54556.16555-1.03574.36469-1.47172.59682s-.81893.45719-1.15122.67518l-2.0326-3.02769c.8154-.58739,1.76983-1.07521,2.86449-1.46406,1.09466-.38826,2.40023-.58268,3.91555-.58268,2.14218,0,3.83778.43126,5.08915,1.2932,1.25137.86253,1.87588,2.08032,1.87588,3.65337Z"
           id="path11" />
      </g>
      <path
         class="cls-5"
         d="M264.48693,437.59422h-15.46542v-2.85683l9.96503-14.28592h-9.6952v-3.63864h14.92575v2.84269l-9.94971,14.30006h10.21955v3.63864Z"
         id="path12" />
      <path
         class="cls-5"
         d="M283.3565,429.61996c0,1.32679-.17793,2.50157-.53378,3.52494-.35467,1.02337-.87195,1.88825-1.54949,2.59407-.67753.7064-1.49175,1.23959-2.44501,1.59957-.95208.35998-2.02553.54026-3.21916.54026-1.11822,0-2.14454-.18028-3.07777-.54026s-1.74391-.89316-2.43087-1.59957c-.68696-.70581-1.2172-1.5707-1.59191-2.59407-.37353-1.02337-.56088-2.19815-.56088-3.52494,0-1.76276.31225-3.2551.93794-4.47761s1.51649-2.15102,2.67242-2.78613c1.15593-.63452,2.53456-.95208,4.13589-.95208,1.48821,0,2.80793.31756,3.95915.95208,1.15122.63511,2.05616,1.56363,2.71484,2.78613s.98861,2.71484.98861,4.47761ZM272.36869,429.61996c0,1.04222.11312,1.91889.34053,2.62942.22742.71111.58327,1.24666,1.06638,1.60664s1.11351.53967,1.89002.53967c.76826,0,1.39041-.17969,1.86999-.53967.4784-.35998.82836-.89552,1.05106-1.60664.2227-.71053.33464-1.58719.33464-2.62942,0-1.05224-.11194-1.92596-.33464-2.62293-.2227-.69639-.57502-1.21956-1.05813-1.5707-.48429-.34996-1.11469-.52553-1.8912-.52553-1.1465,0-1.97839.39297-2.4945,1.1795-.5161.78712-.77415,1.96661-.77415,3.53967Z"
         id="path13" />
      <path
         class="cls-5"
         d="M301.45546,437.59422l-1.22192-5.55812c-.06599-.33111-.17557-.82188-.32639-1.47113-.152-.64866-.31579-1.34505-.49136-2.08916s-.33582-1.43342-.48311-2.06854c-.14729-.63452-.25334-1.09937-.31932-1.39277h-.12844c-.06599.2934-.17086.75825-.31225,1.39277-.14258.63511-.30165,1.32679-.47604,2.07561-.17557.74823-.33936,1.45228-.49136,2.11096-.15082.65868-.26512,1.15829-.34053,1.49941l-1.27965,5.50098h-4.6626l-4.52003-15.89197h4.32207l1.83346,7.03632c.12255.49254.24156,1.07816.35467,1.75569.1143.67753.21563,1.3315.30636,1.96131.08955.6304.15789,1.13001.20621,1.5h.11312c.01885-.27514.05892-.63983.12137-1.09466.06127-.45483.13197-.92616.21328-1.41457.08013-.48782.15554-.92851.22742-1.32207.0707-.39297.1249-.66104.16261-.80302l1.9619-7.619h4.77572l1.86292,7.619c.06599.27514.15318.71111.26276,1.30793.10841.59682.20621,1.21072.29104,1.84053.08602.6304.13315,1.12529.14258,1.48586h.11312c.03771-.32227.10487-.80067.19914-1.43578.09544-.63511.20621-1.30086.33464-1.99725.12726-.69639.25805-1.29144.39002-1.78397l1.90534-7.03632h4.25019l-4.57776,15.89197h-4.71916Z"
         id="path14" />
      <path
         class="cls-5"
         d="M321.31954,421.40414c1.46936,0,2.73487.28162,3.79536.84544,1.06166.56382,1.88177,1.38158,2.45915,2.45208.57855,1.07109.86724,2.37843.86724,3.92321v2.10389h-10.24901c.04831,1.2225.41477,2.18165,1.10173,2.87804.68696.69697,1.64257,1.04517,2.86449,1.04517,1.01453,0,1.94305-.10428,2.78672-.31284.8425-.20856,1.70974-.52082,2.60055-.93794v3.35467c-.78594.38826-1.6084.67282-2.46622.85251s-1.89709.27042-3.12018.27042c-1.59191,0-3.00117-.29399-4.22898-.88138-1.22663-.58739-2.18814-1.48291-2.8857-2.68656-.69639-1.20365-1.04399-2.71956-1.04399-4.54889,0-1.85703.31461-3.40416.94501-4.6408s1.50942-2.16575,2.63707-2.78613,2.4403-.93087,3.93676-.93087ZM321.34899,424.48839c-.84368,0-1.54242.26983-2.09741.81009-.55381.54026-.87431,1.38865-.95915,2.54458h6.08365c-.00943-.64454-.12608-1.21779-.34878-1.71975-.2227-.50255-.55381-.90023-.9945-1.19422-.44069-.2934-1.00157-.44069-1.68382-.44069Z"
         id="path15" />
      <path
         class="cls-5"
         d="M346.22092,437.59422l-6.05537-15.89197h4.53417l3.0707,9.05478c.17086.53083.30518,1.08994.40534,1.67733.09898.58739.16732,1.11351.20621,1.57777h.11312c.02828-.50196.0978-1.03751.20621-1.60605s.25334-1.11822.43362-1.64906l3.05656-9.05478h4.53417l-6.05537,15.89197h-4.44933Z"
         id="path16" />
      <path
         class="cls-5"
         d="M373.06299,421.4607c0,.95738-.19796,1.78633-.59623,2.48743-.39827.70169-.93676,1.27494-1.61312,1.72034-.67871.4454-1.43873.77239-2.2824.98036v.08543c1.6685.20856,2.93519.72054,3.80243,1.53535s1.30086,1.90475,1.30086,3.26924c0,1.21308-.29576,2.29831-.88845,3.2551-.59269.95738-1.50471,1.71092-2.73605,2.26001-1.23252.54969-2.81971.82482-4.76158.82482-1.1465,0-2.21524-.0925-3.2062-.27749-.98979-.185-1.92066-.46661-2.79261-.84544v-3.7388c.89081.45483,1.82404.79831,2.79968,1.03044.97683.23272,1.88649.34819,2.73016.34819,1.57305,0,2.6736-.27219,3.304-.81716s.94619-1.3097.94619-2.29536c0-.57796-.14729-1.06638-.44069-1.46406-.29458-.39827-.80361-.70169-1.52828-.91025-.72467-.20797-1.73684-.31225-3.03535-.31225h-1.57777v-3.36881h1.60605c1.27965,0,2.25294-.12078,2.92105-.36292.66811-.24156,1.12294-.57325,1.36567-.9945.24156-.42184.36174-.90318.36174-1.44285,0-.73939-.22742-1.31736-.68225-1.73448-.45483-.41654-1.21249-.6251-2.27415-.6251-.66339,0-1.26787.08307-1.81225.24862-.54556.16555-1.03574.36469-1.47172.59682s-.81893.45719-1.15122.67518l-2.0326-3.02769c.8154-.58739,1.76983-1.07521,2.86449-1.46406,1.09466-.38826,2.40023-.58268,3.91555-.58268,2.14218,0,3.83778.43126,5.08915,1.2932,1.25137.86253,1.87588,2.08032,1.87588,3.65337Z"
         id="path17" />
      <path
         class="cls-7"
         d="m 292.7953,378.91722 c -1.65234,0 -2.94141,0.67676 -3.86719,2.03027 -0.92578,1.35351 -1.38867,3.21973 -1.38867,5.59863 0,4.94531 1.88086,7.41797 5.64258,7.41797 1.13672,0 2.23828,-0.1582 3.30469,-0.47461 1.06641,-0.31641 2.13867,-0.69727 3.2168,-1.14258 v 5.87109 c -2.14453,0.94922 -4.57031,1.42383 -7.27734,1.42383 -3.87891,0 -6.85254,-1.125 -8.9209,-3.375 -2.06836,-2.25 -3.10254,-5.50195 -3.10254,-9.75586 0,-2.66016 0.50098,-4.99805 1.50293,-7.01367 1.00195,-2.01562 2.44336,-3.56543 4.32422,-4.64941 1.88086,-1.08398 4.09277,-1.62598 6.63574,-1.62598 2.77734,0 5.43164,0.60352 7.96289,1.81055 l -2.12695,5.4668 c -0.94922,-0.44531 -1.89844,-0.82031 -2.84766,-1.125 -0.94922,-0.30469 -1.96875,-0.45703 -3.05859,-0.45703 z"
         id="path18" />
      <path
         class="cls-7"
         d="m 307.41347,399.29027 v -25.69922 h 6.94336 v 20.0918 h 9.89648 v 5.60742 z"
         id="path19" />
      <path
         class="cls-7"
         d="m 331.06679,399.29027 v -25.69922 h 6.97852 v 25.69922 z"
         id="path20" />
    </g>
    <g
       id="Layer_2">
      <g
         class="cls-11"
         clip-path="url(#clippath-1)"
         id="g24">
        <polyline
           class="cls-4"
           points="247.37455 -122.77354 279.95086 -75.8285 575.68936 -285.91341 525.6416 -359.63413 355.02054 -240.71819 375.73726 -411.05402 788.07145 -269.60214 226.42269 126.56334"
           id="polyline24" />
        <polygon
           class="cls-2"
           points="-145.85016 -403.66152 56.58791 -406.83358 104.19591 -326.41029 293.82622 -455.29337 226.42654 121.97674 -145.85016 -403.66152"
           id="polygon24" />
      </g>
      <g
         class="cls-15"
         id="g30">
        <path
           class="cls-8"
           d="M57.47833,126.05442c-.14455,1.2295.63435,2.11204,1.19329,3.05681,13.45359,22.74009,26.91967,45.47282,40.38202,68.20772,1.42348,2.4039,2.82677,4.81983,4.26293,7.21608.44188.73734.77596,1.61443,1.7903,1.79435,4.40695.629,8.34932,2.66256,12.4314,4.22505,29.25357,11.19727,58.50981,22.38779,87.75472,33.60785,20.59078,7.8999,41.19082,15.77584,61.78075,23.67814,1.6377.62848,3.39311.9157,4.95489,1.75201-2.00681,13.91742-3.31608,27.91939-5.0707,41.86775-1.10719,8.80195-2.03563,17.62635-3.05071,26.43996-.10058.8734-.22696,1.7448-.37453,2.61152-.2874,1.68797-.3982,1.78283-2.15619,1.88596-.55813.03275-1.11935.01688-1.67915.01688-81.2562.00053-162.51242-.00059-243.76863.00357-4.0057.00018-3.56167-.14461-3.56197-3.52764-.00636-69.73957-.00508-139.47917-.0011-209.21877.00004-.87838.05503-1.75679.08439-2.63517.89859-1.19224,2.22858-1.05448,3.49462-1.15638,9.81081-.7894,19.64065-.41657,29.463-.49623,2.79491-.02268,5.58615.03035,8.37697-.31547,1.28643-.15943,2.76362-.44979,3.69371.98599Z"
           id="path25" />
        <path
           class="cls-8"
           d="M526.40063,174.17366c-.30193-.05804-.60381-.11607-.90574-.17411-1.87752.06211-3.58283-.58075-5.30848-1.21846-6.22371-2.29989-12.54527-4.32214-18.8233-6.46386-20.42631-6.96823-40.83439-13.99005-61.25162-20.98415-19.1308-6.55342-38.27467-13.0706-57.36797-19.73323-2.26055-.78882-4.58121-1.3091-6.89127-1.89141.48896-2.99027.94717-5.98597,1.47187-8.96991,3.96006-22.51866,7.93213-45.03521,11.90244-67.55209,2.17945-12.36023,4.35568-24.72108,6.54996-37.07874.46641-2.62658.49951-2.63742,3.22242-2.63798,23.59395-.00475,47.18795-.00302,70.78189-.00308,26.39326-.00006,52.7877.15738,79.17949-.04207,29.32365-.2216,56.35963,20.75845,62.2984,51.36188.77818,4.01001,1.16654,8.06634,1.16619,12.15812-.00404,43.8288-.00193,87.65757-.00381,131.48637,0,.31898-.03322.63797-.05092.95695-.98186.79986-1.98504.32892-2.94926.00012-13.21652-4.50674-26.42162-9.04705-39.63211-13.57146-7.85033-2.6886-15.67822-5.44474-23.54643-8.07973-5.29734-1.77407-10.52027-3.7609-15.84234-5.45766-1.47346-.46975-2.6693-1.39983-3.99943-2.10551Z"
           id="path26" />
        <path
           class="cls-6"
           d="M272.02864,269.59244c-.67852,1.07273-1.54808.81656-2.51795.4425-4.25183-1.6398-8.52519-3.22354-12.78067-4.85385-23.29348-8.92412-46.58229-17.86043-69.87601-26.78396-25.98146-9.95323-51.97043-19.88692-77.93877-29.87432-1.34997-.51923-3.06185-.56552-3.80836-2.19343,27.77282-18.88523,55.54274-37.77472,83.31917-56.65462,34.39014-23.37519,68.78473-46.7439,103.18579-70.103.70081-.47587,1.31376-1.17498,2.2674-1.23363.4856.81706.13192,1.59457.04515,2.35286-1.19042,10.40344-2.38907,20.80597-3.59757,31.20735-1.36538,11.75136-2.74775,23.50072-4.11337,35.25205-1.19024,10.24277-2.3642,20.48742-3.55119,30.73058-1.21456,10.48122-2.44058,20.96115-3.65358,31.44258-1.20384,10.40212-2.39297,20.80594-3.5973,31.20797-1.1216,9.68766-2.25472,19.37402-3.38273,29.06092Z"
           id="path27" />
        <path
           class="cls-6"
           d="M57.47833,126.05442c-10.28922.85717-20.60301.42413-30.90545.56437-4.71125.06416-9.40488.64758-14.12284.41771-.0346-1.03787-.09901-2.07577-.09936-3.11364-.00617-17.83767-.20136-35.67803.04415-53.51229.32544-23.64138,10.94549-41.66569,30.90253-54.10884,9.78376-6.1002,20.63593-8.86107,32.1942-8.85671,49.19355.01852,98.38708.00703,147.58063.01471.91957.00015,1.86563-.13731,2.83597.18539-.33853.8557-1.04271,1.11844-1.60406,1.51195-55.40528,38.8377-110.81531,77.66859-166.22553,116.49929-.19657.1377-.40002.26558-.60025.39806Z"
           id="path28" />
        <path
           class="cls-6"
           d="M375.85225,123.70845c.43283-1.11047,1.1598-1.33365,2.28076-.93835,3.24322,1.14375,6.51791,2.19776,9.77186,3.31154,10.89609,3.72955,21.78867,7.46927,32.68225,11.20605,22.16555,7.6033,44.33373,15.19922,66.49529,22.81415,12.02596,4.13218,24.04184,8.29354,36.05766,12.45513.87879.30434,1.93289.37181,2.35482,1.44258-22.17375,15.46421-44.34463,30.93249-66.52184,46.39175-33.59408,23.41772-67.19209,46.82974-100.79203,70.23911-.76154.53057-1.47059,1.17609-2.55352,1.53422-.21949-2.76352.37951-5.25703.67055-7.75957,1.17299-10.08445,2.43082-20.159,3.66281-30.23654,1.36775-11.18848,2.74711-22.37555,4.111-33.56452,1.34461-11.0303,2.67768-22.06204,4.01309-33.09349,1.34496-11.11061,2.67943-22.22247,4.03154-33.33223,1.23621-10.1577,2.48977-20.31331,3.73576-30.46983Z"
           id="path29" />
        <path
           class="cls-6"
           d="M526.40063,174.17366c1.09764-.45548,2.03789.16412,2.99373.49134,15.05883,5.15628,30.10893,10.33828,45.16371,15.50663,11.72613,4.02568,23.45549,8.04226,35.18525,12.0573.91061.31169,1.81219.63428,2.62693,1.15896.01781.95924.05115,1.91848.05121,2.87771.00252,44.15016.00744,88.30025-.00721,132.45041-.00129,3.79113.61898,3.63105-3.5775,3.63129-53.98793.00352-107.97586.00299-161.96379-.00299-1.184-.00018-2.3843.10992-3.65801-.22764.2482-1.07766,1.15172-1.36717,1.81037-1.83604,16.22273-11.54795,32.45707-23.07973,48.69076-34.61232,26.59975-18.89666,53.20395-37.78693,79.79525-56.69549,2.56078-1.82086,2.7133-1.27266.77648-4.12512-15.18375-22.3614-30.36439-44.7249-45.52406-67.10256-.79969-1.18049-1.83914-2.20787-2.36314-3.57149Z"
           id="path30" />
      </g>
      <polygon
         class="cls-9"
         points="154.08964 118.00743 154.09167 118.00844 154.09065 118.00743 154.08964 118.00743"
         id="polygon30" />
      <path
         class="cls-3"
         d="M395.46303,73.71408c.46234-.34045.71333-.8976.66203-1.46946v-.04701c.06492-.61986-.22587-1.22322-.75118-1.55863-.74709-.35599-1.57351-.51287-2.39909-.4554h-1.02819v3.92955h1.04696c.8429.05851,1.6879-.07804,2.46947-.39905Z"
         id="path31" />
      <path
         class="cls-3"
         d="M488.89594,73.56388c1.16458-.98708,1.30951-2.7309.32391-3.8967l-.338-.33799c-.84847-.55811-1.85483-.82659-2.86855-.76531h-2.399v5.7512h2.42722c1.00725.06047,2.00744-.20275,2.85443-.7512Z"
         id="path32" />
      <path
         class="cls-3"
         d="M476.41896,73.66715c1.20565-1.08823,1.30084-2.94778.21258-4.15342v-.00002l-.00136-.0015c-.01211-.01146-.02314-.02403-.0329-.03755l-.14555-.15964c-.772-.57246-1.72154-.85349-2.68075-.79338l-2.86849.04222v5.88266h2.72294c.99365.07463,1.98204-.20113,2.79353-.77937Z"
         id="path33" />
      <path
         class="cls-3"
         d="M349.48523,136.08511c-11.19113,0-17.87983,8.61821-17.87983,18.78003v.2568c0,10.16181,7.33212,19.03753,18.13736,19.03753,11.19039,0,17.87909-8.61821,17.87909-18.78002v-.25751c-.00003-10.16149-7.33212-19.03683-18.13662-19.03683Z"
         id="path34" />
      <polygon
         class="cls-3"
         points="413.01214 71.31658 410.61271 77.1995 415.39739 77.1995 413.01214 71.31658"
         id="polygon34" />
      <path
         class="cls-3"
         d="M256.583,74.62439c1.34262-1.24669,1.42244-3.34503.1784-4.69011-.04501-.06375-.10058-.11932-.16432-.16433-.83946-.64354-1.88322-.962-2.93895-.89669h-3.25347v6.61972h3.061c1.1074.071,2.20621-.23516,3.11733-.86858Z"
         id="path35" />
      <path
         class="cls-3"
         d="M536.38524,134.92742c-8.10393,0-13.3774,5.78815-14.92102,14.66387h29.45614c-1.15773-8.74697-6.30278-14.66387-14.53513-14.66387Z"
         id="path36" />
      <polygon
         class="cls-3"
         points="329.28715 71.31658 326.87855 77.1995 331.67237 77.1995 329.28715 71.31658"
         id="polygon36" />
      <path
         class="cls-3"
         d="M232.16384,81.2009c2.89583,2.78554,7.47504,2.78554,10.37086,0,2.80276-2.85966,2.80276-7.43605,0-10.29571-2.89642-2.78407-7.47445-2.78407-10.37086,0-2.84306,2.82919-2.85431,7.42745-.02512,10.27052l.00637.00637.01876.01881Z"
         id="path37" />
      <path
         class="cls-3"
         d="M507.98969,79.56946c2.51637-2.55482,2.51637-6.65638,0-9.2112-2.58411-2.51174-6.69759-2.51174-9.2817,0-2.53969,2.53944-2.53994,6.65689-.00053,9.19662l.00053.0005c1.22777,1.23354,2.90802,1.90903,4.64796,1.86855v.01409c1.7361.04251,3.41276-.6336,4.63374-1.86854Z"
         id="path38" />
      <path
         class="cls-9"
         d="M470.90261,75.43239h2.79341c1.30787.09894,2.60771-.276,3.66195-1.05632.83147-.71528,1.28841-1.77279,1.23944-2.86851.05802-1.08929-.40138-2.14209-1.23944-2.84037-1.0149-.76488-2.27225-1.13675-3.53991-1.04695h-4.04694v14.68535h1.13149v-6.87321ZM470.90261,68.56385l2.86852-.04222c.95918-.0601,1.90872.22093,2.68072.79338l.14555.15964c.00976.01352.02078.0261.0329.03755,1.08906,1.20487.99517,3.06447-.2097,4.15353-.00003.00002-.00003.00003-.00006.00005l-.00149.00136c-.81146.57823-1.79982.85398-2.79344.77936h-2.72294l-.00006-5.88266Z"
         id="path39" />
      <path
         class="cls-9"
         d="M483.57198,75.28688h2.02817c.73074-.04273,1.45776.13207,2.08919.50231.79885.72108,1.47024,1.57184,1.98585,2.51642l2.55871,3.99999h1.35678l-3.32392-5.07512c-.47748-.88699-1.14618-1.65672-1.95773-2.25349,1.64314-.39579,2.79917-1.86854,2.79338-3.55868.04253-1.06699-.42021-2.09164-1.2488-2.76522-1.05012-.75399-2.32983-1.11915-3.6197-1.03286h-3.75119l-.04222,14.71355h1.13143l.00006-7.04688ZM483.61423,68.56385h2.399c1.01373-.06128,2.02008.2072,2.86855.76531l.338.33799c.9856,1.16581.84067,2.90962-.32391,3.8967-.84702.54845-1.84721.81166-2.85446.75118h-2.42713l-.00006-5.75119Z"
         id="path40" />
      <path
         class="cls-9"
         d="M508.87224,80.30183l.17845-.18777c.02819-.03286.05631-.06101.0845-.08915,2.80032-2.94503,2.68301-7.60254-.26199-10.40288l-.00093-.00086c-3.09374-2.917-7.92495-2.917-11.01869,0l-.14552.15022-.00939.00471c-2.86093,2.95051-2.79164,7.66067.15488,10.52574,3.09247,2.9202,7.92622,2.9202,11.01869,0ZM498.70799,79.55536c-2.53969-2.53943-2.53991-6.65687-.00053-9.19661l.00053-.0005c2.58411-2.51174,6.69759-2.51174,9.2817,0,2.51637,2.55481,2.51637,6.65637,0,9.21119-1.22098,1.23496-2.89767,1.91106-4.6338,1.86853v-.01406c-1.73991.04046-3.42013-.63504-4.64786-1.86856h-.00003Z"
         id="path41" />
      <path
         class="cls-9"
         d="M513.77184,86.58868c.81942.00499,1.6038-.3319,2.16436-.92957.70809-.95533,1.03299-2.14107.91083-3.32391v-14.71356h-1.13146v15.03754c0,1.97181-.67597,2.94361-2.06097,2.94361-.22256-.0041-.44422-.02924-.66203-.07511l.10333,1.06105c.22538.00932.45066.0093.67594-.00005Z"
         id="path42" />
      <polygon
         class="cls-9"
         points="530.02702 81.34982 522.99917 81.34982 522.99917 75.39179 529.68901 75.39179 529.68901 74.43364 522.99917 74.43364 522.99917 68.56493 529.86768 68.56493 529.86768 67.62199 521.8634 67.62199 521.8634 82.30291 530.02702 82.30291 530.02702 81.34982"
         id="polygon42" />
      <path
         class="cls-9"
         d="M546.32947,68.66714v.00257c.01995.00956.04107.01596.06096.02561l-.06096-.02818Z"
         id="path43" />
      <path
         class="cls-9"
         d="M541.28249,82.51218c1.81806-.0171,3.60298-.48835,5.1925-1.3709v-1.17371c-1.59176.91433-3.38565,1.41925-5.22063,1.46948-1.75487.06113-3.45938-.59287-4.72298-1.81218-1.24328-1.23082-1.9113-2.92803-1.84036-4.67609-.05359-1.73675.61238-3.41854,1.84036-4.64784,1.19397-1.22906,2.84551-1.90599,4.55862-1.86854,1.84049.05304,3.63978.55764,5.23946,1.46942v-1.23211c-1.59473-.76425-3.33516-1.17661-5.10329-1.20911-2.02559-.02532-3.97871.7529-5.43188,2.16431-.02961.03896-.06437.07371-.10333.10329l-.00446.0047h-.00025c-2.93292,2.9368-2.93081,7.69485.00471,10.62904,1.49691,1.44253,3.51377,2.21812,5.59152,2.15025Z"
         id="path44" />
      <polygon
         class="cls-9"
         points="554.28644 82.30291 555.43643 82.30291 555.43643 68.56493 560.93875 68.56493 560.93875 67.62199 548.76994 67.62199 548.76994 68.56493 554.28644 68.56493 554.28644 82.30291"
         id="polygon44" />
      <polygon
         class="cls-9"
         points="317.18228 83.33414 317.18228 67.06578 312.7224 67.06578 307.70832 73.16996 302.70845 67.06578 298.26174 67.06578 298.26174 83.33414 303.02715 83.33414 303.02715 73.90584 307.45965 79.36246 307.85347 79.36246 312.26666 73.90584 312.26666 83.33414 317.18228 83.33414"
         id="polygon45" />
      <path
         class="cls-9"
         d="M325.72856,80.03989h7.06102l1.33801,3.29579h5.01876l-7.10318-16.27223h-5.48825l-7.19716,16.27223h5.01882l1.35198-3.29579ZM329.28733,71.31694l2.38503,5.88256h-4.79348l2.40845-5.88256Z"
         id="path45" />
      <rect
         class="cls-9"
         x="341.3248"
         y="67.06666"
         width="4.89672"
         height="16.26751"
         id="rect45" />
      <polygon
         class="cls-9"
         points="355.19694 74.27225 363.63868 83.33414 367.99503 83.33414 367.99503 67.06578 363.10782 67.06578 363.10782 76.07996 354.69452 67.06578 350.34222 67.06578 350.34222 83.33414 355.19694 83.33414 355.19694 74.27225"
         id="polygon46" />
      <polygon
         class="cls-9"
         points="376.98587 76.74377 383.73662 76.74377 383.73662 73.48056 376.98587 73.48056 376.98587 70.33001 383.73662 70.33001 383.73662 67.06273 372.08445 67.06273 372.08445 83.33414 376.98587 83.33414 376.98587 76.74377"
         id="polygon47" />
      <path
         class="cls-9"
         d="M393.8762,77.14128c.44391.20861.82341.53296,1.0986.93896.50236.72501.92718,1.50075,1.26757,2.31446l1.27698,2.93895h5.26759l-1.60092-3.55863c-.38496-.89-.86842-1.73408-1.44134-2.51643-.35941-.44149-.79904-.81104-1.29576-1.08918.41253-.22047.81081-.46665,1.19245-.7371.41628-.33683.757-.75751,1-1.23467.3371-.64313.49901-1.36366.46949-2.08919-.01484-.77758-.20586-1.54165-.55873-2.23471-.42421-.82417-1.07171-1.51237-1.86852-1.98595-1.0009-.58748-2.15039-.87282-3.30983-.82158h-8.34265v16.22529h4.91549v-6.35676h.54461c.47023-.01343.93911.05649,1.38496.20653ZM391.9466,70.1836h1.02819c.82558-.05747,1.652.09941,2.39909.45541.52531.3354.8161.93875.75118,1.55862v.047c.05129.57186-.1997,1.12901-.66203,1.46947-.78157.32101-1.6266.45756-2.4695.39906h-1.04696l.00003-3.92956Z"
         id="path47" />
      <path
         class="cls-9"
         d="M409.46768,80.03989h7.06096l1.32391,3.29579h5.01876l-7.16897-16.27223h-5.42717l-7.19239,16.27223h5.03286l1.35204-3.29579ZM413.01226,71.31694l2.38497,5.88256h-4.78397l2.399-5.88256Z"
         id="path48" />
      <polygon
         class="cls-9"
         points="429.79613 73.90584 434.24284 79.36246 434.62244 79.36246 439.05494 73.90584 439.05494 83.33414 443.95125 83.33414 443.95125 67.06578 439.50965 67.06578 434.47729 73.16996 429.49164 67.06578 425.03072 67.06578 425.03072 83.33414 429.79613 83.33414 429.79613 73.90584"
         id="polygon48" />
      <polygon
         class="cls-9"
         points="460.32519 80.05266 452.96848 80.05266 452.96848 76.58239 459.79536 76.58239 459.79536 73.3009 452.96848 73.3009 452.96848 70.32899 460.11915 70.32899 460.11915 67.06578 448.05795 67.06578 448.05795 83.33414 460.32519 83.33414 460.32519 80.05266"
         id="polygon49" />
      <path
         class="cls-9"
         d="M243.52058,82.02248l.20657-.20187c.01008-.01474.02281-.02748.03756-.03756,3.17203-3.30734,3.06274-8.55981-.24413-11.73234-1.63518-1.62137-3.86235-2.50341-6.16426-2.44129v.04225c-2.29147-.05006-4.50538.83076-6.13616,2.4413l-.15958.16433c-3.20242,3.29388-3.13099,8.55937.15958,11.76518,3.45471,3.25351,8.8457,3.25351,12.30042,0ZM232.16384,70.90523c2.89642-2.78408,7.47445-2.78408,10.37086,0,2.80276,2.85966,2.80276,7.43604,0,10.2957-2.89581,2.78555-7.47505,2.78555-10.37086,0l-.01876-.01879c-2.83272-2.83955-2.82716-7.43783.01239-10.27053h0l.00638-.00635-.00002-.00002Z"
         id="path49" />
      <path
         class="cls-9"
         d="M250.32955,76.55397h3.13607c1.45683.09849,2.90122-.32417,4.07515-1.19246,1.78526-1.55774,1.96968-4.26777.41196-6.05302-.10155-.11638-.20932-.22718-.32281-.33194-1.1472-.84033-2.5525-1.25229-3.97181-1.16432h-4.52105l-.07045,16.37553h1.26295v-7.63378ZM250.40467,68.87327h3.25348c1.05573-.06532,2.0995.25314,2.93895.89669.06376.045.11933.10057.16434.16433,1.24404,1.34508,1.16422,3.44342-.1784,4.69011-.91115.63342-2.00997.93958-3.11739.86856h-3.06099l.00002-6.61969Z"
         id="path50" />
      <polygon
         class="cls-9"
         points="270.57568 83.15753 262.70236 83.15753 262.70236 76.49509 270.18087 76.49509 270.18087 75.43442 262.70236 75.43442 262.70236 68.87552 270.38283 68.87552 270.38283 67.81485 261.4397 67.81485 261.4397 84.2182 270.57568 84.2182 270.57568 83.15753"
         id="polygon50" />
      <polygon
         class="cls-9"
         points="274.44687 69.87021 286.90291 84.2182 287.94937 84.2182 287.94937 67.81485 286.68165 67.81485 286.68165 82.14253 274.25405 67.81485 273.18017 67.81485 273.18017 84.2182 274.44687 84.2182 274.44687 69.87021"
         id="polygon51" />
      <polygon
         class="cls-9"
         points="228.70099 116.79045 276.67987 116.79045 227.15719 174.41686 227.15719 189.46621 302.14919 189.46621 302.14919 172.10165 252.62649 172.10165 302.14919 114.47524 302.14919 99.42589 228.70099 99.42589 228.70099 116.79045"
         id="polygon52" />
      <path
         class="cls-9"
         d="M349.74273,119.23456c-21.48132,0-37.43168,16.07873-37.43168,35.88731v.25751c0,19.80936,15.82122,35.63054,37.17415,35.63054,21.48132,0,37.4309-16.07871,37.4309-35.88806v-.2568c.00006-19.80927-15.82119-35.63051-37.17337-35.63051ZM367.62181,155.3794c0,10.16181-6.68873,18.78002-17.87909,18.78002-10.80524,0-18.13736-8.87572-18.13736-19.03753v-.2568c0-10.16181,6.68873-18.78002,17.87983-18.78002,10.80447,0,18.13662,8.87535,18.13662,19.03679v.25754Z"
         id="path52" />
      <polygon
         class="cls-9"
         points="466.15228 162.45412 453.03245 120.26376 436.18146 120.26376 423.19054 162.32522 412.12808 120.52056 392.3184 120.52056 413.54299 189.98082 431.03644 189.98082 444.54198 147.66156 457.79074 189.98082 475.4131 189.98082 496.89551 120.52056 477.47153 120.52056 466.15228 162.45412"
         id="polygon53" />
      <path
         class="cls-9"
         d="M569.95787,156.66552c0-19.55146-10.54769-37.43092-33.57263-37.43092-20.06613,0-34.08694,16.20712-34.08694,35.88732v.25751c0,21.09543,15.30691,35.63054,36.01645,35.63054,12.47719,0,21.73811-4.88834,28.17005-12.86313l-11.19116-9.90433c-5.40264,5.01672-10.1618,7.0746-16.72142,7.0746-8.74734,0-14.92176-4.63081-16.85052-13.50656h47.97865c.12842-1.80033.25753-3.60143.25753-5.14503ZM521.46419,149.59127c1.54362-8.87572,6.81712-14.66387,14.92098-14.66387,8.23229,0,13.3774,5.91691,14.53513,14.66387h-29.45611Z"
         id="path53" />
      <path
         class="cls-9"
         d="M141.02085,57.90645l-92.26855,63.63235,63.63235,92.26855,92.26855-63.63237-63.63235-92.26853ZM115.63263,172.58598l6.43496-60.38039-31.56462,21.76835-7.87821-11.42363,48.31991-33.32354,6.82788,9.90054-6.43443,60.38011,32.57985-22.46849,7.87861,11.42415-49.33571,34.024-6.82824-9.90108Z"
         id="path54" />
      <path
         class="cls-9"
         d="M137.33303,263.81046c-3.25711,0-5.8174,1.15476-7.68186,3.46229-1.86545,2.30753-2.79818,5.49228-2.79818,9.55425,0,4.25228.89704,7.46875,2.69113,9.65039,1.79409,2.18066,4.39006,3.27198,7.78891,3.27198,1.46996,0,2.89234-.1467,4.26715-.4391,1.3758-.29241,2.80611-.66708,4.29193-1.12601v4.86088c-2.71888,1.02689-5.80154,1.54034-9.24697,1.54034-5.07399,0-8.97043-1.53637-11.68832-4.6111-2.71888-3.07373-4.07882-7.47172-4.07882-13.19396,0-3.60403.66014-6.75805,1.98043-9.46008,1.3193-2.70302,3.22737-4.77365,5.72521-6.2119s5.42983-2.15786,8.79697-2.15786c3.5396,0,6.81158.74341,9.81494,2.22823l-2.03891,4.71815c-1.16962-.55309-2.40665-1.03879-3.71009-1.45807-1.30443-.41829-2.67527-.62843-4.11351-.62843Z"
         id="path55" />
      <path
         class="cls-9"
         d="M188.99079,276.73283c0,5.64294-1.41049,10.02904-4.23146,13.15828-2.82197,3.13023-6.81653,4.69436-11.98568,4.69436-5.23159,0-9.25094-1.55223-12.05605-4.65867-2.80611-3.10545-4.20867-7.5193-4.20867-13.24154s1.41148-10.11626,4.23246-13.18306c2.82098-3.0658,6.84825-4.5992,12.07984-4.5992,5.15329,0,9.13596,1.55719,11.95,4.67057,2.81305,3.11437,4.21957,7.50047,4.21957,13.15927ZM162.5315,276.73283c0,4.26715.86136,7.50344,2.58408,9.70888,1.72272,2.20445,4.27607,3.30766,7.65807,3.30766,3.36713,0,5.9076-1.09132,7.62338-3.27198,1.71479-2.18165,2.57218-5.42983,2.57218-9.74456,0-4.25228-.85046-7.47668-2.54939-9.67418-1.69893-2.19652-4.23146-3.29477-7.5986-3.29477-3.39885,0-5.9631,1.09826-7.69375,3.29477-1.73065,2.19751-2.59597,5.4219-2.59597,9.67418Z"
         id="path56" />
      <path
         class="cls-9"
         d="M230.16951,294.11167h-6.94737l-17.04678-27.62197h-.18932l.11795,1.54133c.22104,2.93992.33205,5.62708.33205,8.06149v18.01916h-5.14437v-34.66351h6.87501l17.0002,27.47924h.14174c-.03172-.36278-.09416-1.68703-.18932-3.97078-.09516-2.28374-.14273-4.06692-.14273-5.34657v-18.16189h5.19294v34.66351Z"
         id="path57" />
      <path
         class="cls-9"
         d="M249.7964,294.11167h-5.61915v-34.66351h19.55949v4.78951h-13.94034v10.83489h13.06312v4.8133h-13.06312v14.22581Z"
         id="path58" />
      <path
         class="cls-9"
         d="M305.65094,276.73283c0,5.64294-1.41049,10.02904-4.23146,13.15828-2.82197,3.13023-6.81653,4.69436-11.98568,4.69436-5.23159,0-9.25094-1.55223-12.05605-4.65867-2.80611-3.10545-4.20867-7.5193-4.20867-13.24154s1.41148-10.11626,4.23246-13.18306c2.82098-3.0658,6.84825-4.5992,12.07984-4.5992,5.15329,0,9.13596,1.55719,11.95,4.67057,2.81305,3.11437,4.21957,7.50047,4.21957,13.15927ZM279.19165,276.73283c0,4.26715.86136,7.50344,2.58408,9.70888,1.72272,2.20445,4.27607,3.30766,7.65807,3.30766,3.36713,0,5.9076-1.09132,7.62338-3.27198,1.71479-2.18165,2.57218-5.42983,2.57218-9.74456,0-4.25228-.85046-7.47668-2.54939-9.67418-1.69893-2.19652-4.23146-3.29477-7.5986-3.29477-3.39885,0-5.9631,1.09826-7.69375,3.29477-1.73065,2.19751-2.59597,5.4219-2.59597,9.67418Z"
         id="path59" />
      <path
         class="cls-9"
         d="M323.61756,280.26549v13.84618h-5.66574v-34.66351h9.79115c4.47332,0,7.78494.83856,9.93487,2.5137,2.14894,1.67514,3.2244,4.2047,3.2244,7.5867,0,4.31473-2.24508,7.38945-6.73327,9.22318l9.79214,15.33992h-6.44979l-8.29839-13.84618h-5.59537ZM323.61756,275.57113h3.93608c2.63959,0,4.55262-.48966,5.7381-1.46996s1.77823-2.43441,1.77823-4.36329c0-1.95962-.64032-3.36614-1.92096-4.21957s-3.20854-1.28064-5.78469-1.28064h-3.74676v11.33346Z"
         id="path60" />
      <path
         class="cls-9"
         d="M368.82752,294.11167l-10.05282-28.9492h-.19031c.26862,4.29986.40342,8.33011.40342,12.09174v16.85746h-5.14437v-34.66351h7.99012l9.62561,27.5744h.14174l9.91108-27.5744h8.01391v34.66351h-5.45362v-17.14194c0-1.72272.04361-3.96681.13084-6.73327.08624-2.76646.16157-4.4416.225-5.02641h-.18932l-10.40867,28.90162h-5.00262Z"
         id="path61" />
      <path
         class="cls-9"
         d="M425.01411,294.11167l-3.4613-9.62561h-13.25442l-3.38993,9.62561h-5.975l12.96896-34.80525h6.16432l12.96896,34.80525h-6.02158ZM420.05906,279.60138l-3.24819-9.43629c-.23789-.63239-.56598-1.62756-.98427-2.9875-.41928-1.35895-.70772-2.35511-.86532-2.9875-.42721,1.94475-1.05167,4.07089-1.87338,6.37842l-3.12924,9.03287h10.1004Z"
         id="path62" />
      <path
         class="cls-9"
         d="M469.34685,294.11167h-6.94737l-17.04678-27.62197h-.18932l.11795,1.54133c.22104,2.93992.33205,5.62708.33205,8.06149v18.01916h-5.14437v-34.66351h6.87501l17.0002,27.47924h.14174c-.03172-.36278-.09416-1.68703-.18932-3.97078-.09516-2.28374-.14273-4.06692-.14273-5.34657v-18.16189h5.19294v34.66351Z"
         id="path63" />
      <path
         class="cls-9"
         d="M495.32738,294.11167h-5.66673v-29.80263h-10.19457v-4.86088h26.05686v4.86088h-10.19556v29.80263Z"
         id="path64" />
      <g
         class="cls-13"
         clip-path="url(#clippath-2)"
         id="g64">
        <polyline
           class="cls-4"
           points="-441.56524 -122.77354 -408.98892 -75.8285 -113.25043 -285.91341 -163.29819 -359.63413 -333.91925 -240.71819 -313.20252 -411.05402 99.13167 -269.60214 -462.5171 126.56334"
           id="polyline64" />
      </g>
      <g
         class="cls-12"
         clip-path="url(#clippath-3)"
         id="g65">
        <polygon
           class="cls-2"
           points="538.57199 -403.66152 741.01006 -406.83358 788.61806 -326.41029 978.24837 -455.29337 910.84869 121.97674 538.57199 -403.66152"
           id="polygon64" />
      </g>
    </g>
  </g>
</svg>
