<?xml version="1.0" encoding="UTF-8"?><svg id="Layer_2" xmlns="http://www.w3.org/2000/svg" xmlns:xlink="http://www.w3.org/1999/xlink" viewBox="0 0 624.23 469.28"><defs><style>.cls-1{fill:none;}.cls-2{clip-path:url(#clippath);}.cls-3{fill:#fff;}.cls-4{fill:#3274f9;}.cls-5{fill:#488eff;}.cls-6{opacity:.9;}</style><clipPath id="clippath"><path class="cls-1" d="M75.46,6.69h473.31c34.98,0,63.35,28.36,63.35,63.35V341.45H12.12V70.03C12.12,35.05,40.48,6.69,75.46,6.69h0Z"/></clipPath></defs><path class="cls-5" d="M608.52,355.22v103.77H15.72v-103.77H608.52m3.6-3.6H12.12v110.97H612.12v-110.97Z"/><g><path class="cls-5" d="M612.12,341.45H12.12V70.03C12.12,35.05,40.48,6.69,75.46,6.69h473.31c34.98,0,63.35,28.36,63.35,63.35"/><g class="cls-2"><g class="cls-6"><path class="cls-4" d="M367.65-134.31L.7,118.75,253.76,485.69l366.94-253.06L367.65-134.31Zm-100.97,456.07l25.59-240.13-125.53,86.57,13.96-37.51-45.29-7.92L327.57-9.75l27.15,39.37-25.59,240.12,129.57-89.35,31.33,45.43-196.2,135.31-27.15-39.38Z"/></g></g><polygon class="cls-3" points="154.48 109.9 154.49 109.9 154.49 109.9 154.48 109.9"/><path class="cls-1" d="M392.29,66.26c.46-.34,.7-.88,.65-1.45v-.05c.06-.61-.22-1.21-.74-1.54-.74-.35-1.55-.51-2.36-.45h-1.01v3.87h1.03c.83,.06,1.66-.08,2.43-.39Z"/><path class="cls-1" d="M484.34,66.11c1.15-.97,1.29-2.69,.32-3.84l-.33-.33c-.84-.55-1.83-.81-2.83-.75h-2.36v5.67h2.39c.99,.06,1.98-.2,2.81-.74Z"/><path class="cls-1" d="M472.05,66.22c1.19-1.07,1.28-2.9,.21-4.09h0s-.02-.03-.03-.04l-.14-.16c-.76-.56-1.7-.84-2.64-.78l-2.83,.04v5.8h2.68c.98,.07,1.95-.2,2.75-.77Z"/><path class="cls-1" d="M346.99,127.71c-11.03,0-17.62,8.49-17.62,18.5v.25c0,10.01,7.22,18.76,17.87,18.76s17.61-8.49,17.61-18.5v-.25c0-10.01-7.22-18.76-17.87-18.76Z"/><polygon class="cls-1" points="409.58 63.9 407.22 69.7 411.93 69.7 409.58 63.9"/><path class="cls-1" d="M255.46,67.16c1.32-1.23,1.4-3.3,.18-4.62-.04-.06-.1-.12-.16-.16-.83-.63-1.86-.95-2.9-.88h-3.21v6.52h3.02c1.09,.07,2.17-.23,3.07-.86Z"/><path class="cls-1" d="M531.13,126.57c-7.98,0-13.18,5.7-14.7,14.45h29.02c-1.14-8.62-6.21-14.45-14.32-14.45Z"/><polygon class="cls-1" points="327.09 63.9 324.72 69.7 329.44 69.7 327.09 63.9"/><path class="cls-1" d="M231.41,73.64c2.85,2.74,7.36,2.74,10.22,0,2.76-2.82,2.76-7.33,0-10.14-2.85-2.74-7.36-2.74-10.22,0-2.8,2.79-2.81,7.32-.02,10.12h0l.02,.02Z"/><path class="cls-1" d="M503.16,72.03c2.48-2.52,2.48-6.56,0-9.08-2.55-2.47-6.6-2.47-9.14,0-2.5,2.5-2.5,6.56,0,9.06h0c1.21,1.22,2.87,1.88,4.58,1.84h0c1.71,.06,3.36-.61,4.57-1.83Z"/><path class="cls-3" d="M466.62,67.96h2.75c1.29,.1,2.57-.27,3.61-1.04,.82-.7,1.27-1.75,1.22-2.83,.06-1.07-.4-2.11-1.22-2.8-1-.75-2.24-1.12-3.49-1.03h-3.99v14.47h1.11v-6.77Zm0-6.77l2.83-.04c.95-.06,1.88,.22,2.64,.78l.14,.16s.02,.03,.03,.04c1.07,1.19,.98,3.02-.21,4.09h0c-.8,.57-1.77,.84-2.75,.77h-2.68v-5.8Z"/><path class="cls-3" d="M479.1,67.81h2c.72-.04,1.44,.13,2.06,.49,.79,.71,1.45,1.55,1.96,2.48l2.52,3.94h1.34l-3.27-5c-.47-.87-1.13-1.63-1.93-2.22,1.62-.39,2.76-1.84,2.75-3.51,.04-1.05-.41-2.06-1.23-2.72-1.03-.74-2.3-1.1-3.57-1.02h-3.7l-.04,14.5h1.11v-6.94Zm.04-6.62h2.36c1-.06,1.99,.2,2.83,.75l.33,.33c.97,1.15,.83,2.87-.32,3.84-.83,.54-1.82,.8-2.81,.74h-2.39v-5.67Z"/><path class="cls-3" d="M504.03,72.75l.18-.18s.06-.06,.08-.09c2.76-2.9,2.64-7.49-.26-10.25h0c-3.05-2.87-7.81-2.87-10.86,0l-.14,.15h0c-2.82,2.91-2.75,7.55,.15,10.37,3.05,2.88,7.81,2.88,10.86,0Zm-10.01-.74c-2.5-2.5-2.5-6.56,0-9.06h0c2.55-2.48,6.6-2.48,9.14,0,2.48,2.52,2.48,6.56,0,9.08-1.2,1.22-2.85,1.88-4.57,1.84h0c-1.71,.03-3.37-.64-4.58-1.85h0Z"/><path class="cls-3" d="M508.85,78.95c.81,0,1.58-.33,2.13-.92,.7-.94,1.02-2.11,.9-3.27v-14.5h-1.11v14.82c0,1.94-.67,2.9-2.03,2.9-.22,0-.44-.03-.65-.07l.1,1.05c.22,0,.44,0,.67,0Z"/><polygon class="cls-3" points="524.87 73.79 517.94 73.79 517.94 67.92 524.53 67.92 524.53 66.97 517.94 66.97 517.94 61.19 524.71 61.19 524.71 60.26 516.82 60.26 516.82 74.72 524.87 74.72 524.87 73.79"/><path class="cls-3" d="M540.93,61.29h0s.04,.02,.06,.03l-.06-.03Z"/><path class="cls-3" d="M535.96,74.93c1.79-.02,3.55-.48,5.12-1.35v-1.16c-1.57,.9-3.34,1.4-5.14,1.45-1.73,.06-3.41-.58-4.65-1.79-1.22-1.21-1.88-2.88-1.81-4.61-.05-1.71,.6-3.37,1.81-4.58,1.18-1.21,2.8-1.88,4.49-1.84,1.81,.05,3.59,.55,5.16,1.45v-1.21c-1.57-.75-3.29-1.16-5.03-1.19-2-.02-3.92,.74-5.35,2.13-.03,.04-.06,.07-.1,.1h0c-2.89,2.9-2.89,7.59,0,10.48,1.47,1.42,3.46,2.19,5.51,2.12Z"/><polygon class="cls-3" points="548.77 74.72 549.9 74.72 549.9 61.19 555.32 61.19 555.32 60.26 543.33 60.26 543.33 61.19 548.77 61.19 548.77 74.72"/><polygon class="cls-3" points="315.17 75.74 315.17 59.71 310.77 59.71 305.83 65.73 300.91 59.71 296.53 59.71 296.53 75.74 301.22 75.74 301.22 66.45 305.59 71.83 305.98 71.83 310.32 66.45 310.32 75.74 315.17 75.74"/><path class="cls-3" d="M323.59,72.49h6.96l1.32,3.25h4.94l-7-16.03h-5.41l-7.09,16.03h4.94l1.33-3.25Zm3.51-8.59l2.35,5.8h-4.72l2.37-5.8Z"/><rect class="cls-3" x="338.95" y="59.71" width="4.82" height="16.03"/><polygon class="cls-3" points="352.62 66.81 360.94 75.74 365.23 75.74 365.23 59.71 360.41 59.71 360.41 68.59 352.13 59.71 347.84 59.71 347.84 75.74 352.62 75.74 352.62 66.81"/><polygon class="cls-3" points="374.09 69.25 380.74 69.25 380.74 66.03 374.09 66.03 374.09 62.93 380.74 62.93 380.74 59.71 369.26 59.71 369.26 75.74 374.09 75.74 374.09 69.25"/><path class="cls-3" d="M390.73,69.64c.44,.21,.81,.53,1.08,.93,.49,.71,.91,1.48,1.25,2.28l1.26,2.9h5.19l-1.58-3.51c-.38-.88-.86-1.71-1.42-2.48-.35-.43-.79-.8-1.28-1.07,.41-.22,.8-.46,1.17-.73,.41-.33,.75-.75,.99-1.22,.33-.63,.49-1.34,.46-2.06-.01-.77-.2-1.52-.55-2.2-.42-.81-1.06-1.49-1.84-1.96-.99-.58-2.12-.86-3.26-.81h-8.22v15.99h4.84v-6.26h.54c.46-.01,.93,.06,1.36,.2Zm-1.9-6.85h1.01c.81-.06,1.63,.1,2.36,.45,.52,.33,.8,.92,.74,1.54v.05c.05,.56-.2,1.11-.65,1.45-.77,.32-1.6,.45-2.43,.39h-1.03v-3.87Z"/><path class="cls-3" d="M406.09,72.49h6.96l1.3,3.25h4.94l-7.06-16.03h-5.35l-7.09,16.03h4.96l1.33-3.25Zm3.49-8.59l2.35,5.8h-4.71l2.36-5.8Z"/><polygon class="cls-3" points="426.12 66.45 430.5 71.83 430.87 71.83 435.24 66.45 435.24 75.74 440.06 75.74 440.06 59.71 435.69 59.71 430.73 65.73 425.82 59.71 421.42 59.71 421.42 75.74 426.12 75.74 426.12 66.45"/><polygon class="cls-3" points="456.2 72.51 448.95 72.51 448.95 69.09 455.67 69.09 455.67 65.86 448.95 65.86 448.95 62.93 455.99 62.93 455.99 59.71 444.11 59.71 444.11 75.74 456.2 75.74 456.2 72.51"/><path class="cls-3" d="M242.59,74.45l.2-.2s.02-.03,.04-.04c3.13-3.26,3.02-8.43-.24-11.56-1.61-1.6-3.81-2.47-6.07-2.41v.04c-2.26-.05-4.44,.82-6.05,2.41l-.16,.16c-3.16,3.25-3.08,8.43,.16,11.59,3.4,3.21,8.72,3.21,12.12,0Zm-11.19-10.95c2.85-2.74,7.36-2.74,10.22,0,2.76,2.82,2.76,7.33,0,10.14-2.85,2.74-7.36,2.74-10.22,0l-.02-.02c-2.79-2.8-2.79-7.33,.01-10.12h0Z"/><path class="cls-3" d="M249.3,69.06h3.09c1.44,.1,2.86-.32,4.01-1.17,1.76-1.53,1.94-4.2,.41-5.96-.1-.11-.21-.22-.32-.33-1.13-.83-2.51-1.23-3.91-1.15h-4.45l-.07,16.13h1.24v-7.52Zm.07-7.57h3.21c1.04-.06,2.07,.25,2.9,.88,.06,.04,.12,.1,.16,.16,1.23,1.33,1.15,3.39-.18,4.62-.9,.62-1.98,.93-3.07,.86h-3.02v-6.52Z"/><polygon class="cls-3" points="269.25 75.57 261.49 75.57 261.49 69 268.86 69 268.86 67.96 261.49 67.96 261.49 61.5 269.06 61.5 269.06 60.45 260.25 60.45 260.25 76.61 269.25 76.61 269.25 75.57"/><polygon class="cls-3" points="273.06 62.48 285.34 76.61 286.37 76.61 286.37 60.45 285.12 60.45 285.12 74.57 272.87 60.45 271.82 60.45 271.82 76.61 273.06 76.61 273.06 62.48"/><polygon class="cls-3" points="227.99 108.7 275.26 108.7 226.47 165.48 226.47 180.3 300.36 180.3 300.36 163.2 251.57 163.2 300.36 106.42 300.36 91.59 227.99 91.59 227.99 108.7"/><path class="cls-3" d="M347.25,111.11c-21.16,0-36.88,15.84-36.88,35.36v.25c0,19.52,15.59,35.1,36.62,35.1s36.88-15.84,36.88-35.36v-.25c0-19.52-15.59-35.1-36.62-35.1Zm17.61,35.61c0,10.01-6.59,18.5-17.61,18.5s-17.87-8.74-17.87-18.76v-.25c0-10.01,6.59-18.5,17.62-18.5s17.87,8.74,17.87,18.76v.25Z"/><polygon class="cls-3" points="461.94 153.69 449.01 112.12 432.41 112.12 419.61 153.56 408.71 112.38 389.19 112.38 410.1 180.81 427.34 180.81 440.65 139.12 453.7 180.81 471.06 180.81 492.23 112.38 473.09 112.38 461.94 153.69"/><path class="cls-3" d="M564.21,147.99c0-19.26-10.39-36.88-33.08-36.88-19.77,0-33.58,15.97-33.58,35.36v.25c0,20.78,15.08,35.1,35.48,35.1,12.29,0,21.42-4.82,27.75-12.67l-11.03-9.76c-5.32,4.94-10.01,6.97-16.47,6.97-8.62,0-14.7-4.56-16.6-13.31h47.27c.13-1.77,.25-3.55,.25-5.07Zm-47.78-6.97c1.52-8.74,6.72-14.45,14.7-14.45s13.18,5.83,14.32,14.45h-29.02Z"/><path class="cls-3" d="M141.61,50.69L50.7,113.38l62.69,90.91,90.91-62.69-62.69-90.91Zm-25.01,112.99l6.34-59.49-31.1,21.45-7.76-11.25,47.61-32.83,6.73,9.75-6.34,59.49,32.1-22.14,7.76,11.26-48.61,33.52-6.73-9.75Z"/><path class="cls-3" d="M137.98,253.55c-3.21,0-5.73,1.14-7.57,3.41-1.84,2.27-2.76,5.41-2.76,9.41s.88,7.36,2.65,9.51c1.77,2.15,4.33,3.22,7.67,3.22,1.45,0,2.85-.14,4.2-.43,1.36-.29,2.76-.66,4.23-1.11v4.79c-2.68,1.01-5.72,1.52-9.11,1.52-5,0-8.84-1.51-11.52-4.54-2.68-3.03-4.02-7.36-4.02-13,0-3.55,.65-6.66,1.95-9.32,1.3-2.66,3.18-4.7,5.64-6.12s5.35-2.13,8.67-2.13c3.49,0,6.71,.73,9.67,2.2l-2.01,4.65c-1.15-.54-2.37-1.02-3.66-1.44-1.29-.41-2.64-.62-4.05-.62Z"/><path class="cls-3" d="M188.87,266.28c0,5.56-1.39,9.88-4.17,12.96-2.78,3.08-6.72,4.62-11.81,4.62s-9.11-1.53-11.88-4.59c-2.76-3.06-4.15-7.41-4.15-13.05s1.39-9.97,4.17-12.99c2.78-3.02,6.75-4.53,11.9-4.53s9,1.53,11.77,4.6c2.77,3.07,4.16,7.39,4.16,12.96Zm-26.07,0c0,4.2,.85,7.39,2.55,9.57,1.7,2.17,4.21,3.26,7.54,3.26s5.82-1.08,7.51-3.22c1.69-2.15,2.53-5.35,2.53-9.6s-.84-7.37-2.51-9.53c-1.67-2.16-4.17-3.25-7.49-3.25s-5.88,1.08-7.58,3.25c-1.71,2.17-2.56,5.34-2.56,9.53Z"/><path class="cls-3" d="M229.44,283.4h-6.84l-16.79-27.21h-.19l.12,1.52c.22,2.9,.33,5.54,.33,7.94v17.75h-5.07v-34.15h6.77l16.75,27.07h.14c-.03-.36-.09-1.66-.19-3.91s-.14-4.01-.14-5.27v-17.89h5.12v34.15Z"/><path class="cls-3" d="M248.78,283.4h-5.54v-34.15h19.27v4.72h-13.73v10.67h12.87v4.74h-12.87v14.02Z"/><path class="cls-3" d="M303.81,266.28c0,5.56-1.39,9.88-4.17,12.96-2.78,3.08-6.72,4.62-11.81,4.62s-9.11-1.53-11.88-4.59c-2.76-3.06-4.15-7.41-4.15-13.05s1.39-9.97,4.17-12.99c2.78-3.02,6.75-4.53,11.9-4.53s9,1.53,11.77,4.6c2.77,3.07,4.16,7.39,4.16,12.96Zm-26.07,0c0,4.2,.85,7.39,2.55,9.57,1.7,2.17,4.21,3.26,7.54,3.26s5.82-1.08,7.51-3.22c1.69-2.15,2.53-5.35,2.53-9.6s-.84-7.37-2.51-9.53c-1.67-2.16-4.17-3.25-7.49-3.25s-5.88,1.08-7.58,3.25c-1.71,2.17-2.56,5.34-2.56,9.53Z"/><path class="cls-3" d="M321.51,269.76v13.64h-5.58v-34.15h9.65c4.41,0,7.67,.83,9.79,2.48,2.12,1.65,3.18,4.14,3.18,7.47,0,4.25-2.21,7.28-6.63,9.09l9.65,15.11h-6.35l-8.18-13.64h-5.51Zm0-4.62h3.88c2.6,0,4.49-.48,5.65-1.45s1.75-2.4,1.75-4.3-.63-3.32-1.89-4.16-3.16-1.26-5.7-1.26h-3.69v11.17Z"/><path class="cls-3" d="M366.05,283.4l-9.9-28.52h-.19c.26,4.24,.4,8.21,.4,11.91v16.61h-5.07v-34.15h7.87l9.48,27.17h.14l9.76-27.17h7.9v34.15h-5.37v-16.89c0-1.7,.04-3.91,.13-6.63,.08-2.73,.16-4.38,.22-4.95h-.19l-10.25,28.47h-4.93Z"/><path class="cls-3" d="M421.41,283.4l-3.41-9.48h-13.06l-3.34,9.48h-5.89l12.78-34.29h6.07l12.78,34.29h-5.93Zm-4.88-14.3l-3.2-9.3c-.23-.62-.56-1.6-.97-2.94-.41-1.34-.7-2.32-.85-2.94-.42,1.92-1.04,4.01-1.85,6.28l-3.08,8.9h9.95Z"/><path class="cls-3" d="M465.08,283.4h-6.84l-16.79-27.21h-.19l.12,1.52c.22,2.9,.33,5.54,.33,7.94v17.75h-5.07v-34.15h6.77l16.75,27.07h.14c-.03-.36-.09-1.66-.19-3.91s-.14-4.01-.14-5.27v-17.89h5.12v34.15Z"/><path class="cls-3" d="M490.68,283.4h-5.58v-29.36h-10.04v-4.79h25.67v4.79h-10.04v29.36Z"/></g><g><path class="cls-5" d="M33.81,401.11h-10.69v-18.56h10.69v3.22h-6.75v4.08h6.28v3.22h-6.28v4.79h6.75v3.25Z"/><path class="cls-5" d="M55.29,401.11h-4.49l-4.32-7.02-4.32,7.02h-4.21l6.16-9.57-5.76-8.99h4.34l4,6.68,3.92-6.68h4.24l-5.83,9.2,6.27,9.36Z"/><path class="cls-5" d="M73.04,388.34c0,2-.62,3.53-1.87,4.58-1.25,1.06-3.02,1.59-5.33,1.59h-1.69v6.6h-3.94v-18.56h5.93c2.25,0,3.96,.48,5.14,1.45,1.17,.97,1.76,2.42,1.76,4.34Zm-8.89,2.95h1.29c1.21,0,2.12-.24,2.72-.72,.6-.48,.9-1.17,.9-2.09s-.25-1.6-.75-2.04c-.5-.44-1.29-.66-2.37-.66h-1.79v5.51Z"/><path class="cls-5" d="M79.15,401.11v-18.56h3.94v15.31h7.53v3.25h-11.46Z"/><path class="cls-5" d="M113.28,391.8c0,3.07-.76,5.43-2.29,7.08s-3.71,2.48-6.55,2.48-5.03-.83-6.55-2.48-2.29-4.02-2.29-7.11,.76-5.45,2.29-7.08c1.53-1.63,3.72-2.44,6.57-2.44s5.03,.82,6.54,2.46c1.51,1.64,2.27,4,2.27,7.08Zm-13.55,0c0,2.07,.39,3.63,1.18,4.68s1.96,1.57,3.53,1.57c3.14,0,4.71-2.09,4.71-6.26s-1.56-6.27-4.68-6.27c-1.57,0-2.75,.53-3.54,1.58-.8,1.05-1.19,2.62-1.19,4.69Z"/><path class="cls-5" d="M123.67,393.99v7.12h-3.94v-18.56h5.41c2.52,0,4.39,.46,5.6,1.38,1.21,.92,1.82,2.31,1.82,4.18,0,1.09-.3,2.06-.9,2.91-.6,.85-1.45,1.52-2.55,2,2.79,4.17,4.61,6.87,5.46,8.09h-4.37l-4.43-7.12h-2.09Zm0-3.2h1.27c1.24,0,2.16-.21,2.75-.62s.89-1.07,.89-1.96-.3-1.51-.91-1.88c-.61-.37-1.54-.56-2.81-.56h-1.19v5.01Z"/><path class="cls-5" d="M150.18,401.11h-10.69v-18.56h10.69v3.22h-6.75v4.08h6.28v3.22h-6.28v4.79h6.75v3.25Z"/><path class="cls-5" d="M160.59,393.99v7.12h-3.94v-18.56h5.41c2.52,0,4.39,.46,5.6,1.38,1.21,.92,1.82,2.31,1.82,4.18,0,1.09-.3,2.06-.9,2.91-.6,.85-1.45,1.52-2.55,2,2.79,4.17,4.61,6.87,5.46,8.09h-4.37l-4.43-7.12h-2.09Zm0-3.2h1.27c1.24,0,2.16-.21,2.75-.62s.89-1.07,.89-1.96-.3-1.51-.91-1.88c-.61-.37-1.54-.56-2.81-.56h-1.19v5.01Z"/><path class="cls-5" d="M189.65,401.11h-3.87v-18.56h10.64v3.22h-6.77v4.79h6.3v3.21h-6.3v7.34Z"/><path class="cls-5" d="M219.49,391.8c0,3.07-.76,5.43-2.29,7.08s-3.71,2.48-6.55,2.48-5.03-.83-6.55-2.48-2.29-4.02-2.29-7.11,.76-5.45,2.29-7.08c1.53-1.63,3.72-2.44,6.57-2.44s5.03,.82,6.54,2.46c1.51,1.64,2.27,4,2.27,7.08Zm-13.55,0c0,2.07,.39,3.63,1.18,4.68s1.96,1.57,3.53,1.57c3.14,0,4.71-2.09,4.71-6.26s-1.56-6.27-4.68-6.27c-1.57,0-2.75,.53-3.54,1.58-.8,1.05-1.19,2.62-1.19,4.69Z"/><path class="cls-5" d="M229.87,393.99v7.12h-3.94v-18.56h5.41c2.52,0,4.39,.46,5.6,1.38,1.21,.92,1.82,2.31,1.82,4.18,0,1.09-.3,2.06-.9,2.91-.6,.85-1.45,1.52-2.55,2,2.79,4.17,4.61,6.87,5.46,8.09h-4.37l-4.43-7.12h-2.09Zm0-3.2h1.27c1.24,0,2.16-.21,2.75-.62s.89-1.07,.89-1.96-.3-1.51-.91-1.88c-.61-.37-1.54-.56-2.81-.56h-1.19v5.01Z"/><path class="cls-5" d="M265.64,382.55h3.97l-6.31,18.56h-4.29l-6.3-18.56h3.97l3.49,11.04c.19,.65,.4,1.41,.6,2.28,.21,.87,.34,1.47,.39,1.81,.09-.78,.41-2.14,.95-4.09l3.52-11.04Z"/><path class="cls-5" d="M274.55,401.11v-18.56h3.94v18.56h-3.94Z"/><path class="cls-5" d="M296.72,395.95c0,1.68-.6,3-1.81,3.96-1.21,.96-2.88,1.45-5.03,1.45-1.98,0-3.73-.37-5.26-1.12v-3.66c1.25,.56,2.31,.95,3.18,1.18,.87,.23,1.66,.34,2.38,.34,.86,0,1.53-.17,1.99-.5,.46-.33,.69-.82,.69-1.47,0-.36-.1-.69-.3-.97-.2-.28-.5-.56-.9-.82-.39-.26-1.2-.68-2.41-1.26-1.13-.53-1.98-1.04-2.55-1.54s-1.02-1.06-1.36-1.71-.51-1.41-.51-2.29c0-1.64,.56-2.93,1.67-3.87,1.11-.94,2.65-1.41,4.62-1.41,.96,0,1.88,.11,2.76,.34,.88,.23,1.79,.55,2.75,.96l-1.27,3.06c-.99-.41-1.81-.69-2.46-.85-.65-.16-1.28-.24-1.91-.24-.75,0-1.32,.17-1.71,.52s-.6,.8-.6,1.36c0,.35,.08,.65,.24,.91,.16,.26,.42,.51,.77,.75,.35,.24,1.18,.67,2.49,1.3,1.74,.83,2.92,1.66,3.57,2.49,.64,.83,.96,1.86,.96,3.07Z"/><path class="cls-5" d="M317.79,382.55v12.01c0,1.37-.31,2.57-.92,3.61-.61,1.03-1.5,1.82-2.66,2.37s-2.53,.83-4.11,.83c-2.39,0-4.24-.61-5.56-1.83-1.32-1.22-1.98-2.9-1.98-5.02v-11.96h3.92v11.36c0,1.43,.29,2.48,.86,3.15s1.53,1,2.86,1,2.22-.34,2.8-1.01c.58-.67,.87-1.73,.87-3.17v-11.34h3.92Z"/><path class="cls-5" d="M336.29,401.11l-1.35-4.42h-6.77l-1.35,4.42h-4.24l6.55-18.64h4.81l6.58,18.64h-4.24Zm-2.29-7.72c-1.24-4-1.94-6.27-2.1-6.79-.16-.52-.27-.94-.34-1.24-.28,1.08-1.08,3.76-2.4,8.04h4.84Z"/><path class="cls-5" d="M345.47,401.11v-18.56h3.94v15.31h7.53v3.25h-11.46Z"/><path class="cls-5" d="M383.07,395.95c0,1.68-.6,3-1.81,3.96-1.21,.96-2.88,1.45-5.03,1.45-1.98,0-3.73-.37-5.26-1.12v-3.66c1.25,.56,2.31,.95,3.18,1.18,.87,.23,1.66,.34,2.38,.34,.86,0,1.53-.17,1.99-.5,.46-.33,.69-.82,.69-1.47,0-.36-.1-.69-.3-.97-.2-.28-.5-.56-.9-.82-.39-.26-1.2-.68-2.41-1.26-1.13-.53-1.98-1.04-2.55-1.54s-1.02-1.06-1.36-1.71-.51-1.41-.51-2.29c0-1.64,.56-2.93,1.67-3.87,1.11-.94,2.65-1.41,4.62-1.41,.96,0,1.88,.11,2.76,.34,.88,.23,1.79,.55,2.75,.96l-1.27,3.06c-.99-.41-1.81-.69-2.46-.85-.65-.16-1.28-.24-1.91-.24-.75,0-1.32,.17-1.71,.52s-.6,.8-.6,1.36c0,.35,.08,.65,.24,.91,.16,.26,.42,.51,.77,.75,.35,.24,1.18,.67,2.49,1.3,1.74,.83,2.92,1.66,3.57,2.49,.64,.83,.96,1.86,.96,3.07Z"/><path class="cls-5" d="M396.19,401.11h-3.94v-15.29h-5.04v-3.28h14.02v3.28h-5.04v15.29Z"/><path class="cls-5" d="M421.8,382.55v12.01c0,1.37-.31,2.57-.92,3.61-.61,1.03-1.5,1.82-2.66,2.37s-2.53,.83-4.11,.83c-2.39,0-4.24-.61-5.56-1.83-1.32-1.22-1.98-2.9-1.98-5.02v-11.96h3.92v11.36c0,1.43,.29,2.48,.86,3.15s1.53,1,2.86,1,2.22-.34,2.8-1.01c.58-.67,.87-1.73,.87-3.17v-11.34h3.92Z"/><path class="cls-5" d="M444.34,391.65c0,3.06-.87,5.4-2.61,7.02-1.74,1.62-4.25,2.44-7.54,2.44h-5.26v-18.56h5.83c3.03,0,5.38,.8,7.06,2.4s2.51,3.83,2.51,6.7Zm-4.09,.1c0-3.99-1.76-5.98-5.28-5.98h-2.09v12.09h1.69c3.79,0,5.69-2.04,5.69-6.11Z"/><path class="cls-5" d="M450.79,401.11v-18.56h3.94v18.56h-3.94Z"/><path class="cls-5" d="M478.84,391.8c0,3.07-.76,5.43-2.29,7.08s-3.71,2.48-6.55,2.48-5.03-.83-6.55-2.48-2.29-4.02-2.29-7.11,.76-5.45,2.29-7.08c1.53-1.63,3.72-2.44,6.57-2.44s5.03,.82,6.54,2.46c1.51,1.64,2.27,4,2.27,7.08Zm-13.55,0c0,2.07,.39,3.63,1.18,4.68s1.96,1.57,3.53,1.57c3.14,0,4.71-2.09,4.71-6.26s-1.56-6.27-4.68-6.27c-1.57,0-2.75,.53-3.54,1.58-.8,1.05-1.19,2.62-1.19,4.69Z"/><path class="cls-5" d="M502.53,385.56c-1.48,0-2.63,.56-3.44,1.67-.81,1.11-1.22,2.66-1.22,4.65,0,4.14,1.55,6.21,4.66,6.21,1.3,0,2.88-.33,4.74-.98v3.3c-1.52,.63-3.22,.95-5.1,.95-2.7,0-4.76-.82-6.2-2.46-1.43-1.64-2.15-3.99-2.15-7.05,0-1.93,.35-3.62,1.05-5.07,.7-1.45,1.71-2.56,3.03-3.34,1.32-.77,2.86-1.16,4.63-1.16s3.61,.44,5.43,1.31l-1.27,3.2c-.69-.33-1.39-.62-2.09-.86s-1.39-.37-2.07-.37Z"/><path class="cls-5" d="M530.66,391.8c0,3.07-.76,5.43-2.29,7.08s-3.71,2.48-6.55,2.48-5.03-.83-6.55-2.48-2.29-4.02-2.29-7.11,.76-5.45,2.29-7.08c1.53-1.63,3.72-2.44,6.57-2.44s5.03,.82,6.54,2.46c1.51,1.64,2.27,4,2.27,7.08Zm-13.55,0c0,2.07,.39,3.63,1.18,4.68s1.96,1.57,3.53,1.57c3.14,0,4.71-2.09,4.71-6.26s-1.56-6.27-4.68-6.27c-1.57,0-2.75,.53-3.54,1.58-.8,1.05-1.19,2.62-1.19,4.69Z"/><path class="cls-5" d="M552.5,391.65c0,3.06-.87,5.4-2.61,7.02-1.74,1.62-4.25,2.44-7.54,2.44h-5.26v-18.56h5.83c3.03,0,5.38,.8,7.06,2.4s2.51,3.83,2.51,6.7Zm-4.09,.1c0-3.99-1.76-5.98-5.28-5.98h-2.09v12.09h1.69c3.79,0,5.69-2.04,5.69-6.11Z"/><path class="cls-5" d="M569.64,401.11h-10.69v-18.56h10.69v3.22h-6.75v4.08h6.28v3.22h-6.28v4.79h6.75v3.25Z"/><path class="cls-5" d="M583.9,395.73v-3.17h6.82v3.17h-6.82Z"/><path class="cls-5" d="M260.48,432.31h-13.81v-2.55l8.9-12.76h-8.66v-3.25h13.33v2.54l-8.89,12.77h9.13v3.25Z"/><path class="cls-5" d="M282.88,423c0,3.07-.76,5.43-2.29,7.08s-3.71,2.48-6.55,2.48-5.03-.83-6.55-2.48-2.29-4.02-2.29-7.11,.76-5.45,2.29-7.08c1.53-1.63,3.72-2.44,6.57-2.44s5.03,.82,6.54,2.46c1.51,1.64,2.27,4,2.27,7.08Zm-13.55,0c0,2.07,.39,3.63,1.18,4.68s1.96,1.57,3.53,1.57c3.14,0,4.71-2.09,4.71-6.26s-1.56-6.27-4.68-6.27c-1.57,0-2.75,.53-3.54,1.58-.8,1.05-1.19,2.62-1.19,4.69Z"/><path class="cls-5" d="M307.41,432.31h-4.48l-2.51-9.75c-.09-.35-.25-1.06-.48-2.15-.22-1.09-.35-1.82-.39-2.19-.05,.46-.18,1.19-.38,2.2-.2,1.01-.36,1.73-.47,2.16l-2.5,9.72h-4.47l-4.74-18.56h3.87l2.37,10.13c.42,1.87,.71,3.49,.9,4.86,.05-.48,.17-1.23,.35-2.24,.18-1.01,.35-1.8,.51-2.35l2.7-10.4h3.72l2.7,10.4c.12,.47,.27,1.18,.44,2.13s.31,1.78,.41,2.46c.08-.66,.22-1.48,.41-2.47,.19-.99,.36-1.78,.51-2.39l2.36-10.13h3.87l-4.72,18.56Z"/><path class="cls-5" d="M327.76,432.31h-10.69v-18.56h10.69v3.22h-6.75v4.08h6.28v3.22h-6.28v4.79h6.75v3.25Z"/><path class="cls-5" d="M354.17,413.75h3.97l-6.31,18.56h-4.29l-6.3-18.56h3.97l3.49,11.04c.19,.65,.4,1.41,.6,2.28,.21,.87,.34,1.47,.39,1.81,.09-.78,.41-2.14,.95-4.09l3.52-11.04Z"/><path class="cls-5" d="M374.76,432.31h-12.97v-2.73l4.66-4.71c1.38-1.41,2.28-2.39,2.7-2.94,.42-.54,.73-1.05,.91-1.52s.28-.95,.28-1.45c0-.75-.21-1.3-.62-1.66-.41-.36-.96-.55-1.64-.55-.72,0-1.42,.17-2.09,.5s-1.38,.8-2.12,1.41l-2.13-2.53c.91-.78,1.67-1.33,2.27-1.65s1.26-.57,1.97-.74c.71-.17,1.51-.26,2.39-.26,1.16,0,2.18,.21,3.07,.63s1.58,1.02,2.07,1.78,.74,1.63,.74,2.62c0,.85-.15,1.66-.45,2.41-.3,.75-.77,1.52-1.4,2.3-.63,.79-1.74,1.91-3.33,3.36l-2.39,2.25v.18h8.09v3.3Z"/></g></svg>