<?xml version="1.0" encoding="UTF-8"?><svg id="a" xmlns="http://www.w3.org/2000/svg" xmlns:xlink="http://www.w3.org/1999/xlink" viewBox="0 0 624.24 469.28"><defs><style>.c{fill:none;}.d{fill:#fff;}.e{fill:#3274f9;}.f{fill:#488eff;}.g{opacity:.9;}.h{clip-path:url(#b);}</style><clipPath id="b"><path class="c" d="M75.3,7.38h473.31c34.98,0,63.35,28.36,63.35,63.35V342.14H11.96V70.72C11.96,35.74,40.32,7.38,75.3,7.38h0Z"/></clipPath></defs><path class="f" d="M611.96,342.14H11.96V70.72C11.96,35.74,40.32,7.38,75.3,7.38h473.31c34.98,0,63.35,28.36,63.35,63.35"/><path class="f" d="M608.36,355.91v103.77H15.56v-103.77H608.36m3.6-3.6H11.96v110.97H611.96v-110.97Z"/><g class="h"><g class="g"><path class="e" d="M367.49-133.62L.55,119.44,253.6,486.38l366.94-253.06L367.49-133.62Zm-100.97,456.07l25.59-240.13-125.53,86.57,13.96-37.51-45.29-7.92L327.42-9.07l27.15,39.37-25.59,240.12,129.57-89.35,31.33,45.43-196.2,135.31-27.15-39.38Z"/></g></g><polygon class="d" points="154.33 110.59 154.33 110.59 154.33 110.59 154.33 110.59"/><path class="c" d="M392.13,66.95c.46-.34,.7-.88,.65-1.45v-.05c.06-.61-.22-1.21-.74-1.54-.74-.35-1.55-.51-2.36-.45h-1.01v3.87h1.03c.83,.06,1.66-.08,2.43-.39Z"/><path class="c" d="M484.19,66.8c1.15-.97,1.29-2.69,.32-3.84l-.33-.33c-.84-.55-1.83-.81-2.83-.75h-2.36v5.67h2.39c.99,.06,1.98-.2,2.81-.74Z"/><path class="c" d="M471.89,66.91c1.19-1.07,1.28-2.9,.21-4.09h0s-.02-.03-.03-.04l-.14-.16c-.76-.56-1.7-.84-2.64-.78l-2.83,.04v5.8h2.68c.98,.07,1.95-.2,2.75-.77Z"/><path class="c" d="M346.84,128.4c-11.03,0-17.62,8.49-17.62,18.5v.25c0,10.01,7.22,18.76,17.87,18.76s17.61-8.49,17.61-18.5v-.25c0-10.01-7.22-18.76-17.87-18.76Z"/><polygon class="c" points="409.42 64.59 407.06 70.39 411.77 70.39 409.42 64.59"/><path class="c" d="M255.31,67.85c1.32-1.23,1.4-3.3,.18-4.62-.04-.06-.1-.12-.16-.16-.83-.63-1.86-.95-2.9-.88h-3.21v6.52h3.02c1.09,.07,2.17-.23,3.07-.86Z"/><path class="c" d="M530.97,127.26c-7.98,0-13.18,5.7-14.7,14.45h29.02c-1.14-8.62-6.21-14.45-14.32-14.45Z"/><polygon class="c" points="326.94 64.59 324.56 70.39 329.29 70.39 326.94 64.59"/><path class="c" d="M231.25,74.33c2.85,2.74,7.36,2.74,10.22,0,2.76-2.82,2.76-7.33,0-10.14-2.85-2.74-7.36-2.74-10.22,0-2.8,2.79-2.81,7.32-.02,10.12h0l.02,.02Z"/><path class="c" d="M503,72.72c2.48-2.52,2.48-6.56,0-9.08-2.55-2.47-6.6-2.47-9.14,0-2.5,2.5-2.5,6.56,0,9.06h0c1.21,1.22,2.87,1.88,4.58,1.84h0c1.71,.06,3.36-.61,4.57-1.83Z"/><path class="d" d="M466.46,68.64h2.75c1.29,.1,2.57-.27,3.61-1.04,.82-.7,1.27-1.75,1.22-2.83,.06-1.07-.4-2.11-1.22-2.8-1-.75-2.24-1.12-3.49-1.03h-3.99v14.47h1.11v-6.77Zm0-6.77l2.83-.04c.95-.06,1.88,.22,2.64,.78l.14,.16s.02,.03,.03,.04c1.07,1.19,.98,3.02-.21,4.09h0c-.8,.57-1.77,.84-2.75,.77h-2.68v-5.8Z"/><path class="d" d="M478.94,68.5h2c.72-.04,1.44,.13,2.06,.49,.79,.71,1.45,1.55,1.96,2.48l2.52,3.94h1.34l-3.27-5c-.47-.87-1.13-1.63-1.93-2.22,1.62-.39,2.76-1.84,2.75-3.51,.04-1.05-.41-2.06-1.23-2.72-1.03-.74-2.3-1.1-3.57-1.02h-3.7l-.04,14.5h1.11v-6.94Zm.04-6.62h2.36c1-.06,1.99,.2,2.83,.75l.33,.33c.97,1.15,.83,2.87-.32,3.84-.83,.54-1.82,.8-2.81,.74h-2.39v-5.67Z"/><path class="d" d="M503.87,73.44l.18-.18s.06-.06,.08-.09c2.76-2.9,2.64-7.49-.26-10.25h0c-3.05-2.87-7.81-2.87-10.86,0l-.14,.15h0c-2.82,2.91-2.75,7.55,.15,10.37,3.05,2.88,7.81,2.88,10.86,0Zm-10.01-.74c-2.5-2.5-2.5-6.56,0-9.06h0c2.55-2.48,6.6-2.48,9.14,0,2.48,2.52,2.48,6.56,0,9.08-1.2,1.22-2.85,1.88-4.57,1.84h0c-1.71,.03-3.37-.64-4.58-1.85h0Z"/><path class="d" d="M508.69,79.64c.81,0,1.58-.33,2.13-.92,.7-.94,1.02-2.11,.9-3.27v-14.5h-1.11v14.82c0,1.94-.67,2.9-2.03,2.9-.22,0-.44-.03-.65-.07l.1,1.05c.22,0,.44,0,.67,0Z"/><polygon class="d" points="524.71 74.47 517.79 74.47 517.79 68.6 524.38 68.6 524.38 67.66 517.79 67.66 517.79 61.88 524.55 61.88 524.55 60.95 516.67 60.95 516.67 75.41 524.71 75.41 524.71 74.47"/><path class="d" d="M540.77,61.98h0s.04,.02,.06,.03l-.06-.03Z"/><path class="d" d="M535.8,75.62c1.79-.02,3.55-.48,5.12-1.35v-1.16c-1.57,.9-3.34,1.4-5.14,1.45-1.73,.06-3.41-.58-4.65-1.79-1.22-1.21-1.88-2.88-1.81-4.61-.05-1.71,.6-3.37,1.81-4.58,1.18-1.21,2.8-1.88,4.49-1.84,1.81,.05,3.59,.55,5.16,1.45v-1.21c-1.57-.75-3.29-1.16-5.03-1.19-2-.02-3.92,.74-5.35,2.13-.03,.04-.06,.07-.1,.1h0c-2.89,2.9-2.89,7.59,0,10.48,1.47,1.42,3.46,2.19,5.51,2.12Z"/><polygon class="d" points="548.61 75.41 549.74 75.41 549.74 61.88 555.16 61.88 555.16 60.95 543.18 60.95 543.18 61.88 548.61 61.88 548.61 75.41"/><polygon class="d" points="315.01 76.43 315.01 60.4 310.62 60.4 305.68 66.42 300.75 60.4 296.37 60.4 296.37 76.43 301.06 76.43 301.06 67.14 305.43 72.52 305.82 72.52 310.17 67.14 310.17 76.43 315.01 76.43"/><path class="d" d="M323.43,73.18h6.96l1.32,3.25h4.94l-7-16.03h-5.41l-7.09,16.03h4.94l1.33-3.25Zm3.51-8.59l2.35,5.8h-4.72l2.37-5.8Z"/><rect class="d" x="338.8" y="60.4" width="4.82" height="16.03"/><polygon class="d" points="352.46 67.5 360.78 76.43 365.07 76.43 365.07 60.4 360.26 60.4 360.26 69.28 351.97 60.4 347.68 60.4 347.68 76.43 352.46 76.43 352.46 67.5"/><polygon class="d" points="373.93 69.94 380.58 69.94 380.58 66.72 373.93 66.72 373.93 63.62 380.58 63.62 380.58 60.4 369.1 60.4 369.1 76.43 373.93 76.43 373.93 69.94"/><path class="d" d="M390.57,70.33c.44,.21,.81,.53,1.08,.93,.49,.71,.91,1.48,1.25,2.28l1.26,2.9h5.19l-1.58-3.51c-.38-.88-.86-1.71-1.42-2.48-.35-.43-.79-.8-1.28-1.07,.41-.22,.8-.46,1.17-.73,.41-.33,.75-.75,.99-1.22,.33-.63,.49-1.34,.46-2.06-.01-.77-.2-1.52-.55-2.2-.42-.81-1.06-1.49-1.84-1.96-.99-.58-2.12-.86-3.26-.81h-8.22v15.99h4.84v-6.26h.54c.46-.01,.93,.06,1.36,.2Zm-1.9-6.85h1.01c.81-.06,1.63,.1,2.36,.45,.52,.33,.8,.92,.74,1.54v.05c.05,.56-.2,1.11-.65,1.45-.77,.32-1.6,.45-2.43,.39h-1.03v-3.87Z"/><path class="d" d="M405.93,73.18h6.96l1.3,3.25h4.94l-7.06-16.03h-5.35l-7.09,16.03h4.96l1.33-3.25Zm3.49-8.59l2.35,5.8h-4.71l2.36-5.8Z"/><polygon class="d" points="425.96 67.14 430.34 72.52 430.71 72.52 435.08 67.14 435.08 76.43 439.91 76.43 439.91 60.4 435.53 60.4 430.57 66.42 425.66 60.4 421.26 60.4 421.26 76.43 425.96 76.43 425.96 67.14"/><polygon class="d" points="456.04 73.2 448.79 73.2 448.79 69.78 455.52 69.78 455.52 66.54 448.79 66.54 448.79 63.62 455.83 63.62 455.83 60.4 443.95 60.4 443.95 76.43 456.04 76.43 456.04 73.2"/><path class="d" d="M242.44,75.14l.2-.2s.02-.03,.04-.04c3.13-3.26,3.02-8.43-.24-11.56-1.61-1.6-3.81-2.47-6.07-2.41v.04c-2.26-.05-4.44,.82-6.05,2.41l-.16,.16c-3.16,3.25-3.08,8.43,.16,11.59,3.4,3.21,8.72,3.21,12.12,0Zm-11.19-10.95c2.85-2.74,7.36-2.74,10.22,0,2.76,2.82,2.76,7.33,0,10.14-2.85,2.74-7.36,2.74-10.22,0l-.02-.02c-2.79-2.8-2.79-7.33,.01-10.12h0Z"/><path class="d" d="M249.14,69.75h3.09c1.44,.1,2.86-.32,4.01-1.17,1.76-1.53,1.94-4.2,.41-5.96-.1-.11-.21-.22-.32-.33-1.13-.83-2.51-1.23-3.91-1.15h-4.45l-.07,16.13h1.24v-7.52Zm.07-7.57h3.21c1.04-.06,2.07,.25,2.9,.88,.06,.04,.12,.1,.16,.16,1.23,1.33,1.15,3.39-.18,4.62-.9,.62-1.98,.93-3.07,.86h-3.02v-6.52Z"/><polygon class="d" points="269.09 76.26 261.33 76.26 261.33 69.69 268.7 69.69 268.7 68.65 261.33 68.65 261.33 62.18 268.9 62.18 268.9 61.14 260.09 61.14 260.09 77.3 269.09 77.3 269.09 76.26"/><polygon class="d" points="272.91 63.16 285.18 77.3 286.21 77.3 286.21 61.14 284.96 61.14 284.96 75.26 272.72 61.14 271.66 61.14 271.66 77.3 272.91 77.3 272.91 63.16"/><polygon class="d" points="227.84 109.39 275.11 109.39 226.31 166.17 226.31 180.99 300.2 180.99 300.2 163.89 251.41 163.89 300.2 107.11 300.2 92.28 227.84 92.28 227.84 109.39"/><path class="d" d="M347.09,111.8c-21.16,0-36.88,15.84-36.88,35.36v.25c0,19.52,15.59,35.1,36.62,35.1s36.88-15.84,36.88-35.36v-.25c0-19.52-15.59-35.1-36.62-35.1Zm17.61,35.61c0,10.01-6.59,18.5-17.61,18.5s-17.87-8.74-17.87-18.76v-.25c0-10.01,6.59-18.5,17.62-18.5s17.87,8.74,17.87,18.76v.25Z"/><polygon class="d" points="461.78 154.38 448.85 112.81 432.25 112.81 419.45 154.25 408.55 113.07 389.04 113.07 409.95 181.5 427.18 181.5 440.49 139.81 453.54 181.5 470.9 181.5 492.07 113.07 472.93 113.07 461.78 154.38"/><path class="d" d="M564.05,148.68c0-19.26-10.39-36.88-33.08-36.88-19.77,0-33.58,15.97-33.58,35.36v.25c0,20.78,15.08,35.1,35.48,35.1,12.29,0,21.42-4.82,27.75-12.67l-11.03-9.76c-5.32,4.94-10.01,6.97-16.47,6.97-8.62,0-14.7-4.56-16.6-13.31h47.27c.13-1.77,.25-3.55,.25-5.07Zm-47.78-6.97c1.52-8.74,6.72-14.45,14.7-14.45s13.18,5.83,14.32,14.45h-29.02Z"/><path class="d" d="M141.45,51.38L50.55,114.07l62.69,90.91,90.91-62.69-62.69-90.91Zm-25.01,112.99l6.34-59.49-31.1,21.45-7.76-11.25,47.61-32.83,6.73,9.75-6.34,59.49,32.1-22.14,7.76,11.26-48.61,33.52-6.73-9.75Z"/><g><path class="d" d="M137.82,254.24c-3.21,0-5.73,1.14-7.57,3.41-1.84,2.27-2.76,5.41-2.76,9.41s.88,7.36,2.65,9.51c1.77,2.15,4.33,3.22,7.67,3.22,1.45,0,2.85-.14,4.2-.43,1.36-.29,2.76-.66,4.23-1.11v4.79c-2.68,1.01-5.72,1.52-9.11,1.52-5,0-8.84-1.51-11.52-4.54-2.68-3.03-4.02-7.36-4.02-13,0-3.55,.65-6.66,1.95-9.32,1.3-2.66,3.18-4.7,5.64-6.12s5.35-2.13,8.67-2.13c3.49,0,6.71,.73,9.67,2.2l-2.01,4.65c-1.15-.54-2.37-1.02-3.66-1.44-1.29-.41-2.64-.62-4.05-.62Z"/><path class="d" d="M188.71,266.97c0,5.56-1.39,9.88-4.17,12.96-2.78,3.08-6.72,4.62-11.81,4.62s-9.11-1.53-11.88-4.59c-2.76-3.06-4.15-7.41-4.15-13.05s1.39-9.97,4.17-12.99c2.78-3.02,6.75-4.53,11.9-4.53s9,1.53,11.77,4.6c2.77,3.07,4.16,7.39,4.16,12.96Zm-26.07,0c0,4.2,.85,7.39,2.55,9.57,1.7,2.17,4.21,3.26,7.54,3.26s5.82-1.08,7.51-3.22c1.69-2.15,2.53-5.35,2.53-9.6s-.84-7.37-2.51-9.53c-1.67-2.16-4.17-3.25-7.49-3.25s-5.88,1.08-7.58,3.25c-1.71,2.17-2.56,5.34-2.56,9.53Z"/><path class="d" d="M229.28,284.09h-6.84l-16.79-27.21h-.19l.12,1.52c.22,2.9,.33,5.54,.33,7.94v17.75h-5.07v-34.15h6.77l16.75,27.07h.14c-.03-.36-.09-1.66-.19-3.91s-.14-4.01-.14-5.27v-17.89h5.12v34.15Z"/><path class="d" d="M248.62,284.09h-5.54v-34.15h19.27v4.72h-13.73v10.67h12.87v4.74h-12.87v14.02Z"/><path class="d" d="M303.65,266.97c0,5.56-1.39,9.88-4.17,12.96-2.78,3.08-6.72,4.62-11.81,4.62s-9.11-1.53-11.88-4.59c-2.76-3.06-4.15-7.41-4.15-13.05s1.39-9.97,4.17-12.99c2.78-3.02,6.75-4.53,11.9-4.53s9,1.53,11.77,4.6c2.77,3.07,4.16,7.39,4.16,12.96Zm-26.07,0c0,4.2,.85,7.39,2.55,9.57,1.7,2.17,4.21,3.26,7.54,3.26s5.82-1.08,7.51-3.22c1.69-2.15,2.53-5.35,2.53-9.6s-.84-7.37-2.51-9.53c-1.67-2.16-4.17-3.25-7.49-3.25s-5.88,1.08-7.58,3.25c-1.71,2.17-2.56,5.34-2.56,9.53Z"/><path class="d" d="M321.35,270.45v13.64h-5.58v-34.15h9.65c4.41,0,7.67,.83,9.79,2.48,2.12,1.65,3.18,4.14,3.18,7.47,0,4.25-2.21,7.28-6.63,9.09l9.65,15.11h-6.35l-8.18-13.64h-5.51Zm0-4.62h3.88c2.6,0,4.49-.48,5.65-1.45s1.75-2.4,1.75-4.3-.63-3.32-1.89-4.16-3.16-1.26-5.7-1.26h-3.69v11.17Z"/><path class="d" d="M365.89,284.09l-9.9-28.52h-.19c.26,4.24,.4,8.21,.4,11.91v16.61h-5.07v-34.15h7.87l9.48,27.17h.14l9.76-27.17h7.9v34.15h-5.37v-16.89c0-1.7,.04-3.91,.13-6.63,.08-2.73,.16-4.38,.22-4.95h-.19l-10.25,28.47h-4.93Z"/><path class="d" d="M421.25,284.09l-3.41-9.48h-13.06l-3.34,9.48h-5.89l12.78-34.29h6.07l12.78,34.29h-5.93Zm-4.88-14.3l-3.2-9.3c-.23-.62-.56-1.6-.97-2.94-.41-1.34-.7-2.32-.85-2.94-.42,1.92-1.04,4.01-1.85,6.28l-3.08,8.9h9.95Z"/><path class="d" d="M464.93,284.09h-6.84l-16.79-27.21h-.19l.12,1.52c.22,2.9,.33,5.54,.33,7.94v17.75h-5.07v-34.15h6.77l16.75,27.07h.14c-.03-.36-.09-1.66-.19-3.91s-.14-4.01-.14-5.27v-17.89h5.12v34.15Z"/><path class="d" d="M490.52,284.09h-5.58v-29.36h-10.04v-4.79h25.67v4.79h-10.04v29.36Z"/></g><g><path class="f" d="M53.34,401.8h-12.75v-22.13h12.75v3.84h-8.05v4.86h7.49v3.84h-7.49v5.71h8.05v3.88Z"/><path class="f" d="M78.94,401.8h-5.36l-5.15-8.37-5.15,8.37h-5.03l7.34-11.41-6.87-10.72h5.18l4.77,7.96,4.68-7.96h5.05l-6.95,10.97,7.48,11.16Z"/><path class="f" d="M100.12,386.57c0,2.38-.74,4.2-2.23,5.46-1.49,1.26-3.61,1.89-6.35,1.89h-2.01v7.87h-4.69v-22.13h7.07c2.68,0,4.73,.58,6.12,1.73s2.1,2.88,2.1,5.17Zm-10.6,3.51h1.54c1.44,0,2.52-.29,3.24-.86,.72-.57,1.08-1.4,1.08-2.49s-.3-1.91-.9-2.44-1.54-.79-2.82-.79h-2.13v6.57Z"/><path class="f" d="M107.4,401.8v-22.13h4.69v18.25h8.98v3.88h-13.67Z"/><path class="f" d="M148.1,390.7c0,3.66-.91,6.48-2.72,8.45-1.82,1.97-4.42,2.95-7.81,2.95s-5.99-.98-7.81-2.95c-1.82-1.97-2.72-4.79-2.72-8.48s.91-6.5,2.73-8.44c1.82-1.94,4.43-2.91,7.83-2.91s6,.98,7.8,2.94c1.8,1.96,2.7,4.77,2.7,8.45Zm-16.15,0c0,2.47,.47,4.33,1.41,5.59,.94,1.25,2.34,1.88,4.21,1.88,3.74,0,5.62-2.49,5.62-7.46s-1.86-7.48-5.58-7.48c-1.87,0-3.28,.63-4.22,1.88-.95,1.26-1.42,3.12-1.42,5.59Z"/><path class="f" d="M160.47,393.31v8.49h-4.69v-22.13h6.45c3.01,0,5.23,.55,6.67,1.64,1.44,1.09,2.17,2.76,2.17,4.99,0,1.3-.36,2.46-1.08,3.47-.72,1.01-1.73,1.81-3.04,2.38,3.33,4.98,5.5,8.19,6.51,9.64h-5.21l-5.28-8.49h-2.5Zm0-3.81h1.51c1.48,0,2.58-.25,3.28-.74,.71-.49,1.06-1.27,1.06-2.33s-.36-1.8-1.08-2.24-1.84-.67-3.35-.67h-1.42v5.98Z"/><path class="f" d="M192.09,401.8h-12.75v-22.13h12.75v3.84h-8.05v4.86h7.49v3.84h-7.49v5.71h8.05v3.88Z"/><path class="f" d="M204.5,393.31v8.49h-4.69v-22.13h6.45c3.01,0,5.23,.55,6.67,1.64,1.44,1.09,2.17,2.76,2.17,4.99,0,1.3-.36,2.46-1.08,3.47-.72,1.01-1.73,1.81-3.04,2.38,3.33,4.98,5.5,8.19,6.51,9.64h-5.21l-5.28-8.49h-2.5Zm0-3.81h1.51c1.48,0,2.58-.25,3.28-.74,.71-.49,1.06-1.27,1.06-2.33s-.36-1.8-1.08-2.24-1.84-.67-3.35-.67h-1.42v5.98Z"/><path class="f" d="M239.14,401.8h-4.62v-22.13h12.68v3.84h-8.07v5.71h7.51v3.83h-7.51v8.75Z"/><path class="f" d="M274.73,390.7c0,3.66-.91,6.48-2.72,8.45-1.82,1.97-4.42,2.95-7.81,2.95s-5.99-.98-7.81-2.95c-1.82-1.97-2.72-4.79-2.72-8.48s.91-6.5,2.73-8.44c1.82-1.94,4.43-2.91,7.83-2.91s6,.98,7.8,2.94c1.8,1.96,2.7,4.77,2.7,8.45Zm-16.15,0c0,2.47,.47,4.33,1.41,5.59,.94,1.25,2.34,1.88,4.21,1.88,3.74,0,5.62-2.49,5.62-7.46s-1.86-7.48-5.58-7.48c-1.87,0-3.28,.63-4.22,1.88-.95,1.26-1.42,3.12-1.42,5.59Z"/><path class="f" d="M287.11,393.31v8.49h-4.69v-22.13h6.45c3.01,0,5.23,.55,6.67,1.64,1.44,1.09,2.17,2.76,2.17,4.99,0,1.3-.36,2.46-1.08,3.47-.72,1.01-1.73,1.81-3.04,2.38,3.33,4.98,5.5,8.19,6.51,9.64h-5.21l-5.28-8.49h-2.5Zm0-3.81h1.51c1.48,0,2.58-.25,3.28-.74,.71-.49,1.06-1.27,1.06-2.33s-.36-1.8-1.08-2.24-1.84-.67-3.35-.67h-1.42v5.98Z"/><path class="f" d="M329.75,379.67h4.74l-7.52,22.13h-5.12l-7.51-22.13h4.74l4.16,13.17c.23,.78,.47,1.68,.72,2.72,.25,1.04,.4,1.75,.46,2.16,.11-.93,.49-2.55,1.14-4.87l4.19-13.17Z"/><path class="f" d="M340.38,401.8v-22.13h4.69v22.13h-4.69Z"/><path class="f" d="M366.8,395.65c0,2-.72,3.57-2.16,4.72-1.44,1.15-3.44,1.73-6,1.73-2.36,0-4.45-.44-6.27-1.33v-4.36c1.49,.67,2.76,1.13,3.79,1.41,1.03,.27,1.98,.41,2.84,.41,1.03,0,1.82-.2,2.37-.59,.55-.39,.82-.98,.82-1.76,0-.43-.12-.82-.36-1.16s-.6-.66-1.07-.98c-.47-.31-1.43-.81-2.87-1.5-1.35-.64-2.37-1.25-3.04-1.83s-1.22-1.27-1.62-2.04c-.4-.78-.61-1.69-.61-2.72,0-1.96,.66-3.5,1.99-4.62,1.33-1.12,3.16-1.68,5.5-1.68,1.15,0,2.25,.14,3.29,.41,1.04,.27,2.14,.66,3.28,1.15l-1.51,3.65c-1.18-.48-2.16-.82-2.93-1.01-.77-.19-1.53-.29-2.28-.29-.89,0-1.57,.21-2.04,.62-.47,.41-.71,.95-.71,1.62,0,.41,.1,.78,.29,1.08,.19,.31,.5,.61,.92,.89,.42,.29,1.41,.8,2.97,1.55,2.07,.99,3.49,1.98,4.25,2.97,.77,.99,1.15,2.21,1.15,3.66Z"/><path class="f" d="M391.93,379.67v14.32c0,1.63-.37,3.07-1.1,4.3s-1.79,2.17-3.17,2.83c-1.38,.66-3.02,.98-4.9,.98-2.85,0-5.06-.73-6.63-2.19-1.57-1.46-2.36-3.45-2.36-5.99v-14.26h4.68v13.55c0,1.71,.34,2.96,1.03,3.75,.69,.8,1.82,1.2,3.41,1.2s2.65-.4,3.34-1.2c.69-.8,1.04-2.06,1.04-3.78v-13.52h4.68Z"/><path class="f" d="M413.99,401.8l-1.6-5.27h-8.07l-1.6,5.27h-5.06l7.81-22.22h5.74l7.84,22.22h-5.06Zm-2.72-9.2c-1.48-4.77-2.32-7.47-2.5-8.1-.19-.63-.32-1.12-.4-1.48-.33,1.29-1.29,4.49-2.86,9.58h5.77Z"/><path class="f" d="M424.93,401.8v-22.13h4.69v18.25h8.98v3.88h-13.67Z"/><path class="f" d="M466.1,383.25c-1.77,0-3.13,.66-4.1,1.99s-1.45,3.18-1.45,5.55c0,4.93,1.85,7.4,5.56,7.4,1.55,0,3.44-.39,5.65-1.17v3.94c-1.82,.76-3.84,1.13-6.08,1.13-3.22,0-5.68-.98-7.39-2.93-1.71-1.95-2.56-4.76-2.56-8.41,0-2.3,.42-4.32,1.26-6.05,.84-1.73,2.04-3.06,3.61-3.98,1.57-.92,3.41-1.38,5.52-1.38s4.31,.52,6.48,1.56l-1.51,3.81c-.83-.39-1.66-.74-2.5-1.03s-1.66-.44-2.47-.44Z"/><path class="f" d="M499.64,390.7c0,3.66-.91,6.48-2.72,8.45-1.82,1.97-4.42,2.95-7.81,2.95s-5.99-.98-7.81-2.95c-1.82-1.97-2.72-4.79-2.72-8.48s.91-6.5,2.73-8.44c1.82-1.94,4.43-2.91,7.83-2.91s6,.98,7.8,2.94c1.8,1.96,2.7,4.77,2.7,8.45Zm-16.15,0c0,2.47,.47,4.33,1.41,5.59,.94,1.25,2.34,1.88,4.21,1.88,3.74,0,5.62-2.49,5.62-7.46s-1.86-7.48-5.58-7.48c-1.87,0-3.28,.63-4.22,1.88-.95,1.26-1.42,3.12-1.42,5.59Z"/><path class="f" d="M525.69,390.52c0,3.64-1.04,6.43-3.11,8.37-2.07,1.94-5.07,2.91-8.98,2.91h-6.27v-22.13h6.95c3.61,0,6.42,.95,8.42,2.86,2,1.91,3,4.57,3,7.99Zm-4.88,.12c0-4.75-2.1-7.13-6.3-7.13h-2.5v14.41h2.01c4.52,0,6.78-2.43,6.78-7.28Z"/><path class="f" d="M546.12,401.8h-12.75v-22.13h12.75v3.84h-8.05v4.86h7.49v3.84h-7.49v5.71h8.05v3.88Z"/><path class="f" d="M563.13,395.38v-3.78h8.13v3.78h-8.13Z"/><path class="f" d="M250.55,439h-16.47v-3.04l10.61-15.21h-10.32v-3.88h15.89v3.03l-10.6,15.23h10.88v3.88Z"/><path class="f" d="M277.26,427.9c0,3.66-.91,6.48-2.72,8.45-1.82,1.97-4.42,2.95-7.81,2.95s-5.99-.98-7.81-2.95c-1.82-1.97-2.72-4.79-2.72-8.48s.91-6.5,2.73-8.44c1.82-1.94,4.43-2.91,7.83-2.91s6,.98,7.8,2.94c1.8,1.96,2.7,4.77,2.7,8.45Zm-16.15,0c0,2.47,.47,4.33,1.41,5.59,.94,1.25,2.34,1.88,4.21,1.88,3.74,0,5.62-2.49,5.62-7.46s-1.86-7.48-5.58-7.48c-1.87,0-3.28,.63-4.22,1.88-.95,1.26-1.42,3.12-1.42,5.59Z"/><path class="f" d="M306.51,439h-5.34l-3-11.62c-.11-.41-.3-1.27-.57-2.57s-.42-2.17-.46-2.61c-.06,.54-.21,1.42-.46,2.63-.24,1.21-.43,2.07-.56,2.58l-2.98,11.59h-5.33l-5.65-22.13h4.62l2.83,12.08c.49,2.23,.85,4.16,1.07,5.8,.06-.57,.2-1.46,.42-2.67,.22-1.21,.42-2.14,.61-2.81l3.22-12.4h4.44l3.22,12.4c.14,.55,.32,1.4,.53,2.54,.21,1.14,.37,2.12,.48,2.94,.1-.79,.26-1.77,.48-2.94,.22-1.18,.42-2.13,.61-2.85l2.81-12.08h4.62l-5.63,22.13Z"/><path class="f" d="M330.77,439h-12.75v-22.13h12.75v3.84h-8.05v4.86h7.49v3.84h-7.49v5.71h8.05v3.88Z"/><path class="f" d="M362.26,416.87h4.74l-7.52,22.13h-5.12l-7.51-22.13h4.74l4.16,13.17c.23,.78,.47,1.68,.72,2.72,.25,1.04,.4,1.75,.46,2.16,.11-.93,.49-2.55,1.14-4.87l4.19-13.17Z"/><path class="f" d="M386.81,439h-15.47v-3.25l5.56-5.62c1.64-1.69,2.72-2.85,3.22-3.5,.5-.65,.87-1.25,1.09-1.81,.22-.55,.33-1.13,.33-1.72,0-.89-.25-1.55-.73-1.98s-1.14-.65-1.96-.65c-.86,0-1.69,.2-2.5,.59-.81,.39-1.65,.95-2.53,1.68l-2.54-3.01c1.09-.93,1.99-1.58,2.71-1.97,.72-.38,1.5-.68,2.35-.89,.85-.21,1.8-.31,2.85-.31,1.38,0,2.6,.25,3.66,.76,1.06,.5,1.88,1.21,2.47,2.12,.58,.91,.88,1.95,.88,3.12,0,1.02-.18,1.97-.54,2.87-.36,.89-.91,1.81-1.67,2.75s-2.08,2.28-3.97,4.01l-2.85,2.68v.21h9.64v3.94Z"/></g></svg>