<svg id="Layer_1" data-name="Layer 1" xmlns="http://www.w3.org/2000/svg" viewBox="0 0 601.4126 443.90552"><defs><style>.cls-1,.cls-3{opacity:0.8;}.cls-2{fill:none;stroke:#fff;stroke-linecap:round;stroke-linejoin:round;stroke-width:0;}.cls-3{fill:#fff;}</style></defs><path d="M.70367,443.90552h600V332.93518h-600ZM4.30383,336.53516H597.10358V440.30554H4.30383Z"/><path d="M244.227,55.8501a.67389.67389,0,0,0-.16193-.16187,4.31938,4.31938,0,0,0-2.8955-.88342h-3.20545v6.52185h3.01575a4.65436,4.65436,0,0,0,2.81335-.70685c.08509-.05163.17591-.09179.258-.14886a3.28759,3.28759,0,0,0,.43762-.49683,3.27077,3.27077,0,0,0-.26184-4.124Z"/><path d="M280.64172,226.85449q-4.72264,0-7.12793,3.1001-2.40526,3.10034-2.40429,9.24268,0,6.08423,2.43359,9.27148a9.65909,9.65909,0,0,0,14.32715.01416q2.44776-3.17213,2.44824-9.28564,0-6.05567-2.44824-9.19922Q285.42248,226.85449,280.64172,226.85449Z"/><path d="M401.43176,239.48682l-4.80957.20263q-5.73778.20363-8.27246,1.78223a5.37214,5.37214,0,0,0-2.53515,4.91064,4.955,4.955,0,0,0,1.5791,3.96973,6.553,6.553,0,0,0,4.41894,1.36182,9.76088,9.76088,0,0,0,7.05469-2.46289,9.11213,9.11213,0,0,0,2.56445-6.89551Z"/><path d="M537.35815,0h-83.886l37.48089,54.34827a7.90052,7.90052,0,0,1,1.65986,1.19336l.00091.00085a7.21853,7.21853,0,0,1,2.20337,4.40881l4.5379,6.58014V53.57166h1.11475V68.06781c.00281.02716-.00153.054.00079.08118l25.32965,36.72863c18.46778,2.87616,26.99573,18.97309,26.99573,36.42231,0,.80517-.03668,1.68347-.089,2.59314l47.99664,69.59637V63.34552A63.34555,63.34555,0,0,0,537.35815,0ZM513.455,68.036h-8.043V53.572h7.886v.929h-6.767v5.782h6.591v.944h-6.591v5.87h6.924Zm16.205-1.14447a10.747,10.747,0,0,1-5.11578,1.35065,7.58247,7.58247,0,0,1-5.50891-2.11847,7.4065,7.4065,0,0,1-.00464-10.47205h.00024l.0044-.00458a.53264.53264,0,0,0,.10181-.1018,7.54587,7.54587,0,0,1,5.35162-2.13233,12.15073,12.15073,0,0,1,5.02789,1.19129v-.00257l.06.02778c-.01953-.00953-.04034-.01581-.06-.02521v1.21387a11.06886,11.06886,0,0,0-5.16205-1.4477,6.07631,6.07631,0,0,0-4.49127,1.84094,6.20857,6.20857,0,0,0-1.81317,4.57917,6.13289,6.13289,0,0,0,1.81317,4.607,6.38122,6.38122,0,0,0,4.6532,1.7854A10.92694,10.92694,0,0,0,529.66,65.73517ZM543.91,54.501h-5.421V68.036h-1.133V54.501h-5.435v-.929H543.91Z"/><polygon points="0.704 316.322 130.16 316.322 0.704 128.607 0.704 316.322"/><path d="M64.04926,0h-.00007A63.34555,63.34555,0,0,0,.70367,63.34552V104.188L151.77893,0Z"/><path d="M437.88,234.56152q0-3.88257-1.76757-5.79492-1.76661-1.91235-5.53321-1.91211-4.98339,0-7.30175,2.69434-2.3174,2.69457-2.31739,8.895v16.65967h-4.80957V223.34863h3.91114l.78222,4.34619h.23145a9.82445,9.82445,0,0,1,4.14355-3.63623,13.46508,13.46508,0,0,1,5.93946-1.28955q5.73631,0,8.63378,2.76709t2.89747,8.85157v9.52709l10.22753-7.05334v-9.775h-4.54882v-2.31788l4.54882-1.99957,2.02832-6.77978h2.78125v7.35937h9.2129v3.73779h-9.2129v6.4582L478.62384,219.133,447.583,174.123h-.904l-75.5412,52.09649q2.099,2.7865,2.1026,8.16822v20.71582h-4.80957V234.44531a8.96392,8.96392,0,0,0-1.39814-5.39483l-14.04516,9.68621v16.36676h-4.80957V242.05359l-15.41309,10.62952v2.42034h-3.50958l-11.53009,7.95166,4.17035-39.134-.54676,3.65747a16.39645,16.39645,0,0,0-3.47656-.43457,8.46546,8.46546,0,0,0-6.59179,3.1294,11.40972,11.40972,0,0,0-2.73731,7.79394v17.03613h-4.80957V223.34863h3.96875l.55078,5.88184h.23145a13.95672,13.95672,0,0,1,4.25976-4.78076,9.58878,9.58878,0,0,1,5.47559-1.68073,18.85827,18.85827,0,0,1,3.7619.34278l5.20575-48.85041c-16.65692-3.5263-28.23163-17.41418-28.23163-34.22857v-.25373c0-19.14166,15.12164-34.73724,35.67108-35.32879L338.39917,69.052H336.425V53.024h3.68225l3.20691-30.09345L327.50024,0h-35.182L161.88654,89.95148l31.00207,44.95379-37.20764,25.66-.35223.94635,86.273-59.49762H216.581V84.906h49.8277l14.44891-9.9646-1.06195,9.9646H288.944V99.733L276.69666,113.9845l-4.53193,42.5235H288.944v17.108H270.34149l-15.075,141.45135.86493,1.25421h81.56647L437.88,247.23169ZM327.541,53.02484h4.82435V69.052H327.541Zm-96.11871,14.499a.14243.14243,0,0,0-.037.03705l-.20349.19885a8.83816,8.83816,0,0,1-12.11871,0,8.20127,8.20127,0,0,1-.15723-11.5913l.15723-.16193a8.34421,8.34421,0,0,1,6.04547-2.40521v-.04163a8.30716,8.30716,0,0,1,6.07324,2.40521A8.17578,8.17578,0,0,1,231.42224,67.5238Zm13.57251-6.32666a6.06357,6.06357,0,0,1-4.01489,1.17487h-3.08972v7.521h-1.24433l.0694-16.13361h4.45428a5.99423,5.99423,0,0,1,3.91309,1.14716,4.22627,4.22627,0,0,1-.08783,6.29058ZM257.837,69.923h-9.001V53.762h8.811v1.045H250.08v6.462h7.368V62.314H250.08v6.564h7.757Zm17.117,0h-1.031L261.651,55.787V69.923h-1.248V53.762h1.058l12.244,14.116V53.762h1.249Zm38.03522-16.90124h5.40716l6.99823,16.0318H320.45l-1.31817-3.24713h-6.95673l-1.332,3.24713h-4.9447ZM291.39075,251.32227q-3.91113,4.36157-10.80664,4.36084a14.31292,14.31292,0,0,1-7.5625-1.99952,13.196,13.196,0,0,1-5.09961-5.73632,19.99664,19.99664,0,0,1-1.7959-8.75q0-7.76441,3.88281-12.09668,3.88183-4.33082,10.77734-4.33155a13.43435,13.43435,0,0,1,10.58985,4.43311q3.92578,4.43262,3.92578,11.99512Q295.30188,246.9624,291.39075,251.32227ZM294.564,65.139h-.388l-4.367-5.376v9.289h-4.695V53.024h4.381l4.926,6.014,4.94-6.014h4.394V69.052h-4.843V59.763Zm111.6773,189.96466-3.56445-.00012-.95605-4.52h-.23145a13.36339,13.36339,0,0,1-4.7373,4.042,14.43723,14.43723,0,0,1-5.89551,1.05762,10.60489,10.60489,0,0,1-7.40332-2.43409,8.87343,8.87343,0,0,1-2.67969-6.92431q0-9.6189,15.38477-10.083l5.38867-.17383v-1.97021q0-3.73746-1.60742-5.519-1.60841-1.782-5.14258-1.78222a20.95373,20.95373,0,0,0-8.98242,2.43408l-1.47754-3.67969a22.6057,22.6057,0,0,1,5.14257-1.999,22.27226,22.27226,0,0,1,5.60645-.72461q5.6792,0,8.417,2.52051,2.7378,2.521,2.73828,8.084Z"/><polygon points="600.704 316.322 600.704 231.864 478.238 316.322 600.704 316.322"/><path d="M361.76678,226.85443q-4.49121,0-6.63476,2.57861-2.14454,2.57886-2.14453,7.93848v1.36517l14.04516-9.68621c-.074-.10041-.14489-.20453-.22485-.298A6.27436,6.27436,0,0,0,361.76678,226.85443Z"/><polygon class="cls-1" points="272.165 156.508 276.697 113.984 240.153 156.508 272.165 156.508"/><polygon points="280.858 74.941 266.409 84.906 279.796 84.906 280.858 74.941"/><polygon points="152.755 121.963 120.657 144.1 126.996 84.612 120.269 74.858 72.663 107.689 80.425 118.944 111.523 97.497 105.183 156.985 111.911 166.74 160.517 133.219 152.755 121.963"/><path class="cls-1" d="M270.34149,173.616H215.06V158.789l48.791-56.775H241.60175l-86.273,59.49762.35223-.94635-53.69769,37.03222L39.29108,106.6922,130.19641,44l31.69013,45.95148L292.31824,0H151.77893L.70367,104.188v24.41907L130.15961,316.32153h125.9718l-.86493-1.25421ZM145.78528,246.77338q3.89647,4.53514,11.11133,4.53466a37.93255,37.93255,0,0,0,10.11132-1.59375v4.31739A31.14981,31.14981,0,0,1,156.1427,255.683q-9.35889,0-14.44336-5.67871-5.08448-5.67846-5.084-16.13818a25.465,25.465,0,0,1,2.4483-11.47363,17.57373,17.57373,0,0,1,7.06933-7.59082,21.39544,21.39544,0,0,1,10.87891-2.66553,26.25155,26.25155,0,0,1,11.64746,2.43359l-2.08594,4.23a22.45367,22.45367,0,0,0-9.61914-2.25976q-6.983,0-11.02441,4.65039-4.04151,4.65015-4.042,12.7334Q141.88782,242.23968,145.78528,246.77338Zm53.23822,4.54889q-3.91113,4.36157-10.80664,4.36084a14.31294,14.31294,0,0,1-7.5625-1.99952,13.19677,13.19677,0,0,1-5.09961-5.73632,19.99764,19.99764,0,0,1-1.7959-8.75q0-7.76441,3.88281-12.09668,3.88183-4.33082,10.77735-4.33155a13.43435,13.43435,0,0,1,10.58984,4.43311q3.92578,4.43262,3.92578,11.99512Q202.93463,246.9624,199.0235,251.32227Zm38.88183,3.78125h-4.8095v-20.542q-.0001-3.88257-1.76758-5.79492-1.7667-1.91235-5.53321-1.91211-4.98348,0-7.30175,2.69434-2.31749,2.69457-2.31739,8.895v16.65967h-4.80957V223.34863h3.91114l.78222,4.34619h.23145a9.82374,9.82374,0,0,1,4.14355-3.63623,13.4657,13.4657,0,0,1,5.93939-1.28961q5.73633,0,8.63379,2.76709t2.89746,8.85156Zm16.10938,0h-4.80957V227.08643h-5.67871v-2.17334l5.67871-1.73829v-1.76709q0-11.70556,10.22858-11.70556a21.057,21.057,0,0,1,5.91015,1.01416l-1.24609,3.85351a15.91725,15.91725,0,0,0-4.751-.89843,4.62837,4.62837,0,0,0-4.02734,1.811q-1.30518,1.81128-1.30469,5.80908v2.05713h8.084l.00006,3.73786h-8.084Z"/><path class="cls-1" d="M188.27448,226.85449q-4.72266,0-7.12793,3.1001-2.40528,3.10034-2.4043,9.24268,0,6.08423,2.43359,9.27148a9.65871,9.65871,0,0,0,14.32715.01416q2.44776-3.17213,2.44824-9.28564,0-6.05567-2.44824-9.19922Q193.05523,226.85449,188.27448,226.85449Z"/><path d="M346.55585,228.75244q-1.623-1.89771-5.07032-1.898-4.52051,0-6.62011,2.709-2.10205,2.70923-2.10059,8.88037v14.23932l15.41309-10.62952v-7.60828Q348.17792,230.65064,346.55585,228.75244Z"/><polygon points="398.169 57.212 398.169 57.212 395.806 63.008 400.519 63.008 399.604 60.75 398.169 57.212"/><path class="cls-1" d="M552.5423,146.369H505.27252c1.90027,8.74457,7.98346,13.307,16.60156,13.307,6.46271,0,11.15155-2.02752,16.47437-6.97009l11.02582,9.758c-6.33692,7.85693-15.461,12.67309-27.75385,12.67309-20.40356,0-35.48431-14.32037-35.48431-35.10412v-.25373c0-19.3894,13.81366-35.357,33.58331-35.357a39.485,39.485,0,0,1,6.08087.45556L500.47064,68.149a4.68582,4.68582,0,0,1-.89813,3.1936,2.89912,2.89912,0,0,1-2.13239.91583q-.33288.01383-.66595.00006l-.10181-1.04535a3.4769,3.4769,0,0,0,.65222.074c1.36457,0,2.03052-.95746,2.03052-2.90009V66.53143l-4.5379-6.58014a7.23318,7.23318,0,0,1-1.94525,5.8404c-.02777.02771-.05548.05542-.08325.08783l-.17578.185a7.906,7.906,0,0,1-10.8559,0,7.33878,7.33878,0,0,1-.15259-10.37024l.00922-.00463.14337-.148a7.90892,7.90892,0,0,1,9.196-1.19336L453.47217,0H327.50024l15.81391,22.93054L340.10724,53.024h.60577l8.289,8.881V53.024h4.815V69.052h-4.292l-8.317-8.928v8.928h-2.80884L334.627,104.45026c.40174-.01154.8017-.02826,1.20752-.02826,21.03675,0,36.62421,15.58746,36.62415,35.10406v.253c0,19.51667-15.71393,35.35785-36.87787,35.35785a40.46251,40.46251,0,0,1-8.39325-.87555l-5.20575,48.85041.034.00488-.12024.80444-4.17035,39.134,11.53009-7.95166h-1.3V223.34863h3.91113l.78223,4.34619H332.88a9.45412,9.45412,0,0,1,3.83887-3.62158,11.727,11.727,0,0,1,5.54883-1.3042q7.4458,0,9.73535,5.38916h.23145a10.13114,10.13114,0,0,1,4.11425-3.94043,12.76986,12.76986,0,0,1,6.14258-1.44873q5.38917,0,8.06934,2.76709a7.24,7.24,0,0,1,.57709.68335L446.679,174.123h-4.393l-13.053-41.694-13.306,41.694H398.692l-20.911-68.434h19.517L408.197,146.876l12.799-41.44h16.602l12.926,41.567,11.152-41.314h19.137l-21.165,68.434H447.583l31.04089,45.01-20.89716,14.41156v12.2293a6.42778,6.42778,0,0,0,1.36133,4.4043,4.7381,4.7381,0,0,0,3.73731,1.53571,15.661,15.661,0,0,0,2.46289-.18848,15.9551,15.9551,0,0,0,1.88379-.39111V254.814a8.80155,8.80155,0,0,1-2.30371.62256,17.30955,17.30955,0,0,1-2.73829.24659q-9.2124.00009-9.21289-9.70606v-9.1156l-10.22753,7.05334v11.18873H437.88v-7.87183L337.69788,316.32153H478.23761l122.46606-84.45788V213.48944L552.707,143.89307C552.66052,144.70154,552.60181,145.53436,552.5423,146.369ZM369.326,56.24h-6.651v3.104h6.651v3.215h-6.651v6.493h-4.829V53.021h11.48Zm13.57922,12.81152-1.25812-2.8955a12.415,12.415,0,0,0-1.24884-2.28028,2.6897,2.6897,0,0,0-1.08233-.92511,3.928,3.928,0,0,0-1.3645-.20349h-.53656V69.01H372.572V53.02441h8.21942a5.92555,5.92555,0,0,1,3.26093.80945,4.86763,4.86763,0,0,1,1.84088,1.95661,5.06516,5.06516,0,0,1,.55048,2.20172,4.07661,4.07661,0,0,1-.46253,2.05829,3.75958,3.75958,0,0,1-.98523,1.21643,10.99757,10.99757,0,0,1-1.17486.72625,4.44849,4.44849,0,0,1,1.27661,1.07306,12.79239,12.79239,0,0,1,1.42,2.47925l1.57727,3.506Zm20.03278.002-1.30432-3.24713H394.677l-1.332,3.24713h-4.9585l7.08613-16.0318h5.347l7.063,16.0318Zm25.713-.00153h-4.824V59.763l-4.367,5.376h-.374l-4.381-5.376v9.289H410.01V53.024h4.395l4.912,6.014,4.958-6.014h4.376Zm16.132,0H432.697V53.024H444.58v3.215h-7.045v2.928h6.726V62.4h-6.726V65.819h7.248Zm16.78125-8.82574a5.38172,5.38172,0,0,1-3.60785,1.04071h-2.75214v6.77167h-1.1148V53.57025h3.98718a5.18634,5.18634,0,0,1,3.48761,1.0315,3.40676,3.40676,0,0,1,1.22113,2.7984A3.52078,3.52078,0,0,1,461.56427,60.22626Zm14.65613,7.81238-2.52094-3.94086a9.41856,9.41856,0,0,0-1.95648-2.47925,3.6479,3.6479,0,0,0-2.05835-.49487h-1.99817l-.00006,6.94275h-1.11474l.04162-14.49616H470.309a5.48651,5.48651,0,0,1,3.56622,1.01758,3.33951,3.33951,0,0,1,1.23035,2.72436,3.5937,3.5937,0,0,1-2.75207,3.50611,6.6942,6.6942,0,0,1,1.92877,2.22021l3.27484,5.00013Z"/><path class="cls-1" d="M380.79144,56.54443a4.731,4.731,0,0,0-2.36364-.44867h-1.013v3.87153h1.0315a5.41749,5.41749,0,0,0,2.433-.39319,1.61842,1.61842,0,0,0,.65229-1.44776V58.08a1.62093,1.62093,0,0,0-.74012-1.53559Z"/><path class="cls-1" d="M470.11938,60.16614a4.66016,4.66016,0,0,0,2.81232-.74,2.72581,2.72581,0,0,0,.31909-3.83918l-.333-.33294a4.634,4.634,0,0,0-2.82618-.754h-2.36352l.00006,5.6662Z"/><path class="cls-1" d="M461.435,56.42517a2.88258,2.88258,0,0,0-.20105-.43457c-.01459-.02667-.02252-.05572-.038-.08209a2.91805,2.91805,0,0,0-.30945-.42108c-.0144-.0166-.02362-.03583-.03839-.05219l-.00073-.001a.26.26,0,0,1-.03241-.037l-.14343-.15729a4.01268,4.01268,0,0,0-2.64111-.78162h-.00007l-2.82605.04157.00007,5.79571H457.887a3.61351,3.61351,0,0,0,.55378-.00286,4.98228,4.98228,0,0,0,.55145-.0763,4.18609,4.18609,0,0,0,1.647-.68866l.00147-.00134.00006-.00006a2.85319,2.85319,0,0,0,.25207-.27869c.04523-.05292.1-.1001.14075-.15552a2.83544,2.83544,0,0,0,.19684-.33172c.02923-.05359.06787-.10291.0935-.1579a2.87062,2.87062,0,0,0,.14118-.4c.01288-.04328.03424-.08423.045-.128a2.8993,2.8993,0,0,0,.05847-.39557c.00544-.05182.02015-.10248.02277-.15448a2.91187,2.91187,0,0,0-.01856-.41608c-.00427-.04639.00019-.093-.00628-.13916a2.90318,2.90318,0,0,0-.105-.43494C461.45056,56.49835,461.44739,56.46082,461.435,56.42517Z"/><path d="M318.86383,145.72443a19.453,19.453,0,0,0,1.00891,2.59857q.31732.67145.683,1.31213a18.58228,18.58228,0,0,0,1.34448,2.05811,17.68717,17.68717,0,0,0,1.48041,1.7041,17.11054,17.11054,0,0,0,5.62622,3.79132l3.83191-35.95807v-.00006c-9.35962,1.29187-14.87366,9.14813-14.87366,18.29553v.253A20.22968,20.22968,0,0,0,318.86383,145.72443Z"/><path class="cls-1" d="M329.00684,157.18866a17.70046,17.70046,0,0,0,6.82763,1.34668c11.025,0,17.61493-8.49085,17.61493-18.50256v-.25373a19.95531,19.95531,0,0,0-.28375-3.30255c-.10986-.65552-.24286-1.30353-.41467-1.93707q-.22715-.83761-.52314-1.64588c-.18914-.51721-.39129-1.02807-.62121-1.5238q-.25443-.54849-.541-1.07782a18.364,18.364,0,0,0-2.366-3.41186c-.06665-.07557-.12481-.1587-.19268-.233a17.4031,17.4031,0,0,0-2.59449-2.32885,16.92893,16.92893,0,0,0-3.04888-1.772,17.67164,17.67164,0,0,0-7.28278-1.5227,19.89537,19.89537,0,0,0-2.742.207v.00006Z"/><path class="cls-1" d="M516.85773,120.14508a13.37636,13.37636,0,0,0-2.58979.76556,13.0756,13.0756,0,0,0-4.77941,3.40174,15.70325,15.70325,0,0,0-1.817,2.48645,20.59749,20.59749,0,0,0-2.12879,5.15436q-.30963,1.14624-.52386,2.377h29.02087a19.22727,19.22727,0,0,0-3.67858-9.455,13.44352,13.44352,0,0,0-1.81733-1.89947,12.47921,12.47921,0,0,0-3.32562-2.04718,13.2365,13.2365,0,0,0-2.60162-.7782,15.79372,15.79372,0,0,0-5.75885-.00525Z"/><polygon points="318.031 63.008 318.031 63.008 315.681 57.212 315.681 57.213 313.308 63.008 318.031 63.008"/><path d="M230.21045,56.8067a7.37222,7.37222,0,0,0-10.21765,0v.00006l-.00055.00055-.00574.00568c-.08227.08209-.15393.17047-.23138.25543-.08618.09467-.17743.18628-.25763.2843-.07062.08618-.13092.17768-.19684.26636-.07715.10376-.15912.20514-.23.312-.05621.08478-.10266.174-.15485.26056-.06982.11591-.14386.23-.2066.34876-.04541.086-.08118.17553-.1228.26287-.05878.12342-.12159.24537-.17292.37128-.04138.1015-.07232.20593-.10882.30884-.04084.115-.08649.22876-.12128.34534-.03113.10449-.05188.21105-.07812.31658-.02942.11817-.06366.23523-.087.3545-.01971.10077-.02936.20282-.04468.3042-.019.12518-.04242.24994-.05468.37579-.01075.11-.011.2207-.01661.331-.006.11829-.01715.23633-.01739.35474-.00018.10919.01007.21814.01483.32721.00525.11963.00555.23938.01672.3587.01007.10718.03046.21332.04535.32007.01679.12036.02869.24134.05164.36084.0199.10358.04993.20526.0744.308.02887.12121.053.24328.0882.36309.03247.11029.0755.21784.1134.32679.038.10937.07074.22021.11426.328.04571.1134.10248.22308.15423.33453.0467.10041.08789.20282.13947.30139.05224.09992.115.19544.17236.29328.062.10589.119.21393.18695.3172.06562.09985.14209.19439.21326.2915.07025.09595.13519.19458.21088.28766.07818.09625.16729.18628.25122.2793.08081.08954.15606.18231.24218.26861l.0185.01856a7.16529,7.16529,0,0,0,10.92145-.83423,7.198,7.198,0,0,0,1.076-2.1994q.09705-.33234.16181-.67115a7.27944,7.27944,0,0,0,.12945-1.36706q0-.34341-.03241-.686a7.22057,7.22057,0,0,0-2.03863-4.3858Z"/><path class="cls-1" d="M482.59882,56.26782l-.00049.00049c-.06311.06311-.11762.13141-.17755.19647-.0885.09607-.18055.19007-.26209.29-.03015.037-.05481.07678-.084.11426-.10334.13263-.20581.26575-.29731.4043-.02618.03973-.04681.08191-.07208.12207-.08758.1394-.17431.27911-.25012.4234-.05493.10455-.09967.21277-.14844.31964-.038.08319-.0813.16461-.11554.24908-.03924.09687-.06878.19648-.10315.2948-.03405.09735-.07287.19336-.10205.29193-.02624.08887-.04339.17951-.06579.26917-.02753.11035-.05927.21991-.08087.33136a6.4289,6.4289,0,0,0-.10956,1.06244c-.00135.05377-.00769.10736-.00769.16113s.00634.10736.00769.16113a6.42962,6.42962,0,0,0,.10956,1.0625c.0216.11145.05334.221.08087.33136.0224.08966.03955.1803.06579.26917.02918.09857.068.19458.10205.29193.03437.09833.06391.19794.10315.2948.03424.08447.07758.16589.11554.24908.04877.10688.09351.21509.14844.31965.07581.14428.16254.284.25012.4234.02527.04016.0459.08233.07208.12207.0915.13855.194.27166.29731.40429.02917.03748.05383.07727.084.11426.08154.1.17359.194.26209.29.06012.06525.11474.13367.178.197l.00006-.00006A6.255,6.255,0,0,0,487.178,67.17v.01386h.00006a6.20512,6.20512,0,0,0,4.56531-1.84094q.23246-.236.43579-.489.20334-.25269.37768-.52032.17433-.26724.31958-.54712a6.46777,6.46777,0,0,0-1.13305-7.51862A6.56008,6.56008,0,0,0,482.59882,56.26782Z"/><path class="cls-2" d="M458.4408,60.29279a4.98228,4.98228,0,0,0,.55145-.0763"/><path class="cls-3" d="M395.4726,53.02173l-7.08613,16.0318h4.9585l1.332-3.24713h6.95667l1.30432,3.24713h4.94464l-7.063-16.0318Zm.33306,9.98627,2.36353-5.79554.00006-.00012,1.43445,3.53815L400.519,63.008Z"/><path class="cls-2" d="M325.98358,155.56091a17.22487,17.22487,0,0,1-2.603-2.16357"/><path class="cls-2" d="M352.751,134.53943q-.22715-.83761-.52314-1.64588"/><path class="cls-2" d="M352.22784,132.89355c-.18914-.51721-.39129-1.02807-.62121-1.5238"/><path class="cls-2" d="M505.54272,131.95319a20.59749,20.59749,0,0,1,2.12879-5.15436"/><path class="cls-2" d="M507.67151,126.79883a15.70325,15.70325,0,0,1,1.817-2.48645"/><polygon points="34.287 396.961 45.412 396.961 45.412 393.578 38.383 393.578 38.383 388.597 44.923 388.597 44.923 385.241 38.383 385.241 38.383 381 45.412 381 45.412 377.644 34.287 377.644 34.287 396.961"/><polygon points="67.303 377.644 62.89 377.644 58.808 384.594 54.646 377.644 50.127 377.644 56.125 386.998 49.717 396.961 54.104 396.961 58.596 389.654 63.088 396.961 67.766 396.961 61.239 387.223 67.303 377.644"/><path d="M84.41852,379.15625a8.20645,8.20645,0,0,0-5.34473-1.5127H72.90338V396.961h4.09625v-6.8711H78.7569a8.33365,8.33365,0,0,0,5.543-1.65136A5.90206,5.90206,0,0,0,86.2486,383.669,5.51621,5.51621,0,0,0,84.41852,379.15625Zm-3.24359,6.83112a4.48632,4.48632,0,0,1-2.82764.74707H76.99963V381h1.86274a3.684,3.684,0,0,1,2.46441.68652,2.67913,2.67913,0,0,1,.78614,2.127A2.61123,2.61123,0,0,1,81.17493,385.98737Z"/><polygon points="96.697 377.644 92.601 377.644 92.601 396.961 104.533 396.961 104.533 393.578 96.697 393.578 96.697 377.644"/><path d="M118.95856,377.33972q-4.45258,0-6.83741,2.543-2.38521,2.54388-2.38525,7.36621.00027,4.82272,2.37842,7.39942a10.30705,10.30705,0,0,0,13.63574,0q2.37844-2.57566,2.37842-7.373,0-4.80872-2.3584-7.37219Q123.41178,377.33971,118.95856,377.33972ZM118.93219,393.79a4.29841,4.29841,0,0,1-3.67334-1.63867,10.25389,10.25389,0,0,1,.01318-9.75782,4.32979,4.32979,0,0,1,3.68653-1.6455q4.876,0,4.876,6.52734Q123.83435,393.7901,118.93219,393.79Z"/><path d="M147.24567,386.46289a5.71531,5.71531,0,0,0-.95166-7.38574q-1.8891-1.43363-5.82666-1.4336h-5.62891v19.31739h4.09619v-7.41211h2.18018l4.61133,7.41211h4.54541q-1.32148-1.90284-5.68165-8.417A6.20328,6.20328,0,0,0,147.24567,386.46289Zm-4.12256-.8916a5.055,5.055,0,0,1-2.86719.64746h-1.32129V381h1.24219a5.72987,5.72987,0,0,1,2.92627.58105,2.11313,2.11313,0,0,1,.94482,1.95508A2.31144,2.31144,0,0,1,143.12311,385.57129Z"/><polygon points="155.408 396.961 166.534 396.961 166.534 393.578 159.504 393.578 159.504 388.597 166.045 388.597 166.045 385.241 159.505 385.241 159.505 381 166.534 381 166.534 377.644 155.408 377.644 155.408 396.961"/><path d="M185.67688,386.46289a5.71545,5.71545,0,0,0-.95166-7.38574q-1.88919-1.43363-5.82666-1.4336h-5.62891v19.31739h4.09619v-7.41211H179.546l4.61133,7.41211h4.54541q-1.32156-1.90284-5.68164-8.417A6.204,6.204,0,0,0,185.67688,386.46289Zm-4.12256-.8916a5.05521,5.05521,0,0,1-2.86719.64746h-1.32129V381H178.608a5.73011,5.73011,0,0,1,2.92627.58105,2.11336,2.11336,0,0,1,.94483,1.95508A2.31176,2.31176,0,0,1,181.55432,385.57129Z"/><polygon points="203.575 396.961 207.606 396.961 207.606 389.324 214.159 389.324 214.159 385.98 207.606 385.98 207.606 381 214.648 381 214.648 377.644 203.575 377.644 203.575 396.961"/><path d="M229.4967,377.33972q-4.45266,0-6.8374,2.543-2.38532,2.54388-2.38525,7.36621.00018,4.82272,2.37842,7.39942a10.30705,10.30705,0,0,0,13.63574,0q2.37836-2.57566,2.37842-7.373-.0001-4.80872-2.3584-7.37219Q233.94973,377.33971,229.4967,377.33972ZM229.47034,393.79a4.29848,4.29848,0,0,1-3.67334-1.63861,8.07178,8.07178,0,0,1-1.22852-4.876h-.00006a8.039,8.039,0,0,1,1.2417-4.8819,4.32977,4.32977,0,0,1,3.68652-1.6455q4.876,0,4.876,6.52734Q234.37241,393.78995,229.47034,393.79Z"/><path d="M257.78333,386.46289a5.71538,5.71538,0,0,0-.95166-7.38574q-1.8892-1.43363-5.82667-1.4336h-5.629v19.31739h4.09619v-7.41211h2.18024l4.61132,7.41211h4.54541q-1.32147-1.90284-5.68164-8.417A6.20328,6.20328,0,0,0,257.78333,386.46289Zm-4.12262-.8916a5.055,5.055,0,0,1-2.86719.64746h-1.32129L249.47229,381h1.24219a5.72979,5.72979,0,0,1,2.92621.58105,2.11313,2.11313,0,0,1,.94482,1.95508A2.31146,2.31146,0,0,1,253.66071,385.57129Z"/><path d="M283.04163,389.13867a33.87166,33.87166,0,0,0-.99121,4.25488q-.07911-.52935-.40284-1.88281-.32427-1.35407-.62744-2.37207l-3.63379-11.49512h-4.13574l6.55371,19.31739h4.46582l6.5669-19.31739h-4.13575Z"/><path d="M302.65973,385.80951a24.76967,24.76967,0,0,1-2.5957-1.35449,2.75163,2.75163,0,0,1-.79981-.78028,1.7467,1.7467,0,0,1-.251-.94433,1.78794,1.78794,0,0,1,.6211-1.41406,2.63009,2.63009,0,0,1,1.7832-.541,8.19305,8.19305,0,0,1,1.98828.251,19.20068,19.20068,0,0,1,2.55664.88476l1.32227-3.18457a19.81727,19.81727,0,0,0-2.86133-1.0039,11.30705,11.30705,0,0,0-2.873-.35645,7.21557,7.21557,0,0,0-4.80323,1.4668,4.99083,4.99083,0,0,0-1.7373,4.02929,5.09132,5.09132,0,0,0,.52832,2.37891,5.997,5.997,0,0,0,1.41406,1.7832,11.82492,11.82492,0,0,0,2.65479,1.59864,23.81478,23.81478,0,0,1,2.5039,1.30859,3.54294,3.54294,0,0,1,.93164.85254,1.68218,1.68218,0,0,1,.31836,1.01074,1.7621,1.7621,0,0,1-.7207,1.53223,3.52388,3.52388,0,0,1-2.06836.51562,9.81839,9.81839,0,0,1-2.47705-.35644,22.51092,22.51092,0,0,1-3.30957-1.22949v3.80566a12.30034,12.30034,0,0,0,5.47021,1.16309,8.17864,8.17864,0,0,0,5.23828-1.50684,4.99069,4.99069,0,0,0,1.88282-4.12207,5.06636,5.06636,0,0,0-1.004-3.19147A10.33332,10.33332,0,0,0,302.65973,385.80951Z"/><path d="M331.526,380.77539a6.49416,6.49416,0,0,1,2.15332.38281,21.92071,21.92071,0,0,1,2.18067.89844l1.32128-3.33014a13.00225,13.00225,0,0,0-5.65527-1.36035,9.31654,9.31654,0,0,0-4.81641,1.209,7.92288,7.92288,0,0,0-3.15136,3.4746,11.98124,11.98124,0,0,0-1.09668,5.27832q-.00047,4.78319,2.2334,7.34083a8.10082,8.10082,0,0,0,6.44726,2.55664,13.70032,13.70032,0,0,0,5.3125-.99121v-3.43555a15.32313,15.32313,0,0,1-4.92871,1.01758q-4.84954-.001-4.84961-6.46094a8.083,8.083,0,0,1,1.26856-4.84277A4.17387,4.17387,0,0,1,331.526,380.77539Z"/><path d="M351.63342,377.33972q-4.45312,0-6.83789,2.543-2.38476,2.54388-2.38476,7.36621,0,4.82272,2.3789,7.39942a10.30706,10.30706,0,0,0,13.63575,0q2.37789-2.57566,2.37792-7.373,0-4.80863-2.35839-7.37219Q356.08655,377.33971,351.63342,377.33972ZM351.607,393.79a4.29748,4.29748,0,0,1-3.67279-1.63861,10.2489,10.2489,0,0,1,.01264-9.75788,4.329,4.329,0,0,1,3.68652-1.6455q4.876,0,4.876,6.52734Q356.50988,393.78995,351.607,393.79Z"/><path d="M373.57776,377.64355h-6.06445v19.31739H372.983q5.12742,0,7.8418-2.53711,2.71582-2.53712,2.71582-7.30664a9.18628,9.18628,0,0,0-2.61621-6.97657Q378.30776,377.64352,373.57776,377.64355Zm-.21192,15.93457H371.609V381h2.17969q5.497,0,5.49707,6.22266Q379.28522,393.57805,373.36584,393.57812Z"/><polygon points="390.251 396.961 401.376 396.961 401.376 393.578 394.346 393.578 394.346 388.597 400.886 388.597 400.886 385.241 394.346 385.241 394.346 381 401.376 381 401.376 377.644 390.251 377.644 390.251 396.961"/><rect x="416.22131" y="388.05566" width="7.0957" height="3.30273"/><polygon points="442.087 393.578 451.336 380.286 451.336 377.644 437.462 377.644 437.462 381.026 446.474 381.026 437.211 394.305 437.211 396.961 451.588 396.961 451.587 393.578 442.087 393.578"/><path d="M465.736,377.33972q-4.45312,0-6.83789,2.543-2.38476,2.54388-2.38476,7.36621,0,4.82272,2.3789,7.39942a10.30705,10.30705,0,0,0,13.63574,0q2.37791-2.57566,2.37793-7.373,0-4.80863-2.35839-7.37219Q470.18909,377.33971,465.736,377.33972ZM465.70959,393.79a4.29757,4.29757,0,0,1-3.67285-1.63867,10.24878,10.24878,0,0,1,.01264-9.75782,4.32906,4.32906,0,0,1,3.68652-1.6455q4.876,0,4.876,6.52734Q470.61239,393.7901,465.70959,393.79Z"/><path d="M498.858,388.18756q-.23685.95216-.52832,2.49024-.291,1.53909-.42285,2.57031-.14455-1.06934-.42285-2.56348-.27741-1.49313-.46192-2.21973l-2.81445-10.82128h-3.87207l-2.81348,10.82128q-.25249.872-.53515,2.45118-.28418,1.579-.36328,2.332-.291-2.13958-.93848-5.06055l-2.4707-10.54395H479.1842l4.92872,19.31739h4.65039l2.60351-10.1211q.17194-.67383.48828-2.25293.31732-1.57818.39649-2.293.05319.58154.40332,2.27929.3501,1.69821.49511,2.24024l2.61622,10.14746h4.665l4.915-19.31732H501.316Z"/><polygon points="510.484 396.961 521.609 396.961 521.609 393.578 514.58 393.578 514.58 388.597 521.12 388.597 521.12 385.241 514.58 385.241 514.58 381 521.609 381 521.609 377.644 510.484 377.644 510.484 396.961"/><path d="M545.44,389.13867a33.88392,33.88392,0,0,0-.99121,4.25488q-.07956-.52935-.40332-1.88281-.32373-1.35407-.627-2.37207l-3.63379-11.49512H535.649l6.55371,19.31739h4.46582l6.56738-19.31739h-4.13574Z"/><path d="M557.54059,382.59869l1.96875,2.457,2.21972-1.7832q.39606-.317,1.41407-1.335l-.06641,2.00879-.03906,1.83594v11.17871h4.083V377.64362h-3.35645Z"/></svg>