<?xml version="1.0" encoding="UTF-8" standalone="no"?>
<!-- Generator: Adobe Illustrator 23.1.1, SVG Export Plug-In . SVG Version: 6.00 Build 0)  -->

<svg
   version="1.1"
   id="Layer_1"
   x="0px"
   y="0px"
   viewBox="0 0 93.675003 93.775002"
   xml:space="preserve"
   sodipodi:docname="ade-icon-black.svg"
   width="93.675003"
   height="93.775002"
   inkscape:version="1.2.2 (b0a84865, 2022-12-01)"
   inkscape:export-filename="ade-icon-black.png"
   inkscape:export-xdpi="1200"
   inkscape:export-ydpi="1200"
   xmlns:inkscape="http://www.inkscape.org/namespaces/inkscape"
   xmlns:sodipodi="http://sodipodi.sourceforge.net/DTD/sodipodi-0.dtd"
   xmlns="http://www.w3.org/2000/svg"
   xmlns:svg="http://www.w3.org/2000/svg"><defs
   id="defs339" /><sodipodi:namedview
   id="namedview337"
   pagecolor="#ffffff"
   bordercolor="#666666"
   borderopacity="1.0"
   inkscape:showpageshadow="2"
   inkscape:pageopacity="0.0"
   inkscape:pagecheckerboard="0"
   inkscape:deskcolor="#d1d1d1"
   showgrid="false"
   inkscape:zoom="2.1454545"
   inkscape:cx="168.02966"
   inkscape:cy="47.076271"
   inkscape:window-width="1350"
   inkscape:window-height="480"
   inkscape:window-x="1865"
   inkscape:window-y="205"
   inkscape:window-maximized="0"
   inkscape:current-layer="Layer_1" />
<style
   type="text/css"
   id="style274">
	.st0{fill:#231F20;}
	.st1{opacity:0.6;fill:#231F20;}
	.st2{fill:#FFFFFF;}
	.st3{opacity:0.6;fill:#FFFFFF;}
</style>

<g
   id="g334"
   transform="translate(-11.525,-8.1)">
	<path
   class="st0"
   d="M 66.4,8.1 C 45,8.1 27.6,25.5 27.6,46.9 c 0,8.4 2.7,16.2 7.2,22.5 l 1,-1 C 31.6,62.3 29,54.9 29,46.9 29,26.3 45.8,9.6 66.4,9.6 87,9.6 103.8,26.4 103.8,47 103.8,67.6 87,84.3 66.4,84.3 58.4,84.3 51,81.8 44.9,77.5 l -1,1 c 6.4,4.5 14.1,7.2 22.5,7.2 21.4,0 38.8,-17.4 38.8,-38.8 C 105.2,25.5 87.8,8.1 66.4,8.1 Z"
   id="path326" />
	<path
   class="st0"
   d="m 37.7,70.8 -1,1 L 12.5,96 c -1.3,1.3 -1.3,3.5 0,4.9 1.3,1.3 3.5,1.3 4.9,0 l 24.2,-24.2 1,-1 c -1.8,-1.5 -3.4,-3.1 -4.9,-4.9 z"
   id="path328" />
	<path
   class="st0"
   d="m 66.4,81.3 c 19,0 34.4,-15.4 34.4,-34.4 0,-19 -15.4,-34.4 -34.4,-34.4 -19,0 -34.4,15.5 -34.4,34.4 0,19 15.4,34.4 34.4,34.4 z m 0,-64.5 C 83,16.8 96.5,30.3 96.5,46.9 96.5,63.5 83,77 66.4,77 49.8,77 36.3,63.5 36.3,46.9 36.3,30.3 49.8,16.8 66.4,16.8 Z"
   id="path330" />
	<path
   class="st1"
   d="M 66.4,77 C 83,77 96.5,63.6 96.5,46.9 96.5,30.2 83,16.8 66.4,16.8 49.8,16.8 36.3,30.3 36.3,46.9 36.3,63.5 49.8,77 66.4,77 Z M 64.3,21.5 c 7.5,-0.3 14.6,2.5 19.9,7.8 5.3,5.3 8.1,12.4 7.8,19.9 0,0.5 -0.5,1 -1,1 0,0 0,0 0,0 -0.6,0 -1,-0.5 -1,-1 0.2,-7 -2.3,-13.5 -7.3,-18.4 -4.9,-4.9 -11.5,-7.5 -18.4,-7.3 -0.6,0 -1,-0.4 -1,-1 0,-0.5 0.5,-0.9 1,-1 z"
   id="path332" />
</g>
</svg>
