<?xml version="1.0" encoding="UTF-8" standalone="no"?>
<svg
   xmlns:dc="http://purl.org/dc/elements/1.1/"
   xmlns:cc="http://creativecommons.org/ns#"
   xmlns:rdf="http://www.w3.org/1999/02/22-rdf-syntax-ns#"
   xmlns:svg="http://www.w3.org/2000/svg"
   xmlns="http://www.w3.org/2000/svg"
   viewBox="0 0 1056 816"
   height="816"
   width="1056"
   xml:space="preserve"
   id="svg2"
   version="1.1"><metadata
     id="metadata8"><rdf:RDF><cc:Work
         rdf:about=""><dc:format>image/svg+xml</dc:format><dc:type
           rdf:resource="http://purl.org/dc/dcmitype/StillImage" /></cc:Work></rdf:RDF></metadata><defs
     id="defs6"><clipPath
       id="clipPath18"
       clipPathUnits="userSpaceOnUse"><path
         id="path16"
         d="M 0,612 H 792 V 0 H 0 Z" /></clipPath></defs><g
     transform="matrix(1.3333333,0,0,-1.3333333,0,816)"
     id="g10"><g
       id="g12"><g
         clip-path="url(#clipPath18)"
         id="g14"><g
           transform="translate(156.4065,398.8964)"
           id="g20"><path
             id="path22"
             style="fill:#231f20;fill-opacity:1;fill-rule:nonzero;stroke:none"
             d="m 0,0 -56.169,32.429 c -4.251,2.454 -9.488,2.454 -13.739,0 L -126.077,0 c -4.251,-2.454 -6.87,-6.99 -6.87,-11.899 v -64.858 c 0,-4.909 2.619,-9.444 6.87,-11.899 l 56.169,-32.429 c 4.251,-2.454 9.488,-2.454 13.739,0 L 0,-88.656 c 4.251,2.455 6.87,6.99 6.87,11.899 v 64.858 C 6.87,-6.99 4.251,-2.454 0,0" /></g><g
           transform="translate(91.9517,332.0108)"
           id="g24"><path
             id="path26"
             style="fill:#ffffff;fill-opacity:1;fill-rule:nonzero;stroke:none"
             d="M 0,0 H 2.125 L 26.401,29.943 V -20.591 L 51.538,-6.078 V 51.798 L 27.448,65.706 1.352,34 -24.62,65.704 -48.706,51.798 V -6.078 l 24.365,-14.067 v 50.088 z" /></g><g
           transform="translate(558.1377,254.3063)"
           id="g28"><path
             id="path30"
             style="fill:#231f20;fill-opacity:1;fill-rule:nonzero;stroke:none"
             d="m 0,0 v -13.643 h 6.289 c 2.822,0 4.967,0.596 6.435,1.79 1.467,1.193 2.202,2.878 2.202,5.055 0,2.081 -0.718,3.734 -2.153,4.96 C 11.336,-0.613 9.28,0 6.604,0 Z m -2.613,2.177 h 9.314 c 3.563,0 6.292,-0.798 8.188,-2.395 1.895,-1.596 2.842,-3.773 2.842,-6.531 0,-2.79 -0.956,-4.999 -2.866,-6.628 -1.911,-1.629 -4.714,-2.444 -8.407,-2.444 H 0 v -15.795 h -2.613 z" /></g><g
           transform="translate(587.4031,254.3063)"
           id="g32"><path
             id="path34"
             style="fill:#231f20;fill-opacity:1;fill-rule:nonzero;stroke:none"
             d="m 0,0 v -13.232 h 5.612 c 2.854,0 5.036,0.576 6.544,1.73 1.508,1.152 2.262,2.786 2.262,4.898 0,2.08 -0.767,3.702 -2.299,4.863 C 10.587,-0.58 8.386,0 5.516,0 Z m -2.613,2.177 h 8.661 c 3.628,0 6.401,-0.786 8.321,-2.358 1.92,-1.573 2.878,-3.698 2.878,-6.374 0,-3.903 -2.144,-6.645 -6.434,-8.225 1.113,-0.532 2.613,-2.25 4.499,-5.153 l 7.644,-11.683 h -3.092 l -5.887,9.261 c -1.966,3.098 -3.498,5.029 -4.594,5.796 -1.097,0.766 -2.701,1.15 -4.812,1.15 H 0 v -16.207 h -2.613 z" /></g><g
           transform="translate(632.9499,224.673)"
           id="g36"><path
             id="path38"
             style="fill:#231f20;fill-opacity:1;fill-rule:nonzero;stroke:none"
             d="m 0,0 c 4.209,0 7.761,1.439 10.656,4.319 2.895,2.878 4.342,6.406 4.342,10.583 0,4.192 -1.447,7.728 -4.342,10.606 -2.895,2.88 -6.447,4.319 -10.656,4.319 -4.225,0 -7.801,-1.439 -10.728,-4.319 -2.927,-2.878 -4.39,-6.414 -4.39,-10.606 0,-4.177 1.463,-7.705 4.39,-10.583 C -7.801,1.439 -4.225,0 0,0 m -0.097,32.246 c 4.999,0 9.237,-1.681 12.712,-5.044 3.476,-3.362 5.214,-7.463 5.214,-12.3 0,-4.822 -1.738,-8.915 -5.214,-12.277 -3.475,-3.363 -7.713,-5.044 -12.712,-5.044 -4.982,0 -9.204,1.681 -12.663,5.044 -3.459,3.362 -5.189,7.455 -5.189,12.277 0,4.837 1.73,8.938 5.189,12.3 3.459,3.363 7.681,5.044 12.663,5.044" /></g><g
           transform="translate(663.9098,256.4833)"
           id="g40"><path
             id="path42"
             style="fill:#231f20;fill-opacity:1;fill-rule:nonzero;stroke:none"
             d="m 0,0 v -33.794 c 0,-3.725 -0.702,-6.297 -2.105,-7.717 -1.403,-1.418 -3.064,-2.128 -4.984,-2.128 -0.451,0 -0.975,0.033 -1.571,0.097 l -0.243,2.467 c 0.549,-0.128 1.065,-0.194 1.549,-0.194 3.16,0 4.741,2.259 4.741,6.774 V 0 Z" /></g><g
           transform="translate(693.9006,256.4833)"
           id="g44"><path
             id="path46"
             style="fill:#231f20;fill-opacity:1;fill-rule:nonzero;stroke:none"
             d="m 0,0 v -2.177 h -15.82 v -13.522 h 15.409 v -2.202 H -15.82 V -31.616 H 0.388 v -2.178 h -18.82 V 0 Z" /></g><g
           transform="translate(731.8032,254.0885)"
           id="g48"><path
             id="path50"
             style="fill:#231f20;fill-opacity:1;fill-rule:nonzero;stroke:none"
             d="m 0,0 v -2.854 c -4.097,2.177 -8.112,3.266 -12.047,3.266 -4.193,0 -7.701,-1.428 -10.523,-4.283 -2.822,-2.854 -4.233,-6.418 -4.233,-10.691 0,-4.323 1.42,-7.878 4.257,-10.668 2.839,-2.79 6.46,-4.185 10.861,-4.185 3.678,0 7.685,1.153 12.024,3.459 v -2.709 c -4,-2.113 -7.991,-3.169 -11.974,-3.169 -5.146,0 -9.431,1.648 -12.857,4.947 -3.428,3.297 -5.141,7.406 -5.141,12.325 0,4.95 1.749,9.087 5.249,12.409 3.499,3.322 7.668,4.983 12.507,4.983 C -8.071,2.83 -4.112,1.887 0,0" /></g><g
           transform="translate(765.4237,256.4833)"
           id="g52"><path
             id="path54"
             style="fill:#231f20;fill-opacity:1;fill-rule:nonzero;stroke:none"
             d="m 0,0 v -2.177 h -12.676 v -31.617 h -2.636 V -2.177 H -27.988 V 0 Z" /></g><g
           transform="translate(233.1075,368.7475)"
           id="g56"><path
             id="path58"
             style="fill:#231f20;fill-opacity:1;fill-rule:nonzero;stroke:none"
             d="m 0,0 c 6.939,0 12.794,2.373 17.566,7.118 4.771,4.746 7.158,10.561 7.158,17.447 0,6.912 -2.387,12.741 -7.158,17.486 C 12.794,46.797 6.939,49.169 0,49.169 c -6.966,0 -12.861,-2.372 -17.686,-7.118 -4.825,-4.745 -7.238,-10.574 -7.238,-17.486 0,-6.886 2.413,-12.701 7.238,-17.447 C -12.861,2.373 -6.966,0 0,0 m -0.16,53.157 c 8.241,0 15.227,-2.772 20.956,-8.314 C 26.525,39.3 29.389,32.54 29.389,24.565 29.389,16.615 26.525,9.87 20.796,4.327 15.067,-1.216 8.081,-3.988 -0.16,-3.988 c -8.215,0 -15.173,2.772 -20.876,8.315 -5.702,5.543 -8.554,12.288 -8.554,20.238 0,7.975 2.852,14.735 8.554,20.278 5.703,5.542 12.661,8.314 20.876,8.314" /></g><g
           transform="translate(277.2917,417.5978)"
           id="g60"><path
             id="path62"
             style="fill:#231f20;fill-opacity:1;fill-rule:nonzero;stroke:none"
             d="m 0,0 v -22.491 h 10.368 c 4.652,0 8.188,0.983 10.608,2.951 2.419,1.967 3.628,4.745 3.628,8.334 0,3.43 -1.183,6.155 -3.549,8.175 C 18.689,-1.011 15.299,0 10.887,0 Z m -4.307,3.589 h 15.353 c 5.875,0 10.375,-1.316 13.498,-3.948 3.124,-2.632 4.686,-6.221 4.686,-10.767 0,-4.599 -1.575,-8.242 -4.725,-10.926 -3.15,-2.686 -7.77,-4.028 -13.857,-4.028 H 0 v -26.04 h -4.307 z" /></g><g
           transform="translate(345.1632,421.187)"
           id="g64"><path
             id="path66"
             style="fill:#231f20;fill-opacity:1;fill-rule:nonzero;stroke:none"
             d="M 0,0 V -3.589 H -26.08 V -25.881 H -0.678 V -29.51 H -26.08 V -52.12 H 0.638 v -3.589 H -30.387 V 0 Z" /></g><g
           transform="translate(404.8601,421.187)"
           id="g68"><path
             id="path70"
             style="fill:#231f20;fill-opacity:1;fill-rule:nonzero;stroke:none"
             d="m 0,0 v -55.709 h -3.544 l -42.355,48.69 v -48.69 h -4.307 V 0 h 3.649 L -4.306,-48.691 V 0 Z" /></g><g
           transform="translate(270.5923,279.4897)"
           id="g72"><path
             id="path74"
             style="fill:#231f20;fill-opacity:1;fill-rule:nonzero;stroke:none"
             d="M 0,0 H -16.669 V 32.022 L -31.703,13.479 h -1.316 L -48.092,32.022 V 0 h -16.191 v 55.27 h 15.114 L -32.181,34.534 -15.114,55.27 H 0 Z" /></g><g
           transform="translate(319.8407,300.3054)"
           id="g76"><path
             id="path78"
             style="fill:#231f20;fill-opacity:1;fill-rule:nonzero;stroke:none"
             d="M 0,0 -8.095,20.178 -16.27,0 Z M 25.402,-20.816 H 8.335 L 3.828,-9.611 h -24.006 l -4.586,-11.205 h -17.068 l 24.445,55.271 H 1.037 Z" /></g><path
           id="path80"
           style="fill:#231f20;fill-opacity:1;fill-rule:nonzero;stroke:none"
           d="m 369.329,279.49 h -16.668 v 55.27 h 16.668 z" /><g
           transform="translate(443.3021,279.4897)"
           id="g82"><path
             id="path84"
             style="fill:#231f20;fill-opacity:1;fill-rule:nonzero;stroke:none"
             d="M 0,0 H -14.835 L -43.506,30.786 V 0 h -16.509 v 55.27 h 14.794 L -16.628,24.645 V 55.27 H 0 Z" /></g><g
           transform="translate(496.7775,301.8613)"
           id="g86"><path
             id="path88"
             style="fill:#231f20;fill-opacity:1;fill-rule:nonzero;stroke:none"
             d="M 0,0 H -22.929 V -22.372 H -39.598 V 32.899 H 0 V 21.813 H -22.929 V 11.125 H 0 Z" /></g><g
           transform="translate(538.8488,317.2938)"
           id="g90"><path
             id="path92"
             style="fill:#231f20;fill-opacity:1;fill-rule:nonzero;stroke:none"
             d="m 0,0 c 0,2.552 -0.837,4.333 -2.512,5.344 -1.675,1.009 -4.401,1.515 -8.175,1.515 h -3.509 V -6.46 h 3.589 c 4.068,0 6.852,0.445 8.354,1.336 C -0.751,-4.234 0,-2.526 0,0 M 22.651,-37.804 H 4.746 l -4.347,9.809 c -1.595,3.59 -3.03,6.215 -4.307,7.877 -1.276,1.661 -2.519,2.724 -3.728,3.19 -1.211,0.465 -2.772,0.697 -4.686,0.697 h -1.874 v -21.573 h -16.669 v 55.27 h 28.353 c 4.572,0 8.321,-0.931 11.245,-2.791 2.924,-1.861 5.032,-4.121 6.321,-6.779 1.289,-2.659 1.934,-5.184 1.934,-7.577 0,-2.791 -0.538,-5.151 -1.614,-7.079 -1.078,-1.927 -2.214,-3.329 -3.41,-4.207 -1.197,-0.876 -2.54,-1.714 -4.028,-2.512 1.781,-1.036 3.25,-2.266 4.406,-3.689 1.157,-1.422 2.733,-4.3 4.726,-8.633 z" /></g><g
           transform="translate(604.3681,300.3054)"
           id="g94"><path
             id="path96"
             style="fill:#231f20;fill-opacity:1;fill-rule:nonzero;stroke:none"
             d="M 0,0 -8.095,20.178 -16.27,0 Z M 25.402,-20.816 H 8.334 L 3.828,-9.611 h -24.006 l -4.586,-11.205 h -17.067 l 24.444,55.271 H 1.037 Z" /></g><g
           transform="translate(701.3894,279.4897)"
           id="g98"><path
             id="path100"
             style="fill:#231f20;fill-opacity:1;fill-rule:nonzero;stroke:none"
             d="M 0,0 H -16.668 V 32.022 L -31.702,13.479 h -1.316 L -48.092,32.022 V 0 h -16.19 v 55.27 h 15.114 L -32.18,34.534 -15.113,55.27 H 0 Z" /></g><g
           transform="translate(757.0189,279.4897)"
           id="g102"><path
             id="path104"
             style="fill:#231f20;fill-opacity:1;fill-rule:nonzero;stroke:none"
             d="M 0,0 H -41.672 V 55.27 H -0.677 V 44.184 H -25.003 V 34.056 H -1.795 V 22.929 H -25.003 V 11.126 H 0 Z" /></g></g></g></g></svg>