<svg id="svg2" xmlns="http://www.w3.org/2000/svg" xmlns:xlink="http://www.w3.org/1999/xlink" viewBox="0 0 1055.99994 338.23188"><defs><style>.cls-1{fill:none;}.cls-2{fill:#2b7de1;}.cls-3{clip-path:url(#clip-path);}.cls-4{clip-path:url(#clip-path-2);}.cls-5{opacity:0.39999;}.cls-6{fill:#231f20;}.cls-7{fill:#fff;}.cls-8{fill:#002a3a;}.cls-9{fill:#0033a1;}</style><clipPath id="clip-path"><path class="cls-1" d="M115.33066,22.86833l-74.892,43.24a18.3191,18.3191,0,0,0-9.16,15.86531h0v86.476a18.31905,18.31905,0,0,0,9.16,15.86531h0l74.892,43.23869a18.32263,18.32263,0,0,0,18.32,0h0l74.89067-43.23869a18.31907,18.31907,0,0,0,9.16-15.86531h0v-86.476a18.31907,18.31907,0,0,0-9.16-15.86531h0l-74.89066-43.24a18.31376,18.31376,0,0,0-9.16-2.45467h0a18.31375,18.31375,0,0,0-9.16,2.45467"/></clipPath><clipPath id="clip-path-2"><rect class="cls-1" x="57.6616" y="67.6803" width="273.73572" height="255.14"/></clipPath></defs><g id="g10"><g id="g12"><g id="g14"><g id="g20"><path id="path22" class="cls-2" d="M208.542,66.10779,133.65,22.86912a18.3202,18.3202,0,0,0-18.31867,0l-74.892,43.23867a18.31912,18.31912,0,0,0-9.16,15.86533v86.47733a18.32076,18.32076,0,0,0,9.16,15.86534l74.892,43.23866a18.32015,18.32015,0,0,0,18.31867,0l74.892-43.23867a18.32075,18.32075,0,0,0,9.16-15.86534V81.97311a18.31912,18.31912,0,0,0-9.16-15.86532"/></g></g></g><g id="g24"><g class="cls-3"><g id="g26"><g id="g32"><g id="g46"><g class="cls-4"><g id="g44" class="cls-5"><g id="g42"><path id="path40" class="cls-6" d="M331.25692,226.22122v-.05866l-.14-.08134v-.05866l-.14-.08134v-.05866l-.14-.08134v-.05866l-.14-.08134v-.05866l-.14-.08134v-.05866l-.14-.08134v-.05866l-.14-.08134v-.05866l-.14-.08134v-.05866l-.14-.08134v-.05866l-.14-.08134v-.05866l-.13867-.08134v-.05866l-.14-.08v-.06l-.14-.08v-.06l-.14-.08v-.06l-.14-.08v-.06l-.14-.08v-.06l-.14-.08v-.06l-.14-.08v-.06l-.14-.08v-.05867l-.14-.08133v-.05867l-.14-.08133v-.05867l-.14-.08133v-.05867l-.14-.08133v-.05867l-.14-.08133v-.05867l-.14-.08133v-.05867l-.14-.08133v-.05867l-.14-.08133v-.05867l-.14-.08133v-.05867l-.14-.08133v-.05867l-.14-.08133v-.05867l-.14-.08133v-.05867l-.13867-.08v-.06l-.14-.08133v-.05867l-.14-.08v-.06l-.14-.08v-.06l-.14-.08v-.06l-.14-.08v-.06l-.14-.08v-.06l-.14-.08v-.06l-.14-.08v-.05867l-.14-.08133v-.05867l-.14-.08133v-.05867l-.14-.08133v-.05867l-.14-.08133v-.05867l-.14-.08133v-.05867l-.14-.08133v-.05867l-.14-.08133v-.05867l-.14-.08133v-.05867l-.14-.08133v-.05867l-.14-.08133v-.05867l-.14-.08133v-.05867l-.14-.08133v-.05867l-.13866-.08v-.06l-.14-.08v-.06l-.14-.08v-.06l-.14-.08v-.06l-.14-.08v-.06l-.14-.08v-.06l-.14-.08v-.06l-.14-.08v-.06l-.14-.08v-.06l-.14-.08v-.05866l-.14-.08134v-.05866l-.14-.08134v-.05866l-.14-.08134v-.05866l-.14-.08134v-.05866l-.14-.08134v-.05866l-.14-.08134v-.05866l-.14-.08134v-.05866l-.14-.08134v-.05866l-.14-.08134v-.05866l-.14-.08134v-.05866l-.14-.08134v-.05866l-.14-.08134v-.05866l-.13867-.08v-.06l-.14-.08v-.06l-.14-.08v-.06l-.14-.08v-.06l-.14-.08v-.06l-.14-.08v-.06l-.14-.08v-.06l-.14-.08v-.05866l-.14-.08133v-.05867l-.14-.08133v-.05867l-.14-.08133v-.05867l-.14-.08133v-.05867l-.14-.08133v-.05867l-.14-.08133v-.05867l-.14-.08133v-.05867l-.14-.08133v-.05867l-.14-.08133v-.05867l-.14-.08133v-.05867l-.14-.08133v-.05867l-.14-.08133v-.05867l-.14-.08133v-.05867l-.13866-.08v-.06l-.14-.08v-.06l-.14-.08v-.06l-.14-.08v-.06l-.14-.08v-.06l-.14-.08v-.06l-.14-.08v-.06l-.14-.08v-.06l-.14-.08v-.05867l-.14-.08133v-.05867l-.14-.08133v-.05867l-.14-.08133v-.05867l-.14-.08133v-.05867l-.14-.08133v-.05867l-.14-.08133v-.05867l-.14-.08133v-.05867l-.14-.08133v-.05866l-.14-.08134v-.05866l-.14-.08134v-.05866l-.14-.08134v-.05866l-.14-.08134v-.05866l-.13866-.08v-.06l-.14-.08v-.06l-.14-.08v-.06l-.14-.08v-.06l-.14-.08v-.06l-.14-.08v-.06l-.14-.08v-.06l-.14-.08v-.06l-.14-.08v-.05866l-.14-.08134v-.05866l-.14-.08134v-.05866l-.14-.08134v-.05866l-.14-.08134v-.05866l-.14-.08133v-.05867l-.14-.08133v-.05867l-.14-.08133v-.05867l-.14-.08133v-.05867l-.14-.08133v-.05867l-.14-.08133v-.05867l-.14-.08133v-.05867l-.14-.08133v-.05867l-.14-.08133v-.05867l-.13867-.08v-.06l-.14-.08v-.06l-.14-.08v-.06l-.14-.08v-.06l-.14-.08v-.06l-.14-.08v-.06l-.14-.08v-.06l-.14-.08v-.05867l-.14-.08133v-.05867l-.14-.08133v-.05867l-.14-.08133v-.05867l-.14-.08133v-.05866l-.14-.08134v-.05866l-.14-.08134v-.05866l-.14-.08134v-.05866l-.14-.08134v-.05867l-.14-.08133v-.05867l-.14-.08133v-.05867l-.14-.08133v-.05867l-.14-.08134v-.05866l-.14-.08134v-.05867l-.13867-.08v-.06l-.14-.08v-.06l-.14-.08v-.06l-.14-.08v-.06l-.14-.08v-.06l-.14-.08v-.06l-.14-.08v-.06l-.14-.08v-.06l-.14-.08v-.05867l-.14-.08133v-.05867l-.14-.08133v-.05867l-.14-.08134v-.05866l-.14-.08134v-.05867l-.14-.08133v-.05867l-.14-.08133v-.05867l-.14-.08133v-.05867l-.14-.08134v-.05866l-.14-.08134v-.05866l-.14-.08134v-.05867l-.14-.08133v-.05867l-.14-.08133v-.05867l-.14-.08134v-.05866l-.13866-.08v-.06l-.14-.08v-.06l-.14-.08v-.06l-.14-.08v-.06l-.14-.08v-.06l-.14-.08v-.06l-.14-.08v-.06l-.14-.08v-.05867l-.14-.08133v-.05867l-.14-.08133v-.05867l-.14-.08133v-.05867l-.14-.08134v-.05863l-.14-.08134v-.05866l-.14-.08134v-.05867l-.14-.08133v-.05867l-.14-.08133v-.05867l-.14-.08133v-.05867l-.14-.08134v-.05866l-.14-.08134v-.05867l-.14-.08133v-.05867l-.14-.08133v-.05867l-.13867-.08v-.06l-.14-.08v-.06l-.14-.08v-.06l-.14-.08v-.06l-.14-.08v-.06l-.14-.08v-.06l-.14-.08v-.06l-.14-.08v-.05867l-.14-.08134v-.05866l-.14-.08134v-.05867l-.14-.08133v-.05867l-.14-.08133v-.05867l-.14-.08133v-.05867l-.14-.08134v-.05866l-.14-.08134v-.05867l-.14-.08133v-.05867l-.14-.08133v-.05867l-.14-.08133v-.05867l-.14-.08134v-.05866l-.14007-.0813v-.05867l-.14-.08133v-.05867l-.13866-.08v-.06l-.14-.08v-.06l-.14-.08v-.06l-.14-.08v-.06l-.14-.08v-.06l-.14-.08v-.06l-.14-.08v-.06l-.14-.08v-.06l-.14-.08v-.05866l-.14-.08134v-.05867l-.14-.08133v-.05867l-.14-.08133v-.05867l-.14-.08133v-.05867l-.14-.08134v-.05866l-.14-.08134v-.05866l-.14-.08134v-.05867l-.14-.08133v-.05867l-.14-.08133v-.05867l-.14-.08134v-.05866l-.14-.08134v-.05866l-.14-.08134v-.05867l-.14-.08133v-.05867l-.13867-.08v-.06l-.14-.08v-.06l-.14-.08v-.06l-.14-.08v-.06l-.14-.08v-.06l-.14-.08v-.06l-.14-.08v-.06l-.14-.08v-.05867l-.14-.08134v-.05866l-.14-.08134v-.05866l-.14-.08134v-.05867l-.14-.08133v-.05867l-.14-.08133v-.05867l-.14-.08133v-.05867l-.14-.08134v-.05866l-.14-.08134v-.05867l-.14-.08133v-.05867l-.14-.08133v-.05867l-.14-.08133v-.05867l-.14-.08134v-.05866l-.14-.08134v-.05867l-.13867-.08v-.06l-.14-.08v-.06l-.14-.08v-.06l-.14-.08v-.06l-.14-.08v-.06l-.14-.08v-.06l-.14-.08v-.06l-.14-.08v-.06l-.14-.08v-.05867l-.14-.08133v-.05867l-.14-.08133v-.05867l-.14-.08134v-.05866l-.14-.08134v-.05867l-.14-.08133v-.05867l-.14-.08133v-.05867l-.14-.08133v-.05867l-.14-.08134v-.05866l-.14-.08134v-.05866l-.14-.08134v-.05867l-.14-.08133v-.05867l-.14-.08133v-.05867l-.13866-.08v-.06l-.14-.08v-.06l-.14-.08v-.06l-.14-.08v-.06l-.14-.08v-.06l-.14-.08v-.06l-.14-.08v-.06l-.14-.08v-.06l-.14-.08v-.05866l-.14-.08134v-.05866l-.14-.08134v-.05867l-.14-.08133v-.05867l-.14-.08133v-.05867l-.14-.08133v-.05867l-.14-.08134v-.05866l-.14-.08134v-.05867l-.14-.08133v-.05867l-.14-.08133v-.05867l-.14-.08133v-.05867l-.14-.08133v-.05867l-.14-.08133v-.05867l-.14-.08133v-.05866l-.13867-.08v-.06l-.14-.08v-.06l-.14-.08v-.06l-.14-.08v-.06l-.14-.08v-.05994l-.14-.08v-.06l-.14-.08v-.06l-.14-.08v-.05866l-.14-.08134v-.05866l-.14-.08134v-.05866l-.14-.08133v-.05867l-.14-.08133v-.05867l-.14-.08133v-.05867l-.14006-.08134v-.05866l-.14-.08134v-.05866l-.14-.08134v-.05866l-.14-.08134v-.05866l-.14-.08134v-.05866l-.14-.08133v-.05867l-.14-.08133v-.05867l-.14-.08133v-.05867l-.13866-.08v-.06l-.14-.08v-.06l-.14-.08v-.06l-.14-.08v-.06l-.14-.08v-.06l-.14-.08v-.06l-.14-.08v-.06l-.14-.08v-.06l-.14-.08v-.05866l-.14-.08133v-.05867l-.14-.08133v-.05867l-.14-.08133v-.05867l-.14-.08133v-.05867l-.14-.08133v-.05867l-.14-.08133v-.05867l-.14-.08133v-.05867l-.14-.08133v-.05867l-.14-.08133v-.05866l-.14-.08134v-.05866l-.14-.08134v-.05866l-.14-.08134v-.05866l-.13867-.08v-.06l-.14-.08v-.06l-.14-.08v-.06l-.14-.08v-.06l-.14-.08v-.06l-.14-.08v-.06l-.14-.08v-.06l-.14-.08v-.06l-.14-.08v-.05866l-.14-.08134v-.05866l-.14-.08134v-.05866l-.14-.08134v-.05866l-.14-.08134v-.05866l-.14-.08134v-.05866l-.14-.08134v-.05866l-.14-.08134v-.05866l-.14-.08133v-.05867l-.14-.08133v-.05867l-.14-.08133v-.05867l-.14-.08133v-.05867l-.14-.08133v-.05867l-.14-.08v-.06l-.13866-.08v-.06l-.14-.08v-.06l-.14-.08v-.06l-.14-.08v-.06l-.14-.08v-.06l-.14-.08v-.06l-.14-.08v-.06l-.14-.08v-.05867l-.14-.08133v-.05867l-.14-.08133v-.05867l-.14-.08133v-.05867l-.14-.08133v-.05867l-.14-.08133v-.05867l-.14-.08133v-.05867l-.14-.08133v-.05866l-.14-.08134v-.05866l-.14-.08134v-.05866l-.14-.08134v-.05866l-.14-.08134v-.05866l-.14-.08134v-.05866l-.14-.08v-.06l-.13867-.08v-.06l-.14-.08v-.06l-.14-.08v-.06l-.14-.08v-.06l-.14-.08v-.06l-.14-.08v-.06l-.14-.08v-.05866l-.14-.08134v-.06l-.14-.08v-.05866l-.14-.08134v-.05866l-.14-.08134v-.05866l-.14-.08134v-.05866l-.14-.08134v-.05866l-.14-.08133v-.05867l-.14-.08133v-.05867l-.14-.08133v-.05867l-.14-.08133v-.05867l-.14-.08133v-.05867l-.14-.08133v-.05867l-.14-.08133v-.05867l-.13867-.08133v-.05872l-.14-.08v-.06l-.14-.08v-.06l-.14-.08v-.06l-.14-.08v-.06l-.14-.08v-.06l-.14-.08v-.06l-.14-.08v-.06l-.14-.08v-.05867l-.14005-.08134v-.05866l-.14-.08134v-.05866l-.14-.08134v-.05866l-.14-.08134v-.05866l-.14-.08134v-.05866l-.14-.08133v-.05867l-.14-.08133v-.05867l-.14-.08133v-.05867l-.14-.08133v-.05867l-.14-.08133v-.05867l-.14-.08133v-.05867l-.14-.08133v-.05867l-.13866-.08v-.06l-.14-.08133v-.05866l-.14-.08v-.06l-.14-.08v-.06l-.14-.08v-.06l-.14-.08v-.06l-.14-.08v-.06l-.14-.08v-.06l-.14-.08v-.05867l-.14-.08133v-.05867l-.14-.08133v-.05867l-.14-.08133v-.05867l-.14-.08133v-.05867l-.14-.08133v-.05866l-.14-.08134v-.05866l-.14-.08134v-.05866l-.14-.08134v-.05866l-.14-.08134v-.05866l-.14-.08134v-.05866l-.14-.08134v-.05866l-.14-.08134v-.05866l-.14-.08134v-.05866l-.13867-.08v-.06l-.14-.08v-.06l-.14-.08v-.06l-.14-.08v-.06l-.14-.08v-.06l-.14-.08v-.06l-.14-.08v-.06l-.14-.08v-.06l-.14-.08v-.05866l-.14-.08134v-.05866l-.14-.08134v-.05866l-.14-.08134v-.05866l-.14-.08133v-.05867l-.14-.08133v-.05867l-.14-.08133v-.05867l-.14-.08133v-.05867l-.14-.08133v-.05867l-.14-.08133v-.05867l-.14-.08133v-.05867l-.14-.08133v-.05867l-.14-.08133v-.05866l-.13867-.08v-.06l-.14-.08v-.06l-.14-.08v-.06l-.14-.08v-.06l-.14-.08v-.06l-.14-.08v-.06l-.14-.08v-.06l-.14-.08v-.06l-.14-.08v-.05867l-.14-.08133v-.05867l-.14-.08133v-.05867l-.14-.08133v-.05866l-.14-.08134v-.05866l-.14-.08134v-.05866l-.14-.08134v-.05866l-.14-.08134v-.05866l-.14-.08134v-.05866l-.14-.08134v-.05866l-.14-.08134v-.05866l-.14-.08133v-.05867l-.14-.08133v-.05867l-.13866-.08133v-.05867l-.14-.08v-.06l-.14-.08v-.06l-.14-.08v-.06l-.14-.08v-.06l-.14-.08v-.06l-.14-.08v-.06l-.14-.08v-.06l-.14-.08v-.05866l-.14-.08134v-.05866l-.14-.08133v-.05867l-.14-.08133v-.05867l-.14-.08133v-.05867l-.14-.08133v-.05867l-.14-.08133v-.05867l-.14-.08133v-.05867l-.14-.08133v-.05872l-.14-.08134v-.05866l-.14-.08134v-.05866l-.14-.08133v-.05867l-.14-.08133v-.05867l-.14-.08133v-.05867l-.13867-.08v-.06l-.14-.08v-.06l-.14-.08v-.06l-.14005-.08v-.06l-.14-.08v-.06l-.14-.08v-.06l-.14-.08v-.06l-.14-.08v-.05866l-.14-.08134v-.05866l-.14-.08133v-.05867l-.14-.08133v-.05867l-.14-.08133v-.05867l-.14-.08133v-.05867l-.14-.08133v-.05867l-.14-.08133v-.05867l-.14-.08133v-.05867l-.14-.08133v-.05867l-.14-.08133v-.05866l-.14-.08134v-.05866l-.14-.08134v-.05866l-.14-.08134v-.05866l-.13867-.08v-.06l-.14-.08v-.06l-.14-.08v-.06l-.14-.08v-.06l-.14-.08v-.06l-.14-.08v-.06l-.14-.08v-.06l-.14-.08v-.06l-.14-.08v-.05866l-.14-.08134v-.05866l-.14-.08134v-.05866l-.14-.08134v-.05866l-.14-.08134v-.05866l-.14-.08134v-.05866l-.14-.08134v-.05866l-.14-.08134v-.05866l-.14-.08133v-.05867l-.14-.08133v-.05867l-.14-.08133v-.05867l-.14-.08133v-.05867l-.14-.08133v-.05867l-.13866-.08v-.06l-.14-.08v-.06l-.14-.08v-.06l-.14-.08v-.06l-.14-.08v-.06l-.14-.08v-.06l-.14-.08v-.06l-.14-.08v-.06l-.14-.08v-.05867l-.14-.08133v-.05867l-.14-.08133v-.05867l-.14-.08133v-.05867l-.14-.08133v-.05867l-.14-.08133v-.05867l-.14-.08133v-.05867l-.14-.08133v-.05866l-.14-.08134v-.05866l-.14-.08134v-.05866l-.14-.08134v-.05866l-.14-.08134v-.05866l-.14-.08134v-.05866l-.14-.08134v-.05866l-.13867-.08v-.06l-.14-.08v-.06l-.14-.08v-.06l-.14-.08v-.06l-.14-.08v-.06l-.14-.08v-.06l-.14-.08v-.06l-.14-.08v-.05866l-.14-.08134v-.05866l-.14-.08134v-.05866l-.14-.08134v-.05866l-.14-.08134v-.05866l-.14-.08134v-.05866l-.14-.08133v-.05867l-.14-.08133v-.05867l-.14-.08133v-.05867l-.14-.08133v-.05867l-.14-.08133v-.05867l-.14-.08133v-.05867l-.14-.08133v-.05867l-.14-.08133v-.05867l-.13867-.08v-.06l-.14-.08v-.06l-.14-.08v-.06l-.14-.08v-.06l-.14-.08v-.06l-.14-.08v-.06l-.14-.08v-.06l-.14-.08v-.06l-.14-.08v-.05867l-.14-.08133v-.05866l-.14-.08133v-.05877l-.14-.08133v-.05866l-.14-.08133v-.05867l-.14-.08133v-.05866l-.14-.08133v-.05866l-.14-.08133v-.05867l-.14-.08133v-.05866l-.14-.08133v-.05867l-.14-.08133v-.05866l-.14-.08133v-.05867l-.14-.08133v-.05866l-.13866-.08v-.06l-.14-.08v-.06l-.14-.08v-.06l-.14-.08v-.06l-.14-.08v-.06l-.14-.08v-.06l-.14-.08v-.06l-.14-.08v-.06l-.14-.08v-.05867l-.14-.08133v-.05866l-.14-.08133v-.05866l-.14-.08133v-.05867l-.14-.08133v-.05866l-.14-.08133v-.05867l-.14-.08133v-.05866l-.14-.08133v-.05867l-.14-.08133v-.05866l-.14-.08133v-.05866l-.1399-.0815v-.05866l-.14-.08133v-.05867l-.14-.08133v-.05866l-.14-.08133v-.05866l-.13867-.08v-.06l-.14-.08v-.06l-.14-.08v-.06l-.14-.08v-.06l-.14-.08v-.06l-.14-.08v-.06l-.14-.08v-.06l-.14-.08V134.224l-.14-.08133V134.084l-.14-.08133V133.944l-.14-.08132V133.804l-.14-.08133V133.664l-.14-.08133V133.524l-.14-.08133V133.384l-.14-.08133V133.244l-.14-.08133V133.104l-.14-.08133V132.964l-.14-.08132V132.824l-.14-.08133V132.684l-.14-.08133V132.544l-.14-.08133V132.404l-.13866-.08v-.06l-.14-.08v-.06l-.14-.08v-.06l-.14-.08v-.06l-.14-.08v-.06l-.14-.08v-.06l-.14-.08v-.06l-.14-.08v-.06l-.14-.08v-.05867l-.14-.08133v-.05866l-.14-.08133v-.05867l-.14-.08133v-.05866l-.14-.08133v-.05867l-.14-.08132v-.05867l-.14-.08133v-.05866l-.14-.08133v-.05867l-.14-.08133v-.05866l-.14-.08133v-.05867l-.14-.08133v-.05866l-.14-.08133v-.05867l-.14-.08133v-.05866l-.13866-.08v-.06l-.14-.08v-.06l-.14-.08v-.06l-.14-.08v-.06l-.14-.08v-.06l-.14-.08v-.06l-.14-.08v-.06l-.14-.08v-.06l-.14-.08v-.05867l-.14-.08133v-.05866l-.14-.08133v-.05866l-.14-.08133v-.05867l-.14-.08133v-.05866l-.14-.08133v-.05867l-.14-.08133v-.05866l-.14-.08133v-.05867l-.14-.08133v-.05866l-.14-.08133v-.05866l-.14-.08133v-.05867l-.14-.08133v-.05866l-.14-.08133v-.05867l-.14-.08133v-.05866l-.13866-.08v-.06l-.14-.08v-.06l-.14-.08v-.06l-.14-.08v-.06l-.14-.08v-.06l-.14-.08v-.06l-.14-.08v-.06l-.14-.08v-.05866l-.14-.08133v-.05867l-.14-.08133v-.05866l-.14-.08133v-.05867l-.14-.08133v-.05866l-.14-.08133v-.05867l-.14-.08132v-.05867l-.14-.08133v-.05866l-.14-.08133v-.05867l-.14-.08133v-.05866l-.14-.08133v-.05867l-.14-.08133v-.05866l-.14-.08133v-.05867l-.14-.08132v-.05867l-.13866-.08v-.06l-.14-.08v-.06l-.14-.08v-.06l-.14-.08v-.06052l-.14-.08v-.06l-.14-.08v-.06l-.14-.08v-.06l-.14-.08v-.06l-.14-.08v-.05866l-.14-.08133v-.05867l-.14-.08133v-.05866l-.14-.08133v-.05867l-.1396-.08138v-.05866l-.14-.08133v-.05867l-.14-.08133v-.05866l-.14-.08133v-.05867l-.14-.08132v-.05867l-.14-.08133v-.05866l-.14-.08133v-.05867l-.14-.08133v-.05866l-.14-.08133v-.05867l-.14-.08133v-.05866l-.13866-.08v-.06l-.14-.08v-.06l-.14-.08v-.06l-.14-.08v-.06l-.14-.08v-.06l-.14-.08v-.06l-.14-.08v-.06l-.14-.08v-.05866l-.14-.08133v-.05867l-.14-.08133v-.05866l-.14-.08133v-.05867l-.14-.08133v-.05866l-.14-.08133v-.05866l-.14-.08133v-.05867l-.14-.08133v-.05866l-.14-.08133v-.05867l-.14-.08133v-.05866l-.14-.08133v-.05867l-.14-.08133v-.05866l-.14-.08133v-.05866l-.14-.08133v-.05867l-.13866-.08v-.06l-.14-.08v-.06l-.14-.08v-.06l-.14-.08v-.06l-.14-.08v-.06l-.14-.08v-.06l-.14-.08v-.06l-.14-.08v-.05866l-.14-.08133v-.05866l-.14-.08133v-.05867l-.14-.08133v-.05866l-.14-.08133v-.05867l-.14-.08133v-.05866l-.14-.08133v-.05867l-.14-.08133v-.05866l-.14-.08133v-.05866l-.14-.08133v-.05867l-.14-.08133v-.05866l-.14-.08133v-.05867l-.14-.08133v-.05866l-.14-.08133v-.05867l-.13867-.08v-.06l-.14-.08v-.06l-.14-.08v-.06l-.14-.08v-.06l-.14-.08v-.06l-.14-.08v-.06l-.14-.08v-.05866l-.14-.08133v-.06l-.14-.08v-.05866l-.14-.08133v-.05867l-.14-.08133v-.05866l-.14-.08133v-.05867l-.14-.08132v-.05867l-.14-.08133v-.05866l-.14-.08133v-.05867l-.14-.08133v-.05866l-.14-.08133v-.05867l-.14-.08133v-.05866l-.14-.08133v-.05867l-.14-.08132v-.05867l-.14-.08133v-.05866l-.14-.08v-.06l-.13866-.08v-.06l-.14-.08v-.06l-.14-.08v-.06l-.14-.08v-.06l-.14-.08v-.06l-.14-.08v-.06l-.14-.08v-.06l-.14-.08V110.295l-.14-.08133V110.155l-.14-.08133V110.015l-.14-.08133V109.875l-.14-.08133V109.735l-.14-.08133v-.05866l-.14-.08133v-.05867l-.14-.08132v-.05867l-.14-.08133v-.05866l-.14-.08133v-.05867l-.14-.08133v-.05866l-.14-.08133v-.05919l-.14-.08v-.06l-.14-.08133v-.05866l-.13866-.08v-.06l-.14-.08v-.06l-.14-.08v-.06l-.14-.08v-.06l-.14-.08v-.06l-.14-.08v-.06005l-.1396-.08v-.05866l-.14-.08133v-.06l-.14-.08v-.05866l-.14-.08133v-.05867l-.14-.08133v-.05866l-.14-.08133v-.05866l-.14-.08133v-.05867l-.14-.08133v-.05866l-.14-.08133v-.05867l-.14-.08133V106.236l-.14-.08133V106.096l-.14-.08133V105.956l-.14-.08133V105.816l-.14-.08133V105.676l-.13866-.08v-.06l-.14-.08v-.06l-.14-.08v-.06l-.14-.08v-.06l-.14-.08v-.06l-.14-.08v-.06l-.14-.08v-.06l-.14-.08v-.06l-.14-.08v-.05866l-.14-.08133v-.05867l-.14-.08133v-.05866l-.14-.08133v-.05867l-.14-.08133v-.05866l-.14-.08133v-.05867l-.14-.08133v-.05866l-.14-.08133v-.05866l-.14-.08133v-.05867l-.14-.08133v-.05866l-.14-.08133v-.05867l-.14-.08133v-.05866l-.14-.08133v-.05867l-.13866-.08v-.06l-.14-.08133v-.05866l-.14-.08v-.06l-.14-.08v-.06l-.14-.08v-.06l-.14-.08v-.06l-.14-.08v-.06l-.14-.08v-.06l-.14-.08v-.05866l-.14-.08133v-.05867l-.14-.08133v-.05866l-.14-.08133v-.05867l-.14-.08132v-.05867l-.14-.08133v-.05866l-.14-.08133v-.05867l-.14-.08133v-.05866l-.14-.08133v-.05867l-.14-.08133v-.05866l-.14-.08133v-.05867l-.14-.08132v-.05867l-.14-.08133v-.05866l-.14-.08133v-.05867l-.13866-.08v-.06l-.14-.08v-.06l-.14-.08v-.06l-.14-.08v-.06l-.14-.08v-.06l-.14-.08v-.06l-.14-.08v-.06l-.14-.08v-.05867l-.14-.08133v-.05866l-.14-.08133v-.05867l-.14-.08133v-.05866l-.14-.08133v-.05867l-.14-.08133v-.05866l-.14-.08133v-.05867l-.14-.08133V97.5603l-.14-.08133v-.05866l-.14-.08133v-.05867l-.14-.08133v-.05866l-.14-.08133v-.05867l-.14-.08133v-.05866l-.14-.08133v-.05867l-.13866-.08v-.06l-.14-.08v-.06l-.14-.08v-.06l-.14-.08v-.06l-.14-.08v-.06l-.14-.08v-.06l-.14-.08v-.06l-.14-.08v-.05867l-.14-.08133v-.05866l-.14-.08133v-.05867l-.14-.08133v-.05866l-.14-.08133v-.05866l-.14-.08133v-.05867l-.14-.08133v-.05866l-.14-.08133v-.05919l-.14-.08133v-.05866l-.14-.08133v-.05866l-.14-.08133v-.05867l-.14-.08133v-.05866l-.14-.08133v-.05867l-.14-.08133v-.05866l-.13866-.08v-.06l-.14-.08v-.06l-.1396-.08v-.06l-.14-.08v-.06l-.14-.08v-.06l-.14-.08v-.06l-.14-.08v-.06l-.14-.08v-.06l-.14-.08V92.5226l-.14-.08133v-.05866l-.14-.08133v-.05867l-.14-.08133v-.05866l-.14-.08133v-.05867l-.14-.08133v-.05866l-.14-.08133v-.05866l-.14-.08133v-.05867l-.14-.08133v-.05866l-.14-.08133v-.05867l-.14-.08133v-.05866l-.14-.08133v-.05867l-.14-.08133v-.05866l-.14-.08133v-.05866l-.13866-.08v-.06l-.14-.08v-.06l-.14-.08v-.06l-.14-.08v-.06l-.14-.08v-.06l-.14-.08v-.06l-.14-.08v-.06l-.14-.08v-.05867l-.14-.08133v-.05866l-.14-.08133v-.05867l-.14-.08132v-.05867l-.14-.08133v-.05866l-.14-.08133v-.05867l-.14-.08133v-.05866l-.14-.08133v-.05867l-.14-.08133V88.4641l-.14-.08133V88.3241l-.14-.08132v-.05867l-.14-.08133v-.05866l-.14-.08133v-.05867l-.14-.08133v-.05866l-.13866-.08v-.06l-.14-.08v-.06l-.14-.08v-.06l-.14-.08v-.06l-.14-.08v-.06l-.14-.08v-.06l-.14-.08v-.06l-.14-.08v-.06l-.14-.08v-.05867l-.14-.08133v-.05866l-.14-.08133v-.05867l-32.12-18.54532-31.34533,38.08532-.016-.01867-.01734.00934-.12266-.14933-.01733.01067-.12266-.15067-.01734.01068-.12266-.15067-.016.01067-.12266-.15066-.01733.01067-.12266-.15067-.01734.01067-.12266-.15066-.01733.01067-.12266-.15067-.01734.01067-.12266-.15066-.01733.01067-.12266-.15067-.01733.01068-.12266-.15067-.01734.01067-.12266-.14933-.01733.00934-.12266-.14934-.01734.00934-.12266-.14933-.01733.00934-.12266-.14933-.01734.00933-.12266-.14933-.01733.00934-.12266-.14933-.01733.00934-.12266-.14934-.01734.00934-.12266-.14933-.01733.00934-.12266-.14934-.01734.00934-.12266-.14933-.01733.00934-.12266-.14933-.01734.00933-.12266-.14933-.01733.00934-.12266-.14933-.016.01067-.124-.15067-.016.01067-.124-.15066-.016.01067-.12266-.15067-.01733.01068-.12266-.15067-.01734.01067-.12266-.15066-.01733.01067-.12266-.15067-.01734.01067-.12266-.15066-.01733.01067-.12266-.15067-.01734.01067-.12266-.14933-.01733.00934-.12266-.14933-.01733.00934-.12266-.14934-.01734.00934-.12266-.14933-.01733.00934-.12266-.14934-.01734.00934-.12266-.14933-.01733.00934-.12266-.14933-.01734.00933-.12266-.14933-.01733.00934-.12266-.14933-.01733.00934-.12266-.14934-.01734.00934-.12266-.14933-.01733.00934-.12266-.14934-.01734.00934-.12266-.14933-.01733.01067-.12266-.15066-.01734.01067-.12266-.15067-.016.01067-.12266-.15066-.01733.01067-.12266-.15067-.01734.01067-.12266-.15066-.01733.01067-.12266-.15067-.01733.01067-.12266-.15066-.01734.01067-.12266-.15066-.01733.01067-.12266-.14934-.01734.00934-.12266-.14933-.01733.00934-.12266-.14933-.01734.00933-.12266-.14933-.01733.00934-.12266-.14933-.01733.00933-.12266-.14933-.01734.00934-.12266-.14933-.01733.00934-.12266-.14934-.01734.00934-.12266-.14933-.01733.00934-.12266-.14934-.01734.00934-.12266-.14933-.01733.00934-.12266-.14933-.01733.00933-.12266-.14933-.01734.01067-.12266-.15066-.01733.01067-.12266-.15067-.016.01067-.124-.15066-.016.01067-.12266-.15067-.01733.01068-.12266-.15067-.01734.01067-.12266-.15066-.01733.01067-.12266-.15067-.01734.01067-.12266-.15066-.01733.01067-.12266-.15067-.01733.01067-.12266-.14933-.01734.00934-.12266-.14933-.01733.00934-.12266-.14934-.01734.00934-.12266-.14933-.01733.00934-.12266-.14934-.01734.00934-.12266-.14933-.01733.00934-.12266-.14933-.01733.00933-.12266-.14933-.01734.00934-.12266-.14933-.01733.00934-.12266-.14934-.01734.00934-.12266-.14933-.01733.00934-.12266-.14934-.01734.00934-.12266-.14933-.016.01067-.124-.15066-.016.01067-.124-.15067-.016.01067-.12266-.15066-.01733.01067-.12266-.15067-.01733.01067-.12267-.15066-.01733.01067-.12266-.15067-.01733.01068-.12266-.15067-.01734.01067-.12266-.15066-.01733.01067-.12266-.14934-.01734.00934-.12266-.14933-.01733.00934-.12266-.14933-.01733.00933-.12267-.14933-.01733.00934-.12266-.14933-.01733.00934-.12266-.14934-.01734.00934-.12266-.14933-.01733.00934-.12266-.14934-.01734.00934-.12266-.14933-.01733.00934-.12266-.14933-.01733.00933-.12267-.14933-.01733.00934-.12266-.14933-.01733.00934-.12266-.14934-.01734.01067-.12266-.15066-.01733.01067-.12266-.15067-.016.01068-.12266-.15067-.01734.01067-.12266-.15066-.01733.01067-.12266-.15067-.01734.01067-.12266-.15066-.01733.01067-.12266-.15067-.01734.01067-.12266-.15066-.01733.01067-.12266-.15067-.01733.01067-.12266-.14933-.01734.00934-.12266-.14933-.01733.00934-.12266-.14934-.01734.00934-.12266-.14933-.01733.00934-.12266-.14933-.01734.00933-.12266-.14933-.01733.00934-.12266-.14933-.01733.00933-.12266-.14933-.01734.00934-.12266-.14933-.01733.00934-.12266-.14934-.01734.00934-.12266-.14933-.01733.00934-.12266-.14933-.01734.00933-.12266-.14933-.01733.01067-.12266-.15066-.016.01067-.124-.15067-.016.01067-.12266-.15066-.01733.01067-.12266-.15067-.01733.01067-.12266-.15066-.01734.01067-.12266-.15067-.01733.01068-.12266-.15067-.01734.01067-.12266-.15066-.01733.01067-.12266-.14934-.01734.00934-.12266-.14933-.01733.00934-.12266-.14933-.01733.00933-.12266-.14933-.01734.00934-.12266-.14933-.01733.00934-.12266-.14934-.01734.00934-.12266-.14933-.01733.00934-.12266-.14934-.01734.00934-.12266-.14933-.01733.00934-.12266-.14933-.01733.00933-.12266-.14933-.01734.00934-.12266-.14933-.01733.00934-.12266-.14934-.016.01067-.124-.15066-.016.01067-.124-.15067-.016.01068-.12266-.15067-.01734.01067-.12266-.15066-.01733.01067-.12266-.15067-.01734.01067-.12266-.15066-.01733.01067-.12266-.15067-.01733.01067-.12266-.15066-.01734.01067-.12266-.14933-.01733.00934-.12266-.14934-.01734.00934-.12266-.14933-.01733.00934-.12266-.14934-.01734.00934-.12266-.14933-.01733.00934-.12266-.14933-.01733.00933-.12266-.14933-.01734.00934-.12266-.14933-.01733.00934-.12266-.14934-.01734.00934-.12266-.14933-.01733.00934-.12266-.14934-.01734.00934-.12266-.14933-.01733.00934-.12266-.14933-.01733.01067-.12266-.15067-.01734.01067-.12266-.15066-.016.01067-.12266-.15067-.01733.01067-.12266-.15066-.01734.01067-.12266-.15067-.01733.01068-.12266-.15067-.01734.01067-.12266-.15066-.01733.01067-.12266-.14934-.01734.00934-.12266-.15066-.01733.01067-.12266-.14933-.01733.00933-.12266-.14933-.01734.00934-.12266-.14933-.01733.00933-.12266-.14933-.01734.00934-.12266-.14933-.01733.00934-.12266-.14934-.01734.00934-.12266-.14933-.01733.00934-.12266-.14933-.01733.00933-.12266-.14933-.01734.00934-.12266-.14933-.01733.00933-.12266-.14933-.01734.00934-.12266-.14933-.01733.00934L100.69126,78.6l-.016.01067-.124-.15066-.016.01067-.124-.15066-.016.01067-.12266-.15067-.01734.01067-.12266-.15066-.01733.01067L99.99263,77.9l-.01733.01067L99.85263,77.76l-.01733.01067L99.71264,77.62l-.01733.01067L99.57265,77.48l-.01734.01067-.12266-.14933-.01733.00934-.12266-.14934-.01734.00934-.12266-.14933-.01733.00934-.12266-.14934-.01733.00934-.12267-.14933-.01733.00934-.12266-.14933-.01733.00933-.12266-.14933-.01734.00934-.12266-.14933-.01733.00934-.12266-.14934-.01734.00934-.12266-.14933-.01733.00934-.12266-.14934-.01733.00934-.12267-.14933-.01733.00934-.12266-.14933-.016.01067-.124-.15067-.016.01067-.124-.15066-.016.01067-.12266-.15067-.01733.01067-.12266-.15066-.01734.01067-.12266-.15067-.01733.01068-.12266-.15067-.01734.01067-.12266-.15066-.01733.01067-.12266-.14934-.01734.00934-.12266-.14933-.01733.00934-.12266-.14933-.01733.00933-.12266-.14933-.01734.00934-.12266-.14933-.01733.00934-.12266-.14934-.01734.00934-.12266-.14933-.01733.00934-.12266-.14934-.01734.00934-.12266-.14933-.01733.00934-.12266-.14933-.01733.00933-.12266-.14933-.01734.00934-.12266-.14933-.01733.00934-.12266-.14934-.016.00934-.124-.14933-.016.01067-.124-.15067-.016.01068-.124-.15067-.016.01067-.12266-.15066-.01733.01067-.12266-.15067-.01734.01067-.12266-.15066-.01733.01067-.12266-.15067-.01733.01067-.12266-.15066-.01734.01067-.12266-.15067-.01733.01068-.12266-.14934-.01734.00934-.12266-.14933-.01733.00934-.12266-.14934-.01734.00934-.12266-.14933-.01733.00934-.12266-.14933-.01733.00933-.12266-.14933-.01734.00934-.12266-.14933-.01733.00934-.12266-.14934-.01734.00934-.12266-.14933-.01733.00934-.12266-.14934-.01734.00934-.12266-.14933-.01733.00934-.12266-.14933-.01733.01067-.12266-.15067-.01734.00934-.12266-.14933-.016.01067-.124-.15067-.016.01067-.124-.15066-.016.01067-.12266-.15067-.01733.01067-.12266-.15066-.01734.01067-.12266-.15066-.01733.01067-.12266-.15067-.01734.01067-.12266-.15066-.01733.01067-.12266-.14934-.01733.00934-.12266-.14933-.01734.00934-.12266-.14933-.01733.00933-.12266-.14933-.01734.00934-.12266-.14933-.01733.00934-.12266-.14934-.01734.00934-.12266-.14933L57.66241,86.22706v77.16483l.14.08133v.05867l.14.08133v.05867l.14.08133v.05867l.14.08133v.05867l.14.08133v.05867l.14.08133v.05867l.14.08133v.05867l.14.08133v.05866l.14.08134v.05866l.14.08v.06l.14.08v.06l.14.08v.06l.14.08v.06l.14.08v.06l.14.08v.06l.14.08v.06l.14.08v.06l.14.08v.05867l.14.08133v.05867l.14.08133v.05866l.14.08134v.05866l.13867.08134v.05866l.14.08134v.05866l.14.08134v.05866l.14.08134v.05866l.14.08134v.05866l.14.08134v.05866l.14.08134v.05866l.14.08133v.05867l.14.08133v.05867l.14.08v.06l.14.08133v.05867l.14.08v.06l.14.08v.06l.14.08v.06l.14.08v.06l.14.08v.06l.14.08v.05866l.14.08134v.05866l.14.08134v.05866l.14.08133v.05867l.14.08133v.05867l.13867.08133v.05867l.14.08133v.05867l.14.08133v.05867l.14.08133v.05867l.14.08133v.05867l.14.08133v.05867l.14.08133v.05866l.14.08134v.05866l.14.08v.06l.14.08134v.05866l.14.08v.06l.14.08v.06l.14.08v.06l.14.08v.06l.14.08v.06l.14.08v.06l.14.08v.0587l.14.08134v.06l.14.08v.05866l.14.08133v.05867l.14.08133v.05867l.14.08134v.05866l.13867.08134v.05866l.14.08134v.05866l.14.08134v.05866l.14.08134v.05866l.14.08134v.05866l.14.08133v.05867l.14.08133v.05867l.14.08134v.05866l.14.08134v.05866l.14.08v.06l.14.08v.06l.14.08v.06l.14.08v.06l.14.08v.06l.14.08v.06l.14.08v.06l.14.08v.05867l.14.08133v.05866l.14.08134v.05866l.14.08134v.05866l.14.08134v.05866l.13867.08134v.05866l.14.08134v.05866l.14.08134v.05866l.14.08134v.05866l.14.08133v.05867l.14.08133v.05867l.14.08133v.05867l.14.08133v.05867l.14.08v.06l.14.08133v.05867l.14.08v.06l.14.08v.06l.14.08v.06l.14.08v.06l.14.08v.06l.14.08v.06l.14.08v.05867l.14.08133v.05867l.14.08133v.05867l.14.08133v.05867l.14.08133v.05867l.13867.08133v.05867l.14.08133v.05867l.14.08133v.05867l.14.08133v.05866l.14.08134v.05866l.14.08134v.05866l.14.08134v.05866l.14.08134v.05866l.14.08134v.05866l.14.08v.06l.14.08v.06l.14.08v.06l.14.08v.06l.14.08v.06l.14.08v.06l.14.08v.06l.14.08v.06l.14.08v.05866l.14.08134v.05866l.14.08134v.05866l.14.08134v.05866l.14.08134v.05866l.13867.08134v.05866l.14.08133v.05867l.14.08133v.05867l.14.08133v.05867l.14.08133v.05867l.14.08133v.05867l.14.08133v.05867l.14.08133v.05867l.14.08133v.05867l.14.08v.06l.14.08v.06l.14.08v.06l.14.08v.06l.14.08v.06l.14.08v.06l.14.08v.06l.14.08v.05867l.14.08133v.05867l.14.08133v.05867l.14.08134v.05866l.14.08134v.05867l.13867.08133v.05867l.14.08133v.05867l.14.08133v.05867l.14.08134v.05866l.14.08134v.05867l.14.08133v.05867l.14.08133v.05867l.14.08133v.05867l.14.08v.06l.14.08v.06l.14.08v.06l.14.08v.06l.14.08v.06l.14.08v.06l.14.08v.06l.14.08v.06l.14.08v.05868l.14.08134v.05866l.14.08134v.05866l.14.08134v.05867l.14.08133v.05866l.13868.08134v.05867l.14.08133v.05866l.14.08134v.05867l.14.08133v.05866l.14.08134v.05867l.14.08133v.05866l.14.08134v.05867l.14.08133v.05866l.14.08v.06l.14.08v.06l.14.08v.06l.14.08v.06l.14.08v.06l.14.08v.06l.14.08v.06l.14.08v.06l.14.08v.06l.14.08v.05867l.14.08133v.05867l.14.08134v.05866l.14.08134v.05867l.14.08133v.05867l.13867.08133v.05867l.14.08133v.05867l.14.08134v.05866l.14.08134v.05866l.14.08134v.05867l.14.08133v.05867l.14.08133v.05867l.14.08134v.05866l.14.08134v.05866l.14.08v.06l.14.08v.06l.14.08v.06l.14.08v.06l.14.08v.06l.14.08v.06l.14.08v.06l.14.08v.05867l.14.08133v.05867l.14.08133v.05867l.14.08134v.05866l.14.08134v.05866l.13868.08134v.05867l.14.08133v.05867l.14.08133v.05867l.14.08133v.05867l.14.08134v.05866l.14.08134v.05867l.14.08133v.05867l.14.08133v.05867l.14.08v.06l.14.08v.06l.14.08v.06l.14.08v.06l.14.08v.06l.14.08v.06l.14.08v.06l.14.08v.06l.14.08v.05867l.14.08134v.05866l.14.08134v.05867l.14.08133v.05867l.14.08133v.05867l.13867.08133v.05867l.14.08134v.05866l.14.08134v.05867l.14.08133v.05867l.14.08133v.05867l.14.08133v.05867l.14.08134v.05866l.14.08134v.05867l.14.08133v.05867l.14.08133v.05867l.14.08v.06l.14.08v.06l.14.08v.06l.14.08v.06l.14.08v.06l.14.08v.06l.14.08v.06l.14.08v.05867l.14.08134v.05866l.14.08134v.05867l.14.08133v.05867l.14.08133v.05867l.13868.08133v.05867l.14.08134v.05866l.14.08134v.05866l.14.08134v.05867l.14.08133v.05867l.14.08133v.05867l.14.08134v.05866l.14.08134v.05866l.14.08134v.05867l.14.08v.06l.14.08v.06l.14.08v.06l.14.08v.06l.14.08v.06l.14.08v.06l.14.08v.06l.14.08v.05859l.14.08133v.05867l.14.08133v.05867l.14.08133v.05867l.14.08133v.05867l.13867.08133v.05867l.14.08133v.05867l.14.08133v.05867l.14.08133v.05867l.14.08133v.05867l.14.08133v.05867l.14.08133v.05867l.14.08133v.05867l.14.08v.06l.14.08v.06l.14.08v.06l.14.08v.06l.14.08v.06l.14.08v.06l.14.08v.06l.14.08v.06l.14.08v.05867l.14.08134v.05866l.14.08134v.05867l.14.08133v.05867l.13867.08133v.05866l.14.08134v.05866l.14.08134v.05866l.14.08134v.05866l.14.08134v.05866l.14.08134v.05866l.14.08133v.05867l.14.08133v.05867l.14.08133v.05867l.14.08133v.05867l.14.08133v.05867l.14.08v.06l.14.08v.06l.14.08v.06l.14.08v.06l.14.08v.06l.14.08v.06l.14.08v.06l.14.08v.05867l.14.08133v.05867l.14.08133v.05867l.14.08133v.05867l.14.08133v.05867l.13867.08133v.05867l.14.08133v.05867l.14.08133v.05867l.14.08133v.05866l.14.08134v.05866l.14.08134v.05866l.14.08134v.05866l.14.08134v.05866l.14.08134v.05866l.14.08v.06l.14.08v.06l.14.08v.06l.14.08v.06l.14.08v.06l.14.08v.06l.14.08v.06l.14.08v.05866l.14.08134v.05866l.14.08134v.05866l.14.08134v.05866l.13867.08133v.05867l.14.08133v.05867l.14.08133v.05867l.14.08133v.05867l.14.08133v.05867l.14.08133v.05867l.14.08133v.05867l.14.08133v.05867l.14.08133v.05867l.14.08v.06l.14.08v.06l.14.08v.06l.14.08v.06l.14.08v.06l.14.08v.06l.14.08v.06l.14.08v.06l.14.08v.05866l.14.08134v.05866l.14.08134v.05866l.14.08134v.05866l.13867.08134v.05866l.14.08134v.05866l.14.08134v.05866l.14.08134v.05866l.14.08134v.05866l.14.08134v.05866l.14.08134v.05866l.14.08134v.05866l.14.08134v.05866l.14.08134v.05866l.14.08134v.05866l.14.08v.06l.14.08v.06l.14.08v.06l.14.08v.06l.14.08v.06l.14.08v.06l.14.08v.06l.14.08v.05867l.14.08133v.05867l.14.08133v.05867l.13918.08133v.05867l.14.08133v.05867l.14.08133v.05867l.14.08133v.05867l.14.08133v.05867l.14.08133v.05867l.14.08133v.05867l.14.08133v.05867l.14.08133v.05867l.14.08133v.05867l.14.08133v.05867l.14.08v.06l.14.08v.06l.14.08v.06l.14007.08v.06l.14.08v.06l.14.08v.06l.14.08v.05867l.14.08133v.05867l.14.08133v.05867l.14.08133v.05867l.14.08133v.05867l.13868.08133v.05867l.14.08133v.05867l.14.08133v.05867l.14.08133v.05867l.14.08133v.05867l.14.08133v.05867l.14.08133v.05867l.14.08133v.05867l.14.08133v.05867l.14.08v.06l.14.08v.06l.14.08v.06l.14.08v.06l.14.08v.06l.14.08v.06l.14.08v.06l.14.08v.06l.14.08v.06l.14.08v.05866l.14.08134v.05866l.14.08134v.05866l.13867.08134v.05866l.14.08134v.05866l.14.08134v.05866l.14.08134v.05866l.14.08134v.05866l.14.08134v.05866l.14.08134v.05866l.14.08134v.05866l.14.08134v.05866l.14.08v.06l.14.08134v.05866l.14.08v.06l.14.08v.06l.14.08v.06l.14.08v.06l.14.08v.06l.14.08v.06l.14.08v.05867l.14.08133v.05867l.14.08133v.05867l.14.08133v.05867l.13867.08133v.05867l.14.08133v.05867l.14.08133v.05867l.14.08133v.05867l.14.08133v.05867l.14.08133v.05867l.14.08133v.05867l.14.08133v.05867l.14.08133v.05867l.14.08133v.05867l.14.08v.06l.14.08v.06l.14.08v.06l.14.08v.06l.14.08v.06l.14.08v.06l.14.08v.06l.14.08v.06l.14.08v.05866l.14.08134v.05866l.14.08134v.05866l.14.08134v.05866l.13867.08134v.05866l.14.08134v.05866l.14.08134v.05866l.14.08134v.05866l.14.08134v.05866l.14.08134v.05866l.14.08134v.05866l.14.08134v.05866l.14.08134v.05866l.14.08v.06l.14.08v.06l.14.08v.06l.14.08v.06l.14.08v.06l.14.08v.06l.14.08v.06l.14.08v.05867l.14.08133v.05867l.14.08133v.05867l.14.08133v.05867l.14.08133v.05867l.13867.08133v.05867l.14.08133v.05867l.14.08133v.05867l.14.08133v.05867l.14.08133v.05867l.14.08133v.05867l.14.08133v.05867l.14.08133v.05867l.14.08v.06l.14.08133v.05867l.14.08v.06l.14.08v.06l.14.08v.06l.14.08v.06l.14.08v.06l.14.08v.06l.14.08v.05867l.14.08133v.05867l.14.08133v.05867l.14.08133v.05867l.14.08133v.05867l.13867.08133v.05867l.14.08133v.05867l.14.08133v.05867l.14.08133v.05867l.14.08133v.05867l.14.08133v.05867l.14.08133v.05867l.14.08133v.05867l.14.08133v.05867l.14.08133v.05867l.14.08v.06l.14.08v.06l.14.08v.06l.14.08v.06l.14.08v.06l.14.08v.06l.14.08v.06l.14.08v.05867l.14.08133v.05867l.14.08133v.05866l.14.08134v.05866l.14.08134v.05866l.13867.08134v.05866l.14.08134v.05866l.14.08134v.05866l.14.08133v.05867l.14.08133v.05867l.14.08133v.05867l.14.08133v.05867l.14.08133v.05867l.14.08133v.05867l.14.08v.06l.14.08v.06l.14.08v.06l.14.08v.06l.14.08v.06l.14.08v.06l.14.08v.06l.14.08v.05867l.14.08133v.05867l.14.08133v.05867l.14.08133v.05867l.14.08133v.05867l.13867.08133v.05867l.14.08133v.05867l.14.08133v.05866l.14.08134v.05866l.14.08134v.05866l.14.08134v.05866l.14.08134v.05866l.14.08134v.05866l.14.08v.06l.14.08v.06l.14.08v.06l.14.08v.06l.14.08v.06l.14.08v.06l.14.08v.06l.14.08v.06l.14.08v.05866l.14.08134v.05866l.14.08134v.05866l.14.08134v.05866l.14.08134v.05866l.14.08133v.05867l.13867.08133v.05867l.14.08133v.05867l.14.08133v.05867l.14.08133v.05867l.14.08133v.05867l.14.08133v.05867l.14.08133v.05867l.14.08133v.05867l.14.08133v.05867l.14.08v.06l.14.08v.06l.14.08v.06l.14.08v.06l.14.08v.06l.14.08v.06l.14.08v.06l.14.08v.05867l.14.08133v.05867l.14.08133v.05867l.14.08133v.05866l.14.08134v.05866l.13867.08134v.05866l.14.08134v.05866l.14.08134v.05866l.14.08134v.05866l.14.08133v.05867l.14.08134v.05866l.14.08134v.05866l.14.08134v.05867l.14.08v.06l.14.08v.06l.14.08v.06l.14.08v.06l.14.08v.06l.14.08v.06l.14.08v.06l.14.08v.06l.14.08v.05867l.14.08133v.05867l.14.08134v.05866l.14.08134v.05866l.14.08134v.05867l.13868.08133v.05867l.14.08133v.05867l.14.08133v.05867l.14.08134v.05866l.14.08134v.05867l.14.08133v.05867l.14.08133v.05867l.14.08133v.05867l.14.08v.06l.14.08v.06l.14.08v.06l.14.08v.06l.14.08v.06l.14.08v.06l.14.08v.06l.14.08v.06l.14.08v.06l.14.08v.05866l.14.08134v.05866l.14.08134v.05867l.14.08133v.05867l.14.08133v.05867l.13867.08134v.05866l.14.08134v.05866l.14.08134v.05867l.14.08133v.05867l.14.08133v.05867l.14.08133v.05867l.14.08134v.05866l.14.08134v.05867l.14.08133v.05867l.14.08v.06l.14.08v.06l.14.08v.06l.14.08v.06l.14.08v.06l.14.08v.06l.14.08v.06l.14.08v.05867l.14.08133v.05867l.14.08134v.05866l.14.08134v.05867l.14.08133v.05867l.13868.08133v.05867l.14.08133v.05867l.14.08134v.05866l.14.08134v.05867l.14.08133v.05867l.14.08133v.05867l.14.08133v.05867l.14.08134v.05866l.14.08v.06l.14.08v.06l.14.08v.06l.14.08v.06l.14.08v.06l.14.08v.06l.14.08v.06l.14.08v.06l.14.08v.05867l.14.08133v.05867l.14.08133v.05867l.14.08133v.05867l.14.08134v.05866l.13867.08134v.05867l.14.08133v.05867l.14.08133v.05867l.14.08133v.05867l.14.08134v.05866l.14.08134v.05866l.14.08134v.05867l.14.08133v.05867l.14.08v.06l.14.08v.06l.14.08v.06l.14.08v.06l.14.08v.06l.14.08v.06l.14.08v.06l.14.08v.06l.14.08v.06l.14.08v.05867l.14.08133v.05867l.14.08134v.05866l.14.08134v.05867l.14.08133v.05867l.13868.08133v.05867l.14.08133v.05867l.14.08134v.05866l.14.08134v.05867l.14.08133v.05867l.14.08133v.05867l.14.08133v.05867l.14.08134v.05857l.14.08133v.05867l.14.08v.06l.14.08v.06l.14.08v.06l.14.08v.06l.14.08v.06l.14.08v.06l.14.08v.06l.14.08v.05867l.14.08133v.05867l.14.08134v.05866l.14.08134v.05867l.14.08133v.05867l.13867.08133v.05867l.14.08133v.05867l.14.08134v.05866l.14.08134v.05867l.14.08133v.05867l.14.08133v.05867l.14.08133v.05867l.14.08134v.05866l.14.08v.06l.14.08v.06l.14.08v.06l.14.08v.06l.14.08v.06l.14.08v.06l.14.08v.06l.14.08v.06l.14.08v.05867l.14.08133v.05867l.14.08133v.05867l.14.08133v.05867l.13866.08134v.05866l.14.08134v.05867l.14.08133v.05867l.14.08133v.05867l.14.08133v.05867l.14.08134v.05866l.14.08134v.05866l.14.08134v.05867l.14.08133v.05867l.14.08133v.05867l.14.08133v.05867l.14.08v.06l.14.08v.06l.14.08v.06l.14.08v.06l.14.08v.06l.14.08v.06l.14.08v.06l.14.08v.05866l.14.08134v.05866l.14.08134v.05866l.13866.08134v.05866l.14.08133v.05867l.14.08133v.05867l.14.08133v.05867l.14.08133v.05867l.14.08133v.05867l.14.08133v.05867l.14.08133v.05867l.14.08133v.05867l.14.08133v.05866l.14.08134v.05866l.14.08v.06l.14.08v.06l.14.08v.06l.14.08v.06l.14.08v.06l.14.08v.06l.14.08v.06l.14.08v.05867l.14.08133v.05867l.14.08133v.05867l.14.08133v.05866l.13866.08134v.05866l.14.08134v.05866l.14.08134v.05866l.14.08134v.05866l.14.08134v.05866l.14.08134v.05866l.14.08134v.05866l.14.08133v.05867l.14.08133v.05867l.14.08v.06l.14.08v.06l.14.08v.06l.14.08v.06l.14.08v.06l.14.08v.06l.14.08v.06l.14.08v.06l.14.08v.05866l.14.08134v.05866l.14.08133v.05867l.14.08133v.05867l.13867.08133v.05867l.14.08133v.05867l.14.08133v.05867l.14.08133v.05866l.14.08133v.05867l.14.08133v.05867l.14.08133v.05866l.14.08134v.05866l.14.08134v.05866l.14.08134v.05866l.14.08134v.05866l.14.08v.06l.14.08v.06l.14.08v.06l.14.08v.06l.14.08v.06l.14.08v.06l.14.08v.06l.14.08v.05866l.14.08134v.05866l.14.08134v.05866l.13867.08134v.05866l.14.08134v.05866l.14.08134v.05866l.14.08134v.05866l.14.08134v.05866l.14.08133v.05867l.14.08133v.05867l.14.08133v.05867l.14.08133v.05867l.14.08133v.05867l.14.08133v.05867l.14.08v.06l.14.08v.06l.14.08v.06l.14.08v.06l.14.08v.06l.14.08v.06l.14.08v.05867l.14.08133v.05867l.14.08133v.05867l.14.08133v.05867l.14.08133v.05867l.13866.08133v.05867l.14.08133v.05867l.14.08133v.05867l.14.08133v.05866l.14.08134v.05866l.14.08134v.05866l.14.08134v.05866l.14.08134v.05866l.14.08134v.05866l.14.08v.06l.14.08v.06l.14.08v.06l.14.08v.06l.14.08v.06l.14.08v.06l.14.08v.06l.14.08v.06l.14.08v.05866l.14.08134v.05866l.14.08134v.05866l.14.08134v.05866l.13866.08134v.05866l.14.08134v.05866l.14.08133v.05867l.14.08133v.05867l.14.08133v.05867l.14.08133v.05867l.14.08133v.05867l.14.08133v.05867l.14.08133v.05867l.14.08v.06l.14.08v.06l.14.08v.06l.14.08v.06l.14.08v.06l.14.08v.06l.14.08v.06l.14.08v.06l.14.08v.05867l.14.08133v.05867l.14.08133v.05867l.14.08133v.05867l.13866.08133v.05867l.14.08133v.05866l.14.08134v.05866l.14.08134v.05866l.14.08134v.05866l.14.08134v.05866l.14.08134v.05866l.14.08134v.05866l.14.08134v.05866l.14.08133v.05867l.14.08133v.05867l.14.08v.06l.14.08v.06l.14.08v.06l.14.08v.06l.14.08v.06l.14.08v.06l.14.08v.05866l.14.08134v.05866l.14.08134v.05872l.14.08134v.05866l.14.08134v.05866l.13866.08134v.05866l.14.08133v.05867l.14.08133v.05867l.14.08133v.05867l.14.08133v.05867l.14.08133v.05867l.14.08133v.05867l.14.08133v.05867l.14.08133v.05867l.14.08v.06l.14.08v.06l.14.08v.06l.14.08v.06l.14.08v.06l.14.08v.06l.14.08v.06l.14.08v.05867l.14.08133v.05867l.14.08133v.05867l.14.08133v.05867l.14.08133v.05867l.13866.08133v.05866l.14.08134v.05866l.14.08134v.05866l.14.08134v.05866l.14.08134v.05866l.14.08134v.05866l.14.08134v.05866l.14.08134v.05866l.14.08v.06l.14.08v.06l.14.08v.06l.14.08v.06l.14.08v.06l.14.08v.06l.14.08v.06l.14.08v.06l.14.08v.05866l.14.08134v.05866l.14.08134v.05866l.14.08134v.05866l.14.08133v.05867l.13866.08133v.05867l.14.08133v.05867l.14.08133v.05867l.14.08133v.05867l.14.08133v.05867l.14.08133v.05867l.14.08133v.05867l.14.08133v.05866l.14.08134v.05866l.14.08134v.05866l.14.08v.06l.14.08v.06l.14.08v.06l.14.08v.06l.14.08v.06l.14.08v.06l.14.08v.06l.14.08v.05867l.14.08133v.05867l.14.08133v.05866l.14.08134v.05866l.14.08134v.05866l.13866.08134v.05866l.14.08134v.05866l.14.08134v.05866l.14.08134v.05866l.14.08134v.05866l.14.08133v.05867l.14.08133v.05867l.14.08133v.05867l.14.08133v.05867l.14.08v.06l.14.08v.06l.14.08v.06l.14.08v.06l.14.08v.06l.14.08v.06l.14.08v.06l.14.08v.05866l.14.08133v.05867l.14.08133v.05867l.14.08133v.05867l.14.08133v.05867l.13866.08133v.05867l32.48666,18.756V262.89983h.016l.11333.14h.02533l.11467.14h.02533l.11466.14h.02533l.11467.14h.02533l.11466.14h.02533l.11467.14h.02532l.11467.14h.02533l.11333.14h.02666l.11334.14h.02666l.11333.14h.02666l.11333.14h.02667l.11333.14h.02666l.11333.14h.02666l.11334.14h.02666l.11333.14h.02666l.11334.14h.02666l.11333.14h.02666l.11333.14h.02667l.11333.14h.02666l.11333.13867h.02666l.11334.14h.02666l.11333.14h.02533l.11467.14h.02533l.11466.14h.02533l.11466.14h.02533l.11467.14h.02533l.11466.14h.02533l.11467.14h.02533l.11333.14h.02666l.11333.14h.02667l.11333.14h.02666l.11333.14h.02666l.11334.14h.02666l.11333.14h.02666l.11333.14h.02667l.11333.14h.02666l.11333.14h.02667l.11333.14h.02666l.11333.14h.02666l.11334.14h.02666l.11333.13866h.02666l.11333.14h.02667l.11333.14h.02533l.11466.14h.02533l.11467.14h.02533l.11466.14h.02533l.11467.14h.02533l.11466.14h.02533l.11466.14h.02533l.11467.14h.02533l.11333.14h.02666l.11334.14h.02666l.11333.14h.02666l.11333.14h.02667l.11333.14h.02666l.11333.14h.02666l.11334.14h.02666l.11333.14h.02666l.11334.14h.02666l.11333.14h.02666l.11333.14h.02667l.11333.13867h.02666l.11333.14h.02666l.11334.14h.02666l.11333.14h.02533l.11467.14h.02532l.11467.14h.02533l.11466.14h.02533l.11467.14h.02533l.11466.14h.02533l.11467.14h.02533l.11333.14h.02666l.11333.14h.02666l.11334.14h.02666l.11333.14h.02666l.11334.14h.02666l.11333.14h.02666l.11333.14h.02667l.11333.14h.02666l.11333.14h.02666l.11334.14h.02666l.11333.14h.02666l.11334.14h.02666l.11333.13867h.02666l.11333.14h.02667l.11333.14h.02533l.11466.14h.02533l.11467.14h.02533l.11466.14h.02533l.11467.14h.02533l.11466.14h.02533l.11466.14h.02533l.11334.14h.02666l.11333.14h.02666l.11333.14h.02667l.11333.14h.02666l.11333.14h.02667l.11333.14h.02666l.11333.14h.02666l.11334.14h.02666l.11333.14h.02666l.11333.14h.02667l.11333.14h.02666l.11333.14h.02667l.11333.13867h.02666l.11333.14h.02666l.11334.14h.02533l.11466.14h.02533l.11466.14h.02533l.11467.14h.02533l.11466.14h.02533l.11467.14h.02533l.11466.14h.02534l.11466.14h.02534l.11333.14h.02667l.11333.14h.02666l.11334.14h.02666l.11334.14h.02666l.11334.14h.02666l.11333.14h.02667l.11333.14h.02667l.11333.14h.02667l.11333.14h.02667l.11333.14h.02667l.11333.14h.02667l.11333.13867h.02667l.11333.14h.02667l.11333.14h.02667l.11333.14h.02533l.11467.14h.02533l.11467.14h.02533l.11467.14h.02533l.11467.14h.02533l.11467.14h.02533l.11467.14h.02533l.11333.14h.02667l.11333.14h.02667l.11333.14h.02667l.11333.14h.02667l.11333.14h.02667l.11333.14h.02667l.11333.14h.02667l.11333.14h.02667l.11333.14h.02666l.11334.14h.02666l.11334.14h.02666l.11334.14h.02666l.11333.13866h.02667l.11333.14h.02667l.11333.14h.02534l.11466.14h.02534l.11466.14h.02534l.11466.14h.02534l.11466.14h.02534l.11466.14h.02534l.11466.14h.02533l.11334.14h.02666l.11334.14h.02666l.11334.14h.02666l.11333.14h.02667l.11333.14h.02667l.11333.14h.02667l.11333.14h.02667l.11333.14h.02667l.11333.14h.02667l.11333.14h.02667l.11333.14h.02667l.11333.14h.02667l.11333.13867h.02667l.11333.14h.02533l.11467.14h.02533l.11467.14h.02533l.11467.14h.02533l.11467.14h.02533l.11467.14h.02533l.11467.14h.02533l.11466.14h.02534l.11466.14h.02534l.11333.14h.02667l.11333.14h.02667l.11333.14h.02667l.11333.14h.02667l.11333.14h.02667l.11333.14h.02666l.11334.14h.02666l.11334.14h.02666l.11334.14h.02666l.11334.14h.02666l.11333.14h.02667l.11333.13866h.02667l.11333.14h.02534l.11466.14h.02534l.11466.14h.02534l.11466.14h.02534l.11466.14h.02534l.11466.14h.02533l.11467.14h.02533l.11467.14h.02533l.11467.14h.02533l.11334.14h.02666l.11333.14h.02667l.11333.14h.02667l.11333.14h.02667l.11333.14h.02667l.11333.14h.02667l.11333.14h.02667l.11333.14h.02667l.11333.14h.02667l.11333.14h.02667l.11333.13867h.02667l.11333.14h.02667l.11333.14h.02666l.11334.14h.02533l.11467.14h.02533l.11467.14h.02533l.11467.14h.02533l.11466.14h.02534l.11466.14h.02534l.11466.14h.02534l.11466.14h.02534l.11333.14h.02667l.11333.14h.02667l.11333.14h.02667l.11333.14h.02666l.11334.14h.02666l.11334.14h.02666l.11334.14h.02666l.11334.14h.02666l.11333.14h.02667l.11333.14h.02667l.11333.14h.02667l.11333.14h2.83334l2.28133-2.81466v.18133l.14-.08v.22l.14-.08v.22l.14-.08v.22l.14-.08v.22l.14-.08v.22l.14-.08133v.22133l.13867-.08v.22l.14-.08134v.22134l.14-.08134v.22134l.14-.08134v.22134l.14-.08134v.22134l.14-.08134v.22134l.14-.08134v.22134l.14-.08134v.22133l.14-.08133v.22133l.14-.08133v.22133l.14-.08133v.22133l.14-.08133v.22133l.14-.08133v.22l.14-.08v.22l.14-.08v.22l.14-.08v.22l.14-.08v.22l.14-.08v.22l.14-.08v.22l.14-.08v.22l.14-.08v.22l.13866-.08v.22l.14-.08133v.22133l.14-.08133v.22133l.14-.08133v.22133l.14-.08133v.22133l.14-.08133v.22133l.14-.08133v.22133l.14-.08133v.22133l.14-.08134v.22134l.14-.08134v.22134l.14-.08134v.22134l.14-.08134v.22134l.14-.08134v.22l.14-.08v.22l.14-.08v.22l.14-.08v.22l.14-.08v.22l.14-.08v.22l.14-.08v.22l.14-.08v.22l.14-.08v.22l.13867-.08v.22l.14-.08134v.22134l.14-.08134v.22134l.14-.08134v.22134l.14-.08134v.22134l.14-.08134v.22133l.14-.08133v.22133l.14-.08133v.22133l.14-.08133v.22133l.14-.08133v.22133l.14-.08133v.22133l.14-.08133v.22133l.14-.08133v.22133l.14-.08133v.22l.14-.08v.22l.14-.08v.22l.14-.08v.22l.14-.08v.22l.14-.08v.22l.14-.08v.22l.14-.08v.22l.14-.08133v.22133l.13866-.08v.22l.14-.08133v.22133l.14-.08133v.22133l.14-.08133v.22133l.14-.08133v.22133l.14-.08134v.22134l.14-.08134v.22134l.14-.08134v.22134l.14-.08134v.22134l.14-.08134v.22134l.14-.08134v.22134l.14-.08134v.22133l.14-.08133v.22l.14-.08v.22023l.14-.08v.22l.14-.08v.22l.14-.08v.22l.14-.08v.22l.14-.08v.22l.14-.08v.22l.14-.08v.22l.13867-.08v.22l.14-.08133v.22133l.14-.08134v.22134l.14-.08134v.22134l.14-.08134v.22134l.14-.08134v.22134l.14-.08134v.22134l.14-.08134v.22134l.14-.08134v.22133l.14-.08133v.22133l.14-.08133v.22133l.14-.08133v.22133l.14-.08133v.22l.14-.08v.22l.14-.08v.22l.14-.08v.22l.14-.08v.22l.14-.08v.22l.14-.08v.22l.14-.08v.22l.14-.08v.22l.13867-.08v.22l.14-.08133v.22133l.14-.08133v.22133l.14-.08133v.22133l.14-.08133v.22133l.14-.08133v.22133l.14-.08133v.22133l.14-.08133v.22133l.14-.08133v.22133l.14-.08134v.22134l.14-.08134v.22134l.14-.08134v.22134l.14-.08134v.22134l.14-.08134v.22l.14-.08v.22l.14-.08v.22l.14-.08v.22l.14-.08v.22l.14-.08v.22l.14-.08v.22l.14-.08v.22l.14-.08134v.22134l.13867-.08v.22l.14-.08134v.22133l.14-.08133v.22134l.14-.08133v.22133l.14-.08133v.22134l.14-.08133v.22133l.14-.08133v.22133l.14-.08132v.22133l.14-.08133v.22133l.14-.08133v.22134l.14-.08133v.22133l.14-.08133v.22134l.14-.08133v.22l.14-.08v.22l.14-.08v.22l.14-.08v.22l.14-.08v.22l.14-.08v.22l.14-.08v.22l.14-.08v.22l.14-.08v.22l.13867-.08v.22l.14-.08133v.22133l.14-.08133v.22134l.14-.08133v.22133l.14-.08133v.22134l.14-.08133v.22133l.14-.08133v.22134l.14-.08133v.22133l.14-.08133v.22133l.14-.08132v.22133l.14-.08133v.22133l.14-.08133v.22134l.14-.08133v.22l.14-.08v.22l.14-.08v.22l.14-.08v.22l.14-.08v.22l.14-.08v.22l.14-.08v.22l.14-.08v.22l.14-.08v.22l.13866-.08v.22l.14-.08133v.22133l.14-.08132v.22133l.14-.08133v.22133l.14-.08133v.22134l.14-.08133v.22133l.14-.08133v.22134l.14-.08133v.22133l.14-.08133v.22134l.14-.08133v.22133l.14-.08133v.22133l.14-.08132v.22133l.14-.08133v.22133l.14-.08133v.22l.14-.08v.22l.14-.08v.22l.14-.08v.22l.14-.08v.22l.14-.08v.22l.14-.08v.22l.14-.08v.22l.14-.08133v.22133l.13867-.08v.22l.14-.08133v.22133l.14-.08133v.22133l.14-.08132v.22133l.14-.08133v.22133l.14-.08133v.22134l.14-.08133v.22106l.14-.08133v.22133l.14-.08133v.22134l.14-.08133v.22133l.14-.08133v.22134l.14-.08133v.22133l.14-.08133v.22l.14-.08v.22l.14-.08v.22l.14-.08v.22l.14-.08v.22l33.516-19.35067V226.3026Z"/></g></g></g></g></g></g></g></g><g id="g48"><g id="g50"><g id="g56"><path id="path58" class="cls-7" d="M122.60226,155.28857h2.83333l32.368-39.924v67.37866l33.516-19.35066v-77.168l-32.12-18.544-34.79467,42.27467-34.62933-42.272L57.66093,86.22457v77.168l32.48666,18.756v-66.784Z"/></g><g id="g60"><path id="path62" class="cls-8" d="M744.18355,258.89456v18.19066h8.38533q5.644,0,8.58-2.38666a9.12889,9.12889,0,0,0,.06533-13.35333q-2.874-2.45-8.22533-2.45067Zm-3.484-2.90267h12.41867q7.126,0,10.91733,3.19334a10.78332,10.78332,0,0,1,3.78933,8.708,11.0119,11.0119,0,0,1-3.82133,8.83733q-3.822,3.258-11.20934,3.25867h-8.61066v21.06h-3.484Z"/></g><g id="g64"><path id="path66" class="cls-8" d="M783.20405,258.89456v17.64267h7.48267q5.708,0,8.72533-2.30667a8.48348,8.48348,0,0,0-.04933-13.01467q-3.064-2.322-8.804-2.32133Zm-3.484-2.90267h11.548q7.256,0,11.09467,3.144a10.41021,10.41021,0,0,1,3.83733,8.49867q0,7.806-8.57866,10.96667,2.226,1.064,5.99866,6.87066l10.192,15.57734h-4.12266l-7.84933-12.348q-3.932-6.196-6.12534-7.728a11.17889,11.17889,0,0,0-6.416-1.53334h-6.09467v21.60934h-3.484Z"/></g><g id="g68"><path id="path70" class="cls-8" d="M843.93314,298.40562a19.3677,19.3677,0,0,0,14.208-5.75866,20.12841,20.12841,0,0,0,0-28.252,19.36771,19.36771,0,0,0-14.208-5.75867,19.62014,19.62014,0,0,0-14.304,5.75867,19.972,19.972,0,0,0,0,28.252,19.62013,19.62013,0,0,0,14.304,5.75866M843.8038,255.411a23.46012,23.46012,0,0,1,16.94934,6.72534,22.7839,22.7839,0,0,1,0,32.76933,24.63842,24.63842,0,0,1-33.83334,0,22.86027,22.86027,0,0,1,0-32.76933,23.31122,23.31122,0,0,1,16.884-6.72534"/></g><g id="g72"><path id="path74" class="cls-8" d="M885.213,255.99189v45.05866q0,7.45-2.80667,10.28933a9.03648,9.03648,0,0,1-6.64533,2.83734,19.95531,19.95531,0,0,1-2.09467-.12934l-.324-3.28933a9.12389,9.12389,0,0,0,2.06534.25867q6.32,0,6.32133-9.032V255.99189Z"/></g><g id="g76"><path id="path78" class="cls-8" d="M925.20071,255.99189v2.90267H904.10738v18.02933h20.54533v2.936H904.10738v18.28666H925.718v2.904H900.62471V255.99189Z"/></g><g id="g80"><path id="path82" class="cls-8" d="M975.73757,259.185v3.80534a34.08588,34.08588,0,0,0-16.06266-4.35467,18.93505,18.93505,0,0,0-14.03067,5.71067,19.45808,19.45808,0,0,0-5.644,14.25466,19.09635,19.09635,0,0,0,5.676,14.224,19.80016,19.80016,0,0,0,14.48133,5.58q7.356,0,16.032-4.612v3.612a33.92473,33.92473,0,0,1-15.96533,4.22534,23.72989,23.72989,0,0,1-17.14267-6.596,23.091,23.091,0,0,1,.144-32.97866,23.38485,23.38485,0,0,1,16.676-6.644,37.91105,37.91105,0,0,1,15.836,3.77333"/></g><g id="g84"><path id="path86" class="cls-8" d="M1020.56488,255.99189v2.90267h-16.90133v42.156h-3.51467v-42.156H983.24755v-2.90267Z"/></g><g id="g88"><path id="path90" class="cls-8" d="M310.81,106.30631a31.93636,31.93636,0,0,0,23.42133-9.49066,31.5489,31.5489,0,0,0,9.544-23.26267,31.60829,31.60829,0,0,0-9.544-23.31467A31.93113,31.93113,0,0,0,310.81,40.74765a32.35058,32.35058,0,0,0-23.58133,9.49067A31.42817,31.42817,0,0,0,277.578,73.553a31.36959,31.36959,0,0,0,9.65067,23.26267A32.3559,32.3559,0,0,0,310.81,106.30631m-.21333-70.876A38.68464,38.68464,0,0,1,338.538,46.51565,36.19253,36.19253,0,0,1,349.99531,73.553,36.12861,36.12861,0,0,1,338.538,100.537a40.61875,40.61875,0,0,1-55.776,0,36.21316,36.21316,0,0,1-11.40533-26.984A36.27739,36.27739,0,0,1,282.762,46.51565a38.4379,38.4379,0,0,1,27.83467-11.08534"/></g><g id="g92"><path id="path94" class="cls-8" d="M369.72223,41.17257v29.988h13.824q9.304,0,14.144-3.93466,4.838-3.934,4.83733-11.112a13.59487,13.59487,0,0,0-4.732-10.9q-4.732-4.04-13.55733-4.04133Zm-5.74267-4.78534h20.47067q11.75,0,17.99733,5.264,6.248,5.264,6.248,14.356,0,9.198-6.3,14.568-6.3,5.372-18.476,5.37067H369.72223v34.72h-5.74267Z"/></g><g id="g96"><path id="path98" class="cls-8" d="M460.21758,36.387V41.1723H425.44425V70.895h33.86933v4.83867H425.44425v30.14666h35.624v4.78534H419.70159V36.387Z"/></g><g id="g100"><path id="path102" class="cls-8" d="M539.81344,36.387v74.27867h-4.72533l-56.47333-64.92v64.92h-5.74266V36.387h4.86533l56.33466,64.92134V36.387Z"/></g><g id="g104"><path id="path106" class="cls-9" d="M360.78969,225.31672H338.56436v-42.696l-20.04533,24.724h-1.75466l-20.09734-24.724v42.696H275.079V151.62339h20.152l22.65066,27.648,22.756-27.648h20.152Z"/></g><g id="g108"><path id="path110" class="cls-9" d="M426.45424,197.56245l-10.79333-26.904-10.9,26.904Zm33.86933,27.75467h-22.756l-6.00933-14.94h-32.008l-6.11467,14.94H370.67824l32.59333-73.69467h24.56534Z"/></g><path id="path112" class="cls-9" d="M492.43865,225.31631h-22.224V151.623h22.224Z"/><g id="g114"><path id="path116" class="cls-9" d="M591.06942,225.31672h-19.78l-38.228-41.048v41.048h-22.012V151.62339h19.72533l38.124,40.83333V151.62339h22.17066Z"/></g><g id="g118"><path id="path120" class="cls-9" d="M662.37,195.48791H631.798v29.82933H609.57263V151.62258H662.37v14.78133H631.798v14.25066H662.37Z"/></g><g id="g122"><path id="path124" class="cls-9" d="M718.46505,174.91125q0-5.104-3.34934-7.12534-3.35-2.018-10.9-2.02h-4.67866v17.75866h4.78533q8.136,0,11.13866-1.78133,3.004-1.78,3.004-6.832m30.20133,50.40533H724.793l-5.796-13.07867a54.3087,54.3087,0,0,0-5.74266-10.50266,12.4029,12.4029,0,0,0-4.97067-4.25334,17.67574,17.67574,0,0,0-6.248-.92933h-2.49866v28.764H677.31171V151.62325h37.804q9.144,0,14.99333,3.72133a22.34783,22.34783,0,0,1,8.428,9.03867,23.19808,23.19808,0,0,1,2.57867,10.10267,19.12058,19.12058,0,0,1-2.152,9.43866,17.33757,17.33757,0,0,1-4.54667,5.60933,45.49536,45.49536,0,0,1-5.37066,3.34934,21.18327,21.18327,0,0,1,5.87466,4.91866q2.314,2.844,6.30134,11.51067Z"/></g><g id="g126"><path id="path128" class="cls-9" d="M805.82409,197.56245l-10.79333-26.904-10.9,26.904Zm33.86933,27.75467H816.93609l-6.008-14.94h-32.008l-6.11467,14.94h-22.756l32.592-73.69467h24.56534Z"/></g><g id="g130"><path id="path132" class="cls-9" d="M935.18582,225.31672h-22.224v-42.696l-20.04533,24.724h-1.75467l-20.09866-24.724v42.696H849.47649V151.62339h20.152l22.65066,27.648,22.756-27.648h20.15067Z"/></g><g id="g134"><path id="path136" class="cls-9" d="M1009.3585,225.31672H953.79584V151.62339h54.66v14.78134H976.02117v13.504h30.944v14.836h-30.944v15.73734h33.33733Z"/></g></g></g></g></svg>