<?xml version="1.0" encoding="UTF-8"?><svg id="a" xmlns="http://www.w3.org/2000/svg" viewBox="0 0 624.24 469.28"><defs><style>.b{fill:#fff;}.c{opacity:.9;}</style></defs><g><polygon class="b" points="368.4 247.11 370.32 241.77 367.16 243.95 368.26 247.11 368.4 247.11"/><path class="b" d="M243.28,69.94c-.06,.68-.23,1.36-.49,2.01,.26-.65,.42-1.32,.49-2.01Z"/><path class="b" d="M252.2,62.18h0c.26-.02,.52,0,.78,.02-.26-.03-.51-.04-.77-.02Z"/><path class="b" d="M332.03,239.77l.11-1.08c-.21,.1-.4,.2-.62,.29l.5,.79Z"/><path class="b" d="M231.02,64.19c-.08,.08-.15,.17-.23,.26,.08-.09,.15-.18,.24-.26h0Z"/><path class="b" d="M343.87,128.61c-3.46,.48-6.4,1.85-8.73,3.86,2.33-2.01,5.27-3.38,8.73-3.86h0Z"/><path class="b" d="M321.13,224.66v11.17h3.88c2.6,0,4.49-.48,5.65-1.45s1.75-2.4,1.75-4.3-.63-3.32-1.89-4.16-3.16-1.26-5.7-1.26h-3.69Z"/><path class="b" d="M548.39,7.38h-83.89l37.48,54.35c.59,.32,1.15,.71,1.66,1.19h0c1.28,1.22,2.01,2.79,2.2,4.41l4.54,6.58v-12.96h1.11v14.5s0,.05,0,.08l25.33,36.73c18.47,2.88,27,18.97,27,36.42,0,.81-.04,1.68-.09,2.59l48,69.6V70.72c0-34.98-28.36-63.35-63.35-63.35Zm-23.9,68.04h-8.04v-14.46h7.89v.93h-6.77v5.78h6.59v.94h-6.59v5.87h6.92v.94Zm16.21-1.14c-1.57,.87-3.32,1.33-5.12,1.35-2.05,.07-4.03-.7-5.51-2.12-2.89-2.89-2.89-7.58,0-10.47h0s.07-.07,.1-.11c1.43-1.39,3.36-2.16,5.35-2.13,1.74,.03,3.46,.44,5.03,1.19h0l.06,.03s-.04-.02-.06-.03v1.21c-1.58-.9-3.35-1.4-5.16-1.45-1.69-.04-3.31,.63-4.49,1.84-1.21,1.21-1.87,2.87-1.81,4.58-.07,1.72,.59,3.39,1.81,4.61,1.24,1.2,2.92,1.85,4.65,1.79,1.81-.05,3.58-.55,5.14-1.45v1.16Zm14.25-12.39h-5.42v13.53h-1.13v-13.53h-5.44v-.93h11.99v.93Z"/><path class="b" d="M254.38,68.26c.24-.11,.48-.25,.71-.41,.5-.46,.82-1.04,.96-1.65-.14,.61-.46,1.19-.96,1.65-.22,.16-.46,.29-.71,.41Z"/><path class="b" d="M255.93,64.34c-.14-.4-.37-.78-.68-1.11-.04-.06-.1-.12-.16-.16,.06,.04,.12,.1,.16,.16,.31,.33,.53,.71,.68,1.11Z"/><polygon class="b" points="326.71 64.59 326.71 64.59 329.06 70.39 326.71 64.59"/><path class="b" d="M412.94,230.5c-.23-.62-.56-1.6-.97-2.94-.41-1.34-.7-2.32-.85-2.94-.42,1.92-1.04,4.01-1.85,6.28l-3.08,8.9h9.95l-3.2-9.3Z"/><path class="b" d="M203.92,142.28l-37.21,25.66-.35,.95,86.27-59.5h-25.02v-17.11h49.83l14.45-9.96-1.06,9.96h9.15v14.83l-12.25,14.25-4.53,42.52h16.78v17.11h-18.6l-4.44,41.7c2.67-2.18,6.18-3.29,10.57-3.29,5.08,0,9,1.53,11.77,4.6,2.77,3.07,4.16,7.39,4.16,12.96s-1.39,9.88-4.17,12.96c-2.78,3.08-6.72,4.62-11.81,4.62s-9.11-1.53-11.88-4.59c-.5-.56-.94-1.17-1.35-1.81l-3.14,29.48h144.45l39.89-27.51-14.35-23.25h-.19l.12,1.52c.22,2.9,.33,5.54,.33,7.94v17.75h-5.07v-34.15h6.77l16.75,27.07h.14c-.03-.36-.09-1.66-.19-3.91s-.14-4.01-.14-5.27v-17.89h5.12v23.78l20.01-13.8v-5.19h-10.04v-4.79h10.45l-26.51-38.44h-.9l-71.65,49.41v23.18h-5.37v-16.89c0-.76,.01-1.64,.03-2.6l-4.12,2.84-6,16.65h-4.93l-2.55-7.35-7.14,4.92v2.43h-3.52l-23.69,16.34,2.39-22.46-4.51-7.53h-5.51v13.64h-5.58v-34.15h9.65c3.75,0,6.66,.6,8.75,1.8l4.27-40.1c-16.66-3.53-28.23-17.41-28.23-34.23v-.25c0-19.14,15.12-34.74,35.67-35.33l3.77-35.4h-1.97v-16.03h3.68l3.21-30.09-15.81-22.93h-35.18L172.92,97.33l31,44.95Zm204.19,77.52h6.07l12.78,34.29h-5.93l-3.41-9.48h-13.06l-3.34,9.48h-5.89l12.78-34.29ZM338.57,60.4h4.82v16.03h-4.82v-16.03Zm-14.55,0h5.41l7,16.03h-4.94l-1.32-3.25h-6.96l-1.33,3.25h-4.94l7.09-16.03Zm-27.88,0h4.38l4.93,6.01,4.94-6.01h4.39v16.03h-4.84v-9.29l-4.35,5.38h-.39l-4.37-5.38v9.29h-4.69v-16.03Zm-24.71,.74h1.06l12.24,14.12v-14.12h1.25v16.16h-1.03l-12.27-14.14v14.14h-1.25v-16.16Zm-11.57,0h8.81v1.04h-7.57v6.46h7.37v1.04h-7.37v6.56h7.76v1.05h-9v-16.16Zm-12.12,0h4.45c1.4-.09,2.78,.32,3.91,1.15,.11,.1,.22,.21,.32,.33,1.53,1.76,1.35,4.43-.41,5.96-1.16,.86-2.58,1.27-4.02,1.17h-3.09v7.52h-1.24l.07-16.13Zm-17.81,2.41l.16-.16c1.61-1.59,3.79-2.45,6.05-2.41v-.04c2.27-.06,4.46,.81,6.07,2.41,3.26,3.13,3.37,8.3,.24,11.56-.01,0-.03,.02-.04,.04l-.2,.2c-3.4,3.21-8.71,3.21-12.12,0-3.24-3.16-3.31-8.35-.16-11.59Z"/><path class="b" d="M287.45,249.79c3.32,0,5.82-1.08,7.51-3.22,1.69-2.15,2.53-5.35,2.53-9.6s-.84-7.37-2.51-9.53c-1.67-2.16-4.17-3.25-7.49-3.25s-5.88,1.08-7.58,3.25c-1.71,2.17-2.56,5.34-2.56,9.53s.85,7.39,2.55,9.57c1.7,2.17,4.21,3.26,7.54,3.26Z"/><polygon class="b" points="231.01 74.31 231.01 74.31 231.02 74.33 231.01 74.31 231.01 74.31"/><polygon class="b" points="266.43 321.17 266.3 322.44 279.88 342.14 321.99 342.14 352.4 321.17 266.43 321.17"/><polygon class="b" points="35.44 321.17 35.44 277.64 109.42 277.64 11.74 135.98 11.74 323.7 11.74 342.14 153.91 342.14 139.45 321.17 35.44 321.17"/><path class="b" d="M75.08,7.38c-34.98,0-63.35,28.36-63.35,63.35v40.84L162.81,7.38H75.08Z"/><polygon class="b" points="588.97 277.64 588.97 321.17 492.94 321.17 462.53 342.14 611.74 342.14 611.74 239.24 556.06 277.64 588.97 277.64"/><path class="b" d="M329.47,142.35c.16-.73,.35-1.45,.58-2.14-.23,.7-.43,1.41-.58,2.14Z"/><path class="b" d="M330.05,153.61c-.34-1.02-.61-2.07-.78-3.15,.18,1.08,.44,2.13,.78,3.15Z"/><path class="b" d="M329,146.9h0c0-1.56,.16-3.09,.47-4.55-.31,1.46-.47,2.99-.47,4.55Z"/><path class="b" d="M333.02,159.18c-1.28-1.65-2.29-3.54-2.97-5.57,.69,2.03,1.69,3.91,2.97,5.57Z"/><path class="b" d="M468.92,67.67c.36,.03,.71,0,1.06-.07-.35,.06-.7,.1-1.06,.07h0Z"/><path class="b" d="M471.85,62.77s.02,.03,.03,.04h0s-.02-.02-.03-.04l-.14-.16c-.76-.56-1.7-.84-2.64-.78h0c.95-.06,1.88,.22,2.64,.78l.14,.16Z"/><path class="b" d="M471.67,66.91c-.4,.28-.84,.5-1.31,.63,.47-.13,.91-.34,1.31-.63Z"/><path class="b" d="M471.67,66.9h0c.1-.09,.18-.19,.26-.29-.08,.1-.17,.2-.27,.29h0Z"/><path class="b" d="M391.91,66.95c.23-.17,.4-.39,.52-.64-.11,.25-.29,.47-.52,.64Z"/><g class="c"><path class="b" d="M563.57,153.75h-47.27c1.9,8.74,7.98,13.31,16.6,13.31,6.46,0,11.15-2.03,16.47-6.97l11.03,9.76c-6.34,7.86-15.46,12.67-27.75,12.67-20.4,0-35.48-14.32-35.48-35.1v-.25c0-19.39,13.81-35.36,33.58-35.36,2.14,0,4.16,.16,6.08,.46l-25.33-36.73c.1,1.14-.22,2.27-.9,3.19-.55,.59-1.33,.92-2.13,.92-.22,0-.44,0-.67,0l-.1-1.05c.21,.05,.43,.07,.65,.07,1.36,0,2.03-.96,2.03-2.9v-1.86l-4.54-6.58c.24,2.06-.4,4.22-1.95,5.84-.03,.03-.06,.06-.08,.09l-.18,.18c-3.05,2.88-7.81,2.88-10.86,0-2.9-2.82-2.97-7.46-.15-10.37h0l.14-.15c2.54-2.39,6.26-2.79,9.2-1.19L464.5,7.38h-125.97l15.81,22.93-3.21,30.09h.61l8.29,8.88v-8.88h4.81v16.03h-4.29l-8.32-8.93v8.93h-2.81l-3.77,35.4c.4-.01,.8-.03,1.21-.03,21.04,0,36.62,15.59,36.62,35.1v.25c0,19.52-15.71,35.36-36.88,35.36-2.91,0-5.72-.31-8.39-.88l-4.27,40.1c.37,.21,.72,.43,1.03,.68,2.12,1.65,3.18,4.14,3.18,7.47,0,4.04-2.02,6.96-6.02,8.8l-.11,1.08,9.15,14.33h-6.35l-3.67-6.12-2.39,22.46,23.69-16.34h-1.54v-34.15h7.87l8.38,24.01,3.16-2.18,7.85-21.83h7.9v10.97l71.65-49.41h-4.39l-13.05-41.69-13.31,41.69h-17.23l-20.91-68.43h19.52l10.9,41.19,12.8-41.44h16.6l12.93,41.57,11.15-41.31h19.14l-21.16,68.43h-12.07l26.51,38.44h15.22v4.79h-10.04v29.36h-5.58v-24.18l-20.01,13.8v10.37h-6.84l-2.45-3.97-39.89,27.51h140.54l55.67-38.4v-18.37l-48-69.6c-.05,.81-.11,1.64-.16,2.48ZM380.36,63.62h-6.65v3.1h6.65v3.22h-6.65v6.49h-4.83v-16.03h11.48v3.22Zm13.58,12.81l-1.26-2.9c-.34-.8-.75-1.57-1.25-2.28-.27-.4-.65-.72-1.08-.93-.44-.15-.9-.22-1.36-.2h-.54v6.26h-4.84v-15.99h8.22c1.14-.05,2.27,.23,3.26,.81,.79,.47,1.42,1.14,1.84,1.96,.35,.68,.54,1.44,.55,2.2,.03,.71-.13,1.42-.46,2.06-.24,.47-.58,.88-.99,1.22-.38,.27-.77,.51-1.17,.73,.49,.27,.92,.64,1.28,1.07,.56,.77,1.04,1.6,1.42,2.48l1.58,3.51h-5.19Zm20.03,0l-1.3-3.25h-6.96l-1.33,3.25h-4.96l7.09-16.03h5.35l7.06,16.03h-4.94Zm25.71,0h-4.82v-9.29l-4.37,5.38h-.37l-4.38-5.38v9.29h-4.69v-16.03h4.4l4.91,6.01,4.96-6.01h4.38v16.03Zm16.13,0h-12.09v-16.03h11.88v3.21h-7.04v2.93h6.73v3.23h-6.73v3.42h7.25v3.23Zm16.78-8.83c-1.04,.77-2.32,1.14-3.61,1.04h-2.75v6.77h-1.11v-14.47h3.99c1.25-.09,2.49,.28,3.49,1.03,.83,.69,1.28,1.73,1.22,2.8,.05,1.08-.4,2.12-1.22,2.83Zm14.66,7.81l-2.52-3.94c-.51-.93-1.17-1.77-1.96-2.48-.62-.36-1.34-.54-2.06-.49h-2v6.94h-1.11l.04-14.5h3.7c1.27-.09,2.53,.27,3.57,1.02,.82,.66,1.27,1.67,1.23,2.72,0,1.67-1.13,3.12-2.75,3.51,.8,.59,1.46,1.35,1.93,2.22l3.27,5h-1.34Z"/></g><path class="b" d="M388.45,67.34h1.03c.21,.01,.42,.02,.62,0-.21,0-.41,0-.62,0h-1.03Z"/><path class="b" d="M481.12,61.88c.45-.03,.9,.02,1.34,.12-.44-.1-.89-.15-1.34-.12h-2.36v0h2.36Z"/><polygon class="b" points="291.89 82.32 277.44 92.28 290.83 92.28 291.89 82.32"/><polygon class="b" points="163.79 129.34 131.69 151.48 138.03 91.99 131.3 82.23 83.7 115.07 91.46 126.32 122.56 104.87 116.22 164.36 122.94 174.12 171.55 140.6 163.79 129.34"/><polygon class="b" points="283.2 163.89 287.73 121.36 251.19 163.89 283.2 163.89"/><g class="c"><polygon class="b" points="266.43 321.17 139.45 321.17 153.91 342.14 279.88 342.14 266.3 322.44 266.43 321.17"/></g><g class="c"><polygon class="b" points="352.4 321.17 321.99 342.14 462.53 342.14 492.94 321.17 352.4 321.17"/></g><g class="c"><path class="b" d="M271.07,277.64l3.14-29.48c-1.85-2.89-2.79-6.62-2.79-11.23,0-5.64,1.39-9.97,4.17-12.99,.42-.45,.87-.86,1.34-1.24l4.44-41.7h-55.28v-14.83l48.79-56.77h-22.25l-86.27,59.5,.35-.95-53.7,37.03L50.32,114.07l90.91-62.69,31.69,45.95L303.35,7.38H162.81L11.74,111.57v24.42l97.69,141.65h161.65Zm-28.21-57.69h19.27v4.72h-13.73v10.67h12.87v4.74h-12.87v14.02h-5.54v-34.15Zm-42.25,0h6.77l16.75,27.07h.14c-.03-.36-.09-1.66-.19-3.91s-.14-4.01-.14-5.27v-17.89h5.12v34.15h-6.84l-16.79-27.21h-.19l.12,1.52c.22,2.9,.33,5.54,.33,7.94v17.75h-5.07v-34.15Zm-39.95,3.99c2.78-3.02,6.75-4.53,11.9-4.53s9,1.53,11.77,4.6c2.77,3.07,4.16,7.39,4.16,12.96s-1.39,9.88-4.17,12.96c-2.78,3.08-6.72,4.62-11.81,4.62s-9.11-1.53-11.88-4.59c-2.76-3.06-4.15-7.41-4.15-13.05s1.39-9.97,4.17-12.99Zm-37.32,3.76c1.3-2.66,3.18-4.7,5.64-6.12s5.35-2.13,8.67-2.13c3.49,0,6.71,.73,9.67,2.2l-2.01,4.65c-1.15-.54-2.37-1.02-3.66-1.44-1.29-.41-2.64-.62-4.05-.62-3.21,0-5.73,1.14-7.57,3.41-1.84,2.27-2.76,5.41-2.76,9.41s.88,7.36,2.65,9.51c1.77,2.15,4.33,3.22,7.67,3.22,1.45,0,2.85-.14,4.2-.43,1.36-.29,2.76-.66,4.23-1.11v4.79c-2.68,1.01-5.72,1.52-9.11,1.52-5,0-8.84-1.51-11.52-4.54-2.68-3.03-4.02-7.36-4.02-13,0-3.55,.65-6.66,1.95-9.32Z"/></g><g class="c"><path class="b" d="M172.51,249.79c3.32,0,5.82-1.08,7.51-3.22,1.69-2.15,2.53-5.35,2.53-9.6s-.84-7.37-2.51-9.53c-1.67-2.16-4.17-3.25-7.49-3.25s-5.88,1.08-7.58,3.25c-1.71,2.17-2.56,5.34-2.56,9.53s.85,7.39,2.55,9.57c1.7,2.17,4.21,3.26,7.54,3.26Z"/></g><path class="b" d="M346.61,128.4c3.33,0,6.32,.85,8.86,2.33-2.54-1.48-5.53-2.33-8.86-2.33-.95,0-1.86,.08-2.74,.21h0c.88-.12,1.79-.21,2.74-.21Z"/><path class="b" d="M493.63,63.65c-.06,.06-.12,.13-.18,.2,.06-.07,.11-.13,.18-.2h0Z"/><path class="b" d="M497.57,74.53c.21,.02,.42,.02,.64,.02h0c-.21,0-.43,0-.64-.02Z"/><path class="b" d="M381.04,225.62h-.19l-4.26,11.82,4.12-2.84c.02-1.19,.05-2.52,.1-4.03,.08-2.73,.16-4.38,.22-4.95Z"/><path class="b" d="M355.58,225.57c.26,4.24,.4,8.21,.4,11.91v14.18l7.14-4.92-7.35-21.17h-.19Z"/><path class="b" d="M11.74,463.28H611.74v-110.97H11.74v110.97Zm3.6-107.37H608.14v103.77H15.34v-103.77Z"/><path class="b" d="M392.17,64.22c-.1-.11-.21-.21-.34-.29-.55-.26-1.15-.42-1.75-.45-.2-.01-.41-.01-.61,0h-1.01v3.87h1.03c.21,.01,.42,.02,.62,0,.62-.03,1.23-.16,1.81-.4,.23-.17,.4-.39,.52-.64,.11-.25,.16-.53,.14-.81v-.05c.02-.15,.01-.3-.02-.45-.05-.29-.18-.57-.38-.79Z"/><path class="b" d="M484.28,62.96l-.33-.33c-.46-.3-.96-.51-1.49-.63-.44-.1-.89-.15-1.34-.12h-2.36v5.67h2.39c.99,.06,1.98-.2,2.81-.74,1.15-.97,1.29-2.69,.32-3.84Z"/><path class="b" d="M472.47,63.8c-.04-.13-.11-.25-.17-.37-.02-.05-.04-.1-.07-.14-.07-.12-.16-.22-.24-.33-.04-.05-.06-.1-.1-.14h0s-.02-.02-.03-.04l-.14-.16c-.76-.56-1.7-.84-2.64-.78l-2.83,.04v5.8h2.68c.36,.03,.71,0,1.06-.07,.13-.02,.26-.04,.38-.07,.47-.13,.91-.34,1.31-.63,.1-.09,.18-.19,.27-.29,.04-.05,.09-.09,.13-.14,.08-.11,.15-.24,.21-.36,.02-.04,.06-.08,.08-.13,.06-.14,.11-.28,.15-.43,0-.03,.03-.07,.04-.1,.03-.13,.05-.27,.06-.41,0-.05,.02-.09,.02-.14,0-.14,0-.28-.02-.42,0-.05,0-.09,0-.14-.02-.14-.06-.28-.1-.42-.01-.04-.02-.08-.03-.13Z"/><path class="b" d="M340.04,164.57l3.83-35.96c-3.46,.48-6.4,1.85-8.73,3.86-1.81,1.56-3.25,3.51-4.28,5.71-.31,.65-.57,1.33-.81,2.03-.23,.7-.43,1.41-.58,2.14-.31,1.46-.47,2.99-.47,4.56v.25c0,1.12,.09,2.23,.27,3.31s.44,2.13,.78,3.15c.69,2.03,1.69,3.91,2.97,5.57,1.82,2.35,4.2,4.22,7.02,5.39Z"/><g class="c"><path class="b" d="M343.87,128.61l-3.83,35.96c2.06,.86,4.35,1.35,6.83,1.35,11.03,0,17.61-8.49,17.61-18.5v-.25c0-.92-.07-1.83-.19-2.72-.33-2.41-1.08-4.71-2.2-6.77-.67-1.23-1.45-2.38-2.37-3.41-.07-.08-.12-.16-.19-.23-1.18-1.29-2.54-2.4-4.06-3.29-2.54-1.48-5.53-2.33-8.86-2.33-.95,0-1.86,.08-2.74,.21Z"/></g><polygon class="b" points="406.84 70.39 411.55 70.39 409.2 64.59 406.84 70.39"/><path class="b" d="M254.38,68.26c.24-.11,.48-.25,.71-.41,.5-.46,.82-1.04,.96-1.65,.05-.2,.08-.41,.08-.62,.02-.42-.05-.84-.19-1.24s-.37-.78-.68-1.11c-.04-.06-.1-.12-.16-.16-.62-.48-1.35-.77-2.12-.86-.26-.03-.51-.04-.78-.02h-3.21v6.52h3.02c.82,.05,1.63-.1,2.37-.45Z"/><g class="c"><path class="b" d="M526.56,127.84c-.86,.26-1.68,.59-2.45,1.01-.77,.41-1.49,.9-2.16,1.46-1.34,1.12-2.49,2.52-3.42,4.17-1.17,2.06-2,4.49-2.48,7.23h29.02c-.1-.75-.24-1.47-.4-2.17-.86-3.83-2.57-6.98-5.05-9.13-.09-.08-.19-.15-.29-.23-2.28-1.86-5.16-2.91-8.59-2.91-1.5,0-2.9,.2-4.19,.58Z"/></g><polygon class="b" points="329.06 70.39 326.71 64.59 324.34 70.39 329.06 70.39"/><path class="b" d="M230.51,73.76c.08,.1,.18,.2,.27,.3,.07,.08,.14,.17,.22,.24h0l.02,.02c1.43,1.37,3.27,2.06,5.11,2.06,.46,0,.92-.04,1.37-.13s.9-.21,1.34-.39c.43-.17,.86-.39,1.26-.64,.4-.26,.78-.56,1.14-.9,.35-.35,.65-.73,.91-1.13,.26-.4,.47-.82,.65-1.25,.26-.65,.42-1.32,.49-2.01,.02-.23,.03-.46,.03-.69,0-.46-.04-.92-.13-1.37-.04-.23-.1-.45-.16-.67-.13-.44-.3-.88-.52-1.29-.16-.31-.35-.62-.56-.91s-.44-.57-.7-.83c-.89-.86-1.95-1.45-3.06-1.77-1.34-.39-2.76-.39-4.1,0-1.11,.32-2.17,.91-3.06,1.77h0c-.08,.08-.16,.17-.24,.26-.09,.09-.18,.19-.26,.28-.07,.09-.13,.18-.2,.27-.08,.1-.16,.21-.23,.31-.06,.09-.11,.18-.16,.27-.07,.11-.14,.22-.2,.34-.05,.09-.08,.18-.13,.27-.06,.12-.12,.24-.17,.36-.04,.1-.07,.21-.11,.32-.04,.11-.08,.22-.12,.34-.03,.11-.05,.22-.08,.33-.03,.11-.06,.23-.08,.34-.02,.1-.03,.21-.05,.31-.02,.12-.04,.24-.05,.37-.01,.11-.01,.22-.02,.33,0,.12-.02,.24-.02,.35,0,.11,.01,.22,.01,.33,0,.12,0,.24,.02,.36,.01,.11,.03,.21,.05,.32,.02,.12,.03,.24,.05,.36,.02,.1,.05,.2,.07,.3,.03,.12,.05,.25,.09,.37,.03,.11,.08,.22,.11,.33,.04,.11,.07,.22,.11,.33,.04,.11,.1,.22,.15,.33,.05,.1,.09,.21,.14,.31,.05,.1,.11,.19,.17,.28,.06,.11,.12,.22,.19,.33,.07,.1,.15,.2,.22,.31,.07,.09,.13,.19,.2,.27Z"/><path class="b" d="M493.63,63.65c-.06,.06-.12,.13-.18,.2-.09,.1-.18,.19-.26,.29-.03,.04-.05,.08-.08,.11-.1,.13-.21,.27-.3,.4-.23,.34-.41,.7-.57,1.07,0,.01-.01,.03-.02,.04-.05,.11-.08,.23-.12,.34-.03,.08-.06,.16-.09,.25-.01,.05-.02,.1-.04,.15-.04,.15-.08,.3-.11,.45-.01,.05-.01,.11-.02,.16-.02,.15-.05,.3-.06,.45,0,.09,0,.17-.01,.26,0,.12-.02,.23-.02,.35s.01,.22,.02,.34c0,.09,0,.19,.01,.28,.01,.12,.03,.24,.05,.36,.01,.08,.02,.17,.04,.25,.03,.14,.06,.27,.1,.41,.02,.06,.03,.13,.05,.19,.02,.08,.06,.17,.09,.25,.04,.11,.07,.23,.12,.34,0,.01,.01,.03,.02,.04,.15,.37,.34,.73,.57,1.07,.04,.06,.09,.12,.14,.18,.08,.11,.16,.23,.25,.33,.02,.02,.04,.04,.05,.06,.12,.15,.25,.29,.39,.43,.15,.15,.31,.3,.47,.43,.49,.4,1.04,.73,1.63,.96s1.2,.38,1.84,.43c.21,.02,.43,.02,.64,.02h0c.43,.02,.85,0,1.27-.09,1.24-.23,2.4-.83,3.3-1.74,2.48-2.52,2.48-6.56,0-9.08-2.55-2.47-6.6-2.47-9.14,0Z"/><path class="b" d="M472.23,63.29s.04,.1,.07,.14"/><path class="b" d="M472.47,63.8s.02,.08,.03,.13"/><path class="b" d="M472.6,65.05s.02-.09,.02-.14"/><path class="b" d="M472.51,65.55s.03-.07,.04-.1"/><path class="b" d="M472.28,66.11s.06-.08,.08-.13"/><path class="b" d="M471.94,66.61s.09-.09,.13-.14"/><path class="b" d="M469.98,67.6c.13-.02,.26-.04,.38-.07"/><path class="b" d="M472.6,64.35s0,.09,0,.14"/><path class="b" d="M493.19,64.13c.08-.1,.17-.19,.26-.29"/><path class="b" d="M495.73,74.1c-.58-.23-1.13-.56-1.63-.96"/><path class="b" d="M491.75,68.18c0-.12,.01-.23,.02-.35"/><path class="b" d="M491.87,66.95c.03-.15,.07-.3,.11-.45"/><path class="b" d="M492.81,64.65c.09-.14,.19-.27,.3-.4"/><path class="b" d="M492.11,70.25c.04,.11,.07,.23,.12,.34"/><path class="b" d="M492.22,65.76s.01-.03,.02-.04"/><path class="b" d="M492.02,66.35c.02-.08,.06-.17,.09-.25"/><path class="b" d="M493.19,72.22c-.09-.11-.17-.22-.25-.33"/><path class="b" d="M491.84,69.15c.01,.08,.02,.17,.04,.25"/><path class="b" d="M491.97,69.81c.02,.06,.03,.13,.05,.19"/><path class="b" d="M491.77,68.51c0,.09,0,.19,.01,.28"/><path class="b" d="M491.78,67.56c.01-.15,.04-.3,.06-.45"/><path class="b" d="M391.82,63.92c-.55-.26-1.15-.42-1.75-.45"/><path class="b" d="M392.17,64.22c.2,.22,.33,.5,.38,.79"/><path class="b" d="M228.95,69.93c-.01-.12-.01-.24-.02-.36"/><path class="b" d="M229.05,70.61c-.02-.12-.03-.24-.05-.36"/><path class="b" d="M230.09,73.18c-.07-.11-.13-.22-.19-.33"/><path class="b" d="M243.02,67.22c-.13-.44-.3-.88-.52-1.29"/><path class="b" d="M242.5,65.92c-.16-.31-.35-.62-.56-.91"/><path class="b" d="M230.79,64.45c-.09,.09-.18,.19-.26,.28"/><path class="b" d="M229.73,72.57c-.05-.1-.1-.21-.14-.31"/><path class="b" d="M230.51,73.76c-.07-.09-.13-.18-.2-.27"/><path class="b" d="M243.18,67.89c.09,.45,.13,.91,.13,1.37"/><path class="b" d="M229.44,71.94c-.04-.11-.08-.22-.11-.33"/><path class="b" d="M229.21,71.28c-.04-.12-.06-.25-.09-.37"/><path class="b" d="M230.33,65c-.08,.1-.16,.21-.23,.31"/><path class="b" d="M228.93,68.89c0,.12-.02,.24-.02,.35"/><path class="b" d="M229.13,67.53c-.03,.11-.06,.23-.08,.34"/><path class="b" d="M229,68.19c-.02,.12-.04,.24-.05,.37"/><path class="b" d="M229.94,65.58c-.07,.11-.14,.22-.2,.34"/><path class="b" d="M229.61,66.19c-.06,.12-.12,.24-.17,.36"/><path class="b" d="M229.33,66.87c-.04,.11-.08,.22-.12,.34"/><path class="b" d="M359.54,134.02c.07,.07,.13,.16,.19,.23"/><path class="b" d="M113.63,288.33c-2.13,0-3.8,.51-5,1.53-1.21,1.02-1.81,2.42-1.81,4.2,0,.95,.18,1.77,.55,2.48,.37,.71,.86,1.33,1.47,1.86,.61,.53,1.54,1.09,2.77,1.67,1.31,.62,2.18,1.08,2.61,1.36s.75,.58,.97,.89c.22,.31,.33,.66,.33,1.05,0,.71-.25,1.24-.75,1.6-.5,.36-1.22,.54-2.15,.54-.78,0-1.64-.12-2.58-.37-.94-.25-2.09-.67-3.45-1.28v3.96c1.65,.81,3.55,1.21,5.7,1.21,2.33,0,4.15-.52,5.46-1.57s1.96-2.48,1.96-4.29c0-1.31-.35-2.42-1.05-3.32s-1.99-1.8-3.87-2.7c-1.42-.68-2.32-1.15-2.7-1.41-.38-.26-.66-.53-.83-.81s-.26-.61-.26-.98c0-.61,.22-1.1,.65-1.47,.43-.38,1.05-.56,1.86-.56,.68,0,1.37,.09,2.07,.26,.7,.17,1.59,.48,2.66,.92l.69-1.67-1.74-2.53c-.18-.05-.37-.12-.55-.17-.95-.25-1.95-.37-2.99-.37Z"/><path class="b" d="M119.6,289.75c-.84-.36-1.64-.64-2.43-.88l1.74,2.53,.68-1.65Z"/><path class="b" d="M143.92,300.91c0,1.56-.31,2.7-.94,3.43-.63,.73-1.64,1.09-3.03,1.09s-2.47-.36-3.1-1.09c-.62-.72-.94-1.86-.94-3.41v-12.32h-4.25v12.96c0,2.3,.72,4.12,2.15,5.44,1.43,1.33,3.44,1.99,6.03,1.99,1.72,0,3.2-.3,4.46-.89s2.22-1.45,2.88-2.57c.67-1.12,1-2.42,1-3.91v-13.02h-4.25v12.29Z"/><path class="b" d="M173.55,290.19c-1.27-1.05-3.13-1.58-5.57-1.58h-6.43v20.12h4.27v-7.16h1.83c2.5,0,4.42-.57,5.77-1.72,1.35-1.15,2.03-2.8,2.03-4.97s-.64-3.65-1.91-4.7Zm-3.38,7.12c-.65,.52-1.63,.78-2.95,.78h-1.4v-5.97h1.94c1.17,0,2.02,.24,2.57,.72,.55,.48,.82,1.22,.82,2.22s-.33,1.75-.98,2.26Z"/><path class="b" d="M199.71,290.19c-1.27-1.05-3.13-1.58-5.57-1.58h-6.43v20.12h4.27v-7.16h1.83c2.5,0,4.42-.57,5.77-1.72,1.35-1.15,2.03-2.8,2.03-4.97s-.64-3.65-1.91-4.7Zm-3.38,7.12c-.65,.52-1.63,.78-2.95,.78h-1.4v-5.97h1.94c1.17,0,2.02,.24,2.57,.72,.55,.48,.82,1.22,.82,2.22s-.33,1.75-.98,2.26Z"/><path class="b" d="M222.58,288.3c-3.09,0-5.47,.88-7.12,2.65-1.66,1.77-2.48,4.32-2.48,7.67s.83,5.92,2.48,7.71,4.02,2.68,7.1,2.68,5.45-.89,7.1-2.68,2.48-4.35,2.48-7.68-.82-5.9-2.46-7.68c-1.64-1.78-4-2.67-7.09-2.67Zm-.03,17.13c-1.7,0-2.97-.57-3.83-1.71s-1.28-2.83-1.28-5.08,.43-3.94,1.29-5.08,2.14-1.71,3.84-1.71c3.39,0,5.08,2.27,5.08,6.8s-1.7,6.79-5.11,6.79Z"/><path class="b" d="M257.68,297.8c.65-.92,.98-1.97,.98-3.16,0-2.03-.66-3.54-1.97-4.53-1.31-1-3.33-1.49-6.07-1.49h-5.86v20.12h4.27v-7.72h2.27l4.8,7.72h4.73c-.92-1.32-2.89-4.24-5.92-8.77,1.19-.52,2.12-1.25,2.77-2.17Zm-4.29-.93c-.64,.45-1.64,.67-2.99,.67h-1.38v-5.44h1.29c1.38,0,2.39,.2,3.05,.61,.66,.4,.98,1.08,.98,2.04s-.32,1.67-.96,2.12Z"/><polygon class="b" points="269.85 292.17 275.31 292.17 275.31 308.74 279.58 308.74 279.58 292.17 285.04 292.17 285.04 288.62 269.9 288.62 269.85 289.14 269.85 292.17"/><polygon class="b" points="269.85 289.14 269.9 288.62 269.85 288.62 269.85 289.14"/><path class="b" d="M316.64,301.58h1.83c2.5,0,4.42-.57,5.77-1.72,1.35-1.15,2.03-2.8,2.03-4.97s-.64-3.65-1.91-4.7c-1.27-1.05-3.13-1.58-5.57-1.58h-6.43v20.12h4.27v-7.16Zm0-9.47h1.94c1.17,0,2.02,.24,2.57,.72,.55,.48,.82,1.22,.82,2.22s-.33,1.75-.98,2.26-1.63,.78-2.95,.78h-1.4v-5.97Z"/><path class="b" d="M342.79,301.02h2.27l4.8,7.72h4.73c-.92-1.32-2.89-4.24-5.92-8.77,1.19-.52,2.12-1.25,2.77-2.17,.65-.92,.98-1.97,.98-3.16,0-2.03-.66-3.54-1.97-4.53-1.31-1-3.33-1.49-6.07-1.49h-5.86v20.12h4.27v-7.72Zm0-8.9h1.29c1.38,0,2.39,.2,3.05,.61,.66,.4,.98,1.08,.98,2.04s-.32,1.67-.96,2.12c-.64,.45-1.64,.67-2.99,.67h-1.38v-5.44Z"/><path class="b" d="M374.27,305.44c-1.7,0-2.97-.57-3.83-1.71s-1.28-2.83-1.28-5.08,.43-3.94,1.29-5.08,2.14-1.71,3.84-1.71c3.39,0,5.08,2.27,5.08,6.8,0,1.97-.34,3.48-.99,4.59l5.43-3.75c.01-.28,.03-.56,.03-.85,0-3.34-.82-5.9-2.46-7.68-1.64-1.78-4-2.67-7.09-2.67s-5.47,.88-7.12,2.65c-1.66,1.77-2.48,4.32-2.48,7.67s.83,5.92,2.48,7.71c.95,1.03,2.15,1.75,3.57,2.19l4.61-3.18c-.34,.06-.7,.1-1.08,.1Z"/><path class="b" d="M381.37,306.33c1.51-1.63,2.32-3.92,2.45-6.83l-5.43,3.75c-.67,1.16-1.67,1.87-3.04,2.1l-4.61,3.18c1.05,.32,2.22,.49,3.53,.49,3.08,0,5.45-.89,7.1-2.68Z"/><polygon class="b" points="398.25 288.62 393.94 288.62 395.02 291.78 398.49 289.38 398.25 288.62"/><path class="b" d="M405.42,308.74l6.84-20.12h-4.31l-3.81,11.97c-.59,2.11-.93,3.59-1.03,4.43-.06-.37-.2-1.02-.42-1.96s-.44-1.76-.65-2.47l-3.54-11.21-3.48,2.4,5.75,16.96h4.65Z"/><rect class="b" x="423.25" y="288.62" width="4.27" height="20.12"/><path class="b" d="M454.9,306.1c1.89-1.76,2.83-4.3,2.83-7.61,0-3.11-.91-5.53-2.72-7.27s-4.37-2.6-7.65-2.6h-6.32v20.12h5.7c3.56,0,6.28-.88,8.17-2.64Zm-9.6-13.98h2.27c3.82,0,5.73,2.16,5.73,6.48s-2.06,6.62-6.17,6.62h-1.83v-13.1Z"/><polygon class="b" points="481.94 305.21 474.62 305.21 474.62 300.03 481.43 300.03 481.43 296.53 474.62 296.53 474.62 292.11 481.94 292.11 481.94 288.62 470.35 288.62 470.35 308.74 481.94 308.74 481.94 305.21"/><path class="b" d="M498.86,301.02h2.27l4.8,7.72h4.73c-.92-1.32-2.89-4.24-5.92-8.77,1.19-.52,2.12-1.25,2.77-2.17,.65-.92,.98-1.97,.98-3.16,0-2.03-.66-3.54-1.97-4.53-1.31-1-3.33-1.49-6.07-1.49h-5.86v20.12h4.27v-7.72Zm0-8.9h1.29c1.38,0,2.39,.2,3.05,.61,.66,.4,.98,1.08,.98,2.04s-.32,1.67-.96,2.12c-.64,.45-1.64,.67-2.99,.67h-1.38v-5.44Z"/></g><g><path class="b" d="M77.41,420.49l-1.55-5.1h-7.81l-1.55,5.1h-4.89l7.56-21.5h5.55l7.59,21.5h-4.89Zm-2.64-8.91c-1.44-4.62-2.24-7.23-2.42-7.84-.18-.61-.31-1.08-.39-1.44-.32,1.25-1.24,4.34-2.77,9.27h5.58Z"/><path class="b" d="M103.42,405.75c0,2.3-.72,4.07-2.16,5.29-1.44,1.22-3.49,1.83-6.15,1.83h-1.95v7.62h-4.54v-21.42h6.84c2.6,0,4.57,.56,5.93,1.68,1.35,1.12,2.03,2.79,2.03,5Zm-10.25,3.4h1.49c1.4,0,2.44-.28,3.13-.83,.69-.55,1.04-1.35,1.04-2.41s-.29-1.85-.87-2.36c-.58-.51-1.49-.76-2.73-.76h-2.06v6.36Z"/><path class="b" d="M125.89,405.75c0,2.3-.72,4.07-2.16,5.29-1.44,1.22-3.49,1.83-6.14,1.83h-1.95v7.62h-4.54v-21.42h6.84c2.6,0,4.57,.56,5.92,1.68,1.35,1.12,2.03,2.79,2.03,5Zm-10.25,3.4h1.49c1.4,0,2.44-.28,3.13-.83,.69-.55,1.04-1.35,1.04-2.41s-.29-1.85-.87-2.36c-.58-.51-1.49-.76-2.73-.76h-2.07v6.36Z"/><path class="b" d="M149.45,420.49h-4.47v-21.42h12.28v3.72h-7.81v5.52h7.27v3.71h-7.27v8.47Z"/><path class="b" d="M169.62,412.27v8.22h-4.54v-21.42h6.24c2.91,0,5.06,.53,6.46,1.59s2.09,2.67,2.09,4.83c0,1.26-.35,2.38-1.04,3.36-.69,.98-1.68,1.75-2.95,2.31,3.22,4.81,5.32,7.92,6.3,9.33h-5.04l-5.11-8.22h-2.42Zm0-3.69h1.46c1.44,0,2.5-.24,3.18-.72s1.03-1.23,1.03-2.26-.35-1.74-1.05-2.17c-.7-.43-1.78-.64-3.24-.64h-1.38v5.79Z"/><path class="b" d="M201.62,420.49l-1.55-5.1h-7.81l-1.55,5.1h-4.89l7.56-21.5h5.55l7.59,21.5h-4.89Zm-2.64-8.91c-1.44-4.62-2.24-7.23-2.42-7.84-.18-.61-.31-1.08-.39-1.44-.32,1.25-1.24,4.34-2.77,9.27h5.58Z"/><path class="b" d="M221.91,420.49l-5.16-16.8h-.13c.19,3.42,.28,5.7,.28,6.84v9.96h-4.06v-21.42h6.18l5.07,16.38h.09l5.38-16.38h6.18v21.42h-4.23v-10.14c0-.48,0-1.03,.02-1.66,.02-.62,.08-2.29,.2-4.98h-.13l-5.52,16.77h-4.16Z"/><path class="b" d="M257.09,420.49h-12.33v-21.42h12.33v3.72h-7.79v4.7h7.25v3.72h-7.25v5.52h7.79v3.75Z"/><path class="b" d="M286.05,420.49h-5.17l-2.9-11.25c-.11-.4-.29-1.23-.55-2.48-.26-1.25-.41-2.1-.45-2.53-.06,.53-.21,1.38-.44,2.54-.23,1.17-.41,2-.54,2.5l-2.89,11.22h-5.16l-5.46-21.42h4.47l2.74,11.69c.48,2.16,.82,4.03,1.04,5.61,.06-.56,.19-1.42,.4-2.58,.21-1.17,.41-2.07,.59-2.72l3.12-12h4.29l3.12,12c.14,.54,.31,1.36,.51,2.46s.36,2.05,.47,2.84c.1-.76,.25-1.71,.47-2.85s.41-2.06,.59-2.76l2.72-11.69h4.47l-5.45,21.42Z"/><path class="b" d="M317.26,409.75c0,3.54-.88,6.27-2.64,8.17s-4.28,2.86-7.56,2.86-5.8-.95-7.56-2.86-2.64-4.64-2.64-8.2,.88-6.29,2.64-8.17c1.76-1.88,4.29-2.82,7.58-2.82s5.81,.95,7.55,2.84c1.74,1.89,2.62,4.62,2.62,8.17Zm-15.63,0c0,2.39,.46,4.19,1.36,5.41s2.27,1.82,4.07,1.82c3.62,0,5.43-2.41,5.43-7.22s-1.8-7.24-5.4-7.24c-1.81,0-3.17,.61-4.09,1.82-.92,1.22-1.38,3.02-1.38,5.41Z"/><path class="b" d="M329.87,412.27v8.22h-4.54v-21.42h6.24c2.91,0,5.06,.53,6.46,1.59s2.1,2.67,2.1,4.83c0,1.26-.35,2.38-1.04,3.36-.69,.98-1.67,1.75-2.94,2.31,3.22,4.81,5.32,7.92,6.3,9.33h-5.04l-5.11-8.22h-2.42Zm0-3.69h1.46c1.44,0,2.49-.24,3.18-.72s1.03-1.23,1.03-2.26-.35-1.74-1.05-2.17c-.7-.43-1.78-.64-3.24-.64h-1.38v5.79Z"/><path class="b" d="M365.99,420.49h-5.16l-5.61-9.02-1.92,1.38v7.65h-4.54v-21.42h4.54v9.8l1.79-2.52,5.8-7.28h5.04l-7.47,9.48,7.53,11.94Z"/><path class="b" d="M381.94,414.28v-3.66h7.87v3.66h-7.87Z"/><path class="b" d="M422.41,420.49h-15.94v-2.94l10.27-14.72h-9.99v-3.75h15.38v2.93l-10.25,14.74h10.53v3.75Z"/><path class="b" d="M448.89,409.75c0,3.54-.88,6.27-2.64,8.17s-4.28,2.86-7.56,2.86-5.8-.95-7.56-2.86-2.64-4.64-2.64-8.2,.88-6.29,2.64-8.17c1.76-1.88,4.29-2.82,7.58-2.82s5.81,.95,7.55,2.84c1.74,1.89,2.61,4.62,2.61,8.17Zm-15.63,0c0,2.39,.45,4.19,1.36,5.41s2.27,1.82,4.07,1.82c3.62,0,5.44-2.41,5.44-7.22s-1.8-7.24-5.41-7.24c-1.81,0-3.17,.61-4.09,1.82-.92,1.22-1.38,3.02-1.38,5.41Z"/><path class="b" d="M477.82,420.49h-5.17l-2.9-11.25c-.11-.4-.29-1.23-.55-2.48-.26-1.25-.41-2.1-.45-2.53-.06,.53-.21,1.38-.44,2.54-.23,1.17-.42,2-.54,2.5l-2.88,11.22h-5.16l-5.46-21.42h4.47l2.74,11.69c.48,2.16,.83,4.03,1.04,5.61,.06-.56,.19-1.42,.4-2.58,.21-1.17,.41-2.07,.59-2.72l3.12-12h4.29l3.12,12c.14,.54,.31,1.36,.51,2.46s.36,2.05,.47,2.84c.1-.76,.25-1.71,.47-2.85s.41-2.06,.59-2.76l2.72-11.69h4.47l-5.45,21.42Z"/><path class="b" d="M501.93,420.49h-12.33v-21.42h12.33v3.72h-7.79v4.7h7.25v3.72h-7.25v5.52h7.79v3.75Z"/><path class="b" d="M533.66,399.07h4.58l-7.28,21.42h-4.95l-7.27-21.42h4.58l4.03,12.74c.22,.75,.46,1.63,.7,2.63,.24,1,.39,1.7,.45,2.09,.11-.9,.47-2.47,1.1-4.72l4.06-12.74Z"/><path class="b" d="M558.05,420.49h-14.97v-3.15l5.38-5.43c1.59-1.63,2.63-2.76,3.12-3.39,.49-.63,.84-1.21,1.05-1.75s.32-1.09,.32-1.67c0-.86-.24-1.5-.71-1.92-.47-.42-1.11-.63-1.9-.63-.83,0-1.64,.19-2.42,.57s-1.6,.92-2.45,1.63l-2.46-2.92c1.05-.9,1.93-1.53,2.62-1.9s1.45-.66,2.27-.86c.82-.2,1.74-.3,2.75-.3,1.34,0,2.52,.24,3.54,.73s1.82,1.17,2.39,2.05,.85,1.88,.85,3.02c0,.99-.17,1.91-.52,2.78-.35,.86-.88,1.75-1.61,2.66-.73,.91-2.01,2.2-3.85,3.88l-2.75,2.59v.21h9.33v3.81Z"/></g></svg>