<?xml version="1.0" encoding="utf-8"?>
<!-- Generator: Adobe Illustrator 25.1.0, SVG Export Plug-In . SVG Version: 6.00 Build 0)  -->
<svg version="1.1" id="Layer_1" xmlns="http://www.w3.org/2000/svg" xmlns:xlink="http://www.w3.org/1999/xlink" x="0px" y="0px"
	 viewBox="0 0 1000 240" style="enable-background:new 0 0 1000 240;" xml:space="preserve">
<style type="text/css">
	.st0{fill:#020202;}
	.st1{fill:none;}
	.st2{fill:#2A7DE1;}
	.st3{fill:#00D400;}
	.st4{fill:#FFFFFF;}
	.st5{fill:#0033A1;}
</style>
<g>
	<g>
		<g>
			<g>
				
					<ellipse transform="matrix(0.7071 -0.7071 0.7071 0.7071 -1.6298 39.1062)" class="st1" cx="46.4" cy="21.5" rx="7.7" ry="7.7"/>
				
					<ellipse transform="matrix(0.7071 -0.7071 0.7071 0.7071 -9.1294 21.0007)" class="st1" cx="20.8" cy="21.5" rx="7.7" ry="7.7"/>
				<ellipse transform="matrix(0.7071 -0.7071 0.7071 0.7071 5.8386 57.1364)" class="st1" cx="71.9" cy="21.5" rx="7.7" ry="7.7"/>
				<path class="st2" d="M1.1,3.1v36.5h268.9V3.1H1.1z M20.8,29.2c-4.2,0-7.7-3.4-7.7-7.7c0-4.2,3.4-7.7,7.7-7.7
					c4.2,0,7.7,3.4,7.7,7.7C28.5,25.8,25,29.2,20.8,29.2z M46.4,29.2c-4.2,0-7.7-3.4-7.7-7.7c0-4.2,3.4-7.7,7.7-7.7
					c4.2,0,7.7,3.4,7.7,7.7C54.1,25.8,50.6,29.2,46.4,29.2z M71.9,29.2c-4.2,0-7.7-3.4-7.7-7.7c0-4.2,3.4-7.7,7.7-7.7
					c4.2,0,7.7,3.4,7.7,7.7C79.6,25.8,76.1,29.2,71.9,29.2z"/>
			</g>
			<rect x="1.1" y="48.7" class="st0" width="268.9" height="188.6"/>
			<rect x="27.5" y="157.9" class="st3" width="7.4" height="7.4"/>
			<rect x="35" y="165.4" class="st3" width="7.4" height="7.4"/>
			<rect x="42.4" y="165.4" class="st3" width="7.4" height="7.4"/>
			<rect x="49.8" y="172.8" class="st3" width="7.4" height="7.4"/>
			<rect x="57.3" y="172.8" class="st3" width="7.4" height="7.4"/>
			<rect x="64.7" y="180.3" class="st3" width="7.4" height="7.4"/>
			<rect x="72.2" y="180.3" class="st3" width="7.4" height="7.4"/>
			<rect x="79.6" y="187.7" class="st3" width="7.4" height="7.4"/>
			<rect x="87.1" y="187.7" class="st3" width="7.4" height="7.4"/>
			<rect x="94.5" y="195.2" class="st3" width="7.4" height="7.4"/>
			<rect x="102" y="195.2" class="st3" width="7.4" height="7.4"/>
			<rect x="109.4" y="202.6" class="st3" width="7.4" height="7.4"/>
			<rect x="116.9" y="150.5" class="st3" width="7.4" height="7.4"/>
			<rect x="116.9" y="157.9" class="st3" width="7.4" height="7.4"/>
			<rect x="116.9" y="165.4" class="st3" width="7.4" height="7.4"/>
			<rect x="116.9" y="172.8" class="st3" width="7.4" height="7.4"/>
			<rect x="116.9" y="180.3" class="st3" width="7.4" height="7.4"/>
			<rect x="116.9" y="187.7" class="st3" width="7.4" height="7.4"/>
			<rect x="116.9" y="195.2" class="st3" width="7.4" height="7.4"/>
			<rect x="116.9" y="202.6" class="st3" width="7.4" height="7.4"/>
			<rect x="116.9" y="210.1" class="st3" width="7.4" height="7.4"/>
			<rect x="146.7" y="150.5" class="st3" width="7.4" height="7.4"/>
			<rect x="146.7" y="210.1" class="st3" width="7.4" height="7.4"/>
			<rect x="154.1" y="150.5" class="st3" width="7.4" height="7.4"/>
			<rect x="154.1" y="202.6" class="st3" width="7.4" height="7.4"/>
			<rect x="154.1" y="210.1" class="st3" width="7.4" height="7.4"/>
			<rect x="161.6" y="150.5" class="st3" width="7.4" height="7.4"/>
			<rect x="161.6" y="210.1" class="st3" width="7.4" height="7.4"/>
			<rect x="169" y="150.5" class="st3" width="7.4" height="7.4"/>
			<rect x="169" y="195.2" class="st3" width="7.4" height="7.4"/>
			<rect x="169" y="210.1" class="st3" width="7.4" height="7.4"/>
			<rect x="176.5" y="150.5" class="st3" width="7.4" height="7.4"/>
			<rect x="161.6" y="195.2" class="st3" width="7.4" height="7.4"/>
			<rect x="176.5" y="210.1" class="st3" width="7.4" height="7.4"/>
			<rect x="183.9" y="150.5" class="st3" width="7.4" height="7.4"/>
			<rect x="183.9" y="187.7" class="st3" width="7.4" height="7.4"/>
			<rect x="176.5" y="187.7" class="st3" width="7.4" height="7.4"/>
			<rect x="183.9" y="210.1" class="st3" width="7.4" height="7.4"/>
			<rect x="191.4" y="150.5" class="st3" width="7.4" height="7.4"/>
			<rect x="191.4" y="180.3" class="st3" width="7.4" height="7.4"/>
			<rect x="191.4" y="210.1" class="st3" width="7.4" height="7.4"/>
			<rect x="198.8" y="150.5" class="st3" width="7.4" height="7.4"/>
			<rect x="198.8" y="180.3" class="st3" width="7.4" height="7.4"/>
			<rect x="198.8" y="210.1" class="st3" width="7.4" height="7.4"/>
			<rect x="206.3" y="150.5" class="st3" width="7.4" height="7.4"/>
			<rect x="206.3" y="172.8" class="st3" width="7.4" height="7.4"/>
			<rect x="206.3" y="210.1" class="st3" width="7.4" height="7.4"/>
			<rect x="213.7" y="150.5" class="st3" width="7.4" height="7.4"/>
			<rect x="213.7" y="172.8" class="st3" width="7.4" height="7.4"/>
			<rect x="213.7" y="210.1" class="st3" width="7.4" height="7.4"/>
			<rect x="221.2" y="150.5" class="st3" width="7.4" height="7.4"/>
			<rect x="221.2" y="210.1" class="st3" width="7.4" height="7.4"/>
			<rect x="228.6" y="150.5" class="st3" width="7.4" height="7.4"/>
			<rect x="228.6" y="165.4" class="st3" width="7.4" height="7.4"/>
			<rect x="221.2" y="165.4" class="st3" width="7.4" height="7.4"/>
			<rect x="228.6" y="210.1" class="st3" width="7.4" height="7.4"/>
			<rect x="236.1" y="150.5" class="st3" width="7.4" height="7.4"/>
			<rect x="236.1" y="157.9" class="st3" width="7.4" height="7.4"/>
			<rect x="236.1" y="210.1" class="st3" width="7.4" height="7.4"/>
			<g>
				<rect x="146.7" y="83.5" class="st3" width="7.4" height="7.4"/>
				<rect x="146.7" y="90.9" class="st3" width="7.4" height="7.4"/>
				<rect x="146.7" y="98.3" class="st3" width="7.4" height="7.4"/>
				<rect x="146.7" y="105.8" class="st3" width="7.4" height="7.4"/>
				<rect x="146.7" y="113.2" class="st3" width="7.4" height="7.4"/>
				<rect x="154.1" y="76" class="st3" width="7.4" height="7.4"/>
				<rect x="154.1" y="120.7" class="st3" width="7.4" height="7.4"/>
				<rect x="161.6" y="68.6" class="st3" width="7.4" height="7.4"/>
				<rect x="161.6" y="128.1" class="st3" width="7.4" height="7.4"/>
				<rect x="169" y="68.6" class="st3" width="7.4" height="7.4"/>
				<rect x="169" y="128.1" class="st3" width="7.4" height="7.4"/>
				<rect x="176.5" y="68.6" class="st3" width="7.4" height="7.4"/>
				<rect x="176.5" y="128.1" class="st3" width="7.4" height="7.4"/>
				<rect x="183.9" y="68.6" class="st3" width="7.4" height="7.4"/>
				<rect x="183.9" y="128.1" class="st3" width="7.4" height="7.4"/>
				<rect x="191.4" y="68.6" class="st3" width="7.4" height="7.4"/>
				<rect x="191.4" y="128.1" class="st3" width="7.4" height="7.4"/>
				<rect x="198.8" y="68.6" class="st3" width="7.4" height="7.4"/>
				<rect x="198.8" y="128.1" class="st3" width="7.4" height="7.4"/>
				<rect x="206.3" y="68.6" class="st3" width="7.4" height="7.4"/>
				<rect x="206.3" y="128.1" class="st3" width="7.4" height="7.4"/>
				<rect x="213.7" y="68.6" class="st3" width="7.4" height="7.4"/>
				<rect x="213.7" y="128.1" class="st3" width="7.4" height="7.4"/>
				<rect x="221.2" y="68.6" class="st3" width="7.4" height="7.4"/>
				<rect x="221.2" y="128.1" class="st3" width="7.4" height="7.4"/>
				<rect x="228.6" y="68.6" class="st3" width="7.4" height="7.4"/>
				<rect x="228.6" y="128.1" class="st3" width="7.4" height="7.4"/>
				<rect x="236.1" y="76" class="st3" width="7.4" height="7.4"/>
				<rect x="236.1" y="120.7" class="st3" width="7.4" height="7.4"/>
				<rect x="243.5" y="83.5" class="st3" width="7.4" height="7.4"/>
				<rect x="243.5" y="90.9" class="st3" width="7.4" height="7.4"/>
				<rect x="243.5" y="98.3" class="st3" width="7.4" height="7.4"/>
				<rect x="243.5" y="105.8" class="st3" width="7.4" height="7.4"/>
				<rect x="243.5" y="113.2" class="st3" width="7.4" height="7.4"/>
			</g>
			<rect x="20.1" y="83.5" class="st3" width="7.4" height="7.4"/>
			<rect x="20.1" y="90.9" class="st3" width="7.4" height="7.4"/>
			<rect x="20.1" y="98.3" class="st3" width="7.4" height="7.4"/>
			<rect x="20.1" y="105.8" class="st3" width="7.4" height="7.4"/>
			<rect x="20.1" y="113.2" class="st3" width="7.4" height="7.4"/>
			<rect x="27.5" y="76" class="st3" width="7.4" height="7.4"/>
			<rect x="27.5" y="120.7" class="st3" width="7.4" height="7.4"/>
			<rect x="35" y="68.6" class="st3" width="7.4" height="7.4"/>
			<rect x="35" y="128.1" class="st3" width="7.4" height="7.4"/>
			<rect x="42.4" y="68.6" class="st3" width="7.4" height="7.4"/>
			<rect x="42.4" y="128.1" class="st3" width="7.4" height="7.4"/>
			<rect x="49.8" y="68.6" class="st3" width="7.4" height="7.4"/>
			<rect x="49.8" y="128.1" class="st3" width="7.4" height="7.4"/>
			<rect x="57.3" y="68.6" class="st3" width="7.4" height="7.4"/>
			<rect x="57.3" y="128.1" class="st3" width="7.4" height="7.4"/>
			<rect x="64.7" y="68.6" class="st3" width="7.4" height="7.4"/>
			<rect x="64.7" y="128.1" class="st3" width="7.4" height="7.4"/>
			<rect x="72.2" y="68.6" class="st3" width="7.4" height="7.4"/>
			<rect x="72.2" y="128.1" class="st3" width="7.4" height="7.4"/>
			<rect x="79.6" y="68.6" class="st3" width="7.4" height="7.4"/>
			<rect x="79.6" y="128.1" class="st3" width="7.4" height="7.4"/>
			<rect x="87.1" y="68.6" class="st3" width="7.4" height="7.4"/>
			<rect x="87.1" y="128.1" class="st3" width="7.4" height="7.4"/>
			<rect x="94.5" y="68.6" class="st3" width="7.4" height="7.4"/>
			<rect x="94.5" y="128.1" class="st3" width="7.4" height="7.4"/>
			<rect x="102" y="68.6" class="st3" width="7.4" height="7.4"/>
			<rect x="102" y="128.1" class="st3" width="7.4" height="7.4"/>
			<rect x="109.4" y="76" class="st3" width="7.4" height="7.4"/>
			<rect x="109.4" y="120.7" class="st3" width="7.4" height="7.4"/>
			<rect x="116.9" y="83.5" class="st3" width="7.4" height="7.4"/>
			<rect x="116.9" y="113.2" class="st3" width="7.4" height="7.4"/>
			<rect x="243.5" y="150.5" class="st3" width="7.4" height="7.4"/>
			<rect x="243.5" y="210.1" class="st3" width="7.4" height="7.4"/>
			<rect x="20.1" y="150.5" class="st3" width="7.4" height="7.4"/>
			<rect x="20.1" y="157.9" class="st3" width="7.4" height="7.4"/>
			<rect x="20.1" y="165.4" class="st3" width="7.4" height="7.4"/>
			<rect x="20.1" y="172.8" class="st3" width="7.4" height="7.4"/>
			<rect x="20.1" y="180.3" class="st3" width="7.4" height="7.4"/>
			<rect x="20.1" y="187.7" class="st3" width="7.4" height="7.4"/>
			<rect x="20.1" y="195.2" class="st3" width="7.4" height="7.4"/>
			<rect x="20.1" y="202.6" class="st3" width="7.4" height="7.4"/>
			<rect x="20.1" y="210.1" class="st3" width="7.4" height="7.4"/>
			<g>
				<path class="st1" d="M323.7,67.3c3.3,0.1,6.5-1.2,8.9-3.6c2.4-2.3,3.7-5.5,3.6-8.8c0.1-3.3-1.2-6.5-3.6-8.8
					c-2.3-2.4-5.5-3.7-8.9-3.6c-3.3-0.1-6.6,1.2-8.9,3.6c-2.4,2.3-3.7,5.5-3.6,8.8c-0.1,3.3,1.3,6.5,3.6,8.8
					C317.2,66.1,320.4,67.4,323.7,67.3z"/>
				<path class="st2" d="M334.2,65.1c2.8-2.6,4.4-6.3,4.3-10.2c0.1-3.9-1.5-7.6-4.3-10.2c-2.8-2.8-6.6-4.3-10.6-4.2
					c-3.9-0.1-7.7,1.4-10.5,4.2c-2.8,2.6-4.4,6.4-4.3,10.2c-0.1,3.9,1.5,7.6,4.3,10.2C319,70.7,328.3,70.7,334.2,65.1z M314.8,46.1
					c2.4-2.4,5.6-3.7,8.9-3.6c3.3-0.1,6.5,1.2,8.9,3.6c2.4,2.3,3.7,5.5,3.6,8.8c0.1,3.3-1.2,6.5-3.6,8.8c-2.3,2.4-5.5,3.7-8.9,3.6
					c-3.3,0.1-6.6-1.2-8.9-3.6c-2.4-2.3-3.7-5.5-3.6-8.8C311.1,51.6,312.4,48.4,314.8,46.1z"/>
				<path class="st1" d="M356.6,52.5c1.2-1,1.9-2.6,1.8-4.2c0.1-1.6-0.6-3.1-1.8-4.1c-1.5-1.1-3.3-1.6-5.1-1.5H346V54h5.2
					C353.1,54.1,355,53.6,356.6,52.5z"/>
				<polygon class="st1" points="481.1,46.8 477,56.9 485.2,56.9 				"/>
				<path class="st1" d="M594.5,50.9c0.8-0.6,1.3-1.6,1.1-2.6h0c0.1-1.1-0.4-2.1-1.3-2.7c-1.3-0.6-2.7-0.9-4.1-0.8h-1.8v6.7h1.8
					C591.7,51.7,593.1,51.5,594.5,50.9z"/>
				<path class="st1" d="M779.4,64.2c3,0.1,5.8-1.1,7.9-3.2c2.1-2.1,3.3-4.9,3.2-7.9c0.1-3-1.1-5.8-3.2-7.9c-2.1-2.1-5-3.3-7.9-3.2
					c-3-0.1-5.9,1.1-8,3.2c-2.1,2.1-3.3,4.9-3.3,7.9c-0.1,3,1.1,5.8,3.3,7.9C773.5,63.1,776.4,64.2,779.4,64.2z"/>
				<path class="st1" d="M754.5,50.7c1.1-0.9,1.8-2.2,1.7-3.6c0.1-1.4-0.6-2.8-1.7-3.6c-1.5-1-3.2-1.4-4.9-1.3h-4.1V52h4.2
					C751.4,52.1,753.1,51.6,754.5,50.7z"/>
				<path class="st1" d="M733.2,51c1.1-0.9,1.7-2.3,1.6-3.8c0.1-1.4-0.5-2.8-1.6-3.7c-1.3-1-2.9-1.5-4.6-1.4l-4.9,0v10.2h4.7
					C730.1,52.4,731.8,51.9,733.2,51z"/>
				<polygon class="st1" points="624.5,46.8 620.4,56.9 628.6,56.9 				"/>
				<path class="st2" d="M723.7,53.9h4.8c2.2,0.2,4.5-0.5,6.3-1.8c1.4-1.2,2.2-3,2.1-4.9c0.1-1.9-0.7-3.7-2.1-4.9
					c-1.8-1.3-3.9-1.9-6.1-1.8h-6.9v25.1h1.9V53.9z M723.7,42.1l4.9,0c1.6-0.1,3.3,0.4,4.6,1.4c1.1,0.9,1.7,2.3,1.6,3.7
					c0.1,1.4-0.5,2.8-1.6,3.8c-1.4,1-3.1,1.4-4.8,1.3h-4.7V42.1z"/>
				<path class="st2" d="M745.5,53.6h3.4c1.3-0.1,2.5,0.2,3.6,0.9c1.4,1.2,2.5,2.7,3.4,4.3l4.4,6.9h2.3l-5.7-8.7
					c-0.8-1.5-2-2.8-3.3-3.8c2.8-0.7,4.8-3.2,4.8-6.1c0.1-1.8-0.7-3.6-2.1-4.7c-1.8-1.3-4-1.9-6.2-1.8h-6.4v25.1h1.9V53.6z
					 M745.5,42.1h4.1c1.7-0.1,3.5,0.3,4.9,1.3c1.1,0.8,1.8,2.2,1.7,3.6c0.1,1.4-0.6,2.8-1.7,3.6c-1.4,0.9-3.1,1.4-4.9,1.3h-4.2V42.1
					z"/>
				<path class="st2" d="M788.7,62.2c2.5-2.4,3.9-5.7,3.9-9.1c0.1-3.5-1.4-6.8-3.9-9.2c-2.5-2.5-5.9-3.8-9.5-3.8
					c-3.5-0.1-6.9,1.3-9.4,3.8c-2.5,2.4-3.9,5.7-3.9,9.2c-0.1,3.5,1.3,6.8,3.9,9.1C775.2,67.2,783.5,67.2,788.7,62.2z M771.4,45.2
					c2.1-2.1,5-3.3,8-3.2c3-0.1,5.8,1.1,7.9,3.2c2.1,2.1,3.3,4.9,3.2,7.9c0.1,3-1.1,5.8-3.2,7.9c-2.1,2.1-5,3.3-7.9,3.2
					c-3,0.1-5.9-1.1-8-3.2c-2.1-2.1-3.3-4.9-3.3-7.9C768.1,50.1,769.2,47.3,771.4,45.2z"/>
				<path class="st2" d="M797.1,73c1.4,0,2.7-0.6,3.7-1.6c1.2-1.6,1.8-3.7,1.6-5.7V40.5h-1.9v25.7c0,3.4-1.2,5-3.5,5
					c-0.4,0-0.8-0.1-1.2-0.1l0.2,1.8C796.3,73,796.7,73,797.1,73z"/>
				<polygon class="st2" points="825,64 812.9,64 812.9,53.8 824.4,53.8 824.4,52.2 812.9,52.2 812.9,42.1 824.7,42.1 824.7,40.5 
					811,40.5 811,65.7 825,65.7 				"/>
				<path class="st2" d="M844.3,66c3.1,0,6.2-0.9,8.9-2.4v-2c-2.7,1.6-5.8,2.5-8.9,2.6c-3,0.1-5.9-1-8.1-3.1c-2.1-2.1-3.3-5-3.2-7.9
					c-0.1-3,1.1-5.8,3.1-8c2.1-2.1,4.9-3.3,7.8-3.2c3.1,0.1,6.2,0.9,9,2.4v-2.1c-2.8-1.3-5.8-2.1-8.8-2.1c-3.5-0.1-6.8,1.3-9.3,3.7
					c-2.6,2.4-4,5.7-3.9,9.2c-0.1,3.5,1.3,6.8,3.8,9.2C837.3,64.8,840.7,66.1,844.3,66z"/>
				<polygon class="st2" points="857.1,42.1 866.5,42.1 866.5,65.7 868.5,65.7 868.5,42.1 877.9,42.1 877.9,40.5 857.1,40.5 				"/>
				<polygon class="st2" points="436.1,51.3 443.7,60.6 444.4,60.6 452,51.3 452,67.4 460.4,67.4 460.4,39.6 452.8,39.6 444.2,50 
					435.6,39.6 428,39.6 428,67.4 436.1,67.4 				"/>
				<path class="st2" d="M475,61.8h12.1l2.3,5.6h8.6l-12.3-27.9h-9.3l-12.3,27.9h8.6L475,61.8z M481.1,46.8l4.1,10.2H477L481.1,46.8
					z"/>
				<rect x="501.7" y="39.6" class="st2" width="8.4" height="27.9"/>
				<polygon class="st2" points="525.5,51.9 540,67.4 547.4,67.4 547.4,39.6 539.1,39.6 539.1,55 524.6,39.6 517.2,39.6 517.2,67.4 
					525.5,67.4 				"/>
				<polygon class="st2" points="562.8,56.1 574.4,56.1 574.4,50.5 562.8,50.5 562.8,45.1 574.4,45.1 574.4,39.6 554.4,39.6 
					554.4,67.4 562.8,67.4 				"/>
				<path class="st2" d="M588.4,56.5h0.9c0.8,0,1.6,0.1,2.4,0.4c0.8,0.4,1.4,0.9,1.9,1.6c0.9,1.2,1.6,2.6,2.2,4l2.2,4.9h9l-2.8-6.1
					c-0.6-1.5-1.4-3-2.4-4.4c-0.6-0.7-1.4-1.4-2.2-1.9c0.7-0.4,1.4-0.8,2-1.3c0.7-0.6,1.3-1.3,1.7-2.1c0.6-1.1,0.9-2.3,0.8-3.6
					c0-1.3-0.4-2.6-1-3.8c-0.7-1.4-1.8-2.6-3.2-3.4c-1.7-1-3.7-1.5-5.7-1.4H580v27.9h8.4V56.5z M588.4,44.9h1.8
					c1.4-0.1,2.8,0.2,4.1,0.8c0.9,0.6,1.4,1.6,1.3,2.7h0c0.1,1-0.3,2-1.1,2.6c-1.3,0.6-2.8,0.8-4.2,0.7h-1.8V44.9z"/>
				<path class="st2" d="M618.5,61.8h12.1l2.3,5.6h8.6l-12.3-27.9h-9.3l-12.3,27.9h8.6L618.5,61.8z M624.5,46.8l4.1,10.2h-8.2
					L624.5,46.8z"/>
				<polygon class="st2" points="653.3,51.3 660.9,60.6 661.6,60.6 669.1,51.3 669.1,67.4 677.5,67.4 677.5,39.6 669.9,39.6 
					661.3,50 652.8,39.6 645.1,39.6 645.1,67.4 653.3,67.4 				"/>
				<polygon class="st2" points="705.6,61.8 693,61.8 693,55.9 704.7,55.9 704.7,50.3 693,50.3 693,45.1 705.2,45.1 705.2,39.6 
					684.6,39.6 684.6,67.4 705.6,67.4 				"/>
				<path class="st2" d="M346,55.8h5.4c2.5,0.2,5-0.5,7-2c1.6-1.4,2.5-3.4,2.4-5.5c0.1-2.1-0.8-4.1-2.4-5.4c-2-1.4-4.4-2.2-6.8-2
					h-7.7v28.1h2.2V55.8z M346,42.7h5.5c1.8-0.1,3.7,0.4,5.1,1.5c1.2,1,1.9,2.5,1.8,4.1c0.1,1.6-0.6,3.2-1.8,4.2
					c-1.6,1.1-3.4,1.6-5.3,1.5H346V42.7z"/>
				<polygon class="st2" points="380.5,67.1 367.1,67.1 367.1,55.7 379.9,55.7 379.9,53.9 367.1,53.9 367.1,42.7 380.2,42.7 
					380.2,40.8 364.9,40.8 364.9,68.9 380.5,68.9 				"/>
				<polygon class="st2" points="387.2,44.4 408.5,68.9 410.3,68.9 410.3,40.8 408.1,40.8 408.1,65.4 386.8,40.8 385,40.8 385,68.9 
					387.2,68.9 				"/>
				<path class="st5" d="M303.2,151.8v-0.3c0-30.9,23.3-56.3,56.8-56.3c20.5,0,32.8,6.8,42.9,16.8l-15.2,17.6
					c-8.4-7.6-17-12.3-27.8-12.3c-18.4,0-31.6,15.2-31.6,33.9v0.3c0,18.7,12.9,34.2,31.6,34.2c12.4,0,20.1-5,28.6-12.8l15.2,15.4
					c-11.2,12-23.6,19.4-44.6,19.4C327,207.8,303.2,183.1,303.2,151.8z"/>
				<path class="st5" d="M413.1,164.7v-0.3c0-23.9,19.3-43.4,45.3-43.4c25.8,0,44.9,19.1,44.9,43.1v0.3c0,23.9-19.3,43.4-45.3,43.4
					C432.3,207.8,413.1,188.7,413.1,164.7z M480,164.7v-0.3c0-12.3-8.9-23-21.9-23c-13.5,0-21.6,10.4-21.6,22.7v0.3
					c0,12.3,8.9,23,21.9,23C471.9,187.5,480,177,480,164.7z"/>
				<path class="st5" d="M518.9,122.6h23.6v11.8c5.4-7,12.4-13.4,24.4-13.4c17.9,0,28.3,11.8,28.3,30.9v54h-23.6v-46.5
					c0-11.2-5.3-17-14.3-17c-9,0-14.8,5.8-14.8,17V206h-23.6V122.6z"/>
				<path class="st5" d="M607.7,194.9l10.1-15.6c9,6.5,18.5,10,26.3,10c6.8,0,10-2.5,10-6.2v-0.3c0-5.1-8.1-6.8-17.3-9.6
					c-11.7-3.4-24.9-8.9-24.9-25v-0.3c0-17,13.7-26.4,30.5-26.4c10.6,0,22.1,3.6,31.1,9.6l-9,16.3c-8.2-4.8-16.5-7.8-22.5-7.8
					c-5.8,0-8.7,2.5-8.7,5.8v0.3c0,4.7,7.9,6.8,17,10c11.7,3.9,25.2,9.5,25.2,24.7v0.3c0,18.5-13.8,26.9-31.9,26.9
					C631.8,207.5,618.7,203.6,607.7,194.9z"/>
				<path class="st5" d="M686.7,164.7v-0.3c0-23.9,19.3-43.4,45.3-43.4c25.8,0,44.9,19.1,44.9,43.1v0.3c0,23.9-19.3,43.4-45.3,43.4
					C705.8,207.8,686.7,188.7,686.7,164.7z M753.5,164.7v-0.3c0-12.3-8.9-23-21.9-23c-13.5,0-21.6,10.4-21.6,22.7v0.3
					c0,12.3,8.9,23,21.9,23C745.5,187.5,753.5,177,753.5,164.7z"/>
				<path class="st5" d="M793.5,92.4h23.6V206h-23.6V92.4z"/>
				<path class="st5" d="M833.8,164.7v-0.3c0-23.8,17-43.4,41.2-43.4c27.8,0,40.6,21.6,40.6,45.3c0,1.9-0.2,4-0.3,6.2h-58
					c2.3,10.7,9.8,16.3,20.4,16.3c7.9,0,13.7-2.5,20.2-8.6l13.5,12c-7.8,9.6-19,15.6-34.1,15.6C852.3,207.8,833.8,190.3,833.8,164.7
					z M892.6,157.7c-1.4-10.6-7.6-17.7-17.6-17.7c-9.8,0-16.2,7-18,17.7H892.6z"/>
				<path class="st5" d="M926.5,189.3l43.1-47.6h-41.7v-19.1h71.1v16.6l-43.2,47.6h43.2V206h-72.5V189.3z"/>
			</g>
		</g>
	</g>
</g>
</svg>
