<?xml version="1.0" encoding="UTF-8"?>
<svg id="Layer_1" data-name="Layer 1" xmlns="http://www.w3.org/2000/svg" viewBox="0 0 298 353.85974">
  <defs>
    <style>
      .cls-1 {
        fill: #fff;
      }

      .cls-2 {
        fill: #2a7de1;
      }

      .cls-3 {
        fill: #0033a1;
      }
    </style>
  </defs>
  <polygon class="cls-2" points="29.202 156.633 181.95599 55.782 271.51001 191.418 125.787 294.202 29.202 156.633"/>
  <polygon class="cls-3" points="181.95599 55.782 29.202 156.633 90.47745 158.70109 110.13642 164.96254 102.61992 179.20741 138.94512 193.83002 157.87097 183.16129 163.25924 107.69461 181.95599 55.782"/>
  <polyline class="cls-3" points="125.787 294.202 141.89271 247.03226 155.39128 150.67738 271.51001 191.418"/>
  <g>
    <polygon class="cls-1" points="136.84622 155.94534 138.25928 181.45045 165.2322 163.29906 163.25924 107.69461 90.47745 158.70109 102.61992 179.20741 136.84622 155.94534"/>
    <polygon class="cls-1" points="210.07474 170.73639 166.57197 201.05609 165.67722 175.84065 138.94512 193.83002 141.89271 247.03226 222.8353 189.53276 210.07474 170.73639"/>
  </g>
</svg>