<svg id="svg2" xmlns="http://www.w3.org/2000/svg" viewBox="0 0 1056 334.88305"><defs><style>.cls-1{fill:none;}.cls-2{fill:#fff;}</style></defs><path class="cls-1" d="M729.02228,174.38945q-3.56084-2.145-11.586-2.14714h-4.97309v18.87627h5.08649q8.648,0,11.83967-1.89341,3.193-1.892,3.193-7.262Q732.58236,176.538,729.02228,174.38945Z"/><path class="cls-1" d="M778.02191,273.83676q-3.05489-2.60423-8.743-2.60491h-9.3595v19.33547h8.91309q5.99915,0,9.11992-2.53686a9.70337,9.70337,0,0,0,.06948-14.1937Z"/><polygon class="cls-1" points="399.136 206.04 422.194 206.04 410.722 177.443 399.136 206.04"/><path class="cls-1" d="M821.82943,280.59136a8.15689,8.15689,0,0,0-3.25821-6.89207q-3.25683-2.46819-9.35808-2.46744h-7.81753v18.75294h7.95357q6.06726,0,9.27446-2.4518A8.225,8.225,0,0,0,821.82943,280.59136Z"/><polygon class="cls-1" points="802.381 206.04 825.439 206.04 813.967 177.443 802.381 206.04"/><path class="cls-1" d="M396.762,55.68958a14.45053,14.45053,0,0,0-5.02986-11.586q-5.02978-4.29419-14.41051-4.29565H361.89208V71.68314h14.694q9.88957,0,15.03417-4.18225Q396.76269,63.3193,396.762,55.68958Z"/><path class="cls-1" d="M299.27231,109.04073a33.9463,33.9463,0,0,0,24.89531-10.08794,33.53431,33.53431,0,0,0,10.14464-24.72662,33.59759,33.59759,0,0,0-10.14464-24.782,33.94075,33.94075,0,0,0-24.89531-10.08794A34.38657,34.38657,0,0,0,274.2069,49.4442a33.40607,33.40607,0,0,0-10.258,24.782,33.34361,33.34361,0,0,0,10.258,24.72662A34.39221,34.39221,0,0,0,299.27231,109.04073Z"/><path class="cls-1" d="M865.94661,270.95736a20.85472,20.85472,0,0,0-15.20421,6.12108,21.22881,21.22881,0,0,0,0,30.02993,20.85476,20.85476,0,0,0,15.20421,6.12108,20.58634,20.58634,0,0,0,15.1021-6.12108,21.395,21.395,0,0,0,0-30.02993A20.5863,20.5863,0,0,0,865.94661,270.95736Z"/><path class="cls-2" d="M190.56826,66.31243,110.963,20.35257a19.47328,19.47328,0,0,0-19.47152,0L11.88637,66.31243A19.47184,19.47184,0,0,0,2.14986,83.17617v91.91965a19.47365,19.47365,0,0,0,9.73651,16.86375l79.60515,45.95986a19.47328,19.47328,0,0,0,19.47152,0l79.60522-45.95986a19.47373,19.47373,0,0,0,9.73644-16.86375V83.17617A19.47192,19.47192,0,0,0,190.56826,66.31243ZM172.262,169.71959,136.63673,190.2881v-71.619l-34.405,42.43649H99.22L64.72291,118.66909V189.656L30.19179,169.71959V87.6952L64.32749,67.987l36.80867,44.93228,36.98442-44.93513L172.262,87.6952Z"/><path class="cls-2" d="M781.02075,271.54079q-4.03056-3.395-11.60435-3.39426H756.21615v47.89291h3.70327V293.65407H769.072q7.85084,0,11.91479-3.46375a11.70478,11.70478,0,0,0,4.06184-9.3935A11.462,11.462,0,0,0,781.02075,271.54079Zm-3.06832,16.48967q-3.12078,2.53825-9.11992,2.53686h-8.91309V271.23185h9.3595q5.68881,0,8.743,2.60491a9.70337,9.70337,0,0,1-.06948,14.1937Z"/><path class="cls-2" d="M816.7203,292.17872q9.11991-3.3589,9.11855-11.65685a11.06538,11.06538,0,0,0-4.07883-9.0335q-4.08167-3.34188-11.79289-3.34184H797.69234v47.89291h3.70327V293.07018h6.47822q4.48776,0,6.8198,1.62982,2.33,1.63052,6.51079,8.21432l8.34335,13.12512h4.38213l-10.83343-16.55766Q819.08711,293.31039,816.7203,292.17872Zm-7.37112-2.19393h-7.95357V271.23185h7.81753q6.10122,0,9.35808,2.46744a9.01739,9.01739,0,0,1,.05242,13.8337Q815.41781,289.98629,809.34918,289.98479Z"/><path class="cls-2" d="M865.80914,267.529h-.00007a24.7782,24.7782,0,0,0-17.94653,7.14859,24.299,24.299,0,0,0,0,34.83157,26.18895,26.18895,0,0,0,35.96255,0,24.21766,24.21766,0,0,0,0-34.83157A24.93639,24.93639,0,0,0,865.80914,267.529Zm15.23957,39.57934a20.58634,20.58634,0,0,1-15.1021,6.12108,20.85476,20.85476,0,0,1-15.20421-6.12108,21.22881,21.22881,0,0,1,0-30.02993,20.85472,20.85472,0,0,1,15.20421-6.12108,20.5863,20.5863,0,0,1,15.1021,6.12108,21.395,21.395,0,0,1,0,30.02993Z"/><path class="cls-2" d="M906.12106,317.03432q0,9.59831-6.71917,9.60045a9.69844,9.69844,0,0,1-2.19529-.27494l.34437,3.49631a21.21089,21.21089,0,0,0,2.22649.13747,9.60512,9.60512,0,0,0,7.06353-3.0159q2.98258-3.01869,2.98334-10.93684V268.14653h-3.70327Z"/><polygon class="cls-2" points="929.908 293.517 951.746 293.517 951.746 290.396 929.908 290.396 929.908 271.232 952.329 271.232 952.329 268.147 926.206 268.147 926.206 316.041 952.878 316.041 952.878 312.954 929.908 312.954 929.908 293.517"/><path class="cls-2" d="M974.09273,307.29762a20.2981,20.2981,0,0,1-6.03324-15.11916,20.683,20.683,0,0,1,5.99918-15.1518,20.12687,20.12687,0,0,1,14.9137-6.07,36.23046,36.23046,0,0,1,17.07349,4.62873v-4.04484a40.29675,40.29675,0,0,0-16.83261-4.01078,24.85651,24.85651,0,0,0-17.72543,7.06211,24.54417,24.54417,0,0,0-.15311,35.05408q7.2833,7.01327,18.22154,7.01112a36.05912,36.05912,0,0,0,16.97008-4.49126v-3.83931q-9.22415,4.90231-17.04092,4.90225Q980.1294,313.22874,974.09273,307.29762Z"/><polygon class="cls-2" points="1014.028 268.147 1014.028 271.232 1031.993 271.232 1031.993 316.041 1035.729 316.041 1035.729 271.232 1053.694 271.232 1053.694 268.147 1014.028 268.147"/><path class="cls-2" d="M299.04551,114.69269q17.51931,0,29.69978-11.78439a38.4021,38.4021,0,0,0,12.17838-28.68213,38.4702,38.4702,0,0,0-12.17838-28.7389q-12.1791-11.78157-29.69978-11.783-17.464,0-29.58638,11.783A38.56049,38.56049,0,0,0,257.336,74.22617a38.492,38.492,0,0,0,12.12311,28.68213Q281.58294,114.692,299.04551,114.69269ZM274.2069,49.4442a34.38657,34.38657,0,0,1,25.06541-10.08794A33.94075,33.94075,0,0,1,324.16762,49.4442a33.59759,33.59759,0,0,1,10.14464,24.782,33.53431,33.53431,0,0,1-10.14464,24.72662,33.9463,33.9463,0,0,1-24.89531,10.08794A34.39221,34.39221,0,0,1,274.2069,98.95279a33.34361,33.34361,0,0,1-10.258-24.72662A33.40607,33.40607,0,0,1,274.2069,49.4442Z"/><path class="cls-2" d="M396.62165,71.061q6.69651-5.70583,6.69647-15.4848,0-9.6642-6.64119-15.25949-6.63909-5.59528-19.13-5.59526H355.788v78.95328h6.10408V76.76964h15.09081Q389.92308,76.76964,396.62165,71.061Zm-34.72957.62216V39.80793h15.42953q9.37935,0,14.41051,4.29565a14.45053,14.45053,0,0,1,5.02986,11.586q0,7.62975-5.14177,11.81131-5.14463,4.18365-15.03417,4.18225Z"/><polygon class="cls-2" points="421.121 76.544 457.122 76.544 457.122 71.401 421.121 71.401 421.121 39.808 458.083 39.808 458.083 34.721 415.017 34.721 415.017 113.674 458.987 113.674 458.987 108.588 421.121 108.588 421.121 76.544"/><polygon class="cls-2" points="477.638 44.669 537.665 113.674 542.688 113.674 542.688 34.721 536.585 34.721 536.585 103.728 476.705 34.721 471.534 34.721 471.534 113.674 477.638 113.674 477.638 44.669"/><polygon class="cls-2" points="306.789 186.598 282.713 157.21 261.293 157.21 261.293 235.541 284.239 235.541 284.239 190.158 305.601 216.438 307.467 216.438 328.773 190.158 328.773 235.541 352.397 235.541 352.397 157.21 330.977 157.21 306.789 186.598"/><path class="cls-2" d="M397.55276,157.20878l-34.64453,78.33248h24.18952l6.4995-15.88022h34.02236l6.38753,15.88022h24.18808L423.6641,157.20878Zm1.58311,48.83115,11.58593-28.59714,11.4726,28.59714Z"/><rect class="cls-2" x="468.70882" y="157.20937" width="23.62263" height="78.33105"/><polygon class="cls-2" points="573.603 200.613 533.08 157.21 512.113 157.21 512.113 235.541 535.511 235.541 535.511 191.91 576.145 235.541 597.169 235.541 597.169 157.21 573.603 157.21 573.603 200.613"/><polygon class="cls-2" points="616.837 235.541 640.461 235.541 640.461 203.835 672.957 203.835 672.957 188.068 640.461 188.068 640.461 172.92 672.957 172.92 672.957 157.209 616.837 157.209 616.837 235.541"/><path class="cls-2" d="M756.77188,218.52953q-4.23678-9.2114-6.6979-12.23509a22.51541,22.51541,0,0,0-6.24434-5.22818,48.36059,48.36059,0,0,0,5.70866-3.56015,18.42851,18.42851,0,0,0,4.83277-5.96233,20.32374,20.32374,0,0,0,2.28747-10.03266,24.65758,24.65758,0,0,0-2.741-10.73846,23.75462,23.75462,0,0,0-8.95838-9.60753q-6.21606-3.95408-15.93692-3.95551H688.83913v78.33106h23.62406V204.96649h2.6559a18.78782,18.78782,0,0,1,6.64119.98781,13.18372,13.18372,0,0,1,5.28353,4.521,57.73028,57.73028,0,0,1,6.10408,11.16365l6.16072,13.9017h25.37577Zm-27.38253-29.30436q-3.19308,1.89413-11.83967,1.89341h-5.08649V172.24231h4.97309q8.0231,0,11.586,2.14714,3.56083,2.14929,3.56008,7.57372Q732.58236,187.33319,729.38935,189.22517Z"/><path class="cls-2" d="M826.90886,157.20878H800.79758l-34.6431,78.33248h24.18809l6.4995-15.88022h34.02236l6.3861,15.88022H861.44Zm-24.52824,48.83115,11.586-28.59714,11.4726,28.59714Z"/><polygon class="cls-2" points="917.335 186.598 893.259 157.21 871.839 157.21 871.839 235.541 894.784 235.541 894.784 190.158 916.147 216.438 918.013 216.438 939.319 190.158 939.319 235.541 962.942 235.541 962.942 157.21 941.523 157.21 917.335 186.598"/><polygon class="cls-2" points="1041.783 219.773 1006.347 219.773 1006.347 203.045 1039.239 203.045 1039.239 187.275 1006.347 187.275 1006.347 172.921 1040.823 172.921 1040.823 157.21 982.723 157.21 982.723 235.541 1041.783 235.541 1041.783 219.773"/></svg>